<?xml version="1.0" encoding="utf-8"?>
<!-- Generator: Adobe Illustrator 26.1.0, SVG Export Plug-In . SVG Version: 6.00 Build 0)  -->
<svg version="1.1" id="圖層_1" xmlns="http://www.w3.org/2000/svg" xmlns:xlink="http://www.w3.org/1999/xlink" x="0px" y="0px"
	 viewBox="0 0 148.24 148.24" style="enable-background:new 0 0 148.24 148.24;" xml:space="preserve">
<g>
	<defs>
		<rect id="SVGID_00000176045471375280099430000016427115447504593597_" width="148.24" height="148.24"/>
	</defs>
	<clipPath id="SVGID_00000005250382354294020040000013449643339699379876_">
		<use xlink:href="#SVGID_00000176045471375280099430000016427115447504593597_"  style="overflow:visible;"/>
	</clipPath>
	<path fill="currentColor" style="clip-path:url(#SVGID_00000005250382354294020040000013449643339699379876_);" d="M125.25,53.98
		c-0.06,0.36-0.15,0.72-0.18,1.08c-0.03,0.36,0.09,0.73,0.1,1.09c0.01,0.36-0.04,0.73,0.01,1.09c0.05,0.35,0.26,0.67,0.36,1.03
		c0.09,0.34,0.13,0.7,0.27,1.05c0.13,0.32,0.22,0.68,0.4,1.02c0.17,0.33,0.36,0.65,0.56,0.96c0.2,0.31,0.47,0.57,0.7,0.87
		c0.22,0.29,0.52,0.52,0.77,0.8c0.24,0.28,0.33,0.7,0.59,0.96c0.26,0.26,0.64,0.4,0.91,0.66c0.27,0.25,0.59,0.44,0.87,0.69
		c0.28,0.24,0.47,0.58,0.75,0.82c0.28,0.24,0.62,0.41,0.9,0.65c0.28,0.24,0.5,0.55,0.77,0.8c0.27,0.25,0.54,0.5,0.81,0.76
		c0.26,0.26,0.48,0.56,0.73,0.83c0.25,0.27,0.45,0.58,0.68,0.86c0.23,0.29,0.44,0.58,0.65,0.88c0.21,0.3,0.53,0.53,0.72,0.84
		c0.19,0.31,0.23,0.71,0.41,1.04c0.17,0.32,0.56,0.54,0.71,0.87c0.16,0.33,0.3,0.68,0.44,1.02c0.14,0.34,0.04,0.77,0.16,1.12
		c0.12,0.35,0.26,0.68,0.36,1.03c0.1,0.35,0.3,0.68,0.39,1.03c0.09,0.36,0.18,0.71,0.25,1.07c0.07,0.36-0.01,0.74,0.05,1.11
		c0.06,0.36,0.3,0.7,0.35,1.06c0.04,0.36-0.07,0.74-0.04,1.11c0.03,0.37,0.23,0.72,0.24,1.09c0.01,0.37-0.12,0.74-0.13,1.11
		c0,0.37,0.08,0.74,0.06,1.1c-0.01,0.37-0.2,0.72-0.23,1.09c-0.03,0.37-0.04,0.73-0.09,1.09c-0.04,0.36,0.12,0.76,0.06,1.12
		c-0.05,0.36-0.15,0.72-0.22,1.08c-0.07,0.36-0.32,0.68-0.4,1.04c-0.08,0.36-0.02,0.75-0.11,1.11c-0.09,0.36-0.24,0.7-0.34,1.05
		c-0.1,0.35-0.23,0.7-0.34,1.05c-0.12,0.35-0.27,0.68-0.4,1.02c-0.13,0.34-0.15,0.73-0.3,1.07c-0.14,0.34-0.35,0.65-0.51,0.98
		c-0.16,0.33-0.44,0.6-0.61,0.93c-0.17,0.33-0.25,0.7-0.43,1.02c-0.18,0.32-0.35,0.65-0.54,0.96c-0.2,0.31-0.34,0.66-0.55,0.96
		c-0.21,0.3-0.48,0.56-0.71,0.85c-0.22,0.29-0.52,0.53-0.75,0.81c-0.24,0.28-0.42,0.61-0.67,0.88c-0.25,0.27-0.52,0.53-0.78,0.78
		c-0.26,0.26-0.62,0.41-0.89,0.65c-0.28,0.24-0.5,0.54-0.79,0.77c-0.29,0.22-0.63,0.38-0.93,0.59c-0.3,0.21-0.51,0.57-0.82,0.76
		c-0.32,0.19-0.68,0.29-1.01,0.45c-0.33,0.17-0.64,0.36-0.98,0.5c-0.34,0.15-0.74,0.12-1.08,0.25c-0.34,0.12-0.67,0.29-1.03,0.39
		c-0.35,0.1-0.71,0.14-1.07,0.22c-0.36,0.08-0.67,0.38-1.04,0.44c-0.36,0.05-0.74,0.02-1.11,0.05c-0.38,0.03-0.76,0.02-1.14,0.02
		c-0.38,0.01-0.75-0.08-1.13-0.09c-0.38-0.01-0.76,0.02-1.13,0.01c-0.38-0.02-0.76-0.1-1.13-0.12c-0.38-0.01-0.76,0.05-1.14,0.05
		c-0.38,0-0.75,0.14-1.13,0.16c-0.38,0.03-0.75,0.06-1.12,0.12c-0.37,0.06-0.78-0.01-1.14,0.1c-0.36,0.11-0.67,0.35-1.01,0.52
		c-0.33,0.17-0.65,0.36-0.96,0.59c-0.29,0.22-0.52,0.51-0.79,0.79c-0.25,0.26-0.53,0.5-0.77,0.82c-0.21,0.3-0.4,0.6-0.58,0.9
		c-0.18,0.31-0.33,0.64-0.49,0.96c-0.16,0.32-0.27,0.66-0.41,0.99c-0.14,0.33-0.25,0.67-0.38,1.01c-0.13,0.34-0.28,0.66-0.4,1
		c-0.12,0.34-0.35,0.64-0.47,0.98c-0.12,0.34-0.12,0.72-0.24,1.06c-0.13,0.34-0.35,0.64-0.48,0.97s-0.32,0.64-0.47,0.97
		c-0.15,0.32-0.35,0.62-0.53,0.94c-0.18,0.31-0.27,0.68-0.47,0.97c-0.2,0.29-0.38,0.61-0.62,0.89c-0.24,0.29-0.64,0.44-0.89,0.72
		c-0.25,0.28-0.43,0.61-0.69,0.89c-0.25,0.27-0.43,0.62-0.7,0.89c-0.26,0.27-0.61,0.45-0.88,0.71c-0.27,0.26-0.52,0.54-0.8,0.79
		c-0.27,0.25-0.61,0.44-0.89,0.69c-0.28,0.25-0.54,0.52-0.83,0.76c-0.29,0.24-0.56,0.5-0.85,0.73c-0.3,0.23-0.51,0.56-0.82,0.78
		c-0.3,0.22-0.61,0.43-0.92,0.65c-0.31,0.21-0.75,0.23-1.06,0.43c-0.32,0.2-0.63,0.4-0.95,0.59c-0.32,0.19-0.6,0.45-0.93,0.63
		c-0.33,0.18-0.6,0.48-0.93,0.65c-0.33,0.17-0.73,0.22-1.07,0.37c-0.34,0.15-0.72,0.22-1.06,0.36c-0.35,0.14-0.68,0.31-1.03,0.43
		c-0.35,0.13-0.7,0.24-1.06,0.36c-0.36,0.11-0.69,0.29-1.05,0.39c-0.36,0.1-0.71,0.23-1.08,0.31c-0.36,0.08-0.75,0.08-1.11,0.15
		c-0.37,0.07-0.72,0.21-1.09,0.26c-0.36,0.05-0.73-0.04-1.09,0c-0.36,0.04-0.7,0.24-1.07,0.27c-0.36,0.03-0.72,0.05-1.09,0.07
		c-0.36,0.02-0.73-0.13-1.09-0.12c-0.36,0.01-0.72-0.01-1.08-0.01c-0.36,0-0.72,0-1.08-0.01c-0.36-0.01-0.73,0.07-1.09,0.05
		c-0.36-0.02-0.71-0.2-1.07-0.24c-0.36-0.04-0.73,0.02-1.09-0.02c-0.36-0.05-0.72-0.06-1.08-0.11c-0.36-0.06-0.7-0.19-1.06-0.26
		c-0.36-0.07-0.7-0.17-1.06-0.25c-0.35-0.08-0.74,0.01-1.1-0.08c-0.35-0.09-0.7-0.2-1.05-0.29c-0.35-0.1-0.68-0.25-1.03-0.36
		c-0.35-0.11-0.65-0.32-1-0.44c-0.34-0.12-0.74-0.09-1.07-0.22c-0.34-0.13-0.64-0.36-0.97-0.5c-0.33-0.14-0.71-0.19-1.04-0.34
		c-0.33-0.15-0.6-0.42-0.93-0.58c-0.32-0.16-0.7-0.21-1.02-0.38c-0.32-0.17-0.59-0.42-0.91-0.6c-0.31-0.18-0.64-0.33-0.95-0.52
		c-0.33-0.2-0.68-0.34-0.99-0.54c-0.32-0.21-0.57-0.5-0.87-0.71c-0.31-0.22-0.6-0.46-0.89-0.68c-0.3-0.23-0.6-0.45-0.88-0.68
		c-0.29-0.24-0.55-0.51-0.82-0.75c-0.28-0.26-0.51-0.55-0.77-0.81c-0.27-0.27-0.67-0.4-0.91-0.68c-0.25-0.28-0.4-0.64-0.63-0.93
		c-0.23-0.29-0.58-0.5-0.8-0.8c-0.22-0.3-0.28-0.71-0.48-1.02c-0.2-0.31-0.41-0.62-0.6-0.94c-0.19-0.32-0.51-0.56-0.69-0.9
		c-0.17-0.32-0.3-0.68-0.47-1.02c-0.16-0.33-0.23-0.71-0.38-1.05c-0.15-0.33-0.29-0.68-0.44-1.02c-0.15-0.34-0.21-0.71-0.36-1.06
		c-0.14-0.34-0.47-0.61-0.61-0.96c-0.14-0.34-0.32-0.67-0.46-1.02c-0.13-0.34-0.23-0.71-0.37-1.06c-0.13-0.34-0.29-0.68-0.42-1.04
		c-0.13-0.35-0.15-0.74-0.32-1.07c-0.17-0.33-0.39-0.64-0.59-0.94c-0.2-0.31-0.49-0.55-0.72-0.84c-0.23-0.29-0.45-0.58-0.7-0.85
		c-0.25-0.27-0.53-0.5-0.81-0.75c-0.27-0.25-0.48-0.58-0.77-0.81c-0.29-0.23-0.62-0.4-0.93-0.61c-0.3-0.21-0.67-0.31-0.99-0.5
		c-0.31-0.19-0.5-0.6-0.83-0.78c-0.32-0.18-0.67-0.33-1-0.49c-0.33-0.16-0.75-0.14-1.09-0.29c-0.34-0.15-0.64-0.37-0.98-0.52
		c-0.34-0.14-0.72-0.19-1.06-0.33c-0.35-0.13-0.66-0.34-1.01-0.46c-0.35-0.12-0.69-0.26-1.04-0.37c-0.35-0.12-0.71-0.21-1.06-0.32
		c-0.36-0.11-0.71-0.21-1.07-0.31c-0.36-0.1-0.68-0.32-1.03-0.42c-0.36-0.1-0.72-0.21-1.07-0.3c-0.36-0.1-0.72-0.19-1.07-0.28
		c-0.36-0.09-0.76-0.04-1.11-0.13c-0.36-0.09-0.67-0.34-1.03-0.44c-0.35-0.1-0.72-0.17-1.07-0.29c-0.35-0.12-0.75-0.1-1.1-0.23
		c-0.34-0.13-0.66-0.34-1-0.49c-0.34-0.15-0.67-0.32-1-0.48c-0.33-0.16-0.68-0.3-1-0.48c-0.33-0.17-0.61-0.42-0.93-0.61
		c-0.32-0.19-0.57-0.47-0.88-0.67c-0.31-0.2-0.74-0.22-1.05-0.43c-0.3-0.21-0.57-0.47-0.86-0.7c-0.29-0.23-0.61-0.42-0.9-0.66
		c-0.28-0.24-0.49-0.57-0.76-0.82c-0.27-0.25-0.55-0.5-0.81-0.76c-0.26-0.26-0.49-0.55-0.74-0.82c-0.25-0.27-0.46-0.57-0.7-0.85
		c-0.24-0.28-0.49-0.54-0.72-0.83c-0.23-0.29-0.48-0.56-0.69-0.86c-0.22-0.3-0.51-0.55-0.71-0.86c-0.2-0.31-0.28-0.69-0.47-1.01
		c-0.19-0.32-0.53-0.55-0.7-0.87C9,89.13,8.84,88.8,8.67,88.46c-0.16-0.33-0.27-0.69-0.41-1.03c-0.15-0.34-0.27-0.69-0.41-1.03
		c-0.13-0.34-0.2-0.71-0.32-1.06c-0.12-0.35-0.27-0.69-0.37-1.04c-0.1-0.35-0.23-0.7-0.32-1.06c-0.09-0.36-0.15-0.72-0.22-1.09
		c-0.07-0.36-0.16-0.72-0.21-1.09c-0.06-0.36-0.14-0.73-0.18-1.1c-0.04-0.37,0.03-0.74,0-1.11c-0.02-0.37-0.17-0.73-0.18-1.1
		C6.04,77.38,6.2,77,6.21,76.63c0.01-0.37-0.06-0.75-0.04-1.12c0.02-0.37,0.03-0.75,0.07-1.12c0.03-0.37,0.17-0.73,0.21-1.1
		c0.05-0.37-0.01-0.76,0.05-1.12c0.06-0.37,0.32-0.7,0.4-1.06c0.08-0.37-0.02-0.77,0.07-1.13c0.09-0.36,0.35-0.68,0.46-1.03
		c0.1-0.36,0.16-0.73,0.27-1.08c0.12-0.35,0.2-0.72,0.33-1.07c0.13-0.35,0.25-0.7,0.4-1.05c0.14-0.34,0.36-0.66,0.52-0.99
		c0.16-0.34,0.3-0.68,0.47-1.01c0.17-0.33,0.25-0.71,0.43-1.04c0.18-0.33,0.38-0.65,0.57-0.96c0.19-0.32,0.41-0.62,0.61-0.94
		c0.2-0.31,0.42-0.61,0.64-0.92c0.21-0.31,0.56-0.51,0.78-0.81c0.22-0.3,0.27-0.73,0.5-1.02c0.23-0.29,0.63-0.45,0.86-0.74
		c0.24-0.29,0.5-0.54,0.75-0.82c0.24-0.28,0.33-0.7,0.58-0.98c0.25-0.27,0.59-0.46,0.85-0.73c0.26-0.27,0.59-0.46,0.86-0.72
		c0.26-0.26,0.53-0.51,0.8-0.77c0.27-0.25,0.5-0.55,0.77-0.8c0.28-0.25,0.55-0.5,0.83-0.74c0.28-0.24,0.51-0.55,0.79-0.79
		c0.29-0.24,0.55-0.5,0.84-0.73c0.29-0.23,0.58-0.47,0.88-0.69c0.29-0.23,0.6-0.44,0.9-0.66c0.3-0.22,0.72-0.28,1.02-0.49
		c0.3-0.22,0.51-0.57,0.82-0.78c0.31-0.21,0.7-0.29,1.01-0.5c0.32-0.21,0.61-0.46,0.93-0.68c0.32-0.21,0.58-0.52,0.9-0.73
		c0.32-0.21,0.7-0.34,1.02-0.55c0.32-0.22,0.66-0.41,0.96-0.64c0.31-0.23,0.57-0.53,0.86-0.78c0.29-0.25,0.52-0.57,0.79-0.84
		c0.27-0.27,0.48-0.59,0.72-0.89c0.24-0.3,0.49-0.58,0.69-0.91c0.2-0.32,0.39-0.65,0.55-1c0.14-0.32,0.42-0.59,0.52-0.92
		c0.1-0.33,0.11-0.69,0.18-1.03c0.07-0.34,0.09-0.69,0.15-1.03c0.06-0.34,0.23-0.66,0.29-1c0.07-0.36,0.05-0.74,0.12-1.1
		c0.08-0.36,0.08-0.74,0.17-1.1c0.08-0.36,0.11-0.73,0.2-1.09c0.09-0.36,0.23-0.7,0.34-1.06c0.1-0.35,0.17-0.72,0.28-1.07
		c0.11-0.35,0.36-0.66,0.48-1.01c0.12-0.35,0.16-0.73,0.29-1.07c0.13-0.35,0.42-0.63,0.56-0.97c0.14-0.34,0.17-0.73,0.31-1.07
		c0.15-0.34,0.36-0.65,0.52-0.98c0.16-0.33,0.29-0.68,0.46-1.01c0.17-0.33,0.4-0.62,0.58-0.95c0.18-0.32,0.18-0.74,0.37-1.06
		c0.19-0.32,0.46-0.59,0.65-0.9c0.2-0.31,0.48-0.56,0.69-0.87c0.21-0.31,0.32-0.67,0.54-0.97c0.22-0.3,0.36-0.66,0.58-0.95
		c0.23-0.29,0.65-0.42,0.89-0.7c0.24-0.28,0.44-0.59,0.69-0.86c0.25-0.27,0.42-0.62,0.68-0.88c0.26-0.26,0.63-0.41,0.9-0.66
		c0.27-0.25,0.5-0.54,0.78-0.78c0.28-0.24,0.46-0.61,0.75-0.83c0.29-0.23,0.64-0.38,0.94-0.59c0.3-0.21,0.59-0.45,0.9-0.65
		c0.31-0.2,0.69-0.28,1.01-0.46c0.32-0.18,0.6-0.45,0.93-0.61c0.33-0.16,0.66-0.34,1-0.49c0.34-0.15,0.74-0.14,1.08-0.27
		c0.34-0.13,0.7-0.2,1.06-0.32c0.35-0.11,0.69-0.24,1.05-0.34c0.35-0.09,0.71-0.16,1.07-0.24c0.36-0.07,0.71-0.19,1.08-0.25
		c0.36-0.06,0.72-0.15,1.09-0.19c0.36-0.04,0.7-0.19,1.07-0.22c0.36-0.03,0.72-0.03,1.08-0.05c0.36-0.02,0.72,0.02,1.09,0.01
		c0.36-0.01,0.72,0.04,1.08,0.04c0.36,0,0.72,0.01,1.08,0.02c0.36,0.01,0.72,0.09,1.08,0.11c0.36,0.02,0.72,0.05,1.08,0.08
		c0.36,0.03,0.72,0,1.08,0.04c0.36,0.04,0.74-0.11,1.1-0.06c0.36,0.05,0.7,0.21,1.06,0.27c0.36,0.06,0.69,0.23,1.04,0.31
		c0.35,0.07,0.73,0.04,1.08,0.12c0.35,0.09,0.71,0.15,1.05,0.25c0.35,0.1,0.7,0.19,1.04,0.3c0.34,0.11,0.68,0.25,1.02,0.38
		c0.34,0.13,0.68,0.26,1.01,0.4c0.33,0.14,0.63,0.36,0.95,0.52c0.32,0.16,0.65,0.32,0.96,0.5c0.31,0.18,0.62,0.37,0.92,0.56
		c0.31,0.2,0.59,0.45,0.89,0.67c0.3,0.21,0.71,0.28,1.01,0.5c0.3,0.22,0.47,0.61,0.77,0.84c0.29,0.23,0.65,0.37,0.94,0.6
		c0.29,0.23,0.5,0.56,0.8,0.79c0.29,0.23,0.63,0.4,0.93,0.62c0.3,0.23,0.69,0.33,0.98,0.55c0.3,0.22,0.5,0.58,0.8,0.79
		c0.31,0.21,0.57,0.5,0.88,0.7c0.32,0.2,0.76,0.18,1.08,0.36c0.33,0.19,0.61,0.43,0.94,0.59c0.34,0.16,0.62,0.46,0.96,0.59
		c0.35,0.14,0.71,0.25,1.07,0.35c0.36,0.1,0.76,0.01,1.13,0.07c0.37,0.06,0.72,0.12,1.1,0.14c0.37,0.02,0.74,0.19,1.12,0.16
		c0.36-0.03,0.73-0.17,1.1-0.25c0.36-0.08,0.71-0.19,1.08-0.27c0.36-0.08,0.74-0.06,1.11-0.14c0.36-0.07,0.7-0.29,1.07-0.36
		c0.36-0.07,0.73-0.11,1.1-0.18c0.36-0.07,0.73-0.12,1.1-0.18c0.37-0.06,0.72-0.22,1.09-0.28c0.37-0.06,0.77,0.12,1.14,0.07
		c0.37-0.05,0.71-0.28,1.08-0.33c0.37-0.04,0.75,0.02,1.12-0.02c0.37-0.04,0.74-0.12,1.11-0.15s0.75,0,1.12-0.02
		c0.37-0.02,0.74-0.05,1.12-0.06c0.37-0.01,0.75-0.09,1.12-0.09c0.37,0,0.75,0.11,1.12,0.13c0.37,0.01,0.75-0.06,1.12-0.04
		c0.37,0.02,0.75,0.04,1.12,0.07c0.37,0.04,0.74,0.13,1.11,0.18c0.37,0.05,0.72,0.21,1.08,0.28c0.37,0.07,0.75,0.05,1.11,0.13
		c0.36,0.09,0.71,0.22,1.07,0.32c0.36,0.1,0.69,0.26,1.05,0.39c0.35,0.12,0.69,0.27,1.03,0.42c0.34,0.14,0.71,0.23,1.05,0.39
		c0.33,0.17,0.69,0.29,1.01,0.48c0.32,0.19,0.66,0.35,0.97,0.56c0.31,0.21,0.59,0.47,0.88,0.7c0.3,0.23,0.56,0.5,0.84,0.75
		c0.28,0.25,0.51,0.55,0.77,0.82c0.27,0.27,0.61,0.46,0.85,0.74c0.25,0.28,0.54,0.53,0.77,0.83c0.23,0.3,0.45,0.61,0.66,0.92
		c0.21,0.31,0.43,0.63,0.61,0.95c0.18,0.33,0.15,0.77,0.31,1.1c0.16,0.34,0.43,0.62,0.57,0.97c0.14,0.35,0.14,0.74,0.25,1.1
		c0.12,0.35,0.4,0.66,0.5,1.02c0.1,0.36,0.08,0.75,0.16,1.12c0.08,0.36,0.21,0.72,0.27,1.09c0.06,0.37-0.02,0.75,0.02,1.12
		c0.04,0.37,0.07,0.74,0.09,1.11c0.02,0.37,0.07,0.74,0.08,1.11c0.01,0.37,0.12,0.75,0.11,1.12c-0.01,0.37-0.11,0.74-0.13,1.12
		c-0.02,0.37,0,0.75-0.03,1.12c-0.03,0.37-0.17,0.73-0.21,1.1c-0.05,0.37-0.07,0.74-0.13,1.11c-0.06,0.37,0.04,0.77-0.03,1.13
		c-0.07,0.37-0.35,0.69-0.44,1.05c-0.08,0.36,0.01,0.77-0.08,1.13c-0.09,0.36-0.23,0.71-0.33,1.07c-0.09,0.33-0.11,0.68-0.21,1.01
		c-0.1,0.33-0.28,0.63-0.38,0.95c-0.1,0.33-0.16,0.67-0.26,0.99c-0.1,0.33-0.21,0.65-0.3,0.97c-0.09,0.33-0.34,0.62-0.42,0.94
		C125.38,53.31,125.3,53.64,125.25,53.98z"/>
</g>
</svg>
