<?xml version="1.0" encoding="utf-8"?>
<!-- Generator: Adobe Illustrator 26.1.0, SVG Export Plug-In . SVG Version: 6.00 Build 0)  -->
<svg version="1.1" id="圖層_1" xmlns="http://www.w3.org/2000/svg" xmlns:xlink="http://www.w3.org/1999/xlink" x="0px" y="0px"
	 viewBox="0 0 174.76 142.08" style="enable-background:new 0 0 174.76 142.08;" xml:space="preserve">
<style type="text/css">
	.st0{fill:#C89E8E;}
</style>
<path fill="currentColor" d="M174.76,66.7c-0.02-0.4-0.05-0.81-0.09-1.21c-0.04-0.41-0.25-0.8-0.31-1.2c-0.05-0.41-0.12-0.81-0.18-1.21
	c-0.06-0.41-0.26-0.78-0.34-1.18c-0.07-0.4-0.09-0.81-0.17-1.21c-0.09-0.4-0.02-0.83-0.12-1.23c-0.1-0.4-0.32-0.76-0.44-1.15
	c-0.11-0.39-0.29-0.76-0.42-1.14c-0.13-0.39-0.14-0.81-0.29-1.19c-0.15-0.38-0.32-0.75-0.48-1.12c-0.16-0.38-0.34-0.74-0.53-1.1
	c-0.18-0.37-0.31-0.76-0.51-1.11c-0.2-0.36-0.57-0.6-0.8-0.94c-0.22-0.34-0.4-0.71-0.65-1.03c-0.24-0.33-0.35-0.76-0.62-1.07
	c-0.27-0.31-0.7-0.47-0.98-0.75c-0.29-0.29-0.57-0.57-0.88-0.83c-0.31-0.27-0.57-0.59-0.89-0.83c-0.32-0.24-0.61-0.55-0.96-0.77
	c-0.46-0.29-0.91-0.51-1.4-0.73c-0.03-0.39-0.12-0.73-0.16-1.11c-0.04-0.39-0.11-0.78-0.17-1.16c-0.06-0.39-0.07-0.79-0.15-1.17
	c-0.08-0.38-0.35-0.72-0.45-1.1c-0.1-0.38-0.1-0.78-0.22-1.15c-0.12-0.37-0.3-0.72-0.44-1.09c-0.14-0.37-0.32-0.71-0.47-1.07
	c-0.16-0.36-0.32-0.71-0.49-1.06c-0.18-0.35-0.36-0.69-0.56-1.03c-0.2-0.34-0.29-0.74-0.5-1.07c-0.22-0.33-0.45-0.64-0.69-0.96
	c-0.24-0.31-0.41-0.68-0.67-0.97c-0.27-0.31-0.67-0.49-0.94-0.79c-0.28-0.3-0.57-0.58-0.85-0.87c-0.28-0.29-0.52-0.63-0.81-0.9
	c-0.29-0.28-0.51-0.64-0.81-0.91c-0.3-0.27-0.75-0.37-1.06-0.63c-0.32-0.26-0.51-0.66-0.83-0.91c-0.33-0.24-0.66-0.48-0.99-0.71
	c-0.34-0.23-0.64-0.51-0.99-0.72c-0.35-0.21-0.86-0.14-1.21-0.32c-0.36-0.19-0.71-0.38-1.07-0.55c-0.37-0.17-0.73-0.34-1.1-0.48
	c-0.38-0.14-0.7-0.44-1.09-0.56c-0.39-0.12-0.79-0.2-1.18-0.29c-0.39-0.09-0.77-0.3-1.17-0.36c-0.4-0.06-0.83,0.1-1.23,0.07
	c-0.4-0.03-0.84-0.01-1.25-0.01c-0.18-0.35-0.19-0.84-0.38-1.18c-0.19-0.35-0.59-0.57-0.8-0.9c-0.21-0.34-0.49-0.61-0.72-0.93
	c-0.22-0.33-0.44-0.64-0.68-0.95c-0.24-0.31-0.36-0.72-0.62-1.01c-0.26-0.3-0.61-0.5-0.89-0.78c-0.27-0.28-0.39-0.73-0.68-0.99
	c-0.29-0.27-0.68-0.42-0.99-0.66c-0.31-0.25-0.66-0.43-0.98-0.65c-0.32-0.23-0.67-0.4-1-0.61c-0.33-0.21-0.62-0.49-0.96-0.68
	c-0.35-0.18-0.7-0.35-1.06-0.51c-0.39-0.17-0.8-0.31-1.19-0.47c-0.4-0.16-0.78-0.36-1.17-0.5c-0.4-0.15-0.79-0.33-1.19-0.46
	c-0.41-0.13-0.79-0.36-1.2-0.47c-0.41-0.12-0.82-0.26-1.23-0.36c-0.42-0.1-0.89,0.05-1.3-0.03c-0.42-0.08-0.82-0.27-1.24-0.33
	c-0.42-0.06-0.84-0.24-1.26-0.28c-0.43-0.04-0.88,0.13-1.31,0.11c-0.21-0.36-0.5-0.67-0.73-1.01c-0.23-0.34-0.48-0.66-0.72-0.99
	c-0.25-0.33-0.43-0.7-0.7-1.01c-0.26-0.32-0.5-0.66-0.78-0.95c-0.28-0.3-0.59-0.57-0.89-0.85c-0.3-0.28-0.54-0.63-0.85-0.89
	c-0.32-0.26-0.67-0.48-1-0.72s-0.71-0.41-1.06-0.62c-0.35-0.22-0.7-0.41-1.07-0.61c-0.36-0.19-0.75-0.31-1.13-0.48
	c-0.38-0.17-0.77-0.27-1.15-0.43c-0.38-0.16-0.72-0.41-1.1-0.55c-0.39-0.14-0.73-0.39-1.12-0.52c-0.39-0.13-0.84-0.05-1.24-0.16
	c-0.4-0.11-0.78-0.26-1.17-0.36c-0.4-0.1-0.78-0.29-1.17-0.37c-0.4-0.08-0.79-0.29-1.19-0.35c-0.41-0.06-0.82-0.13-1.22-0.17
	c-0.41-0.04-0.84,0.16-1.25,0.14c-0.41-0.02-0.81-0.05-1.22-0.05c-0.41,0-0.83-0.23-1.24-0.21c-0.41,0.02-0.82,0.11-1.23,0.15
	c-0.41,0.04-0.78,0.31-1.19,0.38c-0.4,0.07-0.82,0.05-1.22,0.14c-0.4,0.09-0.83,0.05-1.23,0.17c-0.39,0.11-0.79,0.23-1.18,0.37
	c-0.38,0.13-0.73,0.4-1.11,0.55C91.77,1.91,91.36,2,90.99,2.18c-0.36,0.18-0.75,0.33-1.12,0.53c-0.36,0.2-0.67,0.48-1.03,0.69
	c-0.34,0.21-0.65,0.44-0.99,0.68c-0.34-0.24-0.64-0.47-0.99-0.69c-0.35-0.22-0.7-0.45-1.05-0.64c-0.36-0.2-0.82-0.2-1.19-0.38
	c-0.37-0.18-0.73-0.38-1.1-0.54c-0.38-0.16-0.76-0.3-1.15-0.43C81.98,1.26,81.6,1.11,81.21,1c-0.4-0.11-0.75-0.38-1.15-0.47
	c-0.4-0.09-0.82-0.11-1.22-0.18C78.43,0.28,78,0.44,77.59,0.4c-0.41-0.04-0.8-0.2-1.21-0.22c-0.41-0.02-0.82,0.1-1.23,0.1
	c-0.41,0-0.81-0.07-1.22-0.05c-0.41,0.02-0.84-0.19-1.25-0.14c-0.41,0.04-0.81,0.13-1.22,0.2c-0.4,0.06-0.77,0.36-1.17,0.44
	c-0.4,0.08-0.8,0.16-1.2,0.26c-0.4,0.1-0.82,0.09-1.22,0.21c-0.39,0.11-0.81,0.17-1.2,0.3c-0.39,0.13-0.78,0.26-1.16,0.4
	c-0.38,0.14-0.69,0.48-1.07,0.63c-0.38,0.15-0.86,0.08-1.23,0.25c-0.38,0.17-0.74,0.38-1.1,0.58c-0.36,0.19-0.74,0.39-1.08,0.61
	c-0.35,0.22-0.55,0.66-0.88,0.9c-0.33,0.24-0.62,0.53-0.94,0.79c-0.32,0.26-0.8,0.33-1.1,0.61c-0.3,0.28-0.43,0.73-0.71,1.03
	c-0.28,0.3-0.52,0.62-0.78,0.94c-0.26,0.31-0.76,0.44-1.01,0.78c-0.24,0.33-0.22,0.85-0.45,1.19c-0.23,0.34-0.58,0.6-0.79,0.95
	c-0.41-0.02-0.82-0.17-1.23-0.17c-0.41,0-0.82,0.13-1.23,0.15c-0.41,0.02-0.8,0.25-1.21,0.29c-0.41,0.04-0.8,0.11-1.21,0.17
	c-0.4,0.06-0.81,0.07-1.22,0.15c-0.4,0.08-0.85-0.06-1.25,0.04c-0.4,0.1-0.73,0.45-1.12,0.56c-0.39,0.11-0.78,0.23-1.17,0.36
	c-0.39,0.13-0.77,0.27-1.15,0.42c-0.38,0.14-0.86,0.04-1.24,0.2c-0.38,0.15-0.78,0.28-1.15,0.44c-0.37,0.17-0.63,0.56-0.99,0.75
	c-0.36,0.19-0.75,0.32-1.09,0.53c-0.34,0.21-0.68,0.44-1.01,0.68c-0.33,0.23-0.59,0.55-0.9,0.81c-0.31,0.26-0.71,0.41-1.01,0.68
	c-0.3,0.27-0.49,0.65-0.77,0.95c-0.28,0.29-0.61,0.53-0.87,0.84c-0.26,0.31-0.57,0.58-0.81,0.91c-0.24,0.32-0.47,0.66-0.7,0.99
	c-0.22,0.33-0.4,0.71-0.61,1.05c-0.21,0.34-0.51,0.64-0.7,1c-0.19,0.35-0.15,0.83-0.32,1.2c-0.17,0.36-0.38,0.71-0.54,1.08
	c-0.16,0.37-0.29,0.82-0.43,1.2c-0.41,0.11-0.85,0.27-1.25,0.4c-0.4,0.13-0.9,0-1.29,0.16c-0.39,0.16-0.69,0.52-1.07,0.71
	c-0.38,0.18-0.7,0.46-1.07,0.67c-0.36,0.2-0.82,0.25-1.18,0.48c-0.35,0.22-0.7,0.46-1.05,0.7c-0.34,0.24-0.69,0.48-1.03,0.73
	c-0.33,0.25-0.69,0.48-1.02,0.75c-0.32,0.27-0.46,0.74-0.78,1.02c-0.31,0.28-0.64,0.53-0.94,0.83c-0.3,0.29-0.8,0.38-1.1,0.69
	c-0.29,0.3-0.57,0.62-0.85,0.94c-0.28,0.31-0.54,0.64-0.82,0.97c-0.26,0.3-0.32,0.76-0.56,1.08c-0.24,0.32-0.72,0.46-0.94,0.79
	c-0.22,0.33-0.44,0.67-0.65,1.01c-0.2,0.34-0.27,0.76-0.46,1.11c-0.18,0.35-0.36,0.71-0.52,1.07c-0.17,0.36-0.3,0.73-0.45,1.1
	c-0.15,0.37-0.31,0.73-0.43,1.11c-0.13,0.37-0.26,0.75-0.37,1.13c-0.11,0.38-0.1,0.79-0.19,1.18c-0.09,0.38-0.21,0.79-0.28,1.18
	c-0.42,0.15-0.84,0.35-1.25,0.54c-0.4,0.19-0.86,0.29-1.24,0.53c-0.35,0.22-0.6,0.56-0.93,0.8c-0.33,0.24-0.63,0.51-0.93,0.78
	c-0.31,0.27-0.74,0.4-1.03,0.68c-0.29,0.29-0.52,0.63-0.78,0.94c-0.26,0.31-0.43,0.69-0.68,1.02c-0.24,0.32-0.46,0.66-0.68,1.01
	c-0.22,0.34-0.53,0.62-0.73,0.98c-0.2,0.35-0.25,0.78-0.43,1.15c-0.18,0.36-0.5,0.66-0.66,1.03c-0.16,0.37-0.34,0.74-0.49,1.12
	c-0.14,0.38-0.25,0.77-0.38,1.16c-0.13,0.38-0.37,0.74-0.48,1.13c-0.11,0.39-0.13,0.81-0.23,1.21c-0.1,0.39-0.1,0.81-0.19,1.21
	c-0.09,0.4-0.1,0.81-0.17,1.21c-0.07,0.4-0.28,0.77-0.34,1.18c-0.06,0.4-0.25,0.79-0.3,1.2c-0.05,0.4-0.03,0.82-0.07,1.23
	c-0.04,0.4-0.06,0.8-0.08,1.2c-0.02,0.4-0.05,0.81-0.05,1.2c0,0.4-0.02,0.81,0,1.21c0.02,0.4,0.14,0.8,0.18,1.19
	c0.04,0.4,0.15,0.79,0.22,1.18c0.06,0.4,0.1,0.8,0.18,1.19c0.08,0.39,0.24,0.76,0.34,1.15c0.1,0.39,0.12,0.8,0.23,1.18
	c0.12,0.38,0.21,0.78,0.35,1.15c0.14,0.38,0.5,0.66,0.66,1.03c0.15,0.37,0.09,0.84,0.26,1.2c0.17,0.36,0.57,0.61,0.76,0.96
	c0.19,0.35,0.35,0.71,0.55,1.06c0.2,0.34,0.23,0.8,0.44,1.14c0.22,0.34,0.5,0.63,0.73,0.96c0.23,0.33,0.6,0.55,0.85,0.86
	c0.25,0.32,0.28,0.8,0.54,1.11c0.26,0.31,0.57,0.57,0.84,0.86c0.27,0.29,0.52,0.62,0.8,0.9c0.28,0.28,0.59,0.55,0.89,0.82
	c0.31,0.29,0.81,0.35,1.14,0.61c0.34,0.26,0.62,0.57,0.97,0.8c0.36,0.23,0.64,0.59,1,0.79c0.38,0.2,0.78,0.37,1.16,0.53
	c0.39,0.17,0.86,0.14,1.25,0.27c0.41,0.13,0.79,0.29,1.2,0.38c0.42,0.09,0.79,0.27,1.2,0.31c0.04,0.42,0.26,0.8,0.29,1.22
	c0.03,0.42,0.04,0.85,0.07,1.27c0.03,0.42-0.08,0.86-0.05,1.27c0.03,0.43,0.19,0.84,0.22,1.25c0.04,0.43-0.03,0.86,0.02,1.27
	c0.05,0.43,0.13,0.84,0.19,1.25c0.07,0.43,0.15,0.84,0.25,1.24c0.1,0.42,0.3,0.79,0.43,1.18c0.14,0.41,0.33,0.76,0.52,1.13
	c0.18,0.36,0.25,0.79,0.45,1.14c0.21,0.35,0.35,0.74,0.59,1.08c0.23,0.34,0.61,0.56,0.86,0.88c0.25,0.32,0.33,0.79,0.6,1.09
	c0.27,0.31,0.58,0.58,0.87,0.87c0.29,0.29,0.6,0.57,0.9,0.84c0.31,0.28,0.63,0.53,0.94,0.79c0.32,0.26,0.69,0.45,1.02,0.68
	c0.34,0.24,0.61,0.58,0.94,0.8c0.35,0.22,0.78,0.3,1.13,0.49c0.37,0.2,0.69,0.48,1.05,0.64c0.39,0.17,0.78,0.32,1.15,0.45
	c0.39,0.13,0.81,0.18,1.2,0.27c0.4,0.09,0.87,0.06,1.26,0.11c0.1,0.38,0.31,0.77,0.43,1.15c0.12,0.38,0.19,0.76,0.33,1.13
	c0.14,0.37,0.28,0.73,0.43,1.09c0.16,0.36,0.25,0.75,0.42,1.1c0.17,0.35,0.39,0.68,0.58,1.02c0.19,0.34,0.36,0.7,0.57,1.03
	c0.21,0.33,0.32,0.73,0.54,1.05c0.22,0.32,0.64,0.51,0.88,0.82c0.23,0.31,0.47,0.62,0.72,0.93c0.25,0.3,0.35,0.73,0.61,1.03
	c0.26,0.29,0.59,0.52,0.87,0.81c0.27,0.28,0.52,0.59,0.8,0.86c0.31,0.3,0.73,0.45,1.06,0.71c0.33,0.27,0.57,0.65,0.92,0.88
	c0.36,0.24,0.75,0.39,1.12,0.59c0.38,0.2,0.7,0.5,1.09,0.66c0.39,0.16,0.85,0.12,1.26,0.24c0.4,0.12,0.79,0.28,1.21,0.36
	c0.41,0.08,0.83,0.1,1.25,0.14c0.42,0.04,0.83,0.25,1.26,0.25c0.42,0,0.83-0.3,1.25-0.33c0.42-0.03,0.83-0.06,1.25-0.13
	c0.41-0.07,0.91-0.14,1.32-0.24c0.22,0.36,0.3,0.91,0.54,1.26c0.23,0.35,0.58,0.63,0.83,0.97c0.25,0.34,0.54,0.65,0.8,0.98
	c0.26,0.33,0.48,0.7,0.76,1.01c0.28,0.32,0.46,0.73,0.75,1.03c0.29,0.31,0.66,0.54,0.96,0.83c0.28,0.28,0.54,0.6,0.85,0.84
	c0.31,0.24,0.66,0.45,1,0.66c0.34,0.2,0.68,0.42,1.05,0.59c0.36,0.16,0.75,0.28,1.13,0.41c0.37,0.13,0.81,0.05,1.19,0.15
	c0.38,0.1,0.73,0.34,1.12,0.41c0.39,0.07,0.81-0.09,1.2-0.05c0.39,0.04,0.76,0.39,1.16,0.41c0.4,0.02,0.8-0.2,1.19-0.21
	c0.4-0.01,0.78-0.08,1.18-0.11c0.4-0.03,0.78-0.09,1.17-0.14c0.4-0.05,0.78-0.11,1.17-0.19c0.39-0.08,0.8-0.06,1.18-0.16
	c0.39-0.1,0.74-0.28,1.11-0.41c0.38-0.13,0.74-0.27,1.1-0.42c0.37-0.16,0.73-0.12,1.07-0.31c0.32,0.39,0.62,0.71,0.96,1.07
	c0.35,0.36,0.85,0.56,1.22,0.89c0.31,0.27,0.54,0.62,0.86,0.86c0.32,0.25,0.74,0.35,1.08,0.58c0.34,0.23,0.64,0.49,0.99,0.69
	c0.35,0.21,0.63,0.54,0.99,0.72c0.37,0.18,0.72,0.4,1.09,0.55c0.38,0.16,0.75,0.33,1.14,0.46c0.39,0.13,0.86-0.07,1.25,0.03
	c0.39,0.1,0.76,0.25,1.16,0.32c0.4,0.07,0.8,0.08,1.2,0.12c0.4,0.04,0.8,0.1,1.2,0.11c0.41,0.01,0.81,0.17,1.21,0.15
	c0.4-0.02,0.81-0.05,1.21-0.1c0.4-0.05,0.8-0.15,1.19-0.23c0.4-0.08,0.77-0.26,1.15-0.38c0.39-0.11,0.74-0.32,1.12-0.47
	c0.38-0.14,0.86-0.03,1.23-0.2c0.36-0.17,0.7-0.43,1.05-0.62c0.35-0.2,0.66-0.47,1-0.69c0.34-0.22,0.65-0.47,0.98-0.71
	c0.32-0.24,0.69-0.43,1-0.7c0.3-0.26,0.63-0.51,0.92-0.8c0.28-0.28,0.5-0.64,0.77-0.95c0.26-0.3,0.52-0.55,0.77-0.87
	c0.36,0.2,0.64,0.45,1,0.62c0.37,0.18,0.8,0.24,1.17,0.4c0.38,0.16,0.79,0.24,1.17,0.37c0.39,0.14,0.74,0.39,1.13,0.5
	c0.4,0.11,0.85-0.02,1.25,0.06c0.4,0.08,0.79,0.23,1.19,0.29c0.41,0.05,0.81,0.03,1.22,0.05c0.41,0.02,0.81,0.03,1.21,0.02
	c0.41-0.01,0.81-0.06,1.21-0.11c0.41-0.05,0.85,0.14,1.25,0.06c0.4-0.08,0.74-0.39,1.13-0.51c0.39-0.12,0.76-0.26,1.14-0.42
	c0.37-0.16,0.82-0.18,1.18-0.38c0.35-0.19,0.68-0.46,1.02-0.69c0.33-0.23,0.55-0.6,0.87-0.87c0.31-0.25,0.59-0.54,0.88-0.83
	c0.33-0.33,0.75-0.56,1.06-0.9c0.32-0.34,0.75-0.58,1.05-0.93c0.3-0.35,0.52-0.74,0.8-1.11c0.38,0.11,0.72,0.26,1.1,0.36
	c0.39,0.09,0.81,0.02,1.2,0.09c0.39,0.07,0.76,0.32,1.15,0.37c0.4,0.05,0.82-0.15,1.21-0.13c0.4,0.03,0.79,0.27,1.18,0.27
	c0.4,0,0.8,0.02,1.2,0c0.4-0.02,0.79-0.13,1.19-0.18c0.4-0.05,0.8-0.09,1.18-0.17c0.39-0.07,0.76-0.25,1.15-0.35
	c0.39-0.1,0.81-0.08,1.19-0.21c0.38-0.13,0.7-0.41,1.06-0.57c0.36-0.16,0.7-0.37,1.05-0.56c0.35-0.19,0.79-0.24,1.12-0.45
	c0.33-0.22,0.65-0.48,0.96-0.72c0.31-0.25,0.56-0.56,0.85-0.84c0.29-0.27,0.52-0.59,0.79-0.9c0.26-0.3,0.55-0.57,0.79-0.9
	c0.25-0.35,0.32-0.78,0.51-1.14c0.2-0.37,0.53-0.67,0.68-1.05c0.15-0.39,0.29-0.79,0.41-1.18c0.13-0.39,0.13-0.83,0.25-1.22
	c0.12-0.4,0.43-0.73,0.56-1.13c0.13-0.39,0.22-0.71,0.38-1.1c0.38-0.02,0.68-0.14,1.06-0.19c0.37-0.05,0.79,0.01,1.16-0.08
	c0.37-0.09,0.69-0.36,1.06-0.49c0.37-0.12,0.76-0.28,1.15-0.46c0.37-0.16,0.73-0.37,1.1-0.58c0.35-0.19,0.8-0.27,1.16-0.5
	c0.34-0.22,0.6-0.6,0.94-0.84c0.33-0.24,0.68-0.47,1.01-0.73c0.32-0.26,0.72-0.43,1.04-0.71c0.31-0.28,0.62-0.56,0.91-0.86
	c0.29-0.29,0.45-0.72,0.73-1.03c0.28-0.31,0.64-0.55,0.9-0.87c0.26-0.33,0.33-0.79,0.57-1.13c0.24-0.34,0.67-0.56,0.88-0.92
	c0.21-0.36,0.25-0.82,0.43-1.19c0.18-0.36,0.3-0.74,0.45-1.13c0.15-0.37,0.36-0.72,0.49-1.12c0.12-0.38,0.36-0.74,0.46-1.15
	c0.1-0.39,0.16-0.8,0.23-1.21c0.08-0.4-0.05-0.83,0.01-1.24c0.06-0.4,0.37-0.78,0.41-1.19c0.04-0.41,0.11-0.82,0.14-1.23
	c0.03-0.41-0.12-0.83-0.11-1.24c0.01-0.41,0.09-0.82,0.09-1.23c0-0.41-0.06-0.82-0.08-1.23c-0.02-0.41-0.18-0.81-0.21-1.22
	c-0.03-0.41,0.17-0.85,0.12-1.25c-0.05-0.41-0.35-0.79-0.42-1.19c-0.06-0.41-0.06-0.83-0.14-1.22c-0.08-0.41-0.03-0.75-0.13-1.14
	c0.39-0.06,0.67-0.2,1.06-0.3c0.38-0.1,0.79-0.13,1.17-0.26c0.37-0.13,0.75-0.27,1.11-0.44c0.36-0.16,0.69-0.4,1.04-0.6
	c0.34-0.19,0.69-0.39,1.03-0.61c0.33-0.22,0.58-0.55,0.89-0.8c0.31-0.24,0.59-0.51,0.89-0.78c0.3-0.27,0.62-0.51,0.9-0.79
	c0.28-0.28,0.49-0.63,0.77-0.93c0.27-0.29,0.53-0.6,0.79-0.9c0.26-0.31,0.65-0.5,0.9-0.82c0.25-0.32,0.47-0.65,0.7-0.98
	c0.23-0.33,0.39-0.7,0.61-1.04c0.22-0.34,0.44-0.67,0.64-1.01c0.2-0.35,0.42-0.68,0.6-1.04c0.19-0.35,0.46-0.67,0.63-1.03
	c0.17-0.36,0.3-0.75,0.45-1.12c0.15-0.37,0.12-0.81,0.25-1.19c0.14-0.38,0.33-0.73,0.45-1.11c0.12-0.38,0.26-0.76,0.36-1.14
	c0.1-0.39,0.18-0.78,0.26-1.17c0.08-0.39,0.18-0.78,0.24-1.17c0.06-0.39,0.14-0.79,0.18-1.19c0.04-0.4,0.14-0.79,0.16-1.19
	c0.02-0.4-0.07-0.8-0.07-1.2C174.61,67.51,174.78,67.1,174.76,66.7z M29.61,74.78c3.08,7.02-2.75,16.57-10.92,14.95
	c-1.33-0.17-1.5-2.09-0.25-2.5c6.27-1.8,7.5-7.34,8.01-13.17c0.1-0.66,0.47-1.2,0.98-1.55c2.94-2.01,3.18-5.38,3.86-8.64
	c0.17-0.72,0.89-1.17,1.61-1c0.37,0.09,0.67,0.33,0.85,0.63c0.59,1.02,0.9,2.17,0.98,3.39C35.01,70.17,32.84,73.89,29.61,74.78z
	 M155.65,88.7c-4.02-0.13-8.46-1.67-10.96-5.18c-2.08-2.9-2.56-6.98-0.99-10.12c-2.87-0.79-5.27-3.45-5.48-6.47
	c-0.23-1.78,0.91-5.46,3.24-4.02c0.41,0.31,0.56,0.77,0.64,1.24c0.6,3.43,1.6,5.57,5.13,6.59c0.93,0.31,1.22,1.53,0.56,2.23
	c-2.85,7.04,1.48,11.44,8.29,12.76C157.85,86.16,157.46,88.8,155.65,88.7z"/>
</svg>
