<?xml version="1.0" encoding="utf-8"?>
<!-- Generator: Adobe Illustrator 26.1.0, SVG Export Plug-In . SVG Version: 6.00 Build 0)  -->
<svg version="1.1" id="圖層_1" xmlns="http://www.w3.org/2000/svg" xmlns:xlink="http://www.w3.org/1999/xlink" x="0px" y="0px"
	 viewBox="0 0 148.24 148.24" style="enable-background:new 0 0 148.24 148.24;" xml:space="preserve">
<g>
	<defs>
		<rect id="SVGID_00000073681408966226690680000009281732199434825911_" width="148.24" height="148.24"/>
	</defs>
	<clipPath id="SVGID_00000126304337458407685330000001154021685106799540_">
		<use xlink:href="#SVGID_00000073681408966226690680000009281732199434825911_"  style="overflow:visible;"/>
	</clipPath>
	<g style="clip-path:url(#SVGID_00000126304337458407685330000001154021685106799540_);">
		<path fill="currentColor" d="M95.8,140.75c-0.44,0-0.81-0.05-1.08-0.09l-0.13-0.02c-0.45,0.01-0.85-0.02-1.17-0.05
			c-0.12-0.01-0.24-0.02-0.36-0.03c-0.59-0.02-1.07-0.12-1.42-0.2c-0.08-0.02-0.16-0.04-0.24-0.05c-0.12-0.01-0.25-0.02-0.38-0.03
			c-0.29-0.02-0.64-0.05-1.02-0.11l-0.04,0c-0.41,0.03-1.08,0.07-1.86-0.14c-0.43-0.11-0.85-0.26-1.28-0.4l-0.3-0.1
			c-0.13-0.04-0.26-0.08-0.39-0.12c-0.39-0.12-0.79-0.24-1.16-0.39c-0.77-0.31-1.29-0.79-1.63-1.15c-0.31-0.1-0.69-0.25-1.11-0.47
			c-0.38-0.21-0.69-0.44-0.93-0.63c-0.5-0.07-1.2-0.24-1.88-0.69c-0.6-0.39-1-0.85-1.24-1.13l-0.01-0.01
			c-0.05-0.03-0.11-0.06-0.16-0.09c-0.33-0.19-0.65-0.39-0.96-0.62c-0.12-0.09-0.25-0.17-0.38-0.26c-0.28-0.19-0.56-0.38-0.83-0.59
			c-0.29-0.22-0.55-0.46-0.81-0.71c-0.09-0.09-0.19-0.18-0.29-0.26c-0.22-0.18-0.45-0.37-0.67-0.56c-0.14-0.12-0.28-0.24-0.42-0.36
			c-0.25-0.21-0.49-0.43-0.72-0.65c-0.11-0.1-0.21-0.21-0.33-0.3c-0.36-0.3-0.63-0.59-0.83-0.8c-0.05-0.05-0.1-0.11-0.15-0.16
			c-0.05-0.03-0.09-0.06-0.14-0.08c-0.27-0.16-0.65-0.38-1.04-0.71c-0.23-0.19-0.46-0.4-0.68-0.62c-0.11-0.1-0.21-0.21-0.32-0.3
			c-0.33-0.27-0.59-0.54-0.78-0.75c-0.39-0.13-0.92-0.34-1.44-0.74c-0.19-0.14-0.38-0.27-0.58-0.41l-0.48-0.34
			c-0.45-0.32-0.78-0.69-1.02-0.99c-0.24-0.08-0.53-0.19-0.83-0.34c-0.23-0.12-0.46-0.25-0.68-0.38c-0.01,0-0.02-0.01-0.02-0.01
			c-0.29-0.01-0.69-0.03-1.13-0.12c-0.08-0.02-0.31-0.03-0.5-0.04l-0.34-0.02c-0.28-0.02-0.55-0.05-0.82-0.1
			c-0.02,0.01-0.03,0.01-0.05,0.02c-0.18,0.07-0.37,0.14-0.55,0.2c-0.46,0.15-0.87,0.28-1.26,0.42c-0.34,0.12-0.69,0.21-1.03,0.29
			c-0.1,0.02-0.19,0.04-0.28,0.07c-0.51,0.19-0.99,0.27-1.37,0.3c-0.28,0.22-0.66,0.48-1.14,0.68c-0.29,0.12-0.57,0.22-0.85,0.32
			c-0.16,0.06-0.31,0.11-0.46,0.17c-0.33,0.14-0.67,0.25-1.01,0.36c-0.12,0.04-0.24,0.07-0.35,0.12c-0.17,0.07-0.33,0.14-0.49,0.21
			c-0.29,0.13-0.59,0.26-0.88,0.38c-0.56,0.22-1.07,0.31-1.41,0.37c-0.05,0.01-0.1,0.02-0.15,0.03c-0.08,0.03-0.16,0.07-0.24,0.11
			c-0.29,0.13-0.7,0.32-1.19,0.46c-0.46,0.13-0.87,0.21-1.2,0.26c-0.41,0.27-1.06,0.64-1.93,0.77c-0.66,0.1-1.23,0.04-1.66-0.05
			c-0.41,0.16-0.97,0.32-1.64,0.33c-0.5,0.01-1.02-0.01-1.55-0.02c-0.82-0.03-1.45-0.25-1.85-0.42c-0.3,0.02-0.7,0.04-1.17,0
			L37,129.01c-0.36,0.03-0.96,0.09-1.65-0.02c-0.76-0.12-1.33-0.41-1.7-0.61c0,0-0.01,0-0.01,0c-0.34-0.03-0.82-0.08-1.36-0.23
			c-0.51-0.14-0.93-0.33-1.23-0.47c-0.02-0.01-0.04-0.02-0.07-0.03c-0.41-0.02-1.05-0.07-1.77-0.36c-0.6-0.24-1.05-0.57-1.36-0.83
			c-0.4-0.07-0.95-0.21-1.52-0.51c-0.81-0.43-1.31-1.04-1.6-1.45c-0.29-0.18-0.59-0.37-0.88-0.56l-0.19-0.13
			c-0.37-0.25-0.74-0.51-1.09-0.78c-0.08-0.06-0.16-0.11-0.24-0.16c-0.28-0.18-0.66-0.42-1.05-0.76c-0.42-0.36-0.72-0.74-0.92-1.02
			c-0.39-0.2-0.95-0.52-1.45-1.07c-0.26-0.28-0.51-0.59-0.74-0.91c-0.08-0.11-0.16-0.22-0.25-0.32c-0.09-0.1-0.18-0.2-0.27-0.3
			c-0.26-0.29-0.52-0.59-0.76-0.91c-0.37-0.5-0.58-1-0.71-1.39c-0.32-0.28-0.72-0.68-1.05-1.24c-0.33-0.57-0.49-1.1-0.59-1.45
			l-0.03-0.1c-0.04-0.06-0.07-0.12-0.11-0.17c-0.17-0.28-0.41-0.65-0.62-1.12c-0.17-0.38-0.31-0.77-0.46-1.16l-0.12-0.31
			c0,0.03-0.03-0.03-0.06-0.09c-0.17-0.3-0.43-0.76-0.62-1.34c-0.24-0.77-0.23-1.45-0.18-1.92c-0.12-0.3-0.27-0.7-0.37-1.19
			l-0.02-0.12c-0.1-0.48-0.19-0.95-0.26-1.42c-0.06-0.39-0.08-0.78-0.09-1.17c0-0.05,0-0.09-0.01-0.14c-0.14-0.38-0.37-1-0.39-1.79
			c-0.02-0.53,0.04-0.97,0.08-1.3c0.01-0.09,0.03-0.18,0.03-0.27c0-0.12,0-0.26,0-0.4c-0.01-0.38-0.01-0.76,0.02-1.14
			c0.01-0.11,0-0.21,0-0.31c0-0.32-0.01-0.75,0.05-1.23c0.09-0.73,0.33-1.29,0.47-1.63l0.01-0.04l0.04-0.23
			c0.05-0.36,0.11-0.72,0.19-1.08c0.1-0.48,0.26-0.87,0.39-1.17c-0.04-0.45-0.05-1.08,0.15-1.77c0.17-0.59,0.43-1.05,0.65-1.38
			c0.02-0.38,0.09-0.88,0.28-1.43c0.25-0.7,0.61-1.2,0.83-1.5l0.01-0.02c0.16-0.36,0.33-0.65,0.45-0.88
			c0.01-0.02,0.03-0.05,0.04-0.07c0.05-0.34,0.15-0.9,0.41-1.51c0.12-0.28,0.25-0.55,0.39-0.83c0.05-0.11,0.1-0.21,0.15-0.31
			l0.01-0.07c0.07-0.35,0.18-0.87,0.45-1.45c0.31-0.65,0.71-1.11,0.98-1.39c0.02-0.04,0.03-0.09,0.05-0.13
			c0.12-0.31,0.25-0.62,0.39-0.91l0.24-0.51c0.08-0.18,0.17-0.36,0.26-0.53l0-0.02c0.07-0.34,0.19-0.91,0.5-1.52
			c0.33-0.64,0.74-1.08,1.01-1.37c0.07-0.16,0.14-0.32,0.21-0.48c0.02-0.33,0.06-0.8,0.22-1.36c0.19-0.62,0.48-1.1,0.7-1.43
			c-0.11-0.3-0.24-0.7-0.31-1.17l-0.02-0.15c-0.03-0.25-0.07-0.54-0.11-0.66c-0.09-0.3-0.17-0.53-0.26-0.72
			c-0.03-0.03-0.05-0.06-0.08-0.1c-0.21-0.26-0.41-0.53-0.58-0.81c-0.26-0.42-0.41-0.82-0.52-1.14c-0.23-0.19-0.5-0.44-0.77-0.76
			c-0.17-0.2-0.32-0.4-0.48-0.61c-0.1-0.14-0.2-0.28-0.32-0.41c-0.03-0.03-0.1-0.08-0.16-0.14c-0.22-0.19-0.53-0.45-0.83-0.79
			c-0.13-0.14-0.26-0.28-0.39-0.42c-0.19-0.2-0.38-0.4-0.57-0.61c-0.39-0.43-0.64-0.86-0.81-1.15c-0.3-0.22-0.77-0.57-1.19-1.09
			c-0.49-0.61-0.72-1.24-0.84-1.71c-0.25-0.25-0.55-0.57-0.82-1c-0.28-0.44-0.47-0.85-0.6-1.16c0-0.01-0.01-0.01-0.01-0.02
			c-0.34-0.32-0.85-0.84-1.2-1.63c-0.21-0.49-0.34-0.94-0.43-1.26c-0.03-0.11-0.06-0.21-0.09-0.32c-0.21-0.59-0.26-1.12-0.27-1.54
			C8.97,52,8.69,51.46,8.55,50.76c-0.12-0.63-0.11-1.18-0.09-1.54c0-0.07,0-0.13,0-0.19c-0.06-0.44-0.12-0.98-0.15-1.52
			c-0.01-0.12-0.02-0.25-0.04-0.37C8.24,46.8,8.2,46.38,8.2,45.9c0.01-0.84,0.25-1.5,0.41-1.9c0-0.03,0-0.05,0-0.08
			c0.01-0.4,0.03-0.79,0.08-1.19c0-0.06,0-0.15,0.01-0.23c0.01-0.34,0.02-0.81,0.12-1.35c0.1-0.53,0.28-0.97,0.44-1.3
			c-0.04-0.47-0.04-1.11,0.19-1.82c0.22-0.68,0.57-1.2,0.84-1.55c0.06-0.36,0.17-0.84,0.4-1.36c0.21-0.48,0.45-0.95,0.69-1.42
			c0.27-0.53,0.59-0.92,0.79-1.19c0.04-0.06,0.09-0.11,0.13-0.17c-0.01,0.01,0.01-0.05,0.04-0.13c0.14-0.32,0.33-0.77,0.65-1.24
			c0.38-0.57,0.83-0.96,1.12-1.21c0.17-0.33,0.42-0.81,0.84-1.3c0.35-0.4,0.71-0.8,1.08-1.17l0.19-0.19
			c0.31-0.32,0.63-0.64,0.96-0.94c0.33-0.29,0.67-0.54,1.01-0.8l0.31-0.23c0.42-0.32,0.82-0.55,1.11-0.71
			c0.05-0.03,0.11-0.06,0.16-0.09l0.02-0.02c0.27-0.29,0.73-0.77,1.42-1.15c0.7-0.39,1.35-0.52,1.78-0.59
			c0.02-0.01,0.03-0.02,0.05-0.03c0.27-0.17,0.63-0.39,1.09-0.58l0.09-0.06c0.31-0.21,0.83-0.55,1.53-0.77
			c0.57-0.18,1.09-0.24,1.44-0.28c0.08-0.01,0.15-0.01,0.22-0.03c0.06-0.02,0.18-0.06,0.3-0.1c0.32-0.11,0.72-0.24,1.19-0.33
			c0.14-0.03,0.28-0.06,0.42-0.09c0.38-0.09,0.76-0.17,1.15-0.23c0.14-0.02,0.29-0.05,0.43-0.08c0.38-0.07,0.75-0.14,1.13-0.18
			c0.37-0.04,0.75-0.05,1.14-0.05c0.14,0,0.28,0,0.42-0.01c0.6-0.04,1.11,0.04,1.46,0.09c0.38-0.11,0.94-0.26,1.64-0.26
			c0.36,0,0.72,0.03,1.07,0.06c0.16,0.01,0.31,0.03,0.47,0.03c0.16,0.01,0.32,0.01,0.48,0.01c0.35,0,0.69,0.01,1.04,0.03
			c0.68,0.05,1.23,0.24,1.62,0.4c0.35-0.04,0.82-0.08,1.37-0.01c0.09,0.01,0.18,0,0.28,0c0.36-0.01,0.73,0,1.21,0.07
			c0.78,0.11,1.36,0.39,1.74,0.59c0.05,0,0.09,0.01,0.14,0.01c0.28,0.03,0.56,0.06,0.84,0.1l0.1,0c0.35-0.02,0.88-0.04,1.5,0.08
			c0.63,0.12,1.12,0.33,1.44,0.48l0.02,0.01c0.07,0.01,0.14,0.01,0.21,0.02c0.32,0.03,0.65,0.06,0.96,0.12
			c0.54,0.1,0.98,0.26,1.27,0.37l0.06,0.02c0.07,0,0.15,0,0.23,0c0.2,0,0.4,0.01,0.6,0.02l0.03,0c0.31-0.06,0.79-0.15,1.35-0.14
			c0.54,0.01,1,0.11,1.33,0.2c0.02,0,0.04-0.01,0.05-0.01c0.06-0.01,0.12-0.03,0.17-0.04c0.27-0.17,0.68-0.41,1.2-0.59
			c0.23-0.08,0.47-0.15,0.71-0.21c0.07-0.02,0.14-0.03,0.2-0.06c0.32-0.16,0.57-0.29,0.76-0.42c0.3-0.2,0.56-0.39,0.8-0.59
			c0.13-0.11,0.24-0.24,0.36-0.36c0.14-0.14,0.27-0.28,0.41-0.42c0.39-0.38,0.81-0.64,1.15-0.82c0.17-0.29,0.42-0.65,0.76-1
			c0.06-0.06,0.11-0.13,0.17-0.21c0.21-0.26,0.49-0.61,0.88-0.97c0.43-0.4,0.86-0.66,1.17-0.86c0.08-0.05,0.15-0.09,0.22-0.14h0
			c-0.01,0,0.04-0.05,0.08-0.1c0.22-0.23,0.52-0.54,0.93-0.85c0.14-0.1,0.27-0.21,0.4-0.31c0.23-0.19,0.47-0.38,0.71-0.55
			c0.51-0.37,1.01-0.57,1.41-0.69c0.23-0.26,0.56-0.58,0.98-0.87c0.52-0.35,1-0.53,1.33-0.66c0.25-0.24,0.63-0.59,1.15-0.9
			c0.44-0.26,0.84-0.42,1.14-0.54c0.08-0.03,0.16-0.06,0.23-0.1c0.43-0.23,0.83-0.38,1.13-0.49c0.08-0.03,0.17-0.06,0.25-0.09
			c0.08-0.04,0.16-0.09,0.25-0.15c0.27-0.16,0.63-0.38,1.08-0.57c0.01-0.01,0.08-0.05,0.14-0.09C76.59,8.23,76.99,8,77.51,7.8
			l0.38-0.15c0.35-0.14,0.7-0.28,1.06-0.39c0.36-0.11,0.72-0.2,1.08-0.29c0.14-0.03,0.27-0.06,0.41-0.1
			c0.55-0.15,1.05-0.18,1.38-0.21c0.05,0,0.1-0.01,0.15-0.01c0.05-0.02,0.1-0.04,0.16-0.06c0.32-0.11,0.75-0.27,1.29-0.36
			c0.5-0.09,0.95-0.09,1.28-0.08c0.39-0.19,1-0.43,1.76-0.49c0.39-0.03,0.8-0.04,1.21-0.05l0.36-0.01c0.46-0.02,0.87,0.02,1.19,0.04
			c0.13,0.01,0.25,0.02,0.38,0.03c0.87,0.02,1.55,0.29,1.97,0.48c0.29,0.01,0.58,0.03,0.87,0.06c0.4-0.06,1.07-0.16,1.87-0.02
			c0.1,0.02,0.2,0.02,0.3,0.03c0.33,0.03,0.79,0.07,1.29,0.19l0.16,0.04c0.47,0.11,0.94,0.22,1.39,0.36
			c0.62,0.19,1.09,0.45,1.4,0.63c0.04,0.03,0.09,0.05,0.13,0.08c0.1,0.04,0.21,0.07,0.31,0.11c0.38,0.13,0.77,0.26,1.14,0.42
			l0.32,0.14c0.39,0.16,0.77,0.33,1.15,0.52c0.37,0.19,0.73,0.4,1.08,0.62l0.31,0.19c0.48,0.28,0.83,0.58,1.09,0.81
			c0.07,0.06,0.14,0.12,0.21,0.17c0.1,0.07,0.21,0.14,0.32,0.21c0.34,0.22,0.68,0.44,1.01,0.69c0.1,0.08,0.21,0.15,0.31,0.22
			c0.29,0.2,0.65,0.45,1.02,0.78c0.08,0.07,0.17,0.13,0.25,0.19c0.28,0.21,0.66,0.5,1.04,0.89c0.51,0.52,0.8,1.07,0.98,1.45
			c0.3,0.24,0.73,0.6,1.12,1.13c0.24,0.33,0.46,0.69,0.67,1.04c0.07,0.12,0.14,0.24,0.21,0.35c0.34,0.54,0.52,1.05,0.63,1.45
			c0.31,0.3,0.71,0.75,1,1.36c0.05,0.1,0.11,0.2,0.17,0.3c0.17,0.29,0.39,0.66,0.59,1.12c0.33,0.78,0.38,1.47,0.4,1.91
			c0.1,0.29,0.2,0.58,0.29,0.88l0.09,0.29c0.04,0.13,0.09,0.25,0.14,0.37c0.14,0.36,0.28,0.72,0.39,1.09c0.15,0.53,0.2,1,0.24,1.33
			c0.01,0.08,0.01,0.16,0.03,0.23c0.03,0.1,0.07,0.24,0.11,0.37c0.07,0.23,0.14,0.47,0.21,0.71c0.21,0.36,0.55,0.95,0.7,1.76
			c0.16,0.86,0.03,1.58-0.07,2.04c0.02,0.16,0.04,0.32,0.07,0.48l0.1,0.52c0.1,0.29,0.25,0.72,0.34,1.25
			c0.02,0.05,0.04,0.1,0.06,0.15c0.12,0.32,0.31,0.8,0.42,1.38c0.05,0.3,0.08,0.61,0.11,0.91c0.01,0.06,0.01,0.12,0.02,0.18
			c0.06,0.18,0.12,0.37,0.18,0.56c0,0.01,0.01,0.02,0.01,0.03c0.01,0.01,0.02,0.02,0.03,0.03c0.16,0.16,0.31,0.33,0.46,0.51
			c0.03,0.03,0.07,0.05,0.1,0.08c0.27,0.21,0.54,0.43,0.78,0.68c0.48,0.48,0.76,0.98,0.94,1.33c0.09,0.09,0.18,0.18,0.27,0.27
			c0.01,0.01,0.03,0.03,0.04,0.04c0.36,0.12,0.86,0.31,1.38,0.68c0.46,0.33,0.8,0.69,1.03,0.98c0.3,0.11,0.68,0.26,1.08,0.51
			c0.22,0.14,0.44,0.27,0.66,0.4l0.49,0.29c0.49,0.29,0.84,0.62,1.09,0.86c0.33,0.11,0.8,0.27,1.29,0.58
			c0.42,0.26,0.74,0.54,0.99,0.77c0.46,0.11,1.08,0.31,1.69,0.76c0.51,0.37,0.87,0.8,1.11,1.16c0.42,0.16,0.93,0.42,1.41,0.86
			c0.29,0.26,0.57,0.55,0.85,0.84c0.1,0.1,0.2,0.21,0.3,0.31c0.08,0.08,0.18,0.16,0.27,0.24c0.26,0.22,0.58,0.5,0.91,0.87
			c0.36,0.4,0.72,0.82,1.06,1.23c0.55,0.68,0.79,1.38,0.92,1.78c0.19,0.29,0.33,0.55,0.45,0.77c0.02,0.04,0.05,0.09,0.07,0.13
			c0.31,0.27,0.8,0.73,1.19,1.42c0.28,0.49,0.44,0.94,0.56,1.27c0.02,0.05,0.04,0.11,0.06,0.16l0.06,0.08
			c0.22,0.3,0.56,0.75,0.83,1.37c0.31,0.72,0.37,1.39,0.38,1.85c0.16,0.29,0.36,0.7,0.51,1.2c0.01,0.01,0.04,0.08,0.07,0.14
			c0.14,0.31,0.36,0.78,0.5,1.35c0.13,0.56,0.14,1.06,0.11,1.47c0.25,0.43,0.5,1.01,0.57,1.72c0.06,0.52,0.04,0.99,0.02,1.33
			c0,0.11-0.01,0.21-0.01,0.31c0.02,0.53-0.03,0.99-0.06,1.33c-0.01,0.1-0.03,0.21-0.03,0.31c-0.02,0.77-0.23,1.38-0.35,1.75
			l-0.02,0.05c-0.05,0.45-0.12,0.88-0.2,1.33c-0.01,0.07-0.01,0.13-0.01,0.2c-0.01,0.35-0.02,0.88-0.16,1.49
			c-0.12,0.52-0.3,0.95-0.43,1.27c-0.02,0.06-0.05,0.11-0.07,0.17l-0.01,0.08c-0.04,0.38-0.1,0.95-0.35,1.6
			c-0.04,0.12-0.08,0.25-0.13,0.37c-0.13,0.38-0.26,0.77-0.42,1.13l-0.15,0.34c-0.16,0.37-0.33,0.75-0.52,1.11
			c-0.18,0.34-0.38,0.68-0.59,1.02c-0.07,0.12-0.15,0.23-0.22,0.35l-0.06,0.11c-0.24,0.41-0.49,0.83-0.75,1.23
			c-0.34,0.52-0.73,0.88-1.03,1.13c-0.15,0.38-0.38,0.89-0.79,1.4c-0.42,0.52-0.88,0.87-1.18,1.08c-0.18,0.3-0.45,0.75-0.88,1.19
			c-0.07,0.08-0.13,0.16-0.19,0.24c-0.19,0.25-0.46,0.59-0.81,0.93c-0.54,0.53-1.13,0.82-1.53,0.99c-0.21,0.24-0.49,0.56-0.86,0.88
			c-0.42,0.35-0.83,0.59-1.14,0.75c-0.24,0.34-0.6,0.8-1.15,1.21c-0.11,0.08-0.22,0.17-0.33,0.27c-0.28,0.23-0.56,0.46-0.85,0.66
			c-0.6,0.42-1.21,0.61-1.65,0.71c-0.19,0.17-0.43,0.38-0.72,0.58l-0.01,0.01c-0.26,0.28-0.7,0.76-1.37,1.14l0,0
			c-0.33,0.19-0.65,0.35-0.95,0.51l-0.4,0.21c-0.19,0.1-0.36,0.21-0.53,0.31c-0.25,0.15-0.49,0.3-0.73,0.42
			c-0.51,0.28-1,0.43-1.33,0.52c-0.03,0.14-0.07,0.26-0.11,0.39c0.12,0.36,0.25,0.83,0.28,1.38c0.04,0.58-0.04,1.07-0.11,1.41
			c0.09,0.3,0.21,0.72,0.27,1.22c0.01,0.13,0.04,0.25,0.06,0.37c0.06,0.32,0.12,0.63,0.15,0.95c0.02,0.16,0.04,0.32,0.07,0.49
			c0.04,0.28,0.09,0.56,0.12,0.85c0.06,0.58,0.01,1.08-0.04,1.42c0.1,0.32,0.23,0.77,0.28,1.32c0.05,0.64-0.03,1.17-0.12,1.56
			c0.09,0.33,0.19,0.76,0.22,1.28c0.04,0.73-0.11,1.33-0.22,1.71c0,0.04,0.01,0.08,0.01,0.13c0.02,0.21,0.03,0.42,0.04,0.64
			c0.14,0.41,0.35,1.08,0.3,1.92c-0.04,0.82-0.31,1.46-0.51,1.87c-0.02,0.34-0.04,0.68-0.09,1.02l0,0.15c0,0.4,0.01,1.01-0.17,1.71
			c-0.03,0.11-0.05,0.22-0.08,0.33c-0.08,0.37-0.19,0.84-0.37,1.34c-0.21,0.57-0.47,1.01-0.67,1.33c-0.04,0.07-0.08,0.13-0.12,0.2
			c-0.23,0.5-0.51,0.9-0.71,1.18c-0.05,0.07-0.1,0.14-0.15,0.21l-0.17,0.32c-0.2,0.36-0.4,0.73-0.62,1.08l-0.2,0.32
			c-0.22,0.34-0.44,0.69-0.68,1.02c-0.08,0.1-0.15,0.21-0.22,0.32c-0.22,0.33-0.45,0.66-0.7,0.96c-0.38,0.46-0.78,0.78-1.05,1
			c-0.05,0.04-0.11,0.09-0.16,0.13c-0.26,0.29-0.57,0.55-0.82,0.77c-0.05,0.04-0.1,0.09-0.15,0.13l-0.02,0.03
			c-0.2,0.31-0.53,0.82-1.06,1.3l-0.29,0.27c-0.28,0.26-0.57,0.52-0.87,0.77c-0.57,0.47-1.16,0.71-1.58,0.85
			c-0.23,0.24-0.56,0.56-1,0.86c-0.41,0.28-0.8,0.47-1.09,0.62c-0.09,0.04-0.18,0.08-0.27,0.14c-0.1,0.06-0.19,0.13-0.29,0.2
			c-0.26,0.19-0.59,0.43-1,0.65c-0.1,0.06-0.2,0.12-0.29,0.19c-0.28,0.18-0.62,0.41-1.05,0.62c-0.47,0.23-0.9,0.36-1.22,0.46
			c-0.09,0.03-0.18,0.05-0.26,0.09c-0.09,0.04-0.17,0.09-0.25,0.13c-0.29,0.16-0.69,0.38-1.19,0.55c-0.4,0.14-0.8,0.24-1.19,0.34
			c-0.12,0.03-0.25,0.06-0.37,0.09c-0.47,0.13-0.89,0.18-1.23,0.2c-0.45,0.3-1.12,0.66-2.01,0.76
			C96.18,140.74,95.98,140.75,95.8,140.75z M89.78,140.13C89.78,140.14,89.78,140.14,89.78,140.13
			C89.78,140.14,89.78,140.14,89.78,140.13z M94.64,133.63c0.2,0,0.38,0.01,0.54,0.03c0.37-0.22,0.84-0.44,1.42-0.55
			c0.44-0.09,0.83-0.11,1.12-0.12c0.04,0,0.08,0,0.13-0.01c0.16-0.04,0.33-0.08,0.5-0.12c0.16-0.04,0.33-0.07,0.49-0.13
			c0.03-0.02,0.11-0.06,0.19-0.11c0.28-0.15,0.57-0.3,0.87-0.43c0.28-0.12,0.58-0.22,0.89-0.32c0.09-0.03,0.18-0.05,0.27-0.09
			c0.06-0.03,0.15-0.1,0.25-0.16c0.25-0.16,0.49-0.32,0.75-0.46c0.1-0.06,0.19-0.13,0.29-0.2c0.23-0.17,0.47-0.33,0.72-0.49
			c0.27-0.17,0.55-0.31,0.83-0.45c0.06-0.03,0.13-0.06,0.19-0.09c0.02-0.02,0.04-0.05,0.07-0.07c0.21-0.22,0.5-0.52,0.9-0.82
			c0.55-0.41,1.09-0.62,1.48-0.75c0.08-0.08,0.17-0.16,0.25-0.23l0.2-0.2c0.18-0.28,0.45-0.71,0.89-1.14
			c0.2-0.2,0.42-0.39,0.63-0.57c0.09-0.08,0.19-0.15,0.27-0.24c0.33-0.35,0.64-0.6,0.86-0.79c0.04-0.03,0.07-0.06,0.11-0.09
			c0.07-0.1,0.14-0.21,0.21-0.31c0.13-0.2,0.27-0.4,0.41-0.6c0.14-0.19,0.26-0.39,0.39-0.59l0.25-0.4c0.12-0.19,0.23-0.39,0.33-0.59
			l0.23-0.42c0.16-0.28,0.34-0.55,0.53-0.82c0.05-0.07,0.1-0.14,0.14-0.21c0.1-0.22,0.27-0.51,0.45-0.81
			c0.03-0.05,0.06-0.1,0.09-0.15c0.04-0.14,0.07-0.28,0.1-0.41c0.03-0.12,0.05-0.23,0.08-0.34v-0.08c0-0.29-0.01-0.68,0.06-1.14
			c0.02-0.17,0.03-0.33,0.04-0.5c0.01-0.22,0.03-0.45,0.05-0.67c0.04-0.47,0.16-0.88,0.29-1.21c-0.08-0.33-0.14-0.73-0.14-1.18
			c0-0.13-0.01-0.28-0.02-0.42c-0.02-0.27-0.04-0.53-0.04-0.8c-0.01-0.55,0.08-1.02,0.17-1.37c-0.08-0.3-0.17-0.69-0.2-1.14
			c-0.04-0.59,0.04-1.08,0.12-1.45c-0.09-0.3-0.19-0.68-0.24-1.14c-0.06-0.65,0.02-1.2,0.06-1.52l0-0.01
			c-0.01-0.1-0.03-0.2-0.05-0.31c-0.04-0.27-0.08-0.55-0.11-0.82c-0.01-0.13-0.04-0.25-0.07-0.38c-0.05-0.27-0.1-0.54-0.13-0.82
			l-0.03-0.11c-0.1-0.32-0.25-0.79-0.31-1.39c-0.06-0.6,0-1.13,0.07-1.51c-0.15-0.41-0.34-1.03-0.33-1.77
			c0.02-0.9,0.24-1.6,0.37-2.02l0.05-0.15c0.17-0.73,0.42-1.78,1.22-2.76c0.59-0.72,1.28-1.15,1.78-1.47l0.19-0.12
			c0.63-0.41,1.24-0.58,1.61-0.68l0.1-0.03c0.1-0.06,0.21-0.12,0.31-0.19c0.26-0.16,0.53-0.32,0.82-0.48l0.51-0.27
			c0.15-0.08,0.3-0.16,0.45-0.24c0.23-0.25,0.59-0.63,1.11-0.96l0.1-0.1c0.22-0.21,0.56-0.52,1.01-0.81
			c0.6-0.39,1.19-0.56,1.61-0.66c0.01-0.01,0.03-0.02,0.04-0.04c0.11-0.09,0.22-0.18,0.33-0.27c0.22-0.32,0.56-0.81,1.13-1.25
			c0.44-0.34,0.86-0.56,1.13-0.71l0.02-0.01c0.02-0.02,0.04-0.05,0.06-0.07c0.18-0.21,0.43-0.51,0.76-0.8
			c0.49-0.44,0.99-0.7,1.36-0.86c0.16-0.21,0.33-0.41,0.5-0.6l0.06-0.1c0.16-0.26,0.39-0.66,0.75-1.06c0.3-0.34,0.6-0.59,0.85-0.78
			c0.13-0.33,0.32-0.75,0.64-1.18c0.38-0.52,0.81-0.88,1.09-1.1c0.13-0.21,0.26-0.43,0.39-0.65l0.07-0.12
			c0.11-0.18,0.21-0.34,0.31-0.51c0.11-0.17,0.22-0.34,0.31-0.52c0.12-0.22,0.21-0.45,0.31-0.68l0.18-0.42
			c0.06-0.15,0.11-0.3,0.16-0.46c0.05-0.15,0.1-0.31,0.16-0.46l0.01-0.07c0.03-0.31,0.08-0.77,0.24-1.29
			c0.09-0.29,0.2-0.58,0.32-0.87c0.02-0.05,0.04-0.1,0.07-0.16c0-0.03,0-0.05,0-0.08c0.01-0.29,0.01-0.68,0.09-1.13
			c0.07-0.43,0.13-0.77,0.17-1.12c0.06-0.61,0.22-1.09,0.33-1.41l0-0.01c0.01-0.19,0.03-0.38,0.05-0.57
			c0.01-0.11,0.03-0.21,0.03-0.32c-0.01-0.19-0.01-0.4,0-0.61c-0.24-0.39-0.51-0.93-0.63-1.62c-0.1-0.58-0.07-1.1-0.02-1.48
			c-0.09-0.21-0.2-0.45-0.29-0.73c-0.02-0.05-0.05-0.09-0.07-0.14c-0.14-0.25-0.32-0.6-0.48-1.03c-0.2-0.54-0.26-1.05-0.28-1.45
			c-0.16-0.22-0.35-0.51-0.52-0.85c-0.16-0.31-0.28-0.64-0.4-0.97c-0.26-0.24-0.63-0.6-0.95-1.1c-0.16-0.24-0.29-0.49-0.43-0.74
			c-0.06-0.11-0.12-0.23-0.19-0.33c-0.4-0.56-0.61-1.11-0.73-1.49c-0.18-0.22-0.38-0.44-0.57-0.65c-0.09-0.09-0.19-0.17-0.29-0.26
			c-0.22-0.19-0.44-0.38-0.64-0.58c-0.15-0.15-0.3-0.31-0.45-0.46c-0.03-0.04-0.07-0.07-0.1-0.11c-0.41-0.14-0.98-0.37-1.54-0.82
			c-0.36-0.29-0.64-0.61-0.85-0.9c-0.35-0.11-0.76-0.28-1.17-0.54c-0.43-0.28-0.75-0.58-0.97-0.81c-0.33-0.11-0.78-0.27-1.26-0.56
			c-0.54-0.32-0.92-0.69-1.17-0.93l-0.06-0.06l-0.3-0.18c-0.21-0.12-0.42-0.25-0.62-0.38l-0.05-0.02c-0.34-0.11-0.9-0.3-1.48-0.68
			c-0.51-0.33-0.87-0.72-1.13-1.04c-0.38-0.14-0.87-0.35-1.35-0.73c-0.4-0.3-0.71-0.62-0.94-0.85c-0.08-0.08-0.15-0.16-0.23-0.23
			c-0.61-0.53-0.96-1.12-1.17-1.51c-0.29-0.23-0.69-0.55-1.08-1.03c-0.06-0.07-0.12-0.13-0.18-0.19c-0.26-0.28-0.66-0.69-1-1.26
			c-0.39-0.65-0.57-1.27-0.69-1.68c-0.02-0.07-0.04-0.14-0.06-0.21c-0.29-0.77-0.34-1.45-0.38-1.91c0-0.06-0.01-0.12-0.01-0.19
			c-0.02-0.05-0.04-0.09-0.06-0.14c-0.13-0.34-0.33-0.86-0.43-1.49l-0.05-0.13c-0.11-0.3-0.27-0.76-0.35-1.33l-0.08-0.57
			c-0.03-0.25-0.07-0.5-0.11-0.76c-0.1-0.58-0.06-1.09,0-1.5c-0.15-0.31-0.31-0.69-0.41-1.14c-0.03-0.16-0.09-0.31-0.13-0.46
			c-0.08-0.27-0.16-0.53-0.23-0.8c-0.11-0.45-0.16-0.85-0.19-1.15c-0.01-0.08-0.01-0.16-0.03-0.23c-0.02-0.04-0.08-0.17-0.13-0.3
			c-0.11-0.27-0.22-0.54-0.31-0.82l-0.1-0.31c-0.1-0.3-0.19-0.6-0.3-0.89c-0.23-0.61-0.29-1.16-0.31-1.55
			c-0.01-0.01-0.02-0.03-0.03-0.04c-0.08-0.13-0.15-0.26-0.22-0.39c-0.3-0.27-0.73-0.7-1.09-1.33c-0.33-0.59-0.47-1.14-0.56-1.5
			c-0.05-0.08-0.09-0.15-0.14-0.23c-0.07-0.11-0.13-0.22-0.2-0.32l-0.02-0.01c-0.25-0.2-0.64-0.5-1.01-0.94
			c-0.37-0.44-0.61-0.89-0.76-1.21c-0.01-0.01-0.02-0.02-0.03-0.02c-0.25-0.19-0.49-0.38-0.72-0.58c-0.1-0.08-0.21-0.16-0.33-0.23
			c-0.21-0.15-0.43-0.3-0.63-0.46c-0.14-0.11-0.29-0.2-0.44-0.29c-0.18-0.11-0.36-0.23-0.54-0.35c-0.27-0.19-0.52-0.39-0.77-0.6
			c-0.07-0.06-0.14-0.12-0.21-0.17l-0.33-0.2c-0.21-0.13-0.42-0.26-0.63-0.37s-0.45-0.2-0.67-0.3l-0.4-0.17
			c-0.18-0.08-0.37-0.14-0.55-0.2c-0.19-0.06-0.38-0.13-0.57-0.2c-0.47-0.17-0.84-0.38-1.1-0.53c-0.03-0.02-0.07-0.04-0.1-0.06
			c-0.28-0.08-0.57-0.14-0.85-0.21l-0.17-0.04c-0.07-0.01-0.17-0.01-0.27-0.02c-0.19-0.02-0.39-0.03-0.58-0.06
			c-0.35,0.05-0.92,0.13-1.59,0.05c-0.22-0.03-0.44-0.04-0.66-0.05c-0.18-0.01-0.35-0.02-0.53-0.03c-0.75-0.05-1.35-0.29-1.74-0.47
			c-0.09-0.01-0.18-0.01-0.28-0.02c-0.13-0.01-0.27-0.02-0.4-0.03l-0.42,0.01c-0.14,0-0.27,0.01-0.41,0.01
			c-0.36,0.17-0.9,0.4-1.58,0.49c-0.47,0.06-0.88,0.05-1.17,0.05c-0.03,0-0.06,0-0.09,0c-0.03,0.01-0.07,0.03-0.11,0.04
			c-0.33,0.12-0.67,0.23-1.01,0.3c-0.46,0.1-0.86,0.13-1.14,0.15c-0.05,0-0.1,0.01-0.15,0.01c-0.19,0.05-0.38,0.09-0.58,0.14
			c-0.17,0.04-0.33,0.07-0.49,0.12c-0.21,0.07-0.42,0.15-0.62,0.24l-0.41,0.16c-0.06,0.03-0.11,0.07-0.17,0.1
			c-0.23,0.14-0.56,0.33-0.95,0.5c-0.08,0.04-0.16,0.09-0.25,0.15c-0.26,0.16-0.52,0.31-0.8,0.44c-0.3,0.14-0.61,0.26-0.92,0.38
			c-0.08,0.03-0.17,0.06-0.25,0.09c-0.26,0.14-0.58,0.28-0.9,0.41c-0.04,0.01-0.07,0.03-0.11,0.04l-0.01,0.01
			c-0.23,0.21-0.57,0.54-1.04,0.83c-0.41,0.26-0.79,0.42-1.08,0.53c-0.23,0.27-0.56,0.62-1.01,0.93c-0.59,0.41-1.18,0.61-1.57,0.71
			c-0.03,0.03-0.06,0.05-0.09,0.08c-0.19,0.15-0.38,0.31-0.58,0.46c-0.04,0.04-0.08,0.08-0.12,0.12c-0.22,0.23-0.51,0.53-0.92,0.84
			c-0.23,0.17-0.48,0.34-0.73,0.49c-0.05,0.03-0.11,0.07-0.16,0.1c-0.03,0.04-0.08,0.1-0.13,0.16c-0.14,0.17-0.28,0.35-0.43,0.51
			l-0.01,0.01c-0.17,0.31-0.45,0.82-0.93,1.33c-0.56,0.58-1.16,0.89-1.55,1.08c0,0-0.01,0.01-0.01,0.01
			c-0.29,0.3-0.58,0.59-0.91,0.87c-0.43,0.36-0.88,0.7-1.39,1.04c-0.56,0.38-1.09,0.64-1.52,0.86c-0.62,0.31-1.15,0.46-1.51,0.55
			c-0.02,0.01-0.05,0.01-0.07,0.02c-0.35,0.22-0.98,0.62-1.84,0.79c-0.1,0.02-0.21,0.05-0.31,0.07c-0.37,0.09-0.87,0.21-1.46,0.26
			c-0.75,0.06-1.39-0.08-1.81-0.2c-0.38,0.07-0.92,0.14-1.55,0.09c-0.11-0.01-0.21-0.01-0.32-0.01c-0.32,0-0.75-0.01-1.23-0.08
			c-0.6-0.09-1.09-0.27-1.41-0.39l-0.11-0.04c-0.08-0.01-0.17-0.01-0.25-0.02c-0.35-0.03-0.71-0.07-1.06-0.13
			c-0.56-0.11-1-0.29-1.31-0.42c-0.33,0.01-0.79,0.02-1.33-0.07c-0.16-0.03-0.32-0.04-0.48-0.05c-0.29-0.03-0.58-0.06-0.88-0.1
			c-0.68-0.11-1.21-0.35-1.58-0.53c-0.29,0-0.58-0.01-0.87-0.03l-0.09,0.01c-0.34,0.04-0.85,0.11-1.47,0.05
			c-0.71-0.07-1.27-0.29-1.64-0.45c-0.1,0-0.19,0-0.29,0c-0.23,0-0.46-0.01-0.69-0.01c-0.26-0.01-0.51-0.03-0.76-0.05
			c-0.1-0.01-0.19-0.02-0.29-0.02c-0.35,0.11-0.9,0.26-1.57,0.28c-0.56,0.01-1.03-0.06-1.34-0.12l-0.11-0.02
			c-0.21,0.01-0.42,0.01-0.63,0.01c-0.16,0-0.32,0-0.48,0.01c-0.2,0.02-0.39,0.06-0.57,0.09c-0.23,0.04-0.46,0.08-0.68,0.12
			c-0.2,0.03-0.4,0.08-0.6,0.13c-0.21,0.05-0.41,0.1-0.62,0.14c-0.13,0.03-0.25,0.08-0.38,0.12c-0.27,0.09-0.54,0.18-0.81,0.25
			c-0.44,0.11-0.83,0.16-1.11,0.19c-0.27,0.18-0.66,0.42-1.16,0.62c0,0.01-0.08,0.06-0.15,0.1c-0.28,0.17-0.57,0.34-0.87,0.48
			c-0.44,0.21-0.85,0.32-1.18,0.38c-0.22,0.22-0.5,0.47-0.87,0.71c-0.22,0.15-0.45,0.28-0.69,0.41c-0.11,0.06-0.22,0.12-0.32,0.19
			c-0.14,0.1-0.29,0.21-0.43,0.32c-0.16,0.12-0.33,0.24-0.49,0.37c-0.21,0.19-0.41,0.39-0.6,0.59l-0.21,0.21
			c-0.22,0.23-0.44,0.46-0.66,0.71l-0.03,0.06c-0.14,0.27-0.34,0.67-0.67,1.1c-0.32,0.43-0.66,0.73-0.92,0.94
			c-0.11,0.25-0.25,0.58-0.46,0.94c-0.23,0.39-0.47,0.69-0.64,0.91c-0.03,0.04-0.07,0.09-0.1,0.13c-0.13,0.26-0.26,0.52-0.39,0.78
			l0,0.02c-0.05,0.32-0.12,0.8-0.33,1.35c-0.15,0.4-0.34,0.72-0.52,0.99c0.01,0.36-0.02,0.79-0.14,1.26
			c-0.13,0.53-0.33,0.94-0.48,1.23c0,0.01,0,0.02,0,0.02c-0.01,0.34-0.02,0.68-0.07,1.01c-0.02,0.16-0.02,0.32-0.03,0.49
			c-0.01,0.22-0.02,0.44-0.03,0.67c-0.05,0.63-0.21,1.13-0.35,1.49c0,0.02,0.01,0.05,0.01,0.08c0.03,0.25,0.05,0.49,0.07,0.74
			c0.02,0.38,0.07,0.76,0.11,1.14c0.04,0.31,0.05,0.58,0.04,0.82c0.22,0.33,0.46,0.78,0.62,1.34c0.18,0.66,0.18,1.24,0.16,1.63
			c0.03,0.09,0.05,0.18,0.08,0.28c0.28,0.27,0.63,0.66,0.92,1.19c0.13,0.25,0.25,0.49,0.36,0.74c0.03,0.06,0.05,0.12,0.08,0.18
			l0.02,0.01c0.22,0.21,0.55,0.52,0.87,0.96c0.35,0.48,0.55,0.97,0.67,1.37c0.23,0.18,0.48,0.41,0.73,0.7
			c0.36,0.42,0.6,0.83,0.76,1.1l0.06,0.11c0.12,0.12,0.23,0.25,0.35,0.37c0.17,0.18,0.34,0.36,0.51,0.54
			c0.05,0.05,0.12,0.1,0.19,0.16c0.23,0.2,0.55,0.47,0.86,0.82c0.24,0.27,0.46,0.56,0.67,0.84c0.06,0.08,0.12,0.16,0.18,0.24
			l0.07,0.06c0.3,0.24,0.75,0.6,1.16,1.16c0.48,0.65,0.69,1.31,0.81,1.71c0.23,0.3,0.59,0.74,0.87,1.35
			c0.25,0.53,0.46,1.1,0.67,1.78c0.19,0.62,0.27,1.19,0.34,1.67c0.17,0.43,0.49,1.21,0.46,2.21c-0.02,0.62-0.12,1.17-0.21,1.61
			l-0.06,0.3c-0.14,0.81-0.49,1.41-0.76,1.82c-0.04,0.41-0.12,0.97-0.37,1.58c-0.22,0.53-0.43,1.03-0.68,1.53
			c-0.26,0.52-0.58,0.91-0.84,1.18c-0.08,0.33-0.2,0.76-0.43,1.22c-0.1,0.2-0.2,0.4-0.29,0.61l-0.29,0.61
			c-0.06,0.13-0.11,0.26-0.16,0.39c-0.11,0.29-0.23,0.58-0.37,0.85c-0.25,0.52-0.57,0.92-0.82,1.2c-0.07,0.32-0.18,0.72-0.38,1.16
			c-0.1,0.21-0.2,0.43-0.3,0.64c-0.06,0.12-0.12,0.24-0.18,0.37l0,0.03c-0.06,0.34-0.14,0.85-0.38,1.43c-0.17,0.41-0.36,0.75-0.51,1
			c-0.04,0.07-0.08,0.13-0.12,0.2c-0.16,0.42-0.38,0.79-0.57,1.06c-0.02,0.34-0.08,0.79-0.24,1.28c-0.13,0.41-0.31,0.75-0.47,1.03
			c0.02,0.38,0,0.86-0.13,1.38c-0.13,0.54-0.33,0.96-0.46,1.24l-0.03,0.07c-0.03,0.18-0.06,0.36-0.09,0.54l-0.08,0.52
			c-0.1,0.57-0.28,1.02-0.41,1.34c0,0.03,0,0.07,0,0.11c0,0.31,0,0.63-0.02,0.94c-0.01,0.17,0,0.34,0,0.52c0,0.22,0.01,0.45,0,0.67
			c-0.01,0.32-0.04,0.64-0.08,0.96c0.12,0.33,0.27,0.81,0.32,1.38c0.02,0.24,0.03,0.47,0.04,0.7c0.01,0.16,0.01,0.31,0.03,0.47
			c0.05,0.35,0.12,0.69,0.19,1.04l0,0.02c0.02,0.05,0.04,0.09,0.06,0.14c0.11,0.26,0.25,0.62,0.37,1.06
			c0.15,0.59,0.16,1.12,0.13,1.53c0.12,0.22,0.26,0.49,0.38,0.81l0.13,0.36c0.09,0.25,0.19,0.51,0.3,0.76
			c0.03,0.06,0.09,0.14,0.14,0.22c0.17,0.26,0.33,0.53,0.47,0.81c0.17,0.34,0.29,0.66,0.37,0.92c0.29,0.24,0.64,0.58,0.95,1.05
			c0.36,0.55,0.54,1.07,0.64,1.44c0.03,0.04,0.07,0.07,0.1,0.11c0.16,0.17,0.31,0.35,0.46,0.53c0.15,0.18,0.29,0.37,0.43,0.55
			c0.03,0.04,0.05,0.07,0.08,0.11c0.35,0.17,0.83,0.45,1.3,0.9c0.37,0.36,0.63,0.71,0.8,0.95l0.03,0.04
			c0.04,0.03,0.09,0.05,0.14,0.08c0.27,0.17,0.53,0.34,0.78,0.53c0.25,0.19,0.51,0.37,0.77,0.55l0.19,0.13
			c0.27,0.19,0.56,0.36,0.84,0.53l0.15,0.09c0.47,0.29,0.82,0.62,1.08,0.93c0.28,0.07,0.6,0.17,0.94,0.33
			c0.42,0.2,0.77,0.44,1.03,0.64c0.33,0.03,0.73,0.1,1.17,0.24c0.3,0.1,0.6,0.23,0.9,0.37c0.06,0.03,0.12,0.06,0.19,0.08
			c0.05,0.01,0.11,0.01,0.16,0.01c0.36,0.03,0.71,0.08,1.06,0.15c0.52,0.11,0.94,0.3,1.25,0.46c0.3-0.02,0.67-0.04,1.1,0.01
			c0.06,0,0.12-0.01,0.18-0.01c0.3-0.02,0.7-0.05,1.18-0.01c0.72,0.06,1.28,0.28,1.66,0.44c0.13,0,0.25,0.01,0.37,0.01
			c0.37-0.16,0.91-0.36,1.59-0.42c0.42-0.04,0.8-0.01,1.12,0.04c0.31-0.17,0.7-0.33,1.16-0.44c0.26-0.06,0.5-0.1,0.74-0.14
			c0.14-0.02,0.29-0.04,0.42-0.08c0.08-0.03,0.18-0.08,0.28-0.12c0.28-0.13,0.56-0.25,0.85-0.35c0.48-0.17,0.9-0.24,1.21-0.29
			c0.05-0.01,0.1-0.02,0.15-0.03c0.17-0.07,0.33-0.14,0.5-0.22c0.21-0.09,0.43-0.19,0.64-0.28c0.3-0.12,0.61-0.23,0.93-0.33
			c0.13-0.04,0.26-0.08,0.38-0.13c0.28-0.12,0.57-0.22,0.86-0.33c0.07-0.03,0.14-0.05,0.22-0.08c0.31-0.26,0.81-0.66,1.51-0.94
			c0.76-0.31,1.43-0.34,1.86-0.35c0.3-0.09,0.57-0.16,0.78-0.21c0.1-0.02,0.21-0.04,0.31-0.08c0.44-0.16,0.9-0.31,1.38-0.46
			c0.13-0.04,0.22-0.08,0.3-0.11c0.4-0.15,1-0.38,1.75-0.47c0.77-0.09,1.41,0.01,1.83,0.07c0.07,0.01,0.13,0.02,0.2,0.03l0.24,0.01
			c0.41,0.02,0.92,0.04,1.51,0.16l0.09,0c0.42,0.01,1.13,0.02,1.94,0.31c0.59,0.21,1.05,0.49,1.39,0.69
			c0.05,0.03,0.11,0.07,0.16,0.1l0.09,0.03c0.39,0.11,1.04,0.3,1.71,0.75c0.68,0.45,1.1,1.01,1.35,1.38l0.07,0.05
			c0.16,0.11,0.32,0.22,0.47,0.33c0.42,0.12,1.09,0.35,1.74,0.86c0.44,0.34,0.76,0.71,0.97,0.95c0.04,0.04,0.07,0.09,0.11,0.13
			c0.24,0.19,0.46,0.4,0.68,0.62c0.1,0.1,0.21,0.2,0.32,0.29c0,0,0,0,0,0c0.01,0,0.07,0.03,0.12,0.06c0.28,0.16,0.66,0.39,1.06,0.72
			c0.35,0.29,0.62,0.59,0.82,0.8c0.06,0.07,0.12,0.14,0.19,0.2c0.22,0.18,0.44,0.39,0.66,0.6c0.11,0.1,0.22,0.21,0.33,0.31
			c0.18,0.15,0.36,0.3,0.53,0.45c0.17,0.14,0.34,0.29,0.51,0.43c0.25,0.2,0.48,0.42,0.71,0.63c0.1,0.09,0.19,0.19,0.29,0.27
			c0.13,0.1,0.27,0.19,0.41,0.28c0.23,0.15,0.46,0.31,0.68,0.47c0.09,0.07,0.2,0.12,0.3,0.18c0.28,0.16,0.55,0.33,0.81,0.51
			c0.3,0.21,0.54,0.43,0.73,0.62c0.44,0.08,0.97,0.24,1.51,0.56c0.41,0.25,0.72,0.5,0.94,0.69c0.03,0.02,0.05,0.04,0.08,0.06
			c0.03,0.01,0.07,0.02,0.11,0.03c0.34,0.11,0.67,0.23,1,0.39c0.63,0.3,1.08,0.71,1.38,1.02c0.01,0,0.02,0,0.02,0.01
			c0.22,0.06,0.44,0.13,0.65,0.2l0.35,0.12c0.16,0.05,0.31,0.11,0.47,0.16c0.34-0.02,0.87-0.04,1.46,0.07
			c0.16,0.03,0.33,0.04,0.5,0.05c0.21,0.02,0.42,0.03,0.63,0.06c0.32,0.04,0.63,0.1,0.95,0.17c0.08,0.02,0.17,0.04,0.25,0.05
			c0.15,0,0.38,0.02,0.61,0.04c0.15,0.01,0.3,0.03,0.45,0.03C94.51,133.64,94.57,133.63,94.64,133.63z M36.91,128.98
			c0,0,0.01,0,0.01,0C36.92,128.98,36.92,128.98,36.91,128.98z M107.13,127.73c-0.01,0.01-0.02,0.02-0.03,0.03L107.13,127.73z
			 M71.42,120.79C71.42,120.79,71.43,120.79,71.42,120.79C71.42,120.79,71.42,120.79,71.42,120.79z M113,119.19
			C113,119.19,113,119.19,113,119.19C113,119.19,113,119.19,113,119.19z M120.06,117.66C120.06,117.66,120.06,117.66,120.06,117.66
			C120.06,117.66,120.06,117.66,120.06,117.66z M63.93,116.93c0.01,0,0.01,0,0.02,0C63.94,116.93,63.94,116.93,63.93,116.93z
			 M120.25,114.68c0,0.01,0,0.01,0,0.02C120.25,114.7,120.25,114.69,120.25,114.68z M119.53,99.01l-0.02,0.01
			C119.52,99.02,119.52,99.01,119.53,99.01z M124.42,96.17C124.42,96.17,124.42,96.17,124.42,96.17
			C124.42,96.17,124.42,96.17,124.42,96.17z M18.93,95.26C18.93,95.26,18.93,95.26,18.93,95.26C18.93,95.26,18.93,95.26,18.93,95.26
			z M117.34,92.48C117.34,92.48,117.34,92.48,117.34,92.48C117.34,92.48,117.34,92.48,117.34,92.48z M119.79,91.1
			C119.79,91.1,119.79,91.1,119.79,91.1C119.79,91.1,119.79,91.1,119.79,91.1L119.79,91.1z M120.76,90.21
			C120.76,90.21,120.76,90.21,120.76,90.21C120.76,90.21,120.76,90.21,120.76,90.21z M124.05,88.17
			C124.05,88.17,124.04,88.17,124.05,88.17C124.04,88.17,124.05,88.17,124.05,88.17z M21.73,86.85
			C21.73,86.85,21.73,86.85,21.73,86.85C21.73,86.85,21.73,86.85,21.73,86.85z M15.91,82.79C15.9,82.8,15.9,82.8,15.91,82.79
			C15.9,82.8,15.9,82.8,15.91,82.79z M17.18,80.27C17.18,80.27,17.18,80.27,17.18,80.27C17.18,80.27,17.18,80.27,17.18,80.27z
			 M134.06,75.86C134.06,75.87,134.06,75.87,134.06,75.86C134.06,75.87,134.06,75.87,134.06,75.86z M20.05,74.32
			C20.05,74.32,20.04,74.32,20.05,74.32C20.04,74.32,20.05,74.32,20.05,74.32z M20.79,72.27c0,0.02-0.01,0.03-0.01,0.05L20.79,72.27
			z M135.2,70.21C135.2,70.21,135.2,70.21,135.2,70.21C135.2,70.21,135.2,70.21,135.2,70.21z M134.32,64.49c0,0,0,0.01,0,0.02
			C134.33,64.5,134.32,64.49,134.32,64.49z M136.71,53.89c0,0,0,0.01,0.01,0.01C136.71,53.9,136.71,53.9,136.71,53.89z M119.7,40.43
			C119.71,40.43,119.71,40.43,119.7,40.43C119.71,40.43,119.71,40.43,119.7,40.43z M110.04,35.97
			C110.04,35.98,110.04,35.98,110.04,35.97C110.04,35.98,110.04,35.98,110.04,35.97z M116.98,35.06
			C116.98,35.06,116.98,35.06,116.98,35.06C116.98,35.06,116.98,35.06,116.98,35.06z M41.94,27.07c0.01,0,0.01,0,0.02,0
			C41.95,27.07,41.95,27.07,41.94,27.07z M65.61,24.37C65.61,24.38,65.6,24.38,65.61,24.37C65.6,24.38,65.61,24.38,65.61,24.37z
			 M114.21,23.27C114.21,23.27,114.21,23.28,114.21,23.27C114.21,23.28,114.21,23.27,114.21,23.27z M67.66,22.41
			C67.66,22.41,67.65,22.41,67.66,22.41C67.65,22.41,67.66,22.41,67.66,22.41z M24.29,21.92c-0.01,0-0.01,0-0.02,0.01
			C24.28,21.92,24.29,21.92,24.29,21.92z M56.7,21.91C56.7,21.91,56.69,21.91,56.7,21.91C56.69,21.91,56.7,21.91,56.7,21.91z
			 M105.64,21.22C105.64,21.22,105.64,21.22,105.64,21.22C105.64,21.22,105.64,21.22,105.64,21.22z M58.34,21.16
			C58.34,21.16,58.34,21.17,58.34,21.16C58.34,21.17,58.34,21.16,58.34,21.16z M47.11,20.92C47.12,20.92,47.12,20.92,47.11,20.92
			C47.12,20.92,47.12,20.92,47.11,20.92z M80.02,14.33l-0.04,0.02C79.99,14.34,80.01,14.34,80.02,14.33z M82.26,13.64
			c-0.01,0-0.01,0-0.02,0C82.25,13.64,82.25,13.64,82.26,13.64z M87.02,12.64C87.02,12.64,87.01,12.64,87.02,12.64
			C87.01,12.64,87.02,12.64,87.02,12.64z"/>
	</g>
</g>
</svg>
