<?xml version="1.0" encoding="utf-8"?>
<!-- Generator: Adobe Illustrator 26.1.0, SVG Export Plug-In . SVG Version: 6.00 Build 0)  -->
<svg version="1.1" id="圖層_1" xmlns="http://www.w3.org/2000/svg" xmlns:xlink="http://www.w3.org/1999/xlink" x="0px" y="0px"
	 viewBox="0 0 115.69 95.92" style="enable-background:new 0 0 115.69 95.92;" xml:space="preserve">
<style type="text/css">
	.st0{fill:#C7DDD8;}
	.st1{fill:none;stroke:#FFFFFF;stroke-width:2;stroke-miterlimit:10;}
	.st2{clip-path:url(#SVGID_00000137838435642163677550000006153069520285198518_);fill:#C7DDD8;}
	.st3{clip-path:url(#SVGID_00000137838435642163677550000006153069520285198518_);}
	.st4{clip-path:url(#SVGID_00000125575414818017182810000012724288271079097258_);}
	.st5{clip-path:url(#SVGID_00000148646347665998207350000006028591417501042350_);fill:#C7DDD8;}
	.st6{clip-path:url(#SVGID_00000148646347665998207350000006028591417501042350_);}
</style>
<g>
	<defs>
		<rect id="SVGID_00000109718703987575150020000001709273304405942198_" width="115.69" height="95.92"/>
	</defs>
	<clipPath id="SVGID_00000001651127807273510860000018318443466810343870_">
		<use xlink:href="#SVGID_00000109718703987575150020000001709273304405942198_"  style="overflow:visible;"/>
	</clipPath>
	<g style="clip-path:url(#SVGID_00000001651127807273510860000018318443466810343870_);">
		<defs>
			<rect id="SVGID_00000065033958162247052080000007930694043539003014_" x="0" width="115.69" height="95.92"/>
		</defs>
		<clipPath id="SVGID_00000091005613568125633820000000277402190830723212_">
			<use xlink:href="#SVGID_00000065033958162247052080000007930694043539003014_"  style="overflow:visible;"/>
		</clipPath>
		<polygon style="clip-path:url(#SVGID_00000091005613568125633820000000277402190830723212_);fill:currentColor;" points="28.23,0 
			2.48,0 9.45,5.49 3.95,11.49 7.59,24.99 6.02,28.08 2.48,37.87 3.99,43.98 1.54,57.22 4.91,63.11 5.49,81.93 7.75,86.17 
			4.36,95.92 28.23,95.92 29.02,95.92 115.69,95.92 115.69,0 		"/>
		<g style="clip-path:url(#SVGID_00000091005613568125633820000000277402190830723212_);">
			<line class="st1" x1="19.71" y1="0" x2="19.71" y2="95.9"/>
			<line class="st1" x1="39.34" y1="0" x2="39.34" y2="95.9"/>
			<line class="st1" x1="58.96" y1="0" x2="58.96" y2="95.9"/>
			<line class="st1" x1="78.58" y1="0" x2="78.58" y2="95.9"/>
			<line class="st1" x1="98.21" y1="0" x2="98.21" y2="95.9"/>
		</g>
	</g>
</g>
</svg>
