<?xml version="1.0" encoding="utf-8"?>
<!-- Generator: Adobe Illustrator 26.1.0, SVG Export Plug-In . SVG Version: 6.00 Build 0)  -->
<svg version="1.1" id="圖層_1" xmlns="http://www.w3.org/2000/svg" xmlns:xlink="http://www.w3.org/1999/xlink" x="0px" y="0px"
	 viewBox="0 0 97.44 95.92" style="enable-background:new 0 0 97.44 95.92;" xml:space="preserve">
<style type="text/css">
	.st0{clip-path:url(#SVGID_00000145040441889173690400000006948240758666249386_);fill:#C7DDD8;}
	.st1{clip-path:url(#SVGID_00000039835559447766956860000010995548848518861213_);}
	
		.st2{clip-path:url(#SVGID_00000116228358823966038720000003783248570343096242_);fill:none;stroke:#FFFFFF;stroke-width:2;stroke-miterlimit:10;}
</style>
<g>
	<g>
		<g>
			<defs>
				<rect id="SVGID_1_" width="97.44" height="95.92"/>
			</defs>
			<clipPath id="SVGID_00000118369392302772566760000002341509180707509149_">
				<use xlink:href="#SVGID_1_"  style="overflow:visible;"/>
			</clipPath>
			<polygon style="clip-path:url(#SVGID_00000118369392302772566760000002341509180707509149_);fill:currentColor;" points="91.45,72.5 
				89.63,68.27 89.36,63.76 88.09,57.9 89.83,51.24 94.94,38.06 86.09,23.41 87.15,15.95 87.09,11.71 89.62,5.68 90.08,0.54 
				82.42,0.37 -3.96,0.37 -3.96,95.71 82.42,95.71 91.59,95.32 89.09,84.42 			"/>
		</g>
		<g>
			<defs>
				<rect id="SVGID_00000031171481405563235570000004785840368089746097_" width="97.44" height="95.92"/>
			</defs>
			<clipPath id="SVGID_00000054226926061629905670000002223308114164378557_">
				<use xlink:href="#SVGID_00000031171481405563235570000004785840368089746097_"  style="overflow:visible;"/>
			</clipPath>
			<g style="clip-path:url(#SVGID_00000054226926061629905670000002223308114164378557_);">
				<g>
					<g>
						<defs>
							<polygon id="SVGID_00000011745524844442431620000013375753437815192720_" points="91.45,72.5 89.63,68.27 89.36,63.76 
								88.09,57.9 89.83,51.24 94.94,38.06 86.09,23.41 87.15,15.95 87.09,11.71 89.62,5.68 90.08,0.54 82.42,0.37 -15.02,0.37 
								-15.02,95.71 82.42,95.71 91.59,95.32 89.09,84.42 							"/>
						</defs>
						<clipPath id="SVGID_00000181805339850335147510000010564632717272296610_">
							<use xlink:href="#SVGID_00000011745524844442431620000013375753437815192720_"  style="overflow:visible;"/>
						</clipPath>
						
							<line style="clip-path:url(#SVGID_00000181805339850335147510000010564632717272296610_);fill:none;stroke:#FFFFFF;stroke-width:2;stroke-miterlimit:10;" x1="9.21" y1="0.29" x2="9.21" y2="95.63"/>
						
							<line style="clip-path:url(#SVGID_00000181805339850335147510000010564632717272296610_);fill:none;stroke:#FFFFFF;stroke-width:2;stroke-miterlimit:10;" x1="28.83" y1="0.29" x2="28.83" y2="95.63"/>
						
							<line style="clip-path:url(#SVGID_00000181805339850335147510000010564632717272296610_);fill:none;stroke:#FFFFFF;stroke-width:2;stroke-miterlimit:10;" x1="48.46" y1="0.29" x2="48.46" y2="95.63"/>
						
							<line style="clip-path:url(#SVGID_00000181805339850335147510000010564632717272296610_);fill:none;stroke:#FFFFFF;stroke-width:2;stroke-miterlimit:10;" x1="68.08" y1="0.29" x2="68.08" y2="95.63"/>
						
							<line style="clip-path:url(#SVGID_00000181805339850335147510000010564632717272296610_);fill:none;stroke:#FFFFFF;stroke-width:2;stroke-miterlimit:10;" x1="87.71" y1="0.29" x2="87.71" y2="95.63"/>
					</g>
				</g>
			</g>
		</g>
	</g>
</g>
</svg>
