<?xml version="1.0" encoding="utf-8"?>
<!-- Generator: Adobe Illustrator 26.1.0, SVG Export Plug-In . SVG Version: 6.00 Build 0)  -->
<svg version="1.1" id="圖層_1" xmlns="http://www.w3.org/2000/svg" xmlns:xlink="http://www.w3.org/1999/xlink" x="0px" y="0px"
	 viewBox="0 0 97.44 95.92" style="enable-background:new 0 0 97.44 95.92;" xml:space="preserve">
<style type="text/css">
	.st0{clip-path:url(#SVGID_00000094589452332913706210000009656188609457936015_);}
	.st1{fill:#C7DDD8;}
	
		.st2{clip-path:url(#SVGID_00000111909847166090513120000017234731905068344732_);fill:none;stroke:#FFFFFF;stroke-width:2;stroke-miterlimit:10;}
</style>
<g>
	<g>
		<g>
			<defs>
				<rect id="SVGID_1_" width="97.44" height="95.92"/>
			</defs>
			<clipPath id="SVGID_00000035521128142665639520000016746766302542697880_">
				<use xlink:href="#SVGID_1_"  style="overflow:visible;"/>
			</clipPath>
			<g style="clip-path:url(#SVGID_00000035521128142665639520000016746766302542697880_);">
				<g>
					<polygon points="19.06,0.37 3.57,0.82 9.68,8.74 5.38,15.26 7.95,24.8 6.38,27.89 13.06,38.06 2.81,48.53 
						7.31,56.27 5.06,70.36 3.75,77.81 5.22,85.98 2.6,95.71 19.06,95.71 19.85,95.71 101.45,95.71 101.45,0.37 					"
						style="fill:currentColor;"/>
					<g>
						<g>
							<defs>
								<polygon id="SVGID_00000119833434662218300170000008237247775288059562_" points="101.05,0.37 3.57,0.82 9.68,8.74 
									5.38,15.26 7.95,24.8 6.38,27.89 13.06,38.06 2.81,48.53 7.31,56.27 5.06,70.36 3.75,77.81 5.22,85.98 2.6,95.71 
									101.85,95.71 								"/>
							</defs>
							<clipPath id="SVGID_00000124855032438873757490000016269535166317623703_">
								<use xlink:href="#SVGID_00000119833434662218300170000008237247775288059562_"  style="overflow:visible;"/>
							</clipPath>
							
								<line style="clip-path:url(#SVGID_00000124855032438873757490000016269535166317623703_);fill:none;stroke:#FFFFFF;stroke-width:2;stroke-miterlimit:10;" x1="7.85" y1="0.29" x2="7.85" y2="95.63"/>
							
								<line style="clip-path:url(#SVGID_00000124855032438873757490000016269535166317623703_);fill:none;stroke:#FFFFFF;stroke-width:2;stroke-miterlimit:10;" x1="27.48" y1="0.29" x2="27.48" y2="95.63"/>
							
								<line style="clip-path:url(#SVGID_00000124855032438873757490000016269535166317623703_);fill:none;stroke:#FFFFFF;stroke-width:2;stroke-miterlimit:10;" x1="47.1" y1="0.29" x2="47.1" y2="95.63"/>
							
								<line style="clip-path:url(#SVGID_00000124855032438873757490000016269535166317623703_);fill:none;stroke:#FFFFFF;stroke-width:2;stroke-miterlimit:10;" x1="66.72" y1="0.29" x2="66.72" y2="95.63"/>
							
								<line style="clip-path:url(#SVGID_00000124855032438873757490000016269535166317623703_);fill:none;stroke:#FFFFFF;stroke-width:2;stroke-miterlimit:10;" x1="86.35" y1="0.29" x2="86.35" y2="95.63"/>
						</g>
					</g>
				</g>
			</g>
		</g>
		<g>
			<defs>
				<rect id="SVGID_00000009569420681724229370000000647912254739733135_" width="97.44" height="95.92"/>
			</defs>
			<clipPath id="SVGID_00000088823633677655873880000010306088141777458080_">
				<use xlink:href="#SVGID_00000009569420681724229370000000647912254739733135_"  style="overflow:visible;"/>
			</clipPath>
		</g>
	</g>
</g>
</svg>
