<?xml version="1.0" encoding="utf-8"?>
<!-- Generator: Adobe Illustrator 26.1.0, SVG Export Plug-In . SVG Version: 6.00 Build 0)  -->
<svg version="1.1" id="圖層_1" xmlns="http://www.w3.org/2000/svg" xmlns:xlink="http://www.w3.org/1999/xlink" x="0px" y="0px"
	 viewBox="0 0 153.97 158.09" style="enable-background:new 0 0 153.97 158.09;" xml:space="preserve">
<style type="text/css">
	.st0{fill:#F2D7D1;}
</style>
<path fill="currentColor" d="M153.31,108.62c0.05-0.57,0.62-1.1,0.65-1.67s-0.14-1.15-0.13-1.72c0.02-0.57-0.02-1.15-0.01-1.72
	c0-0.57-0.17-1.14-0.18-1.71s0.27-1.15,0.24-1.72s-0.19-1.14-0.23-1.71s-0.28-1.12-0.33-1.69c-0.06-0.57,0.31-1.19,0.24-1.75
	c-0.07-0.57-0.63-1.07-0.71-1.63c-0.09-0.57,0.06-1.17-0.05-1.73c-0.11-0.57,0.01-1.18-0.12-1.73c-0.13-0.56-0.26-1.13-0.41-1.67
	c-0.14-0.56-0.82-0.96-0.99-1.5c-0.16-0.55-0.08-1.17-0.26-1.71c-0.18-0.53-0.55-0.98-0.74-1.5s-0.11-1.15-0.32-1.67
	s-0.5-1-0.72-1.51s-0.32-1.08-0.56-1.58c-0.24-0.5-0.62-0.94-0.87-1.43c-0.25-0.5-0.24-1.13-0.5-1.62c-0.26-0.49-0.66-0.91-0.93-1.4
	c-0.27-0.48-0.92-0.75-1.21-1.22c-0.29-0.48-0.13-1.23-0.42-1.7c-0.3-0.47-0.64-0.92-0.95-1.38s-0.8-0.81-1.12-1.26
	c-0.32-0.45-0.47-1.04-0.8-1.49c-0.33-0.44-1.01-0.63-1.35-1.07c-0.34-0.44-0.5-1.03-0.85-1.45c-0.36-0.43-0.68-0.88-1.05-1.3
	c-0.37-0.42-0.95-0.64-1.33-1.05s-0.74-0.89-1.13-1.29c0.25-0.5,0.57-1.02,0.8-1.53c0.22-0.51,0.18-1.13,0.39-1.65
	s0.58-0.97,0.77-1.5s0.36-1.06,0.54-1.59c0.17-0.53,0.58-1,0.74-1.53c0.16-0.54-0.02-1.17,0.13-1.71c0.15-0.54,0.63-1,0.76-1.54
	c0.13-0.55,0.39-1.07,0.51-1.61c0.12-0.55,0.21-1.12,0.32-1.66c0.11-0.56-0.25-1.2-0.15-1.74c0.1-0.57,0.35-1.09,0.43-1.63
	c0.09-0.57,0.53-1.07,0.61-1.6c0.08-0.58-0.28-1.19-0.21-1.72c0.07-0.56,0.25-1.11,0.31-1.68c0.05-0.57,0.08-1.13,0.11-1.7
	s0.05-1.13,0.06-1.7s0.2-1.14,0.19-1.71s0.08-1.15,0.05-1.72c-0.03-0.57-0.44-1.11-0.49-1.68s0.14-1.16,0.07-1.73
	c-0.08-0.56-0.32-1.1-0.42-1.66c-0.1-0.56-0.27-1.1-0.39-1.66s-0.26-1.1-0.41-1.65c-0.15-0.55-0.4-1.06-0.57-1.6
	c-0.17-0.54,0.09-1.24-0.11-1.77s-0.74-0.93-0.97-1.46c-0.23-0.52-0.23-1.15-0.49-1.66c-0.25-0.51-0.91-0.8-1.19-1.3
	c-0.28-0.49-0.51-1-0.82-1.48c-0.31-0.47-0.28-1.18-0.61-1.63s-0.7-0.9-1.06-1.33s-0.72-0.89-1.1-1.3s-0.88-0.73-1.28-1.12
	c-0.41-0.39-0.82-0.79-1.24-1.15c-0.43-0.37-0.93-0.65-1.37-0.99c-0.45-0.34-0.93-0.64-1.39-0.95c-0.46-0.32-1-0.52-1.48-0.81
	s-0.79-0.89-1.29-1.15s-1.17-0.17-1.69-0.4c-0.51-0.24-0.93-0.69-1.45-0.89c-0.52-0.21-1-0.59-1.53-0.76s-1.15-0.13-1.69-0.27
	s-1.14-0.08-1.69-0.19s-1.12-0.07-1.67-0.15c-0.56-0.08-1.09-0.32-1.65-0.36c-0.57-0.04-1.13,0.02-1.68,0.02
	c-0.57,0-1.14-0.23-1.69-0.2c-0.56,0.04-1.09,0.4-1.65,0.48c-0.56,0.08-1.09,0.24-1.64,0.36c-0.55,0.11-1.11,0.15-1.65,0.3
	s-1.07,0.3-1.61,0.49c-0.53,0.18-1.23-0.05-1.75,0.17S102,2.85,101.5,3.09s-1.11,0.3-1.61,0.57c-0.49,0.27-0.92,0.66-1.4,0.96
	c-0.48,0.3-1.09,0.4-1.55,0.72c-0.46,0.32-0.64,1.03-1.09,1.37s-0.96,0.59-1.39,0.95s-0.97,0.59-1.39,0.97
	c-0.41,0.38-0.75,0.85-1.15,1.24c-0.4,0.39-0.85,0.74-1.24,1.15s-0.65,0.93-1.02,1.35c-0.37,0.42-0.57,0.99-0.92,1.42
	c-0.36,0.43-1.11,0.56-1.45,1c-0.34,0.45-0.52,1.02-0.85,1.48c-0.33,0.46-0.54,1-0.85,1.46c-0.32,0.47-0.67,0.91-0.97,1.38
	c-0.3,0.48-0.5,1.01-0.79,1.49s-0.7,0.89-0.98,1.38c-0.27,0.49-0.52,1-0.78,1.5s-0.6,0.96-0.85,1.47s-0.38,1.07-0.61,1.58
	c-0.23,0.52-0.66,0.94-0.88,1.46c-0.22,0.52-0.37,1.07-0.57,1.6s-0.04,1.19-0.23,1.71c-0.19,0.53-0.49,1.02-0.66,1.55
	c-0.17,0.54-0.36,1.07-0.51,1.6c-0.22,0.78-1.3,0.71-1.53-0.07c-0.15-0.54-0.16-1.13-0.34-1.67c-0.17-0.53-0.91-0.88-1.1-1.41
	c-0.19-0.53,0.04-1.21-0.17-1.74c-0.2-0.52-0.46-1.03-0.67-1.55c-0.22-0.52-0.8-0.88-1.03-1.39c-0.23-0.51-0.18-1.15-0.43-1.66
	c-0.25-0.5-0.65-0.93-0.92-1.43c-0.26-0.5-0.29-1.12-0.57-1.61c-0.27-0.49-0.75-0.86-1.04-1.35c-0.29-0.48-0.32-1.13-0.62-1.6
	c-0.3-0.48-0.63-0.94-0.95-1.4c-0.32-0.47-0.89-0.75-1.22-1.21c-0.33-0.46-0.34-1.15-0.69-1.6c-0.34-0.45-1.03-0.62-1.39-1.05
	c-0.36-0.44-0.57-0.99-0.94-1.42c-0.37-0.42-0.99-0.61-1.38-1.02s-0.66-0.92-1.06-1.31c-0.4-0.4-0.59-1.02-1-1.4
	c-0.42-0.38-1.12-0.43-1.55-0.79c-0.43-0.36-0.56-1.1-1.01-1.44c-0.45-0.34-0.93-0.65-1.39-0.97C56.31,5,55.77,4.79,55.29,4.5
	c-0.48-0.3-0.93-0.65-1.43-0.92c-0.49-0.27-1.1-0.33-1.6-0.58c-0.51-0.25-0.95-0.65-1.46-0.86c-0.52-0.22-1.11-0.25-1.64-0.44
	c-0.53-0.18-1.13-0.11-1.67-0.26c-0.54-0.15-1.03-0.46-1.58-0.58c-0.55-0.11-1.05-0.56-1.61-0.64c-0.56-0.07-1.15,0.15-1.71,0.11
	C42.02,0.3,41.46,0,40.89,0c-0.56,0-1.13,0.19-1.69,0.23c-0.56,0.04-1.11,0.24-1.66,0.32c-0.56,0.08-1.12,0.11-1.67,0.22
	s-1.15,0.03-1.7,0.17c-0.54,0.14-0.96,0.73-1.49,0.9c-0.53,0.17-1.05,0.36-1.57,0.56c-0.52,0.21-1.06,0.36-1.57,0.6
	c-0.51,0.23-1.07,0.35-1.57,0.61s-0.95,0.6-1.43,0.89s-1.12,0.34-1.59,0.66c-0.46,0.32-0.82,0.8-1.27,1.14
	c-0.45,0.34-1.07,0.49-1.49,0.85c-0.43,0.37-0.65,0.97-1.05,1.36c-0.4,0.39-0.9,0.7-1.28,1.11c-0.38,0.41-0.69,0.9-1.04,1.33
	c-0.36,0.43-0.55,0.99-0.89,1.44c-0.33,0.45-0.95,0.71-1.26,1.19c-0.31,0.48-0.35,1.12-0.63,1.62c-0.28,0.49-0.5,1.02-0.75,1.53
	s-0.71,0.93-0.93,1.45c-0.23,0.52-0.21,1.14-0.41,1.67s-0.67,0.97-0.84,1.52c-0.17,0.54-0.06,1.17-0.21,1.72s-0.23,1.11-0.35,1.66
	c-0.12,0.55-0.4,1.08-0.5,1.64s-0.42,1.09-0.49,1.66c-0.08,0.56-0.18,1.14-0.23,1.7c-0.05,0.57,0.07,1.15,0.04,1.72
	c-0.03,0.57,0.03,1.14,0.02,1.71c-0.01,0.57,0.28,1.13,0.3,1.7c0.01,0.57-0.09,1.14-0.06,1.7c0.03,0.57-0.29,1.17-0.24,1.73
	c0.05,0.57,0.46,1.1,0.53,1.66c0.07,0.53-0.04,1.12,0.04,1.71c0.08,0.54,0.35,1.07,0.44,1.64c0.09,0.54-0.11,1.15,0,1.72
	c0.1,0.54,0.43,1.06,0.55,1.62c0.11,0.55-0.07,1.17,0.06,1.72c0.12,0.55,0.51,1.04,0.65,1.59c0.13,0.55,0.58,1.01,0.73,1.56
	c0.15,0.54,0.15,1.13,0.31,1.67c0.16,0.54,0.05,1.17,0.22,1.71c0.18,0.54,0.77,0.93,0.96,1.46c0.19,0.54,0.14,1.16,0.35,1.68
	c0.21,0.53,0.4,1.07,0.63,1.58c0.23,0.52,0.51,1.01,0.77,1.51c-0.4,0.42-0.85,0.8-1.23,1.23c-0.39,0.43-0.47,1.12-0.85,1.57
	c-0.37,0.44-0.96,0.71-1.32,1.16s-0.93,0.76-1.27,1.22c-0.35,0.46-0.39,1.15-0.72,1.63c-0.33,0.47-0.96,0.75-1.28,1.24
	c-0.32,0.48-0.36,1.15-0.67,1.64s-0.52,1.04-0.81,1.54s-0.8,0.88-1.08,1.39s-0.73,0.93-1,1.45c-0.26,0.52-0.04,1.28-0.29,1.8
	c-0.25,0.52-0.54,1.02-0.77,1.55c-0.24,0.53-0.68,0.97-0.91,1.5c-0.22,0.54-0.17,1.18-0.38,1.72s-0.55,1.03-0.74,1.58
	S4.08,84.5,3.9,85.05s-0.44,1.07-0.61,1.63c-0.17,0.55-0.71,1-0.86,1.57c-0.15,0.56-0.14,1.16-0.28,1.73
	c-0.14,0.56-0.46,1.09-0.58,1.66c-0.13,0.57,0.01,1.19-0.11,1.76c-0.11,0.57-0.18,1.14-0.28,1.72c-0.1,0.57-0.19,1.14-0.27,1.72
	c-0.09,0.57-0.52,1.1-0.59,1.68c-0.07,0.57,0.13,1.19,0.07,1.76c-0.06,0.58-0.26,1.14-0.31,1.72s0.16,1.18,0.12,1.76
	c-0.03,0.56,0.04,1.12,0.02,1.69c-0.01,0.56-0.1,1.12-0.09,1.68s0.16,1.12,0.19,1.68s-0.28,1.14-0.24,1.71
	c0.05,0.56,0.23,1.11,0.3,1.67s-0.12,1.15-0.03,1.71c0.08,0.56,0.42,1.07,0.53,1.63c0.1,0.55,0.15,1.12,0.27,1.67
	c0.12,0.55,0.29,1.09,0.43,1.64s0.28,1.09,0.44,1.63s0.45,1.04,0.62,1.58c0.17,0.54,0.22,1.11,0.41,1.64s0.19,1.14,0.39,1.66
	c0.21,0.52,0.8,0.89,1.02,1.41c0.22,0.52,0.4,1.05,0.64,1.56c0.24,0.51,0.39,1.06,0.65,1.56c0.26,0.5,0.39,1.07,0.66,1.56
	c0.27,0.49,0.65,0.93,0.93,1.42c0.29,0.48,0.61,0.95,0.92,1.42c0.31,0.49,0.83,0.83,1.17,1.31s0.28,1.24,0.64,1.7
	c0.36,0.46,0.72,0.93,1.09,1.37c0.38,0.44,0.83,0.83,1.22,1.26s1.07,0.59,1.48,1s0.67,0.98,1.09,1.38c0.43,0.39,0.84,0.81,1.28,1.19
	s1.02,0.59,1.48,0.95s0.92,0.7,1.39,1.05c0.47,0.34,0.91,0.73,1.39,1.05c0.48,0.33,0.84,0.84,1.33,1.15s1.22,0.22,1.73,0.51
	c0.5,0.29,0.8,0.95,1.31,1.22c0.51,0.28,1.03,0.55,1.55,0.81c0.52,0.26,1.14,0.32,1.67,0.56c0.53,0.24,0.94,0.75,1.47,0.98
	c0.54,0.23,1.07,0.47,1.61,0.69c0.54,0.21,1.11,0.38,1.65,0.58c0.55,0.2,1.17,0.19,1.72,0.37c0.55,0.18,1.16,0.19,1.71,0.36
	c0.56,0.17,1.09,0.41,1.65,0.56s1.09,0.44,1.65,0.57c0.57,0.13,1.09,0.47,1.66,0.59s1.14,0.26,1.71,0.37
	c0.57,0.1,1.22-0.24,1.8-0.15c0.58,0.09,1.12,0.42,1.69,0.49c0.58,0.07,1.16,0.12,1.74,0.18c0.57,0.05,1.13,0.2,1.7,0.25
	s1.14,0.02,1.72,0.07c0.57,0.05,1.15-0.05,1.72,0s1.13,0.23,1.7,0.28s1.14,0.07,1.71,0.11s1.15,0.01,1.72,0.05
	c0.57,0.04,1.13,0.3,1.7,0.34s1.14,0.12,1.71,0.15s1.15-0.08,1.73-0.05c0.57,0.03,1.15,0,1.72,0.02c0.57,0.03,1.14,0.2,1.71,0.23
	c0.57,0.02,1.14,0.09,1.72,0.11c0.57,0.02,1.15-0.12,1.73-0.1c0.57,0.02,1.15-0.03,1.72-0.02s1.15,0.07,1.72,0.08
	s1.15-0.07,1.72-0.06c0.57,0,1.15-0.26,1.72-0.26s1.15,0.51,1.72,0.5s1.14-0.38,1.72-0.39c0.57-0.01,1.15-0.02,1.72-0.04
	c0.57-0.02,1.16,0.35,1.73,0.33s1.13-0.55,1.7-0.58s1.17,0.34,1.74,0.3c0.57-0.03,1.12-0.41,1.7-0.45c0.57-0.04,1.16,0.08,1.73,0.04
	c0.57-0.05,1.13-0.19,1.71-0.25c0.57-0.05,1.18,0.28,1.75,0.22s1.12-0.33,1.69-0.4c0.57-0.07,1.1-0.46,1.67-0.53
	c0.57-0.07,1.2,0.33,1.77,0.25s1.1-0.43,1.66-0.52c0.57-0.09,1.19,0.12,1.75,0.02c0.57-0.1,1.07-0.52,1.64-0.63
	c0.56-0.11,1.18,0.04,1.74-0.07c0.56-0.12,1.09-0.41,1.65-0.53c0.56-0.13,1.11-0.29,1.67-0.42c0.56-0.14,1.08-0.42,1.63-0.56
	c0.56-0.15,1.2,0.02,1.75-0.14s0.98-0.75,1.52-0.92c0.55-0.17,1.12-0.25,1.67-0.42c0.55-0.18,1.05-0.46,1.59-0.65
	c0.54-0.19,1.14-0.22,1.68-0.42s1.01-0.56,1.54-0.78c0.53-0.21,1.11-0.31,1.64-0.54c0.53-0.22,1.15-0.24,1.67-0.48
	c0.52-0.24,0.94-0.7,1.46-0.94c0.52-0.25,1.2-0.16,1.71-0.43c0.51-0.26,0.9-0.75,1.41-1.03c0.5-0.28,1.08-0.42,1.58-0.71
	c0.5-0.29,0.99-0.59,1.48-0.89c0.49-0.3,0.88-0.75,1.36-1.07s0.92-0.69,1.39-1.02s1.09-0.45,1.55-0.79s0.66-1.02,1.12-1.37
	c0.45-0.35,1-0.58,1.44-0.95s0.86-0.76,1.29-1.14s0.77-0.85,1.19-1.25c0.41-0.39,0.85-0.75,1.24-1.17c0.39-0.41,0.99-0.64,1.36-1.08
	c0.36-0.44,0.67-0.93,1.01-1.39s0.86-0.8,1.18-1.27c0.32-0.47,0.29-1.17,0.59-1.66c0.29-0.49,0.87-0.82,1.14-1.32
	s0.39-1.09,0.64-1.6c0.25-0.51,0.65-0.96,0.88-1.49c0.23-0.52,0.23-1.14,0.44-1.68c0.21-0.53,0.61-0.99,0.8-1.53s0.43-1.07,0.6-1.61
	c0.17-0.54,0.13-1.16,0.29-1.71c0.16-0.55,0.09-1.16,0.23-1.71c0.14-0.55,0.59-1.03,0.71-1.59c0.12-0.56,0.1-1.15,0.21-1.71
	s0.08-1.14,0.17-1.71c0.09-0.56,0.33-1.1,0.41-1.67s0.04-1.15,0.1-1.71C153.44,109.77,153.27,109.18,153.31,108.62z"/>
</svg>
