<?xml version="1.0" encoding="utf-8"?>
<!-- Generator: Adobe Illustrator 26.1.0, SVG Export Plug-In . SVG Version: 6.00 Build 0)  -->
<svg version="1.1" id="圖層_1" xmlns="http://www.w3.org/2000/svg" xmlns:xlink="http://www.w3.org/1999/xlink" x="0px" y="0px"
	 viewBox="0 0 178.79 178.79" style="enable-background:new 0 0 178.79 178.79;" xml:space="preserve">
<style type="text/css">
	.st0{clip-path:url(#SVGID_00000093879334395824133860000007689491386658240941_);}
	.st1{fill:#FFD95F;}
	.st2{clip-path:url(#SVGID_00000123424663682886075150000016103266042017344660_);}
	.st3{clip-path:url(#SVGID_00000150064934886602367230000011348172450484220081_);}
</style>
<g>
	<defs>
		<rect id="SVGID_1_" width="178.79" height="178.79"/>
	</defs>
	<clipPath id="SVGID_00000129170806776085741660000016910369533817078712_">
		<use xlink:href="#SVGID_1_"  style="overflow:visible;"/>
	</clipPath>
	<g style="clip-path:url(#SVGID_00000129170806776085741660000016910369533817078712_);">
		<path fill="currentColor" d="M174.37,57.89c-0.22,0.69-0.58,1.34-0.81,2.01c-0.24,0.69-0.41,1.39-0.65,2.07
			c-0.25,0.68-0.52,1.35-0.78,2.02c-0.26,0.68-0.3,1.44-0.57,2.11c-0.28,0.68-0.83,1.23-1.12,1.88c-0.29,0.67-0.35,1.43-0.65,2.08
			c-0.3,0.67-0.61,1.32-0.92,1.97c-0.31,0.66-0.59,1.34-0.91,1.97c-0.33,0.66-0.83,1.21-1.16,1.85c-0.34,0.65-0.66,1.3-1,1.92
			c-0.35,0.65-0.78,1.23-1.13,1.85c-0.36,0.64-0.71,1.28-1.07,1.89c-0.38,0.64-0.82,1.21-1.19,1.81c-0.39,0.63-0.65,1.32-1.03,1.91
			c-0.4,0.63-0.83,1.21-1.22,1.79c-0.41,0.62-0.71,1.3-1.1,1.87c-0.43,0.62-0.8,1.25-1.2,1.81c-0.45,0.62-0.98,1.13-1.39,1.67
			c-0.47,0.63-0.99,1.14-1.4,1.65c-0.51,0.65-0.92,1.26-1.3,1.72c-0.89,1.07-1.25,0.58-1.39,1.65c-0.13,1.05,0.29,0.7,0.9,1.92
			c0.27,0.53,0.52,1.19,0.88,1.93c0.28,0.58,0.8,1.12,1.12,1.81c0.28,0.6,0.58,1.25,0.88,1.93c0.27,0.62,0.4,1.33,0.69,2.01
			c0.27,0.63,0.72,1.2,1,1.88c0.26,0.64,0.42,1.33,0.69,2.01c0.25,0.64,0.41,1.34,0.67,2.01c0.24,0.65,0.46,1.32,0.71,2
			c0.24,0.65,0.63,1.26,0.87,1.94c0.23,0.66,0.33,1.37,0.55,2.05c0.22,0.66,0.44,1.34,0.65,2.02c0.21,0.67,0.62,1.28,0.83,1.97
			c0.2,0.67,0.14,1.43,0.34,2.12c0.19,0.68,0.63,1.29,0.81,1.98c0.18,0.68,0.21,1.4,0.38,2.1c0.17,0.68,0.44,1.35,0.6,2.04
			c0.16,0.69,0.07,1.43,0.22,2.13c0.14,0.69,0.57,1.33,0.7,2.03c0.13,0.69,0.16,1.41,0.28,2.11c0.12,0.7,0.05,1.43,0.15,2.13
			c0.1,0.7,0.12,1.38,0.13,2.07c0.01,0.7,0.15,1.4,0.07,2.08c-0.08,0.7-0.14,1.4-0.32,2.07c-0.18,0.68-0.44,1.34-0.7,1.98
			c-0.27,0.64-0.79,1.15-1.14,1.75c-0.35,0.6-0.7,1.18-1.12,1.73c-0.42,0.55-0.79,1.14-1.29,1.63c-0.49,0.49-0.95,1.03-1.51,1.45
			c-0.55,0.42-1.26,0.61-1.86,0.96c-0.6,0.34-1.11,0.9-1.76,1.16c-0.64,0.26-1.36,0.34-2.04,0.51c-0.67,0.17-1.36,0.19-2.06,0.27
			c-0.68,0.08-1.36,0.14-2.07,0.13c-0.72-0.01-1.42-0.06-2.13-0.09c-0.72-0.02-1.43,0.03-2.13-0.01c-0.72-0.04-1.43,0.04-2.14-0.01
			c-0.72-0.05-1.43-0.07-2.13-0.13c-0.72-0.06-1.41-0.33-2.11-0.4c-0.71-0.07-1.44,0.02-2.14-0.06c-0.71-0.09-1.43-0.13-2.13-0.23
			c-0.71-0.1-1.41-0.25-2.11-0.35c-0.71-0.11-1.38-0.44-2.07-0.55c-0.71-0.12-1.42-0.2-2.11-0.32c-0.71-0.13-1.39-0.36-2.08-0.5
			c-0.71-0.14-1.46-0.03-2.14-0.18c-0.71-0.15-1.41-0.29-2.09-0.45c-0.71-0.17-1.36-0.51-2.03-0.67c-0.71-0.18-1.45-0.17-2.11-0.35
			c-0.71-0.19-1.35-0.55-2.01-0.74c-0.72-0.2-1.4-0.41-2.04-0.6c-0.72-0.22-1.37-0.53-2.01-0.73c-0.74-0.24-1.42-0.42-2.03-0.63
			c-0.78-0.27-1.46-0.46-2.02-0.67c-1.29-0.47-0.94-0.87-1.97-0.62c-0.42,0.56-0.75,1.1-1.19,1.65c-0.44,0.54-1.04,0.95-1.5,1.48
			c-0.46,0.53-0.85,1.11-1.33,1.62c-0.48,0.51-1.11,0.87-1.6,1.37c-0.49,0.49-0.84,1.14-1.35,1.62c-0.51,0.48-1.18,0.77-1.71,1.24
			c-0.52,0.46-0.91,1.08-1.45,1.53c-0.54,0.45-1.04,0.94-1.59,1.37c-0.55,0.44-1.12,0.84-1.68,1.27c-0.56,0.42-1.08,0.9-1.64,1.31
			c-0.57,0.41-1.29,0.6-1.87,0.99c-0.58,0.4-1.09,0.89-1.67,1.27c-0.59,0.39-1.11,0.86-1.7,1.23c-0.59,0.38-1.19,0.75-1.78,1.11
			c-0.6,0.37-1.34,0.48-1.94,0.83c-0.61,0.35-1.2,0.72-1.81,1.06c-0.62,0.35-1.13,0.86-1.74,1.19c-0.62,0.34-1.22,0.71-1.83,1.03
			c-0.63,0.33-1.3,0.56-1.91,0.87c-0.63,0.32-1.23,0.69-1.85,0.99c-0.64,0.31-1.3,0.55-1.92,0.84c-0.65,0.3-1.37,0.39-1.99,0.67
			c-0.67,0.3-1.33,0.55-2.02,0.75c-0.71,0.2-1.4,0.34-2.11,0.44c-0.72,0.1-1.43,0.17-2.15,0.17c-0.73,0-1.45,0.08-2.17-0.02
			c-0.72-0.1-1.41-0.32-2.11-0.51c-0.7-0.2-1.36-0.45-2.03-0.74c-0.66-0.29-1.42-0.41-2.04-0.79c-0.62-0.38-1.19-0.86-1.75-1.32
			c-0.56-0.46-1.14-0.92-1.63-1.46c-0.49-0.53-0.94-1.12-1.36-1.72c-0.41-0.59-0.68-1.29-1-1.95c-0.32-0.64-0.48-1.35-0.71-2.05
			c-0.23-0.69-0.4-1.38-0.62-2.07c-0.21-0.69-0.44-1.37-0.64-2.06c-0.2-0.7-0.35-1.4-0.53-2.09c-0.18-0.7-0.58-1.35-0.74-2.04
			c-0.17-0.71-0.14-1.45-0.29-2.15c-0.15-0.71-0.38-1.4-0.52-2.1c-0.14-0.71-0.33-1.41-0.45-2.12c-0.12-0.72-0.04-1.46-0.14-2.17
			c-0.11-0.72-0.55-1.39-0.64-2.1c-0.1-0.72,0.15-1.48,0.07-2.19c-0.08-0.73-0.33-1.42-0.4-2.13c-0.07-0.73,0.01-1.46-0.05-2.16
			c-0.06-0.73-0.14-1.45-0.18-2.15c-0.04-0.74-0.22-1.45-0.25-2.15c-0.03-0.74-0.07-1.46-0.09-2.16c-0.02-0.75,0.05-1.47,0.05-2.16
			c-0.01-0.75-0.17-1.48-0.16-2.16c0.01-0.76,0.22-1.48,0.24-2.16c0.02-0.78,0.13-1.5,0.16-2.15c0.04-0.83-0.18-1.57-0.13-2.17
			c0.1-1.38,0.9-1.22,0.39-2.17c-0.65-0.28-1.35-0.56-2-0.85c-0.65-0.3-1.33-0.51-1.97-0.83c-0.64-0.31-1.29-0.6-1.92-0.93
			c-0.63-0.33-1.14-0.87-1.76-1.21c-0.62-0.35-1.32-0.55-1.93-0.91c-0.61-0.36-1.19-0.77-1.8-1.15c-0.6-0.38-1.19-0.77-1.79-1.16
			c-0.6-0.39-1.13-0.87-1.71-1.27c-0.59-0.4-1.3-0.62-1.88-1.03c-0.58-0.41-1.12-0.88-1.69-1.3c-0.57-0.42-1.02-1.01-1.58-1.44
			c-0.57-0.44-1.31-0.63-1.87-1.07c-0.56-0.45-1.13-0.87-1.68-1.32c-0.55-0.46-1.03-0.99-1.57-1.45c-0.54-0.46-1.01-1.01-1.54-1.48
			c-0.54-0.47-1.01-1.02-1.53-1.49c-0.53-0.48-1.16-0.84-1.68-1.32c-0.52-0.49-1.13-0.88-1.64-1.37c-0.52-0.5-1.01-1.02-1.5-1.51
			c-0.51-0.51-0.98-1.05-1.46-1.54c-0.51-0.52-0.85-1.17-1.33-1.67c-0.48-0.5-0.88-1.04-1.28-1.59c-0.41-0.56-0.95-1.02-1.28-1.61
			c-0.33-0.61-0.57-1.26-0.81-1.89c-0.25-0.64-0.32-1.33-0.48-1.99c-0.16-0.67-0.57-1.3-0.64-1.98c-0.07-0.68,0.23-1.38,0.25-2.06
			c0.02-0.68-0.06-1.37,0.04-2.05c0.11-0.68,0.31-1.33,0.51-1.98c0.19-0.65,0.24-1.37,0.52-2c0.28-0.62,0.79-1.13,1.15-1.72
			c0.36-0.58,0.68-1.18,1.12-1.72c0.43-0.53,1-0.92,1.5-1.39c0.49-0.46,0.97-0.93,1.54-1.34c0.56-0.41,1.03-0.97,1.62-1.39
			c0.57-0.4,1.12-0.86,1.72-1.26c0.58-0.39,1.24-0.68,1.84-1.07c0.59-0.38,1.14-0.83,1.75-1.21c0.59-0.37,1.18-0.77,1.8-1.14
			c0.6-0.36,1.36-0.47,1.98-0.83c0.61-0.35,1.16-0.81,1.78-1.16c0.61-0.34,1.15-0.84,1.78-1.18c0.62-0.33,1.22-0.71,1.86-1.04
			c0.63-0.32,1.41-0.34,2.05-0.66c0.63-0.31,1.13-0.91,1.78-1.21c0.64-0.3,1.35-0.46,2-0.75c0.65-0.29,1.28-0.62,1.93-0.89
			c0.65-0.27,1.29-0.59,1.95-0.85c0.66-0.26,1.38-0.35,2.05-0.6c0.66-0.24,1.29-0.61,1.96-0.84c0.67-0.23,1.39-0.31,2.07-0.52
			c0.67-0.21,1.32-0.54,2-0.73c0.68-0.2,1.35-0.46,2.03-0.64c0.69-0.18,1.42-0.16,2.11-0.32c0.69-0.16,1.45-0.3,2.15-0.44
			c0.69-0.78-0.01-0.81,0.18-2.13c0.09-0.58,0.07-1.29,0.2-2.07c0.1-0.62,0.27-1.3,0.41-2.03c0.12-0.64,0.38-1.29,0.53-2.01
			c0.13-0.65,0.37-1.3,0.52-2.01c0.14-0.65,0.1-1.37,0.27-2.07c0.15-0.65,0.44-1.3,0.61-1.99c0.16-0.65,0.26-1.34,0.44-2.03
			c0.17-0.66,0.47-1.29,0.66-1.97c0.18-0.65,0.12-1.39,0.32-2.07c0.19-0.65,0.58-1.26,0.78-1.93c0.2-0.65,0.49-1.29,0.71-1.95
			c0.21-0.65,0.37-1.33,0.6-1.99c0.22-0.65,0.48-1.29,0.72-1.95c0.23-0.65,0.25-1.38,0.5-2.03c0.25-0.64,0.74-1.19,1-1.84
			c0.26-0.64,0.55-1.27,0.82-1.91c0.27-0.63,0.43-1.32,0.72-1.95c0.28-0.63,0.42-1.33,0.71-1.96c0.29-0.63,0.76-1.17,1.07-1.79
			c0.31-0.62,0.62-1.24,0.95-1.85c0.32-0.61,0.53-1.29,0.86-1.9c0.36-0.66,0.79-1.26,1.23-1.84c0.45-0.6,0.89-1.2,1.4-1.71
			c0.52-0.52,1.23-0.82,1.82-1.26C69,4.5,69.51,3.95,70.15,3.6c0.65-0.35,1.33-0.63,2.02-0.89c0.69-0.26,1.42-0.37,2.13-0.54
			c0.72-0.16,1.44-0.2,2.17-0.26c0.73-0.06,1.46-0.3,2.19-0.26c0.73,0.04,1.47,0.13,2.19,0.28c0.71,0.14,1.39,0.48,2.08,0.72
			c0.69,0.24,1.42,0.39,2.08,0.74c0.64,0.34,1.19,0.86,1.79,1.29c0.55,0.39,1.05,0.87,1.62,1.3c0.54,0.4,1.14,0.75,1.7,1.19
			c0.53,0.42,1.17,0.73,1.72,1.18c0.53,0.43,1.07,0.86,1.61,1.31c0.52,0.44,0.87,1.08,1.4,1.55c0.51,0.45,1.15,0.77,1.67,1.25
			c0.5,0.46,0.93,1.02,1.44,1.5c0.49,0.47,1.1,0.84,1.59,1.34c0.48,0.48,0.94,1.01,1.42,1.51c0.48,0.49,1.02,0.93,1.5,1.44
			c0.47,0.5,0.97,0.98,1.43,1.5c0.46,0.51,0.69,1.23,1.15,1.76c0.45,0.52,0.91,1.03,1.36,1.57c0.44,0.52,0.85,1.08,1.29,1.62
			c0.43,0.53,0.93,1.02,1.36,1.57c0.42,0.54,0.93,1.03,1.35,1.58c0.41,0.55,0.94,1.02,1.35,1.59c0.4,0.55,0.66,1.22,1.07,1.79
			c0.4,0.56,0.85,1.09,1.24,1.67c0.39,0.57,0.67,1.21,1.06,1.79c0.38,0.57,0.73,1.17,1.11,1.76c0.37,0.58,0.82,1.13,1.18,1.73
			c0.99,0.4,0.78-0.03,2.14-0.25c0.59-0.09,1.31-0.19,2.12-0.3c0.64-0.09,1.33-0.38,2.1-0.48c0.67-0.08,1.38-0.16,2.13-0.24
			c0.68-0.07,1.41,0.07,2.15,0c0.69-0.06,1.39-0.21,2.13-0.27c0.69-0.06,1.4-0.23,2.13-0.28c0.7-0.05,1.4-0.22,2.13-0.25
			c0.7-0.04,1.42-0.01,2.14-0.03c0.7-0.03,1.42,0.12,2.15,0.1c0.7-0.02,1.42-0.06,2.14-0.07c0.71-0.01,1.42-0.1,2.15-0.1
			c0.71,0,1.42,0.2,2.14,0.21c0.71,0.01,1.43-0.05,2.15-0.03c0.71,0.03,1.42,0.16,2.14,0.19c0.71,0.04,1.42,0.05,2.14,0.1
			c0.71,0.05,1.43,0.03,2.15,0.09c0.71,0.06,1.42,0.19,2.13,0.26c0.71,0.08,1.42,0.19,2.13,0.28c0.71,0.09,1.41,0.25,2.12,0.35
			c0.71,0.11,1.45,0.01,2.15,0.14c0.69,0.12,1.31,0.44,1.95,0.64c0.66,0.21,1.28,0.46,1.9,0.74c0.63,0.29,1.36,0.39,1.93,0.76
			c0.58,0.37,0.98,0.98,1.5,1.42c0.52,0.45,1.05,0.87,1.51,1.38c0.46,0.51,0.82,1.09,1.21,1.65c0.39,0.56,0.93,1.04,1.24,1.65
			c0.31,0.61,0.59,1.25,0.82,1.9c0.23,0.64,0.19,1.37,0.34,2.04c0.14,0.67,0.52,1.31,0.57,1.99c0.05,0.68-0.2,1.37-0.23,2.06
			c-0.03,0.68,0.1,1.38-0.03,2.06C174.88,56.59,174.58,57.23,174.37,57.89z"/>
	</g>
</g>
</svg>
