<?xml version="1.0" encoding="utf-8"?>
<!-- Generator: Adobe Illustrator 26.1.0, SVG Export Plug-In . SVG Version: 6.00 Build 0)  -->
<svg version="1.1" id="圖層_1" xmlns="http://www.w3.org/2000/svg" xmlns:xlink="http://www.w3.org/1999/xlink" x="0px" y="0px"
	 viewBox="0 0 178.79 178.79" style="enable-background:new 0 0 178.79 178.79;" xml:space="preserve">
<style type="text/css">
	.st0{clip-path:url(#SVGID_00000013160331452035528820000005898105866826618293_);}
	.st1{fill:#FFD95F;}
	.st2{clip-path:url(#SVGID_00000006696952833533524730000015463932875357631620_);}
	.st3{clip-path:url(#SVGID_00000116207573008815101400000002861977419585887622_);}
</style>
<g>
	<defs>
		<rect id="SVGID_00000057137368393188549540000007712693038839180728_" width="178.79" height="178.79"/>
	</defs>
	<clipPath id="SVGID_00000047034037854073993170000007216372097725543615_">
		<use xlink:href="#SVGID_00000057137368393188549540000007712693038839180728_"  style="overflow:visible;"/>
	</clipPath>
	<g style="clip-path:url(#SVGID_00000047034037854073993170000007216372097725543615_);">
		<path fill="currentColor" d="M174.96,76.1c-0.34,0.64-0.67,1.29-1.02,1.91c-0.35,0.64-0.74,1.25-1.09,1.87c-0.36,0.63-0.6,1.33-0.97,1.94
			c-0.38,0.62-0.92,1.14-1.3,1.74c-0.39,0.62-0.64,1.31-1.03,1.91c-0.4,0.61-0.77,1.23-1.18,1.82c-0.41,0.6-0.98,1.09-1.4,1.67
			c-0.42,0.6-0.69,1.3-1.11,1.87c-0.43,0.59-0.96,1.1-1.39,1.67c-0.45,0.58-0.93,1.12-1.37,1.68c-0.46,0.58-0.9,1.15-1.35,1.7
			c-0.47,0.57-0.99,1.07-1.45,1.61c-0.48,0.56-0.95,1.1-1.42,1.63c-0.49,0.56-0.99,1.08-1.46,1.59c-0.5,0.55-0.86,1.2-1.34,1.71
			c-0.52,0.54-1.02,1.06-1.5,1.56c-0.53,0.54-1.05,1.05-1.54,1.53c-0.55,0.54-1.12,0.98-1.61,1.45c-0.57,0.54-1.02,1.12-1.5,1.56
			c-0.62,0.56-1.25,0.94-1.71,1.33c-1.06,0.9-1.18,0.42-1.5,1.45c-0.31,1.01,0.19,0.65,0.58,1.96c0.17,0.57,0.29,1.28,0.51,2.06
			c0.17,0.62,0.33,1.31,0.53,2.05c0.17,0.64,0.31,1.33,0.49,2.06c0.16,0.65,0.55,1.29,0.72,2.01c0.16,0.66,0,1.42,0.16,2.14
			c0.15,0.67,0.52,1.31,0.67,2.03c0.14,0.67,0.09,1.4,0.23,2.11c0.13,0.68,0.23,1.38,0.35,2.09c0.12,0.68,0.5,1.34,0.62,2.05
			c0.11,0.69-0.01,1.42,0.09,2.13c0.1,0.69,0.42,1.36,0.51,2.07c0.09,0.69,0.2,1.4,0.28,2.11c0.08,0.7,0.06,1.41,0.13,2.12
			c0.07,0.7,0.17,1.4,0.23,2.11c0.06,0.7,0.09,1.41,0.14,2.12c0.05,0.7,0.19,1.4,0.22,2.12c0.04,0.7-0.01,1.42,0.02,2.13
			c0.02,0.71-0.07,1.42-0.06,2.13c0.01,0.71-0.04,1.41-0.04,2.13c0,0.71,0.06,1.42,0.04,2.13c-0.02,0.71-0.09,1.39-0.2,2.07
			c-0.11,0.7-0.06,1.43-0.26,2.09c-0.2,0.67-0.46,1.34-0.75,1.97c-0.29,0.64-0.75,1.19-1.12,1.78c-0.37,0.59-0.81,1.13-1.26,1.66
			c-0.45,0.53-0.86,1.11-1.37,1.58c-0.51,0.47-1.19,0.73-1.76,1.13c-0.57,0.4-1.09,0.86-1.71,1.18c-0.62,0.32-1.26,0.58-1.91,0.82
			c-0.65,0.23-1.34,0.3-2.03,0.44c-0.67,0.14-1.32,0.56-2.02,0.61c-0.69,0.05-1.39-0.15-2.09-0.19c-0.68-0.04-1.35-0.22-2.04-0.35
			c-0.7-0.13-1.42-0.15-2.12-0.3c-0.7-0.15-1.4-0.28-2.09-0.44c-0.7-0.16-1.36-0.44-2.05-0.61c-0.7-0.17-1.42-0.21-2.1-0.39
			c-0.69-0.18-1.39-0.34-2.07-0.53c-0.69-0.2-1.37-0.41-2.05-0.61c-0.69-0.21-1.32-0.56-2-0.77c-0.69-0.22-1.43-0.23-2.1-0.45
			c-0.68-0.23-1.31-0.61-1.97-0.84c-0.68-0.24-1.31-0.6-1.96-0.84c-0.68-0.25-1.41-0.32-2.07-0.57c-0.68-0.26-1.32-0.58-1.96-0.84
			c-0.67-0.27-1.3-0.62-1.94-0.89c-0.67-0.29-1.43-0.32-2.06-0.6c-0.67-0.3-1.28-0.69-1.9-0.98c-0.67-0.31-1.26-0.72-1.88-1.01
			c-0.67-0.32-1.34-0.58-1.94-0.88c-0.68-0.34-1.27-0.75-1.86-1.06c-0.68-0.36-1.3-0.72-1.86-1.03c-0.72-0.39-1.34-0.75-1.85-1.04
			c-1.19-0.69-0.82-1.18-1.88-1.11c-0.51,0.48-1.02,1.06-1.55,1.52c-0.53,0.46-1.15,0.8-1.69,1.24c-0.54,0.44-0.98,1.01-1.54,1.43
			c-0.56,0.42-1.22,0.7-1.79,1.1c-0.57,0.4-1.07,0.91-1.65,1.3c-0.58,0.38-1.14,0.81-1.73,1.18c-0.59,0.37-1.24,0.66-1.84,1.01
			c-0.6,0.35-1.21,0.7-1.82,1.04c-0.61,0.34-1.22,0.69-1.84,1.01c-0.62,0.32-1.3,0.53-1.92,0.84c-0.63,0.31-1.2,0.74-1.83,1.03
			c-0.64,0.29-1.27,0.6-1.91,0.88c-0.64,0.28-1.37,0.36-2.01,0.62c-0.65,0.27-1.24,0.67-1.89,0.92c-0.65,0.26-1.34,0.43-1.99,0.67
			c-0.66,0.25-1.33,0.45-1.98,0.68c-0.67,0.23-1.31,0.51-1.97,0.73c-0.67,0.22-1.3,0.55-1.96,0.76c-0.67,0.21-1.41,0.2-2.07,0.39
			c-0.68,0.2-1.27,0.67-1.93,0.86c-0.68,0.19-1.39,0.24-2.06,0.42c-0.69,0.18-1.38,0.3-2.04,0.47c-0.72,0.18-1.41,0.41-2.12,0.48
			c-0.73,0.08-1.46-0.04-2.17-0.06c-0.73-0.02-1.46,0.03-2.17-0.09c-0.72-0.12-1.46-0.17-2.15-0.39c-0.69-0.22-1.34-0.58-2-0.89
			c-0.66-0.31-1.23-0.77-1.83-1.17c-0.6-0.4-1.23-0.77-1.78-1.25c-0.54-0.48-1.17-0.9-1.65-1.45c-0.47-0.55-0.84-1.2-1.23-1.82
			c-0.39-0.61-0.69-1.28-0.99-1.94c-0.3-0.65-0.63-1.31-0.84-2.02c-0.2-0.69-0.21-1.43-0.33-2.16c-0.11-0.72-0.12-1.44-0.21-2.15
			c-0.09-0.72-0.42-1.41-0.5-2.12c-0.07-0.72,0.01-1.45-0.05-2.17c-0.06-0.72-0.03-1.45-0.07-2.16c-0.04-0.73-0.31-1.43-0.33-2.15
			c-0.03-0.73,0.09-1.45,0.08-2.17c-0.01-0.73-0.15-1.45-0.15-2.16c0-0.73,0.06-1.45,0.08-2.16c0.02-0.73,0.05-1.45,0.08-2.16
			c0.03-0.73-0.05-1.46,0-2.17c0.04-0.73,0.17-1.45,0.22-2.15c0.06-0.73,0.25-1.44,0.32-2.14c0.07-0.73,0.05-1.46,0.13-2.16
			c0.08-0.73,0.29-1.43,0.38-2.13c0.1-0.74,0.08-1.47,0.19-2.16c0.11-0.74,0.23-1.45,0.35-2.13c0.12-0.74,0.36-1.43,0.49-2.11
			c0.14-0.75,0.02-1.51,0.15-2.18c0.16-0.77,0.38-1.46,0.53-2.1c0.18-0.81,0.52-1.47,0.67-2.06c0.34-1.35,0.79-1.08,0.45-2.1
			c-0.6-0.39-1.17-0.79-1.76-1.19c-0.59-0.4-1.14-0.85-1.71-1.27c-0.57-0.42-1.07-0.93-1.64-1.36c-0.56-0.43-1.23-0.73-1.79-1.17
			c-0.55-0.45-1.14-0.86-1.68-1.32c-0.54-0.46-1.13-0.87-1.66-1.34c-0.53-0.47-0.95-1.07-1.47-1.55c-0.52-0.48-0.97-1.05-1.48-1.54
			c-0.51-0.5-1.13-0.88-1.63-1.38c-0.5-0.51-0.98-1.04-1.47-1.55c-0.49-0.52-0.83-1.17-1.31-1.69c-0.48-0.53-1.18-0.85-1.65-1.38
			c-0.47-0.53-0.72-1.26-1.18-1.8c-0.47-0.54-0.96-1.06-1.41-1.6c-0.46-0.55-0.92-1.09-1.36-1.64c-0.45-0.56-1-1.03-1.43-1.59
			c-0.44-0.57-0.73-1.24-1.16-1.8c-0.43-0.57-0.83-1.16-1.24-1.73c-0.43-0.58-0.98-1.06-1.39-1.63c-0.42-0.59-0.93-1.1-1.32-1.67
			c-0.41-0.59-0.77-1.21-1.15-1.79c-0.39-0.58-0.74-1.18-1.04-1.79c-0.31-0.62-0.32-1.36-0.53-2c-0.22-0.65-0.69-1.24-0.82-1.9
			c-0.13-0.68,0.01-1.39-0.04-2.07c-0.04-0.69-0.24-1.37-0.19-2.05c0.05-0.68,0.26-1.35,0.4-2.02c0.14-0.67,0.2-1.37,0.42-2.02
			c0.22-0.65,0.68-1.2,0.99-1.81c0.3-0.61,0.5-1.28,0.89-1.86c0.38-0.57,0.88-1.04,1.34-1.56c0.45-0.51,0.9-1.03,1.42-1.48
			c0.51-0.44,1.11-0.78,1.69-1.16c0.56-0.37,1.09-0.83,1.71-1.14c0.62-0.3,1.35-0.42,2.01-0.73c0.63-0.3,1.2-0.75,1.86-1.04
			c0.64-0.29,1.28-0.58,1.94-0.86c0.64-0.28,1.25-0.66,1.91-0.94c0.65-0.27,1.37-0.36,2.04-0.62c0.65-0.26,1.27-0.63,1.94-0.88
			c0.66-0.25,1.37-0.35,2.05-0.59c0.66-0.23,1.28-0.62,1.96-0.84c0.67-0.22,1.39-0.3,2.07-0.52c0.67-0.21,1.35-0.42,2.03-0.62
			c0.68-0.2,1.3-0.6,1.99-0.78c0.68-0.18,1.43-0.1,2.13-0.28c0.68-0.17,1.35-0.43,2.04-0.59c0.69-0.16,1.41-0.17,2.11-0.31
			c0.69-0.14,1.37-0.36,2.07-0.48c0.7-0.13,1.35-0.48,2.06-0.6c0.7-0.11,1.42-0.06,2.13-0.16c0.7-0.09,1.43,0.01,2.13-0.07
			c0.7-0.08,1.38-0.4,2.09-0.45c0.71-0.06,1.42,0.01,2.13-0.03c0.71-0.04,1.52,0.04,2.23,0.02c0.81-0.65,0.13-0.83,0.55-2.1
			c0.18-0.55,0.29-1.25,0.56-2.01c0.21-0.59,0.48-1.23,0.74-1.94c0.23-0.61,0.49-1.25,0.75-1.93c0.24-0.62,0.5-1.25,0.78-1.92
			c0.25-0.62,0.46-1.28,0.74-1.94c0.26-0.62,0.61-1.22,0.9-1.87c0.27-0.62,0.59-1.23,0.89-1.87c0.28-0.62,0.62-1.22,0.92-1.86
			c0.29-0.61,0.55-1.26,0.86-1.89c0.3-0.61,0.63-1.22,0.95-1.84c0.31-0.61,0.43-1.33,0.76-1.95c0.32-0.61,0.68-1.2,1.02-1.81
			c0.33-0.6,0.67-1.21,1.02-1.81c0.34-0.6,0.64-1.23,1-1.83c0.35-0.59,0.8-1.14,1.16-1.73c0.36-0.59,0.74-1.17,1.12-1.75
			c0.37-0.58,0.7-1.19,1.09-1.77c0.38-0.57,0.85-1.1,1.25-1.67c0.4-0.57,0.88-1.08,1.29-1.64c0.41-0.56,0.77-1.15,1.19-1.71
			c0.42-0.55,0.81-1.13,1.24-1.67c0.47-0.58,0.99-1.11,1.52-1.61c0.54-0.51,1.09-1.02,1.68-1.43c0.61-0.43,1.28-0.74,1.93-1.07
			c0.66-0.34,1.37-0.52,2.06-0.76c0.7-0.24,1.35-0.65,2.07-0.79C84.45,4,85.2,4.12,85.94,4.09c0.73-0.04,1.46-0.02,2.19,0.05
			c0.73,0.07,1.47,0.06,2.19,0.23c0.71,0.17,1.46,0.29,2.14,0.56c0.68,0.26,1.27,0.75,1.91,1.11c0.63,0.36,1.37,0.59,1.96,1.04
			c0.57,0.44,0.99,1.09,1.52,1.62c0.47,0.48,0.98,0.95,1.47,1.46c0.46,0.49,0.86,1.06,1.34,1.59c0.45,0.5,0.9,1.03,1.36,1.56
			c0.44,0.51,1.12,0.85,1.57,1.39c0.43,0.52,0.76,1.15,1.2,1.7c0.42,0.53,0.82,1.1,1.25,1.66c0.41,0.54,0.92,1.02,1.34,1.59
			c0.4,0.55,0.74,1.16,1.14,1.74c0.39,0.56,0.87,1.07,1.26,1.65c0.38,0.56,0.76,1.15,1.14,1.73c0.37,0.57,0.73,1.17,1.11,1.76
			c0.36,0.58,0.8,1.13,1.16,1.72c0.35,0.59,0.46,1.33,0.81,1.93c0.34,0.59,0.76,1.15,1.11,1.76c0.33,0.6,0.57,1.26,0.9,1.88
			c0.32,0.6,0.86,1.1,1.18,1.72c0.31,0.61,0.51,1.29,0.82,1.91c0.3,0.62,0.6,1.24,0.9,1.87c0.29,0.62,0.68,1.2,0.97,1.84
			c0.28,0.63,0.64,1.23,0.92,1.87c0.27,0.63,0.26,1.39,0.53,2.04c0.26,0.64,0.7,1.18,0.96,1.83c0.91,0.57,0.74-0.11,2.12-0.09
			c0.6,0.01,1.31,0.32,2.14,0.35c0.65,0.02,1.37-0.14,2.15-0.1c0.67,0.03,1.38,0.2,2.13,0.25c0.68,0.04,1.41-0.1,2.15-0.04
			c0.69,0.05,1.39,0.26,2.12,0.33c0.69,0.06,1.41,0.04,2.14,0.12c0.69,0.07,1.4,0.16,2.13,0.25c0.7,0.08,1.41,0.15,2.13,0.25
			c0.7,0.09,1.39,0.33,2.1,0.43c0.7,0.1,1.41,0.2,2.12,0.31c0.7,0.11,1.42,0.12,2.13,0.25c0.7,0.12,1.38,0.38,2.09,0.52
			c0.7,0.14,1.44,0.08,2.15,0.23c0.7,0.15,1.39,0.35,2.09,0.51c0.69,0.16,1.38,0.35,2.08,0.53c0.69,0.17,1.33,0.55,2.03,0.73
			c0.69,0.18,1.42,0.21,2.11,0.41c0.69,0.2,1.39,0.36,2.07,0.57c0.68,0.21,1.39,0.37,2.07,0.59c0.68,0.23,1.32,0.58,1.99,0.82
			c0.65,0.24,1.32,0.44,1.92,0.75c0.62,0.32,1.15,0.77,1.7,1.16c0.57,0.4,1.19,0.73,1.69,1.19c0.51,0.47,0.86,1.08,1.29,1.61
			c0.44,0.53,0.83,1.08,1.19,1.66c0.37,0.58,0.61,1.21,0.89,1.83c0.29,0.62,0.8,1.16,1.01,1.81c0.2,0.65,0.06,1.39,0.18,2.06
			c0.12,0.67,0.45,1.32,0.48,2.01c0.03,0.68-0.12,1.37-0.18,2.05c-0.06,0.68-0.13,1.36-0.28,2.03c-0.15,0.66-0.23,1.36-0.47,2.01
			C175.71,74.93,175.28,75.49,174.96,76.1z"/>
	</g>
</g>
</svg>
