<?xml version="1.0" encoding="utf-8"?>
<!-- Generator: Adobe Illustrator 26.1.0, SVG Export Plug-In . SVG Version: 6.00 Build 0)  -->
<svg version="1.1" id="圖層_1" xmlns="http://www.w3.org/2000/svg" xmlns:xlink="http://www.w3.org/1999/xlink" x="0px" y="0px"
	 viewBox="0 0 150.17 161.03" style="enable-background:new 0 0 150.17 161.03;" xml:space="preserve">
<style type="text/css">
	.st0{fill:#FFE6A9;}
	.st1{fill:#EAD6E6;}
	.st2{fill:#D8EAED;}
	.st3{fill:#FFD2C6;}
	.st4{fill:#FFF4D0;}
</style>
<g>
	<path class="st0" d="M146.89,41.87c-0.2-0.51-0.32-1.05-0.54-1.55c-0.22-0.5-0.58-0.93-0.82-1.42c-0.24-0.49-0.27-1.09-0.53-1.57
		c-0.26-0.48-0.74-0.84-1.02-1.31c-0.28-0.47-0.51-0.97-0.81-1.42c-0.3-0.46-0.67-0.86-0.99-1.3c-0.32-0.45-0.5-0.99-0.83-1.42
		c-0.34-0.43-0.84-0.72-1.19-1.14c-0.35-0.42-0.62-0.9-0.99-1.3c-0.37-0.4-0.72-0.82-1.1-1.21c-0.39-0.39-0.8-0.75-1.2-1.11
		c-0.4-0.37-0.87-0.66-1.29-1.01c-0.42-0.35-0.83-0.7-1.26-1.04c-0.43-0.33-0.75-0.83-1.19-1.14c-0.45-0.31-1.01-0.45-1.47-0.75
		c-0.46-0.3-0.81-0.77-1.28-1.04c-0.47-0.28-0.95-0.55-1.43-0.81c-0.48-0.26-1.05-0.35-1.54-0.59c-0.49-0.24-0.93-0.58-1.44-0.8
		c-0.5-0.21-1.04-0.34-1.55-0.54c-0.51-0.19-1.06-0.26-1.58-0.44c-0.52-0.17-1.01-0.43-1.53-0.58c-0.52-0.15-1.03-0.38-1.56-0.51
		c-0.53-0.13-1.11-0.05-1.64-0.16c-0.53-0.11-1.04-0.35-1.58-0.44c-0.54-0.09-1.1-0.02-1.64-0.09c-0.54-0.07-1.06-0.28-1.61-0.33
		c-0.54-0.05-1.09,0.05-1.64,0.02c-0.54-0.03-1.08-0.03-1.63-0.04c-0.54-0.01-1.09-0.25-1.64-0.24c-0.54,0.01-1.09,0.13-1.63,0.16
		c-0.54,0.03-1.09,0.02-1.64,0.07c-0.54,0.05-1.09,0.1-1.63,0.17c-0.54,0.07-1.05,0.35-1.59,0.43c-0.54,0.09-1.11-0.04-1.65,0.06
		c-0.53,0.11-1.06,0.28-1.59,0.4c-0.53,0.12-1.02,0.42-1.55,0.56c-0.52,0.14-1.13,0.03-1.65,0.18c-0.52,0.16-1.03,0.37-1.55,0.55
		c-0.51,0.17-1.03,0.36-1.54,0.55c-0.51,0.19-1,0.43-1.51,0.64c-0.5,0.21-1.03,0.36-1.53,0.58c-0.5,0.22-0.98,0.48-1.48,0.72
		c-0.49,0.24-0.89,0.66-1.37,0.91c-0.53,0.28-1.14,0.41-1.66,0.7c-0.52,0.3-0.96,0.74-1.47,1.05c-0.51,0.31-0.97,0.7-1.47,1.02
		c-0.5,0.33-0.99,0.66-1.48,1.01c-0.49,0.35-1.05,0.61-1.53,0.97c0.13-0.55,0.2-1.12,0.34-1.64c0.15-0.54,0.48-1.02,0.65-1.54
		c0.18-0.54,0.4-1.04,0.6-1.54c0.2-0.53,0.24-1.1,0.46-1.6c0.23-0.52,0.55-0.98,0.79-1.46c0.25-0.5,0.51-0.99,0.78-1.46
		c0.28-0.49,0.43-1.05,0.73-1.5c0.31-0.47,0.75-0.84,1.08-1.27c0.34-0.45,0.77-0.81,1.12-1.22c0.37-0.43,0.63-0.93,1.01-1.32
		c0.4-0.4,0.79-0.79,1.19-1.15c0.42-0.38,0.82-0.76,1.25-1.09C89.3,10.2,89.7,9.8,90.15,9.5c0.47-0.32,1.07-0.4,1.54-0.67
		c0.49-0.28,0.87-0.75,1.35-0.99c0.51-0.25,1.11-0.29,1.6-0.49c0.53-0.22,1.05-0.4,1.55-0.57c0.55-0.19,1.06-0.41,1.56-0.55
		c0.58-0.15,1.13-0.19,1.63-0.28c0.62-0.12,1.16-0.21,1.63-0.27c0.91-0.11,1.49-0.16,1.63-0.17c0.69,0,1.21-0.45,1.65-0.99
		c0.4-0.49,0.75-1.07,0.75-1.79c0-0.72-0.26-1.38-0.66-1.87C103.95,0.33,103.33,0,102.64,0c-0.04,0-0.64,0.04-1.65,0.16
		c-0.47,0.06-1.03,0.08-1.65,0.19c-0.5,0.09-1.03,0.23-1.61,0.37c-0.51,0.12-1.02,0.35-1.57,0.51c-0.51,0.15-1.05,0.26-1.59,0.45
		c-0.5,0.18-0.99,0.46-1.51,0.67c-0.5,0.21-1.12,0.18-1.63,0.42c-0.49,0.23-0.94,0.58-1.43,0.85c-0.47,0.26-0.91,0.61-1.39,0.91
		c-0.46,0.29-0.93,0.58-1.39,0.9c-0.44,0.31-0.85,0.69-1.29,1.04c-0.43,0.34-0.79,0.75-1.21,1.12c-0.41,0.36-0.99,0.55-1.39,0.94
		c-0.39,0.38-0.63,0.92-1,1.34c-0.36,0.4-0.85,0.72-1.2,1.15c-0.34,0.42-0.65,0.89-0.97,1.35c-0.32,0.44-0.7,0.85-1.01,1.33
		c-0.29,0.46-0.45,1.01-0.73,1.5c-0.27,0.47-0.62,0.91-0.88,1.41c-0.25,0.48-0.53,0.97-0.77,1.48c-0.22,0.49-0.31,1.06-0.52,1.58
		c-0.2,0.51-0.53,0.98-0.72,1.51c-0.18,0.51-0.25,1.11-0.42,1.65c-0.17-0.54-0.33-1.1-0.52-1.61c-0.19-0.53-0.43-1.03-0.63-1.54
		c-0.21-0.52-0.37-1.05-0.6-1.55c-0.23-0.51-0.6-0.95-0.85-1.43c-0.26-0.5-0.36-1.07-0.63-1.54c-0.28-0.49-0.7-0.88-0.99-1.34
		c-0.3-0.47-0.49-1.02-0.81-1.46c-0.33-0.46-0.59-0.96-0.93-1.39c-0.35-0.44-0.79-0.8-1.16-1.2c-0.38-0.42-0.71-0.88-1.09-1.26
		c-0.4-0.4-0.9-0.67-1.31-1.04c-0.42-0.37-0.89-0.67-1.32-1.01c-0.44-0.35-0.84-0.74-1.28-1.05c-0.46-0.32-0.97-0.55-1.43-0.83
		c-0.48-0.3-0.93-0.61-1.41-0.87c-0.5-0.27-0.91-0.69-1.39-0.92c-0.51-0.25-1.02-0.48-1.52-0.68c-0.53-0.22-1.06-0.41-1.56-0.58
		c-0.54-0.19-1.1-0.28-1.6-0.43c-0.56-0.16-1.08-0.36-1.59-0.48c-0.58-0.14-1.14-0.18-1.64-0.27c-0.62-0.11-1.18-0.13-1.64-0.19
		c-1-0.12-1.6-0.04-1.64-0.04c-0.69,0-1.41,0.1-1.85,0.63c-0.4,0.49-0.57,1.23-0.57,1.95c0,0.72,0.21,1.43,0.61,1.92
		c0.43,0.54,1.12,0.74,1.8,0.74c0.13,0,0.71,0.2,1.64,0.31c0.47,0.06,1.05-0.07,1.67,0.05c0.5,0.1,1.02,0.32,1.6,0.47
		c0.5,0.13,1.06,0.22,1.61,0.4c0.5,0.17,0.98,0.47,1.52,0.68c0.49,0.2,1.02,0.38,1.53,0.63c0.48,0.24,0.98,0.49,1.47,0.77
		c0.47,0.27,1,0.48,1.47,0.79c0.45,0.3,0.83,0.72,1.28,1.07c0.43,0.33,0.78,0.77,1.2,1.14c0.4,0.36,0.78,0.75,1.18,1.15
		c0.38,0.39,0.83,0.71,1.2,1.14c0.35,0.41,0.76,0.8,1.1,1.25c0.33,0.43,0.6,0.92,0.91,1.39c0.3,0.45,0.44,1.01,0.72,1.5
		c0.27,0.47,0.65,0.88,0.9,1.39c0.24,0.48,0.47,0.99,0.69,1.5c0.22,0.5,0.55,0.96,0.75,1.49c0.19,0.51,0.22,1.08,0.4,1.62
		c0.17,0.52,0.31,1.05,0.46,1.6c0.15,0.52,0.39,1.08,0.52,1.63c-0.48-0.36-0.95-0.8-1.44-1.15c-0.49-0.34-0.94-0.76-1.44-1.09
		c-0.5-0.33-1.14-0.44-1.65-0.76c-0.51-0.31-0.99-0.67-1.51-0.97c-0.52-0.29-1.03-0.61-1.56-0.89c-0.49-0.25-0.94-0.57-1.43-0.81
		c-0.49-0.24-1.02-0.4-1.52-0.63c-0.5-0.22-1.01-0.43-1.51-0.63c-0.51-0.21-1.02-0.4-1.53-0.59c-0.51-0.19-1.05-0.31-1.56-0.49
		c-0.52-0.18-0.97-0.57-1.49-0.72c-0.52-0.16-1.13-0.02-1.66-0.16c-0.53-0.14-1.04-0.33-1.57-0.46c-0.53-0.12-1.05-0.32-1.58-0.42
		c-0.54-0.11-1.08-0.19-1.61-0.28c-0.54-0.09-1.09-0.06-1.63-0.13c-0.54-0.07-1.08-0.14-1.62-0.19c-0.55-0.05-1.08-0.18-1.62-0.21
		c-0.55-0.03-1.09-0.23-1.63-0.24c-0.55-0.01-1.1,0.14-1.64,0.14c-0.55,0.01-1.1-0.06-1.64-0.03c-0.55,0.03-1.08,0.24-1.62,0.29
		c-0.54,0.05-1.09,0.09-1.63,0.16c-0.54,0.07-1.1,0.05-1.63,0.14c-0.54,0.09-1.07,0.21-1.61,0.32c-0.54,0.11-1.03,0.4-1.55,0.53
		c-0.53,0.13-1.13-0.01-1.66,0.14c-0.52,0.15-1.01,0.43-1.53,0.6c-0.52,0.17-1.04,0.35-1.54,0.54c-0.51,0.19-1.01,0.42-1.51,0.64
		c-0.5,0.22-1.01,0.41-1.5,0.65c-0.49,0.24-1,0.44-1.48,0.7c-0.48,0.26-0.93,0.58-1.4,0.86c-0.47,0.28-0.92,0.59-1.38,0.88
		c-0.46,0.3-0.93,0.57-1.38,0.88c-0.45,0.31-0.81,0.74-1.24,1.07c-0.43,0.33-0.87,0.66-1.28,1.01c-0.42,0.35-0.92,0.6-1.32,0.97
		c-0.4,0.37-0.68,0.86-1.07,1.25c-0.39,0.38-0.81,0.73-1.18,1.13c-0.37,0.4-0.85,0.7-1.21,1.12c-0.35,0.42-0.68,0.85-1.02,1.29
		c-0.33,0.43-0.6,0.92-0.92,1.36c-0.31,0.44-0.71,0.84-1.01,1.3c-0.3,0.45-0.36,1.06-0.64,1.53c-0.28,0.47-0.76,0.82-1.02,1.3
		c-0.26,0.48-0.33,1.06-0.57,1.55c-0.24,0.49-0.56,0.94-0.78,1.44c-0.22,0.5-0.49,0.98-0.69,1.49c-0.2,0.51-0.42,1.02-0.6,1.53
		c-0.18,0.52-0.13,1.11-0.29,1.64C2.13,45.51,1.85,46,1.7,46.53c-0.14,0.53-0.29,1.06-0.41,1.59c-0.12,0.53-0.27,1.07-0.37,1.6
		c-0.1,0.54-0.02,1.11-0.11,1.65C0.73,51.91,0.66,52.45,0.6,53c-0.06,0.54-0.16,1.08-0.2,1.63c-0.04,0.55-0.34,1.08-0.37,1.62
		C0,56.79,0.01,57.35,0,57.9c-0.01,0.55,0.09,1.1,0.1,1.65c0.01,0.55-0.08,1.1-0.05,1.65c0.03,0.55,0.27,1.08,0.31,1.63
		c0.05,0.55-0.01,1.1,0.06,1.65c0.07,0.54,0.27,1.07,0.36,1.61C0.86,66.62,0.9,67.17,1,67.71c0.1,0.54,0.15,1.09,0.27,1.62
		c0.12,0.53,0.36,1.04,0.5,1.57c0.13,0.53,0.18,1.08,0.33,1.61c0.15,0.53,0.41,1.02,0.58,1.54c0.17,0.52,0.37,1.03,0.55,1.55
		c0.18,0.52,0.25,1.07,0.45,1.58c0.2,0.51,0.3,1.06,0.51,1.57c0.21,0.5,0.5,0.98,0.73,1.48c0.23,0.5,0.61,0.92,0.85,1.41
		c0.24,0.49,0.28,1.08,0.54,1.57c0.26,0.48,0.52,0.97,0.79,1.45c0.27,0.48,0.7,0.86,0.98,1.33c0.28,0.47,0.48,0.99,0.78,1.45
		c0.3,0.46,0.62,0.89,0.93,1.34c-0.31,0.45-0.66,0.86-0.95,1.32c-0.3,0.46-0.42,1.03-0.7,1.5c-0.28,0.47-0.76,0.83-1.03,1.3
		c-0.27,0.48-0.47,1-0.72,1.48c-0.26,0.49-0.34,1.06-0.58,1.55c-0.24,0.49-0.74,0.87-0.96,1.36c-0.23,0.5-0.3,1.07-0.52,1.57
		c-0.21,0.51-0.47,0.99-0.67,1.5c-0.2,0.51-0.39,1.03-0.57,1.54c-0.18,0.52-0.19,1.09-0.36,1.61c-0.17,0.52-0.49,1-0.64,1.52
		c-0.15,0.53-0.14,1.1-0.28,1.63c-0.13,0.53-0.4,1.03-0.52,1.57c-0.12,0.54-0.24,1.07-0.34,1.61c-0.1,0.54-0.03,1.11-0.11,1.65
		c-0.08,0.54-0.36,1.06-0.42,1.6c-0.07,0.54,0.06,1.11,0.01,1.65c-0.05,0.55-0.04,1.09-0.07,1.64c-0.03,0.55-0.24,1.09-0.25,1.63
		c-0.01,0.55,0.12,1.1,0.13,1.64c0.01,0.55-0.06,1.1-0.04,1.64c0.03,0.55-0.11,1.11-0.06,1.65c0.04,0.55,0.35,1.07,0.42,1.61
		c0.06,0.54-0.08,1.12,0,1.66c0.08,0.54,0.15,1.09,0.25,1.63c0.1,0.54,0.29,1.06,0.41,1.6c0.12,0.53,0.45,1.02,0.59,1.55
		c0.14,0.53,0.19,1.08,0.35,1.61c0.16,0.52,0.37,1.03,0.56,1.55c0.18,0.52,0.44,1,0.64,1.51c0.2,0.51,0.23,1.09,0.45,1.59
		c0.22,0.5,0.68,0.89,0.92,1.38c0.24,0.49,0.38,1.03,0.64,1.51c0.26,0.48,0.44,1.01,0.72,1.48C6.35,142.12,6.7,142.55,7,143
		c0.3,0.46,0.67,0.87,0.98,1.31c0.32,0.45,0.61,0.91,0.94,1.34c0.34,0.43,0.73,0.81,1.08,1.22c0.35,0.42,0.62,0.91,0.99,1.31
		c0.37,0.4,0.69,0.85,1.08,1.24c0.39,0.39,0.85,0.69,1.25,1.06c0.4,0.37,0.74,0.81,1.16,1.16c0.42,0.35,0.91,0.61,1.34,0.95
		c0.43,0.33,0.82,0.73,1.26,1.05c0.45,0.31,0.87,0.67,1.33,0.97c0.46,0.3,1.07,0.34,1.54,0.62c0.47,0.28,0.96,0.51,1.44,0.77
		c0.48,0.26,0.92,0.58,1.42,0.81c0.49,0.24,0.95,0.54,1.45,0.75c0.5,0.21,1.02,0.39,1.53,0.58c0.51,0.19,1.05,0.28,1.57,0.46
		c0.52,0.17,0.99,0.48,1.52,0.63c0.52,0.15,1.08,0.18,1.61,0.31c0.53,0.13,1.07,0.2,1.6,0.31c0.53,0.11,1.06,0.24,1.6,0.33
		c0.54,0.09,1.06,0.23,1.61,0.3c0.54,0.07,1.07,0.24,1.61,0.29c0.54,0.05,1.08,0.17,1.63,0.2c0.54,0.03,1.09-0.02,1.64-0.01
		c0.54,0.01,1.09,0.02,1.64,0.01c0.54-0.01,1.09-0.08,1.64-0.11c0.54-0.03,1.07-0.21,1.62-0.26c0.54-0.05,1.1,0.01,1.64-0.05
		c0.54-0.07,1.05-0.31,1.59-0.4c0.54-0.09,1.07-0.17,1.61-0.28c0.53-0.11,1.09-0.1,1.62-0.23c0.53-0.12,1.04-0.3,1.57-0.45
		c0.52-0.14,1.1-0.12,1.62-0.28c0.52-0.16,0.96-0.57,1.48-0.74c0.51-0.17,1.05-0.28,1.56-0.48c0.51-0.19,1.08-0.24,1.58-0.45
		c0.5-0.21,0.91-0.64,1.41-0.87c0.5-0.22,1.06-0.3,1.55-0.54c0.49-0.24,0.94-0.56,1.42-0.81c0.51-0.27,1.08-0.43,1.58-0.71
		c0.5-0.28,0.9-0.74,1.39-1.04c0.49-0.3,1.05-0.49,1.54-0.81c0.48-0.32,1.02-0.55,1.5-0.88c0.47-0.33,0.84-0.8,1.31-1.15
		c0.46-0.34,0.99-0.61,1.44-0.97c0.45-0.36,0.86-0.77,1.3-1.14c0.44-0.37,0.86-0.77,1.29-1.16c0.43,0.38,0.82,0.81,1.27,1.19
		c0.44,0.37,1.01,0.58,1.47,0.94c0.45,0.36,0.78,0.87,1.24,1.22c0.46,0.34,1.03,0.55,1.5,0.88c0.47,0.33,0.88,0.76,1.36,1.08
		c0.48,0.31,0.93,0.7,1.42,1c0.49,0.3,1.13,0.35,1.63,0.63c0.5,0.28,0.93,0.7,1.44,0.97c0.49,0.25,0.98,0.48,1.47,0.72
		c0.49,0.24,1.02,0.41,1.51,0.63c0.5,0.22,1,0.44,1.5,0.64c0.51,0.21,0.92,0.65,1.43,0.84c0.51,0.19,1.08,0.23,1.6,0.4
		c0.52,0.18,1.08,0.2,1.6,0.36c0.52,0.16,1,0.45,1.53,0.6c0.53,0.14,1.02,0.42,1.55,0.55c0.53,0.12,1.09,0.16,1.62,0.27
		c0.54,0.11,1.07,0.21,1.61,0.3c0.54,0.09,1.1,0.01,1.64,0.08c0.54,0.07,1.07,0.27,1.61,0.32c0.55,0.05,1.1,0.01,1.64,0.05
		c0.55,0.03,1.09,0.2,1.63,0.21c0.55,0.01,1.1,0.03,1.64,0.02c0.55-0.01,1.09-0.26,1.63-0.29c0.55-0.03,1.09-0.05,1.63-0.1
		c0.54-0.05,1.11,0.11,1.65,0.04c0.54-0.07,1.07-0.24,1.61-0.33c0.54-0.09,1.08-0.2,1.61-0.31c0.54-0.11,1.08-0.19,1.61-0.32
		c0.53-0.13,1.01-0.44,1.54-0.59c0.52-0.15,1.04-0.32,1.56-0.49c0.52-0.17,1.06-0.29,1.56-0.48c0.51-0.19,1.01-0.41,1.51-0.62
		c0.5-0.22,1-0.43,1.5-0.66c0.49-0.24,0.93-0.57,1.41-0.82c0.48-0.26,0.95-0.54,1.42-0.81c0.47-0.28,0.96-0.52,1.41-0.82
		c0.46-0.3,0.91-0.59,1.36-0.91c0.45-0.31,1-0.49,1.43-0.82c0.43-0.33,0.74-0.82,1.16-1.17c0.42-0.35,0.87-0.66,1.27-1.03
		c0.4-0.37,0.85-0.69,1.23-1.08c0.39-0.38,0.63-0.91,1-1.31c0.37-0.4,0.75-0.78,1.1-1.2c0.35-0.42,0.69-0.84,1.02-1.27
		c0.33-0.43,0.61-0.9,0.93-1.34c0.31-0.44,0.64-0.87,0.94-1.33c0.3-0.45,0.64-0.88,0.92-1.35c0.28-0.47,0.65-0.88,0.91-1.37
		c0.26-0.48,0.43-1,0.68-1.49c0.24-0.49,0.45-0.99,0.67-1.49c0.22-0.5,0.49-0.98,0.69-1.49c0.2-0.51,0.47-1,0.65-1.52
		c0.18-0.52,0.26-1.07,0.43-1.59c0.16-0.52,0.31-1.05,0.46-1.58c0.14-0.53,0.35-1.04,0.47-1.58c0.12-0.53,0.25-1.07,0.35-1.61
		c0.1-0.54,0.07-1.1,0.15-1.64c0.08-0.54,0.11-1.09,0.17-1.63c0.06-0.54,0.13-1.09,0.17-1.63c0.04-0.55,0.07-1.09,0.09-1.64
		c0.03-0.55,0.02-1.09,0.03-1.64c0.01-0.55,0.23-1.1,0.22-1.64c-0.01-0.55-0.12-1.09-0.15-1.64c-0.03-0.55-0.09-1.09-0.14-1.64
		c-0.05-0.55-0.16-1.08-0.23-1.63c-0.07-0.54-0.06-1.1-0.14-1.64c-0.08-0.54-0.08-1.1-0.18-1.64c-0.1-0.54-0.41-1.04-0.52-1.57
		c-0.12-0.53-0.2-1.08-0.34-1.61c-0.13-0.53-0.29-1.06-0.44-1.58c-0.15-0.53-0.12-1.11-0.29-1.63c-0.17-0.52-0.64-0.94-0.82-1.46
		c-0.18-0.52-0.19-1.1-0.39-1.61c-0.2-0.51-0.58-0.95-0.79-1.45c-0.21-0.5-0.2-1.11-0.43-1.61c-0.23-0.5-0.48-0.99-0.72-1.48
		c-0.24-0.49-0.65-0.9-0.91-1.38c-0.26-0.48-0.39-1.04-0.66-1.51c-0.27-0.48-0.59-0.92-0.87-1.39c-0.28-0.47-0.65-0.89-0.94-1.35
		c-0.3-0.46-0.67-0.97-0.98-1.42c0.31-0.45,0.79-0.89,1.08-1.35c0.3-0.46,0.55-0.95,0.83-1.42c0.28-0.47,0.58-0.93,0.84-1.41
		c0.27-0.48,0.38-1.04,0.64-1.52c0.26-0.49,0.55-0.95,0.79-1.44c0.24-0.49,0.61-0.93,0.83-1.42c0.23-0.5,0.42-1.02,0.63-1.52
		c0.21-0.51,0.47-0.99,0.67-1.5c0.2-0.51,0.26-1.07,0.44-1.59c0.18-0.52,0.37-1.03,0.53-1.55c0.17-0.52,0.37-1.03,0.52-1.56
		c0.15-0.53,0.18-1.09,0.31-1.62c0.13-0.53,0.3-1.05,0.42-1.59c0.12-0.54,0.21-1.07,0.31-1.61c0.1-0.54,0.26-1.07,0.35-1.61
		c0.08-0.54,0.05-1.1,0.12-1.64c0.07-0.54,0.12-1.09,0.17-1.63c0.05-0.55,0.19-1.08,0.22-1.63c0.03-0.55,0.17-1.09,0.18-1.64
		c0.01-0.55-0.03-1.1-0.04-1.65c-0.01-0.55-0.12-1.09-0.15-1.64c-0.03-0.55,0.01-1.1-0.03-1.64c-0.04-0.55-0.07-1.1-0.14-1.64
		c-0.06-0.54-0.2-1.08-0.28-1.62c-0.08-0.54-0.05-1.1-0.15-1.64c-0.1-0.54-0.32-1.05-0.44-1.59c-0.12-0.53-0.36-1.04-0.5-1.57
		c-0.14-0.53-0.27-1.06-0.43-1.58c-0.16-0.52-0.26-1.07-0.45-1.58C147.34,42.87,147.09,42.38,146.89,41.87z"/>
</g>
</svg>
