<?xml version="1.0" encoding="utf-8"?>
<!-- Generator: Adobe Illustrator 26.1.0, SVG Export Plug-In . SVG Version: 6.00 Build 0)  -->
<svg version="1.1" id="圖層_1" xmlns="http://www.w3.org/2000/svg" xmlns:xlink="http://www.w3.org/1999/xlink" x="0px" y="0px"
	 viewBox="0 0 209.75 186.57" style="enable-background:new 0 0 209.75 186.57;" xml:space="preserve">
<style type="text/css">
	.st0{fill:#FFFFFF;}
	.st1{fill:#F9D4DD;}
	.st2{fill:none;stroke:#979696;stroke-width:7;stroke-linecap:round;stroke-linejoin:round;stroke-miterlimit:10;}
	.st3{fill:#F7D2A1;}
	.st4{fill:#DFA875;}
	.st5{fill:none;stroke:#998881;stroke-width:7;stroke-linecap:round;stroke-linejoin:round;stroke-miterlimit:10;}
	.st6{fill:#D3D3D3;}
	.st7{fill:#E1B29A;}
	.st8{fill:#B7B7B8;}
</style>
<g>
	<g>
		<g>
			<path class="st0" d="M206.25,85.43c0-21.09-17.1-38.19-38.19-38.19c-0.15,0-0.3,0.02-0.45,0.02c0.27-1.82,0.45-3.67,0.45-5.57
				c0-21.09-17.1-38.19-38.19-38.19c-9.57,0-18.29,3.54-24.99,9.35C98.17,7.04,89.45,3.5,79.89,3.5c-21.09,0-38.19,17.1-38.19,38.19
				c0,1.9,0.18,3.74,0.45,5.57c-0.15,0-0.3-0.02-0.45-0.02C20.6,47.24,3.5,64.34,3.5,85.43c0,12.77,6.27,24.07,15.89,31
				c5.06,3.65,8.58,9.05,10.09,15.11l0,0c7.54,30.28,34.74,51.53,65.94,51.53h18.91c31.2,0,58.4-21.25,65.94-51.53l0,0
				c1.51-6.05,5.03-11.46,10.09-15.11C199.99,109.5,206.25,98.2,206.25,85.43z"/>
		</g>
		<g>
			<g>
				<g>
					
						<ellipse transform="matrix(0.9756 -0.2197 0.2197 0.9756 -8.0246 18.3849)" class="st6" cx="78.64" cy="45.27" rx="19.78" ry="23.34"/>
					
						<ellipse transform="matrix(0.734 -0.6791 0.6791 0.734 -46.3594 53.843)" class="st6" cx="45.56" cy="86.11" rx="19.78" ry="23.34"/>
				</g>
				<g>
					
						<ellipse transform="matrix(0.2197 -0.9756 0.9756 0.2197 58.1432 163.2301)" class="st6" cx="131.11" cy="45.27" rx="23.34" ry="19.78"/>
					
						<ellipse transform="matrix(0.6791 -0.734 0.734 0.6791 -10.5186 148.1478)" class="st6" cx="164.19" cy="86.11" rx="23.34" ry="19.78"/>
				</g>
			</g>
			<path class="st6" d="M100.92,144.69l-20,2.97c-1.28,0.19-2.58,0.23-3.86,0.02c-9.23-1.51-14.64-11.53-10.84-20.09
				c0.5-1.13,1.21-2.17,2.02-3.11l8.33-9.62c4-4.62,7.4-9.74,10.11-15.22l7.14-14.46c0.69-1.39,1.57-2.69,2.73-3.73
				c4.69-4.24,11.96-4.24,16.65,0c1.15,1.04,2.04,2.34,2.73,3.73l7.53,15.24c2.45,4.96,5.53,9.59,9.15,13.78l8.91,10.29
				c0.81,0.94,1.52,1.97,2.02,3.11c3.81,8.56-1.6,18.57-10.84,20.09c-1.28,0.21-2.58,0.17-3.86-0.02l-20-2.97
				C106.21,144.3,103.54,144.3,100.92,144.69z"/>
		</g>
	</g>
	<g>
		<path class="st2" d="M206.25,85.43c0-21.09-17.1-38.19-38.19-38.19c-0.15,0-0.3,0.02-0.45,0.02c0.27-1.82,0.45-3.67,0.45-5.57
			c0-21.09-17.1-38.19-38.19-38.19c-9.57,0-18.29,3.54-24.99,9.35C98.17,7.04,89.45,3.5,79.89,3.5c-21.09,0-38.19,17.1-38.19,38.19
			c0,1.9,0.18,3.74,0.45,5.57c-0.15,0-0.3-0.02-0.45-0.02C20.6,47.24,3.5,64.34,3.5,85.43c0,12.77,6.27,24.07,15.89,31
			c5.06,3.65,8.58,9.05,10.09,15.11l0,0c7.54,30.28,34.74,51.53,65.94,51.53h18.91c31.2,0,58.4-21.25,65.94-51.53l0,0
			c1.51-6.05,5.03-11.46,10.09-15.11C199.99,109.5,206.25,98.2,206.25,85.43z"/>
	</g>
</g>
</svg>
