<?xml version="1.0" encoding="utf-8"?>
<!-- Generator: Adobe Illustrator 26.1.0, SVG Export Plug-In . SVG Version: 6.00 Build 0)  -->
<svg version="1.1" id="圖層_1" xmlns="http://www.w3.org/2000/svg" xmlns:xlink="http://www.w3.org/1999/xlink" x="0px" y="0px"
	 viewBox="0 0 161.34 130.99" style="enable-background:new 0 0 161.34 130.99;" xml:space="preserve">
<style type="text/css">
	.st0{fill:#F9F5EF;}
	.st1{fill:#C9C3BC;}
	.st2{fill:#EADAD0;}
	.st3{fill:#C9AFA1;}
	.st4{fill:#A8A09A;}
</style>
<g>
	<g>
		<path class="st0" d="M153.53,52.14c-0.02-0.58-0.46-1.15-0.47-1.73c-0.02-0.58-0.06-1.16-0.07-1.74
			c-0.01-0.58-0.05-1.16-0.06-1.74c0-0.58,0.09-1.16,0.09-1.74s0.17-1.16,0.17-1.74s0.19-1.16,0.2-1.74c0-0.58-0.49-1.16-0.49-1.75
			c0-0.58-0.04-1.16-0.04-1.74s0.32-1.16,0.31-1.74c-0.01-0.58,0.09-1.17,0.08-1.75s-0.44-1.15-0.46-1.73
			c-0.02-0.58,0.03-1.16,0-1.74s0.2-1.17,0.16-1.75s0.02-1.17-0.03-1.75s-0.51-1.12-0.57-1.69c-0.06-0.58-0.03-1.16-0.11-1.74
			s-0.16-1.15-0.26-1.72c-0.1-0.57-0.27-1.13-0.39-1.69c-0.12-0.57,0.19-1.23,0.05-1.8c-0.14-0.56-0.43-1.09-0.6-1.65
			c-0.16-0.56-0.13-1.18-0.31-1.74c-0.18-0.55-0.42-1.1-0.63-1.64s-0.75-0.95-0.98-1.48c-0.23-0.53-0.62-0.98-0.88-1.5
			c-0.26-0.52-0.06-1.29-0.34-1.79c-0.29-0.5-0.83-0.87-1.14-1.36s-0.61-0.99-0.95-1.47s-0.55-1.07-0.93-1.49
			c-0.39-0.43-0.94-0.73-1.37-1.1c-0.44-0.38-0.84-0.84-1.32-1.16c-0.48-0.32-1.13-0.38-1.64-0.63c-0.51-0.26-1.01-0.55-1.56-0.75
			c-0.54-0.2-1.12-0.25-1.68-0.39c-0.55-0.14-1.12-0.18-1.7-0.27c-0.56-0.09-1.13-0.06-1.71-0.11c-0.57-0.04-1.12-0.56-1.7-0.56
			c-0.57,0-1.13,0.48-1.71,0.51c-0.57,0.03-1.19-0.44-1.77-0.37c-0.57,0.06-1.12,0.32-1.7,0.41c-0.56,0.09-1.1,0.36-1.67,0.48
			c-0.56,0.12-1.18-0.01-1.75,0.13c-0.55,0.14-1.12,0.28-1.68,0.44c-0.55,0.16-1.07,0.45-1.62,0.63c-0.54,0.18-1.03,0.54-1.57,0.74
			s-1.22,0.05-1.75,0.27c-0.53,0.21-0.94,0.74-1.47,0.98c-0.53,0.23-1.09,0.38-1.62,0.62c-0.52,0.24-0.9,0.77-1.42,1.03
			c-0.51,0.26-1.07,0.44-1.57,0.71c-0.51,0.27-1.17,0.26-1.67,0.55c-0.5,0.28-0.79,0.92-1.29,1.22c-0.49,0.3-0.96,0.63-1.45,0.94
			c-0.49,0.31-0.97,0.62-1.45,0.94c-0.48,0.32-1.27,0.2-1.74,0.53s-0.57,1.19-1.03,1.53s-1.03,0.54-1.48,0.9
			c-0.46,0.36-1.06,0.52-1.51,0.89c-0.45,0.37-0.64,1.03-1.08,1.4c-0.44,0.38-1.16,0.44-1.58,0.83c-0.43,0.39-0.8,0.69-1.21,1.09
			c-0.55-0.09-1.05,0.12-1.61,0.04s-1.12-0.07-1.68-0.14s-1.08-0.47-1.64-0.53c-0.56-0.05-1.13-0.03-1.69-0.07
			c-0.56-0.04-1.13,0.15-1.69,0.12c-0.56-0.03-1.11-0.13-1.67-0.16c-0.56-0.02-1.12-0.02-1.68-0.04c-0.56-0.01-1.12-0.13-1.68-0.14
			c-0.56,0-1.12-0.23-1.68-0.23c-0.56,0.01-1.12,0.08-1.68,0.09c-0.56,0.02-1.12,0.18-1.68,0.21c-0.56,0.03-1.12,0.1-1.68,0.13
			c-0.56,0.04-1.09,0.43-1.65,0.48c-0.56,0.04-1.15-0.29-1.71-0.24c-0.56,0.05-1.09,0.32-1.65,0.38c-0.56,0.06-1.15-0.16-1.71-0.09
			s-1.13,0.03-1.69,0.11c-0.55,0.08-1.13,0.63-1.68,0.72c-0.41-0.4-0.99-0.74-1.42-1.13c-0.42-0.39-0.45-1.22-0.88-1.6
			c-0.43-0.37-1.03-0.57-1.47-0.93c-0.44-0.36-0.81-0.82-1.27-1.18c-0.45-0.35-1.04-0.54-1.5-0.88s-1-0.58-1.47-0.91
			s-0.76-0.93-1.24-1.25c-0.48-0.32-0.92-0.7-1.41-1.01s-1.19-0.27-1.68-0.56c-0.49-0.3-1.02-0.52-1.52-0.8
			c-0.5-0.28-0.93-0.69-1.44-0.96s-1.05-0.46-1.57-0.72s-0.91-0.76-1.43-1c-0.52-0.25-1.15-0.26-1.67-0.49
			c-0.53-0.23-1.08-0.39-1.61-0.6c-0.54-0.22-1.04-0.5-1.57-0.7c-0.54-0.2-1.04-0.51-1.59-0.69s-1.03-0.61-1.57-0.77
			c-0.56-0.16-1.17-0.13-1.72-0.27c-0.56-0.14-1.13-0.25-1.69-0.37c-0.57-0.12-1.11-0.4-1.67-0.49c-0.57-0.09-1.21,0.34-1.78,0.28
			c-0.58-0.06-1.12-0.4-1.69-0.44c-0.58-0.03-1.16-0.32-1.73-0.32c-0.58,0.01-1.16,0.31-1.72,0.36c-0.58,0.05-1.2-0.17-1.76-0.07
			c-0.57,0.09-1.14,0.31-1.69,0.45c-0.56,0.14-1.01,0.64-1.55,0.84c-0.54,0.2-1.21,0.1-1.72,0.36C19.74,2.5,19.35,3,18.87,3.32
			s-0.93,0.66-1.37,1.03c-0.43,0.37-0.87,0.74-1.26,1.17c-0.38,0.42-0.55,1-0.89,1.48c-0.34,0.47-0.84,0.82-1.15,1.29
			c-0.32,0.49-0.69,0.93-0.98,1.42c-0.3,0.5-0.48,1.06-0.75,1.55c-0.28,0.51-0.47,1.05-0.72,1.56c-0.26,0.52-0.61,0.99-0.84,1.5
			c-0.23,0.53-0.19,1.16-0.4,1.69c-0.21,0.54-0.47,1.04-0.65,1.58c-0.18,0.55-0.37,1.08-0.52,1.63c-0.16,0.55-0.64,1.02-0.77,1.57
			c-0.13,0.56,0.12,1.2,0.02,1.76c-0.11,0.56-0.26,1.11-0.34,1.68c-0.09,0.57-0.31,1.11-0.38,1.68s-0.3,1.12-0.35,1.69
			c-0.05,0.57,0.22,1.16,0.19,1.73c-0.03,0.57-0.16,1.13-0.18,1.71c-0.02,0.57-0.15,1.14-0.16,1.71c-0.01,0.57,0.18,1.14,0.18,1.72
			c0,0.57-0.27,1.14-0.26,1.72c0.01,0.57,0.12,1.14,0.13,1.72c0.01,0.57-0.21,1.15-0.2,1.72s0.22,1.14,0.23,1.71
			s-0.03,1.14-0.03,1.71c0.01,0.57,0.47,1.14,0.47,1.71s-0.56,1.14-0.57,1.72c0,0.57,0.45,1.14,0.44,1.72
			c-0.01,0.57-0.33,1.14-0.35,1.71s-0.26,1.13-0.29,1.71c-0.03,0.56,0.12,1.11,0.05,1.66c-0.08,0.55,0.05,1.14-0.07,1.68
			c-0.12,0.54-0.57,1-0.72,1.53c-0.15,0.53-0.09,1.13-0.27,1.66s-0.12,1.14-0.32,1.66c-0.2,0.52-0.88,0.85-1.09,1.36
			c-0.21,0.51-0.33,1.06-0.53,1.58c-0.21,0.51-0.02,1.19-0.22,1.7c-0.2,0.52-0.93,0.84-1.12,1.36c-0.19,0.52-0.42,1.04-0.58,1.57
			c-0.17,0.55-0.06,1.18-0.21,1.74c-0.15,0.55-0.53,1.05-0.66,1.61c-0.14,0.56,0.3,1.24,0.18,1.8C1.44,73.09,1.1,73.6,1,74.17
			c-0.1,0.56-0.57,1.07-0.65,1.64c-0.06,0.57,0.3,1.19,0.24,1.76S0.05,78.67,0,79.25c-0.04,0.57,0.21,1.17,0.19,1.74
			s0.19,1.15,0.19,1.72c-0.01,0.57-0.15,1.14-0.14,1.72c0.01,0.57,0.19,1.14,0.22,1.71s0.15,1.13,0.2,1.7
			c0.05,0.57-0.46,1.2-0.39,1.77s0.61,1.07,0.7,1.64s-0.07,1.18,0.04,1.74s0.41,1.08,0.54,1.64s0.02,1.18,0.18,1.73
			c0.15,0.55,0.58,1.03,0.75,1.57c0.17,0.55,0.27,1.12,0.46,1.66s0.61,0.99,0.82,1.52c0.21,0.53-0.05,1.27,0.18,1.79
			c0.23,0.52,0.46,1.06,0.72,1.57c0.26,0.51,0.55,1.02,0.82,1.52c0.28,0.5,0.52,1.04,0.82,1.53s0.76,0.89,1.08,1.36
			c0.32,0.48,0.75,0.88,1.09,1.34s0.56,1.02,0.92,1.47c0.36,0.45,0.96,0.69,1.35,1.12c0.38,0.43,0.88,0.73,1.28,1.14
			c0.4,0.41,0.41,1.22,0.83,1.61s1.19,0.39,1.62,0.77c0.43,0.37,0.66,0.99,1.12,1.35c0.45,0.35,1.14,0.38,1.61,0.72
			c0.47,0.33,0.76,0.9,1.23,1.21c0.48,0.31,0.85,0.79,1.34,1.09c0.49,0.3,1.12,0.35,1.61,0.63c0.5,0.28,0.96,0.62,1.46,0.89
			c0.5,0.26,1.02,0.5,1.54,0.75c0.51,0.25,1.05,0.44,1.57,0.67c0.52,0.23,1.02,0.5,1.55,0.72c0.53,0.22,1.02,0.51,1.55,0.72
			c0.53,0.2,1.12,0.25,1.66,0.44c0.54,0.19,1.11,0.26,1.65,0.44c0.54,0.17,1.04,0.47,1.59,0.64c0.54,0.16,1.12,0.22,1.67,0.37
			s1.1,0.29,1.65,0.42c0.55,0.14,1.06,0.45,1.62,0.58c0.55,0.13,1.06,0.49,1.62,0.61c0.56,0.12,1.22-0.29,1.78-0.18
			c0.56,0.11,1.07,0.49,1.63,0.59c0.56,0.1,1.09,0.43,1.65,0.52c0.56,0.09,1.15,0.04,1.71,0.12c0.56,0.08,1.13,0.15,1.7,0.22
			c0.56,0.07,1.17-0.18,1.73-0.12c0.57,0.06,1.14,0.04,1.71,0.09s1.1,0.5,1.67,0.55s1.16-0.31,1.73-0.27s1.11,0.43,1.68,0.46
			c0.57,0.03,1.14-0.03,1.71,0s1.14-0.06,1.71-0.04s1.13,0.25,1.7,0.27s1.14-0.17,1.71-0.15c0.57,0.01,1.14,0.03,1.71,0.04
			s1.14-0.15,1.71-0.14s1.14,0.49,1.71,0.49s1.14-0.52,1.71-0.52s1.14,0.01,1.71,0.01s1.14,0.33,1.71,0.33
			c0.57-0.01,1.14-0.08,1.71-0.09s1.14-0.32,1.7-0.33c0.57-0.01,1.15,0.47,1.72,0.46s1.13-0.3,1.7-0.32
			c0.57-0.01,1.15,0.32,1.72,0.3c0.57-0.01,1.13-0.51,1.69-0.53c0.57-0.01,1.14-0.1,1.71-0.11s1.14,0.03,1.71,0.01
			c0.57-0.01,1.15,0.34,1.72,0.33s1.14-0.19,1.7-0.2c0.57-0.01,1.14,0.28,1.71,0.27s1.14-0.01,1.71-0.02
			c0.57-0.01,1.14-0.09,1.7-0.1c0.57,0,1.14-0.5,1.7-0.5s1.13,0.19,1.69,0.18c0.56-0.01,1.13,0.08,1.7,0.07
			c0.56-0.02,1.12-0.2,1.69-0.23c0.56-0.03,1.12-0.16,1.69-0.19c0.56-0.04,1.15,0.27,1.72,0.23c0.56-0.04,1.13-0.07,1.7-0.12
			c0.56-0.05,1.11-0.25,1.68-0.31c0.56-0.06,1.12-0.16,1.68-0.23c0.56-0.07,1.14-0.04,1.7-0.12s1.14-0.08,1.7-0.17
			s1.09-0.37,1.65-0.47c0.56-0.1,1.13-0.14,1.68-0.25c0.56-0.11,1.12-0.18,1.68-0.3c0.55-0.12,1.12-0.18,1.68-0.31
			c0.55-0.13,1.07-0.4,1.62-0.54s1.17-0.03,1.72-0.18s0.95-0.8,1.49-0.96c0.54-0.16,1.22,0.1,1.76-0.07
			c0.54-0.18,0.97-0.68,1.5-0.87c0.54-0.19,1-0.57,1.53-0.77s1.22,0,1.74-0.21c0.53-0.21,1.03-0.48,1.55-0.71
			c0.52-0.23,1.02-0.5,1.54-0.73c0.52-0.24,1.14-0.27,1.64-0.52c0.51-0.25,0.74-1.04,1.24-1.31s0.99-0.54,1.48-0.82
			c0.49-0.28,0.99-0.54,1.47-0.83c0.48-0.3,1.12-0.36,1.59-0.67c0.47-0.32,0.94-0.63,1.4-0.96c0.46-0.33,0.9-0.69,1.35-1.04
			c0.45-0.35,1.09-0.47,1.52-0.83c0.43-0.37,0.6-1.04,1.02-1.42s0.9-0.7,1.3-1.1c0.4-0.4,0.93-0.68,1.32-1.1
			c0.38-0.42,0.49-1.08,0.85-1.52c0.36-0.43,0.84-0.77,1.19-1.22c0.34-0.45,0.52-1.02,0.85-1.48c0.32-0.46,0.8-0.82,1.1-1.31
			c0.3-0.48,0.52-1,0.8-1.5c0.28-0.49,0.69-0.92,0.94-1.43c0.25-0.5,0.31-1.11,0.53-1.63c0.23-0.52,0.48-1.02,0.68-1.55
			c0.2-0.53,0.2-1.12,0.38-1.66c0.18-0.53,0.73-0.96,0.89-1.51c0.15-0.53,0.16-1.11,0.28-1.65s0.26-1.08,0.36-1.62
			s0.43-1.06,0.51-1.61s-0.42-1.17-0.36-1.72s0.41-1.07,0.44-1.62c0.04-0.55-0.13-1.11-0.12-1.66c0.02-0.55,0.03-1.1,0.03-1.65
			s0.1-1.11,0.08-1.66s-0.25-1.09-0.28-1.64c-0.04-0.55-0.01-1.1-0.07-1.65c-0.05-0.55-0.04-1.11-0.11-1.65
			c-0.07-0.55-0.19-1.09-0.27-1.64s-0.06-1.11-0.15-1.65c-0.1-0.55-0.45-1.04-0.56-1.58c-0.11-0.56,0.32-1.25,0.17-1.8
			c-0.15-0.55-0.81-0.96-0.99-1.5c-0.18-0.54,0.04-1.23-0.15-1.76c-0.2-0.54-0.54-1.02-0.75-1.55c-0.21-0.53-0.62-0.98-0.84-1.51
			s-0.18-1.17-0.41-1.69c-0.22-0.53-0.51-1.03-0.73-1.56c-0.22-0.53-0.53-1.02-0.74-1.55s-0.38-1.08-0.57-1.62
			c-0.19-0.54-0.34-1.09-0.51-1.64s-0.47-1.06-0.61-1.62c-0.13-0.56,0.04-1.17-0.05-1.74c-0.09-0.56-0.01-1.13-0.06-1.7
			C153.62,52.72,153.55,52.44,153.53,52.14z"/>
	</g>
	<path class="st1" d="M160.59,77.51c-0.08-0.55-0.06-1.11-0.15-1.65c-0.1-0.55-0.45-1.04-0.56-1.58c-0.11-0.56,0.32-1.25,0.17-1.8
		c-0.15-0.55-0.81-0.96-0.99-1.5c-0.18-0.54,0.04-1.23-0.15-1.76c-0.2-0.54-0.54-1.02-0.75-1.55c-0.21-0.53-0.62-0.98-0.84-1.51
		s-0.18-1.17-0.41-1.69c-0.22-0.53-0.51-1.03-0.73-1.56c-0.22-0.53-0.53-1.02-0.74-1.55s-0.38-1.08-0.57-1.62
		c-0.19-0.54-0.34-1.09-0.51-1.64s-0.47-1.06-0.61-1.62c-0.13-0.56,0.04-1.17-0.05-1.74c-0.09-0.56-0.01-1.13-0.06-1.7
		c-0.02-0.3-0.1-0.58-0.11-0.88c-0.03-0.58-0.46-1.15-0.48-1.73c-0.02-0.58-0.06-1.16-0.07-1.74c-0.01-0.58-0.05-1.16-0.06-1.74
		c0-0.58,0.09-1.16,0.09-1.74s0.17-1.16,0.17-1.74s0.19-1.16,0.19-1.74s-0.49-1.16-0.49-1.75c0-0.58-0.04-1.16-0.04-1.74
		s0.32-1.16,0.31-1.74c-0.01-0.58,0.09-1.17,0.08-1.75s-0.44-1.15-0.46-1.73c-0.02-0.58,0.03-1.16,0-1.74s0.2-1.17,0.16-1.75
		s0.02-1.17-0.03-1.75s-0.51-1.12-0.57-1.69c-0.06-0.58-0.03-1.16-0.11-1.74s-0.16-1.15-0.26-1.72c-0.1-0.57-0.27-1.13-0.39-1.69
		c-0.12-0.57,0.19-1.23,0.05-1.8c-0.14-0.56-0.43-1.09-0.6-1.65c-0.16-0.56-0.13-1.18-0.31-1.74c-0.18-0.55-0.42-1.1-0.63-1.64
		s-0.75-0.95-0.98-1.48c-0.23-0.53-0.62-0.98-0.88-1.5c-0.26-0.52-0.06-1.29-0.34-1.79c-0.29-0.5-0.83-0.87-1.14-1.36
		s-0.61-0.99-0.95-1.47s-0.55-1.07-0.93-1.49c-0.39-0.43-0.94-0.73-1.37-1.1c-0.44-0.38-0.84-0.84-1.32-1.16
		c-0.48-0.32-1.13-0.38-1.64-0.63c-0.51-0.26-1.01-0.55-1.56-0.75c-0.54-0.2-1.12-0.25-1.68-0.39c-0.55-0.14-1.12-0.18-1.7-0.27
		c-0.56-0.09-1.13-0.06-1.71-0.11c-0.57-0.04-1.12-0.55-1.7-0.56c-0.57,0-1.13,0.48-1.71,0.51c-0.57,0.03-1.19-0.44-1.76-0.37
		c-0.57,0.06-1.12,0.32-1.7,0.41c-0.56,0.09-1.1,0.36-1.67,0.48c-0.56,0.12-1.18-0.01-1.75,0.13c-0.55,0.14-1.12,0.28-1.68,0.44
		c-0.55,0.16-1.07,0.45-1.62,0.63c-0.54,0.18-1.03,0.54-1.57,0.74s-1.21,0.05-1.75,0.27c-0.53,0.21-0.94,0.74-1.47,0.98
		c-0.52,0.23-1.09,0.38-1.62,0.62c-0.52,0.24-0.9,0.77-1.42,1.03c-0.51,0.26-1.07,0.44-1.58,0.71s-1.17,0.26-1.67,0.55
		c-0.5,0.28-0.79,0.92-1.29,1.22c-0.49,0.3-0.96,0.63-1.45,0.94c-0.49,0.31-0.97,0.62-1.45,0.94c-0.48,0.32-1.27,0.2-1.74,0.53
		s-0.57,1.19-1.03,1.53s-1.03,0.54-1.48,0.9c-0.46,0.36-1.06,0.52-1.51,0.89c-0.45,0.37-0.64,1.03-1.08,1.4
		c-0.44,0.38-1.16,0.44-1.58,0.83c-0.43,0.39-0.8,0.69-1.21,1.09c-0.55-0.09-1.05,0.12-1.61,0.04s-1.12-0.07-1.68-0.14
		s-1.08-0.47-1.64-0.53c-0.56-0.05-1.13-0.03-1.69-0.07c-0.56-0.04-1.13,0.15-1.69,0.12c-0.56-0.03-1.11-0.13-1.67-0.16
		c-0.56-0.02-1.12-0.02-1.68-0.04c-0.56-0.01-1.12-0.13-1.68-0.14c-0.35,0-0.71-0.09-1.07-0.16c0.13,0.39,0.4,0.76,0.49,1.16
		c0.1,0.45,0.31,0.88,0.42,1.33c0.1,0.45-0.19,1-0.08,1.45s0.43,0.85,0.55,1.29c0.12,0.45,0.22,0.9,0.34,1.35
		c0.12,0.45,0.1,0.94,0.23,1.38s0.39,0.85,0.52,1.29c0.14,0.44,0.19,0.91,0.33,1.35s0.49,0.81,0.64,1.25s0.26,0.89,0.41,1.33
		c0.16,0.44,0.4,0.84,0.57,1.27c0.16,0.43,0.39,0.84,0.56,1.27s0.41,0.83,0.59,1.26c0.18,0.43,0.01,1,0.2,1.42s0.7,0.7,0.89,1.12
		s0.02,1.01,0.22,1.43c0.2,0.43,0.53,0.8,0.74,1.22c0.21,0.42,0.53,0.79,0.75,1.21s0.26,0.93,0.48,1.35s0.44,0.84,0.67,1.25
		c0.23,0.41,0.55,0.78,0.79,1.19s0.6,0.74,0.85,1.15c0.25,0.4,0.25,0.96,0.51,1.36c0.25,0.4,0.72,0.66,0.99,1.05
		c0.26,0.39,0.46,0.83,0.73,1.22c0.27,0.39,0.73,0.64,1,1.03c0.28,0.38,0.49,0.81,0.78,1.19c0.28,0.38,0.37,0.91,0.66,1.28
		s0.83,0.55,1.12,0.92c0.3,0.37,0.62,0.71,0.92,1.08c0.3,0.36,0.61,0.72,0.92,1.08s0.31,0.99,0.63,1.34s1,0.37,1.32,0.71
		c0.33,0.34,0.55,0.78,0.88,1.12c0.33,0.34,0.53,0.81,0.87,1.14c0.34,0.33,0.88,0.45,1.22,0.77c0.35,0.32,0.47,0.89,0.82,1.2
		c0.35,0.32,0.68,0.66,1.04,0.97s0.88,0.43,1.24,0.73s0.77,0.55,1.14,0.84s0.58,0.79,0.96,1.08s0.79,0.52,1.18,0.8
		c0.38,0.28,0.87,0.41,1.26,0.68s0.75,0.58,1.14,0.84c0.39,0.26,0.8,0.51,1.2,0.76c0.4,0.25,0.76,0.57,1.16,0.82
		c0.41,0.24,0.73,0.64,1.14,0.87c0.41,0.23,0.85,0.43,1.27,0.65s0.89,0.35,1.31,0.56s0.86,0.4,1.29,0.6s0.97,0.16,1.4,0.35
		c0.43,0.19,0.74,0.66,1.17,0.85c0.43,0.19,0.93,0.23,1.37,0.42c0.43,0.18,0.78,0.58,1.22,0.76c0.43,0.18,0.84,0.44,1.28,0.62
		c0.44,0.17,1.01,0.01,1.46,0.18c0.44,0.17,0.91,0.25,1.36,0.41c0.44,0.16,0.73,0.76,1.17,0.92c0.44,0.16,0.95,0.15,1.4,0.3
		c0.44,0.15,0.86,0.4,1.31,0.54c0.45,0.15,0.95,0.14,1.4,0.28s0.93,0.19,1.38,0.32c0.45,0.13,0.84,0.51,1.29,0.63
		c0.46,0.13,0.9,0.31,1.36,0.43s0.99-0.06,1.45,0.05s0.93,0.16,1.39,0.27c0.46,0.1,0.9,0.31,1.36,0.4c0.46,0.09,0.94,0.12,1.4,0.21
		c0.47,0.09,0.9,0.37,1.36,0.44c0.47,0.08,0.96-0.04,1.43,0.02c0.47,0.06,0.94,0.07,1.41,0.12s0.93,0.17,1.4,0.21
		s0.94,0.17,1.41,0.2s0.94,0.25,1.41,0.27s0.95-0.13,1.43-0.12c0.47,0,0.95-0.02,1.42-0.04c0.47-0.01,0.96,0.1,1.43,0.07
		c0.47-0.03,0.91-0.46,1.38-0.51s0.97,0.12,1.43,0.06c0.12-0.02,0.24-0.02,0.36-0.02c-0.01-0.29-0.03-0.58-0.06-0.87
		C160.79,78.59,160.67,78.05,160.59,77.51z M138.52,31.86c-0.01,0.52-0.02,1.04-0.08,1.55c-0.06,0.52-0.09,1.04-0.2,1.54
		c-0.11,0.51-0.24,1.01-0.4,1.5c-0.19,0.58-0.44,1.12-0.68,1.63c-0.26,0.56-0.54,1.08-0.86,1.54c-0.36,0.5-0.81,0.89-1.25,1.23
		c-0.47,0.37-0.98,0.64-1.55,0.79c-0.54,0.14-1.11,0.17-1.74,0.09c-0.53-0.07-1.08-0.24-1.68-0.48c-0.53-0.22-1.08-0.39-1.61-0.62
		s-1.04-0.48-1.57-0.73c-0.52-0.24-1.02-0.53-1.53-0.79c-0.51-0.26-1.01-0.54-1.52-0.82c-0.5-0.28-1.03-0.52-1.52-0.81
		c-0.49-0.3-0.97-0.62-1.44-0.94c-0.48-0.32-0.92-0.69-1.38-1.04c-0.46-0.34-0.91-0.7-1.35-1.07c-0.45-0.38-0.89-0.7-1.23-1.08
		c-0.4-0.44-0.69-0.9-0.94-1.33c-0.29-0.51-0.47-1.02-0.58-1.51c-0.13-0.55-0.13-1.08-0.06-1.61s0.22-1.04,0.45-1.55
		c0.22-0.48,0.5-0.94,0.84-1.39c0.32-0.42,0.63-0.87,1.03-1.27c0.38-0.37,0.8-0.72,1.23-1.08c0.42-0.34,0.87-0.64,1.33-0.95
		c0.45-0.31,0.91-0.59,1.38-0.88c0.44-0.26,0.91-0.57,1.44-0.84c0.48-0.25,0.99-0.48,1.51-0.71c0.5-0.22,1.03-0.4,1.57-0.58
		c0.53-0.18,1.07-0.31,1.61-0.44c0.55-0.13,1.09-0.3,1.63-0.36c0.57-0.06,1.13-0.03,1.67,0.01c0.57,0.04,1.11,0.14,1.63,0.32
		s1.01,0.45,1.46,0.79c0.42,0.32,0.85,0.68,1.2,1.16c0.31,0.44,0.56,0.93,0.84,1.41c0.27,0.47,0.52,0.96,0.75,1.46
		c0.22,0.49,0.46,0.99,0.64,1.51c0.18,0.51,0.32,1.04,0.46,1.57c0.13,0.53,0.24,1.07,0.33,1.6c0.09,0.54,0.17,1.08,0.21,1.62
		C138.57,30.83,138.52,31.35,138.52,31.86z"/>
	<path class="st2" d="M1.94,79.58c0.46,0.08,0.89,0.36,1.36,0.43c0.47,0.06,0.92,0.34,1.39,0.39s0.97-0.31,1.45-0.28
		c0.47,0.03,0.93,0.19,1.41,0.2c0.47,0.01,0.94,0,1.42,0c0.47,0,0.94-0.16,1.41-0.17c0.47-0.02,0.95,0.16,1.42,0.14
		c0.47-0.03,0.95,0.03,1.42-0.01s0.95-0.02,1.42-0.07s0.94-0.17,1.4-0.23c0.47-0.06,0.91-0.32,1.38-0.39s0.97,0.05,1.44-0.04
		c0.47-0.08,0.92-0.24,1.38-0.33c0.46-0.09,0.95-0.08,1.41-0.19c0.46-0.1,0.91-0.27,1.37-0.38c0.46-0.11,0.84-0.53,1.3-0.65
		s0.93-0.19,1.38-0.31c0.46-0.13,0.98-0.02,1.43-0.15c0.45-0.13,0.88-0.36,1.33-0.5s0.85-0.44,1.3-0.58
		c0.45-0.15,0.93-0.2,1.37-0.36c0.45-0.15,0.83-0.48,1.27-0.64c0.45-0.16,1.05,0.11,1.49-0.05c0.45-0.17,0.85-0.43,1.29-0.6
		c0.44-0.17,0.75-0.69,1.19-0.86c0.44-0.18,0.91-0.27,1.35-0.45s0.96-0.16,1.4-0.34c0.44-0.19,0.81-0.52,1.24-0.71
		c0.44-0.19,0.99-0.12,1.42-0.31c0.43-0.2,0.75-0.64,1.17-0.85c0.43-0.21,0.84-0.44,1.26-0.66c0.42-0.21,0.79-0.53,1.2-0.75
		c0.42-0.22,0.81-0.49,1.22-0.72s0.91-0.32,1.31-0.56c0.41-0.24,0.86-0.41,1.26-0.67c0.4-0.25,0.79-0.52,1.19-0.78
		c0.4-0.26,0.82-0.48,1.21-0.75s0.67-0.68,1.06-0.96c0.38-0.28,0.73-0.6,1.1-0.89c0.38-0.29,0.91-0.37,1.28-0.66
		c0.37-0.29,0.7-0.64,1.06-0.94s0.57-0.79,0.93-1.1c0.36-0.31,0.74-0.59,1.09-0.9c0.35-0.32,0.92-0.39,1.27-0.72
		c0.35-0.32,0.49-0.86,0.83-1.19c0.34-0.33,0.81-0.53,1.14-0.87c0.33-0.34,0.76-0.58,1.09-0.93c0.33-0.34,0.29-1.02,0.61-1.37
		s0.95-0.42,1.26-0.78c0.31-0.36,0.62-0.72,0.93-1.08c0.3-0.36,0.59-0.75,0.88-1.11c0.3-0.37,0.35-0.93,0.64-1.3s0.78-0.6,1.06-0.97
		s0.62-0.72,0.9-1.1c0.28-0.38,0.36-0.9,0.63-1.29s0.6-0.74,0.86-1.13s0.31-0.93,0.56-1.33s0.75-0.65,1-1.05
		c0.25-0.4,0.37-0.88,0.61-1.29s0.4-0.86,0.63-1.27c0.23-0.41,0.47-0.82,0.69-1.24c0.22-0.42,0.62-0.74,0.84-1.16
		c0.22-0.42,0.32-0.9,0.53-1.32s0.29-0.91,0.49-1.33c0.2-0.42,0.75-0.67,0.94-1.1c0.19-0.42,0.05-0.99,0.23-1.42
		c0.18-0.42,0.71-0.71,0.88-1.13c0.18-0.43,0.29-0.89,0.46-1.32s0.28-0.88,0.45-1.32c0.16-0.43,0.24-0.9,0.39-1.33
		c0.16-0.44,0.36-0.85,0.51-1.29s0.1-0.94,0.24-1.38c0.14-0.44,0.38-0.85,0.52-1.29c0.14-0.44,0.15-0.92,0.28-1.36
		s0.41-0.84,0.54-1.29s0.27-0.89,0.39-1.33c0.12-0.45,0.03-0.95,0.14-1.39s0.62-0.8,0.73-1.25c0.1-0.45,0.09-0.93,0.19-1.38
		c0.07-0.32,0.01-0.66,0.01-1c-0.14-0.01-0.27-0.03-0.41-0.03c-0.56,0-1.12-0.23-1.68-0.23c-0.56,0.01-1.12,0.08-1.68,0.09
		c-0.56,0.02-1.12,0.18-1.68,0.21c-0.56,0.03-1.12,0.1-1.68,0.13c-0.56,0.04-1.09,0.43-1.65,0.48c-0.56,0.04-1.15-0.29-1.71-0.24
		c-0.56,0.05-1.09,0.32-1.65,0.38c-0.56,0.06-1.15-0.16-1.71-0.09s-1.13,0.03-1.69,0.11c-0.55,0.08-1.13,0.63-1.68,0.72
		c-0.41-0.4-0.99-0.74-1.42-1.13c-0.42-0.39-0.45-1.22-0.88-1.6c-0.43-0.37-1.03-0.57-1.47-0.93c-0.44-0.36-0.81-0.82-1.27-1.18
		c-0.45-0.35-1.04-0.54-1.5-0.88s-1-0.58-1.47-0.91s-0.76-0.93-1.24-1.25c-0.48-0.32-0.92-0.7-1.41-1.01s-1.19-0.27-1.68-0.56
		c-0.49-0.3-1.02-0.52-1.52-0.8c-0.5-0.28-0.93-0.69-1.44-0.96S48.9,6.4,48.38,6.14s-0.91-0.76-1.43-1
		c-0.52-0.25-1.15-0.26-1.67-0.49c-0.53-0.23-1.08-0.39-1.61-0.6c-0.54-0.22-1.04-0.5-1.57-0.7c-0.54-0.2-1.04-0.51-1.59-0.69
		s-1.03-0.61-1.57-0.77c-0.56-0.16-1.17-0.13-1.72-0.27c-0.56-0.14-1.13-0.25-1.69-0.37c-0.57-0.12-1.11-0.4-1.67-0.49
		c-0.57-0.09-1.21,0.34-1.78,0.28c-0.58-0.06-1.12-0.4-1.69-0.44c-0.58-0.03-1.16-0.32-1.73-0.32c-0.58,0.01-1.16,0.31-1.72,0.36
		c-0.58,0.05-1.2-0.17-1.76-0.07c-0.57,0.09-1.14,0.31-1.69,0.45c-0.56,0.14-1.01,0.64-1.55,0.84c-0.54,0.2-1.21,0.1-1.72,0.36
		C19.74,2.5,19.35,3,18.87,3.32s-0.93,0.66-1.37,1.03c-0.43,0.37-0.87,0.74-1.26,1.17c-0.38,0.42-0.55,1-0.89,1.48
		c-0.34,0.47-0.84,0.82-1.15,1.29c-0.32,0.49-0.69,0.93-0.98,1.42c-0.3,0.5-0.48,1.06-0.75,1.55c-0.28,0.51-0.47,1.05-0.72,1.56
		c-0.26,0.52-0.61,0.99-0.84,1.5c-0.23,0.53-0.19,1.16-0.4,1.69c-0.21,0.54-0.47,1.04-0.65,1.58c-0.18,0.55-0.37,1.08-0.52,1.63
		c-0.16,0.55-0.64,1.02-0.77,1.57c-0.13,0.56,0.12,1.2,0.02,1.76c-0.11,0.56-0.26,1.11-0.34,1.68c-0.09,0.57-0.31,1.11-0.38,1.68
		s-0.3,1.12-0.35,1.69c-0.05,0.57,0.22,1.16,0.19,1.73c-0.03,0.57-0.16,1.13-0.18,1.71c-0.02,0.57-0.15,1.14-0.16,1.71
		c-0.01,0.57,0.18,1.14,0.18,1.72c0,0.57-0.27,1.14-0.26,1.72c0.01,0.57,0.12,1.14,0.13,1.72c0.01,0.57-0.21,1.15-0.2,1.72
		s0.22,1.14,0.23,1.71s-0.03,1.14-0.02,1.71s0.47,1.14,0.47,1.71s-0.56,1.14-0.57,1.72c0,0.57,0.45,1.14,0.44,1.72
		c-0.01,0.57-0.33,1.14-0.35,1.71s-0.26,1.13-0.29,1.71c-0.03,0.56,0.12,1.11,0.05,1.66c-0.08,0.55,0.05,1.14-0.07,1.68
		c-0.12,0.54-0.56,1-0.72,1.53c-0.15,0.53-0.09,1.13-0.27,1.66S6,59.29,5.8,59.81c-0.2,0.52-0.88,0.85-1.09,1.36
		c-0.21,0.51-0.33,1.06-0.53,1.58c-0.21,0.51-0.02,1.19-0.22,1.7c-0.2,0.52-0.93,0.84-1.12,1.36c-0.19,0.52-0.42,1.04-0.58,1.57
		c-0.17,0.55-0.06,1.18-0.21,1.74c-0.15,0.55-0.53,1.05-0.66,1.61c-0.14,0.56,0.3,1.24,0.18,1.8c-0.12,0.56-0.46,1.07-0.56,1.64
		c-0.1,0.56-0.57,1.07-0.65,1.64C0.29,76.38,0.65,77,0.59,77.57S0.05,78.67,0,79.25c0,0.02,0,0.05,0,0.07
		c0.16,0.08,0.33,0.15,0.5,0.19C0.97,79.61,1.47,79.49,1.94,79.58z"/>
	<g>
		<path class="st3" d="M23.58,30.31c0.04-0.54,0.15-1.08,0.24-1.62s0.12-1.09,0.26-1.62s0.32-1.05,0.5-1.56
			c0.18-0.52,0.41-1.02,0.63-1.51c0.23-0.5,0.48-0.98,0.75-1.45c0.27-0.48,0.53-0.96,0.85-1.4c0.34-0.48,0.74-0.87,1.17-1.19
			c0.45-0.34,0.96-0.57,1.48-0.75s1.06-0.26,1.63-0.31c0.54-0.04,1.1-0.09,1.67-0.03c0.54,0.06,1.1,0.15,1.65,0.28
			c0.54,0.13,1.08,0.28,1.61,0.46c0.53,0.18,1.05,0.4,1.55,0.62c0.53,0.23,1.02,0.49,1.5,0.74c0.53,0.27,1,0.57,1.44,0.83
			c0.47,0.28,0.97,0.52,1.41,0.82c0.46,0.31,0.9,0.64,1.32,0.97c0.43,0.35,0.81,0.75,1.19,1.12c0.4,0.4,0.75,0.82,1.07,1.24
			c0.34,0.45,0.68,0.89,0.9,1.37c0.23,0.51,0.38,1.04,0.45,1.57s0.01,1.08-0.12,1.62c-0.11,0.5-0.32,0.99-0.62,1.5
			c-0.25,0.43-0.52,0.91-0.92,1.35c-0.34,0.37-0.74,0.74-1.19,1.12c-0.44,0.37-0.89,0.73-1.35,1.07c-0.46,0.35-0.92,0.69-1.4,1.01
			c-0.48,0.32-1,0.58-1.49,0.88s-0.98,0.61-1.48,0.89s-1.02,0.52-1.54,0.78c-0.51,0.26-1.03,0.52-1.55,0.76
			c-0.52,0.24-1.02,0.53-1.55,0.76s-1.05,0.47-1.58,0.69c-0.6,0.25-1.18,0.32-1.71,0.39c-0.63,0.08-1.21,0.09-1.74-0.05
			c-0.57-0.15-1.09-0.42-1.56-0.79c-0.44-0.34-0.82-0.79-1.18-1.29c-0.33-0.45-0.64-0.95-0.9-1.51c-0.24-0.51-0.44-1.06-0.63-1.64
			c-0.16-0.49-0.34-0.98-0.45-1.49c-0.11-0.5-0.18-1.02-0.24-1.53s-0.11-1.03-0.12-1.55C23.53,31.35,23.55,30.83,23.58,30.31z"/>
	</g>
	<g>
		<path class="st4" d="M138.54,30.31c-0.04-0.54-0.13-1.09-0.21-1.62c-0.09-0.54-0.2-1.08-0.33-1.6c-0.14-0.53-0.28-1.06-0.46-1.57
			c-0.18-0.52-0.42-1.01-0.64-1.51c-0.23-0.5-0.48-0.98-0.75-1.46s-0.52-0.97-0.84-1.41c-0.34-0.48-0.77-0.84-1.2-1.16
			c-0.45-0.34-0.94-0.61-1.46-0.79s-1.07-0.27-1.63-0.32c-0.54-0.04-1.1-0.07-1.67-0.01c-0.54,0.06-1.08,0.23-1.63,0.36
			c-0.54,0.13-1.08,0.26-1.61,0.44s-1.06,0.37-1.57,0.58c-0.53,0.23-1.04,0.46-1.51,0.71c-0.53,0.27-1,0.58-1.44,0.84
			c-0.47,0.28-0.93,0.57-1.38,0.88c-0.46,0.31-0.91,0.62-1.33,0.95c-0.43,0.35-0.86,0.7-1.23,1.08c-0.4,0.4-0.72,0.85-1.03,1.27
			c-0.34,0.45-0.62,0.92-0.84,1.39c-0.23,0.51-0.38,1.02-0.45,1.55c-0.07,0.53-0.06,1.06,0.06,1.61c0.11,0.5,0.29,1.01,0.58,1.51
			c0.25,0.43,0.55,0.89,0.94,1.33c0.34,0.37,0.78,0.7,1.23,1.08c0.44,0.37,0.89,0.72,1.35,1.07s0.9,0.72,1.38,1.04
			c0.48,0.32,0.95,0.64,1.44,0.94c0.49,0.3,1.02,0.54,1.52,0.81c0.5,0.28,1,0.56,1.52,0.82c0.51,0.26,1.01,0.55,1.53,0.79
			s1.04,0.5,1.57,0.73c0.53,0.23,1.08,0.4,1.61,0.62c0.6,0.25,1.15,0.41,1.68,0.48c0.63,0.08,1.21,0.05,1.74-0.09
			c0.57-0.15,1.08-0.42,1.55-0.79c0.44-0.34,0.89-0.73,1.25-1.23c0.33-0.45,0.6-0.98,0.86-1.54c0.24-0.51,0.49-1.05,0.68-1.63
			c0.16-0.49,0.3-1,0.4-1.5c0.11-0.5,0.14-1.03,0.2-1.54c0.06-0.51,0.07-1.03,0.08-1.55C138.52,31.35,138.57,30.83,138.54,30.31z"/>
	</g>
</g>
</svg>
