<svg width="32" height="100" viewBox="0 0 32 100" fill="none" xmlns="http://www.w3.org/2000/svg">
<path d="M0 0L25.6385 10.015C29.4748 11.5136 32 15.211 32 19.3296V80.6704C32 84.789 29.4748 88.4864 25.6385 89.985L0 100V0Z" fill="#2c2f43"/>
<path fill-rule="evenodd" clip-rule="evenodd" d="M19.7073 43.2929C20.0979 43.6834 20.0979 44.3166 19.7073 44.7071L14.4145 50L19.7073 55.2929C20.0979 55.6834 20.0979 56.3166 19.7073 56.7071C19.3168 57.0976 18.6837 57.0976 18.2931 56.7071L12.2931 50.7071C11.9026 50.3166 11.9026 49.6834 12.2931 49.2929L18.2931 43.2929C18.6837 42.9024 19.3168 42.9024 19.7073 43.2929Z" fill="#ffffff"/>
</svg>
