<svg width="29" height="29" viewBox="0 0 29 29" fill="none" xmlns="http://www.w3.org/2000/svg">
<path d="M14.293 26.2632L14.2896 26.2655L14.293 26.2632L14.2928 26.2631C14.2929 26.2631 14.2929 26.2632 14.293 26.2632ZM13.7059 26.6445C13.8834 26.9177 14.2833 26.9177 14.4607 26.6445L18.2855 20.7559C18.4799 20.4565 18.2651 20.0607 17.9081 20.0607L10.2585 20.0607C9.90153 20.0607 9.68668 20.4565 9.88112 20.7559L13.7059 26.6445Z" fill="#474A57" stroke="white" stroke-width="0.7"/>
<path d="M13.7061 2.2246L13.976 2.39992L13.7061 2.2246L9.88125 8.11328C9.6868 8.41265 9.90165 8.80839 10.2586 8.80839L17.9082 8.80839C18.2652 8.80839 18.4801 8.41265 18.2856 8.11328L14.4608 2.2246C14.2834 1.95142 13.8835 1.95142 13.7061 2.2246ZM13.8738 2.60589L13.8772 2.60369L13.8738 2.60589L13.8739 2.60609C13.8739 2.60602 13.8738 2.60596 13.8738 2.60589Z" fill="#474A57" stroke="white" stroke-width="0.7"/>
<rect x="24.5167" y="17.266" width="21.2417" height="1.90833" rx="0.45" transform="rotate(180 24.5167 17.266)" fill="#474A57" stroke="white" stroke-width="0.7"/>
<rect x="24.5167" y="13.641" width="21.2417" height="1.90833" rx="0.45" transform="rotate(180 24.5167 13.641)" fill="#474A57" stroke="white" stroke-width="0.7"/>
</svg>
