<svg width="29" height="29" viewBox="0 0 29 29" fill="none" xmlns="http://www.w3.org/2000/svg">
<path d="M20.7562 19.1185L26.6448 15.2937C26.918 15.1163 26.918 14.7164 26.6448 14.5389L20.7562 10.7141C20.4568 10.5197 20.061 10.7345 20.061 11.0915L20.061 18.7411C20.061 19.0981 20.4568 19.313 20.7562 19.1185Z" fill="#474A57" stroke="white" stroke-width="0.7"/>
<path d="M8.11322 10.7145L2.22454 14.5393C1.95136 14.7167 1.95136 15.1166 2.22454 15.2941L8.11322 19.1189C8.41259 19.3133 8.80833 19.0985 8.80833 18.7415L8.80833 11.0919C8.80833 10.7349 8.41259 10.52 8.11322 10.7145Z" fill="#474A57" stroke="white" stroke-width="0.7"/>
<rect x="17.2666" y="4.48301" width="21.2417" height="1.90833" rx="0.45" transform="rotate(90 17.2666 4.48301)" fill="#474A57" stroke="white" stroke-width="0.7"/>
<rect x="13.6416" y="4.48301" width="21.2417" height="1.90833" rx="0.45" transform="rotate(90 13.6416 4.48301)" fill="#474A57" stroke="white" stroke-width="0.7"/>
</svg>
