<?xml version="1.0" encoding="utf-8"?>
<!-- Generator: Adobe Illustrator 25.2.1, SVG Export Plug-In . SVG Version: 6.00 Build 0)  -->
<svg version="1.1" id="Layer_1" xmlns="http://www.w3.org/2000/svg" xmlns:xlink="http://www.w3.org/1999/xlink" x="0px" y="0px"
	 viewBox="0 0 450 450" style="enable-background:new 0 0 450 450;" xml:space="preserve">
<style type="text/css">
	.st0{fill:#FCFCFC;}
	.st1{clip-path:url(#SVGID_2_);}
</style>
<g>
	<g>
		
			<image style="overflow:visible;opacity:0.75;enable-background:new    ;" width="99" height="481" xlink:href="5204B6968BBB0A1F.png"  transform="matrix(1 0 0 1 62 -8)">
		</image>
		<g>
			<path class="st0" d="M85.2,0c0,0-2.1,2.4-0.2,3.3c-0.8,0.8,0.6,1.5,1.1,2.3c1.1,0.8-0.2,1.6,1.2,2.8c0.1,1.5,0.2,2.7-0.4,3.8
				c-0.9,1.1-0.4,2.1,0.3,3.4c-0.5,0.5-1.3,0.7-1.5,1.1c-1.3,0.2-1.8,1.3-0.3,2.9c1.1,1.5,0.2,3.4,0.3,5.1c-0.7,1.6-0.3,3,0.2,3.5
				c0.4,1.6,2.6,3-0.4,4.3c-0.2,1.3-0.5,2.5,0,3.7c-1.6,1.2,0.7,2.3,0.8,3.5c1.3,1.2,0.9,2.3,1.9,3.6c0.9,0.5,0.2,1.3,1.5,2.2
				c-1.2,0.9,2.7,1.7,1.6,2.2c-0.8,1.1,0.4,1.9,2.4,2.8c0.3,0.8,1.7,1.7,2.1,2.6c3,1-1.1,2.1,1.5,3.5c-0.2,1.2-2.1,2.3,0.7,3.4
				c-0.8,1.1,0.9,2.1,0.7,3.2c-0.5,1.1-1.4,2.1,1.4,3.3c-2.5,0.7-1.1,1.8-1.9,3c-0.5,1.2,0.7,2.6,0.3,4c0.2,1.3,0.6,2.7-0.3,3.7
				c-1.6,0.5-0.2,1-1.6,1.6c-0.1,0.5-1.9,1.1-1.8,1.5c-0.2,0.8-0.7,1.8-2.1,2.8c1.4,1-2.7,2.1-2.4,3.3c-1.8,1.1-1.3,2.3-2,3.5
				c-0.2,1.2-4,2.3-0.9,3.4c1,1.1-1.1,2.1,0.8,3c-0.2,0.5-1.1,0.8-3.2,1.2c-1.3,0.3,1,0.7-1.6,1.3c1.4,0.6,0.5,1.4-0.8,2.7
				c-2.6,1.4-1.8,2.8-0.6,4.1c0.4,1.3,0.8,2.6-0.1,3.9c-1.1,1.3-0.2,2.6,0.5,3.9c-0.4,1.3,1.7,2.6,1.1,4c4.3,1.1-0.7,2.2,1.6,3.3
				c1.3,1.1,0.6,2.1,2.1,3.2c2.8,1.1,2.2,2.1,1.9,3.2c0.8,1.1-0.5,2.2,1.2,3.3c-0.4,1.5-0.1,3,0.7,4.4c1.3,1.5,1.1,3,0.4,4.5
				c-0.1,1.5-1.2,3,0.2,4.5c1.3,1.5-0.6,3,0,4.5c0.1,1.5,0.3,3-0.1,4.5c0.5,1.5-0.3,3-0.2,4.5c-1.1,1.5,0.8,3-0.2,4.5
				c-0.2,0.8,0.3,1.4,0.4,2c0.3,0.6,0.4,1.3,0.2,2.1c-0.4,0.6-0.8,1.3-1,1.9c-0.8,0.6-2.4,1.3-1.1,1.9c-0.6,1.2-1.9,2.5-0.7,3.7
				c1,1.3-0.8,2.6-0.1,3.9c1.2,1.3-0.3,2.7,0.2,4c-0.2,1.3,0.1,2.7,0.1,4c0.4,1.3-0.5,2.6-0.4,3.9c-0.6,1.4,0.6,2.9-0.9,4.3
				c-0.5,1.4-0.9,2.9-0.9,4.3c-0.8,1.4-1,2.9-0.8,4.3c-0.9,1.4-0.5,2.9-0.4,4.3c0.5,1.4-0.3,2.9,0.2,4.3c1.6,1.4,0.4,2.9,1,4.3
				c-0.4,0.6-0.2,1.4-1.3,2.3c-0.1,0.5,0.1,1,0,1.5c0.9,0.5,0.4,1,1.5,1.6c0.4,0.5,0.8,1.1,1.3,1.6c0,0.5,0.1,1.1-0.3,1.6
				c-0.3,0.6-0.8,1.1-0.9,1.5c0.3,0.4-0.8,0.7,0,1c1.2,0.6-0.6,1-1.2,1.6c0,0.3-1.8,0.7-1,1.2c0.4,0.5,1.8,1,0.6,1.7
				c-0.2,0.5,1.2,0.9,0.2,1.4c-0.1,0.5,2,1,0.5,1.5c-0.3,0.5,1.2,1,0.4,1.6c1.5,0.5-0.4,1,1,1.5c-0.3,0.5-0.3,1,0,1.5
				c0.7,0.5,2.1,0.9,1.4,1.4c-1.2,0.5,0.1,1,0.9,1.5c1.2,0.5,1.1,1,0.1,1.5c-0.2,0.5,0.8,1,0.3,1.6c-0.9,0.5,1.9,1,0.3,1.6
				c-0.2,0.5-0.8,1,0.7,1.5c0.7,0.5-0.7,1,0.2,1.5c1.4,0.5-0.2,0.9,0.8,1.4c0.4,0.5,1.5,0.9,0.8,1.4c-1.6,0.5,2.8,0.9,1,1.4
				c-0.9,0.5-0.9,0.9,1,1.4s-0.1,0.9,1,1.4c2.1,0.5,1.8,0.9,0.9,1.3c0.2,1.1,1.6,2.2,1.8,3.3c0.1,1.1,0.9,2.2,1,3.3
				c0.4,1.1,1.6,2.2-0.2,3.3c0.2,1.1-1.4,2.2-1.7,3.2c-0.6,1-2.4,1.6-2.6,2.3c-0.2,0.6-0.7,1.3-2,2.1c-2.4,0.8-0.7,1.9,0.7,3.5
				c-1.9,0.5-2.4,1.3-3.5,2.4c0.7,1-1.4,2.3-1.7,3.5c-0.8,1.3-0.6,2.6-1.2,3.8c-0.3,1.4-1,2.2-1.2,3c-1.8,0.8,0.8,1.7-0.5,3.4
				c0.6,1.1-0.8,2.2-0.3,3.4c-0.3,1.1,0.8,2.3-0.6,3.4c-1.5,1.1,0.6,2.2-0.9,3.2c-0.1,1,0,2-1.5,2.9c0.6,0.9-0.8,1.8-1.4,2.8
				c0.9,1-1.3,2.1,0.2,3.3c-1.1,0-1.2,0.5-1.7,1.4s-0.8,2.2-1.9,3.7c-0.5,1.5-0.3,3.1-1.7,4.7c-0.4,1.6-0.8,3.1-1.1,4.4
				c-1,1.3,0.6,2.3-0.2,2.9c-0.3,1.3-0.7,2.3,0.9,3.4c1.7,1,0.9,2,0.7,3.1c0,1.1-0.6,2.2,0.5,3.6c1.3,1,0.4,1.6,0,2.2
				c-1.8,0.5,3,1.1,0.4,2c1.5,0.9-0.5,1.3,1.3,1.8c-0.7,0.4,1,0.9,0.9,2c1.4-0.1,1.2,0,1.7,0.1c1.8,0.1,1,0.2,1.7,0.1
				c-1,0.1-0.3,0.8-1.1,1.7c-0.7,1,0.8,2.3,0.1,3.8c0.4,0.8,0,1.6,0.7,2.4c0.4,0.9-0.7,1.8,0.2,2.7c-0.4,0.9,0.5,1.9,0.1,2.8
				c1.2,0.9-0.2,1.9,1.3,2.8c1.4,0.9,1.7,1.9,0.9,2.7c0.8,0.9,0.9,1.7,0.6,2.6c0.5,0.8,0.6,1.6,0.7,2.3c0.6,0.7-0.7,1.3,0.6,1.9
				c-0.1,1.1,1.2,1.9,0.6,2.3c-0.2,1.2,1.4,2.5,0.8,3.8c-0.1,1.3,1.5,2.6,0.9,3.9c0.1,1.3,1.5,2.7,0.9,4c0.7,1.4,1.2,2.7,0.7,4.1
				c-1.3-0.6,0.3,0.3-1.2,1.4c-0.9,1.1-0.9,2.3-1.1,2.5c-1,0.9-1,2,0.1,3c0.3,1.1,0.9,2.2,0.1,3.2c0,0.9-1.5,1.8-0.6,2.8
				c0.5,0.9-2.3,1.8-0.7,2.8c0.3,0.9,0.6,1.8-0.3,2.8c-0.7,1,0.4,2.1,0.8,3.2c-0.4,1.1,0.6,2.2,0.6,3.1c0.2,0.4,0.7,0.7-1,1
				c0.6,0.3-2.9,0.6-1,1c-1.7,1.7-1.1,3-0.3,4.2c2.5,1.2,2.5,2.3,0.8,3.5c0.6,1.2,0.4,2.5,0.3,4.1c-1.2,0.2,0.4,0-1.3,0.1
				c0.2,0-0.3,1.2,0.3,2.5c0.1,1.3-0.4,2.6,0.3,2.9c-0.9,1,0,1.8-1.6,2.6c-1.6,0.7-1.3,1.3-1.4,1.8c-1.5,0.8-2.2,1.8,0.1,2.9
				c-0.9,1.1,1.9,2.2,0.8,3.4c-0.6,1.2,0.5,3.4,0.5,3.4h0.5h1.4h2.2h3H96h4.4h41.7V0h-18H99h-4.6h-4.6H85.2L85.2,0z"/>
		</g>
	</g>
	<g>
		<g>
			<g>
				<defs>
					<path id="SVGID_1_" d="M94.2,0c0,0,0.9,2.6,0.2,3.9c0.1,1.3,0.3,2.7,0.2,4.1c-0.8,1.4-0.1,2.7,0.2,4.1c0.4,1.4,0.6,2.7,0.3,4.1
						c1.1,1.3-0.7,2.6,0.5,3.9c0.4,0.8,0.5,1.7,1,2.5s0.5,1.7,1.5,2.5c0.3,0.8,1.3,1.7,0.9,2.6c0.1,0.7,0.1,1.2,0,1.7
						s-0.3,0.9-0.7,1.2c0,0.4,0,0.7-1.1,1c-1,0.3-0.6,0.6-0.8,0.9c0.8,0.3,0.9,0.6-0.6,1c-0.3,0.4,0.2,0.8-1.1,1.3
						c1.1,0.5-0.2,1.1-0.1,1.7c-0.4,0.6,0.3,1.3,0,1.9c1,0.7-0.5,1.4,0.6,2.1c-1.4,0.7,2,1.4,0.9,2.2c0.6,1,0,1.9,1.5,2.8
						c0.8,0.9-2.4,1.8,1.5,2.6c0.6,0.8-0.1,1.5,1.2,2.1c1.1,0.9,1.6,1.7,1.7,2.5c1.4,0.8,0.8,1.6,2.1,2.4c1.7,0.8,0.8,1.6,2.2,2.4
						c-1.5,0.7-1.6,1.5-0.9,2.3s-0.2,1.5,1.4,2.2c-2,1.1,0.1,2.1-0.5,3.1c0.7,1,1,2,1.1,3c0.9,1.3,0.3,2.6-0.3,3.8
						c-0.4,1.3,0.5,2.5-1.2,3.8c1.7,1.3-0.6,2.5-1.7,3.7c1.2,1.2-2.5,2.5-1.7,3.7c0.7,1.2,0,2.5-1.3,3.7c1,1.1,0.8,2-0.7,2.8
						c-1.1,0.8,0.1,1.6-0.8,2.4c1.1,0.8-1,1.6-1.6,2.5c-2.6,0.8-1.9,1.4-2.5,2.1c-1,0.3-1.6,0.7-2,1s-0.8,0.7-0.8,1.1
						c-0.5,0.4-1,0.8-1.5,1.2c-1,0.4-1.3,0.9-0.3,1.4c-0.2,0.7,0.2,1.3-0.6,2c-0.4,0.7-0.1,1.4,0.4,2.1c0.2,0.7-1.6,1.4-0.6,2.1
						c0.2,0.7,2.2,1.4,1.8,2.1c-1.1,0.7-1.2,1.4,0.2,2.1c0.3,0.7,0.8,1.4,1.8,2.1c1.1,0.7,1.1,1.4,1.1,2c1,0.7,1.1,1.3,1,2
						c-0.3,0.6,1,1.3,0.9,1.9c0.5,0.6,0,1.2,0.7,1.8c0.7,0.9-0.1,1.6-0.6,2.4c0.5,0.7-0.2,1.5,1.1,2.6c-1.3,1-1.5,1.9-2.5,2.9
						c-0.9,1-0.1,2-0.2,3c-0.4,1,0.6,2.1,1.2,3.3c0.1,1.2,0.9,2.4,1.9,3.7c-0.1,0.4-0.8,1.5-1.1,2.6c1.1,1.2-2,2.5-0.9,3.3
						c-0.4,1.1-0.3,2.2-0.8,3.4c0,1.2-0.3,2.3-0.5,3.5c0.4,1.2-0.6,2.4-0.3,3.6c0.9,1.2,0.7,2.4,0,3.5c-0.3,0.6-0.2,1.2-0.1,1.8
						s-0.2,1.2,0.3,1.7c-0.6,0.6-0.4,1.3,0.5,1.9c1.1,0.6,1.4,1.3,0.5,1.9c1.3,0.6,0,1.3,0.5,1.9c1,0.6,1,1.3,0.8,1.9
						c0.7,0.6-0.2,1.3,0.1,1.9c-0.4,0.6,0.3,1.3,0.4,1.9c0.2,0.6,0.6,1.2-0.2,1.8c0.1,0.6,0.9,1.2-0.2,1.8c0.2,0.6,0.3,1.2-0.5,1.8
						c-1.1,0.6,0.2,1.2-0.1,1.8c0.2,0.6-0.1,1.2-0.5,1.8c-0.6,0.6,0.3,1.2,0,1.8c-0.4,0.6-1.4,1.1-0.2,1.5c0.4,0.4,0.8,0.7,0.2,1
						c-1.1,0.6-0.1,1.2-0.4,2.1c-0.8,0.6-0.7,1.1-1.3,1.7c1.5,0.5-0.7,1.1-1.3,1.9c1.1,0.8,0.6,1.5-0.4,2.2
						c-0.6,0.7-0.6,1.2-0.1,1.8c1.4,0.6,0.8,1.1,0.2,1.6c1.1,0.5,2.2,1,0.6,1.5c-0.2,0.5,0.7,1.1,0.7,1.6c-0.1,0.6,1.2,1.2,0.7,1.9
						c-0.8,0.5,0.5,1.1,0.3,1.6c0.2,0.5,0,1.1,0.6,1.7c0.3,0.6,1.5,1.1,0.2,1.7c0.5,0.6,0,1.1,0.1,1.7c0.3,1.1-0.3,2.3,0.1,3.4
						c-0.5,1.1-1.5,2.3-0.1,3.4c0.4,0.6,0.5,1.6-0.2,2.6c1.1,0.9-1.7,1.9,0.3,2.5c0.3,0.9-1.4,1.4,2.3,1.9c-0.2,0.5,1.3,1.1,2.1,2.1
						c-0.2,1.1,0.7,2.4,0.3,3.7c-0.5,1.3-1.1,2.6-0.6,4c-1.2,1.4-1.7,2.7-0.8,4c-0.5,1.3-0.1,2.6-0.3,3.8c-0.6,1.3-0.2,2.3,0.4,3.2
						c1.1,0.9,3.3,1.7,1.4,2.7c0.4,0.5,2.3,0.4,1.8,0.3c-1.1,0,2,0,2,0.7c0.7,0.4-0.9,1.8,0.2,3.1c-0.8,0.6-1.3,1.3-1.5,1.7
						c-0.2,0.5-0.1,0.8,0.2,0.8c0,0,1.2,0,0.7,0c0.2,0,1.4,0.1,2,0.2c-0.3,0.2,2.3,0.7,2.1,1.2c0.6,0.3,0.4,0.6,0.8,1
						c-0.3,0.4,0.4,0.8,0.8,1.2c1,0-0.4,0.9,0.1,2c-0.5,0.6,0.2,1.2,0.3,1.8c0,0.6,0.2,1.2,0.3,1.7c-0.2,1,0.9,1.7,1.2,1.4
						c0.6,0.2-1.5,0.5-1.7,0.7c-1.3,0.3-2,0.6-1.6,0.9c-0.5,0.6-1.9,0.1-2,0.7c-0.6,0.7,0.5,1.8-0.1,2.1c0,0.1,0,0.8-0.1,1.6
						c0.6,0.8-1,1.6-0.3,2c-0.3,1.1-1.7,2-2,2.8c-1.1,0.8-3,1.5-2.7,2.2c-0.1,0.7-2.4,1.4-2.8,2.1c0.5,0.8-2.4,1.6-2.2,2.6
						c-0.4,1.2-2.7,2.4-1.3,3.7c0.8,1.3-0.6,2.5-1.2,3.5c-0.8,1-1.3,1.8-3.2,2.3c0.1,1.4,0.3,2.5-0.4,3.7c-1.7,1.1-0.7,2.2-1,3.4
						c0.6,1.3-0.4,2.5-0.1,3.7c0.7,1.2,1.2,2.4-0.1,3.7c-1.2,1.4-0.2,2.1-1.3,2.9c-1.8,0.7-0.6,1.4-1.6,2.6
						c-0.4,0.8-1.4,1.8-0.6,2.8c0.3,1,0.1,2.1-0.4,3.1c0.2,1-1.5,2-0.4,2.9c1.5,1.1-0.6,2.3-0.7,3.5c0.2,1.2-0.1,2.5-0.7,3.7
						c1.2,1.3,0.8,2.5-0.4,3.8c-0.7,1.3,0.3,2.5,0.2,3.7c-0.6,0.6-0.5,1.2-0.2,1.8c0.1,0.6,0.2,1.1,1.1,1.7
						c-0.2,0.6,0.3,1.1,0.6,1.5c0.5,0.4,1.9,0.7,1.3,1.1c-0.6,0.3,0,0.6,1.1,1c1.4,0.4,0.2,0.8,1,1.3c-0.4-1.1-0.7-2.4-0.5-3.6
						c-0.6-1.3-0.4-2.6-0.1-3.8c0.1-1.2,0.4-2.4,1-3.3c0.2,1.1,0.4,2.2,0.6,3.2c0,1,1.3,2,0.3,3.1c-0.1,1,1.2,2.1-0.3,3.2
						c-0.2,1.4,1.8,2.5-0.7,3.4c-0.8,0.9-0.9,1.7,0,2.6c0.5,0.9,0.6,1.8,1.1,3.1c0.2,0.7,0.2,1.5,1.4,2.3c1.2,0.8,0.7,1.6,1.6,2.4
						c-0.2,0.8,1.9,1.5,1.2,2.1c-0.3,0.7,1.2,1.6,0.5,2.5s-0.7,1.9,0.4,2.8c1.4,0.9-0.3,1.7,1,2.3c-1.3,0.7-2.6,1.5-1.4,2.2
						c1,0.8,1.5,1.6,0.9,2.5c-1.4,0.9,0.5,1.8,0.9,2.7c-0.9,1.8-0.9,2.4-0.7,3c-2.8,0.5,0.3,1-1.3,2.5c1.1,0.5-1.2,1.4,0,2.4
						c-1,1,2.2,2,0.4,3c1,0.9,0.2,1.7,0.8,2.1c0.7,1.1,1.9,1,2.8,1.3c3,0.2-1.6,0.7,2.2,2.8c-2.5,0.4,1.3,1.5-0.2,2.6
						c-1.8,1.2-0.1,2.4-0.3,3c0.5,1.6,0.3,2.8-0.1,3.9c-1.1,1-0.5,1.9-0.6,2.7c-1.1,0.8-1,1.6-1.1,2.5c-1.3,0.9-1.5,1.9-1.7,3.2
						c0.5,0.8,0.4,1.6-0.8,2.4c-0.8,0.8-2.3,1.6-0.1,2.5c-1.4,0.8,0.5,1.7,0.3,2.6c-0.8,0.5-2.6,1.3-1.4,2.3c-0.6,0.9-0.6,2,0.3,2.8
						c0.6,0.8,1.1,1.4,2.1,1.5c0.2-0.8,0.2-1.2,0.8-1.6c0.2-0.4,0.7-0.7,1.2-1.3c0.2,1-0.5,2-0.5,3.1c-0.6,1-1.1,2.1-0.8,3.1
						c-1,1-0.7,2-1,3c0,1,0.1,2-0.9,2.9c-0.3,1-0.9,1.9-1,2.9c0.7,0.9-1.2,1.9-0.6,3c-1,1.1-0.2,2.2,0.5,3.2
						c-0.7,1.1,0.3,2.2,0.6,3.3c0.4,1-1.2,2-0.4,3.1c-0.5,1.1-0.6,2.9-0.6,2.9h0.5h1.4h2.2h3H450V0H127.1h-23.7h-4.6H94.2z"/>
				</defs>
				<clipPath id="SVGID_2_">
					<use xlink:href="#SVGID_1_"  style="overflow:visible;"/>
				</clipPath>
				<g transform="matrix(1 0 0 1 7.629395e-06 0)" class="st1">
					
						<image style="overflow:visible;enable-background:new    ;" width="5040" height="3360" xlink:href="../Documents/TOBY/影片/照片/toby like/steven-van-elk-1OnbCf7AOdY-unsplash.jpg"  transform="matrix(0.1378 0 0 0.1378 -101.9161 -9.1567)">
					</image>
				</g>
			</g>
		</g>
	</g>
</g>
</svg>
