<?xml version="1.0" encoding="utf-8"?>
<!-- Generator: Adobe Illustrator 25.2.1, SVG Export Plug-In . SVG Version: 6.00 Build 0)  -->
<svg version="1.1" id="圖層_1" xmlns="http://www.w3.org/2000/svg" xmlns:xlink="http://www.w3.org/1999/xlink" x="0px" y="0px"
	 viewBox="0 0 800 800" style="enable-background:new 0 0 800 800;" xml:space="preserve">
<style type="text/css">
	.st0{clip-path:url(#SVGID_2_);}
	.st1{fill:url(#SVGID_3_);}
	.st2{fill:#CCDF8E;}
	.st3{fill:#8FA231;}
	.st4{fill:#FFFFFF;}
</style>
<g>
	<defs>
		<circle id="SVGID_1_" cx="400" cy="400" r="265"/>
	</defs>
	<clipPath id="SVGID_2_">
		<use xlink:href="#SVGID_1_"  style="overflow:visible;"/>
	</clipPath>
	<g class="st0">
		<linearGradient id="SVGID_3_" gradientUnits="userSpaceOnUse" x1="400" y1="58.5256" x2="400" y2="449.6423">
			<stop  offset="0" style="stop-color:#CBE7FA"/>
			<stop  offset="1" style="stop-color:#ECF8FE"/>
		</linearGradient>
		<rect x="113.1" y="103.4" class="st1" width="573.8" height="470.1"/>
		<g>
			<path class="st2" d="M118.4,530.7c37.9-21.4,84.8-18.3,127.3-9c42.5,9.3,84.5,24.1,128,24.3c22.1,0.1,44.2-3.6,66.2-2.3
				c33,2,64.7,15.6,91,35.6c26.3,20,47.4,46.3,64.1,74.8v32.4H118.4L118.4,530.7z"/>
		</g>
		<g>
			<path class="st3" d="M121.9,631.7c11.1-14.7,27.7-24,44.5-31.6c50.6-22.9,106.6-33.7,162.1-31.2c26.6,1.2,53.1,5.4,79.7,4.6
				c47-1.4,91.9-18.2,137-31.3c45.1-13.1,93.6-22.7,138.7-9.5v144.1h-562V631.7z"/>
		</g>
		<g>
			<path class="st4" d="M352.1,241.2c-1-20.4,16.2-39,36.2-43c20-4,41.2,4.8,55.4,19.5c14.2,14.7,22.1,34.5,26,54.5
				c10.2-10.8,28-13.4,40.9-6c12.9,7.5,19.4,24.2,15.1,38.4c-0.7,2.3-1.7,4.7-3.6,6.2c-2.7,2.3-6.6,2.5-10.2,2.6
				c-56.7,1.4-113.4,2.9-170,4.3c-21.1,0.5-44.9,0-59.3-15.5c-15.3-16.6-11.4-45.8,6.1-60.1c17.4-14.3,44.3-13.9,63.3-1.7"/>
		</g>
	</g>
</g>
</svg>
