<svg width="14" height="14" viewBox="0 0 14 14" fill="none" xmlns="http://www.w3.org/2000/svg">
<path d="M5.5421 6.12633H7.00015C7.15483 6.12633 7.30317 6.06488 7.41254 5.95551C7.52192 5.84614 7.58336 5.69779 7.58336 5.54311C7.58336 5.38843 7.52192 5.24009 7.41254 5.13072C7.30317 5.02134 7.15483 4.9599 7.00015 4.9599H6.41693V4.66829C6.41693 4.51361 6.35548 4.36526 6.24611 4.25589C6.13673 4.14652 5.98839 4.08507 5.83371 4.08507C5.67903 4.08507 5.53069 4.14652 5.42132 4.25589C5.31194 4.36526 5.25049 4.51361 5.25049 4.66829V4.98906C4.89615 5.06101 4.58117 5.26206 4.36672 5.55318C4.15227 5.8443 4.05364 6.20472 4.08998 6.56447C4.12632 6.92422 4.29503 7.25764 4.56337 7.49999C4.83171 7.74234 5.18052 7.87635 5.5421 7.87598H6.12532C6.20266 7.87598 6.27683 7.9067 6.33152 7.96139C6.38621 8.01608 6.41693 8.09025 6.41693 8.16759C6.41693 8.24493 6.38621 8.3191 6.33152 8.37379C6.27683 8.42848 6.20266 8.4592 6.12532 8.4592H4.66728C4.5126 8.4592 4.36425 8.52065 4.25488 8.63002C4.14551 8.73939 4.08406 8.88774 4.08406 9.04242C4.08406 9.1971 4.14551 9.34544 4.25488 9.45481C4.36425 9.56419 4.5126 9.62563 4.66728 9.62563H5.25049V9.91724C5.25049 10.0719 5.31194 10.2203 5.42132 10.3296C5.53069 10.439 5.67903 10.5005 5.83371 10.5005C5.98839 10.5005 6.13673 10.439 6.24611 10.3296C6.35548 10.2203 6.41693 10.0719 6.41693 9.91724V9.59647C6.77128 9.52452 7.08625 9.32347 7.3007 9.03235C7.51516 8.74123 7.61379 8.38081 7.57745 8.02106C7.54111 7.66131 7.37239 7.32789 7.10406 7.08554C6.83572 6.84319 6.4869 6.70918 6.12532 6.70955H5.5421C5.46476 6.70955 5.39059 6.67882 5.3359 6.62414C5.28122 6.56945 5.25049 6.49528 5.25049 6.41794C5.25049 6.3406 5.28122 6.26643 5.3359 6.21174C5.39059 6.15705 5.46476 6.12633 5.5421 6.12633ZM12.2491 7.00116H10.4995V1.7522C10.4999 1.64943 10.4731 1.54838 10.4219 1.45928C10.3707 1.37017 10.2968 1.29618 10.2078 1.2448C10.1192 1.19361 10.0186 1.16666 9.91623 1.16666C9.81386 1.16666 9.71328 1.19361 9.62462 1.2448L7.87497 2.24793L6.12532 1.2448C6.03666 1.19361 5.93609 1.16666 5.83371 1.16666C5.73134 1.16666 5.63076 1.19361 5.5421 1.2448L3.79245 2.24793L2.0428 1.2448C1.95414 1.19361 1.85357 1.16666 1.75119 1.16666C1.64881 1.16666 1.54824 1.19361 1.45958 1.2448C1.37058 1.29618 1.29674 1.37017 1.24553 1.45928C1.19432 1.54838 1.16757 1.64943 1.16797 1.7522V11.0837C1.16797 11.5477 1.35231 11.9927 1.68043 12.3209C2.00856 12.649 2.45359 12.8333 2.91763 12.8333H11.0827C11.5467 12.8333 11.9917 12.649 12.3199 12.3209C12.648 11.9927 12.8323 11.5477 12.8323 11.0837V7.58437C12.8323 7.42969 12.7709 7.28135 12.6615 7.17198C12.5521 7.0626 12.4038 7.00116 12.2491 7.00116ZM2.91763 11.6669C2.76295 11.6669 2.6146 11.6054 2.50523 11.4961C2.39585 11.3867 2.33441 11.2384 2.33441 11.0837V2.76117L3.50084 3.42603C3.59086 3.47305 3.6909 3.4976 3.79245 3.4976C3.894 3.4976 3.99405 3.47305 4.08406 3.42603L5.83371 2.4229L7.58336 3.42603C7.67338 3.47305 7.77342 3.4976 7.87497 3.4976C7.97652 3.4976 8.07657 3.47305 8.16658 3.42603L9.33302 2.76117V11.0837C9.33459 11.2826 9.3701 11.4799 9.43799 11.6669H2.91763ZM11.6659 11.0837C11.6659 11.2384 11.6044 11.3867 11.4951 11.4961C11.3857 11.6054 11.2373 11.6669 11.0827 11.6669C10.928 11.6669 10.7796 11.6054 10.6703 11.4961C10.5609 11.3867 10.4995 11.2384 10.4995 11.0837V8.16759H11.6659V11.0837Z" fill="#474A57"/>
</svg>
