<svg width="20" height="21" viewBox="0 0 20 21" fill="none" xmlns="http://www.w3.org/2000/svg">
<path d="M10.0013 2.16663C5.39893 2.16663 1.66797 5.89759 1.66797 10.5C1.66797 15.1023 5.39893 18.8333 10.0013 18.8333C14.6037 18.8333 18.3346 15.1023 18.3346 10.5C18.3346 5.89759 14.6037 2.16663 10.0013 2.16663Z" fill="#4EABE6"/>
<path fill-rule="evenodd" clip-rule="evenodd" d="M13.0906 8.24408C13.416 8.56951 13.416 9.09715 13.0906 9.42259L9.75722 12.7559C9.43179 13.0814 8.90415 13.0814 8.57871 12.7559L6.91205 11.0893C6.58661 10.7638 6.58661 10.2362 6.91205 9.91074C7.23748 9.58531 7.76512 9.58531 8.09056 9.91074L9.16797 10.9882L11.912 8.24408C12.2375 7.91864 12.7651 7.91864 13.0906 8.24408Z" fill="white"/>
</svg>
