<svg width="24" height="24" viewBox="0 0 24 24" fill="currentColor" xmlns="http://www.w3.org/2000/svg">
<path d="M1.84471 15.8515C1.57036 15.8515 1.36099 15.7757 1.21659 15.624C1.0722 15.4724 1 15.2594 1 14.9851V8.97466C1 8.4043 1.28518 8.11913 1.85554 8.11913H4.48713C5.33906 8.11913 5.99606 8.33572 6.45812 8.7689C6.92018 9.19487 7.15121 9.79049 7.15121 10.5558C7.15121 11.3211 6.92018 11.9203 6.45812 12.3535C5.99606 12.7867 5.33906 13.0033 4.48713 13.0033H2.67859V14.9851C2.67859 15.2594 2.60639 15.4724 2.462 15.624C2.32482 15.7757 2.11906 15.8515 1.84471 15.8515ZM2.67859 11.7037H4.20556C5.09359 11.7037 5.5376 11.3211 5.5376 10.5558C5.5376 9.80493 5.09359 9.42951 4.20556 9.42951H2.67859V11.7037Z"/>
<path d="M9.03624 15.8515C8.76189 15.8515 8.55252 15.7757 8.40812 15.624C8.26373 15.4724 8.19153 15.2594 8.19153 14.9851V8.97466C8.19153 8.4043 8.47671 8.11913 9.04707 8.11913H11.6787C12.5306 8.11913 13.1876 8.32489 13.6497 8.73641C14.1117 9.14794 14.3427 9.72191 14.3427 10.4583C14.3427 11.0287 14.1947 11.5052 13.8987 11.8878C13.6099 12.2633 13.1948 12.5196 12.6533 12.6567C13.036 12.7722 13.35 13.0502 13.5955 13.4906L14.2669 14.736C14.4186 15.0104 14.4474 15.2667 14.3536 15.5049C14.2597 15.7359 14.0323 15.8515 13.6713 15.8515C13.4331 15.8515 13.2381 15.8009 13.0865 15.6998C12.9349 15.5988 12.8049 15.4435 12.6966 15.2342L11.657 13.3173C11.5487 13.1152 11.4151 12.978 11.2563 12.9058C11.0975 12.8336 10.9098 12.7975 10.6932 12.7975H9.87012V14.9851C9.87012 15.2594 9.79792 15.4724 9.65353 15.624C9.51635 15.7757 9.31059 15.8515 9.03624 15.8515ZM9.87012 11.5846H11.3754C12.2779 11.5846 12.7291 11.2236 12.7291 10.5016C12.7291 9.78688 12.2779 9.42951 11.3754 9.42951H9.87012V11.5846Z"/>
<path d="M19.2205 15.8731C18.4696 15.8731 17.809 15.7107 17.2387 15.3858C16.6755 15.0537 16.2351 14.5952 15.9174 14.0104C15.607 13.4184 15.4518 12.7253 15.4518 11.9311C15.4518 11.137 15.607 10.4475 15.9174 9.86269C16.2351 9.27067 16.6755 8.81222 17.2387 8.48733C17.8018 8.16244 18.4624 8 19.2205 8C19.9785 8 20.6391 8.16244 21.2023 8.48733C21.7726 8.81222 22.213 9.27067 22.5235 9.86269C22.8412 10.4475 23 11.1334 23 11.9203C23 12.7145 22.8412 13.4076 22.5235 13.9996C22.213 14.5916 21.7726 15.0537 21.2023 15.3858C20.6391 15.7107 19.9785 15.8731 19.2205 15.8731ZM19.2205 14.4436C19.8558 14.4436 20.3504 14.2234 20.7041 13.783C21.0651 13.3354 21.2456 12.7181 21.2456 11.9311C21.2456 11.137 21.0687 10.5233 20.715 10.0901C20.3612 9.64971 19.863 9.42951 19.2205 9.42951C18.5924 9.42951 18.0978 9.64971 17.7368 10.0901C17.383 10.5233 17.2062 11.137 17.2062 11.9311C17.2062 12.7181 17.383 13.3354 17.7368 13.783C18.0978 14.2234 18.5924 14.4436 19.2205 14.4436Z"/>
</svg>
