<svg xmlns="http://www.w3.org/2000/svg" width="32" height="32" fill="currentColor" viewBox="0 0 32 32">
  <path fill-rule="evenodd" d="M6.357 10.514c0-1.045.866-1.871 1.907-1.871h15.472c1.041 0 1.907.826 1.907 1.871v10.972c0 1.045-.866 1.871-1.907 1.871H8.264c-1.041 0-1.907-.826-1.907-1.871V10.514Zm1 9.125v1.847c0 .47.394.871.907.871h15.472c.513 0 .907-.402.907-.871v-1.847l-2.577-2.512a1.648 1.648 0 0 0-2.286 0l-.954.93 1.04 1.014a.5.5 0 1 1-.699.715l-1.405-1.37-.002-.002-3.43-3.344a1.648 1.648 0 0 0-2.286 0l-4.687 4.57Zm10.753-2.28-3.082-3.005a2.648 2.648 0 0 0-3.682 0l-3.989 3.889v-7.729c0-.47.394-.871.907-.871h15.472c.513 0 .907.402.907.871v7.729l-1.879-1.832a2.648 2.648 0 0 0-3.682 0l-.972.948Zm-.852-4.788c0-.477.394-.842.852-.842.458 0 .852.365.852.842a.847.847 0 0 1-.852.843.847.847 0 0 1-.852-.843Z" clip-rule="evenodd"/>
</svg>
