<svg xmlns="http://www.w3.org/2000/svg" width="24" height="27" fill="currentColor" viewBox="0 0 24 27">
  <path fill-rule="evenodd" d="M24 10.637c0-.755-.32-1.475-.88-1.98l-8.426-7.6c-1.562-1.41-4.094-1.41-5.656 0L.88 8.415a2.667 2.667 0 0 0-.88 1.98V24a2.667 2.667 0 0 0 2.667 2.667h4A2.667 2.667 0 0 0 9.333 24v-4.55c0-1.328 1.194-2.405 2.667-2.405 1.473 0 2.667 1.077 2.667 2.405V24a2.667 2.667 0 0 0 2.666 2.667h4A2.667 2.667 0 0 0 24 24V10.637Zm-13.077-7.88-8.256 7.449V24.26h4v-4.81c0-2.658 2.387-4.812 5.333-4.812 2.945 0 5.333 2.154 5.333 4.811v4.811h4V10.447l-8.524-7.69a1.438 1.438 0 0 0-1.886 0Z" clip-rule="evenodd"/>
</svg>
