<svg xmlns="http://www.w3.org/2000/svg" width="34" height="26" fill="currentColor" viewBox="0 0 34 26">
  <path fill-rule="evenodd" d="M.5 3.4C.5 1.787 1.838.5 3.462.5h27.076C32.163.5 33.5 1.787 33.5 3.4v19.2c0 1.613-1.338 2.9-2.962 2.9H3.462C1.838 25.5.5 24.213.5 22.6V3.4Zm1 15.81v3.39c0 1.037.866 1.9 1.962 1.9h27.076c1.096 0 1.962-.863 1.962-1.9v-3.39l-4.623-4.506a3.26 3.26 0 0 0-4.523 0L21.409 16.6l2.094 2.042a.5.5 0 0 1-.698.716l-2.46-2.399-.003-.002-6.003-5.853a3.26 3.26 0 0 0-4.524 0L1.5 19.21Zm19.192-3.308-5.655-5.514a4.258 4.258 0 0 0-5.92 0L1.5 17.814V3.4c0-1.037.866-1.9 1.962-1.9h27.076c1.096 0 1.962.863 1.962 1.9v14.414l-3.925-3.826a4.26 4.26 0 0 0-5.92 0l-1.963 1.914ZM19.577 7c0-.62.511-1.1 1.115-1.1s1.116.48 1.116 1.1c0 .62-.512 1.1-1.116 1.1-.604 0-1.115-.48-1.115-1.1Z" clip-rule="evenodd"/>
</svg>
