<svg width="134" height="134" viewBox="0 0 134 134" fill="none" xmlns="http://www.w3.org/2000/svg">
<path fill-rule="evenodd" clip-rule="evenodd" d="M66.5347 10.2263C79.7293 10.0937 91.467 -3.32054 104.049 0.778656C117.614 5.19805 129.101 17.6568 132.814 31.8193C136.476 45.7899 131.229 61.2409 122.965 72.9374C115.875 82.973 100.248 81.0398 91.792 89.8797C80.282 101.913 81.7674 125.695 66.5347 131.933C51.4689 138.103 33.3845 129.484 20.7939 118.955C8.51408 108.685 0.80195 92.5988 0.0280813 76.3138C-0.663322 61.7641 11.5929 50.8949 16.9185 37.4028C21.6862 25.324 18.3796 7.64472 29.5477 1.52755C40.996 -4.74303 53.5726 10.3566 66.5347 10.2263Z" fill="url(#paint0_linear_8576_5336)"/>
<defs>
<linearGradient id="paint0_linear_8576_5336" x1="0" y1="67" x2="134" y2="67" gradientUnits="userSpaceOnUse">
<stop stop-color="#FCCB90"/>
<stop offset="1" stop-color="#D57EEB"/>
</linearGradient>
</defs>
</svg>
