<svg width="24" height="24" viewBox="0 0 24 24" fill="none" xmlns="http://www.w3.org/2000/svg">
<path d="M5.90951 6H10.8922C11.5877 6 12.0203 6.56695 11.8581 7.26484L9.53826 17.2246C9.37458 17.9201 8.6781 18.4875 7.98216 18.4875H2.9999C2.30537 18.4875 1.87177 17.9201 2.03404 17.2246L4.35482 7.26484C4.51709 6.56695 5.2131 6 5.90951 6Z" fill="#E21836"/>
<path d="M10.4776 6H16.2076C16.903 6 16.5895 6.56695 16.4259 7.26484L14.1064 17.2246C13.9437 17.9201 13.9944 18.4875 13.2975 18.4875H7.56762C6.87074 18.4875 6.43949 17.9201 6.60316 17.2246L8.92246 7.26484C9.08715 6.56695 9.78176 6 10.4776 6Z" fill="#00447C"/>
<path d="M15.9803 6H20.963C21.6596 6 22.0921 6.56695 21.9286 7.26484L19.6091 17.2246C19.4454 17.9201 18.7485 18.4875 18.0521 18.4875H13.0718C12.3749 18.4875 11.9426 17.9201 12.1059 17.2246L14.4257 7.26484C14.5879 6.56695 15.2835 6 15.9803 6Z" fill="#007B84"/>
<path d="M7.21073 9.19188C6.69839 9.19711 6.54706 9.19188 6.4987 9.18047C6.48011 9.26875 6.13433 10.8638 6.13339 10.8651C6.05894 11.1877 6.0048 11.4178 5.82073 11.5663C5.71636 11.6527 5.5944 11.6944 5.453 11.6944C5.22581 11.6944 5.09339 11.5815 5.0712 11.3675L5.0669 11.2941C5.0669 11.2941 5.13612 10.8618 5.13612 10.8594C5.13612 10.8594 5.49901 9.40586 5.56401 9.21375C5.56745 9.20282 5.56839 9.19711 5.56925 9.19188C4.86292 9.19813 4.73769 9.19188 4.72909 9.18047C4.72433 9.1961 4.70683 9.28625 4.70683 9.28625L4.33628 10.9245L4.30448 11.0634L4.24292 11.5179C4.24292 11.6527 4.2694 11.7627 4.32206 11.8558C4.49089 12.1508 4.97245 12.195 5.24487 12.195C5.59581 12.195 5.92511 12.1204 6.14761 11.9842C6.53378 11.7561 6.63487 11.3994 6.72495 11.0823L6.76675 10.9198C6.76675 10.9198 7.14058 9.41016 7.20409 9.21375C7.20644 9.20282 7.20745 9.19711 7.21073 9.19188ZM8.48261 10.4097C8.39253 10.4097 8.22792 10.4316 8.07995 10.5041C8.02628 10.5316 7.9755 10.5634 7.92191 10.5952L7.97026 10.4206L7.94378 10.3913C7.63011 10.4548 7.55987 10.4633 7.27011 10.5041L7.24589 10.5202C7.21222 10.7991 7.1823 11.0089 7.05761 11.5573C7.00983 11.7601 6.96108 11.9627 6.91136 12.1651L6.92464 12.1906C7.22167 12.175 7.31175 12.175 7.56987 12.1792L7.59073 12.1566C7.62355 11.9886 7.62776 11.9492 7.70042 11.609C7.73456 11.4477 7.80573 11.0934 7.84081 10.9672C7.90526 10.9373 7.96894 10.9079 8.02964 10.9079C8.17433 10.9079 8.15667 11.0341 8.15112 11.0844C8.14487 11.1688 8.09222 11.4445 8.03816 11.6812L8.00206 11.8339C7.97698 11.9468 7.94941 12.0564 7.92425 12.1683L7.93519 12.1906C8.22784 12.175 8.31714 12.175 8.56706 12.1792L8.59644 12.1566C8.64167 11.8942 8.65487 11.824 8.73503 11.442L8.77534 11.2666C8.8537 10.9231 8.89308 10.7489 8.83378 10.607C8.77112 10.4481 8.62073 10.4097 8.48269 10.4097H8.48261ZM9.90355 10.7693C9.74792 10.7992 9.6487 10.8191 9.55011 10.832C9.45237 10.8476 9.35698 10.8619 9.20667 10.8827L9.19472 10.8935L9.18378 10.9021C9.16816 11.0141 9.15722 11.1109 9.13644 11.2248C9.11886 11.3424 9.09175 11.4762 9.04769 11.6683C9.01355 11.8153 8.99597 11.8666 8.97651 11.9183C8.95753 11.9701 8.93667 12.0204 8.89831 12.165L8.9073 12.1784L8.9148 12.1906C9.05534 12.184 9.1473 12.1792 9.24175 12.1784C9.33612 12.175 9.43394 12.1784 9.58519 12.1791L9.59847 12.1684L9.61269 12.1565C9.63456 12.026 9.63776 11.9909 9.65112 11.9273C9.66441 11.8591 9.68722 11.7646 9.74323 11.5122C9.76972 11.3937 9.79917 11.2755 9.82667 11.1545C9.85519 11.0341 9.88503 10.9155 9.91347 10.7969L9.90925 10.7826L9.90355 10.7693ZM9.90683 10.2845C9.76542 10.201 9.51737 10.2275 9.35034 10.3427C9.18386 10.4557 9.16487 10.616 9.30581 10.7006C9.44472 10.7816 9.69378 10.7575 9.85933 10.6413C10.0255 10.5259 10.0463 10.367 9.90683 10.2845ZM10.7617 12.2168C11.0478 12.2168 11.341 12.1379 11.5617 11.9041C11.7314 11.7144 11.8093 11.4321 11.8363 11.3159C11.924 10.9306 11.8557 10.7508 11.7699 10.6413C11.6394 10.4742 11.4089 10.4206 11.1697 10.4206C11.026 10.4206 10.6835 10.4348 10.4159 10.6816C10.2237 10.8595 10.135 11.1009 10.0814 11.3323C10.0274 11.5683 9.96519 11.9928 10.3557 12.1509C10.4761 12.2026 10.6498 12.2168 10.7617 12.2168ZM10.7394 11.35C10.8053 11.0583 10.8832 10.8134 11.0819 10.8134C11.2376 10.8134 11.2489 10.9956 11.1797 11.2883C11.1673 11.3533 11.1105 11.5948 11.0336 11.6977C10.9799 11.7736 10.9164 11.8196 10.8461 11.8196C10.8253 11.8196 10.701 11.8196 10.6991 11.6352C10.6982 11.5441 10.7167 11.451 10.7394 11.35ZM12.5512 12.1793L12.5735 12.1566C12.6053 11.9886 12.6105 11.9491 12.6807 11.6091C12.7158 11.4477 12.7885 11.0934 12.8225 10.9672C12.8871 10.9372 12.9497 10.9078 13.0124 10.9078C13.156 10.9078 13.1385 11.034 13.1328 11.0843C13.1276 11.1688 13.0749 11.4444 13.0199 11.6811L12.9857 11.8338C12.9596 11.9468 12.9312 12.0563 12.906 12.1684L12.917 12.1907C13.2107 12.1751 13.2965 12.1751 13.5479 12.1793L13.5783 12.1566C13.6224 11.8941 13.6343 11.8239 13.7169 11.442L13.7562 11.2665C13.835 10.923 13.8748 10.749 13.8164 10.6071C13.752 10.4481 13.6007 10.4098 13.4645 10.4098C13.3743 10.4098 13.2088 10.4315 13.0617 10.5041C13.0091 10.5316 12.9564 10.5634 12.9046 10.5952L12.9497 10.4207L12.9255 10.3912C12.6119 10.4548 12.5403 10.4633 12.2509 10.5041L12.2286 10.5202C12.1935 10.7992 12.165 11.0088 12.0403 11.5573C11.9925 11.7601 11.9438 11.9627 11.8942 12.1651L11.9075 12.1907C12.2049 12.1751 12.2936 12.1751 12.5512 12.1793ZM14.7089 12.1906C14.7273 12.1005 14.837 11.5664 14.8379 11.5664C14.8379 11.5664 14.9313 11.1745 14.9371 11.1602C14.9371 11.1602 14.9664 11.1195 14.9958 11.1033H15.039C15.447 11.1033 15.9077 11.1033 16.2687 10.8377C16.5144 10.6555 16.6824 10.3865 16.7573 10.0595C16.7767 9.97938 16.791 9.88407 16.791 9.78875C16.791 9.66352 16.766 9.53961 16.6933 9.44282C16.5092 9.18524 16.1425 9.18047 15.7193 9.17852L15.5107 9.18047C14.9689 9.18719 14.7516 9.18524 14.6623 9.1743C14.6548 9.21375 14.6406 9.28399 14.6406 9.28399C14.6406 9.28399 14.4465 10.1834 14.4465 10.1848L13.9602 12.1873C14.4332 12.1816 14.6272 12.1816 14.7089 12.1906ZM15.0685 10.5928C15.0685 10.5928 15.2747 9.69516 15.2738 9.6986L15.2805 9.6525L15.2834 9.6175L15.3659 9.62594C15.3659 9.62594 15.7914 9.6625 15.8014 9.66344C15.9693 9.72844 16.0385 9.89594 15.9903 10.1145C15.9461 10.3144 15.8166 10.4823 15.65 10.5634C15.5129 10.6322 15.345 10.6379 15.1719 10.6379H15.06L15.0685 10.5928ZM16.3532 11.3666C16.2986 11.5991 16.236 12.0237 16.6245 12.175C16.7484 12.2277 16.8594 12.2434 16.9721 12.2377C17.0914 12.2313 17.2018 12.1715 17.304 12.0855L17.2763 12.1916L17.2939 12.2143C17.5734 12.2026 17.6601 12.2026 17.9628 12.2049L17.9903 12.184C18.0345 11.9241 18.0762 11.6717 18.1911 11.1745C18.2471 10.9363 18.3029 10.7005 18.3603 10.4633L18.3514 10.4372C18.0388 10.4951 17.9553 10.5075 17.6545 10.5501L17.6317 10.5687C17.6286 10.5929 17.6254 10.6161 17.6225 10.6393C17.5758 10.5638 17.508 10.4992 17.4035 10.4591C17.2697 10.4064 16.9557 10.4742 16.6857 10.72C16.496 10.8956 16.4049 11.136 16.3532 11.3666ZM17.0097 11.3809C17.0767 11.0943 17.1535 10.852 17.3527 10.852C17.4786 10.852 17.545 10.9681 17.5314 11.1663C17.5199 11.2199 17.5079 11.2734 17.4955 11.3268C17.4756 11.412 17.454 11.4963 17.433 11.5809C17.4116 11.6387 17.3867 11.6932 17.3594 11.7295C17.3082 11.8022 17.1862 11.8472 17.116 11.8472C17.096 11.8472 16.9732 11.8472 16.9689 11.6659C16.9679 11.5758 16.9865 11.4828 17.0097 11.3808V11.3809ZM20.4383 10.4348L20.4141 10.4073C20.1048 10.4699 20.0488 10.4799 19.7646 10.5183L19.7437 10.5391C19.7428 10.5426 19.7419 10.5477 19.7404 10.5525L19.7395 10.5478C19.5279 11.0359 19.5341 10.9306 19.3619 11.3148C19.3609 11.2973 19.3609 11.2865 19.36 11.2679L19.3168 10.4348L19.2898 10.4073C18.9657 10.4699 18.9581 10.4799 18.6589 10.5183L18.6355 10.5391C18.6322 10.5491 18.6322 10.5601 18.6303 10.572L18.6322 10.5763C18.6696 10.7673 18.6607 10.7247 18.6982 11.0264C18.7157 11.1745 18.739 11.3234 18.7564 11.4696C18.786 11.7143 18.8025 11.8348 18.8385 12.2083C18.6365 12.5417 18.5886 12.668 18.394 12.9606L18.3954 12.9635L18.2584 13.1802C18.2428 13.2031 18.2285 13.2187 18.2086 13.2254C18.1867 13.2362 18.1583 13.2381 18.1189 13.2381H18.0429L17.9301 13.6134L18.3172 13.6201C18.5444 13.6191 18.6872 13.5129 18.7641 13.3701L19.0075 12.953H19.0036L19.0293 12.9236C19.193 12.5712 20.4383 10.4348 20.4383 10.4348ZM16.3532 15.3636H16.1889L16.7968 13.3534H16.9983L17.0624 13.1464L17.0685 13.3766C17.061 13.519 17.1729 13.6452 17.4671 13.6243H17.8073L17.9243 13.2373H17.7964C17.7228 13.2373 17.6885 13.2187 17.6928 13.1788L17.6867 12.9445H17.0568V12.9458C16.8531 12.95 16.2448 12.9653 16.1217 12.9981C15.9727 13.0364 15.8157 13.1495 15.8157 13.1495L15.8774 12.9421H15.2881L15.1653 13.3534L14.5494 15.3943H14.4299L14.3127 15.7786H15.4864L15.4471 15.9067H16.0253L16.0638 15.7786H16.226L16.3532 15.3636ZM15.8716 13.7619C15.7772 13.788 15.6017 13.8672 15.6017 13.8672L15.7578 13.3534H16.226L16.1131 13.7277C16.1131 13.7277 15.9684 13.7363 15.8717 13.7619H15.8716ZM15.8806 14.4958C15.8806 14.4958 15.7335 14.5143 15.6368 14.5361C15.5414 14.565 15.3626 14.6561 15.3626 14.6561L15.5239 14.1215H15.9945L15.8806 14.4958ZM15.6182 15.3683H15.1486L15.2848 14.9171H15.7529L15.6182 15.3683ZM16.7493 14.1215H17.4262L17.3289 14.4366H16.643L16.54 14.7809H17.1403L16.6857 15.4209C16.6539 15.4679 16.6254 15.4845 16.5937 15.4977C16.5619 15.5139 16.5201 15.5329 16.4718 15.5329H16.3053L16.1909 15.9101H16.6264C16.8528 15.9101 16.9865 15.8071 17.0852 15.672L17.3969 15.2454L17.4638 15.6785C17.478 15.7596 17.5363 15.8071 17.5757 15.8256C17.6193 15.8474 17.6644 15.8849 17.7281 15.8906C17.7963 15.8934 17.8456 15.8958 17.8784 15.8958H18.0925L18.2209 15.4736H18.1365C18.0881 15.4736 18.0046 15.4655 17.9904 15.4503C17.9761 15.4318 17.9761 15.4034 17.9685 15.3602L17.9006 14.9261H17.6226L17.7446 14.7809H18.4292L18.5345 14.4366H17.9007L17.9993 14.1215H18.6313L18.7485 13.733H16.8646L16.7493 14.1215ZM11.0317 15.456L11.1896 14.9304H11.8391L11.9577 14.5395H11.3077L11.4069 14.2159H12.0421L12.1598 13.8373H10.5705L10.4553 14.2159H10.8164L10.72 14.5394H10.358L10.238 14.937H10.5989L10.3883 15.6325C10.36 15.7245 10.4017 15.7596 10.4282 15.8024C10.4553 15.8441 10.4827 15.8716 10.5444 15.8873C10.6081 15.9015 10.6517 15.91 10.7109 15.91H11.443L11.5735 15.4769L11.2489 15.5215C11.1863 15.5215 11.0127 15.514 11.0317 15.456ZM11.1061 12.9398L10.9416 13.2372C10.9064 13.3021 10.8746 13.3425 10.8461 13.361C10.821 13.3766 10.7711 13.3833 10.699 13.3833H10.6132L10.4984 13.7638H10.7835C10.9207 13.7638 11.026 13.7135 11.0763 13.6884C11.1303 13.6595 11.1446 13.6759 11.1863 13.6356L11.2826 13.5522H12.1731L12.2913 13.1561H11.6394L11.7532 12.9397H11.1061V12.9398ZM12.4207 15.4637C12.4056 15.4418 12.4165 15.4033 12.4397 15.3231L12.6831 14.5176H13.5489C13.6751 14.5158 13.7661 14.5143 13.8255 14.5101C13.8891 14.5034 13.9583 14.4806 14.0337 14.4398C14.1116 14.3971 14.1514 14.352 14.185 14.3003C14.2225 14.2488 14.2828 14.1357 14.3346 13.9616L14.6405 12.9421L13.7421 12.9473C13.7421 12.9473 13.4653 12.9881 13.3435 13.0333C13.2207 13.0835 13.045 13.2239 13.045 13.2239L13.1261 12.9445H12.5711L11.7941 15.5215C11.7665 15.6215 11.748 15.6941 11.7438 15.7378C11.7424 15.7848 11.8031 15.8313 11.8425 15.8664C11.8889 15.9015 11.9577 15.8958 12.0236 15.9015C12.093 15.9067 12.1916 15.91 12.3278 15.91H12.7543L12.8852 15.4679L12.5034 15.504C12.4625 15.504 12.4331 15.4821 12.4207 15.4637ZM12.8401 13.9735H13.7495L13.6917 14.1547C13.6836 14.1589 13.6642 14.1457 13.5716 14.1566H12.7841L12.8401 13.9735ZM13.0223 13.3657H13.9394L13.8734 13.584C13.8734 13.584 13.4412 13.5798 13.372 13.5925C13.0673 13.6452 12.8894 13.808 12.8894 13.808L13.0223 13.3658V13.3657ZM13.7121 14.7615C13.7046 14.7886 13.6926 14.8051 13.676 14.8175C13.6575 14.8294 13.6276 14.8336 13.5831 14.8336H13.4535L13.4612 14.613H12.9221L12.9003 15.6918C12.8995 15.7696 12.907 15.8147 12.9639 15.8508C13.021 15.8958 13.1964 15.9016 13.4327 15.9016H13.7704L13.8923 15.4977L13.5983 15.5138L13.5005 15.5195C13.4872 15.5138 13.4744 15.5086 13.4602 15.4945C13.4478 15.4822 13.4269 15.4897 13.4303 15.4119L13.4327 15.1353L13.741 15.1226C13.9075 15.1226 13.9787 15.0684 14.0394 15.0168C14.0973 14.9673 14.1163 14.9106 14.1382 14.8336L14.1899 14.5888H13.7661L13.7121 14.7614L13.7121 14.7615Z" fill="#FEFEFE"/>
</svg>
