<svg width="24" height="24" viewBox="0 0 24 24" fill="none" xmlns="http://www.w3.org/2000/svg">
<path d="M20.7097 6H3.29032C2.5777 6 2 6.5777 2 7.29032V17.0108C2 17.7234 2.5777 18.3011 3.29032 18.3011H20.7097C21.4223 18.3011 22 17.7234 22 17.0108V7.29032C22 6.5777 21.4223 6 20.7097 6Z" fill="#227FC0"/>
<path d="M20.7096 6H19.4193C19.7615 6 20.0897 6.13594 20.3317 6.37793C20.5737 6.61991 20.7096 6.94811 20.7096 7.29032V17.0108C20.7096 17.353 20.5737 17.6812 20.3317 17.9231C20.0897 18.1651 19.7615 18.3011 19.4193 18.3011H20.7096C21.0518 18.3011 21.38 18.1651 21.622 17.9231C21.864 17.6812 22 17.353 22 17.0108V7.29032C22 6.94811 21.864 6.61991 21.622 6.37793C21.38 6.13594 21.0518 6 20.7096 6Z" fill="#2370B5"/>
<path d="M19.5053 7.93547H14.7311C14.4936 7.93547 14.301 8.12804 14.301 8.36558V8.88171C14.301 9.11925 14.4936 9.31181 14.7311 9.31181H19.5053C19.7429 9.31181 19.9354 9.11925 19.9354 8.88171V8.36558C19.9354 8.12804 19.7429 7.93547 19.5053 7.93547Z" fill="white"/>
<path d="M19.5054 7.93547H18.2151C18.3292 7.93547 18.4386 7.98079 18.5192 8.06145C18.5999 8.14211 18.6452 8.25151 18.6452 8.36558V8.88171C18.6452 8.99578 18.5999 9.10518 18.5192 9.18584C18.4386 9.2665 18.3292 9.31181 18.2151 9.31181H19.5054C19.6195 9.31181 19.7289 9.2665 19.8095 9.18584C19.8902 9.10518 19.9355 8.99578 19.9355 8.88171V8.36558C19.9355 8.25151 19.8902 8.14211 19.8095 8.06145C19.7289 7.98079 19.6195 7.93547 19.5054 7.93547Z" fill="#E1E1E3"/>
<path d="M6.64522 7.93547H4.49468C4.25714 7.93547 4.06458 8.12804 4.06458 8.36558V9.69891C4.06458 9.93645 4.25714 10.129 4.49468 10.129H6.64522C6.88276 10.129 7.07533 9.93645 7.07533 9.69891V8.36558C7.07533 8.12804 6.88276 7.93547 6.64522 7.93547Z" fill="#F8BE32"/>
<path d="M6.64509 7.93547H5.72595C5.84002 7.93547 5.94942 7.98079 6.03008 8.06145C6.11074 8.14211 6.15606 8.25151 6.15606 8.36558V9.69891C6.15606 9.81298 6.11074 9.92238 6.03008 10.003C5.94942 10.0837 5.84002 10.129 5.72595 10.129H6.64509C6.75916 10.129 6.86856 10.0837 6.94922 10.003C7.02988 9.92238 7.0752 9.81298 7.0752 9.69891V8.36558C7.0752 8.25151 7.02988 8.14211 6.94922 8.06145C6.86856 7.98079 6.75916 7.93547 6.64509 7.93547Z" fill="#FED030"/>
<path d="M10.7991 15.3978H4.06489C3.97934 15.3978 3.89729 15.3639 3.83679 15.3034C3.7763 15.2429 3.74231 15.1608 3.74231 15.0753C3.74231 14.9897 3.7763 14.9077 3.83679 14.8472C3.89729 14.7867 3.97934 14.7527 4.06489 14.7527H10.7991C10.8846 14.7527 10.9667 14.7867 11.0272 14.8472C11.0877 14.9077 11.1217 14.9897 11.1217 15.0753C11.1217 15.1608 11.0877 15.2429 11.0272 15.3034C10.9667 15.3639 10.8846 15.3978 10.7991 15.3978ZM7.76339 16.6882H4.07951C3.99396 16.6882 3.91191 16.6542 3.85142 16.5937C3.79092 16.5332 3.75693 16.4511 3.75693 16.3656C3.75693 16.28 3.79092 16.198 3.85142 16.1375C3.91191 16.077 3.99396 16.043 4.07951 16.043H7.76339C7.84894 16.043 7.93099 16.077 7.99148 16.1375C8.05198 16.198 8.08597 16.28 8.08597 16.3656C8.08597 16.4511 8.05198 16.5332 7.99148 16.5937C7.93099 16.6542 7.84894 16.6882 7.76339 16.6882Z" fill="white"/>
<path d="M6.87536 13.1613H4.07966C3.99411 13.1613 3.91206 13.1273 3.85156 13.0668C3.79107 13.0063 3.75708 12.9243 3.75708 12.8387C3.75708 12.7532 3.79107 12.6711 3.85156 12.6106C3.91206 12.5501 3.99411 12.5161 4.07966 12.5161H6.87536C6.96091 12.5161 7.04296 12.5501 7.10346 12.6106C7.16395 12.6711 7.19794 12.7532 7.19794 12.8387C7.19794 12.9243 7.16395 13.0063 7.10346 13.0668C7.04296 13.1273 6.96091 13.1613 6.87536 13.1613ZM11.2285 13.1613H8.43278C8.34723 13.1613 8.26518 13.1273 8.20468 13.0668C8.14419 13.0063 8.1102 12.9243 8.1102 12.8387C8.1102 12.7532 8.14419 12.6711 8.20468 12.6106C8.26518 12.5501 8.34723 12.5161 8.43278 12.5161H11.2285C11.314 12.5161 11.3961 12.5501 11.4566 12.6106C11.5171 12.6711 11.5511 12.7532 11.5511 12.8387C11.5511 12.9243 11.5171 13.0063 11.4566 13.0668C11.3961 13.1273 11.314 13.1613 11.2285 13.1613ZM15.582 13.1613H12.7863C12.7008 13.1613 12.6187 13.1273 12.5582 13.0668C12.4977 13.0063 12.4637 12.9243 12.4637 12.8387C12.4637 12.7532 12.4977 12.6711 12.5582 12.6106C12.6187 12.5501 12.7008 12.5161 12.7863 12.5161H15.582C15.6676 12.5161 15.7496 12.5501 15.8101 12.6106C15.8706 12.6711 15.9046 12.7532 15.9046 12.8387C15.9046 12.9243 15.8706 13.0063 15.8101 13.0668C15.7496 13.1273 15.6676 13.1613 15.582 13.1613ZM19.9356 13.1613H17.1399C17.0543 13.1613 16.9723 13.1273 16.9118 13.0668C16.8513 13.0063 16.8173 12.9243 16.8173 12.8387C16.8173 12.7532 16.8513 12.6711 16.9118 12.6106C16.9723 12.5501 17.0543 12.5161 17.1399 12.5161H19.9356C20.0211 12.5161 20.1032 12.5501 20.1637 12.6106C20.2242 12.6711 20.2582 12.7532 20.2582 12.8387C20.2582 12.9243 20.2242 13.0063 20.1637 13.0668C20.1032 13.1273 20.0211 13.1613 19.9356 13.1613Z" fill="white"/>
</svg>
