<svg width="24" height="24" viewBox="0 0 24 24" fill="none" xmlns="http://www.w3.org/2000/svg">
<path fill-rule="evenodd" clip-rule="evenodd" d="M7.3145 14.4645H5.82099L4.70104 10.1919C4.64788 9.99533 4.53501 9.82157 4.36899 9.73968C3.95465 9.53388 3.49808 9.37009 3 9.28749V9.12299H5.40592C5.73798 9.12299 5.98702 9.37009 6.02852 9.65708L6.60962 12.7391L8.1024 9.12299H9.5544L7.3145 14.4645ZM10.3849 14.4645H8.97436L10.1358 9.12299H11.5463L10.3849 14.4645ZM13.371 10.603C13.4125 10.3153 13.6615 10.1508 13.9521 10.1508C14.4086 10.1095 14.906 10.1921 15.3211 10.3972L15.5701 9.2471C15.155 9.0826 14.6985 9 14.2841 9C12.9151 9 11.919 9.73988 11.919 10.7667C11.919 11.5479 12.6246 11.9581 13.1227 12.2052C13.6615 12.4516 13.8691 12.6161 13.8275 12.8625C13.8275 13.2321 13.4125 13.3966 12.9981 13.3966C12.5001 13.3966 12.002 13.2734 11.5461 13.0676L11.2971 14.2184C11.7952 14.4234 12.334 14.506 12.8321 14.506C14.3671 14.5466 15.3211 13.8075 15.3211 12.698C15.3211 11.3008 13.371 11.2189 13.371 10.603ZM20.2571 14.4645L19.1372 9.12299H17.9342C17.6852 9.12299 17.4362 9.28749 17.3531 9.53388L15.2793 14.4645H16.7313L17.0211 13.6841H18.8051L18.9712 14.4645H20.2571ZM18.1418 10.5616L18.5562 12.5747H17.3947L18.1418 10.5616Z" fill="#172B85"/>
</svg>
