<svg width="24" height="24" viewBox="0 0 24 24" fill="none" xmlns="http://www.w3.org/2000/svg">
<path d="M22.5583 18.0053L17.8748 13.3155V9.83826C17.8754 9.73257 17.8552 9.6278 17.8152 9.52996C17.7752 9.43212 17.7163 9.34312 17.6419 9.26809L9.60844 1.23754C9.53376 1.16227 9.44491 1.10253 9.34702 1.06176C9.24912 1.02099 9.14412 1 9.03807 1C8.93202 1 8.82702 1.02099 8.72912 1.06176C8.63123 1.10253 8.54238 1.16227 8.4677 1.23754L1.23763 8.46503C1.16233 8.53969 1.10257 8.62851 1.06178 8.72637C1.021 8.82423 1 8.92919 1 9.0352C1 9.14121 1.021 9.24618 1.06178 9.34404C1.10257 9.4419 1.16233 9.53072 1.23763 9.60537L9.27104 17.6359C9.3461 17.7103 9.43513 17.7692 9.533 17.8092C9.63088 17.8492 9.73569 17.8694 9.84141 17.8688H13.3279L18.0114 22.5586C18.6144 23.1614 19.4321 23.5 20.2848 23.5C21.1376 23.5 21.9553 23.1614 22.5583 22.5586C23.1613 21.9559 23.5 21.1384 23.5 20.286C23.5 19.4336 23.1613 18.6161 22.5583 18.0134V18.0053ZM4.21802 7.75834L6.05767 9.60537L7.19842 8.46503L5.35073 6.62604L6.62805 5.34918L10.0744 8.80232L11.2151 7.66198L7.76076 4.21687L9.03807 2.94002L14.3321 8.23215L8.23473 14.3273L2.94071 9.0352L4.21802 7.75834ZM21.4176 21.4103C21.1165 21.7094 20.7093 21.8773 20.2848 21.8773C19.8604 21.8773 19.4532 21.7094 19.1521 21.4103L14.2277 16.4956C14.0565 16.3779 13.8619 16.2985 13.6573 16.2627H10.1708L9.36744 15.4596L15.4648 9.36445L16.2681 10.1675V13.6528C16.269 13.8634 16.3527 14.0653 16.5011 14.2149L21.4176 19.1457C21.7168 19.4466 21.8848 19.8537 21.8848 20.278C21.8848 20.7023 21.7168 21.1093 21.4176 21.4103Z" fill="#474A57"/>
<path d="M4.21802 7.75834L6.05767 9.60537L7.19842 8.46503L5.35073 6.62604L6.62805 5.34918L10.0744 8.80232L11.2151 7.66198L7.76076 4.21687L9.03807 2.94002L14.3321 8.23215L8.23473 14.3273L2.94071 9.0352L4.21802 7.75834Z" fill="#474A57"/>
</svg>
