<?xml version="1.0" encoding="UTF-8"?>
<svg xmlns="http://www.w3.org/2000/svg" xmlns:xlink="http://www.w3.org/1999/xlink" width="20px" height="20px" viewBox="0 0 20 20" version="1.1">
<g id="surface1">
<path style=" stroke:none;fill-rule:nonzero;fill:rgb(27.843137%,29.019608%,34.117647%);fill-opacity:1;" d="M 18.796875 15.003906 L 14.894531 11.097656 L 14.894531 8.199219 C 14.894531 8.109375 14.878906 8.023438 14.847656 7.941406 C 14.8125 7.859375 14.761719 7.785156 14.703125 7.722656 L 8.007812 1.03125 C 7.945312 0.96875 7.871094 0.917969 7.789062 0.886719 C 7.707031 0.851562 7.621094 0.832031 7.53125 0.832031 C 7.441406 0.832031 7.355469 0.851562 7.273438 0.886719 C 7.191406 0.917969 7.117188 0.96875 7.054688 1.03125 L 1.03125 7.054688 C 0.96875 7.117188 0.917969 7.191406 0.886719 7.273438 C 0.851562 7.355469 0.832031 7.441406 0.832031 7.53125 C 0.832031 7.617188 0.851562 7.707031 0.886719 7.785156 C 0.917969 7.867188 0.96875 7.941406 1.03125 8.003906 L 7.726562 14.695312 C 7.789062 14.757812 7.863281 14.808594 7.945312 14.839844 C 8.027344 14.875 8.113281 14.890625 8.203125 14.890625 L 11.105469 14.890625 L 15.007812 18.800781 C 15.511719 19.300781 16.195312 19.582031 16.902344 19.582031 C 17.613281 19.582031 18.296875 19.300781 18.796875 18.800781 C 19.300781 18.296875 19.582031 17.617188 19.582031 16.90625 C 19.582031 16.195312 19.300781 15.511719 18.796875 15.011719 Z M 3.515625 6.464844 L 5.046875 8.003906 L 6 7.054688 L 4.457031 5.523438 L 5.523438 4.457031 L 8.394531 7.335938 L 9.347656 6.386719 L 6.46875 3.515625 L 7.53125 2.449219 L 11.945312 6.859375 L 6.863281 11.9375 L 2.449219 7.53125 Z M 17.847656 17.84375 C 17.597656 18.089844 17.257812 18.230469 16.902344 18.230469 C 16.550781 18.230469 16.210938 18.089844 15.960938 17.84375 L 11.855469 13.746094 C 11.714844 13.648438 11.550781 13.582031 11.382812 13.550781 L 8.476562 13.550781 L 7.804688 12.882812 L 12.886719 7.804688 L 13.558594 8.472656 L 13.558594 11.378906 C 13.558594 11.554688 13.628906 11.722656 13.75 11.847656 L 17.847656 15.953125 C 18.097656 16.207031 18.238281 16.542969 18.238281 16.898438 C 18.238281 17.25 18.097656 17.589844 17.847656 17.84375 Z M 17.847656 17.84375 "/>
<path style=" stroke:none;fill-rule:nonzero;fill:rgb(27.843137%,29.019608%,34.117647%);fill-opacity:1;" d="M 3.515625 6.464844 L 5.046875 8.003906 L 6 7.054688 L 4.457031 5.523438 L 5.523438 4.457031 L 8.394531 7.335938 L 9.347656 6.386719 L 6.46875 3.515625 L 7.53125 2.449219 L 11.945312 6.859375 L 6.863281 11.9375 L 2.449219 7.53125 Z M 3.515625 6.464844 "/>
</g>
</svg>
