<?xml version="1.0" encoding="utf-8"?>
<!-- Generator: Adobe Illustrator 26.1.0, SVG Export Plug-In . SVG Version: 6.00 Build 0)  -->
<svg version="1.1" id="圖層_1" xmlns="http://www.w3.org/2000/svg" xmlns:xlink="http://www.w3.org/1999/xlink" x="0px" y="0px"
	 viewBox="0 0 223.05 186.19" style="enable-background:new 0 0 223.05 186.19;" xml:space="preserve">
<style type="text/css">
	.st0{clip-path:url(#SVGID_00000086664367037873459120000004052810094645894070_);}
	.st1{fill:#D56A0F;}
	.st2{fill:#B05422;}
	.st3{fill:#EDA742;}
	.st4{fill:#513B2D;}
	.st5{clip-path:url(#SVGID_00000083087684525901496760000015369567785210078878_);}
	.st6{fill:#F8CD77;}
	.st7{opacity:0.68;fill:#D56A0F;}
	.st8{clip-path:url(#SVGID_00000111881744894019664830000001572969693617450154_);}
	.st9{fill:#FADEBC;}
	.st10{clip-path:url(#SVGID_00000158735057124351831080000016350235636493113020_);}
	.st11{fill:#B15843;}
	.st12{fill:#BF644E;}
	.st13{clip-path:url(#SVGID_00000001663380752408911870000014167310323180892044_);fill:#EF9F53;}
	.st14{clip-path:url(#SVGID_00000001663380752408911870000014167310323180892044_);}
	.st15{clip-path:url(#SVGID_00000001663380752408911870000014167310323180892044_);fill:#E18A43;}
</style>
<g>
	<defs>
		<rect id="SVGID_00000011018522042509138460000010635622323558258109_" width="223.05" height="186.19"/>
	</defs>
	<clipPath id="SVGID_00000014600927817210763750000003306136987760116623_">
		<use xlink:href="#SVGID_00000011018522042509138460000010635622323558258109_"  style="overflow:visible;"/>
	</clipPath>
	<g style="clip-path:url(#SVGID_00000014600927817210763750000003306136987760116623_);">
		<path class="st11" d="M211.6,147.63l-3.42-13.25c-0.08-0.82-0.22-1.65-0.44-2.48l-24.95-96.55c-2.83-10.94-15.99-18.71-30.38-17.4
			c-4.78,0.43-9.09,1.78-12.72,3.76c-1.91,1.05-4.61,0.74-6.01-0.71c-5.02-5.16-13.02-8.52-22-8.52l-0.12,0
			c-7.64,0-14.98,2.41-20.16,6.72c-3,2.5-3.18,3.53-7.82,2.22c-3.51-0.99-6.63-2.63-10.36-3.2c-14.88-2.28-29.48,5.23-32.44,16.68
			l-1.82,7.06c-0.24,0.6-0.45,1.21-0.61,1.83L11.44,147.91c-2.45,9.49,5.63,18.79,17.96,20.68c7.9,1.21,15.7,0.51,20.93-3.29
			c1.22-0.88,3.14-0.75,4.24,0.22c3.62,3.17,8.72,5.36,14.57,5.86c7.93,0.69,15.41,0.87,20.17-2.75c1.2-0.91,3.16-0.9,4.26,0.07
			c4.19,3.69,10.7,5,17.98,5c7.28,0,13.79-1.31,17.98-5c1.11-0.97,3.07-0.98,4.26-0.07c4.77,3.62,12.24,3.44,20.17,2.75
			c5.84-0.51,10.94-2.69,14.56-5.86c1.15-1,3.09-1.05,4.36-0.13c5.77,4.17,14.59,4.78,23.23,2.73
			C207.33,165.46,213.89,156.49,211.6,147.63z"/>
		<g>
			<path class="st4" d="M111.56,177.31c-0.61,0-1.2-0.2-1.78-0.22c-0.61-0.02-1.21,0.12-1.79,0.09c-0.61-0.04-1.2-0.11-1.78-0.16
				c-0.6-0.06-1.18-0.29-1.75-0.37c-0.6-0.08-1.2-0.09-1.77-0.2c-0.6-0.11-1.21-0.09-1.78-0.23c-0.59-0.14-1.12-0.46-1.68-0.63
				c-0.58-0.18-1.12-0.42-1.67-0.63c-0.56-0.22-1.11-0.43-1.64-0.68c-0.55-0.26-1.06-0.54-1.56-0.83c-0.52-0.3-1.08-0.53-1.55-0.87
				c-0.49-0.35-0.84-0.85-1.28-1.24c-0.02,0-0.14,0.13-0.15,0.13c-0.48,0.36-0.9,0.83-1.41,1.13c-0.52,0.3-1.1,0.49-1.65,0.74
				c-0.54,0.24-1.14,0.37-1.7,0.56c-0.56,0.19-1.1,0.48-1.69,0.62c-0.57,0.14-1.16,0.27-1.76,0.38c-0.58,0.1-1.18,0.24-1.77,0.3
				c-0.59,0.07-1.2-0.1-1.81-0.06c-0.59,0.04-1.18,0.12-1.79,0.13c-0.59,0.01-1.19-0.06-1.79-0.06c-0.59-0.01-1.19-0.01-1.79-0.03
				c-0.6-0.02-1.2,0.04-1.8,0c-0.6-0.04-1.19-0.12-1.79-0.16c-0.6-0.05-1.18-0.22-1.78-0.27c-0.6-0.05-1.22,0.04-1.81-0.05
				c-0.6-0.09-1.19-0.23-1.77-0.35c-0.59-0.12-1.21-0.13-1.79-0.28c-0.59-0.15-1.12-0.49-1.69-0.67c-0.58-0.19-1.21-0.22-1.76-0.44
				c-0.56-0.22-1.11-0.49-1.65-0.75c-0.55-0.26-1.07-0.57-1.6-0.86c-0.53-0.29-0.98-0.72-1.48-1.04c-0.51-0.33-1.11-0.52-1.59-0.88
				c-0.49-0.36-0.94-0.77-1.39-1.16c-0.02,0-0.08-0.16-0.1-0.16c-0.47,0.34-0.93,0.68-1.43,0.97c-0.5,0.3-0.91,0.75-1.43,1
				c-0.52,0.25-1.07,0.47-1.61,0.68c-0.54,0.21-1.14,0.25-1.69,0.42c-0.55,0.17-1.06,0.52-1.62,0.66c-0.56,0.14-1.16,0.15-1.72,0.26
				c-0.57,0.1-1.14,0.25-1.71,0.32c-0.58,0.07-1.17-0.06-1.75-0.02c-0.58,0.04-1.15,0.23-1.72,0.25c-0.58,0.02-1.16-0.04-1.74-0.05
				c-0.59-0.01-1.16,0.01-1.73-0.02c-0.59-0.03-1.17,0.02-1.74-0.03c-0.59-0.05-1.16-0.12-1.73-0.19c-0.59-0.07-1.15-0.25-1.7-0.34
				c-0.61-0.09-1.21-0.17-1.8-0.29c-0.6-0.13-1.17-0.35-1.76-0.5c-0.59-0.16-1.18-0.3-1.76-0.49c-0.58-0.2-1.15-0.41-1.71-0.64
				c-0.57-0.23-1.16-0.41-1.7-0.67c-0.55-0.27-1.12-0.51-1.64-0.8c-0.53-0.3-1-0.71-1.51-1.04c-0.51-0.34-0.98-0.73-1.45-1.1
				c-0.48-0.38-1.04-0.66-1.49-1.07c-0.45-0.41-0.87-0.87-1.28-1.31c-0.42-0.45-0.86-0.88-1.23-1.36c-0.38-0.48-0.73-0.99-1.06-1.5
				c-0.34-0.52-0.49-1.15-0.78-1.69c-0.29-0.55-0.59-1.09-0.82-1.65c-0.24-0.58-0.45-1.15-0.63-1.74c-0.18-0.6-0.41-1.17-0.52-1.78
				c-0.11-0.61-0.2-1.23-0.25-1.84c-0.04-0.62,0.09-1.23,0.12-1.85c0.02-0.61-0.08-1.24,0.01-1.86c0.09-0.61,0.35-1.18,0.5-1.79
				c0.22-0.87,0.29-0.85,0.51-1.72c0.22-0.87,0.19-0.88,0.41-1.74c0.22-0.87,0.02-0.92,0.25-1.79c0.22-0.87,0.26-0.86,0.48-1.73
				c0.22-0.87,0.35-0.83,0.57-1.7c0.22-0.87,0.04-0.91,0.27-1.78c0.22-0.87,0.27-0.85,0.49-1.72c0.22-0.87,0.35-0.83,0.57-1.7
				c0.22-0.87,0.3-0.85,0.53-1.71c0.22-0.87,0-0.92,0.23-1.79c0.22-0.87,0.2-0.87,0.42-1.74c0.22-0.87,0.31-0.84,0.54-1.71
				c0.22-0.87,0.39-0.82,0.62-1.69c0.22-0.87,0.16-0.88,0.38-1.75c0.22-0.87,0.18-0.88,0.41-1.74c0.22-0.87,0.3-0.85,0.53-1.71
				c0.22-0.87-0.01-0.93,0.22-1.79c0.22-0.87,0.22-0.87,0.44-1.73c0.22-0.87,0.49-0.8,0.71-1.67c0.22-0.87,0.22-0.87,0.44-1.74
				c0.22-0.87,0.17-0.88,0.4-1.75c0.22-0.87,0.25-0.86,0.47-1.73c0.22-0.87,0.19-0.88,0.42-1.74c0.22-0.87,0.13-0.89,0.35-1.76
				c0.22-0.87,0.13-0.89,0.35-1.76c0.22-0.87,0.41-0.82,0.63-1.69c0.22-0.87,0.1-0.9,0.32-1.77c0.22-0.87,0.39-0.83,0.61-1.69
				c0.22-0.87,0.11-0.9,0.33-1.77c0.22-0.87,0.31-0.85,0.54-1.71c0.22-0.87,0.25-0.86,0.47-1.73c0.22-0.87,0.09-0.9,0.31-1.77
				c0.22-0.87,0.18-0.88,0.4-1.74c0.22-0.87,0.38-0.83,0.6-1.69c0.22-0.87,0.22-0.87,0.45-1.73c0.22-0.87,0.1-0.9,0.32-1.76
				c0.22-0.87,0.41-0.82,0.63-1.69c0.22-0.87-0.06-0.94,0.17-1.81c0.22-0.87,0.24-0.86,0.47-1.73c0.22-0.87,0.31-0.84,0.53-1.71
				c0.22-0.87,0.21-0.87,0.43-1.74c0.22-0.87,0.36-0.83,0.59-1.7c0.22-0.87,0.3-0.85,0.53-1.72c0.22-0.87-0.03-0.93,0.2-1.8
				c0.22-0.87,0.44-0.81,0.66-1.68c0.22-0.87,0.15-0.89,0.37-1.76c0.22-0.87,0.2-0.87,0.43-1.74c0.22-0.87,0.06-0.91,0.28-1.78
				c0.22-0.87,0.29-0.85,0.51-1.72c0.22-0.87,0.31-0.85,0.53-1.72c0.22-0.87,0.25-0.86,0.47-1.73c0.22-0.87,0.37-0.83,0.59-1.7
				c0.22-0.87,0.16-0.89,0.39-1.76c0.22-0.87,0.19-0.88,0.42-1.74c0.22-0.87,0.03-0.92,0.26-1.79c0.22-0.87,0.41-0.82,0.64-1.69
				c0.22-0.87,0.11-0.9,0.34-1.77c0.23-0.87,0.39-0.83,0.61-1.7c0.23-0.87,0.24-0.87,0.46-1.74c0.23-0.87-0.06-0.95,0.17-1.82
				c0.17-0.68,0.66-1.3,0.92-1.98c0.25-0.84,0.09-0.89,0.31-1.74c0.22-0.85,0.34-0.82,0.56-1.68c0.22-0.86,0.05-0.9,0.27-1.76
				c0.22-0.86,0.38-0.81,0.6-1.67c0.15-0.58,0.09-1.23,0.29-1.79c0.2-0.56,0.56-1.07,0.81-1.61c0.25-0.54,0.52-1.08,0.81-1.6
				c0.29-0.52,0.56-1.06,0.89-1.56c0.33-0.5,0.77-0.91,1.14-1.38c0.37-0.47,0.77-0.9,1.18-1.34c0.4-0.44,0.78-0.9,1.21-1.32
				c0.43-0.41,0.81-0.88,1.27-1.27c0.45-0.38,0.86-0.84,1.35-1.2c0.48-0.36,1.1-0.5,1.61-0.83c0.5-0.33,0.87-0.85,1.39-1.15
				c0.51-0.3,1.13-0.42,1.67-0.69c0.53-0.27,1.06-0.54,1.61-0.78c0.54-0.24,1.08-0.49,1.64-0.71c0.55-0.21,1.13-0.38,1.7-0.57
				c0.56-0.19,1.09-0.53,1.67-0.69c0.57-0.16,1.16-0.31,1.74-0.45c0.58-0.13,1.19-0.15,1.78-0.26c0.59-0.1,1.2-0.03,1.8-0.1
				c0.59-0.08,1.17-0.29,1.76-0.34c0.59-0.05,1.19-0.21,1.79-0.23c0.6-0.02,1.2,0.05,1.8,0.06c0.6,0.01,1.19,0.21,1.79,0.25
				c0.59,0.03,1.2,0,1.79,0.06c0.59,0.06,1.2,0.04,1.79,0.13c0.63,0.1,1.25,0.23,1.84,0.37c0.62,0.15,1.18,0.47,1.76,0.65
				c0.6,0.18,1.27,0.15,1.85,0.35c0.59,0.21,1.11,0.6,1.69,0.81c0.61,0.23,1.18,0.54,1.77,0.74c0.61,0.21,1.28,0.2,1.89,0.38
				c1.74,0.49,2.24,0.67,2.32,0.66c0.15-0.07,0.72-0.62,1.17-1.01c0.35-0.31,0.75-0.64,1.19-1.01c0.47-0.39,0.79-1,1.29-1.36
				c0.5-0.36,1.16-0.49,1.68-0.82c0.52-0.33,0.96-0.8,1.5-1.1c0.54-0.3,1.13-0.51,1.69-0.78c0.55-0.27,1.1-0.57,1.67-0.81
				c0.57-0.23,1.2-0.31,1.79-0.52c0.58-0.2,1.11-0.57,1.71-0.75c0.59-0.17,1.21-0.28,1.81-0.42c0.6-0.15,1.21-0.25,1.82-0.37
				c0.6-0.12,1.2-0.35,1.81-0.44c0.61-0.09,1.26,0.14,1.88,0.08c0.61-0.06,1.22-0.17,1.84-0.2c0.62-0.03,1.23,0.02,1.85,0.02
				c0.06,0,0.06-0.24,0.12-0.24c0.6,0,1.21,0.03,1.8,0.06c0.6,0.03,1.21,0.02,1.8,0.08c0.6,0.05,1.17,0.39,1.76,0.47
				c0.6,0.08,1.24-0.1,1.82,0.01c0.59,0.11,1.12,0.5,1.7,0.64c0.59,0.14,1.21,0.11,1.79,0.27c0.58,0.17,1.15,0.37,1.71,0.57
				c0.57,0.2,1.08,0.53,1.64,0.75c0.56,0.23,1.15,0.37,1.69,0.63c0.55,0.26,1.01,0.66,1.54,0.94c0.53,0.29,1.2,0.33,1.7,0.65
				c0.51,0.32,1.02,0.65,1.51,0.99c0.49,0.35,0.98,0.71,1.45,1.08c0.47,0.37,0.74,0.99,1.18,1.39c0.45,0.4,1.09,0.6,1.51,1.03
				c0.23,0.24,1.06,0.46,1.69,0.12c0.54-0.29,1.17-0.41,1.73-0.67c0.55-0.26,1.01-0.75,1.58-0.99c0.57-0.23,1.2-0.32,1.78-0.53
				c0.58-0.2,1.18-0.34,1.78-0.51c0.59-0.17,1.21-0.22,1.81-0.36c0.6-0.14,1.16-0.43,1.77-0.55c0.6-0.11,1.23-0.08,1.84-0.17
				c0.61-0.08,1.19-0.44,1.81-0.49c0.59-0.05,1.2,0.08,1.79,0.05c0.6-0.03,1.19-0.17,1.78-0.17c0.6,0,1.2,0.04,1.79,0.07
				c0.6,0.03,1.18,0.16,1.77,0.22c0.59,0.06,1.2,0.03,1.78,0.12c0.59,0.09,1.14,0.41,1.72,0.52c0.59,0.12,1.21,0.06,1.78,0.2
				c0.58,0.14,1.17,0.27,1.73,0.44c0.57,0.17,1.14,0.37,1.69,0.57c0.56,0.2,1.09,0.49,1.64,0.72c0.55,0.23,1.16,0.34,1.69,0.59
				c0.54,0.26,1.08,0.52,1.6,0.8c0.53,0.28,0.91,0.81,1.41,1.12c0.51,0.31,0.99,0.66,1.47,0.99c0.49,0.34,1.13,0.47,1.6,0.84
				c0.47,0.37,0.91,0.78,1.35,1.17c0.45,0.39,0.95,0.74,1.36,1.16c0.42,0.42,0.74,0.94,1.13,1.39c0.39,0.45,0.72,0.95,1.08,1.42
				c0.36,0.48,0.69,0.96,1.02,1.46c0.32,0.5,0.54,1.06,0.82,1.57c0.29,0.52,0.74,0.96,0.98,1.5c0.24,0.54,0.42,1.12,0.62,1.68
				c0.2,0.56,0.44,1.11,0.59,1.69c0.23,0.88,0.17,0.89,0.39,1.77c0.23,0.88,0.07,0.92,0.3,1.79c0.23,0.88,0.25,0.87,0.47,1.75
				c0.23,0.88,0.3,0.86,0.52,1.73c0.23,0.88,0.34,0.85,0.56,1.72c0.23,0.88,0.19,0.89,0.41,1.76c0.23,0.88,0.06,0.92,0.29,1.8
				c0.23,0.88,0.27,0.87,0.49,1.75c0.23,0.88,0.39,0.83,0.62,1.71c0.23,0.88,0.21,0.88,0.44,1.76c0.23,0.88,0.17,0.89,0.4,1.77
				c0.23,0.88,0.16,0.89,0.39,1.77c0.23,0.88,0.21,0.88,0.44,1.76c0.23,0.88,0.3,0.86,0.53,1.74c0.23,0.88,0.19,0.89,0.42,1.76
				c0.23,0.88,0.32,0.85,0.55,1.73c0.23,0.88,0.17,0.89,0.4,1.77c0.23,0.88,0.19,0.89,0.42,1.76c0.23,0.88,0.31,0.86,0.54,1.73
				c0.23,0.88,0.1,0.91,0.33,1.79c0.23,0.88,0.4,0.83,0.62,1.71c0.23,0.88,0.07,0.92,0.3,1.8c0.23,0.88,0.34,0.85,0.57,1.73
				c0.23,0.88,0.02,0.93,0.25,1.81c0.23,0.88,0.34,0.85,0.56,1.73c0.23,0.88,0.26,0.87,0.49,1.75c0.23,0.88,0.07,0.92,0.3,1.79
				c0.23,0.88,0.37,0.84,0.6,1.71c0.23,0.88,0.38,0.84,0.6,1.71c0.23,0.88-0.08,0.95,0.15,1.83c0.23,0.88,0.34,0.85,0.56,1.72
				c0.23,0.88,0.41,0.83,0.64,1.71c0.23,0.88,0.15,0.9,0.38,1.78c0.23,0.88,0.04,0.93,0.27,1.8c0.23,0.88,0.43,0.82,0.66,1.7
				c0.23,0.88,0.03,0.93,0.25,1.81c0.23,0.88,0.37,0.84,0.6,1.72c0.23,0.88,0.09,0.91,0.32,1.79c0.23,0.88,0.34,0.85,0.56,1.73
				c0.23,0.88,0.27,0.87,0.49,1.75c0.23,0.88,0.07,0.92,0.3,1.8c0.23,0.88,0.32,0.86,0.54,1.73c0.23,0.88,0.23,0.88,0.45,1.76
				c0.23,0.88,0.18,0.89,0.4,1.77c0.23,0.88,0.13,0.91,0.35,1.78c0.23,0.88,0.4,0.83,0.63,1.71c0.23,0.88,0.18,0.89,0.41,1.76
				c0.23,0.88,0.16,0.9,0.39,1.78c0.23,0.88,0.16,0.89,0.39,1.77c0.23,0.88,0.5,0.81,0.73,1.69c0.23,0.88-0.02,0.95,0.2,1.83
				c0.23,0.88,0.25,0.87,0.48,1.75c0.23,0.88,0.45,0.82,0.68,1.7c0.23,0.88,0.22,0.88,0.45,1.77c0.23,0.88-0.02,0.95,0.21,1.83
				c0.11,0.44,0.3,0.87,0.39,1.33c0.08,0.45,0.17,0.91,0.23,1.37c0.21,0.93,0.14,0.95,0.37,1.88c0.24,0.93,0.43,0.88,0.67,1.81
				c0.24,0.93,0.27,0.92,0.51,1.85c0.24,0.93,0.13,0.96,0.37,1.88c0.24,0.93,0.22,0.94,0.46,1.87c0.24,0.93,0.13,0.96,0.37,1.89
				c0.24,0.93,0.5,0.86,0.74,1.8l0.05-0.01c0.15,0.58,0.18,1.2,0.27,1.79c0.09,0.59,0.14,1.2,0.17,1.79c0.03,0.6,0.1,1.21,0.07,1.81
				c-0.03,0.6-0.38,1.16-0.47,1.76c-0.09,0.59-0.15,1.18-0.3,1.76c-0.15,0.58-0.33,1.14-0.54,1.7c-0.21,0.56-0.29,1.17-0.56,1.71
				c-0.26,0.54-0.63,1.02-0.94,1.54c-0.31,0.51-0.64,1.01-1,1.5c-0.35,0.48-0.67,1-1.07,1.45c-0.39,0.45-0.81,0.89-1.24,1.31
				c-0.43,0.42-0.98,0.69-1.45,1.08c-0.46,0.38-0.77,0.96-1.26,1.32c-0.48,0.35-1.01,0.66-1.52,0.98c-0.51,0.31-1.04,0.6-1.58,0.88
				c-0.53,0.28-1.16,0.36-1.71,0.61c-0.55,0.24-1.01,0.7-1.58,0.91c-0.56,0.21-1.22,0.14-1.8,0.32c-0.57,0.17-1.09,0.57-1.68,0.71
				c-0.59,0.14-1.21,0.12-1.8,0.24c-0.6,0.12-1.2,0.17-1.79,0.26c-0.6,0.1-1.18,0.33-1.77,0.4c-0.6,0.07-1.22,0.03-1.81,0.07
				c-0.61,0.05-1.2,0.2-1.8,0.22c-0.61,0.02-1.22,0.01-1.81,0c-0.61-0.01-1.22-0.04-1.81-0.07c-0.61-0.04-1.19-0.26-1.78-0.33
				c-0.6-0.07-1.19-0.17-1.78-0.28c-0.6-0.11-1.24-0.01-1.82-0.15c-0.59-0.14-1.12-0.5-1.69-0.68c-0.58-0.18-1.11-0.48-1.66-0.7
				c-0.57-0.22-1.14-0.4-1.67-0.66c-0.55-0.27-1.15-0.41-1.66-0.72c-0.52-0.31-1.05-0.61-1.53-0.96c0,0.01-0.03-0.12-0.07-0.11
				c-0.45,0.39-0.92,0.76-1.41,1.12c-0.48,0.36-0.95,0.73-1.46,1.05c-0.5,0.32-1.07,0.54-1.6,0.83c-0.52,0.29-0.95,0.77-1.5,1.02
				c-0.54,0.25-1.14,0.39-1.7,0.61c-0.56,0.22-1.15,0.32-1.73,0.51c-0.57,0.18-1.09,0.56-1.67,0.72c-0.58,0.15-1.22,0.05-1.81,0.17
				c-0.59,0.12-1.14,0.49-1.73,0.57c-0.59,0.08-1.22-0.04-1.82,0.01c-0.59,0.05-1.19,0.06-1.79,0.1c-0.6,0.05-1.19,0.09-1.79,0.12
				c-0.6,0.04-1.19,0.27-1.78,0.29c-0.6,0.02-1.2-0.09-1.8-0.08c-0.6,0.01-1.2,0.13-1.79,0.12c-0.6-0.01-1.2-0.08-1.79-0.12
				c-0.6-0.04-1.21,0.02-1.8-0.04c-0.6-0.07-1.17-0.35-1.75-0.45c-0.59-0.1-1.22-0.06-1.79-0.2c-0.58-0.14-1.12-0.45-1.68-0.64
				c-0.57-0.19-1.19-0.26-1.74-0.5c-0.55-0.25-0.99-0.7-1.51-1c-0.51-0.3-1.02-0.61-1.5-0.97c-0.01,0-0.02,0.02-0.04,0.02
				c-0.45,0.38-1.02,0.6-1.51,0.95c-0.48,0.34-0.85,0.85-1.37,1.16c-0.51,0.29-1.09,0.45-1.64,0.71c-0.53,0.25-1.08,0.45-1.65,0.67
				c-0.54,0.21-1.04,0.59-1.62,0.77c-0.56,0.17-1.17,0.21-1.75,0.35c-0.56,0.14-1.11,0.43-1.71,0.54c-0.57,0.11-1.17,0.19-1.77,0.27
				c-0.58,0.08-1.18,0.11-1.78,0.17c-0.58,0.06-1.18-0.01-1.79,0.03c-0.58,0.04-1.18,0.08-1.78,0.1
				C112.76,177.21,112.16,177.31,111.56,177.31z M91.42,164.36c0.54,0,1.06,0.25,1.58,0.37c0.53,0.12,1.09,0.14,1.58,0.38
				c0.48,0.24,0.94,0.57,1.34,0.92c0.45,0.39,0.84,0.89,1.38,1.22c0.5,0.32,1.08,0.53,1.66,0.8c0.54,0.25,1.15,0.33,1.76,0.54
				c0.56,0.19,1.1,0.52,1.71,0.68c0.57,0.14,1.17,0.32,1.79,0.44c0.58,0.1,1.2,0.18,1.82,0.26c0.59,0.07,1.2,0.15,1.83,0.19
				c0.6,0.04,1.22-0.03,1.85-0.01c0.6,0.02,1.21,0.22,1.84,0.22c0.63,0,1.24-0.17,1.84-0.2c0.63-0.02,1.23-0.21,1.83-0.26
				c0.63-0.05,1.24-0.01,1.83-0.08c0.63-0.08,1.25-0.07,1.83-0.18c0.62-0.11,1.19-0.36,1.77-0.5c0.62-0.15,1.19-0.33,1.75-0.52
				c0.6-0.21,1.14-0.48,1.67-0.72c0.58-0.27,1.21-0.36,1.71-0.68c0.53-0.34,0.99-0.75,1.44-1.14c0.47-0.42,1.03-0.69,1.6-0.94
				c0.57-0.25,1.15-0.44,1.77-0.54c0.62-0.09,1.24-0.2,1.86-0.14c0.62,0.07,1.23,0.25,1.81,0.47c0.58,0.22,1.06,0.62,1.56,1
				c0.47,0.36,1.09,0.54,1.65,0.8c0.53,0.25,1.08,0.51,1.68,0.69c0.56,0.17,1.18,0.18,1.8,0.29c0.58,0.11,1.16,0.36,1.78,0.42
				c0.59,0.06,1.21-0.07,1.83-0.05c0.6,0.03,1.2,0.07,1.82,0.07c0.6,0,1.21,0.03,1.82,0.01c0.61-0.02,1.22,0.09,1.83,0.06
				c0.61-0.04,1.2-0.26,1.81-0.31c0.61-0.05,1.22-0.06,1.82-0.12c0.57-0.05,1.17,0.07,1.73-0.01c0.57-0.09,1.14-0.23,1.69-0.36
				c0.56-0.13,1.07-0.47,1.61-0.63c0.55-0.17,1.1-0.33,1.63-0.53c0.54-0.21,1.13-0.28,1.64-0.53c0.52-0.25,0.93-0.69,1.42-0.98
				c0.5-0.29,1.03-0.51,1.49-0.84c0.47-0.34,0.88-0.73,1.31-1.11c0.48-0.41,1.1-0.58,1.67-0.84c0.57-0.26,1.11-0.59,1.73-0.69
				c0.62-0.1,1.24-0.06,1.87,0c0.62,0.06,1.24,0.16,1.82,0.37c0.58,0.21,1.19,0.43,1.7,0.8c0.46,0.34,0.95,0.65,1.48,0.93
				c0.5,0.27,0.99,0.61,1.54,0.84c0.53,0.21,1.1,0.38,1.67,0.54c0.55,0.16,1.1,0.38,1.69,0.5c0.56,0.12,1.15,0.17,1.74,0.25
				c0.57,0.08,1.15,0.13,1.75,0.17c0.57,0.04,1.16-0.02,1.76-0.02c0.58,0,1.16-0.06,1.75-0.09c0.58-0.03,1.17,0.03,1.76-0.03
				c0.58-0.06,1.16-0.08,1.75-0.17c0.57-0.08,1.13-0.32,1.71-0.43c0.57-0.11,1.15-0.2,1.72-0.34c0.59-0.14,1.14-0.34,1.7-0.52
				c0.57-0.18,1.13-0.37,1.67-0.59c0.56-0.23,1.18-0.31,1.7-0.58c0.54-0.28,1.04-0.61,1.53-0.93c0.51-0.32,0.99-0.69,1.45-1.05
				c0.47-0.37,0.85-0.84,1.27-1.25c0.43-0.42,0.81-0.87,1.18-1.32c0.37-0.47,0.84-0.87,1.14-1.38c0.31-0.51,0.44-1.11,0.66-1.64
				c0.23-0.55,0.55-1.06,0.69-1.63c0.14-0.58,0.31-1.16,0.35-1.75c0.05-0.59,0.01-1.19-0.04-1.78c-0.05-0.58-0.36-1.12-0.5-1.7
				c-0.21-0.83-0.18-0.84-0.39-1.66c-0.21-0.83-0.09-0.86-0.3-1.69c-0.21-0.83-0.4-0.78-0.61-1.61c-0.21-0.83-0.17-0.84-0.38-1.67
				c-0.21-0.83-0.09-0.86-0.3-1.69c-0.21-0.83-0.14-0.85-0.35-1.68c-0.21-0.83-0.43-0.77-0.65-1.6c-0.21-0.83-0.24-0.82-0.46-1.65
				c-0.04-0.17,0.01-0.38-0.01-0.55c-0.07-0.68-0.01-1.37-0.17-1.99c-0.23-0.88-0.29-0.86-0.52-1.74c-0.23-0.88-0.27-0.87-0.49-1.74
				c-0.23-0.88-0.15-0.9-0.37-1.77c-0.23-0.88-0.46-0.82-0.68-1.69c-0.23-0.88-0.23-0.88-0.46-1.75c-0.23-0.88,0.04-0.94-0.19-1.82
				c-0.23-0.88-0.23-0.88-0.46-1.75c-0.23-0.88-0.28-0.86-0.51-1.74c-0.23-0.88-0.2-0.88-0.43-1.76c-0.23-0.88-0.26-0.87-0.48-1.75
				c-0.23-0.88-0.32-0.85-0.55-1.73c-0.23-0.88-0.32-0.85-0.55-1.73c-0.23-0.88-0.05-0.92-0.27-1.8c-0.23-0.88-0.35-0.84-0.58-1.72
				c-0.23-0.88-0.06-0.92-0.29-1.8c-0.23-0.88-0.34-0.85-0.57-1.73c-0.23-0.88-0.14-0.9-0.37-1.78c-0.23-0.88-0.2-0.88-0.43-1.76
				c-0.23-0.88-0.36-0.84-0.59-1.72c-0.23-0.88-0.27-0.87-0.5-1.74c-0.23-0.88-0.07-0.92-0.3-1.8c-0.23-0.88-0.23-0.88-0.45-1.76
				c-0.23-0.88-0.35-0.85-0.58-1.72c-0.23-0.88-0.04-0.92-0.27-1.8c-0.23-0.88-0.51-0.8-0.74-1.68c-0.23-0.88-0.21-0.88-0.43-1.76
				c-0.23-0.88-0.14-0.9-0.37-1.78c-0.23-0.88-0.25-0.87-0.47-1.75c-0.23-0.88-0.09-0.91-0.32-1.79c-0.23-0.88-0.15-0.9-0.37-1.77
				c-0.23-0.88-0.48-0.81-0.7-1.69c-0.23-0.88-0.01-0.93-0.24-1.81c-0.23-0.88-0.3-0.86-0.53-1.74c-0.23-0.88-0.25-0.87-0.47-1.75
				c-0.23-0.88-0.4-0.83-0.62-1.71c-0.23-0.88-0.17-0.89-0.39-1.77c-0.23-0.88-0.14-0.9-0.37-1.78c-0.23-0.88-0.2-0.88-0.43-1.76
				c-0.23-0.88-0.09-0.91-0.31-1.79c-0.23-0.88-0.29-0.86-0.52-1.74c-0.23-0.88-0.26-0.87-0.49-1.75c-0.23-0.88-0.42-0.83-0.65-1.71
				c-0.23-0.88-0.04-0.93-0.27-1.81c-0.23-0.88-0.34-0.85-0.56-1.73c-0.23-0.88-0.06-0.92-0.29-1.8c-0.23-0.88-0.21-0.88-0.44-1.76
				c-0.23-0.88-0.51-0.8-0.73-1.68c-0.23-0.88,0.03-0.95-0.2-1.83c-0.23-0.88-0.36-0.84-0.59-1.72c-0.23-0.88-0.11-0.91-0.34-1.79
				c-0.23-0.88-0.4-0.84-0.62-1.72c-0.23-0.88-0.06-0.92-0.29-1.8c-0.23-0.88-0.46-0.82-0.69-1.7c-0.23-0.88-0.08-0.92-0.31-1.8
				c-0.23-0.88-0.22-0.88-0.45-1.77c-0.15-0.59-0.39-1.15-0.62-1.72c-0.22-0.57-0.38-1.17-0.67-1.71c-0.29-0.53-0.58-1.08-0.93-1.59
				c-0.34-0.5-0.76-0.96-1.15-1.43c-0.39-0.46-0.87-0.85-1.32-1.28c-0.43-0.42-0.95-0.75-1.43-1.14c-0.47-0.38-0.81-0.94-1.32-1.29
				c-0.5-0.34-1.14-0.46-1.68-0.77c-0.52-0.31-0.97-0.76-1.52-1.03c-0.54-0.27-1.11-0.51-1.68-0.75c-0.56-0.23-1.14-0.42-1.73-0.62
				c-0.57-0.19-1.15-0.41-1.74-0.57c-0.59-0.16-1.22-0.13-1.82-0.25c-0.59-0.12-1.19-0.22-1.8-0.31c-0.6-0.09-1.19-0.25-1.8-0.31
				c-0.6-0.05-1.21-0.25-1.82-0.27c-0.61-0.02-1.22,0.14-1.84,0.16c-0.61,0.02-1.2,0.19-1.82,0.24c-0.57,0.05-1.13,0.04-1.69,0.12
				c-0.56,0.08-1.16,0-1.71,0.11c-0.56,0.11-1.1,0.32-1.64,0.46c-0.55,0.14-1.07,0.4-1.6,0.57c-0.54,0.18-1.08,0.36-1.6,0.56
				c-0.53,0.21-1.12,0.28-1.63,0.52c-0.52,0.24-0.91,0.71-1.41,0.98c-0.54,0.3-1.19,0.36-1.78,0.53c-0.59,0.17-1.2,0.18-1.81,0.23
				c-0.61,0.05-1.23,0.25-1.83,0.17c-0.61-0.08-1.15-0.44-1.73-0.64c-0.58-0.2-1.13-0.41-1.65-0.73c-0.52-0.32-0.97-0.7-1.4-1.14
				c-0.41-0.42-1.04-0.62-1.49-1.01c-0.45-0.38-0.75-0.96-1.23-1.31c-0.48-0.35-1.07-0.53-1.58-0.84c-0.5-0.31-0.98-0.67-1.51-0.95
				c-0.52-0.27-1.08-0.48-1.63-0.72c-0.54-0.24-1.03-0.61-1.6-0.81c-0.55-0.2-1.18-0.21-1.75-0.38c-0.57-0.17-1.12-0.38-1.71-0.51
				c-0.58-0.13-1.15-0.28-1.74-0.38c-0.58-0.1-1.19-0.05-1.78-0.12c-0.59-0.07-1.16-0.42-1.75-0.45c-0.59-0.03-1.2,0.02-1.79,0.02
				c-0.06,0-0.06-0.07-0.12-0.07c-0.59,0-1.17,0.25-1.75,0.28c-0.59,0.03-1.17,0.06-1.74,0.12c-0.58,0.06-1.15,0.19-1.72,0.28
				c-0.58,0.09-1.2-0.05-1.77,0.07c-0.57,0.13-1.07,0.54-1.63,0.7c-0.57,0.16-1.21,0.07-1.75,0.27c-0.56,0.19-1.03,0.58-1.57,0.81
				c-0.54,0.23-1.08,0.45-1.59,0.71c-0.53,0.26-1.1,0.43-1.6,0.73c-0.51,0.3-0.94,0.7-1.42,1.04c-0.48,0.34-1.04,0.58-1.49,0.94
				c-0.39,0.33-0.54,0.85-0.85,1.12c-0.48,0.43-0.95,0.82-1.4,1.15c-0.51,0.38-1.03,0.7-1.56,0.95c-0.54,0.25-1.18,0.14-1.8,0.24
				c-0.54,0.09-1.12,0.41-1.77,0.37c-0.54-0.03-1.14-0.18-1.79-0.31c-0.54-0.11-1.08-0.43-1.71-0.61c-0.72-0.2-1.49-0.17-2.16-0.41
				c-0.7-0.24-1.34-0.62-2.01-0.87c-0.64-0.24-1.26-0.52-1.88-0.74c-0.64-0.22-1.26-0.54-1.9-0.72c-0.65-0.18-1.35-0.17-2.01-0.27
				c-0.6-0.09-1.19-0.3-1.79-0.35c-0.61-0.06-1.23,0.19-1.83,0.17c-0.61-0.02-1.21-0.2-1.81-0.18c-0.61,0.01-1.2,0.18-1.81,0.23
				c-0.61,0.05-1.21,0.09-1.8,0.17c-0.6,0.08-1.21,0.09-1.8,0.21c-0.6,0.12-1.16,0.35-1.75,0.5c-0.59,0.15-1.24,0.11-1.81,0.29
				c-0.58,0.19-1.09,0.57-1.65,0.79c-0.57,0.22-1.11,0.49-1.65,0.75c-0.55,0.26-1.09,0.52-1.62,0.81c-0.53,0.3-1.09,0.54-1.6,0.87
				c-0.51,0.34-0.92,0.8-1.39,1.17c-0.48,0.38-0.93,0.77-1.37,1.18c-0.45,0.42-1.07,0.66-1.46,1.11c-0.41,0.46-0.82,0.92-1.17,1.41
				c-0.36,0.5-0.46,1.15-0.75,1.68c-0.3,0.53-0.59,1.05-0.82,1.61c-0.23,0.56-0.33,1.15-0.48,1.74c-0.23,0.88-0.34,0.85-0.57,1.73
				c-0.23,0.88-0.29,0.87-0.52,1.75c-0.23,0.88-0.24,0.88-0.46,1.76s-0.32,0.86-0.55,1.74c-0.04,0.15,0.12,0.37,0.06,0.51
				c-0.19,0.46-0.39,0.91-0.5,1.36c-0.22,0.87-0.16,0.88-0.38,1.75c-0.22,0.87-0.28,0.85-0.51,1.72c-0.22,0.87-0.38,0.83-0.61,1.69
				c-0.22,0.87-0.2,0.87-0.43,1.74c-0.22,0.87-0.15,0.88-0.38,1.75c-0.22,0.87-0.11,0.9-0.34,1.76c-0.22,0.87-0.27,0.86-0.49,1.72
				c-0.22,0.87-0.39,0.82-0.61,1.69c-0.22,0.87-0.18,0.88-0.41,1.74c-0.22,0.87-0.06,0.91-0.28,1.78c-0.22,0.87-0.24,0.86-0.46,1.73
				c-0.22,0.87-0.28,0.85-0.5,1.72c-0.22,0.87-0.29,0.85-0.51,1.72c-0.22,0.87-0.24,0.86-0.46,1.73c-0.22,0.87-0.15,0.89-0.38,1.75
				c-0.22,0.87-0.26,0.86-0.48,1.73c-0.22,0.87-0.13,0.89-0.35,1.76c-0.22,0.87-0.28,0.85-0.5,1.72c-0.22,0.87-0.26,0.86-0.48,1.73
				c-0.22,0.87-0.14,0.89-0.36,1.76c-0.22,0.87-0.35,0.84-0.57,1.7c-0.22,0.87-0.05,0.91-0.28,1.78c-0.22,0.87-0.38,0.83-0.61,1.69
				c-0.22,0.87-0.11,0.9-0.34,1.76c-0.22,0.87-0.43,0.81-0.66,1.68c-0.22,0.87-0.11,0.9-0.34,1.76c-0.22,0.87-0.19,0.88-0.41,1.74
				c-0.22,0.87-0.38,0.83-0.61,1.69c-0.22,0.87-0.08,0.9-0.31,1.77c-0.22,0.87-0.07,0.91-0.3,1.77c-0.22,0.87-0.53,0.79-0.75,1.66
				c-0.22,0.87-0.11,0.9-0.34,1.76c-0.22,0.87-0.04,0.91-0.26,1.78c-0.22,0.87-0.3,0.85-0.53,1.71c-0.22,0.87-0.41,0.82-0.63,1.68
				c-0.22,0.87-0.02,0.92-0.24,1.79c-0.22,0.87-0.42,0.82-0.65,1.68c-0.22,0.87-0.08,0.91-0.3,1.78c-0.22,0.87-0.36,0.83-0.58,1.7
				c-0.22,0.87-0.11,0.9-0.34,1.76c-0.22,0.87-0.18,0.88-0.41,1.74c-0.22,0.87-0.38,0.83-0.6,1.7c-0.22,0.87-0.14,0.89-0.36,1.76
				c-0.22,0.87-0.22,0.87-0.45,1.74c-0.22,0.87-0.27,0.86-0.5,1.72c-0.22,0.87-0.33,0.84-0.55,1.71c-0.22,0.87-0.05,0.91-0.27,1.78
				c-0.22,0.87-0.27,0.86-0.49,1.73c-0.22,0.87-0.29,0.85-0.51,1.72c-0.22,0.87-0.29,0.85-0.51,1.72c-0.22,0.87,0.05,0.94-0.17,1.81
				c-0.22,0.87-0.47,0.8-0.7,1.67c-0.22,0.87-0.2,0.88-0.42,1.75c-0.22,0.87,0,0.93-0.22,1.79c-0.22,0.87-0.23,0.87-0.45,1.74
				c-0.22,0.87-0.48,0.81-0.7,1.68c-0.22,0.87-0.14,0.89-0.36,1.76c-0.23,0.87-0.2,0.88-0.43,1.75c-0.23,0.87-0.33,0.85-0.56,1.72
				c-0.23,0.87-0.04,0.92-0.26,1.79c-0.16,0.61-0.22,1.19-0.26,1.76c-0.05,0.62-0.15,1.21-0.09,1.79c0.06,0.62,0.16,1.22,0.32,1.77
				c0.17,0.6,0.29,1.22,0.53,1.73c0.27,0.58,0.81,0.98,1.11,1.43c0.32,0.49,0.71,0.92,1.1,1.38c0.38,0.44,0.72,0.93,1.17,1.34
				c0.43,0.4,0.88,0.78,1.36,1.14c0.47,0.35,1,0.62,1.52,0.93c0.5,0.3,0.89,0.84,1.43,1.1c0.53,0.26,1.11,0.45,1.67,0.67
				c0.55,0.22,1.12,0.42,1.69,0.59c0.56,0.17,1.18,0.18,1.77,0.31c0.58,0.13,1.14,0.34,1.73,0.43c0.58,0.09,1.15,0.16,1.71,0.23
				c0.58,0.07,1.16,0.05,1.73,0.09c0.58,0.04,1.16,0.07,1.72,0.09c0.59,0.02,1.16,0.19,1.73,0.18c0.59-0.01,1.15-0.3,1.71-0.34
				c0.59-0.04,1.15-0.07,1.71-0.15c0.58-0.08,1.15-0.16,1.7-0.27c0.58-0.12,1.18-0.07,1.72-0.23c0.57-0.17,1.02-0.59,1.54-0.8
				c0.55-0.22,1.18-0.22,1.67-0.48c0.52-0.28,0.87-0.79,1.32-1.12c0.51-0.37,1.14-0.53,1.72-0.74c0.58-0.21,1.19-0.28,1.81-0.33
				c0.62-0.05,1.25-0.17,1.86-0.07c0.61,0.11,1.18,0.39,1.74,0.66c0.56,0.26,1.15,0.5,1.62,0.92c0.43,0.37,0.86,0.74,1.33,1.07
				c0.46,0.33,0.93,0.64,1.43,0.93c0.49,0.29,0.92,0.7,1.44,0.95c0.51,0.25,1.04,0.49,1.58,0.7c0.53,0.2,1.15,0.17,1.7,0.34
				c0.54,0.16,1.04,0.5,1.61,0.63c0.55,0.13,1.11,0.33,1.68,0.42c0.56,0.09,1.15,0.09,1.72,0.14c0.6,0.05,1.22-0.05,1.83-0.01
				c0.6,0.05,1.21,0.05,1.82,0.09c0.61,0.04,1.21,0.22,1.81,0.24c0.61,0.02,1.22,0.04,1.82,0.04c0.62,0,1.23-0.05,1.82-0.08
				c0.62-0.03,1.24,0.03,1.83-0.03c0.62-0.06,1.19-0.38,1.77-0.49c0.61-0.11,1.23-0.15,1.79-0.32c0.6-0.18,1.21-0.3,1.74-0.55
				c0.56-0.27,0.97-0.76,1.44-1.12c0.4-0.31,0.96-0.35,1.42-0.56c0.46-0.21,0.86-0.61,1.35-0.72
				C90.39,164.38,90.92,164.36,91.42,164.36z"/>
		</g>
		<g>
			<g>
				<path class="st12" d="M111.49,51.34c-1.86,0-3.56-0.66-4.77-1.85c-0.69-0.68-1.29-1.18-1.91-1.59
					c-0.68-0.45-1.41-0.84-2.19-1.15l-0.26-0.11c-0.75-0.31-1.47-0.61-2.08-0.73c-0.79-0.16-1.63-0.24-2.49-0.24
					c-0.37,0-0.86,0.08-1.37,0.17l-0.61,0.1c-0.67,0.11-1.3,0.25-1.93,0.46c-0.7,0.23-1.31,0.47-1.84,0.74
					c-1.5,0.76-3.28,0.93-4.88,0.45c-1.57-0.47-2.96-1.54-3.81-2.93l-0.19-0.31c-0.35-0.58-0.69-1.12-1.02-1.5
					c-0.28-0.32-0.73-0.67-1.2-1.05l-0.46-0.37c-0.69-0.56-1.22-0.98-1.75-1.28c-0.58-0.33-1.31-0.59-2-0.84l-0.4-0.14
					c-0.61-0.22-1.19-0.43-1.67-0.51c-0.62-0.11-1.39-0.12-2.18-0.12c-1.93,0-3.5-1.57-3.5-3.5s1.57-3.5,3.5-3.5
					c1.06,0,2.2,0.02,3.36,0.21c1.09,0.19,2.04,0.53,2.87,0.83l0.36,0.13c0.94,0.33,2.03,0.74,3.09,1.33c1.09,0.61,2,1.35,2.73,1.94
					l0.4,0.32c0.66,0.52,1.41,1.12,2.11,1.91c0.73,0.83,1.26,1.7,1.73,2.47l0.04,0.06c0.78-0.38,1.62-0.71,2.56-1.01
					c0.97-0.31,1.97-0.55,3-0.71l0.51-0.08c0.75-0.13,1.59-0.27,2.56-0.27c1.31,0,2.61,0.12,3.84,0.37c1.3,0.25,2.42,0.72,3.41,1.13
					l0.24,0.1c1.19,0.49,2.33,1.09,3.39,1.79c0.93,0.61,1.84,1.36,2.78,2.27c0.75-0.74,1.68-1.63,2.79-2.37
					c1.21-0.8,2.47-1.36,3.44-1.75c1.09-0.45,2.3-0.8,3.7-1.07c1.18-0.23,2.46-0.44,3.82-0.44c0.99,0,1.87,0.14,2.64,0.27l0.68,0.11
					c0.84,0.13,1.79,0.28,2.77,0.59c0.92,0.3,1.72,0.69,2.43,1.05c0.61-0.94,1.31-1.74,1.93-2.44c0.67-0.76,1.44-1.49,2.45-2.3
					c0.94-0.76,1.84-1.38,2.77-1.9c1.11-0.62,2.08-1.07,3.05-1.42c1.16-0.41,2.3-0.62,3.27-0.79c0.89-0.15,2.07-0.32,3.34-0.32
					c1.93,0,3.5,1.57,3.5,3.5s-1.57,3.5-3.5,3.5c-0.75,0-1.51,0.11-2.16,0.22c-0.69,0.12-1.47,0.26-2.11,0.49
					c-0.59,0.21-1.21,0.5-1.96,0.92c-0.58,0.32-1.16,0.73-1.79,1.23c-0.69,0.56-1.2,1.03-1.6,1.48c-0.53,0.6-1.03,1.17-1.36,1.71
					c-0.94,1.52-2.22,2.56-3.71,3.01c-1.6,0.48-3.38,0.31-4.89-0.45l-0.21-0.11c-0.58-0.29-1.13-0.57-1.6-0.73
					c-0.45-0.15-1.05-0.24-1.69-0.34l-0.75-0.12c-0.56-0.09-1.08-0.18-1.5-0.18c-0.81,0-1.7,0.16-2.48,0.31
					c-0.94,0.19-1.72,0.41-2.38,0.68c-0.67,0.28-1.53,0.65-2.23,1.11c-0.61,0.41-1.26,1.04-1.88,1.65
					C114.99,50.67,113.31,51.34,111.49,51.34z M88.88,40.91C88.88,40.91,88.88,40.91,88.88,40.91
					C88.88,40.91,88.88,40.91,88.88,40.91z"/>
			</g>
			<g>
				<path class="st12" d="M35.77,150.84c-0.27,0-0.53-0.03-0.8-0.08c-2.16-0.44-3.56-2.55-3.12-4.72c0.13-0.62,0.18-0.93,0.23-1.24
					c0.06-0.38,0.13-0.75,0.28-1.5c0.14-0.7,0.22-1.05,0.29-1.41c0.07-0.33,0.14-0.66,0.28-1.32c0.11-0.53,0.14-0.8,0.17-1.07
					c0.05-0.42,0.1-0.85,0.27-1.68c0.18-0.89,0.33-1.37,0.46-1.75c0.09-0.28,0.15-0.47,0.25-0.95c0.13-0.62,0.18-0.93,0.23-1.24
					c0.06-0.37,0.13-0.75,0.28-1.49c0.13-0.65,0.19-0.98,0.25-1.3c0.07-0.36,0.13-0.72,0.28-1.43c0.17-0.85,0.31-1.31,0.42-1.68
					c0.07-0.25,0.15-0.51,0.25-1.03c0.08-0.4,0.09-0.54,0.11-0.82c0.02-0.42,0.06-0.99,0.25-1.95c0.19-0.95,0.38-1.49,0.52-1.88
					c0.09-0.27,0.14-0.4,0.23-0.81c0.13-0.65,0.19-0.98,0.26-1.3c0.07-0.36,0.13-0.72,0.28-1.43c0.13-0.63,0.18-0.95,0.24-1.26
					c0.07-0.37,0.13-0.74,0.28-1.47c0.1-0.5,0.13-0.76,0.16-1.01c0.04-0.39,0.1-0.88,0.27-1.75c0.13-0.63,0.18-0.94,0.24-1.26
					c0.06-0.37,0.13-0.74,0.28-1.48c0.19-0.94,0.37-1.46,0.5-1.84c0.09-0.27,0.14-0.42,0.23-0.85c0.13-0.62,0.18-0.94,0.24-1.25
					c0.06-0.37,0.13-0.75,0.28-1.49c0.15-0.73,0.23-1.1,0.32-1.46c0.07-0.31,0.15-0.63,0.27-1.26c0.1-0.48,0.12-0.67,0.15-0.97
					c0.04-0.4,0.09-0.91,0.27-1.79c0.15-0.73,0.23-1.1,0.32-1.46c0.07-0.31,0.15-0.63,0.27-1.26l0.55-2.73
					c0.17-0.83,0.29-1.24,0.4-1.65c0.08-0.26,0.15-0.53,0.26-1.06c0.12-0.57,0.16-0.86,0.2-1.15c0.06-0.4,0.12-0.8,0.28-1.59
					c0.16-0.78,0.26-1.16,0.35-1.54c0.07-0.29,0.15-0.58,0.27-1.18c0.13-0.65,0.19-0.97,0.25-1.3c0.07-0.36,0.13-0.72,0.28-1.45
					c0.15-0.73,0.23-1.09,0.32-1.46c0.07-0.32,0.15-0.63,0.28-1.27c0.44-2.16,2.56-3.56,4.72-3.12c2.16,0.44,3.56,2.55,3.12,4.72
					c-0.15,0.73-0.23,1.09-0.31,1.45c-0.07,0.32-0.15,0.64-0.28,1.28c-0.13,0.65-0.19,0.97-0.25,1.3c-0.07,0.36-0.13,0.72-0.28,1.45
					c-0.16,0.77-0.26,1.16-0.35,1.54c-0.07,0.29-0.15,0.59-0.27,1.18c-0.12,0.57-0.16,0.86-0.2,1.15c-0.06,0.4-0.12,0.8-0.28,1.6
					c-0.17,0.83-0.29,1.24-0.4,1.65c-0.07,0.26-0.15,0.53-0.26,1.06L49.6,98.5c-0.15,0.74-0.23,1.1-0.32,1.47
					c-0.07,0.31-0.15,0.63-0.27,1.26c-0.1,0.48-0.12,0.67-0.15,0.97c-0.04,0.4-0.09,0.91-0.27,1.79c-0.15,0.73-0.23,1.1-0.32,1.46
					c-0.07,0.31-0.15,0.63-0.27,1.26c-0.13,0.62-0.18,0.94-0.24,1.25c-0.06,0.37-0.13,0.75-0.28,1.49c-0.19,0.94-0.37,1.46-0.5,1.84
					c-0.09,0.27-0.14,0.42-0.23,0.85c-0.13,0.62-0.18,0.94-0.24,1.26c-0.06,0.37-0.13,0.74-0.28,1.48c-0.1,0.5-0.13,0.75-0.16,1.01
					c-0.04,0.39-0.1,0.88-0.27,1.75c-0.13,0.63-0.18,0.95-0.24,1.26c-0.06,0.37-0.13,0.74-0.28,1.47c-0.13,0.66-0.2,0.99-0.26,1.32
					c-0.07,0.35-0.13,0.71-0.28,1.42c-0.19,0.95-0.38,1.49-0.52,1.88c-0.09,0.27-0.14,0.4-0.23,0.81c-0.08,0.4-0.09,0.54-0.11,0.82
					c-0.02,0.42-0.06,0.99-0.25,1.95c-0.17,0.85-0.31,1.31-0.42,1.68c-0.07,0.25-0.15,0.51-0.25,1.03c-0.13,0.65-0.19,0.97-0.25,1.3
					c-0.07,0.36-0.13,0.72-0.28,1.44c-0.13,0.62-0.18,0.93-0.23,1.24c-0.06,0.37-0.13,0.75-0.28,1.49
					c-0.18,0.89-0.33,1.37-0.46,1.75c-0.09,0.28-0.15,0.47-0.25,0.95c-0.11,0.53-0.14,0.8-0.17,1.06c-0.05,0.42-0.1,0.85-0.28,1.68
					c-0.14,0.7-0.22,1.05-0.29,1.4c-0.07,0.33-0.14,0.66-0.28,1.33c-0.13,0.62-0.18,0.93-0.23,1.24c-0.06,0.38-0.13,0.75-0.28,1.5
					C39.3,149.53,37.64,150.84,35.77,150.84z"/>
			</g>
			<g>
				<path class="st12" d="M75.05,154.25c-0.09,0-0.19,0-0.29-0.01c-2.2-0.16-3.86-2.07-3.71-4.27c0.06-0.78,0.1-1.17,0.14-1.56
					c0.03-0.32,0.07-0.63,0.11-1.26c0.06-0.79,0.1-1.19,0.15-1.58c0.04-0.31,0.07-0.62,0.11-1.24c0.05-0.65,0.06-0.97,0.07-1.29
					c0.02-0.38,0.03-0.77,0.08-1.53c0.04-0.62,0.05-0.93,0.06-1.24c0.01-0.4,0.02-0.79,0.08-1.59c0.06-0.83,0.11-1.25,0.17-1.66
					c0.04-0.29,0.08-0.58,0.12-1.16c0.06-0.78,0.1-1.17,0.14-1.56c0.03-0.31,0.07-0.63,0.11-1.26c0.03-0.5,0.03-0.69,0.02-1
					c-0.01-0.41-0.03-0.92,0.03-1.84c0.06-0.84,0.12-1.25,0.17-1.67c0.04-0.29,0.08-0.57,0.12-1.15c0.05-0.66,0.06-0.98,0.07-1.31
					c0.02-0.38,0.03-0.76,0.09-1.52c0.05-0.73,0.08-1.09,0.11-1.46c0.03-0.34,0.05-0.69,0.1-1.37c0.04-0.58,0.04-0.87,0.05-1.17
					c0-0.42,0.01-0.84,0.06-1.67c0.06-0.88,0.14-1.36,0.2-1.75c0.04-0.27,0.08-0.54,0.12-1.08c0.05-0.66,0.06-0.99,0.08-1.32
					c0.02-0.38,0.03-0.76,0.09-1.52c0.05-0.68,0.07-1.02,0.09-1.36c0.02-0.37,0.04-0.74,0.09-1.47c0.06-0.84,0.12-1.26,0.18-1.68
					c0.04-0.29,0.08-0.57,0.12-1.14c0.03-0.48,0.03-0.66,0.01-0.96c-0.02-0.42-0.04-0.94,0.02-1.88c0.07-0.93,0.16-1.44,0.23-1.85
					c0.05-0.29,0.09-0.48,0.12-0.97c0.05-0.69,0.07-1.03,0.09-1.37c0.02-0.37,0.04-0.73,0.09-1.47c0.05-0.67,0.06-1,0.08-1.33
					c0.02-0.38,0.04-0.75,0.09-1.51c0.16-2.2,2.06-3.86,4.27-3.71c2.2,0.16,3.86,2.07,3.71,4.27c-0.05,0.67-0.06,1-0.08,1.34
					c-0.02,0.38-0.04,0.75-0.09,1.5c-0.05,0.69-0.07,1.03-0.09,1.37c-0.02,0.37-0.04,0.73-0.09,1.47c-0.07,0.93-0.16,1.44-0.23,1.85
					c-0.05,0.29-0.09,0.48-0.12,0.97c-0.03,0.48-0.03,0.66-0.01,0.96c0.02,0.42,0.04,0.94-0.02,1.88c-0.06,0.84-0.12,1.26-0.18,1.68
					c-0.04,0.29-0.08,0.57-0.12,1.14c-0.05,0.68-0.07,1.02-0.09,1.36c-0.02,0.37-0.04,0.74-0.09,1.47
					c-0.05,0.66-0.06,0.99-0.08,1.32c-0.02,0.38-0.03,0.76-0.09,1.52c-0.06,0.88-0.14,1.36-0.2,1.75c-0.04,0.27-0.08,0.54-0.12,1.08
					c-0.04,0.58-0.04,0.88-0.05,1.17c0,0.42-0.01,0.84-0.06,1.67c-0.05,0.72-0.08,1.08-0.11,1.43c-0.03,0.35-0.05,0.69-0.1,1.39
					c-0.05,0.66-0.06,0.98-0.07,1.31c-0.02,0.38-0.03,0.76-0.09,1.52c-0.06,0.84-0.12,1.25-0.17,1.67
					c-0.04,0.29-0.08,0.57-0.12,1.15c-0.04,0.5-0.03,0.7-0.02,1c0.01,0.41,0.03,0.92-0.03,1.84c-0.06,0.78-0.1,1.17-0.14,1.56
					c-0.03,0.32-0.07,0.63-0.11,1.26c-0.06,0.83-0.11,1.25-0.17,1.66c-0.04,0.29-0.08,0.58-0.12,1.16
					c-0.04,0.62-0.05,0.93-0.06,1.24c-0.01,0.4-0.02,0.79-0.08,1.59c-0.05,0.65-0.06,0.97-0.07,1.29c-0.02,0.38-0.03,0.77-0.08,1.53
					c-0.06,0.79-0.1,1.19-0.15,1.58c-0.04,0.31-0.07,0.62-0.11,1.24c-0.06,0.78-0.1,1.17-0.14,1.57c-0.03,0.31-0.07,0.63-0.11,1.26
					C78.89,152.64,77.14,154.25,75.05,154.25z"/>
			</g>
			<g>
				<path class="st12" d="M187.3,150.83c-1.86,0-3.53-1.31-3.92-3.2c-0.1-0.5-0.18-0.74-0.25-0.99c-0.12-0.38-0.26-0.85-0.44-1.72
					c-0.16-0.77-0.22-1.16-0.28-1.55c-0.05-0.3-0.09-0.6-0.21-1.19c-0.13-0.62-0.2-0.92-0.27-1.23c-0.09-0.37-0.18-0.74-0.33-1.49
					c-0.16-0.78-0.22-1.18-0.28-1.57c-0.04-0.29-0.09-0.59-0.21-1.17c-0.18-0.88-0.23-1.37-0.27-1.77c-0.03-0.3-0.05-0.5-0.15-0.98
					c-0.09-0.45-0.15-0.62-0.24-0.89c-0.16-0.49-0.31-0.96-0.48-1.8c-0.17-0.85-0.22-1.34-0.26-1.85c-0.02-0.29-0.04-0.46-0.13-0.91
					c-0.12-0.61-0.2-0.91-0.27-1.21c-0.09-0.38-0.18-0.75-0.34-1.51c-0.15-0.74-0.22-1.12-0.28-1.49c-0.05-0.31-0.11-0.62-0.23-1.25
					c-0.09-0.46-0.15-0.63-0.24-0.91c-0.13-0.39-0.29-0.88-0.47-1.79c-0.16-0.78-0.22-1.17-0.28-1.56c-0.05-0.3-0.09-0.59-0.21-1.18
					c-0.16-0.79-0.22-1.18-0.28-1.58c-0.04-0.29-0.09-0.58-0.21-1.16c-0.12-0.61-0.2-0.91-0.27-1.21c-0.09-0.38-0.18-0.75-0.34-1.51
					c-0.12-0.58-0.19-0.87-0.27-1.15c-0.1-0.39-0.2-0.78-0.36-1.57c-0.17-0.83-0.22-1.26-0.28-1.68c-0.03-0.27-0.07-0.54-0.18-1.07
					c-0.16-0.77-0.22-1.17-0.28-1.55c-0.05-0.3-0.09-0.6-0.21-1.19c-0.09-0.43-0.14-0.58-0.23-0.85c-0.13-0.38-0.31-0.91-0.51-1.85
					c-0.17-0.84-0.23-1.32-0.27-1.7c-0.03-0.27-0.06-0.53-0.17-1.06c-0.13-0.62-0.2-0.92-0.27-1.23c-0.09-0.37-0.18-0.74-0.33-1.49
					c-0.14-0.7-0.21-1.06-0.28-1.41c-0.06-0.33-0.13-0.66-0.26-1.33c-0.11-0.53-0.18-0.79-0.26-1.05c-0.12-0.41-0.24-0.82-0.41-1.66
					c-0.18-0.89-0.23-1.39-0.27-1.79c-0.03-0.3-0.05-0.49-0.15-0.97c-0.13-0.62-0.2-0.93-0.27-1.24c-0.09-0.37-0.18-0.74-0.33-1.49
					c-0.13-0.65-0.21-0.98-0.28-1.3c-0.08-0.36-0.16-0.71-0.3-1.43c-0.44-2.16,0.95-4.28,3.12-4.72c2.16-0.45,4.28,0.96,4.72,3.12
					c0.13,0.65,0.2,0.97,0.28,1.3c0.08,0.36,0.16,0.72,0.31,1.43c0.13,0.62,0.2,0.93,0.27,1.24c0.09,0.37,0.18,0.74,0.33,1.49
					c0.18,0.89,0.23,1.39,0.27,1.79c0.03,0.3,0.05,0.49,0.15,0.97c0.11,0.53,0.18,0.79,0.26,1.05c0.12,0.41,0.24,0.82,0.41,1.66
					c0.14,0.7,0.21,1.05,0.28,1.4c0.06,0.33,0.13,0.67,0.26,1.33c0.13,0.62,0.2,0.92,0.27,1.23c0.09,0.37,0.18,0.74,0.33,1.49
					c0.17,0.84,0.23,1.32,0.27,1.7c0.03,0.27,0.06,0.53,0.17,1.06c0.09,0.42,0.14,0.57,0.23,0.84c0.13,0.39,0.31,0.91,0.51,1.85
					c0.16,0.77,0.22,1.17,0.28,1.56c0.05,0.3,0.09,0.6,0.21,1.19c0.17,0.83,0.22,1.26,0.28,1.68c0.03,0.27,0.07,0.54,0.18,1.07
					c0.12,0.58,0.19,0.86,0.27,1.15c0.1,0.39,0.2,0.78,0.36,1.57c0.12,0.61,0.2,0.91,0.27,1.21c0.09,0.38,0.18,0.75,0.34,1.51
					c0.16,0.79,0.22,1.18,0.28,1.58c0.04,0.29,0.09,0.58,0.21,1.16c0.16,0.77,0.22,1.17,0.28,1.56c0.05,0.3,0.09,0.59,0.21,1.18
					c0.09,0.46,0.15,0.63,0.24,0.91c0.13,0.39,0.29,0.88,0.47,1.79c0.15,0.75,0.22,1.12,0.28,1.5c0.05,0.31,0.11,0.62,0.23,1.24
					c0.12,0.61,0.2,0.91,0.27,1.21c0.09,0.38,0.18,0.75,0.34,1.51c0.17,0.85,0.22,1.34,0.26,1.85c0.02,0.29,0.04,0.46,0.13,0.91
					c0.09,0.45,0.15,0.62,0.24,0.89c0.16,0.49,0.31,0.96,0.48,1.8c0.18,0.88,0.23,1.37,0.27,1.77c0.03,0.3,0.05,0.5,0.15,0.98
					c0.16,0.78,0.22,1.18,0.28,1.57c0.04,0.29,0.09,0.59,0.21,1.17c0.13,0.62,0.2,0.93,0.27,1.23c0.09,0.37,0.18,0.74,0.33,1.48
					c0.16,0.77,0.22,1.16,0.28,1.55c0.05,0.3,0.09,0.6,0.21,1.19c0.1,0.5,0.18,0.74,0.25,0.99c0.12,0.38,0.26,0.85,0.44,1.72
					c0.44,2.17-0.96,4.28-3.12,4.72C187.83,150.8,187.56,150.83,187.3,150.83z"/>
			</g>
			<g>
				<path class="st12" d="M147.92,154.26c-2.08,0-3.84-1.61-3.99-3.72c-0.06-0.83-0.06-1.24-0.07-1.66c0-0.29-0.01-0.59-0.05-1.18
					c-0.05-0.67-0.08-1.01-0.11-1.34c-0.03-0.37-0.06-0.74-0.12-1.49l-0.2-2.82c-0.04-0.63-0.08-0.95-0.11-1.26
					c-0.04-0.39-0.08-0.78-0.14-1.56c-0.05-0.67-0.08-1.01-0.11-1.34c-0.03-0.37-0.06-0.74-0.12-1.48
					c-0.05-0.78-0.07-1.17-0.08-1.55c-0.01-0.32-0.02-0.64-0.07-1.28c-0.05-0.67-0.08-1.01-0.1-1.35c-0.03-0.37-0.06-0.74-0.11-1.48
					c-0.06-0.8-0.07-1.21-0.07-1.61c-0.01-0.31-0.01-0.61-0.06-1.22c-0.04-0.56-0.08-0.83-0.12-1.11c-0.06-0.43-0.13-0.86-0.19-1.71
					c-0.06-0.78-0.07-1.17-0.08-1.57c-0.01-0.32-0.02-0.63-0.07-1.27c-0.05-0.65-0.08-0.98-0.11-1.31
					c-0.04-0.38-0.07-0.76-0.13-1.52c-0.06-0.79-0.07-1.18-0.08-1.58c-0.01-0.31-0.02-0.63-0.06-1.26
					c-0.06-0.87-0.06-1.35-0.05-1.74c0-0.28,0.01-0.55-0.03-1.1c-0.04-0.52-0.07-0.74-0.12-1.04c-0.07-0.4-0.15-0.89-0.21-1.78
					c-0.06-0.9-0.05-1.4-0.04-1.8c0.01-0.3,0.01-0.52-0.02-1.04c-0.05-0.65-0.08-0.97-0.11-1.29c-0.04-0.38-0.08-0.77-0.13-1.54
					c-0.05-0.76-0.07-1.14-0.09-1.52c-0.01-0.33-0.03-0.66-0.08-1.32c-0.04-0.53-0.08-0.79-0.12-1.05c-0.06-0.4-0.15-0.89-0.21-1.78
					c-0.06-0.79-0.07-1.18-0.08-1.58c-0.01-0.32-0.02-0.63-0.06-1.27c-0.15-2.2,1.51-4.12,3.71-4.27c2.21-0.16,4.12,1.51,4.27,3.71
					c0.06,0.78,0.07,1.18,0.08,1.57c0.01,0.32,0.02,0.64,0.07,1.27c0.04,0.53,0.08,0.79,0.12,1.05c0.06,0.4,0.15,0.89,0.21,1.78
					c0.05,0.76,0.07,1.14,0.09,1.52c0.01,0.33,0.03,0.66,0.08,1.31c0.05,0.65,0.08,0.97,0.11,1.29c0.04,0.38,0.08,0.77,0.13,1.54
					c0.06,0.9,0.05,1.4,0.04,1.8c-0.01,0.3-0.01,0.52,0.02,1.04c0.04,0.52,0.07,0.74,0.12,1.04c0.07,0.4,0.15,0.89,0.21,1.78
					c0.06,0.87,0.06,1.35,0.05,1.74c0,0.28-0.01,0.55,0.03,1.1c0.06,0.79,0.07,1.19,0.08,1.58c0.01,0.31,0.02,0.63,0.06,1.25
					c0.05,0.65,0.08,0.98,0.11,1.31c0.04,0.38,0.07,0.76,0.13,1.52c0.05,0.78,0.07,1.17,0.08,1.56c0.01,0.32,0.02,0.64,0.07,1.27
					c0.04,0.56,0.08,0.83,0.12,1.11c0.06,0.43,0.13,0.86,0.19,1.71c0.06,0.8,0.06,1.21,0.07,1.61c0.01,0.31,0.01,0.61,0.06,1.22
					c0.05,0.69,0.08,1.03,0.11,1.37c0.03,0.36,0.06,0.73,0.11,1.46c0.05,0.78,0.07,1.17,0.08,1.56c0.01,0.32,0.02,0.64,0.07,1.27
					c0.05,0.67,0.08,1.01,0.11,1.34c0.03,0.37,0.06,0.74,0.12,1.48c0.04,0.63,0.08,0.95,0.11,1.26c0.04,0.39,0.08,0.78,0.14,1.56
					l0.2,2.82c0.05,0.68,0.08,1.01,0.11,1.35c0.03,0.37,0.06,0.74,0.12,1.47c0.06,0.83,0.06,1.24,0.07,1.66
					c0,0.29,0.01,0.59,0.05,1.18c0.15,2.2-1.51,4.12-3.71,4.27C148.11,154.26,148.01,154.26,147.92,154.26z"/>
			</g>
			<g>
				<path class="st12" d="M111.6,154.63c-2.21,0-4-1.79-4-4c0-0.55-0.02-0.83-0.04-1.1c-0.03-0.4-0.05-0.81-0.05-1.61
					c0-0.76,0.02-1.14,0.03-1.52c0.01-0.3,0.02-0.6,0.02-1.19c0-0.65,0-0.98-0.01-1.31c0-0.35-0.01-0.7-0.01-1.4
					c0-0.74,0.01-1.1,0.02-1.47c0.01-0.31,0.02-0.62,0.02-1.24c0-0.65,0-0.97-0.01-1.29c0-0.35-0.01-0.71-0.01-1.41
					c0-0.61-0.01-0.92-0.02-1.23c-0.01-0.37-0.02-0.74-0.02-1.48l0-2.71c0-0.65,0-0.97-0.01-1.3c0-0.35-0.01-0.71-0.01-1.41
					c0-0.78,0.02-1.17,0.04-1.55c0.01-0.29,0.03-0.58,0.03-1.15c0-0.6-0.01-0.9-0.02-1.2c-0.01-0.38-0.03-0.75-0.03-1.51
					c0-0.58-0.01-0.87-0.03-1.16c-0.02-0.39-0.04-0.77-0.04-1.54c0-0.89,0.05-1.38,0.09-1.77c0.03-0.28,0.05-0.47,0.05-0.93
					c0-0.51-0.02-0.76-0.04-1.01c-0.03-0.38-0.07-0.85-0.07-1.69c0-0.73,0.01-1.1,0.02-1.46c0.01-0.31,0.02-0.62,0.02-1.24
					c0-0.57-0.02-0.85-0.03-1.14c-0.02-0.39-0.04-0.78-0.04-1.56c0-0.88,0.05-1.36,0.09-1.75c0.03-0.29,0.05-0.48,0.05-0.95
					c0-2.21,1.79-4,4-4s4,1.79,4,4c0,0.88-0.05,1.36-0.09,1.75c-0.03,0.29-0.05,0.48-0.05,0.95c0,0.57,0.02,0.86,0.03,1.14
					c0.02,0.39,0.04,0.78,0.04,1.56c0,0.73-0.01,1.1-0.02,1.46c-0.01,0.31-0.02,0.62-0.02,1.24c0,0.51,0.02,0.76,0.04,1.01
					c0.03,0.38,0.07,0.85,0.07,1.69c0,0.89-0.05,1.38-0.09,1.77c-0.03,0.28-0.05,0.47-0.05,0.93c0,0.58,0.01,0.87,0.03,1.16
					c0.02,0.39,0.04,0.77,0.04,1.54c0,0.6,0.01,0.9,0.02,1.2c0.01,0.38,0.03,0.75,0.03,1.51c0,0.78-0.02,1.17-0.04,1.55
					c-0.01,0.29-0.03,0.58-0.03,1.15c0,0.65,0,0.97,0.01,1.3c0,0.35,0.01,0.71,0.01,1.41l0,2.71c0,0.61,0.01,0.92,0.02,1.23
					c0.01,0.37,0.02,0.74,0.02,1.48c0,0.65,0,0.97,0.01,1.29c0,0.35,0.01,0.71,0.01,1.41c0,0.74-0.01,1.1-0.02,1.47
					c-0.01,0.31-0.02,0.62-0.02,1.24c0,0.65,0,0.98,0.01,1.31c0,0.35,0.01,0.7,0.01,1.4c0,0.76-0.02,1.14-0.03,1.52
					c-0.01,0.3-0.02,0.6-0.02,1.19c0,0.55,0.02,0.83,0.04,1.1c0.03,0.4,0.05,0.8,0.05,1.61C115.6,152.84,113.81,154.63,111.6,154.63
					z"/>
			</g>
		</g>
	</g>
</g>
</svg>
