<?xml version="1.0" encoding="utf-8"?>
<!-- Generator: Adobe Illustrator 26.1.0, SVG Export Plug-In . SVG Version: 6.00 Build 0)  -->
<svg version="1.1" id="圖層_1" xmlns="http://www.w3.org/2000/svg" xmlns:xlink="http://www.w3.org/1999/xlink" x="0px" y="0px"
	 viewBox="0 0 464.26 375" style="enable-background:new 0 0 464.26 375;" xml:space="preserve">
<style type="text/css">
	.st0{fill:#9FD5C9;}
	.st1{fill:#AFBF84;}
	.st2{opacity:0.23;fill:#5F6A3D;}
	.st3{fill:#CBE7E1;}
	.st4{fill:#A5B375;}
	.st5{opacity:0.09;fill:#3D4420;}
	.st6{fill:#FFFBEE;}
	.st7{fill:#E6E2D5;}
	.st8{fill:#EACDBB;}
	.st9{fill:#EDD9D1;}
	.st10{fill:#D6B8A8;}
	.st11{fill:#CFB2A5;}
	.st12{fill:#DBC5BE;}
	.st13{fill:#B0968C;}
	.st14{opacity:0.13;fill:#492A21;}
	.st15{fill:#F1B390;}
	.st16{fill:#E9987B;}
	.st17{fill:#DD8C74;}
	.st18{opacity:0.27;fill:#A8644F;}
	.st19{opacity:0.28;fill:#B17461;}
	.st20{fill:#FDECDC;}
	.st21{fill:#EBD6C4;}
	.st22{fill:#E7977A;}
	.st23{fill:#D8866C;}
	.st24{fill:#E9CA84;}
	.st25{fill:#DBA76C;}
	.st26{fill:#DBB76E;}
	.st27{fill:#CB8F54;}
	.st28{fill:#CB725A;}
	.st29{fill:#B85F4A;}
	.st30{fill:#F5DAAA;}
	.st31{fill:#F2A890;}
	.st32{opacity:0.19;fill:#CB8F54;}
	.st33{fill:#E5BF9C;}
	.st34{fill:#CC9F76;}
	.st35{fill:#DFA68F;}
	.st36{fill:#BC885D;}
	.st37{opacity:0.16;fill:#582A14;}
	.st38{fill:#E2B890;}
	.st39{fill:#F5DBC5;}
	.st40{fill:#DFAF87;}
	.st41{opacity:0.29;fill:#582A14;}
</style>
<g>
	<path class="st8" d="M420.33,155.82c-1.89-6.89-5.7-13-10.57-17.01C387.84,57.42,313.9,0.72,229.39,0.72
		c-20.21,0-40.08,3.21-59.08,9.54c-0.64-0.03-1.29-0.04-1.96-0.04c-12.83,0-28.98,5.07-44.31,13.92
		c-22.26,12.85-37.54,30.5-38.76,44.54c-27.53,33.36-42.68,75.49-42.68,118.82c0,35.84,10.18,70.67,29.45,100.7
		c18.39,28.68,44.16,51.74,74.6,66.8c2,5.55,6.66,10.49,12.85,13.5c3.77,1.83,7.84,2.8,11.77,2.8c4.14,0,7.92-1.07,10.92-3.05
		c15.37,4,31.23,6.03,47.19,6.03c48.75,0,94.81-18.64,129.82-52.51c6.87-2.27,13.76-6.87,19.52-13.08
		c8.02-8.64,12.62-18.97,12.51-27.94c16.31-28.25,24.92-60.47,24.92-93.25c0-1.51-0.02-3.09-0.07-4.87
		C421.43,176.19,423.1,165.94,420.33,155.82z"/>
	<path class="st9" d="M66.82,106.6c1.64-1.09,4.7-2.17,5.89-3.63c0.94-1.16,1.56-2.6,2.69-3.59c5.4-4.74,5.04,5.01,5.89,7.23
		c1.95,5.15,5.96,4.87,9.5,8.32c2.93,2.86,4.97,7.11,8.09,9.68c3.21,2.65,7.32,2.49,11.1,3.79c0.46,0.16,0.94,0.34,1.41,0.25
		c0.33-0.07,0.62-0.27,0.9-0.46c2.72-1.91,3.64-3.69,5.6-5.87c2.07-2.3,4-1.91,6.31-3.6c1.67-1.13,1.84-3.46,1.99-5.46
		c0.33-4.36,1.35-8.66,3.01-12.71c0.35-0.85,0.74-1.71,1.37-2.39c0.77-0.82,1.83-1.3,2.86-1.75c3.23,0,8.64-3.85,11.65-5.15
		c3.54-1.53,7.19-2.81,10.61-4.61c2.85-1.5,6.66-4.38,10.05-4.17c1.31,0.08,2.49,0.64,3.68,1.2c0.99,0.46,1.99,0.91,3.08,1.08
		c4.23,0.65,6.54-0.22,10.26,2.49c2.63,1.92,4.7,4.6,7.03,6.85c2.22,2.14,0.74,4.52,2.7,6.45c1.08,1.06,2.62,1.48,4.09,1.86
		c2.24,0.58,4.49,1.17,6.73,1.75c8.01,2.08,8.48-2.21,13.82-6.37c4.92-3.83,11.15-2.5,16.99-4.21c1.74-0.51,3.45-1.15,5.24-1.45
		c6.39-1.06,10.81,2.29,16.58,3.95c2.93,0.84,6.27,0.52,8.97,2.09c3.98,2.3,3.81,4.92,9.43,5.82c5.06,0.82,10.03-1.4,14.96-2.82
		c14.53-4.18,17.19,4.88,26.7,12.37c3.73,2.94,9.05,2.27,13.74,1.55c2.47-0.38,5.19-0.68,7.29,0.66c6.61,4.23,6.52,11.75,10.2,17.8
		c1.31,2.16,3.19,3.91,5.04,5.64c3.08,2.88,6.17,5.75,9.25,8.63c0.88,0.82,1.84,1.68,3.03,1.87c2.08,0.32,3.82-1.47,5.15-3.09
		c7.03-8.54,12.38-13.53,24.46-11.6c0.75,0.12,1.54,0.26,2.24-0.03c1.04-0.43,1.48-1.62,1.97-2.62c1.9-3.86,4.38-6.61,6.37-9.32
		c0,0,0-0.01,0-0.01c-3.23-8.82-7.11-17.28-11.54-25.37c-0.16-0.3-0.32-0.6-0.48-0.9c-0.9-1.61-1.83-3.2-2.77-4.78
		c-0.31-0.52-0.61-1.05-0.93-1.57c-0.89-1.46-1.81-2.9-2.74-4.33c-0.4-0.62-0.79-1.24-1.2-1.85c-0.9-1.36-1.83-2.69-2.77-4.03
		c-0.47-0.66-0.93-1.33-1.4-1.98c-0.92-1.28-1.87-2.54-2.82-3.79c-0.52-0.68-1.04-1.36-1.56-2.03c-0.95-1.21-1.92-2.41-2.9-3.6
		c-0.56-0.68-1.13-1.36-1.7-2.04c-0.98-1.16-1.97-2.3-2.98-3.43c-0.6-0.68-1.22-1.35-1.83-2.02c-1.01-1.1-2.03-2.19-3.07-3.27
		c-0.64-0.66-1.29-1.32-1.94-1.97c-1.04-1.05-2.09-2.1-3.16-3.13c-0.67-0.64-1.35-1.27-2.03-1.9c-1.08-1.01-2.16-2.01-3.26-2.99
		c-0.69-0.62-1.4-1.22-2.11-1.82c-1.12-0.97-2.24-1.93-3.38-2.87c-0.7-0.58-1.42-1.14-2.14-1.7c-1.17-0.93-2.33-1.87-3.53-2.78
		c-0.68-0.51-1.37-1-2.05-1.51c-1.25-0.93-2.5-1.86-3.78-2.76c-0.26-0.18-0.53-0.35-0.79-0.53c-2.87-1.99-5.81-3.89-8.79-5.72
		c-0.78-0.48-1.55-0.98-2.34-1.45c-1.11-0.66-2.25-1.29-3.38-1.93c-0.99-0.56-1.97-1.13-2.97-1.67c-1.09-0.59-2.2-1.15-3.31-1.72
		c-1.06-0.55-2.12-1.1-3.19-1.63c-1.09-0.54-2.19-1.04-3.29-1.56c-1.11-0.52-2.22-1.05-3.34-1.54c-1.09-0.49-2.2-0.95-3.3-1.41
		c-1.15-0.49-2.31-0.97-3.47-1.43c-1.1-0.44-2.21-0.86-3.31-1.27c-1.19-0.45-2.38-0.89-3.58-1.31c-1.1-0.39-2.21-0.77-3.33-1.13
		c-1.23-0.41-2.46-0.8-3.69-1.19c-1.11-0.34-2.22-0.67-3.33-1c-1.26-0.36-2.53-0.71-3.8-1.05c-1.11-0.29-2.22-0.58-3.33-0.86
		c-1.3-0.32-2.61-0.62-3.92-0.91c-1.1-0.25-2.21-0.49-3.32-0.72c-1.35-0.28-2.7-0.52-4.06-0.77c-1.09-0.2-2.18-0.4-3.28-0.58
		c-1.4-0.23-2.81-0.42-4.22-0.62c-1.07-0.15-2.13-0.31-3.2-0.44c-1.49-0.18-2.99-0.32-4.48-0.47c-1.01-0.1-2.01-0.21-3.02-0.3
		c-1.67-0.14-3.35-0.22-5.03-0.32c-0.85-0.05-1.69-0.11-2.54-0.15c-2.54-0.1-5.08-0.16-7.64-0.16c-20.21,0-40.08,3.21-59.08,9.54
		c-0.64-0.03-1.29-0.04-1.96-0.04c-0.93,0-1.86,0.04-2.79,0.08c-0.51,0.03-1.02,0.07-1.54,0.11c-0.34,0.03-0.69,0.06-1.03,0.09
		c-4.08,0.4-8.41,1.24-12.87,2.48c-0.08,0.02-0.16,0.04-0.24,0.06c-0.64,0.18-1.29,0.38-1.94,0.58c-0.47,0.15-0.94,0.29-1.41,0.44
		c-0.37,0.12-0.74,0.24-1.11,0.37c-0.7,0.24-1.4,0.48-2.09,0.72c-0.17,0.06-0.33,0.12-0.5,0.18c-4.18,1.53-7.75,3.66-11.6,5.64
		c-1.36,0.7-2.64,1.1-3.91,1.35c-1.09,0.59-2.17,1.18-3.25,1.81c-22.26,12.85-37.54,30.5-38.76,44.54
		c-9.51,11.52-17.53,24.08-23.97,37.38C63.08,107.12,65.14,107.72,66.82,106.6z"/>
	<path class="st9" d="M387.25,264.04c-2.75-0.67-5.84,0.54-8.73,0.15c-3.48-0.47-6.36-2.81-9.25-4.79
		c-3.65-2.49-11.31-5.77-14.11-0.35c-1,1.94-1.44,4.31-3.14,5.68c-1.87,1.5-4.63,1.28-6.65,2.56c-1.47,0.93-2.38,2.56-2.81,4.24
		c-1.29,4.99-4.71,8.08-7.49,12.15c-2.75,4.01-4.35,9.31-8.93,11.83c-1.25,0.69-2.63,1.12-3.86,1.83c-2.63,1.53-4.88,4.42-7.91,4.15
		c-2.6-0.24-4.32-2.74-5.65-4.98c-2.5-4.21-8.49-6.99-10.05-11.2c-0.39-1.04-0.57-2.23-1.38-2.99c-0.6-0.56-1.43-0.78-2.23-0.98
		c-3.15-0.78-6.67-1.51-9.47,0.13c-1.21,0.71-2.15,1.8-3.27,2.64c-2.72,2.02-9.36,2.98-12.82,2.73c-4.38-0.32-8.22-3.23-12.59-3.69
		c-0.75-0.08-1.54-0.09-2.19-0.47c-2.36-1.37-2.39-6.5-4.05-8.72c-1.26-1.67-4.56-5.02-6.22-6.09c-6.56-4.22-17.43-2.5-24.9-0.84
		c-1.03,0.23-2.09,0.49-3.13,0.32c-1.02-0.16-1.92-0.71-2.8-1.25c-4.03-2.47-8.06-4.94-12.09-7.42c-0.66-0.41-1.34-0.83-1.82-1.44
		c-0.89-1.13-0.94-2.69-0.95-4.12c-0.03-3.56-0.06-7.11-0.09-10.67c-0.01-1.14-0.02-2.32-0.46-3.38c-0.42-1.02-1.2-1.85-1.9-2.7
		c-3.92-4.8-5.04-11.46-9.56-15.79c-3.88-3.71-11.26-5.76-16.5-6.28c-0.62-0.06-1.27-0.09-1.87,0.1c-0.72,0.24-1.3,0.78-1.92,1.23
		c-2.71,1.98-14.51,8.13-17.38,6.83c-3.75-1.69-3.17-7.07-4.34-11.01c-0.89-2.98-3.03-5.41-5.11-7.73
		c-1.71-1.91-3.42-3.81-5.13-5.72c-5.74,0-18.7-21.99-22.18-25.84c-2.66-2.94-6.1-5.33-10.01-6.01c-2.13-0.37-4.32-0.23-6.45-0.57
		c-4.24-0.68-8.36-2.66-11.77-5.23c-2.58-1.94-4.7-6.33-7.55-7.65c-0.91-0.42-1.94-0.48-2.94-0.53c-2.21-0.11-4.51-0.2-6.54,0.67
		c-3.06,1.31-4.82,4.45-6.6,7.26c-4.19,6.58-9.5,5.32-16.24,7.32c-0.17,0.05-0.35,0.1-0.52,0.15c-0.71,6.6-1.07,13.25-1.07,19.93
		c0,35.84,10.18,70.67,29.45,100.7c18.39,28.68,44.16,51.74,74.6,66.8c2,5.55,6.66,10.49,12.85,13.5c3.77,1.83,7.84,2.8,11.77,2.8
		c4.14,0,7.92-1.07,10.92-3.05c15.37,4,31.23,6.03,47.19,6.03c48.75,0,94.81-18.64,129.82-52.51c6.87-2.27,13.76-6.87,19.52-13.08
		c8.02-8.64,12.62-18.97,12.51-27.94c2.26-3.92,4.36-7.91,6.32-11.97c-0.35-0.08-0.71-0.15-1.06-0.23
		C393.07,267.77,390.36,264.8,387.25,264.04z"/>
	<path class="st10" d="M150.15,225.62c2.87,1.29,14.66-4.85,17.38-6.83c0.62-0.45,1.19-0.99,1.92-1.23c0.6-0.19,1.24-0.16,1.87-0.1
		c5.24,0.52,12.62,2.56,16.5,6.28c4.52,4.33,5.64,10.99,9.56,15.79c0.42,0.51,0.85,1.01,1.23,1.55c-0.05-0.69-0.15-1.37-0.41-2.01
		c-0.42-1.02-1.2-1.85-1.9-2.7c-3.92-4.8-5.04-11.46-9.56-15.79c-3.88-3.71-11.26-5.76-16.5-6.28c-0.62-0.06-1.27-0.09-1.87,0.1
		c-0.72,0.24-1.3,0.78-1.92,1.23c-2.71,1.98-14.51,8.13-17.38,6.83c-0.99-0.45-1.67-1.15-2.17-2.01
		C147.36,222.71,148.12,224.71,150.15,225.62z"/>
	<path class="st10" d="M403.87,124.15c-1.82,2.36-3.88,4.86-5.52,8.19c-0.5,1.01-0.93,2.2-1.97,2.62c-0.7,0.29-1.49,0.15-2.24,0.03
		c-12.08-1.93-17.43,3.06-24.46,11.6c-1.34,1.62-3.08,3.41-5.15,3.09c-1.19-0.19-2.15-1.05-3.03-1.87
		c-3.08-2.88-6.17-5.75-9.25-8.63c-1.85-1.72-3.72-3.48-5.04-5.64c-3.67-6.05-3.58-13.57-10.2-17.8c-2.1-1.34-4.82-1.04-7.29-0.66
		c-4.7,0.72-10.01,1.39-13.74-1.55c-9.51-7.49-12.16-16.56-26.7-12.37c-4.92,1.42-9.9,3.64-14.96,2.82
		c-5.62-0.91-5.46-3.52-9.43-5.82c-2.71-1.57-6.05-1.25-8.97-2.09c-5.76-1.66-10.19-5.01-16.58-3.95c-1.79,0.3-3.5,0.94-5.24,1.45
		c-5.84,1.71-12.06,0.38-16.99,4.21c-5.34,4.16-5.82,8.45-13.82,6.37c-2.24-0.58-4.49-1.17-6.73-1.75c-1.47-0.38-3-0.8-4.09-1.86
		c-1.96-1.92-0.48-4.3-2.7-6.45c-2.33-2.25-4.39-4.93-7.03-6.85c-3.72-2.71-6.02-1.84-10.26-2.49c-1.1-0.17-2.1-0.62-3.08-1.08
		c-1.19-0.55-2.36-1.12-3.68-1.2c-3.39-0.21-7.2,2.67-10.05,4.17c-3.42,1.79-7.08,3.07-10.61,4.61c-3.01,1.31-8.43,5.15-11.65,5.15
		c-1.03,0.46-2.09,0.93-2.86,1.75c-0.63,0.67-1.02,1.53-1.37,2.39c-1.66,4.04-2.68,8.35-3.01,12.71c-0.15,2.01-0.33,4.34-1.99,5.46
		c-2.31,1.68-4.24,1.29-6.31,3.6c-1.96,2.18-2.88,3.96-5.6,5.87c-0.28,0.19-0.57,0.39-0.9,0.46c-0.47,0.1-0.95-0.09-1.41-0.25
		c-3.78-1.3-7.89-1.14-11.1-3.79c-3.12-2.57-5.15-6.82-8.09-9.68c-3.54-3.45-7.54-3.17-9.5-8.32c-0.84-2.23-0.48-11.98-5.89-7.23
		c-1.13,0.99-1.74,2.42-2.69,3.59c-1.19,1.47-4.25,2.55-5.89,3.63c-1.27,0.84-2.76,0.7-4.17,0.13c-0.45,0.89-0.9,1.76-1.34,2.66
		c1.77,1.06,3.83,1.65,5.51,0.54c1.64-1.09,4.7-2.17,5.89-3.63c0.94-1.16,1.56-2.6,2.69-3.59c5.4-4.74,5.04,5.01,5.89,7.23
		c1.95,5.15,5.96,4.87,9.5,8.32c2.93,2.86,4.97,7.11,8.09,9.68c3.21,2.65,7.32,2.49,11.1,3.79c0.46,0.16,0.94,0.34,1.41,0.25
		c0.33-0.07,0.62-0.27,0.9-0.46c2.72-1.91,3.64-3.69,5.6-5.87c2.07-2.3,4-1.91,6.31-3.6c1.67-1.13,1.84-3.46,1.99-5.46
		c0.33-4.36,1.35-8.66,3.01-12.71c0.35-0.85,0.74-1.71,1.37-2.39c0.77-0.82,1.83-1.3,2.86-1.75c3.23,0,8.64-3.85,11.65-5.15
		c3.54-1.53,7.19-2.81,10.61-4.61c2.85-1.5,6.66-4.38,10.05-4.17c1.31,0.08,2.49,0.64,3.68,1.2c0.99,0.46,1.99,0.91,3.08,1.08
		c4.23,0.65,6.54-0.22,10.26,2.49c2.63,1.92,4.7,4.6,7.03,6.85c2.22,2.14,0.74,4.52,2.7,6.45c1.08,1.06,2.62,1.48,4.09,1.86
		c2.24,0.58,4.49,1.17,6.73,1.75c8.01,2.08,8.48-2.21,13.82-6.37c4.92-3.83,11.15-2.5,16.99-4.21c1.74-0.51,3.45-1.15,5.24-1.45
		c6.39-1.06,10.81,2.29,16.58,3.95c2.93,0.84,6.27,0.52,8.97,2.09c3.98,2.3,3.81,4.92,9.43,5.82c5.06,0.82,10.03-1.4,14.96-2.82
		c14.53-4.18,17.19,4.88,26.7,12.37c3.73,2.94,9.05,2.27,13.74,1.55c2.47-0.38,5.19-0.68,7.29,0.66c6.61,4.23,6.52,11.75,10.2,17.8
		c1.31,2.16,3.19,3.91,5.04,5.64c3.08,2.88,6.17,5.75,9.25,8.63c0.88,0.82,1.84,1.68,3.03,1.87c2.08,0.32,3.82-1.47,5.15-3.09
		c7.03-8.54,12.38-13.53,24.46-11.6c0.75,0.12,1.54,0.26,2.24-0.03c1.04-0.43,1.48-1.62,1.97-2.62c1.9-3.86,4.38-6.61,6.37-9.32
		c0,0,0-0.01,0-0.01C404.45,125.6,404.15,124.88,403.87,124.15z"/>
	<g>
		
			<ellipse transform="matrix(0.952 -0.3061 0.3061 0.952 -60.274 38.7767)" class="st11" cx="93.5" cy="211.57" rx="18.89" ry="33.64"/>
		<circle class="st12" cx="136.43" cy="258.96" r="8.08"/>
		
			<ellipse transform="matrix(0.952 -0.3061 0.3061 0.952 -54.1355 114.7175)" class="st11" cx="338.71" cy="229.97" rx="9.47" ry="7.59"/>
		
			<ellipse transform="matrix(0.4366 -0.8997 0.8997 0.4366 -95.1017 395.2391)" class="st11" cx="268.01" cy="273.55" rx="5.68" ry="7.09"/>
		
			<ellipse transform="matrix(0.952 -0.3061 0.3061 0.952 -87.2884 112.9777)" class="st12" cx="316.58" cy="334.81" rx="9.47" ry="7.53"/>
		
			<ellipse transform="matrix(0.3878 -0.9218 0.9218 0.3878 -201.5859 357.9448)" class="st12" cx="168.66" cy="330.72" rx="3.37" ry="4.2"/>
		<circle class="st12" cx="151.61" cy="325.18" r="7.78"/>
		<circle class="st12" cx="94.44" cy="94.42" r="4.72"/>
		<circle class="st11" cx="325.46" cy="206.98" r="4.72"/>
		<circle class="st11" cx="379.03" cy="252.46" r="4.72"/>
		<circle class="st12" cx="391.99" cy="121.22" r="4.72"/>
		<circle class="st12" cx="277.73" cy="339.04" r="2.36"/>
		<circle class="st11" cx="315.99" cy="220.44" r="2.36"/>
		<circle class="st11" cx="138.31" cy="106.8" r="2.36"/>
		<circle class="st11" cx="254.23" cy="265.96" r="2.36"/>
		<circle class="st12" cx="320.74" cy="57.52" r="2.36"/>
		<circle class="st12" cx="196.24" cy="68.39" r="2.36"/>
		<circle class="st12" cx="186.89" cy="13.71" r="3.59"/>
		
			<ellipse transform="matrix(0.7869 -0.6171 0.6171 0.7869 30.4223 191.0001)" class="st11" cx="291.74" cy="51.45" rx="16.61" ry="23.49"/>
		
			<ellipse transform="matrix(0.9534 -0.3018 0.3018 0.9534 -30.3728 128.2775)" class="st11" cx="399.94" cy="162.43" rx="16.55" ry="22.53"/>
		<circle class="st11" cx="291.74" cy="156.23" r="35.01"/>
		<circle class="st11" cx="361.83" cy="204.17" r="12.48"/>
		<path class="st13" d="M352.71,197.71c5.42-4.25,13.27-3.3,17.52,2.12c2.49,3.18,3.19,7.19,2.25,10.82
			c2.62-4.31,2.47-9.97-0.83-14.18c-4.25-5.42-12.1-6.37-17.52-2.12c-2.24,1.76-3.71,4.14-4.37,6.7
			C350.52,199.81,351.5,198.67,352.71,197.71z"/>
		<circle class="st11" cx="214.33" cy="57.52" r="12.18"/>
		<path class="st13" d="M206.82,51.33c5.29-4.15,12.95-3.22,17.1,2.07c1.37,1.75,2.18,3.76,2.47,5.82c0.45-3.17-0.34-6.5-2.47-9.21
			c-4.15-5.29-11.8-6.22-17.1-2.07c-3.54,2.78-5.11,7.12-4.53,11.27C202.71,56.2,204.24,53.35,206.82,51.33z"/>
		<circle class="st11" cx="107.5" cy="106.8" r="7.82"/>
		<path class="st13" d="M101.22,107.56c0.52-4.29,4.42-7.35,8.71-6.83c1.56,0.19,2.95,0.83,4.07,1.77
			c-1.22-1.85-3.19-3.19-5.56-3.47c-4.29-0.52-8.19,2.54-8.71,6.83c-0.33,2.73,0.8,5.29,2.76,6.93
			C101.5,111.3,100.99,109.48,101.22,107.56z"/>
		<circle class="st11" cx="334.12" cy="73.09" r="7.82"/>
		<circle class="st11" cx="291.74" cy="329.46" r="7.82"/>
		<circle class="st11" cx="132.98" cy="236.9" r="5.14"/>
		<path class="st13" d="M129.18,237.71c0.34-2.82,2.9-4.83,5.72-4.49c0.92,0.11,1.73,0.47,2.42,0.99c-0.79-1.28-2.12-2.22-3.73-2.41
			c-2.82-0.34-5.38,1.67-5.72,4.49c-0.23,1.9,0.62,3.67,2.06,4.73C129.34,240.06,129.04,238.91,129.18,237.71z"/>
		<circle class="st11" cx="219.12" cy="311.88" r="21.07"/>
		
			<ellipse transform="matrix(0.4366 -0.8997 0.8997 0.4366 -222.9748 349.1054)" class="st11" cx="167.24" cy="352.57" rx="13.18" ry="17.92"/>
		
			<ellipse transform="matrix(0.7869 -0.6171 0.6171 0.7869 -149.0149 124.062)" class="st11" cx="105.11" cy="277.78" rx="9.94" ry="13.91"/>
		<path class="st13" d="M113.71,285.54c-4.32,3.39-11.66,1.23-16.4-4.81c-2.13-2.71-3.36-5.75-3.69-8.57
			c-0.53,3.59,0.71,7.99,3.67,11.76c4.74,6.04,12.08,8.2,16.4,4.81c2.38-1.87,3.34-5.03,2.93-8.5
			C116.3,282.39,115.34,284.26,113.71,285.54z"/>
		<ellipse transform="matrix(0.866 -0.5 0.5 0.866 -6.1473 75.955)" class="st11" cx="138.66" cy="49.45" rx="54.67" ry="24.7"/>
		
			<ellipse transform="matrix(0.6803 -0.733 0.733 0.6803 -99.0707 358.8997)" class="st11" cx="361.83" cy="293" rx="30.68" ry="18.54"/>
		<path class="st13" d="M128.48,31.81c24.75-14.29,50-17.43,58.42-7.71c-0.24-0.69-0.53-1.35-0.89-1.99
			c-6.82-11.81-33.55-9.15-59.69,5.94S84.5,64.97,91.32,76.78c0.37,0.63,0.8,1.22,1.28,1.76C88.38,66.4,103.73,46.1,128.48,31.81z"
			/>
		<path class="st13" d="M273.24,132.64c14.55-11.41,35.28-9.44,47.5,4.04c-0.47-0.69-0.93-1.39-1.45-2.06
			c-11.93-15.21-33.94-17.88-49.15-5.94c-15.21,11.93-17.88,33.94-5.94,49.15c0.52,0.67,1.09,1.28,1.65,1.9
			C255.66,164.65,258.7,144.05,273.24,132.64z"/>
		<path class="st13" d="M86.61,183.23c5.01-1.61,10.72,0.59,15.88,5.43c-5.94-7.35-13.14-11.1-19.29-9.13
			c-9.93,3.19-13.37,20.12-7.69,37.81c2.82,8.76,7.34,16.06,12.4,20.81c-3.65-4.52-6.83-10.39-9-17.12
			C73.24,203.36,76.68,186.43,86.61,183.23z"/>
		<path class="st13" d="M232.66,324.16c-9.16,7.18-22.4,5.58-29.59-3.58c-3.12-3.98-4.58-8.72-4.48-13.41
			c-1.37,5.98-0.13,12.51,3.95,17.72c7.18,9.16,20.43,10.76,29.59,3.58c5.18-4.06,7.94-10.07,8.06-16.17
			C239.15,316.83,236.61,321.06,232.66,324.16z"/>
		<path class="st13" d="M183.36,356.49c-3.18,6.55-12.97,8.35-21.88,4.03c-6.2-3.01-10.32-8.19-11.19-13.27
			c-1.15,6.14,3.38,13.39,11.19,17.18c8.9,4.32,18.7,2.51,21.88-4.03c0.97-1.99,1.2-4.19,0.82-6.41
			C184.02,354.85,183.75,355.69,183.36,356.49z"/>
		<path class="st13" d="M304.81,41.2c-8.01-10.21-20.35-13.9-27.57-8.24c-1.23,0.96-2.21,2.15-2.99,3.48
			c7.22-5.64,19.55-1.95,27.55,8.25c6.64,8.47,8.2,18.76,4.41,25.26c0.01,0,0.01-0.01,0.02-0.01
			C313.46,64.28,312.82,51.41,304.81,41.2z"/>
		<path class="st13" d="M335.06,65.32c-2.75-0.33-5.33,0.82-6.97,2.81c1.45-0.88,3.17-1.33,4.99-1.11c4.29,0.52,7.35,4.42,6.83,8.71
			c-0.19,1.53-0.82,2.9-1.73,4.01c1.98-1.2,3.42-3.24,3.72-5.72C342.4,69.74,339.35,65.84,335.06,65.32z"/>
		<path class="st13" d="M415.96,158.24c-3.43-11.96-13.38-19.77-22.23-17.45c-2.56,0.67-4.74,2.14-6.47,4.14
			c0.95-0.55,1.97-0.98,3.06-1.27c8.85-2.32,18.8,5.5,22.23,17.45c2.44,8.49,0.91,16.78-3.34,21.7
			C415.96,178.9,418.97,168.72,415.96,158.24z"/>
		<path class="st13" d="M382.7,270.51c-0.65-0.6-1.38-1.09-2.14-1.52c5.17,7.66,1.57,21.74-8.96,33.08
			c-10.53,11.35-24.3,15.99-32.32,11.4c0.49,0.73,1.03,1.41,1.68,2.02c7.5,6.96,22.93,2.54,34.46-9.88
			C386.95,293.19,390.21,277.48,382.7,270.51z"/>
		<path class="st13" d="M297.44,324.16c0.35,1.06,0.51,2.21,0.36,3.4c-0.52,4.29-4.42,7.35-8.71,6.83
			c-1.91-0.23-3.55-1.15-4.76-2.46c0.93,2.78,3.36,4.93,6.46,5.31c4.29,0.52,8.19-2.54,8.71-6.83
			C299.8,328.02,298.96,325.79,297.44,324.16z"/>
	</g>
	<path class="st11" d="M120.37,89.7c22.75-4.02,43.58-15.81,59.48-32.37c0.62-0.65,4.04-4.25,4.62-4.83
		c0.58-0.71,1.98-2.38,2.58-3.09c1.16-1.37,2.36-2.72,3.58-4.07c-1.17,2.32-2.6,4.89-3.9,7.17C173.06,74.9,147.07,91.31,120.37,89.7
		L120.37,89.7z"/>
	<path class="st11" d="M268.01,58.94c10.96,13.25,28.18,25.39,43.42,10.84C298.91,88.85,275.26,75.75,268.01,58.94L268.01,58.94z"/>
	<path class="st11" d="M279.64,196.4c22.36,2.6,38.96-3.94,51.96-22.57C325.33,196.12,300.16,206.34,279.64,196.4L279.64,196.4z"/>
	<path class="st11" d="M102.49,116.81c8.16,1.45,12.12-0.44,15.33-8.09c0.38-0.93,0.75-1.88,1.27-2.84
		C120.84,116.27,111.3,124.17,102.49,116.81L102.49,116.81z"/>
	<path class="st11" d="M203.98,71.26c7.77,3.45,15.14,3.76,21.39-2.47c1.43-1.21,2.62-2.73,4.01-4.05
		C226.12,76.72,212.43,80.86,203.98,71.26L203.98,71.26z"/>
	<path class="st11" d="M292.76,27.66c8.79,2.37,17.25,9.59,18.5,18.98C307.92,38.04,300.65,32.03,292.76,27.66L292.76,27.66z"/>
	<path class="st11" d="M254.23,138.32c3.22-12.83,15.77-22.62,28.97-22.77c1.86-0.05,3.72,0.19,5.53,0.41
		c-1.82,0.45-3.61,0.6-5.35,1.06C271.04,119.55,260.86,127.73,254.23,138.32L254.23,138.32z"/>
	<path class="st11" d="M116.3,204.17c5.73,11.67,7.87,31.08-2.39,40.86c-1.58,1.42-3.57,2.32-5.54,2.71
		C121.59,240.08,118.21,217.02,116.3,204.17L116.3,204.17z"/>
	<path class="st11" d="M69.69,206.98c-3.84-11.84-2.77-28.29,12.21-30.59C69.12,183.46,70.8,194.38,69.69,206.98L69.69,206.98z"/>
	<path class="st10" d="M198.74,253.11c0.01,1.44,0.06,2.99,0.95,4.12c0.05,0.06,0.11,0.1,0.16,0.15c-0.02-0.37-0.03-0.75-0.03-1.11
		c-0.03-3.56-0.06-7.11-0.09-10.67c-0.01-1.14-0.02-2.32-0.46-3.38c-0.17-0.41-0.41-0.79-0.67-1.16c0.03,0.46,0.04,0.92,0.05,1.37
		C198.68,246,198.71,249.56,198.74,253.11z"/>
	<path class="st10" d="M252.21,277.94c0.3,1.04,0.6,2.08,1.02,2.94C252.93,279.83,252.62,278.79,252.21,277.94z"/>
	<path class="st10" d="M145.8,214.61c-0.2-0.66-0.46-1.3-0.77-1.91c0.56,2.66,0.67,5.67,1.87,7.75
		C146.51,218.53,146.34,216.42,145.8,214.61z"/>
	<path class="st10" d="M202.59,261.85c4.03,2.47,8.06,4.94,12.09,7.42c0.88,0.54,1.78,1.09,2.8,1.25c1.04,0.17,2.1-0.09,3.13-0.32
		c7.47-1.66,18.33-3.38,24.9,0.84c1.66,1.07,4.96,4.42,6.22,6.09c0.18,0.24,0.34,0.52,0.49,0.82c-0.43-1.51-0.84-3.02-1.57-3.99
		c-1.26-1.67-4.56-5.02-6.22-6.09c-6.56-4.22-17.43-2.5-24.9-0.84c-1.03,0.23-2.09,0.49-3.13,0.32c-1.02-0.16-1.92-0.71-2.8-1.25
		c-4.03-2.47-8.06-4.94-12.09-7.42c-0.6-0.37-1.2-0.77-1.66-1.29c0.06,1.09,0.26,2.17,0.92,3.01
		C201.25,261.02,201.92,261.44,202.59,261.85z"/>
	<path class="st10" d="M396.51,268.55c-3.43-0.78-6.15-3.75-9.26-4.51c-2.75-0.67-5.84,0.54-8.73,0.15
		c-3.48-0.47-6.36-2.81-9.25-4.79c-3.65-2.49-11.31-5.77-14.11-0.35c-1,1.94-1.44,4.31-3.14,5.68c-1.87,1.5-4.63,1.28-6.65,2.56
		c-1.47,0.93-2.38,2.56-2.81,4.24c-1.29,4.99-4.71,8.08-7.49,12.15c-2.75,4.01-4.35,9.31-8.93,11.83c-1.25,0.69-2.63,1.12-3.86,1.83
		c-2.63,1.53-4.88,4.42-7.91,4.15c-2.6-0.24-4.32-2.74-5.65-4.98c-2.5-4.21-8.49-6.99-10.05-11.2c-0.39-1.04-0.57-2.23-1.38-2.99
		c-0.6-0.56-1.43-0.78-2.23-0.98c-3.15-0.78-6.67-1.51-9.47,0.13c-1.21,0.71-2.15,1.8-3.27,2.64c-2.72,2.02-9.36,2.98-12.82,2.73
		c-4.38-0.32-8.22-3.23-12.59-3.69c-0.75-0.08-1.54-0.09-2.19-0.47c-0.63-0.37-1.1-1.01-1.47-1.79c0.58,2.05,1.16,4.15,2.55,4.95
		c0.65,0.38,1.44,0.39,2.19,0.47c4.37,0.46,8.21,3.37,12.59,3.69c3.46,0.25,10.1-0.71,12.82-2.73c1.13-0.84,2.06-1.93,3.27-2.64
		c2.8-1.64,6.32-0.91,9.47-0.13c0.8,0.2,1.63,0.41,2.23,0.98c0.81,0.76,0.99,1.95,1.38,2.99c1.56,4.2,7.55,6.99,10.05,11.2
		c1.33,2.25,3.05,4.75,5.65,4.98c3.03,0.28,5.27-2.62,7.91-4.15c1.23-0.71,2.61-1.14,3.86-1.83c4.59-2.52,6.19-7.82,8.93-11.83
		c2.78-4.07,6.21-7.17,7.49-12.15c0.43-1.68,1.34-3.32,2.81-4.24c2.02-1.28,4.79-1.06,6.65-2.56c1.7-1.37,2.14-3.74,3.14-5.68
		c2.8-5.42,10.46-2.15,14.11,0.35c2.9,1.98,5.77,4.32,9.25,4.79c2.88,0.39,5.97-0.82,8.73-0.15c2.71,0.66,5.12,3,7.96,4.1
		c0.42-0.84,0.87-1.68,1.28-2.53C397.21,268.7,396.86,268.63,396.51,268.55z"/>
	<path class="st10" d="M45.28,170.58c6.73-1.99,12.05-0.73,16.24-7.32c1.78-2.81,3.55-5.95,6.6-7.26c2.03-0.87,4.33-0.78,6.54-0.67
		c1,0.05,2.03,0.11,2.94,0.53c2.85,1.32,4.97,5.7,7.55,7.65c3.41,2.57,7.53,4.55,11.77,5.23c2.13,0.34,4.32,0.2,6.45,0.57
		c3.91,0.68,7.35,3.07,10.01,6.01c3.49,3.85,16.44,25.84,22.18,25.84c1.71,1.91,3.42,3.81,5.13,5.72c1.62,1.8,3.26,3.67,4.34,5.82
		c-0.09-0.43-0.19-0.85-0.31-1.25c-0.89-2.98-3.03-5.41-5.11-7.73c-1.71-1.91-3.42-3.81-5.13-5.72c-5.74,0-18.7-21.99-22.18-25.84
		c-2.66-2.94-6.1-5.33-10.01-6.01c-2.13-0.37-4.32-0.23-6.45-0.57c-4.24-0.68-8.36-2.66-11.77-5.23c-2.58-1.94-4.7-6.33-7.55-7.65
		c-0.91-0.42-1.94-0.48-2.94-0.53c-2.21-0.11-4.51-0.2-6.54,0.67c-3.06,1.31-4.82,4.45-6.6,7.26c-3.97,6.25-8.97,5.44-15.22,7.04
		c-0.15,1.2-0.32,2.39-0.45,3.59C44.93,170.68,45.11,170.64,45.28,170.58z"/>
	<path class="st14" d="M72.05,288.2c18.39,28.68,44.16,51.74,74.6,66.8c2,5.55,6.66,10.49,12.85,13.5c3.77,1.83,7.84,2.8,11.77,2.8
		c4.14,0,7.92-1.07,10.92-3.05c15.37,4,31.23,6.03,47.19,6.03c48.75,0,94.81-18.64,129.82-52.51c6.87-2.27,13.76-6.87,19.52-13.08
		c8.02-8.64,12.62-18.97,12.51-27.94c16.31-28.25,24.92-60.47,24.92-93.25c0-1.51-0.02-3.09-0.07-4.87
		c5.33-6.44,7.01-16.69,4.23-26.81c-1.89-6.89-5.7-13-10.57-17.01c-5.15-19.12-13.2-36.86-23.55-52.84
		c3.19,13.49,4.82,27.33,4.82,41.34c0,98.85-80.42,179.26-179.27,179.26c-39.13,0-76.3-12.38-107.5-35.8
		c-28.26-21.21-49.94-50.82-61.63-83.95c0,0.23-0.01,0.46-0.01,0.69C42.61,223.34,52.79,258.17,72.05,288.2z"/>
</g>
</svg>
