<?xml version="1.0" encoding="utf-8"?>
<!-- Generator: Adobe Illustrator 26.1.0, SVG Export Plug-In . SVG Version: 6.00 Build 0)  -->
<svg version="1.1" id="圖層_1" xmlns="http://www.w3.org/2000/svg" xmlns:xlink="http://www.w3.org/1999/xlink" x="0px" y="0px"
	 viewBox="0 0 88.69 92.39" style="enable-background:new 0 0 88.69 92.39;" xml:space="preserve">
<style type="text/css">
	.st0{fill:none;stroke:#E0E2E2;stroke-width:2;stroke-linecap:round;stroke-linejoin:round;stroke-miterlimit:10;}
	.st1{fill:#FF6053;}
	.st2{fill:#FFFBF3;}
	.st3{fill:#FF946A;}
	.st4{clip-path:url(#SVGID_00000183238588962097262570000009598817200758375324_);}
	.st5{fill:none;stroke:#FFFFFF;stroke-miterlimit:10;}
	.st6{fill:#FFC181;}
	.st7{fill:#99D3D3;}
	.st8{clip-path:url(#SVGID_00000093155461702726418010000017554068384397171590_);}
</style>
<g>
	<line class="st0" x1="1" y1="4.21" x2="87.69" y2="4.21"/>
	<path class="st1" d="M44.35,0h36.7c0.64,0,1.08,0.65,0.84,1.25l-18.52,45.7L45.18,91.83c-0.31,0.75-1.37,0.75-1.68,0L25.33,46.95
		L6.81,1.25C6.57,0.65,7.01,0,7.65,0H44.35z"/>
	<circle class="st2" cx="44.35" cy="24.11" r="19.89"/>
</g>
<g>
	<g>
		<defs>
			<path id="SVGID_1_" d="M44.35,108.05h36.7c0.64,0,1.08,0.65,0.84,1.25L63.37,155l-18.18,44.88c-0.31,0.75-1.37,0.75-1.68,0
				L25.33,155l-18.52-45.7c-0.24-0.6,0.2-1.25,0.84-1.25H44.35z"/>
		</defs>
		<clipPath id="SVGID_00000163071172745940103110000009513250185839878584_">
			<use xlink:href="#SVGID_1_"  style="overflow:visible;"/>
		</clipPath>
		<g style="clip-path:url(#SVGID_00000163071172745940103110000009513250185839878584_);">
			<line class="st5" x1="21.79" y1="77.41" x2="111.89" y2="134.14"/>
			<line class="st5" x1="16.29" y1="86.14" x2="106.39" y2="142.88"/>
		</g>
	</g>
</g>
</svg>
