<svg xmlns="http://www.w3.org/2000/svg" width="24" height="24" fill="currentColor" viewBox="0 0 24 24">
  <path
    d="M16.747 7.222a.033.033 0 0 0 .032.032h2.85c.435 0 .747.019.934.057a2.76 2.76 0 0 1 2.117 2.084c.043.192.065.471.065.838.002 3.296.002 6.592 0 9.888 0 .207-.038.432-.114.677a2.75 2.75 0 0 1-2.07 1.888c-.188.04-.444.06-.768.06H9.89c-1.235 0-2.311-.992-2.574-2.165a3.71 3.71 0 0 1-.063-.767v-3.033a.035.035 0 0 0-.035-.035h-3.28c-1.274.002-2.353-.957-2.623-2.177a3.69 3.69 0 0 1-.061-.76V4.347c0-.43.02-.741.061-.933a2.759 2.759 0 0 1 2.09-2.095c.191-.043.464-.064.818-.064 3.276 0 6.552.007 9.828-.002 1.269-.004 2.369.95 2.633 2.174.042.193.063.473.062.838-.001.99-.001 1.976.001 2.957Zm-13.164-4.4c-1.045.366-.82 1.512-.834 2.34 0 .02.006.023.02.01l2.397-2.398a.014.014 0 0 0 .003-.016.015.015 0 0 0-.014-.009c-.328.003-.657.006-.988.007-.264 0-.46.023-.584.067Zm-.824 4.48a.015.015 0 0 0-.005.01l-.001 2.843c0 .003 0 .005.002.008a.015.015 0 0 0 .016.006.015.015 0 0 0 .007-.004l7.387-7.387a.015.015 0 0 0-.01-.026l-2.843.002a.015.015 0 0 0-.01.005L2.759 7.302Zm-.002 5.03a70.433 70.433 0 0 0-.003 1.542c.005.409.066.663.312.958a.024.024 0 0 0 .018.009.024.024 0 0 0 .018-.007l4.115-4.115a.132.132 0 0 0 .038-.095c-.005-.368-.02-.776.041-1.112a2.754 2.754 0 0 1 2.243-2.22c.333-.057.738-.04 1.102-.037a.093.093 0 0 0 .067-.028l4.125-4.124a.023.023 0 0 0-.001-.035c-.304-.265-.585-.314-1.016-.314h-1.484a.05.05 0 0 0-.037.015l-9.52 9.52a.06.06 0 0 0-.018.043Zm12.469-7.5-2.403 2.4a.012.012 0 0 0-.003.007v.007l.005.006a.013.013 0 0 0 .007.002h2.379a.034.034 0 0 0 .035-.035l.002-2.379c0-.02-.008-.023-.022-.009Zm6.02 5.165a1.244 1.244 0 0 0-1.243-1.243H9.998a1.244 1.244 0 0 0-1.244 1.243v10.006a1.243 1.243 0 0 0 1.244 1.243h10.005a1.244 1.244 0 0 0 1.243-1.243V9.997Zm-14.03 2.844L4.83 15.226c-.014.014-.011.021.009.021l2.38-.001a.037.037 0 0 0 .024-.01.035.035 0 0 0 .01-.026v-2.352c0-.037-.013-.042-.038-.017Z" />
</svg>
