<svg width="24" height="24" viewBox="0 0 24 24" fill="none" xmlns="http://www.w3.org/2000/svg">
  <path
    d="M11.0005 20V4C11.0005 3.44772 11.4482 3 12.0005 3C12.5528 3 13.0005 3.44772 13.0005 4V20C13.0005 20.5523 12.5528 21 12.0005 21C11.4482 21 11.0005 20.5523 11.0005 20Z"
    fill="currentColor" />
  <path
    d="M14.9946 17.9946C14.9946 18.5469 15.4423 18.9947 15.9946 18.9947H16.9946C19.2038 18.9947 20.9946 17.2039 20.9946 14.9941V9.00061C20.9946 6.79086 19.2038 5 16.9946 5H15.9944C15.4421 5 14.9946 5.44785 14.9946 6.00014C14.9946 6.55242 15.4423 7.00028 15.9946 7.00028H16.9946C18.0998 7.00028 18.9946 7.89527 18.9946 9.00061V14.9941C18.9946 16.0995 18.0998 16.9944 16.9946 16.9944H15.9946C15.4423 16.9944 14.9946 17.4423 14.9946 17.9946Z"
    fill="currentColor" />
  <path
    d="M8.0005 5.00527C8.55279 5.00527 9.0005 5.45313 9.0005 6.00541C9.0005 6.5577 8.55279 7.00555 8.0005 7.00555H7.0005C5.89535 7.00555 5.00049 7.90055 5.00049 9.00588V14.9994C5.00049 16.1047 5.89535 16.9997 7.0005 16.9997H8.0005C8.55279 16.9997 9.0005 17.4476 9.0005 17.9999C9.0005 18.5521 8.55299 19 8.0007 19H7.0005C4.79135 19 3.00049 17.2091 3.00049 14.9994V9.00588C3.00049 6.79614 4.79135 5.00527 7.0005 5.00527H8.0005Z"
    fill="currentColor" />
</svg>
