<svg width="24" height="24" viewBox="0 0 24 24" fill="none" xmlns="http://www.w3.org/2000/svg">
  <path
    d="M19.9971 12.9971H3.99707C3.44479 12.9971 2.99707 12.5494 2.99707 11.9971C2.99707 11.4448 3.44479 10.9971 3.99707 10.9971H19.9971C20.5494 10.9971 20.9971 11.4448 20.9971 11.9971C20.9971 12.5494 20.5494 12.9971 19.9971 12.9971Z"
    fill="currentColor" />
  <path
    d="M17.9917 9.00294C18.5439 9.00294 18.9918 8.55523 18.9918 8.00294V7.00294C18.9918 4.79379 17.2009 3.00293 14.9912 3.00293H8.99768C6.78793 3.00293 4.99707 4.79379 4.99707 7.00294V8.00314C4.99707 8.55543 5.44492 9.00294 5.99721 9.00294C6.54949 9.00294 6.99735 8.55523 6.99735 8.00294V7.00294C6.99735 5.89779 7.89234 5.00293 8.99768 5.00293H14.9912C16.0965 5.00293 16.9915 5.89779 16.9915 7.00294V8.00294C16.9915 8.55523 17.4394 9.00294 17.9917 9.00294Z"
    fill="currentColor" />
  <path
    d="M5.00234 15.9971C5.00234 15.4448 5.4502 14.9971 6.00248 14.9971C6.55477 14.9971 7.00262 15.4448 7.00262 15.9971V16.9971C7.00262 18.1022 7.89762 18.9971 9.00295 18.9971H14.9965C16.1018 18.9971 16.9968 18.1022 16.9968 16.9971V15.9971C16.9968 15.4448 17.4446 14.9971 17.9969 14.9971C18.5492 14.9971 18.9971 15.4446 18.9971 15.9969V16.9971C18.9971 19.2062 17.2062 20.9971 14.9965 20.9971H9.00295C6.79321 20.9971 5.00234 19.2062 5.00234 16.9971V15.9971Z"
    fill="currentColor" />
</svg>
