<svg xmlns="http://www.w3.org/2000/svg" width="25" height="24" fill="currentColor" viewBox="0 0 25 24">
  <path fill-rule="evenodd"
    d="M14.5 10H17a.5.5 0 0 1 .5.5v6a.5.5 0 0 1-.5.5h-6a.5.5 0 0 1-.5-.5V14H8a.5.5 0 0 1-.5-.5v-6A.5.5 0 0 1 8 7h6a.5.5 0 0 1 .5.5V10Zm-4 .5a.5.5 0 0 1 .5-.5h2.5V8h-5v5h2v-2.5Zm1 5.5h5v-5h-5v5Z"
    clip-rule="evenodd" />
  <path fill-rule="evenodd"
    d="M22.7 3.501a1.694 1.694 0 0 1-1 1.542v13.915c.587.266 1 .853 1 1.543a1.702 1.702 0 0 1-1.7 1.7c-.69 0-1.277-.413-1.543-1H5.542a1.695 1.695 0 0 1-3.242-.7c0-.69.412-1.277 1-1.543V5.044c-.588-.266-1-.853-1-1.543A1.7 1.7 0 0 1 4 1.8c.69 0 1.277.412 1.543 1h13.914c.266-.588.853-1 1.543-1a1.7 1.7 0 0 1 1.7 1.7Zm-3.11 16.506c.15-.43.487-.766.916-.916l-.006-.004V4.915l.006-.004a1.494 1.494 0 0 1-.916-.916l.004.011a1.501 1.501 0 0 0 .9.9l.012.005-.006.004v14.172l.006.004-.012.004a1.487 1.487 0 0 0-.9.9l-.004.012ZM5.542 19.8a1.694 1.694 0 0 0-.842-.843V5.043a1.7 1.7 0 0 0 .842-.842h13.915c.17.373.47.673.843.842v13.915a1.7 1.7 0 0 0-.843.843H5.542ZM21.5 3.5a.501.501 0 1 0-1.002.002A.501.501 0 0 0 21.5 3.5Zm-17 0a.501.501 0 1 0-1.002.002A.501.501 0 0 0 4.5 3.5Zm-1 17a.5.5 0 1 0 1 0 .5.5 0 0 0-1 0Zm17 0a.5.5 0 1 0 1 0 .5.5 0 0 0-1 0Z"
    clip-rule="evenodd" />
</svg>
