<svg xmlns="http://www.w3.org/2000/svg" width="25" height="24" fill="currentColor" viewBox="0 0 25 24">
  <path fill-rule="evenodd"
    d="M22.7 20.5c0-.688-.413-1.275-1-1.542v-7.915a1.695 1.695 0 0 0-.7-3.242c-.69 0-1.276.413-1.543 1H15.7V5.043a1.695 1.695 0 0 0-.7-3.242c-.69 0-1.276.413-1.543 1H5.542a1.695 1.695 0 0 0-3.242.7c0 .689.413 1.276 1 1.542v7.915a1.695 1.695 0 0 0 .7 3.243c.689 0 1.276-.413 1.542-1H9.3v3.757a1.695 1.695 0 0 0 .7 3.243c.689 0 1.276-.413 1.542-1h7.915a1.695 1.695 0 0 0 3.243-.7Zm-18-7.542c.373.17.672.47.842.843H9.3v-2.758a1.695 1.695 0 0 1 .7-3.242c.689 0 1.276.413 1.542 1H14.3V5.043a1.698 1.698 0 0 1-.843-.842H5.542a1.7 1.7 0 0 1-.842.842v7.915Zm9.802-8.049Zm-.896 9.054Zm.694-1.005c-.373.17-.673.47-.843.843H10.7v-2.758a1.7 1.7 0 0 0 .842-.842H14.3v2.757Zm5.29 7.051c.15-.428.485-.766.913-.917l-.003-.005v-8.172l.003-.005-.007-.003.007.003-.003.005v8.172l.003.005-.029.01a1.503 1.503 0 0 0-.88.896l-.005.011Zm.894-9.106-.008-.003a1.498 1.498 0 0 1-.879-.885l-.006-.018a1.5 1.5 0 0 0 .893.906ZM15.7 10.2h3.758a1.7 1.7 0 0 0 .842.842v7.915c-.373.17-.673.47-.842.843h-7.916a1.697 1.697 0 0 0-.842-.842V15.2h2.757a1.695 1.695 0 0 0 3.243-.7c0-.69-.413-1.276-1-1.543V10.2Zm5.3-1a.3.3 0 0 1 .3.3.3.3 0 0 1-.3.3.301.301 0 0 1-.3-.3.3.3 0 0 1 .3-.3Zm-6-6a.3.3 0 0 1 .3.3.3.3 0 0 1-.3.3.301.301 0 0 1-.3-.3.3.3 0 0 1 .3-.3Zm-11 0a.3.3 0 0 1 .3.3.3.3 0 0 1-.3.3.301.301 0 0 1-.3-.3.3.3 0 0 1 .3-.3Zm0 11.6a.301.301 0 0 1-.3-.3.3.3 0 0 1 .3-.3.3.3 0 0 1 .3.3.3.3 0 0 1-.3.3Zm11-.6a.3.3 0 0 1 .3.3.3.3 0 0 1-.3.3.301.301 0 0 1-.3-.3.3.3 0 0 1 .3-.3Zm-5-4.4a.301.301 0 0 1-.3-.3.3.3 0 0 1 .3-.3.3.3 0 0 1 .3.3.3.3 0 0 1-.3.3Zm0 11a.301.301 0 0 1-.3-.3.3.3 0 0 1 .3-.3.3.3 0 0 1 .3.3.3.3 0 0 1-.3.3Zm11 0a.301.301 0 0 1-.3-.3.3.3 0 0 1 .3-.3.3.3 0 0 1 .3.3.3.3 0 0 1-.3.3Z"
    clip-rule="evenodd" />
</svg>
