<?xml version="1.0" encoding="utf-8"?>
<!-- Generator: Adobe Illustrator 26.1.0, SVG Export Plug-In . SVG Version: 6.00 Build 0)  -->
<svg version="1.1" id="圖層_1" xmlns="http://www.w3.org/2000/svg" xmlns:xlink="http://www.w3.org/1999/xlink" x="0px" y="0px"
	 viewBox="0 0 223.05 186.19" style="enable-background:new 0 0 223.05 186.19;" xml:space="preserve">
<style type="text/css">
	.st0{clip-path:url(#SVGID_00000052082303426997245870000013126271176075035794_);}
	.st1{fill:#D56A0F;}
	.st2{fill:#B05422;}
	.st3{fill:#EDA742;}
	.st4{fill:#513B2D;}
	.st5{clip-path:url(#SVGID_00000153698757093855797750000013718173848521917063_);}
	.st6{fill:#F8CD77;}
	.st7{opacity:0.68;fill:#D56A0F;}
	.st8{clip-path:url(#SVGID_00000056411331955578593070000012048146620918587015_);}
	.st9{fill:#FADEBC;}
	.st10{clip-path:url(#SVGID_00000052817344742024219660000012057730962556285371_);}
	.st11{fill:#B15843;}
	.st12{fill:#BF644E;}
	.st13{clip-path:url(#SVGID_00000109738484391462760590000011790173509667657398_);fill:#EF9F53;}
	.st14{clip-path:url(#SVGID_00000109738484391462760590000011790173509667657398_);}
	.st15{clip-path:url(#SVGID_00000109738484391462760590000011790173509667657398_);fill:#E18A43;}
</style>
<g>
	<defs>
		<rect id="SVGID_00000052102561073855935320000005354928870353425053_" width="223.05" height="186.19"/>
	</defs>
	<clipPath id="SVGID_00000143577955802442592480000002203754281712142514_">
		<use xlink:href="#SVGID_00000052102561073855935320000005354928870353425053_"  style="overflow:visible;"/>
	</clipPath>
	<path style="clip-path:url(#SVGID_00000143577955802442592480000002203754281712142514_);fill:#EF9F53;" d="M173.89,58.96
		c-7.97-22.78-32.87-39.4-62.36-39.4s-54.39,16.62-62.36,39.4C25.24,64.75,7.33,86.39,7.33,112.03v0c0,30.03,24.57,54.6,54.6,54.6
		h99.19c30.03,0,54.6-24.57,54.6-54.6v0C215.73,86.39,197.81,64.75,173.89,58.96z"/>
	<g style="clip-path:url(#SVGID_00000143577955802442592480000002203754281712142514_);">
		<path class="st9" d="M98.9,26.51c0.22,0.38,0.41,0.78,0.62,1.17c0.21,0.39,0.43,0.77,0.62,1.17c0.19,0.4,0.25,0.85,0.42,1.26
			c0.17,0.4,0.37,0.8,0.53,1.21c0.16,0.41,0.47,0.77,0.61,1.18c0.15,0.41,0.21,0.86,0.35,1.28c0.13,0.42,0.24,0.85,0.36,1.27
			c0.12,0.42,0.25,0.84,0.37,1.27c0.11,0.42,0.31,0.83,0.42,1.26c0.11,0.43,0.12,0.88,0.21,1.31c0.1,0.43,0.1,0.88,0.2,1.31
			c0.09,0.43,0.2,0.86,0.29,1.29s0.33,0.83,0.42,1.26c0.08,0.39,0.01,0.84,0.12,1.26c0.1,0.39,0.33,0.77,0.45,1.18
			c0.12,0.39,0.26,0.79,0.4,1.19c0.14,0.39,0.22,0.81,0.39,1.2c0.17,0.38,0.47,0.7,0.67,1.07c0.2,0.37,0.31,0.79,0.54,1.14
			c0.23,0.35,0.55,0.64,0.82,0.96c0.27,0.32,0.52,0.66,0.83,0.94c0.32,0.28,0.63,0.57,0.98,0.79c0.36,0.22,0.74,0.4,1.14,0.54
			c0.38,0.14,0.81,0.14,1.24,0.2c0.43,0.06,0.85,0.22,1.27,0.2c0.43-0.02,0.87-0.06,1.28-0.15c0.42-0.09,0.8-0.33,1.18-0.5
			c0.39-0.17,0.79-0.33,1.14-0.56c0.35-0.23,0.69-0.5,1-0.79c0.31-0.28,0.54-0.65,0.81-0.98c0.27-0.32,0.68-0.55,0.91-0.91
			c0.23-0.35,0.4-0.76,0.59-1.14c0.19-0.38,0.3-0.8,0.45-1.2c0.15-0.4,0.36-0.78,0.46-1.19c0.11-0.43,0.15-0.88,0.24-1.31
			c0.09-0.43,0.09-0.88,0.17-1.32c0.07-0.44,0.19-0.87,0.25-1.31c0.06-0.44,0.13-0.88,0.17-1.32c0.04-0.44,0.15-0.88,0.18-1.32
			c0.03-0.44-0.06-0.89-0.04-1.34c0.01-0.44,0.12-0.89,0.12-1.33c0-0.44-0.08-0.89-0.1-1.33c-0.02-0.44-0.13-0.88-0.16-1.32
			c-0.04-0.44,0.02-0.89-0.03-1.33c-0.05-0.44-0.17-0.87-0.24-1.31c-0.07-0.44-0.12-0.88-0.21-1.31c-0.04-0.24-0.11-0.7-0.25-1.31
			c-0.09-0.38-0.23-0.81-0.35-1.28c-0.1-0.4-0.1-0.86-0.21-1.31c-0.1-0.42-0.28-0.83-0.4-1.27c-0.11-0.43-0.3-0.84-0.41-1.27
			c-0.12-0.44-0.25-0.86-0.38-1.28c-0.13-0.44-0.18-0.89-0.31-1.3c-0.14-0.45-0.25-0.92-0.39-1.31c-0.36-0.03-0.8,0.04-1.22,0.01
			c-0.38-0.02-0.77-0.11-1.17-0.13c-0.39-0.02-0.78-0.08-1.18-0.09c-0.4-0.01-0.8,0.11-1.19,0.1c-0.4-0.01-0.8-0.17-1.18-0.17
			c-0.42-0.01-0.81,0.08-1.18,0.08c-0.41,0-0.83,0.02-1.24,0.03c-0.41,0.01-0.83,0.03-1.24,0.04c-0.41,0.01-0.83-0.1-1.25-0.08
			c-0.41,0.02-0.82,0.18-1.23,0.21c-0.41,0.03-0.83,0.05-1.24,0.08c-0.41,0.03-0.82,0.11-1.23,0.15c-0.41,0.04-0.82,0.09-1.23,0.13
			c-0.41,0.05-0.83,0.04-1.24,0.09c-0.41,0.05-0.82,0.13-1.22,0.19c-0.41,0.06-0.83,0.05-1.24,0.12c-0.41,0.07-0.81,0.18-1.22,0.25
			c-0.41,0.07-0.82,0.14-1.22,0.22c-0.41,0.08-0.88,0.14-1.28,0.22c0.27,0.24,0.59,0.61,0.87,0.99c0.24,0.32,0.5,0.66,0.73,1.02
			c0.22,0.36,0.4,0.75,0.6,1.11c0.22,0.39,0.37,0.8,0.54,1.13C98.46,25.97,98.78,26.31,98.9,26.51z"/>
	</g>
	<g style="clip-path:url(#SVGID_00000143577955802442592480000002203754281712142514_);">
		<path class="st9" d="M152.36,58.71c-0.18,0.36-0.38,0.73-0.56,1.12c-0.16,0.37-0.17,0.82-0.32,1.22
			c-0.15,0.39-0.46,0.72-0.59,1.12c-0.13,0.4-0.21,0.82-0.31,1.22c-0.1,0.41-0.04,0.85-0.11,1.26c-0.07,0.42-0.29,0.81-0.32,1.23
			c-0.03,0.42,0.07,0.85,0.09,1.26c0.02,0.42,0.04,0.84,0.12,1.25c0.08,0.41,0.23,0.8,0.38,1.19c0.15,0.39,0.38,0.72,0.61,1.08
			c0.22,0.35,0.41,0.71,0.71,1.02c0.31,0.31,0.63,0.58,0.97,0.82c0.35,0.25,0.7,0.49,1.08,0.66c0.39,0.18,0.8,0.29,1.21,0.4
			c0.41,0.11,0.81,0.31,1.24,0.34c0.42,0.03,0.86,0,1.29-0.03c0.42-0.03,0.82-0.26,1.23-0.34c0.41-0.09,0.84-0.12,1.24-0.26
			c0.4-0.14,0.8-0.27,1.19-0.46c0.38-0.18,0.75-0.4,1.11-0.62c0.36-0.23,0.65-0.54,0.98-0.81c0.34-0.27,0.74-0.48,1.06-0.77
			c0.32-0.29,0.71-0.53,1.01-0.85c0.31-0.31,0.59-0.65,0.88-0.98c0.29-0.33,0.44-0.77,0.71-1.12c0.27-0.34,0.67-0.59,0.92-0.95
			c0.26-0.35,0.4-0.79,0.65-1.15c0.24-0.36,0.48-0.73,0.71-1.11c0.23-0.37,0.53-0.7,0.76-1.08c0.22-0.38,0.32-0.83,0.53-1.21
			c0.21-0.38,0.53-0.71,0.74-1.09c0.21-0.39,0.34-0.79,0.54-1.18c-0.15-0.41-0.24-0.82-0.39-1.23c-0.16-0.41-0.27-0.83-0.44-1.24
			c-0.17-0.4-0.35-0.8-0.53-1.2c-0.18-0.4-0.46-0.75-0.65-1.14c-0.19-0.39-0.26-0.85-0.46-1.23c-0.2-0.39-0.39-0.79-0.6-1.17
			c-0.21-0.38-0.52-0.71-0.74-1.09c-0.22-0.38-0.41-0.78-0.63-1.15c-0.23-0.37-0.47-0.73-0.71-1.1c-0.24-0.37-0.56-0.67-0.81-1.03
			c-0.25-0.36-0.34-0.83-0.6-1.18c-0.26-0.35-0.56-0.67-0.83-1.02c-0.26-0.35-0.59-0.65-0.86-0.99c-0.27-0.34-0.48-0.74-0.76-1.07
			c-0.28-0.34-0.61-0.63-0.9-0.96c-0.29-0.33-0.64-0.6-0.93-0.92c-0.29-0.32-0.55-0.68-0.85-1c-0.3-0.32-0.59-0.64-0.9-0.95
			c-0.31-0.31-0.64-0.7-0.96-1c-0.05,0.38-0.07,0.84-0.12,1.19c-0.06,0.4-0.23,0.75-0.29,1.08c-0.09,0.5-0.09,0.9-0.12,1.11
			c-0.06,0.44-0.04,0.89-0.12,1.32c-0.08,0.43-0.26,0.85-0.35,1.28c-0.09,0.43-0.13,0.87-0.24,1.3c-0.11,0.43-0.24,0.85-0.37,1.27
			c-0.12,0.42-0.29,0.83-0.42,1.25c-0.14,0.42-0.24,0.85-0.39,1.26c-0.15,0.41-0.41,0.79-0.57,1.2c-0.16,0.41-0.26,0.84-0.43,1.25
			c-0.17,0.41-0.27,0.84-0.45,1.24c-0.18,0.4-0.34,0.81-0.53,1.21c-0.18,0.4-0.44,0.77-0.63,1.16c-0.19,0.4-0.42,0.77-0.62,1.17
			S152.56,58.32,152.36,58.71z"/>
	</g>
	<g style="clip-path:url(#SVGID_00000143577955802442592480000002203754281712142514_);">
		<path class="st9" d="M61.49,72.8c0.35,0.24,0.73,0.43,1.1,0.63c0.37,0.2,0.71,0.49,1.1,0.65c0.39,0.16,0.82,0.24,1.23,0.36
			c0.41,0.12,0.81,0.31,1.23,0.37c0.42,0.06,0.86-0.06,1.28-0.05c0.43,0.01,0.85,0.02,1.27-0.04c0.42-0.06,0.81-0.21,1.22-0.34
			c0.4-0.13,0.82-0.21,1.2-0.41c0.37-0.2,0.72-0.44,1.06-0.71c0.32-0.26,0.62-0.56,0.91-0.89c0.28-0.33,0.58-0.63,0.78-0.99
			c0.21-0.37,0.29-0.79,0.42-1.19c0.13-0.4,0.28-0.79,0.34-1.21c0.06-0.41,0.11-0.84,0.1-1.26c0-0.41-0.2-0.82-0.26-1.24
			c-0.05-0.41,0.06-0.86-0.03-1.27c-0.09-0.41-0.24-0.81-0.36-1.21c-0.12-0.4-0.41-0.75-0.55-1.14c-0.15-0.4-0.15-0.85-0.32-1.23
			c-0.17-0.39-0.46-0.72-0.64-1.08c-0.2-0.39-0.37-0.77-0.57-1.11c-0.22-0.38-0.47-0.74-0.69-1.13c-0.21-0.38-0.48-0.74-0.69-1.13
			c-0.21-0.39-0.35-0.81-0.56-1.2c-0.21-0.39-0.42-0.77-0.62-1.17c-0.2-0.39-0.37-0.8-0.56-1.2c-0.19-0.4-0.41-0.78-0.59-1.18
			c-0.18-0.4-0.23-0.86-0.41-1.26c-0.17-0.4-0.37-0.8-0.53-1.21c-0.16-0.41-0.48-0.76-0.63-1.18c-0.15-0.41-0.21-0.86-0.35-1.28
			c-0.13-0.42-0.23-0.85-0.35-1.27c-0.12-0.42-0.24-0.85-0.34-1.28c-0.1-0.43-0.29-0.84-0.37-1.27c-0.05-0.25-0.08-0.8-0.23-1.46
			c-0.1-0.44-0.11-0.95-0.21-1.46c-0.09-0.48-0.24-1.03-0.3-1.51c-0.31,0.3-0.59,0.74-0.9,1.05c-0.3,0.31-0.73,0.5-1.02,0.81
			c-0.3,0.31-0.5,0.72-0.79,1.04c-0.29,0.32-0.57,0.65-0.86,0.97c-0.28,0.33-0.63,0.6-0.91,0.93c-0.28,0.33-0.44,0.76-0.7,1.1
			c-0.27,0.34-0.63,0.6-0.89,0.95c-0.26,0.35-0.45,0.74-0.7,1.09c-0.25,0.35-0.55,0.67-0.79,1.03c-0.24,0.36-0.53,0.69-0.76,1.05
			c-0.23,0.36-0.46,0.73-0.68,1.1c-0.23,0.37-0.35,0.8-0.57,1.17c-0.22,0.37-0.55,0.68-0.76,1.06c-0.21,0.38-0.43,0.76-0.62,1.14
			c-0.2,0.38-0.29,0.82-0.47,1.21c-0.19,0.39-0.41,0.76-0.59,1.16c-0.18,0.39-0.33,0.8-0.5,1.2c-0.17,0.4-0.23,0.84-0.38,1.24
			c-0.16,0.4-0.49,0.78-0.64,1.19c0.17,0.31,0.38,0.58,0.46,0.72c0.22,0.38,0.51,0.72,0.74,1.11c0.23,0.38,0.37,0.81,0.61,1.19
			c0.23,0.38,0.52,0.72,0.76,1.1c0.24,0.37,0.55,0.7,0.8,1.07c0.25,0.37,0.45,0.77,0.7,1.13c0.26,0.36,0.5,0.74,0.77,1.09
			c0.27,0.36,0.48,0.76,0.75,1.1c0.28,0.35,0.65,0.62,0.94,0.95c0.3,0.33,0.51,0.74,0.82,1.06c0.31,0.32,0.68,0.58,1.01,0.88
			c0.33,0.3,0.72,0.53,1.06,0.81C60.79,72.25,61.12,72.54,61.49,72.8z"/>
	</g>
	<path style="clip-path:url(#SVGID_00000143577955802442592480000002203754281712142514_);fill:#E18A43;" d="M215.73,112.93
		c0-3.65-0.31-7.23-0.9-10.7c-4.63,27.75-27,48.97-53.71,48.97H61.93c-26.7,0-49.07-21.22-53.71-48.97c-0.58,3.48-0.9,7.05-0.9,10.7
		v0c0,4.29,0.43,8.47,1.23,12.5c2.35,47.37,47.8,51.17,103.52,51.17c57.23,0,103.62-4,103.62-55.1l-0.76,1.46
		C215.45,119.7,215.73,116.35,215.73,112.93L215.73,112.93z"/>
	<g style="clip-path:url(#SVGID_00000143577955802442592480000002203754281712142514_);">
		<path class="st4" d="M219.25,109.22c-0.04-0.94,0.04-1.89-0.05-2.81c-0.09-0.93-0.57-1.82-0.7-2.74c-0.13-0.93-0.01-1.9-0.18-2.81
			c-0.18-0.92-0.72-1.76-0.94-2.66c-0.22-0.91-0.26-1.86-0.53-2.76c-0.27-0.9-0.61-1.77-0.92-2.65c-0.31-0.88-0.51-1.81-0.86-2.67
			c-0.35-0.87-0.93-1.63-1.32-2.48c-0.39-0.85-0.62-1.77-1.06-2.6c-0.43-0.83-0.93-1.62-1.4-2.43c-0.47-0.81-1.2-1.45-1.71-2.23
			c-0.51-0.78-0.59-1.86-1.14-2.62c-0.55-0.76-1.27-1.39-1.86-2.12c-0.58-0.73-1.12-1.51-1.74-2.21c-0.62-0.7-1.54-1.12-2.19-1.79
			c-0.65-0.67-1.19-1.45-1.87-2.09c-0.68-0.64-1.37-1.27-2.08-1.87c-0.71-0.6-1.38-1.27-2.12-1.84c-0.74-0.57-1.62-0.95-2.39-1.48
			c-0.77-0.53-1.46-1.17-2.26-1.67c-0.79-0.49-1.71-0.77-2.53-1.23c-0.81-0.45-1.53-1.1-2.37-1.52c-0.83-0.41-1.61-0.98-2.47-1.35
			c-0.85-0.37-1.86-0.38-2.74-0.71c-0.87-0.33-1.68-0.85-2.57-1.15c-0.88-0.29-1.95-0.31-2.85-0.56c-0.34-0.87-0.61-1.86-0.99-2.7
			c-0.38-0.85-0.81-1.67-1.24-2.5c-0.43-0.82-0.61-1.79-1.08-2.59c-0.47-0.8-1.29-1.39-1.8-2.17c-0.51-0.78-0.95-1.6-1.5-2.35
			c-0.55-0.75-1.09-1.5-1.67-2.23c-0.58-0.72-1.42-1.22-2.03-1.92c-0.61-0.69-1.08-1.52-1.73-2.19c-0.65-0.67-1.09-1.54-1.77-2.18
			c-0.67-0.64-1.35-1.29-2.06-1.9c-0.7-0.61-1.51-1.09-2.24-1.67c-0.73-0.58-1.49-1.11-2.25-1.66c-0.75-0.55-1.66-0.86-2.43-1.38
			c-0.77-0.51-1.47-1.14-2.27-1.62c-0.79-0.48-1.67-0.81-2.49-1.26c-0.81-0.45-1.63-0.87-2.46-1.3c-0.83-0.42-1.54-1.07-2.39-1.46
			c-0.84-0.39-1.72-0.71-2.58-1.07c-0.86-0.36-1.67-0.83-2.55-1.15c-0.87-0.33-1.78-0.54-2.67-0.84c-0.88-0.29-1.84-0.32-2.74-0.58
			c-0.89-0.26-1.71-0.79-2.61-1.02c-0.9-0.23-1.83-0.35-2.74-0.54c-0.91-0.2-1.83-0.32-2.75-0.48c-0.91-0.16-1.85-0.12-2.78-0.25
			c-0.92-0.13-1.79-0.58-2.72-0.68c-0.92-0.1-1.84-0.28-2.77-0.35c-0.92-0.07-1.87,0.09-2.8,0.06c-0.93-0.03-1.85-0.2-2.79-0.2
			c-0.93,0-1.86,0.28-2.78,0.31c-0.93,0.03-1.86-0.02-2.79,0.04c-0.93,0.07-1.88-0.13-2.81-0.03c-0.93,0.1-1.84,0.36-2.76,0.49
			c-0.92,0.13-1.89,0.01-2.8,0.17c-0.92,0.16-1.74,0.83-2.64,1.03c-0.91,0.2-1.88,0.14-2.78,0.36c-0.9,0.23-1.73,0.74-2.62,1
			c-0.89,0.26-1.82,0.39-2.7,0.69c-0.88,0.3-1.76,0.62-2.63,0.94c-0.87,0.33-1.8,0.51-2.66,0.87c-0.86,0.36-1.66,0.86-2.5,1.25
			c-0.85,0.39-1.61,0.95-2.43,1.37c-0.83,0.42-1.61,0.91-2.42,1.37c-0.81,0.46-1.79,0.62-2.59,1.1c-0.8,0.49-1.6,0.97-2.37,1.49
			c-0.78,0.52-1.3,1.39-2.05,1.93c-0.75,0.55-1.64,0.91-2.37,1.48c-0.73,0.58-1.39,1.24-2.09,1.85c-0.71,0.61-1.58,1.04-2.25,1.67
			c-0.68,0.64-1.2,1.44-1.84,2.11c-0.65,0.67-1.35,1.29-1.96,1.98c-0.62,0.7-1.11,1.5-1.69,2.22c-0.58,0.73-1.19,1.43-1.74,2.18
			c-0.55,0.75-1.04,1.54-1.55,2.32c-0.51,0.78-1.18,1.46-1.65,2.26c-0.47,0.8-0.69,1.74-1.12,2.57c-0.43,0.83-0.91,1.62-1.29,2.47
			s-0.72,1.76-1.06,2.63c-0.9,0.25-1.89,0.37-2.78,0.66c-0.89,0.29-1.73,0.72-2.6,1.05c-0.88,0.33-1.79,0.57-2.64,0.94
			c-0.86,0.38-1.72,0.75-2.56,1.16c-0.84,0.42-1.6,0.97-2.42,1.43c-0.82,0.46-1.72,0.77-2.51,1.26c-0.79,0.49-1.41,1.27-2.17,1.8
			c-0.77,0.53-1.39,1.25-2.13,1.82c-0.74,0.57-1.88,0.64-2.6,1.24c-0.71,0.6-1.2,1.47-1.88,2.11c-0.68,0.64-1.31,1.32-1.97,1.99
			c-0.65,0.67-1.39,1.26-2.01,1.96c-0.62,0.7-1.42,1.26-2,1.99c-0.58,0.73-0.89,1.68-1.44,2.44c-0.55,0.76-1.08,1.52-1.6,2.3
			c-0.51,0.78-0.97,1.6-1.44,2.4c-0.47,0.81-1.21,1.47-1.64,2.3c-0.43,0.83-0.66,1.77-1.05,2.62C8.77,88.41,8.35,89.25,8,90.12
			c-0.35,0.86-0.74,1.72-1.05,2.61c-0.31,0.88-0.4,1.83-0.67,2.73c-0.27,0.89-0.66,1.76-0.88,2.67c-0.22,0.91-0.56,1.8-0.74,2.72
			c-0.18,0.91-0.38,1.84-0.52,2.77c-0.13,0.92,0.14,1.9,0.05,2.83c-0.09,0.93-0.43,1.84-0.47,2.78c-0.04,0.93-0.13,1.87-0.13,2.81
			c0,0.62-0.09,1.25-0.1,1.89c-0.01,0.62,0.35,1.26,0.35,1.9c0,0.63-0.34,1.27-0.32,1.9c0.01,0.63,0.07,1.27,0.1,1.9
			c0.04,0.64,0.39,1.24,0.46,1.86c0.07,0.64,0.16,1.25,0.29,1.86c0.14,0.68-0.09,1.43-0.02,2.13c0.08,0.69,0.25,1.38,0.3,2.08
			c0.05,0.7,0.13,1.4,0.2,2.09c0.07,0.7,0.01,1.42,0.13,2.11c0.11,0.63,0.47,1.2,0.6,1.83c0.13,0.62,0.3,1.23,0.45,1.85
			c0.15,0.62,0.16,1.27,0.33,1.88c0.17,0.61,0.31,1.23,0.5,1.84c0.19,0.61,0.25,1.26,0.46,1.86c0.21,0.6,0.76,1.07,1,1.66
			c0.24,0.59,0.54,1.14,0.8,1.72c0.26,0.58,0.42,1.2,0.7,1.77c0.29,0.59,0.58,1.17,0.9,1.74c0.32,0.57,0.73,1.08,1.08,1.64
			c0.35,0.56,0.4,1.31,0.77,1.85c0.37,0.54,0.83,1.03,1.22,1.55c0.4,0.52,0.81,1.04,1.23,1.54c0.42,0.5,1,0.86,1.45,1.35
			c0.44,0.48,0.8,1.05,1.26,1.51c0.46,0.47,0.94,0.92,1.42,1.37c0.48,0.45,1.03,0.81,1.53,1.23c0.5,0.42,1,0.84,1.52,1.24
			c0.51,0.4,0.91,0.97,1.44,1.36c0.53,0.38,1.27,0.47,1.81,0.84c0.54,0.36,1.07,0.75,1.63,1.09c0.56,0.34,1.11,0.69,1.68,1.01
			c0.57,0.32,1.02,0.86,1.61,1.16c0.51,0.27,1.17,0.23,1.69,0.49c0.52,0.25,0.89,0.82,1.42,1.06c0.53,0.24,1.19,0.17,1.72,0.4
			c0.53,0.22,0.99,0.62,1.53,0.83c0.6,0.24,1.17,0.53,1.78,0.76c0.6,0.22,1.28,0.24,1.89,0.45c0.61,0.21,1.18,0.53,1.8,0.73
			c0.61,0.19,1.27,0.23,1.89,0.41c0.61,0.18,1.23,0.38,1.85,0.55c0.62,0.17,1.24,0.33,1.87,0.49c0.62,0.16,1.2,0.51,1.83,0.66
			c0.62,0.15,1.25,0.31,1.88,0.44c0.63,0.13,1.32-0.03,1.95,0.1c0.63,0.13,1.21,0.5,1.85,0.62c0.63,0.12,1.24,0.36,1.88,0.47
			c0.63,0.11,1.28,0.12,1.93,0.22c0.63,0.1,1.3-0.01,1.94,0.09c0.63,0.09,1.27,0.13,1.92,0.22c0.63,0.08,1.25,0.37,1.89,0.44
			c0.63,0.08,1.27,0.16,1.92,0.23c0.64,0.07,1.28,0.09,1.93,0.16c0.64,0.06,1.27,0.26,1.91,0.32c0.64,0.06,1.31-0.19,1.95-0.13
			c0.64,0.05,1.27,0.24,1.92,0.29c0.64,0.05,1.27,0.23,1.92,0.28c0.64,0.04,1.3-0.19,1.95-0.15c0.64,0.04,1.27,0.39,1.91,0.43
			c0.64,0.04,1.3-0.28,1.95-0.24c0.64,0.03,1.27,0.31,1.92,0.34c0.64,0.03,1.28,0.11,1.93,0.14c0.64,0.03,1.28,0.05,1.93,0.08
			c0.64,0.02,1.29-0.22,1.94-0.2c0.64,0.02,1.28,0.21,1.93,0.23c0.64,0.02,1.29-0.13,1.94-0.11c0.64,0.02,1.29,0.09,1.94,0.1
			c0.64,0.01,1.29-0.12,1.94-0.11c0.64,0.01,1.28,0.28,1.93,0.29c0.64,0.01,1.29-0.21,1.94-0.2c0.64,0.01,1.29,0.2,1.94,0.2
			c0.64,0.01,1.29-0.21,1.94-0.2c0.64,0,1.29,0.27,1.93,0.27c0.64,0,1.29-0.03,1.94-0.03c0.64,0,1.29-0.04,1.94-0.04
			c0.65,0,1.3,0.23,1.94,0.23c0.65,0,1.3-0.31,1.94-0.31c0.65,0,1.3,0.16,1.94,0.16c0.65,0,1.3,0.03,1.94,0.02
			c0.65-0.01,1.29-0.27,1.94-0.28c0.65-0.01,1.3,0.15,1.94,0.14c0.65-0.01,1.29-0.24,1.93-0.25c0.65-0.01,1.29-0.01,1.94-0.02
			c0.65-0.01,1.3,0.03,1.94,0.02c0.65-0.02,1.3,0.12,1.94,0.1c0.65-0.02,1.29-0.06,1.93-0.08c0.65-0.02,1.29-0.13,1.93-0.15
			c0.65-0.02,1.3,0.21,1.94,0.18c0.65-0.03,1.28-0.38,1.92-0.4c0.65-0.03,1.3,0.02,1.94-0.01c0.65-0.03,1.3,0.14,1.94,0.1
			c0.65-0.04,1.28-0.23,1.92-0.27c0.65-0.04,1.3,0.07,1.94,0.03c0.65-0.05,1.29-0.06,1.93-0.11c0.65-0.05,1.29-0.12,1.93-0.17
			c0.65-0.06,1.26-0.41,1.9-0.47c0.65-0.06,1.32,0.19,1.96,0.12c0.65-0.07,1.27-0.32,1.91-0.39c0.65-0.07,1.31,0.07,1.95-0.01
			c0.64-0.08,1.25-0.44,1.88-0.52c0.64-0.09,1.28-0.16,1.92-0.25c0.64-0.09,1.27-0.26,1.9-0.35c0.64-0.1,1.29-0.09,1.93-0.2
			c0.64-0.11,1.26-0.29,1.89-0.4c0.64-0.12,1.32,0.02,1.95-0.1c0.64-0.13,1.22-0.49,1.85-0.62c0.63-0.14,1.24-0.36,1.86-0.5
			c0.63-0.15,1.3-0.13,1.92-0.29c0.63-0.16,1.23-0.39,1.85-0.56c0.63-0.17,1.29-0.2,1.9-0.38c0.62-0.18,1.24-0.38,1.85-0.57
			c0.62-0.2,1.19-0.53,1.79-0.74c0.61-0.21,1.22-0.42,1.82-0.64c0.61-0.22,1.21-0.44,1.81-0.67c0.62-0.24,1.23-0.51,1.85-0.77
			c0.61-0.26,1.2-0.58,1.81-0.86c0.61-0.28,1.2-0.57,1.8-0.87c0.59-0.3,1.17-0.61,1.75-0.92c0.58-0.32,1.11-0.72,1.67-1.06
			c0.57-0.34,1.3-0.4,1.86-0.76c0.56-0.36,1-0.89,1.54-1.27c0.54-0.38,1.18-0.63,1.71-1.03c0.53-0.4,0.91-0.98,1.42-1.4
			c0.51-0.42,1.2-0.63,1.7-1.07c0.49-0.44,0.79-1.09,1.27-1.55c0.47-0.46,1.04-0.83,1.49-1.31c0.45-0.48,0.88-0.99,1.31-1.49
			c0.43-0.5,0.72-1.12,1.13-1.64c0.41-0.52,0.97-0.93,1.35-1.46c0.38-0.54,0.63-1.17,0.99-1.72c0.36-0.55,0.85-1.03,1.18-1.6
			c0.33-0.57,0.46-1.25,0.77-1.84c0.3-0.57,0.73-1.08,1-1.66c0.27-0.59,0.31-1.27,0.56-1.86c0.25-0.6,0.52-1.18,0.74-1.78
			c0.22-0.61,0.7-1.13,0.89-1.74c0.2-0.61,0.34-1.25,0.51-1.87c0.17-0.62,0.14-1.3,0.29-1.92c0.15-0.63,0.31-1.25,0.45-1.88
			c0.13-0.63,0.16-1.28,0.27-1.91c0.12-0.63,0.57-1.21,0.68-1.85c0.1-0.64,0.06-1.3,0.15-1.94c0.09-0.64-0.01-1.3,0.06-1.94
			c0.07-0.64,0.25-1.27,0.31-1.91c0.06-0.64-0.01-1.29,0.05-1.94c0.05-0.64,0.25-1.27,0.29-1.92c0.05-0.64,0.02-1.29,0.05-1.94
			c0.04-0.65,0.34-1.28,0.37-1.92c0.03-0.64-0.02-1.29,0.01-1.93c0.04-0.92,0.26-1.84,0.26-2.76
			C219.39,111.09,219.29,110.15,219.25,109.22z M111.3,170.85c-0.65,0-1.29-0.02-1.94-0.02c-0.65,0-1.29,0.37-1.94,0.37
			c-0.65,0-1.29-0.35-1.94-0.35s-1.29,0.23-1.94,0.23c-0.65,0-1.29-0.11-1.94-0.12c-0.65-0.01-1.29,0.06-1.94,0.06
			c-0.65-0.01-1.29-0.22-1.93-0.23c-0.65-0.01-1.3,0.22-1.94,0.21s-1.29-0.11-1.94-0.12c-0.65-0.02-1.29-0.07-1.94-0.09
			c-0.65-0.02-1.3,0.14-1.94,0.12c-0.65-0.02-1.28-0.43-1.92-0.46s-1.29,0.04-1.94,0.01c-0.65-0.03-1.29-0.14-1.93-0.17
			c-0.64-0.03-1.3,0.25-1.94,0.21c-0.64-0.03-1.28-0.08-1.93-0.12c-0.64-0.03-1.29-0.01-1.93-0.05c-0.64-0.04-1.26-0.42-1.91-0.46
			c-0.64-0.04-1.31,0.28-1.95,0.24c-0.64-0.04-1.26-0.45-1.9-0.5c-0.64-0.05-1.3,0.15-1.95,0.09c-0.64-0.06-1.28-0.14-1.92-0.2
			c-0.64-0.06-1.27-0.29-1.91-0.36c-0.64-0.07-1.3-0.01-1.94-0.08c-0.64-0.08-1.25-0.35-1.89-0.43c-0.64-0.08-1.33,0.2-1.97,0.11
			c-0.64-0.09-1.28-0.19-1.92-0.29c-0.64-0.1-1.28-0.2-1.91-0.32c-0.64-0.11-1.2-0.61-1.83-0.73c-0.63-0.12-1.34,0.14-1.97,0
			c-0.63-0.13-1.25-0.36-1.87-0.5c-0.63-0.15-1.2-0.53-1.82-0.69c-0.63-0.16-1.34,0.01-1.96-0.16c-0.62-0.17-1.19-0.53-1.81-0.71
			c-0.62-0.19-1.21-0.45-1.82-0.65c-0.61-0.2-1.17-0.56-1.78-0.77c-0.61-0.22-1.28-0.25-1.88-0.48c-0.6-0.23-1.13-0.64-1.72-0.89
			c-0.59-0.25-1.33-0.18-1.92-0.45c-0.59-0.27-1.07-0.75-1.65-1.04c-0.58-0.29-1.23-0.43-1.8-0.74c-0.57-0.31-1.12-0.65-1.68-0.98
			c-0.56-0.33-1.05-0.76-1.59-1.11c-0.55-0.35-1.17-0.6-1.69-0.97c-0.54-0.38-0.88-1-1.39-1.39c-0.52-0.4-1.17-0.62-1.66-1.04
			c-0.49-0.43-1.01-0.84-1.47-1.28c-0.47-0.45-0.91-0.94-1.35-1.4c-0.45-0.48-0.79-1.04-1.21-1.53c-0.42-0.5-0.96-0.9-1.35-1.41
			c-0.39-0.52-0.78-1.05-1.14-1.59c-0.36-0.54-0.41-1.28-0.74-1.83c-0.33-0.56-0.61-1.13-0.91-1.7c-0.3-0.57-0.9-1-1.18-1.58
			c-0.27-0.59-0.49-1.21-0.73-1.8c-0.25-0.6-0.59-1.17-0.81-1.78c-0.22-0.61-0.28-1.28-0.48-1.89c-0.2-0.62-0.3-1.26-0.47-1.89
			c-0.17-0.62-0.32-1.25-0.47-1.88c-0.15-0.63-0.16-1.28-0.29-1.92c-0.13-0.63-0.52-1.22-0.63-1.85c-0.11-0.64-0.15-1.29-0.24-1.93
			c-0.09-0.64-0.27-1.27-0.35-1.92c-0.08-0.64-0.07-1.29-0.13-1.94c-0.06-0.64,0.09-1.3,0.04-1.95c-0.05-0.64-0.12-1.28-0.16-1.93
			c-0.04-0.65-0.16-1.29-0.19-1.93c-0.03-0.65-0.2-1.29-0.21-1.94c-0.02-0.65,0.03-1.3,0.02-1.94c-0.01-0.65,0.21-1.3,0.21-1.94
			c0-0.91-0.32-1.83-0.27-2.73c0.05-0.91,0.04-1.83,0.14-2.73c0.1-0.91,0.37-1.79,0.52-2.69c0.14-0.9,0.17-1.82,0.36-2.71
			c0.19-0.89,0.55-1.74,0.79-2.62c0.24-0.88,0.47-1.76,0.75-2.62c0.29-0.87,0.65-1.7,0.98-2.55c0.33-0.85,0.69-1.68,1.07-2.51
			c0.38-0.83,0.59-1.74,1.01-2.55c0.42-0.81,1.01-1.52,1.48-2.3c0.46-0.78,0.84-1.63,1.34-2.38c0.5-0.76,1.08-1.47,1.62-2.2
			c0.54-0.73,1.08-1.47,1.67-2.16c0.58-0.7,1.05-1.51,1.67-2.18c0.62-0.67,1.54-1.04,2.19-1.68c0.65-0.63,1.18-1.4,1.87-2
			c0.69-0.6,1.63-0.87,2.35-1.43c0.72-0.56,1.22-1.4,1.96-1.92c0.74-0.52,1.61-0.85,2.39-1.33c0.77-0.48,1.62-0.8,2.42-1.24
			c0.8-0.44,1.43-1.19,2.25-1.59c0.82-0.39,1.58-0.95,2.42-1.3c0.84-0.35,1.88-0.19,2.74-0.49c0.85-0.3,1.69-0.64,2.57-0.9
			c0.87-0.26,1.67-0.79,2.56-1c0.58-0.14,1.06-0.32,1.46-0.74c0.4-0.41,0.91-0.81,1.11-1.36c0.3-0.86,0.38-1.82,0.74-2.66
			c0.35-0.84,1.01-1.56,1.41-2.38c0.4-0.82,0.68-1.71,1.13-2.51c0.45-0.8,1.12-1.46,1.62-2.23c0.49-0.77,0.95-1.56,1.49-2.3
			c0.54-0.74,0.87-1.64,1.45-2.35c0.57-0.71,1.49-1.13,2.1-1.82c0.61-0.68,1.06-1.5,1.71-2.15c0.64-0.65,1.33-1.26,2.01-1.88
			c0.67-0.61,1.5-1.05,2.21-1.64c0.7-0.58,1.33-1.26,2.06-1.81c0.73-0.55,1.33-1.29,2.09-1.81c0.75-0.52,1.61-0.89,2.39-1.37
			c0.78-0.48,1.61-0.86,2.41-1.32c0.8-0.45,1.61-0.86,2.43-1.28c0.81-0.41,1.48-1.14,2.32-1.53c0.83-0.38,1.89-0.24,2.74-0.59
			c0.84-0.35,1.67-0.73,2.53-1.04c0.86-0.31,1.58-1.05,2.45-1.33c0.87-0.28,1.8-0.4,2.68-0.65c0.88-0.24,1.84-0.17,2.74-0.38
			c0.89-0.21,1.76-0.47,2.67-0.64c0.9-0.17,1.77-0.5,2.68-0.64c0.9-0.14,1.83-0.07,2.75-0.17c0.91-0.1,1.79-0.44,2.71-0.51
			c0.91-0.07,1.83-0.2,2.74-0.24c0.91-0.03,1.83,0.12,2.75,0.12c0.92,0,1.83,0.1,2.75,0.13c0.92,0.03,1.82,0.18,2.73,0.25
			c0.92,0.07,1.87-0.29,2.78-0.18c0.91,0.1,1.8,0.45,2.7,0.58c0.91,0.14,1.82,0.24,2.72,0.41c0.9,0.17,1.76,0.56,2.65,0.77
			c0.89,0.21,1.84,0.22,2.72,0.47c0.89,0.24,1.65,0.89,2.52,1.16c0.88,0.28,1.74,0.54,2.6,0.85c0.86,0.31,1.76,0.51,2.61,0.85
			c0.85,0.35,1.77,0.52,2.6,0.9c0.84,0.38,1.57,0.97,2.38,1.38c0.82,0.42,1.57,0.93,2.37,1.38c0.8,0.45,1.69,0.74,2.47,1.22
			c0.78,0.48,1.57,0.95,2.33,1.46c0.76,0.52,1.44,1.14,2.17,1.68c0.73,0.55,1.6,0.94,2.3,1.52c0.71,0.59,1.45,1.15,2.12,1.76
			c0.68,0.62,1.21,1.4,1.86,2.04c0.65,0.65,1.19,1.4,1.8,2.08c0.61,0.68,1.35,1.26,1.93,1.97c0.58,0.71,0.85,1.65,1.39,2.39
			c0.54,0.74,1.37,1.28,1.86,2.05c0.5,0.77,0.91,1.6,1.36,2.4c0.45,0.8,0.72,1.69,1.12,2.51c0.4,0.82,0.96,1.58,1.31,2.42
			c0.35,0.84,0.62,1.72,0.93,2.59c0.2,0.56,0.63,0.94,1.05,1.33c0.42,0.39,0.87,0.66,1.45,0.79c0.89,0.21,1.74,0.57,2.61,0.83
			c0.88,0.26,1.7,0.67,2.55,0.97c0.86,0.31,1.73,0.56,2.57,0.91c0.84,0.35,1.73,0.59,2.55,0.99c0.82,0.4,1.56,0.95,2.36,1.38
			c0.8,0.44,1.51,1.01,2.28,1.49c0.77,0.48,1.63,0.83,2.37,1.35c0.75,0.52,1.5,1.03,2.22,1.59c0.72,0.56,1.4,1.16,2.09,1.76
			c0.69,0.6,1.39,1.18,2.04,1.82c0.65,0.63,1.17,1.4,1.79,2.06c0.62,0.67,1.41,1.19,1.99,1.88c0.58,0.7,1.03,1.51,1.57,2.24
			s1.14,1.42,1.64,2.18c0.5,0.76,0.86,1.61,1.32,2.39c0.46,0.78,1,1.52,1.42,2.33c0.42,0.81,1.05,1.52,1.43,2.35
			c0.38,0.83,0.37,1.82,0.71,2.67c0.33,0.85,0.82,1.63,1.11,2.5c0.29,0.86,0.32,1.8,0.56,2.68c0.24,0.88,0.47,1.75,0.66,2.64
			c0.19,0.89,0.35,1.77,0.49,2.68c0.14,0.9,0.5,1.76,0.6,2.67c0.1,0.9,0.21,1.81,0.26,2.72c0.05,0.9,0.21,1.82,0.21,2.73
			c0,0.66-0.07,1.32-0.08,1.98c-0.01,0.66,0.12,1.32,0.09,1.98c-0.02,0.66-0.31,1.31-0.35,1.96c-0.04,0.66,0.14,1.33,0.09,1.99
			c-0.05,0.66-0.29,1.3-0.36,1.96c-0.07,0.66,0.08,1.34,0,1.99c-0.08,0.66-0.43,1.28-0.53,1.93c-0.1,0.65-0.17,1.31-0.29,1.96
			c-0.12,0.65-0.2,1.31-0.33,1.95c-0.14,0.65-0.51,1.24-0.66,1.87c-0.15,0.64-0.02,1.35-0.2,1.99c-0.18,0.64-0.53,1.22-0.72,1.85
			c-0.2,0.63-0.44,1.24-0.66,1.86c-0.22,0.62-0.21,1.33-0.45,1.94c-0.25,0.61-0.65,1.16-0.92,1.76c-0.27,0.6-0.36,1.29-0.65,1.88
			c-0.3,0.59-0.63,1.17-0.95,1.74c-0.32,0.57-0.71,1.12-1.06,1.68c-0.35,0.56-0.84,1.03-1.21,1.57c-0.38,0.54-0.75,1.08-1.15,1.6
			c-0.4,0.52-0.76,1.08-1.19,1.58c-0.43,0.5-1.06,0.81-1.52,1.29c-0.45,0.47-0.69,1.17-1.18,1.62c-0.48,0.45-1.03,0.83-1.53,1.26
			c-0.5,0.42-1.14,0.67-1.67,1.07c-0.52,0.4-0.96,0.91-1.51,1.28c-0.54,0.37-1.17,0.6-1.74,0.94c-0.56,0.34-1.14,0.65-1.71,0.97
			c-0.57,0.32-1.14,0.65-1.72,0.95c-0.58,0.3-1.03,0.87-1.62,1.15c-0.59,0.28-1.32,0.27-1.92,0.54c-0.6,0.27-1.13,0.69-1.74,0.94
			c-0.61,0.25-1.3,0.28-1.91,0.51c-0.61,0.23-1.13,0.72-1.76,0.93c-0.62,0.21-1.25,0.4-1.88,0.6c-0.62,0.2-1.24,0.45-1.87,0.64
			c-0.63,0.18-1.29,0.25-1.93,0.42c-0.63,0.17-1.25,0.39-1.89,0.55c-0.64,0.15-1.34,0.04-1.98,0.18c-0.64,0.14-1.23,0.5-1.88,0.63
			c-0.64,0.13-1.27,0.33-1.92,0.45c-0.65,0.12-1.32,0.06-1.97,0.17c-0.65,0.11-1.28,0.28-1.93,0.38c-0.65,0.1-1.32,0.04-1.97,0.13
			c-0.65,0.09-1.3,0.18-1.95,0.26c-0.65,0.08-1.29,0.3-1.94,0.37c-0.65,0.07-1.31,0.14-1.96,0.2c-0.65,0.06-1.31,0.11-1.96,0.17
			c-0.65,0.06-1.31,0.13-1.96,0.18c-0.66,0.05-1.31,0.15-1.96,0.19c-0.66,0.05-1.31,0.09-1.97,0.13c-0.66,0.04-1.31,0.09-1.97,0.12
			c-0.66,0.04-1.31,0.16-1.97,0.2c-0.66,0.03-1.33-0.26-1.98-0.23c-0.66,0.03-1.3,0.26-1.95,0.29c-0.66,0.03-1.32-0.12-1.97-0.09
			c-0.65,0.03-1.29,0.27-1.94,0.29c-0.65,0.02-1.31-0.25-1.96-0.22s-1.29,0.31-1.94,0.33c-0.65,0.02-1.3-0.11-1.95-0.1
			c-0.65,0.02-1.3,0.05-1.95,0.07c-0.65,0.01-1.3,0.19-1.95,0.2c-0.65,0.01-1.3-0.18-1.95-0.17c-0.65,0.01-1.3,0.16-1.95,0.17
			c-0.65,0.01-1.3-0.15-1.95-0.15s-1.3,0.22-1.95,0.23c-0.65,0-1.3-0.17-1.95-0.16c-0.65,0-1.3,0.24-1.95,0.24
			S111.95,170.85,111.3,170.85z"/>
	</g>
</g>
</svg>
