<?xml version="1.0" encoding="utf-8"?>
<!-- Generator: Adobe Illustrator 26.1.0, SVG Export Plug-In . SVG Version: 6.00 Build 0)  -->
<svg version="1.1" id="圖層_1" xmlns="http://www.w3.org/2000/svg" xmlns:xlink="http://www.w3.org/1999/xlink" x="0px" y="0px"
	 viewBox="0 0 388.05 603.43" style="enable-background:new 0 0 388.05 603.43;" xml:space="preserve">
<style type="text/css">
	.st0{fill:#5266A0;}
	.st1{fill:#FFFFFF;}
	.st2{fill:#F4C144;}
	.st3{opacity:0.42;}
	.st4{fill:#8E570E;}
	.st5{fill:#161E3F;}
	.st6{fill:#162550;}
	.st7{opacity:0.25;}
	.st8{fill:#4C6296;}
	.st9{fill:#6C84C0;}
	.st10{fill:#F09EC0;}
	.st11{opacity:0.51;}
	.st12{fill:#DE679C;}
	.st13{fill:none;stroke:#161E3F;stroke-width:4;stroke-miterlimit:10;}
	.st14{fill:#F9D8E7;}
	.st15{fill:#FAEAD6;}
	.st16{fill:#515677;}
	.st17{fill:#7A7FA2;}
	.st18{fill:#F3A243;}
	.st19{fill:#7C551D;}
	.st20{fill:#FFBE2E;}
	.st21{fill:#C6C9D0;}
	.st22{fill:#E6E7EB;}
	.st23{fill:#31466A;}
	.st24{fill:#535A80;}
	.st25{fill:#363C4F;}
	.st26{fill:#231815;}
</style>
<g>
	<g>
		<path class="st16" d="M232.33,172.65c-1.61-1.38-3.16-2.87-4.65-4.49c-14.42-15.68-25.37-32.64-43.22-44.78
			c-16.36-11.13-35.55-16.34-55.01-16.34c-30.5,0-60.58,14.29-82.21,36.36c-17.83,18.19-27.14,42.45-33.65,67.06
			c-6.89,26.04-8.25,54.88-8.25,81.7c0,55.78,22.89,98,43.9,127.47c29.85,44.5,82.09,74,141.56,74
			c92.76,0,167.97-71.79,167.97-160.35c0-36.58-13.37-71.96-36.28-99.55c-11.64-14.02-25.55-25.94-40.87-35.36
			C265.5,188.48,246.72,184.97,232.33,172.65z"/>
	</g>
	<g>
		<path class="st17" d="M189.45,125.13c-45.99-26.7-103.29-11.74-137.49,26.73c-31.11,36.28-39.81,98-43.46,144.58
			c-1.64-26.05-0.07-52.34,5.12-78c5.47-25.84,14.08-51.93,31.79-72.33C81,105.74,144.9,90.53,189.45,125.13L189.45,125.13z"/>
	</g>
	<g class="st3">
		<path class="st6" d="M350.83,371.7c-0.14,0.57-0.28,1.15-0.44,1.72c-4.45,16.83-7.78,30.72-17.52,45.43
			c-10.13,15.3-22.83,28.71-37.21,39.7c-30.22,23.09-67.47,35.08-104.86,35.08c-27.45,0-55.49-6.31-80.41-18.33
			c-27.23-13.14-54.59-46.6-74.4-72.65c58.29,58.25,111.21,50.59,160.46,21.63c31-18.22,58.11-30.82,93.74-35.76
			c17.23-2.39,35.19,0.46,47.3-15.34c10.74-14.03,15.66-35.05,18.77-52.32C353.23,337.68,354.93,354.67,350.83,371.7z"/>
	</g>
	<g>
		<path class="st1" d="M231.64,170.99c-13.29-11.62-23.89-26.76-37.36-38c-4.92-4.11-10.55-9.29-16.96-10.81
			c-11.46-2.72-15.73,8.77-16.01,17.69c-0.12,3.73-0.26,7.49-0.04,11.22c0.21,3.52,2.52,8.82,1.93,12.13
			c-1.03,5.83-11.25,8.3-16.1,5.51c-0.51-0.29-0.83-0.82-1.1-1.34c-1.44-2.72-2.26-5.72-3.3-8.62c-2.27-6.33-5.65-12.27-9.94-17.45
			c-9.65-11.66-28.66-16.3-42.7-10.6c-11.85,4.81-20.74,11.06-28.29,21.95c-11.4,16.44-15.54,37.09-16.79,56.94
			c-2.59,41.15,5.17,82.4,15.95,121.83c4.1,14.99,9.01,29.8,15.84,43.7c6.64,13.52,14.8,27.87,25.86,37.94
			c10.91,9.94,22.04,19.16,35.63,24.84c14.02,5.87,28.36,11.27,43.33,13.8c9.28,1.57,18.68,2.34,28.08,2.34
			c81.08,0,146.8-57.27,146.8-127.92c0-16.11-4.8-30.74-8.4-46.05c-4.8-20.43-16.83-35.94-30.24-50.97
			c-13.3-14.91-28.36-28.6-46.14-37.38c-6.42-3.17-12.94-6.12-19.55-8.83c-4.22-1.74-8.5-3.39-12.42-5.78
			C236.84,175.35,234.2,173.22,231.64,170.99z"/>
	</g>
	<g>
		<path class="st5" d="M232.1,172.91c-8.91-8.17-16.07-18-24.1-26.99c-23.36-28.89-59.2-42.39-95.57-35.19
			c-34.55,7.08-65.91,29.86-81.7,61.56C14.79,204.41,8.64,240.35,7.48,276.16c-3.43,50.43,9.3,94.22,37.93,135.77
			c25.87,40.93,68,68.79,115.84,76.36c97.14,16.86,194.18-55.13,194.12-156.16c0.35-53.7-29.48-106.11-75.45-133.91
			C264.52,188.84,245.98,184.88,232.1,172.91L232.1,172.91z M232.56,172.38c13.92,11.82,32.45,15.62,48.08,24.61
			c36.94,21.31,65.57,57.14,76.37,98.61c3.2,11.87,4.87,24.17,5.09,36.46c0.74,37-12.59,74.04-36.25,102.46
			c-64.74,79.42-191.11,82.98-260.38,7.62C31.55,403.73,7.52,354.93,4.1,303.31c-2.04-45.23,0.66-92.41,21.08-133.83
			c10.78-22.26,29.61-40.32,51.57-51.54c32.44-17.24,74.24-17.57,105.33,2.8C202.58,133.61,215.45,155.95,232.56,172.38
			L232.56,172.38z"/>
	</g>
	<g class="st7">
		<path class="st8" d="M209.66,454.05c71.27,0,130.65-44.26,143.99-102.95c0.68-10.12,0.81-20.21,2.61-30.24
			c-3.11,17.28-8.03,38.29-18.77,52.32c-12.11,15.81-30.07,12.96-47.3,15.34c-35.64,4.94-62.74,17.54-93.74,35.76
			c-14.6,8.58-29.53,15.27-44.82,18.95c9.76,3.65,19.71,6.74,29.95,8.47C190.86,453.28,200.26,454.05,209.66,454.05z"/>
	</g>
	<g>
		<path class="st18" d="M157.14,177.16c3.48-1.3,8.19-2.55,11.84-1.68c4.56,1.09,3.17,7.09,0.45,9.84
			c-1.87,1.89-4.29,3.18-6.84,3.98c-3.94,1.23-9.66,0.72-12.58-2.17C145,182.17,152.85,178.76,157.14,177.16z"/>
	</g>
	<g>
		<path class="st5" d="M157.05,176.91c3.66-1.17,7.25-4.36,11.56-3.87c6.85,0.95,5.95,7.8,2.34,11.76c-3.7,4.06-8.59,7.8-14.37,7.53
			c-3.94-0.02-8.41-1.68-10.19-5.6c-1.23-2.33-0.29-5.61,1.92-6.88C151.07,178.08,154.44,177.99,157.05,176.91L157.05,176.91z
			 M157.23,177.4c-2.57,0.94-6.43,3.93-6.3,6.54c2.39,3.54,8.48,4.24,12.73,3.44c2.3-0.41,4.71-1.6,5.91-3.56
			c0.99-1.46,1.14-4.5-0.07-5.54c-0.41-0.28-0.58-0.36-1.63-0.65C164.57,176.84,160.58,176.01,157.23,177.4L157.23,177.4z"/>
	</g>
	<g class="st3">
		<path class="st19" d="M157.14,177.16c3.48-1.3,8.19-2.55,11.84-1.68c4.56,1.09,3.17,7.09,0.45,9.84
			c-1.87,1.89-4.29,3.18-6.84,3.98c-3.94,1.23-9.66,0.72-12.58-2.17C145,182.17,152.85,178.76,157.14,177.16z"/>
	</g>
	<g>
		<path class="st18" d="M162.53,178.15c-5.66,2.11-13.32,4.1-19.31,2.5c-7.48-2-5.38-12.18-1.02-16.78
			c3.01-3.17,6.93-5.29,11.08-6.57c6.41-1.97,15.79-0.94,20.65,4.08C182.25,169.98,169.5,175.55,162.53,178.15z"/>
	</g>
	<g>
		<path class="st18" d="M170.55,411.67c12.64-4.29,9.85,32.53,8.31,37.52c-2.44,7.93-8.39,18.23-16.59,21.45
			c-19.9,7.81-36.91-16.65-42.83-31.67c-2.37-6.02-4.55-21.84,7.96-15.22c1.99,1.05,4.17,4.03,6.33,4.5
			c3.52,0.78,3.43-3.46,3.95-5.78c1-4.43,2.75-11.41,8.73-8.52c3.95,1.91,5.7,6.56,9.31,8.92c3.42,2.23,6.55,1.93,8.06-2.22
			C165.07,417.09,166.7,412.97,170.55,411.67z"/>
	</g>
	<g class="st3">
		<path class="st19" d="M180.09,443.65c-0.59,1.16,0.14,5.17-0.31,6.93c-0.71,2.77-2.3,5.66-3.72,8.12
			c-2.93,5.08-7.01,10.15-12.62,12.35c-10.8,4.24-21.2-1.51-28.65-9.25c-7.1-7.38-16.02-18.24-15.63-29.12
			c4.87,9.8,13.23,17.69,22.73,22.96c7.73,4.29,19.3,2.8,26.92-1.09C173.54,452.13,177.66,448.42,180.09,443.65z"/>
	</g>
	<g>
		<path class="st15" d="M161.21,160.95c-2.87,0.06-5.71,0.41-8.45,1.23c-6.25,1.87-11.66,6.59-12.84,13.21
			c-0.21,1.17,0.09,2.75-0.53,3.76c-3.16-2.56-2.58-6.54-0.42-9.45c2.77-3.75,2.38-5.67,6.17-8.39c3.8-2.73,8.84-4.9,13.53-5.28
			c3.9-0.32,8.49,2.38,10.83,5.32C166.75,161.08,163.97,160.89,161.21,160.95z"/>
	</g>
	<g>
		<path class="st5" d="M162.62,178.4c-5.96,2-12.14,5.83-18.9,4.75c-6.13-0.82-8.53-6.71-6.66-11.96
			c2.82-8.55,10.88-14.41,19.33-16.69c6.83-1.28,14.75-0.16,19.75,5.17c2.91,3.06,4.38,8,1.36,11.55
			C173.68,175.66,167.68,176.33,162.62,178.4L162.62,178.4z M162.44,177.91c4.63-1.82,11.37-5.86,11.65-10.92
			c-1.8-6.39-10.86-8.66-17.15-8.32c-7.46,0.15-16.95,4.5-17.04,13.03c-0.07,3.65,1.07,6.09,4.73,6.89
			C150.34,179.9,156.78,180.12,162.44,177.91L162.44,177.91z"/>
	</g>
	<g>
		<path class="st5" d="M100.86,163.33c3.06,3.36,9.94,13.19,13.18,6.03c0.84-1.99,1.24-4.53,1.65-7.3c1.7,2.27,2.62,5.08,2.37,8.21
			c-0.13,3.66-3.5,7.19-7.48,6.85C103.95,176.48,100.48,169.22,100.86,163.33L100.86,163.33z"/>
	</g>
	<g>
		<path class="st5" d="M178.3,149.52c2.48,2.63,4.45,5.05,7.07,7.11c1.01,0.7,1.58,1.07,2.45,1.05c0.04-0.05-0.28,0.23-0.25,0.32
			c0.87-2.13-0.03-6.06,0.61-9c2.19,2.41,3.99,5.17,4.34,8.55c0.35,2.87-1.96,5.56-4.99,5.37C181.12,162.35,178,155.15,178.3,149.52
			L178.3,149.52z"/>
	</g>
	<g>
		<path class="st16" d="M38.3,263.01c12.03-10.87,23.32-17.63,37.34-21.28c9.82-2.56,20.62-4.14,29.73,0.44
			c11.75,5.9-1.65,17.91-7.25,22.66c-16.86,14.3-33.05,31.93-40.9,53.45"/>
	</g>
	<g>
		<path class="st18" d="M329.11,347.6c-5.83-1-6.11,7.45-6.09,11.02c0.05,13.76,2.22,36.87,17.59,42.94
			c16.95,6.69,29.36-18.66,33.23-33.98c1.55-6.14,2.29-22.05-7.6-14.75c-1.57,1.16-3.18,4.25-4.92,4.84
			c-2.86,0.97-3.07-3.27-3.65-5.55c-1.12-4.36-3.03-11.23-7.78-8.02c-3.86,2.6-5.25,13.48-10.76,11.56
			C335.08,354.25,333.44,348.35,329.11,347.6z"/>
	</g>
	<g>
		
			<ellipse transform="matrix(0.2004 -0.9797 0.9797 0.2004 -191.7737 199.243)" class="st17" cx="26.17" cy="217.1" rx="13.88" ry="8.58"/>
	</g>
	<g>
		<path class="st17" d="M39.08,262.41c12.03-10.1,25.83-18.94,41.57-21.76c7.49-1.75,16.17-0.88,22.71,3.6
			c10.19,6.94-1.77,17.54-8.53,21.43c2.88-3.67,12.52-13.04,7.24-17.12c-6.06-3.87-13.38-4.28-20.42-2.8
			C66.3,248.28,53.08,255.88,39.08,262.41L39.08,262.41z"/>
	</g>
	<g>
		<path class="st5" d="M38.3,263.01c7.85-7.36,16.06-14.66,25.76-19.64c6.63-3.31,13.68-5.48,21.03-6.69
			c10.55-2.19,33.11,0.75,27.48,16.4c-3.43,7.49-9.57,11.93-15.3,16.84c-5.39,4.49-10.48,9.31-15.42,14.26
			c-9.84,10.11-18.38,21.32-24.63,34.09c3.57-13.98,11.34-26.73,20.6-37.74c4.64-5.57,9.81-10.66,15.1-15.57
			c4.8-4.38,10.7-8.81,13.17-14.49c0.92-2.52,0.65-3.37-1.58-4.87c-2.62-1.52-5.71-2.37-8.75-2.81
			c-13.13-1.29-27.44,2.79-39.21,9.23C50.37,255.34,44.44,259.33,38.3,263.01L38.3,263.01z"/>
	</g>
	<g class="st3">
		<path class="st19" d="M370.56,373.82c-0.46,1.16,0.11,5.17-0.24,6.93c-0.56,2.77-1.79,5.66-2.9,8.12
			c-2.28,5.08-5.47,10.15-9.84,12.35c-8.43,4.24-20.05,1.18-25.86-6.56c-5.54-7.38-8.99-20.93-8.69-31.8
			c3.62,13.52,10.22,21.37,16.94,27.5c5.91,5.39,16.92,2.96,23.19-3.95C366.13,383.13,368.67,378.59,370.56,373.82z"/>
	</g>
	<g class="st3">
		<path class="st6" d="M56.59,295.04c-2.85,2.96-5.11,6.61-6.73,10.43c-1.53,3.62-3.78,10.95-1.12,14.54
			c2.14,2.89,5.43,1.75,7.14-0.82c1.65-2.46,3.61-4.52,4.86-7.28c6.76-14.96,16.85-28.28,29.24-38.63
			c6.45-5.41,12.23-8.63,15.41-17.01c-9.9,5.01-18.51,11-26.98,18.23C70.83,280.97,63.54,287.83,56.59,295.04z"/>
	</g>
	<g>
		<path class="st15" d="M333.3,349.99c0.71,0.4,1.37,0.9,1.96,1.45c1.86,1.73,2.83,3.79,4.43,5.71c-1.22-1.47-3.7-1.8-5.43-2.19
			c-2.17-0.48-3.9-1.48-5.08,1.01c-0.71,1.5-0.63,3.36-0.9,4.93c-0.7,4.02-1.41,8.05-2.11,12.07c-2.22-2.45-3.19-5.86-3.14-9.17
			c0.06-3.97,1.32-9.44,3.54-12.76C328.29,348.46,331,348.69,333.3,349.99z"/>
	</g>
	<g>
		<path class="st15" d="M128.18,422.76c0.75,0.3,1.48,0.7,2.14,1.16c2.08,1.46,3.33,3.36,5.18,5.04c-1.41-1.28-3.92-1.27-5.68-1.42
			c-2.21-0.18-4.06-0.93-4.9,1.7c-0.5,1.58-0.16,3.42-0.21,5c-0.14,4.08-0.28,8.17-0.42,12.25c-2.54-2.12-3.97-5.37-4.38-8.65
			c-0.49-3.94,0-9.53,1.74-13.13C123.01,421.93,125.73,421.79,128.18,422.76z"/>
	</g>
	<g>
		<path class="st15" d="M355.04,347.25c0.64,0.5,1.22,1.09,1.72,1.72c1.58,1.99,2.24,4.16,3.53,6.31c-0.74-1.23-2.04-1.74-3.18-2.49
			c-2.13-1.39-2.97-3.51-5.13-0.7c-1.25,1.63-2.25,3.44-3.55,5.03c-0.95,1.16-2.83,3.19-4.49,3.19c-1.66,0-3.24-1.78-4.25-2.91
			c1.39-0.32,2.56-1.31,3.38-2.48c1.77-2.54,3.03-5.3,5.15-7.64C350.31,344.99,352.96,345.63,355.04,347.25z"/>
	</g>
	<g>
		<path class="st15" d="M146.25,414.24c0.77,0.24,1.53,0.59,2.22,1c2.18,1.3,3.57,3.1,5.54,4.64c-1.13-0.89-2.53-0.91-3.86-1.2
			c-2.48-0.55-4.02-2.23-5.04,1.17c-0.59,1.97-0.88,4.02-1.53,5.96c-0.48,1.42-1.51,3.98-3.07,4.57c-1.55,0.59-3.66-0.52-5.01-1.21
			c1.19-0.79,1.93-2.13,2.28-3.52c0.76-3,0.95-6.03,2.11-8.97C141.03,413.8,143.73,413.46,146.25,414.24z"/>
	</g>
	<g>
		<path class="st15" d="M175.45,412.4c0.68,0.44,1.32,0.98,1.87,1.56c1.75,1.84,2.6,3.95,4.08,5.96c-0.85-1.16-2.19-1.55-3.4-2.19
			c-2.25-1.2-3.28-3.23-5.17-0.23c-1.1,1.74-1.93,3.63-3.08,5.33c-0.84,1.24-2.53,3.43-4.18,3.58c-1.65,0.15-3.39-1.48-4.5-2.51
			c1.36-0.44,2.43-1.53,3.14-2.77c1.54-2.69,2.54-5.55,4.45-8.07C170.54,410.57,173.23,410.97,175.45,412.4z"/>
	</g>
	<g>
		<path class="st15" d="M372.98,351.26c0.57,0.44,1.09,0.96,1.53,1.52c1.4,1.75,1.99,3.66,3.14,5.54c-0.66-1.08-1.81-1.53-2.83-2.2
			c-1.89-1.23-2.64-3.09-4.54-0.63c-1.1,1.43-1.98,3.01-3.13,4.4c-0.84,1.02-2.49,2.79-3.96,2.78c-1.47,0-2.88-1.57-3.78-2.57
			c1.23-0.27,2.26-1.14,2.98-2.17c1.56-2.22,2.66-4.64,4.54-6.68C368.79,349.26,371.13,349.83,372.98,351.26z"/>
	</g>
	<g>
		<path class="st5" d="M346.18,406.16c-2.27,0-4.56-0.45-6.85-1.35c-12.86-5.07-19.71-21.04-19.8-46.17
			c-0.02-4.1,0.37-9.9,3.9-12.89c1.19-1.01,3.25-2.12,6.28-1.59h0c3.56,0.62,5.73,3.23,7.48,5.32c1.09,1.31,2.11,2.54,3.1,2.88
			c0.72-0.29,2.04-2.92,2.75-4.33c1.31-2.61,2.67-5.32,4.92-6.83c2.71-1.83,4.99-1.56,6.42-1.02c3.93,1.49,5.46,6.29,6.69,11.08
			c0.11,0.45,0.22,0.96,0.33,1.5c0.01,0.05,0.02,0.1,0.03,0.16c0.05-0.06,0.09-0.11,0.13-0.16c0.79-0.98,1.61-1.99,2.62-2.74
			c4.82-3.56,8.13-2.77,10.06-1.48c6.68,4.48,3.04,19.74,3,19.89c-2.59,10.24-10.27,29.27-22.6,35.59
			C351.85,405.45,349.02,406.16,346.18,406.16z M328.2,351.01c-0.18,0-0.24,0.05-0.26,0.07c-0.15,0.12-1.45,1.4-1.42,7.52
			c0.06,15.37,2.78,34.73,15.38,39.7c3.26,1.29,6.38,1.12,9.54-0.5c8.8-4.51,16.03-19.28,19.02-31.09
			c1.18-4.68,0.97-10.8-0.02-12.24c-0.3,0.07-0.97,0.32-2.11,1.16c-0.29,0.22-0.9,0.96-1.34,1.51c-1.2,1.48-2.55,3.16-4.54,3.83
			c-1.56,0.53-3.15,0.4-4.45-0.35c-2.45-1.41-3.04-4.36-3.46-6.51c-0.08-0.4-0.16-0.79-0.24-1.13c-1.01-3.95-1.76-5.52-2.26-6.11
			c-0.05,0.03-0.11,0.06-0.17,0.11c-0.74,0.5-1.8,2.62-2.58,4.17c-1.87,3.74-5,9.98-11.29,7.8c-2.81-0.98-4.6-3.12-6.17-5.02
			c-1.16-1.4-2.26-2.72-3.29-2.9l0,0C328.38,351.02,328.28,351.01,328.2,351.01z"/>
	</g>
	<g>
		<path class="st5" d="M154.51,475.64c-7.19,0-14.42-3.28-21.3-9.73c-10.19-9.56-15.61-22.06-17.03-25.67
			c-1.42-3.61-4.29-14.98,1.02-19.73c1.96-1.75,5.61-3.16,11.83,0.14c1.2,0.64,2.24,1.57,3.25,2.47c0.42,0.37,1.01,0.9,1.51,1.28
			c0.08-0.41,0.15-0.84,0.2-1.15c0.09-0.56,0.17-1.09,0.28-1.55c0.77-3.42,2.06-9.13,6.36-11.21c1.52-0.73,4.02-1.28,7.3,0.31
			c2.85,1.38,4.7,3.66,6.34,5.68c1.12,1.38,2.18,2.68,3.37,3.46c1.24,0.81,1.94,0.85,2.09,0.8c0.08-0.03,0.43-0.32,0.78-1.29
			c1.25-3.44,3.34-9.19,8.93-11.08l0,0c3.28-1.12,6.4-0.46,8.77,1.84c3.5,3.4,5.36,10.64,5.53,21.52c0.12,7.72-0.69,15.8-1.53,18.5
			c-2.64,8.58-9.11,19.93-18.66,23.67C160.56,475.06,157.54,475.64,154.51,475.64z M122.28,425.65c-0.24,0-0.38,0.04-0.42,0.08
			c-1.2,1.07-1.01,7.3,0.82,11.96c5.9,14.98,21.5,36.28,38.3,29.7c6.73-2.64,12.25-11.82,14.53-19.23
			c1.31-4.24,2.69-28.2-2.19-32.95c-0.3-0.29-0.6-0.59-1.66-0.24l0,0c-2.23,0.76-3.45,3.67-4.6,6.85c-1.3,3.59-3.51,4.98-5.14,5.53
			c-1.72,0.57-4.53,0.77-8.12-1.57c-2.11-1.38-3.63-3.26-4.98-4.91c-1.34-1.66-2.5-3.09-3.95-3.78c-0.64-0.31-1.08-0.38-1.22-0.31
			c-0.58,0.28-1.49,1.62-2.58,6.45c-0.07,0.33-0.13,0.71-0.19,1.1c-0.32,2.07-0.77,4.91-3.14,6.52c-0.93,0.64-2.52,1.3-4.79,0.8
			c-2.16-0.47-3.85-1.99-5.34-3.32c-0.66-0.59-1.42-1.26-1.87-1.5C123.93,425.86,122.83,425.65,122.28,425.65z"/>
	</g>
	<g>
		<path class="st5" d="M281.42,198.67c-14.23-5.87-29.52-9.05-42.48-17.68c-6.61-4.46-11.69-10.94-16.35-16.84
			c-4.86-5.9-9.9-11.64-15.37-16.94c-5.4-5.22-10.9-10.34-16.71-15.03c-11.64-9.13-24.82-15.7-38.98-19.99
			c-7.12-2.17-14.49-3.59-22.08-4.81c0,0,0-0.7,0-0.7c15.3-2.27,31.51,0.28,45.85,7.05c14.21,6.8,25.86,18.31,34.81,30.97
			c4.52,6.22,9,12.39,14.18,17.96c7.64,8.77,17.52,13.39,27.58,18.37c9.98,4.87,21.43,9.6,29.91,17.04
			C281.78,198.08,281.42,198.67,281.42,198.67L281.42,198.67z"/>
	</g>
	<g>
		<path class="st5" d="M358.41,333.29c-2.45-13.36-4.96-26.2-7.86-39.35c-1.35-6.5-2.44-13.21-4.8-19.52
			c-6.14-15.6-17.53-28.44-28.33-40.99c-11.21-12.31-23.12-23.7-36-34.76c0,0,0.37-0.6,0.37-0.6c22.35,9.17,41.01,26.66,52.99,47.56
			c5.07,8.95,8.66,18.68,13.06,27.91c2.77,6.21,6.05,12.32,8.35,18.86c4.15,13.15,5.3,27.31,2.93,40.88
			C359.11,333.29,358.41,333.29,358.41,333.29L358.41,333.29z"/>
	</g>
	<g>
		<path class="st5" d="M13.92,210.55c-4.19,23.76-5.26,47.63-5.42,71.64c-0.18,23.9,0.41,47.85,7.62,70.91
			c6.92,23.07,19.6,43.81,34,62.91c13.52,19.34,31.06,36.04,51.04,48.52c26.59,16.87,57.57,26.45,89.62,28.76c0,0,0,0.7,0,0.7
			c-58.05,4.03-114.53-25.14-145.29-74.8c-13.29-20.27-23.75-42.45-31.54-65.4c-8.04-22.84-12.81-47.31-11.65-71.69
			c0.61-24.19,2.93-48.76,10.93-71.72C13.25,210.37,13.92,210.55,13.92,210.55L13.92,210.55z"/>
	</g>
	<g>
		<path class="st16" d="M284.32,187.58c-1.25-1.1-2.57-2.11-3.93-3.01c-9.01-5.97-20.25-8.35-30.93-6.9
			c-6.56,0.9-13.22,3.79-18.23,8.14c-3.47,3.01-8.28,10.34-4.08,14.63c4.47,4.57,15.19,4.76,21.13,4.56
			c6.9-0.22,13.74-1.39,20.64-1.47c8.38-0.13,16.55,1.41,24.71,3.14C294.02,199.33,289.93,192.53,284.32,187.58z"/>
	</g>
	<g>
		<path class="st17" d="M282.56,185.64c-7.81-3.63-16.04-3.96-24.47-3.15c-10.23,0.71-22.77,1.87-28.34,11.52
			c-1.32,2.21-2.1,4.99-0.43,7.51c-1.22-0.8-2.1-2.25-2.34-3.83c-0.5-15.49,18.37-20.64,30.95-20.17
			C266.64,177.28,276.29,179.08,282.56,185.64L282.56,185.64z"/>
	</g>
	<g class="st3">
		<path class="st6" d="M250.12,200.26c3.49-0.56,6.9-1.52,10.36-2.24c4.99-1.04,10.08-1.58,15.17-1.61c3.4-0.02,6.84,0.2,10.11,1.17
			c3.26,0.97,6.36,2.74,8.47,5.41c0.47,0.6,0.9,1.43,0.51,2.08c-0.17,0.28-0.46,0.46-0.75,0.61c-1.62,0.83-3.5,0.96-5.32,0.93
			c-5.07-0.1-10.03-1.38-15.06-1.94c-7.62-0.85-15.31-0.07-22.98,0.03c-3.26,0.04-6.54-0.05-9.78-0.44c-4.46-0.74-7.91-1.37-12-3.39
			c3.55-0.03,7.02-0.02,10.56,0.04C242.99,200.96,246.59,200.83,250.12,200.26z"/>
	</g>
	<g>
		<path class="st5" d="M284.09,187.84c-6.63-5.85-15.71-7.49-24.26-7.5c-10.59,0.03-23.38,0.74-30.74,9.58
			c-7.32,10.33,3.08,12.77,11.73,12.44c8.69-0.05,17.43-1.88,26.27-2.49c9.2-0.47,18.45,1.27,27.05,4.36c0,0-3.03,2.32-3.03,2.32
			C292.63,199.85,289.33,192.34,284.09,187.84L284.09,187.84z M284.56,187.32c6.42,5.53,11.98,12.97,11.72,22.05
			c-6.85-0.4-13.72-1.37-20.49-1.87c-11.63-1.05-23.48,1.73-35.34-0.08c-5.61-1.07-12.93-2.56-15.61-8.33
			c-1.84-6.95,3.91-13.15,8.84-17.26c4.82-3.92,10.85-6.86,17.26-7.48C263.55,172.72,275.41,179.55,284.56,187.32L284.56,187.32z"/>
	</g>
</g>
</svg>
