<?xml version="1.0" encoding="utf-8"?>
<!-- Generator: Adobe Illustrator 26.1.0, SVG Export Plug-In . SVG Version: 6.00 Build 0)  -->
<svg version="1.1" id="圖層_1" xmlns="http://www.w3.org/2000/svg" xmlns:xlink="http://www.w3.org/1999/xlink" x="0px" y="0px"
	 viewBox="0 0 154.35 157.95" style="enable-background:new 0 0 154.35 157.95;" xml:space="preserve">
<style type="text/css">
	.st0{fill:#F2D7D1;}
	.st1{fill:#EABBB7;}
</style>
<g>
	<g>
		<path class="st0" d="M151.37,84.73c-0.18-0.53-0.61-0.96-0.81-1.48c-0.19-0.52-0.38-1.04-0.59-1.56c-0.21-0.52-0.24-1.1-0.47-1.61
			c-0.22-0.51-0.25-1.11-0.49-1.61s-0.62-0.94-0.86-1.44c-0.25-0.5-0.51-0.99-0.77-1.48c-0.26-0.49-0.52-0.98-0.79-1.47
			c-0.27-0.48-0.66-0.9-0.95-1.38c-0.29-0.48-0.56-0.96-0.86-1.43s-0.73-0.85-1.04-1.31s-0.56-0.96-0.88-1.41
			c-0.32-0.45-0.69-0.87-1.02-1.31c-0.33-0.44-0.46-1.05-0.8-1.49c-0.34-0.44-0.63-0.92-0.99-1.35s-0.71-0.87-1.07-1.28
			c-0.37-0.42-0.96-0.64-1.33-1.05c-0.38-0.41-0.64-0.89-1.02-1.28c0.25-0.5,0.31-1.05,0.54-1.56c0.22-0.51,0.75-0.9,0.96-1.42
			c0.21-0.52,0.41-1.05,0.6-1.58c0.19-0.53,0.44-1.04,0.61-1.57s-0.02-1.18,0.14-1.72s0.57-1.01,0.71-1.55
			c0.15-0.54-0.16-1.2-0.03-1.74c0.13-0.55,0.48-1.04,0.6-1.58c0.12-0.55,0.26-1.1,0.37-1.64c0.11-0.56,0.05-1.14,0.15-1.68
			c0.1-0.57,0.35-1.09,0.44-1.63c0.09-0.57,0.02-1.15,0.09-1.68c0.08-0.58,0.21-1.12,0.27-1.65c0.07-0.56,0.28-1.11,0.33-1.68
			s-0.05-1.14-0.01-1.71c0.03-0.57-0.01-1.13,0-1.7s0.51-1.14,0.5-1.71s-0.07-1.15-0.1-1.71c-0.03-0.57-0.6-1.1-0.65-1.66
			c-0.05-0.57,0.23-1.17,0.15-1.73s-0.32-1.1-0.42-1.66c-0.1-0.56-0.18-1.12-0.31-1.67c-0.12-0.56,0.03-1.18-0.12-1.73
			s-0.71-0.98-0.88-1.52s-0.38-1.06-0.58-1.59s-0.36-1.07-0.58-1.59c-0.23-0.52-0.03-1.25-0.28-1.76s-0.55-1.02-0.83-1.51
			s-0.76-0.88-1.07-1.36c-0.31-0.47-0.66-0.91-1-1.37c-0.33-0.45-0.54-1.01-0.9-1.45c-0.36-0.43-0.68-0.92-1.06-1.33
			s-0.8-0.82-1.2-1.21c-0.41-0.39-0.82-0.79-1.25-1.16s-0.97-0.61-1.42-0.95c-0.45-0.34-0.95-0.62-1.41-0.93
			c-0.46-0.32-1.12-0.33-1.6-0.62c-0.48-0.29-0.68-1.08-1.18-1.34s-1.27,0.03-1.78-0.2c-0.51-0.24-0.95-0.61-1.47-0.82
			c-0.52-0.21-1.1-0.24-1.63-0.41s-1.02-0.47-1.57-0.61c-0.54-0.14-1.08-0.31-1.63-0.42c-0.55-0.11-1.06-0.52-1.61-0.59
			c-0.56-0.08-1.16,0.24-1.72,0.2c-0.57-0.04-1.12-0.05-1.68-0.06c-0.57,0-1.13-0.21-1.69-0.17c-0.56,0.04-1.09,0.39-1.64,0.47
			c-0.56,0.08-1.11,0.1-1.66,0.22c-0.55,0.11-1.08,0.26-1.62,0.41s-1.09,0.25-1.62,0.44c-0.53,0.18-1.21-0.01-1.73,0.21
			c-0.52,0.22-0.82,0.91-1.33,1.16c-0.5,0.24-1.12,0.27-1.61,0.54s-1,0.52-1.48,0.82s-0.87,0.72-1.33,1.04
			c-0.46,0.32-0.88,0.69-1.33,1.04c-0.45,0.34-0.9,0.66-1.34,1.02c-0.43,0.36-0.99,0.58-1.41,0.96c-0.41,0.38-0.68,0.91-1.09,1.31
			c-0.4,0.39-0.89,0.7-1.28,1.11s-0.69,0.89-1.06,1.32c-0.37,0.42-0.76,0.83-1.12,1.26s-0.87,0.75-1.22,1.19
			c-0.34,0.45-0.44,1.08-0.77,1.53c-0.33,0.46-0.68,0.89-1,1.36c-0.32,0.47-0.84,0.8-1.14,1.27c-0.3,0.48-0.41,1.07-0.7,1.55
			c-0.29,0.48-0.74,0.88-1.01,1.37c-0.27,0.49-0.35,1.1-0.61,1.59c-0.26,0.5-0.33,1.09-0.58,1.59c-0.25,0.51-0.67,0.93-0.9,1.44
			c-0.23,0.52-0.35,1.08-0.56,1.59c-0.22,0.52-0.4,1.05-0.6,1.57c-0.2,0.53-0.32,1.08-0.51,1.61s-0.56,1-0.73,1.53
			c-0.17,0.54-0.33,1.08-0.48,1.61c-0.22,0.78-1.51,0.79-1.73,0.01c-0.15-0.54,0.1-1.2-0.07-1.74c-0.17-0.53-0.42-1.05-0.61-1.59
			c-0.19-0.53-0.56-0.99-0.77-1.52c-0.2-0.52-0.22-1.12-0.44-1.65c-0.22-0.52-0.88-0.84-1.11-1.36c-0.23-0.51-0.26-1.11-0.51-1.62
			c-0.25-0.5-0.32-1.1-0.58-1.6s-0.51-1.01-0.78-1.5s-0.81-0.83-1.1-1.32c-0.29-0.48-0.73-0.87-1.03-1.34
			c-0.3-0.48-0.54-0.98-0.86-1.45c-0.32-0.47-0.56-0.98-0.89-1.43c-0.33-0.46-0.83-0.78-1.17-1.23s-0.57-0.97-0.93-1.41
			s-0.69-0.89-1.06-1.31c-0.37-0.42-0.6-0.98-0.99-1.39c-0.39-0.41-0.64-0.96-1.04-1.36S61.11,9,60.69,8.62
			c-0.42-0.38-0.58-1.04-1.01-1.4c-0.43-0.36-0.92-0.67-1.36-1.01c-0.45-0.34-0.87-0.73-1.33-1.05c-0.46-0.32-1.1-0.37-1.58-0.67
			c-0.48-0.3-0.81-0.85-1.3-1.12c-0.44-0.27-1-0.42-1.51-0.67c-0.51-0.25-0.96-0.62-1.48-0.83c-0.52-0.22-1.13-0.2-1.66-0.38
			C48.92,1.3,48.44,0.95,47.9,0.8c-0.54-0.15-1.18,0.14-1.74,0.02c-0.55-0.11-1.02-0.72-1.57-0.8c-0.56-0.07-1.14,0.06-1.71,0.03
			c-0.56-0.04-1.12,0.15-1.69,0.15c-0.56,0-1.11,0.02-1.68,0.06c-0.56,0.04-1.14-0.1-1.69-0.02c-0.56,0.08-1.12,0.13-1.67,0.24
			s-1.01,0.6-1.55,0.75c-0.54,0.14-1.18-0.06-1.72,0.11c-0.53,0.17-1.02,0.49-1.54,0.7s-1.18,0.11-1.69,0.35
			c-0.51,0.23-0.8,0.92-1.3,1.18s-1.12,0.29-1.6,0.59c-0.48,0.29-0.94,0.62-1.41,0.94c-0.46,0.32-0.96,0.6-1.41,0.94
			s-0.97,0.6-1.4,0.97c-0.43,0.37-0.88,0.72-1.29,1.11c-0.4,0.39-0.38,1.21-0.76,1.62c-0.38,0.41-1.2,0.45-1.56,0.88
			c-0.36,0.43-0.5,1.05-0.83,1.5s-0.43,1.06-0.73,1.54c-0.31,0.48-1,0.72-1.28,1.22c-0.28,0.49-0.2,1.19-0.45,1.7
			s-0.89,0.85-1.11,1.37c-0.23,0.52-0.1,1.19-0.3,1.72c-0.2,0.53-0.43,1.05-0.6,1.59s-0.43,1.06-0.58,1.61
			c-0.15,0.55-0.09,1.15-0.22,1.7c-0.12,0.55-0.38,1.08-0.48,1.64c-0.1,0.56-0.09,1.14-0.16,1.7c-0.08,0.56-0.14,1.13-0.19,1.69
			c-0.05,0.57-0.36,1.12-0.39,1.68c-0.03,0.57,0.33,1.15,0.33,1.72c-0.01,0.57-0.15,1.13-0.14,1.7c0.01,0.57,0.21,1.13,0.24,1.69
			c0.03,0.57-0.18,1.15-0.13,1.72s0.33,1.11,0.41,1.67c0.07,0.53,0.18,1.09,0.27,1.67c0.08,0.54-0.31,1.17-0.21,1.74
			c0.09,0.54,0.69,1.01,0.79,1.58c0.1,0.54,0.21,1.09,0.33,1.66c0.11,0.55,0.2,1.1,0.32,1.66c0.12,0.55-0.2,1.2-0.06,1.76
			c0.13,0.55,0.78,0.96,0.93,1.51c0.15,0.54-0.17,1.22-0.01,1.77c0.16,0.54,0.59,1,0.77,1.54c0.18,0.54,0.03,1.19,0.22,1.72
			c0.19,0.54,0.44,1.06,0.65,1.58c0.21,0.53,0.9,0.85,1.13,1.36c0.23,0.52-0.02,1.11,0.24,1.61c-0.4,0.42-0.61,0.84-1,1.28
			c-0.39,0.43-0.91,0.75-1.29,1.2c-0.37,0.44-0.45,1.14-0.81,1.59c-0.36,0.45-0.72,0.9-1.07,1.37c-0.35,0.46-0.98,0.72-1.32,1.2
			c-0.33,0.47-0.27,1.22-0.59,1.71c-0.32,0.48-0.7,0.92-1.01,1.41c-0.31,0.49-1,0.75-1.29,1.26c-0.29,0.5-0.54,1.04-0.82,1.55
			s-0.39,1.11-0.65,1.63s-0.2,1.19-0.45,1.72c-0.25,0.52-0.94,0.84-1.18,1.37c-0.24,0.53-0.37,1.11-0.6,1.64
			c-0.22,0.54-0.13,1.2-0.34,1.74s-0.89,0.91-1.09,1.45c-0.19,0.55-0.07,1.2-0.25,1.76c-0.18,0.55-0.44,1.08-0.61,1.63
			C3.12,87,2.8,87.52,2.64,88.08c-0.15,0.56-0.3,1.13-0.44,1.69c-0.14,0.56,0.13,1.22,0,1.79s-0.41,1.1-0.52,1.67
			s-0.33,1.12-0.43,1.69s-0.39,1.12-0.48,1.69s0.16,1.2,0.08,1.77c-0.07,0.57-0.19,1.15-0.25,1.72c-0.06,0.58,0.2,1.18,0.15,1.76
			c-0.05,0.58-0.61,1.12-0.65,1.7c-0.03,0.56,0.15,1.14,0.13,1.7c-0.01,0.56-0.2,1.13-0.19,1.69c0.01,0.56-0.07,1.14-0.05,1.7
			c0.03,0.56,0.38,1.11,0.42,1.67c0.05,0.56-0.18,1.15-0.12,1.71c0.07,0.56,0.68,1.05,0.76,1.6c0.08,0.56-0.35,1.2-0.24,1.75
			c0.1,0.55,0.7,1.01,0.82,1.56c0.12,0.55,0.22,1.1,0.36,1.64c0.14,0.55,0.36,1.06,0.51,1.6c0.16,0.54-0.25,1.25-0.08,1.79
			s0.84,0.91,1.03,1.44s0.05,1.18,0.26,1.71c0.21,0.52,0.55,0.99,0.77,1.51c0.22,0.52,0.19,1.15,0.43,1.66s0.8,0.87,1.06,1.37
			s0.27,1.13,0.55,1.63c0.27,0.49,1,0.73,1.29,1.21c0.29,0.48,0.11,1.26,0.41,1.73c0.31,0.49,0.7,0.95,1.03,1.42
			c0.34,0.48,0.62,1,0.98,1.46s1.05,0.65,1.43,1.09s0.55,1.07,0.94,1.5c0.39,0.43,0.89,0.77,1.3,1.18c0.41,0.41,1.05,0.57,1.48,0.97
			c0.43,0.39,0.63,1.04,1.07,1.41c0.44,0.38,1.06,0.53,1.52,0.89c0.46,0.36,0.9,0.73,1.37,1.07c0.47,0.34,0.71,1.01,1.19,1.34
			c0.48,0.33,1.2,0.3,1.69,0.61s0.76,0.98,1.27,1.28c0.5,0.29,1.02,0.58,1.53,0.86s1.1,0.42,1.62,0.68s1.01,0.6,1.53,0.84
			c0.53,0.24,1.09,0.42,1.63,0.65c0.53,0.23,1.17,0.21,1.71,0.42c0.54,0.21,0.97,0.73,1.52,0.93s1.23,0,1.78,0.18
			s1.1,0.35,1.66,0.52s1.1,0.38,1.66,0.53s1.15,0.17,1.72,0.3s1.12,0.28,1.69,0.4s1.07,0.6,1.64,0.7c0.57,0.1,1.21-0.21,1.79-0.12
			c0.58,0.09,1.13,0.31,1.7,0.38c0.58,0.07,1.14,0.32,1.71,0.37c0.57,0.05,1.14,0.1,1.71,0.15c0.57,0.05,1.14,0.11,1.71,0.16
			s1.12,0.32,1.69,0.37c0.57,0.05,1.16-0.1,1.73-0.06c0.57,0.05,1.13,0.23,1.7,0.28c0.57,0.04,1.16-0.19,1.73-0.15
			c0.57,0.04,1.15-0.02,1.72,0.02c0.57,0.04,1.13,0.25,1.7,0.28s1.13,0.26,1.71,0.29c0.57,0.03,1.16-0.29,1.74-0.26
			c0.57,0.03,1.13,0.3,1.71,0.33c0.57,0.02,1.14,0.15,1.72,0.17c0.57,0.02,1.15-0.15,1.73-0.14c0.57,0.02,1.14,0.17,1.72,0.19
			c0.57,0.01,1.15,0.18,1.72,0.19c0.57,0.01,1.15-0.04,1.72-0.03c0.57,0,1.15-0.4,1.72-0.4s1.15,0.19,1.72,0.18
			c0.57-0.01,1.15,0.25,1.73,0.24c0.57-0.01,1.14-0.26,1.72-0.28c0.57-0.02,1.15,0.13,1.73,0.11c0.57-0.02,1.14-0.23,1.71-0.26
			s1.14-0.17,1.71-0.21c0.57-0.03,1.15,0.04,1.73,0c0.57-0.04,1.13-0.3,1.7-0.35s1.18,0.36,1.76,0.31c0.57-0.05,1.11-0.48,1.68-0.54
			s1.17,0.13,1.74,0.06s1.15-0.09,1.72-0.16s1.14-0.16,1.71-0.25c0.57-0.08,1.09-0.49,1.65-0.59c0.57-0.09,1.21,0.24,1.77,0.14
			c0.57-0.1,1.07-0.52,1.64-0.63c0.56-0.11,1.19,0.07,1.75-0.04c0.56-0.12,1.01-0.75,1.57-0.88s1.21,0.14,1.77,0s1.15-0.16,1.7-0.31
			c0.56-0.15,1-0.7,1.55-0.85c0.55-0.16,1.17-0.08,1.72-0.24c0.55-0.17,1.02-0.59,1.56-0.77c0.55-0.18,1.14-0.2,1.68-0.39
			s1.06-0.44,1.6-0.64s1.13-0.26,1.67-0.47c0.53-0.21,1.14-0.25,1.67-0.48c0.53-0.22,0.81-1.01,1.33-1.24
			c0.52-0.24,1.19-0.15,1.71-0.4s1.06-0.45,1.57-0.71c0.51-0.26,0.97-0.63,1.47-0.9c0.5-0.28,1.08-0.42,1.58-0.71s0.8-0.9,1.29-1.2
			c0.49-0.3,1.09-0.43,1.57-0.74c0.48-0.31,0.88-0.74,1.35-1.07s1.13-0.4,1.59-0.74c0.46-0.34,0.8-0.85,1.25-1.2
			c0.45-0.35,0.95-0.65,1.39-1.02c0.44-0.37,0.89-0.73,1.32-1.11c0.43-0.38,0.77-0.86,1.19-1.25c0.41-0.39,1.01-0.62,1.4-1.03
			s0.35-1.21,0.72-1.65c0.36-0.44,0.72-0.87,1.06-1.33s0.89-0.75,1.21-1.23c0.32-0.47,0.69-0.91,0.99-1.4
			c0.29-0.49,0.68-0.93,0.95-1.43s0.42-1.07,0.67-1.59c0.25-0.51,0.62-0.97,0.85-1.5c0.23-0.52,0.33-1.1,0.54-1.63
			c0.21-0.53,0.21-1.14,0.4-1.68c0.19-0.54,0.35-1.08,0.52-1.63c0.17-0.54,0.69-0.98,0.85-1.53c0.16-0.55-0.06-1.2,0.08-1.75
			s0.71-1.01,0.84-1.56c0.12-0.56-0.07-1.18,0.04-1.75c0.11-0.56,0.15-1.13,0.24-1.7c0.09-0.56,0.05-1.14,0.13-1.71
			s0.39-1.1,0.45-1.67s-0.02-1.15,0.03-1.72s0.22-1.13,0.25-1.7s-0.31-1.16-0.29-1.72c0.02-0.57,0.13-1.14,0.13-1.71
			s0.46-1.15,0.45-1.72c-0.01-0.57-0.53-1.13-0.56-1.7s0.31-1.16,0.27-1.73s-0.48-1.11-0.54-1.67c-0.06-0.57,0.13-1.16,0.05-1.73
			c-0.07-0.57-0.13-1.14-0.21-1.7c-0.09-0.57-0.16-1.14-0.27-1.69c-0.11-0.57-0.54-1.06-0.67-1.61c-0.13-0.56-0.27-1.11-0.41-1.65
			c-0.14-0.56,0.09-1.21-0.08-1.75C151.78,85.79,151.55,85.26,151.37,84.73z"/>
	</g>
	<g>
		<path class="st1" d="M32.06,37.7c-0.12-0.52-0.24-1.05-0.31-1.58c-0.07-0.53-0.06-1.07-0.07-1.61c-0.02-0.54-0.06-1.08-0.02-1.61
			c0.04-0.54,0.11-1.07,0.22-1.6c0.11-0.53,0.22-1.06,0.4-1.57c0.17-0.51,0.45-0.98,0.69-1.46c0.24-0.47,0.47-0.96,0.78-1.39
			c0.31-0.43,0.68-0.83,1.05-1.21s0.8-0.71,1.22-1.03c0.43-0.32,0.85-0.66,1.32-0.91s0.98-0.42,1.48-0.6s1.01-0.36,1.53-0.45
			c0.57-0.1,1.14-0.14,1.69-0.13c0.57,0.01,1.13,0.11,1.68,0.23c0.55,0.12,1.08,0.32,1.6,0.53c0.52,0.21,1.03,0.43,1.53,0.71
			c0.48,0.28,0.95,0.59,1.41,0.93c0.45,0.34,0.88,0.7,1.29,1.09c0.41,0.38,0.82,0.77,1.2,1.2c0.37,0.42,0.73,0.86,1.07,1.31
			c0.34,0.45,0.68,0.91,0.98,1.38c0.3,0.48,0.58,0.98,0.84,1.47c0.27,0.51,0.52,1.02,0.73,1.53c0.22,0.53,0.38,1.08,0.54,1.6
			c0.16,0.51,0.27,1.04,0.36,1.58c0.08,0.54,0.12,1.07,0.11,1.61s-0.02,1.09-0.14,1.61c-0.12,0.53-0.32,1.03-0.57,1.51
			c-0.26,0.51-0.56,1-0.93,1.42c-0.37,0.43-0.82,0.77-1.27,1.13c-0.44,0.35-0.91,0.67-1.39,0.97c-0.49,0.3-0.99,0.56-1.48,0.83
			c-0.45,0.24-0.9,0.54-1.42,0.78c-0.47,0.23-0.98,0.41-1.49,0.63c-0.49,0.21-0.97,0.47-1.48,0.65s-1.04,0.31-1.56,0.44
			c-0.53,0.14-1.06,0.25-1.59,0.33c-0.54,0.08-1.09,0.15-1.62,0.16c-0.55,0-1.09-0.07-1.61-0.18c-0.53-0.11-1.06-0.25-1.54-0.49
			c-0.46-0.23-0.9-0.57-1.3-0.98c-0.36-0.37-0.69-0.81-1-1.28c-0.29-0.44-0.59-0.9-0.84-1.39c-0.24-0.48-0.48-0.97-0.69-1.48
			s-0.32-1.05-0.49-1.55c-0.18-0.53-0.34-1.05-0.48-1.55C32.33,38.69,32.17,38.17,32.06,37.7z"/>
	</g>
	<g>
		<path class="st1" d="M121.03,37.7c0.12-0.52,0.18-1.06,0.25-1.59s0.19-1.06,0.21-1.6c0.02-0.54,0.01-1.08-0.04-1.62
			c-0.04-0.54-0.17-1.07-0.27-1.59c-0.11-0.53-0.22-1.05-0.4-1.56c-0.17-0.51-0.34-1.03-0.59-1.51c-0.24-0.47-0.61-0.88-0.92-1.31
			s-0.62-0.87-0.99-1.25c-0.37-0.38-0.78-0.73-1.21-1.04c-0.43-0.32-0.87-0.62-1.34-0.87c-0.47-0.25-0.96-0.46-1.47-0.64
			c-0.5-0.18-1.02-0.29-1.55-0.38c-0.57-0.1-1.13-0.2-1.68-0.19c-0.57,0.01-1.12,0.13-1.67,0.25c-0.55,0.12-1.08,0.28-1.61,0.49
			c-0.52,0.21-1.01,0.47-1.5,0.76c-0.48,0.28-0.99,0.53-1.45,0.88c-0.45,0.34-0.84,0.75-1.25,1.14c-0.41,0.38-0.81,0.77-1.19,1.2
			c-0.37,0.42-0.76,0.84-1.09,1.29c-0.34,0.45-0.61,0.95-0.91,1.42c-0.3,0.48-0.63,0.94-0.89,1.44c-0.27,0.51-0.47,1.03-0.69,1.54
			c-0.22,0.53-0.42,1.06-0.59,1.58c-0.16,0.51-0.32,1.03-0.4,1.57s-0.16,1.08-0.15,1.61c0.01,0.54,0.1,1.08,0.21,1.61
			c0.12,0.53,0.3,1.04,0.54,1.52c0.26,0.51,0.58,0.98,0.95,1.41c0.37,0.43,0.8,0.8,1.25,1.15c0.44,0.35,0.91,0.67,1.39,0.97
			c0.49,0.3,0.99,0.55,1.49,0.82c0.45,0.24,0.92,0.49,1.44,0.74c0.47,0.23,0.97,0.44,1.48,0.66c0.49,0.21,0.98,0.44,1.5,0.62
			c0.51,0.18,1.03,0.35,1.55,0.49c0.53,0.14,1.06,0.25,1.59,0.33c0.54,0.08,1.09,0.08,1.62,0.08c0.55,0,1.09-0.02,1.61-0.13
			c0.53-0.11,1.03-0.3,1.52-0.54c0.46-0.23,0.93-0.52,1.33-0.92c0.36-0.37,0.71-0.8,1.02-1.27c0.29-0.44,0.58-0.91,0.83-1.4
			c0.24-0.48,0.41-1,0.62-1.51s0.44-1.01,0.61-1.51c0.18-0.53,0.27-1.08,0.41-1.58C120.75,38.69,120.92,38.17,121.03,37.7z"/>
	</g>
</g>
</svg>
