<?xml version="1.0" encoding="utf-8"?>
<!-- Generator: Adobe Illustrator 28.0.0, SVG Export Plug-In . SVG Version: 6.00 Build 0)  -->
<svg version="1.1" id="圖層_1" xmlns="http://www.w3.org/2000/svg" xmlns:xlink="http://www.w3.org/1999/xlink" x="0px" y="0px"
	 viewBox="0 0 403.95 398.99" style="enable-background:new 0 0 403.95 398.99;" xml:space="preserve">
<style type="text/css">
	.st0{fill:#CE4532;}
	.st1{fill:#E58A13;}
</style>
<g>
	<path class="st0" d="M3.03,189.69c-0.54,1.09-1.84,1.86-2.25,3.01c-0.43,1.2,0.12,2.57-0.08,3.69c-0.22,1.24-0.45,2.34-0.42,3.48
		c0.03,1.23-0.46,2.49-0.19,3.64c0.28,1.17,0.61,2.39,1.1,3.49c0.48,1.08,1.03,2.21,1.66,3.24c0.62,1,1.43,1.94,2.16,2.92
		c0.71,0.95,2.02,1.44,2.79,2.38c0.75,0.92,1.38,1.95,2.15,2.88c0.76,0.91,1.32,2.01,2.07,2.95c0.66,0.82,1.77,1.38,2.54,2.32
		c0.69,0.83,0.83,2.19,1.61,3.1c0.71,0.83,1.56,1.6,2.33,2.49c0.72,0.83,1.31,1.82,2.09,2.71c0.73,0.83,2.12,1.12,2.9,1.99
		c0.74,0.83,1.24,1.9,2.02,2.76c0.74,0.83,1.4,1.77,2.18,2.63c0.75,0.83,1.42,1.75,2.2,2.61c0.75,0.83,1.81,1.4,2.59,2.25
		c0.76,0.83,1.57,1.62,2.35,2.47c0.76,0.83,1.3,1.87,2.08,2.72c0.76,0.82,1.69,1.51,2.48,2.36c0.77,0.82,1.43,1.76,2.22,2.6
		c0.77,0.82,1.52,1.68,2.3,2.52c0.77,0.82,1.75,1.46,2.54,2.3c0.77,0.82,0.99,2.18,1.78,3.01c0.77,0.82,1.71,1.51,2.5,2.34
		c0.78,0.82,1.49,1.71,2.28,2.54c0.78,0.82,1.61,1.6,2.4,2.43c0.78,0.82,1.54,1.67,2.33,2.49c0.78,0.82,1.56,1.65,2.35,2.47
		c0.78,0.82,1.97,1.25,2.77,2.08c0.78,0.82,1.49,1.72,2.28,2.54c0.79,0.82,1.26,1.94,2.06,2.76c0.79,0.82,1.51,1.7,2.3,2.52
		c0.79,0.82,1.53,1.68,2.33,2.5c0.79,0.81,1.67,1.54,2.46,2.36c0.79,0.81,1.73,1.48,2.53,2.3c0.79,0.81,1.37,1.84,2.16,2.65
		c0.79,0.81,2.24,0.99,3.03,1.8c0.79,0.81,1.07,2.13,1.87,2.95c0.8,0.81,1.53,1.68,2.33,2.5c0.8,0.81,1.7,1.52,2.5,2.33
		c0.8,0.81,2.03,1.19,2.83,2c0.8,0.81,1.46,1.76,2.26,2.57c0.8,0.81,1.26,1.95,2.07,2.76c0.8,0.81,1.65,1.57,2.45,2.38
		c0.8,0.81,1.54,1.69,2.34,2.49c0.81,0.81,1.79,1.43,2.59,2.24c0.81,0.81,1.83,1.39,2.64,2.2c0.81,0.8,1.7,1.52,2.51,2.32
		c0.81,0.8,1.17,2.06,1.98,2.86c0.81,0.8,1.84,1.38,2.65,2.18c0.81,0.8,1.26,1.97,2.07,2.77c0.81,0.8,1.96,1.27,2.77,2.06
		c0.82,0.8,1.81,1.41,2.63,2.2c0.82,0.8,1.55,1.68,2.37,2.47c0.82,0.8,1.71,1.51,2.52,2.3c0.82,0.8,1.58,1.64,2.4,2.43
		c0.82,0.8,1.45,1.79,2.26,2.57c0.82,0.79,1.59,1.64,2.41,2.42c0.83,0.79,1.43,1.81,2.24,2.59c0.83,0.79,2.12,1.08,2.94,1.86
		c0.83,0.79,1.33,1.92,2.15,2.69c0.83,0.79,1.62,1.61,2.45,2.39c0.84,0.79,2.21,0.99,3.03,1.76c0.84,0.79,1.26,2,2.09,2.77
		c0.84,0.79,1.7,1.53,2.53,2.3c0.84,0.78,1.79,1.44,2.61,2.21c0.85,0.78,1.89,1.33,2.72,2.09c0.85,0.78,1.34,1.93,2.18,2.68
		c0.86,0.78,1.97,1.24,2.8,1.99c0.86,0.77,1.64,1.6,2.48,2.35c0.87,0.77,1.88,1.33,2.72,2.07c0.87,0.77,1.41,1.88,2.26,2.61
		c0.88,0.76,1.5,1.79,2.35,2.51c0.89,0.76,2.11,1.08,2.96,1.79c0.9,0.75,1.86,1.38,2.71,2.07c0.92,0.75,1.64,1.67,2.5,2.35
		c0.94,0.74,1.68,1.66,2.53,2.3c0.98,0.73,2.14,1.08,3,1.68c1.04,0.72,1.77,1.71,2.64,2.23c1.19,0.71,2.35,1.06,3.17,1.36
		c1.04,0.38,2.22,0.32,3.26,0.65c1.06,0.33,2.07,0.78,3.13,1.05c1.08,0.27,2.17,0.38,3.24,0.59c1.09,0.21,2.17,0.36,3.25,0.49
		c1.1,0.13,2.17,0.39,3.26,0.44c1.11,0.05,2.19-0.2,3.28-0.24c1.1-0.04,2.25,0.51,3.34,0.37c1.09-0.14,2.03-1.09,3.1-1.34
		c1.07-0.25,2.33,0.19,3.38-0.17c1.03-0.36,1.74-1.52,2.74-1.99c0.98-0.46,2.16-0.52,3.12-1.09c0.93-0.55,1.97-0.99,2.87-1.65
		c0.87-0.64,1.34-1.79,2.19-2.53c0.85-0.75,1.72-1.46,2.56-2.22c0.84-0.76,2.01-1.15,2.84-1.92c0.83-0.77,1.2-2.01,2.02-2.8
		c0.82-0.78,2.14-1.03,2.95-1.82c0.81-0.79,1.34-1.86,2.14-2.66c0.8-0.8,1.47-1.72,2.27-2.53c0.79-0.8,1.66-1.53,2.45-2.34
		c0.79-0.81,1.77-1.43,2.55-2.25c0.78-0.81,1.86-1.35,2.64-2.16c0.78-0.82,1.18-1.99,1.96-2.81c0.77-0.82,1.63-1.57,2.4-2.39
		c0.77-0.83,1.2-1.97,1.97-2.8c0.77-0.83,1.93-1.29,2.7-2.12c0.77-0.83,1.6-1.6,2.36-2.43c0.77-0.83,1-2.15,1.77-2.98
		c0.77-0.83,1.73-1.48,2.49-2.31c0.77-0.83,1.99-1.24,2.76-2.06c0.77-0.83,1.34-1.84,2.11-2.67c0.78-0.82,1.61-1.59,2.39-2.4
		c0.78-0.82,1.52-1.68,2.3-2.49c0.78-0.82,1.49-1.7,2.28-2.51c0.8-0.82,1.72-1.53,2.53-2.35c0.8-0.82,1.71-1.54,2.52-2.36
		c0.81-0.82,1.33-1.91,2.14-2.73c0.81-0.82,1.84-1.42,2.65-2.23c0.81-0.81,1.33-1.92,2.14-2.73s1.66-1.59,2.47-2.4
		c0.81-0.81,1.77-1.48,2.59-2.29c0.81-0.81,1.44-1.82,2.25-2.63c0.82-0.81,2.03-1.22,2.84-2.03c0.82-0.81,1.55-1.7,2.36-2.51
		c0.82-0.81,1.22-2.03,2.04-2.84c0.82-0.81,2.04-1.2,2.86-2.01s1.66-1.59,2.47-2.4c0.82-0.81,1.76-1.49,2.57-2.3
		c0.82-0.81,1.22-2.04,2.04-2.84s1.57-1.69,2.38-2.49c0.82-0.81,1.49-1.76,2.31-2.57c0.82-0.81,2.19-1.06,3-1.87
		c0.82-0.81,1.07-2.18,1.89-2.99s2.29-0.96,3.1-1.77c0.81-0.81,1.04-2.21,1.85-3.02c0.81-0.81,2.05-1.2,2.86-2.01
		c0.81-0.81,1.11-2.12,1.91-2.93c0.8-0.81,1.9-1.33,2.7-2.14c0.8-0.82,1.88-1.35,2.67-2.17c0.79-0.82,0.99-2.21,1.78-3.03
		c0.79-0.82,1.59-1.63,2.38-2.46c0.79-0.83,2.16-1.1,2.94-1.93c0.78-0.83,1.25-1.96,2.03-2.79c0.78-0.83,1.31-1.9,2.09-2.73
		c0.78-0.83,1.98-1.27,2.76-2.1c0.78-0.83,1.7-1.53,2.48-2.36c0.78-0.83,1.1-2.09,1.88-2.92c0.78-0.83,1.4-1.81,2.18-2.65
		c0.78-0.83,1.54-1.69,2.31-2.52c0.78-0.83,2.01-1.24,2.79-2.08c0.78-0.83,1.47-1.74,2.25-2.57c0.78-0.83,1.17-2.04,1.95-2.86
		c0.78-0.83,2.15-1.1,2.94-1.93c0.79-0.82,1.04-2.16,1.84-2.98c0.79-0.82,1.68-1.55,2.48-2.37c0.79-0.82,2.04-1.2,2.84-2.01
		c0.8-0.81,1.13-2.09,1.93-2.9c0.77-0.78,1.72-1.42,2.5-2.25c0.75-0.8,1.59-1.56,2.35-2.41c0.73-0.83,1.47-1.68,2.19-2.55
		c0.71-0.85,1.12-1.96,1.81-2.85c0.68-0.88,1.82-1.43,2.47-2.35c0.65-0.91,1.22-1.89,1.83-2.83c0.62-0.94,0.69-2.21,1.26-3.17
		c0.57-0.97,1.23-1.86,1.75-2.85c0.52-1,1.02-1.98,1.48-3c0.46-1.03,1.14-1.95,1.52-3c0.39-1.06,0.67-2.14,0.97-3.21
		c0.31-1.09,0.27-2.22,0.48-3.32c0.21-1.11,0.65-2.15,0.75-3.26c0.1-1.12-0.07-2.22-0.1-3.34c-0.03-1.12,0.23-2.25,0.05-3.37
		c-0.18-1.1-0.23-2.26-0.55-3.35c-0.31-1.07-1.3-1.9-1.73-2.96c-0.42-1.03-0.33-2.3-0.85-3.31c-0.51-0.99-1.48-1.73-2.07-2.7
		c-0.58-0.95-1.23-1.85-1.87-2.78c-0.63-0.92-0.89-2.12-1.58-3.02c-0.68-0.89-1.29-1.85-2.01-2.72c-0.72-0.86-1.59-1.61-2.33-2.45
		c-0.75-0.84-1.65-1.54-2.42-2.36c-0.77-0.83-1.83-1.37-2.61-2.17c-0.79-0.81-1.36-1.83-2.15-2.61c-0.81-0.8-1.29-1.92-2.08-2.7
		c-0.82-0.8-2.03-1.17-2.82-1.94c-0.83-0.8-1.28-1.95-2.06-2.71c-0.83-0.81-2.01-1.22-2.78-1.98c-0.8-0.8-1.69-1.51-2.49-2.32
		c-0.8-0.8-1.17-2.04-1.97-2.84c-0.8-0.8-1.8-1.41-2.6-2.21c-0.8-0.8-1.82-1.38-2.63-2.18c-0.8-0.8-1.66-1.54-2.47-2.34
		c-0.8-0.8-1.14-2.07-1.95-2.87c-0.8-0.8-1.87-1.34-2.67-2.13c-0.8-0.8-1.57-1.64-2.37-2.44c-0.81-0.8-1.7-1.5-2.51-2.3
		c-0.81-0.8-1.33-1.88-2.13-2.68c-0.81-0.8-1.48-1.72-2.29-2.52c-0.81-0.8-1.69-1.52-2.5-2.31c-0.81-0.8-1.49-1.72-2.3-2.51
		c-0.81-0.8-2.02-1.18-2.83-1.97c-0.81-0.79-1.35-1.86-2.16-2.66c-0.81-0.79-1.77-1.44-2.58-2.23c-0.81-0.79-1.39-1.82-2.2-2.61
		c-0.81-0.79-1.56-1.65-2.37-2.44c-0.81-0.79-1.96-1.24-2.77-2.03c-0.81-0.79-1.54-1.67-2.35-2.46c-0.81-0.79-1.77-1.44-2.58-2.23
		c-0.81-0.79-1.54-1.67-2.35-2.46c-0.81-0.79-1.39-1.82-2.21-2.61c-0.81-0.79-1.92-1.28-2.73-2.07c-0.81-0.79-1.43-1.78-2.25-2.57
		c-0.81-0.79-1.45-1.76-2.27-2.55c-0.81-0.79-2.08-1.11-2.89-1.9c-0.81-0.79-1.41-1.8-2.23-2.59c-0.81-0.79-1.44-1.77-2.26-2.56
		c-0.82-0.79-1.92-1.28-2.74-2.06c-0.82-0.79-1.42-1.79-2.24-2.58c-0.82-0.79-2.03-1.16-2.85-1.95c-0.82-0.79-1.5-1.71-2.32-2.5
		c-0.82-0.79-1.43-1.79-2.24-2.58c-0.82-0.79-1.69-1.51-2.51-2.3c-0.82-0.79-1.39-1.82-2.21-2.61c-0.82-0.79-2.25-0.94-3.06-1.72
		c-0.82-0.79-1.36-1.86-2.18-2.65c-0.82-0.79-1.52-1.69-2.34-2.48c-0.82-0.79-1.78-1.42-2.6-2.2c-0.82-0.79-1.41-1.8-2.23-2.59
		c-0.82-0.78-1.65-1.56-2.47-2.35c-0.82-0.78-1.61-1.61-2.43-2.39c-0.82-0.78-1.8-1.41-2.62-2.19c-0.82-0.78-1.92-1.27-2.74-2.06
		c-0.82-0.78-1.1-2.13-1.93-2.91c-0.82-0.78-1.57-1.64-2.39-2.43c-0.82-0.78-1.93-1.26-2.76-2.05c-0.82-0.78-1.87-1.33-2.7-2.11
		c-0.82-0.78-1.29-1.94-2.11-2.73c-0.8-0.76-1.81-1.34-2.61-2.13c-0.8-0.78-1.61-1.55-2.41-2.35c-0.79-0.78-1.76-1.4-2.56-2.19
		c-0.79-0.79-1.72-1.44-2.52-2.23c-0.8-0.78-1.34-1.84-2.15-2.61c-0.81-0.78-1.21-1.99-2.03-2.75c-0.82-0.77-2.13-1-2.97-1.74
		c-0.84-0.75-1.61-1.57-2.47-2.29c-0.86-0.73-1.71-1.46-2.59-2.15c-0.89-0.7-1.83-1.3-2.74-1.96c-0.92-0.66-1.76-1.41-2.7-2.01
		c-0.95-0.61-1.73-1.52-2.7-2.07c-0.98-0.56-2.18-0.71-3.19-1.19c-1.02-0.49-1.86-1.4-2.91-1.8c-1.05-0.4-2.36-0.04-3.44-0.34
		c-1.08-0.3-2.12-0.64-3.23-0.84c-1.1-0.19-2.2-0.09-3.33-0.17c-1.11-0.08-2.19-0.38-3.33-0.34c-1.1,0.04-2.19,0.22-3.32,0.39
		c-1.09,0.16-2.25,0-3.37,0.28c-1.06,0.27-1.95,1.14-3.04,1.52c-1.03,0.36-2.13,0.55-3.19,1.02c-1,0.45-1.97,0.97-2.99,1.52
		c-1.01,0.54-2.24,0.71-3.21,1.32c-0.97,0.61-1.56,1.78-2.49,2.45c-0.93,0.67-1.99,1.14-2.89,1.86c-0.89,0.72-2.11,1.05-2.98,1.8
		c-0.86,0.75-1.51,1.76-2.36,2.53c-0.84,0.78-1.65,1.59-2.48,2.38c-0.83,0.79-1.64,1.6-2.46,2.4c-0.82,0.8-1.74,1.5-2.56,2.3
		c-0.82,0.8-1.65,1.59-2.48,2.38c-0.83,0.78-1.29,1.95-2.12,2.73c-0.82,0.79-2.13,1.06-2.96,1.85c-0.82,0.79-1.48,1.74-2.31,2.53
		c-0.82,0.79-1.89,1.32-2.72,2.1c-0.82,0.79-1.25,1.99-2.07,2.78c-0.82,0.79-1.41,1.82-2.23,2.61c-0.82,0.79-1.73,1.48-2.55,2.27
		c-0.82,0.79-2.19,1.01-3.01,1.8c-0.82,0.79-1.61,1.61-2.43,2.41c-0.82,0.79-1.49,1.73-2.31,2.52c-0.82,0.79-1.29,1.95-2.1,2.74
		c-0.82,0.79-2,1.21-2.82,2c-0.82,0.79-1.23,2-2.05,2.79c-0.81,0.8-1.51,1.71-2.33,2.5c-0.81,0.8-2.22,0.99-3.03,1.78
		c-0.81,0.8-1.15,2.08-1.96,2.88c-0.81,0.8-1.88,1.34-2.69,2.13c-0.81,0.8-1.85,1.36-2.66,2.16c-0.81,0.8-1.46,1.76-2.27,2.56
		c-0.81,0.8-1.43,1.79-2.24,2.59c-0.81,0.8-1.44,1.78-2.25,2.58c-0.81,0.8-1.74,1.48-2.55,2.28c-0.81,0.8-1.7,1.52-2.5,2.33
		c-0.81,0.8-1.69,1.53-2.49,2.34c-0.81,0.8-1.62,1.6-2.43,2.4c-0.8,0.8-1.86,1.36-2.67,2.16c-0.8,0.81-1.22,2-2.02,2.81
		c-0.8,0.81-1.39,1.83-2.19,2.63c-0.8,0.81-2.04,1.19-2.84,2c-0.8,0.81-1.2,2.02-2,2.83c-0.8,0.81-2.04,1.19-2.84,2
		c-0.8,0.81-1.39,1.83-2.19,2.64c-0.8,0.81-1.93,1.29-2.73,2.1c-0.8,0.81-1.19,2.02-1.99,2.84c-0.8,0.81-1.84,1.38-2.64,2.19
		c-0.8,0.81-1.39,1.83-2.18,2.64c-0.8,0.81-1.89,1.34-2.68,2.15c-0.8,0.81-1.48,1.74-2.27,2.55c-0.79,0.82-1.74,1.48-2.54,2.3
		c-0.79,0.82-1.1,2.1-1.9,2.92c-0.79,0.82-2,1.23-2.79,2.05c-0.79,0.82-1.04,2.16-1.83,2.98c-0.79,0.82-2.22,1.02-3.01,1.84
		c-0.79,0.82-1.18,2.03-1.97,2.85c-0.79,0.82-1.62,1.6-2.41,2.42c-0.79,0.82-1.69,1.53-2.48,2.35c-0.79,0.82-1.53,1.69-2.31,2.51
		c-0.79,0.82-1.51,1.7-2.3,2.52c-0.79,0.82-1.53,1.69-2.31,2.51c-0.79,0.82-1.52,1.7-2.3,2.52c-0.78,0.82-1.75,1.48-2.53,2.3
		c-0.78,0.82-1.74,1.49-2.52,2.31c-0.78,0.83-1.31,1.89-2.09,2.72c-0.78,0.83-1.58,1.63-2.37,2.46c-0.78,0.83-1.75,1.48-2.53,2.31
		c-0.78,0.83-1.35,1.85-2.13,2.68c-0.78,0.83-1.55,1.66-2.33,2.49c-0.78,0.83-1.3,1.9-2.08,2.73c-0.78,0.83-1.53,1.68-2.31,2.51
		c-0.78,0.83-2.28,0.98-3.05,1.82c-0.78,0.83-1.41,1.8-2.18,2.63c-0.83,0.89-1.66,1.8-2.51,2.69c-0.84,0.89-1.74,1.73-2.58,2.64
		c-0.83,0.9-1.16,2.26-1.96,3.18c-0.8,0.93-1.94,1.59-2.68,2.56c-0.75,0.98-1.39,2.04-2.05,3.07
		C3.69,187.28,3.57,188.59,3.03,189.69z"/>
</g>
<g>
	<g>
		<path class="st1" d="M206.16,373.36c-1.73-0.06-3.39-1.23-4.62-2.38c-0.72-0.67-1.31-1.45-2.05-2.1
			c-0.88-0.76-1.95-1.22-2.85-1.94c-1.62-1.28-2.97-2.97-4.41-4.44c-1.47-1.49-2.94-2.98-4.43-4.45c-1.28-1.26-3.19-1.96-4.23-3.38
			c-1.25-1.7-2.58-3.35-4.18-4.75c-1.5-1.31-3.16-2.45-4.68-3.75c-0.74-0.64-1.49-1.24-2.25-1.86c-0.93-0.75-1.27-1.56-1.91-2.53
			c-1.08-1.62-2.94-2.72-4.44-3.93c-1.74-1.41-3.02-3.13-4.7-4.58c-1.51-1.3-3.06-2.58-4.48-3.99c-0.68-0.67-1.25-1.43-1.91-2.12
			c-0.88-0.91-1.95-1.53-2.89-2.35c-1.47-1.29-2.62-3.06-4-4.47c-1.53-1.56-3.26-3.03-5.02-4.33c-1.51-1.12-1.91-2.92-3.34-4.11
			c-0.72-0.6-1.59-0.8-2.33-1.32c-0.91-0.64-1.29-1.78-2.03-2.61c-1.08-1.22-2.74-1.71-3.63-3.08c-0.48-0.74-0.89-1.52-1.52-2.15
			c-0.83-0.83-2.02-1.19-2.85-1.99c-0.55-0.53-0.87-1.32-1.33-1.93c-0.64-0.85-1.42-1.57-2.17-2.32c-1.7-1.71-3.28-3.41-5.15-4.94
			c-1.63-1.33-2.92-3.01-4.6-4.28c-0.81-0.61-1.39-1.08-1.9-1.97c-0.6-1.04-1.25-1.98-2.26-2.65c-0.64-0.43-1.54-0.63-2.1-1.16
			c-0.54-0.51-0.82-1.4-1.25-2.01c-1.37-1.93-3.45-3.67-5.12-5.37c-1.15-1.17-2.89-1.72-3.71-3.14c-0.49-0.85-0.92-1.68-1.65-2.36
			c-0.79-0.75-1.83-1.15-2.63-1.87c-0.71-0.64-1.19-1.52-1.81-2.23c-0.72-0.83-1.56-1.57-2.35-2.33c-0.75-0.72-1.51-1.34-2.38-1.91
			c-1.01-0.67-1.46-1.53-2.18-2.48c-1.11-1.48-2.84-2.34-3.84-3.89c-1.27-1.95-2.87-3.95-4.79-5.31c-0.62-0.44-1.49-0.7-2.02-1.24
			c-0.53-0.53-0.8-1.4-1.23-2.02c-1.36-1.94-3.29-3.67-4.96-5.35c-1.32-1.34-2.83-2.65-4.36-3.74c-0.88-0.62-1.57-1.08-2.26-1.93
			c-0.74-0.9-1.4-1.79-2.31-2.54c-0.68-0.57-1.44-1.04-1.94-1.78c-0.5-0.74-0.78-1.58-1.35-2.3c-1.44-1.82-3.15-3.19-4.88-4.69
			c-1.44-1.25-2.74-2.67-4.12-3.98c-1.55-1.47-2.51-3.32-4.02-4.83c-1.34-1.36-2.43-2.87-3.72-4.26c-1.54-1.67-3.41-3.03-4.93-4.74
			c-1.34-1.5-2.55-3.36-2.86-5.38c-0.35-2.27,0.73-4.75,1.78-6.72c0.81-1.51,1.99-3.2,3.48-4.08c1.89-1.11,3.69-2.49,5.3-4
			c1.47-1.37,2.77-2.86,4.09-4.37c0.69-0.79,1.31-1.67,2.04-2.42c0.73-0.76,1.68-1.01,2.55-1.59c1.65-1.1,2.05-3.02,3.44-4.31
			c0.71-0.66,1.42-1.43,2.21-1.99c0.87-0.62,1.82-1.05,2.63-1.78c1.52-1.38,2.81-2.97,4.1-4.55c1.31-1.59,2.27-3.32,3.89-4.6
			c1.45-1.14,3.11-2.16,4.43-3.45c0.75-0.74,1.52-1.5,2.23-2.29c0.72-0.81,1.16-1.75,1.82-2.59c0.56-0.71,1.36-1.18,2.05-1.74
			c0.87-0.7,1.53-1.5,2.19-2.39c1.22-1.65,3.15-2.47,4.62-3.92c1.42-1.4,2.53-2.88,3.77-4.43c0.56-0.7,1.06-1.4,1.58-2.13
			c0.62-0.88,1.3-1.07,2.21-1.62c3.62-2.19,5.23-6.54,8.45-9.13c0.69-0.56,1.53-0.92,2.2-1.51c0.82-0.72,1.32-1.61,1.9-2.51
			c1.02-1.6,2.96-2.89,4.46-4.06c0.79-0.62,1.51-1.22,2.1-2.04c0.59-0.82,0.97-1.71,1.71-2.42c1.53-1.46,3.13-2.92,4.71-4.32
			c0.73-0.65,1.59-1.13,2.32-1.79c0.86-0.78,1.34-1.65,1.86-2.67c0.43-0.83,0.84-1.02,1.66-1.47c1.02-0.56,1.78-1.26,2.63-2.04
			c2.92-2.67,6.4-5.57,8.16-9.14c0.37-0.76,0.86-0.94,1.57-1.35c1-0.56,1.84-1.2,2.5-2.14c0.46-0.66,0.74-1.5,1.27-2.1
			c0.66-0.74,1.69-1.19,2.43-1.85c1.55-1.37,2.83-3.26,4.2-4.82c1.45-1.66,3.31-2.78,4.66-4.55c1.08-1.41,2.57-3.38,4.19-4.2
			c1.88-0.95,2.96-1.92,3.97-3.79c1.01-1.88,3.08-3.45,4.55-4.99c1.44-1.51,3.13-2.69,4.49-4.29c2.87-3.38,5.83-6.86,9.31-9.62
			c0.81-0.64,1.59-1.26,2.09-2.18c0.35-0.63,0.45-1.5,0.84-2.09c0.48-0.72,1.57-1.22,2.2-1.78c0.85-0.76,1.46-1.71,2.22-2.55
			c1.39-1.53,3.19-2.55,4.87-3.7c1.64-1.12,2.32-2.94,4.01-3.97c1.55-0.95,3.14-2.82,4.92-3.18c1.98-0.4,3.23-1.27,4.93-2.32
			c1.39-0.85,3.13-0.24,4.32,0.71c1.75,1.39,3.62,2.5,5.27,4.04c1.59,1.48,3.07,2.94,4.92,4.07c1.52,0.93,2.74,2.78,3.87,4.14
			c0.74,0.88,1.46,1.65,2.41,2.31c0.62,0.43,1.28,0.72,1.74,1.33c0.54,0.71,0.81,1.58,1.4,2.29c0.72,0.86,1.65,1.52,2.47,2.28
			c1.55,1.43,2.6,3.16,4.53,4.12c1.86,0.92,2.87,2.57,4.29,4.08c1.42,1.52,2.79,3.19,4.38,4.54c1.62,1.38,3.32,2.55,4.81,4.09
			c0.8,0.83,1.42,1.81,2.24,2.62c0.68,0.67,1.48,1.22,2.19,1.86c1.76,1.58,3.27,3.44,4.97,5.08c0.78,0.75,1.68,1.33,2.47,2.06
			c0.65,0.6,0.9,1.29,1.36,2.04c1.14,1.85,3.11,3.02,4.59,4.58c1.41,1.48,2.93,2.85,4.39,4.28c1.76,1.74,3.45,3.79,5.49,5.2
			c1.57,1.09,2.87,2.18,4.15,3.63c1.45,1.64,2.74,3.35,4.29,4.92c3.05,3.09,6.5,5.79,9.32,9.07c0.63,0.73,1.32,1.28,2.19,1.7
			c0.63,0.3,1.2,0.41,1.65,0.92c0.57,0.64,0.84,1.57,1.4,2.25c0.81,0.98,1.77,1.91,2.69,2.8c1.31,1.25,2.69,2.56,4.25,3.49
			c1.82,1.09,3.19,2.81,4.43,4.52c1.24,1.71,2.93,2.99,4.39,4.51c1.58,1.64,3.27,3.11,5.05,4.54c1.43,1.15,3.11,2.28,4.31,3.68
			c0.57,0.67,0.93,1.51,1.48,2.2c0.77,0.98,1.81,1.58,2.75,2.37c1.34,1.13,1.99,2.79,3.44,3.87c1.82,1.34,3.67,2.59,5.24,4.24
			c1.31,1.37,2.71,2.62,4.07,3.93c1.8,1.74,3.35,3.69,5.09,5.47c1.42,1.46,2.65,3.14,4.12,4.53c0.72,0.69,1.58,1.05,2.41,1.55
			c1.02,0.62,1.48,1.68,2.26,2.56c1.3,1.48,2.83,3.07,4.61,3.93c0.96,0.46,1.41,0.71,2.01,1.58c0.67,0.97,1.41,1.7,2.32,2.44
			c1.51,1.22,3.05,2.39,4.59,3.58c0.84,0.65,1.86,1.15,2.54,1.97c0.74,0.88,1.19,1.92,2.05,2.73c0.65,0.61,1.41,1.09,1.97,1.8
			c0.57,0.72,0.96,1.58,1.43,2.36c1.11,1.85,2.29,3.61,1.57,5.87c-0.57,1.78-0.65,3.7-1.39,5.4c-0.92,2.1-2.32,3.86-3.9,5.51
			c-0.68,0.71-1.35,1.39-1.91,2.21c-0.53,0.78-0.91,1.62-1.6,2.28c-0.84,0.8-1.84,1.35-2.63,2.22c-0.77,0.84-1.52,1.71-2.25,2.58
			c-0.62,0.73-1.1,1.57-1.77,2.26c-0.66,0.69-1.47,1.23-2.18,1.86c-1.69,1.5-3.23,3.23-4.83,4.84c-1.36,1.36-2.81,2.57-4.03,4.08
			c-0.72,0.89-1.31,1.48-2.28,2.08c-0.95,0.58-1.8,1.23-2.43,2.17c-0.42,0.62-0.65,1.59-1.16,2.13c-0.6,0.62-1.65,0.89-2.35,1.42
			c-0.82,0.62-1.37,1.4-1.83,2.31c-0.5,0.98-0.81,1.42-1.73,2.07c-1.55,1.09-3.16,2.42-4.42,3.84c-0.66,0.75-1.03,1.63-1.61,2.43
			c-0.63,0.86-1.51,1.57-2.27,2.32c-1.31,1.3-2.98,2.05-4.04,3.64c-0.46,0.69-0.73,1.54-1.39,2.06c-0.85,0.66-1.87,0.97-2.66,1.75
			c-1.41,1.4-2.53,3.22-3.85,4.72c-1.46,1.66-3.17,3.12-4.84,4.56c-1.5,1.29-3.28,2.43-4.44,4.04c-0.54,0.74-0.96,1.48-1.62,2.12
			c-0.82,0.81-1.73,1.52-2.48,2.4c-0.62,0.73-1.04,1.67-1.71,2.34c-0.62,0.62-1.49,1-2.18,1.55c-1.62,1.3-3.3,2.86-4.31,4.69
			c-0.92,1.65-2.39,2.94-3.96,3.99c-0.74,0.49-1.5,0.91-2.15,1.54c-0.82,0.81-1.42,1.82-2.2,2.67c-2.84,3.06-5.77,6.2-8.83,9.04
			c-1.55,1.44-3.2,2.86-4.44,4.58c-1.27,1.75-3.08,2.84-4.38,4.55c-1.29,1.69-2.62,3.19-4.18,4.66c-0.7,0.66-1.47,1.23-2.14,1.93
			c-0.79,0.83-1.36,1.89-2.2,2.66c-0.58,0.53-1.31,0.88-1.93,1.35c-0.92,0.69-1.61,1.55-2.37,2.4c-0.61,0.68-1.24,1.34-1.73,2.11
			c-0.54,0.83-0.78,1.48-1.59,2.05c-1.84,1.29-3.22,2.8-4.82,4.37c-0.67,0.65-1.42,1.24-2.04,1.94c-0.72,0.8-1.1,1.71-1.7,2.58
			c-1.1,1.61-2.61,3.03-3.85,4.54c-1.24,1.51-3.23,1.96-4.31,3.65c-0.42,0.65-0.6,1.64-1.15,2.16c-0.53,0.5-1.47,0.66-2.09,1.07
			c-1.59,1.08-1.74,3.15-3.24,4.15c-0.8,0.53-1.61,0.98-2.27,1.7c-0.67,0.74-0.95,1.65-1.52,2.44c-0.5,0.7-1.27,1.08-1.95,1.6
			c-0.9,0.69-1.78,1.39-2.68,2.08c-1.68,1.29-2.25,3.21-3.76,4.63c-0.72,0.68-1.34,1.33-2.24,1.75c-0.81,0.37-1.59,0.73-2.25,1.34
			c-1.51,1.4-2.55,3.31-4.08,4.7c-0.61,0.55-1.27,0.74-2.02,1.04C208.13,372.58,207.18,373.29,206.16,373.36
			c-3.19,0.24-3.22,5.24,0,5c2.04-0.15,3.75-1.11,5.61-1.85c2.19-0.87,3.59-2.61,5.12-4.32c0.58-0.64,1-1.55,1.68-2.1
			c0.8-0.65,1.92-0.86,2.76-1.51c0.83-0.64,1.6-1.41,2.35-2.14c0.98-0.97,1.38-2.04,2.15-3.12c0.49-0.69,1.28-1.08,1.95-1.6
			c0.83-0.64,1.62-1.29,2.46-1.91c0.86-0.64,1.56-1.31,2.12-2.23c0.54-0.87,0.71-1.52,1.57-2.09c0.87-0.58,1.74-1.07,2.41-1.9
			c0.58-0.71,0.75-1.62,1.28-2.32c0.46-0.6,1.1-0.73,1.77-1.1c1.01-0.56,1.76-1.3,2.33-2.31c0.37-0.65,0.51-1.39,1.08-1.88
			c0.79-0.68,1.85-0.94,2.62-1.71c1.44-1.43,2.68-3.17,4.02-4.7c1.27-1.46,2.06-3.12,3.48-4.44c1.7-1.58,3.14-3.3,5.05-4.63
			c1.66-1.15,2.28-2.79,3.55-4.25c0.6-0.69,1.19-1.48,1.88-2.09c0.87-0.78,1.97-1.24,2.81-2.08c0.68-0.68,1.19-1.51,1.82-2.24
			c0.7-0.8,1.53-1.45,2.31-2.16c1.65-1.51,3.19-3.11,4.5-4.92c1.25-1.73,3.12-2.79,4.39-4.54c1.34-1.85,3.07-3.37,4.75-4.91
			c1.56-1.42,2.93-3.02,4.37-4.56c1.49-1.6,3.2-3.06,4.6-4.74c0.62-0.75,1.13-1.64,1.9-2.25c0.69-0.55,1.52-0.91,2.21-1.48
			c1.76-1.47,3.3-2.83,4.41-4.83c0.86-1.54,2.56-2.96,4.02-3.93c1.98-1.33,2.92-3.28,4.62-4.86c0.68-0.63,1.4-1.23,2.01-1.94
			c0.65-0.76,1.07-1.7,1.74-2.43c1.41-1.52,3.36-2.68,4.91-4.08c1.58-1.43,3.04-2.95,4.44-4.55c0.78-0.9,1.52-1.79,2.23-2.74
			c0.69-0.91,1.37-1.24,2.32-1.84c0.81-0.51,1.46-1.11,2.01-1.88c0.53-0.74,0.82-1.67,1.5-2.3c0.64-0.59,1.5-0.97,2.16-1.55
			c0.91-0.79,1.79-1.7,2.62-2.58c1.31-1.38,2.03-3,3.48-4.27c1.52-1.34,3.64-2.48,4.77-4.19c0.51-0.77,0.71-1.78,1.43-2.37
			c0.69-0.56,1.61-0.8,2.3-1.4c0.68-0.6,1.16-1.31,1.59-2.1c0.65-1.21,1.12-1.5,2.25-2.25c1.77-1.17,2.82-3.04,4.36-4.47
			c1.53-1.42,3.03-2.87,4.49-4.36c1.47-1.5,3.12-2.81,4.58-4.3c1.6-1.63,2.77-3.66,4.41-5.26c0.69-0.67,1.54-1.14,2.24-1.8
			c0.87-0.82,1.42-1.83,2.08-2.81c1.26-1.87,3.05-3.41,4.43-5.23c1.11-1.47,2.1-3.36,2.6-5.14c0.31-1.11,0.28-2.26,0.62-3.36
			c0.34-1.1,0.81-2.17,0.8-3.35c-0.02-2.15-0.51-4.2-1.62-6.04c-1.13-1.87-2.17-4.01-3.79-5.51c-0.67-0.63-1.39-1.09-1.95-1.84
			c-0.7-0.93-1.2-1.89-2.12-2.66c-1.53-1.3-3.28-2.37-4.87-3.61c-0.95-0.73-2.11-1.49-2.89-2.41c-0.52-0.61-0.86-1.36-1.41-1.94
			c-0.75-0.8-1.61-1.24-2.58-1.69c-1.1-0.51-1.86-1.41-2.72-2.26c-1.52-1.51-2.43-3.27-4.37-4.35c-1.98-1.1-3.25-3.08-4.83-4.7
			c-1.51-1.54-2.88-3.2-4.38-4.75c-1.57-1.63-3.31-3.08-4.87-4.73c-1.43-1.51-3.06-2.91-4.74-4.15c-0.76-0.56-1.61-0.95-2.2-1.71
			c-0.72-0.91-1.24-1.88-2.13-2.66c-0.7-0.62-1.6-1.06-2.24-1.76c-0.67-0.73-1.02-1.7-1.67-2.46c-1.34-1.55-3.08-2.83-4.68-4.1
			c-3.47-2.76-6.9-5.89-9.61-9.39c-1.2-1.56-2.69-3.34-4.35-4.41c-1.81-1.16-3.39-2.45-4.91-4.01c-0.59-0.61-1.29-1.21-1.78-1.9
			c-0.57-0.8-0.87-1.7-1.56-2.43c-0.68-0.73-1.48-1.11-2.38-1.51c-0.89-0.4-1.35-0.93-1.96-1.68c-1.31-1.62-2.97-2.89-4.52-4.28
			c-1.83-1.64-3.55-3.37-5.25-5.15c-1.45-1.52-2.66-3.2-4.11-4.72c-0.64-0.67-1.24-1.39-1.95-1.98c-0.86-0.72-1.88-1.18-2.73-1.92
			c-3.5-3.06-6.51-6.7-9.97-9.81c-0.74-0.67-1.67-1.22-2.29-2.01c-0.59-0.75-0.87-1.69-1.5-2.43c-0.61-0.72-1.38-1.24-2.1-1.83
			c-1.18-0.96-2.24-2.09-3.31-3.17c-1.49-1.51-2.97-2.94-4.55-4.37c-1.55-1.41-2.79-3.14-4.34-4.58c-1.56-1.45-3.3-2.59-4.76-4.15
			c-1.57-1.67-3.23-3.28-4.67-5.07c-0.6-0.76-1.19-1.48-2.01-2.02c-0.86-0.57-1.81-0.78-2.57-1.5c-0.69-0.66-1.24-1.47-1.92-2.14
			c-0.85-0.84-1.93-1.51-2.67-2.44c-0.59-0.75-0.87-1.69-1.5-2.43c-0.58-0.67-1.29-1.17-2.02-1.65c-1.74-1.16-3.08-2.94-4.42-4.55
			c-1.28-1.52-2.83-2.26-4.25-3.56c-1.89-1.73-3.73-3.51-5.79-5.02c-3.03-2.22-6.79-4.93-10.77-3.4c-1.69,0.65-2.9,2.12-4.68,2.46
			c-1.11,0.21-2.03,0.45-2.98,1.09c-0.94,0.63-1.73,1.46-2.68,2.09c-0.79,0.52-1.63,0.94-2.39,1.52c-0.92,0.7-1.44,1.53-2.11,2.44
			c-0.54,0.72-1.19,0.99-1.94,1.48c-1.11,0.73-2.15,1.62-3.18,2.46c-1.46,1.19-2.4,2.81-3.86,3.99c-0.88,0.71-1.85,1.32-2.46,2.32
			c-0.45,0.74-0.56,1.77-1.08,2.45c-0.6,0.78-1.71,1.35-2.44,2.03c-0.69,0.64-1.42,1.23-2.1,1.88c-1.86,1.79-3.56,3.88-5.26,5.82
			c-2.91,3.31-6.39,6.03-9.32,9.35c-0.74,0.84-1.04,1.9-1.71,2.74c-0.46,0.58-1.03,0.72-1.69,1.06c-1.88,0.96-3.57,2.9-4.88,4.53
			c-0.62,0.77-1.16,1.58-1.9,2.25c-0.89,0.79-1.87,1.42-2.69,2.3c-1.55,1.66-2.84,3.82-4.59,5.26c-1.52,1.25-2.82,2.07-3.82,3.85
			c-0.99,1.77-3.16,2.08-4.3,3.8c-0.47,0.72-0.67,1.6-1.16,2.29c-0.54,0.76-1.41,1.43-2.06,2.09c-1.65,1.68-3.25,3.39-5.03,4.94
			c-1.51,1.31-3.35,1.79-4.41,3.65c-0.42,0.74-0.63,1.49-1.27,2.09c-0.86,0.81-1.91,1.4-2.77,2.23c-1.53,1.46-3.26,2.79-4.72,4.31
			c-0.76,0.79-1.14,1.77-1.79,2.62c-0.66,0.87-1.66,1.42-2.49,2.13c-1.6,1.37-3.24,2.57-4.36,4.39c-1.11,1.79-2.99,2.52-4.36,4.11
			c-1.33,1.54-2.51,3.24-3.89,4.72c-0.7,0.75-1.38,1.7-2.19,2.32c-0.82,0.63-1.82,0.92-2.63,1.6c-1.35,1.13-2.47,2.98-3.5,4.42
			c-1.17,1.63-2.57,3.38-4.3,4.45c-0.76,0.47-1.54,0.89-2.19,1.52c-0.84,0.82-1.36,1.9-2.18,2.73c-0.69,0.69-1.56,1.17-2.28,1.82
			c-0.9,0.81-1.43,1.79-2.11,2.77c-2.37,3.42-6.62,4.88-9.04,8.19c-1.17,1.6-2.19,3.23-3.54,4.7c-0.65,0.71-1.34,1.41-2.03,2.07
			c-0.88,0.85-2,1.31-2.95,2.09c-1.55,1.29-3.18,2.69-4.16,4.47c-0.44,0.8-0.64,1.23-1.46,1.66c-1,0.53-1.89,1.03-2.66,1.87
			c-2.98,3.24-5.53,6.82-9.22,9.34c-0.65,0.45-1.41,0.73-2.06,1.19c-0.95,0.67-1.66,1.58-2.39,2.47c-1.42,1.74-2.65,3.66-3.43,5.79
			c-0.72,1.97-1.3,4.31-1.08,6.4c0.26,2.54,1.32,4.82,2.79,6.87c1.31,1.82,2.91,3.42,4.55,4.94c1.65,1.52,2.91,3.22,4.46,4.84
			c0.65,0.68,1.43,1.3,2.01,2.04c0.61,0.77,1.03,1.67,1.67,2.44c1.31,1.57,2.94,2.93,4.42,4.34c1.53,1.46,3.19,2.7,4.63,4.26
			c1.46,1.58,2.19,3.6,3.86,5c0.74,0.62,1.5,1.17,2.15,1.9c0.74,0.84,1.33,1.8,2.18,2.55c1.61,1.41,3.47,2.49,5.04,3.98
			c1.51,1.43,2.95,2.98,4.33,4.54c1.44,1.63,2.1,3.39,4.07,4.55c1.74,1.03,3.23,2.58,4.31,4.29c1.23,1.94,3.19,3.01,4.5,4.85
			c0.56,0.79,1.06,1.57,1.79,2.22c0.75,0.66,1.65,1.11,2.41,1.75c1.77,1.5,3.01,3.44,4.65,5.04c0.76,0.74,1.78,1.11,2.55,1.81
			c0.57,0.51,0.8,1.21,1.2,1.86c1.17,1.88,3.18,2.57,4.63,4.12c1.44,1.54,3.39,3,4.49,4.78c0.46,0.75,0.87,1.54,1.5,2.17
			c0.86,0.86,2.14,1.07,2.98,1.86c0.55,0.52,0.82,1.39,1.25,2.01c0.64,0.9,1.45,1.52,2.33,2.18c1.9,1.42,3.45,3.28,5.3,4.79
			c1.68,1.37,3.09,3.11,4.62,4.64c1.54,1.54,2.44,3.53,4.3,4.76c0.62,0.41,1.29,0.68,1.78,1.26c0.68,0.8,1.01,1.82,1.78,2.58
			c0.63,0.62,1.4,1.05,2.13,1.53c0.82,0.55,1.17,1.21,1.72,2.01c0.63,0.92,1.35,1.67,2.33,2.23c0.68,0.39,1.41,0.53,1.9,1.13
			c0.67,0.82,0.91,1.88,1.69,2.66c0.8,0.81,1.82,1.41,2.69,2.14c1.61,1.36,3.13,2.75,4.6,4.26c0.68,0.7,1.24,1.44,1.85,2.19
			c0.89,1.1,2,1.76,3.07,2.66c1.5,1.26,2.7,2.89,4.16,4.22c1.62,1.47,3.36,2.82,4.78,4.49c1.36,1.61,3.06,2.94,4.72,4.22
			c0.76,0.59,1.58,1.03,2.12,1.84c0.66,1.01,1.12,1.96,2.03,2.79c3.19,2.86,6.79,5.22,9.71,8.38c1.25,1.35,2.02,2.91,3.62,3.94
			c1.83,1.19,3.32,2.58,4.84,4.16c1.45,1.51,2.89,3.03,4.39,4.49c0.67,0.66,1.31,1.36,2.02,1.98c0.91,0.79,2,1.27,2.93,2.01
			c0.74,0.58,1.28,1.39,1.96,2.03c0.83,0.78,1.79,1.46,2.74,2.09c1.67,1.1,3.41,1.7,5.42,1.76
			C209.38,378.47,209.37,373.47,206.16,373.36z"/>
	</g>
</g>
</svg>
