<?xml version="1.0" encoding="utf-8"?>
<!-- Generator: Adobe Illustrator 26.1.0, SVG Export Plug-In . SVG Version: 6.00 Build 0)  -->
<svg version="1.1" id="圖層_1" xmlns="http://www.w3.org/2000/svg" xmlns:xlink="http://www.w3.org/1999/xlink" x="0px" y="0px"
	 viewBox="0 0 85 85" style="enable-background:new 0 0 85 85;" xml:space="preserve">
<style type="text/css">
	.st0{clip-path:url(#SVGID_00000074407297739495395150000003415646442836275347_);fill:#D6815C;}
	.st1{clip-path:url(#SVGID_00000074407297739495395150000003415646442836275347_);}
	.st2{fill:#684934;}
	.st3{clip-path:url(#SVGID_00000054973811981040831690000015837545209166015118_);fill:#D6815C;}
	.st4{clip-path:url(#SVGID_00000054973811981040831690000015837545209166015118_);}
	.st5{clip-path:url(#SVGID_00000054973811981040831690000015837545209166015118_);fill:#F2B499;}
	.st6{clip-path:url(#SVGID_00000008833296334295087480000014633185729269758859_);fill:#D6815C;}
	.st7{clip-path:url(#SVGID_00000008833296334295087480000014633185729269758859_);fill:#684934;}
</style>
<g>
	<defs>
		<rect id="SVGID_00000090997581097593191330000008203009018654940833_" x="0" y="-0.09" width="85" height="85"/>
	</defs>
	<clipPath id="SVGID_00000176030710524286403860000014414378074447111843_">
		<use xlink:href="#SVGID_00000090997581097593191330000008203009018654940833_"  style="overflow:visible;"/>
	</clipPath>
	<path style="clip-path:url(#SVGID_00000176030710524286403860000014414378074447111843_);fill:#D6815C;" d="M35.28,65.04
		c1.62,0.14,3.16,0.49,4.47,1.25c1.48,0.85,2.85,1.91,4.46,2.49c1.6,0.58,3.56,0.59,4.84-0.54c0.6-0.52,0.99-1.23,1.34-1.94
		c1.19-2.42,2.04-5.3,0.94-7.76c-0.73-1.63-2.2-2.8-3.65-3.85c-1.55-1.12-4.13-2.2-5.26-3.69c-1.18-1.54-1.76-3.29-3.2-4.7
		c-1.29-1.26-2.33-2.8-3.61-4.11c-1.63-1.66-3.49-3.06-5.54-4.17c-1.64-0.89-3.4-1.59-5.23-2.08c-1.31-0.35-2.61-0.59-3.88-0.71
		c-0.52-0.05-1.01-0.07-1.48-0.07h-0.59v29.98c2.82,0,5.65,0,8.47,0C29.79,65.12,32.64,64.81,35.28,65.04z"/>
	<path style="clip-path:url(#SVGID_00000176030710524286403860000014414378074447111843_);fill:#D6815C;" d="M57.48,36.15
		c-6.71,7.89-15.1,7.28-20.18,5.87c0.81,1.29,1.65,2.74,2.45,4.31C49.94,47.58,55,41.71,57.48,36.15z"/>
	<path style="clip-path:url(#SVGID_00000176030710524286403860000014414378074447111843_);fill:#684934;" d="M58.52,35.22
		c0.05-0.46-0.22-0.9-0.66-1.05c-0.44-0.16-0.93,0.02-1.18,0.41c-2.91,4.59-7.27,6.96-12.95,7.02c-4.32,0.06-7.87-1.33-7.9-1.34
		c-0.02-0.01-0.04,0-0.06-0.01c-1.46-1.23-3.07-2.3-4.79-3.17c-1.77-0.9-3.67-1.61-5.65-2.11c-1.41-0.36-2.82-0.6-4.19-0.72
		c-0.58-0.05-1.13-0.08-1.66-0.08h-0.59v0.96v1.04h0.58c0.47,0,0.96,0.02,1.48,0.07c1.27,0.11,2.57,0.34,3.88,0.67
		c1.83,0.46,3.59,1.12,5.23,1.96c2.05,1.04,3.91,2.36,5.54,3.92c0.83,0.79,2.28,2.28,3.54,4.05c0.07,0.1,0.14,0.2,0.21,0.3
		c0.95,1.38,1.75,2.91,2.05,4.42c0.05,0.25,0.12,0.62,0.37,0.96c0.34,0.47,0.84,0.65,1.19,0.78c2.32,0.83,6.38,2.83,7.41,6.91
		c0.09,0.37,0.14,0.66,0.17,0.98c0.15,1.18-0.07,2.44-0.54,3.57c-0.13-0.17-0.29-0.4-0.49-0.71c-0.29-0.47-0.91-0.61-1.38-0.31
		c-0.47,0.29-0.61,0.91-0.31,1.38c0.39,0.62,0.74,1.09,1.08,1.42c-0.11,0.13-0.22,0.25-0.34,0.37c-0.29,0.27-0.65,0.56-1.09,0.79
		c-0.22-0.41-0.64-0.84-1.3-1.34c-0.44-0.33-1.07-0.25-1.4,0.2c-0.33,0.44-0.25,1.07,0.2,1.4c0.11,0.08,0.17,0.14,0.25,0.2
		c-0.16-0.01-0.33-0.02-0.5-0.05c-1.05-0.18-2.14-0.66-3.14-1.4c-0.38-0.28-0.75-0.54-1.12-0.79c-1.25-0.86-2.42-1.67-3.58-3.13
		c-0.34-0.43-0.97-0.5-1.41-0.16c-0.44,0.34-0.5,0.97-0.16,1.41c0.1,0.12,0.2,0.24,0.3,0.35H18.89v1.6v0.4h18.8c0,0,0,0,0.01,0
		c0.54,0.43,1.09,0.8,1.62,1.17c0.35,0.24,0.71,0.49,1.08,0.76c1.25,0.91,2.63,1.52,3.98,1.75c0.38,0.07,0.76,0.1,1.13,0.1
		c1.64,0,3.18-0.63,4.43-1.82c0.52-0.49,0.96-1.07,1.33-1.69c0.04-0.06,0.07-0.13,0.11-0.2c0.93-1.65,1.38-3.62,1.15-5.46
		c-0.03-0.39-0.1-0.79-0.22-1.28c-0.93-3.69-4.01-6.64-8.69-8.31c-0.07-0.02-0.16-0.06-0.22-0.08c-0.01-0.05-0.02-0.1-0.03-0.16
		c-0.24-1.22-0.74-2.44-1.39-3.59c0.27,0.01,0.55,0.02,0.82,0.02C56.96,47.56,58.51,35.35,58.52,35.22z M54.68,39.85
		c-1.97,3.06-5.98,6.29-14.05,5.6c-0.63-0.87-1.3-1.67-1.94-2.37C42.72,43.86,49.36,44.19,54.68,39.85z"/>
</g>
</svg>
