<?xml version="1.0" encoding="utf-8"?>
<!-- Generator: Adobe Illustrator 26.1.0, SVG Export Plug-In . SVG Version: 6.00 Build 0)  -->
<svg version="1.1" id="圖層_1" xmlns="http://www.w3.org/2000/svg" xmlns:xlink="http://www.w3.org/1999/xlink" x="0px" y="0px"
	 viewBox="0 0 85 85" style="enable-background:new 0 0 85 85;" xml:space="preserve">
<style type="text/css">
	.st0{clip-path:url(#SVGID_00000013872068096322783440000009074066847339134367_);fill:#D6815C;}
	.st1{clip-path:url(#SVGID_00000013872068096322783440000009074066847339134367_);}
	.st2{fill:#684934;}
	.st3{clip-path:url(#SVGID_00000057836321777761460110000014843360644812486328_);fill:#D6815C;}
	.st4{clip-path:url(#SVGID_00000057836321777761460110000014843360644812486328_);}
	.st5{clip-path:url(#SVGID_00000057836321777761460110000014843360644812486328_);fill:#F2B499;}
	.st6{clip-path:url(#SVGID_00000171000555041593636810000012596057891041607303_);fill:#D6815C;}
	.st7{clip-path:url(#SVGID_00000171000555041593636810000012596057891041607303_);fill:#684934;}
</style>
<g>
	<defs>
		<rect id="SVGID_00000057832618054459966280000014330900495490552732_" x="0" y="0" width="85" height="85"/>
	</defs>
	<clipPath id="SVGID_00000120531188467948120120000016807009916447243179_">
		<use xlink:href="#SVGID_00000057832618054459966280000014330900495490552732_"  style="overflow:visible;"/>
	</clipPath>
	<path style="clip-path:url(#SVGID_00000120531188467948120120000016807009916447243179_);fill:#D6815C;" d="M66.1,34.83h-4.54
		l-7.97-12.45c-5.2-5.01-10.98-8.42-19.6-8.42c-12.31,0-22.5,7.85-24.24,18.07l-0.06,0.8c-0.34,0.4,0.74-0.09,0.48,0.37
		c-2.16-0.22-4.25,0.27-5.93,1.58c-4.05,3.17-4.12,9.86-0.15,14.94c0,0,2.42,3.19,6.46,5.5l-0.36,0.14l-0.87-0.25
		c-2.18,1.34-3.96,2.72-5.41,4.26c-0.89,0.94-1.62,2.09-2,3.34c-1.35,4.46,3.25,6.95,7.21,6.95c3.83,0,7.82-0.98,8.9-4.31
		l-0.64-0.75l22.88-0.18c0.05,1.28,0.64,2.34,1.54,3.17v0.01l0,0c1.48,1.35,3.77,2.07,5.9,2.07c3.83,0,7.82-0.98,8.9-4.31l0.62-0.31
		h8.89"/>
	<g style="clip-path:url(#SVGID_00000120531188467948120120000016807009916447243179_);">
		<circle class="st2" cx="18.5" cy="33.57" r="1.56"/>
		<path class="st2" d="M29.09,35.15c-0.86,0-1.56,0.7-1.56,1.56c0,0.86,0.7,1.56,1.56,1.56c0.86,0,1.56-0.7,1.56-1.56
			C30.65,35.85,29.95,35.15,29.09,35.15z"/>
		<path class="st2" d="M11.54,41.59c-0.22-0.05-0.45-0.14-0.7-0.28c-0.23-0.12-0.43-0.27-0.6-0.44c-0.15-0.15-0.3-0.35-0.46-0.61
			c-0.04-0.06-0.08-0.22-0.11-0.36c-0.03-0.14-0.07-0.27-0.11-0.4c-0.05-0.14-0.1-0.27-0.16-0.41c-0.06-0.14-0.12-0.28-0.13-0.36
			c0,0,0,0,0-0.01c0.95-0.27,1.62-0.94,1.62-1.73c0-1.03-1.15-1.86-2.56-1.86c-1.42,0-2.56,0.83-2.56,1.86
			c0,0.61,0.41,1.15,1.03,1.49c-0.03,0.08-0.07,0.15-0.08,0.24c-0.03,0.25-0.11,0.5-0.24,0.84c-0.12,0.3-0.24,0.53-0.39,0.72
			c-0.16,0.2-0.34,0.37-0.57,0.51L5.35,40.9c-0.19,0.13-0.37,0.24-0.51,0.28c-0.54,0.13-0.87,0.66-0.75,1.2
			c0.11,0.46,0.52,0.77,0.97,0.77c0.08,0,0.15-0.01,0.23-0.03c0.49-0.12,0.86-0.36,1.16-0.56l0.14-0.09
			c0.42-0.27,0.77-0.58,1.06-0.97c0.11-0.14,0.21-0.3,0.3-0.46c0.04,0.08,0.06,0.16,0.11,0.24c0.24,0.41,0.5,0.74,0.77,1.01
			c0.29,0.29,0.66,0.56,1.04,0.77c0.4,0.22,0.8,0.38,1.2,0.47c0.08,0.02,0.15,0.03,0.23,0.03c0.45,0,0.86-0.31,0.97-0.77
			C12.41,42.25,12.07,41.72,11.54,41.59z"/>
		<path class="st2" d="M62.36,34.14c-1.44-3.31-4.39-9-7.58-12.14c-6.47-6.34-12.64-9.04-20.66-9.04c-12.55,0-23.39,8.13-25.23,18.9
			c-0.02,0.1,0,0.2,0.01,0.29c-1.91,0.08-3.68,0.7-5.14,1.84c-2.21,1.72-3.44,4.4-3.47,7.53c-0.03,3.05,1.09,6.18,3.14,8.8
			c0.12,0.16,1.82,2.36,4.71,4.45c-1.95,1.26-3.55,2.54-4.83,3.91c-1.06,1.13-1.83,2.42-2.23,3.73c-0.56,1.84-0.29,3.58,0.78,5.02
			c1.45,1.96,4.35,3.22,7.39,3.22c4.91,0,8.27-1.52,9.57-4.3h20.85c0.04,0,0.08-0.02,0.12-0.02c0.17,0.39,0.38,0.76,0.64,1.11
			c1.45,1.96,4.35,3.22,7.39,3.22c4.91,0,8.27-1.52,9.57-4.3h8.7v-1v-1h-9.38c-0.01,0-0.03,0.01-0.04,0.01
			c-0.08,0-0.15,0.02-0.22,0.04c-0.05,0.01-0.11,0.02-0.16,0.05c-0.06,0.03-0.11,0.07-0.16,0.11s-0.1,0.07-0.15,0.12
			c-0.04,0.04-0.07,0.1-0.1,0.15c-0.04,0.06-0.08,0.12-0.1,0.18c-0.01,0.01-0.02,0.02-0.02,0.04c-1.02,3.14-5.41,3.61-7.94,3.61
			c-0.09,0-0.19-0.01-0.28-0.01c0.17-0.35,0.37-0.73,0.59-1.04c0.32-0.45,0.21-1.08-0.24-1.39c-0.45-0.32-1.08-0.21-1.39,0.24
			c-0.44,0.62-0.79,1.37-1.02,1.9c-0.64-0.17-1.24-0.4-1.77-0.69c0.03-0.21,0.15-0.66,0.61-1.39c0.29-0.47,0.15-1.08-0.32-1.38
			c-0.47-0.29-1.09-0.15-1.38,0.32c-0.25,0.4-0.43,0.75-0.57,1.07c-0.01-0.01-0.02-0.02-0.03-0.03c-0.69-0.92-0.84-2.02-0.47-3.25
			c0.31-1.02,0.92-2.04,1.77-2.94c1.33-1.41,3.02-2.74,5.18-4.06c1.86,2.13,4.04,3.25,6.43,3.25c0.34,0,0.68-0.02,1.03-0.07
			c4.64-0.6,7.45-3.5,8.59-8.86c1-4.7-0.05-10.27-1.43-14.17h2.95v-1v-1h-3.71V34.14z M62.62,49.89c-0.97,4.55-3.1,6.8-6.9,7.29
			c-3.03,0.39-5.18-1.67-6.45-3.47c-1.86-2.63-3.21-6.62-3.81-11.23c-0.01-0.06-0.79-6.47,1.78-13.36c0.19-0.52-0.07-1.09-0.59-1.29
			c-0.52-0.19-1.09,0.07-1.29,0.59c-2.74,7.35-1.93,14.03-1.89,14.31c0.61,4.74,1.94,8.74,3.84,11.64c-2.23,1.39-4.02,2.79-5.44,4.3
			c-1.06,1.13-1.83,2.42-2.23,3.73c-0.2,0.66-0.29,1.31-0.28,1.93H18.15c-0.01,0-0.03,0.01-0.04,0.01c-0.08,0-0.15,0.02-0.22,0.04
			c-0.05,0.01-0.11,0.02-0.16,0.05c-0.06,0.03-0.11,0.07-0.16,0.11s-0.1,0.07-0.14,0.11c-0.04,0.04-0.07,0.1-0.1,0.15
			c-0.04,0.06-0.08,0.12-0.1,0.18c-0.01,0.01-0.02,0.02-0.02,0.04c-1.02,3.14-5.41,3.61-7.94,3.61c-0.05,0-0.09-0.01-0.14-0.01
			c0.17-0.35,0.37-0.73,0.6-1.05c0.32-0.45,0.21-1.08-0.24-1.39c-0.45-0.32-1.07-0.21-1.39,0.24c-0.45,0.63-0.81,1.4-1.03,1.93
			c-0.63-0.16-1.23-0.38-1.76-0.66c0.01-0.15,0.09-0.61,0.62-1.45c0.29-0.47,0.15-1.08-0.32-1.38c-0.47-0.29-1.09-0.15-1.38,0.32
			c-0.28,0.44-0.47,0.84-0.61,1.18c-0.04-0.05-0.09-0.09-0.12-0.14c-0.69-0.92-0.84-2.02-0.47-3.25c0.31-1.02,0.92-2.04,1.77-2.94
			c1.33-1.42,3.04-2.75,5.2-4.08c1.7,1,3.69,1.87,5.93,2.31c0.06,0.01,0.13,0.02,0.19,0.02c0.47,0,0.89-0.33,0.98-0.81
			c0.11-0.54-0.25-1.07-0.79-1.17c-6.72-1.32-11.22-7.15-11.27-7.22c-1.78-2.28-2.75-4.97-2.72-7.56c0.02-2.51,0.98-4.63,2.7-5.98
			c1.72-1.34,4-1.76,6.45-1.18c2.53,0.6,4.9,2.19,6.68,4.47c0.34,0.44,0.97,0.51,1.4,0.17c0.44-0.34,0.51-0.97,0.17-1.4
			c-2.06-2.64-4.83-4.48-7.79-5.18c-0.36-0.08-0.71-0.15-1.06-0.2c0-0.02,0.02-0.03,0.02-0.05c1.65-9.8,11.65-17.21,23.23-17.21
			c7.44,0,13.2,2.53,19.25,8.47c2.78,2.73,5.72,8.04,7.4,12.09C62.39,39.42,63.58,45.36,62.62,49.89z"/>
	</g>
	<path style="clip-path:url(#SVGID_00000120531188467948120120000016807009916447243179_);fill:#F2B499;" d="M21.14,31.73
		c0.49-0.49,0.49-1.28,0-1.77s-1.28-0.49-1.77,0s-0.49,1.28,0,1.77C19.86,32.22,20.65,32.22,21.14,31.73z"/>
	<path style="clip-path:url(#SVGID_00000120531188467948120120000016807009916447243179_);fill:#F2B499;" d="M29.12,34.33
		c0.83-0.17,1.39-0.86,1.24-1.54c-0.14-0.68-0.93-1.09-1.75-0.91s-1.39,0.86-1.24,1.54C27.51,34.1,28.29,34.51,29.12,34.33z"/>
</g>
</svg>
