<?xml version="1.0" encoding="utf-8"?>
<!-- Generator: Adobe Illustrator 26.1.0, SVG Export Plug-In . SVG Version: 6.00 Build 0)  -->
<svg version="1.1" id="圖層_1" xmlns="http://www.w3.org/2000/svg" xmlns:xlink="http://www.w3.org/1999/xlink" x="0px" y="0px"
	 viewBox="0 0 90 90" style="enable-background:new 0 0 90 90;" xml:space="preserve">
<style type="text/css">
	.st0{clip-path:url(#SVGID_00000055677228203694679130000008035862283982862519_);}
	.st1{fill:#FFFFFF;}
	.st2{fill:#FFCF9C;}
	.st3{fill:#D7B49D;}
	.st4{fill:#755844;}
	.st5{clip-path:url(#SVGID_00000007422057703630210170000008482414453372149665_);}
	.st6{clip-path:url(#SVGID_00000132803978337901319680000010286814605081619624_);}
	.st7{fill:none;}
</style>
<g>
	<defs>
		<rect id="SVGID_00000124845204748916875030000012177819603856568736_" x="0" width="90" height="90"/>
	</defs>
	<clipPath id="SVGID_00000168812367094085079530000004957786409173415602_">
		<use xlink:href="#SVGID_00000124845204748916875030000012177819603856568736_"  style="overflow:visible;"/>
	</clipPath>
	<g style="clip-path:url(#SVGID_00000168812367094085079530000004957786409173415602_);">
		<path class="st7" d="M44.98,62.52l0.03,0.16h0.05c-0.02-0.05-0.05-0.09-0.07-0.14C44.98,62.53,44.98,62.52,44.98,62.52z"/>
		<path class="st7" d="M44.94,62.33l0.01,0.07C44.95,62.38,44.95,62.35,44.94,62.33L44.94,62.33z"/>
		<path class="st1" d="M40.17,73.18c0.11,0.17,0.21,0.32,0.26,0.39c1.58,2.11,3.98,3.18,6.56,3.06c3.19-0.14,6.42-4.22,4.87-7.29
			c-0.84-1.66-1.48-3.32-2.93-4.6c-0.41-0.36-0.92-0.52-1.33-0.86c-0.56-0.46-0.93-1.24-1.21-1.89c-1.24-2.88-0.69-6.19-1.95-9.07
			c-0.47-1.07-1.18-2.02-1.88-2.96c-1-1.34-1.81-2.55-3.18-3.49c-0.4-0.27-0.62-0.64-1.06-0.55c-0.23,0.05-0.57,0.41-0.77,0.54
			c-0.45,0.28-0.91,0.53-1.4,0.73c-2.36,0.96-5.11,0.71-7.59,0.71h-6.77v23.62h16.68C39.1,71.52,39.41,72,40.17,73.18z"/>
		<path class="st1" d="M38.06,76.49c0.96-0.2,1.87-0.69,2.62-1.42c-0.31-0.3-0.61-0.62-0.9-0.97c-0.08-0.1-0.25-0.34-0.45-0.64
			c-0.14-0.21-0.39-0.58-0.59-0.84h-10c0.13,0.2,0.25,0.37,0.31,0.44C31.45,75.92,34.74,77.17,38.06,76.49z"/>
		<path class="st1" d="M54,53c2.9-2.24,3.99-6.71,3.73-10.67c-1.46,2.25-4.69,1.14-6.42,0c0.35,1.45,0.33,3.08-0.67,4.87
			c-1.78,3.21-5.38,1.78-8.33,0.92c0.73,1.23,1.86,3.79,2.37,5.22C48.47,54.94,51,55.31,54,53z"/>
		<path class="st3" d="M56.95,43.78c-0.05-0.65-0.14-1.29-0.28-1.9c-0.78-3.36-1.81-5.92-4.34-7.48c-0.91-0.56-2.05-0.63-3.04-0.18
			c-0.54,0.25-1.48,0.87-1.7,2.25c-0.18,1.15,0.45,1.98,1.48,3.23c0.45,0.54,0.91,1.1,1.29,1.73c0.48,0.81,0.92,1.65,1.16,2.54
			C53.21,44.97,55.52,45.73,56.95,43.78z"/>
		<path class="st2" d="M38.49,46.38c-5.42-4.17-12.89-4.09-15.92-4.05c-0.26,0-0.53,0.01-0.79,0.01v6.24h6.77
			C33.74,48.58,35.58,48.72,38.49,46.38z"/>
		<path class="st4" d="M58.5,41.53c-0.7-3.03-1.77-6.09-4.79-7.96c-1.39-0.86-3.11-0.96-4.61-0.28c-1.45,0.66-2.42,1.95-2.67,3.53
			c-0.32,1.98,0.79,3.31,1.77,4.49c0.37,0.45,0.72,0.87,0.97,1.3c1,1.68,1.29,2.6,0.45,3.94c-1.34,2.15-6.49,0.45-8.19-0.32
			c-0.08-0.04-0.17-0.05-0.26-0.06c-6.02-5.4-15.11-5.32-18.63-5.28c-0.25,0-0.52,0.01-0.77,0.01v0.92v0.83v0.25
			c0.26-0.01,0.54-0.01,0.79-0.01c3.03-0.03,10.51-0.1,15.92,3.69c0.71,0.49,1.38,1.05,2.01,1.68c3.13,3.2,4.63,7.89,4.43,13.93
			c0,0.05,0.02,0.09,0.02,0.13v0.01c0,0.02,0,0.05,0.01,0.07l0.02,0.11c0,0.01,0.01,0.01,0.01,0.02c0.02,0.05,0.04,0.09,0.07,0.14
			c0,0.01,0.01,0.02,0.02,0.02c0.03,0.06,0.06,0.11,0.1,0.16s0.1,0.09,0.16,0.14c0.04,0.03,0.06,0.07,0.1,0.09
			c3.16,1.81,5.33,4.38,5.98,7.06c0.27,1.12,0.03,2.38-0.66,3.47c-0.61,0.96-1.5,1.64-2.49,1.97c-0.21-0.17-0.53-0.5-0.76-1.09
			c-0.2-0.51-0.78-0.77-1.29-0.57c-0.52,0.2-0.77,0.78-0.57,1.29c0.09,0.23,0.19,0.44,0.3,0.64c-1.55-0.09-3.04-0.7-4.33-1.76l0,0
			l0,0c-0.42-0.34-0.81-0.74-1.18-1.18c-0.05-0.06-0.14-0.2-0.26-0.37c-0.75-1.11-1.06-1.57-1.71-1.57H21.77v1.38v0.62h5.51
			c0.07,0.1,0.16,0.2,0.27,0.27c0.15,0.18,0.45,0.63,0.61,0.85c0.17,0.25,0.31,0.45,0.37,0.53c2.02,2.39,4.66,3.68,7.46,3.68
			c0.62,0,1.25-0.06,1.89-0.19c1.24-0.25,2.38-0.91,3.3-1.86c1.57,1.06,3.33,1.62,5.17,1.62c0.62,0,1.25-0.06,1.89-0.19
			c1.68-0.35,3.22-1.44,4.21-2.99c0.98-1.54,1.31-3.36,0.92-5.01c-0.98-4.07-4.26-6.69-6.43-8.03c0.04-2.56-0.22-4.9-0.77-7.01
			c1.15,0.36,2.32,0.62,3.54,0.62c1.59,0,3.24-0.43,4.97-1.62C58.42,51.07,59.44,45.6,58.5,41.53z M51.31,47.61
			c0.87-1.4,0.92-2.62,0.62-3.75c-0.22-0.8-0.61-1.56-1.04-2.28c-0.34-0.57-0.75-1.07-1.15-1.55c-0.93-1.12-1.5-1.87-1.33-2.9
			c0.2-1.24,1.04-1.8,1.53-2.02c0.89-0.4,1.91-0.35,2.72,0.16c2.27,1.4,3.2,3.7,3.89,6.71c0.13,0.54,0.21,1.12,0.25,1.7
			c0.23,3.09-0.73,6.57-3.26,8.31c-2.63,1.8-4.84,1.51-8.16,0.26c-0.45-1.12-1-2.16-1.64-3.12C46.32,49.81,49.75,50.1,51.31,47.61z
			 M38.03,72.99c0.16,0.21,0.36,0.52,0.48,0.69c0.17,0.25,0.31,0.45,0.37,0.53c0.24,0.28,0.48,0.54,0.74,0.79
			c-0.62,0.6-1.36,1-2.15,1.16c-2.73,0.56-5.43-0.47-7.41-2.81c-0.05-0.06-0.14-0.2-0.25-0.37h8.22V72.99z"/>
	</g>
</g>
</svg>
