<?xml version="1.0" encoding="utf-8"?>
<!-- Generator: Adobe Illustrator 26.1.0, SVG Export Plug-In . SVG Version: 6.00 Build 0)  -->
<svg version="1.1" id="圖層_1" xmlns="http://www.w3.org/2000/svg" xmlns:xlink="http://www.w3.org/1999/xlink" x="0px" y="0px"
	 viewBox="0 0 90 90" style="enable-background:new 0 0 90 90;" xml:space="preserve">
<style type="text/css">
	.st0{clip-path:url(#SVGID_00000072274760304865515040000002809178584529659308_);}
	.st1{fill:#FFFFFF;}
	.st2{fill:#FFCF9C;}
	.st3{fill:#D7B49D;}
	.st4{fill:#755844;}
	.st5{clip-path:url(#SVGID_00000049215885920555872050000000642236059869610933_);}
	.st6{clip-path:url(#SVGID_00000146499751188024646130000013284580550954263466_);}
	.st7{clip-path:url(#SVGID_00000161614196583786975310000015902161239450886300_);}
	.st8{clip-path:url(#SVGID_00000161614196583786975310000015902161239450886300_);fill:none;}
	.st9{clip-path:url(#SVGID_00000161614196583786975310000015902161239450886300_);fill:#FFFFFF;}
	.st10{clip-path:url(#SVGID_00000161614196583786975310000015902161239450886300_);fill:#D7B49D;}
	.st11{fill:none;}
</style>
<g>
	<defs>
		<rect id="SVGID_00000056390726119867440530000005527160548430165641_" width="90" height="90"/>
	</defs>
	<clipPath id="SVGID_00000177453026229774673680000017202163301220910213_">
		<use xlink:href="#SVGID_00000056390726119867440530000005527160548430165641_"  style="overflow:visible;"/>
	</clipPath>
	<g style="clip-path:url(#SVGID_00000177453026229774673680000017202163301220910213_);">
		<polygon class="st1" points="42.92,48.47 21.81,48.47 21.81,70.98 42.92,70.98 68.19,70.98 68.19,48.47 		"/>
		<polygon class="st2" points="42.92,42.95 21.81,42.95 21.81,48.28 21.81,48.47 42.92,48.47 68.19,48.47 68.19,48.28 68.19,42.95 
					"/>
		<polygon class="st4" points="42.92,70.98 21.81,70.98 21.81,71.21 21.81,72.98 42.92,72.98 68.19,72.98 68.19,71.21 68.19,70.98 
					"/>
		<polygon class="st4" points="42.92,40.95 21.81,40.95 21.81,41.88 21.81,42.95 42.92,42.95 68.19,42.95 68.19,41.88 68.19,40.95 
					"/>
	</g>
</g>
</svg>
