<?xml version="1.0" encoding="utf-8"?>
<!-- Generator: Adobe Illustrator 26.1.0, SVG Export Plug-In . SVG Version: 6.00 Build 0)  -->
<svg version="1.1" id="圖層_1" xmlns="http://www.w3.org/2000/svg" xmlns:xlink="http://www.w3.org/1999/xlink" x="0px" y="0px"
	 viewBox="0 0 90 90" style="enable-background:new 0 0 90 90;" xml:space="preserve">
<style type="text/css">
	.st0{clip-path:url(#SVGID_00000018943218389003885410000007386852132707916963_);}
	.st1{fill:#FFFFFF;}
	.st2{fill:none;}
	.st3{fill:#70728E;}
	.st4{clip-path:url(#SVGID_00000180332499719979191700000009792264131660785082_);}
	.st5{clip-path:url(#SVGID_00000103951554443976196510000011445895197679214209_);}
</style>
<g>
	<defs>
		<rect id="SVGID_00000103241845518365332960000001874929920675229615_" x="0" width="90" height="90"/>
	</defs>
	<clipPath id="SVGID_00000164473099321440891220000006276989536249271227_">
		<use xlink:href="#SVGID_00000103241845518365332960000001874929920675229615_"  style="overflow:visible;"/>
	</clipPath>
	<g style="clip-path:url(#SVGID_00000164473099321440891220000006276989536249271227_);">
		<path class="st1" d="M53.13,50.43c0-4.96-3.89-9-8.67-9c-2.94,0-5.64,1.52-7.25,4.07c2.49,1.16,4.96,2.73,7.1,4.84
			c2.19,2.16,3.82,4.71,4.93,7.6C51.63,56.31,53.13,53.47,53.13,50.43z"/>
		<path class="st1" d="M42.29,77.07c0.81-0.17,1.6-0.51,2.34-0.98c-0.6-0.49-1.1-0.95-1.43-1.27H32.73
			C35.55,76.94,38.9,77.78,42.29,77.07z"/>
		<path class="st1" d="M41.89,74.08c0.28,0,0.55,0.13,0.74,0.35c1.97,2.25,5.08,3.71,8.1,3.35c0.85-0.1,2.2-0.48,2.97-0.88
			c0.97-0.5,0.83-1.82,0.76-2.76c-0.11-1.51,0.16-3.82-0.54-5.2c-0.73-1.45-2.79-2.52-3.89-3.71c-0.63-0.68-1.16-1.42-1.55-2.27
			c-0.37-0.8-0.4-1.67-0.56-2.54c-0.7-3.6-2.32-6.98-4.91-9.6c-7.17-7.25-19.19-6.99-19.31-6.98h-1.68v30.24h10.55H41.89z"/>
		<path class="st3" d="M53.84,67.54c-0.88-1.44-2.1-2.64-3.51-3.56c-0.08-1.93-0.35-3.74-0.82-5.43c2.99-1.76,4.9-5,4.9-8.51
			c0-5.45-4.43-9.88-9.88-9.88c-3.4,0-6.52,1.71-8.34,4.58c-0.05,0.07-0.07,0.16-0.09,0.24c-6.19-2.28-12.08-2.15-12.43-2.14h-1.65
			v1.04v0.96h1.68c0.12-0.01,12.14-0.25,19.31,6.58c3.44,3.28,5.24,7.7,5.35,13.14c0,0.04,0.02,0.08,0.03,0.11
			c0.01,0.07,0.02,0.13,0.04,0.2c0.02,0.06,0.05,0.11,0.08,0.17c0.03,0.05,0.07,0.11,0.11,0.15c0.04,0.05,0.1,0.09,0.15,0.13
			c0.03,0.02,0.05,0.06,0.09,0.08c1.34,0.77,2.47,1.86,3.27,3.17c1.65,2.7,2.11,4.88,1.35,6.47c-0.34,0.72-0.98,1.13-1.77,1.36
			c-0.21-0.16-0.54-0.49-0.78-1.1c-0.2-0.52-0.78-0.77-1.29-0.57c-0.52,0.2-0.77,0.78-0.57,1.29c0.09,0.23,0.19,0.44,0.3,0.63
			c-0.31,0-0.62-0.01-0.94-0.03c-3.2-0.16-5.78-2.98-5.81-3.01c-0.19-0.21-0.46-0.33-0.74-0.33h-9.31H22.02v0.6v1.4h10.07
			c2,2.3,4.59,3.54,7.33,3.54c0.62,0,1.25-0.06,1.89-0.19c1-0.2,1.95-0.68,2.77-1.36c1.17,0.68,2.63,1.27,4.26,1.36
			c0.36,0.02,0.79,0.04,1.27,0.04c1.92,0,4.54-0.36,5.69-2.77C56.36,73.66,55.87,70.85,53.84,67.54z M37.93,45.72
			c1.47-2.23,3.92-3.57,6.59-3.57c4.35,0,7.88,3.54,7.88,7.88c0,2.66-1.36,5.14-3.55,6.58c-1-2.54-2.49-4.77-4.48-6.66
			C42.44,48.11,40.2,46.74,37.93,45.72z M41.46,75.31c0.2,0.2,0.51,0.48,0.88,0.78c-0.45,0.29-0.94,0.5-1.44,0.6
			c-2.09,0.43-4.15-0.08-5.89-1.39h6.45V75.31z"/>
	</g>
</g>
</svg>
