<?xml version="1.0" encoding="utf-8"?>
<!-- Generator: Adobe Illustrator 26.1.0, SVG Export Plug-In . SVG Version: 6.00 Build 0)  -->
<svg version="1.1" id="圖層_1" xmlns="http://www.w3.org/2000/svg" xmlns:xlink="http://www.w3.org/1999/xlink" x="0px" y="0px"
	 viewBox="0 0 115 115" style="enable-background:new 0 0 115 115;" xml:space="preserve">
<style type="text/css">
	.st0{clip-path:url(#SVGID_00000065784915885108283730000008803206092382406324_);}
	.st1{fill:#FFF4C5;}
	.st2{fill:#91A519;}
	.st3{fill:#CFE589;}
	.st4{fill:#FFD56E;}
	.st5{fill:#4E682D;}
	.st6{clip-path:url(#SVGID_00000059284555881746731590000015667949260175578753_);}
</style>
<g>
	<defs>
		<rect id="SVGID_1_" width="115" height="115"/>
	</defs>
	<clipPath id="SVGID_00000169524987966718357250000011384466631808892591_">
		<use xlink:href="#SVGID_1_"  style="overflow:visible;"/>
	</clipPath>
	<g style="clip-path:url(#SVGID_00000169524987966718357250000011384466631808892591_);">
		<polygon class="st1" points="79.81,69.85 35.16,69.85 35.16,80.71 42.79,80.71 42.79,81.16 70.47,81.16 70.47,80.71 79.83,80.71 
					"/>
		<path class="st2" d="M43.48,48.11c-0.46-0.2-0.84-0.2-1.24,0c-0.85,0.43-1.56,1.63-2.07,2.82h5.01
			C44.88,49.68,44.36,48.48,43.48,48.11z"/>
		<path class="st2" d="M58.81,48.08c-0.47-0.2-0.86-0.2-1.26,0c-0.83,0.42-1.57,1.62-2.13,2.88h5.13
			C60.24,49.69,59.7,48.46,58.81,48.08z"/>
		<path class="st2" d="M73.13,48.07c-0.47-0.2-0.86-0.2-1.26,0c-0.83,0.42-1.57,1.62-2.13,2.88h5.13
			C74.56,49.69,74.03,48.46,73.13,48.07z"/>
		<path class="st3" d="M73.29,51.17c0.01,0.25,0.01,0.45,0.01,0.53c0,0.05-0.02,0.09-0.03,0.14h-0.99H66.4h-1.93
			c-0.04-0.04-0.08-0.07-0.11-0.11c-0.11-0.16-0.15-0.36-0.17-0.55h-1.87c0.01,0.25,0.01,0.45,0.01,0.53c0,0.05-0.02,0.09-0.03,0.14
			h-0.99h-5.88H53.5c-0.04-0.04-0.08-0.07-0.11-0.11c-0.11-0.16-0.15-0.36-0.17-0.55h-2.5c0.01,0.25,0.01,0.45,0.01,0.53
			c0,0.05-0.02,0.09-0.03,0.14h-1h-5.88h-1.93c-0.04-0.06-0.08-0.09-0.12-0.14c-0.11-0.16-0.15-0.36-0.17-0.55l-6.44,1.48l0,17.2
			h44.65l0.03-17.23L73.29,51.17z"/>
		<g>
			<path class="st4" d="M43.64,77.58c0-0.55-0.45-1-1-1s-1,0.45-1,1v3.13h2V77.58z"/>
			<path class="st4" d="M58.47,77.58c0-0.55-0.45-1-1-1s-1,0.45-1,1v3.13h2V77.58z"/>
			<path class="st4" d="M73.31,77.58c0-0.55-0.45-1-1-1s-1,0.45-1,1v3.13h2V77.58z"/>
		</g>
		<g>
			<path class="st5" d="M76.49,50.63c-0.32-1.59-1.05-3.47-2.67-4.17c-0.93-0.4-1.87-0.38-2.72,0.06c-1.5,0.76-2.44,2.68-2.97,4.12
				h-6.05c-0.32-1.59-1.05-3.47-2.67-4.17c-0.93-0.4-1.87-0.38-2.72,0.06c-1.5,0.76-2.44,2.68-2.96,4.11h-6.91
				c-0.32-1.59-1.05-3.47-2.67-4.17c-0.93-0.4-1.87-0.38-2.72,0.06c-1.5,0.76-2.44,2.68-2.96,4.12h-3.31v1v1h6.43h2.22h5.89h1h2.5
				h2.22h5.89h1h1.87h2.22h5.89h1h6.55v-1v-1h-3.35C76.49,50.65,76.49,50.63,76.49,50.63z M72,48.3c0.33-0.17,0.64-0.17,1.02,0
				c0.72,0.31,1.15,1.3,1.41,2.33h-4.15C70.73,49.6,71.33,48.64,72,48.3z M57.59,48.3c0.32-0.17,0.64-0.17,1.02,0
				c0.72,0.31,1.15,1.3,1.41,2.33h-4.15C56.32,49.6,56.92,48.64,57.59,48.3z M42.31,48.3c0.32-0.17,0.64-0.17,1.02,0
				c0.72,0.31,1.15,1.3,1.41,2.33H40.6C41.02,49.65,41.61,48.66,42.31,48.3z"/>
			<polygon class="st5" points="35.16,80.71 35.16,80.76 35.16,81.56 35.16,82.71 79.83,82.71 79.83,81.56 79.83,80.76 79.83,80.71 
							"/>
		</g>
	</g>
</g>
</svg>
