<?xml version="1.0" encoding="utf-8"?>
<!-- Generator: Adobe Illustrator 26.1.0, SVG Export Plug-In . SVG Version: 6.00 Build 0)  -->
<svg version="1.1" id="圖層_1" xmlns="http://www.w3.org/2000/svg" xmlns:xlink="http://www.w3.org/1999/xlink" x="0px" y="0px"
	 viewBox="0 0 85 85" style="enable-background:new 0 0 85 85;" xml:space="preserve">
<style type="text/css">
	.st0{clip-path:url(#SVGID_00000072993460557810521160000005472516331800327296_);fill:#D6815C;}
	.st1{clip-path:url(#SVGID_00000163032979342680207230000014537889538402505883_);}
	.st2{fill:#684934;}
	.st3{clip-path:url(#SVGID_00000090988049626547652970000002246856113728378800_);fill:#F2B499;}
	.st4{clip-path:url(#SVGID_00000111884688257450369610000007619575626792035971_);fill:#F2B499;}
	.st5{clip-path:url(#SVGID_00000075842732009761080790000015788205751746805135_);}
	.st6{fill:#D6815C;}
	.st7{clip-path:url(#SVGID_00000149361558931925405830000013388074251032063125_);}
	.st8{fill:none;}
</style>
<g>
	<defs>
		<rect id="SVGID_00000154411955537022302840000013548023879518071737_" x="0" y="0" width="85" height="85"/>
	</defs>
	<clipPath id="SVGID_00000172420615737552362730000005924630900185032843_">
		<use xlink:href="#SVGID_00000154411955537022302840000013548023879518071737_"  style="overflow:visible;"/>
	</clipPath>
	<g style="clip-path:url(#SVGID_00000172420615737552362730000005924630900185032843_);">
		<path class="st6" d="M54.38,58.45c-0.73-1.63-2.2-2.8-3.65-3.85c-1.55-1.12-4.13-2.2-5.26-3.69c-1.18-1.54-1.76-3.29-3.2-4.7
			c-1.29-1.26-2.33-2.8-3.61-4.11c-1.63-1.66-3.49-3.06-5.54-4.17c-1.64-0.89-3.4-1.59-5.23-2.08c-1.31-0.35-2.61-0.59-3.88-0.71
			c-0.52-0.05-1.01,0.72-1.48,0.72L18.89,36v28.33c2.79,0,8.72,0.72,11.51,0.72c2.43-0.02,5.28-0.33,7.92-0.1
			c1.62,0.14,3.16,0.49,4.47,1.25c1.48,0.85,2.85,1.91,4.46,2.49c1.6,0.58,3.56,0.59,4.84-0.54c0.6-0.52,0.99-1.23,1.34-1.94
			C54.63,63.79,55.48,60.91,54.38,58.45z"/>
		<path class="st6" d="M60.53,36.06c-6.71,7.89-15.1,7.28-20.18,5.87c0.81,1.29,1.65,2.74,2.45,4.31
			C52.99,47.49,58.05,41.62,60.53,36.06z"/>
		<path class="st8" d="M57.73,39.76c-5.32,4.34-11.96,4.01-15.99,3.23c0.64,0.7,1.31,1.5,1.94,2.37
			C51.75,46.05,55.76,42.82,57.73,39.76z"/>
		<path class="st8" d="M38.36,63.95c-0.34-0.44-0.28-1.07,0.16-1.41c0.44-0.34,1.07-0.27,1.41,0.16c1.16,1.46,2.33,2.27,3.58,3.13
			c0.37,0.25,0.74,0.51,1.12,0.79c1,0.74,2.09,1.22,3.14,1.4c0.17,0.03,0.34,0.04,0.5,0.05c-0.08-0.06-0.14-0.12-0.25-0.2
			c-0.45-0.33-0.53-0.96-0.2-1.4c0.33-0.45,0.96-0.53,1.4-0.2c0.66,0.5,1.08,0.93,1.3,1.34c0.44-0.23,0.8-0.52,1.09-0.79
			c0.12-0.12,0.23-0.24,0.34-0.37c-0.34-0.33-0.69-0.8-1.08-1.42c-0.3-0.47-0.16-1.09,0.31-1.38c0.47-0.3,1.09-0.16,1.38,0.31
			c0.2,0.31,0.36,0.54,0.49,0.71c0.47-1.13,0.69-2.39,0.54-3.57c-0.03-0.32-0.08-0.61-0.17-0.98c-1.03-4.08-5.09-6.08-7.41-6.91
			c-0.35-0.13-0.85-0.31-1.19-0.78c-0.25-0.34-0.32-0.71-0.37-0.96c-0.3-1.51-1.1-3.04-2.05-4.42c-0.07-0.1-0.14-0.2-0.21-0.3
			c-1.26-1.77-2.71-3.26-3.54-4.05c-1.63-1.56-3.49-2.88-5.54-3.92c-1.64-0.84-3.4-1.5-5.23-1.96c-1.31-0.33-2.61-0.56-3.88-0.67
			c-0.52-0.05-1.01-0.07-1.48-0.07l-0.5,0v28.19h16.64C38.56,64.16,38.46,64.07,38.36,63.95z"/>
		<path class="st2" d="M61.57,35.13c0.05-0.46-0.22-0.9-0.66-1.05c-0.44-0.16-0.93,0.02-1.18,0.41c-2.91,4.59-7.27,6.96-12.95,7.02
			c-4.32,0.06-7.87-1.33-7.9-1.34c-0.02-0.01-0.04,0-0.06-0.01c-1.46-1.23-3.07-2.3-4.79-3.17c-1.77-0.9-3.67-1.61-5.65-2.11
			c-1.41-0.36-2.82-0.6-4.19-0.72c-0.58-0.05-1.13-0.08-1.66-0.08h-0.51v0h-3.12v0.97v1.03h3.12v0l0.5,0c0.47,0,0.96,0.02,1.48,0.07
			c1.27,0.11,2.57,0.34,3.88,0.67c1.83,0.46,3.59,1.12,5.23,1.96c2.05,1.04,3.91,2.36,5.54,3.92c0.83,0.79,2.28,2.28,3.54,4.05
			c0.07,0.1,0.14,0.2,0.21,0.3c0.95,1.38,1.75,2.91,2.05,4.42c0.05,0.25,0.12,0.62,0.37,0.96c0.34,0.47,0.84,0.65,1.19,0.78
			c2.32,0.83,6.38,2.83,7.41,6.91c0.09,0.37,0.14,0.66,0.17,0.98c0.15,1.18-0.07,2.44-0.54,3.57c-0.13-0.17-0.29-0.4-0.49-0.71
			c-0.29-0.47-0.91-0.61-1.38-0.31c-0.47,0.29-0.61,0.91-0.31,1.38c0.39,0.62,0.74,1.09,1.08,1.42c-0.11,0.13-0.22,0.25-0.34,0.37
			c-0.29,0.27-0.65,0.56-1.09,0.79c-0.22-0.41-0.64-0.84-1.3-1.34c-0.44-0.33-1.07-0.25-1.4,0.2c-0.33,0.44-0.25,1.07,0.2,1.4
			c0.11,0.08,0.17,0.14,0.25,0.2c-0.16-0.01-0.33-0.02-0.5-0.05c-1.05-0.18-2.14-0.66-3.14-1.4c-0.38-0.28-0.75-0.54-1.12-0.79
			c-1.25-0.86-2.42-1.67-3.58-3.13c-0.34-0.43-0.97-0.5-1.41-0.16c-0.44,0.34-0.5,0.97-0.16,1.41c0.1,0.12,0.2,0.21,0.3,0.32H22.02
			h-3.12v0.99v1.01h3.12v0l18.72,0.03c0,0,0-0.03,0.01-0.03c0.54,0.43,1.09,0.83,1.62,1.2c0.35,0.24,0.71,0.49,1.08,0.76
			c1.25,0.91,2.63,1.52,3.98,1.75c0.38,0.07,0.76,0.1,1.13,0.1c1.64,0,3.18-0.63,4.43-1.82c0.52-0.49,0.96-1.07,1.33-1.69
			c0.04-0.06,0.07-0.13,0.11-0.2c0.93-1.65,1.38-3.62,1.15-5.46c-0.03-0.39-0.1-0.79-0.22-1.28c-0.93-3.69-4.01-6.64-8.69-8.31
			c-0.07-0.02-0.16-0.06-0.22-0.08c-0.01-0.05-0.02-0.1-0.03-0.16c-0.24-1.22-0.74-2.44-1.39-3.59c0.27,0.01,0.55,0.02,0.82,0.02
			C60.01,47.47,61.56,35.26,61.57,35.13z M43.68,45.36c-0.63-0.87-1.3-1.67-1.94-2.37c4.03,0.78,10.67,1.11,15.99-3.23
			C55.76,42.82,51.75,46.05,43.68,45.36z"/>
	</g>
</g>
</svg>
