<?xml version="1.0" encoding="utf-8"?>
<!-- Generator: Adobe Illustrator 26.1.0, SVG Export Plug-In . SVG Version: 6.00 Build 0)  -->
<svg version="1.1" id="圖層_1" xmlns="http://www.w3.org/2000/svg" xmlns:xlink="http://www.w3.org/1999/xlink" x="0px" y="0px"
	 viewBox="0 0 90 90" style="enable-background:new 0 0 90 90;" xml:space="preserve">
<style type="text/css">
	.st0{clip-path:url(#SVGID_00000113320863714112091420000005056669380020865409_);}
	.st1{fill:#FFFFFF;}
	.st2{fill:#FFCF9C;}
	.st3{fill:#D7B49D;}
	.st4{fill:#755844;}
	.st5{clip-path:url(#SVGID_00000070092018779682070800000003485354328937641918_);}
	.st6{clip-path:url(#SVGID_00000074401041194250855800000005223287139098573490_);}
	.st7{clip-path:url(#SVGID_00000048486617738064961940000005302751984970753171_);}
	.st8{clip-path:url(#SVGID_00000048486617738064961940000005302751984970753171_);fill:none;}
	.st9{clip-path:url(#SVGID_00000048486617738064961940000005302751984970753171_);fill:#FFFFFF;}
	.st10{clip-path:url(#SVGID_00000048486617738064961940000005302751984970753171_);fill:#D7B49D;}
	.st11{fill:none;}
</style>
<g>
	<defs>
		<rect id="SVGID_00000076605027922784756310000006974335655919734946_" width="90" height="90"/>
	</defs>
	<clipPath id="SVGID_00000132790640426113748310000010610688495421330056_">
		<use xlink:href="#SVGID_00000076605027922784756310000006974335655919734946_"  style="overflow:visible;"/>
	</clipPath>
	<g style="clip-path:url(#SVGID_00000132790640426113748310000010610688495421330056_);">
		<defs>
			<rect id="SVGID_00000138566554531545889100000008839286510042466478_" width="90" height="90"/>
		</defs>
		<clipPath id="SVGID_00000093858482902763071440000014184604342756089017_">
			<use xlink:href="#SVGID_00000138566554531545889100000008839286510042466478_"  style="overflow:visible;"/>
		</clipPath>
		<g style="clip-path:url(#SVGID_00000093858482902763071440000014184604342756089017_);">
			<path class="st1" d="M51.86,69.34c-0.84-1.66-1.48-3.32-2.93-4.6c-0.41-0.36-0.92-0.52-1.33-0.86c-0.56-0.46-0.93-1.24-1.21-1.89
				c-1.24-2.88-0.69-6.19-1.95-9.07c-0.47-1.07-1.18-2.02-1.88-2.96c-1-1.34-1.81-2.55-3.18-3.49c-0.4-0.27-0.62-0.64-1.06-0.55
				c-0.23,0.05-0.57,0.41-0.77,0.54c-0.45,0.28-0.91,0.53-1.4,0.73c-2.36,0.96-5.11,0.71-7.59,0.71l-6.75,0.52v22.7l16.66,0.4
				c0.63,0,0.94,0.48,1.7,1.66c0.11,0.17,0.21,0.32,0.26,0.39c1.58,2.11,3.98,3.18,6.56,3.06C50.18,76.49,53.41,72.41,51.86,69.34z"
				/>
		</g>
		<g style="clip-path:url(#SVGID_00000093858482902763071440000014184604342756089017_);">
			<path class="st2" d="M22.57,42.33c-0.25,0-0.51,0.57-0.76,0.57v5.57l6.74,0.11c5.19,0,7.03,0.14,9.94-2.2
				C33.07,42.21,25.6,42.29,22.57,42.33z"/>
		</g>
		<path style="clip-path:url(#SVGID_00000093858482902763071440000014184604342756089017_);fill:none;" d="M44.98,62.52l0.03,0.16
			h0.05c-0.02-0.05-0.05-0.09-0.07-0.14C44.98,62.53,44.98,62.52,44.98,62.52z"/>
		<path style="clip-path:url(#SVGID_00000093858482902763071440000014184604342756089017_);fill:none;" d="M44.94,62.33l0.01,0.07
			C44.95,62.38,44.95,62.35,44.94,62.33L44.94,62.33z"/>
		<path style="clip-path:url(#SVGID_00000093858482902763071440000014184604342756089017_);fill:#FFFFFF;" d="M38.06,76.49
			c0.96-0.2,1.87-0.69,2.62-1.42c-0.31-0.3-0.61-0.62-0.9-0.97c-0.08-0.1-0.25-0.34-0.45-0.64c-0.14-0.21-0.39-0.58-0.59-0.84h-10
			c0.13,0.2,0.25,0.37,0.31,0.44C31.45,75.92,34.74,77.17,38.06,76.49z"/>
		<path style="clip-path:url(#SVGID_00000093858482902763071440000014184604342756089017_);fill:#FFFFFF;" d="M54,53
			c2.9-2.24,3.99-6.71,3.73-10.67c-1.46,2.25-4.69,1.14-6.42,0c0.35,1.45,0.33,3.08-0.67,4.87c-1.78,3.21-5.38,1.78-8.33,0.92
			c0.73,1.23,1.86,3.79,2.37,5.22C48.47,54.94,51,55.31,54,53z"/>
		<path style="clip-path:url(#SVGID_00000093858482902763071440000014184604342756089017_);fill:#D7B49D;" d="M56.95,43.78
			c-0.05-0.65-0.14-1.29-0.28-1.9c-0.78-3.36-1.81-5.92-4.34-7.48c-0.91-0.56-2.05-0.63-3.04-0.18c-0.54,0.25-1.48,0.87-1.7,2.25
			c-0.18,1.15,0.45,1.98,1.48,3.23c0.45,0.54,0.91,1.1,1.29,1.73c0.48,0.81,0.92,1.65,1.16,2.54
			C53.21,44.97,55.52,45.73,56.95,43.78z"/>
		<g style="clip-path:url(#SVGID_00000093858482902763071440000014184604342756089017_);">
			<path class="st11" d="M56.55,41.98c-0.69-3.01-1.62-5.31-3.89-6.71c-0.81-0.51-1.83-0.56-2.72-0.16
				c-0.49,0.22-1.33,0.78-1.53,2.02c-0.17,1.03,0.4,1.78,1.33,2.9c0.4,0.48,0.81,0.98,1.15,1.55c0.43,0.72,0.82,1.48,1.04,2.28
				c0.3,1.13,0.25,2.35-0.62,3.75c-1.56,2.49-4.99,2.2-7.57,1.52c0.64,0.96,1.19,2,1.64,3.12c3.32,1.25,5.53,1.54,8.16-0.26
				c2.53-1.74,3.49-5.22,3.26-8.31C56.76,43.1,56.68,42.52,56.55,41.98z"/>
			<path class="st11" d="M38.51,73.68c-0.12-0.17-0.32-0.48-0.48-0.69v-0.01h-8.22c0.11,0.17,0.2,0.31,0.25,0.37
				c1.98,2.34,4.68,3.37,7.41,2.81C38.26,76,39,75.6,39.62,75c-0.26-0.25-0.5-0.51-0.74-0.79C38.82,74.13,38.68,73.93,38.51,73.68z"
				/>
			<path class="st4" d="M58.5,41.53c-0.7-3.03-1.77-6.09-4.79-7.96c-1.39-0.86-3.11-0.96-4.61-0.28c-1.45,0.66-2.42,1.95-2.67,3.53
				c-0.32,1.98,0.79,3.31,1.77,4.49c0.37,0.45,0.72,0.87,0.97,1.3c1,1.68,1.29,2.6,0.45,3.94c-1.34,2.15-6.49,0.45-8.19-0.32
				c-0.08-0.04-0.17-0.05-0.26-0.06c-6.02-5.4-13.96-5.27-17.48-5.23c-0.24,0-1.64,0.01-1.88,0.01v2c0.32,0,0.51,0,0.78,0
				c3.03-0.03,10.48-0.16,15.89,3.63c0.71,0.49,1.38,1.05,2.01,1.68c3.13,3.2,4.63,7.89,4.43,13.93c0,0.05,0.02,0.09,0.02,0.13v0.01
				c0,0.02,0,0.05,0.01,0.07l0.02,0.11c0,0.01,0.01,0.01,0.01,0.02c0.02,0.05,0.04,0.09,0.07,0.14c0,0.01,0.01,0.02,0.02,0.02
				c0.03,0.06,0.06,0.11,0.1,0.16c0.04,0.05,0.1,0.09,0.16,0.14c0.04,0.03,0.06,0.07,0.1,0.09c3.16,1.81,5.33,4.38,5.98,7.06
				c0.27,1.12,0.03,2.38-0.66,3.47c-0.61,0.96-1.5,1.64-2.49,1.97c-0.21-0.17-0.53-0.5-0.76-1.09c-0.2-0.51-0.78-0.77-1.29-0.57
				c-0.52,0.2-0.77,0.78-0.57,1.29c0.09,0.23,0.19,0.44,0.3,0.64c-1.55-0.09-3.04-0.7-4.33-1.76c-0.42-0.34-0.81-0.74-1.18-1.18
				c-0.05-0.06-0.14-0.2-0.26-0.37c-0.75-1.11-1.06-1.57-1.71-1.57l-16.65,0.01v2l5.47-0.01c0.07,0.1,0.16,0.2,0.27,0.27
				c0.15,0.18,0.45,0.63,0.61,0.85c0.17,0.25,0.31,0.45,0.37,0.53c2.02,2.39,4.66,3.68,7.46,3.68c0.62,0,1.25-0.06,1.89-0.19
				c1.24-0.25,2.38-0.91,3.3-1.86c1.57,1.06,3.33,1.62,5.17,1.62c0.62,0,1.25-0.06,1.89-0.19c1.68-0.35,3.22-1.44,4.21-2.99
				c0.98-1.54,1.31-3.36,0.92-5.01c-0.98-4.07-4.26-6.69-6.43-8.03c0.04-2.56-0.22-4.9-0.77-7.01c1.15,0.36,2.32,0.62,3.54,0.62
				c1.59,0,3.24-0.43,4.97-1.62C58.42,51.07,59.44,45.6,58.5,41.53z M37.47,76.16c-2.73,0.56-5.43-0.47-7.41-2.81
				c-0.05-0.06-0.14-0.2-0.25-0.37h8.22v0.01c0.16,0.21,0.36,0.52,0.48,0.69c0.17,0.25,0.31,0.45,0.37,0.53
				c0.24,0.28,0.48,0.54,0.74,0.79C39,75.6,38.26,76,37.47,76.16z M53.54,51.99c-2.63,1.8-4.84,1.51-8.16,0.26
				c-0.45-1.12-1-2.16-1.64-3.12c2.58,0.68,6.01,0.97,7.57-1.52c0.87-1.4,0.92-2.62,0.62-3.75c-0.22-0.8-0.61-1.56-1.04-2.28
				c-0.34-0.57-0.75-1.07-1.15-1.55c-0.93-1.12-1.5-1.87-1.33-2.9c0.2-1.24,1.04-1.8,1.53-2.02c0.89-0.4,1.91-0.35,2.72,0.16
				c2.27,1.4,3.2,3.7,3.89,6.71c0.13,0.54,0.21,1.12,0.25,1.7C57.03,46.77,56.07,50.25,53.54,51.99z"/>
		</g>
	</g>
</g>
</svg>
