<?xml version="1.0" encoding="utf-8"?>
<!-- Generator: Adobe Illustrator 26.1.0, SVG Export Plug-In . SVG Version: 6.00 Build 0)  -->
<svg version="1.1" id="圖層_1" xmlns="http://www.w3.org/2000/svg" xmlns:xlink="http://www.w3.org/1999/xlink" x="0px" y="0px"
	 viewBox="0 0 115 115" style="enable-background:new 0 0 115 115;" xml:space="preserve">
<style type="text/css">
	.st0{clip-path:url(#SVGID_00000111158371091591528950000017531836302819476366_);}
	.st1{fill:#FFF4C5;}
	.st2{fill:#91A519;}
	.st3{fill:#CFE589;}
	.st4{fill:#FFD56E;}
	.st5{fill:#4E682D;}
	.st6{clip-path:url(#SVGID_00000169554867681529800640000001125911143949482417_);}
</style>
<g>
	<defs>
		<rect id="SVGID_00000082363628992993574530000006525886509691705475_" x="0" width="115" height="115"/>
	</defs>
	<clipPath id="SVGID_00000072251005902671204580000007653166544251816359_">
		<use xlink:href="#SVGID_00000082363628992993574530000006525886509691705475_"  style="overflow:visible;"/>
	</clipPath>
	<g style="clip-path:url(#SVGID_00000072251005902671204580000007653166544251816359_);">
		<g>
			<path class="st2" d="M74,39.95c-0.1,0.13-0.23,0.24-0.39,0.32c-0.37,0.18-0.8,0.14-1.12-0.1c-0.56-0.42-1.09-0.57-1.44-0.43
				c-0.36,0.15-0.63,0.67-0.72,1.39c-0.12,0.97,0.1,1.93,0.4,2.85c0.41,1.25,0.31,1.08-0.74,1.83c-1.77,1.24-0.3,4.26,0.66,5.48
				c1.19,1.51,2.39,1.74,4.25,1.91c0.83,0.07,1.66,0.15,2.49,0.03c1.2-0.17,2.51-0.92,3.36-1.78c0.89-0.89,1.81-2.15,1.97-3.43
				c0.16-1.29-0.53-1.5-1.19-2.42c-0.56-0.78-0.21-1.37,0.05-2.2c0.26-0.82,0.84-2.95-0.24-3.51c-0.35-0.18-0.94-0.05-1.58,0.37
				c-0.33,0.22-0.75,0.24-1.1,0.05c-0.35-0.18-0.58-0.54-0.59-0.94C78,37.1,77,35.41,76.14,35.41c-0.84,0-1.84,1.67-1.92,3.91
				C74.21,39.56,74.13,39.78,74,39.95z"/>
		</g>
		<g>
			<path class="st2" d="M46.12,51.84c-0.01-1.52-0.32-3.14-1.42-3.89c-0.64-0.44-1.27-0.56-1.96-0.39
				c-1.52,0.37-3.02,2.06-3.98,3.41l0.04,0.01h0.69C41.75,50.98,43.97,51.28,46.12,51.84z"/>
		</g>
		<g>
			<path class="st2" d="M55.21,53.39c-0.48-0.7-1.07-1.06-1.84-1.16c-1.09-0.13-2.38,0.29-3.57,0.88c1.99,1.2,3.85,2.64,5.51,4.29
				C55.77,55.97,55.95,54.44,55.21,53.39z"/>
		</g>
		<g>
			<path class="st2" d="M64.11,61.66c-0.41-0.9-1-1.69-1.83-1.93c-0.23-0.07-0.45-0.1-0.66-0.1c-0.36,0-0.69,0.1-1.01,0.3
				c-0.74,0.46-1.32,1.37-1.75,2.32C59.72,62.4,61.71,62.56,64.11,61.66z"/>
		</g>
		<g>
			<g>
				<path class="st3" d="M39.87,83.42c0.61,0.76,1.09,1.71,1.99,1.9c0.67,0.14,1.34-0.08,2.01,0.11c0.94,0.26,1.11,1.15,2.15,0.97
					c0.7-0.12,1.45-0.72,1.87-1.27c0.57-0.7,0.9-1.61,1.41-2.36c0.2-0.29,0.38-0.73,0.11-0.95c-0.19-0.15-0.46-0.08-0.69-0.02
					c-2.99,0.85-6.25-0.35-9.27,0.35c-0.21,0.05-0.48,0.2-0.42,0.41c0.03,0.09,0.11,0.15,0.19,0.21
					C39.46,82.94,39.67,83.17,39.87,83.42z"/>
				<path class="st3" d="M68.09,72.73c-3.12,2.94-6.71,5.31-10.59,7.03c2.23,2.21,4.22,3.82,7.17,4.98
					c0.78,0.31,1.65,0.59,2.44,0.32c1.27-0.42,2.56-2.83,2.74-4.07c0.23-1.5-0.26-2.91-0.59-4.34C69,75.48,68.56,73.9,68.09,72.73z"
					/>
				<path class="st3" d="M76.34,45.2c-0.57,2.47-1.25,4.7-2.04,6.7c-0.14,0.35-0.28,0.69-0.42,1.02s-0.29,0.66-0.44,0.98
					c-1.76,3.75-3.97,6.52-6.62,8.26c-1.13,0.74-2.9,1.02-4.23,1.14c-1.2,0.1-2.46-0.06-3.5-0.67c-1.25-0.74-2.02-2.01-3.12-2.93
					c-0.5-0.42-1.07-0.55-1.58-0.89c-0.53-0.35-0.85-0.92-1.33-1.35c-0.79-0.72-1.6-1.43-2.36-2.08c-0.9-0.67-1.86-1.25-2.86-1.74
					c-0.29-0.14-0.59-0.28-0.89-0.41c-0.02-0.01-0.05-0.02-0.07-0.03c-0.29-0.12-0.58-0.23-0.87-0.34
					c-0.71-0.25-1.43-0.46-2.16-0.62c-1.19-0.26-2.41-0.4-3.63-0.4h-0.86l-4.12,0.72v17.36l13.37,0.19c4.34,0,8.49,2.35,11.46,6.49
					l0.16,0.22c1.52-0.88,2.83-1.91,4.17-3c1.26-1.03,2.89-1.69,4.23-2.65c0.82-0.59,1.61-1.23,2.27-2
					c0.65-0.77,1.15-1.66,1.64-2.54c0.73-1.31,1.46-2.61,2.19-3.92c0.97-1.73,1.94-3.48,2.55-5.36c0.69-2.11,0.9-4.38,0.63-6.58
					C77.66,48.78,76.8,47.11,76.34,45.2z"/>
			</g>
		</g>
		<g>
			<path class="st2" d="M44.15,83.69c-0.01,0-0.03,0-0.04,0c-0.55,0.02-0.98,0.48-0.96,1.04c0,0.06,0.01,0.11,0.02,0.16
				c0.57,0.18,1.14,0.29,1.69,0.32c0.15,0.01,0.28-0.01,0.43-0.02c-0.06-0.13-0.12-0.32-0.13-0.54
				C45.13,84.12,44.69,83.69,44.15,83.69z"/>
		</g>
		<g>
			<path class="st2" d="M67.03,81.39c-0.55,0.02-0.98,0.48-0.96,1.04c0.03,0.74,0.3,1.32,0.48,1.63c0.67-0.17,1.25-0.51,1.71-1.05
				c-0.07-0.12-0.18-0.36-0.19-0.66C68.04,81.8,67.61,81.36,67.03,81.39z"/>
		</g>
		<g>
			<path class="st2" d="M62.89,82.38c-0.46,0.02-0.82,0.35-0.92,0.77l0.01,0.01c0.7,0.4,1.42,0.67,2.13,0.84
				c-0.07-0.12-0.18-0.36-0.19-0.66C63.9,82.79,63.39,82.35,62.89,82.38z"/>
		</g>
		<g>
			<path class="st1" d="M60.07,75.95c-2.97-3.89-7.12-6.11-11.46-6.11H35.24c0,0,0,10.95,0,11.14c0,0.74,0.22,0.24,0.81,0.31
				c1.93,0.22,4.16,0.21,6.09,0.16c2.74-0.07,5.5-0.15,8.18-0.72c2.36-0.5,4.79-1.3,7.05-2.16c0.47-0.18,0.94-0.37,1.33-0.68
				c0.74-0.58,0.67-1.26,1.53-1.72L60.07,75.95z"/>
		</g>
		<g>
			<path class="st5" d="M83.21,45.43c-0.17-0.17-0.37-0.32-0.58-0.43c1.29-2.77,0.96-5.57-0.82-6.51c-0.61-0.32-1.33-0.39-2.08-0.2
				c-0.46-2.43-1.88-4.13-3.61-4.13c-1.69,0-3.1,1.65-3.58,4.02c-0.65-0.18-1.28-0.15-1.86,0.09c-1.03,0.43-1.69,1.45-1.86,2.87
				c-0.13,1.09,0.04,2.34,0.48,3.57c-0.15,0.08-0.29,0.17-0.43,0.27c-1.66,1.31-1.38,4.35,0.65,6.93c0.62,0.79,1.33,1.42,2.06,1.9
				c-1.58,3.13-3.52,5.44-5.77,6.85c-0.05,0.03-0.1,0.05-0.15,0.08c-0.57-1.22-1.47-2.39-2.9-2.8c-1.11-0.32-2.19-0.18-3.12,0.4
				c-0.81,0.51-1.44,1.29-1.92,2.13l-1.42-1.85c-0.08-0.11-0.18-0.21-0.26-0.32c0.69-1.56,1.31-3.86,0.07-5.62
				c-0.66-0.94-1.59-1.51-2.68-1.65c-1.75-0.21-3.6,0.7-4.85,1.49c-0.45-0.2-0.9-0.39-1.36-0.57c0.09-1.7-0.17-4.04-1.93-5.24
				c-0.95-0.65-2.02-0.85-3.09-0.59c-2.66,0.65-4.58,3.93-4.93,4.55l-2.03-0.02v1v1l4.12,0.02h0.84c1.23,0,2.44,0.13,3.63,0.38
				c0.73,0.15,1.46,0.35,2.16,0.58c0.29,0.1,0.59,0.21,0.87,0.32c0.02,0.01,0.05,0.02,0.07,0.03c0.3,0.12,0.6,0.25,0.89,0.38
				c1,0.46,1.96,1.01,2.86,1.64c0.76,0.61,1.57,1.28,2.36,1.96c0.45,0.44,0.88,0.91,1.28,1.4c0.13,0.15,0.26,0.31,0.38,0.47
				l0.25,0.33l1.84,2.39l0.75,0.98l0.07,0.09c0.13,0.17,0.31,0.29,0.51,0.35c0.15,0.04,3.38,0.94,7.26-0.84
				c0.3-0.14,0.61-0.3,0.92-0.47c0.17-0.09,0.33-0.18,0.5-0.28c2.65-1.63,4.85-4.23,6.62-7.76c0.15-0.3,0.3-0.61,0.44-0.92
				c0.14-0.31,0.29-0.63,0.42-0.96c0.79-1.88,1.47-3.98,2.04-6.3c0.52,2.02,0.74,4.04,0.65,6.06c-0.01,0.33-0.04,0.66-0.07,1
				c-0.03,0.33-0.07,0.66-0.12,0.98c-0.53,3.77-2.11,7.53-4.75,11.26c-3.1,4.36-7.16,7.89-11.82,10.44
				c-1.5,0.82-3.06,1.54-4.68,2.15c-0.16,0.02-0.31,0.08-0.45,0.17c-1.3,0.47-2.63,0.87-3.98,1.19c-0.33,0.08-0.66,0.14-1,0.21
				s-0.67,0.15-1.01,0.21c-2.21,0.4-4.48,0.61-6.79,0.61h-5.21l-1.45-0.01h-0.4v0.06v0.8v0.15v0.99l1.08,0.01
				c1.27,1.14,2.82,2.4,4.27,3.22c1.34,0.76,2.78,1.21,4.15,1.28c0.13,0.01,0.26,0.01,0.39,0.01c1.75,0,3.24-0.67,4.3-1.96
				c0.77-0.92,1.28-2.15,1.53-3.51c1.52-0.34,3.01-0.76,4.47-1.27c1.37,1.33,3.56,3.29,5.57,4.43c1.34,0.76,2.78,1.21,4.15,1.28
				c0.13,0.01,0.26,0.01,0.39,0.01c1.75,0,3.24-0.67,4.3-1.96c1.56-1.87,2.09-4.99,1.37-7.95c-0.17-0.72-0.79-3.08-1.58-4.65
				c1.47-1.46,2.84-3.05,4.05-4.76c2.99-4.21,4.71-8.47,5.19-12.75c0.98-0.37,1.98-1,2.87-1.9C84.07,49.92,84.71,46.93,83.21,45.43z
				 M79.02,51.85c0.03-3.18-0.63-6.37-1.98-9.55c-0.17-0.41-0.58-0.65-1.03-0.6c-0.44,0.05-0.79,0.38-0.87,0.81
				c-0.66,3.61-1.57,6.76-2.7,9.44c-0.45-0.32-0.9-0.74-1.33-1.29c-1.45-1.85-1.55-3.67-0.98-4.12c0.12-0.1,0.3-0.14,0.54-0.14
				c0.01,0,0.03,0,0.04,0c0.36,0.03,0.69-0.17,0.88-0.48c0.19-0.3,0.2-0.68,0.03-0.99c-0.1-0.19-0.2-0.38-0.29-0.59
				c-0.43-1.02-0.61-2.1-0.51-2.96c0.08-0.66,0.33-1.13,0.66-1.27c0.32-0.14,0.8,0.01,1.31,0.39c0.3,0.22,0.69,0.26,1.03,0.1
				c0.33-0.16,0.55-0.49,0.56-0.86c0.08-2.04,0.99-3.57,1.76-3.57c0.78,0,1.7,1.55,1.76,3.62c0.01,0.36,0.22,0.69,0.54,0.86
				s0.71,0.15,1.01-0.05c0.58-0.38,1.12-0.5,1.44-0.33c0.64,0.34,0.87,2.16-0.22,4.23c-0.11,0.21-0.24,0.41-0.37,0.61
				c-0.2,0.3-0.22,0.69-0.05,1.02c0.17,0.32,0.5,0.53,0.87,0.53c0.22,0,0.53,0.04,0.69,0.21c0.51,0.51,0.2,2.32-1.46,3.98
				C79.9,51.26,79.45,51.6,79.02,51.85z M60.7,60.03c0.29-0.18,0.59-0.27,0.91-0.27c0.19,0,0.39,0.03,0.6,0.09
				c0.75,0.22,1.28,0.93,1.66,1.75c-2.18,0.82-3.98,0.67-4.75,0.54C59.5,61.27,60.03,60.44,60.7,60.03z M50.69,53.61
				c0.83-0.41,1.73-0.71,2.5-0.62c0.54,0.07,0.95,0.33,1.29,0.81c0.52,0.74,0.4,1.81,0.07,2.81C53.38,55.46,52.09,54.45,50.69,53.61
				z M40.2,50.67h-0.53l-0.03-0.01c0.73-1.03,1.87-2.32,3.04-2.6c0.53-0.13,1-0.03,1.49,0.3c0.84,0.57,1.08,1.81,1.08,2.97
				C43.61,50.9,41.91,50.67,40.2,50.67z M68.3,82.96c-0.01,0.02-0.03,0.03-0.05,0.05c-0.46,0.53-1.03,0.87-1.71,1.05
				c-0.4,0.1-0.82,0.16-1.29,0.14c-0.38-0.02-0.76-0.09-1.15-0.18c-0.71-0.17-1.43-0.45-2.13-0.84l-0.01-0.01
				c-1.24-0.71-2.79-1.92-4.46-3.47c3.89-1.61,7.47-3.84,10.59-6.61c0.47,1.1,0.91,2.59,1.18,3.69
				C69.84,79.1,69.45,81.58,68.3,82.96z M45.28,85.19c-0.14,0-0.28,0.03-0.43,0.02c-0.55-0.03-1.12-0.14-1.69-0.32
				c-0.53-0.17-1.07-0.4-1.59-0.7c-0.64-0.36-1.37-0.87-2.15-1.48h2.9c2.2,0,4.36-0.19,6.49-0.54c-0.21,0.7-0.51,1.33-0.91,1.82
				C47.25,84.77,46.36,85.16,45.28,85.19z"/>
		</g>
	</g>
</g>
</svg>
