<?xml version="1.0" encoding="utf-8"?>
<!-- Generator: Adobe Illustrator 26.1.0, SVG Export Plug-In . SVG Version: 6.00 Build 0)  -->
<svg version="1.1" id="圖層_1" xmlns="http://www.w3.org/2000/svg" xmlns:xlink="http://www.w3.org/1999/xlink" x="0px" y="0px"
	 viewBox="0 0 115 115" style="enable-background:new 0 0 115 115;" xml:space="preserve">
<style type="text/css">
	.st0{fill:#CFE589;}
	.st1{fill:none;}
	.st2{fill:#91A519;}
	.st3{fill:#FFEB97;}
	.st4{fill:#FFB98A;}
	.st5{fill:#FFF4C5;}
	.st6{fill:#4E682D;}
	.st7{fill:#FFD56E;}
</style>
<g>
	<polygon class="st5" points="79.83,69.85 35.21,69.85 35.21,80.71 42.84,80.71 42.84,81.16 70.52,81.16 70.52,80.71 79.83,80.71 	
		"/>
	<path class="st2" d="M43.53,48.11c-0.46-0.2-0.84-0.2-1.24,0c-0.85,0.43-1.56,1.63-2.07,2.82h5.01
		C44.93,49.68,44.41,48.48,43.53,48.11z"/>
	<path class="st2" d="M58.86,48.08c-0.47-0.2-0.86-0.2-1.26,0c-0.83,0.42-1.57,1.62-2.13,2.88h5.13
		C60.29,49.69,59.75,48.46,58.86,48.08z"/>
	<path class="st2" d="M73.18,48.07c-0.47-0.2-0.86-0.2-1.26,0c-0.83,0.42-1.57,1.62-2.13,2.88h5.13
		C74.61,49.69,74.08,48.46,73.18,48.07z"/>
	<path class="st0" d="M73.34,51.17c0.01,0.25,0.01,0.45,0.01,0.53c0,0.05-0.02,0.09-0.03,0.14h-0.99h-5.88h-1.93
		c-0.04-0.04-0.08-0.07-0.11-0.11c-0.11-0.16-0.15-0.36-0.17-0.55h-1.87c0.01,0.25,0.01,0.45,0.01,0.53c0,0.05-0.02,0.09-0.03,0.14
		h-0.99h-5.88h-1.93c-0.04-0.04-0.08-0.07-0.11-0.11c-0.11-0.16-0.15-0.36-0.17-0.55h-2.5c0.01,0.25,0.01,0.45,0.01,0.53
		c0,0.05-0.02,0.09-0.03,0.14h-1h-5.88h-1.93c-0.04-0.06-0.08-0.09-0.12-0.14c-0.11-0.16-0.15-0.36-0.17-0.55h-6.47v18.68h44.62
		V51.17H73.34z"/>
	<g>
		<path class="st7" d="M43.69,77.58c0-0.55-0.45-1-1-1c-0.55,0-1,0.45-1,1v3.13h2V77.58z"/>
		<path class="st7" d="M58.52,77.58c0-0.55-0.45-1-1-1s-1,0.45-1,1v3.13h2V77.58z"/>
		<path class="st7" d="M73.36,77.58c0-0.55-0.45-1-1-1c-0.55,0-1,0.45-1,1v3.13h2V77.58z"/>
	</g>
	<g>
		<path class="st6" d="M76.54,50.63c-0.32-1.59-1.05-3.47-2.67-4.17c-0.93-0.4-1.87-0.38-2.72,0.06c-1.5,0.76-2.44,2.68-2.97,4.12
			h-6.05c-0.32-1.59-1.05-3.47-2.67-4.17c-0.93-0.4-1.87-0.38-2.72,0.06c-1.5,0.76-2.44,2.68-2.96,4.11h-6.91
			c-0.32-1.59-1.05-3.47-2.67-4.17c-0.93-0.4-1.87-0.38-2.72,0.06c-1.5,0.76-2.44,2.68-2.96,4.12h-3.31v1v1h6.43h2.22h5.89h1h2.5
			h2.22h5.89h1h1.87h2.22h5.89h1h6.49v-1v-1h-3.29V50.63z M72.05,48.3c0.33-0.17,0.64-0.17,1.02,0c0.72,0.31,1.15,1.3,1.41,2.33
			h-4.15C70.78,49.6,71.38,48.64,72.05,48.3z M57.64,48.3c0.32-0.17,0.64-0.17,1.02,0c0.72,0.31,1.15,1.3,1.41,2.33h-4.15
			C56.37,49.6,56.97,48.64,57.64,48.3z M42.36,48.3c0.32-0.17,0.64-0.17,1.02,0c0.72,0.31,1.15,1.3,1.41,2.33h-4.14
			C41.07,49.65,41.66,48.66,42.36,48.3z"/>
		<polygon class="st6" points="35.21,80.71 35.21,80.76 35.21,81.56 35.21,82.71 79.82,82.71 79.82,81.56 79.82,80.76 79.82,80.71 
					"/>
	</g>
</g>
</svg>
