<?xml version="1.0" encoding="utf-8"?>
<!-- Generator: Adobe Illustrator 26.1.0, SVG Export Plug-In . SVG Version: 6.00 Build 0)  -->
<svg version="1.1" id="圖層_1" xmlns="http://www.w3.org/2000/svg" xmlns:xlink="http://www.w3.org/1999/xlink" x="0px" y="0px"
	 viewBox="0 0 88.69 92.39" style="enable-background:new 0 0 88.69 92.39;" xml:space="preserve">
<style type="text/css">
	.st0{fill:none;stroke:#E0E2E2;stroke-width:2;stroke-linecap:round;stroke-linejoin:round;stroke-miterlimit:10;}
	.st1{fill:#FF6053;}
	.st2{fill:#FFFBF3;}
	.st3{fill:#FF946A;}
	.st4{clip-path:url(#SVGID_00000163787290741448460500000015022031303276154808_);}
	.st5{fill:none;stroke:#FFFFFF;stroke-miterlimit:10;}
	.st6{fill:#FFC181;}
	.st7{fill:#99D3D3;}
	.st8{clip-path:url(#SVGID_00000101081611490602906920000006045647936737174419_);}
</style>
<g>
	<line class="st0" x1="1" y1="4.21" x2="87.69" y2="4.21"/>
	<path class="st6" d="M44.35,0h36.7c0.64,0,1.08,0.65,0.84,1.25l-18.52,45.7L45.18,91.83c-0.31,0.75-1.37,0.75-1.68,0L25.33,46.95
		L6.81,1.25C6.57,0.65,7.01,0,7.65,0H44.35z"/>
	<circle class="st2" cx="44.35" cy="24.11" r="19.89"/>
</g>
<g>
	<g>
		<defs>
			<path id="SVGID_00000163066037368537945020000014065590918135049663_" d="M153.04,0h36.7c0.64,0,1.08,0.65,0.84,1.25l-18.52,45.7
				l-18.18,44.88c-0.31,0.75-1.37,0.75-1.68,0l-18.18-44.88L115.5,1.25c-0.24-0.6,0.2-1.25,0.84-1.25H153.04z"/>
		</defs>
		<clipPath id="SVGID_00000096039816299431751100000004078029667345971852_">
			<use xlink:href="#SVGID_00000163066037368537945020000014065590918135049663_"  style="overflow:visible;"/>
		</clipPath>
		<g style="clip-path:url(#SVGID_00000096039816299431751100000004078029667345971852_);">
			<line class="st5" x1="86.47" y1="39.24" x2="176.57" y2="95.98"/>
		</g>
	</g>
</g>
</svg>
