<?xml version="1.0" encoding="utf-8"?>
<!-- Generator: Adobe Illustrator 28.1.0, SVG Export Plug-In . SVG Version: 6.00 Build 0)  -->
<svg version="1.1" id="圖層_1" xmlns="http://www.w3.org/2000/svg" xmlns:xlink="http://www.w3.org/1999/xlink" x="0px" y="0px"
	 viewBox="0 0 68.19 68.05" style="enable-background:new 0 0 68.19 68.05;" xml:space="preserve">
<style type="text/css">
	.st0{fill:none;}
	.st1{fill:url(#SVGID_1_);}
	.st2{fill:none;stroke:#C43C35;stroke-width:2;stroke-linecap:round;stroke-linejoin:round;stroke-miterlimit:10;}
	.st3{fill:url(#SVGID_00000073715729805698179040000002730427617218840753_);}
	.st4{fill:none;stroke:#E2A050;stroke-width:2;stroke-linecap:round;stroke-linejoin:round;stroke-miterlimit:10;}
	.st5{fill:none;stroke:#FFE1B0;stroke-width:2;stroke-linecap:round;stroke-linejoin:round;stroke-miterlimit:10;}
	.st6{fill:url(#SVGID_00000012444166445923552880000011394334064064630693_);}
	.st7{fill:none;stroke:#E2A050;stroke-width:1.5;stroke-miterlimit:10;}
	.st8{fill:url(#SVGID_00000059994565321595368620000005613195180228190127_);}
	.st9{fill:#E2A050;}
</style>
<rect class="st0" width="68.19" height="68.05"/>
<linearGradient id="SVGID_1_" gradientUnits="userSpaceOnUse" x1="25.7872" y1="10.5064" x2="43.8578" y2="57.3769">
	<stop  offset="0" style="stop-color:#F5C470"/>
	<stop  offset="0.3358" style="stop-color:#F4C26D"/>
	<stop  offset="0.5979" style="stop-color:#F3BE63"/>
	<stop  offset="0.8345" style="stop-color:#F0B553"/>
	<stop  offset="1" style="stop-color:#EDAD42"/>
</linearGradient>
<path class="st1" d="M64.98,25.2c-0.61-5.12-5.01-9.03-9.7-9.16c-4.54-0.13-7.96,1.82-11.37,4.01c-2.98-4.83-8.46-7.53-13.91-6.32
	c-5.5,1.22-9.31,6.04-9.89,11.72C14.58,24.82,9.1,24.4,5.2,29.59c-3.67,4.89-2.22,11.72,0.94,16.58c8.6,13.27,31.02,13.74,43,7.81
	C58.68,49.26,66.43,37.39,64.98,25.2z"/>
<path class="st4" d="M21.75,30.36c3.83,2.62,8.61,3.51,12.92,2.41c4.31-1.1,8.08-4.17,10.2-8.31"/>
<path class="st5" d="M5.96,34.71c3.95,3.82,10.86,5.95,16.23,6.28c7.93,0.5,17.79-0.09,24.9-4.03c6.4-3.55,10.37-8.71,13.89-15.04"
	/>
</svg>
