<?xml version="1.0" encoding="utf-8"?>
<!-- Generator: Adobe Illustrator 28.1.0, SVG Export Plug-In . SVG Version: 6.00 Build 0)  -->
<svg version="1.1" id="圖層_1" xmlns="http://www.w3.org/2000/svg" xmlns:xlink="http://www.w3.org/1999/xlink" x="0px" y="0px"
	 viewBox="0 0 68.19 68.05" style="enable-background:new 0 0 68.19 68.05;" xml:space="preserve">
<style type="text/css">
	.st0{fill:none;}
	.st1{fill:url(#SVGID_1_);}
	.st2{fill:none;stroke:#C43C35;stroke-width:2;stroke-linecap:round;stroke-linejoin:round;stroke-miterlimit:10;}
	.st3{fill:url(#SVGID_00000086654310217454604540000016541060533981348023_);}
	.st4{fill:none;stroke:#E2A050;stroke-width:2;stroke-linecap:round;stroke-linejoin:round;stroke-miterlimit:10;}
	.st5{fill:none;stroke:#FFE1B0;stroke-width:2;stroke-linecap:round;stroke-linejoin:round;stroke-miterlimit:10;}
	.st6{fill:url(#SVGID_00000045621040025381713880000015605618087840855229_);}
	.st7{fill:none;stroke:#E2A050;stroke-width:1.5;stroke-miterlimit:10;}
	.st8{fill:url(#SVGID_00000105414656175724491860000013615064100528952983_);}
	.st9{fill:#E2A050;}
</style>
<rect class="st0" width="68.19" height="68.05"/>
<g>
	<g>
		<linearGradient id="SVGID_1_" gradientUnits="userSpaceOnUse" x1="27.7801" y1="6.9385" x2="41.333" y2="65.6678">
			<stop  offset="0" style="stop-color:#F5C470"/>
			<stop  offset="0.3358" style="stop-color:#F4C26D"/>
			<stop  offset="0.5979" style="stop-color:#F3BE63"/>
			<stop  offset="0.8345" style="stop-color:#F0B553"/>
			<stop  offset="1" style="stop-color:#EDAD42"/>
		</linearGradient>
		<path class="st1" d="M33.92,7.17c-14.94,0-27.23,12.18-27.23,27.12c0,14.94,12.3,26.57,27.23,26.57s27.58-11.63,27.58-26.57
			C61.51,19.35,48.86,7.17,33.92,7.17z"/>
	</g>
	<path class="st9" d="M33.92,62.69c-16.03,0-29.07-12.74-29.07-28.4c0-15.97,13.04-28.96,29.07-28.96
		c15.95,0,29.42,13.26,29.42,28.96C63.34,49.95,50.14,62.69,33.92,62.69z M33.92,9.01c-14,0-25.4,11.34-25.4,25.28
		c0,13.63,11.39,24.73,25.4,24.73c14.2,0,25.74-11.09,25.74-24.73C59.67,20.58,47.88,9.01,33.92,9.01z"/>
</g>
</svg>
