<?xml version="1.0" encoding="utf-8"?>
<!-- Generator: Adobe Illustrator 28.1.0, SVG Export Plug-In . SVG Version: 6.00 Build 0)  -->
<svg version="1.1" id="圖層_1" xmlns="http://www.w3.org/2000/svg" xmlns:xlink="http://www.w3.org/1999/xlink" x="0px" y="0px"
	 viewBox="0 0 68.19 68.05" style="enable-background:new 0 0 68.19 68.05;" xml:space="preserve">
<style type="text/css">
	.st0{fill:none;}
	.st1{fill:url(#SVGID_1_);}
	.st2{fill:none;stroke:#C43C35;stroke-width:2;stroke-linecap:round;stroke-linejoin:round;stroke-miterlimit:10;}
	.st3{fill:url(#SVGID_00000109718435607604269800000010978595448047831437_);}
	.st4{fill:none;stroke:#E2A050;stroke-width:2;stroke-linecap:round;stroke-linejoin:round;stroke-miterlimit:10;}
	.st5{fill:none;stroke:#FFE1B0;stroke-width:2;stroke-linecap:round;stroke-linejoin:round;stroke-miterlimit:10;}
	.st6{fill:url(#SVGID_00000039840246332087705590000015261394622195070138_);}
	.st7{fill:none;stroke:#E2A050;stroke-width:1.5;stroke-miterlimit:10;}
	.st8{fill:url(#SVGID_00000095321981641481227410000000704088689611484831_);}
	.st9{fill:#E2A050;}
</style>
<rect class="st0" width="68.19" height="68.05"/>
<linearGradient id="SVGID_1_" gradientUnits="userSpaceOnUse" x1="41.0877" y1="7.6695" x2="29.7936" y2="50.3047">
	<stop  offset="0" style="stop-color:#D14A3F"/>
	<stop  offset="0.5602" style="stop-color:#D1473C"/>
	<stop  offset="0.9972" style="stop-color:#CF3E32"/>
	<stop  offset="1" style="stop-color:#CF3E32"/>
</linearGradient>
<path class="st1" d="M7.44,48.27c0.47-3.77,2.01-7.47,2.98-11.1c0.74-2.81,1.5-5.61,2.27-8.42c1.58-5.8,3.3-11.59,4.71-17.39
	c1.15-4.73,3.67-7.76,8.89-6.84c2.82,0.5,5.66,0.93,8.46,1.6c5.77,1.37,11.61,2.41,17.38,3.73c2.64,0.6,5.73,1.37,7.83,3.26
	c2.84,2.56,0.92,6.81,0.12,9.88c-1.6,6.15-3.55,12.17-5.48,18.22c-1.13,3.53-2.15,7.09-3.11,10.67c-0.83,3.11-1.01,7.96-3.63,10.22
	c-3.36,2.88-9.01,0.13-12.66-0.61c-6.2-1.26-12.33-3.1-18.46-4.65c-3.84-0.97-9.72-2.01-9.41-7.34C7.35,49.1,7.39,48.68,7.44,48.27z
	"/>
<path class="st2" d="M23.01,8.13c-0.67,1.44,0.02,3.21,1.21,4.26c1.18,1.05,2.75,1.54,4.28,1.97c5.83,1.64,11.72,2.56,17.64,3.71
	c4.37,0.85,8.74,2.07,12.15-1.86"/>
</svg>
