<?xml version="1.0" encoding="utf-8"?>
<!-- Generator: Adobe Illustrator 28.1.0, SVG Export Plug-In . SVG Version: 6.00 Build 0)  -->
<svg version="1.1" id="圖層_1" xmlns="http://www.w3.org/2000/svg" xmlns:xlink="http://www.w3.org/1999/xlink" x="0px" y="0px"
	 viewBox="0 0 68.19 68.05" style="enable-background:new 0 0 68.19 68.05;" xml:space="preserve">
<style type="text/css">
	.st0{fill:none;}
	.st1{fill:url(#SVGID_1_);}
	.st2{fill:none;stroke:#C43C35;stroke-width:2;stroke-linecap:round;stroke-linejoin:round;stroke-miterlimit:10;}
	.st3{fill:url(#SVGID_00000181789831543655420440000011971917538238227880_);}
	.st4{fill:none;stroke:#E2A050;stroke-width:2;stroke-linecap:round;stroke-linejoin:round;stroke-miterlimit:10;}
	.st5{fill:none;stroke:#FFE1B0;stroke-width:2;stroke-linecap:round;stroke-linejoin:round;stroke-miterlimit:10;}
	.st6{fill:url(#SVGID_00000044877223370475507410000013216522875860840631_);}
	.st7{fill:none;stroke:#E2A050;stroke-width:1.5;stroke-miterlimit:10;}
	.st8{fill:url(#SVGID_00000023978262487434869650000001247324806361377668_);}
	.st9{fill:#E2A050;}
</style>
<rect class="st0" width="68.19" height="68.05"/>
<linearGradient id="SVGID_1_" gradientUnits="userSpaceOnUse" x1="27.7831" y1="2.1035" x2="40.7782" y2="66.7839">
	<stop  offset="0" style="stop-color:#D14A3F"/>
	<stop  offset="0.5602" style="stop-color:#D1473C"/>
	<stop  offset="0.9972" style="stop-color:#CF3E32"/>
	<stop  offset="1" style="stop-color:#CF3E32"/>
</linearGradient>
<path class="st1" d="M31.11,62.92c-0.66-0.36-1.34-0.86-2.04-1.53c-3.23-3.11-6.24-6.39-9.54-9.42c-3.43-3.15-6.66-6.51-9.67-10.05
	c-1.67-1.97-4.48-4.52-5.42-6.93c-0.9-2.3,0.93-4.94,2.24-6.69c2.58-3.45,5.59-6.38,8.53-9.53C19.67,14,24.39,9.01,30.33,6.09
	c4.84-2.38,8.44,1.57,12.2,4.22c5.24,3.7,9.68,8.21,14.07,12.85c3.54,3.74,10.03,8.04,6.23,13.89c-1.66,2.56-4.09,4.49-6.23,6.63
	c-4.28,4.28-8.47,8.69-12.81,12.84C40.57,59.59,36.27,65.69,31.11,62.92z"/>
<path class="st7" d="M33.77,59.37c-0.12,0-0.32-0.02-0.65-0.2c-0.33-0.18-0.7-0.46-1.1-0.84c-1.33-1.28-2.66-2.63-3.95-3.93
	c-1.81-1.84-3.69-3.74-5.67-5.56c-3.28-3.02-6.41-6.27-9.3-9.67c-0.46-0.54-1.01-1.13-1.58-1.75c-1.09-1.18-2.57-2.77-3.06-3.83
	c0.06-0.3,0.35-1.06,1.61-2.75c1.84-2.46,3.94-4.66,6.17-6.99c0.69-0.72,1.38-1.44,2.06-2.18c4-4.28,8.54-9.13,13.9-11.77
	c0.41-0.2,0.77-0.3,1.1-0.3c1.27,0,3.06,1.38,4.8,2.71c0.66,0.5,1.31,1,1.97,1.47c4.99,3.52,9.2,7.83,13.43,12.3
	c0.66,0.7,1.4,1.4,2.1,2.07c4.48,4.26,4.56,5.19,3.65,6.58c-0.95,1.46-2.36,2.79-3.85,4.19c-0.61,0.58-1.23,1.16-1.82,1.75
	c-1.48,1.48-2.95,2.98-4.42,4.48c-2.71,2.76-5.52,5.62-8.32,8.29c-0.57,0.54-1.17,1.17-1.8,1.83
	C37.59,56.81,35.15,59.37,33.77,59.37z"/>
</svg>
