<svg width="24" height="24" viewBox="0 0 24 24" fill="none" xmlns="http://www.w3.org/2000/svg">
<mask id="mask0_16613_198157" style="mask-type:alpha" maskUnits="userSpaceOnUse" x="3" y="3" width="18" height="18">
<path d="M17.7692 19.1538H4.84615V6.23077H12.2308C12.7406 6.23077 13.1538 5.81749 13.1538 5.30769C13.1538 4.79789 12.7406 4.38462 12.2308 4.38462H4.84615C3.83077 4.38462 3 5.21538 3 6.23077V19.1538C3 20.1692 3.83077 21 4.84615 21H17.7692C18.7846 21 19.6154 20.1692 19.6154 19.1538V11.7692C19.6154 11.2594 19.2021 10.8462 18.6923 10.8462C18.1825 10.8462 17.7692 11.2594 17.7692 11.7692V19.1538ZM10.5785 16.2277L8.76923 14.0492L6.23077 17.3077H16.3846L13.1169 12.96L10.5785 16.2277Z" fill="#474A57"/>
<path d="M19.1538 4.84615H20.0769C20.3217 4.84615 20.5565 4.94341 20.7296 5.11652C20.9027 5.28963 21 5.52442 21 5.76923C21 6.01405 20.9027 6.24883 20.7296 6.42195C20.5565 6.59506 20.3217 6.69231 20.0769 6.69231H19.1538V7.61538C19.1538 7.8602 19.0566 8.09499 18.8835 8.2681C18.7104 8.44121 18.4756 8.53846 18.2308 8.53846C17.986 8.53846 17.7512 8.44121 17.5781 8.2681C17.4049 8.09499 17.3077 7.8602 17.3077 7.61538V6.69231H16.3846C16.1398 6.69231 15.905 6.59506 15.7319 6.42195C15.5588 6.24883 15.4615 6.01405 15.4615 5.76923C15.4615 5.52442 15.5588 5.28963 15.7319 5.11652C15.905 4.94341 16.1398 4.84615 16.3846 4.84615H17.3077V3.92308C17.3077 3.67826 17.4049 3.44347 17.5781 3.27036C17.7512 3.09725 17.986 3 18.2308 3C18.4756 3 18.7104 3.09725 18.8835 3.27036C19.0566 3.44347 19.1538 3.67826 19.1538 3.92308V4.84615Z" fill="#474A57"/>
</mask>
<g mask="url(#mask0_16613_198157)">
<rect width="24" height="24" fill="#474A57"/>
</g>
</svg>
