<svg width="24" height="24" viewBox="0 0 24 24" fill="currentColor" xmlns="http://www.w3.org/2000/svg">
<path fill-rule="evenodd" clip-rule="evenodd" d="M1.5 3.5C1.5 2.39543 2.39543 1.5 3.5 1.5H15C16.1036 1.5 16.9984 2.39381 17 3.497L17 7H20.5C21.6046 7 22.5 7.89543 22.5 9V20.5C22.5 21.6046 21.6046 22.5 20.5 22.5H9C7.89543 22.5 7 21.6046 7 20.5V17L3.497 17C2.39381 16.9984 1.5 16.1036 1.5 15V3.5ZM3.5 7.41421L7.41421 3.5H9.58579L3.5 9.58579V7.41421ZM12.4142 3.5L8.91233 7.00189C8.94139 7.00063 8.97062 7 9 7H11.0858L14.5858 3.5H12.4142ZM3.5 12.4142V14.5858L7 11.0858V9C7 8.97062 7.00063 8.94139 7.00189 8.91233L3.5 12.4142ZM3.5 3.5H4.58579L3.5 4.58579V3.5ZM13.9142 7H15V5.91421L13.9142 7ZM5.91421 15H7V13.9142L5.91421 15ZM14.75 20.5H16.5858H20.5V9H9V20.5H14.4142H14.75Z" fill="currentColor"/>
</svg>
