<svg xmlns="http://www.w3.org/2000/svg" width="24" height="24" fill="currentColor" viewBox="0 0 24 24">
  <path fill-rule="evenodd" d="M11.712 9.068a1.5 1.5 0 012.121 0l1.098 1.099a1.5 1.5 0 010 2.121l-8.636 8.636a1.5 1.5 0 01-2.121 0l-1.099-1.098a1.5 1.5 0 010-2.121l8.637-8.637zm1.414.708a.5.5 0 00-.707 0l-8.636 8.636a.5.5 0 000 .707l1.098 1.098a.5.5 0 00.707 0l8.636-8.636a.5.5 0 000-.707l-1.098-1.098z" clip-rule="evenodd"/>
  <path d="M8.715 12.772a1 1 0 011.414 0l1.099 1.099a1 1 0 010 1.414l-5.286 5.286a1 1 0 01-1.415 0L3.43 19.473a1 1 0 010-1.415l5.286-5.286z"/>
  <path fill-rule="evenodd" d="M8.362 12.419a1.5 1.5 0 012.12 0l1.1 1.098a1.5 1.5 0 010 2.122l-5.287 5.286a1.5 1.5 0 01-2.121 0l-1.099-1.099a1.5 1.5 0 010-2.121l5.287-5.286zm1.414.707a.5.5 0 00-.707 0l-5.286 5.286a.5.5 0 000 .707l1.098 1.099a.5.5 0 00.707 0l5.286-5.287a.5.5 0 000-.707l-1.098-1.098zM8.1 6.686a.5.5 0 01.708 0l.968.968a.5.5 0 11-.707.707L8.1 7.393a.5.5 0 010-.707zM17.314 6.556a.5.5 0 010 .707l-.968.968a.5.5 0 11-.707-.707l.968-.968a.5.5 0 01.707 0zM12.435 4.527a.5.5 0 01.5.5v1.37a.5.5 0 11-1 0v-1.37a.5.5 0 01.5-.5zM18.982 11.074a.5.5 0 00-.5-.5h-1.369a.5.5 0 100 1h1.37a.5.5 0 00.5-.5zM15.639 14.224a.5.5 0 01.707 0l.968.968a.5.5 0 11-.707.707l-.968-.968a.5.5 0 010-.707z" clip-rule="evenodd"/>
</svg>
