<svg width="24" height="24" viewBox="0 0 24 24" fill="currentColor" xmlns="http://www.w3.org/2000/svg">
<path d="M12 4C10.4178 4 8.87104 4.46919 7.55544 5.34824C6.23985 6.22729 5.21447 7.47672 4.60897 8.93853C4.00347 10.4003 3.84504 12.0089 4.15372 13.5607C4.4624 15.1126 5.22433 16.538 6.34315 17.6569C7.46197 18.7757 8.88743 19.5376 10.4393 19.8463C11.9911 20.155 13.5997 19.9965 15.0615 19.391C16.5233 18.7855 17.7727 17.7602 18.6518 16.4446C19.5308 15.129 20 13.5822 20 12C20 9.87827 19.1571 7.84344 17.6569 6.34315C16.1566 4.84285 14.1217 4 12 4ZM12 18.6667C10.6815 18.6667 9.39253 18.2757 8.2962 17.5431C7.19987 16.8106 6.34539 15.7694 5.84081 14.5512C5.33622 13.333 5.2042 11.9926 5.46144 10.6994C5.71867 9.40619 6.35361 8.2183 7.28596 7.28595C8.21831 6.3536 9.4062 5.71867 10.6994 5.46143C11.9926 5.2042 13.3331 5.33622 14.5512 5.8408C15.7694 6.34539 16.8106 7.19987 17.5431 8.2962C18.2757 9.39253 18.6667 10.6815 18.6667 12C18.6667 12.8755 18.4942 13.7424 18.1592 14.5512C17.8242 15.3601 17.3331 16.095 16.714 16.714C16.095 17.3331 15.3601 17.8242 14.5512 18.1592C13.7424 18.4942 12.8755 18.6667 12 18.6667Z"/>
<path d="M12 13.38C11.7701 13.38 11.5497 13.2887 11.3871 13.1262C11.2246 12.9636 11.1333 12.7432 11.1333 12.5133V8.51333C11.1333 8.28348 11.2246 8.06304 11.3871 7.90051C11.5497 7.73798 11.7701 7.64667 12 7.64667C12.2298 7.64667 12.4503 7.73798 12.6128 7.90051C12.7753 8.06304 12.8666 8.28348 12.8666 8.51333V12.5133C12.8666 12.7432 12.7753 12.9636 12.6128 13.1262C12.4503 13.2887 12.2298 13.38 12 13.38Z"/>
<path d="M11.9667 16.3467C12.519 16.3467 12.9667 15.8989 12.9667 15.3467C12.9667 14.7944 12.519 14.3467 11.9667 14.3467C11.4144 14.3467 10.9667 14.7944 10.9667 15.3467C10.9667 15.8989 11.4144 16.3467 11.9667 16.3467Z"/>
</svg>
