<svg width="24" height="24" viewBox="0 0 24 24" fill="none" xmlns="http://www.w3.org/2000/svg">
<g id="Icon-OR">
<mask id="mask0_18566_58215" style="mask-type:alpha" maskUnits="userSpaceOnUse" x="4" y="4" width="16" height="16">
<path id="Vector" d="M12 4C7.6 4 4 7.6 4 12C4 16.4 7.6 20 12 20C16.4 20 20 16.4 20 12C20 7.6 16.4 4 12 4ZM12 6C13.3 6 14.5 6.4 15.5 7.1L7.1 15.5C6.4 14.5 6 13.3 6 12C6 8.7 8.7 6 12 6ZM12 18C10.7 18 9.5 17.6 8.5 16.9L16.9 8.5C17.6 9.5 18 10.7 18 12C18 15.3 15.3 18 12 18Z" fill="currentColor"/>
</mask>
<g mask="url(#mask0_18566_58215)">
<rect id="Rectangle 2175" width="24" height="24" fill="#474A57"/>
</g>
</g>
</svg>
