<svg width="24" height="24" viewBox="0 0 24 24" fill="none" xmlns="http://www.w3.org/2000/svg">
<mask id="mask0_17206_27852" style="mask-type:alpha" maskUnits="userSpaceOnUse" x="3" y="3" width="18" height="19">
<path fill-rule="evenodd" clip-rule="evenodd" d="M9.76476 3.77282C11.0648 2.74239 12.9104 2.74239 14.2104 3.77282L14.2124 3.7744L19.8462 8.2673C20.5611 8.81704 20.9875 9.6615 20.9998 10.5635L21 10.5753L20.9999 18.0529C20.9999 20.162 19.2753 21.8571 17.166 21.8571H15.5168L15.4969 21.8568C14.466 21.8329 13.6288 20.9961 13.629 19.955C13.629 19.9549 13.629 19.9551 13.629 19.955V17.3182C13.629 17.1279 13.4708 16.959 13.2575 16.959H10.7873C10.5761 16.9615 10.4204 17.1294 10.4204 17.3182V19.9468C10.4204 20.0242 10.4102 20.0991 10.391 20.1704C10.2794 21.1263 9.46085 21.8571 8.48309 21.8571H6.83391C4.72464 21.8571 3 20.162 3 18.0529V10.5749C3.00893 9.67109 3.43602 8.82423 4.15378 8.2754L9.76476 3.77282ZM8.70616 19.7787V17.3182C8.70616 17.3182 8.70616 17.3183 8.70616 17.3182C8.70614 16.1705 9.63957 15.2523 10.778 15.2448L10.7837 15.2447L13.2575 15.2447C14.4013 15.2447 15.3432 16.165 15.3432 17.3182V19.955C15.3432 20.0474 15.4184 20.137 15.5305 20.1428H17.166C18.3448 20.1428 19.2856 19.199 19.2856 18.0529V10.5819C19.279 10.2085 19.1012 9.85539 18.798 9.62378L18.7838 9.6127L13.1456 5.11626C13.1453 5.11602 13.145 5.11578 13.1447 5.11554C12.4691 4.58077 11.5072 4.58052 10.8314 5.11481L5.21818 9.61925C5.21199 9.62422 5.20572 9.6291 5.19939 9.6339C4.89619 9.86365 4.71909 10.216 4.71428 10.5882V18.0529C4.71428 19.199 5.65512 20.1428 6.83391 20.1428H8.48309C8.60532 20.1428 8.68967 20.047 8.68967 19.9468C8.68967 19.8893 8.69534 19.833 8.70616 19.7787Z" fill="#200E32"/>
</mask>
<g mask="url(#mask0_17206_27852)">
<rect width="24" height="24" fill="currentColor"/>
</g>
</svg>
