<svg width="24" height="24" viewBox="0 0 24 24" fill="currentColor" xmlns="http://www.w3.org/2000/svg">
<path fill-rule="evenodd" clip-rule="evenodd" d="M12.1158 11.878L17.4149 8.33096L12.1228 4.78856C12.1196 4.78641 12.0812 4.76501 12.0088 4.76501C11.9395 4.76501 11.8943 4.78474 11.8785 4.79443L6.59376 8.33863L11.8871 11.8819C11.8871 11.8819 11.8961 11.8876 11.9166 11.8935C11.9386 11.8999 11.9675 11.9045 12.0001 11.9044C12.0708 11.9043 12.1075 11.8835 12.1091 11.8826L12.1158 11.878ZM4.01501 7.65995L10.775 3.12633C11.505 2.64458 12.515 2.64458 13.235 3.12633L19.995 7.65135C20.505 7.99546 20.505 8.66647 19.995 9.01058L13.235 13.5356C12.515 14.026 11.495 14.026 10.775 13.5442L4.01501 9.01918C3.50501 8.67507 3.50501 8.00406 4.01501 7.65995Z" fill="currentColor"/>
<path d="M12.605 19.1102C12.245 19.351 11.735 19.351 11.375 19.1102L5.225 14.9981C4.865 14.7572 4.365 14.7572 4.005 14.9981C3.495 15.3422 3.495 16.0046 4.005 16.3487L10.765 20.8737C11.485 21.3555 12.495 21.3555 13.225 20.8737L19.985 16.3487C20.495 16.0046 20.495 15.3422 19.985 14.9981L19.975 14.9895C19.615 14.7486 19.115 14.7486 18.755 14.9895L12.605 19.1102Z" fill="currentColor"/>
<path d="M12.605 15.6691C12.245 15.9099 11.735 15.9099 11.375 15.6691L5.225 11.557C4.865 11.3161 4.365 11.3161 4.005 11.557C3.495 11.9011 3.495 12.5635 4.005 12.9076L10.765 17.4326C11.485 17.9144 12.495 17.9144 13.225 17.4326L19.985 12.9076C20.495 12.5635 20.495 11.9011 19.985 11.557L19.975 11.5484C19.615 11.3075 19.115 11.3075 18.755 11.5484L12.605 15.6691Z" fill="currentColor"/>
</svg>
