<svg xmlns="http://www.w3.org/2000/svg" width="67" height="67" fill="none" viewBox="0 0 67 67">
  <rect width="65" height="65" x="1" y="1" fill="#F4F5F7"  rx="3"/>
  <path fill="#969BAB" stroke="#969BAB" stroke-width="1"  d="M26.505 37.931c-.824 0-1.544-.176-2.16-.528a3.674 3.674 0 01-1.416-1.524c-.328-.664-.492-1.444-.492-2.34 0-.888.164-1.66.492-2.316a3.507 3.507 0 011.404-1.524c.616-.352 1.34-.528 2.172-.528.832 0 1.552.176 2.16.528.616.352 1.084.86 1.404 1.524.328.656.492 1.428.492 2.316 0 .896-.164 1.676-.492 2.34a3.597 3.597 0 01-1.404 1.524c-.608.352-1.328.528-2.16.528zm0-1.236c.792 0 1.408-.272 1.848-.816.44-.544.66-1.324.66-2.34 0-1.008-.22-1.78-.66-2.316-.44-.544-1.056-.816-1.848-.816s-1.408.268-1.848.804c-.44.536-.66 1.312-.66 2.328 0 1.016.22 1.796.66 2.34.44.544 1.056.816 1.848.816zm5.942-7.416h5.58v1.236h-4.044v2.34h3.803v1.248h-3.803v3.72h-1.536V29.28zm7.167 0h5.58v1.236H41.15v2.34h3.804v1.248H41.15v3.72h-1.536V29.28z"/>
</svg>
