<svg width="116" height="27" viewBox="0 0 116 27" fill="none" xmlns="http://www.w3.org/2000/svg">
<path d="M34.3503 21.8149C33.6703 21.8149 33.1371 21.6471 32.7505 21.3113C32.3639 20.9755 32.076 20.4809 31.8867 19.8276L29.2535 10.1231C29.0077 9.2586 29.069 8.55289 29.4373 8.00594C29.8055 7.459 30.3764 7.18532 31.15 7.18493C31.7352 7.18493 32.1838 7.32901 32.4959 7.61717C32.808 7.90533 33.0485 8.41417 33.2174 9.14369L34.8857 16.3995L39.1913 8.67752C39.4933 8.12184 39.8188 7.73307 40.168 7.51119C40.5171 7.28932 40.9658 7.17878 41.5139 7.17957C42.3253 7.17957 42.8586 7.43875 43.1137 7.95712C43.3688 8.47549 43.298 9.08059 42.9013 9.7724L36.7571 20.2283C36.4173 20.784 36.0539 21.1872 35.6669 21.4381C35.2731 21.6906 34.8158 21.8216 34.3503 21.8149Z" fill="#50A2D8"/>
<path d="M46.184 21.8149C45.5236 21.8149 45.0375 21.5893 44.7258 21.138C44.4141 20.6867 44.3246 20.0675 44.4572 19.2804L46.0143 9.34253C46.2406 7.90253 47.0616 7.18233 48.4773 7.18194C49.1377 7.18194 49.6238 7.40282 49.9355 7.84458C50.2472 8.28634 50.3369 8.91049 50.2047 9.71702L48.6476 19.6543C48.4213 21.0951 47.6001 21.8153 46.184 21.8149ZM48.8758 4.82011C48.1205 4.82011 47.559 4.63752 47.1911 4.27236C46.8232 3.90721 46.6769 3.38884 46.7522 2.71726C46.9407 1.21931 47.875 0.470337 49.5552 0.470337C50.31 0.470337 50.8757 0.657481 51.2521 1.03177C51.6286 1.40606 51.7606 1.92939 51.6483 2.60176C51.4408 4.08066 50.516 4.82011 48.874 4.82011H48.8758Z" fill="#50A2D8"/>
<path d="M58.4714 21.8149C57.7915 21.8149 57.2582 21.6471 56.8716 21.3113C56.485 20.9755 56.1979 20.4809 56.0102 19.8276L53.377 10.1231C53.1316 9.2586 53.193 8.55289 53.5613 8.00594C53.9296 7.459 54.5003 7.18532 55.2735 7.18493C55.8587 7.18493 56.3073 7.32901 56.6194 7.61717C56.9315 7.90533 57.172 8.41417 57.3409 9.14369L59.0115 16.4024L63.3125 8.67752C63.6144 8.12184 63.94 7.73307 64.2891 7.51119C64.6383 7.28932 65.0869 7.17878 65.635 7.17957C66.4464 7.17957 66.9797 7.43875 67.2348 7.95712C67.49 8.47549 67.4192 9.08059 67.0224 9.7724L60.8782 20.2283C60.538 20.784 60.1746 21.1872 59.788 21.4381C59.3942 21.6906 58.9369 21.8216 58.4714 21.8149Z" fill="#50A2D8"/>
<path d="M70.3055 21.8149C69.6424 21.8149 69.1563 21.5893 68.8473 21.138C68.5383 20.6867 68.4486 20.0675 68.5781 19.2804L70.1353 9.34253C70.3615 7.90253 71.1827 7.18233 72.5988 7.18194C73.2589 7.18194 73.7448 7.40282 74.0565 7.84458C74.3682 8.28634 74.4579 8.91049 74.3256 9.71702L72.7685 19.6543C72.5422 21.0951 71.7213 21.8153 70.3055 21.8149ZM72.9973 4.82011C72.2417 4.82011 71.6801 4.63752 71.3126 4.27236C70.9451 3.90721 70.7988 3.38884 70.8737 2.71726C71.0622 1.21931 71.9965 0.470337 73.6767 0.470337C74.4316 0.470337 74.9972 0.657481 75.3737 1.03177C75.7501 1.40606 75.8822 1.92939 75.7698 2.60176C75.5615 4.08066 74.6366 4.82011 72.995 4.82011H72.9973Z" fill="#50A2D8"/>
<path d="M77.8367 26.9999C77.1754 26.9999 76.6847 26.7791 76.3644 26.3373C76.0441 25.8955 75.9497 25.2714 76.0812 24.4649L78.4312 9.37107C78.6575 7.91162 79.4691 7.1819 80.8661 7.1819C81.5074 7.1819 81.9744 7.38353 82.267 7.78679C82.5595 8.19005 82.6682 8.75645 82.5929 9.48597C83.6872 7.91182 85.2064 7.12454 87.1507 7.12415C88.717 7.12415 89.9724 7.67149 90.9169 8.76617C91.8613 9.86086 92.3329 11.3493 92.3318 13.2314C92.3318 14.8639 92.0488 16.3325 91.4827 17.6372C90.9167 18.9418 90.1097 19.9738 89.0619 20.7331C88.0152 21.4936 86.7741 21.8734 85.3385 21.8726C84.3948 21.8726 83.5502 21.6662 82.8047 21.2534C82.0689 20.8517 81.4786 20.221 81.12 19.4536L80.271 24.8977C80.0447 26.2988 79.2333 26.9995 77.8367 26.9999ZM84.4607 18.6201C85.5921 18.6201 86.4698 18.1303 87.094 17.1508C87.7182 16.1712 88.0302 14.9421 88.0302 13.4636C88.0302 12.465 87.7989 11.7017 87.3362 11.1738C86.8736 10.6459 86.2365 10.382 85.4251 10.382C84.2938 10.382 83.416 10.8716 82.7919 11.8508C82.1677 12.83 81.8556 14.0495 81.8556 15.5093C81.8556 16.508 82.0869 17.276 82.5496 17.8134C83.0123 18.3508 83.6493 18.6197 84.4607 18.6201Z" fill="#50A2D8"/>
<path d="M96.5778 21.8149C95.9174 21.8149 95.4313 21.5893 95.1196 21.138C94.8079 20.6867 94.7182 20.0675 94.8504 19.2804L96.4081 9.34253C96.6344 7.90253 97.4554 7.18233 98.8711 7.18194C99.5316 7.18194 100.017 7.40282 100.329 7.84458C100.64 8.28634 100.73 8.91049 100.598 9.71702L99.0408 19.6543C98.8145 21.0951 97.9936 21.8153 96.5778 21.8149ZM99.2696 4.82011C98.5147 4.82011 97.9532 4.63752 97.5849 4.27236C97.2166 3.90721 97.0707 3.38884 97.1472 2.71726C97.3356 1.21931 98.2698 0.470337 99.9496 0.470337C100.704 0.470337 101.27 0.657481 101.647 1.03177C102.023 1.40606 102.155 1.92939 102.043 2.60176C101.834 4.08066 100.909 4.82011 99.2673 4.82011H99.2696Z" fill="#50A2D8"/>
<path d="M110.11 21.8726C107.789 21.8726 106.053 21.2725 104.902 20.0722C103.752 18.872 103.176 17.2925 103.174 15.3337C103.172 14.2949 103.339 13.2629 103.67 12.28C103.994 11.3122 104.499 10.4172 105.156 9.64433C105.817 8.86678 106.661 8.25156 107.69 7.79869C108.719 7.34581 109.922 7.12016 111.3 7.12175C111.923 7.11789 112.544 7.18075 113.154 7.30929C113.714 7.42939 114.259 7.60857 114.782 7.84393C115.348 8.07454 115.712 8.401 115.872 8.82332C116.031 9.2226 116.041 9.66733 115.9 10.0736C115.778 10.4653 115.515 10.7958 115.164 10.9994C114.813 11.2006 114.412 11.2054 113.961 11.0137C113.232 10.6405 112.428 10.4433 111.611 10.4374C110.61 10.4374 109.812 10.6775 109.219 11.1578C108.629 11.6318 108.182 12.2658 107.931 12.9867C107.668 13.7205 107.533 14.4959 107.535 15.2771C107.535 16.2559 107.785 17.0432 108.285 17.639C108.785 18.2347 109.611 18.5324 110.762 18.532C111.101 18.525 111.438 18.4815 111.768 18.4022C112.182 18.3064 112.585 18.1667 112.971 17.9855C113.367 17.8124 113.721 17.8219 114.032 18.014C114.348 18.212 114.584 18.5184 114.698 18.8779C114.829 19.2611 114.825 19.6793 114.683 20.0591C114.542 20.4628 114.207 20.7988 113.678 21.0671C113.207 21.3172 112.636 21.514 111.965 21.6577C111.356 21.7945 110.734 21.8665 110.11 21.8726Z" fill="#50A2D8"/>
<path d="M19.4784 0H4.15408C1.85984 0 0 1.89228 0 4.22653V19.8181C0 22.1523 1.85984 24.0446 4.15408 24.0446H19.4784C21.7726 24.0446 23.6324 22.1523 23.6324 19.8181V4.22653C23.6324 1.89228 21.7726 0 19.4784 0Z" fill="url(#paint0_linear)"/>
<path d="M18.7071 10.0819C18.5432 9.93821 18.3372 9.85359 18.1211 9.84121C17.9051 9.82883 17.691 9.88938 17.5122 10.0135C16.9072 10.4266 16.2957 10.6743 15.652 10.7696C15.5862 10.6367 15.4908 10.5213 15.3735 10.4326C15.2503 10.3418 15.1113 10.2755 14.9639 10.2373C14.8238 10.1875 14.6773 10.1586 14.5291 10.1516C14.3973 10.1513 14.2664 10.1751 14.1429 10.2218C13.9892 10.2793 13.8538 10.3781 13.7508 10.5076C13.6033 10.6975 13.5167 10.9839 13.4091 11.1994C12.9023 12.2318 12.3452 13.235 11.7852 14.2358C11.5871 14.6024 11.3695 14.9578 11.1334 15.3003C10.9754 15.5236 10.4236 16.4405 10.0549 16.4149C9.84658 16.4 9.80504 16.1857 9.78046 16.035C9.73424 15.7463 9.74302 15.4528 9.74302 15.161C9.74302 14.4621 9.83605 13.7696 9.92734 13.0772C9.99485 12.5143 10.109 11.9583 10.2685 11.415C10.413 10.9387 10.5026 10.4981 10.0736 10.1403C9.96577 10.0447 9.84964 9.95916 9.72663 9.88485C9.56316 9.78388 9.3764 9.72856 9.1852 9.72449C8.994 9.72041 8.80512 9.76772 8.63764 9.86163C8.48959 9.94379 8.34505 10.0248 8.19993 10.1135C8.12386 10.1599 8.04955 10.2093 7.95182 10.273C7.8541 10.3367 7.74643 10.4082 7.6411 10.4677C6.72124 10.9944 5.83118 11.5732 4.9751 12.2014C4.45489 12.5771 4.34838 13.1344 4.69188 13.6899C4.75655 13.8006 4.84227 13.8971 4.94401 13.9737C5.04576 14.0503 5.16149 14.1055 5.28445 14.1361C5.40742 14.1667 5.53515 14.1721 5.66017 14.1519C5.78519 14.1317 5.905 14.0863 6.0126 14.0185C6.0126 14.0185 7.17473 13.3309 7.6452 13.0546C7.50232 13.8338 7.41315 14.6222 7.37836 15.4141C7.35431 15.9383 7.39361 16.4636 7.49539 16.9781C7.57498 17.3734 7.70314 17.8295 8.04838 18.22C8.49077 18.7207 9.1836 19.0196 9.90101 19.0196C10.3148 19.0236 10.7224 18.9171 11.083 18.7106C11.6214 18.3951 12.0281 17.9652 12.3874 17.5485C13.0024 16.834 13.5706 16.0154 14.2295 14.8961C14.5273 14.3888 14.8146 13.8667 15.1002 13.3445L15.2945 12.9915C15.3073 12.9689 15.5613 12.9915 15.587 12.9915C15.7119 12.9879 15.8363 12.9794 15.9604 12.9659C16.8674 12.8677 17.7691 12.5027 18.4415 11.8591C18.617 11.6918 18.7973 11.5275 18.9202 11.3149C19.1144 10.9821 19.0863 10.4141 18.7071 10.0819Z" fill="white"/>
<path d="M15.8867 8.17804H15.8919C16.3162 8.17494 16.7224 8.00243 17.0229 7.69765C17.3235 7.39288 17.4944 6.98021 17.4988 6.54851C17.5001 6.32757 17.4573 6.10867 17.3729 5.90511C17.2885 5.70154 17.1643 5.51755 17.0078 5.36432C16.7 5.06127 16.2898 4.89517 15.9065 4.91362C15.7008 4.90646 15.4957 4.94157 15.3036 5.01686C15.1114 5.09215 14.9362 5.20607 14.7883 5.35181C14.6306 5.50324 14.5048 5.68573 14.4186 5.88818C14.3324 6.09064 14.2875 6.30882 14.2868 6.52946C14.2841 6.74453 14.3236 6.95799 14.403 7.15734C14.4824 7.35669 14.6 7.53792 14.7491 7.69043C14.8974 7.84441 15.0744 7.96682 15.2697 8.05054C15.465 8.13425 15.6747 8.17759 15.8867 8.17804Z" fill="white"/>
<defs>
<linearGradient id="paint0_linear" x1="11.8162" y1="-2.95422" x2="11.8162" y2="21.0904" gradientUnits="userSpaceOnUse">
<stop stop-color="#59C3E1"/>
<stop offset="1" stop-color="#50A2D8"/>
</linearGradient>
</defs>
</svg>
