<svg width="12" height="12" viewBox="0 0 12 12" fill="currentColor" xmlns="http://www.w3.org/2000/svg">
<path fill-rule="evenodd" clip-rule="evenodd" d="M0.343133 0.343146C0.733657 -0.0473781 1.36682 -0.0473785 1.75735 0.343146L5.99999 4.58579L10.2426 0.343146C10.6332 -0.0473788 11.2663 -0.0473784 11.6568 0.343146C12.0474 0.73367 12.0474 1.36683 11.6568 1.75736L7.4142 6L11.6568 10.2426C12.0474 10.6332 12.0474 11.2663 11.6568 11.6569C11.2663 12.0474 10.6332 12.0474 10.2426 11.6569L5.99999 7.41421L1.75735 11.6569C1.36682 12.0474 0.733657 12.0474 0.343133 11.6569C-0.0473908 11.2663 -0.0473909 10.6332 0.343133 10.2426L4.58577 6L0.343133 1.75736C-0.0473909 1.36684 -0.0473908 0.73367 0.343133 0.343146Z"/>
</svg>
