<svg width="80" height="81" viewBox="0 0 80 81" fill="none" xmlns="http://www.w3.org/2000/svg">
<rect width="80" height="80" rx="3" fill="white"/>
<mask id="mask0_6755_53223" style="mask-type:alpha" maskUnits="userSpaceOnUse" x="12" y="19" width="56" height="42">
<path d="M68 19V61H12V41.9533C12 41.0952 12 40.5982 12 40.5982V19H68Z" fill="url(#paint0_linear_6755_53223)"/>
</mask>
<g mask="url(#mask0_6755_53223)">
<path d="M85.5 16.666V69.166H8.5V41.7524C8.5 40.8145 8.5 40.2714 8.5 40.2714V16.666H85.5Z" fill="url(#paint1_linear_6755_53223)"/>
<path d="M108.488 76.3935V62.5599V60.7513V50.0446V49.1711C103.657 48.8279 97.7029 49.1275 96.4685 49.2476C93.2296 49.5645 89.988 49.8619 86.7436 50.1212C80.5857 50.6147 74.4178 50.9713 68.2394 51.0624C58.805 51.201 49.5994 50.319 40.2437 49.2275C36.0409 48.7374 31.8403 48.1941 27.6164 47.9208C19.0866 47.3692 10.5834 48.7457 2.06026 48.881C0.202193 48.9106 -1.65532 48.9095 -3.51172 48.8313C-3.51172 48.8313 -3.51172 49.3834 -3.51172 50.3369V61.6472V62.2363V76.3935V78.2055H86.7441H108.488V76.3935Z" fill="#99D6F2"/>
<path d="M108.488 76.3938V62.5601V60.7516V50.0449C103.836 49.7984 99.3969 50.5361 94.8116 51.1319C92.1276 51.4807 89.4375 51.7853 86.7441 52.044C84.6937 52.2413 82.6416 52.4129 80.5873 52.5582C61.5328 53.9079 42.5552 52.3006 23.5405 51.1867C14.5279 50.6585 5.5142 50.4467 -3.51172 50.3366V61.6469V62.236V76.3932V78.2052H86.7441H108.488V76.3938Z" fill="#348ECE"/>
<path d="M36.0857 37.3854C39.0163 34.4305 39.0163 29.6398 36.0857 26.685C33.1551 23.7301 28.4035 23.7301 25.4729 26.685C22.5423 29.6398 22.5423 34.4305 25.4729 37.3854C28.4035 40.3402 33.1551 40.3402 36.0857 37.3854Z" fill="#F8B62D"/>
<path d="M45.7375 34.7614C45.6438 34.7614 45.5507 34.7666 45.4601 34.7763C44.8142 33.8887 43.686 33.3003 42.4005 33.3003C42.1543 33.3003 41.9145 33.322 41.6821 33.3631C40.9687 32.4384 39.7918 31.834 38.46 31.834C36.6197 31.834 35.0749 32.9864 34.6408 34.544C34.6002 34.5423 34.5602 34.5411 34.519 34.5411C33.036 34.5411 31.8335 35.6398 31.8335 36.9948C31.8335 37.5941 32.084 38.0981 32.4788 38.5011C32.8623 38.8926 33.3814 39.1888 33.9399 39.3846C34.5052 39.5832 35.1018 39.6923 35.6971 39.7842C37.5649 40.0712 39.4739 40.0461 41.3523 39.8641C43.1694 39.6877 45.0803 39.468 46.7944 38.8647C46.8656 38.8395 46.9362 38.8139 47.0062 38.7876C47.767 38.5016 48.1668 37.7214 48.1668 36.9794C48.1662 35.7551 47.0786 34.7614 45.7375 34.7614Z" fill="white"/>
</g>
<g filter="url(#filter0_f_6755_53223)">
<ellipse cx="40" cy="71" rx="25" ry="3" fill="#B5B5B5" fill-opacity="0.92"/>
</g>
<defs>
<filter id="filter0_f_6755_53223" x="8" y="61" width="64" height="20" filterUnits="userSpaceOnUse" color-interpolation-filters="sRGB">
<feFlood flood-opacity="0" result="BackgroundImageFix"/>
<feBlend mode="normal" in="SourceGraphic" in2="BackgroundImageFix" result="shape"/>
<feGaussianBlur stdDeviation="3.5" result="effect1_foregroundBlur_6755_53223"/>
</filter>
<linearGradient id="paint0_linear_6755_53223" x1="35.1884" y1="60.0792" x2="35.1884" y2="-24.4431" gradientUnits="userSpaceOnUse">
<stop stop-color="white"/>
<stop offset="0.0858" stop-color="#F7FCFE"/>
<stop offset="0.2184" stop-color="#E1F4FC"/>
<stop offset="0.3813" stop-color="#BEE7F9"/>
<stop offset="0.5681" stop-color="#8CD4F5"/>
<stop offset="0.7753" stop-color="#4DBDF0"/>
<stop offset="0.9967" stop-color="#01A0E9"/>
<stop offset="1" stop-color="#00A0E9"/>
</linearGradient>
<linearGradient id="paint1_linear_6755_53223" x1="41.7126" y1="61.5627" x2="41.7126" y2="-30.8142" gradientUnits="userSpaceOnUse">
<stop stop-color="white"/>
<stop offset="0.0858" stop-color="#F7FCFE"/>
<stop offset="0.2184" stop-color="#E1F4FC"/>
<stop offset="0.3813" stop-color="#BEE7F9"/>
<stop offset="0.5681" stop-color="#8CD4F5"/>
<stop offset="0.7753" stop-color="#4DBDF0"/>
<stop offset="0.9967" stop-color="#01A0E9"/>
<stop offset="1" stop-color="#00A0E9"/>
</linearGradient>
</defs>
</svg>
