<svg xmlns="http://www.w3.org/2000/svg" width="24" height="24" fill="currentColor" viewBox="0 0 24 24">
  <path d="M19.056 4.889a.944.944 0 000-1.889H3.944a.944.944 0 000 1.889h15.112zM19.056 18.111a.944.944 0 010 1.889H3.944a.944.944 0 110-1.889h15.112z"/>
  <path fill-rule="evenodd" d="M11.5 7.133a.945.945 0 00-.913.544l-3.193 6.847a.945.945 0 101.71.8l.463-.99h3.866l.462.99a.944.944 0 101.712-.799l-3.193-6.848a.945.945 0 00-.914-.544zm1.053 5.311h-2.106l1.053-2.257 1.053 2.257z" clip-rule="evenodd"/>
</svg>
