<svg width="20" height="20" viewBox="0 0 20 20" fill="none" xmlns="http://www.w3.org/2000/svg">
<path fill-rule="evenodd" clip-rule="evenodd" d="M3.51557 0H16.4844C18.426 0 20 1.57398 20 3.51557V16.4844C20 18.426 18.426 20 16.4844 20H3.51557C1.57398 20 0 18.426 0 16.4844V3.51557C0 1.57398 1.57398 0 3.51557 0ZM13.1554 6.98899H13.1599C13.5257 6.98631 13.8758 6.83723 14.1349 6.57384C14.394 6.31045 14.5413 5.95383 14.5451 5.58075C14.5463 5.38982 14.5093 5.20065 14.4366 5.02472C14.3638 4.8488 14.2568 4.6898 14.1219 4.55738C13.8566 4.29549 13.5029 4.15194 13.1725 4.16789C12.9951 4.1617 12.8183 4.19204 12.6527 4.2571C12.4871 4.32217 12.336 4.42062 12.2085 4.54657C12.0725 4.67743 11.9641 4.83514 11.8898 5.0101C11.8155 5.18506 11.7768 5.37361 11.7762 5.56429C11.7739 5.75015 11.8079 5.93462 11.8763 6.1069C11.9448 6.27918 12.0462 6.4358 12.1747 6.5676C12.3026 6.70067 12.4552 6.80646 12.6235 6.8788C12.7919 6.95115 12.9727 6.9886 13.1554 6.98899ZM15.5868 8.63438C15.4455 8.51018 15.2679 8.43706 15.0816 8.42636C14.8953 8.41566 14.7108 8.46799 14.5567 8.57521C14.0351 8.93228 13.508 9.14632 12.9531 9.22865C12.8963 9.11384 12.8141 9.01413 12.7129 8.93743C12.6067 8.85897 12.4869 8.80171 12.3598 8.76867C12.2391 8.72563 12.1128 8.70067 11.985 8.69458C11.8714 8.69434 11.7586 8.7149 11.6521 8.75529C11.5196 8.80499 11.4028 8.89033 11.3141 9.00226C11.2294 9.11157 11.168 9.25785 11.1091 9.39839L11.1091 9.39841C11.0795 9.46889 11.0505 9.53792 11.0195 9.60013C10.5826 10.4923 10.1024 11.3593 9.61964 12.2242C9.4488 12.541 9.26121 12.8481 9.05769 13.1441C9.03951 13.1699 9.01528 13.2063 8.98618 13.2501C8.7973 13.5341 8.40336 14.1265 8.12798 14.1073C7.94839 14.0944 7.91258 13.9092 7.89139 13.779C7.85702 13.5638 7.85792 13.3456 7.85882 13.1279L7.85911 13.0237C7.85911 12.4307 7.93641 11.8432 8.01369 11.2557L8.01801 11.2229C8.0762 10.7365 8.17459 10.2559 8.31211 9.78638C8.43671 9.37477 8.51388 8.99403 8.14412 8.6848C8.05114 8.60217 7.95102 8.52829 7.84498 8.46407C7.70406 8.37681 7.54306 8.32901 7.37823 8.32549C7.2134 8.32196 7.05058 8.36284 6.90619 8.44401C6.77857 8.51501 6.65397 8.58498 6.52886 8.66165C6.47629 8.69382 6.42469 8.72765 6.36288 8.76817L6.36284 8.7682L6.31498 8.79954L6.28774 8.81736L6.28774 8.81737C6.21095 8.86765 6.12823 8.92182 6.04711 8.96779C5.25413 9.42295 4.48684 9.92316 3.74884 10.4661C3.30038 10.7907 3.20856 11.2723 3.50468 11.7524C3.56043 11.848 3.63432 11.9314 3.72204 11.9976C3.80975 12.0639 3.90952 12.1116 4.01552 12.138C4.12152 12.1645 4.23164 12.1691 4.33941 12.1516C4.44719 12.1342 4.55047 12.095 4.64323 12.0364C4.64323 12.0364 5.64507 11.4421 6.05064 11.2034C5.92747 11.8767 5.8506 12.5581 5.82061 13.2424C5.79988 13.6955 5.83376 14.1494 5.9215 14.594C5.99011 14.9357 6.10059 15.3298 6.39822 15.6673C6.77958 16.1 7.37685 16.3583 7.99531 16.3583C8.35203 16.3618 8.7034 16.2697 9.0143 16.0913C9.4784 15.8186 9.82899 15.4471 10.1387 15.0869C10.6689 14.4695 11.1587 13.7621 11.7267 12.7948C11.9835 12.3564 12.2312 11.9052 12.4774 11.4539L12.6448 11.1488C12.6536 11.1334 12.792 11.1423 12.8608 11.1468C12.8734 11.1476 12.8837 11.1483 12.8904 11.1486C12.8933 11.1487 12.8956 11.1488 12.8971 11.1488C13.0047 11.1457 13.112 11.1384 13.2189 11.1267C14.0008 11.0418 14.7782 10.7264 15.3578 10.1702L15.3884 10.141C15.5299 10.0063 15.6716 9.87124 15.7704 9.69994C15.9379 9.41233 15.9137 8.92148 15.5868 8.63438Z" fill="currentColor"/>
</svg>
