<svg xmlns="http://www.w3.org/2000/svg" width="24" height="24" fill="currentColor" viewBox="0 0 24 24">
  <path d="M.75 3.75a3 3 0 0 1 3-3h3a3 3 0 0 1 3 3v3a3 3 0 0 1-3 3h-3a3 3 0 0 1-3-3v-3Zm0 13a3 3 0 0 1 3-3h3a3 3 0 0 1 3 3v3a3 3 0 0 1-3 3h-3a3 3 0 0 1-3-3v-3Zm13-13a3 3 0 0 1 3-3h3a3 3 0 0 1 3 3v3a3 3 0 0 1-3 3h-3a3 3 0 0 1-3-3v-3Zm0 13a3 3 0 0 1 3-3h3a3 3 0 0 1 3 3v3a3 3 0 0 1-3 3h-3a3 3 0 0 1-3-3v-3Z"/>
  <path fill-rule="evenodd" d="M0 3.75A3.75 3.75 0 0 1 3.75 0h3a3.75 3.75 0 0 1 3.75 3.75v3a3.75 3.75 0 0 1-3.75 3.75h-3A3.75 3.75 0 0 1 0 6.75v-3ZM3.75 1.5A2.25 2.25 0 0 0 1.5 3.75v3A2.25 2.25 0 0 0 3.75 9h3A2.25 2.25 0 0 0 9 6.75v-3A2.25 2.25 0 0 0 6.75 1.5h-3ZM13 3.75A3.75 3.75 0 0 1 16.75 0h3a3.75 3.75 0 0 1 3.75 3.75v3a3.75 3.75 0 0 1-3.75 3.75h-3A3.75 3.75 0 0 1 13 6.75v-3Zm3.75-2.25a2.25 2.25 0 0 0-2.25 2.25v3A2.25 2.25 0 0 0 16.75 9h3A2.25 2.25 0 0 0 22 6.75v-3a2.25 2.25 0 0 0-2.25-2.25h-3ZM0 16.75A3.75 3.75 0 0 1 3.75 13h3a3.75 3.75 0 0 1 3.75 3.75v3a3.75 3.75 0 0 1-3.75 3.75h-3A3.75 3.75 0 0 1 0 19.75v-3Zm3.75-2.25a2.25 2.25 0 0 0-2.25 2.25v3A2.25 2.25 0 0 0 3.75 22h3A2.25 2.25 0 0 0 9 19.75v-3a2.25 2.25 0 0 0-2.25-2.25h-3ZM13 16.75A3.75 3.75 0 0 1 16.75 13h3a3.75 3.75 0 0 1 3.75 3.75v3a3.75 3.75 0 0 1-3.75 3.75h-3A3.75 3.75 0 0 1 13 19.75v-3Zm3.75-2.25a2.25 2.25 0 0 0-2.25 2.25v3A2.25 2.25 0 0 0 16.75 22h3A2.25 2.25 0 0 0 22 19.75v-3a2.25 2.25 0 0 0-2.25-2.25h-3Z" clip-rule="evenodd"/>
</svg>
