<svg xmlns="http://www.w3.org/2000/svg" width="24" height="24" fill="currentColor" viewBox="0 0 24 24">
  <path d="M7.91 3.818a.818.818 0 0 1-.82.818H5.456a.818.818 0 0 0-.819.819V7.09A.818.818 0 1 1 3 7.09V5.455A2.454 2.454 0 0 1 5.455 3H7.09c.452 0 .818.366.818.818Zm-3.274 6.546v3.272a.818.818 0 1 1-1.636 0v-3.272a.818.818 0 1 1 1.636 0Zm3.273 9.818a.818.818 0 0 1-.818.818H5.455A2.454 2.454 0 0 1 3 18.546v-1.637a.818.818 0 1 1 1.636 0v1.637a.82.82 0 0 0 .819.818H7.09c.452 0 .818.366.818.818Zm6.545 0a.818.818 0 0 1-.818.818h-3.272a.818.818 0 1 1 0-1.636h3.272c.452 0 .819.366.819.818ZM21 16.909v1.637A2.454 2.454 0 0 1 18.546 21h-1.637a.818.818 0 1 1 0-1.636h1.637a.818.818 0 0 0 .818-.819V16.91a.818.818 0 1 1 1.636 0Zm0-6.545v3.272a.818.818 0 1 1-1.636 0v-3.272a.818.818 0 1 1 1.636 0Zm0-4.91v1.637a.818.818 0 1 1-1.636 0V5.455a.818.818 0 0 0-.819-.819H16.91a.818.818 0 1 1 0-1.636h1.637A2.454 2.454 0 0 1 21 5.455Zm-6.546-1.636a.818.818 0 0 1-.818.818h-3.272a.818.818 0 1 1 0-1.636h3.272c.452 0 .819.366.819.818Z"/>
</svg>
