<svg width="91" height="30" viewBox="0 0 91 30" fill="none" xmlns="http://www.w3.org/2000/svg">
<g clip-path="url(#clip0_6321_65489)">
<path d="M87.2631 18.2238L89.7598 19.8583C88.9494 21.0304 87.0112 23.0412 83.6604 23.0412C79.4993 23.0412 76.4004 19.8798 76.4004 15.858C76.4004 11.5782 79.5322 8.6748 83.31 8.6748C87.1098 8.6748 88.9713 11.6427 89.5736 13.245L89.9021 14.0622L80.1125 18.0409C80.8572 19.4819 82.0179 20.2131 83.6604 20.2131C85.303 20.2131 86.4418 19.4174 87.2631 18.2238ZM79.5869 15.6322L86.1243 12.9654C85.7629 12.0729 84.6898 11.4384 83.4086 11.4384C81.777 11.4384 79.5103 12.8578 79.5869 15.6322Z" fill="#FF302F"/>
<path d="M71.6816 1.35156H74.8353V22.3851H71.6816V1.35156Z" fill="#20B15A"/>
<path d="M66.7085 9.23399H69.7527V22.0089C69.7527 27.3103 66.5662 29.4932 62.7993 29.4932C59.2514 29.4932 57.1161 27.149 56.3167 25.2457L59.109 24.1058C59.6127 25.2779 60.8282 26.6651 62.7993 26.6651C65.2193 26.6651 66.7085 25.1919 66.7085 22.4391V21.4067H66.599C65.8763 22.267 64.4966 23.0413 62.7445 23.0413C59.0871 23.0413 55.7363 19.912 55.7363 15.8795C55.7363 11.8255 59.0871 8.66406 62.7445 8.66406C64.4856 8.66406 65.8763 9.42755 66.599 10.2663H66.7085V9.23399ZM66.9275 15.8795C66.9275 13.3418 65.2083 11.4922 63.0183 11.4922C60.8063 11.4922 58.9448 13.3418 58.9448 15.8795C58.9448 18.3851 60.8063 20.2024 63.0183 20.2024C65.2083 20.2131 66.9275 18.3851 66.9275 15.8795Z" fill="#3686F7"/>
<path d="M38.4245 15.8258C38.4245 19.9658 35.1394 23.009 31.1097 23.009C27.08 23.009 23.7949 19.9551 23.7949 15.8258C23.7949 11.6643 27.08 8.63184 31.1097 8.63184C35.1394 8.63184 38.4245 11.6643 38.4245 15.8258ZM35.227 15.8258C35.227 13.245 33.3217 11.4707 31.1097 11.4707C28.8978 11.4707 26.9924 13.245 26.9924 15.8258C26.9924 18.3851 28.8978 20.1809 31.1097 20.1809C33.3217 20.1809 35.227 18.3851 35.227 15.8258Z" fill="#FF302F"/>
<path d="M54.4011 15.858C54.4011 19.9981 51.116 23.0412 47.0863 23.0412C43.0566 23.0412 39.7715 19.9981 39.7715 15.858C39.7715 11.6965 43.0566 8.6748 47.0863 8.6748C51.116 8.6748 54.4011 11.6857 54.4011 15.858ZM51.1927 15.858C51.1927 13.2772 49.2873 11.5029 47.0753 11.5029C44.8634 11.5029 42.958 13.2772 42.958 15.858C42.958 18.4173 44.8634 20.2131 47.0753 20.2131C49.2982 20.2131 51.1927 18.4066 51.1927 15.858Z" fill="#FFBA40"/>
<path d="M11.7717 19.8901C7.18356 19.8901 3.59186 16.2555 3.59186 11.7499C3.59186 7.24424 7.18356 3.60962 11.7717 3.60962C14.2465 3.60962 16.0533 4.56666 17.3893 5.79254L19.5903 3.63112C17.7287 1.87833 15.243 0.544922 11.7717 0.544922C5.48627 0.544922 0.197266 5.57748 0.197266 11.7499C0.197266 17.9223 5.48627 22.9548 11.7717 22.9548C15.1663 22.9548 17.7287 21.858 19.7326 19.8149C21.7913 17.7932 22.4264 14.9544 22.4264 12.6532C22.4264 11.9327 22.3388 11.1907 22.2402 10.6423H11.7717V13.6317H19.2289C19.0099 15.5028 18.4076 16.7824 17.5207 17.6535C16.4475 18.718 14.7502 19.8901 11.7717 19.8901Z" fill="#3686F7"/>
</g>
<defs>
<clipPath id="clip0_6321_65489">
<rect width="90" height="29" fill="white" transform="translate(0.0664062 0.5)"/>
</clipPath>
</defs>
</svg>
