<svg width="24" height="24" viewBox="0 0 24 24" fill="none" xmlns="http://www.w3.org/2000/svg">
<g clip-path="url(#clip0_17691_205180)">
<circle cx="12" cy="12" r="12" fill="#809EC9"/>
<path fill-rule="evenodd" clip-rule="evenodd" d="M4 6V18H19.4286V6H4ZM18.9143 17.5H4.51429V8.5H18.9143V17.5ZM11.7143 16.5C13.702 16.5 15.3143 14.9325 15.3143 13C15.3143 11.0675 13.702 9.5 11.7143 9.5V13H8.11426C8.11426 14.9325 9.72629 16.5 11.7143 16.5ZM11.7143 13.5H12.2285V10.0415C13.686 10.2803 14.8 11.5163 14.8 13C14.8 14.6543 13.4158 16 11.7143 16C10.1879 16 8.9168 14.917 8.67149 13.5H11.7143ZM9.17142 10.528C9.72017 9.99445 10.4318 9.64788 11.1998 9.54004V12.5H8.15527C8.2662 11.7533 8.62266 11.0615 9.17142 10.528Z" fill="white"/>
</g>
<defs>
<clipPath id="clip0_17691_205180">
<rect width="24" height="24" fill="white"/>
</clipPath>
</defs>
</svg>
