<svg width="126" height="26" viewBox="0 0 126 26" fill="none" xmlns="http://www.w3.org/2000/svg">
<g clip-path="url(#clip0_6321_65476)">
<path d="M11.0179 5.17848C9.55833 5.17848 9.13635 5.82582 9.13635 7.25359V9.62213H13.0295L12.6392 13.4487H9.13786V25.0615H4.46582V13.4487H1.31836V9.62213H4.46582V7.31863C4.46582 3.4588 6.02216 1.41998 10.3645 1.41998C11.2744 1.41785 12.1836 1.4719 13.0869 1.58182V5.18302L11.0179 5.17848ZM13.3531 16.8548C13.3531 12.5412 15.3965 9.29241 19.6783 9.29241C22.0136 9.29241 23.4398 10.4933 24.122 11.9846V9.62213H28.5974V25.0615H24.122V22.7262C23.4731 24.219 22.0136 25.3866 19.6783 25.3866C15.3965 25.3866 13.3531 22.1424 13.3531 17.8243V16.8548ZM18.0237 17.8939C18.0237 20.1958 18.8661 21.7204 21.0395 21.7204C22.9543 21.7204 23.9269 20.3259 23.9269 18.1207V16.5704C23.9269 14.3652 22.9543 12.9707 21.0395 12.9707C18.8661 12.9707 18.0237 14.4953 18.0237 16.7973V17.8939ZM38.3287 9.29695C40.1436 9.29695 41.8633 9.68717 42.8041 10.3345L41.7665 13.6438C40.7933 13.1804 39.7302 12.9367 38.6523 12.9299C36.122 12.9299 35.0224 14.3894 35.0224 16.8881V17.7955C35.0224 20.2941 36.125 21.7537 38.6523 21.7537C39.7302 21.7469 40.7933 21.5032 41.7665 21.0398L42.8041 24.3476C41.8633 24.9964 40.1451 25.3866 38.3287 25.3866C32.8459 25.3866 30.3488 22.4343 30.3488 17.6987V16.9849C30.3488 12.2493 32.8459 9.29695 38.3287 9.29695ZM43.4196 17.9317V16.5704C43.4196 12.1918 45.9167 9.31056 51.0108 9.31056C55.8114 9.31056 57.9198 12.2296 57.9198 16.5114V18.9768H48.0887C48.187 21.0852 49.1277 22.0259 51.7186 22.0259C53.4716 22.0259 55.3198 21.669 56.6826 21.0852L57.5371 24.2841C56.3044 24.9344 53.7741 25.4199 51.5371 25.4199C45.6248 25.4184 43.4196 22.4691 43.4196 17.9317ZM48.0902 15.9201H53.7347V15.5314C53.7347 13.845 53.0541 12.5064 51.0123 12.5064C48.9024 12.5079 48.0902 13.8389 48.0902 15.914V15.9201ZM75.2331 17.8288C75.2331 22.1424 73.158 25.3912 68.8807 25.3912C66.5454 25.3912 64.924 24.2236 64.2752 22.7307V25.066H59.8648V1.86919L64.5353 1.44569V11.7608C65.216 10.3995 66.7088 9.29543 68.8822 9.29543C73.164 9.29543 75.2346 12.5397 75.2346 16.8578L75.2331 17.8288ZM70.5626 16.758C70.5626 14.5846 69.7201 12.9632 67.4816 12.9632C65.5668 12.9632 64.5293 14.3244 64.5293 16.5311V18.1525C64.5293 20.3577 65.5668 21.7204 67.4816 21.7204C69.7201 21.7204 70.5626 20.099 70.5626 17.9256V16.758ZM76.7955 17.7305V16.9531C76.7955 12.5079 79.3258 9.29695 84.4834 9.29695C89.6409 9.29695 92.1728 12.5079 92.1728 16.9531V17.7305C92.1728 22.1742 89.6424 25.3866 84.4849 25.3866C79.3274 25.3866 76.7955 22.1742 76.7955 17.7305ZM87.5008 16.6279C87.5008 14.5846 86.6568 12.9632 84.4758 12.9632C82.2948 12.9632 81.4584 14.5846 81.4584 16.6279V18.0557C81.4584 20.099 82.3024 21.7204 84.4758 21.7204C86.6492 21.7204 87.5008 20.099 87.5008 18.0557V16.6279ZM93.7261 17.7305V16.9531C93.7261 12.5079 96.2565 9.29695 101.414 9.29695C106.572 9.29695 109.102 12.5079 109.102 16.9531V17.7305C109.102 22.1742 106.572 25.3866 101.414 25.3866C96.2565 25.3866 93.7261 22.1742 93.7261 17.7305ZM104.431 16.6279C104.431 14.5846 103.587 12.9632 101.414 12.9632C99.2406 12.9632 98.3982 14.5846 98.3982 16.6279V18.0557C98.3982 20.099 99.2406 21.7204 101.414 21.7204C103.587 21.7204 104.431 20.099 104.431 18.0557V16.6279ZM115.524 16.9849L120.129 9.62213H125.092L120.26 17.245L125.287 25.0615H120.325L115.524 17.4991V25.0615H110.852V1.86919L115.524 1.44569V16.9849Z" fill="#1877F2"/>
</g>
<defs>
<clipPath id="clip0_6321_65476">
<rect width="125" height="25" fill="white" transform="translate(0.361328 0.5)"/>
</clipPath>
</defs>
</svg>
