<svg width="108" height="26" viewBox="0 0 108 26" fill="none" xmlns="http://www.w3.org/2000/svg">
<g clip-path="url(#clip0_6321_65478)">
<path d="M33.7757 4.36434C33.3768 2.84437 32.2255 1.65705 30.7516 1.24575C28.1001 0.5 17.4282 0.5 17.4282 0.5C17.4282 0.5 6.75638 0.522598 4.10486 1.26835C2.63097 1.67964 1.47963 2.86697 1.0808 4.38693C0.278771 9.2456 -0.0324 16.6489 1.10272 21.3132C1.50155 22.8331 2.65288 24.0205 4.12677 24.4318C6.7783 25.1775 17.4501 25.1775 17.4501 25.1775C17.4501 25.1775 28.122 25.1775 30.7735 24.4318C32.2474 24.0205 33.3987 22.8331 33.7976 21.3132C34.6434 16.4477 34.9042 9.049 33.7757 4.36434Z" fill="#FF0000"/>
<path d="M14.0312 18.1269L22.8843 12.8388L14.0312 7.55078V18.1269Z" fill="white"/>
<path d="M103.022 7.66366C104.183 7.66366 105.06 7.88964 105.673 8.31901C106.287 8.74838 106.725 9.42634 106.988 10.3529C107.251 11.2794 107.361 12.5449 107.361 14.172V16.816H101.729V17.6296L101.816 19.8668C101.882 20.364 101.992 20.7256 102.167 20.9515C102.342 21.1775 102.627 21.2905 103 21.2905C103.504 21.2905 103.854 21.0871 104.03 20.6804C104.227 20.2736 104.315 19.5956 104.337 18.6691L107.251 18.8499C107.273 18.9855 107.273 19.1663 107.273 19.3923C107.273 20.816 106.9 21.8781 106.133 22.5786C105.366 23.2792 104.315 23.6408 102.934 23.6408C101.269 23.6408 100.107 23.0984 99.4498 22.0363C98.7924 20.9741 98.4418 19.3019 98.4418 17.0646V14.3302C98.5163 10.4885 99.1715 7.67496 103.022 7.66366ZM62.5038 7.95744V19.2793C62.5038 19.9572 62.5695 20.4544 62.7229 20.7482C63.0341 21.3764 63.8405 21.216 64.2787 20.9064C64.5318 20.73 64.7357 20.4885 64.8704 20.2058V7.95744H68.2232V23.3922H65.5936L65.3087 21.4939H65.2429C64.5198 22.9176 63.446 23.6408 62.0217 23.6408C59.8293 23.635 59.2931 22.0063 59.1654 20.352L59.157 20.2353C59.1403 19.9822 59.1325 19.7294 59.1291 19.4827V7.95744H62.5038ZM79.7935 7.95744V19.2793C79.7935 19.9572 79.8592 20.4544 80.0126 20.7482C80.3238 21.3764 81.1302 21.216 81.5685 20.9064C81.8215 20.73 82.0254 20.4885 82.1601 20.2058V7.95744H85.5129V23.3922H82.8833L82.5984 21.4939H82.5326C81.8095 22.9176 80.7357 23.6408 79.3114 23.6408C77.119 23.635 76.5828 22.0063 76.4551 20.352L76.4467 20.2353C76.43 19.9822 76.4222 19.7294 76.4188 19.4827V7.95744H79.7935ZM52.7742 7.66366C53.8699 7.66366 54.7683 7.88964 55.4257 8.36421C56.0831 8.83878 56.5871 9.56193 56.8939 10.5563C57.2007 11.5506 57.3541 12.8839 57.3541 14.5336V16.7708C57.3541 18.4205 57.2007 19.7312 56.8939 20.7256C56.5871 21.7199 56.105 22.443 55.4257 22.9176C54.7464 23.3696 53.826 23.6182 52.6865 23.6182C51.5032 23.6408 50.5828 23.3922 49.9035 22.9402C49.2242 22.4656 48.7421 21.7425 48.4572 20.7482C48.1724 19.7538 48.0409 18.4431 48.0409 16.7934V14.5562C48.0409 12.9065 48.1943 11.5506 48.523 10.5563C48.8517 9.53933 49.3557 8.81618 50.0569 8.36421C50.7581 7.91224 51.6566 7.66366 52.7742 7.66366ZM90.7721 1.47168V9.60712H90.794C91.1008 9.01956 91.4952 8.545 92.0431 8.18342C92.5547 7.82855 93.1576 7.63966 93.7742 7.64106C94.585 7.64106 95.1986 7.86704 95.6588 8.29641C96.119 8.74838 96.4477 9.44894 96.6449 10.4207C96.836 11.362 96.9448 12.6639 96.9514 14.3058L96.9517 14.4658V16.9064C96.9517 19.1889 96.6668 20.8838 96.1409 21.9685C95.5931 23.0532 94.7603 23.5956 93.6208 23.5956C92.9854 23.5956 92.4156 23.4374 91.8897 23.1436C91.4242 22.8639 91.0388 22.4629 90.7717 21.9816L90.7283 21.9007H90.6625L90.3119 23.3696H87.5289V1.47168H90.7721ZM77.3611 2.26263V5.06483H74.0302V23.3922H70.7432V5.06483H67.3905V2.26263H77.3611ZM41.2258 2.26263L41.2277 2.27113C41.2598 2.41811 41.7029 4.44938 42.1901 6.81584L42.2286 7.00334C42.2479 7.0974 42.2673 7.19193 42.2867 7.28682L42.3255 7.47705C42.332 7.50883 42.3385 7.54064 42.345 7.57248L42.3838 7.76385C42.3903 7.7958 42.3968 7.82776 42.4033 7.85975L42.4421 8.05188L42.4986 8.33267C42.8275 9.97141 43.1416 11.615 43.3295 12.7935H43.4171C43.5973 11.7363 43.8587 10.3835 44.1375 9.0023L44.2106 8.64152C44.2473 8.46099 44.2842 8.28037 44.3212 8.10026L44.3787 7.82057C44.9152 5.21858 45.4489 2.78778 45.5482 2.33708L45.5547 2.30798C45.5612 2.2781 45.5647 2.26263 45.5647 2.26263H48.9174L45.0387 16.5223V23.3696H41.7298V16.5449H41.7079L37.873 2.26263H41.2258ZM52.7084 10.0591C52.2483 10.0591 51.9415 10.3077 51.7443 10.8274C51.547 11.3472 51.4594 12.1382 51.4594 13.2455V18.0589C51.4594 19.1889 51.547 20.025 51.7223 20.5222C51.8977 21.0193 52.2264 21.2679 52.7084 21.2679C53.1686 21.2679 53.4973 21.0193 53.6946 20.5222C53.8918 20.025 53.9794 19.1889 53.9794 18.0589V13.2455C53.9794 12.1382 53.8918 11.3246 53.6946 10.8274C53.4973 10.3077 53.1686 10.0591 52.7084 10.0591ZM91.3638 10.5111C91.0967 10.7653 90.9067 11.0791 90.7937 11.4711L90.7721 11.5506V20.3188C91.0438 20.7934 91.4295 21.1097 92.1088 21.1323C92.4594 21.1323 92.7443 20.9967 92.9634 20.7256C93.1826 20.4544 93.336 20.0024 93.4236 19.3697C93.5078 18.7622 93.5515 17.9257 93.5549 16.86L93.5551 16.7256V14.7144C93.5551 13.4941 93.5113 12.5675 93.4455 11.9122C93.3579 11.2568 93.2483 10.7822 93.0511 10.5111C92.6698 9.9461 91.8459 9.95288 91.3638 10.5111ZM102.956 9.9913C102.583 10.0139 102.32 10.1269 102.167 10.3303C101.992 10.5563 101.882 10.8952 101.816 11.3924C101.752 11.8796 101.73 13.5822 101.729 13.6502L101.729 14.7596H104.183L104.183 13.7812L104.183 13.8C104.182 14.1421 104.175 13.6014 104.16 12.9379L104.158 12.8487C104.144 12.2654 104.124 11.6152 104.095 11.3924C104.03 10.8726 103.92 10.5111 103.745 10.3077C103.57 10.1043 103.307 9.9913 102.956 9.9913Z" fill="#282828"/>
</g>
<defs>
<clipPath id="clip0_6321_65478">
<rect width="107" height="25" fill="white" transform="translate(0.361328 0.5)"/>
</clipPath>
</defs>
</svg>
