<svg width="117" height="28" viewBox="0 0 117 28" fill="none" xmlns="http://www.w3.org/2000/svg">
<g clip-path="url(#clip0_6321_65470)">
<path d="M41.0932 2.41086C39.4771 3.08788 37.7004 4.99812 37.1393 7.39773C36.4286 10.4371 39.3859 11.7225 39.6284 11.3017C39.9139 10.8063 39.0985 10.6389 38.9307 9.06183C38.7138 7.02493 39.6607 4.74893 40.8526 3.75028C41.0742 3.56474 41.0635 3.82298 41.0635 4.30064C41.0635 5.15495 41.0164 12.8228 41.0164 14.4232C41.0164 16.5886 40.9269 17.2724 40.7662 17.948C40.6034 18.6327 40.3419 19.0954 40.54 19.2737C40.7616 19.4731 41.7073 18.9989 42.2549 18.2347C42.9115 17.3182 43.1412 16.2174 43.1826 15.0221C43.2324 13.5811 43.2303 11.2946 43.2324 9.99044C43.2344 8.79429 43.2525 5.29171 43.2114 3.18609C43.2015 2.66963 41.7691 2.12777 41.0932 2.41086ZM115.633 13.7867C115.398 13.7867 115.291 14.0284 115.203 14.4352C114.896 15.8497 114.573 16.1689 114.157 16.1689C113.692 16.1689 113.274 15.4685 113.167 14.0666C113.083 12.9643 113.096 10.9347 113.204 8.91603C113.226 8.50124 113.112 8.09082 111.999 7.68666C111.52 7.51269 110.825 7.25685 110.478 8.09322C109.499 10.4561 109.116 12.3322 109.026 13.094C109.021 13.1335 108.973 13.1415 108.964 13.0494C108.907 12.4391 108.779 11.3299 108.763 8.99963C108.76 8.54496 108.663 8.15794 108.161 7.8411C107.836 7.63536 106.847 7.27186 106.491 7.70447C106.183 8.05826 105.825 9.0104 105.454 10.139C105.152 11.0562 104.942 11.6767 104.942 11.6767C104.942 11.6767 104.946 9.20165 104.95 8.2628C104.951 7.90861 104.708 7.79046 104.635 7.76919C104.306 7.6735 103.656 7.51362 103.38 7.51362C103.04 7.51362 102.956 7.7038 102.956 7.98091C102.956 8.0172 102.903 11.2396 102.903 13.4929C102.903 13.5907 102.903 13.6976 102.903 13.8111C102.715 14.8467 102.105 16.2525 101.441 16.2525C100.776 16.2525 100.463 15.6648 100.463 12.9785C100.463 11.4116 100.51 10.7301 100.533 9.59677C100.547 8.94394 100.573 8.44249 100.571 8.32886C100.566 7.97998 99.9628 7.80415 99.6821 7.73902C99.4001 7.67364 99.155 7.64812 98.9636 7.65902C98.6928 7.6743 98.5013 7.85199 98.5013 8.09641C98.5013 8.22745 98.5027 8.47652 98.5027 8.47652C98.1539 7.92828 97.5926 7.54671 97.2194 7.43613C96.2138 7.13763 95.1646 7.40224 94.3731 8.50961C93.7441 9.38957 93.3649 10.3864 93.2156 11.8183C93.1065 12.865 93.1421 13.9267 93.3361 14.8245C93.1017 15.8375 92.6667 16.2525 92.1904 16.2525C91.4989 16.2525 90.9976 15.1239 91.0558 13.1718C91.0942 11.8878 91.3511 10.9868 91.6319 9.68329C91.7517 9.12748 91.6544 8.83669 91.4104 8.55785C91.1866 8.30201 90.7098 8.1715 90.0242 8.33218C89.5359 8.44661 88.8376 8.56995 88.199 8.66458C88.199 8.66458 88.2375 8.51081 88.2692 8.23968C88.4353 6.81786 86.8903 6.93322 86.3973 7.38736C86.1031 7.65848 85.9028 7.97825 85.8268 8.5532C85.7062 9.46546 86.4502 9.89594 86.4502 9.89594C86.2061 11.0137 85.6076 12.4735 84.9899 13.529C84.6589 14.0945 84.4056 14.5136 84.0789 14.9591C84.0777 14.7935 84.0768 14.6279 84.0763 14.4623C84.0687 12.1127 84.1001 10.2634 84.1138 9.59691C84.1273 8.94408 84.1535 8.45605 84.1519 8.34241C84.1483 8.08724 83.9993 7.99075 83.6894 7.86887C83.4154 7.76095 83.0913 7.68626 82.7552 7.66021C82.3311 7.62725 82.0754 7.85213 82.0822 8.1182C82.0835 8.16844 82.0835 8.47691 82.0835 8.47691C81.7346 7.92868 81.1734 7.54711 80.8002 7.43653C79.7946 7.13803 78.7453 7.40264 77.9539 8.51001C77.325 9.38997 76.9131 10.6248 76.7964 11.8076C76.6877 12.9101 76.7078 13.8469 76.8559 14.6361C76.6961 15.4264 76.2363 16.2528 75.7166 16.2528C75.052 16.2528 74.6739 15.6651 74.6739 12.9788C74.6739 11.4119 74.721 10.7305 74.744 9.59704C74.7575 8.94421 74.7834 8.44276 74.7818 8.32912C74.7769 7.98025 74.1737 7.80441 73.893 7.73929C73.5992 7.67124 73.3457 7.64639 73.151 7.66074C72.8939 7.67988 72.7134 7.90981 72.7134 8.08139V8.47691C72.3646 7.92868 71.8033 7.54711 71.4301 7.43653C70.4245 7.13803 69.3811 7.4069 68.5838 8.51001C68.0639 9.22929 67.643 10.0267 67.4263 11.792C67.3637 12.3021 67.3361 12.7798 67.3397 13.2263C67.1323 14.4942 66.2168 15.9555 65.4676 15.9555C65.0293 15.9555 64.6118 15.1054 64.6118 13.2935C64.6118 10.88 64.7613 7.44371 64.7864 7.11251C64.7864 7.11251 65.7329 7.09643 65.9161 7.0943C66.3883 7.08912 66.8159 7.10028 67.4445 7.06812C67.7599 7.05204 68.0637 5.92022 67.7383 5.78014C67.5909 5.71674 66.5481 5.66119 66.1349 5.65241C65.7873 5.64457 64.8197 5.57294 64.8197 5.57294C64.8197 5.57294 64.9065 3.29202 64.9268 3.05106C64.9439 2.85011 64.6841 2.74684 64.5351 2.68398C64.1727 2.53087 63.8487 2.45738 63.4644 2.37816C62.9336 2.26865 62.6927 2.37577 62.6457 2.82393C62.5749 3.50374 62.5382 5.49545 62.5382 5.49545C62.1485 5.49545 60.818 5.4193 60.4283 5.4193C60.0662 5.4193 59.6756 6.97628 60.1761 6.99542C60.752 7.01775 61.7555 7.03702 62.4209 7.05709C62.4209 7.05709 62.3912 10.5501 62.3912 11.6285C62.3912 11.7432 62.3916 11.8536 62.3924 11.9609C62.0263 13.8694 60.7364 14.9004 60.7364 14.9004C61.0134 13.6378 60.4476 12.6896 59.4286 11.887C59.053 11.5911 58.312 11.0314 57.4826 10.4177C57.4826 10.4177 57.963 9.94432 58.3889 8.99179C58.6907 8.31716 58.7038 7.54512 57.9628 7.37487C56.7389 7.0935 55.7295 7.99234 55.4285 8.95205C55.1952 9.69565 55.3196 10.2472 55.7765 10.8204C55.8099 10.8623 55.846 10.905 55.8834 10.948C55.6071 11.4806 55.2275 12.1976 54.906 12.7537C54.0135 14.2975 53.3396 15.5186 52.83 15.5186C52.4228 15.5186 52.4284 14.2789 52.4284 13.1181C52.4284 12.1175 52.5023 10.613 52.5613 9.05532C52.5808 8.54018 52.3231 8.24672 51.8913 7.98091C51.629 7.81943 51.069 7.50192 50.7449 7.50192C50.2595 7.50192 48.8591 7.56798 47.5359 11.3955C47.3691 11.878 47.0415 12.757 47.0415 12.757L47.0697 8.15422C47.0697 8.0463 47.0121 7.94184 46.8805 7.87047C46.6575 7.74952 46.062 7.50192 45.5325 7.50192C45.2802 7.50192 45.1542 7.61928 45.1542 7.85319L45.108 15.0544C45.108 15.6016 45.1222 16.2399 45.1764 16.519C45.2302 16.7986 45.3176 17.0259 45.4258 17.1612C45.5337 17.2962 45.6586 17.3992 45.8646 17.4418C46.0563 17.4812 47.1058 17.616 47.1604 17.2149C47.2258 16.7342 47.2282 16.2143 47.7794 14.2752C48.6374 11.2562 49.7561 9.78324 50.2821 9.26012C50.3739 9.16868 50.4789 9.16324 50.4739 9.31289C50.4516 9.97462 50.3726 11.6286 50.3193 13.0337C50.1768 16.7938 50.8609 17.4908 51.8384 17.4908C52.5863 17.4908 53.6405 16.7476 54.7706 14.8667C55.475 13.6945 56.159 12.5451 56.6507 11.7167C56.9931 12.0339 57.3774 12.375 57.7616 12.7396C58.6542 13.5867 58.9473 14.3917 58.7528 15.1554C58.6041 15.7392 58.044 16.3409 57.0472 15.7561C56.7567 15.5856 56.6326 15.4538 56.3406 15.2613C56.1836 15.1581 55.9441 15.1271 55.8005 15.2354C55.4271 15.5168 55.2137 15.8748 55.0918 16.3179C54.9733 16.7491 55.4051 16.977 55.8527 17.1763C56.2381 17.3479 57.0665 17.5034 57.5948 17.5211C59.6531 17.59 61.3022 16.5272 62.45 13.7859C62.6556 16.1534 63.53 17.4931 65.0495 17.4931C66.0653 17.4931 67.0837 16.1801 67.5291 14.8884C67.6569 15.415 67.8462 15.8727 68.0906 16.26C69.2614 18.1149 71.5326 17.7157 72.6734 16.1406C73.026 15.6539 73.0799 15.4789 73.0799 15.4789C73.2463 16.9662 74.444 17.486 75.1298 17.486C75.8978 17.486 76.6909 17.1229 77.2467 15.8716C77.3104 16.0051 77.3818 16.1349 77.4605 16.2601C78.6313 18.1151 80.9025 17.7158 82.0434 16.1408C82.0971 16.0667 82.1438 15.9997 82.1845 15.9395L82.218 16.9167L81.1678 17.88C79.4072 19.4936 78.0696 20.7175 77.9713 22.1427C77.8462 23.9601 79.3192 24.6355 80.4352 24.724C81.6183 24.818 82.6333 24.1638 83.2564 23.2483C83.8046 22.4426 84.1633 20.7083 84.1372 18.9953C84.1267 18.3094 84.1094 17.4372 84.0957 16.5024C84.7137 15.7847 85.4101 14.8775 86.0511 13.8158C86.7499 12.6586 87.4987 11.1048 87.882 9.89554C87.882 9.89554 88.5326 9.90113 89.2269 9.85567C89.449 9.84119 89.5126 9.88637 89.4717 10.0493C89.4221 10.2459 88.5945 13.4381 89.3498 15.5646C89.8668 17.0203 91.0323 17.4887 91.7232 17.4887C92.5321 17.4887 93.3058 16.8778 93.7204 15.9708C93.7704 16.0719 93.8228 16.1697 93.8796 16.2601C95.0504 18.1151 97.3136 17.7136 98.4625 16.1408C98.7216 15.7859 98.8689 15.479 98.8689 15.479C99.1154 17.0183 100.313 17.4939 100.998 17.4939C101.712 17.4939 102.39 17.2011 102.94 15.8998C102.963 16.4729 102.999 16.9412 103.056 17.0889C103.091 17.1793 103.294 17.2926 103.442 17.3474C104.095 17.5896 104.762 17.4751 105.008 17.4253C105.179 17.3907 105.312 17.2537 105.33 16.8999C105.378 15.9709 105.349 14.4101 105.63 13.2499C106.103 11.3031 106.544 10.5478 106.753 10.1741C106.87 9.96465 107.002 9.9301 107.007 10.1518C107.017 10.6003 107.039 11.9176 107.223 13.6873C107.357 14.9889 107.537 15.7583 107.675 16.0017C108.069 16.6979 108.555 16.7309 108.952 16.7309C109.204 16.7309 109.731 16.6613 109.684 16.2182C109.661 16.0023 109.701 14.6675 110.167 12.7495C110.472 11.497 110.979 10.3655 111.162 9.95163C111.23 9.79905 111.261 9.91933 111.26 9.94272C111.221 10.8053 111.135 13.6266 111.486 15.1696C111.963 17.2601 113.34 17.4939 113.821 17.4939C114.846 17.4939 115.684 16.7141 115.966 14.6623C116.035 14.168 115.934 13.7867 115.633 13.7867ZM72.6924 12.5183C72.6337 13.6041 72.4218 14.5119 72.0819 15.1712C71.4668 16.3646 70.2498 16.7429 69.7132 15.0186C69.3263 13.7753 69.4581 12.0798 69.619 11.1641C69.8578 9.8049 70.4559 8.84134 71.3896 8.93265C72.3486 9.02648 72.8148 10.2589 72.6924 12.5183ZM82.0624 12.534C82.0076 13.5593 81.7418 14.5894 81.4518 15.1713C80.8532 16.3729 79.6018 16.7485 79.0832 15.0188C78.7286 13.8368 78.8135 12.3072 78.9889 11.3435C79.2166 10.0929 79.7684 8.93278 80.7595 8.93278C81.7231 8.93265 82.1982 9.98977 82.0624 12.534ZM82.3069 19.5294C82.2939 21.3999 81.9996 23.04 81.3683 23.5163C80.473 24.1917 79.2695 23.6851 79.5187 22.3202C79.7392 21.1123 80.782 19.8788 82.3096 18.3717C82.3094 18.3717 82.3126 18.7154 82.3069 19.5294ZM98.4817 12.5449C98.4296 13.6706 98.1804 14.5505 97.8712 15.1712C97.2724 16.3728 96.0299 16.7459 95.5025 15.0186C95.2151 14.0771 95.2016 12.5046 95.4083 11.1907C95.6187 9.85235 96.2061 8.84134 97.1789 8.93265C98.1383 9.02262 98.5874 10.2589 98.4817 12.5449Z" fill="#6D6E70"/>
<g clip-path="url(#clip1_6321_65470)">
<path d="M7.7291 27.9009C6.64608 27.8888 5.57325 27.6902 4.55769 27.3137C3.81609 27.0396 3.14512 26.6032 2.59385 26.0364C2.02555 25.4863 1.58851 24.8151 1.31518 24.0729C0.939034 23.0573 0.740682 21.9846 0.728828 20.9017C0.645651 19.1015 0.628906 18.5615 0.628906 14C0.628906 9.43847 0.647298 8.90043 0.728004 7.09882C0.741297 6.01637 0.939893 4.94419 1.31518 3.92878C1.58984 3.18706 2.02626 2.51582 2.59275 1.96384C3.14334 1.39606 3.81462 0.959418 4.55687 0.686275C5.57242 0.309816 6.64526 0.111184 7.72828 0.099098C9.52906 0.0167451 10.0698 0 14.6289 0C19.188 0 19.7285 0.0183922 21.5301 0.099098C22.6128 0.112297 23.6853 0.310895 24.7009 0.686275C25.4429 0.959778 26.114 1.39626 26.6648 1.96357C27.2323 2.51458 27.6689 3.18585 27.9426 3.92796C28.3192 4.9435 28.5179 6.01634 28.5301 7.09937C28.6124 8.90098 28.6292 9.44039 28.6292 14.0005C28.6292 18.5607 28.6124 19.1001 28.5301 20.9017C28.517 21.9846 28.3183 23.0572 27.9426 24.0729C27.6585 24.8094 27.2232 25.4783 26.6649 26.0365C26.1066 26.5947 25.4376 27.0297 24.7009 27.3137C23.6854 27.6903 22.6126 27.889 21.5295 27.9012C19.7296 27.9835 19.1885 28.0003 14.6284 28.0003C10.0682 28.0003 9.52879 27.9844 7.72883 27.9012" fill="url(#paint0_radial_6321_65470)"/>
<path d="M7.7291 27.9009C6.64608 27.8888 5.57325 27.6902 4.55769 27.3137C3.81609 27.0396 3.14512 26.6032 2.59385 26.0364C2.02555 25.4863 1.58851 24.8151 1.31518 24.0729C0.939034 23.0573 0.740682 21.9846 0.728828 20.9017C0.645651 19.1015 0.628906 18.5615 0.628906 14C0.628906 9.43847 0.647298 8.90043 0.728004 7.09882C0.741297 6.01637 0.939893 4.94419 1.31518 3.92878C1.58984 3.18706 2.02626 2.51582 2.59275 1.96384C3.14334 1.39606 3.81462 0.959418 4.55687 0.686275C5.57242 0.309816 6.64526 0.111184 7.72828 0.099098C9.52906 0.0167451 10.0698 0 14.6289 0C19.188 0 19.7285 0.0183922 21.5301 0.099098C22.6128 0.112297 23.6853 0.310895 24.7009 0.686275C25.4429 0.959778 26.114 1.39626 26.6648 1.96357C27.2323 2.51458 27.6689 3.18585 27.9426 3.92796C28.3192 4.9435 28.5179 6.01634 28.5301 7.09937C28.6124 8.90098 28.6292 9.44039 28.6292 14.0005C28.6292 18.5607 28.6124 19.1001 28.5301 20.9017C28.517 21.9846 28.3183 23.0572 27.9426 24.0729C27.6585 24.8094 27.2232 25.4783 26.6649 26.0365C26.1066 26.5947 25.4376 27.0297 24.7009 27.3137C23.6854 27.6903 22.6126 27.889 21.5295 27.9012C19.7296 27.9835 19.1885 28.0003 14.6284 28.0003C10.0682 28.0003 9.52879 27.9844 7.72883 27.9012" fill="url(#paint1_radial_6321_65470)"/>
<path d="M11.1911 14.0597C11.1911 13.3739 11.3945 12.7035 11.7756 12.1333C12.1567 11.5631 12.6982 11.1188 13.3318 10.8564C13.9654 10.594 14.6626 10.5254 15.3352 10.6593C16.0078 10.7932 16.6256 11.1235 17.1105 11.6084C17.5953 12.0934 17.9255 12.7113 18.0592 13.3839C18.1929 14.0565 18.1241 14.7537 17.8616 15.3873C17.5991 16.0208 17.1546 16.5623 16.5843 16.9432C16.0141 17.3241 15.3436 17.5274 14.6579 17.5273C13.7383 17.5271 12.8565 17.1617 12.2063 16.5114C11.5562 15.8611 11.191 14.9792 11.1911 14.0597ZM9.31645 14.0597C9.31645 15.1161 9.62972 16.1488 10.2166 17.0272C10.8036 17.9056 11.6378 18.5902 12.6138 18.9945C13.5898 19.3988 14.6638 19.5045 15.6999 19.2984C16.736 19.0923 17.6878 18.5836 18.4348 17.8366C19.1818 17.0896 19.6905 16.1378 19.8966 15.1017C20.1027 14.0656 19.997 12.9916 19.5927 12.0156C19.1884 11.0396 18.5038 10.2053 17.6254 9.61843C16.747 9.03151 15.7143 8.71824 14.6579 8.71824C13.9564 8.7182 13.2618 8.85634 12.6137 9.12476C11.9657 9.39318 11.3768 9.78662 10.8808 10.2826C10.3848 10.7786 9.99139 11.3675 9.72297 12.0155C9.45455 12.6636 9.31641 13.3582 9.31645 14.0597ZM18.9624 8.50659C18.9623 8.75346 19.0354 8.99482 19.1725 9.20015C19.3096 9.40547 19.5044 9.56554 19.7325 9.66011C19.9605 9.75469 20.2115 9.77952 20.4536 9.73146C20.6958 9.68341 20.9182 9.56462 21.0929 9.39014C21.2675 9.21565 21.3865 8.9933 21.4347 8.75119C21.483 8.50909 21.4584 8.25811 21.364 8.02999C21.2697 7.80187 21.1098 7.60686 20.9046 7.46961C20.6994 7.33237 20.4581 7.25906 20.2112 7.25895C19.8803 7.25909 19.563 7.39057 19.3289 7.6245C19.0949 7.85844 18.9633 8.17569 18.963 8.50659H18.9624ZM10.4559 22.5269C9.79632 22.5197 9.14287 22.3989 8.52421 22.17C8.07554 21.9971 7.66806 21.7321 7.32798 21.3922C6.98791 21.0523 6.72278 20.6449 6.54966 20.1963C6.32066 19.5777 6.19994 18.9242 6.1928 18.2646C6.14229 17.1682 6.13241 16.8388 6.13241 14.061C6.13241 11.2833 6.14339 10.9547 6.1928 9.85718C6.2008 9.19764 6.32149 8.54432 6.54966 7.92545C6.72258 7.47665 6.98763 7.06906 7.32773 6.72897C7.66782 6.38888 8.0754 6.12383 8.52421 5.95091C9.14285 5.72191 9.79631 5.60119 10.4559 5.59405C11.5523 5.54354 11.8817 5.53365 14.6584 5.53365C17.4351 5.53365 17.7648 5.54436 18.8622 5.59432C19.5218 5.60233 20.1751 5.72301 20.794 5.95118C21.2428 6.12412 21.6504 6.38917 21.9904 6.72926C22.3305 7.06936 22.5956 7.47693 22.7685 7.92573C22.9975 8.54437 23.1182 9.19784 23.1254 9.85746C23.1759 10.9555 23.1858 11.2833 23.1858 14.0613C23.1858 16.8393 23.1756 17.1677 23.1254 18.2651C23.1177 18.9247 22.997 19.5781 22.7685 20.1969C22.5954 20.6455 22.3303 21.0528 21.9902 21.3928C21.6501 21.7327 21.2426 21.9977 20.794 22.1706C20.1753 22.3996 19.5219 22.5203 18.8622 22.5275C17.7659 22.578 17.4364 22.5879 14.6584 22.5879C11.8804 22.5879 11.5521 22.5777 10.4559 22.5275V22.5269ZM10.3697 3.72107C9.50664 3.73804 8.65267 3.9014 7.84425 4.2042C7.15317 4.4714 6.52556 4.88006 6.00164 5.40398C5.47772 5.9279 5.06905 6.55552 4.80185 7.24659C4.49909 8.05503 4.33574 8.90899 4.31872 9.77209C4.26739 10.8811 4.25586 11.2358 4.25586 14.0607C4.25586 16.8857 4.26766 17.2401 4.31872 18.3494C4.33573 19.2125 4.49909 20.0665 4.80185 20.8749C5.06907 21.566 5.47774 22.1936 6.00165 22.7175C6.52557 23.2414 7.15318 23.6501 7.84425 23.9173C8.65271 24.22 9.50665 24.3833 10.3697 24.4004C11.4793 24.4509 11.8334 24.4633 14.6584 24.4633C17.4834 24.4633 17.8378 24.4515 18.9471 24.4004C19.8102 24.3834 20.6641 24.22 21.4726 23.9173C22.1636 23.6501 22.7912 23.2414 23.3152 22.7175C23.8391 22.1936 24.2477 21.566 24.515 20.8749C24.8181 20.0666 24.9815 19.2126 24.9981 18.3494C25.0486 17.2396 25.0601 16.8857 25.0601 14.0607C25.0601 11.2358 25.0483 10.8814 24.9981 9.77209C24.9811 8.90898 24.8178 8.05502 24.515 7.24659C24.2478 6.55565 23.8392 5.92813 23.3154 5.40422C22.7917 4.88032 22.1643 4.47158 21.4734 4.2042C20.665 3.9012 19.811 3.73784 18.9479 3.72107C17.8386 3.67028 17.4842 3.6582 14.6598 3.6582C11.8353 3.6582 11.4801 3.67001 10.3703 3.72107" fill="white"/>
</g>
</g>
<defs>
<radialGradient id="paint0_radial_6321_65470" cx="0" cy="0" r="1" gradientUnits="userSpaceOnUse" gradientTransform="translate(2.44094 27.3867) scale(35.5496)">
<stop offset="0.09" stop-color="#FA8F21"/>
<stop offset="0.78" stop-color="#D82D7E"/>
</radialGradient>
<radialGradient id="paint1_radial_6321_65470" cx="0" cy="0" r="1" gradientUnits="userSpaceOnUse" gradientTransform="translate(20.0236 26.4875) scale(31.284)">
<stop offset="0.64" stop-color="#8C3AAA" stop-opacity="0"/>
<stop offset="1" stop-color="#8C3AAA"/>
</radialGradient>
<clipPath id="clip0_6321_65470">
<rect width="115.733" height="28" fill="white" transform="translate(0.628906)"/>
</clipPath>
<clipPath id="clip1_6321_65470">
<rect width="28" height="28" fill="white" transform="translate(0.628906)"/>
</clipPath>
</defs>
</svg>
