<?xml version="1.0" encoding="utf-8"?>
<!-- Generator: Adobe Illustrator 26.1.0, SVG Export Plug-In . SVG Version: 6.00 Build 0)  -->
<svg version="1.1" id="圖層_1" xmlns="http://www.w3.org/2000/svg" xmlns:xlink="http://www.w3.org/1999/xlink" x="0px" y="0px"
	 viewBox="0 0 388.05 603.43" style="enable-background:new 0 0 388.05 603.43;" xml:space="preserve">
<style type="text/css">
	.st0{fill:#5266A0;}
	.st1{fill:#FFFFFF;}
	.st2{fill:#F4C144;}
	.st3{opacity:0.42;}
	.st4{fill:#8E570E;}
	.st5{fill:#161E3F;}
	.st6{fill:#162550;}
	.st7{opacity:0.25;}
	.st8{fill:#4C6296;}
	.st9{fill:#6C84C0;}
	.st10{fill:#F09EC0;}
	.st11{opacity:0.51;}
	.st12{fill:#DE679C;}
	.st13{fill:none;stroke:#161E3F;stroke-width:4;stroke-miterlimit:10;}
	.st14{fill:#F9D8E7;}
	.st15{fill:#FAEAD6;}
	.st16{fill:#515677;}
	.st17{fill:#7A7FA2;}
	.st18{fill:#F3A243;}
	.st19{fill:#7C551D;}
	.st20{fill:#FFBE2E;}
	.st21{fill:#C6C9D0;}
	.st22{fill:#E6E7EB;}
	.st23{fill:#31466A;}
	.st24{fill:#535A80;}
	.st25{fill:#363C4F;}
	.st26{fill:#231815;}
</style>
<g>
	<g>
		<path class="st0" d="M182.8,44.37c-30.83,3.39-59.81,18.91-78.63,45.6c-14.33,20.32-21.81,45.04-24.99,69.92
			c-2.95,23.09-4.01,46.41-7.82,69.38c-4.49,27.05-16.59,52.59-21.96,79.44c-5.89,29.4-5.91,60.69,3.1,89.48
			c10.44,33.33,51.83,54.49,84.81,54.49c19.16,0,39.05-6.18,58.67-7.1c20.16-0.95,37.98,7.1,57.9,7.1
			c33.33,0,64.11-18.46,81.52-46.59c22.1-35.7,15.29-67.8,5.6-105.63c-4.87-19-8.76-38.36-12.45-57.64
			c-0.01-0.06-0.02-0.12-0.03-0.18c-7.04-36.8-9.51-74.7-20.67-110.55c-12.67-40.72-42.56-83.6-83.45-83.6"/>
	</g>
	<g>
		<path class="st1" d="M306.07,269.36c-10.16-33.8-18.86-68.08-24.09-103c-3.96-26.43,0.61-77.63-39.37-77.63
			c-20.71,0-37.49,21.27-37.49,47.51c0,1.51,0.06,3.01,0.17,4.48c-1.13-0.19-2.25-0.39-3.38-0.57c-5.01-0.79-10.17-1.43-15.28-1.52
			c0.03-0.8,0.05-1.6,0.05-2.4c0-26.24-16.57-47.51-37.01-47.51c-43.92,0-36.61,60.37-37.42,87.99
			c-1.34,45.18-11.66,90.1-30.39,131.24c-6.88,15.12-13.26,33.8-13.26,50.56c0,31.45,20.97,60.97,51.85,68.89
			c18.05,4.63,36.02,0.82,54.21-0.71c22.67-1.91,43.33-0.01,65.6,3.66c18.35,3.02,41.31-1.51,56.96-11.75
			c20.06-13.12,31.94-36.24,31.94-60.09c0-25.22-10.14-47.67-17.64-71.47C309.67,281.16,307.85,275.27,306.07,269.36z"/>
	</g>
	<g>
		<path class="st2" d="M194.93,146.08c4.47,0.28,10.22,1.74,13.65,6.82c4.29,6.34-0.54,17.94-4.99,21.42
			c-3.06,2.4-6.38,3.03-9.57,2.49c-4.92-0.84-10.79-6.95-12.31-15.7C179.1,146.13,189.43,145.73,194.93,146.08z"/>
	</g>
	<g class="st3">
		<path class="st4" d="M195.71,146.08c4.47,0.28,10.22,1.74,13.65,6.82c4.29,6.34-0.54,17.94-4.99,21.42
			c-3.06,2.4-6.38,3.03-9.57,2.49c-4.92-0.84-10.79-6.95-12.31-15.7C179.88,146.13,190.21,145.73,195.71,146.08z"/>
	</g>
	<g>
		<path class="st5" d="M194.95,145.82c18.05,0.4,22.57,12.57,11.82,26.26c-12.06,14.98-28.37,1.09-28.13-14.59
			C178.69,147.06,185.97,144.73,194.95,145.82L194.95,145.82z M194.92,146.34c-3.54-0.27-8.06,0.77-9.82,3.95
			c-1.59,2.95-1.23,6.35-0.71,9.66c0.57,3.48,1.69,6.88,3.66,9.79c4.06,6.61,12.62,8.49,17.34,1.36
			C211.02,161.21,207.85,147.2,194.92,146.34L194.92,146.34z"/>
	</g>
	<g class="st3">
		<path class="st6" d="M335.9,406.39c-1.32,2.17-2.74,4.23-4.35,6.02c-6.74,7.5-13.05,14.95-21.18,21.05
			c-16.22,12.18-36.16,19.21-56.5,19.21c-19.92,0-37.74-8.05-57.9-7.1c-19.62,0.92-39.51,7.1-58.67,7.1
			c-32.98,0-74.37-21.15-84.81-54.49c19.67,9.69,40.19,15.6,62.06,17.17c18.81,1.35,37.49-2.5,55.94-5.62
			c33.16-5.61,64.65,8.29,97.3,6.1c29.89-2,57.03-5.75,79.84-27.51C342.75,392.99,339.7,400.16,335.9,406.39z"/>
	</g>
	<g class="st7">
		<path class="st8" d="M174.66,426.69c22.67-1.91,43.33-0.01,65.6,3.66c18.35,3.02,41.31-1.51,56.96-11.75
			c3.74-2.45,7.2-5.25,10.35-8.33c-12.56,3.33-25.87,4.64-39.78,5.57c-32.65,2.19-64.13-11.72-97.3-6.1
			c-18.45,3.12-37.13,6.97-55.94,5.62c-7.55-0.54-14.93-1.61-22.18-3.16c7.86,7.12,17.37,12.46,28.08,15.21
			C138.5,432.03,156.48,428.22,174.66,426.69z"/>
	</g>
	<g>
		<path class="st9" d="M79.42,167.2c2.23-29.49,11.42-59.87,31.47-82.35c20.3-22.61,49.71-36.55,80.01-38.61
			c68.21-3.3,114.05,40.83,122.01,107.17C299.58,90.8,257.33,49.79,191.34,53.17c-28.56,1.99-56.44,14.81-76.32,35.5
			C94.71,109.96,84.71,138.62,79.42,167.2L79.42,167.2z"/>
	</g>
	<g>
		<path class="st5" d="M182.84,44.72c-50.17,7.09-84.49,42.01-96.14,90.53c-5.89,23-6.51,46.76-9.1,70.33
			c-1.24,11.88-2.68,23.82-5.51,35.66c-2.76,11.78-6.73,23.11-10.45,34.39c-9.95,27.83-16.09,57.03-14.14,86.65
			c0.68,11.77,2.61,23.49,5.99,34.8c1.84,5.52,4.03,10.98,7.44,15.77c13.18,19.65,35.54,31.71,58.3,36.62
			c23.65,5.44,46.81-2.73,70.38-5.33c17.98-2.63,35.89,3,53.52,5.2c5.74,0.7,11.54,0.76,17.28,0.31
			c46.45-3.49,85.9-45.86,85.99-92.43c0.38-23.53-6.99-46.27-12.28-69.2c-2.67-11.67-5.03-23.38-7.27-35.09
			c-11.9-57.25-10.23-120.49-44.6-170.23c-13.68-19.28-34.71-32.83-58.22-36.5c0,0,0.1-0.69,0.1-0.69l8.85,1.49
			c47.94,10.18,70.32,55.52,81.59,99.09c6.01,23.29,9.2,47.05,12.98,70.48c3.76,23.39,8.47,46.71,13.84,69.77
			c8.6,34.82,20.24,72.22,4.51,107.05c-7.34,16.91-19.07,31.94-33.94,42.88c-19.71,14.6-45.1,21.68-69.48,18.29
			c-17.6-2.59-34.57-8.68-52.5-6.59c-23.46,2.14-47.59,9.56-71.25,3.92c-23.28-5.24-46-17.81-59.68-37.76
			c-7.01-9.92-9.98-22-12.39-33.74c-1.2-5.89-1.99-11.85-2.53-17.84c-2.84-29.98,2.55-60.34,11.98-88.7
			c3.59-11.36,7.23-22.64,9.93-34.04c2.69-11.43,4.07-23.18,5.41-34.88c3.69-35.49,5.18-72.93,23.61-104.64
			c14.59-26.61,40.54-46.36,70.01-53.39c5.83-1.4,11.76-2.32,17.7-2.87C182.76,44.02,182.84,44.72,182.84,44.72L182.84,44.72z"/>
	</g>
	<g>
		<path class="st10" d="M257.76,179.88c-23.8,0-45.51,9.04-62.03,23.91c-16.52-14.87-38.23-23.91-62.03-23.91
			c-51.73,0-93.66,42.63-93.66,95.22c0,0,1.25,120.36,157.17,166.2c0,0,149.01-46.8,154.21-166.2
			C353.71,222.56,309.48,179.88,257.76,179.88z"/>
	</g>
	<g class="st11">
		<path class="st12" d="M351.41,275.1c-5.21,119.4-154.21,166.2-154.21,166.2c-53.6-15.76-88.92-40.32-112.19-65.77
			c0,0,137.36,38.77,239.49-64.94L351.41,275.1z"/>
	</g>
	<g>
		<path class="st2" d="M86.06,398.91c12.64-4.29,9.85,32.53,8.31,37.52c-2.44,7.93-8.39,18.23-16.59,21.45
			c-19.9,7.81-36.91-16.65-42.83-31.67c-2.37-6.02-4.55-21.84,7.96-15.22c1.99,1.05,4.17,4.03,6.33,4.5
			c3.52,0.78,3.43-3.46,3.95-5.78c1-4.43,2.75-11.41,8.73-8.52c3.95,1.91,5.7,6.56,9.31,8.92c3.42,2.23,6.55,1.93,8.06-2.22
			C80.59,404.33,82.21,400.22,86.06,398.91z"/>
	</g>
	<g>
		<path class="st2" d="M304.81,399.4c-12.64-4.29-9.85,32.53-8.31,37.52c2.44,7.93,8.39,18.23,16.59,21.45
			c19.9,7.81,36.91-16.65,42.83-31.67c2.37-6.02,4.55-21.84-7.96-15.22c-1.99,1.05-4.17,4.03-6.33,4.5
			c-3.52,0.78-3.43-3.46-3.95-5.78c-1-4.43-2.75-11.41-8.73-8.52c-3.95,1.91-5.7,6.56-9.31,8.92c-3.42,2.23-6.55,1.93-8.06-2.22
			C310.29,404.83,308.66,400.71,304.81,399.4z"/>
	</g>
	<g>
		<path class="st5" d="M195.63,144.92c2.33-0.03,5.38,0.69,7.37,4c2.49,4.14,0.46,12.34-1.71,14.95c-1.49,1.8-3.19,2.39-4.86,2.18
			c-2.59-0.33-5.89-4.23-7.04-10.16C187.41,145.75,192.76,144.96,195.63,144.92z"/>
	</g>
	<g>
		<path class="st5" d="M247.84,141.25c-3.09-5.11-7.94-12.39-13.65-6.75c-1.55,1.56-2.94,3.83-4.37,6.6
			c-3.57-6.31,0.98-15.92,8.88-15.59C246.42,125.36,250.76,134.91,247.84,141.25L247.84,141.25z"/>
	</g>
	<g>
		<path class="st5" d="M161.27,141.25c-3.09-5.11-7.94-12.39-13.65-6.75c-1.55,1.56-2.94,3.83-4.37,6.6
			c-3.57-6.31,0.98-15.92,8.88-15.59C159.85,125.36,164.19,134.91,161.27,141.25L161.27,141.25z"/>
	</g>
	<g>
		<path class="st0" d="M182.89,47.34c-0.46-7.72,0.32-19.47,5.06-26.47c2.62-3.86,6.61-8.47,11.85-9.05
			c2.06-0.23,4.15,0.05,5.77,1.12c3.76,2.48,4.07,7.7,3.82,11.67c-0.14,2.13-0.35,4.22-0.79,6.34c-0.61,3-1.97,8.72-4.93,16.37
			c0.12-0.45,0.28-0.89,0.43-1.33c0.7-1.99,1.5-3.97,2.35-5.92c0.93-2.13,1.99-4.25,3.58-6.09c0.8-0.93,1.64-1.83,2.72-2.51
			c1.98-1.24,4.28-1.86,6.61-1.72c5.77,0.33,8.62,4.66,7.83,9.34c-0.81,4.87-0.54,5.5-3.26,9.89c0,0-22.06-5.67-41.18-0.98"/>
	</g>
	<g>
		
			<ellipse transform="matrix(0.963 -0.2697 0.2697 0.963 -10.7511 48.331)" class="st9" cx="170.54" cy="63.3" rx="15.99" ry="9.22"/>
	</g>
	<g>
		
			<ellipse transform="matrix(0.7937 -0.6083 0.6083 0.7937 -110.8047 95.2307)" class="st14" cx="85.01" cy="210.99" rx="15.99" ry="9.22"/>
	</g>
	<g>
		<path class="st9" d="M205.06,51.19c0.74-5.92,2.86-11.54,7.04-16.02c4.18-4.46,9.97-3.43,12.54,2.05
			c0.67,1.33,1.13,2.74,1.44,4.18c-2.56-2.73-4.98-6.75-8.73-5.69C211.64,38.8,208.92,46.01,205.06,51.19L205.06,51.19z"/>
	</g>
	<g>
		<path class="st9" d="M183.53,48.98c-0.06-9.78,2.77-29.49,11.93-34.83c2.36-1.56,6.51-1.5,8.39,0.83
			c2.43,2.88,2.99,6.41,3.38,9.92c-1.26-1.87-2.36-3.78-3.67-5.4c-7.18-9.46-12.57,12.62-14.81,17.38
			C187.13,40.91,185.52,44.94,183.53,48.98L183.53,48.98z"/>
	</g>
	<g>
		<path class="st5" d="M182.54,47.36c-1.67-10.54-1.15-22.52,5.77-31.26c4.75-7.22,16.87-11.17,22.23-2.38
			c4.98,9.42-1.29,23.26-4.85,32.38c-0.47,1.44-2.66,0.73-2.16-0.71c0.3-0.97,0.78-1.85,0.93-2.85c-0.1-3.3,0.93-6.41,2.83-9.38
			c1.29-2.04,2.94-4.08,5.18-5.22c7.74-4.57,18.3-0.14,18.12,9.41c0.05,4.77-2.49,9.27-6.34,11.8c-0.18,0.12-0.41,0.07-0.53-0.11
			c0.51-4.74,1.85-10.55-1.45-14.26c-2.16-2.16-6.36-1.88-8.83-0.09c-2.17,1.56-3.66,3.64-5.07,6.11c-1.65,1.25-2.14,3.27-2.65,5.18
			c0,0-2.16-0.71-2.16-0.71c1.75-4.7,2.43-10.13,2.82-15.09c0.33-4.04,0.64-10.21-1.23-13.23c-1.24-2.08-3.46-2.38-5.77-2.02
			c-3.79,0.65-7.84,4.82-10.15,8.21c-4.34,7.14-5.37,15.65-5.99,24.16C183.24,47.73,182.59,47.77,182.54,47.36L182.54,47.36z"/>
	</g>
	<g class="st3">
		<path class="st4" d="M94.91,430.89c-0.59,1.16,0.14,5.17-0.31,6.93c-0.71,2.77-2.3,5.66-3.72,8.12
			c-2.93,5.08-7.01,10.15-12.62,12.35c-10.8,4.24-21.2-1.51-28.65-9.25c-7.1-7.38-16.02-18.24-15.63-29.12
			c4.87,9.8,13.23,17.69,22.73,22.96c7.73,4.29,19.3,2.8,26.92-1.09C88.36,439.38,92.48,435.66,94.91,430.89z"/>
	</g>
	<g class="st3">
		<path class="st4" d="M347.63,440.85c-0.86,0.94-1.42,4.97-2.35,6.52c-1.45,2.45-3.69,4.77-5.67,6.73
			c-4.07,4.04-9.14,7.77-14.68,8.34c-10.66,1.1-17.99-7.23-22.15-16.65c-3.96-8.98-8.46-21.78-4.87-32.05
			c1.3,10.68,6.21,20.49,12.89,28.11c5.44,6.21,15.94,7.94,23.74,6.31C339.39,447.15,344.08,444.73,347.63,440.85z"/>
	</g>
	<g>
		<path class="st14" d="M196.16,205.62c-27.92-23.83-71.2-27.56-102.52-8.59c-31,18.19-49.58,56.11-42.93,91.67
			c11.38,67.77,64.9,117.67,126.92,142.12c5.74,2.28,13.71,5.33,19.57,7.31c-36.11-9.26-71.06-25.6-98.86-50.95
			C67,358.68,44.74,318.23,42.37,275.43c-0.3-43.82,31.89-85.05,75.42-92.82C145.54,177.44,176.16,185.76,196.16,205.62
			L196.16,205.62z"/>
	</g>
	<g>
		<path class="st14" d="M331.03,215.92c-25.36-27.71-66.19-39.71-102.09-28.02c-11.81,3.8-22.95,9.83-32.78,17.72
			c8.92-8.91,19.87-15.96,31.9-20.3C264.22,171.8,308.2,184.81,331.03,215.92L331.03,215.92z"/>
	</g>
	<g>
		<path class="st5" d="M257.76,180.23c-22.58-0.05-44.94,8.83-61.27,24.41c-0.43,0.41-1.11,0.4-1.53,0
			c-14.29-12.28-32.34-20.14-51.08-21.72c-47.14-4.31-89.84,28.02-99.78,74.11c-0.43,2.54-1.04,6.13-1.44,8.66
			c-0.06,0.96-0.52,7.61-0.59,8.77c-0.09,4.58,0.54,9.4,1.21,13.99c7.57,50.09,40.26,93.06,82.91,119.26
			c14.09,8.72,29.32,15.95,44.77,21.87c0,0,13.43,4.76,13.43,4.76l13.63,4.17l-1.69,0.02c43.02-15.7,83.99-40.18,114.46-74.75
			c20.89-24.01,34.94-53.84,37.27-85.73C353.83,226.1,309.53,179.9,257.76,180.23L257.76,180.23z M257.76,179.53
			c55.88-0.15,103.23,48.07,96.09,105.13c-0.56,5.95-1.65,12.61-3.05,18.43c-0.65,3.49-2.25,8.6-3.35,12.01
			c-0.47,1.72-1.43,4.19-2.1,5.87c-23.67,61.66-87.06,102.4-147.33,123.11c-0.55,0.18-1.12,0.16-1.63,0l-13.77-4.55l-13.55-5.16
			C104.4,408.6,48.57,352.81,38.67,281.83c-1-4.9-0.41-11.54-0.31-16.56c0.31-2.65,0.86-6.46,1.2-9.12
			c1.54-8.22,4.17-16.97,7.83-24.53c0,0,1.54-3.36,1.54-3.36c0.91-1.61,2.78-4.81,3.71-6.41c8.42-13.59,20.58-25.11,34.49-32.99
			c11.92-6.39,25.33-10.6,38.86-11.37c25.72-1.96,51.83,7.83,70.5,25.44c0,0-1.53,0-1.53,0c4.35-3.74,9.02-7.09,13.95-9.98
			C223.6,184.22,240.67,179.46,257.76,179.53L257.76,179.53z"/>
	</g>
	<g>
		<path class="st5" d="M196.32,203.53c14.9-17.58,38.78-27.78,61.86-25.57c2.38,0.26,7.99,0.98,10.27,1.17
			c19.17,3.13,38.72,8.68,53.74,21.7c10.78,8.9,19.58,20.49,24.71,33.52c1.65,3.62,2.66,7.8,3.86,11.59
			c1.43,6.37,2.2,12.36,2.43,18.88c-0.05,3.42-0.32,6.88-0.59,10.28c-0.02,0.19-0.19,0.34-0.38,0.32c-0.18-0.02-0.3-0.15-0.32-0.32
			c-0.86-4.36-1.29-8.93-2.46-13.22c-0.98-4.83-2.64-9.6-4.12-14.27c-1.56-3.4-2.79-7.22-4.6-10.48
			c-5.62-11.37-13.65-22.66-22.91-31.34c-12.86-11.79-28.54-21.91-46.31-23.76c-8.77-1.09-17.76,0.02-26.34,1.79
			c-8.54,1.77-16.96,4.01-25.02,7.47c-8.12,3.34-15.75,7.8-23.34,12.77C196.48,204.29,196.05,203.81,196.32,203.53L196.32,203.53z"
			/>
	</g>
	<g>
		<path class="st0" d="M59.7,281.37c9.18,6.68,19.62,12.38,25.71,21.96c6.68,10.5,0.47,20.46-11.06,21.49
			c-12.63,1.13-24.84-2.29-33.72-11.81c-9.93-10.65-13.51-26.46-10.48-40.71c1.65-7.78,6.29-16.32,11.7-22.19
			C43.56,263.52,48.57,273.02,59.7,281.37z"/>
	</g>
	<g>
		<path class="st0" d="M332.91,281.37c-9.18,6.68-19.62,12.38-25.71,21.96c-6.68,10.5-0.47,20.46,11.06,21.49
			c12.63,1.13,24.84-2.29,33.72-11.81c9.93-10.65,13.51-26.46,10.48-40.71c-1.65-7.78-6.29-16.32-11.7-22.19
			C349.05,263.52,344.04,273.02,332.91,281.37z"/>
	</g>
	<g>
		<path class="st9" d="M80.12,323.35c-13.18,2.77-28.13-1.09-38.12-10.29c-11.83-11.47-15.22-30.34-9.04-45.45
			c2.7-6.16,6.76-11.89,12.07-15.95c-4.44,7.21-7.79,15.15-8.55,23.46c-1.08,11.9,2.12,24.47,10.13,33.47
			C55.15,317.47,67.84,322.18,80.12,323.35L80.12,323.35z"/>
	</g>
	<g>
		<path class="st5" d="M59.91,281.09c11.81,8.96,36.75,17.22,30.19,36.52c-6.5,13.62-25.51,9.29-36.78,5.41
			c-6.75-2.71-12.97-7.05-17.7-12.85c-12.06-14.63-13.3-37.24-3.19-53.34c2.88-5.16,8.02-10.03,12.26-14.14
			C45.28,257.92,46.65,271.34,59.91,281.09L59.91,281.09z M59.5,281.65c-7.66-5.63-14.66-12.71-18.2-21.74
			c-1.25-3.03-2.1-6.21-2.71-9.39c0,0,5.69,1.82,5.69,1.82c-12.98,15.48-15.72,37.75-5.22,55.39c6.88,12.3,21.75,18.04,35.33,15.06
			c3.14-0.65,6.03-2.04,7.91-4.13C92.93,306.57,68.69,287.99,59.5,281.65L59.5,281.65z"/>
	</g>
	<g>
		<path class="st9" d="M349.12,257.86c0.52,11.83-6,23.15-15.72,29.7c-8.45,6.22-19.23,11.25-24.05,20.82
			c-3.15,7.08,3.36,12.97,10.03,14.3c-3.91,0.22-7.98-0.83-10.95-3.63c-5.08-4.53-4.05-12.68-0.15-17.59
			c5.56-8.04,14.41-12.85,22.32-17.98C340.1,277.8,346.43,268.58,349.12,257.86L349.12,257.86z"/>
	</g>
	<g>
		<path class="st5" d="M333.12,281.65c-9.2,6.35-33.42,24.91-22.8,37c1.87,2.08,4.77,3.47,7.91,4.13
			c13.59,2.98,28.45-2.75,35.33-15.06c10.5-17.64,7.76-39.92-5.22-55.39c0,0,5.69-1.82,5.69-1.82c-0.61,3.18-1.46,6.36-2.71,9.39
			C347.77,268.94,340.78,276.01,333.12,281.65L333.12,281.65z M332.7,281.09c13.26-9.73,14.63-23.19,15.22-38.4
			c4.25,4.15,9.38,8.97,12.26,14.14c10.11,16.1,8.88,38.71-3.18,53.34c-4.74,5.8-10.96,10.14-17.7,12.85
			c-11.27,3.88-30.28,8.21-36.78-5.41C295.91,298.38,320.94,290,332.7,281.09L332.7,281.09z"/>
	</g>
	<g>
		<path class="st15" d="M42.21,411.11c0.77,0.27,1.51,0.64,2.19,1.07c2.13,1.37,3.46,3.22,5.37,4.83c-1.46-1.23-3.96-1.12-5.73-1.19
			c-2.22-0.09-4.1-0.77-4.82,1.89c-0.44,1.6-0.02,3.42-0.01,5.01c0.02,4.08,0.04,8.17,0.06,12.25c-2.62-2.02-4.18-5.21-4.72-8.47
			c-0.65-3.91-0.38-9.52,1.22-13.19C37.01,410.49,39.72,410.24,42.21,411.11z"/>
	</g>
	<g>
		<path class="st15" d="M308.23,400.69c0.63,0.51,1.21,1.11,1.7,1.75c1.54,2.01,2.17,4.2,3.42,6.36c-0.96-1.65-3.35-2.39-5-3.06
			c-2.06-0.83-3.6-2.11-5.18,0.15c-0.95,1.36-1.17,3.21-1.7,4.71c-1.36,3.85-2.72,7.7-4.08,11.56c-1.79-2.79-2.17-6.31-1.58-9.56
			c0.71-3.9,2.86-9.09,5.6-12C303.54,398.34,306.18,399.03,308.23,400.69z"/>
	</g>
	<g>
		<path class="st15" d="M62.4,402.66c0.77,0.27,1.51,0.64,2.19,1.07c2.13,1.37,3.46,3.22,5.37,4.83c-1.05-0.89-2.37-0.93-3.66-1.12
			c-0.92-0.14-2.34-0.83-3.19-0.69c-0.54,0.09-1.02,0.37-1.48,0.67c-3.72,2.38-1.47,6.03-3.59,9.31c-0.36,0.55-0.79,1.07-1.36,1.4
			c-0.85,0.5-1.91,0.52-2.87,0.27c-0.95-0.25-1.82-0.73-2.68-1.22c1.22-0.75,2-2.06,2.4-3.43c0.86-2.97,1.16-5.99,2.42-8.89
			C57.2,402.03,59.91,401.79,62.4,402.66z"/>
	</g>
	<g>
		<path class="st15" d="M334.13,404.28c0.57,0.58,1.07,1.24,1.48,1.93c0.76,1.27,0.65,2.71,1.33,3.89c-0.79-2.08-3.5-3.16-5.5-2.21
			c-0.57,0.27-1.07,0.68-1.56,1.08c-3.79,3.07-5.84,7.65-11.37,7.11c-2.03-0.2-4.06-1.19-5.13-2.92c2.45-0.66,5.59-1.16,7.62-2.61
			c2.5-1.78,3.97-5.13,6.37-7.15C329.75,401.42,332.28,402.4,334.13,404.28z"/>
	</g>
	<g>
		<path class="st15" d="M357.55,408.98c0.51,0.54,0.96,1.16,1.33,1.8c0.68,1.19,0.55,2.55,1.16,3.65c-0.69-1.95-3.16-2.93-5.02-1.99
			c-0.53,0.27-1,0.66-1.46,1.04c-3.53,2.97-5.5,7.33-10.57,6.91c-1.86-0.15-3.71-1.05-4.67-2.68c2.26-0.67,5.16-1.19,7.05-2.59
			c2.33-1.73,3.74-4.92,5.98-6.86C353.56,406.34,355.88,407.23,357.55,408.98z"/>
	</g>
	<g>
		<path class="st15" d="M89.68,400.83c0.7,0.41,1.36,0.92,1.93,1.48c1.82,1.77,2.76,3.84,4.32,5.79c-0.86-1.08-2.14-1.37-3.37-1.81
			c-0.87-0.31-2.13-1.27-2.99-1.3c-0.55-0.02-1.08,0.17-1.59,0.36c-4.12,1.6-2.63,5.62-5.35,8.43c-0.46,0.47-0.99,0.89-1.61,1.11
			c-0.93,0.32-1.98,0.13-2.86-0.3s-1.64-1.08-2.39-1.72c1.34-0.49,2.37-1.63,3.03-2.9c1.43-2.75,2.31-5.65,4.12-8.24
			C84.7,399.2,87.4,399.49,89.68,400.83z"/>
	</g>
	<g>
		<path class="st5" d="M70.03,462.89c-7.19,0-14.42-3.28-21.3-9.73c-10.19-9.55-15.61-22.06-17.03-25.67
			c-1.42-3.61-4.28-14.98,1.02-19.73c1.96-1.75,5.61-3.16,11.83,0.14c1.2,0.64,2.24,1.57,3.25,2.47c0.42,0.37,1.01,0.9,1.51,1.28
			c0.08-0.4,0.15-0.84,0.2-1.15c0.09-0.56,0.17-1.09,0.28-1.56c0.77-3.41,2.06-9.13,6.36-11.21c1.52-0.73,4.02-1.28,7.3,0.31
			c2.85,1.37,4.7,3.66,6.34,5.68c1.12,1.38,2.18,2.68,3.37,3.46c1.24,0.81,1.95,0.85,2.09,0.8c0.08-0.03,0.43-0.32,0.78-1.28
			c1.25-3.44,3.34-9.19,8.93-11.09c3.28-1.12,6.4-0.46,8.77,1.84c3.5,3.4,5.36,10.64,5.53,21.52c0.12,7.72-0.69,15.8-1.53,18.5
			c-2.64,8.58-9.11,19.93-18.66,23.67C76.07,462.3,73.05,462.89,70.03,462.89z M37.8,412.89c-0.25,0-0.38,0.04-0.42,0.08
			c-1.2,1.07-1.01,7.3,0.82,11.96c5.9,14.98,21.52,36.28,38.3,29.7c6.73-2.64,12.25-11.82,14.53-19.23
			c1.31-4.24,2.69-28.2-2.19-32.95c-0.3-0.29-0.6-0.59-1.65-0.24l0,0c-2.23,0.76-3.45,3.67-4.6,6.86c-1.3,3.58-3.51,4.98-5.13,5.53
			c-1.72,0.57-4.53,0.77-8.12-1.57c-2.11-1.38-3.64-3.26-4.98-4.91c-1.34-1.66-2.5-3.09-3.95-3.78c-0.64-0.31-1.08-0.38-1.22-0.31
			c-0.58,0.28-1.49,1.62-2.58,6.45c-0.08,0.33-0.13,0.71-0.19,1.11c-0.32,2.07-0.77,4.9-3.13,6.52c-0.93,0.64-2.52,1.3-4.79,0.8
			c-2.16-0.47-3.85-1.99-5.34-3.32c-0.66-0.59-1.41-1.26-1.87-1.5C39.45,413.11,38.35,412.89,37.8,412.89z"/>
	</g>
	<g>
		<path class="st5" d="M320.85,463.38c-3.03,0-6.05-0.58-9.03-1.75c-9.54-3.74-16.01-15.09-18.66-23.67
			c-0.83-2.7-1.64-10.78-1.53-18.5c0.17-10.87,2.03-18.11,5.53-21.51c2.37-2.31,5.48-2.96,8.77-1.84l0,0
			c5.59,1.9,7.68,7.65,8.93,11.09c0.35,0.97,0.7,1.26,0.78,1.28c0.14,0.05,0.85,0.01,2.09-0.8c1.19-0.77,2.25-2.08,3.37-3.46
			c1.63-2.02,3.49-4.3,6.34-5.68c3.28-1.58,5.78-1.04,7.3-0.31c4.3,2.08,5.59,7.8,6.36,11.21c0.1,0.46,0.19,1,0.28,1.55
			c0.05,0.31,0.12,0.74,0.2,1.14c0.5-0.38,1.09-0.9,1.51-1.27c1.01-0.9,2.05-1.83,3.26-2.47c6.22-3.29,9.87-1.89,11.83-0.13
			c5.31,4.75,2.44,16.12,1.02,19.73c-1.42,3.61-6.84,16.11-17.03,25.67C335.27,460.1,328.03,463.38,320.85,463.38z M302.88,402.55
			c-0.44,0-0.64,0.2-0.84,0.4c-4.88,4.74-3.5,28.71-2.19,32.95c2.28,7.41,7.8,16.59,14.53,19.22c16.77,6.58,32.4-14.72,38.3-29.7
			c1.83-4.66,2.03-10.88,0.82-11.96c-0.13-0.12-1.24-0.3-3.9,1.1c-0.45,0.24-1.2,0.91-1.87,1.51c-1.49,1.33-3.19,2.85-5.34,3.32
			c-2.27,0.5-3.85-0.16-4.79-0.8c-2.36-1.62-2.81-4.45-3.13-6.52c-0.06-0.4-0.12-0.77-0.19-1.11c-1.09-4.83-2-6.17-2.58-6.45
			c-0.14-0.07-0.58,0-1.22,0.31c-1.44,0.7-2.6,2.13-3.95,3.78c-1.34,1.66-2.87,3.54-4.98,4.92c-3.59,2.34-6.4,2.14-8.12,1.57
			c-1.62-0.54-3.83-1.94-5.13-5.53c-1.16-3.18-2.38-6.1-4.6-6.85l0,0C303.35,402.6,303.09,402.55,302.88,402.55z"/>
	</g>
	<g>
		<path class="st2" d="M199.3,156.44c-7.15,0.75-16.58,0.77-23.01-2.86c-8.03-4.53-2.58-15.64,3.82-19.64
			c4.41-2.75,9.57-4.04,14.73-4.28c7.97-0.37,18.48,3.62,22.58,10.84C224.45,152.88,208.1,155.52,199.3,156.44z"/>
	</g>
	<g>
		<path class="st15" d="M176.25,144.46c2.35-5.36,9.71-10.16,15.52-10.86s13.11,1.62,18.74,3.21c3.51,0.99,4.09,2.8,7.06,4.92
			c-3.72-4.81-9.06-8.18-14.71-10.41c-2.19-0.86-4.46-1.57-6.81-1.71c-3.52-0.21-6.97,0.88-10.33,1.96
			c-3.42,1.1-7.01,2.29-9.45,4.93c-2.97,3.2-5.2,12.09-1.96,15.7C175.98,151.29,175.42,146.37,176.25,144.46z"/>
	</g>
	<g class="st3">
		<path class="st6" d="M218.13,146.09c0.24,2.47-1.28,4.87-3.32,6.29c-6.41,4.49-15.33,3.59-22.73,4.23
			c-4.43,0.38-7.58,0.75-11.44-2.13c-1.47-1.1-3.79-2.01-4.92-3.5c-0.63-0.83-1.11-2.08-2.15-2.08
			C188.33,154.35,204.22,154.14,218.13,146.09z"/>
	</g>
	<g>
		<path class="st5" d="M199.33,156.7c-7.45,0.55-15.64,2.73-23.01-0.5c-10.27-4.59-5.74-15.88,1.07-21.24
			c6.2-4.76,13.98-7.37,21.82-7.21c8.1,0.62,16.69,4.24,20.81,11.69c3.56,6.16,1.53,13.05-5.52,15.17
			C210.07,156.12,203.91,156.19,199.33,156.7L199.33,156.7z M199.27,156.18c6.83-0.74,21.7-5.06,15.84-14.06
			c-6.84-11.01-26.52-14.72-36.58-5.9c-4.27,4.15-6.83,12.97-0.18,15.8C184.63,155.21,192.07,157.01,199.27,156.18L199.27,156.18z"
			/>
	</g>
	<g>
		<path class="st5" d="M318.98,205.61l-0.12-0.83c-3.5-23.82-7.12-48.45-14.35-71.67C288.52,81.73,262.8,55.1,223.58,49.3l1.02-6.91
			c55.43,8.19,75.96,54.52,86.59,88.66c7.39,23.74,11.05,48.65,14.59,72.73l0.12,0.83L318.98,205.61z"/>
	</g>
	<g>
		<path class="st5" d="M78.45,201.27l-6.96-0.7c0.43-4.23,0.82-8.46,1.22-12.69c0.88-9.32,1.78-18.96,2.99-28.43
			c3.65-28.51,12.26-52.56,25.6-71.49c18.52-26.27,48.08-43.43,81.11-47.06l0.76,6.95c-31.03,3.42-58.79,19.51-76.16,44.14
			c-12.68,17.98-20.88,40.98-24.39,68.35c-1.2,9.36-2.1,18.94-2.97,28.2C79.27,192.78,78.87,197.03,78.45,201.27z"/>
	</g>
</g>
</svg>
