<?xml version="1.0" encoding="utf-8"?>
<!-- Generator: Adobe Illustrator 26.1.0, SVG Export Plug-In . SVG Version: 6.00 Build 0)  -->
<svg version="1.1" id="圖層_1" xmlns="http://www.w3.org/2000/svg" xmlns:xlink="http://www.w3.org/1999/xlink" x="0px" y="0px"
	 viewBox="0 0 88.69 92.39" style="enable-background:new 0 0 88.69 92.39;" xml:space="preserve">
<style type="text/css">
	.st0{fill:none;stroke:#E0E2E2;stroke-width:2;stroke-linecap:round;stroke-linejoin:round;stroke-miterlimit:10;}
	.st1{fill:#FF6053;}
	.st2{fill:#FFFBF3;}
	.st3{fill:#FF946A;}
	.st4{clip-path:url(#SVGID_00000047027211065668305870000007765893507184587931_);}
	.st5{fill:none;stroke:#FFFFFF;stroke-miterlimit:10;}
	.st6{fill:#FFC181;}
	.st7{fill:#99D3D3;}
	.st8{clip-path:url(#SVGID_00000023984205796985300820000003279522641936260278_);}
</style>
<g>
	<line class="st0" x1="1" y1="4.21" x2="87.69" y2="4.21"/>
	<path class="st7" d="M44.35,0h36.7c0.64,0,1.08,0.65,0.84,1.25l-18.52,45.7L45.18,91.83c-0.31,0.75-1.37,0.75-1.68,0L25.33,46.95
		L6.81,1.25C6.57,0.65,7.01,0,7.65,0H44.35z"/>
	<g>
		<defs>
			<path id="SVGID_00000163066037368537945020000014065590918135049663_" d="M44.35,0h36.7c0.64,0,1.08,0.65,0.84,1.25l-18.52,45.7
				L45.18,91.83c-0.31,0.75-1.37,0.75-1.68,0L25.33,46.95L6.81,1.25C6.57,0.65,7.01,0,7.65,0H44.35z"/>
		</defs>
		<clipPath id="SVGID_00000129923684512529729440000000971765709097701277_">
			<use xlink:href="#SVGID_00000163066037368537945020000014065590918135049663_"  style="overflow:visible;"/>
		</clipPath>
		<g style="clip-path:url(#SVGID_00000129923684512529729440000000971765709097701277_);">
			<line class="st5" x1="21.79" y1="-30.64" x2="111.89" y2="26.1"/>
			<line class="st5" x1="16.29" y1="-21.91" x2="106.39" y2="34.83"/>
			<line class="st5" x1="10.79" y1="-13.17" x2="100.88" y2="43.57"/>
			<line class="st5" x1="5.29" y1="-4.43" x2="95.38" y2="52.3"/>
			<line class="st5" x1="-0.22" y1="4.3" x2="89.88" y2="61.04"/>
			<line class="st5" x1="-5.72" y1="13.04" x2="84.38" y2="69.77"/>
			<line class="st5" x1="-11.22" y1="21.77" x2="78.88" y2="78.51"/>
			<line class="st5" x1="-16.72" y1="30.51" x2="73.38" y2="87.24"/>
			<line class="st5" x1="-22.22" y1="39.24" x2="67.88" y2="95.98"/>
		</g>
	</g>
	<circle class="st2" cx="44.35" cy="24.11" r="19.89"/>
</g>
</svg>
