<?xml version="1.0" encoding="utf-8"?>
<!-- Generator: Adobe Illustrator 26.1.0, SVG Export Plug-In . SVG Version: 6.00 Build 0)  -->
<svg version="1.1" id="圖層_1" xmlns="http://www.w3.org/2000/svg" xmlns:xlink="http://www.w3.org/1999/xlink" x="0px" y="0px"
	 viewBox="0 0 209.75 186.57" style="enable-background:new 0 0 209.75 186.57;" xml:space="preserve">
<style type="text/css">
	.st0{fill:#FFFFFF;}
	.st1{fill:#F9D4DD;}
	.st2{fill:#979696;}
</style>
<g>
	<g>
		<g>
			<path class="st0" d="M206.25,85.43c0-21.09-17.1-38.19-38.19-38.19c-0.15,0-0.3,0.02-0.45,0.02c0.27-1.82,0.45-3.67,0.45-5.57
				c0-21.09-17.1-38.19-38.19-38.19c-9.57,0-18.29,3.54-24.99,9.35C98.17,7.04,89.45,3.5,79.89,3.5c-21.09,0-38.19,17.1-38.19,38.19
				c0,1.9,0.18,3.74,0.45,5.57c-0.15,0-0.3-0.02-0.45-0.02C20.6,47.24,3.5,64.34,3.5,85.43c0,12.77,6.27,24.07,15.89,31
				c5.06,3.65,8.58,9.05,10.09,15.11l0,0c7.54,30.28,34.74,51.53,65.94,51.53h18.91c31.2,0,58.4-21.25,65.94-51.53l0,0
				c1.51-6.05,5.03-11.46,10.09-15.11C199.99,109.5,206.25,98.2,206.25,85.43z"/>
		</g>
		<g>
			<g>
				<g>
					
						<ellipse transform="matrix(0.9756 -0.2197 0.2197 0.9756 -8.0246 18.3849)" class="st1" cx="78.64" cy="45.27" rx="19.78" ry="23.34"/>
					
						<ellipse transform="matrix(0.734 -0.6791 0.6791 0.734 -46.3594 53.8429)" class="st1" cx="45.56" cy="86.11" rx="19.78" ry="23.34"/>
				</g>
				<g>
					
						<ellipse transform="matrix(0.2197 -0.9756 0.9756 0.2197 58.1431 163.2299)" class="st1" cx="131.11" cy="45.27" rx="23.34" ry="19.78"/>
					
						<ellipse transform="matrix(0.6791 -0.734 0.734 0.6791 -10.5187 148.1477)" class="st1" cx="164.19" cy="86.11" rx="23.34" ry="19.78"/>
				</g>
			</g>
			<path class="st1" d="M100.92,144.69l-20,2.97c-1.28,0.19-2.58,0.23-3.86,0.02c-9.23-1.51-14.64-11.53-10.84-20.09
				c0.5-1.13,1.21-2.17,2.02-3.11l8.33-9.62c4-4.62,7.4-9.74,10.11-15.22l7.14-14.46c0.69-1.39,1.57-2.69,2.73-3.73
				c4.69-4.24,11.96-4.24,16.65,0c1.15,1.04,2.04,2.34,2.73,3.73l7.53,15.24c2.45,4.96,5.53,9.59,9.15,13.78l8.91,10.29
				c0.81,0.94,1.52,1.97,2.02,3.11c3.81,8.56-1.6,18.57-10.84,20.09c-1.28,0.21-2.58,0.17-3.86-0.02l-20-2.97
				C106.21,144.3,103.54,144.3,100.92,144.69z"/>
		</g>
	</g>
	<g>
		<g>
			<path class="st2" d="M114.33,186.57H95.42c-32.88,0-61.39-22.28-69.34-54.18c-1.34-5.36-4.44-10.02-8.74-13.12
				C6.48,111.45,0,98.8,0,85.43c0-21.83,16.87-39.8,38.26-41.55c-0.05-0.75-0.07-1.47-0.07-2.18C38.19,18.7,56.9,0,79.89,0
				c9.02,0,17.79,2.95,24.99,8.36C112.08,2.95,120.84,0,129.86,0c22.99,0,41.69,18.7,41.69,41.69c0,0.71-0.02,1.44-0.07,2.18
				c21.39,1.75,38.26,19.72,38.26,41.55c0,13.37-6.48,26.02-17.34,33.84c-4.3,3.1-7.4,7.75-8.74,13.11
				C175.72,164.29,147.21,186.57,114.33,186.57z M41.67,50.74C22.56,50.74,7,66.3,7,85.43c0,11.12,5.4,21.65,14.44,28.16
				c5.64,4.06,9.7,10.14,11.44,17.1c7.17,28.78,32.89,48.87,62.55,48.87h18.91c29.66,0,55.38-20.1,62.55-48.87
				c1.73-6.96,5.8-13.04,11.44-17.1c9.04-6.51,14.44-17.04,14.44-28.16c0-19.13-15.56-34.69-34.69-34.69
				c-0.12,0.01-0.26,0.02-0.41,0.02c-0.02,0-0.03,0-0.04,0c-1.01,0-1.97-0.43-2.63-1.19c-0.67-0.77-0.98-1.8-0.83-2.81
				c0.28-1.93,0.41-3.54,0.41-5.06C164.56,22.56,148.99,7,129.86,7c-8.32,0-16.38,3.02-22.69,8.5c-1.32,1.14-3.27,1.14-4.59,0
				C96.26,10.02,88.2,7,79.89,7C60.76,7,45.19,22.56,45.19,41.69c0,1.52,0.13,3.13,0.41,5.06c0.15,1.01-0.15,2.04-0.83,2.81
				c-0.67,0.76-1.62,1.19-2.63,1.19c-0.02,0-0.03,0-0.04,0C41.96,50.76,41.82,50.75,41.67,50.74
				C41.68,50.74,41.68,50.74,41.67,50.74z"/>
		</g>
	</g>
</g>
</svg>
