<svg width="24" height="24" viewBox="0 0 24 24" fill="none" xmlns="http://www.w3.org/2000/svg">
<g clip-path="url(#clip0_17691_205170)">
<circle cx="12" cy="12" r="12" fill="#9FDBA5"/>
<path d="M12 11.2844C13.766 11.2844 15.2025 9.87491 15.2025 8.14233C15.2025 6.40975 13.766 5 12 5C10.234 5 8.79755 6.40975 8.79755 8.14233C8.79755 9.87491 10.234 11.2844 12 11.2844ZM12 6.35484C13.0046 6.35484 13.8217 7.15663 13.8217 8.14233C13.8217 9.12781 13.0046 9.92959 12 9.92959C10.9954 9.92959 10.1783 9.12781 10.1783 8.14233C10.1783 7.15663 10.9954 6.35484 12 6.35484ZM15.571 12.2708H8.42899C6.53808 12.2708 5 13.7802 5 15.6354C5 17.4906 6.53808 19 8.42899 19H15.571C17.4619 19 19 17.4906 19 15.6354C19 13.7802 17.4619 12.2708 15.571 12.2708ZM15.571 17.6452H8.42899C7.29948 17.6452 6.38076 16.7435 6.38076 15.6354C6.38076 14.5273 7.29947 13.6256 8.42899 13.6256H15.571C16.7005 13.6256 17.6192 14.5273 17.6192 15.6354C17.6192 16.7435 16.7005 17.6452 15.571 17.6452Z" fill="white"/>
</g>
<defs>
<clipPath id="clip0_17691_205170">
<rect width="24" height="24" fill="white"/>
</clipPath>
</defs>
</svg>
