<?xml version="1.0" encoding="utf-8"?>
<!-- Generator: Adobe Illustrator 26.1.0, SVG Export Plug-In . SVG Version: 6.00 Build 0)  -->
<svg version="1.1" id="圖層_1" xmlns="http://www.w3.org/2000/svg" xmlns:xlink="http://www.w3.org/1999/xlink" x="0px" y="0px"
	 viewBox="0 0 464.26 375" style="enable-background:new 0 0 464.26 375;" xml:space="preserve">
<style type="text/css">
	.st0{fill:#9FD5C9;}
	.st1{fill:#AFBF84;}
	.st2{opacity:0.23;fill:#5F6A3D;}
	.st3{fill:#CBE7E1;}
	.st4{fill:#A5B375;}
	.st5{opacity:0.09;fill:#3D4420;}
	.st6{fill:#FFFBEE;}
	.st7{fill:#E6E2D5;}
	.st8{fill:#EACDBB;}
	.st9{fill:#EDD9D1;}
	.st10{fill:#D6B8A8;}
	.st11{fill:#CFB2A5;}
	.st12{fill:#DBC5BE;}
	.st13{fill:#B0968C;}
	.st14{opacity:0.13;fill:#492A21;}
	.st15{fill:#F1B390;}
	.st16{fill:#E9987B;}
	.st17{fill:#DD8C74;}
	.st18{opacity:0.27;fill:#A8644F;}
	.st19{opacity:0.28;fill:#B17461;}
	.st20{fill:#FDECDC;}
	.st21{fill:#EBD6C4;}
	.st22{fill:#E7977A;}
	.st23{fill:#D8866C;}
	.st24{fill:#E9CA84;}
	.st25{fill:#DBA76C;}
	.st26{fill:#DBB76E;}
	.st27{fill:#CB8F54;}
	.st28{fill:#CB725A;}
	.st29{fill:#B85F4A;}
	.st30{fill:#F5DAAA;}
	.st31{fill:#F2A890;}
	.st32{opacity:0.19;fill:#CB8F54;}
	.st33{fill:#E5BF9C;}
	.st34{fill:#CC9F76;}
	.st35{fill:#DFA68F;}
	.st36{fill:#BC885D;}
	.st37{opacity:0.16;fill:#582A14;}
	.st38{fill:#E2B890;}
	.st39{fill:#F5DBC5;}
	.st40{fill:#DFAF87;}
	.st41{opacity:0.29;fill:#582A14;}
</style>
<g>
	<circle class="st33" cx="230.76" cy="187.5" r="182.26"/>
	<g>
		<path class="st34" d="M247.15,49.42c6.67,3.33,14.21,6.2,22.36,8.38c8.15,2.18,16.12,3.45,23.56,3.89
			c14.38,0.85,26.75-1.42,34.51-6.31c4.19-2.64,7.05-6.03,8.14-10.12c0.57-2.14,0.62-4.36,0.21-6.62
			C306.21,17.6,269.93,5.24,230.76,5.24c-2.17,0-4.34,0.05-6.49,0.13c-2.97,2.37-5.01,5.22-5.9,8.54
			c-1.09,4.09-0.31,8.45,2.01,12.83C224.67,34.85,234.26,42.98,247.15,49.42z"/>
		<path class="st35" d="M396.31,218.73c-9.07,2.37-19.04,4.13-29.75,5.25c-38.75,4.09-87.17-0.07-137.82-13.6
			s-94.69-34.07-126.24-56.94c-8.44-6.11-15.98-12.39-22.52-18.75c-6.6-6.42-12.17-12.92-16.6-19.4
			c-2.15,4.98-4.08,10.07-5.79,15.26c2.4,3.7,5.19,7.4,8.33,11.09c4.73,5.58,10.26,11.13,16.53,16.6
			c31.72,27.7,82.15,53.31,141.73,69.22c59.58,15.92,116.07,18.87,157.37,10.68c8.54-1.69,16.42-3.86,23.55-6.49
			c0.94-0.35,1.86-0.7,2.77-1.06c1.32-5.43,2.39-10.95,3.21-16.56C406.48,215.8,401.54,217.36,396.31,218.73z"/>
		<path class="st35" d="M211.34,127.66c9.96,3.9,20.43,7.35,31.32,10.26c12.57,3.36,25.01,5.81,37.13,7.41
			c50.7,6.7,95.88-1.56,121.81-21.41c-1.5-4.02-3.13-7.97-4.89-11.85c-3.35-7.36-7.18-14.45-11.44-21.24
			c-3.35,2.4-7.06,4.58-11.1,6.52c-27.69,13.32-70.56,15.62-115.49,3.61c-45.15-12.06-81.32-35.59-98.58-61.09
			c-3.71-5.49-6.55-11.06-8.42-16.64c-11.42,5.51-22.17,12.18-32.12,19.85c-2.31,1.78-4.58,3.62-6.8,5.51
			C126.5,78.97,162.85,108.67,211.34,127.66z"/>
		<path class="st35" d="M203.28,308.42c-71.3-19.05-128.24-54.21-152.13-89.87c3.52,20.52,10.48,39.86,20.25,57.43
			c29.47,24.32,68.27,50.81,119.13,64.4c44.51,11.89,92.04,10.84,127.28,7.29c16.75-9.12,31.9-20.79,44.95-34.49
			C323.21,325.55,264.89,324.87,203.28,308.42z"/>
		<path class="st34" d="M401.61,123.92c-25.93,19.85-71.11,28.11-121.81,21.41c-12.13-1.6-24.56-4.05-37.13-7.41
			c-10.89-2.91-21.36-6.36-31.32-10.26c-48.49-18.99-84.84-48.69-98.56-79.07C97.81,61.32,84.92,76.42,74.7,93.32
			c31.43,40.64,88.82,76.99,159.34,96.19c67.06,18.26,131.75,17.14,178.95,0.57c0.01-0.86,0.03-1.72,0.03-2.58
			C413.02,165.13,408.98,143.71,401.61,123.92z"/>
		<path class="st36" d="M396.92,262.5C206.83,276.4,80.94,189.98,49.79,165.83c-0.84,7.11-1.29,14.33-1.29,21.67
			c0,21.48,3.73,42.09,10.56,61.23c112.59,89.32,244.63,83.58,288.6,78.59C368.59,309.8,385.53,287.68,396.92,262.5z"/>
	</g>
	<path class="st37" d="M379.45,82.08c5.71,17.2,8.8,35.59,8.8,54.71c0,95.92-77.76,173.69-173.69,173.69
		c-78.16,0-144.26-51.63-166.06-122.64c0.18,100.51,81.7,181.93,182.25,181.93c100.66,0,182.26-81.6,182.26-182.26
		C413.02,148.22,400.59,111.84,379.45,82.08z"/>
	<g>
		<path class="st37" d="M98.81,111.04c0-0.08,0.02-0.15,0.02-0.23c0-4.44-3.6-8.05-8.05-8.05c-4.44,0-8.05,3.6-8.05,8.05
			c0,2.07,0.8,3.93,2.08,5.36c-2.17,2.59-3.47,5.92-3.47,9.56c0,8.24,6.68,14.92,14.92,14.92c8.24,0,14.92-6.68,14.92-14.92
			C111.19,118.36,105.84,112.25,98.81,111.04z"/>
		<path class="st37" d="M78.74,142.29c-4.5,0-8.16,3.65-8.16,8.16c0,4.5,3.65,8.16,8.16,8.16c4.5,0,8.16-3.65,8.16-8.16
			C86.9,145.95,83.25,142.29,78.74,142.29z"/>
		<path class="st37" d="M151.66,209.88c-11.12,0-20.13,9.01-20.13,20.13c0,11.12,9.01,20.13,20.13,20.13
			c11.12,0,20.13-9.01,20.13-20.13C171.79,218.9,162.78,209.88,151.66,209.88z"/>
		<path class="st37" d="M311.78,52.99c-4.9,0-8.87,3.97-8.87,8.87s3.97,8.87,8.87,8.87c4.9,0,8.87-3.97,8.87-8.87
			S316.68,52.99,311.78,52.99z"/>
		<path class="st37" d="M288.65,44.16c-2.45,0-4.43,1.99-4.43,4.43c0,2.45,1.99,4.43,4.43,4.43c2.45,0,4.43-1.99,4.43-4.43
			C293.09,46.14,291.1,44.16,288.65,44.16z"/>
		<path class="st37" d="M381.63,233.04c-4.9,0-8.87,3.97-8.87,8.87s3.97,8.87,8.87,8.87c4.9,0,8.87-3.97,8.87-8.87
			S386.53,233.04,381.63,233.04z"/>
		<path class="st37" d="M259.91,340.28c-4.36,2.24-6.37,7-4.51,10.63c1.87,3.63,6.91,4.75,11.27,2.51c4.36-2.24,6.37-7,4.51-10.63
			C269.31,339.17,264.26,338.04,259.91,340.28z"/>
		<path class="st37" d="M276.75,342.31c-1.45,1.5-1.61,3.7-0.35,4.92c1.26,1.22,3.46,1,4.91-0.5c1.45-1.5,1.61-3.7,0.35-4.92
			C280.39,340.59,278.2,340.81,276.75,342.31z"/>
		<path class="st37" d="M364.4,249.9c-2.03,0-3.67,1.64-3.67,3.67c0,2.03,1.64,3.67,3.67,3.67s3.67-1.64,3.67-3.67
			C368.07,251.55,366.43,249.9,364.4,249.9z"/>
		<path class="st37" d="M114.84,302.18c-2.67,0.96-3.96,4.17-2.89,7.17c1.08,3,4.11,4.65,6.79,3.7c2.67-0.96,3.96-4.17,2.89-7.17
			S117.51,301.22,114.84,302.18z"/>
		<path class="st37" d="M128.64,311.19c-1.59,0-2.88,1.29-2.88,2.88s1.29,2.88,2.88,2.88c1.59,0,2.88-1.29,2.88-2.88
			S130.24,311.19,128.64,311.19z"/>
		<path class="st37" d="M111.19,99.09c-2.03,0-3.67,1.64-3.67,3.67c0,2.03,1.64,3.67,3.67,3.67c2.03,0,3.67-1.64,3.67-3.67
			C114.86,100.73,113.22,99.09,111.19,99.09z"/>
	</g>
	<path class="st38" d="M412.85,195.11c-0.19,4.75-0.57,9.45-1.12,14.09c24.41,17.82,37.21,34.73,33.66,47.36
		c-3.7,13.19-24.62,20.4-56.55,21.72c-42.36,1.76-104.11-6.83-170.79-25.53c-73.53-20.62-135.55-48.63-169.32-74.21
		c-19.94-15.1-30.04-29.36-26.85-40.76c3.07-10.95,18-18.35,41.23-21.85c1.66-3.88,3.44-7.7,5.36-11.44
		c-36.84,5.07-61.69,17.83-67.29,37.77c-6.33,22.58,13.22,50.13,50.01,76.54c37.62,27.01,93.27,52.82,157.75,70.91
		c56.99,15.98,111.22,23.22,154.94,22.27c54.12-1.18,92.12-14.91,99.2-40.17C469.42,249.18,449.78,221.57,412.85,195.11z"/>
	<path class="st39" d="M412.85,195.11c-0.09,2.14-0.22,4.26-0.38,6.38c26.72,20.05,47.3,43.09,42.11,60.97
		c-6.59,22.7-48.99,29.1-99.33,30.16c-40.66,0.86-91.11-8.98-144.12-23.35c-59.98-16.25-111.74-38.42-146.74-62.69
		c-34.22-23.74-57.76-46.19-51.88-66.48c4.46-15.36,27.44-25.97,53.96-31.56c0.65-1.36,1.3-2.71,1.98-4.05
		c-36.84,5.07-61.69,17.83-67.29,37.77c-6.33,22.58,13.22,50.13,50.01,76.54c37.62,27.01,93.27,52.82,157.75,70.91
		c56.99,15.98,111.22,23.22,154.94,22.27c54.12-1.18,92.12-14.91,99.2-40.17C469.42,249.18,449.78,221.57,412.85,195.11z"/>
	<g>
		<circle class="st36" cx="19.92" cy="225.92" r="15.99"/>
		<path class="st37" d="M29.2,212.91c1.54,2.46,2.45,5.36,2.45,8.48c0,8.83-7.16,15.99-15.99,15.99c-3.47,0-6.67-1.11-9.29-2.99
			c2.83,4.51,7.83,7.52,13.55,7.52c8.83,0,15.99-7.16,15.99-15.99C35.91,220.55,33.26,215.81,29.2,212.91z"/>
	</g>
	<g>
		<circle class="st35" cx="41.59" cy="253.12" r="8.19"/>
		<path class="st37" d="M46.35,246.46c0.79,1.26,1.25,2.74,1.25,4.34c0,4.52-3.67,8.19-8.19,8.19c-1.78,0-3.41-0.57-4.76-1.53
			c1.45,2.31,4.01,3.85,6.94,3.85c4.52,0,8.19-3.67,8.19-8.19C49.78,250.37,48.43,247.95,46.35,246.46z"/>
	</g>
	<path class="st37" d="M363.88,311.97c54.12-1.18,92.12-14.91,99.2-40.17c6.34-22.62-13.3-50.24-50.23-76.7
		c-0.19,4.75-0.57,9.45-1.12,14.09c24.41,17.82,37.21,34.73,33.66,47.36c-3.7,13.19-24.62,20.4-56.55,21.72
		c-19.19,0.8-42.38-0.54-68.19-3.97l0,0l26.32,37.62C352.76,312.08,358.4,312.09,363.88,311.97z"/>
	<g>
		<circle class="st40" cx="35.91" cy="142.99" r="5.68"/>
		<path class="st37" d="M39.21,138.37c0.55,0.87,0.87,1.9,0.87,3.01c0,3.14-2.54,5.68-5.68,5.68c-1.23,0-2.37-0.4-3.3-1.06
			c1,1.6,2.78,2.67,4.81,2.67c3.14,0,5.68-2.54,5.68-5.68C41.59,141.09,40.65,139.41,39.21,138.37z"/>
	</g>
	<g>
		<circle class="st40" cx="439.02" cy="193.85" r="5.9"/>
		<path class="st37" d="M442.45,189.05c0.57,0.91,0.9,1.98,0.9,3.13c0,3.26-2.64,5.9-5.9,5.9c-1.28,0-2.46-0.41-3.43-1.1
			c1.04,1.66,2.89,2.78,5,2.78c3.26,0,5.9-2.64,5.9-5.9C444.93,191.87,443.95,190.12,442.45,189.05z"/>
	</g>
	<g>
		<circle class="st40" cx="362.76" cy="340.38" r="5.9"/>
		<path class="st37" d="M366.18,335.58c0.57,0.91,0.9,1.98,0.9,3.13c0,3.26-2.64,5.9-5.9,5.9c-1.28,0-2.46-0.41-3.43-1.1
			c1.04,1.66,2.89,2.78,5,2.78c3.26,0,5.9-2.64,5.9-5.9C368.66,338.4,367.68,336.65,366.18,335.58z"/>
	</g>
	<path class="st41" d="M463.08,265.82c-7.08,25.26-45.08,38.99-99.2,40.17c-43.71,0.95-97.95-6.28-154.94-22.27
		c-64.48-18.09-120.13-43.9-157.75-70.91c-30.64-22-49.31-44.78-51.04-64.83c-1.92,21.42,17.3,46.59,51.04,70.81
		c37.62,27.01,93.27,52.82,157.75,70.91c56.99,15.98,111.22,23.22,154.94,22.27c54.12-1.18,92.12-14.91,99.2-40.17
		c1.06-3.77,1.38-7.69,1.03-11.71C463.94,262.03,463.61,263.94,463.08,265.82z"/>
	<g>
		<circle class="st36" cx="444.86" cy="234.54" r="18.58"/>
		<path class="st37" d="M455.64,219.44c1.79,2.86,2.84,6.22,2.84,9.85c0,10.26-8.32,18.58-18.58,18.58c-4.03,0-7.74-1.29-10.79-3.47
			c3.29,5.24,9.1,8.73,15.73,8.73c10.26,0,18.58-8.32,18.58-18.58C463.43,228.31,460.35,222.81,455.64,219.44z"/>
	</g>
	<g>
		<circle class="st35" cx="380.4" cy="280.82" r="16"/>
		<path class="st37" d="M389.7,267.81c1.54,2.46,2.45,5.36,2.45,8.48c0,8.84-7.17,16-16,16c-3.47,0-6.67-1.12-9.29-2.99
			c2.83,4.51,7.83,7.52,13.55,7.52c8.84,0,16-7.17,16-16C396.41,275.45,393.75,270.71,389.7,267.81z"/>
	</g>
</g>
</svg>
