<svg width="19" height="16" viewBox="0 0 19 16" fill="currentColor" xmlns="http://www.w3.org/2000/svg">
<path fill-rule="evenodd" clip-rule="evenodd" d="M3.88041 0.262207C4.43269 0.262207 4.88041 0.709922 4.88041 1.26221V6.11369C4.88041 6.66598 4.43269 7.11369 3.88041 7.11369C3.32812 7.11369 2.88041 6.66598 2.88041 6.11369V1.26221C2.88041 0.709922 3.32812 0.262207 3.88041 0.262207ZM4.88037 10.886H5.98783C6.54012 10.886 6.98783 10.4383 6.98783 9.88599C6.98783 9.3337 6.54012 8.88599 5.98783 8.88599H3.88037H1.77295C1.22066 8.88599 0.772949 9.3337 0.772949 9.88599C0.772949 10.4383 1.22066 10.886 1.77295 10.886H2.88037V14.7375C2.88037 15.2898 3.32809 15.7375 3.88037 15.7375C4.43266 15.7375 4.88037 15.2898 4.88037 14.7375V10.886ZM10.5002 8.49982C10.5002 7.94753 10.0525 7.49982 9.50024 7.49982C8.94796 7.49982 8.50024 7.94753 8.50024 8.49982V14.7374C8.50024 15.2897 8.94796 15.7374 9.50024 15.7374C10.0525 15.7374 10.5002 15.2897 10.5002 14.7374V8.49982ZM9.50024 0.262207C10.0525 0.262207 10.5002 0.709922 10.5002 1.26221V3.72755H11.6077C12.1599 3.72755 12.6077 4.17527 12.6077 4.72755C12.6077 5.27984 12.1599 5.72755 11.6077 5.72755H7.39278C6.84049 5.72755 6.39278 5.27984 6.39278 4.72755C6.39278 4.17527 6.84049 3.72755 7.39278 3.72755H8.50024V1.26221C8.50024 0.709922 8.94795 0.262207 9.50024 0.262207ZM15.1201 10.2721H17.2276C17.7799 10.2721 18.2276 10.7198 18.2276 11.2721C18.2276 11.8244 17.7799 12.2721 17.2276 12.2721H16.1201V14.7374C16.1201 15.2897 15.6724 15.7374 15.1201 15.7374C14.5678 15.7374 14.1201 15.2897 14.1201 14.7374V12.2721H13.0127C12.4604 12.2721 12.0127 11.8244 12.0127 11.2721C12.0127 10.7198 12.4604 10.2721 13.0127 10.2721H15.1201ZM15.1201 0.262207C15.6724 0.262207 16.1201 0.709922 16.1201 1.26221V7.49983C16.1201 8.05211 15.6724 8.49983 15.1201 8.49983C14.5678 8.49983 14.1201 8.05211 14.1201 7.49983V1.26221C14.1201 0.709922 14.5678 0.262207 15.1201 0.262207Z" fill="currentColor"/>
</svg>
