<svg xmlns="http://www.w3.org/2000/svg" width="24" height="24" fill="currentColor" viewBox="0 0 24 24">
  <path stroke-miterlimit="10" stroke-width=".75" d="M16.33 5.52c.704-.56 1.377-1.133 2.086-1.65.418-.302.903-.51 1.358-.748.105-.057.236-.076.36-.101.598-.12.997.283.879.894-.106.572-.393 1.063-.698 1.535-.548.85-1.201 1.617-1.886 2.36-.05.05-.093.1-.087.138.211.617.46 1.227.635 1.85.23.831.323 1.687.218 2.549-.125 1-.66 1.68-1.576 2.07-.56.24-1.151.34-1.749.384-.535.038-1.077.038-1.612.082a2.561 2.561 0 00-.673.164c-.965.365-1.102 1.51-.753 2.29.137.308.255.636.305.963.093.617-.174 1.082-.697 1.39-.355.215-.754.303-1.165.309-3.804.057-7.029-2.423-8.012-6.154C2.11 9.484 4.863 4.84 9.22 3.839c2.596-.598 4.943-.044 7.035 1.617.025.026.062.05.075.063zm-.429.459c-.043-.038-.087-.082-.137-.12C13.96 4.462 11.935 3.927 9.7 4.368c-3.972.78-6.574 4.461-6.014 8.489.311 2.259 1.438 4.02 3.312 5.292 1.17.793 2.472 1.183 3.879 1.246.41.019.816-.006 1.19-.189.416-.201.584-.554.466-1a2.712 2.712 0 00-.224-.58c-.224-.471-.299-.962-.224-1.478.18-1.227 1.046-1.743 2.01-1.863.648-.082 1.308-.069 1.962-.126.535-.044 1.064-.157 1.544-.415.604-.32.921-.83.996-1.51.087-.793-.025-1.56-.212-2.329a6.591 6.591 0 00-.548-1.478c-.273.251-.529.51-.796.736-.99.837-1.426 1.126-2.217 1.58-.05.03-.112.113-.106.163.1.919-.317 1.573-1.046 2.045-.591.384-1.257.434-1.936.327-.834-.132-1.525-.503-2.01-1.22-.088-.126-.144-.258-.057-.403.081-.151.224-.17.374-.145.442.076.747-.12.959-.503.149-.271.292-.542.454-.806.405-.654 1.002-.9 1.75-.812.05.007.136-.044.161-.088.38-.723.86-1.378 1.382-2 .361-.448.76-.876 1.152-1.322zm.106 3.228c-.417 0 .019-.013.044-.032 1.326-1.076 2.515-2.29 3.511-3.687.349-.485.672-.988.84-1.573.025-.088.032-.214-.012-.277-.031-.044-.18-.032-.262 0-.348.157-.703.302-1.02.497-1.227.768-2.273 1.75-3.257 2.813-.342.371-.666.767-.97 1.12.385.396.752.761 1.126 1.139zm-5.416 2.895a.166.166 0 00.025.05c.03.025.056.05.087.07.423.301.896.465 1.413.49.53.025 1.02-.082 1.438-.44.41-.353.66-.78.535-1.347-.105-.478-.417-.793-.884-.906-.485-.12-.902.006-1.195.446a4.13 4.13 0 00-.268.454c-.28.515-.548 1.013-1.151 1.183zm3.885-3.487l-.567.944.647.655c.262-.164.592-.372.928-.58a3.022 3.022 0 00-1.008-1.019z"/>
  <path stroke-miterlimit="10" stroke-width=".75" d="M12.925 6.658c0 .837-.672 1.51-1.506 1.504-.84 0-1.5-.68-1.495-1.541a1.505 1.505 0 011.52-1.498c.821.006 1.481.686 1.481 1.535zm-2.403 0c.006.491.423.906.903.9a.924.924 0 00.896-.912.927.927 0 00-.915-.913.924.924 0 00-.884.925zM7.509 10.29c-.828 0-1.494-.68-1.494-1.524 0-.85.672-1.516 1.519-1.516.828 0 1.488.686 1.481 1.529 0 .843-.672 1.51-1.506 1.51zm.909-1.517c0-.491-.411-.907-.897-.907a.908.908 0 00-.903.894c-.006.497.411.925.903.919a.918.918 0 00.897-.906zM8.119 13.033c0 .837-.672 1.51-1.507 1.51-.84 0-1.5-.68-1.5-1.535 0-.837.672-1.504 1.513-1.498.834 0 1.494.673 1.494 1.523zm-.604-.006a.928.928 0 00-.89-.92c-.48-.005-.897.404-.91.895-.012.49.412.925.897.925.486.006.897-.41.903-.9zM9.308 17.878c-.828 0-1.494-.68-1.488-1.523 0-.849.672-1.516 1.52-1.51.827.007 1.48.686 1.48 1.536a1.496 1.496 0 01-1.512 1.497zm-.89-1.523a.914.914 0 00.89.913c.48.006.896-.403.909-.894a.923.923 0 00-.903-.925.927.927 0 00-.896.906z"/>
</svg>
