<svg xmlns="http://www.w3.org/2000/svg" width="24" height="24" fill="currentColor" viewBox="0 0 24 24">
  <path fill-rule="evenodd" d="M4.5 13.5a1 1 0 011 1v3.333a.667.667 0 00.667.667h11.666a.666.666 0 00.667-.667V14.5a1 1 0 112 0v3.333a2.667 2.667 0 01-2.667 2.667H6.167A2.667 2.667 0 013.5 17.833V14.5a1 1 0 011-1z" clip-rule="evenodd"/>
  <path fill-rule="evenodd" d="M7.126 9.626a1 1 0 011.414 0l3.46 3.46 3.46-3.46a1 1 0 111.414 1.414l-4.167 4.167a1 1 0 01-1.414 0L7.126 11.04a1 1 0 010-1.414z" clip-rule="evenodd"/>
  <path fill-rule="evenodd" d="M12 3.5a1 1 0 011 1v10a1 1 0 11-2 0v-10a1 1 0 011-1z" clip-rule="evenodd"/>
</svg>
