<svg xmlns="http://www.w3.org/2000/svg" width="24" height="24" fill="currentColor" viewBox="0 0 24 24">
  <path d="M3 4.987A.987.987 0 013.987 4h12.338a.987.987 0 01.987.987v1.974a.987.987 0 11-1.974 0v-.987h-4.195v11.844h.987a.987.987 0 110 1.974H8.182a.987.987 0 010-1.974h.987V5.974H4.974v.987a.987.987 0 01-1.974 0V4.987z"/>
  <path fill-rule="evenodd" d="M15.414 16.532a.75.75 0 011.054-.118L18.5 18.04l2.032-1.625a.75.75 0 01.936 1.172l-2.187 1.75a1.25 1.25 0 01-1.562 0l-2.188-1.75a.75.75 0 01-.117-1.054zM21.586 13.469a.75.75 0 01-1.054.117L18.5 11.96l-2.032 1.626a.75.75 0 01-.937-1.172l2.188-1.75a1.25 1.25 0 011.562 0l2.188 1.75a.75.75 0 01.117 1.055z" clip-rule="evenodd"/>
  <path fill-rule="evenodd" d="M18.5 11a.5.5 0 01.5.5v7a.5.5 0 01-1 0v-7a.5.5 0 01.5-.5z" clip-rule="evenodd"/>
</svg>
