<svg xmlns="http://www.w3.org/2000/svg" width="24" height="24" fill="currentColor" viewBox="0 0 24 24">
  <path fill-rule="evenodd" d="M12.116 11.878l5.299-3.547-5.292-3.542a.232.232 0 00-.114-.024c-.07 0-.115.02-.13.03L6.594 8.338l5.293 3.543s.01.006.03.011c.022.007.05.011.083.011.07 0 .107-.02.11-.021l.006-.005zM4.015 7.66l6.76-4.534c.73-.481 1.74-.481 2.46 0l6.76 4.525c.51.344.51 1.015 0 1.36l-6.76 4.525c-.72.49-1.74.49-2.46.008L4.015 9.02c-.51-.344-.51-1.015 0-1.359z" clip-rule="evenodd"/>
  <path d="M12.605 19.11c-.36.241-.87.241-1.23 0l-6.15-4.112a1.12 1.12 0 00-1.22 0c-.51.344-.51 1.007 0 1.35l6.76 4.526c.72.482 1.73.482 2.46 0l6.76-4.525c.51-.344.51-1.007 0-1.35l-.01-.01a1.12 1.12 0 00-1.22 0l-6.15 4.121z"/>
  <path d="M12.605 15.67c-.36.24-.87.24-1.23 0l-6.15-4.113a1.12 1.12 0 00-1.22 0c-.51.344-.51 1.006 0 1.35l6.76 4.526c.72.481 1.73.481 2.46 0l6.76-4.525c.51-.345.51-1.007 0-1.351l-.01-.009a1.12 1.12 0 00-1.22 0l-6.15 4.121z"/>
</svg>
