<svg xmlns="http://www.w3.org/2000/svg" width="24" height="24" fill="currentColor" viewBox="0 0 24 24">
  <path fill-rule="evenodd" d="M14.616 12.366l4.242 7.022a.75.75 0 101.284-.776l-4.44-7.348a1.25 1.25 0 00-2.088-.078l.588.418-.588-.418-2.611 3.672-1.57-1.504a1.25 1.25 0 00-1.876.168l-3.664 5.037a.75.75 0 101.214.882l3.495-4.805 1.572 1.506a1.25 1.25 0 001.884-.179l2.558-3.597z" clip-rule="evenodd"/>
  <path fill-rule="evenodd" d="M3.25 6A2.75 2.75 0 016 3.25h12A2.75 2.75 0 0120.75 6v12A2.75 2.75 0 0118 20.75H6A2.75 2.75 0 013.25 18V6zM6 4.75c-.69 0-1.25.56-1.25 1.25v12c0 .69.56 1.25 1.25 1.25h12c.69 0 1.25-.56 1.25-1.25V6c0-.69-.56-1.25-1.25-1.25H6z" clip-rule="evenodd"/>
  <path fill-rule="evenodd" d="M8.5 7.75a.75.75 0 100 1.5.75.75 0 000-1.5zm-2.25.75a2.25 2.25 0 114.5 0 2.25 2.25 0 01-4.5 0z" clip-rule="evenodd"/>
</svg>
