<svg xmlns="http://www.w3.org/2000/svg" width="24" height="24" fill="currentColor" viewBox="0 0 24 24">
  <path fill-rule="evenodd" d="M9.447 16.2H16.5a1.2 1.2 0 001.2-1.2V6.01a1.2 1.2 0 00-1.193-1.2L14.6 4.8H9.447a1.2 1.2 0 00-1.2 1.2v9a1.2 1.2 0 001.2 1.2zM14.605 3l1.912.01a3 3 0 012.983 3V15a3 3 0 01-3 3H9.447a3 3 0 01-3-3V6a3 3 0 013-3h5.158z" clip-rule="evenodd"/>
  <path fill-rule="evenodd" d="M5.428 8.067a.528.528 0 00-.528.527V17.5c0 1.16.94 2.1 2.1 2.1h6.94c.32 0 .581-.26.581-.582h1.8A2.382 2.382 0 0113.94 21.4H7a3.9 3.9 0 01-3.9-3.9V8.594a2.328 2.328 0 012.328-2.327v1.8zM16.442 8.307a.9.9 0 01.091 1.27l-2.327 2.686a1.9 1.9 0 01-3.022-.197l-1.097-1.662a.9.9 0 011.502-.992l1.097 1.662a.1.1 0 00.16.01l2.326-2.686a.9.9 0 011.27-.091z" clip-rule="evenodd"/>
</svg>
