<svg xmlns="http://www.w3.org/2000/svg" width="24" height="24" fill="currentColor" viewBox="0 0 24 24">
  <path fill-rule="evenodd" d="M11.75 9.47c-1.24 0-2.25 1.01-2.25 2.25s1.01 2.25 2.25 2.25 2.25-1 2.25-2.25-1.01-2.25-2.25-2.25zM8 11.72c0-2.07 1.68-3.75 3.75-3.75 2.07 0 3.75 1.68 3.75 3.75 0 2.07-1.68 3.75-3.75 3.75-2.07 0-3.75-1.68-3.75-3.75z" clip-rule="evenodd"/>
  <path d="M11.83 23.47c-.73 0-1.42-.29-1.94-.81s-.81-1.21-.81-1.94c0-.25-.06-.43-.17-.58a.877.877 0 00-.42-.31.981.981 0 00-.57-.08c-.18.03-.34.12-.47.24-.31.31-.61.51-.95.65-.67.28-1.44.28-2.11 0-.34-.14-.64-.34-.89-.6-.26-.26-.46-.56-.6-.89-.13-.33-.2-.69-.2-1.05 0-.36.07-.72.21-1.05.14-.33.34-.64.6-.89.18-.18.26-.34.3-.52a.928.928 0 00-.39-.93.881.881 0 00-.49-.15h-.18c-.73 0-1.42-.29-1.94-.81S0 12.54 0 11.8s.29-1.42.81-1.94 1.21-.81 1.94-.81c.25 0 .43-.06.57-.17.15-.11.26-.25.32-.42.1-.2.12-.39.09-.56a.937.937 0 00-.25-.47c-.31-.31-.51-.61-.65-.95-.14-.33-.21-.69-.21-1.05 0-.36.07-.72.21-1.05.14-.34.34-.64.6-.89.26-.26.56-.46.89-.6.67-.28 1.44-.28 2.11 0 .34.14.64.34.89.6.18.18.35.26.52.3.18.02.36 0 .53-.07.06-.03.12-.04.19-.06.11-.07.21-.16.29-.28.1-.14.15-.31.15-.49v-.17c0-.73.29-1.42.81-1.94 1.04-1.04 2.85-1.04 3.89 0 .52.52.8 1.21.8 1.94 0 .26.05.43.15.58.1.15.23.26.4.33s.35.1.53.06c.18-.03.34-.12.47-.24.31-.31.61-.51.95-.65.67-.28 1.43-.28 2.11 0a2.796 2.796 0 011.49 1.49c.14.33.21.69.21 1.05 0 .36-.07.72-.21 1.05-.14.34-.34.64-.6.89-.18.18-.26.35-.3.52-.03.18-.01.36.06.52.03.06.04.12.05.19.07.12.16.22.28.29.15.1.32.15.49.15h.17c.74 0 1.43.29 1.95.81s.8 1.21.8 1.94a2.747 2.747 0 01-2.75 2.75c-.26 0-.43.05-.58.15-.15.1-.26.23-.33.4v.01a.921.921 0 00.18 1c.31.31.51.61.65.95.14.33.21.69.21 1.05 0 .36-.07.72-.21 1.05-.14.34-.34.64-.6.89-.25.25-.55.46-.89.6-.67.28-1.43.28-2.11 0-.34-.14-.64-.34-.89-.6-.18-.18-.34-.26-.52-.29a.918.918 0 00-.92.39c-.09.14-.15.32-.15.5v.17c0 .74-.29 1.43-.81 1.94-.53.53-1.22.81-1.95.81zm-3.74-5.24c.33 0 .66.07.97.21.41.15.8.44 1.08.84.28.39.44.86.45 1.34v.11c0 .33.13.65.37.88.47.46 1.3.46 1.77 0 .24-.24.37-.55.37-.88v-.17c0-.48.14-.93.4-1.32s.62-.69 1.05-.88a2.401 2.401 0 012.64.49c.18.18.32.27.47.34.3.12.65.13.96 0 .15-.06.29-.15.4-.27.12-.12.21-.25.27-.41.06-.15.1-.31.1-.48 0-.17-.03-.33-.09-.48-.06-.15-.15-.29-.27-.41-.4-.41-.62-.84-.71-1.31-.09-.47-.03-.96.16-1.4.18-.43.49-.79.88-1.05s.85-.4 1.32-.4c.43 0 .74-.13.98-.37a1.234 1.234 0 000-1.76c-.24-.24-.55-.37-.88-.37h-.17c-.47 0-.93-.14-1.32-.4s-.7-.62-.88-1.06a.902.902 0 01-.06-.22c-.15-.4-.18-.83-.11-1.25.09-.48.31-.91.65-1.25.18-.18.27-.32.34-.47.06-.15.09-.31.09-.48 0-.17-.03-.33-.09-.48a1.39 1.39 0 00-.27-.41c-.12-.12-.25-.21-.41-.27-.3-.13-.65-.13-.96 0-.15.06-.29.15-.4.27-.41.4-.84.63-1.32.71-.47.09-.96.03-1.4-.17-.43-.18-.79-.49-1.05-.88a2.17 2.17 0 01-.42-1.3c0-.43-.13-.74-.37-.98-.47-.47-1.3-.47-1.77 0-.23.23-.37.55-.37.88v.17c0 .47-.14.93-.4 1.32-.25.39-.61.7-1.04.88-.08.03-.15.05-.23.06-.4.14-.83.18-1.25.1-.47-.08-.9-.3-1.24-.64-.19-.18-.32-.27-.48-.34a1.23 1.23 0 00-.96 0c-.15.06-.29.15-.4.27-.12.12-.21.26-.27.41-.06.15-.1.31-.1.48 0 .17.03.33.1.48.07.15.15.29.27.4.4.41.63.84.71 1.32.09.47.03.95-.17 1.4-.15.41-.45.8-.84 1.08-.39.28-.85.44-1.34.45h-.11c-.33 0-.65.13-.88.37-.23.22-.36.54-.36.87 0 .33.13.65.37.88.23.23.55.37.88.37h.17c.47 0 .93.14 1.32.4s.7.62.88 1.05a2.423 2.423 0 01-.48 2.64c-.18.18-.27.32-.34.47-.06.15-.1.31-.1.48 0 .17.03.33.1.48a1.218 1.218 0 00.68.68c.3.12.65.12.96 0 .15-.06.29-.16.41-.27.41-.4.84-.62 1.32-.71.13-.02.27-.04.42-.04z"/>
</svg>
