<svg xmlns="http://www.w3.org/2000/svg" width="24" height="24" fill="currentColor" viewBox="0 0 24 24">
  <path d="M18.92 18.702l-.025.002v-.002h-13.2v.002a.719.719 0 000 1.435v.003h13.2v-.003c.009 0 .017.003.025.003a.72.72 0 000-1.44zM12.32 17.88c3.799 0 5.66-2.174 5.66-5.405V5.703A.701.701 0 0017.276 5h-.927a.703.703 0 00-.703.703c0 .01.003.018.003.028v6.685c0 2.076-1.155 3.427-3.329 3.427-2.174 0-3.329-1.351-3.329-3.427V5.728l.003-.025A.703.703 0 008.29 5h-.928a.703.703 0 00-.703.703v6.772c0 3.23 1.88 5.405 5.66 5.405z"/>
</svg>
