<svg width="306" height="240" viewBox="0 0 306 240" fill="none" xmlns="http://www.w3.org/2000/svg">
  <path
    d="M143 240C209.274 240 263 186.274 263 120C263 53.7258 209.274 0 143 0C76.7258 0 23 53.7258 23 120C23 186.274 76.7258 240 143 240Z"
    fill="url(#paint0_linear_14571_181305)" />
  <g filter="url(#filter0_d_14571_181305)">
    <rect x="82" y="34.5564" width="124.537" height="155.029" rx="16" fill="url(#paint1_linear_14571_181305)" />
  </g>
  <rect x="93" y="54.5564" width="50" height="9.8" rx="4.9" fill="#474A57" />
  <rect x="93" y="82.3564" width="100" height="9.8" rx="4.9" fill="#D5D5D5" />
  <rect x="93" y="110.156" width="100" height="9.8" rx="4.9" fill="#D5D5D5" />
  <rect x="93" y="137.956" width="100" height="9.8" rx="4.9" fill="#D5D5D5" />
  <rect x="93" y="165.756" width="100" height="9.8" rx="4.9" fill="#D5D5D5" />
  <g filter="url(#filter1_d_14571_181305)">
    <path
      d="M281.15 17.4241H221.069C218.27 17.4241 216 19.8126 216 22.759V52.4781C216 55.4245 218.27 57.813 221.069 57.813H281.15C283.949 57.813 286.219 55.4245 286.219 52.4781V22.759C286.219 19.8126 283.949 17.4241 281.15 17.4241Z"
      fill="white" />
  </g>
  <path
    d="M231 44C234.314 44 237 41.3137 237 38C237 34.6863 234.314 32 231 32C227.686 32 225 34.6863 225 38C225 41.3137 227.686 44 231 44Z"
    fill="#4EABE6" />
  <rect x="245" y="32" width="32" height="12" rx="6" fill="#D5D5D5" />
  <path fill-rule="evenodd" clip-rule="evenodd"
    d="M178.109 196.563C190.989 196.563 202.959 192.667 212.905 185.989L253.604 224.841L268.364 207.715L229.091 170.226C236.345 160.018 240.609 147.539 240.609 134.063C240.609 99.5454 212.627 71.5632 178.109 71.5632C143.592 71.5632 115.609 99.5454 115.609 134.063C115.609 168.581 143.592 196.563 178.109 196.563ZM231.418 134.063C231.418 163.286 207.728 186.977 178.505 186.977C149.282 186.977 125.592 163.286 125.592 134.063C125.592 104.84 149.282 81.15 178.505 81.15C207.728 81.15 231.418 104.84 231.418 134.063Z"
    fill="#4EABE6" />
  <g filter="url(#filter2_b_14571_181305)">
    <path
      d="M178.5 188C208.6 188 233 163.823 233 134C233 104.177 208.6 80 178.5 80C148.4 80 124 104.177 124 134C124 163.823 148.4 188 178.5 188Z"
      fill="white" fill-opacity="0.3" />
  </g>
  <path
    d="M253.601 224.843L268.361 207.717L270.584 209.84C272.742 211.899 274.033 214.775 274.175 217.836C274.316 220.898 273.297 223.893 271.34 226.163C269.384 228.433 266.65 229.792 263.742 229.941C260.833 230.09 257.987 229.017 255.83 226.958L253.607 224.836L253.601 224.843Z"
    fill="#E1DCEB" />
  <path fill-rule="evenodd" clip-rule="evenodd"
    d="M49.3144 62.1717C49.2956 60.7456 49.1167 59.3073 48.7589 57.8592C47.5042 52.7771 41.9064 49.5144 35.9484 48.7473C29.9927 47.9802 23.7993 49.7258 21.4123 54.1465C20.047 56.674 19.8587 58.8525 20.4166 60.6891C20.9721 62.5159 22.2903 64.0304 24.0793 65.2106C29.0675 68.4978 37.8034 69.169 41.7887 67.7946C43.6319 67.1578 45.4327 66.3908 47.1864 65.513C46.1836 71.259 42.4477 76.7024 37.4619 81.6075C26.6264 92.2683 9.81169 100.36 0.654562 103.335C0.162573 103.495 -0.110516 104.04 0.0424948 104.554C0.195506 105.068 0.718088 105.356 1.21008 105.196C10.5485 102.162 27.6905 93.8984 38.7402 83.0262C44.4487 77.4105 48.5164 71.0893 49.2109 64.4435C62.1156 57.242 72.7134 44.1767 81.774 33.1815C82.1106 32.7758 82.0659 32.1587 81.6751 31.8071C81.2844 31.4579 80.6958 31.5022 80.3592 31.9103C71.6681 42.4556 61.5812 54.9997 49.3144 62.1717ZM47.4383 63.2166C47.509 61.6136 47.3582 59.9859 46.951 58.3435C45.8658 53.9449 40.8776 51.3437 35.72 50.6798C32.5585 50.2742 29.3077 50.6086 26.7583 51.7985C25.1552 52.546 23.8345 53.6302 23.0389 55.1055C21.9937 57.0404 21.7677 58.6951 22.1961 60.099C22.6245 61.5128 23.6887 62.6486 25.0752 63.5608C29.6208 66.5579 37.575 67.1948 41.2025 65.9433C43.3423 65.2057 45.4186 64.2861 47.4383 63.2166Z"
    fill="#474A57" />
  <circle cx="278" cy="155" r="6" fill="#E3E3E3" />
  <path fill-rule="evenodd" clip-rule="evenodd"
    d="M51.3842 196.394C52.455 195.993 53.5818 195.459 54.4507 194.686C55.4827 193.769 55.9024 192.587 56.1843 191.343C56.5461 189.744 56.6907 188.042 57.1295 186.441C57.2919 185.846 57.6046 185.621 57.7387 185.522C58.0778 185.27 58.4206 185.202 58.743 185.228C59.1252 185.257 59.6501 185.409 59.9953 186.083C60.0446 186.18 60.1086 186.327 60.1516 186.528C60.183 186.676 60.2033 187.137 60.2366 187.328C60.3196 187.797 60.3892 188.266 60.4544 188.737C60.6716 190.306 60.7966 191.639 61.4827 193.081C62.4138 195.038 63.3467 196.235 64.612 196.766C65.8354 197.279 67.2981 197.182 69.167 196.78C69.3449 196.735 69.5209 196.696 69.695 196.664C70.519 196.513 71.3067 197.082 71.4686 197.946C71.6304 198.809 71.1067 199.65 70.2901 199.84C70.1197 199.88 69.9516 199.917 69.7855 199.952C67.26 200.61 64.3362 202.958 62.6372 205.014C62.1135 205.648 61.3467 207.421 60.5646 208.551C59.9873 209.386 59.3387 209.935 58.7941 210.13C58.4292 210.261 58.1215 210.24 57.8673 210.174C57.4981 210.079 57.1917 209.868 56.9566 209.533C56.8286 209.35 56.7098 209.104 56.6532 208.791C56.6261 208.64 56.623 208.257 56.6236 208.083C56.4643 207.506 56.2692 206.943 56.127 206.36C55.788 204.971 55.1227 204.092 54.3326 202.93C53.5935 201.843 52.7997 201.159 51.636 200.614C51.4846 200.575 50.263 200.26 49.8317 200.08C49.2015 199.815 48.9012 199.371 48.7923 199.132C48.607 198.727 48.588 198.373 48.6249 198.077C48.6797 197.641 48.8655 197.268 49.1953 196.967C49.3997 196.78 49.7049 196.598 50.1135 196.509C50.4292 196.44 51.2667 196.4 51.3842 196.394ZM58.5504 194.13C58.607 194.263 58.6673 194.396 58.7313 194.531C60.095 197.397 61.6199 198.998 63.4735 199.774L63.5356 199.799C62.2956 200.768 61.1732 201.851 60.3153 202.889C59.9621 203.317 59.4944 204.205 58.9892 205.115C58.5301 203.545 57.7793 202.435 56.8353 201.045C56.1141 199.985 55.3584 199.187 54.4298 198.537C55.1504 198.148 55.8378 197.692 56.4366 197.16C57.4335 196.273 58.0926 195.246 58.5504 194.13Z"
    fill="#4EABE6" />
  <defs>
    <filter id="filter0_d_14571_181305" x="52" y="24.5564" width="184.537" height="215.029" filterUnits="userSpaceOnUse"
      color-interpolation-filters="sRGB">
      <feFlood flood-opacity="0" result="BackgroundImageFix" />
      <feColorMatrix in="SourceAlpha" type="matrix" values="0 0 0 0 0 0 0 0 0 0 0 0 0 0 0 0 0 0 127 0"
        result="hardAlpha" />
      <feOffset dy="20" />
      <feGaussianBlur stdDeviation="15" />
      <feComposite in2="hardAlpha" operator="out" />
      <feColorMatrix type="matrix" values="0 0 0 0 0.570833 0 0 0 0 0.570833 0 0 0 0 0.570833 0 0 0 0.19 0" />
      <feBlend mode="normal" in2="BackgroundImageFix" result="effect1_dropShadow_14571_181305" />
      <feBlend mode="normal" in="SourceGraphic" in2="effect1_dropShadow_14571_181305" result="shape" />
    </filter>
    <filter id="filter1_d_14571_181305" x="209" y="8.42407" width="96.2192" height="66.3889"
      filterUnits="userSpaceOnUse" color-interpolation-filters="sRGB">
      <feFlood flood-opacity="0" result="BackgroundImageFix" />
      <feColorMatrix in="SourceAlpha" type="matrix" values="0 0 0 0 0 0 0 0 0 0 0 0 0 0 0 0 0 0 127 0"
        result="hardAlpha" />
      <feOffset dx="6" dy="4" />
      <feGaussianBlur stdDeviation="6.5" />
      <feComposite in2="hardAlpha" operator="out" />
      <feColorMatrix type="matrix" values="0 0 0 0 0.104618 0 0 0 0 0.465612 0 0 0 0 0.545833 0 0 0 0.09 0" />
      <feBlend mode="normal" in2="BackgroundImageFix" result="effect1_dropShadow_14571_181305" />
      <feBlend mode="normal" in="SourceGraphic" in2="effect1_dropShadow_14571_181305" result="shape" />
    </filter>
    <filter id="filter2_b_14571_181305" x="116" y="72" width="125" height="124" filterUnits="userSpaceOnUse"
      color-interpolation-filters="sRGB">
      <feFlood flood-opacity="0" result="BackgroundImageFix" />
      <feGaussianBlur in="BackgroundImageFix" stdDeviation="4" />
      <feComposite in2="SourceAlpha" operator="in" result="effect1_backgroundBlur_14571_181305" />
      <feBlend mode="normal" in="SourceGraphic" in2="effect1_backgroundBlur_14571_181305" result="shape" />
    </filter>
    <linearGradient id="paint0_linear_14571_181305" x1="142.075" y1="-39.0749" x2="144.533" y2="382.347"
      gradientUnits="userSpaceOnUse">
      <stop stop-color="#F2F2F2" />
      <stop offset="1" stop-color="#EFEFEF" />
    </linearGradient>
    <linearGradient id="paint1_linear_14571_181305" x1="144.269" y1="34.5564" x2="144.269" y2="189.585"
      gradientUnits="userSpaceOnUse">
      <stop stop-color="white" />
      <stop offset="0.71875" stop-color="#FAFAFA" />
    </linearGradient>
  </defs>
</svg>
