<?xml version="1.0" encoding="utf-8"?>
<!-- Generator: Adobe Illustrator 26.1.0, SVG Export Plug-In . SVG Version: 6.00 Build 0)  -->
<svg version="1.1" id="圖層_1" xmlns="http://www.w3.org/2000/svg" xmlns:xlink="http://www.w3.org/1999/xlink" x="0px" y="0px"
	 viewBox="0 0 388.05 603.43" style="enable-background:new 0 0 388.05 603.43;" xml:space="preserve">
<style type="text/css">
	.st0{fill:#5266A0;}
	.st1{fill:#FFFFFF;}
	.st2{fill:#F4C144;}
	.st3{opacity:0.42;}
	.st4{fill:#8E570E;}
	.st5{fill:#161E3F;}
	.st6{fill:#162550;}
	.st7{opacity:0.25;}
	.st8{fill:#4C6296;}
	.st9{fill:#6C84C0;}
	.st10{fill:#F09EC0;}
	.st11{opacity:0.51;}
	.st12{fill:#DE679C;}
	.st13{fill:none;stroke:#161E3F;stroke-width:4;stroke-miterlimit:10;}
	.st14{fill:#F9D8E7;}
	.st15{fill:#FAEAD6;}
	.st16{fill:#515677;}
	.st17{fill:#7A7FA2;}
	.st18{fill:#F3A243;}
	.st19{fill:#7C551D;}
	.st20{fill:#FFBE2E;}
	.st21{fill:#C6C9D0;}
	.st22{fill:#E6E7EB;}
	.st23{fill:#31466A;}
	.st24{fill:#535A80;}
	.st25{fill:#363C4F;}
	.st26{fill:#231815;}
</style>
<g>
	<g>
		<path class="st20" d="M26.76,307.03c0,0,42.09,159.18,184.53,148.01c42.54-3.34,79.54-24.81,104.49-59.22
			c33.55-46.27,50.97-112.53,41.35-168.49c-3.21-18.66-9.31-41.9-26.43-52.7c-25.37-16.01-57.32,7.69-76.15,23.48
			c-2.5,2.1-6.28,1.58-8.08-1.15c-14.44-21.99-73.56-100.44-119.78,8.82c-1.23,2.9-4.62,4.18-7.44,2.79
			C95.35,196.79-1.87,157.12,26.76,307.03z"/>
	</g>
	<g>
		
			<ellipse transform="matrix(0.866 -0.5 0.5 0.866 -101.5801 57.4329)" class="st15" cx="56.38" cy="218.27" rx="17.34" ry="10.95"/>
	</g>
	<g>
		<path class="st15" d="M250.11,198.93c-7.4-10.86-19.57-24.23-29.69-32.75c-45.82-38.2-75.89-2.69-97.28,41.96
			c-8.43-2.98-26.44-9.61-35.33-10.92c-72.61-9.68-73.17,48.68-60.72,105.13c4.09,19.76,0.16,11.15,7.08,29.96
			c-8.02-28.74-5.16-30.35-6.13-60.24c-1.49-45.83,16.78-75.4,66.32-67.32c9.35,1.51,17.98,2.76,26.65,6.35
			c2.35,0.98,5.09-0.02,6.23-2.33c3.06-6.22,7.46-10.82,11.13-16.6c28.04-45.24,69.43-36.18,102.54,1.16
			c4.52,5.08,1.61,1.06,5.26,6.58c1.4,2.31,4.51,2.96,6.71,1.38c18.05-12.38,38.05-20.88,60.58-20.55
			c39.94,1.85,46.25,60.02,46.67,91.07C366.33,185.65,332.01,135.44,250.11,198.93z"/>
	</g>
	<g class="st3">
		<path class="st4" d="M73.75,395.58c0,0,230.26,72.2,287.01-148.2c0,0-1.14,174.11-126.14,206.45
			C234.62,453.83,138.53,476.68,73.75,395.58z"/>
	</g>
	<g>
		<path class="st5" d="M27.1,306.95c17.06,55.37,53.52,108.63,107.64,132.62c15.07,6.61,31.52,10.77,47.9,12.18
			c9.36,1.02,19.59,0.69,29,0.23c37.47-2.53,73.19-20.82,97.28-49.66c30.11-36.89,46.49-84.32,48.93-131.66
			c0.69-19.36-1.07-39.25-6.27-57.93c-16.54-58.28-56.84-44.75-93.67-12.93c-0.39,0.33-0.89,0.75-1.24,1.04
			c-3.82,3.27-10.15,2.44-12.95-1.75c-2.31-3.29-4.81-7.03-7.3-10.17c-15.81-20.25-42.43-46.42-69.51-31.66
			c-13.05,7.21-21.71,20.2-28.85,32.92c0,0-3.84,7.34-3.84,7.34s-3.49,7.55-3.49,7.55l-0.87,1.89c-1.19,3.06-4.46,5.4-7.8,5.47
			c-1.97,0.14-3.84-0.65-5.54-1.56c-20.42-9.59-44.85-18.52-66.99-10.17C13.79,216.32,21.46,275.66,27.1,306.95L27.1,306.95z
			 M26.42,307.1c-5.87-32.93-15.25-92.25,21.52-109.98c23.61-10.1,50.24-1.67,72.36,8.34c0.94,0.57,2.19,0.53,2.93-0.33
			c0.53-0.72,0.96-1.97,1.33-2.76c30.56-73.57,78.43-74.37,122.54-10.77c0,0,2.35,3.5,2.35,3.5c0.28,0.43,0.71,0.7,1.22,0.81
			c1.16,0.28,2.04-0.73,2.86-1.38c23.66-19.94,61.94-43.94,87.84-14.38c11.59,13.76,15.44,31.11,18.08,48.16
			c4.89,33.77,0.55,68.44-9.54,100.8c-20.75,64.49-62.15,119.7-133.49,128.4c-28.4,3.31-58.08-0.45-84.05-12.67
			C77.74,418.97,43.81,363.02,26.42,307.1L26.42,307.1z"/>
	</g>
	<g>
		<path class="st5" d="M119.07,208.96c-20.48-7.5-46.48-15.59-67.59-7.14c-14.1,5.57-21.42,20.47-24.59,34.49
			c-5.37,23.02-3.43,47.32,1.24,70.45c6.14,19.77,16.38,39.4,27.64,57.03c16.67,26.56,38.43,50.35,65.23,66.81
			c4.01,2.53,9.39,5.44,13.65,7.55c5.4,2.61,12.44,5.43,18.07,7.48c11.24,3.59,22.86,6.29,34.61,7.59c7.64,0.9,16.28,1.2,23.96,1.37
			c0.24,0.01,0.43,0.21,0.42,0.45c-0.01,0.22-0.17,0.4-0.39,0.42c-16.06,2.35-32.63,2.42-48.64-0.35
			C100.95,444.39,57.64,394.14,35.74,338.1c-3.99-10.06-7.47-20.24-10.32-30.71c-2.71-15.82-5.14-31.69-6.11-47.89
			c-0.44-12.19-0.17-25.03,3.93-36.64c2.3-7.11,6.31-13.94,11.66-19.18c1.42-1.19,3.5-3.22,5.12-4.15c0,0,2.75-1.82,2.75-1.82
			s2.93-1.48,2.93-1.48c16.64-7.81,35.48-4.47,51.97,1.46c7.61,2.83,14.93,6.3,21.78,10.5C119.9,208.49,119.56,209.13,119.07,208.96
			L119.07,208.96z"/>
	</g>
	<g>
		<path class="st5" d="M211.26,454.6c18.32-3.61,36.15-9.16,52.42-18.28c9.6-5.18,18.81-11.75,27.27-18.6
			c23.59-18.23,40.7-44.59,49.72-73c9.17-28.2,14.61-57.89,14.37-87.56c-0.54-24.17-2.49-54.01-16.83-74.24
			c-2.24-2.9-4.81-5.57-7.73-7.93c-0.43-0.28,0.02-1.01,0.47-0.74c14.11,7.26,21.83,22.6,26.32,37.16
			c13.5,44.43,6.75,93.24-12.14,135.06c-6.34,13.9-13.53,27.28-21.47,40.25c-7.87,12.93-16.58,25.84-27.91,36.47
			c-22.68,21.13-53.94,33.1-84.42,32.28c-0.24-0.01-0.43-0.21-0.43-0.45C210.91,454.81,211.06,454.64,211.26,454.6L211.26,454.6z"/>
	</g>
</g>
</svg>
