<svg width="94" height="28" viewBox="0 0 94 28" fill="none" xmlns="http://www.w3.org/2000/svg">
<g clip-path="url(#clip0_6242_54490)">
<path fill-rule="evenodd" clip-rule="evenodd" d="M58.0604 21.8972C52.6758 25.8788 44.8436 27.9998 38.0884 27.9998C28.6245 27.9998 20.1397 24.508 13.6781 18.6992C13.1886 18.2424 13.6129 17.6223 14.2328 17.9812C21.1839 22.0278 29.7667 24.4427 38.6431 24.4427C44.6151 24.4427 51.2072 23.2027 57.2771 20.6245C58.1906 20.2656 58.9414 21.2446 58.0603 21.8972H58.0604Z" fill="#FF9900"/>
<path fill-rule="evenodd" clip-rule="evenodd" d="M60.3122 19.319C59.6271 18.4379 55.7435 18.8947 54.0139 19.1232C53.4918 19.1884 53.3939 18.7316 53.8834 18.4052C56.9836 16.2187 62.0419 16.8714 62.6293 17.5893C63.2167 18.3073 62.4661 23.3978 59.5612 25.8131C59.1045 26.172 58.6801 25.9762 58.8761 25.4867C59.529 23.855 60.9975 20.2324 60.3122 19.319Z" fill="#FF9900"/>
<path fill-rule="evenodd" clip-rule="evenodd" d="M54.1113 3.06808V0.946341C54.1076 0.876793 54.1185 0.807243 54.1434 0.742211C54.1684 0.67718 54.2067 0.618121 54.256 0.568874C54.3052 0.519626 54.3643 0.481293 54.4293 0.456362C54.4943 0.431432 54.5639 0.420464 54.6334 0.424171H64.0973C64.2398 0.421171 64.3777 0.474199 64.4815 0.571849C64.5852 0.669499 64.6465 0.80397 64.6522 0.946341V2.74122C64.6522 3.03492 64.3911 3.42632 63.9342 4.07926L59.0392 11.063C60.8667 11.0303 62.7923 11.2913 64.4238 12.2048C64.7827 12.4006 64.8805 12.727 64.9133 13.0207V15.2724C64.9133 15.5988 64.5869 15.9575 64.2282 15.7619C61.3237 14.2281 57.4403 14.0649 54.2422 15.7946C53.9159 15.9577 53.5571 15.6314 53.5571 15.3051V13.1515C53.5571 12.8251 53.5571 12.238 53.916 11.7156L59.5944 3.58976H54.6661C54.5237 3.59276 54.3859 3.5398 54.2821 3.44226C54.1784 3.34471 54.117 3.21037 54.1113 3.06808ZM19.6171 16.219H16.7454C16.6167 16.2061 16.4958 16.1511 16.4015 16.0627C16.3071 15.9742 16.2444 15.8571 16.2232 15.7295V0.979006C16.2288 0.836652 16.2901 0.702197 16.3938 0.60455C16.4976 0.506903 16.6355 0.453862 16.7779 0.456835H19.4539C19.5863 0.458836 19.7131 0.510105 19.8097 0.600623C19.9062 0.691141 19.9656 0.814409 19.9761 0.946341V2.87179H20.0413C20.7264 1.01167 22.0647 0.130568 23.8269 0.130568C25.6218 0.130568 26.7639 1.01167 27.5472 2.87179C28.2323 1.01167 29.8316 0.130568 31.5288 0.130568C32.7362 0.130568 34.0416 0.62007 34.8575 1.76231C35.771 3.00235 35.5755 4.79723 35.5755 6.39631V15.7296C35.5698 15.872 35.5085 16.0065 35.4048 16.1041C35.3011 16.2017 35.1632 16.2548 35.0207 16.2518H32.1812C31.8875 16.2191 31.659 15.9908 31.659 15.7296V7.89739C31.659 7.27732 31.7243 5.71091 31.5938 5.1235C31.3654 4.1445 30.7454 3.85079 29.8968 3.85079C29.5222 3.86146 29.1588 3.98145 28.8515 4.19599C28.5442 4.41053 28.3063 4.71026 28.1672 5.05827C27.8735 5.80881 27.9061 7.04895 27.9061 7.89739V15.7296C27.9005 15.872 27.8392 16.0065 27.7355 16.1041C27.6318 16.2017 27.4938 16.2548 27.3514 16.2518H24.4796C24.1859 16.2191 23.9574 15.9908 23.9574 15.7296V7.89739C23.9574 6.26565 24.2185 3.81813 22.1952 3.81813C20.1393 3.81813 20.2046 6.16774 20.2046 7.89739V15.7296C20.184 15.8692 20.1128 15.9963 20.0044 16.0867C19.896 16.177 19.7581 16.2241 19.6171 16.2192V16.219ZM72.8106 0.130568C77.0857 0.130568 79.4027 3.78556 79.4027 8.45223C79.4027 12.9558 76.8573 16.5454 72.8106 16.5454C68.6334 16.5454 66.349 12.8904 66.349 8.32166C66.3164 3.72023 68.6334 0.130171 72.8106 0.130171V0.130568ZM72.8106 3.16549C70.6893 3.16549 70.5589 6.06994 70.5589 7.86482C70.5589 9.6597 70.5262 13.5105 72.778 13.5105C74.9972 13.5105 75.1276 10.4102 75.1276 8.51746C75.1276 7.27732 75.0624 5.77624 74.7034 4.60133C74.377 3.55699 73.7244 3.16549 72.8106 3.16549ZM84.9178 16.219H82.046C81.7523 16.1864 81.5238 15.958 81.5238 15.6969V0.913473C81.5418 0.778716 81.6078 0.654982 81.7098 0.565041C81.8117 0.475099 81.9427 0.425003 82.0787 0.423971H84.7547C84.876 0.428249 84.9927 0.471992 85.0869 0.54856C85.1811 0.625127 85.2478 0.730341 85.2768 0.848241V3.09996H85.3421C86.1579 1.07661 87.2675 0.130268 89.2582 0.130268C90.5309 0.130268 91.8036 0.587007 92.6195 1.85991C93.37 3.03472 93.37 5.0254 93.37 6.46135V15.762C93.3503 15.8932 93.2827 16.0125 93.1803 16.0969C93.0778 16.1812 92.9478 16.2246 92.8152 16.2188H89.9432C89.6822 16.1861 89.4537 15.9904 89.421 15.762V7.73425C89.421 6.10251 89.6168 3.75269 87.6262 3.75269C86.9411 3.75269 86.2882 4.20943 85.9619 4.9275C85.5703 5.84098 85.5051 6.72238 85.5051 7.73406V15.6972C85.4869 15.8405 85.4173 15.9724 85.3093 16.0684C85.2013 16.1644 85.0622 16.218 84.9177 16.2193L84.9178 16.219ZM46.573 9.1702C46.573 10.2798 46.6057 11.2261 46.0508 12.2383C45.5941 13.0542 44.876 13.5437 44.0602 13.5437C42.9506 13.5437 42.2979 12.6952 42.2979 11.4551C42.2979 9.00756 44.4844 8.55062 46.573 8.55062V9.1702ZM49.4775 16.1865C49.3844 16.2677 49.2683 16.3176 49.1454 16.3293C49.0225 16.341 48.899 16.3139 48.7924 16.2517C47.846 15.4685 47.6505 15.0769 47.128 14.3263C45.5616 15.9248 44.4194 16.4149 42.3961 16.4149C39.9812 16.4149 38.0884 14.9137 38.0884 11.944C38.0884 9.59437 39.3611 8.02796 41.1565 7.24465C42.7229 6.55955 44.9097 6.42878 46.5737 6.23298V5.87404C46.5737 5.18894 46.6389 4.37287 46.2148 3.78546C45.8558 3.26329 45.2031 3.03492 44.6162 3.03492C43.5066 3.03492 42.5276 3.58966 42.2991 4.76457C42.2339 5.0256 42.0708 5.28674 41.8096 5.28674L39.0357 4.99303C38.8074 4.9278 38.5462 4.76467 38.6115 4.40563C39.2641 1.01167 42.2991 0 45.0404 0C46.4436 0 48.2711 0.358936 49.3806 1.43584C50.7839 2.74122 50.6534 4.50393 50.6534 6.39621V10.8671C50.6534 12.2051 51.2081 12.7925 51.7303 13.5431C51.9261 13.8041 51.9586 14.1305 51.7303 14.2936C51.1102 14.7831 50.066 15.6969 49.4785 16.1864L49.4775 16.1865ZM8.88054 9.1702C8.88054 10.2798 8.91321 11.2261 8.35837 12.2383C7.90164 13.0542 7.18356 13.5437 6.36769 13.5437C5.25812 13.5437 4.60548 12.6952 4.60548 11.4551C4.60548 9.00756 6.79196 8.55062 8.88054 8.55062V9.1702ZM11.7523 16.1865C11.6593 16.2677 11.5432 16.3176 11.4203 16.3293C11.2974 16.341 11.1739 16.3139 11.0672 16.2517C10.1209 15.4685 9.92538 15.0769 9.40291 14.3263C7.8365 15.9248 6.69426 16.4149 4.67101 16.4149C2.25606 16.4149 0.363281 14.9137 0.363281 11.944C0.363281 9.59437 1.63599 8.02796 3.43137 7.24465C4.99778 6.55955 7.18456 6.42878 8.84857 6.23298V5.87404C8.84857 5.18894 8.9138 4.37287 8.48963 3.78546C8.1307 3.26329 7.47796 3.03492 6.89105 3.03492C5.78148 3.03492 4.80247 3.58966 4.574 4.76457C4.50877 5.0256 4.34563 5.28674 4.0845 5.28674L1.31061 4.99303C1.08225 4.9278 0.821112 4.76467 0.886346 4.40563C1.53898 1.01167 4.574 0 7.31522 0C8.7185 0 10.5459 0.358936 11.6555 1.43584C13.0588 2.74122 12.9282 4.50393 12.9282 6.39621V10.8671C12.9282 12.2051 13.483 12.7925 14.0051 13.5431C14.2009 13.8041 14.2335 14.1305 14.0051 14.2936C13.3851 14.7831 12.3408 15.6969 11.7534 16.1864L11.7523 16.1865Z" fill="black"/>
</g>
<defs>
<clipPath id="clip0_6242_54490">
<rect width="93.007" height="28" fill="white" transform="translate(0.363281)"/>
</clipPath>
</defs>
</svg>
