<svg width="56" height="56" viewBox="0 0 56 56" fill="none" xmlns="http://www.w3.org/2000/svg">
<rect width="56" height="56" rx="5" fill="#EEEFF4"/>
<g opacity="0.7" filter="url(#filter0_f_8815_825792)">
<mask id="mask0_8815_825792" style="mask-type:alpha" maskUnits="userSpaceOnUse" x="8" y="17" width="40" height="30">
<path d="M47.2 17V46.4H8V33.0673C8 32.4666 8 32.1188 8 32.1188V17H47.2Z" fill="url(#paint0_linear_8815_825792)"/>
</mask>
<g mask="url(#mask0_8815_825792)">
<path d="M59.45 15.3667V52.1167H5.54999V32.9272C5.54999 32.2706 5.54999 31.8904 5.54999 31.8904V15.3667H59.45Z" fill="url(#paint1_linear_8815_825792)"/>
<path d="M75.5416 57.1751V47.4915V46.2255V38.7308V38.1194C72.1597 37.8791 67.9919 38.0888 67.1278 38.173C64.8606 38.3948 62.5915 38.6029 60.3204 38.7844C56.0098 39.1299 51.6923 39.3795 47.3675 39.4433C40.7634 39.5403 34.3195 38.9229 27.7705 38.1589C24.8285 37.8158 21.8881 37.4355 18.9314 37.2442C12.9605 36.858 7.00827 37.8216 1.04206 37.9163C-0.258584 37.937 -1.55884 37.9363 -2.85832 37.8815C-2.85832 37.8815 -2.85832 38.268 -2.85832 38.9354V46.8526V47.265V57.1751V58.4434H60.3208H75.5416V57.1751Z" fill="#99D6F2"/>
<path d="M75.5416 57.1757V47.4921V46.2261V38.7314C72.2854 38.5589 69.1777 39.0753 65.968 39.4923C64.0892 39.7365 62.2062 39.9497 60.3208 40.1308C58.8855 40.2689 57.449 40.389 56.011 40.4907C42.6728 41.4356 29.3885 40.3104 16.0783 39.5307C9.76942 39.161 3.45982 39.0127 -2.85832 38.9356V46.8528V47.2652V57.1753V58.4436H60.3208H75.5416V57.1757Z" fill="#348ECE"/>
<path d="M24.8601 29.8692C26.9116 27.8008 26.9116 24.4473 24.8601 22.3789C22.8087 20.3105 19.4826 20.3105 17.4312 22.3789C15.3797 24.4473 15.3797 27.8008 17.4312 29.8692C19.4826 31.9376 22.8087 31.9376 24.8601 29.8692Z" fill="#F8B62D"/>
<path d="M31.6161 28.0326C31.5505 28.0326 31.4854 28.0362 31.422 28.043C30.9698 27.4217 30.1801 27.0098 29.2802 27.0098C29.1079 27.0098 28.94 27.025 28.7773 27.0538C28.278 26.4065 27.4542 25.9834 26.5219 25.9834C25.2337 25.9834 24.1523 26.7901 23.8484 27.8804C23.82 27.8792 23.792 27.8784 23.7632 27.8784C22.7251 27.8784 21.8833 28.6475 21.8833 29.596C21.8833 30.0155 22.0587 30.3683 22.335 30.6504C22.6035 30.9244 22.9669 31.1318 23.3578 31.2688C23.7535 31.4079 24.1711 31.4842 24.5879 31.5485C25.8953 31.7495 27.2316 31.7319 28.5465 31.6045C29.8185 31.481 31.1561 31.3272 32.356 30.9049C32.4058 30.8873 32.4552 30.8693 32.5042 30.8509C33.0368 30.6508 33.3167 30.1046 33.3167 29.5852C33.3162 28.7282 32.5549 28.0326 31.6161 28.0326Z" fill="white"/>
</g>
</g>
<mask id="mask1_8815_825792" style="mask-type:alpha" maskUnits="userSpaceOnUse" x="8" y="13" width="40" height="30">
<path d="M47.6 13.2998V42.6998H8.39999V29.3671C8.39999 28.7664 8.39999 28.4186 8.39999 28.4186V13.2998H47.6Z" fill="url(#paint2_linear_8815_825792)"/>
</mask>
<g mask="url(#mask1_8815_825792)">
<path d="M59.85 11.6665V48.4165H5.94998V29.227C5.94998 28.5705 5.94998 28.1903 5.94998 28.1903V11.6665H59.85Z" fill="url(#paint3_linear_8815_825792)"/>
<path d="M75.9416 53.4749V43.7913V42.5253V35.0306V34.4192C72.5597 34.1789 68.3919 34.3886 67.5278 34.4728C65.2606 34.6946 62.9914 34.9027 60.7204 35.0842C56.4098 35.4297 52.0923 35.6793 47.7675 35.7431C41.1633 35.8401 34.7195 35.2227 28.1705 34.4587C25.2285 34.1156 22.2881 33.7353 19.3314 33.544C13.3605 33.1579 7.40826 34.1214 1.44206 34.2161C0.14141 34.2368 -1.15885 34.2361 -2.45833 34.1813C-2.45833 34.1813 -2.45833 34.5678 -2.45833 35.2353V43.1524V43.5648V53.4749V54.7432H60.7208H75.9416V53.4749Z" fill="#99D6F2"/>
<path d="M75.9416 53.4755V43.7919V42.5259V35.0312C72.6854 34.8587 69.5777 35.3751 66.368 35.7921C64.4892 36.0363 62.6061 36.2495 60.7208 36.4306C59.2855 36.5687 57.849 36.6888 56.411 36.7906C43.0728 37.7354 29.7885 36.6102 16.4782 35.8305C10.1694 35.4608 3.85981 35.3125 -2.45833 35.2354V43.1526V43.565V53.4751V54.7434H60.7208H75.9416V53.4755Z" fill="#348ECE"/>
<path d="M25.2601 26.169C27.3116 24.1006 27.3116 20.7471 25.2601 18.6787C23.2087 16.6103 19.8826 16.6103 17.8311 18.6787C15.7797 20.7471 15.7797 24.1006 17.8311 26.169C19.8826 28.2374 23.2087 28.2374 25.2601 26.169Z" fill="#F8B62D"/>
<path d="M32.0161 24.3324C31.9505 24.3324 31.8854 24.336 31.822 24.3428C31.3698 23.7215 30.5801 23.3096 29.6802 23.3096C29.5079 23.3096 29.34 23.3248 29.1773 23.3536C28.678 22.7063 27.8542 22.2832 26.9219 22.2832C25.6337 22.2832 24.5523 23.0899 24.2484 24.1802C24.22 24.179 24.192 24.1782 24.1632 24.1782C23.1251 24.1782 22.2833 24.9473 22.2833 25.8958C22.2833 26.3153 22.4587 26.6681 22.735 26.9502C23.0035 27.2242 23.3669 27.4316 23.7578 27.5686C24.1535 27.7077 24.5711 27.784 24.9878 27.8483C26.2953 28.0493 27.6316 28.0317 28.9465 27.9043C30.2185 27.7808 31.5561 27.627 32.756 27.2047C32.8058 27.1871 32.8552 27.1691 32.9042 27.1507C33.4368 26.9506 33.7167 26.4044 33.7167 25.885C33.7162 25.028 32.9549 24.3324 32.0161 24.3324Z" fill="white"/>
</g>
<defs>
<filter id="filter0_f_8815_825792" x="3" y="12" width="49.2" height="39.3999" filterUnits="userSpaceOnUse" color-interpolation-filters="sRGB">
<feFlood flood-opacity="0" result="BackgroundImageFix"/>
<feBlend mode="normal" in="SourceGraphic" in2="BackgroundImageFix" result="shape"/>
<feGaussianBlur stdDeviation="2.5" result="effect1_foregroundBlur_8815_825792"/>
</filter>
<linearGradient id="paint0_linear_8815_825792" x1="24.2319" y1="45.7555" x2="24.2319" y2="-13.4102" gradientUnits="userSpaceOnUse">
<stop stop-color="white"/>
<stop offset="0.0858" stop-color="#F7FCFE"/>
<stop offset="0.2184" stop-color="#E1F4FC"/>
<stop offset="0.3813" stop-color="#BEE7F9"/>
<stop offset="0.5681" stop-color="#8CD4F5"/>
<stop offset="0.7753" stop-color="#4DBDF0"/>
<stop offset="0.9967" stop-color="#01A0E9"/>
<stop offset="1" stop-color="#00A0E9"/>
</linearGradient>
<linearGradient id="paint1_linear_8815_825792" x1="28.7988" y1="46.7944" x2="28.7988" y2="-17.8695" gradientUnits="userSpaceOnUse">
<stop stop-color="white"/>
<stop offset="0.0858" stop-color="#F7FCFE"/>
<stop offset="0.2184" stop-color="#E1F4FC"/>
<stop offset="0.3813" stop-color="#BEE7F9"/>
<stop offset="0.5681" stop-color="#8CD4F5"/>
<stop offset="0.7753" stop-color="#4DBDF0"/>
<stop offset="0.9967" stop-color="#01A0E9"/>
<stop offset="1" stop-color="#00A0E9"/>
</linearGradient>
<linearGradient id="paint2_linear_8815_825792" x1="24.6319" y1="42.0553" x2="24.6319" y2="-17.1104" gradientUnits="userSpaceOnUse">
<stop stop-color="white"/>
<stop offset="0.0858" stop-color="#F7FCFE"/>
<stop offset="0.2184" stop-color="#E1F4FC"/>
<stop offset="0.3813" stop-color="#BEE7F9"/>
<stop offset="0.5681" stop-color="#8CD4F5"/>
<stop offset="0.7753" stop-color="#4DBDF0"/>
<stop offset="0.9967" stop-color="#01A0E9"/>
<stop offset="1" stop-color="#00A0E9"/>
</linearGradient>
<linearGradient id="paint3_linear_8815_825792" x1="29.1988" y1="43.0942" x2="29.1988" y2="-21.5697" gradientUnits="userSpaceOnUse">
<stop stop-color="white"/>
<stop offset="0.0858" stop-color="#F7FCFE"/>
<stop offset="0.2184" stop-color="#E1F4FC"/>
<stop offset="0.3813" stop-color="#BEE7F9"/>
<stop offset="0.5681" stop-color="#8CD4F5"/>
<stop offset="0.7753" stop-color="#4DBDF0"/>
<stop offset="0.9967" stop-color="#01A0E9"/>
<stop offset="1" stop-color="#00A0E9"/>
</linearGradient>
</defs>
</svg>
