<?xml version="1.0" encoding="utf-8"?>
<!-- Generator: Adobe Illustrator 26.1.0, SVG Export Plug-In . SVG Version: 6.00 Build 0)  -->
<svg version="1.1" id="圖層_1" xmlns="http://www.w3.org/2000/svg" xmlns:xlink="http://www.w3.org/1999/xlink" x="0px" y="0px"
	 viewBox="0 0 223.05 186.19" style="enable-background:new 0 0 223.05 186.19;" xml:space="preserve">
<style type="text/css">
	.st0{clip-path:url(#SVGID_00000097485681575133170330000002724091812720876930_);}
	.st1{fill:#D56A0F;}
	.st2{fill:#B05422;}
	.st3{fill:#EDA742;}
	.st4{fill:#513B2D;}
	.st5{clip-path:url(#SVGID_00000049917182458413856320000017693901745309755790_);}
	.st6{fill:#F8CD77;}
	.st7{opacity:0.68;fill:#D56A0F;}
	.st8{clip-path:url(#SVGID_00000129206509705214039570000005800319755752439743_);}
	.st9{fill:#FADEBC;}
	.st10{clip-path:url(#SVGID_00000142863601977933299680000009835105071042665113_);}
	.st11{fill:#B15843;}
	.st12{fill:#BF644E;}
	.st13{clip-path:url(#SVGID_00000055702198786512689440000014280583060409513648_);fill:#EF9F53;}
	.st14{clip-path:url(#SVGID_00000055702198786512689440000014280583060409513648_);}
	.st15{clip-path:url(#SVGID_00000055702198786512689440000014280583060409513648_);fill:#E18A43;}
</style>
<g>
	<defs>
		<rect id="SVGID_00000101103012225389323540000016753531298876634029_" width="223.05" height="186.19"/>
	</defs>
	<clipPath id="SVGID_00000074414782688047109130000011997914728805347207_">
		<use xlink:href="#SVGID_00000101103012225389323540000016753531298876634029_"  style="overflow:visible;"/>
	</clipPath>
	<g style="clip-path:url(#SVGID_00000074414782688047109130000011997914728805347207_);">
		<g>
			<path class="st3" d="M55.46,90.47c2.21,15.13-3.02,33.61-4.19,47.51c-0.49,5.76-0.9,11.9,1.87,16.97
				c9.05,16.56,33.52,15.49,49.42,15.56c24.38,0.11,62.36,5.75,83.28-7.36c16.58-10.39-1.18-54.25,6.84-72.85
				c6.08-14.09,17.59-18.36,12.7-35.85c-3.07-10.98-12.39-18.35-21.96-23.65c-19.23-10.64-45.2-15.94-66.85-13.98
				c-18.91,1.71-40.78,5.31-57.32,15.89c-8.04,5.14-15.09,11.97-17.37,21.55c-2.48,10.39,4.55,15.94,9.4,23.89
				C53.51,81.83,54.81,86.01,55.46,90.47z"/>
		</g>
		<g>
			<path class="st9" d="M30.56,89.45c0.05,0.37,0.08,0.73,0.13,1.1c0.04,0.37,0.1,0.73,0.13,1.1c0.04,0.37,0.15,0.73,0.18,1.1
				c0.03,0.37,0.11,0.74,0.14,1.11c0.02,0.37,0,0.74,0.01,1.11c0.01,0.37-0.08,0.74-0.07,1.11c0.01,0.37,0.15,0.74,0.16,1.11
				c0,0.37-0.03,0.74-0.03,1.11c0,0.37-0.09,0.74-0.1,1.11c-0.01,0.37,0.08,0.74,0.06,1.12c-0.01,0.37-0.08,0.74-0.1,1.11
				c-0.02,0.37-0.12,0.73-0.14,1.1c-0.02,0.37-0.02,0.74-0.05,1.11c-0.03,0.37,0.02,0.74-0.01,1.11c-0.03,0.37-0.19,0.73-0.23,1.1
				c-0.04,0.37,0.03,0.75-0.01,1.12c-0.04,0.37-0.1,0.74-0.14,1.1c-0.04,0.37-0.05,0.74-0.09,1.11c-0.04,0.37-0.08,0.74-0.13,1.11
				c-0.05,0.37-0.21,0.72-0.26,1.09c-0.05,0.37,0,0.75-0.05,1.12c-0.05,0.37-0.1,0.74-0.15,1.1c-0.05,0.37-0.21,0.72-0.27,1.09
				c-0.05,0.37-0.11,0.73-0.17,1.1c-0.06,0.37-0.08,0.74-0.14,1.11c-0.06,0.37,0,0.75-0.06,1.12c-0.06,0.37-0.18,0.73-0.24,1.09
				c-0.06,0.37-0.13,0.73-0.19,1.1c-0.06,0.37-0.09,0.74-0.15,1.11c-0.06,0.37-0.19,0.72-0.25,1.09c-0.06,0.37-0.08,0.74-0.14,1.11
				c-0.06,0.37-0.04,0.75-0.09,1.11c-0.06,0.37-0.24,0.72-0.29,1.08c-0.06,0.37-0.01,0.75-0.07,1.12c-0.06,0.37-0.19,0.73-0.25,1.09
				c-0.06,0.37-0.04,0.75-0.1,1.11c-0.05,0.37-0.18,0.73-0.23,1.09c-0.05,0.37-0.03,0.75-0.08,1.11c-0.05,0.37-0.08,0.74-0.13,1.1
				c-0.05,0.37-0.17,0.73-0.21,1.09c-0.04,0.37-0.03,0.74-0.07,1.11c-0.04,0.37-0.2,0.72-0.24,1.09c-0.04,0.37,0.05,0.75,0.02,1.11
				c-0.03,0.36-0.14,0.71-0.17,1.07c-0.03,0.36-0.06,0.72-0.09,1.08c-0.03,0.36,0,0.72-0.02,1.08c-0.02,0.36-0.06,0.72-0.07,1.08
				c-0.02,0.36,0.02,0.72,0.01,1.08c-0.01,0.36,0.01,0.72,0.01,1.08c0,0.36-0.06,0.72-0.05,1.08c0.01,0.36,0.04,0.72,0.06,1.08
				c0.02,0.36-0.02,0.73,0.02,1.09c0.04,0.36,0.2,0.7,0.25,1.06c0.05,0.36-0.02,0.74,0.05,1.09c0.07,0.36,0.16,0.71,0.25,1.06
				c0.09,0.35,0.2,0.7,0.3,1.04c0.11,0.34,0.21,0.69,0.34,1.03c0.13,0.34,0.38,0.62,0.53,0.95c0.15,0.33,0.32,0.64,0.49,0.96
				c0.18,0.33,0.35,0.66,0.54,0.97c0.19,0.32,0.3,0.69,0.5,1c0.21,0.31,0.47,0.58,0.69,0.87c0.22,0.3,0.48,0.57,0.71,0.85
				c0.24,0.29,0.44,0.6,0.69,0.87c0.25,0.28,0.46,0.59,0.72,0.86c0.26,0.26,0.61,0.43,0.88,0.68c0.27,0.25,0.54,0.5,0.83,0.74
				c0.28,0.24,0.59,0.44,0.89,0.67c0.29,0.22,0.58,0.46,0.88,0.68c0.3,0.21,0.62,0.41,0.93,0.61c0.31,0.2,0.6,0.44,0.92,0.63
				c0.32,0.19,0.68,0.29,1.01,0.47c0.33,0.18,0.62,0.4,0.96,0.56c0.33,0.16,0.65,0.36,0.99,0.51c0.34,0.15,0.7,0.24,1.05,0.38
				c0.34,0.14,0.69,0.27,1.03,0.4c0.35,0.13,0.7,0.24,1.05,0.36c0.35,0.12,0.67,0.33,1.02,0.44c0.35,0.11,0.72,0.19,1.07,0.29
				c0.35,0.1,0.7,0.24,1.06,0.34c0.36,0.1,0.73,0.14,1.09,0.22c0.36,0.09,0.7,0.26,1.06,0.34c0.36,0.08,0.75,0.02,1.11,0.1
				c0.36,0.07,0.71,0.2,1.08,0.27c0.36,0.07,0.74,0.07,1.1,0.13c0.36,0.06,0.72,0.21,1.08,0.26c0.37,0.06,0.73,0.11,1.1,0.16
				c0.37,0.05,0.73,0.14,1.1,0.18c0.37,0.04,0.75-0.01,1.12,0.03c0.37,0.04,0.73,0.14,1.1,0.17c0.37,0.04,0.74,0.09,1.11,0.12
				c0.37,0.03,0.74,0.1,1.11,0.12c0.37,0.03,0.74,0.05,1.11,0.07c0.37,0.02,0.75-0.07,1.12-0.05c0.37,0.02,0.74,0.09,1.11,0.1
				c0.37,0.02,0.74,0.02,1.11,0.03c0.37,0.01,0.74,0,1.11,0.01c0.37,0.01,0.74,0.07,1.11,0.08c0.37,0.01,0.74-0.08,1.11-0.07
				c0.37,0.01,0.74,0.03,1.11,0.03c0.37,0,0.75,0.09,1.12,0.1c0.37,0,0.75-0.02,1.11-0.02c0.37,0,0.74,0.04,1.11,0.04
				c0.37,0,0.74,0,1.11,0c0.37,0,0.74-0.11,1.11-0.11c0.37,0,0.74,0.06,1.11,0.06c0.37,0,0.74-0.04,1.1-0.03
				c0.37,0,0.74-0.02,1.1-0.02c0.37,0,0.74,0.02,1.11,0.02c0.37,0,0.74,0.13,1.11,0.13c0.37,0.01,0.74-0.08,1.12-0.07
				c0.37,0.01,0.74,0.1,1.11,0.11c0.37,0.01,0.74-0.07,1.11-0.06c0.37,0.01,0.74,0,1.11,0.01c0.37,0.01,0.73,0.13,1.1,0.14
				c0.37,0.01,0.74,0.02,1.11,0.03c0.37,0.01,0.74,0,1.11,0.02c0.37,0.02,0.74,0.09,1.11,0.1c0.37,0.02,0.74-0.04,1.11-0.03
				c0.37,0.02,0.74,0.1,1.11,0.12c0.37,0.02,0.74,0.01,1.11,0.03c0.37,0.02,0.74-0.08,1.12-0.07c0.37,0.02,0.74,0.1,1.11,0.12
				c0.37,0.02,0.74,0.04,1.11,0.05c0.37,0.02,0.74-0.02,1.11,0c0.37,0.02,0.74,0.05,1.11,0.07c0.37,0.02,0.73,0.16,1.11,0.17
				c0.37,0.02,0.74-0.05,1.12-0.03c0.37,0.02,0.74,0.06,1.11,0.07c0.37,0.02,0.74,0.05,1.11,0.07c0.37,0.02,0.74-0.07,1.11-0.05
				c0.37,0.01,0.74,0.08,1.11,0.1c0.37,0.01,0.74,0.05,1.11,0.06c0.37,0.01,0.74,0.08,1.11,0.1c0.37,0.01,0.74,0.02,1.11,0.03
				c0.37,0.01,0.74,0.01,1.11,0.02c0.37,0.01,0.74,0.01,1.11,0.02c0.37,0.01,0.74,0.02,1.11,0.03c0.37,0.01,0.74,0.03,1.12,0.04
				c0.37,0.01,0.75-0.08,1.12-0.07c0.37,0.01,0.74,0,1.12,0.01s0.74-0.03,1.12-0.02c0.37,0,0.74,0.08,1.12,0.08
				c0.37,0,0.74,0.04,1.12,0.04c0.37,0,0.74-0.04,1.12-0.04c0.37,0,0.75,0.02,1.12,0.02c0.37,0,0.75-0.02,1.12-0.03
				c0.37-0.01,0.74-0.08,1.12-0.09c0.37-0.01,0.74-0.03,1.12-0.04c0.37-0.01,0.75,0.04,1.12,0.03c0.37-0.01,0.74-0.07,1.12-0.09
				c0.37-0.02,0.74-0.05,1.12-0.07c0.37-0.02,0.75-0.01,1.12-0.03c0.37-0.02,0.74-0.07,1.11-0.09c0.37-0.02,0.75,0.07,1.12,0.04
				c0.37-0.03,0.75-0.02,1.12-0.05c0.37-0.03,0.74-0.15,1.11-0.18c0.37-0.03,0.74-0.13,1.11-0.16c0.37-0.04,0.75-0.03,1.12-0.07
				c0.37-0.04,0.75-0.03,1.12-0.07c0.37-0.04,0.75-0.04,1.11-0.09c0.37-0.05,0.73-0.15,1.1-0.2c0.37-0.05,0.75-0.05,1.11-0.1
				c0.37-0.05,0.72-0.19,1.09-0.25c0.37-0.06,0.75-0.06,1.11-0.12c0.37-0.06,0.73-0.18,1.09-0.25c0.37-0.07,0.72-0.21,1.08-0.29
				c0.37-0.07,0.74-0.1,1.1-0.18c0.36-0.08,0.74-0.12,1.1-0.2c0.36-0.08,0.72-0.18,1.08-0.27c0.36-0.09,0.74-0.13,1.1-0.23
				c0.36-0.1,0.72-0.2,1.08-0.3c0.36-0.1,0.69-0.29,1.05-0.4c0.36-0.11,0.74-0.14,1.09-0.25c0.36-0.11,0.69-0.29,1.04-0.41
				c0.35-0.12,0.71-0.22,1.06-0.35c0.35-0.13,0.69-0.29,1.03-0.42c0.35-0.14,0.72-0.22,1.06-0.36c0.34-0.14,0.64-0.4,0.98-0.55
				c0.34-0.15,0.74-0.18,1.07-0.34c0.34-0.16,0.63-0.4,0.96-0.56c0.33-0.17,0.65-0.36,0.98-0.54c0.33-0.18,0.68-0.31,0.99-0.5
				c0.32-0.19,0.66-0.35,0.97-0.55c0.32-0.2,0.59-0.47,0.88-0.69c0.3-0.23,0.58-0.47,0.85-0.72c0.27-0.25,0.5-0.55,0.75-0.82
				c0.25-0.27,0.57-0.49,0.8-0.78c0.22-0.29,0.38-0.63,0.59-0.95c0.2-0.31,0.36-0.64,0.54-0.97c0.18-0.32,0.42-0.61,0.58-0.95
				c0.15-0.33,0.25-0.69,0.39-1.04c0.13-0.34,0.2-0.71,0.32-1.06c0.11-0.35,0.19-0.71,0.29-1.07c0.1-0.35,0.25-0.69,0.34-1.06
				c0.08-0.36,0.12-0.72,0.2-1.09c0.07-0.36,0.15-0.72,0.21-1.09c0.06-0.36,0.16-0.72,0.21-1.09c0.05-0.36,0.02-0.74,0.06-1.11
				c0.04-0.36,0.12-0.72,0.15-1.1c0.03-0.36,0.03-0.73,0.05-1.1c0.02-0.36,0.09-0.73,0.1-1.1c0.01-0.37,0.01-0.73,0.02-1.11
				c0.01-0.37-0.01-0.73,0-1.11c0-0.37,0.04-0.74,0.04-1.11c0-0.37-0.03-0.74-0.04-1.11c-0.01-0.37-0.08-0.73-0.09-1.11
				c-0.01-0.37,0.03-0.74,0.02-1.11c-0.02-0.37,0.03-0.74,0.01-1.11c-0.02-0.37-0.12-0.73-0.14-1.1c-0.02-0.37,0.06-0.74,0.03-1.11
				c-0.02-0.37-0.14-0.73-0.17-1.1c-0.03-0.37-0.08-0.73-0.11-1.1c-0.03-0.37,0.01-0.74-0.03-1.11c-0.03-0.37-0.09-0.73-0.12-1.1
				c-0.03-0.37-0.04-0.74-0.07-1.11c-0.03-0.37-0.05-0.74-0.08-1.11c-0.04-0.37-0.11-0.73-0.15-1.1c-0.04-0.37-0.12-0.73-0.16-1.1
				c-0.04-0.37-0.01-0.74-0.05-1.11c-0.04-0.37-0.07-0.74-0.11-1.11c-0.04-0.37-0.15-0.73-0.19-1.1c-0.04-0.37-0.08-0.74-0.12-1.11
				c-0.04-0.37-0.06-0.74-0.09-1.11c-0.04-0.37-0.01-0.75-0.04-1.12c-0.04-0.37-0.12-0.73-0.15-1.1c-0.04-0.37-0.05-0.74-0.08-1.11
				c-0.04-0.37,0-0.75-0.04-1.11c-0.03-0.37-0.07-0.74-0.11-1.11c-0.03-0.37-0.13-0.73-0.16-1.1c-0.03-0.37-0.01-0.74-0.04-1.11
				c-0.03-0.37-0.03-0.74-0.06-1.11c-0.03-0.37-0.06-0.74-0.08-1.11c-0.02-0.37-0.03-0.74-0.05-1.11c-0.02-0.37-0.2-0.73-0.22-1.1
				c-0.02-0.37,0.08-0.75,0.07-1.12c-0.01-0.37-0.12-0.74-0.13-1.11c-0.01-0.37,0.11-0.75,0.11-1.11c-0.01-0.37-0.1-0.74-0.1-1.11
				c0-0.38-0.04-0.75-0.03-1.12c0.01-0.37,0.14-0.74,0.16-1.11c0.01-0.37-0.01-0.75,0.01-1.11c0.02-0.37-0.06-0.75-0.03-1.12
				c0.03-0.37,0.09-0.74,0.13-1.11c0.03-0.37,0.04-0.74,0.08-1.11c0.04-0.37,0.16-0.73,0.21-1.09c0.05-0.37,0.16-0.73,0.23-1.09
				c0.07-0.37,0.07-0.75,0.14-1.1c0.08-0.37,0.22-0.71,0.31-1.06c0.09-0.36,0.1-0.75,0.2-1.09c0.11-0.36,0.32-0.68,0.44-1.02
				c0.13-0.35,0.18-0.72,0.33-1.06c0.15-0.34,0.33-0.66,0.49-0.99c0.16-0.34,0.31-0.67,0.47-1c0.17-0.33,0.4-0.62,0.57-0.95
				c0.17-0.33,0.25-0.71,0.43-1.02c0.18-0.32,0.41-0.62,0.59-0.93c0.19-0.32,0.33-0.66,0.52-0.97c0.2-0.31,0.38-0.63,0.58-0.94
				c0.2-0.31,0.52-0.54,0.72-0.85c0.21-0.31,0.43-0.6,0.63-0.9c0.21-0.31,0.32-0.68,0.53-0.98c0.21-0.3,0.52-0.54,0.73-0.84
				c0.22-0.3,0.34-0.67,0.55-0.96c0.22-0.3,0.51-0.54,0.72-0.84c0.22-0.3,0.38-0.63,0.59-0.93c0.21-0.3,0.47-0.57,0.67-0.87
				c0.21-0.3,0.43-0.6,0.64-0.9c0.2-0.31,0.4-0.62,0.59-0.93c0.2-0.31,0.32-0.67,0.5-0.98c0.19-0.32,0.38-0.63,0.55-0.95
				c0.18-0.32,0.44-0.6,0.6-0.93c0.16-0.33,0.2-0.72,0.35-1.05c0.15-0.33,0.36-0.64,0.49-0.98c0.13-0.34,0.21-0.7,0.33-1.05
				c0.11-0.35,0.24-0.69,0.34-1.04c0.09-0.35,0.15-0.71,0.22-1.07c0.07-0.35,0.24-0.7,0.29-1.06c0.05-0.36,0-0.73,0.04-1.1
				c0.03-0.36,0.12-0.72,0.14-1.09c0.02-0.36,0.1-0.73,0.1-1.1c0-0.36-0.15-0.72-0.17-1.09c-0.02-0.36,0.09-0.74,0.05-1.11
				c-0.04-0.36-0.22-0.71-0.27-1.08c-0.05-0.36-0.04-0.73-0.11-1.1c-0.06-0.35-0.1-0.72-0.17-1.09c-0.08-0.35-0.21-0.7-0.3-1.06
				c-0.09-0.35-0.2-0.7-0.3-1.06c-0.1-0.36-0.1-0.74-0.22-1.09c-0.11-0.35-0.25-0.7-0.38-1.04c-0.13-0.35-0.31-0.67-0.45-1.01
				c-0.14-0.34-0.36-0.65-0.52-0.98c-0.15-0.34-0.27-0.69-0.43-1.02c-0.17-0.33-0.35-0.65-0.53-0.97c-0.18-0.32-0.35-0.65-0.54-0.96
				c-0.19-0.32-0.35-0.65-0.55-0.96c-0.2-0.31-0.39-0.63-0.6-0.93c-0.21-0.3-0.52-0.53-0.74-0.83c-0.22-0.29-0.43-0.59-0.66-0.88
				c-0.23-0.29-0.47-0.56-0.71-0.84c-0.24-0.28-0.45-0.58-0.7-0.85c-0.25-0.27-0.47-0.56-0.73-0.83c-0.25-0.27-0.55-0.5-0.81-0.75
				c-0.26-0.26-0.5-0.54-0.77-0.79c-0.27-0.25-0.51-0.53-0.79-0.77c-0.27-0.25-0.56-0.47-0.84-0.71c-0.28-0.24-0.53-0.52-0.81-0.75
				c-0.28-0.23-0.65-0.36-0.94-0.59c-0.29-0.23-0.58-0.46-0.87-0.68c-0.29-0.22-0.52-0.54-0.81-0.76c-0.3-0.22-0.65-0.36-0.95-0.57
				c-0.3-0.21-0.64-0.37-0.94-0.58c-0.31-0.21-0.59-0.45-0.9-0.65c-0.31-0.2-0.65-0.35-0.96-0.54c-0.31-0.2-0.57-0.48-0.88-0.67
				c-0.32-0.19-0.65-0.36-0.96-0.54c-0.32-0.19-0.61-0.41-0.93-0.6s-0.66-0.33-0.98-0.5c-0.32-0.18-0.66-0.33-0.99-0.51
				c-0.33-0.18-0.66-0.33-0.99-0.5c-0.33-0.17-0.63-0.4-0.96-0.57c-0.33-0.17-0.67-0.33-1-0.49c-0.33-0.16-0.67-0.33-1-0.49
				c-0.33-0.16-0.66-0.33-1-0.49c-0.34-0.16-0.67-0.32-1.01-0.47c-0.34-0.15-0.71-0.24-1.05-0.39c-0.34-0.15-0.69-0.27-1.04-0.41
				c-0.34-0.15-0.64-0.4-0.98-0.55c-0.34-0.14-0.7-0.25-1.05-0.39c-0.34-0.14-0.71-0.22-1.06-0.36c-0.35-0.14-0.67-0.33-1.02-0.46
				c-0.35-0.13-0.69-0.27-1.04-0.4c-0.35-0.13-0.68-0.31-1.03-0.43c-0.35-0.13-0.74-0.15-1.09-0.27c-0.35-0.12-0.67-0.33-1.03-0.45
				c-0.35-0.12-0.7-0.24-1.06-0.36c-0.35-0.12-0.75-0.1-1.1-0.21c-0.35-0.11-0.67-0.33-1.03-0.44c-0.36-0.11-0.73-0.15-1.09-0.26
				c-0.36-0.11-0.72-0.17-1.08-0.28c-0.36-0.1-0.7-0.25-1.06-0.35c-0.36-0.1-0.72-0.18-1.08-0.28c-0.36-0.1-0.7-0.27-1.06-0.36
				c-0.36-0.09-0.73-0.14-1.09-0.24c-0.36-0.09-0.71-0.22-1.07-0.31c-0.36-0.09-0.71-0.22-1.08-0.3c-0.36-0.09-0.73-0.13-1.1-0.21
				c-0.36-0.08-0.73-0.15-1.09-0.23c-0.36-0.08-0.72-0.21-1.08-0.28c-0.36-0.08-0.73-0.14-1.1-0.21c-0.37-0.07-0.74-0.1-1.11-0.17
				c-0.37-0.07-0.73-0.17-1.09-0.23c-0.37-0.07-0.75-0.01-1.12-0.08c-0.37-0.06-0.72-0.19-1.09-0.25c-0.37-0.06-0.74-0.12-1.1-0.17
				c-0.37-0.06-0.73-0.17-1.1-0.23c-0.37-0.05-0.75,0-1.12-0.05c-0.37-0.05-0.73-0.12-1.1-0.17c-0.37-0.05-0.73-0.17-1.1-0.21
				c-0.37-0.04-0.75,0-1.12-0.04c-0.37-0.04-0.73-0.13-1.1-0.17c-0.37-0.04-0.74-0.11-1.11-0.15c-0.37-0.03-0.75-0.01-1.12-0.05
				c-0.37-0.03-0.74-0.15-1.11-0.18c-0.37-0.03-0.74-0.06-1.12-0.08c-0.37-0.02-0.75,0.04-1.12,0.02c-0.37-0.02-0.74-0.07-1.11-0.08
				c-0.37-0.02-0.75,0.03-1.12,0.02c-0.37-0.01-0.74-0.02-1.12-0.03c-0.37-0.01-0.74-0.1-1.11-0.11c-0.37-0.01-0.75,0.07-1.12,0.07
				c-0.37,0-0.75,0-1.12,0c-0.37,0-0.75-0.13-1.12-0.13c-0.37,0-0.75,0.02-1.12,0.02c-0.37,0.01-0.74,0.04-1.12,0.05
				c-0.37,0.01-0.74,0.05-1.11,0.07c-0.37,0.02-0.74,0.13-1.11,0.15c-0.37,0.02-0.75-0.08-1.12-0.06c-0.37,0.02-0.74,0.12-1.11,0.15
				c-0.37,0.03-0.74,0.05-1.11,0.08c-0.37,0.03-0.73,0.15-1.1,0.19c-0.37,0.03-0.74,0.01-1.11,0.04c-0.37,0.04-0.73,0.09-1.1,0.13
				c-0.37,0.04-0.73,0.09-1.1,0.12c-0.37,0.04-0.74,0.01-1.11,0.05c-0.37,0.04-0.73,0.08-1.1,0.12c-0.37,0.04-0.72,0.17-1.09,0.22
				c-0.37,0.04-0.74,0.05-1.1,0.1c-0.37,0.04-0.73,0.11-1.1,0.15c-0.37,0.05-0.75-0.03-1.12,0.01c-0.37,0.05-0.72,0.18-1.09,0.23
				c-0.37,0.05-0.74,0.04-1.11,0.09c-0.37,0.05-0.74,0.09-1.1,0.14c-0.37,0.05-0.73,0.13-1.1,0.19c-0.37,0.06-0.71,0.23-1.08,0.29
				c-0.37,0.06-0.75,0.03-1.11,0.09c-0.37,0.06-0.72,0.19-1.09,0.25c-0.37,0.06-0.73,0.1-1.1,0.17c-0.36,0.07-0.73,0.15-1.09,0.22
				c-0.36,0.07-0.75,0.04-1.11,0.11c-0.36,0.07-0.7,0.28-1.06,0.35c-0.36,0.07-0.73,0.13-1.09,0.2c-0.36,0.07-0.75,0.04-1.11,0.12
				c-0.36,0.08-0.71,0.25-1.07,0.33c-0.36,0.08-0.75,0.04-1.11,0.13c-0.36,0.08-0.69,0.29-1.06,0.38c-0.36,0.09-0.72,0.17-1.08,0.26
				c-0.36,0.09-0.74,0.09-1.1,0.19c-0.36,0.09-0.7,0.26-1.06,0.35c-0.36,0.09-0.72,0.19-1.07,0.29c-0.36,0.1-0.72,0.17-1.08,0.28
				c-0.36,0.1-0.72,0.2-1.07,0.3c-0.36,0.1-0.73,0.14-1.09,0.24c-0.36,0.11-0.7,0.25-1.05,0.36c-0.35,0.11-0.68,0.32-1.03,0.44
				c-0.35,0.12-0.73,0.17-1.08,0.29c-0.35,0.12-0.69,0.29-1.04,0.41c-0.35,0.12-0.74,0.15-1.08,0.28c-0.35,0.13-0.69,0.28-1.04,0.41
				c-0.35,0.13-0.67,0.32-1.02,0.45c-0.35,0.13-0.69,0.26-1.04,0.4c-0.34,0.14-0.67,0.32-1.01,0.46c-0.34,0.14-0.74,0.15-1.08,0.3
				c-0.34,0.15-0.65,0.38-0.98,0.53c-0.34,0.15-0.69,0.28-1.02,0.44c-0.34,0.16-0.63,0.4-0.97,0.56c-0.34,0.16-0.74,0.18-1.07,0.35
				c-0.33,0.17-0.62,0.42-0.95,0.59c-0.33,0.17-0.66,0.33-0.99,0.51c-0.33,0.17-0.67,0.31-1,0.49c-0.33,0.18-0.62,0.42-0.94,0.61
				c-0.32,0.18-0.63,0.39-0.95,0.58c-0.32,0.19-0.62,0.4-0.94,0.59c-0.32,0.19-0.67,0.33-0.98,0.53c-0.31,0.2-0.64,0.35-0.94,0.55
				c-0.3,0.2-0.57,0.45-0.87,0.66c-0.3,0.21-0.56,0.47-0.86,0.68c-0.3,0.21-0.58,0.43-0.88,0.65c-0.29,0.22-0.65,0.35-0.93,0.58
				c-0.29,0.22-0.61,0.4-0.89,0.63c-0.28,0.23-0.56,0.47-0.84,0.7c-0.28,0.24-0.54,0.49-0.81,0.73c-0.27,0.24-0.55,0.48-0.82,0.73
				c-0.27,0.25-0.49,0.54-0.75,0.8c-0.26,0.26-0.46,0.56-0.72,0.83c-0.25,0.26-0.5,0.52-0.75,0.79c-0.25,0.27-0.48,0.54-0.72,0.82
				c-0.24,0.28-0.47,0.56-0.69,0.84c-0.23,0.28-0.52,0.51-0.74,0.8c-0.22,0.29-0.46,0.56-0.67,0.86c-0.21,0.3-0.31,0.67-0.51,0.97
				c-0.2,0.3-0.51,0.54-0.69,0.85c-0.19,0.31-0.33,0.65-0.5,0.97c-0.18,0.32-0.4,0.61-0.56,0.94c-0.16,0.32-0.22,0.7-0.37,1.03
				c-0.15,0.33-0.29,0.67-0.42,1c-0.14,0.34-0.29,0.67-0.41,1.01c-0.13,0.34-0.23,0.69-0.34,1.04c-0.11,0.34-0.25,0.68-0.34,1.03
				c-0.1,0.35-0.27,0.68-0.36,1.04c-0.09,0.37-0.16,0.73-0.23,1.09c-0.07,0.37-0.06,0.75-0.1,1.11c-0.04,0.38-0.05,0.75-0.07,1.11
				c-0.02,0.38-0.09,0.75-0.08,1.11c0.01,0.38,0.03,0.75,0.07,1.11c0.03,0.37,0.15,0.73,0.21,1.09c0.06,0.37,0.07,0.74,0.16,1.1
				c0.08,0.36,0.13,0.74,0.23,1.09c0.11,0.36,0.28,0.69,0.41,1.03c0.13,0.35,0.19,0.73,0.33,1.06c0.15,0.34,0.43,0.61,0.6,0.95
				c0.17,0.33,0.34,0.66,0.52,0.98c0.18,0.32,0.29,0.68,0.48,1c0.19,0.32,0.46,0.58,0.67,0.89c0.2,0.31,0.32,0.68,0.52,0.98
				c0.21,0.3,0.43,0.6,0.65,0.9c0.21,0.3,0.47,0.57,0.69,0.87c0.21,0.3,0.43,0.6,0.64,0.9c0.22,0.3,0.44,0.59,0.66,0.89
				c0.22,0.3,0.42,0.61,0.63,0.91c0.21,0.3,0.41,0.62,0.62,0.92c0.21,0.3,0.44,0.6,0.65,0.9c0.21,0.31,0.37,0.64,0.57,0.95
				c0.2,0.31,0.4,0.62,0.6,0.94c0.19,0.31,0.46,0.58,0.63,0.89c0.18,0.32,0.33,0.65,0.5,0.97c0.16,0.32,0.32,0.65,0.47,0.98
				c0.15,0.33,0.29,0.67,0.43,1c0.14,0.34,0.24,0.69,0.36,1.03c0.13,0.34,0.18,0.71,0.3,1.05c0.11,0.34,0.21,0.69,0.32,1.04
				c0.1,0.35,0.29,0.67,0.38,1.02c0.09,0.35,0.08,0.73,0.16,1.08c0.08,0.35,0.27,0.68,0.34,1.04c0.07,0.36,0.17,0.71,0.23,1.07
				C30.59,88.71,30.51,89.09,30.56,89.45z"/>
		</g>
		<g>
			<path class="st4" d="M140.46,175.48c-0.05,0-0.09,0-0.14,0c-0.57,0-1.14-0.03-1.72-0.05c-0.42-0.02-0.83-0.03-1.25-0.04
				c-0.56-0.01-1.13-0.04-1.69-0.08c-0.42-0.03-0.84-0.05-1.27-0.06c-0.42-0.01-0.83,0-1.25,0.01c-0.57,0.01-1.15,0.02-1.71,0.01
				c-0.79-0.03-1.5-0.17-2.07-0.29c-0.27-0.06-0.55-0.11-0.75-0.14l-0.79,0.05c-0.68,0.05-1.37,0.09-2.05,0.12
				c-0.39,0.02-0.79,0.06-1.18,0.1c-0.56,0.06-1.2,0.12-1.87,0.14c-0.39,0.01-0.78,0.05-1.17,0.09c-0.56,0.05-1.2,0.12-1.88,0.12
				c-0.72-0.01-1.38-0.07-1.96-0.13c-0.41-0.05-0.82-0.08-1.1-0.09c-0.3,0-0.68,0.04-1.08,0.08c-0.58,0.06-1.23,0.11-1.95,0.12
				c-1.01-0.02-2.03-0.03-3.03-0.05c-0.65-0.02-1.27-0.08-1.81-0.13c-0.4-0.04-0.81-0.08-1.21-0.1l-1.13-0.03
				c-0.63-0.02-1.26-0.04-1.89-0.06c-0.45-0.02-0.9-0.02-1.35-0.03c-0.56-0.01-1.11-0.02-1.67-0.04c-0.55-0.02-1.11-0.07-1.66-0.11
				c-0.45-0.03-0.9-0.07-1.34-0.09c-0.4-0.02-0.8,0-1.21,0.02c-0.54,0.02-1.15,0.04-1.8,0.01c-0.82-0.04-1.54-0.21-2.13-0.34
				c-0.31-0.07-0.67-0.16-0.85-0.16c-0.32-0.01-0.73,0.01-1.16,0.03c-0.55,0.03-1.17,0.07-1.83,0.04c-0.46-0.02-0.92-0.02-1.38-0.01
				c-0.54,0-1.07,0.01-1.6-0.01c-0.54-0.02-1.08-0.07-1.61-0.11c-0.45-0.04-0.91-0.08-1.35-0.09c-0.46-0.01-0.91-0.04-1.36-0.06
				c-0.54-0.02-1.07-0.05-1.6-0.06c-0.45-0.01-0.9,0.02-1.34,0.04c-0.54,0.03-1.07,0.04-1.6,0.05c-0.54,0-1.09-0.04-1.65-0.07
				c-0.81-0.05-1.65-0.06-2.51,0.01c-0.56,0.05-1.21,0.08-1.88,0.1c-0.76,0-1.44-0.11-2.04-0.2c-0.39-0.06-0.76-0.12-1.02-0.12
				c-0.6-0.01-1.21-0.04-1.82-0.07c-0.42-0.02-0.83-0.04-1.26-0.05c-0.3-0.02-0.67,0.02-1.07,0.05c-0.6,0.05-1.28,0.1-2.04,0.06
				c-0.69-0.04-1.32-0.12-1.92-0.19c-0.39-0.05-0.79-0.1-1.18-0.13c-0.68-0.05-1.36-0.14-2.04-0.23c-0.36-0.05-0.72-0.09-1.08-0.13
				c-0.35-0.04-0.7-0.07-1.05-0.1c-0.7-0.06-1.4-0.12-2.09-0.23c-0.74-0.11-1.46-0.26-2.19-0.41c-0.31-0.07-0.62-0.13-0.93-0.19
				c-1.07-0.21-2.09-0.46-3.12-0.72c-0.3-0.08-0.59-0.14-0.89-0.21c-0.72-0.17-1.47-0.34-2.25-0.59c-0.32-0.1-0.65-0.19-0.97-0.28
				c-0.66-0.18-1.41-0.38-2.18-0.69c-0.85-0.34-1.62-0.75-2.29-1.11c-0.23-0.12-0.46-0.25-0.7-0.37c-0.26-0.13-0.53-0.26-0.8-0.38
				c-0.68-0.32-1.44-0.68-2.2-1.17c-1.01-0.66-1.91-1.38-2.74-2.07c-0.74-0.61-1.3-1.27-1.79-1.84c-0.19-0.23-0.38-0.46-0.59-0.67
				l-0.32-0.34c-0.62-0.65-1.32-1.38-1.96-2.26l-0.36-0.49c-0.51-0.68-1.08-1.46-1.59-2.38c-0.54-0.99-0.99-2.05-1.39-3.23
				c-0.31-0.94-0.41-1.83-0.5-2.55c-0.03-0.27-0.06-0.53-0.11-0.8c-0.05-0.27-0.1-0.54-0.16-0.81c-0.15-0.71-0.32-1.51-0.38-2.42
				c-0.02-0.3-0.05-0.6-0.08-0.91c-0.06-0.67-0.14-1.43-0.12-2.25c0.01-0.81,0.15-1.54,0.26-2.13c0.06-0.35,0.12-0.67,0.14-0.91
				c0.02-0.37,0.02-0.75,0.02-1.12c0-0.55-0.01-1.18,0.05-1.84c0.03-0.36,0.04-0.73,0.05-1.1c0.02-0.6,0.04-1.28,0.12-2
				c0.09-0.79,0.3-1.5,0.47-2.07c0.11-0.36,0.21-0.7,0.24-0.92c0.09-0.62,0.19-1.25,0.29-1.88l0.18-1.13
				c0.06-0.4,0.09-0.81,0.13-1.21c0.05-0.59,0.11-1.19,0.2-1.79c0.07-0.43,0.12-0.86,0.17-1.3c0.06-0.56,0.13-1.12,0.22-1.68
				c0.07-0.45,0.12-0.9,0.18-1.35c0.06-0.54,0.13-1.07,0.21-1.61c0.08-0.49,0.14-0.99,0.21-1.49c0.06-0.48,0.13-0.97,0.2-1.45
				c0.08-0.5,0.17-0.99,0.26-1.49c0.09-0.47,0.18-0.94,0.24-1.42c0.08-0.57,0.15-1.15,0.21-1.72c0.05-0.4,0.09-0.79,0.14-1.19
				c0.06-0.49,0.14-0.98,0.22-1.47c0.08-0.47,0.16-0.94,0.21-1.42c0.07-0.63,0.18-1.2,0.28-1.71c0.09-0.43,0.17-0.85,0.19-1.17
				c0.04-0.48,0.04-0.97,0.04-1.46c0-0.48,0.01-0.96,0.03-1.43l0.05-0.98c0.04-0.63,0.08-1.26,0.08-1.88
				c0.01-0.79-0.02-1.57-0.04-2.35l-0.02-0.49c-0.01-0.47-0.08-0.99-0.14-1.54c-0.05-0.42-0.1-0.84-0.13-1.26
				c-0.04-0.43-0.06-0.86-0.08-1.29c-0.02-0.54-0.05-1.05-0.11-1.48c-0.08-0.55-0.24-1.16-0.4-1.8c-0.1-0.37-0.19-0.75-0.28-1.12
				c-0.23-1.01-0.54-1.99-0.82-2.82l-0.17-0.51c-0.26-0.8-0.51-1.56-0.81-2.21c-0.38-0.83-0.83-1.67-1.34-2.52
				c-0.22-0.36-0.43-0.72-0.63-1.09c-0.27-0.48-0.53-0.93-0.78-1.3c-0.19-0.27-0.46-0.59-0.75-0.92c-0.33-0.38-0.71-0.82-1.07-1.32
				c-0.43-0.59-0.75-1.17-1.03-1.68c-0.19-0.34-0.37-0.67-0.53-0.9c-0.2-0.28-0.4-0.55-0.61-0.82c-0.39-0.52-0.83-1.1-1.23-1.75
				c-0.64-1.03-1.17-1.92-1.63-2.89c-0.12-0.24-0.24-0.47-0.37-0.71c-0.38-0.71-0.81-1.51-1.1-2.49c-0.31-1.03-0.36-2-0.4-2.79
				c-0.01-0.27-0.03-0.54-0.05-0.81l-0.06-0.5c-0.1-0.85-0.23-1.92-0.14-3.1l0.03-0.5c0.06-0.84,0.13-1.89,0.39-3.01
				c0.24-0.99,0.58-1.88,0.88-2.67c0.09-0.24,0.18-0.47,0.27-0.71c0.33-0.91,0.76-1.7,1.13-2.39c0.14-0.26,0.29-0.53,0.42-0.8
				c0.12-0.24,0.23-0.48,0.35-0.72c0.35-0.74,0.75-1.58,1.28-2.4c0.54-0.84,1.12-1.56,1.67-2.26l0.42-0.53
				c0.66-0.83,1.34-1.56,2-2.26l0.3-0.32c0.23-0.25,0.45-0.5,0.67-0.76c0.47-0.54,1.01-1.16,1.65-1.75c0.24-0.22,0.47-0.44,0.7-0.66
				c0.56-0.53,1.13-1.08,1.81-1.62l0.6-0.48c0.65-0.52,1.31-1.07,2.05-1.59c0.69-0.49,1.37-0.83,1.97-1.13
				c0.36-0.18,0.69-0.35,0.94-0.5c0.31-0.2,0.6-0.41,0.89-0.63c0.49-0.36,1.04-0.76,1.66-1.13c0.62-0.37,1.24-0.65,1.78-0.89
				c0.34-0.15,0.67-0.3,1-0.48c0.32-0.17,0.62-0.37,0.92-0.57c0.5-0.33,1.07-0.69,1.73-1.02c0.58-0.29,1.17-0.55,1.77-0.81
				c0.35-0.15,0.69-0.3,1.03-0.46c0.32-0.15,0.65-0.31,0.97-0.47c0.6-0.29,1.2-0.58,1.82-0.85l0.71-0.31c0.7-0.31,1.4-0.61,2.12-0.9
				c0.59-0.24,1.21-0.45,1.82-0.66c0.35-0.12,0.71-0.25,1.06-0.38c0.79-0.29,1.59-0.57,2.4-0.84l1.31-0.45
				c0.69-0.24,1.38-0.48,2.08-0.7c0.83-0.26,1.67-0.51,2.51-0.75l0.42-0.12c0.37-0.11,0.74-0.24,1.11-0.37
				c0.54-0.19,1.15-0.4,1.8-0.58c0.77-0.21,1.5-0.28,2.08-0.34c0.37-0.04,0.72-0.07,0.94-0.13c0.2-0.05,0.52-0.19,0.84-0.32
				c0.55-0.24,1.24-0.53,2.05-0.71c0.65-0.15,1.28-0.24,1.84-0.32c0.39-0.06,0.78-0.11,1.17-0.19c0.65-0.13,1.28-0.21,1.83-0.29
				c0.39-0.05,0.79-0.1,1.18-0.17c0.63-0.12,1.26-0.21,1.89-0.31c0.37-0.06,0.74-0.11,1.11-0.18c0.25-0.04,0.6-0.15,0.96-0.26
				c0.58-0.17,1.23-0.37,1.99-0.49c0.67-0.1,1.31-0.14,1.87-0.17c0.39-0.02,0.78-0.04,1.16-0.09c0.3-0.04,0.67-0.13,1.07-0.22
				c0.57-0.13,1.21-0.28,1.92-0.36c0.68-0.08,1.32-0.09,1.89-0.1c0.38-0.01,0.77-0.01,1.15-0.05c0.6-0.06,1.21-0.08,1.82-0.1
				c0.41-0.01,0.81-0.03,1.22-0.06c0.25-0.02,0.6-0.1,0.98-0.18c0.59-0.13,1.26-0.27,2.02-0.32c0.73-0.05,1.39-0.01,1.98,0.02
				c0.4,0.02,0.77,0.05,1.07,0.03c0.4-0.02,0.79-0.07,1.19-0.11c0.55-0.06,1.17-0.13,1.83-0.15c0.6-0.02,1.2-0.02,1.8-0.01
				c0.41,0,0.82,0.01,1.23,0c0.66-0.01,1.28,0.02,1.83,0.05c0.4,0.02,0.78,0.04,1.19,0.04c0.71,0,1.42,0.01,2.13,0.02l1.74,0.02
				c0.73,0.01,1.46,0.01,2.19,0.03c0.4,0.01,0.79-0.01,1.19-0.02c0.56-0.02,1.19-0.04,1.85-0.02c0.64,0.03,1.27,0.07,1.91,0.11
				c0.37,0.02,0.74,0.05,1.12,0.07c0.39,0.02,0.78,0.01,1.17,0c0.56-0.01,1.19-0.02,1.86,0.03c0.73,0.05,1.38,0.18,1.95,0.29
				c0.39,0.08,0.76,0.15,1.06,0.17c0.6,0.05,1.19,0.13,1.79,0.21c0.41,0.05,0.81,0.11,1.22,0.15c0.41,0.04,0.82,0.07,1.23,0.09
				c0.6,0.04,1.2,0.08,1.79,0.15c0.76,0.09,1.52,0.19,2.27,0.3l0.73,0.1c0.41,0.05,0.81,0.09,1.22,0.13c0.6,0.06,1.2,0.12,1.8,0.21
				c0.6,0.09,1.2,0.22,1.8,0.36c0.39,0.09,0.78,0.18,1.17,0.24c0.39,0.07,0.79,0.12,1.18,0.18c0.61,0.09,1.22,0.19,1.82,0.3
				c0.28,0.05,0.66,0.08,1.05,0.11c0.59,0.04,1.25,0.09,1.97,0.24c0.76,0.15,1.4,0.39,1.97,0.59c0.36,0.13,0.7,0.25,0.95,0.31
				l1,0.22c0.66,0.14,1.31,0.28,1.96,0.44c0.3,0.07,0.67,0.12,1.07,0.18c0.58,0.08,1.23,0.17,1.93,0.35c0.78,0.21,1.46,0.51,2,0.75
				c0.33,0.15,0.65,0.29,0.85,0.35c0.17,0.05,0.52,0.08,0.85,0.12c0.61,0.06,1.37,0.14,2.18,0.39c0.71,0.22,1.32,0.49,1.87,0.74
				c0.36,0.16,0.7,0.31,0.97,0.4c0.35,0.11,0.7,0.19,1.06,0.27c0.57,0.13,1.22,0.28,1.9,0.52c0.67,0.24,1.27,0.52,1.8,0.77
				c0.34,0.16,0.67,0.32,1.01,0.45c0.36,0.14,0.73,0.26,1.09,0.39c0.6,0.21,1.2,0.42,1.79,0.67c0.61,0.25,1.21,0.53,1.81,0.8
				c0.33,0.15,0.66,0.31,0.99,0.45c0.63,0.28,1.22,0.59,1.73,0.87c0.33,0.18,0.67,0.36,1.01,0.52c0.35,0.16,0.7,0.31,1.05,0.46
				c0.56,0.24,1.15,0.49,1.75,0.8c0.31,0.16,0.62,0.31,0.94,0.47c0.61,0.3,1.22,0.6,1.81,0.93c0.63,0.35,1.19,0.73,1.69,1.07
				c0.31,0.21,0.63,0.43,0.95,0.62l0.15,0.09c0.85,0.51,1.7,1.02,2.53,1.57c0.26,0.17,0.53,0.34,0.8,0.51
				c0.6,0.38,1.23,0.78,1.86,1.24c0.63,0.46,1.18,0.94,1.68,1.37c0.26,0.23,0.52,0.46,0.79,0.67c0.97,0.79,1.74,1.46,2.44,2.1
				c0.25,0.23,0.51,0.44,0.77,0.65c0.52,0.42,1.11,0.9,1.69,1.5c0.6,0.65,1.12,1.32,1.58,1.91c0.17,0.22,0.33,0.43,0.5,0.65
				c0.56,0.7,1,1.41,1.4,2.04c0.15,0.24,0.3,0.48,0.46,0.72c0.17,0.26,0.36,0.51,0.56,0.76c0.43,0.57,0.92,1.21,1.35,2.01l0.27,0.51
				c0.4,0.75,0.86,1.6,1.23,2.54c0.34,0.86,0.5,1.67,0.65,2.38c0.06,0.31,0.12,0.62,0.2,0.92c0.1,0.34,0.2,0.67,0.31,0.99
				c0.23,0.7,0.46,1.42,0.61,2.23c0.22,1.15,0.42,2.28,0.51,3.41c0.1,1.34,0.05,2.6,0,3.54c-0.06,1.1-0.29,2.04-0.49,2.87
				c-0.05,0.22-0.11,0.44-0.15,0.66c-0.27,1.28-0.6,2.4-0.99,3.43l-0.14,0.38c-0.33,0.87-0.7,1.86-1.22,2.83
				c-0.42,0.78-0.88,1.46-1.32,2.11c-0.16,0.24-0.32,0.47-0.48,0.71c-0.19,0.29-0.38,0.6-0.56,0.9c-0.35,0.58-0.72,1.18-1.16,1.79
				c-0.39,0.55-0.8,1.02-1.17,1.45c-0.29,0.33-0.56,0.65-0.77,0.94c-0.31,0.44-0.61,0.9-0.91,1.37c-0.24,0.37-0.48,0.74-0.73,1.11
				c-0.24,0.35-0.48,0.79-0.73,1.25c-0.23,0.42-0.46,0.84-0.71,1.25c-0.44,0.73-0.86,1.52-1.36,2.47c-0.21,0.4-0.44,0.79-0.67,1.18
				c-0.27,0.45-0.52,0.88-0.69,1.26c-0.11,0.25-0.2,0.69-0.3,1.17c-0.09,0.42-0.18,0.86-0.3,1.28c-0.17,0.61-0.38,1.13-0.58,1.6
				c-0.14,0.34-0.3,0.73-0.33,0.92c-0.13,0.82-0.25,1.74-0.34,2.75c-0.02,0.25,0.01,0.64,0.04,1.06c0.04,0.53,0.09,1.12,0.06,1.78
				c-0.02,0.7-0.01,1.41,0,2.14l0.01,0.73c0,0.45-0.01,0.91-0.02,1.37c-0.01,0.51-0.03,1.02-0.01,1.54c0.04,0.95,0.1,1.92,0.17,2.9
				c0.04,0.67,0.03,1.26,0.02,1.78c-0.01,0.45-0.02,0.88,0.01,1.22c0.02,0.23,0.11,0.59,0.2,0.98c0.14,0.57,0.29,1.22,0.36,1.96
				c0.04,0.47,0.08,0.95,0.12,1.42c0.04,0.52,0.08,1.04,0.13,1.57c0.05,0.53,0.09,1.05,0.12,1.58c0.03,0.47,0.06,0.95,0.11,1.42
				c0.04,0.44,0.11,0.87,0.18,1.3c0.09,0.57,0.18,1.13,0.23,1.7c0.07,0.65,0.13,1.3,0.19,1.95l0.1,1.07
				c0.06,0.6,0.08,1.21,0.09,1.82c0.01,0.42,0.02,0.83,0.06,1.24c0.06,0.68,0.06,1.32,0.06,1.89c0,0.4,0,0.79,0.03,1.19
				c0.02,0.24,0.09,0.59,0.17,0.97c0.13,0.58,0.28,1.31,0.32,2.11c0.05,1.06,0.08,2.1,0.1,3.12c0.02,1.07,0.02,2.13,0,3.16
				c-0.02,0.87-0.17,1.65-0.3,2.27c-0.07,0.35-0.14,0.68-0.15,0.91c-0.08,1.14-0.23,2.22-0.37,3.22c-0.05,0.33-0.07,0.66-0.09,0.99
				c-0.05,0.7-0.11,1.49-0.31,2.33c-0.3,1.25-0.63,2.34-1.01,3.32c-0.51,1.33-1,2.38-1.55,3.29c-0.66,1.11-1.46,1.93-2.16,2.65
				l-0.26,0.27c-0.97,1.01-2.04,1.71-3.05,2.35c-0.26,0.16-0.5,0.35-0.75,0.54c-0.51,0.38-1.13,0.86-1.89,1.26
				c-0.7,0.37-1.39,0.64-2,0.88c-0.31,0.12-0.61,0.24-0.91,0.37c-0.72,0.32-1.41,0.56-2.08,0.8c-0.28,0.1-0.57,0.2-0.85,0.3
				c-0.3,0.11-0.59,0.26-0.88,0.4c-0.57,0.27-1.22,0.59-1.99,0.83c-1,0.31-2.03,0.59-2.98,0.84c-0.73,0.19-1.47,0.35-2.21,0.5
				l-0.79,0.17c-0.68,0.15-1.32,0.24-1.93,0.32c-0.36,0.05-0.73,0.1-1.09,0.17c-0.78,0.14-1.57,0.26-2.36,0.37l-0.64,0.09
				c-0.35,0.05-0.69,0.11-1.04,0.17c-0.65,0.11-1.3,0.21-1.96,0.29c-0.62,0.07-1.24,0.12-1.86,0.16c-0.38,0.03-0.76,0.05-1.15,0.08
				c-0.88,0.08-1.76,0.14-2.65,0.21l-0.35,0.02c-0.36,0.03-0.72,0.09-1.08,0.14c-0.56,0.09-1.2,0.19-1.9,0.22
				c-0.71,0.04-1.35,0-1.92-0.04c-0.4-0.02-0.77-0.05-1.08-0.04c-0.4,0.01-0.8,0.04-1.19,0.07c-0.6,0.04-1.19,0.09-1.79,0.1
				c-0.38,0.01-0.77,0.04-1.15,0.08c-0.55,0.05-1.17,0.1-1.82,0.1c-0.41,0-0.82,0.02-1.22,0.04
				C141.53,175.46,141,175.48,140.46,175.48z M134.06,168.24c0.18,0,0.35,0,0.53,0.01c0.5,0.01,1,0.04,1.5,0.07
				c0.46,0.03,0.93,0.06,1.39,0.07c0.47,0.01,0.94,0.03,1.41,0.05c0.5,0.02,0.99,0.04,1.49,0.04c0.46,0.01,0.91-0.02,1.36-0.04
				c0.51-0.02,1.02-0.05,1.53-0.05c0.42,0,0.83-0.04,1.25-0.08c0.54-0.05,1.09-0.09,1.63-0.1c0.47-0.01,0.93-0.04,1.39-0.08
				c0.5-0.04,0.99-0.07,1.49-0.09c0.64-0.02,1.22,0.02,1.74,0.05c0.42,0.03,0.82,0.05,1.13,0.04c0.34-0.02,0.75-0.08,1.18-0.15
				c0.5-0.08,1.06-0.17,1.67-0.21l0.35-0.03c0.83-0.06,1.66-0.12,2.49-0.19c0.45-0.04,0.9-0.07,1.34-0.1c0.5-0.03,1-0.06,1.49-0.12
				c0.55-0.07,1.1-0.16,1.65-0.25c0.38-0.06,0.77-0.13,1.15-0.18l0.65-0.1c0.71-0.1,1.42-0.21,2.13-0.33
				c0.45-0.08,0.91-0.15,1.36-0.21c0.48-0.07,0.95-0.13,1.41-0.23l0.84-0.18c0.63-0.13,1.26-0.27,1.88-0.43
				c0.9-0.24,1.8-0.48,2.67-0.75c0.28-0.09,0.65-0.27,1.05-0.46c0.43-0.21,0.92-0.44,1.47-0.65c0.33-0.12,0.65-0.24,0.98-0.35
				c0.57-0.2,1.1-0.39,1.57-0.59c0.39-0.17,0.79-0.33,1.18-0.49c0.49-0.19,0.94-0.37,1.3-0.56c0.25-0.13,0.57-0.38,0.92-0.64
				c0.37-0.28,0.78-0.6,1.26-0.9c0.69-0.43,1.3-0.83,1.71-1.25l0.29-0.3c0.48-0.5,0.94-0.97,1.19-1.38
				c0.33-0.55,0.65-1.25,1.01-2.19c0.27-0.71,0.51-1.51,0.74-2.46c0.07-0.29,0.1-0.73,0.13-1.2c0.03-0.49,0.07-0.98,0.14-1.48
				c0.13-0.93,0.26-1.83,0.32-2.75c0.05-0.66,0.16-1.24,0.27-1.76c0.08-0.41,0.16-0.8,0.16-1.05c0.02-0.94,0.02-1.91,0-2.89
				c-0.02-0.96-0.05-1.93-0.09-2.92c-0.01-0.22-0.09-0.58-0.17-0.96c-0.12-0.57-0.26-1.22-0.31-1.96c-0.04-0.55-0.04-1.1-0.04-1.66
				c0-0.44,0-0.87-0.03-1.31c-0.05-0.54-0.06-1.09-0.08-1.63c-0.01-0.45-0.02-0.9-0.07-1.35l-0.1-1.1
				c-0.06-0.63-0.12-1.26-0.18-1.89c-0.04-0.44-0.12-0.88-0.18-1.32c-0.09-0.56-0.17-1.11-0.23-1.67c-0.06-0.55-0.1-1.11-0.13-1.67
				c-0.03-0.45-0.06-0.91-0.11-1.36c-0.06-0.57-0.1-1.15-0.15-1.73c-0.03-0.44-0.07-0.87-0.11-1.31c-0.02-0.25-0.11-0.6-0.2-0.98
				c-0.14-0.59-0.31-1.27-0.37-2.04c-0.06-0.72-0.04-1.38-0.03-1.97c0.01-0.38,0.02-0.75,0-1.12c-0.07-1.07-0.14-2.09-0.18-3.1
				c-0.03-0.67-0.01-1.34,0-2c0.01-0.38,0.02-0.75,0.02-1.13l-0.01-0.71c-0.01-0.83-0.02-1.65,0-2.46c0.01-0.28-0.02-0.64-0.05-1.02
				c-0.05-0.65-0.11-1.39-0.03-2.21c0.1-1.18,0.24-2.28,0.4-3.27c0.16-0.99,0.5-1.81,0.77-2.47c0.12-0.3,0.24-0.58,0.29-0.75
				c0.08-0.29,0.14-0.59,0.2-0.88c0.16-0.75,0.34-1.61,0.72-2.5v0c0.34-0.79,0.74-1.47,1.1-2.06c0.17-0.28,0.34-0.56,0.48-0.85
				c0.44-0.84,0.99-1.89,1.58-2.87c0.2-0.32,0.38-0.65,0.55-0.98c0.32-0.58,0.65-1.19,1.07-1.81c0.22-0.33,0.44-0.66,0.65-0.98
				c0.36-0.56,0.72-1.11,1.1-1.64c0.39-0.55,0.81-1.03,1.17-1.45c0.29-0.33,0.56-0.64,0.75-0.92c0.32-0.45,0.61-0.92,0.89-1.39
				c0.22-0.36,0.44-0.72,0.67-1.07c0.18-0.28,0.37-0.55,0.55-0.82c0.36-0.53,0.7-1.03,0.94-1.49c0.31-0.58,0.57-1.27,0.85-2.01
				l0.15-0.4c0.27-0.7,0.49-1.48,0.69-2.41c0.06-0.27,0.12-0.54,0.19-0.81c0.14-0.6,0.28-1.17,0.31-1.66
				c0.04-0.77,0.08-1.67,0.01-2.59c-0.06-0.78-0.22-1.66-0.41-2.64c-0.07-0.38-0.23-0.87-0.4-1.38c-0.13-0.41-0.27-0.83-0.39-1.26
				c-0.13-0.47-0.23-0.95-0.33-1.43c-0.09-0.46-0.18-0.89-0.28-1.15c-0.23-0.57-0.56-1.18-0.9-1.83l-0.29-0.55
				c-0.15-0.28-0.43-0.65-0.72-1.03c-0.29-0.38-0.57-0.76-0.83-1.15c-0.19-0.28-0.36-0.56-0.54-0.85c-0.33-0.52-0.63-1.01-0.94-1.4
				c-0.19-0.24-0.38-0.49-0.57-0.74c-0.4-0.51-0.77-1-1.14-1.4c-0.23-0.25-0.59-0.53-0.96-0.83c-0.39-0.31-0.78-0.63-1.14-0.96
				c-0.59-0.54-1.26-1.12-2.11-1.82c-0.33-0.27-0.65-0.55-0.97-0.83c-0.42-0.37-0.82-0.71-1.19-0.99c-0.48-0.35-0.99-0.67-1.49-0.99
				c-0.3-0.19-0.59-0.38-0.89-0.57c-0.75-0.49-1.52-0.95-2.29-1.42l-0.15-0.09c-0.44-0.26-0.86-0.55-1.29-0.84
				c-0.41-0.28-0.8-0.54-1.14-0.73c-0.49-0.27-1-0.52-1.51-0.77c-0.35-0.17-0.7-0.34-1.04-0.52c-0.42-0.22-0.86-0.4-1.29-0.58
				c-0.44-0.19-0.89-0.38-1.33-0.59c-0.44-0.21-0.88-0.44-1.31-0.68c-0.41-0.22-0.82-0.44-1.25-0.63c-0.37-0.17-0.74-0.34-1.11-0.51
				c-0.5-0.23-1-0.46-1.51-0.67c-0.48-0.2-0.97-0.37-1.45-0.54c-0.42-0.15-0.84-0.3-1.26-0.46c-0.51-0.2-1.02-0.43-1.52-0.67
				c-0.41-0.2-0.8-0.38-1.14-0.5c-0.3-0.11-0.7-0.2-1.12-0.29c-0.51-0.12-1.08-0.25-1.68-0.45c-0.62-0.2-1.17-0.45-1.65-0.67
				c-0.39-0.17-0.76-0.34-1.05-0.43c-0.16-0.05-0.52-0.09-0.85-0.12c-0.57-0.06-1.28-0.13-2.04-0.35c-0.71-0.2-1.31-0.47-1.83-0.71
				c-0.35-0.16-0.68-0.31-0.89-0.36c-0.29-0.08-0.69-0.13-1.11-0.19c-0.53-0.07-1.13-0.16-1.76-0.31c-0.59-0.14-1.18-0.27-1.78-0.4
				l-1.06-0.23c-0.69-0.15-1.28-0.37-1.8-0.56c-0.38-0.14-0.74-0.27-0.99-0.32c-0.28-0.06-0.67-0.09-1.09-0.12
				c-0.54-0.04-1.16-0.08-1.82-0.21c-0.53-0.1-1.06-0.18-1.59-0.26c-0.43-0.07-0.86-0.13-1.29-0.2c-0.51-0.09-1.02-0.2-1.53-0.31
				c-0.44-0.1-0.88-0.2-1.32-0.27c-0.48-0.07-0.96-0.12-1.44-0.17c-0.49-0.05-0.98-0.1-1.46-0.16l-0.74-0.1
				c-0.71-0.1-1.43-0.2-2.15-0.28c-0.47-0.06-0.94-0.08-1.42-0.11c-0.5-0.03-1-0.06-1.5-0.12c-0.48-0.05-0.96-0.11-1.45-0.18
				c-0.48-0.07-0.97-0.13-1.45-0.17c-0.66-0.06-1.26-0.17-1.79-0.28c-0.41-0.08-0.81-0.16-1.11-0.18c-0.36-0.03-0.79-0.02-1.24-0.01
				c-0.56,0.01-1.13,0.02-1.69-0.01c-0.39-0.02-0.79-0.05-1.18-0.07c-0.58-0.04-1.16-0.08-1.73-0.1c-0.43-0.02-0.87,0-1.3,0.02
				c-0.54,0.02-1.08,0.04-1.62,0.02c-0.69-0.02-1.38-0.02-2.06-0.03l-1.79-0.02c-0.67-0.01-1.33-0.02-1.99-0.02
				c-0.53,0.01-1.08-0.03-1.62-0.06c-0.43-0.02-0.87-0.05-1.3-0.04c-0.47,0.01-0.95,0.01-1.42,0c-0.5,0-1-0.01-1.5,0.01
				c-0.43,0.02-0.87,0.07-1.3,0.11c-0.54,0.06-1.07,0.12-1.61,0.14c-0.67,0.03-1.28,0-1.82-0.03c-0.42-0.02-0.81-0.05-1.11-0.03
				c-0.26,0.02-0.62,0.1-1.02,0.18c-0.55,0.12-1.17,0.25-1.88,0.31c-0.52,0.04-1.03,0.06-1.55,0.08c-0.46,0.02-0.91,0.03-1.37,0.07
				c-0.61,0.06-1.19,0.07-1.7,0.08c-0.45,0.01-0.87,0.02-1.22,0.06c-0.32,0.04-0.72,0.13-1.14,0.23c-0.51,0.12-1.1,0.25-1.73,0.34
				c-0.55,0.07-1.1,0.11-1.66,0.14c-0.46,0.03-0.89,0.05-1.26,0.11c-0.26,0.04-0.62,0.15-1.01,0.26c-0.53,0.16-1.14,0.34-1.83,0.46
				c-0.4,0.07-0.8,0.13-1.2,0.19c-0.56,0.09-1.12,0.17-1.68,0.28c-0.52,0.1-1.04,0.17-1.56,0.23c-0.44,0.06-0.88,0.11-1.32,0.2
				c-0.52,0.11-1.05,0.18-1.57,0.26c-0.44,0.06-0.88,0.12-1.3,0.22c-0.19,0.04-0.53,0.19-0.86,0.33c-0.52,0.22-1.16,0.49-1.9,0.67
				c-0.71,0.18-1.36,0.24-1.94,0.3c-0.38,0.04-0.74,0.07-0.96,0.13c-0.44,0.12-0.86,0.27-1.29,0.42c-0.49,0.17-0.97,0.34-1.47,0.48
				l-0.43,0.12c-0.79,0.23-1.57,0.46-2.35,0.7c-0.64,0.2-1.27,0.42-1.9,0.64l-1.35,0.46c-0.75,0.25-1.49,0.51-2.23,0.78
				c-0.4,0.15-0.8,0.29-1.2,0.43c-0.51,0.18-1.02,0.35-1.51,0.55c-0.65,0.26-1.28,0.54-1.91,0.81l-0.74,0.32
				c-0.51,0.22-1.01,0.47-1.51,0.71c-0.36,0.18-0.72,0.35-1.09,0.52c-0.4,0.19-0.81,0.36-1.21,0.54c-0.47,0.21-0.95,0.41-1.41,0.64
				c-0.32,0.16-0.69,0.4-1.08,0.65c-0.45,0.29-0.91,0.58-1.38,0.84s-0.96,0.48-1.44,0.7c-0.42,0.19-0.82,0.37-1.13,0.55
				c-0.33,0.19-0.69,0.46-1.08,0.75c-0.42,0.3-0.83,0.6-1.26,0.88c-0.56,0.36-1.1,0.63-1.58,0.87c-0.41,0.21-0.8,0.4-1.05,0.58
				c-0.55,0.39-1.11,0.84-1.69,1.32l-0.64,0.51c-0.43,0.35-0.88,0.77-1.35,1.22c-0.27,0.26-0.54,0.51-0.81,0.76
				c-0.34,0.32-0.71,0.73-1.09,1.17c-0.28,0.32-0.56,0.65-0.86,0.96l-0.31,0.33c-0.58,0.61-1.13,1.19-1.59,1.78l-0.46,0.58
				c-0.46,0.58-0.9,1.13-1.24,1.66c-0.29,0.46-0.57,1.03-0.86,1.64c-0.13,0.28-0.26,0.55-0.4,0.83c-0.17,0.34-0.35,0.68-0.54,1.02
				c-0.28,0.52-0.55,1.01-0.71,1.44c-0.1,0.28-0.21,0.55-0.31,0.83c-0.25,0.64-0.48,1.25-0.61,1.79s-0.17,1.18-0.22,1.85L20,57.45
				c-0.04,0.49,0.03,1.06,0.11,1.72l0.07,0.59c0.04,0.4,0.07,0.81,0.09,1.21c0.02,0.42,0.05,0.9,0.11,1.11
				c0.1,0.32,0.33,0.75,0.58,1.21c0.17,0.32,0.35,0.65,0.5,0.97c0.33,0.69,0.75,1.4,1.28,2.25c0.23,0.38,0.54,0.79,0.87,1.22
				c0.25,0.33,0.51,0.67,0.75,1.02c0.38,0.54,0.67,1.07,0.93,1.54c0.2,0.37,0.39,0.71,0.57,0.96c0.21,0.29,0.45,0.55,0.68,0.83
				c0.39,0.44,0.82,0.95,1.24,1.54c0.43,0.63,0.78,1.24,1.11,1.83c0.17,0.3,0.34,0.6,0.52,0.89c0.66,1.08,1.25,2.18,1.74,3.26
				c0.46,1.01,0.78,1.99,1.09,2.94l0.16,0.48c0.31,0.93,0.7,2.16,0.99,3.46c0.07,0.32,0.15,0.63,0.23,0.95
				c0.19,0.75,0.41,1.61,0.55,2.52c0.11,0.78,0.15,1.52,0.18,2.18c0.02,0.34,0.03,0.68,0.06,1.02c0.03,0.34,0.07,0.68,0.11,1.02
				c0.08,0.64,0.16,1.37,0.19,2.14l0.02,0.48c0.03,0.88,0.06,1.77,0.05,2.67c-0.01,0.73-0.05,1.47-0.09,2.21l-0.05,0.91
				c-0.02,0.38-0.02,0.76-0.02,1.14c0,0.62-0.01,1.27-0.07,1.96c-0.06,0.73-0.19,1.38-0.3,1.97c-0.07,0.36-0.15,0.72-0.19,1.08
				c-0.06,0.61-0.16,1.22-0.27,1.83c-0.07,0.4-0.13,0.79-0.18,1.19c-0.05,0.37-0.09,0.75-0.13,1.12c-0.07,0.63-0.15,1.27-0.24,1.9
				c-0.08,0.58-0.19,1.16-0.3,1.73c-0.08,0.42-0.16,0.84-0.22,1.26c-0.07,0.44-0.12,0.88-0.18,1.31c-0.07,0.56-0.15,1.12-0.24,1.67
				c-0.07,0.44-0.12,0.89-0.18,1.33c-0.06,0.55-0.13,1.1-0.22,1.64c-0.07,0.45-0.12,0.9-0.17,1.35c-0.06,0.54-0.12,1.08-0.21,1.61
				c-0.07,0.43-0.11,0.87-0.14,1.3c-0.05,0.55-0.1,1.1-0.18,1.64c-0.06,0.4-0.12,0.79-0.19,1.19c-0.09,0.58-0.19,1.15-0.26,1.72
				c-0.1,0.75-0.3,1.42-0.46,1.95c-0.1,0.34-0.21,0.7-0.23,0.89c-0.05,0.42-0.06,0.89-0.08,1.4c-0.01,0.5-0.03,1-0.07,1.48
				c-0.03,0.35-0.03,0.77-0.02,1.21c0,0.54,0,1.08-0.03,1.61c-0.04,0.65-0.15,1.22-0.24,1.73c-0.07,0.39-0.14,0.75-0.14,0.98
				c-0.01,0.42,0.04,0.92,0.09,1.46c0.04,0.39,0.07,0.77,0.1,1.16c0.02,0.38,0.13,0.87,0.24,1.38c0.08,0.36,0.15,0.71,0.21,1.07
				c0.07,0.39,0.12,0.79,0.16,1.18c0.05,0.46,0.1,0.9,0.19,1.16c0.26,0.78,0.55,1.46,0.89,2.08c0.27,0.49,0.65,1.01,1.06,1.56
				l0.41,0.56c0.36,0.5,0.84,1,1.35,1.54l0.35,0.37c0.29,0.31,0.56,0.62,0.83,0.94c0.33,0.39,0.64,0.76,0.91,0.97
				c0.67,0.55,1.39,1.14,2.1,1.59c0.37,0.24,0.86,0.47,1.38,0.72c0.34,0.16,0.67,0.32,1,0.49c0.27,0.14,0.53,0.28,0.8,0.42
				c0.58,0.31,1.12,0.6,1.63,0.8c0.38,0.15,0.87,0.29,1.39,0.43c0.42,0.11,0.84,0.23,1.26,0.36c0.51,0.16,1.09,0.3,1.71,0.44
				c0.33,0.08,0.67,0.16,1.01,0.24c0.98,0.24,1.86,0.46,2.75,0.63c0.34,0.07,0.69,0.14,1.04,0.21c0.59,0.12,1.18,0.25,1.77,0.33
				c0.56,0.08,1.11,0.13,1.68,0.18c0.4,0.04,0.8,0.07,1.2,0.11c0.41,0.04,0.81,0.1,1.22,0.15c0.56,0.07,1.12,0.15,1.68,0.19
				c0.51,0.04,1.03,0.1,1.54,0.17c0.46,0.06,0.92,0.12,1.38,0.15c0.31,0.01,0.71-0.02,1.15-0.05c0.54-0.04,1.15-0.09,1.81-0.07
				c0.47,0.01,0.94,0.04,1.41,0.06c0.52,0.03,1.04,0.05,1.55,0.06c0.75,0.01,1.42,0.11,2,0.2c0.4,0.06,0.76,0.13,1.01,0.12
				c0.36,0,0.78-0.04,1.22-0.08c1.04-0.09,2.37-0.1,3.58-0.02c0.42,0.03,0.82,0.06,1.23,0.06c0.39,0,0.78-0.02,1.18-0.04
				c0.56-0.03,1.2-0.07,1.87-0.05c0.59,0.01,1.18,0.04,1.78,0.07c0.42,0.02,0.84,0.04,1.26,0.05c0.57,0.02,1.14,0.06,1.72,0.11
				c0.43,0.04,0.86,0.07,1.29,0.09c0.42,0.02,0.85,0.01,1.28,0.01c0.57-0.01,1.15-0.01,1.73,0.02c0.31,0.01,0.71-0.01,1.12-0.03
				c0.56-0.03,1.2-0.07,1.89-0.04c0.81,0.04,1.53,0.2,2.1,0.34c0.34,0.08,0.69,0.16,0.87,0.17c0.4,0.02,0.8,0,1.2-0.02
				c0.54-0.02,1.15-0.05,1.8-0.01c0.52,0.02,1.03,0.06,1.55,0.1c0.47,0.04,0.95,0.07,1.43,0.09c0.49,0.02,0.99,0.03,1.48,0.04
				c0.5,0.01,1,0.02,1.5,0.04c0.61,0.02,1.21,0.04,1.82,0.06l1.16,0.03c0.56,0.02,1.12,0.07,1.69,0.13c0.43,0.04,0.85,0.09,1.28,0.1
				c0.99,0.02,1.98,0.04,2.97,0.05c0.31,0.02,0.71-0.04,1.14-0.08c0.54-0.06,1.16-0.1,1.83-0.12c0.68,0,1.29,0.07,1.84,0.13
				c0.42,0.05,0.81,0.1,1.12,0.09c0.37,0,0.8-0.05,1.26-0.09c0.56-0.05,1.12-0.11,1.68-0.12c0.44-0.01,0.88-0.06,1.31-0.11
				c0.54-0.06,1.08-0.11,1.62-0.13c0.62-0.03,1.25-0.07,1.87-0.11l1.07-0.07c0.12-0.01,0.23-0.01,0.35,0
				c0.77,0.03,1.46,0.17,2.01,0.29c0.34,0.07,0.69,0.14,0.89,0.15c0.43,0.01,0.87,0,1.31-0.01
				C133.34,168.25,133.7,168.24,134.06,168.24z"/>
		</g>
	</g>
</g>
</svg>
