<?xml version="1.0" encoding="utf-8"?>
<!-- Generator: Adobe Illustrator 26.1.0, SVG Export Plug-In . SVG Version: 6.00 Build 0)  -->
<svg version="1.1" id="圖層_1" xmlns="http://www.w3.org/2000/svg" xmlns:xlink="http://www.w3.org/1999/xlink" x="0px" y="0px"
	 viewBox="0 0 82.62 90.99" style="enable-background:new 0 0 82.62 90.99;" xml:space="preserve">
<style type="text/css">
	.st0{fill:none;stroke:#E0E2E2;stroke-width:2;stroke-linecap:round;stroke-linejoin:round;stroke-miterlimit:10;}
	.st1{fill:#FBAEC2;}
	.st2{fill:#FFFBF3;}
	.st3{fill:#C3E2C3;}
	.st4{fill:#DDBADA;}
	.st5{fill:#FFC999;}
	.st6{clip-path:url(#SVGID_00000176739662496922731730000017722106919739993237_);}
	.st7{fill:none;stroke:#FFFFFF;stroke-miterlimit:10;}
	.st8{fill:#97E1DF;}
	.st9{clip-path:url(#SVGID_00000069391716327448191610000014962483540228717210_);}
</style>
<g>
	<line class="st0" x1="1" y1="3.06" x2="81.62" y2="3.06"/>
	<path class="st5" d="M75.2,90.9L41.66,73.59c-0.22-0.11-0.48-0.11-0.71,0L7.42,90.9C6.91,91.17,6.3,90.8,6.3,90.22V0.77
		C6.3,0.34,6.64,0,7.07,0h68.48c0.43,0,0.77,0.34,0.77,0.77v89.45C76.32,90.8,75.71,91.17,75.2,90.9z"/>
	<g>
		<defs>
			<path id="SVGID_1_" d="M75.2,90.9L41.66,73.59c-0.22-0.11-0.48-0.11-0.71,0L7.42,90.9C6.91,91.17,6.3,90.8,6.3,90.22V0.77
				C6.3,0.34,6.64,0,7.07,0h68.48c0.43,0,0.77,0.34,0.77,0.77v89.45C76.32,90.8,75.71,91.17,75.2,90.9z"/>
		</defs>
		<clipPath id="SVGID_00000056429604832753433670000011521477911787923643_">
			<use xlink:href="#SVGID_1_"  style="overflow:visible;"/>
		</clipPath>
		<g style="clip-path:url(#SVGID_00000056429604832753433670000011521477911787923643_);">
			<line class="st7" x1="-38.33" y1="54.35" x2="47.79" y2="-31.77"/>
			<line class="st7" x1="-31.89" y1="60.79" x2="54.24" y2="-25.33"/>
			<line class="st7" x1="-25.44" y1="67.24" x2="60.68" y2="-18.88"/>
			<line class="st7" x1="-19" y1="73.68" x2="67.12" y2="-12.44"/>
			<line class="st7" x1="-12.56" y1="80.12" x2="73.56" y2="-6"/>
			<line class="st7" x1="-6.12" y1="86.56" x2="80" y2="0.44"/>
			<line class="st7" x1="0.33" y1="93.01" x2="86.45" y2="6.88"/>
			<line class="st7" x1="6.77" y1="99.45" x2="92.89" y2="13.33"/>
			<line class="st7" x1="13.21" y1="105.89" x2="99.33" y2="19.77"/>
			<line class="st7" x1="19.65" y1="112.33" x2="105.77" y2="26.21"/>
			<line class="st7" x1="26.09" y1="118.78" x2="112.22" y2="32.65"/>
			<line class="st7" x1="32.54" y1="125.22" x2="118.66" y2="39.1"/>
		</g>
	</g>
	<circle class="st2" cx="41.31" cy="35.99" r="30.57"/>
</g>
</svg>
