<svg xmlns="http://www.w3.org/2000/svg" width="24" height="24" fill="currentColor" viewBox="0 0 24 24">
  <path fill-rule="evenodd" d="M4.1 7A2.9 2.9 0 017 4.1h7A2.9 2.9 0 0116.9 7v.5a.9.9 0 01-1.8 0V7A1.1 1.1 0 0014 5.9H7A1.1 1.1 0 005.9 7v10A1.1 1.1 0 007 18.1h7.5a.6.6 0 00.6-.6v-1a.9.9 0 111.8 0v1a2.4 2.4 0 01-2.4 2.4H7A2.9 2.9 0 014.1 17V7z" clip-rule="evenodd"/>
  <path fill-rule="evenodd" d="M16.14 14.367a.6.6 0 01.106-.841L18.216 12l-1.97-1.526a.6.6 0 11.735-.948l2.583 2a.6.6 0 010 .948l-2.583 2a.6.6 0 01-.842-.107zM15.058 9.633a.6.6 0 01-.107.842L12.98 12l1.97 1.526a.6.6 0 01-.735.949l-2.583-2a.6.6 0 010-.95l2.583-2a.6.6 0 01.842.108z" clip-rule="evenodd"/>
  <path fill-rule="evenodd" d="M12.397 12a.6.6 0 01.6-.6h6.2a.6.6 0 010 1.2h-6.2a.6.6 0 01-.6-.6z" clip-rule="evenodd"/>
</svg>
