<svg xmlns="http://www.w3.org/2000/svg" width="24" height="24" fill="currentColor" viewBox="0 0 24 24">
  <path fill-rule="evenodd" d="M9.184 16.986H17.5a1.2 1.2 0 001.2-1.2V9.16a1.2 1.2 0 00-.347-.843l-3.62-3.662a1.2 1.2 0 00-.854-.356H9.184a1.2 1.2 0 00-1.2 1.2v10.286a1.2 1.2 0 001.2 1.2zm8.316 1.8H9.184a3 3 0 01-3-3V5.5a3 3 0 013-3h4.695a3 3 0 012.133.89l3.621 3.662a3 3 0 01.867 2.11v6.624a3 3 0 01-3 3z" clip-rule="evenodd"/>
  <path fill-rule="evenodd" d="M5.066 7.924a.666.666 0 00-.666.666v9.91c0 1.16.94 2.1 2.1 2.1h7.918a.708.708 0 00.708-.708h1.8a2.509 2.509 0 01-2.508 2.508H6.5a3.9 3.9 0 01-3.9-3.9V8.59a2.466 2.466 0 012.466-2.466v1.8zM14.237 3.41a.9.9 0 01.9.9v3.623h3.574a.9.9 0 110 1.8h-3.974a1.4 1.4 0 01-1.4-1.4V4.31a.9.9 0 01.9-.9z" clip-rule="evenodd"/>
</svg>
