<svg xmlns="http://www.w3.org/2000/svg" width="24" height="24" fill="currentColor" viewBox="0 0 24 24">
  <path d="M15.214 12.275c1.04-.718 1.768-1.896 1.768-2.99 0-2.42-1.875-4.285-4.286-4.285H7.071C6.482 5 6 5.482 6 6.071V18.93C6 19.518 6.482 20 7.071 20h6.193c2.218 0 4.243-1.81 4.254-4.04.01-1.639-.91-3.042-2.304-3.685zm-6-4.596h3.215c.889 0 1.607.717 1.607 1.607 0 .889-.718 1.607-1.607 1.607H9.214V7.679zm3.75 9.642h-3.75v-3.214h3.75c.89 0 1.607.718 1.607 1.607 0 .89-.717 1.607-1.607 1.607z"/>
</svg>
