<svg xmlns="http://www.w3.org/2000/svg" width="24" height="24" fill="currentColor" viewBox="0 0 24 24">
  <path d="M22.558 18.005l-4.683-4.69V9.838a.803.803 0 00-.233-.57l-8.034-8.03a.803.803 0 00-1.14 0l-7.23 7.227a.803.803 0 000 1.14l8.033 8.03a.804.804 0 00.57.234h3.487l4.683 4.69a3.215 3.215 0 004.547-4.546v-.008zM4.218 7.758l1.84 1.847 1.14-1.14-1.847-1.839 1.277-1.277 3.446 3.453 1.141-1.14-3.454-3.445L9.038 2.94l5.294 5.292-6.097 6.095L2.94 9.035l1.277-1.277zm17.2 13.652a1.607 1.607 0 01-2.266 0l-4.924-4.914a1.447 1.447 0 00-.57-.233H10.17l-.804-.803 6.098-6.096.803.803v3.486c.001.21.085.412.233.562l4.917 4.93a1.606 1.606 0 010 2.265z"/>
</svg>
