<svg width="12" height="12" viewBox="0 0 12 12" fill="none" xmlns="http://www.w3.org/2000/svg">
<g clip-path="url(#clip0_4069:37897)">
<path d="M0 3C0 1.34315 1.34315 0 3 0H9C10.6569 0 12 1.34315 12 3V9C12 10.6569 10.6569 12 9 12H3C1.34315 12 0 10.6569 0 9V3Z" fill="currentColor"/>
<path d="M2.84442 5.89347L5.69053 8.73958L4.87736 9.55275L2.03125 6.70665L2.84442 5.89347Z" fill="white"/>
<path d="M4.87735 7.9264L9.75639 3.04736L10.5696 3.86054L5.69053 8.73958L4.87735 7.9264Z" fill="white"/>
</g>
<defs>
<clipPath id="clip0_4069:37897">
<path d="M0 3C0 1.34315 1.34315 0 3 0H9C10.6569 0 12 1.34315 12 3V9C12 10.6569 10.6569 12 9 12H3C1.34315 12 0 10.6569 0 9V3Z" fill="white"/>
</clipPath>
</defs>
</svg>
