<svg xmlns="http://www.w3.org/2000/svg" width="24" height="24" fill="currentColor" viewBox="0 0 24 24">
  <path d="M18.727 7.364V4.09A1.091 1.091 0 0017.637 3H5.09A1.09 1.09 0 004 4.09v3.274a1.09 1.09 0 001.09 1.09h12.546a1.091 1.091 0 001.091-1.09zM5.091 4.09h12.545v3.273H5.091V4.09z"/>
  <path d="M19.818 5.182h-.545v3.43l-7.255 2.319a.546.546 0 00-.382.545v.797h-1.09v7.636A1.09 1.09 0 0011.635 21h1.091a1.09 1.09 0 001.091-1.09v-7.637h-1.09v-.399l7.254-2.329A.546.546 0 0020.364 9V5.727a.545.545 0 00-.546-.545zm-7.09 14.727h-1.092v-6.545h1.091v6.545z"/>
</svg>
