<svg xmlns="http://www.w3.org/2000/svg" width="24" height="24" fill="currentColor" viewBox="0 0 24 24">
  <path d="M21.163 17.116L17 12.947v-3.09a.711.711 0 00-.207-.508L9.652 2.211a.714.714 0 00-1.014 0L2.211 8.636a.714.714 0 000 1.013l7.141 7.139a.715.715 0 00.507.206h3.1l4.162 4.17a2.858 2.858 0 004.042-4.041v-.007zM4.86 8.007L6.496 9.65 7.51 8.636 5.867 7l1.136-1.135 3.063 3.07 1.014-1.014-3.07-3.063 1.135-1.135 4.706 4.705-5.42 5.418-4.706-4.705L4.86 8.007zM20.15 20.142a1.428 1.428 0 01-2.014 0l-4.377-4.368a1.286 1.286 0 00-.507-.207h-3.1l-.713-.714 5.42-5.418.714.714v3.098c0 .187.075.367.207.5l4.37 4.383a1.427 1.427 0 010 2.012z"/>
</svg>
