<svg width="16" height="16" viewBox="0 0 16 16" fill="none" xmlns="http://www.w3.org/2000/svg">
<path d="M8 1C6.61553 1 5.26216 1.41054 4.11101 2.17971C2.95987 2.94888 2.06266 4.04213 1.53285 5.32122C1.00303 6.6003 0.86441 8.00776 1.13451 9.36563C1.4046 10.7235 2.07129 11.9708 3.05026 12.9497C4.02922 13.9287 5.2765 14.5954 6.63437 14.8655C7.99224 15.1356 9.3997 14.997 10.6788 14.4672C11.9579 13.9373 13.0511 13.0401 13.8203 11.889C14.5895 10.7378 15 9.38447 15 8C15 6.14348 14.2625 4.36301 12.9497 3.05025C11.637 1.7375 9.85652 1 8 1ZM2 8C1.99802 6.58129 2.50345 5.20865 3.425 4.13L11.87 12.575C10.9967 13.3121 9.93114 13.7844 8.79856 13.9365C7.66598 14.0886 6.51351 13.9141 5.47673 13.4335C4.43995 12.953 3.56196 12.1863 2.94605 11.2237C2.33014 10.2612 2.00192 9.14275 2 8ZM12.575 11.87L4.13 3.425C5.28129 2.47882 6.74348 1.99493 8.23191 2.06753C9.72035 2.14014 11.1285 2.76403 12.1822 3.81777C13.236 4.8715 13.8599 6.27966 13.9325 7.76809C14.0051 9.25653 13.5212 10.7187 12.575 11.87Z" fill="#D9DBE1"/>
</svg>
