<svg width="25" height="25" viewBox="0 0 25 25" fill="none" xmlns="http://www.w3.org/2000/svg">
<g clip-path="url(#clip0_8774_4912)">
<g clip-path="url(#clip1_8774_4912)">
<path d="M12.1914 14.6366L18.699 9.19824C18.7611 9.34467 18.7985 9.50042 18.8096 9.65912V15.5952C18.7979 15.9788 18.6397 16.3432 18.3675 16.6137C18.0953 16.8842 17.7299 17.04 17.3463 17.0493H7.03644C6.66337 17.0361 6.3107 16.8757 6.05551 16.6032C5.80031 16.3308 5.66335 15.9684 5.67455 15.5952V9.66373C5.66817 9.51192 5.68685 9.3601 5.72985 9.21437L12.1914 14.6366Z" fill="#18191F"/>
<path d="M12.1912 13.4337L6.27586 8.50466C6.50385 8.3632 6.76807 8.29115 7.03631 8.29726H17.3462C17.6088 8.29105 17.8678 8.35978 18.0928 8.49544L12.1912 13.4337Z" fill="#18191F"/>
</g>
</g>
<rect x="0.566406" y="1" width="23.3512" height="23.3512" rx="11.6756" stroke="#18191F"/>
<defs>
<clipPath id="clip0_8774_4912">
<rect x="0.566406" y="1" width="23.3512" height="23.3512" rx="11.6756" fill="white"/>
</clipPath>
<clipPath id="clip1_8774_4912">
<rect width="13.135" height="8.75668" fill="white" transform="matrix(-1 0 0 1 18.8096 8.29688)"/>
</clipPath>
</defs>
</svg>
