<?xml version="1.0" encoding="utf-8"?>
<!-- Generator: Adobe Illustrator 25.4.1, SVG Export Plug-In . SVG Version: 6.00 Build 0)  -->
<svg version="1.1" id="圖層_1" xmlns="http://www.w3.org/2000/svg" xmlns:xlink="http://www.w3.org/1999/xlink" x="0px" y="0px"
	 viewBox="0 0 30 30" style="enable-background:new 0 0 30 30;" xml:space="preserve">
<style type="text/css">
	.st0{fill:#FFFFFF;}
</style>
<g>
	<path class="st0" d="M9.6,21c0.4,0.3,0.9,0.4,1.4,0.4v0c0.5,0,0.9-0.1,1.3-0.4c0.4-0.3,0.7-0.6,0.9-1l1-3c0.2-0.7,0.6-1.3,1.1-1.8
		c0.5-0.5,1.1-0.9,1.8-1.1l2.9-0.9c0.5-0.2,0.9-0.5,1.1-0.9c0.3-0.4,0.4-0.9,0.4-1.4c0-0.5-0.2-1-0.5-1.4c-0.3-0.4-0.7-0.7-1.2-0.8
		L17,7.8c-0.7-0.2-1.3-0.6-1.8-1.1c-0.5-0.5-0.9-1.1-1.1-1.8L13.1,2c-0.2-0.5-0.5-0.9-0.9-1.1c-0.4-0.3-0.9-0.4-1.4-0.4
		c-0.5,0-1,0.2-1.4,0.4C9.1,1.2,8.9,1.6,8.7,2L7.8,4.9C7.5,5.6,7.2,6.2,6.7,6.7C6.2,7.2,5.6,7.6,4.9,7.8L2,8.8
		C1.7,8.9,1.4,9.1,1.1,9.3c-0.3,0.3-0.4,0.6-0.6,0.9c-0.1,0.3-0.1,0.7-0.1,1.1c0.1,0.4,0.2,0.7,0.4,1c0.3,0.4,0.7,0.7,1.2,0.9
		l2.8,0.9c0.7,0.2,1.3,0.6,1.8,1.1c0.1,0.1,0.3,0.3,0.4,0.4c0.3,0.4,0.6,0.9,0.7,1.4l0.9,2.9C8.9,20.4,9.2,20.8,9.6,21z"/>
	<path class="st0" d="M22,29.2c-0.3-0.2-0.5-0.5-0.7-0.9l-0.5-1.6c-0.1-0.3-0.3-0.6-0.5-0.8c-0.2-0.2-0.5-0.4-0.8-0.5l-1.6-0.5
		c-0.4-0.1-0.7-0.4-0.9-0.7c-0.2-0.3-0.3-0.7-0.3-1.1c0-0.4,0.1-0.8,0.3-1.1c0.2-0.3,0.5-0.6,0.9-0.7l1.6-0.5
		c0.3-0.1,0.6-0.3,0.8-0.5c0.2-0.2,0.4-0.5,0.5-0.8l0.5-1.6c0.1-0.4,0.4-0.7,0.7-0.9c0.3-0.2,0.7-0.3,1.1-0.4c0.4,0,0.8,0.1,1.1,0.3
		c0.3,0.2,0.6,0.5,0.7,0.9l0.5,1.6c0.1,0.3,0.3,0.6,0.5,0.8c0.2,0.2,0.5,0.4,0.8,0.5l1.6,0.5c0.4,0.1,0.7,0.3,0.9,0.7
		c0.2,0.3,0.4,0.7,0.4,1.1c0,0.4-0.1,0.8-0.3,1.1c-0.2,0.3-0.5,0.6-0.9,0.7l-1.6,0.5c-0.3,0.1-0.6,0.3-0.8,0.5
		c-0.2,0.2-0.4,0.5-0.5,0.8l-0.5,1.6c-0.1,0.4-0.4,0.7-0.7,0.9c-0.3,0.2-0.7,0.3-1.1,0.3C22.7,29.5,22.3,29.4,22,29.2z"/>
</g>
</svg>
