<svg xmlns="http://www.w3.org/2000/svg" width="24" height="24" fill="currentColor" viewBox="0 0 24 24">
  <path fill-rule="evenodd" d="M7.8 7.4a1 1 0 01-.2 1.4l-3.867 2.9a1 1 0 000 1.6L7.6 16.2a1 1 0 01-1.2 1.6l-3.867-2.9a3 3 0 010-4.8L6.4 7.2a1 1 0 011.4.2zM16.2 17.6a1 1 0 01.2-1.4l3.867-2.9a1 1 0 000-1.6L16.4 8.8a1 1 0 011.2-1.6l3.867 2.9a3 3 0 010 4.8L17.6 17.8a1 1 0 01-1.4-.2zM12 4a1 1 0 011 1v1.75a1 1 0 11-2 0V5a1 1 0 011-1zm0 5.25a1 1 0 011 1v3.5a1 1 0 11-2 0v-3.5a1 1 0 011-1zm0 7a1 1 0 011 1V19a1 1 0 11-2 0v-1.75a1 1 0 011-1z" clip-rule="evenodd"/>
</svg>
