<svg xmlns="http://www.w3.org/2000/svg" width="24" height="24" fill="currentColor" viewBox="0 0 24 24">
  <path fill-rule="evenodd" d="M18.1 9.204a1 1 0 011 1v1.307H21a1 1 0 110 2h-1.9v3.153a1 1 0 001 1h.9a1 1 0 110 2h-.9a3 3 0 01-3-3v-3.153h-1.176a1 1 0 110-2h1.175v-1.307a1 1 0 011-1z" clip-rule="evenodd"/>
  <path d="M3 4.987A.987.987 0 013.987 4h12.338a.987.987 0 01.987.987v1.974a.987.987 0 11-1.974 0v-.987h-4.195v11.844h.987a.987.987 0 110 1.974H8.182a.987.987 0 010-1.974h.987V5.974H4.974v.987a.987.987 0 01-1.974 0V4.987z"/>
</svg>
