<svg xmlns="http://www.w3.org/2000/svg" width="24" height="24" fill="currentColor" viewBox="0 0 24 24">
  <path fill-rule="evenodd" d="M7.91 8.727c0-.452.365-.818.817-.818h3.928c.451 0 .818.366.818.818v1.8h1.8c.452 0 .818.367.818.819v3.927a.818.818 0 01-.818.818h-3.928a.818.818 0 01-.818-.818v-1.8h-1.8a.818.818 0 01-.818-.819V8.728zm1.635.818v2.291h1.8c.452 0 .819.367.819.819v1.8h2.29v-2.291h-1.8a.818.818 0 01-.818-.819v-1.8h-2.29z" clip-rule="evenodd"/>
  <path fill-rule="evenodd" d="M3 3.818C3 3.366 3.366 3 3.818 3h3.273c.452 0 .818.366.818.818v.818h8.182v-.818c0-.452.366-.818.818-.818h3.273c.452 0 .818.366.818.818v3.273a.818.818 0 01-.818.818h-.818v8.182h.818c.452 0 .818.366.818.818v3.273a.818.818 0 01-.818.818h-3.273a.818.818 0 01-.818-.818v-.818H7.909v.818a.818.818 0 01-.818.818H3.818A.818.818 0 013 20.182v-3.273c0-.452.366-.818.818-.818h.818V7.909h-.818A.818.818 0 013 7.091V3.818zM6.273 7.91v8.182h.818c.452 0 .818.366.818.818v.818h8.182v-.818c0-.452.366-.818.818-.818h.818V7.909h-.818a.818.818 0 01-.818-.818v-.818H7.909v.818a.818.818 0 01-.818.818h-.818z" clip-rule="evenodd"/>
</svg>
