<svg width="24" height="24" viewBox="0 0 24 24" fill="none" xmlns="http://www.w3.org/2000/svg">
<g clip-path="url(#clip0_17691_205178)">
<circle cx="12" cy="12" r="12" fill="#AACBDF"/>
<path fill-rule="evenodd" clip-rule="evenodd" d="M16.7182 4.00098H7.2818C6.73036 4.00098 6.28192 4.44941 6.28192 5.00085V18.9993C6.28192 19.5507 6.73036 19.9992 7.2818 19.9992H16.7182C17.2697 19.9992 17.7181 19.5507 17.7181 18.9993V5.00085C17.7181 4.44938 17.2697 4.00098 16.7182 4.00098ZM17.2182 18.9993C17.2182 19.2749 16.9938 19.4992 16.7182 19.4992H7.2818C7.0062 19.4992 6.78186 19.2749 6.78186 18.9993V5.00085C6.78186 4.72526 7.0062 4.50091 7.2818 4.50091H16.7182C16.9938 4.50091 17.2182 4.72526 17.2182 5.00085V18.9993ZM12.0012 10.8103C13.2945 10.8103 14.3821 9.76896 14.3821 8.42943C14.3821 7.11805 13.3141 6.05127 12.0012 6.05127C10.6872 6.05127 9.61795 7.11805 9.61795 8.42943C9.61795 9.76086 10.6958 10.8103 12.0012 10.8103ZM11.0487 10.0477C11.2681 9.73533 11.6162 9.54677 12.0012 9.54677C12.3853 9.54677 12.7327 9.73558 12.9518 10.0483C12.6672 10.2174 12.3441 10.3104 12.0012 10.3104C11.6592 10.3103 11.3356 10.2172 11.0487 10.0477ZM12.0012 6.55124C13.0385 6.55124 13.8821 7.39393 13.8821 8.42946C13.8821 8.92799 13.6883 9.39193 13.3455 9.74168C13.0331 9.30824 12.5434 9.0468 12.0013 9.0468C11.4578 9.0468 10.9672 9.3083 10.6545 9.74186C10.312 9.39261 10.118 8.92836 10.118 8.42946C10.1179 7.39389 10.9628 6.55124 12.0012 6.55124ZM12.8392 8.03411C12.8392 8.49692 12.4628 8.87336 12 8.87336C11.5371 8.87336 11.1607 8.49689 11.1607 8.03407C11.1607 7.57126 11.5371 7.19482 12 7.19482C12.4628 7.19482 12.8392 7.57129 12.8392 8.03411ZM12.3393 8.03407C12.3393 7.84707 12.187 7.69476 12 7.69476C11.8098 7.69476 11.6606 7.84392 11.6606 8.03407C11.6606 8.22107 11.813 8.37339 12 8.37339C12.187 8.37339 12.3393 8.22107 12.3393 8.03407ZM15.2215 13.2806H8.77839C8.64024 13.2806 8.52843 13.1688 8.52843 13.0306C8.52843 12.8924 8.64024 12.7806 8.77839 12.7806H15.2215C15.3597 12.7806 15.4715 12.8924 15.4715 13.0306C15.4715 13.1688 15.3597 13.2806 15.2215 13.2806ZM10.5836 15.4368H15.9304C16.0686 15.4368 16.1804 15.5486 16.1804 15.6868C16.1804 15.8249 16.0686 15.9368 15.9304 15.9368H10.5836C10.4455 15.9368 10.3336 15.8249 10.3336 15.6868C10.3336 15.5486 10.4455 15.4368 10.5836 15.4368ZM8.06949 15.4368H8.76961C8.90777 15.4368 9.01958 15.5486 9.01958 15.6868C9.01958 15.8249 8.90777 15.9368 8.76961 15.9368H8.06949C7.93133 15.9368 7.81952 15.8249 7.81952 15.6868C7.81952 15.5486 7.93133 15.4368 8.06949 15.4368ZM10.5836 17.449H15.9304C16.0686 17.449 16.1804 17.5609 16.1804 17.699C16.1804 17.8372 16.0686 17.949 15.9304 17.949H10.5836C10.4455 17.949 10.3336 17.8372 10.3336 17.699C10.3336 17.5609 10.4455 17.449 10.5836 17.449ZM8.06949 17.449H8.76961C8.90777 17.449 9.01958 17.5609 9.01958 17.699C9.01958 17.8372 8.90777 17.949 8.76961 17.949H8.06949C7.93133 17.949 7.81952 17.8372 7.81952 17.699C7.81952 17.5609 7.93133 17.449 8.06949 17.449Z" fill="white"/>
</g>
<defs>
<clipPath id="clip0_17691_205178">
<rect width="24" height="24" fill="white"/>
</clipPath>
</defs>
</svg>
