<svg width="24" height="24" viewBox="0 0 24 24" fill="none" xmlns="http://www.w3.org/2000/svg">
<g clip-path="url(#clip0_17691_205181)">
<path d="M12 0C9.62663 0 7.30655 0.703788 5.33316 2.02236C3.35977 3.34094 1.8217 5.21509 0.913451 7.4078C0.00519934 9.60051 -0.232441 12.0133 0.230582 14.3411C0.693605 16.6689 1.83649 18.8071 3.51472 20.4853C5.19295 22.1635 7.33115 23.3064 9.65892 23.7694C11.9867 24.2324 14.3995 23.9948 16.5922 23.0866C18.7849 22.1783 20.6591 20.6402 21.9776 18.6668C23.2962 16.6935 24 14.3734 24 12C23.9965 8.81847 22.7311 5.76824 20.4814 3.51856C18.2318 1.26887 15.1815 0.0034741 12 0Z" fill="#809EC9"/>
<path d="M15.1875 11.625H13.6875C13.588 11.625 13.4927 11.6645 13.4223 11.7348C13.352 11.8052 13.3125 11.9005 13.3125 12C13.3125 12.0995 13.352 12.1948 13.4223 12.2652C13.4927 12.3355 13.588 12.375 13.6875 12.375H14.7488C14.68 12.5694 14.5591 12.7412 14.3994 12.8716C14.2396 13.002 14.0471 13.086 13.8428 13.1143C13.6385 13.1427 13.4304 13.1143 13.2412 13.0324C13.0519 12.9505 12.8888 12.8181 12.7697 12.6498C12.6506 12.4814 12.5801 12.2836 12.5658 12.0778C12.5515 11.8721 12.5941 11.6664 12.6888 11.4832C12.7835 11.3001 12.9268 11.1464 13.1029 11.0392C13.2791 10.9319 13.4813 10.8751 13.6875 10.875C13.8557 10.8746 14.0217 10.9124 14.1731 10.9856C14.2609 11.0189 14.3579 11.0181 14.4451 10.9833C14.5323 10.9486 14.6033 10.8824 14.644 10.7978C14.6847 10.7133 14.6923 10.6165 14.6652 10.5267C14.6381 10.4368 14.5782 10.3604 14.4975 10.3125C14.2451 10.1896 13.9682 10.1255 13.6875 10.125C13.3167 10.125 12.9541 10.235 12.6458 10.441C12.3375 10.647 12.0971 10.9399 11.9552 11.2825C11.8133 11.6251 11.7762 12.0021 11.8485 12.3658C11.9209 12.7295 12.0995 13.0636 12.3617 13.3258C12.6239 13.588 12.958 13.7666 13.3217 13.839C13.6854 13.9113 14.0624 13.8742 14.405 13.7323C14.7476 13.5904 15.0405 13.35 15.2465 13.0417C15.4525 12.7334 15.5625 12.3708 15.5625 12C15.5625 11.9005 15.523 11.8052 15.4527 11.7348C15.3823 11.6645 15.287 11.625 15.1875 11.625ZM7.125 13.125H5.25V10.5C5.25 10.4005 5.21049 10.3052 5.14016 10.2348C5.06984 10.1645 4.97446 10.125 4.875 10.125C4.77554 10.125 4.68016 10.1645 4.60984 10.2348C4.53951 10.3052 4.5 10.4005 4.5 10.5V13.5C4.5 13.5995 4.53951 13.6948 4.60984 13.7652C4.68016 13.8355 4.77554 13.875 4.875 13.875H7.125C7.22446 13.875 7.31984 13.8355 7.39017 13.7652C7.46049 13.6948 7.5 13.5995 7.5 13.5C7.5 13.4005 7.46049 13.3052 7.39017 13.2348C7.31984 13.1645 7.22446 13.125 7.125 13.125ZM9.375 10.125C9.00416 10.125 8.64165 10.235 8.33331 10.441C8.02496 10.647 7.78464 10.9399 7.64273 11.2825C7.50081 11.6251 7.46368 12.0021 7.53603 12.3658C7.60837 12.7295 7.78695 13.0636 8.04917 13.3258C8.3114 13.588 8.64549 13.7666 9.00921 13.839C9.37292 13.9113 9.74992 13.8742 10.0925 13.7323C10.4351 13.5904 10.728 13.35 10.934 13.0417C11.14 12.7334 11.25 12.3708 11.25 12C11.25 11.5027 11.0525 11.0258 10.7008 10.6742C10.3492 10.3225 9.87228 10.125 9.375 10.125ZM9.375 13.125C9.1525 13.125 8.93499 13.059 8.74998 12.9354C8.56498 12.8118 8.42078 12.6361 8.33564 12.4305C8.25049 12.225 8.22821 11.9988 8.27162 11.7805C8.31502 11.5623 8.42217 11.3618 8.5795 11.2045C8.73684 11.0472 8.93729 10.94 9.15552 10.8966C9.37375 10.8532 9.59995 10.8755 9.80552 10.9606C10.0111 11.0458 10.1868 11.19 10.3104 11.375C10.434 11.56 10.5 11.7775 10.5 12C10.5 12.2984 10.3815 12.5845 10.1705 12.7955C9.95952 13.0065 9.67337 13.125 9.375 13.125V13.125ZM18 10.125C17.6292 10.125 17.2666 10.235 16.9583 10.441C16.65 10.647 16.4096 10.9399 16.2677 11.2825C16.1258 11.6251 16.0887 12.0021 16.161 12.3658C16.2334 12.7295 16.412 13.0636 16.6742 13.3258C16.9364 13.588 17.2705 13.7666 17.6342 13.839C17.9979 13.9113 18.3749 13.8742 18.7175 13.7323C19.0601 13.5904 19.353 13.35 19.559 13.0417C19.765 12.7334 19.875 12.3708 19.875 12C19.875 11.5027 19.6775 11.0258 19.3258 10.6742C18.9742 10.3225 18.4973 10.125 18 10.125V10.125ZM18 13.125C17.7775 13.125 17.56 13.059 17.375 12.9354C17.19 12.8118 17.0458 12.6361 16.9606 12.4305C16.8755 12.225 16.8532 11.9988 16.8966 11.7805C16.94 11.5623 17.0472 11.3618 17.2045 11.2045C17.3618 11.0472 17.5623 10.94 17.7805 10.8966C17.9988 10.8532 18.225 10.8755 18.4305 10.9606C18.6361 11.0458 18.8118 11.19 18.9354 11.375C19.059 11.56 19.125 11.7775 19.125 12C19.125 12.2984 19.0065 12.5845 18.7955 12.7955C18.5845 13.0065 18.2984 13.125 18 13.125Z" fill="white"/>
</g>
<defs>
<clipPath id="clip0_17691_205181">
<rect width="24" height="24" fill="white"/>
</clipPath>
</defs>
</svg>
