<svg width="24" height="24" viewBox="0 0 24 24" fill="none" xmlns="http://www.w3.org/2000/svg">
<path d="M12 24C18.6274 24 24 18.6274 24 12C24 5.37258 18.6274 0 12 0C5.37258 0 0 5.37258 0 12C0 18.6274 5.37258 24 12 24Z" fill="white"/>
<path d="M9.74371 7.1497C9.87002 6.90549 9.99634 6.65286 10.1732 6.43392C11.1837 5.17918 13.1795 5.31392 13.9963 6.70339C14.7205 7.93286 15.4195 9.17076 16.1353 10.4002C16.8511 11.6381 17.5669 12.8676 18.2742 14.1055C18.4763 14.4508 18.6953 14.7876 18.8553 15.1497C19.4195 16.4297 18.6869 17.9792 17.3311 18.3413C16.2532 18.6276 15.1753 18.1729 14.6279 17.196C13.769 15.6886 12.8932 14.1813 12.0258 12.6739C12.0174 12.6655 12.009 12.6571 12.0005 12.6487C12.0005 12.6402 12.0005 12.6234 11.9921 12.615C11.7816 12.2697 11.5963 11.9076 11.3858 11.5623C11.1669 11.1918 10.9563 10.8213 10.7374 10.4508C10.4511 9.97918 10.19 9.49076 9.92055 9.01076C9.75213 8.71602 9.6595 8.3876 9.65108 8.05076C9.65108 7.88234 9.64266 7.7055 9.68476 7.53708C9.71002 7.41076 9.77739 7.28444 9.74371 7.1497Z" fill="#5487C6"/>
<path d="M9.74152 7.1499C9.7752 7.28464 9.70783 7.41096 9.67415 7.53728C9.63205 7.71412 9.64047 7.88254 9.64047 8.05096C9.64889 8.39622 9.74152 8.71622 9.90994 9.01096C10.1794 9.49096 10.4405 9.97938 10.7268 10.451C10.9457 10.8215 11.1563 11.192 11.3752 11.5625C11.5857 11.9078 11.771 12.2615 11.9815 12.6152C11.9899 12.6236 11.9899 12.6404 11.9899 12.6489C11.8299 12.9183 11.6699 13.1878 11.5099 13.4573C11.3078 13.811 11.1057 14.1646 10.9036 14.5183C10.5836 15.0741 10.2636 15.6299 9.94362 16.1857C9.82573 16.3878 9.70783 16.5815 9.59836 16.7836C9.58152 16.8088 9.56468 16.8257 9.53941 16.8425C9.53941 16.792 9.53941 16.7415 9.55626 16.6994C9.60678 16.5562 9.63204 16.4046 9.64047 16.2531C9.64889 16.0594 9.64889 15.8657 9.60678 15.672C9.55625 15.4446 9.50573 15.2257 9.39625 15.0152C9.21099 14.6446 8.94152 14.3331 8.59626 14.1057C8.28468 13.9036 7.93099 13.7773 7.55205 13.7267C7.23205 13.6846 6.92047 13.7267 6.62573 13.8025C6.24678 13.9036 5.90994 14.1057 5.63205 14.4004C5.58994 14.451 5.55626 14.5183 5.48047 14.5267C5.5731 14.2825 5.72468 14.072 5.85099 13.8446C6.18784 13.2467 6.5331 12.6573 6.86994 12.0594C7.2152 11.4615 7.56047 10.8636 7.90573 10.2741C8.2931 9.60043 8.68889 8.92675 9.06783 8.24464C9.27836 7.88254 9.48889 7.52043 9.69941 7.15833C9.71625 7.15833 9.7331 7.15832 9.74152 7.1499Z" fill="#F2BE20"/>
<path d="M5.48238 14.5349C5.55817 14.5265 5.59186 14.4592 5.63396 14.4086C5.91186 14.1139 6.2487 13.9118 6.62765 13.8107C6.92238 13.7349 7.23396 13.6928 7.55396 13.7349C7.94133 13.7855 8.28659 13.9118 8.59817 14.1139C8.94344 14.3328 9.21291 14.6444 9.39817 15.0234C9.49922 15.2339 9.55817 15.4528 9.6087 15.6802C9.6508 15.8739 9.6508 16.0676 9.64238 16.2613C9.63396 16.4128 9.6087 16.5644 9.55817 16.7076C9.54133 16.7497 9.54975 16.8002 9.54133 16.8507C9.19607 17.6255 8.65712 18.1813 7.80659 18.3749C6.49291 18.6781 5.15396 17.7686 4.9687 16.4381C4.88449 15.8486 5.00238 15.2928 5.32238 14.7792C5.38133 14.6949 5.43186 14.6192 5.48238 14.5349Z" fill="#40A95E"/>
</svg>
