<svg width="24" height="24" viewBox="0 0 24 24" fill="none" xmlns="http://www.w3.org/2000/svg">
<g clip-path="url(#clip0_17691_205182)">
<circle cx="12" cy="12" r="12" fill="#E1A556"/>
<path d="M14.3919 20C14.1709 19.9986 13.9538 19.9415 13.7608 19.8339C13.5678 19.7263 13.405 19.5718 13.2876 19.3846C12.0109 17.378 10.8618 15.2931 9.8472 13.1421L9.46561 13.0489C9.09275 12.947 8.7492 12.7585 8.4629 12.4988C8.1766 12.2391 7.95563 11.9154 7.81796 11.5542L6.16503 7.2153C6.03207 6.87192 5.97835 6.50294 6.00788 6.1359C6.03741 5.76885 6.14944 5.41321 6.3356 5.09551L6.54485 4.73503C6.62034 4.60588 6.72849 4.49889 6.85845 4.42481C6.9884 4.35073 7.13557 4.31216 7.28515 4.313H7.2957C7.44751 4.31385 7.59636 4.355 7.72705 4.43224C7.85774 4.50948 7.96557 4.62004 8.03952 4.75261L15.5516 18.0851C15.6348 18.2325 15.6867 18.3954 15.7041 18.5638C15.7215 18.7322 15.704 18.9023 15.6527 19.0636C15.5527 19.3876 15.3325 19.661 15.0372 19.8277C14.8407 19.94 14.6183 19.9994 14.3919 20V20ZM7.28515 4.97242C7.25059 4.97199 7.21652 4.98071 7.18641 4.9977C7.1563 5.01468 7.13122 5.03933 7.11371 5.06913L6.90533 5.42785C6.76881 5.66084 6.68675 5.92169 6.66528 6.19088C6.64382 6.46007 6.6835 6.73062 6.78136 6.98231L8.43517 11.3221C8.53528 11.5862 8.69643 11.8229 8.90546 12.0128C9.1145 12.2028 9.36549 12.3406 9.63794 12.415L10.1655 12.5539C10.2116 12.5663 10.2545 12.5883 10.2914 12.6187C10.3282 12.649 10.3581 12.6869 10.3791 12.7298C11.3996 14.9007 12.5566 17.0048 13.8432 19.0294C13.9309 19.1723 14.0706 19.2758 14.2329 19.3179C14.3952 19.36 14.5675 19.3376 14.7137 19.2553C14.8633 19.1728 14.9749 19.0353 15.0249 18.872C15.0491 18.7962 15.0573 18.7162 15.0492 18.6371C15.041 18.558 15.0166 18.4814 14.9774 18.4121L7.46539 5.07792C7.44868 5.04486 7.42279 5.01732 7.39082 4.99861C7.35885 4.97989 7.32216 4.9708 7.28515 4.97242V4.97242Z" fill="white"/>
<path d="M8.86158 20C8.62315 20.0006 8.38939 19.9338 8.18722 19.8074C7.89907 19.6354 7.68858 19.3586 7.59977 19.035C7.51096 18.7114 7.5507 18.366 7.71069 18.071C8.4633 16.6862 9.36186 15.1863 10.3097 13.7294C10.3575 13.6561 10.4324 13.6047 10.5181 13.5867C10.6037 13.5686 10.6931 13.5853 10.7664 13.6331C10.8397 13.6809 10.8911 13.7559 10.9091 13.8416C10.9272 13.9272 10.9105 14.0165 10.8627 14.0899C9.92456 15.5309 9.03479 17.0168 8.29537 18.384C8.21651 18.5306 8.19736 18.702 8.24192 18.8624C8.28649 19.0228 8.39132 19.1598 8.53451 19.2447C8.675 19.3323 8.8443 19.3611 9.00584 19.3249C9.16739 19.2887 9.30822 19.1904 9.3979 19.0513C10.0301 18.0965 10.6983 17.0106 11.3867 15.8202C11.432 15.7477 11.5037 15.6956 11.5866 15.675C11.6695 15.6543 11.7572 15.6667 11.8312 15.7094C11.9052 15.7522 11.9598 15.822 11.9833 15.9042C12.0068 15.9863 11.9975 16.0744 11.9573 16.1499C11.2618 17.3518 10.5875 18.449 9.95093 19.4109C9.8336 19.5928 9.67224 19.7422 9.48182 19.8452C9.29139 19.9481 9.07806 20.0014 8.86158 20ZM11.7911 12.415C11.7481 12.4154 11.7054 12.4074 11.6654 12.3912C11.6255 12.3751 11.5892 12.3512 11.5585 12.321C11.5279 12.2907 11.5035 12.2547 11.4868 12.215C11.4702 12.1753 11.4615 12.1327 11.4614 12.0896V12.0817C11.4616 12.0153 11.4815 11.9504 11.5186 11.8953C12.0065 11.1849 12.4242 10.5915 12.7337 10.1527C12.4797 9.93974 12.3096 9.64355 12.2535 9.31687C12.1975 8.99019 12.2592 8.65423 12.4277 8.3688L14.9598 4.14855C15.0068 4.07737 15.0794 4.02709 15.1626 4.00821C15.2457 3.98933 15.333 4.00331 15.4061 4.04723C15.4792 4.09115 15.5324 4.16162 15.5548 4.2439C15.5772 4.32619 15.5669 4.41394 15.5261 4.48881L12.9939 8.70905C12.944 8.7919 12.911 8.88384 12.8969 8.97953C12.8828 9.07522 12.8878 9.17276 12.9117 9.26649C12.9356 9.36022 12.9779 9.44828 13.036 9.52555C13.0942 9.60282 13.1672 9.66777 13.2506 9.71664L13.3676 9.78873C13.4058 9.81237 13.4388 9.8436 13.4645 9.8805C13.4903 9.9174 13.5081 9.95918 13.517 10.0033C13.5262 10.0473 13.5262 10.0928 13.517 10.1368C13.5077 10.1808 13.4895 10.2225 13.4634 10.2591L13.3755 10.391C13.0625 10.8306 12.6123 11.4716 12.076 12.2532C12.0466 12.3025 12.0049 12.3434 11.955 12.3717C11.905 12.4001 11.8486 12.415 11.7911 12.415V12.415ZM12.8189 14.2314C12.7646 14.2312 12.7112 14.2176 12.6633 14.1919C12.5865 14.1505 12.5291 14.0803 12.5039 13.9968C12.4787 13.9132 12.4877 13.8231 12.5288 13.7461C13.1944 12.5038 13.7896 11.3476 14.1219 10.6548C14.1417 10.6127 14.1702 10.5752 14.2055 10.5449C14.2409 10.5146 14.2822 10.4921 14.3268 10.4789C14.3707 10.4656 14.417 10.4618 14.4625 10.4679C14.508 10.4739 14.5517 10.4897 14.5906 10.5141L14.7049 10.5844C14.7872 10.6352 14.8788 10.6691 14.9743 10.6842C15.0699 10.6993 15.1674 10.6953 15.2614 10.6723C15.3542 10.6492 15.4415 10.6078 15.5182 10.5506C15.5949 10.4934 15.6594 10.4215 15.7081 10.3391L18.2402 6.11888C18.2872 6.0477 18.3598 5.99742 18.443 5.97853C18.5261 5.95965 18.6133 5.97363 18.6864 6.01756C18.7595 6.06148 18.8128 6.13194 18.8352 6.21423C18.8575 6.29652 18.8472 6.38426 18.8064 6.45913L16.276 10.675C16.1828 10.8317 16.0595 10.9683 15.9131 11.077C15.7667 11.1857 15.6002 11.2642 15.4232 11.308C15.1379 11.3782 14.8378 11.3573 14.5651 11.2482C14.2134 11.9578 13.6859 12.9741 13.11 14.0538C13.0823 14.1072 13.0406 14.152 12.9893 14.1833C12.938 14.2146 12.879 14.2312 12.8189 14.2314V14.2314Z" fill="white"/>
<path d="M14.4211 8.5037C14.3613 8.50343 14.3027 8.48703 14.2514 8.45622C14.1767 8.4113 14.1229 8.33863 14.1016 8.25411C14.0804 8.16959 14.0935 8.08009 14.138 8.00518L16.0556 4.80659C16.1005 4.7315 16.1733 4.67733 16.2582 4.65597C16.343 4.63462 16.4328 4.64784 16.5079 4.69273C16.583 4.73762 16.6372 4.81049 16.6585 4.89533C16.6799 4.98016 16.6667 5.07 16.6218 5.14509L14.7042 8.3428C14.6752 8.39201 14.6338 8.43276 14.5841 8.46099C14.5344 8.48922 14.4782 8.50395 14.4211 8.5037V8.5037ZM15.514 9.15872C15.4544 9.15873 15.396 9.1423 15.3452 9.11124C15.3081 9.08908 15.2758 9.05983 15.25 9.02516C15.2242 8.9905 15.2056 8.9511 15.195 8.90922C15.1845 8.86733 15.1823 8.82378 15.1886 8.78106C15.1949 8.73833 15.2096 8.69726 15.2317 8.6602L17.1493 5.46161C17.1706 5.4227 17.1996 5.3885 17.2344 5.36104C17.2693 5.33359 17.3093 5.31345 17.3521 5.30182C17.3949 5.2902 17.4396 5.28734 17.4836 5.29341C17.5275 5.29948 17.5698 5.31435 17.6079 5.33714C17.6459 5.35993 17.679 5.39016 17.7051 5.42604C17.7312 5.46191 17.7498 5.50268 17.7597 5.5459C17.7697 5.58913 17.7709 5.63392 17.7631 5.6776C17.7554 5.72128 17.7389 5.76295 17.7147 5.80011L15.798 8.99782C15.7687 9.04704 15.7271 9.08777 15.6773 9.11599C15.6275 9.14421 15.5712 9.15894 15.514 9.15872V9.15872Z" fill="white"/>
</g>
<defs>
<clipPath id="clip0_17691_205182">
<rect width="24" height="24" fill="white"/>
</clipPath>
</defs>
</svg>
