<svg width="255" height="255" viewBox="0 0 255 255" fill="none" xmlns="http://www.w3.org/2000/svg">
<mask id="mask0_20_135" style="mask-type:alpha" maskUnits="userSpaceOnUse" x="0" y="0" width="255" height="255">
<rect width="255" height="255" fill="white"/>
</mask>
<g mask="url(#mask0_20_135)">
<rect opacity="0.02" width="255" height="255" fill="#3C64B1"/>
<g opacity="0.06">
<path d="M0 0L255 260" stroke="#3C64B1"/>
<path d="M9.96094 -10.1562L264.961 249.844" stroke="#3C64B1"/>
<path d="M19.9219 -20.3125L274.922 239.688" stroke="#3C64B1"/>
<path d="M29.8828 -30.4688L284.883 229.531" stroke="#3C64B1"/>
<path d="M39.8438 -40.625L294.844 219.375" stroke="#3C64B1"/>
<path d="M49.8047 -50.7812L304.805 209.219" stroke="#3C64B1"/>
<path d="M59.7656 -60.9375L314.766 199.062" stroke="#3C64B1"/>
<path d="M69.7266 -71.0938L324.727 188.906" stroke="#3C64B1"/>
<path d="M79.6875 -81.25L334.688 178.75" stroke="#3C64B1"/>
<path d="M89.6484 -91.4062L344.648 168.594" stroke="#3C64B1"/>
<path d="M99.6094 -101.562L354.609 158.438" stroke="#3C64B1"/>
<path d="M109.57 -111.719L364.57 148.281" stroke="#3C64B1"/>
<path d="M119.531 -121.875L374.531 138.125" stroke="#3C64B1"/>
<path d="M-9.96094 10.1562L245.039 270.156" stroke="#3C64B1"/>
<path d="M-19.9219 20.3125L235.078 280.312" stroke="#3C64B1"/>
<path d="M-29.8828 30.4688L225.117 290.469" stroke="#3C64B1"/>
<path d="M-39.8438 40.625L215.156 300.625" stroke="#3C64B1"/>
<path d="M-49.8047 50.7812L205.195 310.781" stroke="#3C64B1"/>
<path d="M-59.7656 60.9375L195.234 320.938" stroke="#3C64B1"/>
<path d="M-69.7266 71.0938L185.273 331.094" stroke="#3C64B1"/>
<path d="M-79.6875 81.25L175.312 341.25" stroke="#3C64B1"/>
<path d="M-89.6484 91.4062L165.352 351.406" stroke="#3C64B1"/>
<path d="M-99.6094 101.562L155.391 361.562" stroke="#3C64B1"/>
<path d="M-109.57 111.719L145.43 371.719" stroke="#3C64B1"/>
<path d="M-119.531 121.875L135.469 381.875" stroke="#3C64B1"/>
<path d="M-129.492 132.031L125.508 392.031" stroke="#3C64B1"/>
</g>
<g opacity="0.06">
<path d="M4.98047 -5.07812L259.98 254.922" stroke="#3C64B1"/>
<path d="M14.9414 -15.2344L269.941 244.766" stroke="#3C64B1"/>
<path d="M24.9023 -25.3906L279.902 234.609" stroke="#3C64B1"/>
<path d="M34.8633 -35.5469L289.863 224.453" stroke="#3C64B1"/>
<path d="M44.8242 -45.7031L299.824 214.297" stroke="#3C64B1"/>
<path d="M54.7852 -55.8594L309.785 204.141" stroke="#3C64B1"/>
<path d="M64.7461 -66.0156L319.746 193.984" stroke="#3C64B1"/>
<path d="M74.707 -76.1719L329.707 183.828" stroke="#3C64B1"/>
<path d="M84.668 -86.3281L339.668 173.672" stroke="#3C64B1"/>
<path d="M94.6289 -96.4844L349.629 163.516" stroke="#3C64B1"/>
<path d="M104.59 -106.641L359.59 153.359" stroke="#3C64B1"/>
<path d="M114.551 -116.797L369.551 143.203" stroke="#3C64B1"/>
<path d="M124.512 -126.953L379.512 133.047" stroke="#3C64B1"/>
<path d="M-4.98047 5.07812L250.02 265.078" stroke="#3C64B1"/>
<path d="M-14.9414 15.2344L240.059 275.234" stroke="#3C64B1"/>
<path d="M-24.9023 25.3906L230.098 285.391" stroke="#3C64B1"/>
<path d="M-34.8633 35.5469L220.137 295.547" stroke="#3C64B1"/>
<path d="M-44.8242 45.7031L210.176 305.703" stroke="#3C64B1"/>
<path d="M-54.7852 55.8594L200.215 315.859" stroke="#3C64B1"/>
<path d="M-64.7461 66.0156L190.254 326.016" stroke="#3C64B1"/>
<path d="M-74.707 76.1719L180.293 336.172" stroke="#3C64B1"/>
<path d="M-84.668 86.3281L170.332 346.328" stroke="#3C64B1"/>
<path d="M-94.6289 96.4844L160.371 356.484" stroke="#3C64B1"/>
<path d="M-104.59 106.641L150.41 366.641" stroke="#3C64B1"/>
<path d="M-114.551 116.797L140.449 376.797" stroke="#3C64B1"/>
<path d="M-124.512 126.953L130.488 386.953" stroke="#3C64B1"/>
</g>
</g>
<g opacity="0.5">
<path d="M139.667 115H116.333C114.492 115 113 116.492 113 118.333V141.667C113 143.508 114.492 145 116.333 145H139.667C141.508 145 143 143.508 143 141.667V118.333C143 116.492 141.508 115 139.667 115Z" stroke="#3C64B1" stroke-width="1.5" stroke-linecap="round" stroke-linejoin="round"/>
<path d="M122.167 126.667C123.547 126.667 124.667 125.547 124.667 124.167C124.667 122.786 123.547 121.667 122.167 121.667C120.786 121.667 119.667 122.786 119.667 124.167C119.667 125.547 120.786 126.667 122.167 126.667Z" stroke="#3C64B1" stroke-width="1.5" stroke-linecap="round" stroke-linejoin="round"/>
<path d="M143 135L134.667 126.667L116.333 145" stroke="#3C64B1" stroke-width="1.5" stroke-linecap="round" stroke-linejoin="round"/>
</g>
</svg>
