<svg xmlns="http://www.w3.org/2000/svg" width="32" height="32" fill="none" viewBox="0 0 32 32">
  <path fill="url(#paint0_linear_5020_24299)" d="M26.375 0H5.625A5.625 5.625 0 000 5.625v20.75A5.625 5.625 0 005.625 32h20.75A5.625 5.625 0 0032 26.375V5.625A5.625 5.625 0 0026.375 0z"/>
  <path fill="#fff" d="M26.32 13.144a1.445 1.445 0 00-1.681-.09c-.852.54-1.712.862-2.618.986a1.268 1.268 0 00-.392-.439 1.745 1.745 0 00-.576-.255 2.278 2.278 0 00-.612-.111c-.185 0-.37.03-.543.091a1.277 1.277 0 00-.552.373c-.207.248-.329.62-.48.902-.713 1.346-1.497 2.654-2.285 3.958-.279.478-.585.942-.917 1.388-.222.291-.999 1.487-1.517 1.453-.293-.02-.352-.299-.386-.495-.066-.377-.053-.76-.053-1.14 0-.91.13-1.813.26-2.716a12.47 12.47 0 01.48-2.167c.202-.621.328-1.195-.275-1.662a3.33 3.33 0 00-.488-.333 1.605 1.605 0 00-1.532-.03 17.06 17.06 0 00-.616.328c-.107.06-.212.125-.35.208-.137.083-.288.176-.436.254A40.053 40.053 0 007 15.907c-.732.49-.882 1.216-.399 1.94.091.145.212.27.355.37a1.418 1.418 0 001.503.058l2.297-1.256a20.94 20.94 0 00-.375 3.076 7.89 7.89 0 00.165 2.04c.112.515.292 1.11.778 1.619.622.652 1.597 1.042 2.606 1.042a3.488 3.488 0 001.663-.403c.758-.411 1.33-.972 1.835-1.515.865-.931 1.665-1.999 2.592-3.458.419-.661.823-1.342 1.225-2.023l.273-.46c.018-.03.375 0 .412 0 .175-.005.35-.016.525-.033 1.276-.128 2.545-.604 3.49-1.443.248-.218.501-.433.674-.71.273-.433.234-1.174-.3-1.607zM22.351 10.662h.008a2.348 2.348 0 001.59-.627c.423-.397.664-.935.67-1.498a2.02 2.02 0 00-.177-.839 2.125 2.125 0 00-.514-.705c-.433-.395-1.01-.611-1.549-.587-.29-.01-.578.036-.848.134-.27.099-.517.247-.725.437a2.123 2.123 0 00-.52.7 2.017 2.017 0 00-.186.835c-.004.28.052.56.164.819.111.26.277.496.487.695.208.2.457.36.732.47.275.109.57.165.868.166z"/>
  <defs>
    <linearGradient id="paint0_linear_5020_24299" x1="16" x2="16" y1="-3.932" y2="28.068" gradientUnits="userSpaceOnUse">
      <stop stop-color="#59C3E1"/>
      <stop offset="1" stop-color="#50A2D8"/>
    </linearGradient>
  </defs>
</svg>
