<svg width="25" height="26" viewBox="0 0 25 26" fill="none" xmlns="http://www.w3.org/2000/svg">
<g clip-path="url(#clip0_3708:2086)">
<g clip-path="url(#clip1_3708:2086)">
<path d="M12.1916 15.0576L18.6992 9.61926C18.7614 9.76569 18.7988 9.92144 18.8098 10.0801V16.0163C18.7981 16.3998 18.6399 16.7643 18.3678 17.0347C18.0956 17.3052 17.7301 17.4611 17.3465 17.4703H7.03669C6.66361 17.4571 6.31094 17.2967 6.05575 17.0243C5.80056 16.7518 5.6636 16.3894 5.67479 16.0163V10.0847C5.66841 9.93294 5.6871 9.78112 5.7301 9.6354L12.1916 15.0576Z" fill="white"/>
<path d="M12.1917 13.8548L6.27635 8.92568C6.50434 8.78422 6.76856 8.71217 7.0368 8.71828H17.3466C17.6093 8.71207 17.8683 8.7808 18.0933 8.91646L12.1917 13.8548Z" fill="white"/>
</g>
</g>
<rect x="0.56665" y="1.42102" width="23.3512" height="23.3512" rx="11.6756" stroke="white"/>
<defs>
<clipPath id="clip0_3708:2086">
<rect x="0.56665" y="1.42102" width="23.3512" height="23.3512" rx="11.6756" fill="white"/>
</clipPath>
<clipPath id="clip1_3708:2086">
<rect width="13.135" height="8.75668" fill="white" transform="matrix(-1 0 0 1 18.8098 8.71826)"/>
</clipPath>
</defs>
</svg>
