<svg width="56" height="56" viewBox="0 0 56 56" fill="none" xmlns="http://www.w3.org/2000/svg">
<rect width="56" height="56" rx="5" fill="#EEEFF4"/>
<mask id="mask0_11822_34232" style="mask-type:alpha" maskUnits="userSpaceOnUse" x="8" y="13" width="40" height="30">
<path d="M47.5999 13.2998V42.6998H8.3999V29.3671C8.3999 28.7664 8.3999 28.4186 8.3999 28.4186V13.2998H47.5999Z" fill="url(#paint0_linear_11822_34232)"/>
</mask>
<g mask="url(#mask0_11822_34232)">
<path d="M59.8497 11.6665V48.4165H5.94971V29.227C5.94971 28.5705 5.94971 28.1903 5.94971 28.1903V11.6665H59.8497Z" fill="url(#paint1_linear_11822_34232)"/>
<path d="M75.9415 53.4749V43.7913V42.5253V35.0306V34.4192C72.5595 34.1789 68.3918 34.3886 67.5276 34.4728C65.2604 34.6946 62.9913 34.9027 60.7202 35.0842C56.4097 35.4297 52.0922 35.6793 47.7673 35.7431C41.1632 35.8401 34.7193 35.2227 28.1703 34.4587C25.2283 34.1156 22.2879 33.7353 19.3312 33.544C13.3603 33.1579 7.40809 34.1214 1.44189 34.2161C0.141242 34.2368 -1.15901 34.2361 -2.4585 34.1813C-2.4585 34.1813 -2.4585 34.5678 -2.4585 35.2353V43.1524V43.5648V53.4749V54.7432H60.7206H75.9415V53.4749Z" fill="#99D6F2"/>
<path d="M75.9415 53.4755V43.7919V42.5259V35.0312C72.6852 34.8587 69.5775 35.3751 66.3678 35.7921C64.489 36.0363 62.606 36.2495 60.7206 36.4306C59.2853 36.5687 57.8488 36.6888 56.4108 36.7906C43.0726 37.7354 29.7883 36.6102 16.4781 35.8305C10.1692 35.4608 3.85964 35.3125 -2.4585 35.2354V43.1526V43.565V53.4751V54.7434H60.7206H75.9415V53.4755Z" fill="#348ECE"/>
<path d="M25.2601 26.169C27.3116 24.1006 27.3116 20.7471 25.2601 18.6787C23.2087 16.6103 19.8826 16.6103 17.8312 18.6787C15.7797 20.7471 15.7797 24.1006 17.8312 26.169C19.8826 28.2374 23.2087 28.2374 25.2601 26.169Z" fill="#F8B62D"/>
<path d="M32.016 24.3324C31.9504 24.3324 31.8852 24.336 31.8218 24.3428C31.3697 23.7215 30.58 23.3096 29.6801 23.3096C29.5078 23.3096 29.3399 23.3248 29.1772 23.3536C28.6779 22.7063 27.854 22.2832 26.9218 22.2832C25.6336 22.2832 24.5522 23.0899 24.2483 24.1802C24.2199 24.179 24.1919 24.1782 24.163 24.1782C23.125 24.1782 22.2832 24.9473 22.2832 25.8958C22.2832 26.3153 22.4585 26.6681 22.7349 26.9502C23.0034 27.2242 23.3668 27.4316 23.7577 27.5686C24.1534 27.7077 24.571 27.784 24.9877 27.8483C26.2952 28.0493 27.6315 28.0317 28.9463 27.9043C30.2184 27.7808 31.556 27.627 32.7559 27.2047C32.8057 27.1871 32.8551 27.1691 32.9041 27.1507C33.4367 26.9506 33.7165 26.4044 33.7165 25.885C33.7161 25.028 32.9548 24.3324 32.016 24.3324Z" fill="white"/>
</g>
<defs>
<linearGradient id="paint0_linear_11822_34232" x1="24.6318" y1="42.0553" x2="24.6318" y2="-17.1104" gradientUnits="userSpaceOnUse">
<stop stop-color="white"/>
<stop offset="0.0858" stop-color="#F7FCFE"/>
<stop offset="0.2184" stop-color="#E1F4FC"/>
<stop offset="0.3813" stop-color="#BEE7F9"/>
<stop offset="0.5681" stop-color="#8CD4F5"/>
<stop offset="0.7753" stop-color="#4DBDF0"/>
<stop offset="0.9967" stop-color="#01A0E9"/>
<stop offset="1" stop-color="#00A0E9"/>
</linearGradient>
<linearGradient id="paint1_linear_11822_34232" x1="29.1985" y1="43.0942" x2="29.1985" y2="-21.5697" gradientUnits="userSpaceOnUse">
<stop stop-color="white"/>
<stop offset="0.0858" stop-color="#F7FCFE"/>
<stop offset="0.2184" stop-color="#E1F4FC"/>
<stop offset="0.3813" stop-color="#BEE7F9"/>
<stop offset="0.5681" stop-color="#8CD4F5"/>
<stop offset="0.7753" stop-color="#4DBDF0"/>
<stop offset="0.9967" stop-color="#01A0E9"/>
<stop offset="1" stop-color="#00A0E9"/>
</linearGradient>
</defs>
</svg>
