<svg xmlns="http://www.w3.org/2000/svg" width="24" height="24" fill="currentColor" viewBox="0 0 24 24">
  <path fill-rule="evenodd" d="M6.723 4.3L3.825 9.32h5.797L6.723 4.3zm.866-1.5a1 1 0 00-1.732 0L2.093 9.32a1 1 0 00.866 1.5h7.529a1 1 0 00.866-1.5L7.589 2.8zM6.837 20.2a3.033 3.033 0 100-6.067 3.033 3.033 0 000 6.067zm0 1.5a4.533 4.533 0 100-9.067 4.533 4.533 0 000 9.067zM14.57 14.133v5.973h5.972v-5.973H14.57zm-.5-1.5a1 1 0 00-1 1v6.973a1 1 0 001 1h6.972a1 1 0 001-1v-6.973a1 1 0 00-1-1H14.07z" clip-rule="evenodd"/>
</svg>
