<svg xmlns="http://www.w3.org/2000/svg" width="24" height="24" fill="currentColor" viewBox="0 0 24 24">
  <path fill-rule="evenodd" d="m14.616 12.366 4.242 7.022a.75.75 0 1 0 1.284-.776l-4.44-7.348a1.25 1.25 0 0 0-2.088-.078l.588.418-.588-.418-2.611 3.672-1.57-1.504a1.25 1.25 0 0 0-1.876.168l-3.664 5.037a.75.75 0 1 0 1.214.882l3.495-4.805 1.572 1.506a1.25 1.25 0 0 0 1.884-.179l2.558-3.597Z" clip-rule="evenodd"/>
  <path fill-rule="evenodd" d="M3.25 6A2.75 2.75 0 0 1 6 3.25h12A2.75 2.75 0 0 1 20.75 6v12A2.75 2.75 0 0 1 18 20.75H6A2.75 2.75 0 0 1 3.25 18V6ZM6 4.75c-.69 0-1.25.56-1.25 1.25v12c0 .69.56 1.25 1.25 1.25h12c.69 0 1.25-.56 1.25-1.25V6c0-.69-.56-1.25-1.25-1.25H6Z" clip-rule="evenodd"/>
  <path fill-rule="evenodd" d="M8.5 7.75a.75.75 0 1 0 0 1.5.75.75 0 0 0 0-1.5Zm-2.25.75a2.25 2.25 0 1 1 4.5 0 2.25 2.25 0 0 1-4.5 0Z" clip-rule="evenodd"/>
</svg>
