<svg width="28" height="28" viewBox="0 0 28 28" xmlns="http://www.w3.org/2000/svg">
<path fill-rule="evenodd" clip-rule="evenodd" d="M13.9993 0.666504C14.9198 0.666504 15.666 1.4127 15.666 2.33317V12.3332H25.666C26.5865 12.3332 27.3327 13.0794 27.3327 13.9998C27.3327 14.9203 26.5865 15.6665 25.666 15.6665H15.666V25.6665C15.666 26.587 14.9198 27.3332 13.9993 27.3332C13.0789 27.3332 12.3327 26.587 12.3327 25.6665V15.6665H2.33268C1.41221 15.6665 0.666016 14.9203 0.666016 13.9998C0.666016 13.0794 1.41221 12.3332 2.33268 12.3332H12.3327V2.33317C12.3327 1.4127 13.0789 0.666504 13.9993 0.666504Z"/>
</svg>
