<svg xmlns="http://www.w3.org/2000/svg" width="24" height="24" fill="currentColor" viewBox="0 0 24 24">
  <path fill-rule="evenodd" d="M5 3.763h2.21a2.5 2.5 0 012.5 2.5v2.21a2.5 2.5 0 01-2.5 2.5H5a2.5 2.5 0 01-2.5-2.5v-2.21a2.5 2.5 0 012.5-2.5zm0 1.5a1 1 0 00-1 1v2.21a1 1 0 001 1h2.21a1 1 0 001-1v-2.21a1 1 0 00-1-1H5zM16.79 13.026H19a2.5 2.5 0 012.5 2.5v2.21a2.5 2.5 0 01-2.5 2.5h-2.21a2.5 2.5 0 01-2.5-2.5v-2.21a2.5 2.5 0 012.5-2.5zm0 1.5a1 1 0 00-1 1v2.21a1 1 0 001 1H19a1 1 0 001-1v-2.21a1 1 0 00-1-1h-2.21zM11.671 4.421a.75.75 0 01.75-.75h2.895a3.75 3.75 0 013.75 3.75v.242l.404-.404a.75.75 0 011.06 1.06l-2.214 2.215L16.1 8.32a.75.75 0 011.06-1.06l.405.403v-.242a2.25 2.25 0 00-2.25-2.25H12.42a.75.75 0 01-.75-.75zM12.329 19.579a.75.75 0 01-.75.75H8.684a3.75 3.75 0 01-3.75-3.75v-.242l-.404.404a.75.75 0 11-1.06-1.06l2.214-2.215L7.9 15.68a.75.75 0 01-1.06 1.06l-.405-.403v.242a2.25 2.25 0 002.25 2.25h2.895a.75.75 0 01.75.75z" clip-rule="evenodd"/>
</svg>
