<svg width="16" height="16" viewBox="0 0 16 16" fill="none" xmlns="http://www.w3.org/2000/svg">
<path d="M2.1995 11.0451C2.83403 12.328 3.86315 13.3737 5.13575 14.0286C6.39923 14.6773 7.83978 14.8964 9.239 14.6526C10.6426 14.4059 11.9285 13.7112 12.9042 12.6726C13.8891 11.6242 14.5161 10.2906 14.6952 8.86335C14.8772 7.4329 14.6032 5.98152 13.9122 4.71585C13.2277 3.45988 12.1579 2.4569 10.8605 1.8546C9.57177 1.25773 8.12348 1.09763 6.7355 1.3986C5.348 1.69935 4.211 2.38335 3.2705 3.46485C3.15725 3.58485 2.71925 4.06935 2.3555 4.8006M5.69858 4.8598L1.91858 5.54005L1.25033 1.69255" stroke="currentColor" stroke-width="2" stroke-linecap="round" stroke-linejoin="round"/>
</svg>
