<svg width="20" height="20" viewBox="0 0 20 20" fill="none" xmlns="http://www.w3.org/2000/svg">
  <path
    d="M4.1995 13.0451C4.83403 14.328 5.86315 15.3736 7.13575 16.0286C8.39923 16.6773 9.83978 16.8964 11.239 16.6526C12.6426 16.4058 13.9285 15.7112 14.9042 14.6726C15.8891 13.6242 16.5161 12.2905 16.6952 10.8633C16.8772 9.43287 16.6032 7.98149 15.9122 6.71582C15.2277 5.45985 14.1579 4.45687 12.8605 3.85457C11.5718 3.2577 10.1235 3.0976 8.7355 3.39857C7.348 3.69932 6.211 4.38332 5.2705 5.46482C5.15725 5.58482 4.71925 6.06932 4.3555 6.80057M7.69858 6.85977L3.91858 7.54002L3.25033 3.69252"
    stroke="currentColor" stroke-width="2" stroke-linecap="round" stroke-linejoin="round" />
</svg>
