<svg width="24" height="24" viewBox="0 0 24 24" fill="none" xmlns="http://www.w3.org/2000/svg">
  <circle cx="11.5" cy="12.5" r="10" fill="currentColor" stroke="white" />
  <path
    d="M11.5033 7.05545C13.0074 7.05545 14.3669 7.66385 15.3508 8.64795L16.9443 7.05545V11.8193H12.1774L14.3702 9.62795C13.6353 8.88676 12.6285 8.41734 11.4993 8.41656C9.72363 8.41827 8.21371 9.55428 7.65573 11.1388H7.64369C7.56609 11.3577 7.50667 11.5852 7.46724 11.8193H6.09741C6.43138 9.13277 8.71715 7.05545 11.4965 7.05545H11.5033Z"
    fill="white" />
  <path
    d="M6.05542 13.1804V17.9443L7.64891 16.3518C8.6328 17.3359 9.99236 17.9443 11.4965 17.9443L11.5033 17.9443C14.2826 17.9443 16.5683 15.867 16.9023 13.1804H15.5325C15.4931 13.4146 15.4336 13.6421 15.356 13.861H15.344C14.786 15.4454 13.2762 16.5814 11.5007 16.5832C10.3713 16.5825 9.36442 16.1131 8.62953 15.3718L10.8223 13.1804H6.05542Z"
    fill="white" />
</svg>
