<svg xmlns="http://www.w3.org/2000/svg" width="24" height="24" fill="currentColor" viewBox="0 0 24 24">
  <path fill-rule="evenodd" d="M6.38 4.262a1 1 0 011 1v4.852a1 1 0 11-2 0V5.262a1 1 0 011-1zm1 10.624h1.108a1 1 0 100-2H4.273a1 1 0 000 2H5.38v3.852a1 1 0 102 0v-3.852zM13 12.5a1 1 0 10-2 0v6.238a1 1 0 102 0V12.5zm-1-8.238a1 1 0 011 1v2.466h1.107a1 1 0 110 2H9.893a1 1 0 010-2H11V5.262a1 1 0 011-1zm5.62 10.01h2.107a1 1 0 010 2H18.62v2.466a1 1 0 11-2 0v-2.466h-1.108a1 1 0 110-2h2.108zm0-10.01a1 1 0 011 1V11.5a1 1 0 11-2 0V5.262a1 1 0 011-1z" clip-rule="evenodd"/>
</svg>
