<svg width="24" height="24" viewBox="0 0 24 24" fill="currentColor" xmlns="http://www.w3.org/2000/svg">
<path fill-rule="evenodd" clip-rule="evenodd" d="M4.72729 2.81836C5.27958 2.81836 5.72729 3.26607 5.72729 3.81836V10.182C5.72729 10.7343 5.27958 11.182 4.72729 11.182C4.17501 11.182 3.72729 10.7343 3.72729 10.182V3.81836C3.72729 3.26607 4.17501 2.81836 4.72729 2.81836ZM5.72729 14.8184H7.45455C8.00683 14.8184 8.45455 14.3706 8.45455 13.8184C8.45455 13.2661 8.00683 12.8184 7.45455 12.8184H4.72729H2C1.44772 12.8184 1 13.2661 1 13.8184C1 14.3706 1.44772 14.8184 2 14.8184H3.72729V20.182C3.72729 20.7343 4.17501 21.182 4.72729 21.182C5.27958 21.182 5.72729 20.7343 5.72729 20.182V14.8184ZM13 12.0002C13 11.4479 12.5523 11.0002 12 11.0002C11.4477 11.0002 11 11.4479 11 12.0002V20.182C11 20.7343 11.4477 21.182 12 21.182C12.5523 21.182 13 20.7343 13 20.182V12.0002ZM12 2.81836C12.5523 2.81836 13 3.26607 13 3.81836V7.36382H14.7273C15.2795 7.36382 15.7273 7.81153 15.7273 8.36382C15.7273 8.9161 15.2795 9.36382 14.7273 9.36382H9.27271C8.72042 9.36382 8.27271 8.9161 8.27271 8.36382C8.27271 7.81153 8.72042 7.36382 9.27271 7.36382H11V3.81836C11 3.26607 11.4477 2.81836 12 2.81836ZM19.2727 14.6365H22C22.5522 14.6365 23 15.0843 23 15.6365C23 16.1888 22.5522 16.6365 22 16.6365H20.2727V20.182C20.2727 20.7343 19.825 21.182 19.2727 21.182C18.7204 21.182 18.2727 20.7343 18.2727 20.182V16.6365H16.5454C15.9931 16.6365 15.5454 16.1888 15.5454 15.6365C15.5454 15.0843 15.9931 14.6365 16.5454 14.6365H19.2727ZM19.2727 2.81836C19.825 2.81836 20.2727 3.26607 20.2727 3.81836V12.0002C20.2727 12.5525 19.825 13.0002 19.2727 13.0002C18.7204 13.0002 18.2727 12.5525 18.2727 12.0002V3.81836C18.2727 3.26607 18.7204 2.81836 19.2727 2.81836Z" fill="currentColor"/>
</svg>
