<svg width="24" height="24" viewBox="0 0 24 24" fill="none" xmlns="http://www.w3.org/2000/svg">
<mask id="mask0_17695_2672" style="mask-type:alpha" maskUnits="userSpaceOnUse" x="3" y="3" width="18" height="18">
<path fill-rule="evenodd" clip-rule="evenodd" d="M3.59961 4.80001C3.59961 4.48175 3.72604 4.17652 3.95108 3.95148C4.17612 3.72643 4.48135 3.60001 4.79961 3.60001H19.1996C19.5179 3.60001 19.8231 3.72643 20.0481 3.95148C20.2732 4.17652 20.3996 4.48175 20.3996 4.80001V7.20001C20.3996 7.51827 20.2732 7.82349 20.0481 8.04853C19.8231 8.27358 19.5179 8.40001 19.1996 8.40001H4.79961C4.48135 8.40001 4.17612 8.27358 3.95108 8.04853C3.72604 7.82349 3.59961 7.51827 3.59961 7.20001V4.80001ZM3.59961 12C3.59961 11.6817 3.72604 11.3765 3.95108 11.1515C4.17612 10.9264 4.48135 10.8 4.79961 10.8H11.9996C12.3179 10.8 12.6231 10.9264 12.8481 11.1515C13.0732 11.3765 13.1996 11.6817 13.1996 12V19.2C13.1996 19.5182 13.0732 19.8235 12.8481 20.0485C12.6231 20.2736 12.3179 20.4 11.9996 20.4H4.79961C4.48135 20.4 4.17612 20.2736 3.95108 20.0485C3.72604 19.8235 3.59961 19.5182 3.59961 19.2V12ZM15.9511 11.1515C16.1761 10.9264 16.4813 10.8 16.7996 10.8H19.1996C19.5179 10.8 19.8231 10.9264 20.0481 11.1515C20.2732 11.3765 20.3996 11.6817 20.3996 12V19.2C20.3996 19.5182 20.2732 19.8235 20.0481 20.0485C19.8231 20.2736 19.5179 20.4 19.1996 20.4H16.7996C16.4813 20.4 16.1761 20.2736 15.9511 20.0485C15.726 19.8235 15.5996 19.5182 15.5996 19.2V12C15.5996 11.6817 15.726 11.3765 15.9511 11.1515Z" fill="#969BAB"/>
</mask>
<g mask="url(#mask0_17695_2672)">
<rect width="24" height="24" fill="#4EABE6"/>
</g>
</svg>
