<svg xmlns="http://www.w3.org/2000/svg" width="32" height="32" fill="currentColor" viewBox="0 0 32 32">
  <path d="M29.5 20a1.5 1.5 0 00-3 0h3zM4 25.333H2.5 4zM5.5 20a1.5 1.5 0 00-3 0h3zm16.106-8.273a1.5 1.5 0 102.121-2.121l-2.121 2.121zM16 4l1.06-1.06a1.5 1.5 0 00-2.12 0L16 4zM8.273 9.606a1.5 1.5 0 102.121 2.121L8.273 9.606zM14.5 20a1.5 1.5 0 003 0h-3zm12 0v5.333h3V20h-3zm0 5.333c0 .31-.123.607-.342.825l2.122 2.122a4.167 4.167 0 001.22-2.947h-3zm-.342.825a1.167 1.167 0 01-.825.342v3a4.167 4.167 0 002.947-1.22l-2.122-2.122zm-.825.342H6.667v3h18.666v-3zm-18.666 0c-.31 0-.606-.123-.825-.342L3.72 28.28a4.167 4.167 0 002.947 1.22v-3zm-.825-.342a1.167 1.167 0 01-.342-.825h-3c0 1.105.439 2.165 1.22 2.947l2.122-2.122zm-.342-.825V20h-3v5.333h3zM23.727 9.606l-6.666-6.667-2.122 2.122 6.667 6.666 2.121-2.121zM14.94 2.939L8.273 9.606l2.121 2.121 6.667-6.666-2.122-2.122zM17.5 20V4h-3v16h3z"/>
</svg>
