<?xml version="1.0" encoding="utf-8"?>
<!-- Generator: Adobe Illustrator 22.0.1, SVG Export Plug-In . SVG Version: 6.00 Build 0)  -->
<svg version="1.1" id="圖層_1" xmlns="http://www.w3.org/2000/svg" xmlns:xlink="http://www.w3.org/1999/xlink" x="0px" y="0px"
	 viewBox="0 0 24 24" style="enable-background:new 0 0 24 24;" xml:space="preserve">
<style type="text/css">
	.st0{fill:none;stroke:#000000;stroke-width:2;}
</style>
<path class="st0" d="M8.3,11.1c2.5,0,4.6-2.1,4.6-4.6s-2.1-4.6-4.6-4.6S3.8,4,3.8,6.5S5.8,11.1,8.3,11.1z M12.7,13
	c-1.1-1.2-2.8-1.9-4.6-1.9c-3.7,0-6.4,2.8-6.4,6.4v4.6h6.4 M10.2,18.9c0,1.3,1,2.3,2.3,2.3c1.3,0,2.3-1,2.3-2.3c0-1.3-1-2.3-2.3-2.3
	C11.2,16.6,10.2,17.6,10.2,18.9L10.2,18.9z M22.1,14.8L19.4,12l-5.5,5.5 M17.1,14.3l2.8,2.8L17.1,14.3z"/>
</svg>
