<svg width="11" height="11" viewBox="0 0 11 11" fill="none" xmlns="http://www.w3.org/2000/svg">
<g clip-path="url(#clip0_3211_18895)">
<path d="M8.89174 6.19776C7.99942 7.59328 7.11233 8.98881 6.23567 10.3946C5.97998 10.7948 6.44962 11 6.80445 11C7.26366 11 7.92115 10.8461 8.1925 10.4356C9.11091 9.04011 10.0189 7.64459 10.9216 6.24394C11.1878 5.82836 10.6868 5.61287 10.332 5.61287C9.86233 5.61287 9.16309 5.77192 8.89174 6.19776Z" fill="#FFFBED" style="fill:#FFFBED;fill:color(display-p3 1.0000 0.9843 0.9294);fill-opacity:1;"/>
<path d="M6.3506 4.14101C4.93125 4.76694 3.51711 5.39801 2.10298 6.0342C1.84207 6.15221 1.23153 6.51135 1.54985 6.8551C1.86816 7.19885 2.58827 7.01928 2.92745 6.87562C4.35725 6.25995 5.78182 5.63915 7.21161 5.01321C7.41512 4.92599 7.66559 4.78747 7.79083 4.59764C7.87432 4.46937 7.91607 4.27954 7.79083 4.16153C7.44643 3.83831 6.73675 3.9717 6.36104 4.14101H6.3506Z" fill="#FFFBED" style="fill:#FFFBED;fill:color(display-p3 1.0000 0.9843 0.9294);fill-opacity:1;"/>
<path d="M4.56075 0.010101C3.43884 0.122974 2.3117 0.235847 1.18979 0.353851C0.923657 0.384635 0.626218 0.476985 0.401835 0.615512C0.266161 0.697601 0.0313416 0.872042 0.00525045 1.04648C-0.0573678 1.50824 0.605345 1.51337 0.908002 1.48771C2.02992 1.39023 3.15183 1.28249 4.27375 1.16962C4.5451 1.14396 4.85297 1.04135 5.08257 0.897694C5.21825 0.815605 5.4635 0.636034 5.4896 0.451333C5.55221 -0.0206823 4.87385 -0.0309441 4.56597 -0.000160456L4.56075 0.010101Z" fill="#FFFBED" style="fill:#FFFBED;fill:color(display-p3 1.0000 0.9843 0.9294);fill-opacity:1;"/>
</g>
<defs>
<clipPath id="clip0_3211_18895">
<rect width="11" height="11" fill="white" style="fill:white;fill:white;fill-opacity:1;" transform="matrix(-1 0 0 -1 11 11)"/>
</clipPath>
</defs>
</svg>
