<svg width="58" height="49" viewBox="0 0 58 49" fill="none" xmlns="http://www.w3.org/2000/svg">
<g id="Arrow 03" clip-path="url(#clip0_3211_18871)">
<path id="Arrow 03_2" d="M2.93728 0.636037C1.34051 2.89825 1.74606 5.22545 2.39964 7.3213C3.34774 10.2246 4.61879 13.0587 6.13788 15.6614C13.4518 27.4688 24.1995 34.7596 37.6421 38.0684C41.0628 38.8975 44.6592 39.2536 48.5682 39.8593C46.6226 42.9879 42.9641 44.5448 40.7783 47.6657C42.3672 48.1162 43.4343 47.3529 44.336 46.7438C48.0255 44.2303 51.7176 41.6371 55.3322 38.9616C57.0582 37.6611 57.252 36.6301 55.8569 35.1485C52.9917 32.0234 49.447 30.0731 45.3003 29.38C45.1401 29.3748 44.8921 29.6061 44.4813 29.912C45.2511 33.3681 49.682 32.7139 51.1882 35.7152C45.6204 36.8112 40.3653 35.6832 35.2859 34.0821C29.9688 32.3934 24.9075 30.2344 20.4457 26.8978C16.0614 23.6436 12.5839 19.6208 9.3597 15.2073C6.05279 10.871 4.04547 6.01819 2.93728 0.636037Z" fill="url(#paint0_linear_3211_18871)" style=""/>
</g>
<defs>
<linearGradient id="paint0_linear_3211_18871" x1="8.87343" y1="5.54056" x2="46.359" y2="55.3133" gradientUnits="userSpaceOnUse">
<stop stop-color="#FDD248" style="stop-color:#FDD248;stop-color:color(display-p3 0.9922 0.8235 0.2824);stop-opacity:1;"/>
<stop offset="0.3647" stop-color="#FEC649" style="stop-color:#FEC649;stop-color:color(display-p3 0.9961 0.7765 0.2863);stop-opacity:1;"/>
<stop offset="1" stop-color="#FFA84A" style="stop-color:#FFA84A;stop-color:color(display-p3 1.0000 0.6588 0.2902);stop-opacity:1;"/>
</linearGradient>
<clipPath id="clip0_3211_18871">
<rect width="45.8847" height="55.9949" fill="white" style="fill:white;fill:white;fill-opacity:1;" transform="matrix(-0.0324321 0.999474 0.999474 0.0324321 1.93506 0.603516)"/>
</clipPath>
</defs>
</svg>
