<svg width="35" height="61" viewBox="0 0 35 61" fill="none" xmlns="http://www.w3.org/2000/svg">
<g id="Arrow 14" clip-path="url(#clip0_1961_19289)">
<path id="Arrow 14_2" d="M27.5038 51.0521C27.5211 46.9298 27.4952 43.1004 27.5788 39.2436C27.622 38.9507 28.2262 38.5741 29.0661 37.7437C29.9289 39.3332 30.8083 40.5237 31.2495 41.8237C32.3443 45.2732 33.2068 48.7243 34.0825 52.2285C34.1887 52.6533 34.4043 53.0507 34.2914 53.5302C34.0887 55.0475 32.3459 55.9907 29.6406 55.877C28.3428 55.8065 27.1412 55.6555 26.0359 55.424C21.8603 54.5495 17.7811 53.5946 13.7018 52.6396C12.9649 52.4853 12.5168 52.0896 11.5908 51.6441C17.151 50.1418 19.3612 52.4664 23.8889 51.9554C23.5504 51.5323 23.3347 51.1349 23.0227 50.818C11.3341 38.5082 8.6413 24.0068 12.9724 7.80645C13.3677 6.12818 14.2144 4.39351 14.9516 2.68621C15.3136 1.80601 16.3593 0.867747 18.3277 0.827135C20.2828 0.733427 20.4685 1.47675 19.914 2.51789C13.5257 14.2118 15.0608 24.5461 17.9369 34.6582C19.3733 39.9403 21.8786 44.8424 25.6851 49.363C26.1729 49.918 26.7703 50.4456 27.5038 51.0521Z" fill="white" style="fill:white;fill:white;fill-opacity:1;"/>
</g>
<defs>
<clipPath id="clip0_1961_19289">
<rect width="56.6504" height="21.7072" fill="white" style="fill:white;fill:white;fill-opacity:1;" transform="translate(13.7346 60.2227) rotate(-104.031)"/>
</clipPath>
</defs>
</svg>
