<svg width="23" height="22" viewBox="0 0 23 22" fill="none" xmlns="http://www.w3.org/2000/svg">
<g clip-path="url(#clip0_3211_18891)">
<path d="M4.69251 15.3468C5.95782 11.0885 7.37943 6.91612 8.91795 2.81049C9.03582 2.49382 8.64989 2.43749 8.48559 2.4672C8.19349 2.52142 7.9268 2.75434 7.8069 3.06311C6.22153 7.14712 4.81672 11.3446 3.54598 15.6086C3.4461 15.9417 3.8042 15.9967 3.99107 15.9612C4.26925 15.9064 4.59704 15.6703 4.69251 15.3468Z" fill="#FFFBED" style="fill:#FFFBED;fill:color(display-p3 1.0000 0.9843 0.9294);fill-opacity:1;"/>
<path d="M8.60773 16.8446C9.67258 15.425 10.7374 14.0055 11.798 12.5828C11.9235 12.4157 12.0448 12.0855 11.7568 11.9956C11.4688 11.9056 11.1262 12.1244 10.9561 12.345C9.88379 13.7623 8.8147 15.1787 7.74341 16.6C7.61573 16.7718 7.49006 17.1115 7.78552 17.2038C8.08098 17.2961 8.4332 17.0748 8.60451 16.8454L8.60773 16.8446Z" fill="#FFFBED" style="fill:#FFFBED;fill:color(display-p3 1.0000 0.9843 0.9294);fill-opacity:1;"/>
<path d="M12.7297 19.9072C15.5042 17.8619 18.2839 15.8236 21.0552 13.7664C21.2089 13.6553 21.5716 13.3681 21.4245 13.0776C21.2848 12.8021 20.8518 12.9768 20.71 13.0807C17.9293 15.115 15.1549 17.1604 12.3772 19.2065C12.2214 19.3225 11.849 19.6121 12.0013 19.9097C12.1421 20.1892 12.5848 20.0119 12.732 19.9024L12.7297 19.9072Z" fill="#FFFBED" style="fill:#FFFBED;fill:color(display-p3 1.0000 0.9843 0.9294);fill-opacity:1;"/>
</g>
<defs>
<clipPath id="clip0_3211_18891">
<rect width="18" height="18" fill="white" style="fill:white;fill:white;fill-opacity:1;" transform="translate(0.630859 4.49219) rotate(-14.4498)"/>
</clipPath>
</defs>
</svg>
