<svg width="111" height="75" viewBox="0 0 111 75" fill="none" xmlns="http://www.w3.org/2000/svg">
<g id="Arrow 06" clip-path="url(#clip0_5171_26218)">
<path id="Arrow 06_2" d="M15.0788 62.2458C14.3919 58.7807 13.6599 55.4328 12.9087 51.6095C10.9017 52.8092 10.2631 54.6478 10.4299 56.3151C10.9304 61.3172 11.5486 66.3628 12.6102 71.3043C13.2052 74.1332 15.696 74.6509 17.8552 72.7044C21.5052 69.5014 24.9647 66.0943 28.5419 62.7307C28.7497 62.5397 29.0389 62.3119 29.0475 62.1143C29.1996 61.3676 29.1526 60.6142 29.187 59.824C28.5081 59.8411 27.6835 59.5369 27.2316 59.8385C25.6315 60.8539 24.1857 61.9931 22.7034 63.0519C21.8809 63.6182 21.1762 64.228 19.6919 64.4163C20.1504 63.0466 20.5726 61.5966 21.0311 60.2269C31.7398 32.3298 58.977 15.1483 88.9293 17.1678C92.7866 17.4537 96.5453 18.1715 100.394 18.6549C101.743 18.8183 103.056 18.9013 104.405 19.0646C104.577 18.7933 104.63 18.4785 104.802 18.2072C104.23 17.5948 103.712 16.6676 102.924 16.4437C100.369 15.5678 97.8137 14.692 95.1238 14.1677C68.3867 8.85177 40.0515 21.0114 24.5802 44.6755C21.6303 49.2073 19.4964 54.241 17.054 59.027C16.5313 60.0385 16.2077 61.0565 15.8028 62.1115C15.6764 62.2656 15.3958 62.2959 15.0788 62.2458Z" fill="white" style="fill:white;fill-opacity:1;"/>
</g>
<defs>
<clipPath id="clip0_5171_26218">
<rect width="106" height="34" fill="white" style="fill:white;fill-opacity:1;" transform="matrix(0.910877 -0.412678 -0.412678 -0.910877 14.0312 74.7137)"/>
</clipPath>
</defs>
</svg>
