<svg width="24" height="24" viewBox="0 0 24 24" fill="none" xmlns="http://www.w3.org/2000/svg">
<path d="M 14.1393 6.9393 C 14.4543 7.2543 14.2312 7.7929 13.7858 7.7929 L 12.5929 7.7929 V 11.3929 H 16.1929 V 10.2 C 16.1929 9.7545 16.7315 9.5315 17.0464 9.8464 L 18.8393 11.6393 C 19.0346 11.8346 19.0346 12.1512 18.8393 12.3464 L 17.0464 14.1393 C 16.7315 14.4543 16.1929 14.2312 16.1929 13.7858 V 12.5929 H 12.5929 V 16.1929 H 13.7858 C 14.2312 16.1929 14.4543 16.7315 14.1393 17.0464 L 12.3464 18.8393 C 12.1512 19.0346 11.8346 19.0346 11.6393 18.8393 L 9.8464 17.0464 C 9.5315 16.7315 9.7545 16.1929 10.2 16.1929 H 11.3929 V 12.5929 H 7.7929 V 13.7858 C 7.7929 14.2312 7.2543 14.4543 6.9393 14.1393 L 5.1464 12.3464 C 4.9512 12.1512 4.9512 11.8346 5.1464 11.6393 L 6.9393 9.8464 C 7.2543 9.5315 7.7929 9.7545 7.7929 10.2 V 11.3929 H 11.3929 V 7.7929 L 10.2 7.7929 C 9.7545 7.7929 9.5315 7.2543 9.8464 6.9393 L 11.6393 5.1464 C 11.8346 4.9512 12.1512 4.9512 12.3464 5.1464 L 14.1393 6.9393 Z" fill="currentColor"/>
</svg>
