<svg width="24" height="24" viewBox="0 0 24 24" fill="none" xmlns="http://www.w3.org/2000/svg">
<path d="M 15.6674 3.3246 C 16.2074 3.8645 15.825 4.7878 15.0614 4.7878 L 13.0164 4.7878 V 10.9592 H 19.1878 V 8.9143 C 19.1878 8.1507 20.1111 7.7682 20.651 8.3082 L 23.7245 11.3817 C 24.0593 11.7165 24.0593 12.2592 23.7245 12.5939 L 20.651 15.6674 C 20.1111 16.2074 19.1878 15.825 19.1878 15.0614 V 13.0164 H 13.0164 V 19.1878 H 15.0614 C 15.825 19.1878 16.2074 20.1111 15.6674 20.651 L 12.5939 23.7245 C 12.2592 24.0593 11.7165 24.0593 11.3817 23.7245 L 8.3082 20.651 C 7.7682 20.1111 8.1507 19.1878 8.9143 19.1878 H 10.9592 V 13.0164 H 4.7878 V 15.0613 C 4.7878 15.825 3.8645 16.2074 3.3246 15.6674 L 0.2511 12.5939 C -0.0837 12.2592 -0.0837 11.7165 0.2511 11.3817 L 3.3246 8.3082 C 3.8645 7.7682 4.7878 8.1507 4.7878 8.9143 V 10.9592 H 10.9592 V 4.7878 L 8.9143 4.7878 C 8.1507 4.7878 7.7682 3.8645 8.3082 3.3246 L 11.3817 0.2511 C 11.7165 -0.0837 12.2592 -0.0837 12.5939 0.2511 L 15.6674 3.3246 Z" fill="#141414"/>
</svg>
