<svg width="24" height="24" viewBox="0 0 24 24" fill="none" xmlns="http://www.w3.org/2000/svg">
<path d="M13.3106 6.06313C12.3097 5.77836 11.2556 5.77844 10.2547 6.06337C9.25387 6.34828 8.34236 6.90769 7.61136 7.68424C6.88041 8.46074 6.35558 9.42707 6.08869 10.4857C5.97944 10.9191 6.21943 11.3759 6.64467 11.4968C7.07393 11.6189 7.50293 11.3458 7.61288 10.9097C7.80964 10.1292 8.19618 9.41843 8.73272 8.84846C9.2692 8.27855 9.93661 7.86957 10.6674 7.66153C11.3981 7.45351 12.1674 7.45345 12.8981 7.66135C13.6288 7.86924 14.2965 8.2783 14.833 8.84799L15.4746 9.52996H14.2721C13.8284 9.52996 13.4838 9.90926 13.4838 10.3579C13.4838 10.8065 13.8284 11.1858 14.2721 11.1858H17.3617C17.8055 11.1858 18.1501 10.8065 18.1501 10.3579V7.07677C18.1501 6.62815 17.8055 6.24884 17.3617 6.24884C16.918 6.24884 16.5734 6.62815 16.5734 7.07677V8.34177L15.9542 7.68359C15.2231 6.90714 14.3115 6.34788 13.3106 6.06313Z" fill="currentColor"/>
<path d="M17.3555 12.5024C16.9263 12.3803 16.4973 12.6534 16.3873 13.0895C16.1906 13.87 15.804 14.5808 15.2675 15.1508C14.731 15.7207 14.0636 16.1297 13.3328 16.3377C12.6021 16.5457 11.8328 16.5458 11.102 16.3379C10.3713 16.13 9.70371 15.721 9.16718 15.1512L8.52562 14.4693H9.72806C10.1718 14.4693 10.5164 14.09 10.5164 13.6413C10.5164 13.1927 10.1718 12.8134 9.72806 12.8134H6.63846C6.19469 12.8134 5.8501 13.1927 5.8501 13.6413V16.9225C5.8501 17.3711 6.19469 17.7504 6.63846 17.7504C7.08223 17.7504 7.42682 17.3711 7.42682 16.9225V15.6575L8.04599 16.3156C8.77711 17.0921 9.6887 17.6513 10.6896 17.9361C11.6905 18.2209 12.7446 18.2208 13.7455 17.9359C14.7463 17.6509 15.6578 17.0915 16.3888 16.315C17.1198 15.5385 17.6446 14.5722 17.9115 13.5135C18.0208 13.0801 17.7808 12.6233 17.3555 12.5024Z" fill="currentColor"/>
</svg>
