<svg width="24" height="24" viewBox="0 0 24 24" fill="none" xmlns="http://www.w3.org/2000/svg">
<path d="M17.9307 17.4231L17.9584 17.3308C17.9688 17.3056 17.9766 17.2793 17.9815 17.2524C17.9945 17.1934 18.0007 17.1331 17.9999 17.0726V13.3834C17.9999 13.1388 17.9027 12.9042 17.7296 12.7313C17.5565 12.5583 17.3217 12.4611 17.0769 12.4611C16.8321 12.4611 16.5973 12.5583 16.4242 12.7313C16.251 12.9042 16.1538 13.1388 16.1538 13.3834V14.8453L9.15229 7.84969H10.6154C10.8602 7.84969 11.095 7.75252 11.2681 7.57956C11.4412 7.4066 11.5384 7.17201 11.5384 6.9274C11.5384 6.6828 11.4412 6.44821 11.2681 6.27525C11.095 6.10228 10.8602 6.00511 10.6154 6.00511H6.92307C6.86327 5.9983 6.80288 5.9983 6.74307 6.00511H6.66461L6.5723 6.03278L6.46154 6.12501C6.43669 6.13365 6.41333 6.1461 6.39231 6.1619C6.2902 6.22695 6.20356 6.31352 6.13846 6.41553C6.13052 6.43174 6.12433 6.44874 6.12 6.46626C6.10036 6.49543 6.08337 6.5263 6.06923 6.55849L6.04154 6.65072C6.03888 6.67678 6.03888 6.70305 6.04154 6.72911C6.01927 6.79316 6.00531 6.8598 6 6.9274V10.6166C6 10.8612 6.09725 11.0958 6.27036 11.2687C6.44347 11.4417 6.67826 11.5389 6.92307 11.5389C7.16789 11.5389 7.40267 11.4417 7.57578 11.2687C7.74889 11.0958 7.84615 10.8612 7.84615 10.6166V9.15473L14.8476 16.1503H13.3846C13.1398 16.1503 12.905 16.2475 12.7319 16.4204C12.5588 16.5934 12.4615 16.828 12.4615 17.0726C12.4615 17.3172 12.5588 17.5518 12.7319 17.7248C12.905 17.8977 13.1398 17.9949 13.3846 17.9949H17.0769C17.1367 18.0017 17.1971 18.0017 17.2569 17.9949L17.3353 17.9718L17.4276 17.9442L17.5199 17.8934C17.5448 17.8848 17.5682 17.8724 17.5892 17.8565C17.6913 17.7915 17.7779 17.7049 17.843 17.6029C17.8588 17.5819 17.8713 17.5586 17.8799 17.5337C17.9006 17.4987 17.9177 17.4616 17.9307 17.4231Z" fill="currentColor"/>
</svg>
