<svg xmlns="http://www.w3.org/2000/svg" width="24" height="24" fill="currentColor" viewBox="0 0 24 24">
  <path d="M13 4a1 1 0 10-2 0v8.252L8.263 9.515a1 1 0 00-1.414 1.414l4.435 4.436a1.009 1.009 0 00.69.301 1.016 1.016 0 00.355-.055.996.996 0 00.378-.237l4.445-4.445a1 1 0 10-1.415-1.414L13 12.253V4z"/>
  <path d="M4 13.667a1 1 0 011 1v3.555a.778.778 0 00.778.778h12.444a.778.778 0 00.778-.778v-3.555a1 1 0 112 0v3.555A2.778 2.778 0 0118.222 21H5.778A2.778 2.778 0 013 18.222v-3.555a1 1 0 011-1z"/>
</svg>
