<svg width="30" height="30" viewBox="0 0 30 30" fill="none" xmlns="http://www.w3.org/2000/svg">
<g clip-path="url(#clip0_3489:483)">
<path d="M26.25 30H15C14.6685 30 14.3505 29.8683 14.1161 29.6339C13.8817 29.3995 13.75 29.0815 13.75 28.75V26.25C13.75 25.9185 13.8817 25.6005 14.1161 25.3661C14.3505 25.1317 14.6685 25 15 25H26.25C26.5815 25 26.8995 25.1317 27.1339 25.3661C27.3683 25.6005 27.5 25.9185 27.5 26.25V28.75C27.5 29.0815 27.3683 29.3995 27.1339 29.6339C26.8995 29.8683 26.5815 30 26.25 30Z" fill="#7190CC"/>
<path d="M26.25 0H3.75C3.41848 0 3.10054 0.131695 2.86612 0.366116C2.6317 0.600536 2.5 0.91848 2.5 1.25V3.75C2.5 4.08152 2.6317 4.39947 2.86612 4.63389C3.10054 4.86831 3.41848 5 3.75 5H26.25C26.5815 5 26.8995 4.86831 27.1339 4.63389C27.3683 4.39947 27.5 4.08152 27.5 3.75V1.25C27.5 0.91848 27.3683 0.600536 27.1339 0.366116C26.8995 0.131695 26.5815 0 26.25 0Z" fill="#C9DBFF"/>
<path d="M26.25 7.5H3.75C3.41848 7.5 3.10054 7.6317 2.86612 7.86612C2.6317 8.10054 2.5 8.41848 2.5 8.75V21.25C2.5 21.5815 2.6317 21.8995 2.86612 22.1339C3.10054 22.3683 3.41848 22.5 3.75 22.5H26.25C26.5815 22.5 26.8995 22.3683 27.1339 22.1339C27.3683 21.8995 27.5 21.5815 27.5 21.25V8.75C27.5 8.41848 27.3683 8.10054 27.1339 7.86612C26.8995 7.6317 26.5815 7.5 26.25 7.5Z" fill="#4EABE6"/>
</g>
<defs>
<clipPath id="clip0_3489:483">
<rect width="30" height="30" fill="white"/>
</clipPath>
</defs>
</svg>
