<svg xmlns="http://www.w3.org/2000/svg" width="24" height="24" fill="currentColor" viewBox="0 0 24 24">
  <path fill-rule="evenodd" d="M7 12a1 1 0 011-1h8a1 1 0 110 2H8a1 1 0 01-1-1z" clip-rule="evenodd"/>
  <path fill-rule="evenodd" d="M12 7a1 1 0 011 1v8a1 1 0 11-2 0V8a1 1 0 011-1z" clip-rule="evenodd"/>
  <path fill-rule="evenodd" d="M18 5H6a1 1 0 00-1 1v12a1 1 0 001 1h12a1 1 0 001-1V6a1 1 0 00-1-1zM6 3a3 3 0 00-3 3v12a3 3 0 003 3h12a3 3 0 003-3V6a3 3 0 00-3-3H6z" clip-rule="evenodd"/>
</svg>
