<svg width="80" height="80" viewBox="0 0 80 80" fill="none" xmlns="http://www.w3.org/2000/svg">
<rect width="80" height="80" rx="3" fill="white"/>
<mask id="mask0_5950_49520" style="mask-type:alpha" maskUnits="userSpaceOnUse" x="12" y="19" width="56" height="42">
<path d="M68 19V61H12V41.9533C12 41.0952 12 40.5982 12 40.5982V19H68Z" fill="url(#paint0_linear_5950_49520)"/>
</mask>
<g mask="url(#mask0_5950_49520)">
<path d="M85.5 16.666V69.166H8.5V41.7524C8.5 40.8145 8.5 40.2714 8.5 40.2714V16.666H85.5Z" fill="url(#paint1_linear_5950_49520)"/>
<path d="M108.488 76.3935V62.5599V60.7513V50.0446V49.1711C103.657 48.8279 97.7027 49.1275 96.4682 49.2476C93.2294 49.5645 89.9877 49.8619 86.7433 50.1212C80.5854 50.6147 74.4176 50.9713 68.2392 51.0624C58.8047 51.201 49.5992 50.319 40.2435 49.2275C36.0406 48.7374 31.84 48.1941 27.6162 47.9208C19.0864 47.3692 10.5832 48.7457 2.06001 48.881C0.201949 48.9106 -1.65556 48.9095 -3.51196 48.8313C-3.51196 48.8313 -3.51196 49.3834 -3.51196 50.3369V61.6472V62.2363V76.3935V78.2055H86.7439H108.488V76.3935Z" fill="#99D6F2"/>
<path d="M108.488 76.3938V62.5601V60.7516V50.0449C103.836 49.7984 99.3967 50.5361 94.8114 51.1319C92.1274 51.4807 89.4373 51.7853 86.7439 52.044C84.6935 52.2413 82.6414 52.4129 80.5871 52.5582C61.5325 53.9079 42.555 52.3006 23.5403 51.1867C14.5277 50.6585 5.51395 50.4467 -3.51196 50.3366V61.6469V62.236V76.3932V78.2052H86.7439H108.488V76.3938Z" fill="#348ECE"/>
<path d="M36.0859 37.3854C39.0166 34.4305 39.0166 29.6398 36.0859 26.685C33.1553 23.7301 28.4038 23.7301 25.4731 26.685C22.5425 29.6398 22.5425 34.4305 25.4731 37.3854C28.4038 40.3402 33.1553 40.3402 36.0859 37.3854Z" fill="#F8B62D"/>
<path d="M45.7372 34.7614C45.6435 34.7614 45.5505 34.7666 45.4599 34.7763C44.814 33.8887 43.6858 33.3003 42.4002 33.3003C42.1541 33.3003 41.9142 33.322 41.6818 33.3631C40.9685 32.4384 39.7916 31.834 38.4598 31.834C36.6195 31.834 35.0747 32.9864 34.6405 34.544C34.5999 34.5423 34.56 34.5411 34.5187 34.5411C33.0357 34.5411 31.8333 35.6398 31.8333 36.9948C31.8333 37.5941 32.0837 38.0981 32.4785 38.5011C32.8621 38.8926 33.3812 39.1888 33.9396 39.3846C34.505 39.5832 35.1015 39.6923 35.6969 39.7842C37.5646 40.0712 39.4736 40.0461 41.352 39.8641C43.1692 39.6877 45.0801 39.468 46.7942 38.8647C46.8654 38.8395 46.936 38.8139 47.0059 38.7876C47.7668 38.5016 48.1666 37.7214 48.1666 36.9794C48.166 35.7551 47.0784 34.7614 45.7372 34.7614Z" fill="white"/>
</g>
<defs>
<linearGradient id="paint0_linear_5950_49520" x1="35.1884" y1="60.0792" x2="35.1884" y2="-24.4431" gradientUnits="userSpaceOnUse">
<stop stop-color="white"/>
<stop offset="0.0858" stop-color="#F7FCFE"/>
<stop offset="0.2184" stop-color="#E1F4FC"/>
<stop offset="0.3813" stop-color="#BEE7F9"/>
<stop offset="0.5681" stop-color="#8CD4F5"/>
<stop offset="0.7753" stop-color="#4DBDF0"/>
<stop offset="0.9967" stop-color="#01A0E9"/>
<stop offset="1" stop-color="#00A0E9"/>
</linearGradient>
<linearGradient id="paint1_linear_5950_49520" x1="41.7126" y1="61.5627" x2="41.7126" y2="-30.8142" gradientUnits="userSpaceOnUse">
<stop stop-color="white"/>
<stop offset="0.0858" stop-color="#F7FCFE"/>
<stop offset="0.2184" stop-color="#E1F4FC"/>
<stop offset="0.3813" stop-color="#BEE7F9"/>
<stop offset="0.5681" stop-color="#8CD4F5"/>
<stop offset="0.7753" stop-color="#4DBDF0"/>
<stop offset="0.9967" stop-color="#01A0E9"/>
<stop offset="1" stop-color="#00A0E9"/>
</linearGradient>
</defs>
</svg>
