<svg width="24" height="24" viewBox="0 0 24 24" fill="none" xmlns="http://www.w3.org/2000/svg">
<g clip-path="url(#clip0_17691_205171)">
<circle cx="12" cy="12" r="12" fill="#F39800"/>
<path fill-rule="evenodd" clip-rule="evenodd" d="M18.8891 10.5995C18.9574 10.66 18.9997 10.7531 18.9997 10.8542L19 17.2949C19 17.7624 18.8371 18.1858 18.5745 18.4942C18.5739 18.4951 18.5734 18.4961 18.573 18.4971C18.5724 18.4983 18.5718 18.4996 18.5709 18.5006C18.5701 18.5016 18.5691 18.5022 18.5682 18.5027C18.5672 18.5033 18.5662 18.5039 18.5654 18.5048C18.3004 18.8104 17.9366 19 17.5349 19H6.46512C6.06343 19 5.69964 18.8104 5.43461 18.5048C5.43461 18.5048 5.43074 18.5026 5.42908 18.5006C5.42825 18.4997 5.42777 18.4986 5.42728 18.4974C5.4268 18.4963 5.42631 18.4952 5.42548 18.4942C5.16295 18.1858 5 17.7624 5 17.2949V10.8545C5 10.7531 5.04233 10.6603 5.11066 10.5998C5.11171 10.5987 5.11239 10.5972 5.11307 10.5956C5.11383 10.5938 5.11461 10.592 5.11592 10.5908L7.29672 8.79684V6.84804C7.29672 6.67032 7.42066 6.52608 7.57337 6.52608H10.0554L11.8401 5.05892C11.9355 4.98036 12.0636 4.98036 12.1593 5.05892L13.944 6.52608H16.4261C16.5788 6.52608 16.7027 6.67032 16.7027 6.84804V8.79684L18.8838 10.5905C18.8852 10.5917 18.8859 10.5935 18.8867 10.5953C18.8874 10.5968 18.888 10.5983 18.8891 10.5995ZM18.4464 11.3751L14.7084 13.5505L18.3416 17.7785C18.4063 17.6326 18.4464 17.4697 18.4464 17.2946V11.3751ZM16.7027 11.67L18.1872 10.8062L16.7027 9.585V11.67ZM12.9849 6.52608L11.9997 5.71603L11.0146 6.52608H12.9849ZM16.1494 11.992V7.16999H7.85002V11.992L11.9997 14.407L16.1494 11.992ZM5.55302 17.2949C5.55302 17.4701 5.59313 17.633 5.65787 17.7788L9.29107 13.5509L5.55302 11.3754V17.2949ZM5.81224 10.8062L7.29672 11.67V9.585L5.81224 10.8062ZM6.04905 18.2341C6.17437 18.3094 6.31435 18.3561 6.46485 18.3561H17.5346C17.6851 18.3561 17.8251 18.3094 17.9504 18.2341L14.1872 13.8542L12.1237 15.0551C12.0456 15.1005 11.9538 15.1005 11.8761 15.0551L9.81255 13.8542L6.04905 18.2341ZM8.69091 8.81855C8.58547 8.81855 8.5 8.90403 8.5 9.00946C8.5 9.1149 8.58547 9.20037 8.69091 9.20037H15.3091C15.4145 9.20037 15.5 9.1149 15.5 9.00946C15.5 8.90403 15.4145 8.81855 15.3091 8.81855H8.69091ZM9.66675 10.2819C9.66675 10.1764 9.75222 10.091 9.85766 10.091H14.1425C14.2479 10.091 14.3334 10.1764 14.3334 10.2819C14.3334 10.3873 14.2479 10.4728 14.1425 10.4728H9.85766C9.75222 10.4728 9.66675 10.3873 9.66675 10.2819ZM9.85766 11.3638C9.75222 11.3638 9.66675 11.4493 9.66675 11.5547C9.66675 11.6601 9.75222 11.7456 9.85766 11.7456H14.1425C14.2479 11.7456 14.3334 11.6601 14.3334 11.5547C14.3334 11.4493 14.2479 11.3638 14.1425 11.3638H9.85766Z" fill="white"/>
</g>
<defs>
<clipPath id="clip0_17691_205171">
<rect width="24" height="24" fill="white"/>
</clipPath>
</defs>
</svg>
