<svg xmlns="http://www.w3.org/2000/svg" width="24" height="24" fill="currentColor" viewBox="0 0 24 24">
  <path fill-rule="evenodd" d="M1.5 3.5a2 2 0 012-2H15a2 2 0 012 1.997V7h3.5a2 2 0 012 2v11.5a2 2 0 01-2 2H9a2 2 0 01-2-2V17H3.497A2 2 0 011.5 15V3.5zm2 3.914L7.414 3.5h2.172L3.5 9.586V7.414zM12.414 3.5L8.912 7.002 9 7h2.086l3.5-3.5h-2.172zM3.5 12.414v2.172l3.5-3.5V9c0-.03 0-.059.002-.088L3.5 12.414zm0-8.914h1.086L3.5 4.586V3.5zM13.914 7H15V5.914L13.914 7zm-8 8H7v-1.086L5.914 15zm8.836 5.5h5.75V9H9v11.5h5.75z" clip-rule="evenodd"/>
</svg>
