<svg xmlns="http://www.w3.org/2000/svg" width="24" height="24" fill="currentColor" viewBox="0 0 24 24">
  <path fill-rule="evenodd" d="M7 8a1 1 0 011-1h4.8a1 1 0 011 1v2.2H16a1 1 0 011 1V16a1 1 0 01-1 1h-4.8a1 1 0 01-1-1v-2.2H8a1 1 0 01-1-1V8zm2 1v2.8h2.2a1 1 0 011 1V15H15v-2.8h-2.2a1 1 0 01-1-1V9H9z" clip-rule="evenodd"/>
  <path fill-rule="evenodd" d="M1 2a1 1 0 011-1h4a1 1 0 011 1v1h10V2a1 1 0 011-1h4a1 1 0 011 1v4a1 1 0 01-1 1h-1v10h1a1 1 0 011 1v4a1 1 0 01-1 1h-4a1 1 0 01-1-1v-1H7v1a1 1 0 01-1 1H2a1 1 0 01-1-1v-4a1 1 0 011-1h1V7H2a1 1 0 01-1-1V2zm4 5v10h1a1 1 0 011 1v1h10v-1a1 1 0 011-1h1V7h-1a1 1 0 01-1-1V5H7v1a1 1 0 01-1 1H5z" clip-rule="evenodd"/>
</svg>
