<svg xmlns="http://www.w3.org/2000/svg" width="24" height="24" fill="currentColor" viewBox="0 0 24 24">
  <path fill-rule="evenodd" d="M1 2a1 1 0 011-1h3.636a1 1 0 011 1v.818H11V2a1 1 0 011-1h3.636a1 1 0 011 1v3.636a1 1 0 01-1 1h-.818v2.546h2.546v-.818a1 1 0 011-1H22a1 1 0 011 1V12a1 1 0 01-1 1h-.818v4.364H22a1 1 0 011 1V22a1 1 0 01-1 1h-3.636a1 1 0 01-1-1v-.818H13V22a1 1 0 01-1 1H8.364a1 1 0 01-1-1v-3.636a1 1 0 011-1h.818v-2.546H6.636v.818a1 1 0 01-1 1H2a1 1 0 01-1-1V12a1 1 0 011-1h.818V6.636H2a1 1 0 01-1-1V2zm2 2.636V3h1.636v1.636H3zm1.818 2V11h.818a1 1 0 011 1v.818h3.457a1.005 1.005 0 01.178 0h2.547V6.636H12a1 1 0 01-1-1v-.818H6.636v.818a1 1 0 01-1 1h-.818zm8.182-2v-.804-.014V3h1.636v1.636H13zm-1.818 10.182v2.546H12a1 1 0 011 1v.818h4.364v-.818a1 1 0 011-1h.818V13h-.818a1 1 0 01-1-1v-.818h-2.546v2.636a1 1 0 01-1 1h-2.636zM19.364 11v-.8-.018V9.364H21V11h-1.636zm0 9.196v-.014V19.364H21V21h-1.636v-.804zm-10-.832H11V21H9.364v-1.636zM3 13h1.636v1.636H3V13z" clip-rule="evenodd"/>
</svg>
