<svg xmlns="http://www.w3.org/2000/svg" width="24" height="24" fill="currentColor" viewBox="0 0 24 24">
  <path fill-rule="evenodd" d="M12 3a9 9 0 100 18 9 9 0 000-18zM1 12C1 5.925 5.925 1 12 1s11 4.925 11 11-4.925 11-11 11S1 18.075 1 12zm5.275-1.8a6.002 6.002 0 019.508-2.857 1 1 0 011.988.157v3a1 1 0 01-1.954.3 4.002 4.002 0 00-7.634 0 1 1 0 01-1.908-.6zm10.796 2.346a1 1 0 01.654 1.254 6.002 6.002 0 01-9.508 2.857 1 1 0 01-1.988-.157v-3a1 1 0 011.954-.3 4.002 4.002 0 007.634 0 1 1 0 011.254-.654z" clip-rule="evenodd"/>
</svg>
