<svg width="69" height="67" viewBox="0 0 69 67" fill="none" xmlns="http://www.w3.org/2000/svg">
  <g clip-path="url(#clip0_1961_18679)">
    <path
      d="M13.6828 6.54016C13.6726 7.52292 13.8493 8.49987 13.7456 9.48553C12.6631 18.1272 15.6105 25.6613 20.2196 32.5825C21.8056 34.966 24.1774 37.0912 26.6669 38.6046C33.7095 43.0176 41.434 45.6316 49.7363 46.1693C52.1286 46.329 54.5971 46.0185 57.0516 45.3342C56.3384 45.0288 55.5767 44.6782 54.8184 44.421C52.6372 43.6466 50.4109 42.9204 48.2712 42.0043C47.3675 41.6113 46.5434 40.8416 45.8128 40.069C45.5219 39.7973 45.4906 38.9562 45.7122 38.6218C45.9337 38.2875 46.7196 38.0292 47.007 38.2074C52.2975 40.8034 58.1348 41.7451 63.8025 43.1598C65.7864 43.6597 66.4305 44.6221 65.7972 46.4663C64.1879 51.0074 61.623 55.0167 58.241 58.4433C58.151 58.5396 57.8221 58.503 57.2612 58.5204C55.3911 54.7891 59.1438 52.5206 60.033 48.7504C59.1537 49.0116 58.4613 49.267 57.8104 49.3807C44.7272 51.1434 32.9416 47.5325 22.1871 40.1938C20.5563 39.1217 19.0951 37.5764 17.8658 35.9771C13.3884 30.0811 10.7078 23.4275 10.2463 16.0501C10.1109 13.6684 10.6749 11.2182 11.1489 8.86436C11.3011 7.92398 12.0661 7.10494 12.5507 6.29459C12.9281 6.37645 13.3054 6.4583 13.6828 6.54016Z"
      fill="white" style="fill:white;fill:white;fill-opacity:1;" />
  </g>
  <defs>
    <clipPath id="clip0_1961_18679">
      <rect width="69" height="27" fill="white" style="fill:white;fill:white;fill-opacity:1;"
        transform="translate(18.4301) rotate(43.0466)" />
    </clipPath>
  </defs>
</svg>
