<svg xmlns="http://www.w3.org/2000/svg" width="25" height="24" fill="currentColor" viewBox="0 0 25 24">
  <path fill-rule="evenodd" d="M21.342 2.012a.993.993 0 0 1 .48.041.997.997 0 0 1 .666 1.101 17 17 0 0 1-10.024 13.251A5 5 0 0 1 7.5 22h-4a1 1 0 0 1-1-1v-4a5 5 0 0 1 5.595-4.964A17 17 0 0 1 21.342 2.012ZM10.365 16.153a1 1 0 0 1-.053-.199 3 3 0 0 0-1.765-1.766 1 1 0 0 1-.289-.09A3 3 0 0 0 4.5 17v3h3a3 3 0 0 0 2.902-3.76.975.975 0 0 1-.037-.087Zm.67-2.688c.31.31.577.658.794 1.034a15 15 0 0 0 2.404-1.367 8 8 0 0 0-2.865-2.865c-.527.755-.985 1.56-1.367 2.404a5.02 5.02 0 0 1 1.035.793Zm1.597-4.771a10 10 0 0 1 3.174 3.174 15.002 15.002 0 0 0 4.448-7.622 15 15 0 0 0-7.622 4.448Z" clip-rule="evenodd"/>
</svg>
