<svg width="24" height="24" viewBox="0 0 24 24" fill="none" xmlns="http://www.w3.org/2000/svg">
<path d="M13.6977 4.52983L9.34377 3.0711L9.33929 3.07136L8.0038 3.48371L7.01055 4.46384L6.19191 5.77607C6.07046 5.96776 5.90864 6.13066 5.71775 6.25338C5.52631 6.37646 5.31025 6.45616 5.08474 6.48689L5.08048 6.48748C4.69503 6.54226 4.3122 6.60115 3.92904 6.66517L7.40227 6.66517C7.42237 6.6357 7.44197 6.60585 7.46106 6.57563L8.28434 5.25601L8.28668 5.25219C8.40813 5.0549 8.57533 4.88978 8.77412 4.7708C8.97233 4.65217 9.19614 4.5829 9.42669 4.56881C10.8492 4.49248 12.2743 4.47948 13.6977 4.52983Z" fill="currentColor"/>
<path d="M18.283 6.2533C18.153 6.1697 18.0366 6.06748 17.9371 5.95023L15.6742 5.19205C15.6877 5.21174 15.7007 5.2318 15.7133 5.2522L16.5379 6.57235L16.5399 6.57557C16.559 6.60581 16.5786 6.63569 16.5987 6.66518L20.0711 6.66519C19.6879 6.60135 19.3041 6.54211 18.9195 6.48747L18.9156 6.48694C18.6902 6.45612 18.4743 6.37637 18.283 6.2533Z" fill="currentColor"/>
<path d="M14.6562 3.0711C12.8867 2.97606 11.1133 2.97606 9.34377 3.0711L13.6977 4.52983C13.9896 4.54016 14.2815 4.55315 14.5733 4.56881C14.8039 4.5829 15.0277 4.65217 15.2259 4.7708C15.4041 4.87748 15.5569 5.02125 15.6742 5.19205L17.9371 5.95023C17.8906 5.89533 17.8478 5.83712 17.809 5.77599L17.8081 5.77447L16.9893 4.46354C16.7416 4.06205 16.401 3.72599 15.9962 3.48371C15.5906 3.24097 15.1325 3.09952 14.6607 3.07134L14.6562 3.0711Z" fill="currentColor"/>
<path d="M5.28953 7.97285C5.73105 7.91235 6.15404 7.75614 6.52892 7.51513C6.87438 7.29303 7.17129 7.00388 7.40227 6.66517L3.92904 6.66517C2.49653 6.90332 1.5 8.15864 1.5 9.57402V18C1.5 18.7957 1.81607 19.5587 2.37868 20.1213C2.94129 20.684 3.70435 21 4.5 21H19.5C20.2957 21 21.0587 20.684 21.6213 20.1213C22.1839 19.5587 22.5 18.7957 22.5 18V9.57402C22.5 8.15834 21.5022 6.90335 20.0711 6.66519L16.5987 6.66518C16.8296 7.00371 17.1263 7.29275 17.4715 7.51482C17.8462 7.75586 18.269 7.91216 18.7103 7.97282C19.0825 8.02571 19.4542 8.08308 19.8249 8.14486C20.4977 8.25678 21 8.85577 21 9.57402V18C21 18.3978 20.842 18.7794 20.5607 19.0607C20.2794 19.342 19.8978 19.5 19.5 19.5H4.5C4.10218 19.5 3.72064 19.342 3.43934 19.0607C3.15804 18.7794 3 18.3978 3 18V9.57402C3 8.85545 3.5022 8.25668 4.17562 8.14476C4.54558 8.08294 4.91587 8.02596 5.28953 7.97285Z" fill="currentColor"/>
<path fill-rule="evenodd" clip-rule="evenodd" d="M12 7.50002C10.6076 7.50002 9.27226 8.05315 8.28769 9.03771C7.30312 10.0223 6.75 11.3576 6.75 12.75C6.75 14.1424 7.30312 15.4778 8.28769 16.4623C9.27226 17.4469 10.6076 18 12 18C13.3924 18 14.7277 17.4469 15.7123 16.4623C16.6969 15.4778 17.25 14.1424 17.25 12.75C17.25 11.3576 16.6969 10.0223 15.7123 9.03771C14.7277 8.05315 13.3924 7.50002 12 7.50002ZM12 9.00002C11.0054 9.00002 10.0516 9.39511 9.34835 10.0984C8.64509 10.8016 8.25 11.7555 8.25 12.75C8.25 13.7446 8.64509 14.6984 9.34835 15.4017C10.0516 16.1049 11.0054 16.5 12 16.5C12.9946 16.5 13.9484 16.1049 14.6517 15.4017C15.3549 14.6984 15.75 13.7446 15.75 12.75C15.75 11.7555 15.3549 10.8016 14.6517 10.0984C13.9484 9.39511 12.9946 9.00002 12 9.00002Z" fill="currentColor"/>
<path d="M18.75 9.75002C18.3358 9.75002 18 10.0858 18 10.5V10.508C18 10.9222 18.3358 11.258 18.75 11.258H18.758C19.1722 11.258 19.508 10.9222 19.508 10.508V10.5C19.508 10.0858 19.1722 9.75002 18.758 9.75002H18.75Z" fill="currentColor"/>
</svg>
