<svg xmlns="http://www.w3.org/2000/svg" width="24" height="24" fill="currentColor" viewBox="0 0 24 24">
  <path d="M11.044 1a.675.675 0 0 0-.675.675v.75a.675.675 0 0 0 1.35 0v-.75A.675.675 0 0 0 11.044 1ZM9.4 2.826l-.53-.53a.675.675 0 0 0-.955.955l.53.53.001.002a.677.677 0 0 0 .953-.002.675.675 0 0 0 0-.955Zm4.772-.529a.675.675 0 0 0-.955 0l-.53.53a.675.675 0 0 0 0 .955h.001a.677.677 0 0 0 .954 0l.53-.53a.675.675 0 0 0 0-.955Z"/>
  <path fill-rule="evenodd" d="M11.044 3.625c-.993 0-1.8.807-1.8 1.8v8.843l-.002.063-.836-1.681-.002-.005c-.48-.928-1.646-1.332-2.594-.894a1.39 1.39 0 0 0-.725 1.741l1.51 4.17.002.006a5.19 5.19 0 0 0 1.365 1.978l.002.001.996.886a.675.675 0 0 0-.467.642v1.25a.675.675 0 0 0 1.35 0v-.575h8.4v.575a.675.675 0 0 0 1.35 0v-1.25a.675.675 0 0 0-.616-.672.674.674 0 0 0 .074-.094 3.234 3.234 0 0 0 .543-1.791V12.55a1.802 1.802 0 0 0-2.497-1.66 1.8 1.8 0 0 0-2.45-.65 1.796 1.796 0 0 0-1.803-.558V5.425c0-.993-.807-1.8-1.8-1.8ZM17.999 20.5H9.986a.676.676 0 0 0-.077-.93l-1.047-.93a3.784 3.784 0 0 1-1.003-1.448l-1.506-4.159A.047.047 0 0 1 6.355 13a.046.046 0 0 1 .022-.025.648.648 0 0 1 .823.283l1.378 2.771v.001c.09.18.253.31.446.357h.005a.677.677 0 0 0 .557-.115 2.504 2.504 0 0 0 1.008-2.004V5.425a.45.45 0 0 1 .9 0v6a.675.675 0 0 0 1.35 0 .45.45 0 0 1 .9 0v.375a.675.675 0 0 0 1.35 0 .45.45 0 0 1 .9 0v.75a.675.675 0 0 0 1.35 0 .45.45 0 0 1 .9 0v6.067c0 .372-.11.733-.317 1.045a.676.676 0 0 0 .072.838ZM6.377 12.975l-.127-.272.126.272Z" clip-rule="evenodd"/>
  <path d="M7.294 4.75a.675.675 0 0 0 0 1.35h.75a.675.675 0 0 0 0-1.35h-.75Zm6.75 0a.675.675 0 0 0 0 1.35h.75a.675.675 0 0 0 0-1.35h-.75Z"/>
</svg>
