<svg xmlns="http://www.w3.org/2000/svg" width="20" height="21" fill="currentColor" viewBox="0 0 20 21">
  <path fill-rule="evenodd" d="M1 5.75A2.25 2.25 0 0 1 3.25 3.5h13.5A2.25 2.25 0 0 1 19 5.75v9.5a2.25 2.25 0 0 1-2.25 2.25H3.25A2.25 2.25 0 0 1 1 15.25v-9.5Zm1.5 5.81v3.69c0 .414.336.75.75.75h13.5a.75.75 0 0 0 .75-.75v-2.69l-2.22-2.219a.75.75 0 0 0-1.06 0l-1.91 1.909.47.47a.75.75 0 1 1-1.06 1.06L6.53 8.591a.75.75 0 0 0-1.06 0l-2.97 2.97ZM12 7.5a1 1 0 1 1-2 0 1 1 0 0 1 2 0Z" clip-rule="evenodd"/>
</svg>
