<svg xmlns="http://www.w3.org/2000/svg" width="20" height="20" fill="currentColor" viewBox="0 0 20 20">
  <path fill-rule="evenodd" d="M6.854 1.817A1.875 1.875 0 0 1 8.703.25h2.594c.917 0 1.699.663 1.85 1.567l.213 1.28a.498.498 0 0 0 .268.337c.082.046.163.093.244.142.16.097.317.104.425.063l1.217-.456a1.875 1.875 0 0 1 2.282.819l1.296 2.246a1.875 1.875 0 0 1-.432 2.385l-1.004.827a.496.496 0 0 0-.157.399 7.387 7.387 0 0 1 0 .282.496.496 0 0 0 .157.399l1.004.827c.708.582.89 1.591.432 2.385l-1.296 2.246a1.875 1.875 0 0 1-2.282.819l-1.217-.456a.497.497 0 0 0-.425.063c-.08.05-.162.096-.245.142a.498.498 0 0 0-.267.336l-.213 1.281a1.875 1.875 0 0 1-1.85 1.567H8.703a1.875 1.875 0 0 1-1.85-1.567l-.213-1.28a.498.498 0 0 0-.267-.337 7.445 7.445 0 0 1-.245-.142.497.497 0 0 0-.425-.063l-1.217.456a1.875 1.875 0 0 1-2.281-.819L.908 13.752a1.875 1.875 0 0 1 .432-2.385l.476.579-.476-.58 1.004-.826a.496.496 0 0 0 .157-.399 7.654 7.654 0 0 1 0-.282.496.496 0 0 0-.157-.399L1.34 8.633a1.875 1.875 0 0 1-.432-2.385l1.297-2.246a1.875 1.875 0 0 1 2.281-.819l1.217.456c.108.04.264.034.425-.063.08-.05.162-.096.245-.142a.498.498 0 0 0 .267-.336l.214-1.281Zm1.849-.067a.375.375 0 0 0-.37.313L8.12 3.344c-.106.635-.522 1.126-1.021 1.403a5.997 5.997 0 0 0-.196.113c-.489.295-1.123.41-1.726.184L3.96 4.588a.375.375 0 0 0-.456.164L2.207 6.998a.375.375 0 0 0 .086.477l1.004.827c.496.408.715 1.014.704 1.584a6.128 6.128 0 0 0 0 .228c.01.57-.208 1.175-.704 1.584l-1.004.827-.332-.404.332.404a.375.375 0 0 0-.086.477l1.297 2.246a.375.375 0 0 0 .456.164l1.217-.456c.603-.226 1.237-.111 1.726.184.065.04.13.077.196.114.499.276.915.767 1.02 1.402l.214 1.28c.03.181.187.314.37.314h2.594c.183 0 .34-.133.37-.313l.213-1.281c.106-.635.522-1.126 1.021-1.402a7.68 7.68 0 0 0 .196-.114c.489-.295 1.123-.41 1.726-.184l1.217.456a.375.375 0 0 0 .456-.164l1.297-2.246a.375.375 0 0 0-.086-.477l-1.004-.827c-.497-.409-.715-1.014-.704-1.584a6.13 6.13 0 0 0 0-.228c-.01-.57.207-1.176.704-1.584l1.004-.827a.375.375 0 0 0 .086-.477l-1.297-2.246a.375.375 0 0 0-.456-.164l-1.217.456c-.603.226-1.237.111-1.726-.184a5.924 5.924 0 0 0-.196-.113c-.499-.277-.915-.768-1.02-1.403l-.214-1.28a.375.375 0 0 0-.37-.314H8.703Zm1.297 6a2.25 2.25 0 1 0 0 4.5 2.25 2.25 0 0 0 0-4.5ZM6.25 10a3.75 3.75 0 1 1 7.5 0 3.75 3.75 0 0 1-7.5 0Z" clip-rule="evenodd"/>
</svg>
