<svg width="24" height="24" viewBox="0 0 24 24" fill="none" xmlns="http://www.w3.org/2000/svg">
<path d="M12.7866 6.99068C12.7866 6.4886 12.3796 6.08159 11.8775 6.08159C11.3754 6.08159 10.9684 6.4886 10.9684 6.99068V11.0816L6.87749 11.0816C6.37541 11.0816 5.9684 11.4886 5.9684 11.9907C5.9684 12.4928 6.37541 12.8998 6.87749 12.8998L10.9684 12.8998V16.9907C10.9684 17.4928 11.3754 17.8998 11.8775 17.8998C12.3796 17.8998 12.7866 17.4928 12.7866 16.9907V12.8998H16.8775C17.3796 12.8998 17.7866 12.4928 17.7866 11.9907C17.7866 11.4886 17.3796 11.0816 16.8775 11.0816H12.7866V6.99068Z" fill="currentColor"/>
<path fill-rule="evenodd" clip-rule="evenodd" d="M2 7.45455C2 4.44208 4.44208 2 7.45455 2H16.5455C19.5579 2 22 4.44208 22 7.45455V16.5455C22 19.5579 19.5579 22 16.5455 22H7.45455C4.44208 22 2 19.5579 2 16.5455V7.45455ZM7.45455 3.81818H16.5455C18.5538 3.81818 20.1818 5.44624 20.1818 7.45455V16.5455C20.1818 18.5538 18.5538 20.1818 16.5455 20.1818H7.45455C5.44624 20.1818 3.81818 18.5538 3.81818 16.5455V7.45455C3.81818 5.44624 5.44624 3.81818 7.45455 3.81818Z" fill="currentColor"/>
</svg>
