<svg width="30" height="30" viewBox="0 0 30 30" fill="none" xmlns="http://www.w3.org/2000/svg">
    <path d="M8.33582 27.4046L8.33582 27.4046L8.33637 27.4049C10.3691 28.4787 12.6579 29.0497 14.964 29.0497C16.0484 29.0497 17.1331 28.9305 18.1667 28.6918L18.1674 28.6916C18.7126 28.5578 19.053 28.0135 18.9276 27.4684L18.9274 27.4676C18.7933 26.9233 18.2478 26.5839 17.7018 26.709C16.8117 26.912 15.8877 27.0219 14.9555 27.0219C12.9807 27.0219 11.0228 26.5314 9.29389 25.6096L9.29364 25.6094C8.80121 25.3503 8.18416 25.538 7.91585 26.0288L7.91585 26.0288L7.91552 26.0295C7.65577 26.521 7.84398 27.1369 8.33582 27.4046Z" fill="currentColor" stroke="currentColor" stroke-width="0.1" stroke-linecap="round" stroke-linejoin="round"/>
    <path d="M6.71847 25.1797L6.71848 25.1797L6.71925 25.1789C7.11282 24.7683 7.09524 24.1249 6.68337 23.7406C4.98823 22.1336 3.80186 20.104 3.25948 17.8547C3.13392 17.3095 2.57907 16.9705 2.03332 17.1042C1.48709 17.2295 1.14717 17.7832 1.28139 18.3281C1.92198 20.9533 3.30565 23.3311 5.28703 25.2061C5.48417 25.3938 5.73506 25.4831 5.98528 25.4831C6.25361 25.4831 6.5217 25.3761 6.71847 25.1797Z" fill="currentColor" stroke="currentColor" stroke-width="0.1" stroke-linecap="round" stroke-linejoin="round"/>
    <path d="M0.956784 13.6067L0.956782 13.6067C0.903247 14.1587 1.3034 14.6577 1.86476 14.7139C1.89699 14.7231 1.93512 14.7231 1.96415 14.7231L1.96825 14.7231C2.48788 14.7231 2.9261 14.3296 2.9797 13.7949C3.11531 12.4501 3.47125 11.1478 4.03901 9.93006C4.28093 9.42024 4.05632 8.82188 3.54706 8.58117L3.54707 8.58116L3.54641 8.58086C3.0366 8.34881 2.42818 8.57161 2.19521 9.08096C1.52902 10.5043 1.11052 12.03 0.956784 13.6067Z" fill="currentColor" stroke="currentColor" stroke-width="0.1" stroke-linecap="round" stroke-linejoin="round"/>
    <path d="M6.77677 6.13811L6.81543 6.16981C6.89219 6.0762 6.96802 5.98373 7.04369 5.89983L7.0437 5.89984L7.04454 5.89886C7.41105 5.47069 7.3668 4.82783 6.94577 4.46133L6.94577 4.46133L6.94537 4.46099C6.51654 4.09547 5.87281 4.13942 5.50549 4.55909C5.43997 4.63045 5.37791 4.70668 5.31825 4.77995C5.2919 4.81231 5.26602 4.8441 5.24052 4.87464L5.24051 4.87463L5.23981 4.87551C4.89114 5.31265 4.95346 5.94643 5.38283 6.30372C5.57164 6.46509 5.80475 6.5363 6.02783 6.5363C6.32241 6.5363 6.61798 6.41163 6.8155 6.16973L6.77677 6.13811Z" fill="currentColor" stroke="currentColor" stroke-width="0.1" stroke-linecap="round" stroke-linejoin="round"/>
    <path d="M20.7933 26.7156L20.7933 26.7156L20.794 26.7167C20.9903 27.0283 21.3211 27.2071 21.6704 27.2071C21.8489 27.2071 22.0275 27.1626 22.1882 27.0735L22.1882 27.0735L22.1897 27.0726C26.4174 24.5414 29.048 19.9221 29.048 15.0042C29.048 7.25679 22.7277 0.95 14.964 0.95C14.4003 0.95 13.9438 1.40541 13.9438 1.96815C13.9438 2.5309 14.4003 2.98631 14.964 2.98631C21.6003 2.98631 27.0076 8.37381 27.0076 15.0042C27.0076 19.2074 24.7616 23.1572 21.1426 25.3223C20.6588 25.6085 20.5073 26.2338 20.7933 26.7156Z" fill="currentColor" stroke="currentColor" stroke-width="0.1" stroke-linecap="round" stroke-linejoin="round"/>
    <path d="M8.47888 16.0733H13.9778V21.5604V21.6104H14.0278H15.9682H16.0182V21.5604V16.0733H21.5172H21.5672V16.0233V14.087V14.037H21.5172H21.5087H16.0097V8.5498V8.4998H15.9597H14.0193H13.9693V8.5498V14.037H8.47888H8.42888V14.087V16.0233V16.0733H8.47888Z" fill="currentColor" stroke="currentColor" stroke-width="0.1" stroke-linecap="round" stroke-linejoin="round"/>
</svg>
