<svg width="24" height="25" viewBox="0 0 24 25" fill="none" xmlns="http://www.w3.org/2000/svg">
  <path
    d="M11.5 22.3125C10.066 22.3125 8.73899 22.0617 7.51887 21.5601C6.30503 21.0649 5.24843 20.3665 4.34906 19.4649C3.44969 18.5633 2.74843 17.5062 2.24528 16.2935C1.74843 15.0744 1.5 13.7474 1.5 12.3125C1.5 10.8776 1.74843 9.55377 2.24528 8.34107C2.74843 7.12202 3.44969 6.06171 4.34906 5.16012C5.24843 4.25853 6.30503 3.56012 7.51887 3.06488C8.73899 2.56329 10.066 2.3125 11.5 2.3125C12.934 2.3125 14.2579 2.56329 15.4717 3.06488C16.6918 3.56012 17.7516 4.25853 18.6509 5.16012C19.5503 6.06171 20.2484 7.12202 20.7453 8.34107C21.2484 9.55377 21.5 10.8776 21.5 12.3125C21.5 13.7474 21.2484 15.0744 20.7453 16.2935C20.2484 17.5062 19.5503 18.5633 18.6509 19.4649C17.7516 20.3665 16.6918 21.0649 15.4717 21.5601C14.2579 22.0617 12.934 22.3125 11.5 22.3125ZM5.23585 14.4649C5.05975 14.3823 5.01572 14.2522 5.10377 14.0744L5.58491 13.0744C5.67296 12.903 5.79874 12.8554 5.96226 12.9315C6.13836 13.0141 6.18239 13.1442 6.09434 13.322L5.61321 14.322C5.52516 14.4935 5.39937 14.5411 5.23585 14.4649ZM6.27358 14.7315C6.11006 14.6554 6.06604 14.5284 6.14151 14.3506L6.86792 12.8077C6.9434 12.63 7.06918 12.5823 7.24528 12.6649C7.40881 12.7411 7.45283 12.8681 7.37736 13.0458L6.65094 14.5887C6.57547 14.7665 6.44969 14.8141 6.27358 14.7315ZM7.5566 14.4649C7.3805 14.3823 7.33648 14.2522 7.42453 14.0744L7.90566 13.0744C7.99371 12.903 8.1195 12.8554 8.28302 12.9315C8.45912 13.0141 8.50314 13.1442 8.41509 13.322L7.93396 14.322C7.84591 14.4935 7.72013 14.5411 7.5566 14.4649ZM11.5 17.7696C10.2862 17.7696 9.04088 17.4046 7.76415 16.6744L8.27359 15.7601C9.40566 16.4014 10.4811 16.722 11.5 16.722C12.5189 16.722 13.5943 16.4014 14.7264 15.7601L15.2358 16.6744C13.9591 17.4046 12.7138 17.7696 11.5 17.7696ZM7.09434 11.4839L6.07547 11.2744C6.20755 10.6331 6.45597 10.1411 6.82075 9.79821C7.18553 9.44901 7.64151 9.27441 8.18868 9.27441C8.73585 9.27441 9.19182 9.44901 9.5566 9.79821C9.92138 10.1411 10.1698 10.6331 10.3019 11.2744L9.28302 11.4839C9.13208 10.7093 8.7673 10.322 8.18868 10.322C7.61006 10.322 7.24528 10.7093 7.09434 11.4839ZM11.5 21.2649C12.7767 21.2649 13.9528 21.0395 15.0283 20.5887C16.1101 20.1442 17.0472 19.522 17.8396 18.722C18.6384 17.9157 19.2579 16.9665 19.6981 15.8744C20.1447 14.7823 20.3679 13.595 20.3679 12.3125C20.3679 11.0236 20.1447 9.83631 19.6981 8.7506C19.2579 7.65853 18.6384 6.7125 17.8396 5.9125C17.0472 5.10615 16.1101 4.48075 15.0283 4.03631C13.9528 3.58552 12.7767 3.36012 11.5 3.36012C10.2296 3.36012 9.05346 3.58552 7.9717 4.03631C6.89623 4.48075 5.95912 5.10615 5.16038 5.9125C4.36164 6.7125 3.73899 7.65853 3.29245 8.7506C2.8522 9.83631 2.63208 11.0236 2.63208 12.3125C2.63208 13.595 2.8522 14.7823 3.29245 15.8744C3.73899 16.9665 4.35849 17.9157 5.15094 18.722C5.94969 19.522 6.88994 20.1442 7.9717 20.5887C9.05346 21.0395 10.2296 21.2649 11.5 21.2649ZM14.717 14.4649C14.5409 14.3823 14.4969 14.2522 14.5849 14.0744L15.066 13.0744C15.1541 12.903 15.2799 12.8554 15.4434 12.9315C15.6195 13.0141 15.6635 13.1442 15.5755 13.322L15.0943 14.322C15.0063 14.4935 14.8805 14.5411 14.717 14.4649ZM15.7547 14.7315C15.5912 14.6554 15.5472 14.5284 15.6226 14.3506L16.3491 12.8077C16.4245 12.63 16.5503 12.5823 16.7264 12.6649C16.8899 12.7411 16.934 12.8681 16.8585 13.0458L16.1321 14.5887C16.0566 14.7665 15.9308 14.8141 15.7547 14.7315ZM17.0377 14.4649C16.8616 14.3823 16.8176 14.2522 16.9057 14.0744L17.3868 13.0744C17.4748 12.903 17.6006 12.8554 17.7642 12.9315C17.9403 13.0141 17.9843 13.1442 17.8962 13.322L17.4151 14.322C17.327 14.4935 17.2013 14.5411 17.0377 14.4649ZM13.717 11.4839L12.6981 11.2744C12.8302 10.6331 13.0786 10.1411 13.4434 9.79821C13.8082 9.44901 14.2642 9.27441 14.8113 9.27441C15.3585 9.27441 15.8145 9.44901 16.1792 9.79821C16.544 10.1411 16.7925 10.6331 16.9245 11.2744L15.9057 11.4839C15.7547 10.7093 15.3899 10.322 14.8113 10.322C14.2327 10.322 13.8679 10.7093 13.717 11.4839Z"
    fill="white" />
</svg>
