<svg width="24" height="24" viewBox="0 0 24 24" fill="none" xmlns="http://www.w3.org/2000/svg">
<path d="M12 3C7.03814 3 3 7.03814 3 12C3 16.9619 7.03814 21 12 21C16.9619 21 21 16.9619 21 12C21 7.03814 16.9632 3 12 3ZM18.9141 8.79733H15.7224C15.5156 7.125 15.1737 5.84007 14.8621 4.93842C16.6517 5.66636 18.1034 7.05331 18.9141 8.79733ZM19.6227 12C19.6227 12.6314 19.5441 13.2436 19.3994 13.8295H15.8396C15.8865 13.2477 15.9127 12.6356 15.9127 12C15.9127 11.3548 15.8906 10.7482 15.852 10.176H19.3994C19.5441 10.7606 19.6227 11.3713 19.6227 12ZM4.37868 12C4.37868 11.3713 4.45726 10.7606 4.60064 10.176H8.17555C8.13695 10.7482 8.11489 11.3548 8.11489 12C8.11489 12.6369 8.14108 13.2477 8.18796 13.8295H4.60202C4.45726 13.2436 4.37868 12.6314 4.37868 12ZM9.49357 12C9.49357 11.352 9.517 10.744 9.55699 10.176H14.4706C14.5106 10.7454 14.534 11.352 14.534 12C14.534 12.6383 14.5051 13.2491 14.454 13.8295H9.57353C9.5239 13.2491 9.49357 12.6383 9.49357 12ZM13.1981 4.47381C13.4972 5.14108 14.0363 6.58318 14.33 8.79733H9.69761C9.99265 6.57629 10.5345 5.13143 10.8323 4.46829C11.2142 4.40901 11.6029 4.37868 12 4.37868C12.4081 4.37868 12.8079 4.41176 13.1981 4.47381ZM9.16958 4.92601C8.85662 5.82904 8.51333 7.11811 8.30515 8.79733H5.08732C5.90349 7.04366 7.36627 5.64982 9.16958 4.92601ZM5.09007 15.2096H8.33961C8.5671 16.8378 8.92969 18.1696 9.24127 19.1043C7.40763 18.3888 5.91728 16.9839 5.09007 15.2096ZM10.8695 19.5386C10.58 18.8079 10.0464 17.2721 9.73483 15.2096H14.2914C13.9812 17.2693 13.449 18.8038 13.1581 19.5345C12.7803 19.5924 12.3929 19.6227 11.9986 19.6227C11.6167 19.6227 11.239 19.5938 10.8695 19.5386ZM14.7904 19.0919C15.1006 18.1585 15.4619 16.8323 15.688 15.2096H18.9113C18.0896 16.9743 16.6103 18.3722 14.7904 19.0919Z" fill="currentColor"/>
</svg>
