<svg width="24" height="24" viewBox="0 0 24 24" fill="none" xmlns="http://www.w3.org/2000/svg">
<path d="M9.9521 8.04649L9.9521 8.04649C11.8641 9.16708 13.7738 10.2919 15.6825 11.42L15.6825 11.42C15.9434 11.5745 16.1018 11.7765 16.1 12.0033C16.0983 12.2296 15.9374 12.431 15.6758 12.5851C13.7672 13.7121 11.8574 14.837 9.94544 15.9576C9.67914 16.1138 9.41622 16.1464 9.21267 16.0316C9.0088 15.9166 8.90275 15.6754 8.90216 15.3697C8.90049 14.526 8.9007 13.6828 8.90091 12.8396C8.90098 12.5584 8.90105 12.2773 8.90105 11.9961C8.90105 11.6213 8.9008 11.2465 8.90055 10.8717C8.90006 10.1221 8.89957 9.37255 8.90105 8.62259L9.9521 8.04649ZM9.9521 8.04649C9.68276 7.88864 9.41836 7.85312 9.21365 7.96516M9.9521 8.04649L9.21365 7.96516M9.21365 7.96516C9.00782 8.07781 8.90164 8.31785 8.90105 8.62259L9.21365 7.96516ZM10.1535 9.59214V9.58245C11.5239 10.3879 12.8717 11.1809 14.2644 12.0004C13.262 12.5903 12.2847 13.165 11.3032 13.7422C10.9212 13.9668 10.5385 14.1919 10.1535 14.4183V14.4093V14.3991V14.3889V14.3787V14.3686V14.3584V14.3482V14.338V14.3278V14.3176V14.3074V14.2972V14.287V14.2768V14.2666V14.2565V14.2463V14.2361V14.2259V14.2157V14.2056V14.1954V14.1852V14.175V14.1649V14.1547V14.1445V14.1343V14.1242V14.114V14.1038V14.0937V14.0835V14.0733V14.0632V14.053V14.0428V14.0327V14.0225V14.0124V14.0022V13.992V13.9819V13.9717V13.9616V13.9514V13.9413V13.9311V13.921V13.9108V13.9007V13.8905V13.8804V13.8702V13.8601V13.8499V13.8398V13.8296V13.8195V13.8094V13.7992V13.7891V13.7789V13.7688V13.7587V13.7485V13.7384V13.7283V13.7181V13.708V13.6979V13.6877V13.6776V13.6675V13.6573V13.6472V13.6371V13.627V13.6168V13.6067V13.5966V13.5865V13.5763V13.5662V13.5561V13.546V13.5358V13.5257V13.5156V13.5055V13.4954V13.4853V13.4751V13.465V13.4549V13.4448V13.4347V13.4246V13.4145V13.4043V13.3942V13.3841V13.374V13.3639V13.3538V13.3437V13.3336V13.3235V13.3134V13.3033V13.2932V13.2831V13.273V13.2628V13.2527V13.2426V13.2325V13.2224V13.2123V13.2022V13.1921V13.182V13.1719V13.1619V13.1518V13.1417V13.1316V13.1215V13.1114V13.1013V13.0912V13.0811V13.071V13.0609V13.0508V13.0407V13.0306V13.0205V13.0105V13.0004V12.9903V12.9802V12.9701V12.96V12.9499V12.9398V12.9297V12.9197V12.9096V12.8995V12.8894V12.8793V12.8692V12.8592V12.8491V12.839V12.8289V12.8188V12.8087V12.7987V12.7886V12.7785V12.7684V12.7583V12.7483V12.7382V12.7281V12.718V12.7079V12.6979V12.6878V12.6777V12.6676V12.6575V12.6475V12.6374V12.6273V12.6172V12.6072V12.5971V12.587V12.5769V12.5669V12.5568V12.5467V12.5366V12.5266V12.5165V12.5064V12.4963V12.4863V12.4762V12.4661V12.456V12.446V12.4359V12.4258V12.4157V12.4057V12.3956V12.3855V12.3755V12.3654V12.3553V12.3452V12.3352V12.3251V12.315V12.305V12.2949V12.2848V12.2747V12.2647V12.2546V12.2445V12.2345V12.2244V12.2143V12.2042V12.1942V12.1841V12.174V12.164V12.1539V12.1438V12.1337V12.1237V12.1136V12.1035V12.0935V12.0834V12.0733V12.0633V12.0532V12.0431V12.033V12.023V12.0129V12.0028V11.9928V11.9827V11.9726V11.9625V11.9525V11.9424V11.9323V11.9223V11.9122V11.9021V11.892V11.882V11.8719V11.8618V11.8517V11.8417V11.8316V11.8215V11.8115V11.8014V11.7913V11.7812V11.7712V11.7611V11.751V11.7409V11.7309V11.7208V11.7107V11.7006V11.6906V11.6805V11.6704V11.6603V11.6502V11.6402V11.6301V11.62V11.6099V11.5999V11.5898V11.5797V11.5696V11.5595V11.5495V11.5394V11.5293V11.5192V11.5091V11.4991V11.489V11.4789V11.4688V11.4587V11.4486V11.4386V11.4285V11.4184V11.4083V11.3982V11.3881V11.3781V11.368V11.3579V11.3478V11.3377V11.3276V11.3175V11.3074V11.2974V11.2873V11.2772V11.2671V11.257V11.2469V11.2368V11.2267V11.2166V11.2065V11.1964V11.1863V11.1763V11.1662V11.1561V11.146V11.1359V11.1258V11.1157V11.1056V11.0955V11.0854V11.0753V11.0652V11.0551V11.045V11.0349V11.0248V11.0147V11.0046V10.9945V10.9844V10.9743V10.9641V10.954V10.9439V10.9338V10.9237V10.9136V10.9035V10.8934V10.8833V10.8732V10.8631V10.8529V10.8428V10.8327V10.8226V10.8125V10.8024V10.7922V10.7821V10.772V10.7619V10.7518V10.7417V10.7315V10.7214V10.7113V10.7012V10.691V10.6809V10.6708V10.6607V10.6505V10.6404V10.6303V10.6201V10.61V10.5999V10.5898V10.5796V10.5695V10.5594V10.5492V10.5391V10.5289V10.5188V10.5087V10.4985V10.4884V10.4782V10.4681V10.458V10.4478V10.4377V10.4275V10.4174V10.4072V10.3971V10.3869V10.3768V10.3666V10.3565V10.3463V10.3362V10.326V10.3159V10.3057V10.2956V10.2854V10.2752V10.2651V10.2549V10.2448V10.2346V10.2244V10.2143V10.2041V10.1939V10.1838V10.1736V10.1634V10.1533V10.1431V10.1329V10.1227V10.1126V10.1024V10.0922V10.082V10.0719V10.0617V10.0515V10.0413V10.0311V10.0209V10.0108V10.0006V9.99038V9.98019V9.97V9.95981V9.94962V9.93942V9.92923V9.91903V9.90884V9.89864V9.88844V9.87824V9.86804V9.85783V9.84763V9.83742V9.82722V9.81701V9.8068V9.79659V9.78638V9.77617V9.76596V9.75574V9.74553V9.73531V9.72509V9.71487V9.70465V9.69443V9.6842V9.67398V9.66375V9.65353V9.6433V9.63307V9.62284V9.61261V9.60237V9.59214Z" fill="currentColor" stroke="currentColor" fill-rule="evenodd" stroke-width="0.2"/>
<circle cx="12" cy="12" r="8.25" stroke="currentColor" stroke-width="1.5"/>
</svg>
