<svg width="106" height="15" viewBox="0 0 106 15" fill="none" xmlns="http://www.w3.org/2000/svg">
<path d="M12.28 0.4L14 0.0599995L14.12 0.439999C13.8 0.84 13.4867 1.26 13.18 1.7C12.8733 2.14 12.5933 2.56667 12.34 2.98C12.0867 3.38 11.8733 3.73333 11.7 4.04C11.5267 4.33333 11.4067 4.53333 11.34 4.64C10.62 5.97333 9.90667 7.42 9.2 8.98C8.50667 10.54 7.87333 12.1467 7.3 13.8L5.94 14.32L5.74 14.18L2.88 4.54C2.73333 4.07333 2.58667 3.61333 2.44 3.16C2.29333 2.70667 2.12 2.26 1.92 1.82C1.76 1.48667 1.54 1.27333 1.26 1.18C0.993333 1.07333 0.58 0.979999 0.02 0.899999L0 0.359999L0.14 0.24L3.64 0.0399997C4.42667 3.88 5.52667 7.61333 6.94 11.24C6.96667 11.28 6.99333 11.3133 7.02 11.34C7.06 11.3533 7.08667 11.3667 7.1 11.38C7.16667 11.3533 7.31333 11.0933 7.54 10.6C7.78 10.1067 8.10667 9.41333 8.52 8.52L10.9 3.04C11.0867 2.58667 11.3 2.14 11.54 1.7C11.78 1.26 12.0267 0.826667 12.28 0.4ZM19.2606 1.5C19.2473 1.83333 19.1206 2.10667 18.8806 2.32C18.654 2.52 18.3806 2.62 18.0606 2.62C17.7406 2.62 17.4673 2.50667 17.2406 2.28C17.014 2.05333 16.9006 1.78 16.9006 1.46C16.9006 1.11333 17.0406 0.839999 17.3206 0.639999C17.6006 0.439999 17.8873 0.339999 18.1806 0.339999C18.5273 0.339999 18.794 0.459999 18.9806 0.7C19.1673 0.926666 19.2606 1.19333 19.2606 1.5ZM18.9806 6.16L18.8206 10.36C18.8206 11.0933 18.8806 11.6667 19.0006 12.08C19.1206 12.4933 19.354 12.7 19.7006 12.7C20.0873 12.7 20.4206 12.6133 20.7006 12.44C20.994 12.2533 21.274 12.04 21.5406 11.8L21.8006 12V12.22C21.574 12.5133 21.3073 12.8133 21.0006 13.12C20.7073 13.4133 20.3873 13.66 20.0406 13.86C19.7073 14.06 19.354 14.16 18.9806 14.16C18.7006 14.16 18.434 14.1067 18.1806 14C17.9406 13.9067 17.7473 13.7 17.6006 13.38C17.454 13.06 17.3806 12.5733 17.3806 11.92L17.5006 7.5C17.5006 6.98 17.4473 6.56667 17.3406 6.26C17.2473 5.95333 17.0673 5.8 16.8006 5.8C16.5873 5.8 16.3273 5.87333 16.0206 6.02C15.714 6.15333 15.4406 6.29333 15.2006 6.44L14.9406 6.08C15.394 5.72 15.874 5.38 16.3806 5.06C16.9006 4.74 17.354 4.58 17.7406 4.58C18.194 4.58 18.514 4.73333 18.7006 5.04C18.8873 5.34667 18.9806 5.72 18.9806 6.16ZM30.8655 4.8C30.9055 4.77333 30.9588 4.76 31.0255 4.76C31.2121 4.76 31.4121 4.94667 31.6255 5.32C31.8388 5.69333 31.9455 6.17333 31.9455 6.76C31.9455 7.30667 31.8321 7.83333 31.6055 8.34C31.3788 8.83333 31.1255 9.30667 30.8455 9.76C30.3921 10.48 29.8921 11.16 29.3455 11.8C28.8121 12.44 28.2521 13.06 27.6655 13.66C27.5588 13.7667 27.4455 13.88 27.3255 14C27.2055 14.12 27.1188 14.1933 27.0655 14.22H26.5855L25.2055 9.06C25.0588 8.48667 24.8988 7.96 24.7255 7.48C24.5655 6.98667 24.3988 6.59333 24.2255 6.3C24.0521 5.99333 23.8588 5.84 23.6455 5.84C23.4321 5.84 23.2255 5.88 23.0255 5.96C22.8255 6.02667 22.6121 6.12667 22.3855 6.26L22.2055 5.78C22.5655 5.52667 22.9721 5.27333 23.4255 5.02C23.8921 4.75333 24.3188 4.62 24.7055 4.62C25.0521 4.62 25.3255 4.76667 25.5255 5.06C25.7255 5.34 25.8988 5.74667 26.0455 6.28C26.2055 6.8 26.3788 7.42 26.5655 8.14C26.6455 8.43333 26.7388 8.82 26.8455 9.3C26.9521 9.76667 27.0655 10.2333 27.1855 10.7C27.3188 11.1667 27.4455 11.56 27.5655 11.88C27.6988 12.2 27.8188 12.36 27.9255 12.36C27.9788 12.36 28.0521 12.3067 28.1455 12.2C28.2388 12.0933 28.3255 12 28.4055 11.92C28.7388 11.52 29.0655 11.0933 29.3855 10.64C29.7188 10.1733 29.9921 9.69333 30.2055 9.2C30.4321 8.70667 30.5455 8.22667 30.5455 7.76C30.5455 7.44 30.4655 7.10667 30.3055 6.76C30.1455 6.41333 29.9788 6.08 29.8055 5.76C29.7921 5.74667 29.7855 5.71333 29.7855 5.66C29.7855 5.60667 29.8121 5.55333 29.8655 5.5L30.8655 4.8ZM37.5888 1.5C37.5754 1.83333 37.4488 2.10667 37.2088 2.32C36.9821 2.52 36.7088 2.62 36.3888 2.62C36.0688 2.62 35.7954 2.50667 35.5688 2.28C35.3421 2.05333 35.2288 1.78 35.2288 1.46C35.2288 1.11333 35.3688 0.839999 35.6488 0.639999C35.9288 0.439999 36.2154 0.339999 36.5088 0.339999C36.8554 0.339999 37.1221 0.459999 37.3088 0.7C37.4954 0.926666 37.5888 1.19333 37.5888 1.5ZM37.3088 6.16L37.1488 10.36C37.1488 11.0933 37.2088 11.6667 37.3288 12.08C37.4488 12.4933 37.6821 12.7 38.0288 12.7C38.4154 12.7 38.7488 12.6133 39.0288 12.44C39.3221 12.2533 39.6021 12.04 39.8688 11.8L40.1288 12V12.22C39.9021 12.5133 39.6354 12.8133 39.3288 13.12C39.0354 13.4133 38.7154 13.66 38.3688 13.86C38.0354 14.06 37.6821 14.16 37.3088 14.16C37.0288 14.16 36.7621 14.1067 36.5088 14C36.2688 13.9067 36.0754 13.7 35.9288 13.38C35.7821 13.06 35.7088 12.5733 35.7088 11.92L35.8288 7.5C35.8288 6.98 35.7754 6.56667 35.6688 6.26C35.5754 5.95333 35.3954 5.8 35.1288 5.8C34.9154 5.8 34.6554 5.87333 34.3488 6.02C34.0421 6.15333 33.7688 6.29333 33.5288 6.44L33.2687 6.08C33.7221 5.72 34.2021 5.38 34.7088 5.06C35.2288 4.74 35.6821 4.58 36.0688 4.58C36.5221 4.58 36.8421 4.73333 37.0288 5.04C37.2154 5.34667 37.3088 5.72 37.3088 6.16ZM47.7736 6.34L46.6736 7.08L46.4336 6.94C46.4069 6.5 46.2936 6.13333 46.0936 5.84C45.9069 5.53333 45.5869 5.38 45.1336 5.38C44.6669 5.38 44.2736 5.53333 43.9536 5.84C43.6469 6.14667 43.4936 6.53333 43.4936 7C43.4936 7.4 43.6736 7.74667 44.0336 8.04C44.4069 8.32 44.9603 8.61333 45.6936 8.92C46.4669 9.25333 47.0403 9.60667 47.4136 9.98C47.8003 10.3533 47.9936 10.7733 47.9936 11.24C47.9936 11.92 47.8003 12.4933 47.4136 12.96C47.0403 13.4133 46.5603 13.76 45.9736 14C45.4003 14.2267 44.8203 14.34 44.2336 14.34C43.6336 14.34 43.0736 14.22 42.5536 13.98C42.0469 13.74 41.6269 13.3067 41.2936 12.68L42.2736 11.26L42.5536 11.28C42.5936 11.8933 42.8269 12.4333 43.2536 12.9C43.6803 13.3533 44.2069 13.58 44.8336 13.58C45.2603 13.58 45.6469 13.4333 45.9936 13.14C46.3536 12.8333 46.5336 12.4733 46.5336 12.06C46.5336 11.7133 46.4336 11.42 46.2336 11.18C46.0336 10.94 45.7803 10.7333 45.4736 10.56C45.1803 10.3867 44.8736 10.2333 44.5536 10.1C44.1403 9.92667 43.7403 9.72667 43.3536 9.5C42.9669 9.27333 42.6536 9 42.4136 8.68C42.1736 8.36 42.0536 7.98 42.0536 7.54C42.0536 6.94 42.2269 6.42667 42.5736 6C42.9203 5.57333 43.3603 5.24667 43.8936 5.02C44.4269 4.79333 44.9669 4.68 45.5136 4.68C45.8603 4.68 46.2003 4.73333 46.5336 4.84C46.8803 4.94667 47.1669 5.12 47.3936 5.36C47.6336 5.6 47.7603 5.92667 47.7736 6.34ZM51.9317 2.36L53.6117 1.78L53.7517 1.88C53.6984 2.45333 53.6517 3.00667 53.6117 3.54C53.5717 4.06 53.5451 4.61333 53.5317 5.2L53.6517 5.3H56.2117L56.3117 5.38L56.1517 5.9L56.0317 6H53.6517L53.5317 6.12V9.9C53.5317 10.3667 53.5584 10.8333 53.6117 11.3C53.6784 11.7667 53.8117 12.1533 54.0117 12.46C54.2251 12.7533 54.5384 12.9 54.9517 12.9C55.2051 12.9 55.4984 12.8133 55.8317 12.64C56.1651 12.4533 56.4784 12.2667 56.7717 12.08L57.0117 12.12L57.1517 12.42C56.6984 12.8467 56.1851 13.2467 55.6117 13.62C55.0384 13.9933 54.4584 14.18 53.8717 14.18C53.6451 14.18 53.3917 14.1333 53.1117 14.04C52.8451 13.96 52.6184 13.8 52.4317 13.56C52.2984 13.3733 52.1984 13.1733 52.1317 12.96C52.0651 12.7467 52.0184 12.4133 51.9917 11.96C51.9784 11.5067 51.9717 10.8333 51.9717 9.94V6.14L51.8517 6H49.6117L49.5117 5.9L49.6517 5.42L49.7717 5.3H51.8517L51.9717 5.18C51.9717 4.67333 51.9717 4.14 51.9717 3.58C51.9717 3.02 51.9584 2.61333 51.9317 2.36ZM62.327 1.5C62.3137 1.83333 62.187 2.10667 61.947 2.32C61.7204 2.52 61.447 2.62 61.127 2.62C60.807 2.62 60.5337 2.50667 60.307 2.28C60.0804 2.05333 59.967 1.78 59.967 1.46C59.967 1.11333 60.107 0.839999 60.387 0.639999C60.667 0.439999 60.9537 0.339999 61.247 0.339999C61.5937 0.339999 61.8604 0.459999 62.047 0.7C62.2337 0.926666 62.327 1.19333 62.327 1.5ZM62.047 6.16L61.887 10.36C61.887 11.0933 61.947 11.6667 62.067 12.08C62.187 12.4933 62.4204 12.7 62.767 12.7C63.1537 12.7 63.487 12.6133 63.767 12.44C64.0604 12.2533 64.3404 12.04 64.607 11.8L64.867 12V12.22C64.6404 12.5133 64.3737 12.8133 64.067 13.12C63.7737 13.4133 63.4537 13.66 63.107 13.86C62.7737 14.06 62.4204 14.16 62.047 14.16C61.767 14.16 61.5004 14.1067 61.247 14C61.007 13.9067 60.8137 13.7 60.667 13.38C60.5204 13.06 60.447 12.5733 60.447 11.92L60.567 7.5C60.567 6.98 60.5137 6.56667 60.407 6.26C60.3137 5.95333 60.1337 5.8 59.867 5.8C59.6537 5.8 59.3937 5.87333 59.087 6.02C58.7804 6.15333 58.507 6.29333 58.267 6.44L58.007 6.08C58.4604 5.72 58.9404 5.38 59.447 5.06C59.967 4.74 60.4204 4.58 60.807 4.58C61.2604 4.58 61.5804 4.73333 61.767 5.04C61.9537 5.34667 62.047 5.72 62.047 6.16ZM74.3519 11.72L74.5719 12.08C73.9585 12.6933 73.2785 13.2333 72.5319 13.7C71.7985 14.1533 70.9852 14.38 70.0919 14.38C69.2785 14.38 68.6385 14.2333 68.1719 13.94C67.7052 13.6333 67.3585 13.24 67.1319 12.76C66.9185 12.28 66.7785 11.7667 66.7119 11.22C66.6585 10.6733 66.6319 10.1533 66.6319 9.66C66.6319 8.66 66.8452 7.77333 67.2719 7C67.7119 6.21333 68.3119 5.6 69.0719 5.16C69.8319 4.72 70.7052 4.5 71.6919 4.5C72.3452 4.5 72.8785 4.68667 73.2919 5.06C73.7185 5.42 73.9585 5.88667 74.0119 6.46L72.9319 7.52L72.5919 7.4C72.4985 6.73333 72.2985 6.21333 71.9919 5.84C71.6852 5.46667 71.3185 5.28 70.8919 5.28C70.3319 5.28 69.8585 5.47333 69.4719 5.86C69.0852 6.23333 68.7919 6.71333 68.5919 7.3C68.3919 7.87333 68.2919 8.45333 68.2919 9.04C68.2919 9.46667 68.3319 9.91333 68.4119 10.38C68.4919 10.8467 68.6319 11.2867 68.8319 11.7C69.0319 12.1 69.3119 12.4267 69.6719 12.68C70.0452 12.9333 70.5252 13.06 71.1119 13.06C71.6985 13.06 72.2452 12.9267 72.7519 12.66C73.2585 12.38 73.7319 12.0533 74.1719 11.68L74.3519 11.72ZM79.1134 8.68L81.7934 6.22C82.3134 5.74 82.7068 5.38 82.9734 5.14C83.2401 4.9 83.4468 4.72667 83.5934 4.62C83.7401 4.5 83.8934 4.39333 84.0534 4.3L84.9734 4.88V5.1C84.2268 5.54 83.4934 6.01333 82.7734 6.52C82.0668 7.02667 81.3801 7.56 80.7134 8.12C80.6468 8.17333 80.5668 8.24 80.4734 8.32C80.3934 8.4 80.3534 8.46667 80.3534 8.52C80.3534 8.57333 80.3734 8.62667 80.4134 8.68C80.4534 8.73333 80.4868 8.78667 80.5134 8.84C80.8068 9.21333 81.1334 9.61333 81.4934 10.04C81.8668 10.4667 82.2401 10.8733 82.6134 11.26C82.9868 11.6333 83.3334 11.94 83.6534 12.18C83.9734 12.42 84.2334 12.54 84.4334 12.54C84.7668 12.54 85.0534 12.4667 85.2934 12.32C85.5468 12.1733 85.7801 11.9867 85.9934 11.76L86.3734 12.16C86.2134 12.3733 86.0001 12.64 85.7334 12.96C85.4801 13.2667 85.1868 13.54 84.8534 13.78C84.5334 14.02 84.1934 14.14 83.8334 14.14C83.5401 14.14 83.2868 14.0733 83.0734 13.94C82.8601 13.7933 82.5868 13.5333 82.2534 13.16C82.2534 13.16 82.1534 13.0333 81.9534 12.78C81.7668 12.5133 81.5134 12.1733 81.1934 11.76C80.8734 11.3467 80.5268 10.9133 80.1534 10.46C79.7801 10.0067 79.4134 9.58 79.0534 9.18L78.8134 9.32V13.74L77.3934 14.14L77.2734 14C77.3134 12.4267 77.3601 10.8667 77.4134 9.32C77.4801 7.77333 77.5134 6.21333 77.5134 4.64C77.5134 4.13333 77.5001 3.65333 77.4734 3.2C77.4468 2.74667 77.4001 2.38667 77.3334 2.12C77.2401 1.81333 77.0601 1.60667 76.7934 1.5C76.5401 1.38 76.1468 1.29333 75.6134 1.24V0.819999L75.7134 0.739999L78.9134 0.279999L78.8534 0.42V8.68H79.1134ZM95.4259 7.62L89.7859 10.06C89.8259 10.4733 89.9326 10.9 90.1059 11.34C90.2926 11.78 90.5659 12.1467 90.9259 12.44C91.2993 12.7333 91.7793 12.88 92.3659 12.88C92.9126 12.88 93.4459 12.74 93.9659 12.46C94.4993 12.18 94.9926 11.8667 95.4459 11.52L95.6659 11.56L95.9259 11.92C95.5126 12.3067 95.0593 12.68 94.5659 13.04C94.0859 13.3867 93.5726 13.6733 93.0259 13.9C92.4926 14.1267 91.9393 14.24 91.3659 14.24C90.6993 14.24 90.1459 14.1 89.7059 13.82C89.2793 13.54 88.9459 13.1733 88.7059 12.72C88.4659 12.2533 88.2926 11.74 88.1859 11.18C88.0926 10.6067 88.0459 10.04 88.0459 9.48C88.0459 8.89333 88.1193 8.32 88.2659 7.76C88.4126 7.2 88.6793 6.69333 89.0659 6.24C89.5593 5.66667 90.1459 5.22667 90.8259 4.92C91.5193 4.6 92.2459 4.44 93.0059 4.44C93.8726 4.44 94.5593 4.70667 95.0659 5.24C95.5859 5.77333 95.8459 6.42667 95.8459 7.2C95.8459 7.32 95.7993 7.40667 95.7059 7.46C95.6259 7.51333 95.5326 7.56667 95.4259 7.62ZM90.6259 6.08C90.2393 6.49333 89.9859 6.92667 89.8659 7.38C89.7593 7.83333 89.7059 8.30667 89.7059 8.8C89.7059 8.85333 89.7059 8.91333 89.7059 8.98C89.7193 9.03333 89.7326 9.09333 89.7459 9.16L89.8259 9.24L93.8659 7.64C93.9326 7.61333 93.9926 7.56 94.0459 7.48C94.0993 7.4 94.1259 7.28 94.1259 7.12C94.1259 6.84 94.0526 6.55333 93.9059 6.26C93.7593 5.96667 93.5459 5.72667 93.2659 5.54C92.9993 5.34 92.6793 5.24 92.3059 5.24C91.9726 5.24 91.6593 5.31333 91.3659 5.46C91.0859 5.60667 90.8393 5.81333 90.6259 6.08ZM104.364 7.22L104.124 7.12C104.071 6.84 103.964 6.58 103.804 6.34C103.644 6.08667 103.398 5.96 103.064 5.96C102.651 5.96 102.318 6.1 102.064 6.38C101.811 6.66 101.631 6.93333 101.524 7.2C101.431 7.41333 101.378 7.72 101.364 8.12C101.351 8.52 101.351 8.94667 101.364 9.4C101.378 9.84 101.384 10.24 101.384 10.6C101.384 11.6 101.404 12.6133 101.444 13.64L100.044 14.06L99.7442 13.88C99.8109 13.1733 99.8642 12.4067 99.9042 11.58C99.9576 10.7533 99.9842 9.94 99.9842 9.14C99.9842 8.62 99.9776 8.1 99.9642 7.58C99.9509 7.06 99.8842 6.62667 99.7642 6.28C99.6442 5.93333 99.4309 5.76 99.1242 5.76C98.8976 5.76 98.6442 5.82667 98.3642 5.96C98.0842 6.09333 97.8176 6.23333 97.5642 6.38L97.3242 6.04C97.5909 5.82667 97.8776 5.60667 98.1842 5.38C98.5042 5.15333 98.8242 4.96 99.1442 4.8C99.4642 4.62667 99.7576 4.54 100.024 4.54C100.478 4.54 100.818 4.67333 101.044 4.94C101.271 5.20667 101.411 5.55333 101.464 5.98L101.664 6.06C101.864 5.87333 102.084 5.67333 102.324 5.46C102.578 5.23333 102.838 5.04667 103.104 4.9C103.371 4.74 103.624 4.66 103.864 4.66C104.811 4.66 105.338 5.18667 105.444 6.24L104.364 7.22Z" fill="currentColor"/>
</svg>
