<svg width="26" height="26" viewBox="0 0 26 26" fill="none" xmlns="http://www.w3.org/2000/svg">
<path fill-rule="evenodd" clip-rule="evenodd" d="M4.87495 4.87499C5.43586 4.31408 6.34529 4.31408 6.9062 4.87499L13 10.9687L19.0937 4.87499C19.6546 4.31407 20.5641 4.31408 21.125 4.87499C21.6859 5.4359 21.6859 6.34533 21.125 6.90624L15.0312 13L21.125 19.0938C21.6859 19.6547 21.6859 20.5641 21.125 21.125C20.5641 21.6859 19.6546 21.6859 19.0937 21.125L13 15.0313L6.9062 21.125C6.34529 21.6859 5.43586 21.6859 4.87495 21.125C4.31403 20.5641 4.31403 19.6547 4.87495 19.0938L10.9687 13L4.87495 6.90624C4.31403 6.34533 4.31403 5.4359 4.87495 4.87499Z" fill="currentColor"/>
<defs>
</defs>
</svg>
