<svg width="24" height="24" viewBox="0 0 24 24" fill="none" xmlns="http://www.w3.org/2000/svg">
<g clip-path="url(#clip0_17691_205174)">
<path d="M12 24C18.6274 24 24 18.6274 24 12C24 5.37258 18.6274 0 12 0C5.37258 0 0 5.37258 0 12C0 18.6274 5.37258 24 12 24Z" fill="#00B900"/>
<path d="M20.1386 11.3796C20.1386 7.72094 16.4711 4.74316 11.9609 4.74316C7.45064 4.74316 3.78308 7.72094 3.78308 11.3796C3.78308 14.6596 6.6933 17.4081 10.6222 17.9272C10.8889 17.9841 11.2515 18.1049 11.3422 18.3307C11.407 18.572 11.4161 18.8249 11.3689 19.0703C11.3689 19.0703 11.2729 19.6463 11.2533 19.7689C11.2178 19.9769 11.088 20.5778 11.9644 20.2098C12.8409 19.8418 16.6738 17.4383 18.3893 15.4632C19.5751 14.1636 20.1422 12.8445 20.1422 11.3743" fill="white"/>
<path d="M10.2986 9.61067H9.7262C9.68376 9.61067 9.64305 9.62752 9.61305 9.65753C9.58304 9.68754 9.56619 9.72824 9.56619 9.77067V13.3262C9.56619 13.3472 9.57035 13.3679 9.57841 13.3872C9.58647 13.4065 9.59827 13.424 9.61315 13.4387C9.62804 13.4535 9.64568 13.4651 9.66509 13.4729C9.68449 13.4808 9.70527 13.4847 9.7262 13.4845H10.2986C10.3196 13.4847 10.3403 13.4808 10.3597 13.4729C10.3791 13.4651 10.3968 13.4535 10.4117 13.4387C10.4265 13.424 10.4384 13.4065 10.4464 13.3872C10.4545 13.3679 10.4586 13.3472 10.4586 13.3262V9.76889C10.4586 9.72646 10.4418 9.68576 10.4118 9.65575C10.3818 9.62575 10.3411 9.60889 10.2986 9.60889" fill="#00B900"/>
<path d="M14.2524 9.61067H13.68C13.6375 9.61067 13.5968 9.62752 13.5668 9.65753C13.5368 9.68754 13.52 9.72824 13.52 9.77067V11.888L11.888 9.68178L11.8755 9.66578H11.2569C11.2359 9.66578 11.2152 9.66993 11.1959 9.67799C11.1766 9.68606 11.1591 9.69787 11.1443 9.71275C11.1296 9.72763 11.118 9.74528 11.1102 9.76468C11.1023 9.78408 11.0984 9.80485 11.0986 9.82578V13.3813C11.0986 13.4233 11.1153 13.4635 11.145 13.4932C11.1746 13.5229 11.2149 13.5396 11.2569 13.5396H11.8311C11.8732 13.5396 11.9137 13.5229 11.9436 13.4933C11.9736 13.4637 11.9906 13.4235 11.9911 13.3813V11.2658L13.6249 13.4738C13.6363 13.4889 13.6501 13.5021 13.6657 13.5129H13.6746H13.6853C13.6989 13.5147 13.7126 13.5147 13.7262 13.5129H14.2524C14.2733 13.5131 14.2941 13.5092 14.3135 13.5014C14.3329 13.4935 14.3506 13.4819 14.3654 13.4672C14.3803 13.4525 14.3921 13.4349 14.4002 13.4156C14.4083 13.3963 14.4124 13.3756 14.4124 13.3547V9.76889C14.4124 9.74788 14.4083 9.72707 14.4002 9.70766C14.3922 9.68825 14.3804 9.67061 14.3655 9.65575C14.3507 9.64089 14.333 9.62911 14.3136 9.62107C14.2942 9.61303 14.2734 9.60889 14.2524 9.60889" fill="#00B900"/>
<path d="M8.91911 12.6009H7.36V9.76889C7.36 9.72646 7.34314 9.68576 7.31313 9.65575C7.28313 9.62575 7.24244 9.60889 7.2 9.60889H6.62755C6.58512 9.60889 6.54443 9.62575 6.51442 9.65575C6.48442 9.68576 6.46756 9.72646 6.46756 9.76889V13.3244C6.46785 13.3655 6.48374 13.4049 6.512 13.4347C6.54178 13.4629 6.58118 13.4788 6.62223 13.4791H8.91911C8.96124 13.4786 9.00147 13.4616 9.03109 13.4316C9.06071 13.4017 9.07734 13.3612 9.07734 13.3191V12.7449C9.07734 12.7029 9.06065 12.6627 9.03098 12.633C9.00131 12.6033 8.96107 12.5867 8.91911 12.5867" fill="#00B900"/>
<path d="M17.4151 10.5031C17.436 10.5033 17.4568 10.4994 17.4762 10.4916C17.4956 10.4837 17.5132 10.4721 17.5281 10.4574C17.543 10.4427 17.5548 10.4252 17.5629 10.4058C17.5709 10.3865 17.5751 10.3658 17.5751 10.3449V9.76889C17.5751 9.72646 17.5582 9.68576 17.5282 9.65575C17.4982 9.62575 17.4575 9.60889 17.4151 9.60889H15.1235C15.0821 9.6091 15.0425 9.62572 15.0133 9.65511C14.9855 9.68506 14.9703 9.72449 14.9707 9.76533V13.3209C14.9704 13.3413 14.9742 13.3615 14.9818 13.3804C14.9895 13.3994 15.0008 13.4166 15.0151 13.4311C15.0443 13.4605 15.0839 13.4771 15.1253 13.4773H17.4169C17.4593 13.4773 17.5 13.4605 17.53 13.4305C17.56 13.4005 17.5769 13.3598 17.5769 13.3173V12.7431C17.5769 12.7222 17.5727 12.7015 17.5647 12.6822C17.5566 12.6628 17.5448 12.6453 17.5299 12.6306C17.515 12.6159 17.4974 12.6043 17.478 12.5964C17.4586 12.5886 17.4378 12.5847 17.4169 12.5849H15.8524V11.9822H17.4115C17.454 11.9822 17.4947 11.9654 17.5247 11.9354C17.5547 11.9054 17.5715 11.8647 17.5715 11.8222V11.2498C17.5715 11.2073 17.5547 11.1666 17.5247 11.1366C17.4947 11.1066 17.454 11.0898 17.4115 11.0898H15.8524V10.4871L17.4151 10.5031Z" fill="#00B900"/>
</g>
<defs>
<clipPath id="clip0_17691_205174">
<rect width="24" height="24" fill="white"/>
</clipPath>
</defs>
</svg>
