<?xml version="1.0" encoding="utf-8"?>
<!-- Generator: Adobe Illustrator 26.1.0, SVG Export Plug-In . SVG Version: 6.00 Build 0)  -->
<svg version="1.1" id="圖層_1" xmlns="http://www.w3.org/2000/svg" xmlns:xlink="http://www.w3.org/1999/xlink" x="0px" y="0px"
	 viewBox="0 0 223.05 186.19" style="enable-background:new 0 0 223.05 186.19;" xml:space="preserve">
<style type="text/css">
	.st0{clip-path:url(#SVGID_00000062890368536228443640000016716917067358879401_);}
	.st1{fill:#D56A0F;}
	.st2{fill:#B05422;}
	.st3{fill:#EDA742;}
	.st4{fill:#513B2D;}
	.st5{clip-path:url(#SVGID_00000011730997327167491560000002356051284305469058_);}
	.st6{fill:#F8CD77;}
	.st7{opacity:0.68;fill:#D56A0F;}
	.st8{clip-path:url(#SVGID_00000009587353851043059680000003652058136607032965_);}
	.st9{fill:#FADEBC;}
	.st10{clip-path:url(#SVGID_00000062189539276274389910000008943919064428248718_);}
	.st11{fill:#B15843;}
	.st12{fill:#BF644E;}
	.st13{clip-path:url(#SVGID_00000071543815632701504340000006827431482548973499_);fill:#EF9F53;}
	.st14{clip-path:url(#SVGID_00000071543815632701504340000006827431482548973499_);}
	.st15{clip-path:url(#SVGID_00000071543815632701504340000006827431482548973499_);fill:#E18A43;}
</style>
<g>
	<defs>
		<rect id="SVGID_1_" width="223.05" height="186.19"/>
	</defs>
	<clipPath id="SVGID_00000166637930732213539360000006600776234948534433_">
		<use xlink:href="#SVGID_1_"  style="overflow:visible;"/>
	</clipPath>
	<g style="clip-path:url(#SVGID_00000166637930732213539360000006600776234948534433_);">
		<g>
			<g>
				<path class="st1" d="M212.93,105.69c0,51-45.4,67.15-101.4,67.15s-101.4-16.15-101.4-67.15s45.4-92.34,101.4-92.34
					S212.93,54.69,212.93,105.69z"/>
			</g>
			<g>
				<path class="st2" d="M154.81,41.08c0,1.29-0.03,2.45-0.38,3.57c-0.37,1.17-0.68,2.38-1.4,3.38c-0.69,0.96-1.66,1.74-2.65,2.55
					c-0.9,0.74-1.76,1.68-2.89,2.31c-1.02,0.57-2.41,0.48-3.6,0.95c-1.09,0.44-2.17,0.97-3.38,1.33c-1.13,0.34-2.3,0.61-3.53,0.89
					c-1.16,0.26-2.34,0.53-3.57,0.74c-1.17,0.2-2.38,0.33-3.62,0.49c-1.19,0.15-2.32,0.99-3.56,1.11c-1.2,0.11-2.44-0.01-3.68,0.07
					c-1.2,0.08-2.43,0.07-3.67,0.12c-1.21,0.05-2.44,0.03-3.67,0.06c-1.21,0.02-2.44,0.18-3.67,0.18c-1.24,0-2.46-0.17-3.67-0.2
					c-1.24-0.02-2.48,0.3-3.68,0.25c-1.24-0.05-2.46-0.34-3.66-0.42c-1.24-0.08-2.45-0.35-3.65-0.46c-1.24-0.12-2.4-0.69-3.59-0.84
					c-1.24-0.16-2.53,0.21-3.7,0c-1.24-0.21-2.39-0.69-3.55-0.95c-1.23-0.28-2.44-0.48-3.57-0.82c-1.22-0.36-2.26-1.05-3.35-1.49
					c-1.19-0.48-2.21-1.08-3.22-1.64c-1.12-0.62-2.53-0.71-3.43-1.45c-0.98-0.81-1.65-1.91-2.34-2.87c-0.72-1-1.12-2.14-1.48-3.32
					c-0.35-1.12-0.57-2.28-0.57-3.57c0-1.22,0.43-2.33,0.74-3.52c0.31-1.15,0.77-2.18,1.35-3.29c0.55-1.04,0.7-2.37,1.48-3.36
					c0.73-0.93,1.78-1.62,2.69-2.49c0.85-0.81,1.61-1.8,2.61-2.56c0.94-0.71,2.02-1.32,3.08-1.97c1.01-0.62,2.2-0.97,3.32-1.53
					c1.06-0.53,2.05-1.28,3.2-1.76c1.1-0.46,2.24-0.91,3.41-1.31c1.13-0.38,2.35-0.57,3.54-0.9c1.16-0.31,2.26-0.98,3.46-1.23
					c1.18-0.25,2.43-0.21,3.65-0.4c1.19-0.18,2.43,0.02,3.66-0.11c1.2-0.12,2.37-0.81,3.6-0.87c1.2-0.06,2.44,0.57,3.67,0.57
					c1.23,0,2.46-0.68,3.67-0.62c1.23,0.06,2.4,0.72,3.6,0.84c1.23,0.12,2.51-0.27,3.69-0.09c1.22,0.19,2.29,1.09,3.47,1.34
					c1.21,0.26,2.41,0.38,3.57,0.69c1.19,0.32,2.45,0.37,3.58,0.76c1.17,0.4,2.15,1.24,3.25,1.7c1.15,0.48,2.24,0.95,3.31,1.49
					c1.11,0.56,2.35,0.82,3.36,1.44c1.07,0.65,2.25,1.11,3.19,1.82c1,0.76,1.51,2.04,2.37,2.85c0.91,0.87,1.87,1.6,2.6,2.52
					c0.78,0.99,1.69,1.86,2.24,2.9c0.58,1.11,1.14,2.25,1.45,3.4C155.19,38.59,154.81,39.86,154.81,41.08z"/>
			</g>
			<g>
				<path class="st3" d="M111.53,157.2c-0.37,0-0.74,0.13-1.11,0.13c-0.37,0-0.74-0.17-1.11-0.17c-0.37,0-0.74,0.02-1.11,0.02
					c-0.37,0-0.74,0.06-1.11,0.05c-0.37-0.01-0.74,0-1.11-0.01c-0.37-0.01-0.74-0.02-1.11-0.03c-0.37-0.01-0.74-0.03-1.11-0.04
					c-0.37-0.01-0.74-0.04-1.11-0.05c-0.37-0.01-0.74,0.02-1.11,0.01c-0.37-0.01-0.74-0.16-1.11-0.18c-0.37-0.02-0.75,0.11-1.12,0.1
					c-0.37-0.02-0.73-0.18-1.1-0.19c-0.37-0.02-0.74-0.02-1.11-0.04c-0.37-0.02-0.74,0.01-1.11-0.02c-0.37-0.02-0.74,0-1.11-0.02
					c-0.37-0.02-0.74-0.08-1.11-0.1c-0.37-0.03-0.73-0.13-1.1-0.15c-0.37-0.03-0.74-0.05-1.11-0.08c-0.37-0.03-0.74-0.02-1.11-0.05
					c-0.37-0.03-0.73-0.11-1.1-0.14c-0.37-0.03-0.75,0.01-1.11-0.03c-0.37-0.04-0.74-0.05-1.11-0.09c-0.37-0.04-0.74-0.08-1.11-0.12
					c-0.37-0.04-0.73-0.11-1.1-0.15c-0.37-0.04-0.75,0.02-1.12-0.03c-0.37-0.04-0.74-0.08-1.11-0.12c-0.37-0.05-0.72-0.23-1.08-0.28
					c-0.37-0.05-0.74-0.03-1.11-0.08c-0.37-0.05-0.73-0.17-1.09-0.22c-0.37-0.05-0.73-0.13-1.1-0.19c-0.37-0.06-0.74-0.08-1.1-0.14
					c-0.37-0.06-0.75-0.01-1.11-0.07c-0.37-0.06-0.71-0.27-1.07-0.33c-0.37-0.06-0.74-0.08-1.1-0.14c-0.37-0.07-0.74-0.06-1.11-0.13
					c-0.37-0.07-0.73-0.12-1.09-0.19c-0.37-0.07-0.72-0.2-1.08-0.27c-0.37-0.07-0.75-0.06-1.11-0.14c-0.36-0.08-0.7-0.31-1.06-0.39
					c-0.36-0.08-0.76-0.03-1.12-0.11c-0.36-0.08-0.71-0.23-1.07-0.32c-0.36-0.08-0.74-0.11-1.1-0.2c-0.36-0.09-0.7-0.26-1.06-0.35
					c-0.36-0.09-0.75-0.09-1.1-0.18c-0.36-0.09-0.69-0.31-1.04-0.41c-0.36-0.1-0.74-0.1-1.1-0.2c-0.36-0.1-0.68-0.31-1.04-0.42
					c-0.36-0.1-0.75-0.08-1.11-0.18c-0.36-0.11-0.7-0.24-1.06-0.35c-0.36-0.11-0.69-0.29-1.04-0.4c-0.35-0.11-0.71-0.22-1.06-0.34
					c-0.35-0.12-0.71-0.22-1.06-0.34c-0.35-0.12-0.73-0.17-1.07-0.3c-0.35-0.13-0.66-0.36-1.01-0.49c-0.35-0.13-0.72-0.19-1.07-0.33
					c-0.35-0.13-0.7-0.26-1.04-0.4c-0.35-0.14-0.68-0.3-1.02-0.44c-0.34-0.14-0.71-0.23-1.05-0.37c-0.34-0.15-0.7-0.25-1.04-0.4
					c-0.34-0.15-0.61-0.45-0.95-0.6c-0.34-0.15-0.75-0.16-1.08-0.31c-0.34-0.16-0.66-0.35-0.99-0.51c-0.33-0.16-0.68-0.3-1.01-0.46
					c-0.33-0.17-0.65-0.35-0.98-0.52c-0.33-0.17-0.63-0.39-0.96-0.56c-0.33-0.18-0.63-0.4-0.95-0.58c-0.32-0.18-0.61-0.43-0.93-0.61
					c-0.32-0.19-0.7-0.27-1.02-0.46c-0.32-0.19-0.62-0.41-0.93-0.6c-0.31-0.2-0.64-0.37-0.95-0.57c-0.31-0.2-0.65-0.36-0.96-0.56
					c-0.31-0.21-0.55-0.51-0.85-0.72c-0.3-0.21-0.61-0.42-0.91-0.63c-0.3-0.22-0.57-0.47-0.87-0.69c-0.3-0.22-0.66-0.35-0.96-0.57
					c-0.29-0.23-0.52-0.54-0.81-0.77c-0.29-0.23-0.56-0.48-0.84-0.72c-0.28-0.24-0.57-0.46-0.85-0.7c-0.28-0.24-0.62-0.41-0.9-0.66
					c-0.28-0.25-0.6-0.44-0.87-0.69c-0.27-0.25-0.51-0.54-0.77-0.8c-0.27-0.26-0.44-0.61-0.7-0.87c-0.26-0.26-0.64-0.41-0.9-0.67
					c-0.25-0.27-0.49-0.56-0.73-0.83c-0.25-0.27-0.43-0.61-0.67-0.89c-0.24-0.28-0.58-0.48-0.82-0.76
					c-0.24-0.28-0.43-0.61-0.66-0.89c-0.23-0.29-0.39-0.64-0.61-0.93c-0.23-0.29-0.48-0.56-0.7-0.86c-0.22-0.3-0.51-0.54-0.73-0.84
					c-0.21-0.3-0.29-0.7-0.5-1c-0.21-0.31-0.51-0.55-0.71-0.86c-0.2-0.31-0.37-0.64-0.57-0.95c-0.19-0.31-0.42-0.61-0.61-0.93
					c-0.19-0.32-0.38-0.63-0.56-0.96c-0.18-0.32-0.23-0.72-0.4-1.04c-0.17-0.33-0.46-0.59-0.62-0.93c-0.17-0.33-0.33-0.66-0.49-0.99
					c-0.16-0.33-0.19-0.72-0.35-1.06c-0.15-0.34-0.29-0.67-0.44-1.02c-0.14-0.34-0.32-0.66-0.46-1.01c-0.14-0.34-0.4-0.63-0.54-0.98
					c-0.13-0.34-0.18-0.72-0.31-1.07c-0.12-0.35-0.23-0.7-0.35-1.05c-0.12-0.35-0.26-0.69-0.37-1.04c-0.11-0.35-0.14-0.73-0.24-1.08
					c-0.1-0.35-0.25-0.7-0.35-1.05c-0.1-0.35-0.29-0.69-0.38-1.05c-0.09-0.36-0.04-0.75-0.12-1.11c-0.08-0.36-0.29-0.69-0.37-1.05
					c-0.08-0.36-0.06-0.74-0.13-1.1c-0.07-0.36-0.22-0.71-0.29-1.07c-0.07-0.36-0.04-0.74-0.1-1.11c-0.06-0.36-0.21-0.72-0.26-1.08
					c-0.05-0.36-0.12-0.73-0.17-1.1c-0.05-0.37,0-0.75-0.04-1.12c-0.04-0.37-0.08-0.67-0.11-1.04c-0.03,0.37-0.16,0.68-0.19,1.05
					c-0.03,0.38,0.09,0.76,0.06,1.14c-0.03,0.38-0.15,0.75-0.17,1.12c-0.02,0.38-0.05,0.75-0.06,1.13
					c-0.02,0.38,0.04,0.75,0.03,1.13c-0.01,0.38-0.04,0.75-0.04,1.13c-0.01,0.38,0.05,0.75,0.05,1.13c0,0.37,0.03,0.74,0.03,1.11
					c0,0.37-0.07,0.74-0.06,1.11c0.01,0.37,0.04,0.74,0.05,1.11c0.01,0.37-0.05,0.75-0.03,1.11c0.02,0.37,0.2,0.73,0.22,1.1
					c0.03,0.37-0.1,0.76-0.07,1.12c0.03,0.37,0.09,0.74,0.12,1.11c0.04,0.37,0.1,0.74,0.14,1.11c0.04,0.37,0.07,0.74,0.12,1.11
					c0.05,0.37,0.24,0.72,0.3,1.08c0.05,0.37,0.12,0.73,0.18,1.1c0.06,0.37,0.1,0.74,0.17,1.1c0.07,0.37,0,0.76,0.07,1.12
					c0.07,0.37,0.22,0.71,0.3,1.08c0.08,0.36,0.2,0.72,0.29,1.08c0.09,0.36,0.12,0.74,0.21,1.09c0.09,0.36,0.11,0.74,0.2,1.1
					c0.1,0.36,0.34,0.68,0.45,1.03c0.11,0.36,0.2,0.71,0.31,1.07c0.11,0.35,0.26,0.69,0.38,1.04c0.12,0.35,0.21,0.71,0.33,1.06
					c0.13,0.35,0.27,0.69,0.4,1.04c0.13,0.35,0.2,0.72,0.34,1.06c0.14,0.34,0.38,0.64,0.53,0.98c0.15,0.34,0.23,0.71,0.38,1.05
					c0.15,0.34,0.27,0.69,0.43,1.03c0.16,0.33,0.4,0.63,0.57,0.96c0.17,0.33,0.35,0.65,0.52,0.98c0.17,0.33,0.37,0.64,0.55,0.96
					c0.18,0.32,0.27,0.7,0.45,1.02c0.19,0.32,0.42,0.61,0.61,0.93c0.2,0.31,0.35,0.65,0.55,0.96c0.2,0.31,0.46,0.58,0.67,0.89
					c0.21,0.31,0.33,0.67,0.55,0.97c0.21,0.3,0.57,0.5,0.79,0.8c0.22,0.3,0.38,0.64,0.61,0.93c0.23,0.29,0.52,0.53,0.75,0.82
					c0.23,0.29,0.38,0.64,0.62,0.92c0.24,0.28,0.48,0.56,0.73,0.84c0.24,0.28,0.45,0.59,0.7,0.86c0.25,0.27,0.59,0.46,0.85,0.73
					c0.26,0.27,0.46,0.58,0.72,0.85c0.26,0.26,0.5,0.54,0.77,0.8c0.27,0.26,0.51,0.54,0.78,0.79c0.27,0.25,0.55,0.5,0.83,0.74
					c0.28,0.25,0.64,0.39,0.93,0.63c0.28,0.24,0.53,0.52,0.81,0.76c0.28,0.24,0.58,0.46,0.87,0.69c0.29,0.23,0.6,0.43,0.9,0.65
					c0.29,0.22,0.55,0.49,0.85,0.71c0.3,0.22,0.66,0.34,0.96,0.56c0.3,0.21,0.59,0.44,0.9,0.65c0.3,0.21,0.55,0.5,0.86,0.7
					c0.31,0.2,0.64,0.38,0.95,0.58c0.31,0.2,0.6,0.44,0.91,0.63c0.31,0.19,0.63,0.38,0.95,0.57c0.32,0.19,0.7,0.26,1.02,0.44
					c0.32,0.18,0.6,0.43,0.93,0.61c0.32,0.18,0.67,0.32,0.99,0.49c0.32,0.17,0.66,0.32,0.99,0.49c0.33,0.17,0.65,0.35,0.98,0.52
					c0.33,0.17,0.6,0.46,0.93,0.62c0.33,0.16,0.71,0.22,1.05,0.38c0.33,0.16,0.63,0.41,0.96,0.56c0.34,0.15,0.72,0.2,1.06,0.35
					c0.34,0.15,0.69,0.27,1.03,0.41c0.34,0.14,0.63,0.4,0.98,0.54c0.34,0.14,0.69,0.27,1.03,0.4c0.34,0.14,0.7,0.24,1.05,0.37
					c0.34,0.13,0.67,0.33,1.01,0.45c0.35,0.13,0.73,0.17,1.07,0.29c0.35,0.12,0.67,0.33,1.02,0.45c0.35,0.12,0.71,0.22,1.06,0.33
					c0.35,0.12,0.75,0.09,1.1,0.21c0.35,0.11,0.68,0.3,1.03,0.41c0.35,0.11,0.71,0.22,1.06,0.32c0.35,0.11,0.73,0.15,1.08,0.25
					c0.35,0.1,0.7,0.22,1.06,0.32c0.35,0.1,0.67,0.34,1.03,0.44c0.36,0.1,0.74,0.09,1.1,0.19c0.36,0.09,0.71,0.21,1.06,0.3
					c0.36,0.09,0.71,0.2,1.07,0.29c0.36,0.09,0.75,0.05,1.11,0.14c0.36,0.08,0.7,0.23,1.06,0.31c0.36,0.08,0.71,0.19,1.08,0.27
					c0.36,0.08,0.71,0.22,1.07,0.3c0.36,0.08,0.72,0.14,1.09,0.22c0.36,0.07,0.73,0.13,1.09,0.2c0.36,0.07,0.73,0.13,1.09,0.2
					c0.36,0.07,0.73,0.13,1.09,0.2c0.36,0.06,0.73,0.14,1.09,0.21c0.36,0.06,0.75,0.01,1.11,0.07c0.36,0.06,0.73,0.11,1.1,0.17
					c0.36,0.06,0.74,0.07,1.1,0.12c0.37,0.05,0.72,0.2,1.08,0.25c0.37,0.05,0.73,0.15,1.09,0.2c0.37,0.05,0.74,0.06,1.11,0.11
					c0.37,0.05,0.73,0.13,1.1,0.18c0.37,0.05,0.73,0.07,1.1,0.12c0.37,0.04,0.74,0,1.11,0.04c0.37,0.04,0.73,0.07,1.1,0.11
					c0.37,0.04,0.73,0.15,1.1,0.19c0.37,0.04,0.74,0.02,1.11,0.05c0.37,0.04,0.74,0.05,1.11,0.08c0.37,0.03,0.73,0.1,1.1,0.13
					c0.37,0.03,0.74,0.03,1.11,0.06c0.37,0.03,0.73,0.2,1.1,0.23c0.37,0.03,0.74,0.1,1.11,0.12c0.37,0.03,0.75-0.06,1.12-0.03
					c0.37,0.02,0.74-0.03,1.11,0c0.37,0.02,0.73,0.09,1.1,0.11c0.37,0.02,0.74,0.1,1.11,0.12c0.37,0.02,0.74,0.09,1.11,0.11
					c0.37,0.02,0.74-0.04,1.11-0.02c0.37,0.02,0.74,0.1,1.11,0.11c0.37,0.01,0.74-0.08,1.12-0.06c0.37,0.01,0.74,0.1,1.11,0.11
					c0.37,0.01,0.74-0.04,1.11-0.03c0.37,0.01,0.74-0.08,1.12-0.07c0.37,0.01,0.74,0.08,1.11,0.08c0.37,0.01,0.74,0.06,1.12,0.06
					c0.37,0,0.74,0,1.12,0c0.37,0,0.74,0.07,1.12,0.07s0.75,0,1.12,0c0.37,0,0.74-0.11,1.11-0.11c0.37,0,0.74,0.1,1.11,0.1
					c0.37,0,0.74-0.08,1.11-0.08c0.37,0,0.74,0.03,1.11,0.02c0.37-0.01,0.74-0.05,1.11-0.05c0.37-0.01,0.74,0.06,1.11,0.05
					c0.37-0.01,0.74-0.16,1.11-0.17c0.37-0.01,0.75,0.15,1.12,0.14c0.37-0.01,0.74-0.12,1.11-0.13c0.37-0.01,0.74-0.05,1.11-0.06
					c0.37-0.02,0.74,0.04,1.11,0.02c0.37-0.02,0.74,0.01,1.11-0.01c0.37-0.02,0.74-0.12,1.11-0.14c0.37-0.02,0.74-0.05,1.11-0.07
					c0.37-0.02,0.74-0.1,1.11-0.13c0.37-0.02,0.75,0.09,1.12,0.06c0.37-0.03,0.73-0.13,1.1-0.16c0.37-0.03,0.74-0.1,1.11-0.13
					c0.37-0.03,0.75,0.05,1.12,0.02c0.37-0.03,0.73-0.13,1.1-0.16c0.37-0.03,0.73-0.14,1.1-0.17c0.37-0.04,0.73-0.11,1.1-0.15
					c0.37-0.04,0.75,0,1.11-0.04c0.37-0.04,0.73-0.13,1.1-0.17c0.37-0.04,0.74-0.06,1.11-0.1c0.37-0.04,0.74-0.03,1.11-0.08
					c0.37-0.05,0.72-0.18,1.09-0.23c0.37-0.05,0.74-0.04,1.11-0.09c0.37-0.05,0.73-0.14,1.1-0.19c0.37-0.05,0.74-0.05,1.11-0.11
					c0.37-0.06,0.73-0.13,1.1-0.18c0.37-0.06,0.73-0.14,1.09-0.2c0.37-0.06,0.74-0.07,1.1-0.14c0.37-0.06,0.73-0.16,1.09-0.22
					c0.37-0.07,0.72-0.21,1.08-0.28c0.36-0.07,0.74-0.07,1.1-0.14c0.36-0.07,0.74-0.07,1.1-0.14c0.36-0.07,0.71-0.24,1.07-0.32
					c0.36-0.08,0.75-0.03,1.11-0.1c0.36-0.08,0.7-0.27,1.06-0.35c0.36-0.08,0.72-0.19,1.08-0.28c0.36-0.08,0.74-0.09,1.1-0.18
					c0.36-0.09,0.71-0.21,1.07-0.3c0.36-0.09,0.73-0.15,1.08-0.24c0.36-0.09,0.72-0.16,1.08-0.26c0.36-0.1,0.7-0.24,1.06-0.34
					c0.36-0.1,0.7-0.26,1.05-0.36c0.36-0.1,0.74-0.13,1.09-0.24c0.36-0.11,0.71-0.21,1.07-0.32c0.36-0.11,0.68-0.31,1.03-0.42
					c0.35-0.11,0.7-0.24,1.05-0.36c0.35-0.12,0.71-0.21,1.06-0.33c0.35-0.12,0.73-0.16,1.08-0.29c0.35-0.13,0.68-0.3,1.03-0.43
					c0.35-0.13,0.71-0.23,1.05-0.37c0.35-0.13,0.72-0.19,1.07-0.32c0.35-0.14,0.69-0.28,1.03-0.42c0.34-0.14,0.65-0.36,0.99-0.51
					c0.34-0.15,0.71-0.23,1.05-0.38c0.34-0.15,0.69-0.27,1.03-0.43c0.34-0.15,0.67-0.32,1.01-0.47c0.34-0.16,0.68-0.3,1.01-0.46
					c0.33-0.16,0.58-0.5,0.91-0.67c0.33-0.17,0.73-0.21,1.05-0.38c0.33-0.17,0.6-0.44,0.93-0.62c0.33-0.18,0.73-0.21,1.05-0.39
					c0.32-0.18,0.59-0.46,0.91-0.64c0.32-0.19,0.61-0.42,0.93-0.61c0.32-0.19,0.72-0.25,1.03-0.44c0.32-0.2,0.61-0.43,0.92-0.63
					c0.31-0.2,0.56-0.5,0.86-0.71c0.31-0.21,0.64-0.38,0.94-0.58c0.31-0.21,0.58-0.46,0.88-0.68c0.3-0.22,0.65-0.37,0.94-0.59
					c0.3-0.22,0.63-0.4,0.92-0.62c0.29-0.23,0.53-0.52,0.82-0.76c0.29-0.23,0.62-0.41,0.91-0.64c0.28-0.24,0.49-0.57,0.77-0.81
					c0.28-0.24,0.64-0.4,0.91-0.64c0.28-0.25,0.48-0.57,0.75-0.82c0.27-0.25,0.57-0.47,0.84-0.73c0.27-0.26,0.52-0.52,0.78-0.78
					c0.26-0.26,0.59-0.46,0.84-0.73c0.26-0.27,0.4-0.64,0.65-0.91c0.25-0.27,0.54-0.51,0.78-0.78c0.24-0.28,0.43-0.6,0.67-0.89
					c0.24-0.28,0.46-0.57,0.69-0.86c0.23-0.29,0.59-0.47,0.82-0.77c0.23-0.29,0.46-0.58,0.68-0.87c0.22-0.3,0.31-0.69,0.52-0.99
					c0.21-0.3,0.53-0.53,0.74-0.84c0.21-0.31,0.29-0.69,0.49-1c0.2-0.31,0.49-0.56,0.69-0.88c0.19-0.31,0.32-0.67,0.51-0.99
					c0.19-0.32,0.42-0.61,0.6-0.93c0.18-0.32,0.38-0.63,0.55-0.96c0.17-0.33,0.33-0.66,0.5-0.99c0.17-0.33,0.23-0.71,0.39-1.04
					c0.16-0.33,0.32-0.66,0.47-1c0.15-0.34,0.41-0.62,0.56-0.96c0.15-0.34,0.14-0.74,0.27-1.08c0.14-0.34,0.35-0.65,0.49-1
					c0.13-0.34,0.21-0.71,0.33-1.06c0.12-0.35,0.27-0.69,0.39-1.04c0.12-0.35,0.19-0.71,0.3-1.07c0.11-0.35,0.33-0.67,0.44-1.02
					c0.1-0.35,0.09-0.74,0.19-1.1c0.1-0.35,0.26-0.69,0.35-1.05c0.09-0.36,0.27-0.69,0.36-1.05c0.08-0.36,0.01-0.75,0.09-1.11
					c0.08-0.36,0.32-0.68,0.39-1.05c0.07-0.36-0.02-0.75,0.04-1.12c0.07-0.36,0.21-0.71,0.27-1.08c0.06-0.36,0.17-0.72,0.22-1.09
					c0.05-0.36,0.04-0.74,0.09-1.11c0.05-0.36,0.07-0.73,0.12-1.1c0.04-0.36,0.21-0.72,0.25-1.09c0.04-0.37,0.05-0.74,0.08-1.11
					c0.03-0.37,0-0.74,0.03-1.11c0.03-0.37-0.05-0.74-0.03-1.11c0.02-0.37,0.1-0.73,0.11-1.1c0.01-0.37,0.01-0.74,0.02-1.11
					c0.01-0.37,0.04-0.74,0.04-1.11s0.07-0.75,0.07-1.12c0-0.38,0.02-0.76,0.02-1.13c-0.01-0.38-0.15-0.75-0.16-1.13
					c-0.01-0.38,0-0.75-0.02-1.13c-0.02-0.38-0.05-0.75-0.07-1.13c-0.02-0.38,0-0.75-0.03-1.13c-0.03-0.38-0.01-0.75-0.04-1.13
					c-0.03-0.38-0.08-0.7-0.11-1.08c-0.04,0.37-0.07,0.69-0.11,1.06c-0.04,0.37-0.13,0.73-0.18,1.1c-0.05,0.37-0.08,0.74-0.13,1.11
					c-0.05,0.37-0.18,0.73-0.24,1.09c-0.06,0.37,0.03,0.76-0.03,1.12c-0.07,0.37-0.14,0.73-0.22,1.09c-0.07,0.37-0.3,0.7-0.38,1.06
					c-0.08,0.36-0.06,0.75-0.14,1.11c-0.09,0.36-0.11,0.74-0.2,1.1c-0.09,0.36-0.24,0.71-0.34,1.06c-0.1,0.36-0.13,0.74-0.23,1.09
					c-0.11,0.36-0.34,0.67-0.45,1.03c-0.11,0.35-0.19,0.72-0.31,1.07c-0.12,0.35-0.3,0.68-0.42,1.03c-0.13,0.35-0.21,0.71-0.34,1.06
					c-0.13,0.35-0.23,0.71-0.37,1.05c-0.14,0.34-0.26,0.7-0.4,1.04c-0.15,0.34-0.38,0.65-0.53,0.98c-0.15,0.34-0.3,0.68-0.46,1.01
					c-0.16,0.33-0.32,0.67-0.49,1c-0.17,0.33-0.35,0.65-0.53,0.98c-0.17,0.33-0.36,0.65-0.54,0.97c-0.18,0.32-0.29,0.69-0.48,1.01
					c-0.19,0.32-0.34,0.66-0.54,0.97c-0.19,0.32-0.52,0.55-0.72,0.86c-0.2,0.31-0.37,0.64-0.58,0.95c-0.21,0.31-0.36,0.65-0.57,0.95
					c-0.21,0.3-0.49,0.56-0.71,0.86c-0.22,0.3-0.45,0.59-0.68,0.88c-0.23,0.29-0.51,0.54-0.74,0.83c-0.23,0.29-0.37,0.66-0.61,0.94
					c-0.24,0.28-0.56,0.49-0.81,0.77c-0.24,0.28-0.5,0.55-0.75,0.82c-0.25,0.27-0.38,0.66-0.64,0.92c-0.26,0.27-0.61,0.43-0.88,0.7
					c-0.26,0.26-0.47,0.58-0.73,0.84c-0.27,0.26-0.5,0.55-0.77,0.8c-0.27,0.25-0.58,0.46-0.86,0.71c-0.28,0.25-0.54,0.51-0.82,0.75
					c-0.28,0.24-0.62,0.41-0.91,0.65c-0.28,0.24-0.54,0.51-0.83,0.74c-0.29,0.23-0.61,0.42-0.9,0.65c-0.29,0.22-0.62,0.4-0.92,0.62
					c-0.3,0.22-0.57,0.47-0.87,0.69c-0.3,0.21-0.59,0.44-0.9,0.65c-0.3,0.21-0.64,0.36-0.95,0.57c-0.31,0.2-0.61,0.42-0.92,0.62
					c-0.31,0.2-0.59,0.44-0.91,0.64c-0.31,0.19-0.65,0.36-0.96,0.55c-0.32,0.19-0.56,0.5-0.88,0.69c-0.32,0.18-0.68,0.29-1.01,0.47
					c-0.32,0.18-0.64,0.36-0.97,0.54c-0.32,0.17-0.68,0.28-1.01,0.45c-0.33,0.17-0.59,0.46-0.93,0.63c-0.33,0.17-0.67,0.3-1.01,0.47
					c-0.33,0.16-0.7,0.24-1.04,0.39c-0.33,0.16-0.62,0.41-0.96,0.56c-0.34,0.15-0.7,0.24-1.04,0.39c-0.34,0.15-0.7,0.25-1.04,0.39
					c-0.34,0.14-0.66,0.35-1,0.49c-0.34,0.14-0.72,0.18-1.07,0.31c-0.34,0.14-0.69,0.27-1.03,0.4c-0.34,0.13-0.65,0.37-1,0.49
					c-0.35,0.13-0.7,0.22-1.05,0.35c-0.35,0.12-0.67,0.32-1.02,0.44c-0.35,0.12-0.7,0.25-1.05,0.36c-0.35,0.12-0.73,0.13-1.09,0.25
					c-0.35,0.11-0.67,0.32-1.03,0.43c-0.35,0.11-0.71,0.22-1.06,0.32c-0.35,0.11-0.76,0.05-1.11,0.15c-0.35,0.1-0.71,0.21-1.06,0.31
					c-0.35,0.1-0.7,0.22-1.06,0.31c-0.36,0.1-0.7,0.22-1.06,0.31c-0.36,0.09-0.69,0.3-1.04,0.39c-0.36,0.09-0.75,0.03-1.11,0.11
					c-0.36,0.09-0.7,0.25-1.06,0.34c-0.36,0.08-0.72,0.15-1.08,0.23c-0.36,0.08-0.7,0.26-1.06,0.34c-0.36,0.08-0.74,0.08-1.1,0.16
					c-0.36,0.08-0.72,0.17-1.08,0.24c-0.36,0.07-0.72,0.16-1.09,0.23c-0.36,0.07-0.74,0.06-1.1,0.13c-0.36,0.07-0.73,0.13-1.09,0.19
					c-0.36,0.06-0.71,0.24-1.07,0.3c-0.36,0.06-0.74,0.08-1.1,0.14c-0.36,0.06-0.73,0.14-1.09,0.2c-0.36,0.06-0.75-0.04-1.12,0.01
					c-0.37,0.05-0.72,0.21-1.08,0.26c-0.37,0.05-0.74,0.03-1.11,0.08c-0.37,0.05-0.74,0.08-1.1,0.13c-0.37,0.05-0.73,0.12-1.1,0.17
					c-0.37,0.05-0.71,0.24-1.08,0.28c-0.37,0.04-0.75-0.02-1.11,0.02c-0.37,0.04-0.73,0.16-1.09,0.2c-0.37,0.04-0.74,0.04-1.11,0.08
					c-0.37,0.04-0.73,0.1-1.1,0.14c-0.37,0.04-0.75-0.05-1.12-0.02c-0.37,0.03-0.72,0.24-1.09,0.27c-0.37,0.03-0.74,0.04-1.11,0.07
					c-0.37,0.03-0.75-0.08-1.12-0.05c-0.37,0.03-0.73,0.17-1.1,0.19c-0.37,0.03-0.75-0.1-1.12-0.07c-0.37,0.02-0.73,0.2-1.1,0.23
					c-0.37,0.02-0.74,0.04-1.11,0.06c-0.37,0.02-0.74-0.07-1.12-0.05c-0.37,0.02-0.74,0.13-1.11,0.14
					c-0.37,0.02-0.74,0.04-1.11,0.05c-0.37,0.02-0.74,0-1.11,0.01c-0.37,0.01-0.74,0.02-1.11,0.03c-0.37,0.01-0.74-0.07-1.12-0.06
					c-0.37,0.01-0.74,0.06-1.11,0.07c-0.37,0.01-0.74,0.14-1.11,0.15c-0.37,0.01-0.74-0.07-1.12-0.06
					c-0.37,0.01-0.74,0.08-1.12,0.08c-0.37,0-0.74-0.12-1.12-0.12c-0.37,0-0.74,0.03-1.12,0.03S111.9,157.2,111.53,157.2z"/>
			</g>
		</g>
		<g>
			<path class="st4" d="M111.53,176.51c-0.82,0-1.55-0.13-2.14-0.24c-0.34-0.06-0.69-0.12-0.89-0.13c-0.41-0.02-0.82,0.02-1.23,0.04
				c-0.6,0.03-1.2,0.06-1.8,0.04c-0.4,0-0.81,0.01-1.22,0.03c-0.55,0.02-1.17,0.05-1.82,0.03c-0.42-0.01-0.85-0.01-1.27-0.01
				c-0.59,0-1.19,0.01-1.78-0.02c-0.68-0.03-1.31-0.12-1.87-0.19c-0.39-0.05-0.77-0.11-1.16-0.13c-0.41-0.02-0.83-0.04-1.24-0.05
				c-0.6-0.02-1.2-0.04-1.79-0.09c-0.72-0.05-1.37-0.17-1.94-0.28c-0.4-0.08-0.77-0.15-1.07-0.17c-0.27-0.02-0.63,0-1.02,0.01
				c-0.6,0.03-1.28,0.06-2.03-0.02c-0.67-0.07-1.3-0.18-1.86-0.29c-0.39-0.07-0.77-0.15-1.16-0.19c-1.01-0.12-2.02-0.23-3.02-0.36
				c-0.62-0.08-1.22-0.2-1.83-0.32c-0.39-0.08-0.79-0.16-1.18-0.22c-0.4-0.06-0.81-0.1-1.22-0.15c-0.61-0.06-1.21-0.13-1.81-0.23
				c-0.64-0.11-1.27-0.23-1.89-0.36c-0.37-0.07-0.74-0.15-1.11-0.22c-0.4-0.07-0.8-0.14-1.2-0.2c-0.61-0.1-1.22-0.19-1.82-0.32
				c-0.36-0.07-0.73-0.11-1.1-0.15c-0.58-0.06-1.24-0.14-1.94-0.3c-0.85-0.19-1.55-0.51-2.12-0.77c-0.29-0.13-0.61-0.28-0.77-0.32
				c-0.29-0.07-0.66-0.13-1.06-0.18c-0.59-0.09-1.26-0.18-1.97-0.38c-0.62-0.17-1.22-0.38-1.82-0.59c-0.37-0.13-0.73-0.26-1.1-0.37
				l-0.35-0.11c-0.87-0.27-1.74-0.53-2.6-0.82c-0.63-0.21-1.25-0.45-1.86-0.69c-0.34-0.13-0.69-0.27-1.03-0.4
				c-0.28-0.1-0.65-0.2-1.03-0.3c-0.59-0.15-1.25-0.33-1.95-0.61c-0.97-0.39-1.92-0.8-2.86-1.22c-0.34-0.15-0.69-0.29-1.05-0.43
				c-0.59-0.23-1.2-0.48-1.83-0.78c-0.77-0.38-1.4-0.84-1.9-1.21c-0.28-0.21-0.55-0.41-0.73-0.51c-0.33-0.17-0.67-0.33-1-0.48
				c-0.55-0.25-1.18-0.54-1.81-0.91c-0.26-0.15-0.52-0.3-0.79-0.45c-0.65-0.37-1.3-0.74-1.93-1.14c-0.64-0.41-1.19-0.85-1.67-1.25
				c-0.28-0.22-0.55-0.45-0.84-0.66c-0.19-0.14-0.49-0.29-0.82-0.46c-0.55-0.29-1.24-0.65-1.9-1.17c-0.67-0.53-1.19-1.11-1.61-1.58
				c-0.24-0.27-0.47-0.52-0.64-0.67c-0.26-0.22-0.54-0.42-0.82-0.62c-0.52-0.37-1.11-0.79-1.68-1.35c-0.58-0.56-1.03-1.13-1.43-1.64
				c-0.21-0.27-0.42-0.54-0.65-0.78c-0.82-0.88-1.49-1.63-2.11-2.38c-0.22-0.27-0.46-0.52-0.69-0.78c-0.44-0.47-0.93-1.01-1.4-1.64
				c-0.67-0.91-1.27-1.76-1.83-2.62c-0.43-0.66-0.75-1.31-1.04-1.89c-0.15-0.31-0.3-0.62-0.48-0.92l-0.18-0.3
				c-0.46-0.79-0.93-1.6-1.37-2.48c-0.16-0.31-0.33-0.61-0.5-0.91c-0.32-0.56-0.68-1.19-0.99-1.91c-0.12-0.28-0.25-0.56-0.38-0.83
				c-0.3-0.66-0.61-1.34-0.89-2.09c-0.27-0.73-0.44-1.43-0.58-2.05c-0.08-0.34-0.16-0.69-0.26-1.02c-0.1-0.32-0.21-0.65-0.33-0.97
				c-0.21-0.61-0.46-1.3-0.65-2.05c-0.19-0.72-0.31-1.4-0.42-2.06c-0.06-0.35-0.12-0.69-0.19-1.04c-0.07-0.34-0.15-0.68-0.23-1.01
				c-0.15-0.62-0.32-1.32-0.44-2.06l-0.05-0.33c-0.15-0.92-0.29-1.84-0.4-2.78c-0.08-0.73-0.09-1.42-0.1-2.03
				c0-0.37,0-0.74-0.03-1.11c-0.06-0.76-0.08-1.52-0.1-2.29l-0.06-1.73c-0.03-0.73-0.07-1.46-0.07-2.21c0-0.37-0.03-0.74-0.05-1.11
				c-0.04-0.6-0.09-1.28-0.06-2c0.03-0.8,0.16-1.5,0.28-2.11c0.07-0.37,0.14-0.72,0.15-0.97c0.03-0.37,0.04-0.73,0.05-1.1
				c0.03-0.67,0.05-1.33,0.12-2c0.03-0.28,0.03-0.65,0.03-1.04c0-0.62,0-1.31,0.11-2.08c0.1-0.71,0.25-1.37,0.39-1.96
				c0.08-0.36,0.17-0.73,0.23-1.09c0.12-0.7,0.28-1.33,0.44-1.95c0.09-0.36,0.18-0.72,0.26-1.08c0.07-0.35,0.11-0.7,0.15-1.05
				c0.07-0.61,0.16-1.29,0.34-2.03c0.25-1.01,0.51-2.02,0.8-3.01c0.2-0.68,0.44-1.32,0.65-1.88c0.13-0.35,0.27-0.7,0.39-1.06
				c0.11-0.34,0.21-0.68,0.32-1.02c0.2-0.65,0.4-1.3,0.63-1.94l0.12-0.34c0.31-0.86,0.63-1.72,0.98-2.57
				c0.27-0.67,0.59-1.27,0.87-1.8c0.17-0.33,0.35-0.66,0.5-0.99c0.14-0.32,0.28-0.64,0.41-0.96c0.27-0.63,0.54-1.27,0.84-1.88
				c0.17-0.34,0.31-0.68,0.47-1.03c0.24-0.55,0.51-1.17,0.84-1.79c0.33-0.62,0.7-1.19,1.02-1.69c0.2-0.32,0.41-0.63,0.6-0.96
				c0.34-0.59,0.71-1.16,1.08-1.73c0.19-0.3,0.38-0.59,0.57-0.89c0.2-0.32,0.38-0.63,0.57-0.95c0.34-0.57,0.67-1.15,1.04-1.7
				c0.41-0.61,0.85-1.13,1.23-1.59c0.23-0.28,0.47-0.55,0.68-0.85c0.2-0.29,0.38-0.59,0.55-0.9c0.31-0.53,0.65-1.12,1.11-1.72
				c0.47-0.61,0.96-1.1,1.4-1.53c0.27-0.27,0.53-0.53,0.71-0.74c0.1-0.12,0.27-0.43,0.42-0.7c0.31-0.56,0.69-1.25,1.27-1.92
				c0.55-0.64,1.15-1.11,1.63-1.49c0.28-0.22,0.55-0.43,0.69-0.58c0.19-0.21,0.41-0.5,0.65-0.81c0.37-0.49,0.78-1.04,1.32-1.59
				l0.56-0.58c0.53-0.54,1.07-1.09,1.62-1.62c0.58-0.56,1.2-0.97,1.69-1.31c0.31-0.21,0.6-0.41,0.78-0.57
				c0.2-0.18,0.44-0.45,0.7-0.74c0.41-0.46,0.87-0.98,1.47-1.48c0.26-0.22,0.51-0.44,0.77-0.66c0.53-0.45,1.05-0.91,1.6-1.34
				c0.54-0.43,1.1-0.8,1.59-1.13c0.32-0.21,0.64-0.42,0.94-0.65c0.3-0.23,0.6-0.46,0.9-0.7c0.51-0.41,1.02-0.81,1.55-1.18
				c0.84-0.59,1.71-1.16,2.57-1.72c0.32-0.21,0.63-0.43,0.94-0.65c0.53-0.38,1.06-0.75,1.61-1.09c0.55-0.34,1.12-0.65,1.69-0.96
				c0.34-0.18,0.67-0.36,1-0.55c0.66-0.38,1.3-0.64,1.86-0.87c0.36-0.15,0.7-0.29,0.95-0.42c0.33-0.18,0.64-0.38,0.95-0.58
				c0.5-0.32,1.06-0.68,1.7-1c0.65-0.33,1.31-0.63,1.98-0.94l0.81-0.38c0.34-0.16,0.68-0.34,1.01-0.53c0.51-0.28,1.1-0.6,1.74-0.88
				l0.34-0.15c0.83-0.36,1.66-0.72,2.5-1.06c0.8-0.32,1.61-0.62,2.41-0.91l0.48-0.17c0.65-0.24,1.29-0.41,1.85-0.57
				c0.37-0.1,0.74-0.2,1.1-0.32c0.62-0.21,1.25-0.39,1.87-0.56c0.36-0.1,0.73-0.2,1.09-0.31c0.36-0.11,0.72-0.25,1.08-0.38
				c0.55-0.2,1.17-0.43,1.84-0.62c0.74-0.2,1.42-0.29,2.02-0.37c0.39-0.05,0.75-0.1,1.02-0.17c0.23-0.06,0.56-0.19,0.91-0.32
				c0.55-0.22,1.24-0.49,2.03-0.66c0.67-0.14,1.29-0.23,1.89-0.32c0.39-0.05,0.77-0.11,1.16-0.18c0.71-0.13,1.37-0.19,1.96-0.23
				c0.37-0.03,0.74-0.06,1.1-0.11c0.29-0.05,0.65-0.14,1.03-0.24c0.58-0.15,1.24-0.33,1.99-0.43c0.7-0.09,1.36-0.12,1.95-0.14
				c0.38-0.01,0.75-0.02,1.13-0.06c0.24-0.03,0.58-0.11,0.95-0.2c0.58-0.14,1.29-0.31,2.09-0.38c0.68-0.05,1.38-0.08,2.07-0.11
				c0.34-0.01,0.67-0.03,1.01-0.05c0.69-0.04,1.35-0.02,1.93,0c0.39,0.01,0.77,0.03,1.16,0.01c0.69-0.02,1.35,0.02,1.93,0.05
				c0.38,0.02,0.77,0.05,1.15,0.05c0.19,0,0.53-0.06,0.86-0.11c0.61-0.1,1.37-0.24,2.22-0.21c0.83,0.02,1.57,0.17,2.16,0.3
				c0.35,0.07,0.69,0.14,0.9,0.15c0.39,0.02,0.78,0.02,1.16,0.02c0.58,0,1.24,0,1.92,0.05c0.92,0.07,1.84,0.17,2.75,0.27l1.11,0.12
				c0.76,0.08,1.52,0.16,2.27,0.25c0.85,0.11,1.69,0.25,2.53,0.39l0.52,0.08c0.65,0.1,1.28,0.24,1.92,0.37
				c0.37,0.08,0.73,0.16,1.1,0.23l0.86,0.16c0.72,0.13,1.45,0.27,2.16,0.42c0.37,0.08,0.73,0.15,1.1,0.22
				c0.64,0.13,1.29,0.25,1.92,0.41c0.63,0.15,1.25,0.34,1.86,0.54c0.37,0.11,0.73,0.23,1.1,0.33c0.35,0.1,0.72,0.16,1.08,0.23
				c0.58,0.11,1.24,0.23,1.94,0.45c0.69,0.21,1.31,0.48,1.86,0.71c0.34,0.14,0.68,0.29,1.02,0.41c0.35,0.12,0.72,0.21,1.08,0.3
				c0.57,0.15,1.21,0.31,1.88,0.56c0.75,0.28,1.4,0.64,1.92,0.93c0.33,0.18,0.63,0.36,0.86,0.45c0.34,0.14,0.69,0.27,1.03,0.4
				c0.62,0.23,1.23,0.47,1.84,0.73c0.36,0.16,0.72,0.29,1.08,0.43c0.57,0.22,1.16,0.45,1.78,0.73c0.34,0.16,0.7,0.29,1.05,0.43
				c0.55,0.21,1.17,0.45,1.8,0.77c0.59,0.3,1.18,0.63,1.75,0.95c0.32,0.18,0.64,0.36,0.96,0.53c0.57,0.31,1.12,0.65,1.67,0.99
				c0.32,0.2,0.65,0.41,0.98,0.6c0.33,0.19,0.67,0.36,1.01,0.54c0.52,0.27,1.12,0.57,1.71,0.93c0.62,0.38,1.15,0.79,1.62,1.16
				c0.29,0.23,0.58,0.45,0.89,0.66c0.58,0.38,1.1,0.79,1.56,1.16c0.3,0.24,0.6,0.47,0.91,0.69c0.31,0.22,0.64,0.42,0.96,0.62
				c0.5,0.31,1.06,0.66,1.62,1.08c0.3,0.22,0.62,0.43,0.94,0.63c0.49,0.32,1.05,0.69,1.61,1.13c0.64,0.5,1.14,1.06,1.54,1.5
				c0.25,0.27,0.48,0.53,0.66,0.69c0.27,0.23,0.57,0.43,0.86,0.63c0.49,0.34,1.05,0.73,1.61,1.23l0.49,0.44
				c0.61,0.54,1.21,1.08,1.8,1.64c0.28,0.26,0.56,0.51,0.85,0.77c0.47,0.41,0.95,0.83,1.44,1.33c0.55,0.55,0.96,1.12,1.33,1.62
				c0.23,0.31,0.44,0.6,0.63,0.8c0.24,0.26,0.51,0.5,0.78,0.74c0.45,0.4,0.95,0.86,1.44,1.42c0.46,0.53,0.86,1.07,1.21,1.55
				c0.22,0.31,0.45,0.61,0.69,0.9c0.65,0.8,1.3,1.6,1.93,2.42c0.4,0.53,0.77,1.07,1.14,1.62c0.21,0.31,0.41,0.62,0.63,0.92
				l0.45,0.63c0.45,0.63,0.9,1.25,1.33,1.9c0.21,0.32,0.44,0.62,0.66,0.92c0.36,0.48,0.76,1.01,1.13,1.62
				c0.37,0.6,0.68,1.21,0.95,1.74c0.17,0.34,0.34,0.67,0.52,1c0.19,0.33,0.39,0.64,0.6,0.96c0.32,0.5,0.68,1.07,1.01,1.69l0.37,0.69
				c0.37,0.68,0.73,1.37,1.08,2.07c0.32,0.65,0.61,1.31,0.89,1.98l0.38,0.86c0.15,0.34,0.32,0.68,0.49,1.01
				c0.27,0.54,0.57,1.14,0.84,1.8c0.28,0.7,0.46,1.37,0.62,1.96c0.09,0.34,0.18,0.69,0.3,1.02c0.24,0.66,0.42,1.29,0.6,1.89
				c0.1,0.36,0.21,0.72,0.32,1.07l0.25,0.76c0.24,0.73,0.49,1.46,0.7,2.2c0.19,0.64,0.34,1.3,0.48,1.96
				c0.08,0.35,0.16,0.71,0.25,1.06c0.08,0.31,0.16,0.61,0.24,0.91c0.18,0.7,0.37,1.39,0.52,2.1c0.08,0.35,0.16,0.71,0.25,1.06
				c0.16,0.65,0.32,1.3,0.43,1.96c0.06,0.36,0.14,0.72,0.22,1.08c0.13,0.62,0.27,1.27,0.37,1.97c0.05,0.37,0.13,0.73,0.2,1.1
				c0.12,0.59,0.25,1.26,0.32,1.98c0.09,0.83,0.14,1.66,0.2,2.5l0.04,0.6c0.06,0.85-0.03,1.62-0.1,2.23
				c-0.04,0.35-0.08,0.69-0.07,0.89c0.01,0.37,0.05,0.73,0.09,1.1c0.06,0.6,0.13,1.27,0.13,2c0,0.85-0.03,1.7-0.06,2.53l-0.02,0.58
				c-0.04,1.05-0.09,2.09-0.17,3.12c-0.08,1.06-0.18,2.1-0.3,3.12c-0.04,0.35-0.04,0.7-0.05,1.05c-0.01,0.63-0.03,1.34-0.15,2.11
				c-0.12,0.76-0.32,1.45-0.49,2.06c-0.1,0.34-0.19,0.68-0.26,1.02c-0.17,0.84-0.39,1.66-0.6,2.48l-0.16,0.6
				c-0.22,0.83-0.46,1.61-0.7,2.35l-0.22,0.68c-0.1,0.31-0.19,0.63-0.28,0.94c-0.19,0.67-0.4,1.37-0.67,2.09
				c-0.12,0.33-0.22,0.67-0.32,1c-0.18,0.61-0.39,1.31-0.7,2.02c-0.36,0.82-0.82,1.48-1.19,2.01c-0.2,0.28-0.39,0.55-0.48,0.73
				c-0.16,0.31-0.29,0.63-0.42,0.95c-0.25,0.59-0.53,1.26-0.92,1.95c-0.4,0.7-0.85,1.28-1.25,1.79c-0.21,0.27-0.42,0.54-0.6,0.82
				c-0.13,0.2-0.28,0.51-0.45,0.83c-0.28,0.56-0.63,1.26-1.14,1.95c-0.18,0.24-0.35,0.48-0.53,0.72c-0.43,0.6-0.88,1.22-1.4,1.84
				c-0.55,0.65-1.14,1.16-1.62,1.56c-0.28,0.23-0.54,0.46-0.71,0.63c-0.53,0.56-1.05,1.04-1.56,1.51c-0.25,0.22-0.49,0.45-0.74,0.68
				c-0.25,0.24-0.49,0.48-0.73,0.73c-0.45,0.46-0.96,0.98-1.54,1.48c-0.25,0.22-0.48,0.47-0.71,0.71c-0.44,0.46-0.94,0.99-1.58,1.49
				c-0.6,0.47-1.19,0.87-1.77,1.26c-0.27,0.19-0.55,0.37-0.82,0.56c-0.63,0.44-1.25,0.77-1.8,1.07c-0.31,0.17-0.63,0.33-0.92,0.52
				c-0.3,0.19-0.6,0.4-0.89,0.6c-0.51,0.35-1.09,0.76-1.73,1.13c-0.64,0.37-1.26,0.65-1.82,0.9c-0.33,0.15-0.67,0.3-1,0.47
				c-0.19,0.1-0.46,0.3-0.75,0.51c-0.5,0.37-1.12,0.82-1.89,1.2c-0.86,0.41-1.74,0.8-2.62,1.19l-0.22,0.1
				c-0.64,0.29-1.31,0.54-1.97,0.8c-0.3,0.12-0.61,0.24-0.91,0.36c-0.64,0.26-1.25,0.45-1.84,0.64c-0.37,0.12-0.73,0.23-1.1,0.37
				c-0.96,0.35-1.93,0.69-2.92,1.02c-0.27,0.09-0.6,0.24-0.96,0.4c-0.55,0.25-1.18,0.54-1.91,0.76c-0.76,0.23-1.46,0.33-2.07,0.41
				c-0.38,0.05-0.73,0.1-0.97,0.17c-0.25,0.07-0.58,0.21-0.94,0.35c-0.57,0.23-1.21,0.5-1.97,0.69c-0.66,0.17-1.3,0.27-1.86,0.36
				c-0.39,0.06-0.78,0.12-1.16,0.21c-0.38,0.09-0.76,0.2-1.14,0.3c-0.55,0.16-1.17,0.33-1.83,0.47c-0.6,0.12-1.2,0.21-1.81,0.3
				c-0.4,0.06-0.81,0.12-1.21,0.19c-0.6,0.11-1.21,0.19-1.82,0.27c-0.4,0.05-0.81,0.1-1.21,0.17c-0.27,0.04-0.63,0.15-1.01,0.25
				c-0.57,0.16-1.23,0.35-1.97,0.46c-0.76,0.11-1.45,0.11-2.06,0.11c-0.38,0-0.75,0-1.01,0.03c-0.39,0.05-0.77,0.11-1.16,0.16
				c-0.62,0.09-1.24,0.18-1.86,0.25c-0.65,0.07-1.28,0.1-1.83,0.12c-0.4,0.01-0.81,0.03-1.21,0.07l-1.1,0.12
				c-0.64,0.07-1.28,0.14-1.92,0.19c-0.4,0.03-0.79,0.1-1.18,0.16c-0.55,0.08-1.18,0.18-1.85,0.23c-0.4,0.03-0.79,0.08-1.19,0.14
				c-0.55,0.08-1.17,0.16-1.84,0.2c-0.76,0.05-1.44-0.02-2.04-0.07c-0.39-0.03-0.75-0.06-1.01-0.06c-0.4,0.02-0.79,0.07-1.19,0.11
				c-0.55,0.06-1.18,0.13-1.84,0.15c-0.66,0.02-1.29-0.01-1.85-0.04c-0.39-0.02-0.79-0.05-1.18-0.04l-0.91,0.02
				c-0.71,0.02-1.41,0.03-2.12,0.04c-0.24,0-0.59,0.06-0.96,0.12C113.02,176.4,112.31,176.51,111.53,176.51z M108.41,169.14
				c0.05,0,0.1,0,0.16,0c0.79,0.01,1.49,0.13,2.05,0.24c0.35,0.06,0.71,0.13,0.91,0.13c0.24,0,0.6-0.06,0.98-0.12
				c0.58-0.09,1.23-0.19,1.98-0.2c0.67-0.01,1.35-0.02,2.02-0.04l0.93-0.02c0.57-0.02,1.14,0.01,1.72,0.05
				c0.45,0.03,0.88,0.05,1.24,0.04c0.43-0.01,0.86-0.07,1.29-0.11c0.55-0.06,1.11-0.12,1.66-0.15c0.72-0.03,1.37,0.02,1.94,0.08
				c0.39,0.03,0.77,0.07,1.02,0.05c0.43-0.02,0.85-0.09,1.28-0.15c0.55-0.08,1.1-0.15,1.66-0.19c0.43-0.03,0.85-0.1,1.27-0.16
				c0.55-0.08,1.1-0.17,1.65-0.21c0.59-0.05,1.18-0.11,1.76-0.18l1.16-0.12c0.54-0.05,1.09-0.08,1.63-0.1
				c0.44-0.02,0.87-0.03,1.3-0.08c0.55-0.06,1.11-0.14,1.66-0.22c0.42-0.06,0.83-0.12,1.25-0.17c0.71-0.09,1.36-0.09,1.93-0.09
				c0.4,0,0.77,0,1.02-0.04c0.29-0.04,0.67-0.15,1.08-0.27c0.52-0.15,1.12-0.32,1.78-0.43c0.49-0.08,0.98-0.14,1.47-0.21
				c0.48-0.06,0.96-0.12,1.43-0.21c0.48-0.09,0.97-0.16,1.46-0.24c0.48-0.07,0.96-0.14,1.43-0.24c0.45-0.09,0.89-0.22,1.33-0.35
				c0.5-0.14,0.99-0.28,1.49-0.39c0.53-0.12,1.06-0.21,1.59-0.3c0.47-0.08,0.91-0.15,1.28-0.24c0.26-0.07,0.62-0.21,1-0.37
				c0.51-0.21,1.08-0.45,1.74-0.63c0.69-0.19,1.33-0.28,1.89-0.36c0.39-0.05,0.76-0.11,0.99-0.17c0.29-0.09,0.66-0.26,1.05-0.44
				c0.48-0.22,1.02-0.47,1.64-0.67c0.92-0.31,1.83-0.63,2.72-0.96c0.46-0.17,0.92-0.32,1.38-0.46c0.46-0.15,0.91-0.29,1.35-0.47
				c0.33-0.13,0.66-0.26,0.99-0.39c0.57-0.22,1.13-0.44,1.68-0.68l0.23-0.1c0.81-0.35,1.61-0.71,2.39-1.09
				c0.19-0.09,0.5-0.32,0.79-0.54c0.45-0.33,0.97-0.71,1.61-1.05c0.46-0.24,0.94-0.46,1.42-0.68c0.43-0.19,0.84-0.38,1.15-0.56
				c0.4-0.23,0.82-0.52,1.27-0.83c0.36-0.25,0.73-0.5,1.1-0.74c0.5-0.32,0.99-0.58,1.42-0.81c0.4-0.21,0.78-0.42,1.05-0.6
				c0.31-0.22,0.62-0.43,0.94-0.64c0.47-0.32,0.94-0.63,1.38-0.98c0.24-0.18,0.52-0.49,0.83-0.8c0.34-0.36,0.74-0.77,1.2-1.17
				c0.36-0.31,0.73-0.69,1.12-1.09c0.29-0.3,0.58-0.59,0.88-0.88c0.28-0.27,0.58-0.54,0.87-0.81c0.43-0.39,0.83-0.75,1.16-1.11
				c0.45-0.48,0.91-0.87,1.31-1.2c0.31-0.26,0.61-0.51,0.76-0.7c0.36-0.43,0.71-0.92,1.09-1.44c0.19-0.27,0.39-0.54,0.59-0.81
				c0.14-0.19,0.31-0.53,0.49-0.9c0.23-0.47,0.5-1,0.86-1.56c0.28-0.43,0.59-0.84,0.91-1.24c0.29-0.37,0.56-0.72,0.73-1.02
				s0.34-0.7,0.52-1.14c0.2-0.48,0.4-0.95,0.63-1.41c0.32-0.63,0.69-1.17,1-1.59c0.21-0.3,0.43-0.61,0.51-0.79
				c0.14-0.32,0.27-0.76,0.41-1.22c0.15-0.49,0.29-0.97,0.47-1.45c0.18-0.48,0.33-1.02,0.5-1.59c0.11-0.36,0.21-0.73,0.33-1.09
				l0.23-0.73c0.21-0.65,0.42-1.3,0.59-1.97l0.16-0.62c0.18-0.7,0.37-1.4,0.52-2.12c0.1-0.5,0.24-1,0.38-1.5
				c0.13-0.46,0.25-0.9,0.31-1.26c0.05-0.29,0.06-0.71,0.06-1.14c0.01-0.51,0.02-1.09,0.09-1.71c0.11-0.93,0.21-1.88,0.28-2.84
				c0.07-0.94,0.12-1.89,0.15-2.85l0.02-0.6c0.03-0.75,0.06-1.5,0.06-2.26c0-0.38-0.04-0.83-0.09-1.31
				c-0.05-0.52-0.1-1.03-0.12-1.55c-0.03-0.74,0.06-1.42,0.12-1.96c0.04-0.36,0.09-0.72,0.07-0.91l-0.04-0.62
				c-0.05-0.75-0.1-1.5-0.18-2.24c-0.04-0.4-0.13-0.87-0.23-1.36c-0.1-0.49-0.19-0.98-0.26-1.47c-0.07-0.5-0.18-1-0.28-1.49
				c-0.09-0.44-0.19-0.88-0.26-1.32c-0.09-0.51-0.22-1.02-0.34-1.53c-0.1-0.42-0.21-0.84-0.3-1.26c-0.13-0.6-0.29-1.19-0.44-1.78
				c-0.09-0.33-0.17-0.66-0.26-0.99c-0.1-0.41-0.2-0.82-0.29-1.23c-0.12-0.52-0.23-1.03-0.38-1.54c-0.19-0.65-0.4-1.29-0.61-1.93
				l-0.26-0.79c-0.14-0.44-0.27-0.88-0.4-1.32c-0.14-0.48-0.27-0.95-0.44-1.42c-0.21-0.58-0.36-1.14-0.49-1.63
				c-0.11-0.43-0.22-0.83-0.34-1.12c-0.16-0.4-0.38-0.83-0.61-1.3c-0.21-0.43-0.43-0.86-0.62-1.29c-0.14-0.31-0.27-0.62-0.41-0.93
				c-0.25-0.57-0.49-1.14-0.76-1.69c-0.3-0.62-0.63-1.22-0.95-1.82l-0.39-0.72c-0.2-0.37-0.46-0.78-0.73-1.2
				c-0.26-0.41-0.53-0.82-0.77-1.25c-0.25-0.43-0.48-0.88-0.7-1.33c-0.22-0.44-0.43-0.86-0.65-1.2s-0.49-0.72-0.79-1.11
				c-0.3-0.41-0.6-0.81-0.88-1.23c-0.38-0.57-0.78-1.13-1.18-1.68l-0.47-0.66c-0.26-0.36-0.5-0.72-0.75-1.09
				c-0.29-0.43-0.57-0.86-0.89-1.27c-0.58-0.76-1.18-1.5-1.79-2.25c-0.31-0.38-0.61-0.78-0.9-1.18c-0.3-0.41-0.58-0.79-0.85-1.1
				c-0.22-0.25-0.53-0.53-0.86-0.83c-0.37-0.34-0.8-0.72-1.21-1.17c-0.45-0.49-0.81-0.97-1.13-1.4c-0.25-0.34-0.48-0.66-0.68-0.85
				c-0.34-0.34-0.7-0.66-1.06-0.97c-0.36-0.32-0.72-0.63-1.07-0.97c-0.53-0.51-1.08-1-1.63-1.49l-0.5-0.45
				c-0.24-0.21-0.58-0.45-0.94-0.7c-0.42-0.29-0.9-0.62-1.38-1.03c-0.54-0.46-0.97-0.92-1.34-1.34c-0.27-0.29-0.52-0.57-0.7-0.72
				c-0.3-0.23-0.67-0.48-1.07-0.74c-0.44-0.29-0.88-0.58-1.3-0.89c-0.32-0.24-0.71-0.48-1.13-0.74c-0.43-0.27-0.87-0.54-1.28-0.83
				c-0.42-0.29-0.82-0.61-1.22-0.92c-0.38-0.3-0.75-0.59-1.08-0.81c-0.46-0.3-0.89-0.64-1.33-0.97c-0.36-0.28-0.71-0.55-1-0.73
				c-0.35-0.21-0.76-0.42-1.2-0.65c-0.45-0.23-0.9-0.46-1.34-0.71c-0.4-0.23-0.8-0.48-1.19-0.72c-0.42-0.26-0.85-0.53-1.28-0.77
				c-0.36-0.19-0.72-0.4-1.08-0.6c-0.48-0.27-0.96-0.55-1.45-0.79c-0.33-0.17-0.75-0.33-1.18-0.5c-0.5-0.19-1-0.39-1.49-0.62
				c-0.43-0.2-0.88-0.37-1.32-0.54c-0.45-0.17-0.91-0.35-1.36-0.54c-0.5-0.22-1.01-0.41-1.51-0.6c-0.39-0.15-0.78-0.29-1.17-0.45
				c-0.65-0.26-1.2-0.57-1.69-0.84c-0.35-0.2-0.68-0.38-0.91-0.47c-0.34-0.12-0.76-0.23-1.21-0.35c-0.53-0.14-1.05-0.28-1.57-0.45
				c-0.52-0.18-1.03-0.39-1.54-0.61c-0.42-0.18-0.82-0.35-1.15-0.45c-0.32-0.1-0.74-0.18-1.19-0.26c-0.5-0.09-1.06-0.2-1.64-0.36
				c-0.44-0.12-0.87-0.26-1.31-0.39c-0.48-0.15-0.97-0.3-1.46-0.42c-0.53-0.13-1.06-0.23-1.59-0.34c-0.41-0.08-0.83-0.16-1.24-0.25
				c-0.64-0.14-1.29-0.26-1.94-0.38l-0.9-0.17c-0.42-0.08-0.83-0.17-1.25-0.26c-0.52-0.11-1.05-0.22-1.58-0.31l-0.53-0.09
				c-0.77-0.13-1.55-0.25-2.33-0.36c-0.68-0.09-1.36-0.16-2.05-0.23l-1.14-0.12c-0.85-0.09-1.7-0.18-2.56-0.25
				c-0.4-0.03-0.86-0.03-1.35-0.03c-0.51,0-1.03,0-1.54-0.03c-0.74-0.04-1.41-0.18-1.95-0.29c-0.36-0.07-0.73-0.15-0.93-0.16
				c-0.18-0.01-0.54,0.06-0.87,0.11c-0.56,0.09-1.25,0.21-2.03,0.21c-0.52,0-1.05-0.03-1.57-0.06c-0.48-0.03-0.94-0.06-1.33-0.04
				c-0.52,0.01-1.04,0-1.56-0.02c-0.49-0.01-0.95-0.03-1.34-0.01c-0.36,0.02-0.73,0.03-1.09,0.05c-0.6,0.03-1.21,0.05-1.8,0.1
				c-0.25,0.02-0.62,0.11-1,0.2c-0.54,0.13-1.15,0.28-1.85,0.35c-0.54,0.06-1.08,0.08-1.62,0.1c-0.47,0.02-0.91,0.03-1.27,0.08
				c-0.31,0.04-0.7,0.15-1.12,0.26c-0.5,0.13-1.07,0.29-1.7,0.39c-0.6,0.1-1.16,0.14-1.66,0.18c-0.45,0.04-0.88,0.07-1.21,0.13
				c-0.49,0.09-0.98,0.17-1.48,0.24c-0.46,0.07-0.93,0.13-1.38,0.23c-0.23,0.05-0.58,0.19-0.95,0.33c-0.52,0.2-1.11,0.44-1.79,0.6
				c-0.65,0.16-1.25,0.24-1.78,0.31c-0.42,0.05-0.81,0.11-1.08,0.18c-0.38,0.11-0.81,0.27-1.27,0.44c-0.49,0.18-0.97,0.36-1.47,0.51
				c-0.42,0.13-0.83,0.24-1.25,0.36c-0.51,0.14-1.02,0.29-1.52,0.45c-0.49,0.17-0.99,0.3-1.5,0.44c-0.47,0.13-0.91,0.25-1.27,0.38
				l-0.49,0.18c-0.74,0.27-1.49,0.55-2.22,0.84c-0.78,0.31-1.55,0.65-2.32,0.98l-0.34,0.15c-0.36,0.16-0.76,0.37-1.18,0.6
				c-0.46,0.25-0.92,0.5-1.39,0.72l-0.86,0.4c-0.59,0.27-1.18,0.54-1.76,0.83c-0.32,0.16-0.69,0.4-1.08,0.65
				c-0.46,0.29-0.92,0.58-1.39,0.84c-0.58,0.31-1.13,0.54-1.62,0.74c-0.39,0.16-0.76,0.31-1.01,0.46c-0.39,0.22-0.78,0.44-1.18,0.65
				c-0.45,0.24-0.91,0.49-1.34,0.76c-0.42,0.26-0.83,0.55-1.23,0.84c-0.38,0.27-0.76,0.54-1.15,0.79c-0.81,0.53-1.61,1.06-2.4,1.61
				c-0.41,0.29-0.81,0.61-1.2,0.92c-0.36,0.29-0.71,0.57-1.08,0.84c-0.4,0.3-0.82,0.58-1.24,0.86c-0.41,0.28-0.81,0.54-1.13,0.79
				c-0.47,0.37-0.92,0.76-1.37,1.15c-0.28,0.24-0.55,0.48-0.83,0.72c-0.21,0.18-0.48,0.47-0.76,0.79c-0.35,0.4-0.76,0.85-1.25,1.29
				c-0.52,0.47-1.04,0.82-1.5,1.14c-0.33,0.22-0.64,0.44-0.81,0.6c-0.49,0.47-0.96,0.95-1.44,1.44l-0.59,0.6
				c-0.21,0.21-0.45,0.54-0.71,0.88c-0.31,0.42-0.67,0.89-1.11,1.36c-0.5,0.54-1.04,0.97-1.47,1.31c-0.28,0.22-0.57,0.46-0.7,0.6
				c-0.09,0.11-0.28,0.44-0.42,0.71c-0.28,0.5-0.62,1.13-1.13,1.74c-0.41,0.5-0.84,0.92-1.21,1.29c-0.3,0.3-0.59,0.58-0.76,0.81
				c-0.19,0.25-0.4,0.61-0.62,0.99c-0.26,0.44-0.55,0.94-0.91,1.45c-0.32,0.45-0.67,0.87-1.03,1.29c-0.29,0.35-0.57,0.68-0.76,0.96
				c-0.29,0.44-0.56,0.9-0.82,1.35c-0.22,0.37-0.43,0.74-0.66,1.11c-0.21,0.34-0.42,0.67-0.64,1.01c-0.3,0.47-0.61,0.94-0.89,1.42
				c-0.25,0.43-0.51,0.85-0.78,1.26c-0.27,0.42-0.53,0.82-0.72,1.18c-0.22,0.42-0.41,0.86-0.6,1.3c-0.19,0.44-0.38,0.88-0.59,1.31
				c-0.25,0.51-0.47,1.03-0.69,1.55c-0.15,0.36-0.3,0.72-0.46,1.07c-0.21,0.47-0.45,0.94-0.69,1.4c-0.22,0.43-0.44,0.83-0.58,1.18
				c-0.31,0.77-0.6,1.56-0.89,2.34l-0.12,0.34c-0.19,0.51-0.35,1.04-0.51,1.57c-0.12,0.39-0.24,0.78-0.36,1.17
				c-0.15,0.46-0.32,0.92-0.5,1.37c-0.18,0.48-0.35,0.92-0.47,1.33c-0.27,0.92-0.5,1.84-0.74,2.77c-0.08,0.3-0.13,0.72-0.18,1.16
				c-0.06,0.5-0.13,1.08-0.26,1.68c-0.1,0.45-0.21,0.89-0.32,1.33c-0.12,0.48-0.25,0.96-0.33,1.45c-0.08,0.48-0.19,0.95-0.3,1.42
				c-0.11,0.5-0.22,0.97-0.28,1.39c-0.04,0.29-0.04,0.69-0.04,1.12c0,0.52,0,1.11-0.07,1.75c-0.05,0.51-0.07,1.02-0.09,1.54
				c-0.02,0.44-0.04,0.88-0.07,1.31c-0.05,0.67-0.16,1.26-0.26,1.79c-0.08,0.41-0.15,0.79-0.16,1.05c-0.01,0.37,0.02,0.82,0.05,1.29
				c0.04,0.53,0.07,1.05,0.07,1.58c0,0.63,0.03,1.26,0.06,1.88c0.02,0.33,0.03,0.65,0.04,0.98l0.03,0.88
				c0.02,0.67,0.04,1.33,0.09,1.98c0.04,0.52,0.05,1.05,0.05,1.57c0,0.48,0.01,0.92,0.05,1.28c0.1,0.84,0.23,1.66,0.36,2.48
				l0.05,0.34c0.08,0.48,0.2,0.99,0.33,1.53c0.1,0.41,0.2,0.82,0.28,1.23c0.09,0.42,0.16,0.83,0.23,1.25
				c0.1,0.55,0.19,1.07,0.3,1.52c0.12,0.46,0.29,0.96,0.48,1.49c0.14,0.4,0.28,0.79,0.4,1.19c0.16,0.5,0.28,1.01,0.4,1.52
				c0.11,0.46,0.21,0.89,0.33,1.2c0.19,0.52,0.44,1.06,0.7,1.63c0.14,0.31,0.29,0.63,0.42,0.94c0.16,0.37,0.4,0.79,0.66,1.24
				c0.23,0.4,0.46,0.81,0.67,1.22c0.35,0.7,0.75,1.39,1.18,2.12l0.18,0.31c0.25,0.43,0.48,0.89,0.7,1.34
				c0.21,0.43,0.41,0.83,0.6,1.13c0.49,0.74,1.01,1.49,1.6,2.29c0.24,0.33,0.58,0.69,0.93,1.07c0.31,0.34,0.62,0.68,0.92,1.03
				c0.53,0.64,1.12,1.3,1.86,2.08c0.4,0.43,0.74,0.86,1.04,1.24c0.28,0.36,0.54,0.69,0.77,0.91c0.22,0.21,0.56,0.46,0.92,0.71
				c0.4,0.29,0.86,0.62,1.31,1.01c0.51,0.45,0.92,0.9,1.28,1.3c0.27,0.3,0.52,0.58,0.7,0.72c0.17,0.14,0.52,0.32,0.85,0.49
				c0.48,0.26,1.03,0.54,1.6,0.95c0.41,0.29,0.81,0.61,1.2,0.93c0.38,0.3,0.73,0.59,1.05,0.8c0.52,0.33,1.06,0.64,1.6,0.95
				c0.29,0.16,0.57,0.33,0.86,0.49c0.33,0.2,0.75,0.39,1.2,0.59c0.46,0.21,0.92,0.42,1.37,0.66c0.64,0.34,1.19,0.74,1.62,1.07
				c0.29,0.22,0.6,0.44,0.78,0.53c0.44,0.21,0.9,0.39,1.36,0.57c0.43,0.17,0.87,0.35,1.3,0.54c0.87,0.39,1.75,0.77,2.65,1.13
				c0.29,0.12,0.68,0.22,1.1,0.33c0.5,0.13,1.07,0.28,1.67,0.5c0.39,0.14,0.79,0.3,1.18,0.45c0.5,0.2,1.01,0.4,1.53,0.57
				c0.8,0.27,1.6,0.51,2.42,0.76l0.35,0.11c0.46,0.14,0.93,0.3,1.39,0.47c0.45,0.16,0.9,0.32,1.36,0.45c0.28,0.08,0.68,0.14,1.1,0.2
				c0.53,0.08,1.13,0.16,1.77,0.33c0.76,0.19,1.42,0.49,1.94,0.72c0.3,0.13,0.64,0.29,0.8,0.33c0.31,0.07,0.73,0.12,1.16,0.17
				c0.52,0.06,1.11,0.12,1.73,0.25c0.5,0.1,1,0.18,1.5,0.26c0.46,0.07,0.92,0.15,1.38,0.23c0.4,0.07,0.8,0.15,1.21,0.24
				c0.55,0.11,1.11,0.22,1.67,0.32c0.46,0.08,0.94,0.12,1.41,0.18c0.5,0.05,1,0.11,1.5,0.18c0.52,0.08,1.03,0.18,1.54,0.28
				c0.45,0.09,0.9,0.18,1.35,0.24c0.96,0.12,1.94,0.24,2.91,0.35c0.55,0.06,1.09,0.16,1.64,0.26c0.46,0.08,0.89,0.17,1.27,0.2
				c0.26,0.03,0.64,0.01,1.04-0.01c0.57-0.03,1.21-0.05,1.92,0.01c0.66,0.05,1.26,0.17,1.79,0.27c0.42,0.08,0.82,0.16,1.13,0.18
				c0.52,0.04,1.04,0.06,1.56,0.07c0.46,0.02,0.93,0.04,1.39,0.06c0.57,0.03,1.13,0.11,1.7,0.18c0.45,0.06,0.88,0.12,1.24,0.14
				c0.47,0.02,0.93,0.01,1.4,0.01c0.52,0,1.04-0.01,1.56,0.01c0.42,0.01,0.85-0.01,1.28-0.03c0.56-0.03,1.12-0.05,1.68-0.04
				c0.44,0.01,0.88-0.01,1.32-0.04C107.43,169.17,107.92,169.14,108.41,169.14z"/>
		</g>
		<g>
			<g>
				<ellipse transform="matrix(0.866 -0.5 0.5 0.866 0.6045 53.3463)" class="st4" cx="99.85" cy="25.55" rx="4.33" ry="2.75"/>
			</g>
			<g>
				
					<ellipse transform="matrix(0.3919 -0.92 0.92 0.3919 47.2259 125.8321)" class="st4" cx="118.81" cy="27.19" rx="2.75" ry="4.33"/>
			</g>
			<g>
				
					<ellipse transform="matrix(0.4423 -0.8969 0.8969 0.4423 22.9076 109.9308)" class="st4" cx="99.85" cy="36.55" rx="2.75" ry="4.33"/>
			</g>
			<g>
				
					<ellipse transform="matrix(0.9932 -0.1163 0.1163 0.9932 -2.6442 14.8041)" class="st4" cx="125.55" cy="30.06" rx="4.33" ry="2.75"/>
			</g>
			<g>
				<ellipse transform="matrix(0.5 -0.866 0.866 0.5 41.2247 125.7824)" class="st4" cx="129.54" cy="27.19" rx="2.75" ry="4.33"/>
			</g>
			<g>
				
					<ellipse transform="matrix(0.9584 -0.2855 0.2855 0.9584 -6.3064 26.5091)" class="st4" cx="87.76" cy="34.88" rx="4.33" ry="2.75"/>
			</g>
			<g>
				
					<ellipse transform="matrix(0.9932 -0.1163 0.1163 0.9932 -2.4197 12.9043)" class="st4" cx="109.38" cy="27.19" rx="4.33" ry="2.75"/>
			</g>
			<g>
				
					<ellipse transform="matrix(0.9932 -0.1163 0.1163 0.9932 -3.4059 14.7123)" class="st4" cx="124.38" cy="36.55" rx="4.33" ry="2.75"/>
			</g>
			<g>
				
					<ellipse transform="matrix(0.3287 -0.9444 0.9444 0.3287 60.8284 149.1435)" class="st4" cx="135.33" cy="31.78" rx="2.75" ry="4.33"/>
			</g>
			<g>
				
					<ellipse transform="matrix(0.195 -0.9808 0.9808 0.195 54.9484 130.5122)" class="st4" cx="106.98" cy="31.78" rx="2.75" ry="4.33"/>
			</g>
			<g>
				<ellipse transform="matrix(0.866 -0.5 0.5 0.866 -1.2437 62.5393)" class="st4" cx="116.08" cy="33.59" rx="4.33" ry="2.75"/>
			</g>
			<g>
				
					<ellipse transform="matrix(0.3287 -0.9444 0.9444 0.3287 35.6036 108.107)" class="st4" cx="93.85" cy="29.01" rx="2.75" ry="4.33"/>
			</g>
		</g>
	</g>
</g>
</svg>
