<?xml version="1.0" encoding="utf-8"?>
<!-- Generator: Adobe Illustrator 26.1.0, SVG Export Plug-In . SVG Version: 6.00 Build 0)  -->
<svg version="1.1" id="圖層_1" xmlns="http://www.w3.org/2000/svg" xmlns:xlink="http://www.w3.org/1999/xlink" x="0px" y="0px"
	 viewBox="0 0 223.05 186.19" style="enable-background:new 0 0 223.05 186.19;" xml:space="preserve">
<style type="text/css">
	.st0{clip-path:url(#SVGID_00000108287651215301943220000003814279114483948184_);}
	.st1{fill:#D56A0F;}
	.st2{fill:#B05422;}
	.st3{fill:#EDA742;}
	.st4{fill:#513B2D;}
	.st5{clip-path:url(#SVGID_00000109718723263341046880000004296847609496153763_);}
	.st6{fill:#F8CD77;}
	.st7{opacity:0.68;fill:#D56A0F;}
	.st8{clip-path:url(#SVGID_00000039832880100248650000000017163078952362766482_);}
	.st9{fill:#FADEBC;}
	.st10{clip-path:url(#SVGID_00000129203520718815877260000005370799800089888412_);}
	.st11{fill:#B15843;}
	.st12{fill:#BF644E;}
	.st13{clip-path:url(#SVGID_00000049205078953677722090000012091815915807736969_);fill:#EF9F53;}
	.st14{clip-path:url(#SVGID_00000049205078953677722090000012091815915807736969_);}
	.st15{clip-path:url(#SVGID_00000049205078953677722090000012091815915807736969_);fill:#E18A43;}
</style>
<g>
	<defs>
		<rect id="SVGID_00000045587936548863427110000005424949017446176396_" width="223.05" height="186.19"/>
	</defs>
	<clipPath id="SVGID_00000138531890077183107470000008723456229200775573_">
		<use xlink:href="#SVGID_00000045587936548863427110000005424949017446176396_"  style="overflow:visible;"/>
	</clipPath>
	<g style="clip-path:url(#SVGID_00000138531890077183107470000008723456229200775573_);">
		<g>
			<path class="st6" d="M214.9,96.39c-0.2-1.81-0.43-3.56-0.7-5.24c-1.17-7.24-2.92-14.69-6.97-20.92
				c-1.97-3.03-4.49-5.69-7.48-7.73c-2.76-1.89-7.27-2.43-7.83-6.14c-0.16-1.1-0.13-2.23-0.29-3.34c-0.3-2.06-0.8-4.09-1.51-6.05
				c-1.42-3.91-3.65-7.51-6.51-10.52c-5.71-6.03-13.78-9.5-22.09-9.5c-0.01,0-0.03,0-0.04,0c-2.53,0-4.92-1.1-6.48-3.08
				c-5.57-7.07-14.2-11.61-23.9-11.61c-5.75,0-11.13,1.6-15.71,4.38c-2.5,1.51-5.64,1.51-8.14,0c-4.59-2.78-9.96-4.38-15.71-4.38
				c-9.7,0-18.33,4.54-23.9,11.61c-1.57,1.99-3.95,3.09-6.48,3.08c-0.01,0-0.03,0-0.04,0c-8.32,0-16.39,3.48-22.1,9.52
				c-2.79,2.95-4.99,6.46-6.41,10.27c-1.06,2.84-0.99,5.93-1.73,8.85c-0.74,2.94-1.47,3.49-4.1,4.69c-3.95,1.8-7.48,4.43-10.27,7.76
				C11,74.6,8.73,83.22,7.85,91.58c-1.02,9.63-0.3,19.34,0.5,28.96c1.92,22.94,20.09,37.55,40.76,44.82
				c20.03,7.05,41.9,8.56,62.98,8.56c25.7,0,54.53-1.81,77.3-15.03c8.95-5.2,16.66-12.5,21.04-22
				C216.32,124.13,216.38,110.06,214.9,96.39z"/>
		</g>
		<g>
			<path class="st6" d="M214.9,96.39c-0.2-1.81-0.43-3.56-0.7-5.24c-1.17-7.24-2.92-14.69-6.97-20.92
				c-1.97-3.03-4.49-5.69-7.48-7.73c-2.76-1.89-7.27-2.43-7.83-6.14c-0.16-1.1-0.13-2.23-0.29-3.34c-0.3-2.06-0.8-4.09-1.51-6.05
				c-1.42-3.91-3.65-7.51-6.51-10.52c-5.71-6.03-13.78-9.5-22.09-9.5c-0.01,0-0.03,0-0.04,0c-2.53,0-4.92-1.1-6.48-3.08
				c-5.57-7.07-14.2-11.61-23.9-11.61c-5.75,0-11.13,1.6-15.71,4.38c-2.5,1.51-5.64,1.51-8.14,0c-4.59-2.78-9.96-4.38-15.71-4.38
				c-9.7,0-18.33,4.54-23.9,11.61c-1.57,1.99-3.95,3.09-6.48,3.08c-0.01,0-0.03,0-0.04,0c-8.32,0-16.39,3.48-22.1,9.52
				c-2.79,2.95-4.99,6.46-6.41,10.27c-1.06,2.84-0.99,5.93-1.73,8.85c-0.74,2.94-1.47,3.49-4.1,4.69c-3.95,1.8-7.48,4.43-10.27,7.76
				C11,74.6,8.73,83.22,7.85,91.58c-1.02,9.63-0.3,19.34,0.5,28.96c1.92,22.94,20.09,37.55,40.76,44.82
				c20.03,7.05,41.9,8.56,62.98,8.56c25.7,0,54.53-1.81,77.3-15.03c8.95-5.2,16.66-12.5,21.04-22
				C216.32,124.13,216.38,110.06,214.9,96.39z"/>
		</g>
		<g>
			<path class="st3" d="M49.13,143.19c0.35,0.13,0.65,0.38,1,0.5c0.35,0.13,0.69,0.27,1.04,0.4c0.35,0.12,0.7,0.23,1.05,0.35
				s0.7,0.24,1.05,0.36c0.35,0.12,0.7,0.25,1.05,0.36c0.35,0.11,0.74,0.08,1.1,0.19c0.35,0.11,0.71,0.2,1.06,0.31
				c0.35,0.11,0.67,0.37,1.02,0.47c0.35,0.1,0.7,0.24,1.05,0.34c0.35,0.1,0.75,0.02,1.11,0.11c0.36,0.1,0.68,0.32,1.04,0.41
				c0.36,0.09,0.71,0.2,1.07,0.3c0.36,0.09,0.71,0.21,1.07,0.3c0.36,0.09,0.73,0.12,1.09,0.2c0.36,0.08,0.73,0.09,1.09,0.17
				c0.36,0.08,0.71,0.19,1.07,0.27c0.36,0.08,0.74,0.06,1.1,0.13c0.36,0.08,0.7,0.24,1.06,0.31c0.36,0.07,0.71,0.24,1.07,0.31
				c0.36,0.07,0.74,0.01,1.11,0.08c0.36,0.07,0.7,0.27,1.06,0.34c0.36,0.07,0.75-0.03,1.11,0.03c0.36,0.06,0.72,0.16,1.08,0.22
				c0.36,0.06,0.71,0.19,1.08,0.25c0.36,0.06,0.73,0.07,1.1,0.12c0.36,0.06,0.72,0.14,1.09,0.19c0.36,0.05,0.72,0.17,1.08,0.22
				c0.36,0.05,0.74-0.03,1.11,0.02c0.36,0.05,0.72,0.2,1.08,0.24c0.36,0.05,0.73,0.08,1.09,0.13c0.36,0.04,0.74,0.02,1.1,0.06
				c0.36,0.04,0.72,0.21,1.08,0.25c0.37,0.04,0.74-0.03,1.11,0.01c0.37,0.04,0.73,0.04,1.1,0.07c0.37,0.04,0.73,0.06,1.1,0.09
				c0.37,0.03,0.73,0.13,1.09,0.16c0.37,0.03,0.73,0.11,1.09,0.14c0.37,0.03,0.74-0.02,1.1,0c0.37,0.03,0.73,0.08,1.1,0.11
				c0.37,0.03,0.74-0.01,1.1,0.01c0.37,0.02,0.73,0.08,1.1,0.1c0.37,0.02,0.74-0.01,1.1,0.01c0.37,0.02,0.73,0.06,1.1,0.07
				c0.37,0.02,0.73,0.12,1.1,0.14c0.37,0.02,0.74-0.03,1.1-0.01c0.37,0.02,0.73,0.14,1.1,0.15c0.37,0.01,0.74-0.08,1.1-0.07
				c0.37,0.01,0.73,0.08,1.1,0.09c0.37,0.01,0.73,0,1.1,0.01c0.37,0.01,0.73,0.01,1.1,0.01c0.37,0.01,0.74-0.04,1.1-0.03
				c0.37,0.01,0.73,0.16,1.1,0.16c0.37,0.01,0.73,0.03,1.1,0.03c0.37,0.01,0.74-0.07,1.1-0.07c0.37,0,0.74-0.06,1.1-0.06
				s0.73,0.17,1.1,0.17c0.37,0,0.73,0.01,1.1,0.01s0.73-0.01,1.1-0.01c0.37,0,0.74-0.12,1.1-0.12c0.37,0,0.74,0.04,1.1,0.04
				c0.37,0,0.73,0.1,1.1,0.09c0.37,0,0.73-0.05,1.1-0.05c0.37,0,0.73-0.08,1.1-0.08c0.37,0,0.73-0.08,1.1-0.09
				c0.37-0.01,0.74,0.17,1.11,0.17c0.37-0.01,0.73-0.05,1.1-0.05c0.37-0.01,0.73-0.09,1.1-0.1c0.37-0.01,0.74,0.11,1.11,0.1
				c0.37-0.01,0.73-0.2,1.1-0.21c0.37-0.01,0.74,0.13,1.11,0.12c0.37-0.01,0.73-0.16,1.1-0.17c0.37-0.01,0.74-0.01,1.11-0.02
				c0.37-0.02,0.74-0.01,1.11-0.03c0.37-0.02,0.73-0.09,1.1-0.11c0.37-0.02,0.73-0.09,1.1-0.11c0.37-0.02,0.74,0.07,1.11,0.05
				c0.37-0.02,0.74,0.03,1.11,0.01c0.37-0.02,0.73-0.07,1.1-0.1c0.37-0.03,0.73-0.08,1.1-0.11c0.37-0.03,0.73-0.2,1.09-0.22
				c0.37-0.03,0.75,0.12,1.12,0.09c0.37-0.03,0.73-0.09,1.1-0.13c0.37-0.03,0.73-0.14,1.1-0.18c0.37-0.04,0.73-0.08,1.1-0.12
				c0.37-0.04,0.73-0.07,1.1-0.11c0.37-0.04,0.73-0.07,1.1-0.11c0.37-0.04,0.74-0.07,1.1-0.11c0.37-0.04,0.73-0.14,1.09-0.19
				c0.37-0.05,0.75,0.05,1.12,0c0.37-0.05,0.71-0.26,1.08-0.31c0.37-0.05,0.75,0.05,1.12-0.01c0.37-0.05,0.73-0.13,1.09-0.19
				c0.37-0.06,0.72-0.16,1.09-0.22c0.37-0.06,0.72-0.17,1.09-0.23c0.36-0.06,0.73-0.09,1.1-0.16c0.36-0.06,0.74-0.05,1.1-0.12
				c0.36-0.07,0.73-0.14,1.09-0.21c0.36-0.07,0.72-0.18,1.08-0.26c0.36-0.07,0.73-0.1,1.1-0.17c0.36-0.08,0.71-0.23,1.07-0.31
				c0.36-0.08,0.72-0.18,1.08-0.26c0.36-0.08,0.72-0.16,1.08-0.25c0.36-0.09,0.73-0.14,1.09-0.23c0.36-0.09,0.7-0.29,1.05-0.38
				c0.36-0.09,0.71-0.2,1.07-0.29c0.36-0.1,0.75-0.04,1.11-0.14c0.36-0.1,0.7-0.27,1.05-0.37c0.36-0.1,0.73-0.14,1.09-0.24
				c0.36-0.11,0.72-0.19,1.07-0.3c0.35-0.11,0.7-0.25,1.05-0.36c0.35-0.11,0.67-0.34,1.03-0.46c0.35-0.12,0.75-0.08,1.1-0.2
				c0.35-0.12,0.69-0.3,1.04-0.42c0.35-0.12,0.68-0.32,1.03-0.45c0.35-0.13,0.69-0.27,1.04-0.4c0.35-0.13,0.71-0.21,1.06-0.35
				c0.35-0.14,0.66-0.36,1-0.51c0.35-0.14,0.75-0.12,1.09-0.27c0.34-0.14,0.64-0.43,0.98-0.57c0.34-0.15,0.71-0.23,1.05-0.38
				c0.34-0.15,0.66-0.37,0.99-0.52c0.34-0.16,0.71-0.23,1.05-0.39c0.34-0.16,0.63-0.42,0.96-0.59c0.33-0.17,0.72-0.21,1.06-0.38
				c0.33-0.17,0.62-0.44,0.95-0.61c0.33-0.18,0.71-0.24,1.04-0.42c0.33-0.18,0.59-0.49,0.92-0.68c0.33-0.18,0.67-0.34,0.99-0.53
				c0.32-0.19,0.68-0.31,1-0.51c0.32-0.19,0.64-0.4,0.96-0.6c0.32-0.2,0.63-0.41,0.94-0.62c0.32-0.2,0.59-0.48,0.9-0.69
				c0.31-0.21,0.68-0.32,0.99-0.53c0.31-0.22,0.58-0.5,0.88-0.72c0.3-0.22,0.6-0.45,0.9-0.68c0.3-0.23,0.61-0.43,0.91-0.67
				c0.3-0.23,0.56-0.52,0.85-0.76c0.29-0.24,0.56-0.52,0.84-0.76c0.29-0.24,0.68-0.35,0.96-0.6c0.28-0.25,0.45-0.64,0.73-0.9
				c0.28-0.26,0.58-0.49,0.85-0.75c0.27-0.26,0.52-0.55,0.79-0.82c0.27-0.27,0.55-0.52,0.81-0.8c0.26-0.28,0.56-0.51,0.82-0.8
				c0.26-0.28,0.55-0.53,0.8-0.82c0.25-0.29,0.56-0.53,0.8-0.82c0.25-0.29,0.4-0.68,0.64-0.98c0.24-0.3,0.5-0.58,0.73-0.88
				c0.23-0.3,0.44-0.63,0.67-0.94c0.23-0.31,0.4-0.66,0.62-0.98c0.22-0.32,0.53-0.56,0.74-0.88c0.21-0.32,0.42-0.65,0.62-0.98
				c0.2-0.33,0.44-0.63,0.64-0.97c0.2-0.33,0.28-0.74,0.47-1.08c0.19-0.34,0.47-0.62,0.65-0.96c0.18-0.34,0.38-0.68,0.55-1.03
				c0.17-0.35,0.33-0.71,0.49-1.06c0.16-0.35,0.23-0.76,0.38-1.11c0.16-0.37,0.25-0.77,0.4-1.15c0.15-0.37,0.34-0.73,0.49-1.1
				c0.14-0.38,0.4-0.71,0.54-1.09c0.14-0.38,0.1-0.83,0.23-1.21c0.13-0.38,0.28-0.76,0.4-1.14c0.12-0.39,0.33-0.74,0.44-1.13
				c0.11-0.39,0.1-0.82,0.2-1.21c0.11-0.39,0.26-0.77,0.36-1.16c0.1-0.39,0.29-0.76,0.38-1.16c0.09-0.4,0.14-0.8,0.22-1.2
				c0.08-0.4,0.07-0.82,0.14-1.21c0.08-0.4,0.31-0.78,0.38-1.18c-0.05-0.37-0.22-0.74-0.27-1.11c-0.05-0.37-0.08-0.75-0.13-1.11
				c-0.06-0.39-0.16-0.77-0.22-1.16c-0.06-0.39-0.14-0.78-0.2-1.17c-0.07-0.39,0.01-0.81-0.06-1.2c-0.07-0.39-0.27-0.75-0.34-1.14
				c-0.07-0.39-0.15-0.77-0.23-1.16c-0.08-0.39-0.03-0.81-0.11-1.19c-0.08-0.39-0.16-0.77-0.25-1.16c-0.09-0.38-0.22-0.76-0.31-1.14
				c-0.1-0.38-0.33-0.72-0.43-1.1c-0.1-0.38-0.13-0.78-0.24-1.16c-0.11-0.38-0.21-0.76-0.33-1.14c-0.12-0.38-0.27-0.74-0.39-1.11
				c-0.12-0.37-0.17-0.78-0.3-1.15c-0.13-0.37-0.31-0.72-0.45-1.09c-0.14-0.37-0.38-0.69-0.53-1.05c-0.15-0.36-0.17-0.79-0.33-1.14
				c-0.16-0.36-0.44-0.65-0.61-1c-0.17-0.35-0.26-0.75-0.44-1.1c-0.18-0.35-0.44-0.64-0.63-0.98c-0.19-0.34-0.31-0.72-0.51-1.06
				c-0.2-0.32-0.48-0.58-0.69-0.9c-0.21-0.32-0.44-0.61-0.65-0.92c-0.22-0.31-0.37-0.67-0.6-0.97c-0.23-0.3-0.51-0.54-0.75-0.83
				c-0.24-0.29-0.37-0.69-0.62-0.97c-0.25-0.28-0.61-0.44-0.87-0.71c-0.26-0.27-0.46-0.61-0.73-0.86c-0.27-0.26-0.54-0.51-0.82-0.76
				c-0.28-0.24-0.61-0.43-0.89-0.66c-0.29-0.23-0.57-0.47-0.87-0.69c-0.31-0.23-0.67-0.38-1.02-0.58c-0.33-0.19-0.69-0.34-1.04-0.52
				c-0.35-0.17-0.67-0.42-1.02-0.59c-0.35-0.17-0.71-0.33-1.05-0.51c-0.35-0.18-0.65-0.45-0.98-0.66c-0.34-0.21-0.75-0.31-1.04-0.56
				c-0.3-0.26-0.47-0.66-0.71-0.98c-0.24-0.31-0.45-0.63-0.61-1.02c-0.15-0.36-0.27-0.73-0.33-1.16c-0.05-0.39-0.07-0.79-0.09-1.19
				c-0.03-0.4-0.19-0.78-0.22-1.18c-0.02-0.4-0.07-0.79-0.12-1.18c-0.05-0.37-0.08-0.73-0.14-1.1c-0.06-0.37,0.01-0.76-0.06-1.12
				c-0.07-0.36-0.23-0.71-0.31-1.07s-0.22-0.71-0.31-1.06c-0.1-0.36-0.14-0.73-0.25-1.08c-0.11-0.35-0.14-0.74-0.26-1.08
				c-0.13-0.38-0.4-0.7-0.55-1.07c-0.14-0.37-0.28-0.75-0.43-1.12c-0.16-0.37-0.35-0.71-0.52-1.07c-0.17-0.36-0.31-0.74-0.49-1.09
				c-0.18-0.35-0.38-0.7-0.57-1.04c-0.19-0.35-0.33-0.73-0.54-1.07c-0.2-0.34-0.51-0.61-0.72-0.94c-0.22-0.33-0.37-0.7-0.6-1.03
				c-0.23-0.32-0.42-0.67-0.66-0.98c-0.24-0.31-0.55-0.56-0.8-0.87c-0.25-0.3-0.51-0.59-0.77-0.88c-0.26-0.29-0.53-0.56-0.8-0.84
				c-0.27-0.28-0.46-0.65-0.74-0.92c-0.28-0.27-0.59-0.5-0.88-0.75c-0.29-0.26-0.55-0.55-0.84-0.8c-0.3-0.25-0.64-0.43-0.94-0.66
				c-0.3-0.23-0.55-0.56-0.86-0.78c-0.31-0.22-0.72-0.28-1.04-0.49c-0.32-0.21-0.6-0.48-0.93-0.68c-0.33-0.2-0.69-0.31-1.02-0.5
				c-0.33-0.18-0.62-0.47-0.95-0.64c-0.34-0.17-0.68-0.34-1.02-0.5c-0.34-0.16-0.67-0.36-1.02-0.51c-0.35-0.14-0.74-0.16-1.1-0.29
				c-0.35-0.13-0.69-0.33-1.04-0.45c-0.36-0.12-0.71-0.26-1.07-0.36c-0.36-0.1-0.72-0.25-1.08-0.33c-0.36-0.09-0.74-0.17-1.1-0.24
				c-0.37-0.07-0.76,0-1.13-0.05c-0.37-0.06-0.73-0.17-1.11-0.22c-0.37-0.04-0.75-0.07-1.12-0.1c-0.37-0.03-0.75-0.01-1.12-0.03
				c-0.37-0.02-0.75-0.09-1.12-0.09c-0.01,0-0.03,0.12-0.04,0.12c-0.36,0-0.72-0.04-1.07-0.09c-0.35-0.05-0.69-0.23-1.03-0.32
				c-0.34-0.09-0.69-0.17-1.02-0.31c-0.33-0.14-0.63-0.35-0.94-0.53c-0.31-0.18-0.6-0.38-0.89-0.61c-0.28-0.22-0.64-0.36-0.9-0.63
				c-0.25-0.26-0.44-0.6-0.66-0.9c-0.23-0.31-0.49-0.58-0.73-0.88c-0.24-0.3-0.5-0.57-0.75-0.86c-0.25-0.29-0.48-0.59-0.74-0.87
				c-0.26-0.28-0.41-0.67-0.68-0.94c-0.27-0.27-0.61-0.45-0.89-0.71c-0.27-0.26-0.49-0.6-0.77-0.85c-0.28-0.25-0.64-0.4-0.93-0.64
				c-0.29-0.24-0.6-0.44-0.9-0.67c-0.3-0.23-0.53-0.56-0.84-0.77c-0.31-0.21-0.63-0.41-0.94-0.62c-0.31-0.2-0.65-0.37-0.97-0.56
				c-0.32-0.19-0.61-0.44-0.94-0.62c-0.33-0.18-0.7-0.26-1.03-0.43c-0.33-0.16-0.63-0.41-0.97-0.56c-0.34-0.15-0.69-0.27-1.03-0.41
				c-0.34-0.14-0.74-0.12-1.08-0.25c-0.35-0.13-0.67-0.33-1.02-0.44c-0.35-0.11-0.7-0.22-1.06-0.32c-0.35-0.1-0.72-0.12-1.08-0.2
				c-0.36-0.08-0.71-0.18-1.07-0.25c-0.36-0.07-0.7-0.29-1.06-0.35c-0.36-0.06-0.74,0-1.11-0.04c-0.36-0.04-0.73-0.11-1.09-0.14
				c-0.36-0.03-0.73-0.08-1.1-0.09c-0.37-0.01-0.73,0.11-1.1,0.11c-0.37,0-0.74-0.06-1.1-0.05c-0.37,0.01-0.74,0-1.1,0.03
				c-0.37,0.03-0.74-0.01-1.11,0.03c-0.37,0.04-0.73,0.1-1.1,0.15c-0.36,0.06-0.73,0.14-1.09,0.21c-0.36,0.07-0.72,0.16-1.08,0.24
				c-0.36,0.08-0.72,0.18-1.07,0.28c-0.36,0.1-0.72,0.19-1.07,0.3c-0.35,0.11-0.67,0.35-1.02,0.47c-0.35,0.13-0.69,0.27-1.03,0.41
				c-0.34,0.14-0.67,0.33-1,0.48c-0.34,0.15-0.71,0.22-1.04,0.39c-0.33,0.17-0.68,0.29-1.01,0.47c-0.33,0.18-0.63,0.4-0.95,0.59
				c-0.32,0.19-0.66,0.36-0.97,0.56c-0.31,0.2-0.61,0.39-0.94,0.54c-0.33,0.15-0.64,0.37-0.98,0.47c-0.34,0.1-0.7,0.19-1.05,0.24
				c-0.35,0.05-0.72,0-1.08,0c-0.36,0-0.72,0.04-1.07-0.01c-0.35-0.05-0.72-0.11-1.06-0.21c-0.34-0.1-0.68-0.27-1-0.42
				c-0.32-0.15-0.67-0.3-0.97-0.49c-0.31-0.2-0.56-0.53-0.88-0.72c-0.32-0.19-0.63-0.42-0.95-0.6c-0.33-0.18-0.71-0.24-1.04-0.41
				c-0.33-0.17-0.7-0.25-1.03-0.4c-0.34-0.15-0.66-0.35-1-0.49c-0.34-0.14-0.67-0.33-1.02-0.46c-0.35-0.13-0.68-0.3-1.03-0.41
				c-0.35-0.11-0.73-0.14-1.08-0.24c-0.35-0.1-0.7-0.27-1.06-0.35c-0.36-0.08-0.74-0.05-1.1-0.12c-0.36-0.07-0.71-0.21-1.07-0.27
				c-0.36-0.06-0.74-0.04-1.1-0.08c-0.36-0.04-0.74,0.02-1.1,0c-0.36-0.03-0.73-0.12-1.09-0.13c-0.37-0.01-0.73-0.07-1.1-0.07
				c-0.37,0-0.74,0.02-1.1,0.03c-0.37,0.01-0.74-0.03-1.1-0.01c-0.37,0.03-0.73,0.07-1.1,0.11c-0.37,0.04-0.72,0.21-1.08,0.26
				c-0.36,0.06-0.74,0-1.1,0.07c-0.36,0.07-0.71,0.22-1.07,0.31c-0.36,0.08-0.73,0.14-1.08,0.23c-0.36,0.1-0.7,0.24-1.05,0.35
				c-0.35,0.11-0.73,0.15-1.07,0.28c-0.35,0.13-0.64,0.4-0.99,0.54c-0.34,0.14-0.75,0.11-1.09,0.27c-0.34,0.15-0.64,0.41-0.97,0.57
				c-0.33,0.17-0.65,0.36-0.98,0.53c-0.33,0.18-0.68,0.3-1,0.49c-0.32,0.19-0.66,0.35-0.98,0.55c-0.31,0.2-0.58,0.49-0.89,0.7
				c-0.31,0.21-0.61,0.44-0.9,0.67c-0.3,0.23-0.56,0.51-0.85,0.75c-0.29,0.24-0.67,0.37-0.95,0.61c-0.28,0.25-0.51,0.57-0.79,0.83
				c-0.27,0.26-0.52,0.56-0.78,0.83c-0.27,0.27-0.6,0.46-0.86,0.74c-0.26,0.28-0.46,0.62-0.71,0.91c-0.25,0.29-0.44,0.63-0.67,0.93
				c-0.24,0.3-0.44,0.63-0.66,0.93c-0.22,0.3-0.52,0.53-0.77,0.79c-0.26,0.27-0.5,0.55-0.78,0.78c-0.28,0.23-0.6,0.41-0.91,0.6
				c-0.31,0.18-0.66,0.29-0.99,0.43c-0.33,0.14-0.64,0.35-0.99,0.44c-0.34,0.09-0.71,0.1-1.06,0.15c-0.35,0.05-0.7,0.11-1.06,0.11
				c-0.01,0-0.03-0.06-0.04-0.06c-0.38,0-0.75,0.02-1.12,0.04c-0.37,0.02-0.75,0.06-1.12,0.09c-0.37,0.03-0.75,0.02-1.12,0.06
				c-0.37,0.05-0.74,0.13-1.11,0.19c-0.37,0.06-0.72,0.21-1.09,0.29c-0.37,0.07-0.75,0.08-1.11,0.17c-0.37,0.09-0.75,0.11-1.11,0.21
				c-0.36,0.1-0.7,0.31-1.05,0.43c-0.36,0.12-0.76,0.11-1.11,0.24c-0.35,0.13-0.67,0.39-1.02,0.53c-0.35,0.15-0.68,0.33-1.03,0.49
				s-0.72,0.24-1.06,0.42c-0.34,0.17-0.66,0.38-0.99,0.57c-0.33,0.18-0.68,0.34-1,0.54c-0.33,0.2-0.66,0.38-0.98,0.59
				c-0.32,0.21-0.61,0.47-0.92,0.7c-0.31,0.22-0.58,0.5-0.89,0.74c-0.3,0.23-0.65,0.41-0.95,0.65c-0.3,0.25-0.59,0.5-0.88,0.75
				c-0.29,0.26-0.51,0.6-0.78,0.87c-0.28,0.27-0.54,0.55-0.81,0.83c-0.27,0.28-0.55,0.54-0.8,0.84c-0.25,0.29-0.57,0.52-0.81,0.81
				c-0.24,0.3-0.44,0.63-0.67,0.94c-0.23,0.31-0.48,0.6-0.71,0.91c-0.22,0.31-0.51,0.58-0.72,0.9c-0.21,0.32-0.42,0.66-0.62,0.99
				c-0.2,0.33-0.32,0.72-0.51,1.06c-0.19,0.34-0.43,0.65-0.61,0.99c-0.18,0.35-0.38,0.68-0.55,1.03c-0.17,0.35-0.32,0.71-0.48,1.07
				c-0.15,0.36-0.32,0.72-0.46,1.08c-0.14,0.36-0.09,0.81-0.22,1.18c-0.13,0.38-0.38,0.71-0.48,1.1c-0.1,0.39-0.08,0.81-0.15,1.2
				c-0.08,0.39-0.3,0.76-0.36,1.16c-0.06,0.4-0.01,0.81-0.06,1.21c-0.05,0.4-0.05,0.8-0.1,1.2c-0.05,0.4-0.26,0.77-0.32,1.17
				c-0.06,0.4-0.07,0.8-0.14,1.19c-0.07,0.39-0.03,0.82-0.12,1.21c-0.1,0.42-0.24,0.78-0.35,1.12c-0.13,0.41-0.22,0.8-0.37,1.11
				c-0.18,0.38-0.45,0.65-0.68,0.92c-0.24,0.28-0.54,0.47-0.87,0.7c-0.28,0.2-0.54,0.47-0.9,0.66c-0.3,0.16-0.66,0.25-1.02,0.43
				c-0.33,0.16-0.6,0.45-0.92,0.62c-0.32,0.17-0.7,0.24-1.01,0.42c-0.32,0.18-0.58,0.47-0.89,0.67c-0.31,0.2-0.64,0.35-0.95,0.56
				c-0.3,0.21-0.6,0.43-0.89,0.65c-0.3,0.22-0.65,0.36-0.93,0.6c-0.29,0.23-0.48,0.59-0.76,0.84c-0.28,0.24-0.59,0.44-0.87,0.69
				c-0.27,0.25-0.49,0.57-0.75,0.84c-0.26,0.27-0.51,0.54-0.76,0.82c-0.25,0.28-0.62,0.43-0.86,0.72c-0.24,0.29-0.49,0.57-0.73,0.86
				c-0.24,0.31-0.35,0.73-0.57,1.04c-0.23,0.32-0.56,0.55-0.78,0.87c-0.22,0.32-0.31,0.74-0.52,1.07c-0.21,0.33-0.5,0.6-0.7,0.94
				c-0.19,0.34-0.32,0.72-0.5,1.07c-0.18,0.35-0.42,0.67-0.59,1.02c-0.17,0.35-0.36,0.7-0.53,1.06c-0.16,0.36-0.31,0.73-0.46,1.09
				c-0.15,0.36-0.2,0.78-0.34,1.14c-0.14,0.37-0.29,0.73-0.42,1.11c-0.13,0.37-0.38,0.7-0.5,1.08c-0.12,0.38-0.08,0.81-0.2,1.19
				c-0.11,0.38-0.31,0.73-0.41,1.11c-0.11,0.38-0.15,0.78-0.25,1.17c-0.1,0.38-0.21,0.76-0.3,1.15c-0.09,0.39-0.13,0.78-0.21,1.17
				c-0.08,0.39-0.28,0.75-0.35,1.14c-0.07,0.39-0.02,0.81-0.09,1.2c-0.07,0.39-0.21,0.77-0.27,1.16c-0.06,0.39-0.22,0.78-0.27,1.18
				c0.04,0.5,0.24,0.99,0.28,1.48c0.03,0.4-0.11,0.81-0.07,1.2c0.04,0.39,0.25,0.76,0.3,1.15c0.05,0.39,0.02,0.8,0.08,1.18
				c0.06,0.39,0.07,0.79,0.14,1.18c0.07,0.39,0.2,0.76,0.28,1.15c0.08,0.39,0.17,0.77,0.26,1.15c0.08,0.39,0.05,0.8,0.14,1.18
				c0.09,0.38,0.22,0.76,0.32,1.14c0.1,0.38,0.27,0.74,0.38,1.12c0.11,0.38,0.33,0.72,0.45,1.09c0.12,0.37,0.19,0.77,0.32,1.14
				c0.13,0.37,0.28,0.73,0.42,1.1c0.14,0.37,0.26,0.74,0.41,1.1c0.15,0.36,0.25,0.75,0.4,1.11c0.16,0.36,0.29,0.73,0.46,1.08
				c0.16,0.35,0.46,0.64,0.63,0.99c0.17,0.35,0.33,0.7,0.51,1.05c0.18,0.34,0.38,0.68,0.57,1.02c0.19,0.34,0.34,0.7,0.54,1.03
				c0.2,0.33,0.36,0.69,0.57,1.02c0.2,0.33,0.46,0.62,0.67,0.94c0.21,0.32,0.39,0.67,0.61,0.99c0.22,0.32,0.4,0.66,0.63,0.98
				c0.22,0.31,0.47,0.61,0.7,0.92c0.23,0.31,0.41,0.66,0.65,0.96c0.24,0.3,0.6,0.49,0.84,0.79c0.24,0.3,0.48,0.59,0.73,0.89
				c0.25,0.29,0.39,0.7,0.64,0.98c0.25,0.28,0.59,0.49,0.85,0.76c0.26,0.28,0.57,0.5,0.83,0.78c0.27,0.27,0.49,0.59,0.77,0.86
				c0.27,0.27,0.59,0.47,0.87,0.73c0.28,0.26,0.46,0.63,0.75,0.89c0.28,0.26,0.59,0.48,0.87,0.73c0.28,0.25,0.53,0.55,0.82,0.79
				c0.29,0.25,0.61,0.44,0.91,0.68c0.29,0.24,0.61,0.44,0.91,0.68c0.3,0.23,0.61,0.44,0.91,0.67c0.3,0.23,0.55,0.53,0.86,0.76
				c0.3,0.22,0.62,0.43,0.93,0.65c0.31,0.22,0.62,0.43,0.93,0.65c0.31,0.21,0.61,0.44,0.93,0.65c0.31,0.21,0.63,0.42,0.94,0.62
				c0.32,0.2,0.68,0.32,1,0.52c0.32,0.2,0.66,0.35,0.98,0.54c0.32,0.19,0.57,0.53,0.9,0.71c0.32,0.19,0.67,0.33,1,0.51
				c0.33,0.18,0.69,0.29,1.02,0.47c0.33,0.18,0.63,0.42,0.96,0.6c0.33,0.17,0.66,0.35,1,0.52c0.33,0.17,0.64,0.4,0.98,0.56
				c0.34,0.16,0.73,0.19,1.07,0.35c0.34,0.16,0.63,0.42,0.97,0.58c0.34,0.15,0.68,0.31,1.02,0.46c0.34,0.15,0.75,0.13,1.09,0.27
				c0.34,0.14,0.64,0.43,0.98,0.57c0.35,0.14,0.72,0.19,1.07,0.33C48.43,142.95,48.79,143.06,49.13,143.19z"/>
		</g>
		<g>
			<path class="st4" d="M106.11,177.59c-0.05,0-0.1,0-0.16,0c-0.85-0.01-1.6-0.17-2.21-0.3c-0.32-0.07-0.68-0.15-0.86-0.15
				c-0.32-0.01-0.72,0.02-1.14,0.05c-0.58,0.04-1.24,0.09-1.94,0.07c-1.02-0.04-2.05,0-3.08-0.05c-0.6-0.03-1.2-0.07-1.8-0.11
				c-0.43-0.03-0.85-0.06-1.28-0.09c-0.42-0.02-0.85-0.03-1.27-0.03c-0.6-0.01-1.21-0.02-1.81-0.06c-0.61-0.04-1.22-0.12-1.83-0.21
				c-0.41-0.06-0.83-0.11-1.24-0.15c-1.02-0.08-2.05-0.17-3.08-0.27c-0.68-0.07-1.31-0.18-1.87-0.28c-0.4-0.07-0.79-0.15-1.19-0.19
				c-0.27-0.03-0.64-0.02-1.03-0.01c-0.61,0.01-1.31,0.02-2.07-0.07c-0.73-0.09-1.38-0.26-1.96-0.4c-0.4-0.1-0.78-0.2-1.08-0.24
				c-0.4-0.06-0.8-0.11-1.2-0.16c-0.63-0.08-1.26-0.16-1.88-0.26c-0.69-0.11-1.33-0.28-1.89-0.43c-0.38-0.1-0.76-0.2-1.14-0.27
				c-0.4-0.07-0.81-0.13-1.21-0.19c-0.62-0.09-1.24-0.18-1.85-0.3c-0.39-0.08-0.79-0.13-1.18-0.18c-0.57-0.08-1.22-0.17-1.9-0.32
				c-0.39-0.09-0.79-0.15-1.18-0.22c-0.57-0.1-1.22-0.21-1.89-0.37c-0.82-0.2-1.52-0.52-2.09-0.78c-0.32-0.14-0.65-0.29-0.84-0.35
				c-0.23-0.06-0.59-0.11-0.97-0.15c-0.6-0.07-1.34-0.17-2.12-0.4l-0.3-0.09c-0.9-0.27-1.81-0.54-2.7-0.83
				c-0.68-0.22-1.29-0.48-1.84-0.72c-0.36-0.15-0.71-0.31-1.07-0.44c-0.37-0.13-0.74-0.23-1.11-0.34c-0.59-0.17-1.25-0.36-1.93-0.63
				c-0.76-0.3-1.39-0.67-1.94-0.99c-0.33-0.2-0.65-0.38-0.89-0.48c-0.35-0.15-0.71-0.28-1.06-0.41c-0.58-0.21-1.23-0.45-1.9-0.76
				c-0.34-0.16-0.69-0.3-1.05-0.45c-0.57-0.23-1.22-0.5-1.88-0.84l-0.46-0.24c-0.8-0.41-1.59-0.83-2.36-1.27
				c-0.65-0.37-1.23-0.78-1.75-1.14c-0.31-0.22-0.61-0.43-0.93-0.63l-0.6-0.38c-0.71-0.45-1.42-0.89-2.11-1.37
				c-0.69-0.48-1.23-1.01-1.7-1.47c-0.27-0.26-0.52-0.51-0.73-0.67c-0.23-0.18-0.54-0.37-0.87-0.57c-0.55-0.34-1.18-0.73-1.8-1.26
				c-0.61-0.52-1.13-1.04-1.63-1.54c-0.24-0.24-0.48-0.47-0.72-0.7c-0.59-0.56-1.09-1.11-1.57-1.65c-0.22-0.24-0.44-0.48-0.66-0.72
				c-0.24-0.25-0.48-0.49-0.73-0.74c-0.48-0.47-1.02-1-1.53-1.62c-0.52-0.62-0.94-1.25-1.31-1.81c-0.19-0.29-0.38-0.58-0.59-0.86
				c-0.16-0.21-0.39-0.47-0.64-0.75c-0.46-0.5-0.97-1.07-1.44-1.81c-0.48-0.75-0.78-1.5-1.03-2.11c-0.14-0.34-0.27-0.66-0.39-0.88
				c-0.16-0.29-0.35-0.57-0.53-0.85c-0.38-0.57-0.8-1.21-1.16-1.99c-0.45-0.99-0.88-2.02-1.27-3.05c-0.29-0.78-0.5-1.55-0.68-2.24
				c-0.08-0.31-0.17-0.62-0.26-0.93c-0.28-0.94-0.48-1.86-0.67-2.74l-0.1-0.46c-0.25-1.13-0.43-2.27-0.58-3.24
				c-0.03-0.21-0.13-0.54-0.22-0.88c-0.19-0.64-0.42-1.44-0.49-2.35c-0.05-0.65-0.05-1.25-0.04-1.79c0-0.38,0.01-0.76-0.02-1.13
				c-0.03-0.4-0.09-0.8-0.14-1.2c-0.08-0.57-0.15-1.13-0.19-1.71c-0.05-0.69-0.02-1.33,0-1.88c0.02-0.4,0.03-0.77,0.01-1.06
				c-0.04-0.58-0.05-1.16-0.05-1.74c-0.01-0.4-0.01-0.81-0.03-1.21c-0.01-0.26-0.07-0.61-0.13-0.98c-0.1-0.58-0.21-1.23-0.23-1.97
				c-0.01-0.38-0.04-0.77-0.07-1.15c-0.05-0.61-0.09-1.21-0.1-1.82c-0.01-0.62,0.02-1.23,0.06-1.85c0.02-0.38,0.04-0.76,0.05-1.14
				c0.01-0.8,0.14-1.52,0.25-2.09c0.06-0.35,0.12-0.68,0.13-0.89c0.01-0.36,0.02-0.72,0.02-1.08c0.01-0.64,0.02-1.28,0.06-1.92
				c0.02-0.21-0.01-0.54-0.03-0.89c-0.04-0.6-0.09-1.34-0.01-2.15c0.08-0.79,0.25-1.51,0.4-2.15c0.09-0.38,0.18-0.75,0.23-1.13
				c0.06-0.37,0.08-0.75,0.11-1.12c0.05-0.67,0.11-1.42,0.27-2.22c0.18-0.9,0.51-1.68,0.77-2.3c0.15-0.35,0.29-0.68,0.35-0.92
				c0.09-0.35,0.16-0.71,0.23-1.06c0.14-0.68,0.29-1.46,0.57-2.26c0.09-0.27,0.18-0.54,0.27-0.81c0.25-0.79,0.52-1.6,0.88-2.45
				c0.47-1.1,1.01-2.1,1.53-3.07c0.62-1.15,1.27-2.14,1.88-3.06c0.53-0.79,1.11-1.43,1.63-1.99c0.22-0.24,0.44-0.48,0.65-0.73
				c0.21-0.26,0.41-0.52,0.61-0.79c0.47-0.63,1-1.35,1.72-2.03c0.85-0.8,1.78-1.59,2.79-2.35c0.99-0.74,2-1.42,3.02-2.03
				c1.17-0.69,2.34-1.24,3.23-1.65l0.52-0.23c0.39-0.18,0.86-0.38,1.11-0.53c0.08-0.25,0.19-0.68,0.27-1.04l0.14-0.57
				c0.2-0.8,0.32-1.66,0.45-2.57c0.1-0.71,0.24-1.37,0.37-2.01c0.08-0.36,0.15-0.72,0.22-1.08c0.2-1.11,0.52-2.25,0.98-3.5
				c0.1-0.27,0.2-0.55,0.29-0.83c0.24-0.71,0.52-1.52,0.92-2.34c0.41-0.83,0.89-1.55,1.31-2.19c0.16-0.24,0.31-0.47,0.46-0.71
				c0.49-0.79,1.04-1.47,1.53-2.08c0.17-0.21,0.34-0.42,0.5-0.63c0.72-0.94,1.49-1.77,2.22-2.54c0.17-0.18,0.37-0.45,0.59-0.73
				c0.43-0.56,0.96-1.25,1.69-1.88c0.71-0.61,1.43-1.08,2.08-1.5c0.25-0.16,0.5-0.33,0.74-0.49c0.26-0.18,0.52-0.39,0.77-0.59
				c0.58-0.46,1.24-0.98,2.04-1.42c0.86-0.48,1.74-0.84,2.51-1.17l0.63-0.27c1.1-0.47,2.19-0.88,3.23-1.21
				c1.23-0.39,2.32-0.68,3.34-0.89c0.9-0.19,1.74-0.23,2.48-0.26c0.32-0.02,0.64-0.03,0.96-0.06c0.31-0.03,0.62-0.1,0.93-0.16
				c0.69-0.14,1.55-0.31,2.51-0.31c0.33,0,0.65,0.05,0.96,0.14c0.5-0.05,0.92-0.16,1.23-0.3c0.42-0.2,1.04-0.98,1.44-1.49
				c0.58-0.74,1.22-1.38,1.78-1.94c0.19-0.19,0.37-0.37,0.56-0.56c0.64-0.66,1.3-1.15,1.88-1.58c0.26-0.19,0.51-0.38,0.76-0.58
				c0.23-0.19,0.45-0.4,0.67-0.6c0.55-0.5,1.17-1.07,1.93-1.59l0.34-0.24c0.78-0.54,1.59-1.1,2.51-1.61
				c0.8-0.44,1.57-0.72,2.26-0.96c0.3-0.11,0.6-0.21,0.9-0.34c1.12-0.48,2.24-0.84,3.2-1.13c0.18-0.06,0.47-0.19,0.77-0.33
				c0.65-0.31,1.45-0.69,2.44-0.89c0.91-0.19,1.77-0.19,2.46-0.2c0.32,0,0.64,0,0.95-0.03l0.49-0.05c0.87-0.09,1.86-0.19,2.89-0.19
				c0.29,0,0.58-0.01,0.87-0.03c0.66-0.03,1.4-0.06,2.21,0.01c0.97,0.09,1.91,0.26,2.73,0.41l0.32,0.06c1.09,0.2,2.1,0.48,2.99,0.73
				c0.23,0.06,0.47,0.13,0.7,0.19c0.69,0.18,1.46,0.38,2.25,0.68c0.78,0.3,1.47,0.65,2.08,0.97c0.23,0.12,0.47,0.24,0.7,0.36
				c0.93,0.46,1.84,0.95,2.7,1.47c0.42,0.26,0.9,0.43,1.46,0.53l0.5,0.1c0.37,0.07,0.93,0.2,1.11,0.16
				c0.27-0.05,0.94-0.45,1.42-0.74c0.7-0.43,1.39-0.73,1.99-1c0.26-0.11,0.51-0.23,0.77-0.35c0.16-0.08,0.4-0.23,0.65-0.4
				c0.54-0.35,1.2-0.78,2.05-1.1c0.76-0.29,1.5-0.47,2.16-0.63c0.27-0.07,0.54-0.13,0.81-0.21c0.25-0.07,0.49-0.14,0.74-0.22
				c0.66-0.2,1.41-0.43,2.24-0.58c0.84-0.15,1.62-0.15,2.24-0.14c0.28,0,0.56,0.01,0.83-0.02l0.3-0.03c1.12-0.1,2.34-0.14,3.6-0.17
				c0.77-0.01,1.64-0.03,2.56,0.06c0.92,0.09,1.73,0.29,2.45,0.47c0.3,0.07,0.6,0.15,0.89,0.21c0.29,0.06,0.58,0.11,0.87,0.16
				c0.74,0.13,1.59,0.27,2.46,0.55c0.89,0.28,1.67,0.63,2.36,0.95c0.26,0.12,0.52,0.24,0.79,0.35c0.27,0.11,0.54,0.22,0.81,0.33
				c0.7,0.28,1.5,0.59,2.31,1.03c0.9,0.5,1.93,1.06,2.93,1.75c0.75,0.52,1.35,1.08,1.89,1.58c0.23,0.22,0.46,0.43,0.7,0.64
				c0.23,0.2,0.48,0.39,0.72,0.58c0.58,0.46,1.24,0.97,1.87,1.63c0.63,0.65,1.12,1.33,1.55,1.92c0.18,0.25,0.36,0.51,0.56,0.75
				c0.38,0.48,1.18,0.9,1.75,1.16c0.49,0.23,1,0.38,1.52,0.44c0.2-0.04,0.4-0.05,0.61-0.05c1.19,0,2.31,0.11,3.45,0.22
				c0.94,0.1,1.8,0.3,2.56,0.47c0.28,0.06,0.55,0.13,0.83,0.19c0.93,0.19,1.79,0.48,2.55,0.73c0.25,0.08,0.49,0.17,0.74,0.24
				c0.3,0.1,0.62,0.17,0.93,0.24c0.71,0.17,1.52,0.36,2.37,0.73c0.85,0.36,1.54,0.82,2.16,1.21c0.27,0.18,0.54,0.35,0.82,0.51
				c0.2,0.11,0.51,0.24,0.83,0.37c0.65,0.27,1.47,0.61,2.27,1.16c0.75,0.52,1.36,1.1,1.9,1.62c0.23,0.22,0.46,0.45,0.71,0.65
				c0.24,0.21,0.49,0.4,0.75,0.59c0.59,0.45,1.26,0.97,1.9,1.64c0.82,0.87,1.59,1.76,2.27,2.65c0.8,1.03,1.45,1.97,2,2.86
				c0.51,0.83,0.81,1.66,1.05,2.32c0.12,0.33,0.24,0.65,0.34,0.88c0.45,0.92,0.96,2,1.39,3.17c0.1,0.29,0.22,0.57,0.33,0.85
				c0.29,0.71,0.61,1.52,0.84,2.43l0.16,0.61c0.22,0.84,0.46,1.79,0.61,2.8c0.1,0.67,0.14,1.29,0.18,1.89
				c0.04,0.51,0.07,1,0.13,1.42c0.06,0.37,0.12,0.44,0.34,0.61c0.53,0.42,1.25,0.84,2.22,1.28c1.35,0.61,2.51,1.38,3.5,2.05
				l0.43,0.29c0.63,0.42,1.35,0.91,2.05,1.5c0.21,0.18,0.42,0.34,0.64,0.51c0.53,0.41,1.12,0.87,1.7,1.47
				c0.62,0.64,1.03,1.31,1.36,1.84c0.13,0.22,0.26,0.44,0.42,0.63c0.15,0.19,0.3,0.37,0.45,0.55c0.44,0.53,0.93,1.14,1.39,1.84
				c0.54,0.84,1.22,1.88,1.8,2.99c0.42,0.8,0.74,1.61,1.02,2.31c0.11,0.29,0.23,0.58,0.35,0.86c0.1,0.24,0.28,0.55,0.47,0.88
				c0.33,0.59,0.75,1.33,1.05,2.2c0.27,0.79,0.42,1.54,0.56,2.21c0.07,0.36,0.14,0.73,0.24,1.08c0.21,0.77,0.37,1.51,0.51,2.22
				c0.07,0.34,0.14,0.69,0.22,1.03c0.06,0.26,0.19,0.61,0.33,0.98c0.23,0.63,0.5,1.34,0.66,2.19c0.15,0.81,0.18,1.55,0.2,2.21
				c0.01,0.41,0.03,0.79,0.07,1.06l0.03,0.2c0.13,0.82,0.27,1.65,0.38,2.5c0.02,0.13,0.11,0.42,0.18,0.68
				c0.16,0.54,0.37,1.21,0.45,1.99c0,0,0,0,0,0c0.06,0.6,0.11,1.21,0.15,1.82c0.03,0.4,0.05,0.79,0.09,1.19
				c0.07,0.83,0,1.57-0.05,2.17c-0.03,0.33-0.06,0.68-0.05,0.87c0.01,0.14,0.1,0.48,0.17,0.75c0.16,0.61,0.37,1.36,0.41,2.25
				c0.03,0.76-0.03,1.45-0.09,2.05c-0.04,0.38-0.07,0.74-0.06,1c0,0.28,0.05,0.64,0.09,1.03c0.07,0.6,0.15,1.27,0.14,2.03
				c-0.01,0.74-0.1,1.41-0.17,2c-0.05,0.35-0.09,0.71-0.11,1.06c-0.02,0.36-0.02,0.71-0.03,1.07c-0.01,0.67-0.03,1.34-0.08,2.01
				c-0.06,0.7-0.16,1.4-0.25,2.09c-0.05,0.32-0.09,0.65-0.13,0.97c-0.09,0.73-0.24,1.4-0.37,2c-0.08,0.35-0.15,0.7-0.21,1.05
				c-0.06,0.35-0.1,0.69-0.15,1.04c-0.08,0.61-0.17,1.31-0.32,2.03c-0.06,0.29-0.12,0.57-0.18,0.86c-0.14,0.7-0.29,1.43-0.5,2.19
				c-0.2,0.74-0.46,1.4-0.69,1.98c-0.13,0.32-0.26,0.64-0.37,0.97c-0.35,1.05-0.66,1.99-1.04,2.96c-0.11,0.27-0.21,0.54-0.31,0.82
				c-0.25,0.68-0.52,1.38-0.85,2.11c-0.36,0.78-0.77,1.47-1.14,2.08c-0.17,0.28-0.34,0.56-0.49,0.85c-0.61,1.09-1.15,2-1.71,2.86
				c-0.19,0.29-0.35,0.6-0.52,0.9c-0.33,0.6-0.7,1.27-1.21,1.95c-0.5,0.67-1.05,1.26-1.52,1.79c-0.22,0.24-0.44,0.48-0.65,0.73
				c-0.53,0.62-1.1,1.15-1.6,1.62c-0.25,0.24-0.5,0.47-0.74,0.72c-0.24,0.25-0.46,0.52-0.68,0.79c-0.42,0.52-0.91,1.11-1.53,1.67
				c-0.25,0.22-0.49,0.45-0.73,0.68c-0.53,0.5-1.09,1.03-1.72,1.54c-0.66,0.53-1.32,0.91-1.9,1.24c-0.33,0.19-0.65,0.37-0.87,0.53
				c-0.3,0.21-0.58,0.45-0.87,0.68c-0.5,0.41-1.07,0.88-1.74,1.3l-0.65,0.42c-0.67,0.44-1.36,0.9-2.11,1.33
				c-0.64,0.37-1.29,0.71-1.95,1.06l-0.77,0.4c-0.64,0.34-1.27,0.59-1.82,0.82c-0.33,0.14-0.67,0.27-0.99,0.43l-0.56,0.28
				c-0.73,0.36-1.46,0.72-2.2,1.05c-0.34,0.15-0.68,0.32-1.01,0.49c-0.55,0.27-1.12,0.56-1.76,0.82c-0.63,0.26-1.23,0.46-1.82,0.65
				c-0.36,0.12-0.72,0.24-1.07,0.37c-0.35,0.13-0.7,0.28-1.04,0.43c-0.56,0.24-1.14,0.49-1.79,0.71c-0.69,0.24-1.34,0.38-1.92,0.5
				c-0.35,0.08-0.7,0.15-1.04,0.25c-0.36,0.11-0.72,0.24-1.08,0.36c-0.6,0.21-1.2,0.41-1.81,0.58c-0.36,0.1-0.72,0.23-1.07,0.36
				c-0.54,0.19-1.15,0.41-1.82,0.59l-0.96,0.25c-0.66,0.18-1.32,0.35-1.98,0.51c-0.69,0.16-1.34,0.24-1.91,0.31
				c-0.36,0.04-0.73,0.08-1.08,0.16c-0.99,0.21-1.98,0.41-2.97,0.59c-0.37,0.07-0.74,0.17-1.11,0.26c-0.55,0.14-1.16,0.3-1.83,0.41
				l-0.21,0.04c-0.92,0.15-1.84,0.31-2.77,0.45c-0.72,0.11-1.38,0.12-1.97,0.14c-0.39,0.01-0.76,0.02-1.05,0.05
				c-0.28,0.04-0.64,0.12-1.02,0.22c-0.57,0.14-1.21,0.3-1.94,0.38c-0.79,0.09-1.52,0.05-2.1,0.02c-0.36-0.02-0.7-0.04-0.92-0.02
				s-0.54,0.11-0.9,0.2c-0.57,0.15-1.27,0.33-2.06,0.4c-0.68,0.06-1.31,0.05-1.87,0.04c-0.38,0-0.76-0.01-1.13,0.02
				c-0.42,0.03-0.84,0.07-1.26,0.11c-0.58,0.05-1.15,0.11-1.73,0.14c-0.39,0.02-0.78,0.08-1.17,0.13c-0.54,0.07-1.16,0.16-1.82,0.19
				c-0.81,0.04-1.55-0.06-2.14-0.14c-0.33-0.04-0.68-0.08-0.86-0.08c-0.41,0.02-0.82,0.05-1.23,0.09c-0.58,0.05-1.17,0.1-1.75,0.12
				c-0.68,0.02-1.36,0.03-2.04,0.04l-0.94,0.02c-0.29,0.01-0.67,0.06-1.06,0.11c-0.56,0.08-1.2,0.16-1.9,0.17
				c-0.56,0.01-1.13-0.01-1.69-0.02c-0.43-0.01-0.85-0.02-1.28-0.02l-1.2,0.01c-1.18,0.01-2.36,0.01-3.54-0.05
				c-0.43-0.03-0.86-0.05-1.29-0.06c-0.31,0-0.69,0.04-1.11,0.08C107.38,177.52,106.78,177.59,106.11,177.59z M102.78,170.13
				c0.09,0,0.18,0,0.28,0c0.83,0.02,1.56,0.17,2.14,0.3c0.32,0.07,0.69,0.15,0.86,0.15c0.3,0.02,0.71-0.04,1.13-0.08
				c0.56-0.06,1.2-0.11,1.88-0.12c0.55,0,1.1,0.04,1.66,0.07c1.01,0.06,2.03,0.05,3.04,0.04l1.24-0.01c0.51,0,1.01,0.01,1.52,0.03
				c0.47,0.01,0.93,0.03,1.4,0.02c0.29,0,0.67-0.05,1.07-0.11c0.54-0.07,1.16-0.15,1.85-0.17l0.96-0.02
				c0.65-0.01,1.31-0.02,1.96-0.04c0.44-0.01,0.88-0.05,1.31-0.09c0.53-0.05,1.06-0.09,1.6-0.12c0.79-0.03,1.49,0.06,2.05,0.14
				c0.34,0.05,0.69,0.09,0.88,0.08c0.41-0.02,0.81-0.08,1.22-0.13c0.56-0.08,1.12-0.15,1.69-0.18c0.49-0.03,0.98-0.08,1.47-0.12
				c0.47-0.05,0.95-0.09,1.43-0.13c0.61-0.04,1.2-0.04,1.71-0.03c0.44,0,0.85,0.01,1.2-0.02c0.21-0.02,0.56-0.11,0.91-0.2
				c0.54-0.14,1.21-0.31,1.95-0.39c0.74-0.08,1.43-0.04,1.98-0.01c0.36,0.02,0.72,0.04,0.93,0.01c0.28-0.03,0.66-0.12,1.06-0.22
				c0.53-0.13,1.12-0.28,1.79-0.36c0.66-0.09,1.26-0.1,1.8-0.11c0.42-0.01,0.81-0.02,1.1-0.06c0.89-0.13,1.77-0.28,2.65-0.43
				l0.21-0.04c0.36-0.06,0.78-0.17,1.23-0.29c0.52-0.14,1.05-0.27,1.58-0.37c0.95-0.18,1.89-0.37,2.82-0.57
				c0.6-0.13,1.18-0.2,1.69-0.26c0.43-0.05,0.84-0.1,1.16-0.18c0.59-0.14,1.17-0.29,1.76-0.45l1.02-0.27
				c0.36-0.09,0.77-0.24,1.21-0.4c0.5-0.18,1.01-0.36,1.52-0.5c0.49-0.14,0.96-0.3,1.44-0.47c0.42-0.15,0.85-0.29,1.28-0.43
				c0.58-0.18,1.14-0.3,1.64-0.41c0.43-0.09,0.83-0.18,1.13-0.29c0.45-0.15,0.88-0.34,1.32-0.53c0.44-0.19,0.88-0.37,1.33-0.54
				c0.44-0.17,0.89-0.31,1.34-0.46c0.46-0.15,0.91-0.3,1.35-0.48c0.44-0.18,0.87-0.4,1.3-0.61c0.42-0.21,0.84-0.42,1.26-0.61
				c0.66-0.3,1.32-0.62,1.97-0.94l0.58-0.29c0.48-0.23,0.97-0.43,1.46-0.63c0.43-0.17,0.83-0.33,1.14-0.5l0.82-0.43
				c0.56-0.29,1.12-0.59,1.67-0.9c0.61-0.35,1.2-0.74,1.78-1.13l0.69-0.45c0.34-0.22,0.72-0.53,1.12-0.85
				c0.39-0.32,0.79-0.64,1.19-0.93c0.53-0.38,1.05-0.68,1.51-0.94c0.39-0.22,0.75-0.43,0.97-0.6c0.42-0.34,0.85-0.75,1.31-1.18
				c0.28-0.26,0.56-0.52,0.84-0.78c0.23-0.21,0.51-0.55,0.81-0.91c0.32-0.39,0.67-0.82,1.1-1.26c0.3-0.31,0.61-0.6,0.92-0.9
				c0.42-0.39,0.81-0.76,1.11-1.12c0.25-0.29,0.51-0.58,0.77-0.86c0.41-0.46,0.81-0.89,1.12-1.3c0.21-0.27,0.43-0.67,0.66-1.1
				c0.25-0.46,0.51-0.92,0.79-1.36c0.46-0.71,0.92-1.48,1.45-2.43c0.2-0.35,0.4-0.7,0.61-1.05c0.3-0.5,0.59-0.98,0.79-1.42
				c0.23-0.5,0.44-1.05,0.66-1.64c0.12-0.31,0.23-0.61,0.35-0.92c0.32-0.8,0.59-1.61,0.91-2.59c0.15-0.46,0.33-0.91,0.5-1.35
				c0.18-0.45,0.35-0.88,0.45-1.24c0.16-0.58,0.27-1.17,0.39-1.75c0.07-0.32,0.13-0.64,0.2-0.96c0.09-0.42,0.15-0.91,0.22-1.42
				c0.06-0.44,0.11-0.89,0.19-1.33c0.08-0.46,0.18-0.92,0.28-1.38c0.11-0.49,0.21-0.96,0.26-1.36c0.04-0.36,0.1-0.73,0.15-1.09
				c0.08-0.56,0.16-1.13,0.21-1.69c0.04-0.52,0.05-1.05,0.06-1.57c0.01-0.42,0.02-0.83,0.04-1.25c0.03-0.59,0.1-1.14,0.16-1.63
				c0.06-0.44,0.11-0.86,0.12-1.19c0-0.29-0.04-0.69-0.09-1.11c-0.06-0.51-0.13-1.09-0.14-1.73c-0.01-0.66,0.04-1.26,0.1-1.79
				c0.04-0.41,0.08-0.8,0.06-1.07c-0.01-0.13-0.1-0.49-0.17-0.75c-0.15-0.57-0.34-1.27-0.4-2.08c-0.05-0.76,0.01-1.46,0.07-2.01
				c0.03-0.34,0.07-0.7,0.05-0.88c-0.04-0.45-0.07-0.9-0.1-1.35c-0.03-0.51-0.07-1.02-0.12-1.53c-0.02-0.14-0.11-0.46-0.19-0.72
				c-0.15-0.48-0.33-1.09-0.42-1.78c-0.1-0.79-0.23-1.55-0.35-2.31l-0.03-0.2c-0.12-0.72-0.14-1.38-0.16-1.96
				c-0.01-0.44-0.03-0.85-0.08-1.13c-0.05-0.25-0.19-0.63-0.34-1.03c-0.2-0.55-0.44-1.17-0.6-1.88c-0.09-0.39-0.17-0.78-0.25-1.17
				c-0.13-0.63-0.25-1.22-0.4-1.76c-0.14-0.52-0.25-1.04-0.36-1.57c-0.1-0.5-0.2-0.97-0.32-1.33c-0.09-0.25-0.29-0.62-0.51-1.01
				c-0.26-0.47-0.56-1-0.82-1.61c-0.14-0.34-0.28-0.67-0.41-1.01c-0.24-0.6-0.46-1.16-0.71-1.64c-0.4-0.76-0.88-1.52-1.47-2.42
				c-0.24-0.38-0.58-0.78-0.93-1.21c-0.18-0.22-0.35-0.43-0.53-0.65c-0.36-0.46-0.63-0.89-0.87-1.28c-0.16-0.26-0.36-0.58-0.46-0.69
				c-0.22-0.23-0.57-0.5-0.94-0.78c-0.3-0.23-0.6-0.46-0.89-0.71c-0.4-0.34-0.89-0.67-1.42-1.02l-0.48-0.32
				c-0.77-0.53-1.6-1.08-2.44-1.45c-1.53-0.69-2.7-1.38-3.7-2.18c-1.64-1.3-2.58-2.96-2.9-5.05c-0.1-0.7-0.15-1.34-0.19-1.97
				c-0.03-0.46-0.06-0.93-0.13-1.38c-0.09-0.62-0.27-1.31-0.46-2.04l-0.17-0.67c-0.11-0.45-0.32-0.98-0.55-1.54
				c-0.14-0.35-0.28-0.7-0.41-1.05c-0.31-0.86-0.73-1.75-1.1-2.51c-0.27-0.56-0.46-1.09-0.63-1.55c-0.14-0.4-0.29-0.82-0.42-1.02
				c-0.42-0.69-0.95-1.43-1.59-2.27c-0.54-0.7-1.15-1.4-1.81-2.1c-0.26-0.28-0.66-0.58-1.08-0.91c-0.35-0.27-0.7-0.54-1.04-0.83
				c-0.33-0.29-0.66-0.59-0.98-0.9c-0.39-0.37-0.75-0.72-1.07-0.94c-0.18-0.13-0.57-0.29-0.95-0.44c-0.47-0.19-1-0.41-1.55-0.72
				c-0.42-0.23-0.83-0.49-1.23-0.75c-0.42-0.27-0.81-0.53-1.12-0.66c-0.3-0.13-0.75-0.24-1.23-0.35c-0.48-0.11-0.95-0.23-1.41-0.38
				c-0.29-0.09-0.57-0.19-0.86-0.28c-0.63-0.21-1.22-0.41-1.75-0.52c-0.33-0.07-0.66-0.15-0.99-0.22c-0.61-0.14-1.19-0.28-1.69-0.33
				c-0.71-0.07-1.41-0.14-2.08-0.17c-0.23,0.05-0.46,0.07-0.71,0.07c-1.74,0-3.44-0.38-5.05-1.14c-1.32-0.62-2.99-1.54-4.27-3.16
				c-0.25-0.32-0.49-0.65-0.73-0.98c-0.32-0.45-0.63-0.87-0.91-1.16c-0.29-0.31-0.71-0.63-1.15-0.98c-0.31-0.25-0.63-0.49-0.93-0.75
				c-0.33-0.28-0.64-0.57-0.96-0.87c-0.39-0.36-0.75-0.71-1.07-0.92c-0.71-0.49-1.53-0.94-2.33-1.38c-0.41-0.23-0.93-0.43-1.49-0.65
				c-0.33-0.13-0.67-0.26-1-0.4c-0.32-0.14-0.64-0.29-0.96-0.43c-0.55-0.25-1.06-0.49-1.52-0.63c-0.44-0.14-0.99-0.23-1.58-0.33
				c-0.35-0.06-0.71-0.12-1.06-0.19c-0.4-0.08-0.79-0.18-1.18-0.27c-0.54-0.13-1.05-0.26-1.46-0.3c-0.49-0.05-1.09-0.04-1.71-0.02
				c-0.99,0.02-1.99,0.04-3.12,0.15l-0.3,0.03c-0.55,0.05-1.06,0.05-1.5,0.04c-0.37,0-0.75,0-0.94,0.03
				c-0.43,0.08-0.94,0.23-1.47,0.39c-0.29,0.09-0.59,0.18-0.88,0.26c-0.34,0.1-0.69,0.18-1.04,0.26c-0.5,0.12-0.97,0.23-1.32,0.37
				c-0.14,0.05-0.46,0.26-0.71,0.42c-0.4,0.26-0.85,0.55-1.4,0.82c-0.33,0.16-0.67,0.31-1,0.46c-0.45,0.2-0.88,0.39-1.2,0.58
				c-1,0.61-2.25,1.36-3.8,1.65c-1.44,0.27-2.76,0-3.71-0.18l-0.41-0.08c-1.39-0.25-2.68-0.74-3.82-1.43
				c-0.68-0.41-1.4-0.8-2.14-1.16c-0.29-0.14-0.58-0.29-0.86-0.44c-0.48-0.25-0.94-0.49-1.33-0.64c-0.43-0.16-0.96-0.3-1.53-0.45
				c-0.28-0.07-0.55-0.14-0.82-0.22c-0.79-0.22-1.6-0.45-2.37-0.59l-0.33-0.06c-0.74-0.14-1.44-0.26-2.09-0.32
				c-0.34-0.03-0.79-0.01-1.27,0.01c-1.06,0.05-2.12,0.06-3.34,0.19l-0.53,0.05c-0.58,0.06-1.11,0.06-1.58,0.07
				c-0.45,0-0.88,0.01-1.14,0.06c-0.15,0.03-0.55,0.22-0.84,0.35c-0.48,0.23-1.03,0.49-1.68,0.69c-0.79,0.25-1.71,0.54-2.53,0.89
				c-0.42,0.18-0.84,0.33-1.27,0.49c-0.48,0.17-0.94,0.34-1.25,0.51c-0.61,0.33-1.24,0.77-1.9,1.23l-0.36,0.25
				c-0.36,0.25-0.77,0.62-1.19,1c-0.28,0.26-0.56,0.51-0.86,0.76c-0.36,0.31-0.75,0.59-1.13,0.88c-0.4,0.29-0.77,0.57-0.99,0.8
				c-0.21,0.22-0.43,0.43-0.64,0.65c-0.46,0.46-0.9,0.9-1.23,1.32c-0.81,1.03-2.04,2.59-3.96,3.49c-1.46,0.69-3.16,1.01-5.14,1.01
				c-0.26,0-0.52-0.03-0.77-0.09c-0.13,0.02-0.27,0.05-0.41,0.08c-0.47,0.09-0.99,0.2-1.57,0.26c-0.45,0.05-0.9,0.07-1.35,0.09
				c-0.53,0.03-1.02,0.05-1.38,0.12c-0.78,0.16-1.65,0.4-2.66,0.71c-0.82,0.26-1.69,0.58-2.58,0.97l-0.69,0.29
				c-0.67,0.28-1.29,0.54-1.82,0.83c-0.31,0.17-0.7,0.48-1.11,0.8c-0.36,0.29-0.73,0.57-1.11,0.83c-0.3,0.21-0.6,0.41-0.91,0.61
				c-0.51,0.33-0.99,0.64-1.34,0.95c-0.18,0.15-0.44,0.5-0.7,0.83c-0.3,0.39-0.64,0.83-1.06,1.28c-0.69,0.73-1.26,1.36-1.77,2.01
				c-0.19,0.25-0.39,0.49-0.58,0.74c-0.4,0.5-0.77,0.96-1.05,1.4c-0.18,0.29-0.36,0.57-0.55,0.85c-0.34,0.52-0.66,1-0.88,1.44
				c-0.2,0.41-0.38,0.94-0.57,1.49c-0.12,0.35-0.24,0.69-0.36,1.03c-0.32,0.85-0.53,1.59-0.65,2.27c-0.08,0.44-0.17,0.87-0.26,1.3
				c-0.11,0.51-0.22,1.02-0.29,1.53c-0.14,1.01-0.3,2.15-0.59,3.32l-0.13,0.53c-0.34,1.38-0.69,2.81-1.8,4.04
				c-1.02,1.12-2.23,1.67-3.52,2.24l-0.48,0.22c-0.73,0.33-1.69,0.78-2.56,1.3c-0.79,0.47-1.59,1.01-2.37,1.6
				c-0.8,0.6-1.53,1.22-2.19,1.84c-0.27,0.26-0.58,0.67-0.91,1.11c-0.28,0.38-0.56,0.75-0.86,1.11c-0.27,0.33-0.56,0.64-0.85,0.96
				c-0.38,0.42-0.75,0.82-0.98,1.17c-0.52,0.77-1.06,1.6-1.5,2.42c-0.5,0.93-0.94,1.76-1.29,2.57c-0.23,0.55-0.44,1.18-0.65,1.85
				c-0.1,0.3-0.2,0.61-0.3,0.91c-0.13,0.38-0.23,0.88-0.34,1.4c-0.1,0.49-0.2,0.98-0.33,1.47c-0.19,0.7-0.43,1.3-0.65,1.83
				c-0.16,0.38-0.32,0.76-0.37,0.99c-0.08,0.38-0.11,0.86-0.15,1.37c-0.04,0.55-0.09,1.09-0.17,1.63c-0.08,0.56-0.21,1.11-0.33,1.66
				c-0.11,0.49-0.22,0.95-0.26,1.32c-0.02,0.2,0,0.57,0.03,0.93c0.04,0.55,0.08,1.17,0.03,1.87c-0.04,0.51-0.04,1.01-0.05,1.52
				c-0.01,0.42-0.01,0.85-0.03,1.27c-0.03,0.71-0.14,1.32-0.24,1.87c-0.07,0.37-0.13,0.72-0.13,0.93c-0.01,0.47-0.03,0.95-0.06,1.42
				c-0.02,0.47-0.05,0.93-0.05,1.4c0,0.45,0.04,0.9,0.08,1.34c0.04,0.5,0.08,0.99,0.09,1.49c0.01,0.26,0.07,0.63,0.14,1.02
				c0.09,0.53,0.19,1.13,0.22,1.81c0.02,0.48,0.03,0.97,0.04,1.46c0.01,0.46,0.01,0.93,0.04,1.39c0.04,0.65,0.02,1.25,0,1.78
				c-0.02,0.41-0.03,0.8-0.01,1.09c0.03,0.43,0.09,0.85,0.15,1.27c0.07,0.53,0.14,1.06,0.18,1.59c0.05,0.63,0.05,1.22,0.04,1.75
				c0,0.42-0.01,0.82,0.02,1.15c0.02,0.22,0.13,0.61,0.24,0.99c0.15,0.52,0.32,1.11,0.42,1.78c0.13,0.89,0.29,1.84,0.49,2.77
				l0.11,0.48c0.18,0.8,0.34,1.56,0.55,2.25c0.11,0.37,0.21,0.74,0.31,1.11c0.16,0.58,0.3,1.13,0.48,1.59
				c0.33,0.88,0.7,1.76,1.08,2.6c0.13,0.29,0.37,0.65,0.63,1.04c0.27,0.4,0.57,0.85,0.85,1.37c0.31,0.57,0.54,1.12,0.73,1.61
				c0.16,0.39,0.31,0.76,0.44,0.97c0.15,0.23,0.43,0.54,0.73,0.87c0.34,0.38,0.73,0.8,1.1,1.31c0.27,0.37,0.52,0.75,0.78,1.12
				c0.3,0.45,0.58,0.87,0.85,1.2c0.3,0.36,0.68,0.73,1.08,1.12c0.31,0.3,0.61,0.6,0.91,0.92c0.26,0.27,0.51,0.55,0.76,0.83
				c0.41,0.46,0.8,0.89,1.19,1.26c0.28,0.27,0.56,0.54,0.83,0.82c0.43,0.43,0.84,0.83,1.24,1.17c0.23,0.19,0.58,0.41,0.96,0.65
				c0.44,0.27,0.93,0.58,1.43,0.97c0.53,0.41,0.97,0.84,1.35,1.21c0.3,0.3,0.59,0.58,0.81,0.73c0.59,0.41,1.2,0.79,1.82,1.18
				l0.63,0.39c0.41,0.26,0.81,0.54,1.21,0.82c0.43,0.3,0.84,0.59,1.21,0.8c0.69,0.4,1.4,0.76,2.11,1.13l0.47,0.25
				c0.36,0.19,0.8,0.37,1.27,0.56c0.48,0.19,0.95,0.39,1.42,0.61c0.37,0.18,0.82,0.34,1.29,0.51c0.48,0.18,0.96,0.35,1.44,0.56
				c0.64,0.28,1.18,0.59,1.66,0.87c0.36,0.21,0.71,0.41,0.95,0.51c0.38,0.15,0.84,0.28,1.32,0.42c0.5,0.14,1,0.29,1.49,0.46
				c0.52,0.18,1.02,0.4,1.53,0.62c0.44,0.19,0.85,0.37,1.21,0.48c0.84,0.27,1.69,0.52,2.53,0.77l0.3,0.09c0.22,0.07,0.6,0.11,1,0.16
				c0.57,0.07,1.22,0.15,1.93,0.34c0.75,0.2,1.4,0.5,1.91,0.73c0.33,0.15,0.67,0.3,0.86,0.35c0.45,0.11,0.91,0.19,1.37,0.26
				c0.52,0.09,1.03,0.18,1.54,0.29c0.39,0.09,0.84,0.15,1.32,0.22c0.54,0.07,1.08,0.15,1.61,0.26c0.48,0.1,0.97,0.16,1.45,0.23
				c0.49,0.07,0.99,0.14,1.48,0.23c0.56,0.1,1.11,0.24,1.66,0.39c0.45,0.12,0.88,0.23,1.24,0.29c0.54,0.09,1.08,0.16,1.63,0.22
				c0.44,0.06,0.88,0.11,1.32,0.17c0.66,0.09,1.26,0.25,1.79,0.38c0.42,0.11,0.82,0.21,1.13,0.25c0.26,0.03,0.65,0.03,1.06,0.02
				c0.57-0.01,1.22-0.02,1.93,0.06c0.56,0.06,1.12,0.16,1.68,0.26c0.46,0.08,0.9,0.16,1.28,0.2c0.99,0.1,1.99,0.18,2.98,0.26
				c0.54,0.04,1.08,0.12,1.62,0.19c0.45,0.06,0.91,0.13,1.36,0.16c0.47,0.03,0.95,0.04,1.43,0.04c0.53,0.01,1.05,0.02,1.57,0.04
				c0.46,0.03,0.93,0.06,1.39,0.09c0.53,0.04,1.07,0.08,1.6,0.1c0.49,0.02,0.99,0.02,1.48,0.02c0.51,0,1.01,0,1.52,0.02
				c0.33,0.01,0.75-0.02,1.18-0.05C101.7,170.17,102.22,170.13,102.78,170.13z"/>
		</g>
		<path class="st7" d="M187.86,65.99l-0.36-0.65c-0.22-0.39-0.43-0.78-0.65-1.15c-0.15-0.26-0.28-0.52-0.42-0.77
			c-0.18-0.35-0.36-0.69-0.55-1.01c0.85-0.67,1.31-1.78,1.09-2.91c-0.32-1.63-1.9-2.69-3.52-2.37c-0.3,0.06-0.59,0.1-0.89,0.14
			c-0.01,0-0.02,0-0.03,0c-0.04-0.06-0.08-0.13-0.12-0.19c-0.28-0.41-0.58-0.79-0.87-1.17c-0.14-0.18-0.28-0.36-0.41-0.53
			c-0.15-0.2-0.29-0.4-0.43-0.61c-0.26-0.38-0.53-0.76-0.82-1.12c-0.28-0.35-0.59-0.68-0.91-1.02c-0.17-0.18-0.35-0.36-0.51-0.56
			c-0.16-0.19-0.31-0.39-0.46-0.59c-0.27-0.35-0.54-0.71-0.84-1.05c-0.17-0.2-0.34-0.41-0.52-0.62c-0.26-0.32-0.53-0.65-0.82-0.97
			c-0.24-0.27-0.5-0.54-0.77-0.82c-0.21-0.22-0.43-0.44-0.64-0.68c-0.24-0.27-0.51-0.53-0.77-0.8c-0.21-0.22-0.43-0.44-0.64-0.67
			c-0.17-0.18-0.32-0.38-0.48-0.58c-0.26-0.33-0.53-0.67-0.82-0.99c-0.22-0.24-0.44-0.48-0.67-0.73c-0.23-0.25-0.47-0.5-0.71-0.77
			c-0.27-0.3-0.57-0.58-0.88-0.87c-0.19-0.18-0.39-0.36-0.58-0.56l-1.36-1.51c-1.11-1.23-3-1.33-4.24-0.22s-1.33,3-0.22,4.24
			l1.37,1.53c0.3,0.33,0.63,0.64,0.95,0.94c0.18,0.17,0.36,0.33,0.52,0.5c0.26,0.29,0.52,0.56,0.77,0.84
			c0.21,0.22,0.42,0.45,0.62,0.67c0.19,0.21,0.37,0.43,0.54,0.65c0.25,0.32,0.5,0.63,0.76,0.92c0.27,0.3,0.54,0.58,0.81,0.85
			c0.21,0.21,0.41,0.41,0.6,0.62c0.25,0.28,0.51,0.54,0.76,0.8c0.22,0.23,0.43,0.45,0.63,0.67c0.23,0.25,0.44,0.51,0.64,0.76
			c0.22,0.27,0.43,0.53,0.65,0.78c0.21,0.24,0.4,0.49,0.58,0.73c0.21,0.28,0.43,0.56,0.65,0.82c0.24,0.29,0.5,0.56,0.76,0.83
			c0.19,0.2,0.39,0.4,0.56,0.61c0.2,0.25,0.38,0.52,0.57,0.79c0.05,0.07,0.1,0.14,0.15,0.21c-0.1,0.02-0.2,0.03-0.3,0.06
			c-0.43,0.09-0.85,0.21-1.27,0.34c-0.23,0.07-0.46,0.14-0.7,0.2c-0.22,0.05-0.45,0.1-0.68,0.15c-0.45,0.1-0.89,0.19-1.37,0.32
			c-0.65,0.17-1.31,0.35-1.97,0.55c-0.65,0.2-1.31,0.42-1.98,0.65c-0.64,0.22-1.3,0.45-1.96,0.71c-0.21,0.08-0.42,0.16-0.64,0.23
			c-0.44,0.16-0.88,0.31-1.32,0.5c-0.01,0-0.01,0.01-0.02,0.01c-0.01,0-0.01-0.01-0.02-0.01c-0.14-0.1-0.32-0.24-0.38-0.3
			c-0.13-0.14-0.24-0.3-0.36-0.46c-0.23-0.32-0.52-0.72-0.91-1.11c-0.16-0.17-0.31-0.35-0.46-0.53c-0.28-0.34-0.56-0.67-0.86-0.98
			c-0.29-0.3-0.61-0.57-0.92-0.85c-0.19-0.17-0.38-0.33-0.57-0.51c-0.31-0.31-0.65-0.59-0.99-0.87c-0.18-0.15-0.36-0.29-0.53-0.45
			c-0.06-0.06-0.2-0.25-0.3-0.39c-0.25-0.34-0.55-0.76-0.98-1.17c-0.28-0.27-0.57-0.53-0.86-0.79c-0.21-0.19-0.42-0.37-0.62-0.56
			c-0.47-0.44-0.96-0.74-1.31-0.96c-0.12-0.07-0.24-0.14-0.33-0.21l-0.53-0.5c-0.31-0.29-0.62-0.58-0.93-0.87
			c-0.17-0.16-0.32-0.33-0.47-0.5c-0.26-0.29-0.55-0.62-0.92-0.95c-0.18-0.16-0.34-0.34-0.51-0.52c-0.29-0.31-0.59-0.62-0.9-0.9
			c-0.29-0.26-0.59-0.51-0.88-0.76c-0.21-0.18-0.42-0.36-0.63-0.54c-0.33-0.29-0.66-0.57-0.98-0.85l-0.4-0.35
			c0.25-0.08,0.5-0.17,0.75-0.25c0.31-0.1,0.63-0.2,0.94-0.31c0.8-0.27,1.38-0.72,1.76-1.02c0.05-0.04,0.11-0.08,0.16-0.12
			c0.31-0.11,0.61-0.23,0.91-0.35c0.23-0.09,0.46-0.18,0.69-0.27c0.09-0.01,0.17-0.01,0.26-0.01c0.48-0.01,1.14-0.03,1.88-0.27
			c0.55-0.18,1-0.42,1.37-0.61c0.16-0.09,0.39-0.2,0.47-0.23c1.58-0.51,2.44-2.21,1.93-3.78c-0.51-1.58-2.2-2.44-3.78-1.93
			c-0.56,0.18-1.02,0.42-1.4,0.62c-0.12,0.07-0.28,0.15-0.39,0.2c-0.08,0.01-0.16,0-0.25,0.01c-0.48,0.01-1.14,0.03-1.88,0.28
			c-0.38,0.13-0.75,0.27-1.13,0.42c-0.25,0.1-0.51,0.2-0.77,0.29c-0.81,0.27-1.4,0.73-1.78,1.03c-0.05,0.04-0.1,0.08-0.15,0.12
			c-0.24,0.08-0.47,0.16-0.71,0.23c-0.35,0.11-0.7,0.23-1.04,0.35c-0.08,0.03-0.32,0.07-0.49,0.09c-0.42,0.07-0.93,0.15-1.5,0.35
			c-0.1,0.04-0.34,0.08-0.55,0.12c-0.3,0.06-0.65,0.14-1.03,0.24c-0.17-0.15-0.33-0.31-0.51-0.46c-0.21-0.17-0.41-0.35-0.61-0.53
			c-0.3-0.27-0.59-0.54-0.9-0.78c-0.54-0.44-1.09-0.7-1.49-0.88c-0.11-0.05-0.22-0.1-0.27-0.12c-0.06-0.05-0.22-0.23-0.33-0.35
			c-0.28-0.31-0.62-0.7-1.09-1.07c-0.46-0.37-0.92-0.61-1.28-0.81c-0.15-0.08-0.36-0.2-0.39-0.22c-0.09-0.09-0.17-0.19-0.25-0.29
			c-0.27-0.33-0.65-0.79-1.18-1.19c-0.45-0.35-0.89-0.59-1.25-0.78c-0.18-0.1-0.38-0.21-0.46-0.27c-0.23-0.17-0.45-0.35-0.68-0.53
			c-0.3-0.24-0.59-0.48-0.89-0.7c-0.43-0.32-0.85-0.56-1.19-0.75c-0.18-0.1-0.35-0.19-0.52-0.31c-0.21-0.15-0.41-0.32-0.6-0.49
			c-0.31-0.26-0.62-0.52-0.95-0.76c-0.23-0.17-0.46-0.35-0.68-0.52c-0.3-0.24-0.6-0.47-0.91-0.69c-0.21-0.15-0.41-0.32-0.61-0.48
			c-0.32-0.26-0.63-0.52-0.96-0.75c-1.35-0.96-3.22-0.64-4.18,0.71s-0.64,3.22,0.71,4.18c0.21,0.15,0.4,0.31,0.6,0.48
			c0.31,0.25,0.61,0.51,0.94,0.74c0.23,0.17,0.46,0.35,0.69,0.53c0.28,0.22,0.57,0.45,0.86,0.66c0.21,0.15,0.4,0.32,0.6,0.49
			c0.3,0.26,0.61,0.51,0.93,0.75c0.41,0.3,0.81,0.53,1.14,0.71c0.18,0.1,0.37,0.2,0.54,0.33c0.24,0.18,0.48,0.37,0.72,0.56
			c0.27,0.22,0.54,0.44,0.82,0.65c0.43,0.33,0.86,0.56,1.2,0.75c0.19,0.1,0.39,0.22,0.44,0.25c0.09,0.08,0.16,0.19,0.25,0.29
			c0.27,0.33,0.64,0.78,1.17,1.19c0.45,0.35,0.89,0.58,1.24,0.78c0.16,0.09,0.37,0.2,0.44,0.25c0.06,0.05,0.21,0.22,0.32,0.34
			c0.27,0.31,0.62,0.69,1.07,1.05c0.33,0.27,0.67,0.46,0.97,0.62c-0.08,0.02-0.16,0.05-0.24,0.07c-0.4,0.12-0.81,0.23-1.2,0.38
			c-0.39,0.14-0.77,0.31-1.14,0.48c-0.24,0.11-0.48,0.22-0.72,0.31c-0.2,0.07-0.4,0.12-0.61,0.17c-0.38,0.09-0.85,0.21-1.35,0.4
			c-0.22,0.08-0.45,0.14-0.68,0.21c-0.43,0.12-0.85,0.24-1.26,0.4c-0.85,0.33-1.42,0.87-1.8,1.24c-0.01,0-0.02,0-0.03,0
			c-0.48,0.04-1.15,0.1-1.87,0.39c-0.71,0.29-1.23,0.69-1.6,0.99c-0.02,0.02-0.04,0.03-0.06,0.05c0,0-0.01,0-0.01,0
			c-0.52,0.01-1.3,0.02-2.14,0.37c-0.67,0.28-1.17,0.66-1.54,0.94c-0.09,0.07-0.19,0.15-0.2,0.17c-0.25,0.11-0.51,0.2-0.76,0.29
			c-0.38,0.14-0.76,0.28-1.13,0.44c-0.61,0.27-1.09,0.61-1.44,0.87c-0.11,0.08-0.22,0.17-0.3,0.22c-0.19,0.08-0.4,0.14-0.6,0.2
			c-0.37,0.11-0.83,0.25-1.32,0.47c-0.24,0.11-0.48,0.19-0.73,0.29c-0.39,0.14-0.78,0.29-1.17,0.47c-0.19,0.09-0.4,0.15-0.6,0.21
			c-0.37,0.12-0.83,0.27-1.31,0.49c-0.23,0.11-0.47,0.2-0.71,0.29c-0.4,0.15-0.8,0.31-1.18,0.49c-0.58,0.28-1.04,0.62-1.38,0.88
			c-0.12,0.09-0.23,0.18-0.34,0.25c-0.22,0.11-0.45,0.19-0.67,0.28c-0.41,0.16-0.81,0.31-1.2,0.51c-0.26,0.13-0.51,0.25-0.77,0.37
			c-0.35,0.17-0.71,0.34-1.06,0.51c-0.35,0.18-0.69,0.36-1.04,0.55c-0.25,0.14-0.51,0.27-0.76,0.4c-0.26,0.13-0.52,0.26-0.77,0.39
			c-0.14,0.07-0.29,0.15-0.43,0.22c-0.1-0.15-0.21-0.29-0.31-0.44c-0.24-0.36-0.49-0.72-0.76-1.06c-0.32-0.41-0.65-0.73-0.94-1.02
			c-0.15-0.16-0.31-0.31-0.45-0.47c-0.15-0.18-0.29-0.37-0.43-0.56c-0.27-0.36-0.53-0.72-0.83-1.05c-0.16-0.18-0.32-0.37-0.47-0.56
			c-0.28-0.34-0.56-0.68-0.86-1c-0.3-0.32-0.63-0.63-0.95-0.93c-0.17-0.17-0.35-0.33-0.52-0.5c-0.31-0.31-0.64-0.6-0.97-0.89
			c-0.18-0.16-0.37-0.32-0.55-0.49c-0.16-0.15-0.3-0.32-0.45-0.48c-0.27-0.3-0.59-0.65-0.97-0.99c-0.36-0.32-0.73-0.62-1.1-0.93
			l-0.47-0.39c-0.4-0.34-0.79-0.59-1.14-0.81c-0.18-0.12-0.36-0.23-0.53-0.36c-0.52-0.42-1.05-0.83-1.59-1.25
			c-0.19-0.15-0.38-0.31-0.57-0.47c-0.17-0.14-0.35-0.28-0.53-0.42c0.12-0.06,0.23-0.12,0.35-0.18c0.34-0.18,0.66-0.39,0.98-0.59
			c0.23-0.14,0.45-0.29,0.68-0.41l0.42-0.22c0.43-0.23,0.86-0.46,1.3-0.68c0.25-0.13,0.5-0.26,0.75-0.38
			c0.33-0.17,0.65-0.34,0.98-0.5c0.22-0.11,0.45-0.19,0.69-0.28c0.38-0.14,0.76-0.29,1.12-0.46c0.21-0.1,0.43-0.17,0.65-0.24
			c0.4-0.13,0.79-0.27,1.17-0.45c0.44-0.2,0.89-0.39,1.34-0.58l0.44-0.19c0.58-0.25,1.04-0.58,1.38-0.81
			c0.11-0.08,0.22-0.16,0.3-0.21c0.29-0.12,0.58-0.25,0.88-0.38c0.3-0.13,0.6-0.27,0.89-0.39c0.07-0.03,0.29-0.07,0.46-0.1
			c0.4-0.08,0.9-0.17,1.45-0.38c0.38-0.15,0.76-0.32,1.13-0.51c0.21-0.1,0.42-0.21,0.65-0.29c0.35-0.13,0.7-0.28,1.05-0.43
			c0.25-0.11,0.49-0.22,0.75-0.31c0.22-0.08,0.46-0.12,0.69-0.18c0.4-0.09,0.8-0.19,1.19-0.31c1.58-0.51,2.44-2.2,1.93-3.78
			s-2.21-2.44-3.78-1.93c-0.22,0.07-0.44,0.12-0.67,0.17c-0.39,0.09-0.83,0.19-1.31,0.35C99.8,29,99.4,29.17,99,29.34
			c-0.23,0.1-0.45,0.2-0.68,0.28c-0.48,0.17-0.89,0.37-1.25,0.55c-0.2,0.1-0.4,0.2-0.61,0.28c-0.07,0.03-0.3,0.07-0.46,0.1
			c-0.42,0.08-0.95,0.18-1.53,0.41c-0.38,0.15-0.76,0.32-1.14,0.49c-0.24,0.11-0.49,0.22-0.73,0.32c-0.62,0.26-1.1,0.6-1.45,0.84
			c-0.11,0.08-0.22,0.16-0.31,0.21l-0.43,0.19c-0.48,0.21-0.96,0.41-1.43,0.63c-0.2,0.09-0.42,0.16-0.63,0.23
			c-0.38,0.13-0.81,0.28-1.28,0.49c-0.21,0.1-0.44,0.18-0.66,0.26c-0.42,0.15-0.83,0.31-1.23,0.51c-0.38,0.18-0.75,0.38-1.13,0.57
			l-0.68,0.35c-0.46,0.23-0.92,0.48-1.38,0.72L81.59,37c-0.38,0.2-0.75,0.43-1.11,0.66c-0.21,0.13-0.42,0.27-0.63,0.38
			c-0.23,0.13-0.48,0.25-0.71,0.36c-0.37,0.18-0.73,0.36-1.09,0.57c-0.35,0.2-0.7,0.41-1.04,0.63c-0.02,0.01-0.04,0.02-0.05,0.03
			c-0.32-0.21-0.65-0.41-0.98-0.61c-0.24-0.14-0.47-0.28-0.71-0.44c-0.23-0.15-0.45-0.3-0.68-0.45c-0.32-0.22-0.65-0.43-0.98-0.65
			c-0.32-0.2-0.64-0.39-0.97-0.59c-0.24-0.14-0.49-0.29-0.73-0.44c-1.41-0.87-3.26-0.44-4.13,0.97c-0.87,1.41-0.44,3.26,0.97,4.13
			c0.28,0.17,0.55,0.33,0.82,0.5c0.28,0.17,0.56,0.33,0.84,0.51c0.28,0.18,0.56,0.37,0.83,0.55c0.03,0.02,0.06,0.04,0.09,0.06
			c-0.05,0.06-0.1,0.11-0.11,0.13c-0.13,0.08-0.28,0.13-0.42,0.19c-0.4,0.16-0.9,0.37-1.41,0.71c-0.51,0.33-0.89,0.69-1.2,0.99
			c-0.12,0.12-0.29,0.28-0.31,0.29c-0.11,0.06-0.23,0.09-0.34,0.14c-0.42,0.16-0.99,0.37-1.56,0.77c-0.48,0.33-0.85,0.69-1.15,0.97
			c-0.14,0.13-0.31,0.3-0.4,0.36c-0.23,0.16-0.46,0.31-0.69,0.46c-0.33,0.22-0.66,0.44-0.98,0.67c-0.44,0.32-0.8,0.66-1.09,0.93
			c-0.14,0.14-0.28,0.28-0.44,0.4c-0.2,0.15-0.41,0.28-0.62,0.41c-0.36,0.23-0.72,0.46-1.05,0.71c-0.22,0.16-0.44,0.32-0.67,0.47
			c-0.33,0.23-0.66,0.46-0.98,0.7c-0.2,0.15-0.41,0.29-0.62,0.43c-0.35,0.23-0.71,0.47-1.04,0.73c-0.21,0.17-0.43,0.32-0.65,0.48
			c-0.33,0.23-0.65,0.47-0.97,0.72c-0.41,0.33-0.75,0.68-1.02,0.95c-0.15,0.15-0.29,0.31-0.45,0.44c-0.21,0.17-0.42,0.33-0.64,0.48
			c-0.33,0.24-0.65,0.48-0.96,0.74l-0.62,0.5c-0.31,0.26-0.63,0.51-0.94,0.77c-0.3,0.25-0.6,0.51-0.9,0.78l-1.25,1.06
			c-0.31,0.26-0.61,0.51-0.91,0.77c-0.19,0.17-0.4,0.32-0.61,0.48c-0.33,0.25-0.66,0.5-0.97,0.77c-0.41,0.36-0.73,0.73-0.99,1.03
			c-0.13,0.15-0.25,0.3-0.4,0.43c-0.37,0.33-0.67,0.66-0.93,0.95c-0.15,0.17-0.3,0.34-0.47,0.49c-0.06,0.06-0.27,0.19-0.42,0.28
			c-0.34,0.22-0.75,0.49-1.18,0.86c-0.18-0.08-0.37-0.17-0.57-0.24c-0.2-0.08-0.39-0.15-0.58-0.23c-0.49-0.2-0.96-0.38-1.43-0.53
			c-1.58-0.49-3.26,0.39-3.75,1.98c-0.49,1.58,0.4,3.26,1.98,3.75c0.31,0.1,0.63,0.23,0.95,0.36c0.23,0.09,0.46,0.19,0.7,0.28
			c0.26,0.1,0.51,0.23,0.77,0.35c0.22,0.11,0.45,0.22,0.68,0.33c0.5,0.41,1.09,0.64,1.71,0.69c0.06,0.03,0.13,0.05,0.19,0.08
			c0.26,0.13,0.51,0.28,0.76,0.43c0.28,0.17,0.56,0.33,0.86,0.49c0.24,0.12,0.48,0.25,0.72,0.37c0.31,0.16,0.62,0.31,0.93,0.49
			c0.24,0.14,0.46,0.3,0.69,0.45c0.29,0.2,0.57,0.39,0.87,0.58c0.33,0.2,0.67,0.38,1.02,0.55c0.21,0.11,0.43,0.21,0.64,0.34
			l0.6,0.38c0.33,0.21,0.66,0.42,0.98,0.64c0.24,0.17,0.48,0.36,0.71,0.54c0.26,0.2,0.51,0.41,0.78,0.6
			c0.45,0.33,0.9,0.67,1.34,1.02l0.15,0.12c0.32,0.25,0.63,0.51,0.95,0.77l0.51,0.42c0.49,0.39,0.97,0.79,1.44,1.2
			c0.28,0.24,0.54,0.49,0.81,0.74c0.19,0.18,0.38,0.36,0.57,0.53c0.22,0.2,0.45,0.38,0.68,0.56c-0.41,0.17-0.92,0.4-1.43,0.8
			c-0.62,0.48-1,1.02-1.28,1.41c-0.02,0.03-0.04,0.06-0.06,0.09c-0.02,0.01-0.04,0.01-0.07,0.02c-0.46,0.16-1.16,0.4-1.83,0.93
			c-0.21,0.17-0.44,0.33-0.66,0.48c-0.33,0.23-0.66,0.47-0.97,0.72c-0.56,0.45-0.93,0.94-1.2,1.31c-0.07,0.09-0.13,0.19-0.21,0.27
			c-1.25,1.05-1.43,2.91-0.4,4.18c0.59,0.73,1.46,1.11,2.33,1.11c0.66,0,1.33-0.22,1.89-0.67c0.55-0.45,0.92-0.94,1.19-1.29
			c0.07-0.1,0.14-0.2,0.16-0.22c0.22-0.18,0.46-0.35,0.69-0.51c0.26-0.19,0.52-0.37,0.77-0.57c0.06-0.02,0.13-0.04,0.2-0.07
			c0.46-0.16,1.14-0.39,1.8-0.91c0.61-0.48,0.99-1.01,1.27-1.4c0.03-0.05,0.06-0.09,0.1-0.14c0.06-0.03,0.12-0.05,0.19-0.08
			c0.42-0.17,1.01-0.41,1.58-0.85c0.08-0.06,0.16-0.13,0.23-0.2c0.09,0.11,0.18,0.22,0.27,0.33c0.4,0.47,0.8,0.94,1.17,1.42
			c0.59,0.75,1.47,1.15,2.36,1.15c0.65,0,1.3-0.21,1.85-0.64c1.3-1.02,1.53-2.91,0.51-4.21c-0.42-0.54-0.87-1.07-1.32-1.61
			c-0.07-0.08-0.13-0.16-0.2-0.24c0.44-0.14,0.99-0.35,1.53-0.75c0.51-0.37,0.88-0.77,1.17-1.08c0.1-0.11,0.19-0.22,0.29-0.3
			c0.53-0.38,0.92-0.8,1.2-1.12c0.09-0.1,0.18-0.21,0.22-0.25c0.11-0.06,0.24-0.11,0.36-0.15c0.4-0.16,0.95-0.38,1.5-0.76
			c0.11-0.08,0.33-0.19,0.54-0.29c0.35-0.17,0.77-0.39,1.21-0.69c0.3-0.21,0.59-0.42,0.89-0.64c0.24-0.18,0.48-0.36,0.73-0.53
			c0.24-0.16,0.49-0.3,0.73-0.45c0.33-0.19,0.65-0.39,0.96-0.59c0.31-0.21,0.62-0.43,0.92-0.65c0.23-0.17,0.46-0.34,0.7-0.5
			c0.63-0.41,1.05-0.89,1.36-1.25c0.06-0.07,0.12-0.14,0.19-0.21c0.25-0.16,0.5-0.31,0.76-0.46c0.29-0.17,0.58-0.35,0.86-0.53
			c0.21-0.13,0.44-0.24,0.66-0.36c0.37-0.19,0.74-0.38,1.08-0.59c0.07-0.04,0.28-0.12,0.44-0.18c0.39-0.15,0.87-0.34,1.38-0.65
			c0.6-0.37,1.03-0.81,1.35-1.13c0.07-0.07,0.14-0.15,0.21-0.21c0.12-0.06,0.25-0.09,0.37-0.14c0.4-0.14,0.9-0.32,1.43-0.63
			c0.19-0.11,0.39-0.19,0.59-0.27c0.34-0.15,0.77-0.33,1.21-0.58c0.62-0.36,1.06-0.79,1.38-1.1c0.06-0.06,0.13-0.13,0.16-0.16
			c0.08-0.02,0.16-0.04,0.23-0.06c0.45-0.11,1.06-0.26,1.7-0.62c0.51-0.28,0.91-0.6,1.23-0.86c0,0,0,0,0,0
			c0.12,0.14,0.25,0.28,0.36,0.44c0.16,0.24,0.33,0.48,0.5,0.72c0.2,0.28,0.39,0.57,0.58,0.86c0.15,0.23,0.28,0.47,0.41,0.71
			c0.18,0.32,0.36,0.64,0.56,0.96c0.21,0.34,0.42,0.68,0.64,1.04l0.37,0.61c0.57,0.92,1.55,1.43,2.56,1.43
			c0.53,0,1.08-0.14,1.57-0.44c1.41-0.87,1.85-2.71,0.99-4.13l-0.36-0.59c-0.23-0.38-0.46-0.75-0.69-1.12
			c-0.14-0.22-0.27-0.46-0.4-0.68c-0.2-0.36-0.4-0.71-0.62-1.05c-0.23-0.35-0.46-0.69-0.7-1.03c-0.15-0.21-0.29-0.42-0.43-0.63
			c-0.03-0.05-0.07-0.09-0.1-0.13c0.12-0.06,0.24-0.12,0.36-0.18c0.29-0.15,0.57-0.3,0.86-0.46c0.3-0.16,0.6-0.32,0.9-0.47
			c0.31-0.15,0.62-0.3,0.92-0.45c0.29-0.14,0.58-0.27,0.86-0.42c0.22-0.11,0.45-0.19,0.69-0.28c0.39-0.15,0.78-0.3,1.16-0.49
			c0.56-0.27,0.99-0.6,1.34-0.86c0.12-0.09,0.23-0.19,0.33-0.25c0.24-0.11,0.48-0.2,0.73-0.29c0.38-0.14,0.75-0.29,1.12-0.46
			c0.19-0.09,0.4-0.15,0.6-0.21c0.36-0.12,0.81-0.26,1.27-0.47c0.24-0.11,0.5-0.2,0.75-0.29c0.37-0.14,0.74-0.28,1.1-0.44
			c0.19-0.09,0.4-0.14,0.61-0.21c0.36-0.11,0.81-0.25,1.28-0.45c0.6-0.26,1.06-0.6,1.4-0.85c0.11-0.08,0.22-0.17,0.3-0.22
			c0.26-0.11,0.52-0.2,0.79-0.3c0.36-0.13,0.72-0.26,1.08-0.41c0.65-0.28,1.14-0.65,1.5-0.93c0.03-0.03,0.07-0.05,0.1-0.08
			c0.01,0,0.02,0,0.03,0c0.51-0.01,1.28-0.02,2.12-0.36c0.7-0.29,1.2-0.68,1.57-0.97c0.04-0.03,0.08-0.07,0.12-0.1
			c0.05,0,0.1-0.01,0.15-0.01c0.48-0.04,1.13-0.1,1.85-0.38c0.86-0.34,1.43-0.89,1.81-1.25c0.02-0.02,0.05-0.05,0.07-0.07
			c0.15-0.05,0.3-0.09,0.45-0.13c0.41-0.11,0.82-0.23,1.22-0.39c0.19-0.07,0.4-0.12,0.61-0.17c0.37-0.09,0.83-0.2,1.32-0.38
			c0.37-0.14,0.73-0.3,1.08-0.46c0.25-0.11,0.5-0.23,0.75-0.32c0.25-0.09,0.5-0.16,0.75-0.23c0.39-0.11,0.78-0.22,1.16-0.36
			c0.48-0.18,0.9-0.39,1.23-0.56c0.19-0.1,0.38-0.2,0.58-0.28l0.88-0.32c0.02-0.01,0.04-0.02,0.06-0.02
			c0.19,0.16,0.37,0.32,0.55,0.49c0.26,0.24,0.53,0.48,0.8,0.72c0.29,0.25,0.61,0.49,0.92,0.72c0.21,0.16,0.43,0.31,0.62,0.48
			l0.54,0.47c0.31,0.27,0.62,0.54,0.94,0.81c0.23,0.2,0.46,0.4,0.7,0.6c0.26,0.22,0.52,0.45,0.78,0.68
			c0.18,0.16,0.35,0.34,0.51,0.52c0.28,0.3,0.56,0.6,0.86,0.87c0.17,0.15,0.32,0.33,0.48,0.5c0.28,0.32,0.57,0.63,0.88,0.91
			c0.3,0.27,0.59,0.55,0.88,0.82l0.55,0.51c0.46,0.42,0.93,0.72,1.28,0.93c0.12,0.07,0.25,0.14,0.34,0.21
			c0.25,0.23,0.5,0.46,0.75,0.69c0.23,0.21,0.47,0.42,0.69,0.63c0.06,0.06,0.19,0.25,0.29,0.38c0.24,0.33,0.54,0.74,0.96,1.15
			c0.3,0.29,0.62,0.56,0.94,0.82c0.19,0.15,0.37,0.3,0.54,0.46c0.27,0.27,0.57,0.53,0.86,0.78c0.2,0.17,0.4,0.35,0.59,0.54
			c0.17,0.17,0.31,0.36,0.46,0.54c0.26,0.32,0.53,0.64,0.82,0.94c0.08,0.08,0.21,0.26,0.34,0.44c-0.4,0.22-0.75,0.44-1.05,0.65
			c-0.2,0.13-0.39,0.27-0.61,0.38c-0.22,0.12-0.44,0.23-0.67,0.35c-0.38,0.19-0.76,0.39-1.13,0.6c-0.21,0.12-0.42,0.22-0.64,0.33
			c-0.39,0.19-0.78,0.39-1.16,0.62c-0.37,0.22-0.72,0.48-1.07,0.74c-0.19,0.14-0.39,0.29-0.59,0.42c-0.21,0.13-0.43,0.24-0.65,0.36
			c-0.37,0.2-0.75,0.41-1.11,0.64c-0.22,0.14-0.45,0.28-0.68,0.42c-0.34,0.21-0.69,0.42-1.04,0.64l-0.62,0.4
			c-0.35,0.22-0.7,0.45-1.06,0.69c-1.38,0.92-1.75,2.78-0.83,4.16c0.58,0.87,1.53,1.34,2.5,1.34c0.57,0,1.15-0.16,1.66-0.5
			c0.33-0.22,0.66-0.43,0.98-0.64l0.66-0.42c0.28-0.18,0.56-0.35,0.84-0.52c0.28-0.17,0.55-0.33,0.82-0.5
			c0.24-0.15,0.49-0.29,0.74-0.42c0.33-0.18,0.65-0.35,0.95-0.54c0.35-0.22,0.69-0.46,1.02-0.71c0.19-0.14,0.38-0.29,0.58-0.41
			c0.25-0.15,0.5-0.27,0.75-0.39c0.33-0.16,0.65-0.33,0.96-0.51c0.28-0.16,0.57-0.31,0.85-0.45c0.29-0.15,0.58-0.29,0.85-0.45
			c0.36-0.2,0.7-0.42,1.03-0.64c0.2-0.13,0.39-0.27,0.6-0.37c0.22-0.12,0.46-0.2,0.69-0.29c0.28-0.11,0.54-0.23,0.81-0.34
			c0.03,0.03,0.05,0.05,0.08,0.08c0.19,0.18,0.38,0.36,0.56,0.55c0.08,0.09,0.22,0.29,0.34,0.48c0.21,0.31,0.48,0.71,0.83,1.1
			c0.41,0.46,0.86,0.8,1.18,1.04c0.11,0.08,0.23,0.16,0.31,0.24c0.23,0.27,0.48,0.53,0.73,0.78c0.2,0.21,0.41,0.43,0.6,0.66
			c0.15,0.17,0.27,0.36,0.4,0.55c0.24,0.35,0.49,0.71,0.76,1.03c0.23,0.28,0.46,0.56,0.68,0.84l0.55,0.68
			c0.2,0.24,0.38,0.49,0.57,0.74c0.2,0.27,0.41,0.54,0.63,0.81l0.44,0.54c0.26,0.32,0.53,0.64,0.78,0.97
			c0.18,0.22,0.34,0.46,0.5,0.69c0.21,0.3,0.42,0.6,0.65,0.89c0.38,0.49,0.8,0.85,1.1,1.12c0.11,0.09,0.22,0.18,0.29,0.26
			c0.08,0.12,0.14,0.26,0.21,0.4c0.18,0.38,0.41,0.84,0.77,1.33c0.33,0.45,0.68,0.79,0.96,1.07c0.13,0.13,0.31,0.3,0.36,0.38
			c0.59,0.81,1.5,1.24,2.43,1.24c0.61,0,1.22-0.18,1.76-0.57c1.34-0.97,1.64-2.85,0.67-4.19c-0.34-0.47-0.71-0.84-1-1.13
			c-0.13-0.13-0.3-0.3-0.35-0.37c-0.08-0.12-0.14-0.26-0.21-0.4c-0.19-0.39-0.43-0.88-0.81-1.37c-0.39-0.51-0.82-0.89-1.14-1.17
			c-0.11-0.09-0.22-0.18-0.3-0.27c-0.16-0.21-0.31-0.43-0.46-0.65c-0.23-0.33-0.47-0.67-0.72-0.99c-0.28-0.35-0.56-0.7-0.84-1.04
			l-0.42-0.52c-0.17-0.21-0.34-0.43-0.5-0.65c-0.24-0.32-0.48-0.63-0.73-0.94l-0.5-0.62c-0.25-0.31-0.51-0.63-0.77-0.94
			c-0.14-0.17-0.26-0.36-0.39-0.54c-0.22-0.33-0.48-0.7-0.8-1.08c-0.26-0.3-0.54-0.6-0.81-0.89c-0.19-0.2-0.37-0.39-0.55-0.6
			c-0.42-0.48-0.88-0.83-1.22-1.08c-0.11-0.08-0.23-0.16-0.32-0.25c-0.13-0.15-0.23-0.31-0.34-0.47c-0.08-0.11-0.17-0.24-0.26-0.37
			c0.49-0.18,0.98-0.36,1.45-0.52c0.6-0.21,1.19-0.41,1.77-0.59c0.6-0.18,1.19-0.34,1.81-0.5c0.35-0.09,0.7-0.17,1.04-0.24
			c0.27-0.06,0.53-0.11,0.79-0.17c0.36-0.08,0.71-0.19,1.06-0.29c0.26-0.08,0.52-0.16,0.78-0.21c0.32-0.07,0.65-0.12,0.97-0.18
			c0.31-0.05,0.62-0.11,0.93-0.17c0.28-0.05,0.56-0.09,0.85-0.13c0.03,0,0.06-0.01,0.09-0.01l0.37,0.59
			c0.21,0.33,0.42,0.66,0.63,1.02c0.15,0.25,0.28,0.51,0.42,0.78c0.17,0.32,0.34,0.65,0.53,0.98c0.2,0.35,0.4,0.71,0.61,1.09
			l0.37,0.67c0.55,0.98,1.57,1.53,2.62,1.53c0.5,0,1-0.12,1.47-0.39C188.16,69.26,188.67,67.44,187.86,65.99z M92,62.1
			c-0.09,0.03-0.18,0.05-0.27,0.07c-0.46,0.11-1.08,0.27-1.73,0.64c-0.63,0.36-1.08,0.8-1.41,1.12c-0.09,0.08-0.17,0.17-0.19,0.2
			c-0.18,0.11-0.38,0.18-0.57,0.27c-0.36,0.15-0.81,0.35-1.26,0.61c-0.13,0.07-0.28,0.11-0.42,0.16c-0.41,0.15-0.93,0.33-1.48,0.66
			c-0.62,0.37-1.06,0.82-1.38,1.15c-0.08,0.09-0.16,0.18-0.18,0.2c-0.07,0.04-0.28,0.12-0.44,0.18c-0.4,0.16-0.9,0.35-1.43,0.68
			c-0.2,0.13-0.42,0.23-0.64,0.34c-0.39,0.2-0.78,0.4-1.15,0.64c-0.24,0.15-0.49,0.3-0.73,0.45c-0.34,0.2-0.68,0.4-1.01,0.62
			c-0.64,0.41-1.07,0.9-1.38,1.26c-0.06,0.07-0.13,0.15-0.19,0.22c-0.31,0.21-0.61,0.42-0.91,0.64c-0.22,0.16-0.45,0.33-0.68,0.49
			c-0.23,0.15-0.46,0.29-0.7,0.43c-0.35,0.21-0.7,0.41-1.03,0.64c-0.33,0.22-0.64,0.46-0.96,0.69c-0.23,0.17-0.45,0.34-0.69,0.5
			c-0.16,0.11-0.35,0.19-0.53,0.29c-0.36,0.18-0.8,0.4-1.21,0.69c-0.11,0.06-0.24,0.1-0.36,0.15c-0.41,0.17-0.97,0.39-1.53,0.79
			c-0.54,0.38-0.94,0.81-1.22,1.13c-0.09,0.1-0.18,0.21-0.27,0.29c-0.52,0.37-0.89,0.77-1.19,1.1c-0.07,0.08-0.14,0.16-0.21,0.23
			c-0.05,0.02-0.1,0.03-0.15,0.05c-0.47,0.14-1.17,0.36-1.86,0.86c-0.11,0.08-0.21,0.17-0.31,0.26c-0.29-0.26-0.58-0.49-0.83-0.68
			c-0.17-0.13-0.35-0.26-0.51-0.41c-0.17-0.15-0.34-0.31-0.5-0.47c-0.33-0.31-0.66-0.62-1.01-0.92c-0.52-0.44-1.04-0.88-1.57-1.3
			l-0.48-0.39c-0.37-0.3-0.73-0.61-1.11-0.9l-0.15-0.12c-0.49-0.38-0.98-0.75-1.47-1.11c-0.2-0.15-0.4-0.3-0.59-0.46
			c-0.34-0.27-0.68-0.54-1.03-0.78c-0.39-0.27-0.78-0.52-1.17-0.77l-0.54-0.35c-0.44-0.29-0.86-0.5-1.22-0.68
			c-0.19-0.1-0.39-0.19-0.57-0.3c-0.21-0.13-0.41-0.27-0.61-0.4c-0.37-0.25-0.73-0.5-1.11-0.72c-0.29-0.17-0.59-0.32-0.89-0.47
			c0.17-0.17,0.34-0.33,0.5-0.51c0.15-0.17,0.31-0.35,0.47-0.5c0.4-0.35,0.71-0.71,0.96-1.01c0.15-0.17,0.3-0.35,0.4-0.43
			c0.2-0.18,0.42-0.34,0.64-0.5c0.31-0.23,0.62-0.47,0.91-0.72c0.28-0.24,0.55-0.47,0.83-0.71l1.34-1.15
			c0.27-0.24,0.54-0.47,0.82-0.7c0.28-0.24,0.57-0.47,0.86-0.71l0.66-0.54c0.22-0.18,0.45-0.35,0.68-0.52
			c0.3-0.22,0.6-0.44,0.88-0.67c0.39-0.32,0.71-0.65,0.97-0.92c0.15-0.15,0.29-0.31,0.46-0.44c0.23-0.18,0.47-0.36,0.71-0.53
			c0.29-0.21,0.58-0.42,0.86-0.64c0.21-0.16,0.43-0.3,0.65-0.45c0.33-0.22,0.65-0.43,0.96-0.67c0.24-0.18,0.49-0.36,0.74-0.53
			c0.29-0.2,0.57-0.4,0.85-0.61c0.21-0.16,0.43-0.3,0.66-0.44c0.33-0.21,0.66-0.42,0.97-0.65c0.42-0.31,0.75-0.63,1.03-0.89
			c0.17-0.16,0.34-0.33,0.45-0.4c0.25-0.18,0.52-0.35,0.78-0.53c0.28-0.19,0.57-0.37,0.84-0.57c0.45-0.32,0.81-0.66,1.09-0.93
			c0.13-0.13,0.32-0.3,0.33-0.32c0.11-0.06,0.23-0.09,0.34-0.14c0.4-0.15,0.95-0.36,1.51-0.73c0.48-0.32,0.85-0.67,1.15-0.95
			c0.12-0.12,0.29-0.28,0.35-0.32c0.13-0.08,0.28-0.13,0.42-0.19c0.38-0.16,0.85-0.35,1.35-0.67c0.58-0.37,1-0.8,1.3-1.12
			c0.08-0.09,0.16-0.18,0.18-0.2c0.24-0.15,0.49-0.28,0.74-0.41c0.07,0.05,0.14,0.1,0.21,0.14c0.25,0.18,0.49,0.37,0.73,0.56
			c0.26,0.21,0.52,0.41,0.79,0.61c0.24,0.18,0.47,0.37,0.69,0.56c0.26,0.22,0.52,0.43,0.79,0.64c0.51,0.39,1,0.78,1.49,1.17
			c0.32,0.26,0.67,0.49,1.02,0.71c0.18,0.12,0.37,0.23,0.54,0.37l0.5,0.42c0.32,0.26,0.64,0.53,0.94,0.8
			c0.18,0.16,0.34,0.35,0.51,0.53c0.26,0.29,0.52,0.57,0.79,0.83c0.24,0.22,0.48,0.43,0.72,0.65c0.23,0.2,0.46,0.39,0.67,0.6
			c0.21,0.21,0.42,0.41,0.63,0.61c0.24,0.23,0.48,0.46,0.71,0.7c0.21,0.22,0.4,0.46,0.59,0.69c0.2,0.25,0.41,0.49,0.62,0.73
			c0.17,0.2,0.33,0.41,0.49,0.63c0.21,0.29,0.43,0.58,0.67,0.86c0.24,0.29,0.51,0.56,0.78,0.84c0.17,0.17,0.35,0.34,0.5,0.54
			c0.17,0.21,0.32,0.44,0.47,0.67c0.04,0.06,0.08,0.11,0.12,0.17c-0.07,0.06-0.16,0.12-0.23,0.18C92.24,61.92,92.09,62.04,92,62.1z"
			/>
	</g>
</g>
</svg>
