<svg width="85" height="87" viewBox="0 0 85 87" fill="none" xmlns="http://www.w3.org/2000/svg">
<path fill-rule="evenodd" clip-rule="evenodd" d="M0.648026 31.7892C0.829173 25.4765 5.76324 20.273 9.97736 15.5759C14.0984 10.9825 19.166 7.4061 24.7864 4.88412C30.3681 2.37952 36.5209 -0.376262 42.473 0.994609C48.4074 2.36142 51.5875 8.77522 56.6166 12.2152C60.9478 15.1778 65.9335 16.7441 70.1217 19.9069C75.231 23.7652 83.3211 26.484 83.9732 32.8737C84.6548 39.5532 76.5679 43.7815 73.1476 49.5603C70.6742 53.7393 68.6126 57.9479 66.5343 62.338C63.8422 68.0246 63.5854 75.0744 59.023 79.3968C54.2736 83.8964 47.4619 87.5636 41.026 86.5045C34.4387 85.4204 31.0282 78.0147 25.7489 73.921C21.4333 70.5744 15.6524 69.0233 12.617 64.4751C9.61851 59.9822 10.8815 53.9355 9.02231 48.8581C6.81451 42.8289 0.463641 38.2148 0.648026 31.7892Z" fill="url(#paint0_linear_8940_1141)" fill-opacity="0.34"/>
<defs>
<linearGradient id="paint0_linear_8940_1141" x1="29.7838" y1="83.7791" x2="49.6452" y2="2.75164" gradientUnits="userSpaceOnUse">
<stop stop-color="#83A4D4"/>
<stop offset="1" stop-color="#B6FBFF"/>
</linearGradient>
</defs>
</svg>
