<svg width="11" height="13" viewBox="0 0 11 13" fill="none" xmlns="http://www.w3.org/2000/svg">
<path fill-rule="evenodd" clip-rule="evenodd" d="M0.535649 0.607443C0.874929 0.200647 1.42501 0.200647 1.76429 0.607443L5.4502 5.02686L9.13612 0.607443C9.4754 0.200647 10.0255 0.200647 10.3648 0.607443C10.704 1.01424 10.704 1.67379 10.3648 2.08058L6.67884 6.5L10.3648 10.9194C10.704 11.3262 10.704 11.9858 10.3648 12.3926C10.0255 12.7994 9.4754 12.7994 9.13612 12.3926L5.4502 7.97314L1.76429 12.3926C1.42501 12.7994 0.874929 12.7994 0.535649 12.3926C0.19637 11.9858 0.19637 11.3262 0.535649 10.9194L4.22157 6.5L0.535649 2.08058C0.19637 1.67379 0.19637 1.01424 0.535649 0.607443Z" fill="#474A57"/>
</svg>