<svg xmlns="http://www.w3.org/2000/svg" width="24" height="19" fill="currentColor" viewBox="0 0 24 19">
  <path fill-rule="evenodd" d="M8.9.005a8.425 8.425 0 018.233 5.575h.431a5.644 5.644 0 015.382 3.937 5.642 5.642 0 01-2.133 6.318 1 1 0 11-1.15-1.636 3.64 3.64 0 00-2.097-6.62h-1.17a1 1 0 01-.97-.75 6.424 6.424 0 10-11.035 5.854 1 1 0 01-1.497 1.326A8.425 8.425 0 018.9.005zm2.389 8.652a1 1 0 011.414 0l3.713 3.713A1 1 0 0115 13.784l-2.005-2.005v5.939a1 1 0 11-2 0v-5.94L8.99 13.784a1 1 0 11-1.414-1.414l3.713-3.713z" clip-rule="evenodd"/>
</svg>
