<svg width="20" height="20" viewBox="0 0 20 20" fill="none" xmlns="http://www.w3.org/2000/svg">
  <path fill-rule="evenodd" clip-rule="evenodd"
    d="M3.5 3.5C3.94874 3.05126 4.67627 3.05126 5.12501 3.49999L10 8.375L14.875 3.5C15.3237 3.05126 16.0513 3.05126 16.5 3.5C16.9487 3.94873 16.9487 4.67626 16.5 5.125L11.625 10L16.5 14.875C16.9487 15.3237 16.9487 16.0513 16.5 16.5C16.0513 16.9487 15.3237 16.9487 14.875 16.5L10 11.625L5.12501 16.5C4.67627 16.9487 3.94874 16.9487 3.5 16.5C3.05127 16.0513 3.05127 15.3237 3.5 14.875L8.37501 10L3.5 5.125C3.05127 4.67626 3.05127 3.94873 3.5 3.5Z"
    fill="currentColor" />
</svg>
