<?xml version="1.0" encoding="utf-8"?>
<!-- Generator: Adobe Illustrator 26.1.0, SVG Export Plug-In . SVG Version: 6.00 Build 0)  -->
<svg version="1.1" id="圖層_1" xmlns="http://www.w3.org/2000/svg" xmlns:xlink="http://www.w3.org/1999/xlink" x="0px" y="0px"
	 viewBox="0 0 162.99 164.03" style="enable-background:new 0 0 162.99 164.03;" xml:space="preserve">
<style type="text/css">
	.st0{fill:#FFE6A9;}
	.st1{fill:#EAD6E6;}
	.st2{fill:#D8EAED;}
	.st3{fill:#FFD2C6;}
	.st4{fill:#FFF4D0;}
</style>
<g>
	<path class="st3" d="M120.96,41.09c0.52,0.16,0.58-0.02,1.1,0.14c0.52,0.16,0.55,0.07,1.07,0.23c0.52,0.16,0.47,0.34,0.99,0.49
		c0.52,0.16,0.51,0.18,1.03,0.34c0.52,0.16,0.51,0.19,1.03,0.35c0.52,0.16,0.58-0.03,1.1,0.13c0.52,0.16,0.51,0.2,1.03,0.36
		c0.52,0.16,0.54,0.11,1.06,0.27c0.52,0.16,0.46,0.34,0.99,0.5c0.52,0.16,0.52,0.15,1.05,0.31c0.52,0.16,0.58-0.04,1.11,0.12
		c0.52,0.16,0.52,0.16,1.04,0.32c0.52,0.16,0.51,0.2,1.03,0.36c0.52,0.16,0.48,0.3,1,0.46c0.52,0.16,0.54,0.1,1.06,0.26
		c0.52,0.16,0.55,0.05,1.07,0.21c0.52,0.16,0.48,0.3,1,0.46c0.52,0.16,0.54,0.09,1.06,0.25c0.52,0.16,0.5,0.22,1.03,0.38
		c0.52,0.16,0.52,0.16,1.04,0.32c0.52,0.16,0.48,0.28,1.01,0.44c0.52,0.16,0.59-0.05,1.11,0.11c0.52,0.16,0.5,0.24,1.02,0.4
		c0.52,0.16,0.56,0.05,1.08,0.21c0.52,0.16,0.51,0.21,1.03,0.37c0.52,0.16,0.52,0.17,1.04,0.33c0.52,0.16,0.47,0.33,1,0.49
		c0.53,0.16,0.52,0.19,1.04,0.35c0.53,0.16,0.57,0.02,1.09,0.18c0.36,0.11,0.74,0.17,1.08,0.3c0.35,0.13,0.66,0.36,1,0.52
		c0.34,0.16,0.72,0.23,1.05,0.41c0.33,0.18,0.62,0.42,0.94,0.62c0.31,0.2,0.66,0.37,0.96,0.59c0.3,0.23,0.6,0.46,0.88,0.7
		c0.28,0.25,0.38,0.69,0.64,0.95c0.26,0.26,0.64,0.42,0.89,0.7c0.25,0.28,0.35,0.67,0.57,0.97c0.23,0.3,0.6,0.49,0.8,0.8
		c0.21,0.31,0.36,0.65,0.55,0.98c0.18,0.32,0.48,0.59,0.65,0.93c0.16,0.34,0.07,0.79,0.21,1.13c0.14,0.34,0.34,0.66,0.46,1.02
		c0.12,0.35,0.12,0.74,0.22,1.1c0.1,0.36,0.25,0.7,0.33,1.06c0.07,0.36,0.14,0.73,0.19,1.1c0.05,0.37,0.29,0.72,0.31,1.09
		c0.03,0.37-0.19,0.75-0.19,1.13c0,0.37-0.02,0.74-0.04,1.11c-0.02,0.37-0.06,0.73-0.1,1.11c-0.04,0.37-0.03,0.74-0.1,1.11
		c-0.07,0.37-0.09,0.74-0.18,1.1c-0.09,0.36-0.16,0.73-0.28,1.08c-0.11,0.35-0.3,0.68-0.44,1.03c-0.14,0.35-0.16,0.74-0.32,1.08
		c-0.16,0.34-0.46,0.6-0.64,0.93c-0.18,0.32-0.38,0.63-0.58,0.95c-0.2,0.31-0.45,0.58-0.67,0.89c-0.33,0.45-0.32,0.46-0.65,0.91
		c-0.33,0.45-0.18,0.56-0.51,1.01c-0.33,0.45-0.28,0.49-0.61,0.94c-0.33,0.45-0.47,0.35-0.8,0.8c-0.33,0.45-0.18,0.56-0.51,1.01
		c-0.33,0.45-0.43,0.38-0.76,0.83c-0.33,0.45-0.24,0.51-0.58,0.97c-0.33,0.45-0.36,0.43-0.69,0.88c-0.33,0.45-0.38,0.42-0.71,0.87
		c-0.33,0.45-0.42,0.39-0.75,0.84c-0.33,0.45-0.29,0.48-0.62,0.93c-0.33,0.45-0.4,0.4-0.73,0.85c-0.33,0.45-0.31,0.47-0.64,0.92
		c-0.33,0.45-0.24,0.52-0.57,0.97c-0.33,0.45-0.34,0.45-0.67,0.9c-0.33,0.45-0.24,0.51-0.57,0.96c-0.33,0.45-0.54,0.3-0.87,0.75
		c-0.33,0.45-0.36,0.43-0.69,0.88c-0.33,0.45-0.21,0.54-0.54,1c-0.33,0.45-0.25,0.51-0.59,0.96c-0.33,0.45-0.34,0.45-0.67,0.9
		c-0.33,0.45-0.41,0.4-0.74,0.85c-0.33,0.45-0.33,0.45-0.66,0.9c-0.33,0.45-0.26,0.51-0.59,0.96c-0.33,0.45-0.49,0.33-0.82,0.79
		c-0.33,0.45-0.25,0.52-0.58,0.97c-0.33,0.45-0.21,0.55-0.54,1c-0.33,0.46-0.5,0.33-0.83,0.79c-0.33,0.46-0.38,0.42-0.71,0.88
		c-0.22,0.3-0.21,0.75-0.4,1.06c-0.2,0.31-0.57,0.51-0.75,0.84c-0.18,0.32-0.37,0.64-0.53,0.98c-0.15,0.33-0.06,0.77-0.19,1.11
		c-0.13,0.34-0.44,0.62-0.55,0.98c-0.11,0.35-0.27,0.69-0.36,1.05c-0.08,0.36,0.09,0.77,0.03,1.13c-0.06,0.36-0.34,0.69-0.38,1.06
		c-0.04,0.37-0.01,0.74-0.02,1.11c-0.01,0.37-0.02,0.74-0.01,1.11c0.02,0.55,0.06,0.55,0.08,1.1c0.02,0.55-0.03,0.55-0.01,1.1
		c0.02,0.55-0.01,0.55,0,1.1c0.02,0.55,0.07,0.55,0.09,1.09c0.02,0.55,0.08,0.55,0.1,1.09c0.02,0.55-0.08,0.55-0.07,1.1
		c0.02,0.55,0.22,0.54,0.23,1.09c0.02,0.55-0.11,0.55-0.1,1.1c0.02,0.55,0.03,0.55,0.05,1.1c0.02,0.55,0.01,0.55,0.02,1.1
		c0.02,0.55-0.05,0.55-0.04,1.1c0.02,0.55,0.03,0.55,0.05,1.1c0.02,0.55,0.16,0.55,0.18,1.1c0.02,0.55-0.14,0.55-0.12,1.1
		c0.02,0.55-0.12,0.55-0.11,1.1c0.02,0.55,0.28,0.54,0.3,1.09c0.02,0.55-0.17,0.55-0.15,1.1c0.02,0.55,0.07,0.55,0.08,1.09
		c0.02,0.55,0.03,0.55,0.04,1.1c0.02,0.55,0.12,0.55,0.14,1.1c0.02,0.55-0.09,0.55-0.08,1.1c0.02,0.55,0.04,0.55,0.05,1.1
		c0.02,0.55,0.03,0.55,0.05,1.1c0.02,0.55-0.08,0.55-0.07,1.1c0.02,0.55,0.06,0.55,0.08,1.1c0.02,0.55-0.06,0.55-0.04,1.1
		c0.02,0.55,0.14,0.55,0.15,1.1c0.02,0.55-0.04,0.55-0.02,1.11c0.02,0.55,0.19,0.55,0.2,1.1c0.02,0.55-0.05,0.56-0.03,1.11
		c0.01,0.37-0.04,0.74-0.06,1.11c-0.01,0.37,0,0.74-0.03,1.11c-0.03,0.37-0.17,0.73-0.22,1.09c-0.06,0.37-0.25,0.7-0.33,1.06
		c-0.08,0.36-0.03,0.75-0.13,1.1c-0.1,0.36-0.11,0.74-0.24,1.09c-0.13,0.35-0.38,0.65-0.53,0.98c-0.15,0.34-0.26,0.69-0.43,1.02
		c-0.17,0.33-0.49,0.57-0.68,0.88c-0.19,0.32-0.32,0.67-0.53,0.97c-0.21,0.3-0.48,0.55-0.71,0.84c-0.23,0.29-0.38,0.64-0.63,0.91
		c-0.25,0.27-0.42,0.62-0.69,0.88c-0.27,0.26-0.58,0.47-0.86,0.7c-0.28,0.24-0.69,0.31-0.99,0.53c-0.3,0.22-0.45,0.65-0.76,0.85
		c-0.31,0.2-0.68,0.31-1,0.49c-0.32,0.18-0.67,0.32-1,0.48c-0.33,0.15-0.72,0.18-1.07,0.31c-0.34,0.13-0.63,0.43-0.99,0.53
		c-0.35,0.1-0.73,0.11-1.09,0.19c-0.36,0.08-0.74,0-1.11,0.06c-0.36,0.05-0.7,0.36-1.07,0.39c-0.37,0.03-0.74-0.11-1.11-0.11
		c-0.37,0-0.73,0.01-1.1-0.02c-0.36-0.03-0.74-0.01-1.11-0.06c-0.36-0.05-0.69-0.29-1.05-0.37c-0.36-0.08-0.76,0-1.11-0.11
		c-0.35-0.1-0.64-0.39-0.99-0.52c-0.51-0.19-0.56-0.07-1.07-0.26c-0.51-0.19-0.53-0.14-1.04-0.33c-0.51-0.19-0.44-0.38-0.95-0.57
		c-0.51-0.19-0.56-0.07-1.07-0.25c-0.51-0.19-0.56-0.06-1.07-0.25c-0.51-0.19-0.43-0.42-0.94-0.6c-0.51-0.19-0.5-0.23-1.01-0.42
		c-0.51-0.19-0.59,0.01-1.1-0.17c-0.51-0.19-0.48-0.27-0.99-0.46c-0.51-0.19-0.57-0.02-1.09-0.21c-0.51-0.19-0.46-0.32-0.98-0.51
		c-0.51-0.19-0.49-0.25-1-0.44c-0.51-0.19-0.53-0.13-1.05-0.32c-0.51-0.19-0.5-0.22-1.01-0.41c-0.51-0.19-0.56-0.05-1.08-0.24
		c-0.51-0.19-0.44-0.37-0.95-0.56c-0.51-0.19-0.51-0.18-1.02-0.37c-0.51-0.19-0.51-0.19-1.02-0.38c-0.51-0.19-0.49-0.24-1.01-0.43
		c-0.51-0.19-0.5-0.23-1.01-0.42c-0.51-0.19-0.54-0.12-1.05-0.31c-0.51-0.19-0.5-0.23-1.01-0.42c-0.51-0.19-0.54-0.12-1.05-0.31
		c-0.51-0.19-0.49-0.26-1-0.45c-0.51-0.19-0.57-0.03-1.08-0.22c-0.51-0.19-0.5-0.22-1.02-0.41c-0.52-0.19-0.52-0.18-1.03-0.37
		c-0.52-0.19-0.46-0.33-0.98-0.53c-0.52-0.19-0.54-0.12-1.06-0.31c-0.33-0.12-0.73-0.04-1.07-0.14c-0.34-0.1-0.67-0.22-1.01-0.3
		c-0.35-0.07-0.66-0.32-1.01-0.37c-0.35-0.05-0.71-0.14-1.06-0.16c-0.35-0.02-0.72-0.07-1.07-0.07c-0.35,0-0.7,0.22-1.06,0.25
		c-0.35,0.03-0.73-0.09-1.08-0.04c-0.35,0.05-0.71,0.12-1.05,0.19c-0.35,0.08-0.68,0.23-1.02,0.34c-0.34,0.1-0.7,0.16-1.03,0.29
		c-0.51,0.19-0.53,0.13-1.04,0.32c-0.51,0.19-0.41,0.47-0.92,0.66c-0.51,0.19-0.57,0.03-1.08,0.22c-0.51,0.19-0.46,0.33-0.97,0.52
		c-0.51,0.19-0.5,0.22-1.01,0.42c-0.51,0.19-0.62-0.09-1.13,0.1c-0.51,0.19-0.45,0.36-0.96,0.55c-0.51,0.19-0.53,0.14-1.04,0.33
		c-0.51,0.19-0.55,0.1-1.06,0.29c-0.51,0.19-0.49,0.25-1,0.44c-0.51,0.19-0.52,0.17-1.03,0.36c-0.51,0.19-0.53,0.15-1.04,0.34
		c-0.51,0.19-0.44,0.37-0.96,0.56c-0.51,0.19-0.52,0.18-1.03,0.37c-0.51,0.19-0.5,0.23-1.01,0.42c-0.51,0.19-0.52,0.16-1.03,0.35
		c-0.51,0.19-0.47,0.28-0.98,0.47c-0.51,0.19-0.53,0.14-1.04,0.33c-0.51,0.19-0.54,0.12-1.05,0.32c-0.51,0.19-0.54,0.11-1.05,0.3
		c-0.51,0.19-0.51,0.2-1.02,0.39c-0.51,0.19-0.54,0.11-1.06,0.3c-0.51,0.19-0.48,0.28-0.99,0.47c-0.51,0.19-0.51,0.2-1.02,0.39
		c-0.51,0.19-0.52,0.17-1.03,0.36c-0.51,0.19-0.52,0.19-1.03,0.38c-0.51,0.19-0.53,0.15-1.04,0.34c-0.52,0.19-0.44,0.39-0.96,0.58
		c-0.52,0.19-0.55,0.1-1.07,0.29c-0.35,0.13-0.67,0.34-1.02,0.44c-0.36,0.11-0.72,0.19-1.08,0.27c-0.36,0.08-0.73,0.17-1.09,0.23
		c-0.37,0.06-0.74,0.1-1.1,0.13c-0.37,0.03-0.74-0.06-1.11-0.06c-0.37,0-0.73-0.09-1.1-0.12c-0.37-0.03-0.76,0.14-1.12,0.09
		c-0.37-0.05-0.73-0.15-1.09-0.23c-0.36-0.08-0.72-0.18-1.07-0.28c-0.35-0.1-0.69-0.27-1.03-0.4c-0.35-0.13-0.74-0.15-1.08-0.3
		c-0.34-0.15-0.64-0.38-0.97-0.55c-0.32-0.17-0.53-0.55-0.84-0.75c-0.31-0.2-0.74-0.21-1.04-0.43c-0.3-0.22-0.52-0.54-0.8-0.77
		c-0.28-0.24-0.63-0.4-0.9-0.66c-0.27-0.25-0.47-0.57-0.72-0.85c-0.25-0.27-0.53-0.52-0.76-0.81c-0.23-0.29-0.43-0.6-0.64-0.9
		c-0.21-0.3-0.53-0.54-0.72-0.85c-0.19-0.31-0.27-0.7-0.44-1.03c-0.17-0.33-0.4-0.63-0.55-0.97c-0.15-0.34-0.04-0.77-0.17-1.12
		c-0.13-0.34-0.54-0.6-0.64-0.95c-0.1-0.35-0.16-0.73-0.25-1.09c-0.08-0.36-0.13-0.73-0.19-1.1c-0.06-0.36,0.03-0.75-0.01-1.11
		c-0.04-0.36-0.23-0.72-0.24-1.1c-0.01-0.37,0-0.74,0.01-1.11c0.01-0.55-0.01-0.55,0-1.1c0.01-0.55,0.1-0.55,0.12-1.1
		c0.01-0.55,0.23-0.54,0.24-1.09c0.01-0.55-0.02-0.55-0.01-1.1c0.01-0.55-0.22-0.55-0.2-1.1c0.01-0.55,0.17-0.54,0.19-1.09
		c0.01-0.55-0.08-0.55-0.07-1.1c0.01-0.55-0.09-0.55-0.08-1.1c0.01-0.55,0.15-0.55,0.17-1.09c0.01-0.55-0.11-0.55-0.09-1.1
		c0.01-0.55,0.16-0.55,0.18-1.09c0.01-0.55-0.08-0.55-0.07-1.1c0.01-0.55,0.11-0.55,0.13-1.1c0.01-0.55-0.13-0.55-0.12-1.1
		c0.01-0.55,0.27-0.54,0.28-1.09c0.01-0.55-0.23-0.56-0.22-1.11c0.01-0.55,0.08-0.55,0.09-1.1c0.01-0.55-0.07-0.55-0.06-1.1
		c0.01-0.55,0.19-0.54,0.21-1.09c0.01-0.55-0.2-0.56-0.18-1.11c0.01-0.55,0.13-0.55,0.15-1.1c0.01-0.55,0.06-0.55,0.07-1.1
		c0.01-0.55-0.01-0.55,0-1.1c0.01-0.55-0.08-0.55-0.06-1.1c0.01-0.55,0.03-0.55,0.04-1.1c0.01-0.55,0.23-0.54,0.24-1.09
		c0.01-0.55-0.19-0.56-0.18-1.11c0.01-0.55,0.24-0.55,0.25-1.1c0.01-0.55,0.02-0.55,0.04-1.11c0.01-0.55-0.16-0.56-0.15-1.11
		c0.01-0.37,0.14-0.74,0.13-1.11c-0.01-0.37-0.13-0.73-0.17-1.1c-0.04-0.37-0.21-0.71-0.28-1.07c-0.06-0.36-0.04-0.74-0.13-1.1
		c-0.09-0.36-0.1-0.74-0.21-1.09c-0.11-0.35-0.43-0.63-0.57-0.97c-0.13-0.34-0.14-0.74-0.3-1.07c-0.15-0.33-0.46-0.59-0.64-0.91
		c-0.18-0.32-0.23-0.72-0.42-1.03c-0.2-0.31-0.52-0.53-0.74-0.83c-0.33-0.45-0.34-0.44-0.68-0.89c-0.33-0.45-0.13-0.59-0.47-1.04
		c-0.33-0.45-0.41-0.39-0.74-0.84c-0.33-0.45-0.29-0.48-0.62-0.93c-0.33-0.45-0.32-0.46-0.65-0.91c-0.33-0.45-0.5-0.33-0.83-0.78
		c-0.33-0.45-0.14-0.59-0.48-1.04c-0.33-0.45-0.38-0.41-0.71-0.86c-0.33-0.45-0.47-0.35-0.8-0.8c-0.33-0.45-0.1-0.62-0.44-1.07
		c-0.33-0.45-0.37-0.42-0.7-0.87c-0.33-0.45-0.33-0.45-0.66-0.9c-0.33-0.45-0.37-0.42-0.7-0.87c-0.33-0.45-0.27-0.49-0.61-0.94
		c-0.33-0.45-0.35-0.44-0.68-0.89c-0.33-0.45-0.49-0.33-0.82-0.78c-0.33-0.45-0.18-0.56-0.51-1.01c-0.33-0.45-0.46-0.35-0.79-0.8
		c-0.33-0.45-0.39-0.41-0.73-0.86c-0.33-0.45-0.33-0.45-0.66-0.9c-0.33-0.45-0.24-0.52-0.58-0.97c-0.33-0.45-0.39-0.41-0.72-0.86
		c-0.33-0.45-0.19-0.56-0.52-1.01c-0.33-0.45-0.29-0.48-0.62-0.93c-0.33-0.45-0.48-0.34-0.81-0.79c-0.33-0.45-0.26-0.51-0.59-0.96
		c-0.33-0.45-0.34-0.45-0.67-0.9c-0.34-0.45-0.47-0.36-0.8-0.81c-0.34-0.45-0.21-0.54-0.55-1c-0.22-0.3-0.34-0.67-0.54-0.98
		c-0.2-0.32-0.52-0.55-0.7-0.88c-0.18-0.33-0.36-0.65-0.52-0.99c-0.16-0.34-0.35-0.66-0.49-1.01c-0.14-0.35-0.36-0.67-0.47-1.03
		c-0.12-0.36,0.01-0.78-0.08-1.14c-0.09-0.36-0.41-0.68-0.48-1.04c-0.07-0.37,0.08-0.77,0.04-1.14c-0.04-0.37-0.06-0.74-0.09-1.11
		C0.08,67.4,0,67.03,0,66.66c0-0.37,0.11-0.74,0.14-1.11c0.03-0.37,0.05-0.74,0.1-1.11c0.05-0.37,0.07-0.74,0.14-1.11
		c0.07-0.37,0-0.77,0.09-1.13c0.1-0.36,0.34-0.68,0.45-1.03c0.12-0.35,0.23-0.71,0.37-1.05c0.14-0.35,0.29-0.69,0.45-1.02
		c0.16-0.34,0.3-0.68,0.49-1.01c0.18-0.32,0.43-0.61,0.63-0.92c0.2-0.31,0.39-0.64,0.62-0.93c0.22-0.3,0.39-0.65,0.63-0.93
		c0.24-0.28,0.55-0.52,0.81-0.78c0.26-0.26,0.48-0.59,0.76-0.84c0.28-0.25,0.74-0.26,1.04-0.49c0.3-0.22,0.53-0.52,0.85-0.73
		c0.31-0.2,0.59-0.47,0.91-0.65c0.32-0.18,0.66-0.34,1-0.5c0.34-0.16,0.66-0.37,1.01-0.5c0.34-0.13,0.68-0.34,1.04-0.45
		c0.52-0.16,0.6,0.09,1.12-0.07c0.52-0.16,0.46-0.35,0.98-0.51c0.52-0.16,0.57,0,1.09-0.16c0.52-0.16,0.51-0.2,1.03-0.36
		c0.52-0.16,0.55-0.08,1.07-0.24c0.52-0.16,0.47-0.31,0.99-0.47c0.52-0.16,0.55-0.07,1.07-0.23c0.52-0.16,0.54-0.11,1.06-0.28
		c0.52-0.16,0.48-0.3,1-0.46c0.52-0.16,0.56-0.03,1.08-0.19c0.52-0.16,0.48-0.3,1-0.46c0.52-0.16,0.53-0.13,1.05-0.29
		c0.52-0.16,0.51-0.21,1.03-0.37c0.52-0.16,0.54-0.11,1.06-0.27c0.52-0.16,0.48-0.3,1-0.46c0.52-0.16,0.57,0.01,1.09-0.15
		c0.52-0.16,0.47-0.31,0.99-0.47c0.52-0.16,0.57-0.01,1.09-0.17c0.52-0.16,0.55-0.06,1.07-0.23c0.52-0.16,0.49-0.26,1.01-0.42
		c0.52-0.16,0.54-0.09,1.07-0.25c0.52-0.16,0.48-0.3,1-0.46c0.52-0.16,0.5-0.23,1.02-0.39c0.52-0.16,0.54-0.09,1.07-0.25
		c0.52-0.16,0.49-0.25,1.01-0.42c0.52-0.16,0.53-0.13,1.06-0.29c0.52-0.16,0.58,0.01,1.1-0.15c0.53-0.16,0.53-0.16,1.05-0.32
		c0.53-0.16,0.52-0.18,1.05-0.34c0.34-0.11,0.66-0.31,1-0.44c0.34-0.13,0.69-0.22,1.02-0.38c0.32-0.15,0.61-0.39,0.93-0.56
		c0.31-0.18,0.59-0.42,0.89-0.61c0.3-0.2,0.53-0.48,0.82-0.7c0.28-0.22,0.75-0.22,1.02-0.46c0.27-0.24,0.46-0.56,0.72-0.82
		c0.25-0.26,0.53-0.49,0.77-0.76c0.23-0.27,0.33-0.66,0.54-0.95c0.22-0.29,0.58-0.47,0.77-0.78c0.31-0.47,0.13-0.59,0.43-1.05
		c0.31-0.47,0.39-0.41,0.7-0.88c0.31-0.47,0.24-0.51,0.54-0.98c0.31-0.47,0.4-0.41,0.71-0.88c0.31-0.47,0.26-0.5,0.57-0.97
		c0.31-0.47,0.3-0.48,0.6-0.94c0.31-0.47,0.22-0.53,0.53-1c0.31-0.47,0.41-0.4,0.71-0.87c0.31-0.47,0.4-0.41,0.71-0.88
		c0.31-0.47,0.33-0.46,0.63-0.93c0.31-0.47,0.21-0.53,0.52-1c0.31-0.47,0.25-0.51,0.55-0.98c0.31-0.47,0.35-0.44,0.66-0.91
		c0.31-0.47,0.46-0.37,0.76-0.84c0.31-0.47,0.19-0.55,0.5-1.02c0.31-0.47,0.32-0.46,0.62-0.93c0.31-0.47,0.19-0.54,0.5-1.01
		c0.31-0.47,0.44-0.38,0.75-0.85c0.31-0.47,0.32-0.46,0.63-0.93c0.31-0.47,0.19-0.54,0.5-1.01c0.31-0.47,0.4-0.41,0.7-0.88
		c0.31-0.47,0.38-0.42,0.69-0.89c0.31-0.47,0.1-0.61,0.41-1.08c0.31-0.47,0.36-0.44,0.67-0.91c0.31-0.47,0.33-0.45,0.64-0.92
		c0.31-0.47,0.38-0.43,0.68-0.9c0.31-0.47,0.25-0.51,0.55-0.99c0.31-0.47,0.3-0.48,0.6-0.96c0.31-0.47,0.3-0.48,0.61-0.95
		c0.2-0.31,0.36-0.65,0.57-0.94c0.22-0.3,0.63-0.43,0.87-0.71c0.24-0.28,0.26-0.76,0.51-1.02c0.26-0.26,0.57-0.48,0.84-0.72
		c0.27-0.25,0.61-0.42,0.9-0.65c0.29-0.23,0.58-0.45,0.88-0.66c0.3-0.21,0.56-0.5,0.87-0.68c0.32-0.18,0.66-0.35,0.98-0.51
		c0.33-0.16,0.71-0.23,1.04-0.37c0.34-0.14,0.74-0.09,1.09-0.2c0.35-0.11,0.65-0.36,1.01-0.45c0.36-0.09,0.73-0.08,1.09-0.14
		c0.36-0.06,0.7-0.29,1.06-0.33c0.36-0.04,0.74-0.05,1.1-0.06c0.37-0.01,0.73,0.09,1.1,0.1c0.37,0.01,0.73,0.02,1.09,0.05
		c0.36,0.04,0.75-0.08,1.11-0.02c0.36,0.06,0.66,0.43,1.01,0.52c0.35,0.09,0.73,0.08,1.08,0.19c0.35,0.11,0.68,0.25,1.02,0.38
		c0.34,0.14,0.68,0.26,1.01,0.42c0.33,0.16,0.63,0.36,0.95,0.54c0.31,0.18,0.6,0.41,0.9,0.62c0.3,0.2,0.63,0.36,0.92,0.59
		c0.29,0.22,0.59,0.43,0.86,0.68c0.27,0.24,0.51,0.52,0.76,0.79c0.25,0.26,0.6,0.44,0.84,0.72c0.24,0.28,0.45,0.58,0.67,0.87
		c0.22,0.29,0.31,0.67,0.51,0.98c0.31,0.47,0.45,0.37,0.76,0.84c0.31,0.47,0.25,0.51,0.55,0.98c0.31,0.47,0.17,0.56,0.48,1.03
		c0.31,0.47,0.32,0.46,0.63,0.92c0.31,0.47,0.37,0.42,0.68,0.89c0.31,0.47,0.22,0.53,0.53,1c0.31,0.47,0.53,0.32,0.84,0.79
		c0.31,0.47,0.1,0.6,0.41,1.07c0.31,0.47,0.48,0.35,0.79,0.82c0.31,0.47,0.23,0.52,0.53,0.99c0.31,0.47,0.25,0.5,0.56,0.97
		c0.31,0.47,0.29,0.48,0.6,0.95c0.31,0.47,0.51,0.33,0.82,0.8c0.31,0.47,0.19,0.54,0.5,1.01c0.31,0.47,0.3,0.47,0.61,0.94
		c0.31,0.47,0.28,0.48,0.59,0.95c0.31,0.47,0.46,0.37,0.76,0.84c0.31,0.47,0.31,0.46,0.62,0.93c0.31,0.47,0.28,0.49,0.58,0.96
		c0.31,0.47,0.08,0.62,0.39,1.09c0.31,0.47,0.33,0.46,0.64,0.92c0.31,0.47,0.39,0.42,0.7,0.89c0.31,0.47,0.21,0.53,0.52,1
		c0.31,0.47,0.48,0.36,0.79,0.83c0.31,0.47,0.21,0.53,0.52,1c0.31,0.47,0.42,0.4,0.73,0.87c0.31,0.47,0.27,0.5,0.58,0.97
		c0.31,0.47,0.26,0.51,0.57,0.98s0.42,0.4,0.73,0.88c0.2,0.3,0.32,0.65,0.54,0.94c0.22,0.29,0.53,0.5,0.76,0.77
		c0.24,0.27,0.5,0.51,0.75,0.76c0.25,0.26,0.43,0.59,0.7,0.83c0.27,0.24,0.48,0.56,0.77,0.77c0.29,0.22,0.63,0.37,0.93,0.56
		c0.3,0.2,0.69,0.24,1.01,0.41c0.31,0.18,0.53,0.55,0.85,0.7c0.33,0.15,0.66,0.3,1,0.43C120.27,40.86,120.61,40.99,120.96,41.09z"/>
</g>
</svg>
