<?xml version="1.0" encoding="utf-8"?>
<!-- Generator: Adobe Illustrator 26.1.0, SVG Export Plug-In . SVG Version: 6.00 Build 0)  -->
<svg version="1.1" id="圖層_1" xmlns="http://www.w3.org/2000/svg" xmlns:xlink="http://www.w3.org/1999/xlink" x="0px" y="0px"
	 viewBox="0 0 165.9 156.66" style="enable-background:new 0 0 165.9 156.66;" xml:space="preserve">
<style type="text/css">
	.st0{fill:#FFE6A9;}
	.st1{fill:#EAD6E6;}
	.st2{fill:#D8EAED;}
	.st3{fill:#FFD2C6;}
	.st4{fill:#FFF4D0;}
</style>
<g>
	<path class="st1" d="M155.46,86.68c0.17-0.53,0.37-1.06,0.52-1.59c0.15-0.53,0.15-1.11,0.29-1.65c0.14-0.54,0.54-1.02,0.66-1.56
		c0.12-0.54-0.05-1.15,0.05-1.7c0.1-0.55,0.19-1.09,0.27-1.64c0.09-0.55,0.45-1.06,0.52-1.62c0.07-0.55,0.12-1.11,0.17-1.67
		c0.05-0.55,0.11-1.11,0.15-1.67c0.03-0.55-0.06-1.12-0.04-1.68c0.02-0.56-0.06-1.11-0.06-1.67c0-0.53,0.12-1.07,0.1-1.6
		c-0.02-0.53-0.17-1.06-0.2-1.59c-0.03-0.53-0.07-1.06-0.12-1.59c-0.05-0.53-0.05-1.07-0.12-1.59c-0.06-0.53-0.16-1.06-0.23-1.58
		c-0.08-0.53,0-1.08-0.1-1.61c-0.09-0.53-0.22-1.05-0.33-1.57c-0.11-0.52-0.48-0.98-0.61-1.5c-0.13-0.52,0-1.1-0.14-1.61
		c-0.14-0.52-0.52-0.96-0.68-1.47c-0.16-0.51-0.33-1.01-0.5-1.51c-0.17-0.51-0.36-1-0.55-1.5c-0.19-0.5-0.39-0.99-0.59-1.48
		c-0.2-0.49-0.24-1.05-0.46-1.54c-0.22-0.49-0.46-0.96-0.69-1.44c-0.23-0.48-0.4-0.99-0.65-1.46c-0.25-0.47-0.7-0.83-0.96-1.29
		c-0.26-0.46-0.34-1.04-0.62-1.49c-0.28-0.46-0.7-0.82-1-1.26c-0.29-0.45-0.43-1-0.74-1.43c-0.31-0.44-0.7-0.81-1.02-1.24
		c-0.32-0.43-0.65-0.84-0.99-1.26c-0.34-0.41-0.73-0.78-1.08-1.18c-0.35-0.4-0.59-0.91-0.95-1.3c-0.36-0.39-0.76-0.75-1.14-1.13
		c-0.38-0.38-0.72-0.79-1.11-1.16c-0.39-0.37-0.9-0.59-1.3-0.94c-0.4-0.35-0.86-0.63-1.27-0.97c-0.41-0.34-0.73-0.8-1.15-1.12
		c-0.42-0.32-0.85-0.65-1.28-0.96c-0.44-0.31-0.86-0.63-1.31-0.92c-0.45-0.29-0.95-0.5-1.4-0.77c-0.46-0.27-0.85-0.66-1.32-0.92
		c-0.47-0.26-0.95-0.49-1.43-0.73c-0.48-0.24-0.97-0.44-1.46-0.66c-0.48-0.22-1.01-0.34-1.51-0.54c-0.49-0.2-0.97-0.43-1.47-0.62
		c-0.5-0.18-1.04-0.25-1.54-0.41c-0.51-0.16-0.98-0.43-1.49-0.58c-0.51-0.14-1-0.38-1.52-0.51c-0.52-0.12-1.06-0.16-1.58-0.26
		c-0.52-0.1-1.03-0.31-1.56-0.4c-0.52-0.08-1.08,0.04-1.61-0.02c-0.53-0.06-1.06-0.05-1.59-0.09c-0.53-0.04-1.05-0.3-1.58-0.32
		c-0.53-0.02-1.07-0.09-1.6-0.09c-0.5,0-1,0.16-1.5,0.18c-0.5,0.02-1,0.06-1.5,0.09c-0.5,0.04-0.99,0.18-1.48,0.24
		c-0.5,0.06-0.99,0.11-1.49,0.19c-0.5,0.07-1.03,0.13-1.52,0.22c-0.3-0.45-0.45-1.03-0.76-1.47c-0.31-0.44-0.85-0.71-1.18-1.14
		c-0.32-0.43-0.51-0.96-0.84-1.38c-0.34-0.42-0.63-0.88-0.98-1.29c-0.35-0.41-0.7-0.82-1.06-1.21c-0.36-0.4-0.75-0.77-1.13-1.16
		c-0.37-0.39-0.71-0.81-1.1-1.19c-0.39-0.37-0.83-0.69-1.23-1.05c-0.4-0.36-0.9-0.61-1.31-0.95c-0.41-0.35-0.73-0.8-1.15-1.14
		c-0.42-0.33-0.84-0.67-1.28-0.99c-0.43-0.32-0.86-0.65-1.3-0.96c-0.44-0.31-1.02-0.41-1.47-0.7c-0.45-0.29-0.88-0.61-1.34-0.88
		c-0.46-0.28-0.82-0.73-1.29-0.99c-0.47-0.26-1.07-0.27-1.55-0.51c-0.48-0.24-0.85-0.7-1.34-0.92c-0.49-0.23-1-0.39-1.5-0.6
		c-0.49-0.21-1.07-0.21-1.57-0.4c-0.5-0.19-0.98-0.44-1.49-0.62c-0.51-0.17-0.97-0.5-1.48-0.65c-0.51-0.15-1.04-0.29-1.56-0.42
		c-0.52-0.13-1.09-0.04-1.62-0.16c-0.52-0.12-1.04-0.24-1.57-0.33c-0.53-0.1-1.01-0.45-1.55-0.53c-0.53-0.08-1.07-0.17-1.6-0.22
		c-0.53-0.06-1.08,0.05-1.62,0.01c-0.53-0.04-1.07-0.03-1.61-0.05C68.07,0.02,67.54,0.02,67,0.02c-0.53,0-1.07-0.04-1.6-0.02
		c-0.53,0.02-1.07,0.03-1.6,0.07c-0.53,0.04-1.07,0.04-1.6,0.09c-0.53,0.06-1.06,0.16-1.58,0.23c-0.53,0.08-1.04,0.23-1.57,0.33
		c-0.53,0.1-1.04,0.21-1.56,0.33c-0.52,0.11-1.06,0.15-1.57,0.29c-0.52,0.13-1.03,0.28-1.54,0.43c-0.51,0.15-1.05,0.23-1.55,0.4
		c-0.51,0.17-0.92,0.6-1.41,0.79c-0.5,0.19-1.08,0.17-1.57,0.38c-0.49,0.21-1.01,0.36-1.5,0.58c-0.48,0.22-0.91,0.57-1.39,0.81
		c-0.48,0.24-0.97,0.45-1.44,0.7c-0.47,0.26-0.84,0.67-1.3,0.94c-0.46,0.27-1.04,0.35-1.49,0.63c-0.45,0.29-0.91,0.56-1.35,0.86
		c-0.44,0.3-0.77,0.76-1.2,1.07c-0.43,0.32-0.88,0.6-1.3,0.93c-0.42,0.33-0.86,0.64-1.26,0.98c-0.41,0.34-0.74,0.78-1.13,1.13
		c-0.4,0.36-0.76,0.74-1.15,1.11c-0.38,0.37-0.88,0.63-1.25,1.01c-0.37,0.38-0.6,0.9-0.96,1.29c-0.36,0.39-0.79,0.72-1.14,1.13
		c-0.35,0.4-0.82,0.71-1.15,1.12c-0.34,0.41-0.59,0.89-0.91,1.32c-0.32,0.42-0.57,0.9-0.88,1.34c-0.31,0.43-0.75,0.78-1.05,1.22
		c-0.3,0.44-0.34,1.05-0.62,1.5c-0.28,0.45-0.81,0.75-1.08,1.21c-0.27,0.46-0.33,1.04-0.59,1.51c-0.26,0.47-0.73,0.82-0.98,1.29
		c-0.24,0.47-0.39,1-0.62,1.48c-0.23,0.48-0.49,0.95-0.7,1.44c-0.21,0.49-0.43,0.98-0.63,1.47c-0.2,0.49-0.31,1.02-0.5,1.52
		c-0.19,0.5-0.33,1.01-0.5,1.52c-0.17,0.5-0.33,1.01-0.49,1.52c-0.16,0.51-0.27,1.03-0.42,1.54c-0.14,0.51-0.38,1-0.51,1.52
		c-0.13,0.52-0.17,1.05-0.28,1.57c-0.11,0.52-0.26,1.03-0.36,1.56c-0.1,0.52-0.28,1.03-0.36,1.56c-0.09,0.52-0.15,1.05-0.22,1.58
		c-0.07,0.53-0.2,1.05-0.26,1.58c-0.06,0.53,0.11,1.08,0.06,1.61c-0.04,0.53-0.36,1.04-0.39,1.58c-0.03,0.53-0.04,1.07-0.05,1.6
		c-0.01,0.53,0.12,1.07,0.12,1.6c0,0.55-0.07,1.1-0.06,1.65c0.02,0.55,0.28,1.09,0.31,1.63c0.03,0.55-0.03,1.1,0.01,1.64
		c0.05,0.55,0.02,1.1,0.08,1.64c0.06,0.55,0.07,1.1,0.15,1.64c0.08,0.54,0.38,1.13,0.47,1.67c-0.41,0.33-1.02,0.55-1.42,0.89
		c-0.4,0.34-0.74,0.76-1.13,1.12c-0.39,0.36-0.86,0.63-1.24,1c-0.38,0.37-0.74,0.76-1.1,1.15c-0.37,0.38-0.61,0.88-0.96,1.27
		c-0.35,0.39-0.7,0.79-1.05,1.19c-0.34,0.4-0.6,0.87-0.92,1.29c-0.33,0.41-0.81,0.71-1.12,1.14c-0.32,0.42-0.59,0.88-0.89,1.31
		c-0.3,0.43-0.73,0.79-1.02,1.23c-0.29,0.44-0.42,0.99-0.7,1.44c-0.27,0.45-0.61,0.87-0.87,1.33c-0.26,0.46-0.6,0.88-0.85,1.35
		c-0.25,0.47-0.35,1.01-0.59,1.49c-0.23,0.47-0.59,0.89-0.81,1.37c-0.22,0.48-0.36,1-0.56,1.49c-0.2,0.49-0.3,1.02-0.49,1.52
		c-0.19,0.49-0.4,0.98-0.57,1.48c-0.18,0.5-0.36,1-0.52,1.5c-0.16,0.5-0.26,1.02-0.41,1.53c-0.15,0.51-0.45,0.97-0.59,1.49
		c-0.13,0.51-0.13,1.06-0.25,1.57c-0.12,0.51-0.19,1.04-0.29,1.56c-0.1,0.52-0.26,1.03-0.34,1.55c-0.09,0.52-0.05,1.06-0.12,1.59
		C0.71,97.51,0.36,98,0.31,98.52c-0.06,0.52-0.11,1.06-0.15,1.59c-0.04,0.53,0.16,1.07,0.13,1.6c-0.03,0.53-0.26,1.05-0.28,1.58
		c-0.01,0.53-0.01,1.06-0.01,1.59c0,0,0.16,0,0.16,0c0,0.54-0.01,1.08,0,1.61c0.02,0.54-0.09,1.08-0.06,1.62
		c0.03,0.54,0.2,1.07,0.24,1.6c0.05,0.54,0.06,1.08,0.12,1.61c0.06,0.54,0.01,1.09,0.09,1.62c0.08,0.53,0.26,1.05,0.35,1.58
		c0.09,0.53,0.2,1.06,0.31,1.58c0.11,0.53,0.05,1.09,0.17,1.61c0.12,0.53,0.5,0.99,0.64,1.5c0.14,0.52,0.33,1.02,0.48,1.53
		c0.15,0.52,0.12,1.09,0.28,1.6c0.17,0.51,0.4,1,0.58,1.51c0.18,0.51,0.24,1.06,0.44,1.56c0.2,0.5,0.44,0.99,0.65,1.48
		c0.21,0.5,0.48,0.97,0.7,1.45c0.23,0.49,0.47,0.97,0.71,1.45c0.24,0.48,0.4,1.01,0.66,1.48c0.26,0.47,0.54,0.94,0.81,1.4
		c0.27,0.47,0.55,0.93,0.83,1.39c0.28,0.46,0.68,0.85,0.97,1.29c0.3,0.45,0.67,0.84,0.98,1.28c0.31,0.44,0.49,0.97,0.82,1.4
		c0.33,0.43,0.8,0.74,1.14,1.15c0.34,0.42,0.6,0.9,0.95,1.31c0.35,0.41,0.76,0.76,1.12,1.16c0.37,0.4,0.73,0.79,1.11,1.17
		c0.38,0.38,0.81,0.71,1.2,1.08c0.39,0.37,0.76,0.76,1.16,1.12c0.4,0.36,0.64,0.91,1.05,1.25c0.41,0.34,0.92,0.58,1.34,0.91
		c0.43,0.33,0.81,0.72,1.24,1.03c0.44,0.31,0.92,0.57,1.36,0.87c0.45,0.3,0.86,0.66,1.31,0.94c0.46,0.28,1.01,0.42,1.47,0.68
		c0.47,0.27,0.9,0.59,1.38,0.84c0.48,0.25,0.94,0.54,1.42,0.77c0.48,0.23,1.03,0.34,1.52,0.55c0.49,0.21,1.01,0.36,1.51,0.56
		c0.5,0.2,0.96,0.48,1.47,0.66c0.51,0.18,1.04,0.26,1.56,0.42c0.51,0.16,1.02,0.32,1.54,0.46c0.52,0.14,1.02,0.32,1.55,0.44
		c0.52,0.12,1.05,0.2,1.58,0.3c0.53,0.1,1.06,0.16,1.59,0.24c0.53,0.08,1.06,0.18,1.59,0.24c0.53,0.06,1.06,0.11,1.6,0.15
		c0.53,0.04,1.06,0.18,1.6,0.2c0.54,0.02,1.07,0,1.61,0c0.88,0,0.88-0.04,1.77-0.04c0.89,0,0.89-0.01,1.77-0.01s0.89,0.01,1.77,0.01
		c0.79,0,0.79,0.06,1.58,0.06c0.79,0,0.79-0.2,1.58-0.2c0.79,0,0.79,0.08,1.58,0.08c0.79,0,0.79,0.11,1.58,0.11
		c0.79,0,0.79,0.05,1.59,0.05c0.79,0,0.79-0.17,1.59-0.17c0.79,0,0.79,0.07,1.59,0.07c0.79,0,0.79,0.18,1.58,0.18
		c0.79,0,0.79-0.2,1.58-0.2c0.79,0,0.79,0.05,1.59,0.05c0.79,0,0.79,0.1,1.59,0.1c0.79,0,0.79-0.02,1.59-0.02
		c0.79,0,0.79-0.16,1.59-0.16c0.79,0,0.79-0.01,1.58-0.01c0.79,0,0.79,0.14,1.58,0.14c0.79,0,0.79-0.19,1.59-0.19
		c0.79,0,0.79,0.27,1.58,0.27c0.79,0,0.79-0.02,1.58-0.02c0.79,0,0.79-0.08,1.58-0.08c0.79,0,0.79,0.03,1.58,0.03
		c0.79,0,0.79-0.07,1.58-0.07c0.79,0,0.79-0.11,1.59-0.11c0.79,0,0.79,0.17,1.59,0.17c0.79,0,0.79-0.07,1.59-0.07
		c0.79,0,0.79,0.19,1.58,0.19c0.79,0,0.79-0.2,1.58-0.2c0.79,0,0.79,0.11,1.59,0.11c0.79,0,0.79,0.03,1.59,0.03
		c0.79,0,0.79-0.08,1.59-0.08c0.79,0,0.79,0.15,1.59,0.15c0.79,0,0.79-0.12,1.59-0.12c0.79,0,0.79,0.07,1.59,0.07
		c0.79,0,0.79,0.03,1.59,0.03c0.79,0,0.79-0.05,1.59-0.05c0.79,0,0.79,0.05,1.59,0.05c0.79,0,0.79-0.14,1.58-0.14
		c0.79,0,0.79-0.05,1.58-0.05c0.8,0,0.8,0.19,1.59,0.19c0.79,0,0.79-0.2,1.59-0.2c0.79,0,0.79-0.06,1.59-0.06
		c0.8,0,0.8,0.25,1.59,0.25c0.79,0,0.79-0.23,1.59-0.23c0.8,0,0.8-0.01,1.59-0.01c0.8,0,0.8,0.16,1.6,0.16c0.8,0,0.8,0.06,1.6,0.06
		c0.78,0,0.78,0,1.56,0c0.78,0,0.78-0.12,1.57-0.12s0.78-0.15,1.57-0.15c0.53,0,1.06,0.17,1.59,0.15c0.53-0.02,1.07-0.01,1.59-0.06
		c0.53-0.05,1.04-0.27,1.56-0.35c0.53-0.07,1.03-0.21,1.55-0.31c0.52-0.1,1.06-0.11,1.57-0.24c0.52-0.12,1.05-0.18,1.56-0.33
		c0.51-0.15,0.98-0.41,1.48-0.58c0.5-0.17,1.03-0.25,1.53-0.44c0.49-0.19,0.97-0.43,1.45-0.64c0.48-0.21,0.97-0.42,1.45-0.66
		c0.47-0.23,0.89-0.58,1.35-0.83c0.46-0.26,0.91-0.54,1.36-0.81c0.45-0.28,0.93-0.51,1.37-0.8c0.44-0.29,0.98-0.45,1.41-0.76
		c0.43-0.31,0.86-0.62,1.28-0.96c0.41-0.33,0.67-0.85,1.07-1.19c0.4-0.35,0.75-0.74,1.14-1.1c0.38-0.36,0.93-0.57,1.3-0.95
		c0.37-0.38,0.68-0.82,1.03-1.21c0.35-0.39,0.74-0.76,1.08-1.17c0.34-0.41,0.7-0.8,1.02-1.22c0.32-0.42,0.66-0.84,0.96-1.27
		c0.31-0.43,0.59-0.88,0.88-1.33c0.29-0.44,0.57-0.89,0.85-1.35c0.27-0.45,0.32-1.04,0.57-1.5c0.25-0.46,0.74-0.8,0.98-1.28
		c0.24-0.47,0.45-0.96,0.67-1.44c0.22-0.48,0.42-0.98,0.62-1.47c0.2-0.49,0.25-1.04,0.44-1.53c0.18-0.5,0.28-1.02,0.45-1.52
		c0.16-0.5,0.56-0.93,0.71-1.44c0.15-0.51,0.18-1.05,0.31-1.56c0.13-0.51,0.25-1.03,0.36-1.55c0.11-0.52,0.13-1.05,0.22-1.57
		c0.09-0.52,0.24-1.03,0.31-1.56c0.07-0.52,0.07-1.05,0.13-1.58c0.05-0.52,0.09-1.05,0.13-1.58c0.04-0.53,0.24-1.05,0.26-1.58
		c0.02-0.53-0.15-1.06-0.15-1.59c0,0,0.06,0,0.06,0c0-0.55-0.05-1.09-0.07-1.63c-0.02-0.55,0.11-1.1,0.07-1.64
		c-0.04-0.54-0.12-1.09-0.18-1.62c-0.06-0.54-0.05-1.09-0.13-1.63c-0.08-0.54-0.19-1.08-0.28-1.61c-0.1-0.54-0.38-1.04-0.49-1.56
		c-0.12-0.53-0.13-1.09-0.27-1.61c-0.14-0.53-0.41-1.02-0.56-1.54c-0.16-0.52-0.28-1.05-0.46-1.56c-0.17-0.52-0.26-1.06-0.46-1.57
		c-0.19-0.51-0.45-0.99-0.66-1.49c-0.21-0.5-0.58-0.93-0.81-1.42c-0.23-0.49-0.27-1.08-0.51-1.56c-0.25-0.48-0.63-0.89-0.9-1.37
		c-0.27-0.47-0.46-0.99-0.75-1.45c-0.29-0.46-0.55-0.94-0.85-1.39c-0.3-0.45-0.6-0.91-0.92-1.35c-0.32-0.44-0.68-0.85-1.02-1.28
		C156.21,87.47,155.82,87.09,155.46,86.68z"/>
</g>
</svg>
