<?xml version="1.0" encoding="utf-8"?>
<!-- Generator: Adobe Illustrator 26.1.0, SVG Export Plug-In . SVG Version: 6.00 Build 0)  -->
<svg version="1.1" id="圖層_1" xmlns="http://www.w3.org/2000/svg" xmlns:xlink="http://www.w3.org/1999/xlink" x="0px" y="0px"
	 viewBox="0 0 158.47 165.69" style="enable-background:new 0 0 158.47 165.69;" xml:space="preserve">
<style type="text/css">
	.st0{fill:#FFE6A9;}
	.st1{fill:#EAD6E6;}
	.st2{fill:#D8EAED;}
	.st3{fill:#FFD2C6;}
	.st4{fill:#FFF4D0;}
</style>
<g>
	<path class="st4" d="M158.28,82.82c0,0.37,0.14,0.74,0.14,1.11c0,0.37-0.26,0.73-0.26,1.1c-0.01,0.37,0.08,0.74,0.06,1.11
		c-0.01,0.37,0.04,0.74,0.02,1.11c-0.02,0.37,0.03,0.74,0.01,1.11c-0.02,0.37-0.28,0.72-0.3,1.09c-0.03,0.37,0.19,0.76,0.15,1.12
		c-0.03,0.37-0.05,0.74-0.09,1.11c-0.04,0.37-0.1,0.73-0.14,1.1c-0.04,0.37-0.33,0.7-0.37,1.07c-0.05,0.37,0.16,0.77,0.11,1.13
		c-0.05,0.37-0.36,0.69-0.42,1.06c-0.06,0.37,0.04,0.75-0.02,1.12c-0.06,0.36-0.11,0.73-0.18,1.09c-0.07,0.36-0.24,0.7-0.31,1.07
		c-0.07,0.36-0.14,0.72-0.21,1.09c-0.07,0.36,0.08,0.77,0,1.13c-0.08,0.36-0.41,0.66-0.49,1.02c-0.08,0.36-0.23,0.7-0.32,1.06
		c-0.09,0.36-0.1,0.74-0.19,1.09c-0.09,0.36-0.08,0.74-0.18,1.1c-0.1,0.36-0.34,0.67-0.44,1.03c-0.1,0.35-0.12,0.73-0.22,1.09
		c-0.11,0.35-0.36,0.66-0.47,1.01c-0.11,0.35-0.2,0.71-0.32,1.06c-0.12,0.35-0.06,0.76-0.18,1.11c-0.12,0.35-0.19,0.72-0.32,1.06
		c-0.13,0.35-0.37,0.65-0.49,1c-0.13,0.35-0.15,0.73-0.29,1.08c-0.13,0.34-0.47,0.61-0.61,0.95c-0.14,0.34-0.33,0.66-0.47,1
		c-0.14,0.34-0.13,0.74-0.28,1.08c-0.15,0.34-0.2,0.72-0.35,1.06c-0.15,0.34-0.38,0.64-0.54,0.97c-0.16,0.33-0.29,0.68-0.45,1.01
		c-0.16,0.33-0.53,0.56-0.69,0.89c-0.17,0.33-0.06,0.8-0.23,1.12c-0.17,0.33-0.37,0.64-0.54,0.97c-0.17,0.33-0.51,0.56-0.69,0.89
		c-0.18,0.32-0.38,0.63-0.56,0.95c-0.18,0.32-0.37,0.63-0.56,0.95c-0.19,0.32-0.33,0.66-0.52,0.98c-0.19,0.32-0.25,0.71-0.44,1.03
		c-0.2,0.31-0.42,0.61-0.62,0.92c-0.2,0.31-0.33,0.67-0.53,0.98c-0.2,0.31-0.62,0.48-0.82,0.78c-0.21,0.31-0.44,0.59-0.65,0.89
		c-0.21,0.3-0.44,0.59-0.65,0.89c-0.22,0.3-0.34,0.67-0.56,0.96c-0.22,0.3-0.37,0.64-0.6,0.94c-0.22,0.29-0.62,0.46-0.84,0.75
		c-0.23,0.29-0.35,0.66-0.58,0.95c-0.23,0.29-0.48,0.56-0.72,0.84c-0.23,0.28-0.49,0.55-0.73,0.83c-0.24,0.28-0.49,0.55-0.73,0.83
		c-0.24,0.28-0.46,0.58-0.71,0.85c-0.25,0.27-0.52,0.52-0.77,0.79c-0.25,0.27-0.43,0.6-0.69,0.87c-0.25,0.27-0.52,0.52-0.78,0.78
		c-0.26,0.26-0.49,0.55-0.75,0.81c-0.26,0.26-0.62,0.42-0.88,0.68c-0.26,0.26-0.42,0.62-0.69,0.88c-0.27,0.25-0.51,0.54-0.78,0.79
		c-0.27,0.25-0.49,0.56-0.76,0.81c-0.27,0.25-0.63,0.4-0.91,0.64c-0.28,0.24-0.65,0.37-0.93,0.61c-0.28,0.24-0.53,0.51-0.82,0.74
		c-0.28,0.23-0.47,0.59-0.76,0.82c-0.29,0.23-0.67,0.34-0.96,0.57c-0.29,0.23-0.5,0.55-0.8,0.78c-0.29,0.22-0.58,0.45-0.88,0.67
		c-0.3,0.22-0.62,0.4-0.92,0.62c-0.3,0.21-0.67,0.32-0.98,0.53c-0.3,0.21-0.58,0.46-0.88,0.67c-0.31,0.21-0.67,0.32-0.98,0.52
		c-0.31,0.2-0.61,0.41-0.92,0.61c-0.31,0.2-0.52,0.56-0.83,0.76c-0.31,0.19-0.68,0.29-1,0.48c-0.32,0.19-0.61,0.42-0.93,0.6
		c-0.32,0.18-0.64,0.36-0.97,0.54c-0.32,0.18-0.6,0.45-0.92,0.62c-0.32,0.17-0.77,0.12-1.1,0.29c-0.33,0.17-0.56,0.52-0.89,0.69
		c-0.33,0.17-0.65,0.36-0.98,0.52c-0.33,0.16-0.73,0.19-1.06,0.34c-0.33,0.16-0.7,0.24-1.04,0.39c-0.34,0.15-0.66,0.33-1,0.47
		c-0.34,0.15-0.62,0.42-0.96,0.56c-0.34,0.14-0.68,0.28-1.03,0.42c-0.34,0.14-0.73,0.15-1.08,0.28c-0.34,0.13-0.65,0.37-0.99,0.5
		c-0.35,0.13-0.72,0.18-1.07,0.3c-0.35,0.12-0.69,0.25-1.04,0.37c-0.35,0.12-0.7,0.24-1.05,0.35c-0.35,0.11-0.76,0.05-1.11,0.15
		c-0.35,0.11-0.63,0.46-0.99,0.56c-0.35,0.1-0.77-0.03-1.13,0.07c-0.36,0.1-0.7,0.24-1.06,0.33c-0.36,0.09-0.7,0.25-1.06,0.34
		c-0.36,0.08-0.74,0.07-1.1,0.15c-0.36,0.08-0.72,0.14-1.08,0.21c-0.36,0.07-0.68,0.38-1.04,0.45c-0.36,0.07-0.72,0.16-1.08,0.22
		c-0.36,0.06-0.74,0.05-1.1,0.11c-0.36,0.06-0.76-0.09-1.12-0.04c-0.36,0.05-0.71,0.26-1.07,0.3c-0.37,0.05-0.75-0.06-1.12-0.02
		c-0.37,0.04-0.73,0.11-1.09,0.15c-0.37,0.04-0.72,0.21-1.09,0.25c-0.37,0.03-0.75-0.1-1.11-0.07c-0.37,0.03-0.72,0.33-1.09,0.35
		c-0.37,0.02-0.74,0.02-1.11,0.04c-0.37,0.02-0.74-0.07-1.11-0.06c-0.37,0.01-0.74,0.03-1.11,0.04c-0.37,0.01-0.74,0.03-1.11,0.03
		c-0.37,0-0.74-0.24-1.11-0.24c-0.37-0.01-0.74,0.08-1.11,0.07c-0.37-0.01-0.74,0.14-1.11,0.13c-0.37-0.02-0.74-0.03-1.11-0.05
		c-0.37-0.02-0.72-0.28-1.09-0.31c-0.37-0.03-0.74-0.01-1.11-0.05c-0.37-0.03-0.74-0.02-1.11-0.06c-0.37-0.04-0.74,0-1.11-0.04
		c-0.37-0.04-0.73-0.09-1.1-0.13c-0.37-0.05-0.72-0.16-1.09-0.22c-0.37-0.05-0.71-0.23-1.07-0.29c-0.36-0.06-0.78,0.19-1.14,0.13
		c-0.36-0.06-0.72-0.18-1.08-0.25c-0.36-0.07-0.7-0.29-1.06-0.36c-0.36-0.07-0.71-0.19-1.07-0.27c-0.36-0.08-0.76,0-1.12-0.08
		c-0.36-0.09-0.7-0.23-1.06-0.32c-0.36-0.09-0.74-0.08-1.1-0.18c-0.36-0.1-0.68-0.3-1.04-0.4c-0.35-0.1-0.66-0.36-1.02-0.46
		c-0.35-0.11-0.73-0.13-1.08-0.24c-0.35-0.11-0.72-0.18-1.07-0.29c-0.35-0.12-0.71-0.21-1.06-0.33c-0.35-0.12-0.64-0.4-0.99-0.52
		c-0.35-0.13-0.73-0.15-1.07-0.29c-0.34-0.13-0.69-0.25-1.03-0.39c-0.34-0.14-0.65-0.35-0.99-0.49c-0.34-0.14-0.65-0.35-0.99-0.5
		c-0.34-0.15-0.74-0.14-1.08-0.29c-0.34-0.15-0.67-0.3-1.01-0.46c-0.33-0.16-0.59-0.47-0.92-0.63c-0.33-0.16-0.75-0.15-1.08-0.32
		c-0.33-0.17-0.62-0.41-0.95-0.58c-0.33-0.17-0.73-0.2-1.05-0.38c-0.32-0.17-0.55-0.54-0.87-0.72c-0.32-0.18-0.69-0.27-1.01-0.45
		c-0.32-0.18-0.69-0.27-1.01-0.46c-0.32-0.19-0.52-0.56-0.83-0.76c-0.31-0.19-0.69-0.29-1-0.49c-0.31-0.2-0.58-0.45-0.89-0.66
		c-0.31-0.2-0.63-0.39-0.93-0.6c-0.31-0.21-0.69-0.3-0.99-0.51c-0.3-0.21-0.56-0.49-0.86-0.71c-0.3-0.21-0.62-0.4-0.92-0.62
		c-0.3-0.22-0.61-0.42-0.9-0.65c-0.29-0.22-0.61-0.42-0.9-0.65c-0.29-0.23-0.57-0.48-0.85-0.71c-0.29-0.23-0.48-0.58-0.76-0.82
		c-0.28-0.23-0.68-0.33-0.96-0.57c-0.28-0.24-0.4-0.66-0.68-0.9c-0.28-0.24-0.54-0.5-0.82-0.74c-0.27-0.25-0.7-0.32-0.97-0.57
		c-0.27-0.25-0.54-0.5-0.81-0.76c-0.27-0.25-0.57-0.47-0.84-0.72c-0.26-0.26-0.52-0.52-0.78-0.78c-0.26-0.26-0.41-0.64-0.66-0.9
		c-0.26-0.26-0.5-0.54-0.76-0.81c-0.25-0.27-0.53-0.51-0.78-0.78c-0.25-0.27-0.58-0.47-0.83-0.74c-0.25-0.27-0.52-0.53-0.76-0.8
		c-0.24-0.28-0.29-0.72-0.53-1c-0.24-0.28-0.49-0.55-0.73-0.83c-0.23-0.28-0.51-0.54-0.74-0.83c-0.23-0.29-0.55-0.51-0.78-0.8
		c-0.23-0.29-0.49-0.55-0.71-0.85c-0.22-0.29-0.43-0.6-0.64-0.9c-0.22-0.3-0.3-0.7-0.51-1c-0.22-0.3-0.44-0.59-0.65-0.89
		c-0.21-0.3-0.45-0.59-0.65-0.89c-0.21-0.3-0.44-0.59-0.64-0.9c-0.2-0.31-0.3-0.69-0.5-1c-0.2-0.31-0.55-0.52-0.75-0.83
		c-0.19-0.31-0.4-0.62-0.6-0.93c-0.19-0.32-0.3-0.68-0.48-1c-0.19-0.32-0.29-0.68-0.47-1c-0.18-0.32-0.59-0.52-0.76-0.84
		c-0.18-0.32-0.33-0.66-0.5-0.99c-0.17-0.32-0.34-0.65-0.51-0.98c-0.17-0.33-0.15-0.75-0.31-1.08c-0.16-0.33-0.39-0.63-0.55-0.96
		c-0.16-0.33-0.46-0.6-0.62-0.93c-0.16-0.33-0.24-0.7-0.39-1.04c-0.15-0.34-0.34-0.65-0.49-0.99c-0.15-0.34-0.09-0.76-0.23-1.1
		c-0.14-0.34-0.4-0.63-0.54-0.97c-0.14-0.34-0.31-0.67-0.44-1.01c-0.13-0.34-0.24-0.7-0.37-1.04c-0.13-0.34-0.19-0.71-0.32-1.06
		c-0.13-0.35-0.27-0.68-0.39-1.03c-0.12-0.35-0.14-0.73-0.26-1.08c-0.12-0.35-0.23-0.7-0.34-1.05c-0.11-0.35-0.35-0.66-0.46-1.01
		c-0.11-0.35-0.06-0.75-0.17-1.1c-0.1-0.35-0.25-0.69-0.34-1.05c-0.1-0.36-0.38-0.66-0.48-1.02c-0.09-0.36-0.18-0.72-0.26-1.08
		c-0.09-0.36-0.18-0.72-0.26-1.08c-0.08-0.36-0.1-0.73-0.17-1.1c-0.08-0.36-0.1-0.73-0.18-1.09c-0.07-0.36-0.02-0.75-0.09-1.11
		c-0.07-0.36-0.45-0.67-0.52-1.03c-0.07-0.36,0.13-0.77,0.07-1.13c-0.06-0.36-0.17-0.72-0.23-1.08c-0.06-0.36-0.27-0.71-0.32-1.07
		c-0.05-0.36-0.11-0.73-0.15-1.1c-0.05-0.37-0.07-0.74-0.11-1.1c-0.04-0.37,0-0.74-0.04-1.11c-0.04-0.37-0.14-0.73-0.17-1.1
		c-0.03-0.37,0.02-0.74-0.01-1.11c-0.03-0.37,0.07-0.74,0.05-1.11c-0.02-0.37-0.09-0.73-0.11-1.1c-0.02-0.37,0.04-0.74,0.02-1.11
		c-0.01-0.37-0.07-0.73-0.08-1.1c-0.01-0.37-0.06-0.74-0.06-1.1S0,83.19,0,82.82c0-0.37,0.17-0.74,0.18-1.11
		c0-0.37,0.08-0.74,0.09-1.11c0.01-0.37,0.04-0.74,0.05-1.1c0.01-0.37-0.17-0.75-0.15-1.11c0.02-0.37,0.05-0.74,0.08-1.11
		c0.02-0.37,0.18-0.73,0.2-1.1c0.03-0.37-0.02-0.74,0.01-1.11c0.03-0.37,0.25-0.72,0.29-1.08c0.04-0.37-0.12-0.76-0.08-1.12
		c0.04-0.37,0.18-0.72,0.22-1.09c0.05-0.37,0.16-0.72,0.21-1.09c0.05-0.37,0.04-0.74,0.1-1.1c0.06-0.37-0.03-0.75,0.03-1.12
		c0.06-0.36,0.2-0.71,0.27-1.08c0.07-0.36,0.27-0.7,0.34-1.06c0.07-0.36,0.04-0.74,0.12-1.1c0.07-0.36,0.24-0.7,0.32-1.06
		c0.08-0.36,0.09-0.73,0.18-1.09c0.08-0.36,0.21-0.71,0.3-1.07C2.85,61.66,2.91,61.3,3,60.94c0.09-0.36,0.22-0.7,0.32-1.06
		c0.1-0.36,0.25-0.69,0.35-1.05c0.1-0.35-0.03-0.78,0.08-1.13c0.11-0.35,0.23-0.7,0.34-1.05c0.11-0.35,0.23-0.7,0.35-1.05
		c0.12-0.35,0.29-0.68,0.41-1.03c0.12-0.35,0.31-0.67,0.43-1.02c0.13-0.35,0.22-0.71,0.35-1.05c0.13-0.35,0.28-0.68,0.41-1.03
		c0.13-0.34,0.33-0.66,0.47-1c0.14-0.34,0.26-0.69,0.4-1.03c0.14-0.34,0.36-0.65,0.5-0.99c0.15-0.34,0.11-0.76,0.26-1.09
		c0.15-0.34,0.48-0.59,0.64-0.92c0.16-0.33,0.29-0.68,0.45-1.01c0.16-0.33,0.17-0.74,0.33-1.07c0.17-0.33,0.32-0.66,0.49-0.99
		c0.17-0.33,0.52-0.56,0.69-0.88c0.17-0.33,0.19-0.73,0.37-1.06c0.18-0.32,0.31-0.67,0.49-0.99c0.18-0.32,0.37-0.64,0.56-0.95
		c0.19-0.32,0.38-0.63,0.57-0.95c0.19-0.32,0.38-0.64,0.57-0.95c0.2-0.31,0.62-0.48,0.82-0.79c0.2-0.31,0.38-0.63,0.58-0.94
		c0.2-0.31,0.22-0.74,0.43-1.04c0.21-0.31,0.63-0.46,0.85-0.76c0.21-0.3,0.25-0.73,0.46-1.03c0.22-0.3,0.54-0.52,0.76-0.81
		c0.22-0.3,0.44-0.59,0.67-0.88c0.22-0.29,0.27-0.72,0.5-1.01c0.23-0.29,0.62-0.45,0.85-0.74c0.23-0.29,0.34-0.68,0.57-0.96
		c0.23-0.28,0.66-0.41,0.9-0.69c0.24-0.28,0.45-0.58,0.7-0.86c0.24-0.28,0.41-0.62,0.65-0.9c0.25-0.27,0.47-0.57,0.72-0.84
		c0.25-0.27,0.44-0.6,0.69-0.87c0.25-0.27,0.59-0.46,0.84-0.72c0.26-0.26,0.53-0.52,0.79-0.78c0.26-0.26,0.58-0.46,0.85-0.72
		c0.26-0.26,0.36-0.69,0.62-0.95c0.27-0.25,0.61-0.43,0.88-0.68c0.27-0.25,0.6-0.43,0.88-0.68c0.27-0.25,0.42-0.64,0.7-0.88
		c0.28-0.24,0.7-0.32,0.98-0.56c0.28-0.24,0.5-0.55,0.79-0.78c0.28-0.23,0.54-0.51,0.83-0.74c0.29-0.23,0.7-0.3,0.99-0.53
		c0.29-0.23,0.56-0.47,0.86-0.7c0.29-0.22,0.63-0.39,0.93-0.6c0.3-0.22,0.48-0.59,0.78-0.81c0.3-0.21,0.56-0.48,0.86-0.69
		c0.3-0.21,0.73-0.24,1.03-0.45c0.31-0.21,0.58-0.46,0.89-0.66c0.31-0.2,0.66-0.33,0.97-0.53c0.31-0.2,0.52-0.57,0.83-0.76
		c0.31-0.19,0.64-0.36,0.96-0.55c0.32-0.19,0.65-0.36,0.97-0.54c0.32-0.18,0.72-0.22,1.04-0.4c0.32-0.18,0.54-0.56,0.86-0.73
		c0.32-0.17,0.76-0.14,1.08-0.31c0.33-0.17,0.57-0.5,0.9-0.67c0.33-0.17,0.67-0.3,1.01-0.46c0.33-0.16,0.62-0.41,0.96-0.57
		c0.33-0.16,0.69-0.27,1.02-0.42c0.34-0.15,0.76-0.11,1.09-0.26c0.34-0.15,0.6-0.48,0.94-0.62c0.34-0.14,0.69-0.27,1.03-0.4
		c0.34-0.14,0.68-0.29,1.03-0.42c0.34-0.13,0.71-0.2,1.06-0.33c0.35-0.13,0.67-0.33,1.01-0.45c0.35-0.12,0.74-0.1,1.09-0.22
		c0.35-0.12,0.69-0.25,1.04-0.36c0.35-0.11,0.66-0.37,1.01-0.47c0.35-0.11,0.75-0.08,1.1-0.18c0.35-0.1,0.75-0.06,1.1-0.15
		c0.36-0.1,0.67-0.36,1.02-0.45c0.36-0.09,0.74-0.08,1.1-0.16c0.36-0.08,0.73-0.09,1.09-0.17c0.36-0.08,0.67-0.41,1.03-0.48
		c0.36-0.07,0.77,0.08,1.13,0.01c0.36-0.07,0.69-0.31,1.05-0.38c0.36-0.06,0.73-0.12,1.09-0.18c0.36-0.06,0.76,0.09,1.12,0.04
		C68.6,0.9,68.93,0.6,69.3,0.55c0.37-0.05,0.73-0.1,1.1-0.14c0.37-0.04,0.74-0.05,1.1-0.09c0.37-0.04,0.73-0.12,1.1-0.16
		c0.37-0.03,0.75,0.08,1.11,0.06c0.37-0.03,0.73-0.2,1.1-0.22c0.37-0.02,0.75,0.18,1.12,0.16c0.37-0.02,0.74-0.01,1.1-0.02
		c0.37-0.01,0.74-0.05,1.1-0.05c0.37-0.01,0.74,0.04,1.11,0.04c0.37,0,0.74-0.13,1.11-0.12c0.37,0.01,0.74,0.08,1.11,0.09
		c0.37,0.01,0.74-0.06,1.11-0.05c0.37,0.02,0.74-0.08,1.11-0.06c0.37,0.02,0.73,0.16,1.1,0.19c0.37,0.03,0.74-0.03,1.11,0
		c0.37,0.03,0.74,0.05,1.11,0.09c0.37,0.04,0.7,0.37,1.07,0.42c0.37,0.04,0.75-0.06,1.12-0.02c0.37,0.05,0.74,0.04,1.11,0.09
		c0.37,0.05,0.72,0.19,1.08,0.25c0.36,0.06,0.74,0.05,1.1,0.12c0.36,0.06,0.74,0.04,1.11,0.11c0.36,0.07,0.67,0.42,1.03,0.5
		c0.36,0.07,0.78-0.12,1.14-0.04c0.36,0.08,0.7,0.23,1.06,0.32c0.36,0.09,0.68,0.32,1.04,0.41c0.36,0.09,0.74,0.08,1.1,0.18
		c0.36,0.1,0.75,0.05,1.11,0.15c0.35,0.1,0.69,0.29,1.04,0.4c0.35,0.11,0.66,0.37,1.01,0.48c0.35,0.11,0.69,0.27,1.03,0.39
		c0.35,0.12,0.7,0.22,1.05,0.34c0.35,0.12,0.76,0.06,1.11,0.18c0.35,0.13,0.63,0.41,0.98,0.54c0.34,0.13,0.71,0.21,1.05,0.35
		c0.34,0.14,0.74,0.13,1.08,0.27c0.34,0.14,0.65,0.37,0.99,0.51c0.34,0.15,0.62,0.43,0.95,0.58c0.34,0.15,0.75,0.13,1.08,0.29
		c0.33,0.16,0.68,0.29,1.01,0.45c0.33,0.16,0.55,0.55,0.88,0.72c0.33,0.17,0.73,0.2,1.05,0.37c0.33,0.17,0.62,0.41,0.94,0.58
		c0.32,0.17,0.61,0.42,0.93,0.6c0.32,0.18,0.66,0.33,0.97,0.52c0.32,0.18,0.63,0.38,0.94,0.57c0.32,0.19,0.65,0.34,0.97,0.53
		c0.31,0.19,0.63,0.38,0.94,0.58c0.31,0.2,0.59,0.44,0.9,0.64c0.31,0.2,0.78,0.16,1.09,0.36c0.31,0.21,0.57,0.47,0.88,0.68
		c0.3,0.21,0.53,0.53,0.83,0.74c0.3,0.21,0.63,0.39,0.92,0.61c0.3,0.22,0.51,0.55,0.8,0.77c0.29,0.22,0.64,0.38,0.93,0.6
		c0.29,0.23,0.57,0.47,0.85,0.7c0.29,0.23,0.67,0.34,0.95,0.58c0.28,0.23,0.46,0.6,0.74,0.83c0.28,0.24,0.68,0.34,0.95,0.59
		c0.28,0.24,0.52,0.52,0.8,0.77c0.27,0.25,0.47,0.58,0.74,0.83c0.27,0.25,0.59,0.45,0.85,0.71c0.27,0.25,0.64,0.4,0.9,0.66
		c0.26,0.26,0.49,0.55,0.75,0.81c0.26,0.26,0.39,0.65,0.64,0.92c0.26,0.26,0.59,0.45,0.85,0.72c0.25,0.27,0.38,0.65,0.63,0.92
		c0.25,0.27,0.61,0.44,0.86,0.71c0.25,0.27,0.54,0.5,0.79,0.78c0.24,0.28,0.33,0.69,0.57,0.97c0.24,0.28,0.54,0.5,0.78,0.79
		c0.23,0.28,0.45,0.58,0.68,0.87c0.23,0.29,0.4,0.62,0.63,0.91c0.23,0.29,0.6,0.47,0.83,0.76c0.22,0.29,0.3,0.7,0.51,1
		c0.22,0.3,0.61,0.47,0.82,0.77c0.22,0.3,0.46,0.58,0.67,0.88c0.21,0.3,0.42,0.61,0.63,0.91c0.21,0.3,0.43,0.6,0.63,0.91
		c0.2,0.31,0.28,0.7,0.48,1.01c0.2,0.31,0.32,0.67,0.52,0.98c0.19,0.31,0.33,0.66,0.52,0.98c0.19,0.32,0.64,0.48,0.82,0.8
		c0.19,0.32,0.2,0.74,0.38,1.06c0.18,0.32,0.32,0.66,0.5,0.99c0.18,0.32,0.41,0.61,0.59,0.94c0.17,0.32,0.43,0.61,0.6,0.94
		c0.17,0.33,0.17,0.74,0.34,1.07c0.16,0.33,0.33,0.66,0.49,0.99c0.16,0.33,0.5,0.58,0.66,0.91c0.16,0.33,0.1,0.77,0.25,1.1
		c0.15,0.34,0.52,0.57,0.67,0.91c0.15,0.34,0.3,0.67,0.44,1.01c0.14,0.34,0.27,0.69,0.41,1.03c0.14,0.34,0.09,0.76,0.22,1.1
		c0.13,0.34,0.49,0.6,0.62,0.95c0.13,0.34,0.06,0.76,0.19,1.11c0.13,0.35,0.26,0.69,0.38,1.04c0.12,0.35,0.35,0.66,0.47,1.01
		c0.12,0.35,0.29,0.68,0.41,1.03c0.11,0.35,0.11,0.74,0.22,1.09c0.11,0.35,0.2,0.71,0.3,1.06c0.1,0.35,0.21,0.71,0.31,1.06
		c0.1,0.36,0.25,0.7,0.35,1.05c0.09,0.36,0.17,0.72,0.26,1.08c0.09,0.36,0.21,0.71,0.29,1.07c0.08,0.36-0.05,0.77,0.03,1.13
		c0.08,0.36,0.16,0.72,0.24,1.08c0.07,0.36,0.25,0.7,0.32,1.06c0.07,0.36,0.19,0.71,0.25,1.08c0.07,0.36,0.09,0.73,0.15,1.1
		c0.06,0.36,0.16,0.72,0.22,1.08c0.06,0.36,0.04,0.74,0.09,1.1c0.05,0.36,0.16,0.72,0.2,1.09c0.05,0.37,0.23,0.72,0.27,1.08
		c0.04,0.37-0.02,0.74,0.02,1.11c0.04,0.37-0.15,0.75-0.12,1.12c0.03,0.37,0.3,0.71,0.33,1.08c0.03,0.37,0.02,0.74,0.04,1.11
		c0.02,0.37-0.02,0.74,0,1.11c0.02,0.37,0.04,0.74,0.06,1.1c0.01,0.37-0.1,0.74-0.09,1.11c0.01,0.37,0.29,0.73,0.3,1.1
		C158.47,82.08,158.28,82.45,158.28,82.82z"/>
</g>
</svg>
