<?xml version="1.0" encoding="utf-8"?>
<!-- Generator: Adobe Illustrator 26.1.0, SVG Export Plug-In . SVG Version: 6.00 Build 0)  -->
<svg version="1.1" id="圖層_1" xmlns="http://www.w3.org/2000/svg" xmlns:xlink="http://www.w3.org/1999/xlink" x="0px" y="0px"
	 viewBox="0 0 139.47 163.88" style="enable-background:new 0 0 139.47 163.88;" xml:space="preserve">
<style type="text/css">
	.st0{fill:#FFE6A9;}
	.st1{fill:#EAD6E6;}
	.st2{fill:#D8EAED;}
	.st3{fill:#FFD2C6;}
	.st4{fill:#FFF4D0;}
</style>
<g>
	<path class="st2" d="M134.26,69.88c-0.12-0.35-0.39-0.65-0.52-1c-0.13-0.35-0.12-0.75-0.25-1.1c-0.13-0.35-0.26-0.7-0.39-1.04
		c-0.14-0.35-0.43-0.63-0.57-0.97c-0.14-0.34-0.1-0.76-0.24-1.11c-0.14-0.34-0.46-0.61-0.61-0.95c-0.15-0.34-0.34-0.66-0.5-1
		c-0.15-0.34-0.13-0.76-0.29-1.09c-0.16-0.34-0.44-0.61-0.6-0.95c-0.16-0.34-0.25-0.71-0.41-1.04c-0.16-0.33-0.18-0.74-0.35-1.07
		c-0.17-0.33-0.57-0.54-0.74-0.87c-0.17-0.33-0.15-0.76-0.32-1.09c-0.18-0.33-0.33-0.67-0.51-0.99c-0.18-0.33-0.42-0.62-0.6-0.94
		c-0.18-0.32-0.54-0.55-0.73-0.87c-0.19-0.32-0.28-0.7-0.46-1.02c-0.19-0.32-0.41-0.62-0.61-0.94c-0.19-0.32-0.45-0.6-0.64-0.91
		c-0.2-0.32-0.22-0.74-0.42-1.05c-0.2-0.31-0.61-0.49-0.81-0.8c-0.2-0.31-0.3-0.69-0.51-1c-0.21-0.31-0.32-0.68-0.53-0.99
		c-0.21-0.31-0.48-0.57-0.69-0.88c-0.21-0.31-0.49-0.57-0.7-0.87c-0.21-0.3-0.4-0.63-0.61-0.93c-0.22-0.3-0.49-0.56-0.71-0.86
		c-0.22-0.3-0.34-0.67-0.56-0.97c-0.22-0.3-0.38-0.65-0.61-0.94c-0.23-0.3-0.53-0.53-0.76-0.83c-0.23-0.29-0.37-0.66-0.6-0.95
		c-0.23-0.29-0.54-0.52-0.78-0.81c-0.23-0.29-0.39-0.64-0.63-0.93c-0.23-0.29-0.42-0.62-0.66-0.9c-0.24-0.29-0.7-0.39-0.94-0.67
		c-0.24-0.29-0.5-0.55-0.74-0.83c-0.24-0.28-0.42-0.62-0.66-0.9c-0.24-0.28-0.42-0.62-0.67-0.9c-0.25-0.28-0.52-0.53-0.77-0.81
		c-0.25-0.28-0.57-0.49-0.82-0.76c-0.25-0.28-0.39-0.65-0.64-0.92c-0.25-0.27-0.59-0.46-0.85-0.74c-0.25-0.27-0.55-0.51-0.8-0.77
		c-0.26-0.27-0.49-0.56-0.75-0.83c-0.26-0.27-0.48-0.57-0.73-0.84c-0.26-0.27-0.44-0.61-0.7-0.88c-0.26-0.26-0.47-0.59-0.73-0.85
		c-0.26-0.26-0.58-0.48-0.84-0.74c-0.27-0.26-0.52-0.53-0.79-0.79c-0.27-0.26-0.57-0.49-0.83-0.74c-0.27-0.26-0.64-0.41-0.91-0.66
		c-0.27-0.26-0.46-0.6-0.73-0.85c-0.27-0.25-0.66-0.38-0.93-0.63c-0.27-0.25-0.54-0.51-0.81-0.76c-0.28-0.25-0.47-0.59-0.75-0.84
		c-0.28-0.25-0.59-0.46-0.86-0.7c-0.28-0.25-0.44-0.63-0.72-0.87c-0.28-0.25-0.73-0.3-1.01-0.54c-0.28-0.24-0.51-0.55-0.79-0.79
		c-0.29-0.24-0.46-0.61-0.75-0.85c-0.29-0.24-0.73-0.3-1.01-0.53c-0.29-0.24-0.47-0.61-0.75-0.84c-0.29-0.24-0.63-0.41-0.92-0.64
		c-0.29-0.24-0.5-0.58-0.78-0.81c-0.29-0.23-0.71-0.31-0.99-0.54c-0.29-0.23-0.5-0.57-0.79-0.8c-0.29-0.23-0.52-0.54-0.81-0.77
		c-0.3-0.23-0.69-0.32-0.99-0.55c-0.3-0.23-0.52-0.54-0.82-0.76c-0.3-0.23-0.63-0.4-0.92-0.62c-0.3-0.22-0.61-0.42-0.91-0.64
		c-0.3-0.22-0.56-0.5-0.86-0.71c-0.3-0.22-0.72-0.27-1.02-0.48c-0.3-0.22-0.48-0.61-0.78-0.82c-0.31-0.22-0.71-0.3-1.01-0.51
		c-0.31-0.22-0.54-0.54-0.84-0.75c-0.31-0.22-0.57-0.5-0.87-0.7c-0.31-0.21-0.78-0.19-1.08-0.39c-0.31-0.21-0.53-0.55-0.83-0.75
		c-0.32-0.21-0.64-0.4-0.94-0.6c-0.32-0.21-0.67-0.35-0.97-0.55c-0.32-0.21-0.63-0.41-0.93-0.6c-0.32-0.21-0.5-0.62-0.79-0.81
		C73.9,1.36,73.5,1.3,73.2,1.12c-0.3-0.18-0.67-0.2-0.98-0.33c-0.32-0.13-0.59-0.38-0.93-0.47c-0.34-0.08-0.67-0.29-1.02-0.32
		c-0.35-0.03-0.71,0.06-1.06,0.08c-0.35,0.03-0.7,0.07-1.04,0.15c-0.34,0.08-0.62,0.34-0.94,0.48c-0.32,0.13-0.69,0.16-0.99,0.35
		c-0.3,0.18-0.57,0.44-0.9,0.65c-0.3,0.19-0.69,0.26-1.02,0.47c-0.3,0.19-0.62,0.38-0.94,0.59c-0.3,0.2-0.48,0.59-0.8,0.8
		c-0.3,0.2-0.62,0.39-0.94,0.6c-0.3,0.2-0.73,0.22-1.05,0.43c-0.3,0.2-0.56,0.48-0.87,0.7c-0.3,0.21-0.6,0.42-0.91,0.64
		c-0.3,0.21-0.63,0.38-0.94,0.6c-0.3,0.21-0.5,0.56-0.81,0.78c-0.3,0.21-0.6,0.43-0.9,0.65c-0.3,0.21-0.64,0.37-0.95,0.59
		c-0.29,0.21-0.59,0.44-0.89,0.66c-0.29,0.22-0.6,0.43-0.9,0.65c-0.29,0.22-0.53,0.52-0.82,0.75c-0.29,0.22-0.57,0.46-0.87,0.69
		c-0.29,0.22-0.61,0.41-0.91,0.64c-0.29,0.22-0.59,0.44-0.88,0.67c-0.29,0.23-0.7,0.31-0.99,0.54c-0.29,0.23-0.46,0.61-0.75,0.84
		c-0.29,0.23-0.61,0.42-0.9,0.65c-0.29,0.23-0.62,0.41-0.91,0.65c-0.28,0.23-0.45,0.62-0.73,0.86c-0.28,0.24-0.59,0.45-0.87,0.69
		c-0.28,0.24-0.56,0.48-0.84,0.73c-0.28,0.24-0.52,0.53-0.8,0.77c-0.28,0.24-0.58,0.46-0.86,0.71c-0.28,0.24-0.6,0.43-0.88,0.68
		c-0.28,0.24-0.63,0.4-0.91,0.65c-0.28,0.25-0.49,0.56-0.77,0.81c-0.27,0.25-0.53,0.52-0.81,0.77c-0.27,0.25-0.59,0.46-0.86,0.71
		c-0.27,0.25-0.59,0.45-0.86,0.71c-0.27,0.25-0.47,0.58-0.74,0.84c-0.27,0.26-0.53,0.52-0.8,0.78c-0.27,0.26-0.59,0.46-0.85,0.72
		c-0.26,0.26-0.54,0.52-0.8,0.78c-0.26,0.26-0.43,0.62-0.69,0.88c-0.26,0.26-0.48,0.57-0.74,0.83c-0.26,0.27-0.52,0.53-0.78,0.79
		c-0.26,0.27-0.51,0.54-0.76,0.81c-0.26,0.27-0.5,0.55-0.75,0.83c-0.25,0.27-0.68,0.38-0.93,0.66c-0.25,0.27-0.44,0.61-0.69,0.88
		c-0.25,0.27-0.48,0.56-0.73,0.84c-0.25,0.28-0.45,0.59-0.7,0.87c-0.25,0.28-0.56,0.5-0.8,0.78c-0.24,0.28-0.56,0.5-0.81,0.78
		c-0.24,0.28-0.33,0.7-0.57,0.98c-0.24,0.28-0.51,0.54-0.75,0.83c-0.24,0.29-0.46,0.58-0.7,0.87c-0.23,0.29-0.62,0.45-0.85,0.74
		c-0.23,0.29-0.21,0.78-0.44,1.07c-0.23,0.29-0.61,0.46-0.84,0.76c-0.23,0.29-0.3,0.71-0.53,1c-0.22,0.3-0.65,0.44-0.87,0.74
		c-0.22,0.3-0.43,0.61-0.65,0.91c-0.22,0.3-0.29,0.71-0.5,1.01c-0.22,0.3-0.56,0.52-0.77,0.82c-0.21,0.3-0.38,0.64-0.6,0.95
		c-0.21,0.31-0.35,0.66-0.55,0.97c-0.21,0.31-0.37,0.65-0.58,0.96c-0.21,0.31-0.56,0.52-0.77,0.83c-0.2,0.31-0.37,0.65-0.57,0.96
		c-0.2,0.31-0.41,0.62-0.61,0.94c-0.2,0.32-0.24,0.72-0.44,1.04c-0.19,0.32-0.43,0.61-0.62,0.93c-0.19,0.32-0.5,0.57-0.69,0.89
		c-0.19,0.32-0.34,0.66-0.52,0.99c-0.18,0.32-0.42,0.62-0.59,0.95c-0.18,0.33-0.24,0.72-0.42,1.05c-0.18,0.33-0.36,0.65-0.53,0.98
		c-0.17,0.33-0.39,0.64-0.56,0.97c-0.17,0.33-0.23,0.72-0.39,1.05c-0.17,0.33-0.37,0.65-0.53,0.98c-0.16,0.34-0.3,0.68-0.46,1.02
		C8.58,62,8.36,62.3,8.21,62.64C8.06,62.98,8,63.37,7.85,63.71c-0.15,0.34-0.29,0.68-0.44,1.03c-0.15,0.34-0.39,0.64-0.53,0.99
		c-0.14,0.34-0.39,0.65-0.53,0.99C6.22,67.06,6.13,67.43,6,67.78c-0.13,0.35-0.17,0.73-0.29,1.08s-0.32,0.68-0.45,1.03
		c-0.14,0.33-0.3,0.66-0.44,1c-0.13,0.34-0.21,0.7-0.34,1.04c-0.13,0.34-0.38,0.63-0.5,0.98c-0.12,0.34-0.15,0.72-0.26,1.06
		c-0.12,0.34-0.13,0.72-0.24,1.07c-0.11,0.35-0.24,0.68-0.35,1.03c-0.11,0.35-0.29,0.67-0.39,1.02c-0.1,0.35-0.25,0.68-0.35,1.03
		c-0.1,0.35-0.18,0.7-0.27,1.06c-0.09,0.35-0.21,0.7-0.29,1.05c-0.08,0.35-0.03,0.74-0.11,1.09c-0.08,0.35-0.33,0.67-0.4,1.03
		c-0.07,0.36,0.01,0.74-0.06,1.1c-0.07,0.36-0.1,0.72-0.16,1.08c-0.06,0.36-0.3,0.69-0.35,1.05c-0.05,0.36,0.08,0.74,0.03,1.1
		c-0.05,0.36-0.2,0.71-0.24,1.07c-0.04,0.36-0.13,0.72-0.16,1.08c-0.04,0.36-0.05,0.73-0.08,1.09c-0.03,0.36-0.13,0.72-0.16,1.08
		c-0.02,0.36-0.05,0.73-0.07,1.09C0.05,92.45,0.01,92.81,0,93.17c-0.01,0.36,0.15,0.73,0.14,1.1c-0.01,0.36-0.01,0.73-0.01,1.09
		c0,0.36,0,0.73,0,1.09c0,0.36-0.06,0.73-0.05,1.09c0.01,0.36,0.15,0.72,0.16,1.09c0.02,0.36-0.08,0.73-0.06,1.1
		c0.02,0.37,0.23,0.72,0.26,1.09c0.03,0.37,0,0.74,0.04,1.1c0.03,0.37-0.01,0.74,0.03,1.11c0.04,0.37,0.05,0.74,0.1,1.1
		c0.05,0.37,0.06,0.74,0.12,1.1c0.05,0.36,0.32,0.7,0.38,1.06c0.06,0.36-0.17,0.78-0.11,1.14c0.06,0.36,0.34,0.69,0.42,1.05
		c0.07,0.36-0.03,0.76,0.05,1.12c0.08,0.36,0.13,0.73,0.21,1.09c0.08,0.36,0.41,0.66,0.5,1.02c0.09,0.36-0.03,0.77,0.06,1.12
		c0.1,0.36,0.39,0.66,0.49,1.01c0.1,0.35,0.22,0.7,0.33,1.05c0.11,0.35,0.12,0.73,0.24,1.08c0.11,0.35,0.25,0.69,0.37,1.04
		c0.12,0.35,0.22,0.7,0.34,1.05c0.12,0.35,0.33,0.66,0.46,1c0.13,0.34,0.2,0.71,0.34,1.05c0.14,0.34,0.18,0.72,0.32,1.06
		c0.14,0.34,0.24,0.7,0.39,1.04c0.15,0.34,0.36,0.65,0.51,0.98c0.15,0.34,0.3,0.67,0.46,1c0.16,0.33,0.5,0.58,0.66,0.91
		c0.16,0.33,0.33,0.66,0.5,0.98c0.17,0.33,0.23,0.71,0.4,1.04c0.17,0.32,0.32,0.66,0.5,0.98c0.18,0.32,0.44,0.59,0.63,0.91
		c0.18,0.32,0.19,0.74,0.38,1.06c0.19,0.32,0.48,0.57,0.68,0.88c0.19,0.31,0.38,0.63,0.58,0.94c0.2,0.31,0.3,0.68,0.51,0.99
		c0.2,0.31,0.66,0.44,0.87,0.74c0.21,0.3,0.26,0.72,0.47,1.01c0.21,0.3,0.36,0.65,0.57,0.95c0.22,0.3,0.53,0.52,0.76,0.81
		c0.22,0.29,0.46,0.57,0.69,0.86c0.23,0.29,0.37,0.65,0.6,0.93c0.23,0.28,0.57,0.48,0.81,0.76c0.24,0.28,0.5,0.54,0.75,0.81
		c0.24,0.28,0.47,0.56,0.72,0.84c0.25,0.27,0.39,0.64,0.64,0.91c0.25,0.27,0.66,0.39,0.91,0.66c0.26,0.27,0.41,0.63,0.67,0.89
		c0.26,0.26,0.44,0.6,0.7,0.86c0.26,0.26,0.66,0.38,0.93,0.63c0.27,0.25,0.5,0.54,0.77,0.79c0.27,0.25,0.49,0.55,0.77,0.8
		c0.28,0.24,0.72,0.3,1,0.54c0.28,0.24,0.49,0.55,0.78,0.79c0.28,0.24,0.5,0.55,0.78,0.78c0.29,0.23,0.61,0.41,0.9,0.64
		c0.29,0.23,0.53,0.52,0.82,0.74c0.29,0.22,0.58,0.46,0.87,0.68c0.3,0.22,0.59,0.44,0.9,0.65c0.3,0.21,0.6,0.43,0.9,0.64
		c0.3,0.21,0.67,0.33,0.97,0.53c0.31,0.2,0.55,0.51,0.86,0.71c0.31,0.2,0.71,0.25,1.02,0.45c0.31,0.19,0.55,0.51,0.87,0.7
		c0.32,0.19,0.7,0.26,1.02,0.44c0.32,0.18,0.67,0.31,0.99,0.49c0.32,0.18,0.61,0.42,0.93,0.6c0.32,0.17,0.65,0.33,0.98,0.5
		c0.33,0.17,0.67,0.31,1,0.47c0.33,0.16,0.61,0.42,0.95,0.58c0.33,0.16,0.72,0.19,1.06,0.34c0.33,0.15,0.68,0.29,1.01,0.43
		c0.34,0.15,0.6,0.48,0.94,0.62c0.34,0.14,0.73,0.15,1.08,0.29c0.34,0.14,0.66,0.34,1,0.47c0.34,0.13,0.68,0.29,1.02,0.42
		c0.35,0.13,0.71,0.2,1.06,0.32c0.35,0.12,0.73,0.14,1.08,0.25c0.35,0.11,0.63,0.43,0.99,0.54c0.35,0.11,0.78-0.04,1.13,0.06
		c0.35,0.1,0.67,0.34,1.02,0.43c0.35,0.1,0.7,0.25,1.05,0.34c0.36,0.09,0.73,0.09,1.09,0.18c0.36,0.09,0.68,0.31,1.04,0.39
		c0.36,0.08,0.74,0.05,1.1,0.12c0.36,0.08,0.74,0.03,1.1,0.1c0.36,0.07,0.71,0.22,1.07,0.29c0.36,0.06,0.71,0.23,1.07,0.29
		c0.36,0.06,0.74,0.03,1.1,0.09c0.36,0.05,0.75-0.04,1.11,0.01c0.36,0.05,0.72,0.18,1.08,0.22c0.37,0.04,0.73,0.13,1.09,0.17
		c0.37,0.04,0.74,0,1.11,0.03c0.37,0.03,0.72,0.2,1.09,0.22c0.37,0.02,0.73,0.13,1.1,0.15c0.37,0.02,0.75-0.2,1.11-0.19
		c0.37,0.01,0.73,0.16,1.1,0.17c0.37,0.01,0.74,0.08,1.11,0.08c0.37,0,0.74-0.21,1.11-0.22c0.37,0,0.74,0.12,1.11,0.11
		c0.37-0.01,0.73-0.14,1.1-0.16c0.37-0.02,0.74,0.02,1.11,0c0.37-0.02,0.74-0.04,1.11-0.06c0.37-0.03,0.73-0.16,1.09-0.19
		c0.37-0.03,0.74,0,1.11-0.04c0.37-0.04,0.75,0.04,1.11,0c0.37-0.04,0.72-0.18,1.09-0.23c0.37-0.05,0.75,0.01,1.11-0.04
		c0.37-0.06,0.71-0.22,1.08-0.28c0.36-0.06,0.73-0.11,1.09-0.18c0.36-0.07,0.75-0.03,1.11-0.1c0.36-0.07,0.67-0.39,1.03-0.47
		c0.36-0.08,0.74-0.09,1.09-0.17c0.36-0.08,0.76-0.01,1.12-0.1c0.36-0.09,0.69-0.28,1.05-0.38c0.36-0.1,0.72-0.18,1.07-0.28
		c0.36-0.1,0.72-0.16,1.08-0.27c0.35-0.11,0.74-0.12,1.09-0.23c0.35-0.11,0.65-0.39,1-0.51c0.35-0.12,0.68-0.29,1.03-0.41
		c0.35-0.12,0.67-0.32,1.01-0.44c0.35-0.13,0.74-0.12,1.09-0.26c0.34-0.13,0.72-0.18,1.06-0.32c0.34-0.14,0.62-0.43,0.96-0.57
		c0.34-0.14,0.69-0.27,1.03-0.42c0.34-0.15,0.75-0.14,1.09-0.29c0.34-0.16,0.55-0.57,0.88-0.73c0.33-0.16,0.78-0.08,1.11-0.24
		c0.33-0.17,0.64-0.37,0.97-0.54c0.33-0.17,0.65-0.36,0.97-0.54c0.32-0.18,0.59-0.47,0.91-0.65c0.32-0.18,0.72-0.22,1.04-0.41
		c0.32-0.19,0.66-0.35,0.97-0.54c0.32-0.19,0.55-0.52,0.86-0.72c0.31-0.2,0.56-0.5,0.87-0.7c0.31-0.2,0.64-0.37,0.95-0.57
		c0.31-0.21,0.61-0.42,0.91-0.63c0.3-0.21,0.75-0.22,1.05-0.43c0.3-0.22,0.43-0.66,0.73-0.88c0.3-0.22,0.72-0.27,1.01-0.5
		c0.29-0.23,0.47-0.6,0.76-0.83c0.29-0.23,0.65-0.37,0.93-0.61c0.29-0.23,0.49-0.56,0.77-0.8c0.28-0.24,0.69-0.33,0.97-0.57
		c0.28-0.24,0.45-0.61,0.72-0.85c0.27-0.25,0.61-0.42,0.88-0.68c0.27-0.25,0.5-0.54,0.77-0.8c0.27-0.26,0.59-0.45,0.85-0.71
		c0.26-0.26,0.43-0.62,0.68-0.88c0.26-0.26,0.65-0.4,0.91-0.67c0.25-0.27,0.39-0.65,0.64-0.92c0.25-0.27,0.49-0.55,0.73-0.83
		c0.24-0.28,0.4-0.63,0.64-0.91c0.24-0.28,0.61-0.45,0.85-0.73c0.24-0.28,0.37-0.65,0.6-0.94c0.23-0.29,0.57-0.49,0.79-0.78
		c0.23-0.29,0.33-0.68,0.55-0.97c0.22-0.3,0.55-0.51,0.77-0.81c0.22-0.3,0.43-0.6,0.64-0.9c0.21-0.3,0.26-0.72,0.46-1.02
		c0.21-0.31,0.62-0.47,0.82-0.78c0.2-0.31,0.32-0.67,0.52-0.98c0.2-0.31,0.5-0.56,0.7-0.87c0.19-0.32,0.32-0.67,0.5-0.99
		c0.19-0.32,0.17-0.75,0.35-1.07c0.18-0.32,0.48-0.57,0.66-0.9c0.18-0.32,0.5-0.57,0.67-0.9c0.17-0.33,0.13-0.76,0.29-1.09
		c0.16-0.33,0.42-0.61,0.58-0.95c0.16-0.33,0.44-0.61,0.6-0.94c0.15-0.34,0.19-0.73,0.34-1.06c0.15-0.34,0.19-0.72,0.33-1.06
		c0.14-0.34,0.32-0.67,0.46-1.01c0.14-0.34,0.29-0.68,0.42-1.02c0.13-0.34,0.27-0.69,0.4-1.03c0.13-0.35,0.2-0.71,0.32-1.06
		c0.12-0.35,0.31-0.67,0.43-1.02c0.11-0.35,0.27-0.69,0.37-1.04c0.11-0.35,0.26-0.69,0.36-1.05c0.1-0.35,0.16-0.72,0.25-1.08
		c0.1-0.36,0.21-0.71,0.3-1.07c0.09-0.36-0.03-0.77,0.05-1.13c0.08-0.36,0.2-0.71,0.27-1.07c0.08-0.36,0.15-0.72,0.23-1.08
		c0.07-0.36,0.08-0.73,0.15-1.1c0.07-0.36,0.22-0.71,0.28-1.07c0.06-0.36,0.13-0.73,0.18-1.09c0.05-0.36,0.05-0.74,0.1-1.1
		c0.05-0.37,0.17-0.72,0.21-1.09c0.04-0.37,0.17-0.72,0.21-1.09c0.04-0.37,0.01-0.74,0.04-1.11c0.03-0.37,0.01-0.74,0.03-1.11
		c0.02-0.37,0.07-0.73,0.09-1.1c0.02-0.37-0.01-0.74,0-1.11c0.01-0.37,0.1-0.74,0.11-1.11c0.01-0.37,0.11-0.74,0.11-1.11
		c0-0.37-0.22-0.73-0.22-1.1c-0.01-0.37,0.19-0.74,0.17-1.11c-0.01-0.37-0.02-0.74-0.04-1.1c-0.02-0.37-0.16-0.73-0.18-1.09
		c-0.02-0.37-0.15-0.72-0.18-1.09c-0.03-0.37,0.11-0.75,0.08-1.11c-0.04-0.37-0.27-0.71-0.31-1.07c-0.04-0.36,0.11-0.75,0.06-1.12
		c-0.05-0.36-0.14-0.72-0.19-1.08c-0.05-0.36-0.03-0.74-0.09-1.1c-0.06-0.36-0.11-0.73-0.17-1.09c-0.07-0.36-0.4-0.67-0.48-1.03
		c-0.07-0.36-0.02-0.74-0.1-1.1c-0.08-0.36-0.12-0.73-0.2-1.08c-0.08-0.36-0.27-0.69-0.36-1.04c-0.09-0.36-0.1-0.73-0.19-1.09
		c-0.1-0.35-0.28-0.68-0.38-1.03c-0.1-0.35-0.19-0.71-0.3-1.06c-0.11-0.35-0.2-0.7-0.31-1.05c-0.11-0.35-0.3-0.67-0.42-1.02
		c-0.12-0.35,0.01-0.78-0.11-1.13c-0.12-0.35-0.33-0.66-0.46-1c-0.13-0.34-0.16-0.72-0.3-1.06
		C134.64,70.51,134.41,70.21,134.26,69.88z"/>
</g>
</svg>
