<?xml version="1.0" encoding="utf-8"?>
<!-- Generator: Adobe Illustrator 26.1.0, SVG Export Plug-In . SVG Version: 6.00 Build 0)  -->
<svg version="1.1" id="圖層_1" xmlns="http://www.w3.org/2000/svg" xmlns:xlink="http://www.w3.org/1999/xlink" x="0px" y="0px"
	 viewBox="0 0 161.34 130.99" style="enable-background:new 0 0 161.34 130.99;" xml:space="preserve">
<style type="text/css">
	.st0{fill:#C9C3BC;}
	.st1{fill:#A8A09A;}
</style>
<g>
	<path class="st0" d="M161.35,89.13c0.04-0.55-0.13-1.11-0.12-1.66c0.02-0.55,0.03-1.1,0.03-1.65c0-0.55,0.1-1.11,0.08-1.66
		s-0.25-1.09-0.28-1.64c-0.04-0.55-0.01-1.1-0.07-1.65c-0.05-0.55-0.04-1.11-0.11-1.65c-0.07-0.55-0.19-1.09-0.27-1.64
		c-0.08-0.55-0.06-1.11-0.15-1.65c-0.03-0.14-0.07-0.27-0.11-0.4c-0.14-0.4-0.35-0.78-0.45-1.18c-0.11-0.56,0.32-1.25,0.17-1.8
		c0-0.01-0.01-0.02-0.02-0.04c0-0.01,0-0.02,0-0.03c-0.15-0.54-0.79-0.95-0.98-1.48c-0.15-0.53,0.04-1.2-0.14-1.71
		c0-0.01-0.01-0.02-0.01-0.02c0-0.01,0-0.03-0.01-0.05c-0.2-0.54-0.54-1.02-0.75-1.55c-0.21-0.53-0.62-0.98-0.84-1.51
		c-0.05-0.11-0.08-0.23-0.11-0.35c-0.06-0.3-0.1-0.62-0.17-0.91c-0.03-0.15-0.07-0.29-0.13-0.43c-0.22-0.53-0.51-1.03-0.73-1.56
		c-0.22-0.53-0.53-1.02-0.74-1.55c-0.21-0.53-0.38-1.08-0.57-1.62c-0.19-0.54-0.34-1.09-0.51-1.64c-0.16-0.53-0.45-1.02-0.59-1.56
		c-0.13-0.56,0.04-1.16-0.05-1.73c-0.09-0.56-0.01-1.13-0.06-1.7c-0.04-0.39-0.11-0.67-0.13-0.97c-0.02-0.58-0.46-1.15-0.47-1.73
		c-0.02-0.58-0.06-1.16-0.07-1.74s-0.05-1.16-0.06-1.74c0-0.58,0.09-1.16,0.09-1.74c0-0.58,0.17-1.16,0.17-1.74
		c0-0.58,0.19-1.16,0.2-1.74c0-0.58-0.49-1.16-0.49-1.75c0-0.58-0.04-1.16-0.04-1.74s0.32-1.16,0.31-1.74s0.09-1.17,0.08-1.75
		s-0.44-1.15-0.46-1.73c-0.02-0.58,0.03-1.16,0-1.74c-0.03-0.58,0.2-1.17,0.16-1.75c-0.04-0.58,0.02-1.17-0.03-1.75
		c-0.05-0.58-0.51-1.12-0.57-1.69c-0.06-0.58-0.03-1.16-0.11-1.74c-0.08-0.58-0.16-1.15-0.26-1.72s-0.27-1.13-0.39-1.69
		c-0.12-0.57,0.19-1.23,0.05-1.8c-0.14-0.56-0.43-1.09-0.6-1.65c-0.16-0.56-0.13-1.18-0.31-1.74c-0.18-0.55-0.42-1.1-0.63-1.64
		s-0.75-0.95-0.98-1.48c-0.23-0.53-0.62-0.98-0.88-1.5c-0.26-0.52-0.06-1.29-0.34-1.79c-0.29-0.5-0.83-0.87-1.14-1.36
		s-0.61-0.99-0.95-1.47c-0.34-0.48-0.55-1.07-0.93-1.49c-0.39-0.43-0.94-0.73-1.37-1.1c-0.44-0.38-0.84-0.84-1.32-1.16
		s-1.13-0.38-1.64-0.63c-0.51-0.26-1.01-0.55-1.56-0.75c-0.54-0.2-1.12-0.25-1.68-0.39c-0.55-0.14-1.12-0.18-1.7-0.27
		c-0.56-0.09-1.13-0.06-1.71-0.11c-0.57-0.04-1.12-0.56-1.7-0.56c-0.57,0-1.13,0.48-1.71,0.51c-0.57,0.03-1.19-0.44-1.77-0.37
		c-0.57,0.06-1.12,0.32-1.7,0.41c-0.56,0.09-1.1,0.36-1.67,0.48c-0.56,0.12-1.18-0.01-1.75,0.13c-0.55,0.14-1.12,0.28-1.68,0.44
		c-0.55,0.16-1.07,0.45-1.62,0.63c-0.54,0.18-1.03,0.54-1.57,0.74c-0.54,0.2-1.22,0.05-1.75,0.27c-0.53,0.21-0.94,0.74-1.47,0.98
		c-0.53,0.23-1.09,0.38-1.62,0.62c-0.52,0.24-0.9,0.77-1.42,1.03c-0.51,0.26-1.07,0.44-1.57,0.71c-0.51,0.27-1.17,0.26-1.67,0.55
		c-0.13,0.07-0.25,0.17-0.36,0.28c-0.21,0.21-0.39,0.45-0.6,0.67c-0.1,0.1-0.21,0.2-0.33,0.27c-0.49,0.3-0.96,0.63-1.45,0.94
		s-0.97,0.62-1.45,0.94c-0.48,0.32-1.27,0.2-1.74,0.53c-0.01,0-0.01,0.01-0.02,0.02c0,0,0,0,0,0c-0.46,0.33-0.57,1.17-1.02,1.51
		c-0.46,0.34-1.03,0.54-1.47,0.9c-0.46,0.36-1.06,0.52-1.51,0.89c-0.01,0-0.01,0.01-0.02,0.02c0,0,0,0,0,0
		c-0.44,0.37-0.64,1.01-1.06,1.38c-0.44,0.38-1.16,0.44-1.58,0.83c-0.43,0.39-0.8,0.69-1.21,1.09c-0.55-0.09-1.05,0.12-1.61,0.04
		s-1.12-0.07-1.68-0.14s-1.08-0.47-1.64-0.53c-0.56-0.05-1.13-0.03-1.69-0.07s-1.13,0.15-1.69,0.12c-0.56-0.03-1.11-0.13-1.67-0.16
		c-0.56-0.02-1.12-0.02-1.68-0.04c-0.43-0.01-0.85-0.07-1.28-0.11c0,0,0,0,0,0c-0.11-0.01-0.22-0.02-0.32-0.02
		c-0.03,0-0.05-0.01-0.08-0.01c-0.56,0-1.12-0.23-1.68-0.23c0,0,0,0-0.01,0c0,0,0,0,0,0c-0.56,0.01-1.12,0.08-1.68,0.09
		c-0.56,0.02-1.12,0.18-1.68,0.21c-0.56,0.03-1.12,0.1-1.68,0.13c-0.56,0.04-1.09,0.43-1.65,0.48c-0.56,0.04-1.14-0.29-1.7-0.24
		c0,0,0,0,0,0c0,0-0.01,0-0.01,0c-0.56,0.05-1.09,0.32-1.65,0.38c-0.08,0.01-0.15,0-0.23,0c-0.35,0-0.7-0.07-1.05-0.1
		c-0.14-0.01-0.29-0.01-0.43,0.01c-0.56,0.07-1.13,0.03-1.69,0.11c-0.55,0.08-1.12,0.62-1.67,0.72c-0.41-0.4-0.99-0.74-1.42-1.13
		c-0.42-0.39-0.45-1.22-0.88-1.6c-0.43-0.37-1.03-0.57-1.47-0.93s-0.81-0.82-1.27-1.18c-0.45-0.35-1.04-0.54-1.5-0.88
		c-0.46-0.34-1-0.58-1.47-0.91c-0.47-0.33-0.76-0.93-1.24-1.25c-0.48-0.32-0.92-0.7-1.41-1.01s-1.19-0.27-1.68-0.56
		c-0.49-0.3-1.02-0.52-1.52-0.8c-0.5-0.28-0.93-0.69-1.44-0.96c-0.51-0.27-1.05-0.46-1.57-0.72c-0.52-0.26-0.91-0.76-1.43-1
		c-0.52-0.25-1.15-0.26-1.67-0.49c-0.53-0.23-1.08-0.39-1.61-0.6c-0.54-0.22-1.04-0.5-1.57-0.7c-0.54-0.2-1.04-0.51-1.59-0.69
		c-0.55-0.18-1.03-0.61-1.57-0.77c-0.56-0.16-1.17-0.13-1.72-0.27c-0.56-0.14-1.13-0.25-1.69-0.37c-0.57-0.12-1.11-0.4-1.67-0.49
		c0,0-0.01,0-0.01,0c0,0,0,0,0,0c-0.57-0.09-1.2,0.34-1.77,0.28c-0.58-0.06-1.12-0.4-1.69-0.44c-0.58-0.03-1.16-0.32-1.73-0.32
		c0,0,0,0,0,0c0,0,0,0-0.01,0c-0.58,0.01-1.16,0.31-1.72,0.36c-0.43,0.04-0.89-0.08-1.33-0.09c-0.15-0.01-0.29,0-0.43,0.02
		c-0.57,0.09-1.14,0.31-1.69,0.45c-0.56,0.14-1.01,0.64-1.55,0.84c-0.54,0.2-1.21,0.1-1.72,0.36C19.74,2.5,19.35,3,18.87,3.32
		s-0.93,0.66-1.37,1.03c-0.43,0.37-0.87,0.74-1.26,1.17c-0.38,0.42-0.55,1-0.89,1.48c-0.34,0.47-0.84,0.82-1.15,1.29
		c-0.32,0.49-0.69,0.93-0.98,1.42c-0.3,0.5-0.48,1.06-0.75,1.55c-0.28,0.51-0.47,1.05-0.72,1.56c-0.26,0.52-0.61,0.99-0.84,1.5
		c-0.23,0.53-0.19,1.16-0.4,1.69c-0.21,0.54-0.47,1.04-0.65,1.58c-0.18,0.55-0.37,1.08-0.52,1.63c-0.16,0.55-0.64,1.02-0.77,1.57
		c-0.13,0.56,0.12,1.2,0.02,1.76c-0.11,0.56-0.26,1.11-0.34,1.68c-0.09,0.57-0.31,1.11-0.38,1.68s-0.3,1.12-0.35,1.69
		s0.22,1.16,0.19,1.73c-0.03,0.57-0.16,1.13-0.18,1.71c-0.02,0.57-0.15,1.14-0.16,1.71s0.18,1.14,0.18,1.72
		c0,0.57-0.27,1.14-0.26,1.72c0.01,0.57,0.12,1.14,0.13,1.72c0.01,0.57-0.21,1.15-0.2,1.72c0.01,0.57,0.22,1.14,0.23,1.71
		s-0.03,1.14-0.03,1.71c0.01,0.57,0.47,1.14,0.47,1.71c0,0.57-0.56,1.14-0.57,1.72c0,0.57,0.45,1.14,0.44,1.72
		c-0.01,0.57-0.33,1.14-0.35,1.71c-0.02,0.57-0.26,1.13-0.29,1.71c-0.03,0.56,0.12,1.11,0.05,1.66c-0.08,0.55,0.05,1.14-0.07,1.68
		c-0.12,0.54-0.57,1-0.72,1.53c-0.15,0.53-0.09,1.13-0.27,1.66c-0.18,0.53-0.12,1.14-0.32,1.66c-0.2,0.52-0.88,0.85-1.09,1.36
		c-0.21,0.51-0.33,1.06-0.53,1.58c-0.21,0.51-0.02,1.19-0.22,1.7c-0.2,0.52-0.93,0.84-1.12,1.36c-0.19,0.52-0.42,1.04-0.58,1.57
		c-0.17,0.55-0.06,1.18-0.21,1.74c-0.15,0.55-0.53,1.05-0.66,1.61c-0.14,0.56,0.3,1.24,0.18,1.8S1.1,73.6,1,74.17
		c-0.1,0.56-0.57,1.07-0.65,1.64c-0.06,0.57,0.3,1.19,0.24,1.76c-0.06,0.57-0.54,1.1-0.59,1.68c0,0.02,0,0.05,0,0.07c0,0,0,0,0,0
		c-0.02,0.55,0.21,1.12,0.19,1.67c-0.02,0.57,0.19,1.15,0.19,1.72c-0.01,0.57-0.15,1.14-0.14,1.72c0.01,0.57,0.19,1.14,0.22,1.71
		c0.03,0.57,0.15,1.13,0.2,1.7c0.05,0.57-0.46,1.2-0.39,1.77s0.61,1.07,0.7,1.64c0.09,0.57-0.07,1.18,0.04,1.74s0.41,1.08,0.54,1.64
		s0.02,1.18,0.18,1.73c0.15,0.55,0.58,1.03,0.75,1.57c0.17,0.55,0.27,1.12,0.46,1.66c0.19,0.54,0.61,0.99,0.82,1.52
		c0.21,0.53-0.05,1.27,0.18,1.79s0.46,1.06,0.72,1.57c0.26,0.51,0.55,1.02,0.82,1.52c0.28,0.5,0.52,1.04,0.82,1.53
		s0.76,0.89,1.08,1.36c0.32,0.48,0.75,0.88,1.09,1.34c0.34,0.46,0.56,1.02,0.92,1.47c0.36,0.45,0.96,0.69,1.35,1.12
		c0.38,0.43,0.88,0.73,1.28,1.14c0.4,0.41,0.41,1.22,0.83,1.61c0.42,0.39,1.19,0.39,1.62,0.77c0.43,0.37,0.66,0.99,1.12,1.35
		c0.45,0.35,1.14,0.38,1.61,0.72c0.47,0.33,0.76,0.9,1.23,1.21c0.48,0.31,0.85,0.79,1.34,1.09s1.12,0.35,1.61,0.63
		c0.5,0.28,0.96,0.62,1.46,0.89c0.5,0.26,1.02,0.5,1.54,0.75c0.51,0.25,1.05,0.44,1.57,0.67s1.02,0.5,1.55,0.72
		c0.53,0.22,1.02,0.51,1.55,0.72c0.53,0.2,1.12,0.25,1.66,0.44c0.54,0.19,1.11,0.26,1.65,0.44c0.54,0.17,1.04,0.47,1.59,0.64
		c0.54,0.16,1.12,0.22,1.67,0.37s1.1,0.29,1.65,0.42c0.55,0.14,1.06,0.45,1.62,0.58c0.55,0.13,1.06,0.49,1.62,0.61
		s1.22-0.29,1.78-0.18s1.07,0.49,1.63,0.59c0.56,0.1,1.09,0.43,1.65,0.52c0.56,0.09,1.15,0.04,1.71,0.12
		c0.56,0.08,1.13,0.15,1.7,0.22c0.56,0.07,1.17-0.18,1.73-0.12c0.57,0.06,1.14,0.04,1.71,0.09c0.57,0.05,1.1,0.5,1.67,0.55
		c0.57,0.05,1.16-0.31,1.73-0.27s1.11,0.43,1.68,0.46c0.57,0.03,1.14-0.03,1.71,0c0.57,0.03,1.14-0.06,1.71-0.04
		c0.57,0.02,1.13,0.25,1.7,0.27s1.14-0.17,1.71-0.15c0.57,0.01,1.14,0.03,1.71,0.04s1.14-0.15,1.71-0.14s1.14,0.49,1.71,0.49
		c0.57,0,1.14-0.52,1.71-0.52s1.14,0.01,1.71,0.01s1.14,0.33,1.71,0.33c0.57-0.01,1.14-0.08,1.71-0.09c0.57-0.01,1.14-0.32,1.7-0.33
		c0.57-0.01,1.15,0.47,1.72,0.46c0.57-0.01,1.13-0.3,1.7-0.32c0.57-0.01,1.15,0.32,1.72,0.3c0.57-0.01,1.13-0.51,1.69-0.53
		c0.57-0.01,1.14-0.1,1.71-0.11s1.14,0.03,1.71,0.01c0.57-0.01,1.15,0.34,1.72,0.33c0.57-0.01,1.14-0.19,1.7-0.2
		c0.57-0.01,1.14,0.28,1.71,0.27c0.57-0.01,1.14-0.01,1.71-0.02s1.14-0.09,1.7-0.1c0.57,0,1.14-0.5,1.7-0.5s1.13,0.19,1.69,0.18
		c0.56-0.01,1.13,0.08,1.7,0.07c0.56-0.02,1.12-0.2,1.69-0.23c0.56-0.03,1.12-0.16,1.69-0.19c0.56-0.04,1.15,0.27,1.72,0.23
		c0.56-0.04,1.13-0.07,1.7-0.12c0.56-0.05,1.11-0.25,1.68-0.31c0.56-0.06,1.12-0.16,1.68-0.23s1.14-0.04,1.7-0.12
		s1.14-0.08,1.7-0.17c0.56-0.09,1.09-0.37,1.65-0.47c0.56-0.1,1.13-0.14,1.68-0.25c0.56-0.11,1.12-0.18,1.68-0.3
		c0.55-0.12,1.12-0.18,1.68-0.31c0.55-0.13,1.07-0.4,1.62-0.54c0.55-0.14,1.17-0.03,1.72-0.18c0.55-0.15,0.95-0.8,1.49-0.96
		c0.54-0.16,1.22,0.1,1.76-0.07c0.54-0.18,0.97-0.68,1.5-0.87c0.54-0.19,1-0.57,1.53-0.77c0.53-0.2,1.22,0,1.74-0.21
		c0.53-0.21,1.03-0.48,1.55-0.71s1.02-0.5,1.54-0.73c0.52-0.24,1.14-0.27,1.64-0.52c0.51-0.25,0.74-1.04,1.24-1.31
		c0.5-0.27,0.99-0.54,1.48-0.82c0.49-0.28,0.99-0.54,1.47-0.83c0.48-0.3,1.12-0.36,1.59-0.67c0.47-0.32,0.94-0.63,1.4-0.96
		c0.46-0.33,0.9-0.69,1.35-1.04c0.45-0.35,1.09-0.47,1.52-0.83c0.43-0.37,0.6-1.04,1.02-1.42s0.9-0.7,1.3-1.1
		c0.4-0.4,0.93-0.68,1.32-1.1c0.38-0.42,0.49-1.08,0.85-1.52c0.36-0.43,0.84-0.77,1.19-1.22c0.34-0.45,0.52-1.02,0.85-1.48
		c0.32-0.46,0.8-0.82,1.1-1.31c0.3-0.48,0.52-1,0.8-1.5c0.28-0.49,0.69-0.92,0.94-1.43c0.25-0.5,0.31-1.11,0.53-1.63
		c0.23-0.52,0.48-1.02,0.68-1.55c0.2-0.53,0.2-1.12,0.38-1.66c0.18-0.53,0.73-0.96,0.89-1.51c0.15-0.53,0.16-1.11,0.28-1.65
		c0.12-0.54,0.26-1.08,0.36-1.62c0.1-0.54,0.43-1.06,0.51-1.61c0.08-0.55-0.42-1.17-0.36-1.72S161.32,89.68,161.35,89.13z"/>
	<g>
		<path class="st1" d="M23.58,30.31c0.04-0.54,0.15-1.08,0.24-1.62s0.12-1.09,0.26-1.62s0.32-1.05,0.5-1.56
			c0.18-0.52,0.41-1.02,0.63-1.51c0.23-0.5,0.48-0.98,0.75-1.45c0.27-0.48,0.53-0.96,0.85-1.4c0.34-0.48,0.74-0.87,1.17-1.19
			c0.45-0.34,0.96-0.57,1.48-0.75s1.06-0.26,1.63-0.31c0.54-0.04,1.1-0.09,1.67-0.03c0.54,0.06,1.1,0.15,1.65,0.28
			c0.54,0.13,1.08,0.28,1.61,0.46c0.53,0.18,1.05,0.4,1.55,0.62c0.53,0.23,1.02,0.49,1.5,0.74c0.53,0.27,1,0.57,1.44,0.83
			c0.47,0.28,0.97,0.52,1.41,0.82c0.46,0.31,0.9,0.64,1.32,0.97c0.43,0.35,0.81,0.75,1.19,1.12c0.4,0.4,0.75,0.82,1.07,1.24
			c0.34,0.45,0.68,0.89,0.9,1.37c0.23,0.51,0.38,1.04,0.45,1.57s0.01,1.08-0.12,1.62c-0.11,0.5-0.32,0.99-0.62,1.5
			c-0.25,0.43-0.52,0.91-0.92,1.35c-0.34,0.37-0.74,0.74-1.19,1.12c-0.44,0.37-0.89,0.73-1.35,1.07c-0.46,0.35-0.92,0.69-1.4,1.01
			c-0.48,0.32-1,0.58-1.49,0.88s-0.98,0.61-1.48,0.89s-1.02,0.52-1.54,0.78c-0.51,0.26-1.03,0.52-1.55,0.76
			c-0.52,0.24-1.02,0.53-1.55,0.76s-1.05,0.47-1.58,0.69c-0.6,0.25-1.18,0.32-1.71,0.39c-0.63,0.08-1.21,0.09-1.74-0.05
			c-0.57-0.15-1.09-0.42-1.56-0.79c-0.44-0.34-0.82-0.79-1.18-1.29c-0.33-0.45-0.64-0.95-0.9-1.51c-0.24-0.51-0.44-1.06-0.63-1.64
			c-0.16-0.49-0.34-0.98-0.45-1.49c-0.11-0.5-0.18-1.02-0.24-1.53s-0.11-1.03-0.12-1.55C23.53,31.35,23.55,30.83,23.58,30.31z"/>
	</g>
	<g>
		<path class="st1" d="M138.54,30.31c-0.04-0.54-0.13-1.09-0.21-1.62c-0.09-0.54-0.2-1.08-0.33-1.6c-0.14-0.53-0.28-1.06-0.46-1.57
			c-0.18-0.52-0.42-1.01-0.64-1.51c-0.23-0.5-0.48-0.98-0.75-1.46s-0.52-0.97-0.84-1.41c-0.34-0.48-0.77-0.84-1.2-1.16
			c-0.45-0.34-0.94-0.61-1.46-0.79s-1.07-0.27-1.63-0.32c-0.54-0.04-1.1-0.07-1.67-0.01c-0.54,0.06-1.08,0.23-1.63,0.36
			c-0.54,0.13-1.08,0.26-1.61,0.44s-1.06,0.37-1.57,0.58c-0.53,0.23-1.04,0.46-1.51,0.71c-0.53,0.27-1,0.58-1.44,0.84
			c-0.47,0.28-0.93,0.57-1.38,0.88c-0.46,0.31-0.91,0.62-1.33,0.95c-0.43,0.35-0.86,0.7-1.23,1.08c-0.4,0.4-0.72,0.85-1.03,1.27
			c-0.34,0.45-0.62,0.92-0.84,1.39c-0.23,0.51-0.38,1.02-0.45,1.55c-0.07,0.53-0.06,1.06,0.06,1.61c0.11,0.5,0.29,1.01,0.58,1.51
			c0.25,0.43,0.55,0.89,0.94,1.33c0.34,0.37,0.78,0.7,1.23,1.08c0.44,0.37,0.89,0.72,1.35,1.07s0.9,0.72,1.38,1.04
			c0.48,0.32,0.95,0.64,1.44,0.94c0.49,0.3,1.02,0.54,1.52,0.81c0.5,0.28,1,0.56,1.52,0.82c0.51,0.26,1.01,0.55,1.53,0.79
			s1.04,0.5,1.57,0.73c0.53,0.23,1.08,0.4,1.61,0.62c0.6,0.25,1.15,0.41,1.68,0.48c0.63,0.08,1.21,0.05,1.74-0.09
			c0.57-0.15,1.08-0.42,1.55-0.79c0.44-0.34,0.89-0.73,1.25-1.23c0.33-0.45,0.6-0.98,0.86-1.54c0.24-0.51,0.49-1.05,0.68-1.63
			c0.16-0.49,0.3-1,0.4-1.5c0.11-0.5,0.14-1.03,0.2-1.54c0.06-0.51,0.07-1.03,0.08-1.55C138.52,31.35,138.57,30.83,138.54,30.31z"/>
	</g>
</g>
</svg>
