<?xml version="1.0" encoding="utf-8"?>
<!-- Generator: Adobe Illustrator 26.1.0, SVG Export Plug-In . SVG Version: 6.00 Build 0)  -->
<svg version="1.1" id="圖層_1" xmlns="http://www.w3.org/2000/svg" xmlns:xlink="http://www.w3.org/1999/xlink" x="0px" y="0px"
	 viewBox="0 0 133.8 174.04" style="enable-background:new 0 0 133.8 174.04;" xml:space="preserve">
<style type="text/css">
	.st0{fill:#E891AE;}
	.st1{fill:#FFCCD6;}
	.st2{opacity:0.5;}
	.st3{opacity:0.64;}
	.st4{fill:#FFFFFF;}
	.st5{fill:#E8AB52;}
	.st6{fill:#FDE39B;}
	.st7{fill:#72B27C;}
	.st8{fill:#B8E0C4;}
	.st9{fill:#72AEDB;}
	.st10{fill:#BCE0F2;}
	.st11{fill:#9191CE;}
	.st12{fill:#CACAEA;}
</style>
<g>
	<path class="st9" d="M34.43,174.04c-0.35,0-0.71-0.03-1.07-0.08c0,0,0.01,0,0.03,0c0.02,0,0.06,0,0.1,0
		c-0.63,0-1.16-0.11-1.55-0.21c-0.05,0-0.09,0-0.14,0c-0.19,0-0.37-0.01-0.56-0.02c-0.21-0.01-0.41-0.04-0.62-0.07
		c-0.26,0.04-0.57,0.07-0.91,0.07c-0.22,0-0.54-0.02-0.76-0.05c-0.52-0.07-0.98-0.21-1.37-0.37c-0.3-0.01-0.59-0.05-0.88-0.11
		c-0.29-0.06-0.56-0.14-0.8-0.23c-0.5,0-0.99-0.07-1.46-0.2c-0.54-0.15-1-0.37-1.38-0.6c-0.24-0.05-0.5-0.12-0.78-0.22l-0.26-0.09
		c-0.28-0.09-0.56-0.19-0.83-0.3c-0.59-0.24-1.05-0.53-1.34-0.73c-0.12-0.05-0.24-0.11-0.35-0.16c-0.37-0.1-0.89-0.25-1.45-0.55
		c-0.53-0.28-0.95-0.61-1.28-0.94c-0.47-0.13-1.05-0.34-1.65-0.73l-0.07-0.04c-0.24-0.13-0.59-0.32-0.99-0.62
		c-0.55-0.4-0.95-0.85-1.24-1.24c-0.06-0.04-0.13-0.09-0.2-0.14c-0.32-0.19-0.76-0.46-1.22-0.88c-0.5-0.45-0.84-0.93-1.04-1.22
		c-0.05-0.06-0.11-0.12-0.16-0.18c-0.39-0.25-0.84-0.59-1.27-1.08c-0.31-0.36-0.54-0.68-0.68-0.9l-0.07-0.1
		c-0.14-0.17-0.33-0.41-0.51-0.66c-0.26-0.25-0.6-0.61-0.93-1.08l-0.13-0.19c-0.18-0.25-0.36-0.51-0.53-0.77
		c-0.37-0.58-0.57-1.12-0.68-1.45c-0.05-0.11-0.1-0.22-0.15-0.33c-0.32-0.35-0.63-0.78-0.88-1.3c-0.27-0.57-0.41-1.09-0.49-1.45
		c-0.12-0.25-0.23-0.5-0.33-0.75l-0.06-0.17c-0.12-0.32-0.24-0.64-0.35-0.96c-0.12-0.37-0.25-0.75-0.36-1.13
		c-0.09-0.31-0.17-0.65-0.23-1l-0.03-0.15c-0.13-0.53-0.17-1-0.2-1.27c0,0,0,0,0,0s0.01,0.02,0.01,0.06
		c-0.08-0.4-0.11-0.76-0.11-1.08c-0.08-0.25-0.16-0.54-0.22-0.86c-0.11-0.35-0.24-0.86-0.29-1.48l-0.02-0.19
		c-0.04-0.33-0.08-0.65-0.09-0.98c-0.02-0.49,0.02-0.92,0.08-1.28c-0.04-0.31-0.07-0.67-0.05-1.08c0.02-0.62,0.15-1.15,0.28-1.56
		c0-0.22,0.02-0.47,0.05-0.74c0.03-0.28,0.09-0.54,0.14-0.76c-0.04-0.45-0.03-0.98,0.09-1.55c0.07-0.33,0.15-0.64,0.24-0.95
		l0.06-0.2c0.08-0.32,0.18-0.64,0.29-0.95l0.05-0.16c0.12-0.41,0.27-0.76,0.43-1.07c0.05-0.35,0.15-0.73,0.3-1.13
		c0.1-0.26,0.22-0.52,0.34-0.76c0.08-0.39,0.21-0.88,0.47-1.42c0.3-0.63,0.66-1.09,0.88-1.37c0.16-0.27,0.32-0.48,0.42-0.63
		l0.02-0.04c0.09-0.19,0.19-0.38,0.3-0.57c0.14-0.36,0.35-0.86,0.72-1.4c0.2-0.29,0.41-0.54,0.62-0.76c0.17-0.37,0.39-0.76,0.7-1.14
		c0.28-0.35,0.57-0.63,0.82-0.84c0.17-0.27,0.4-0.58,0.69-0.89c0.23-0.25,0.45-0.45,0.63-0.61c-0.01-0.05-0.03-0.1-0.04-0.16
		c-0.14-0.36-0.33-0.89-0.42-1.56c-0.11-0.8-0.03-1.5,0.09-2.04c-0.07-0.33-0.15-0.75-0.18-1.27c-0.02-0.33-0.01-0.67,0-1l0-0.03
		c-0.03-0.03-0.05-0.06-0.08-0.1c-0.15-0.1-0.3-0.21-0.46-0.35c-0.36-0.22-0.87-0.57-1.37-1.12c-0.44-0.48-0.74-0.99-0.95-1.45
		c-0.14-0.14-0.28-0.3-0.41-0.48c-0.18-0.24-0.36-0.5-0.54-0.76l-0.13-0.19c-0.13-0.18-0.24-0.36-0.34-0.53
		c-0.36-0.32-0.76-0.75-1.09-1.31c-0.33-0.55-0.51-1.05-0.61-1.33c-0.21-0.44-0.34-0.86-0.42-1.2c-0.38-0.42-0.76-0.95-1.04-1.65
		c-0.29-0.72-0.38-1.38-0.41-1.84c0-0.02-0.01-0.03-0.01-0.05c-0.2-0.35-0.43-0.83-0.6-1.44c-0.13-0.48-0.19-0.88-0.22-1.15
		l-0.01-0.08c-0.06-0.28-0.09-0.55-0.11-0.79c-0.17-0.39-0.32-0.86-0.4-1.38c-0.07-0.47-0.08-0.88-0.09-1.14l0-0.09
		c-0.04-0.35-0.04-0.67-0.02-0.94c-0.09-0.35-0.17-0.78-0.19-1.26c-0.01-0.32,0-0.61,0.04-0.89c-0.1-0.42-0.16-0.9-0.14-1.42
		c0.02-0.63,0.15-1.18,0.32-1.64c-0.06-0.44-0.12-1.07,0-1.82c0.1-0.69,0.33-1.27,0.58-1.74c0.01-0.39,0.04-0.97,0.21-1.63
		c0.18-0.66,0.44-1.17,0.6-1.47c0.07-0.18,0.14-0.36,0.22-0.53c0.04-0.22,0.1-0.49,0.2-0.79c0.07-0.39,0.19-0.97,0.47-1.6
		c0.16-0.37,0.36-0.69,0.55-0.96c0.1-0.36,0.25-0.75,0.46-1.14c0.15-0.27,0.31-0.54,0.48-0.8l0.12-0.18c0.36-0.6,0.75-1.02,1-1.27
		c0.07-0.09,0.14-0.18,0.21-0.26c0.17-0.43,0.41-0.9,0.77-1.36c0.31-0.41,0.65-0.73,0.96-0.97c0.16-0.24,0.35-0.51,0.59-0.77
		c0.35-0.39,0.73-0.69,1.08-0.92c0.14-0.18,0.3-0.37,0.49-0.56c0.23-0.27,0.52-0.61,0.93-0.97c0.39-0.33,0.77-0.57,1.09-0.74
		c0.15-0.15,0.32-0.31,0.51-0.47c0.06-0.11,0.13-0.22,0.2-0.32c0.02-0.1,0.04-0.19,0.07-0.28c-0.16-0.5-0.23-0.95-0.26-1.33
		c-0.07-0.17-0.14-0.37-0.21-0.59c-0.08-0.26-0.16-0.54-0.23-0.83l-0.06-0.24c-0.05-0.17-0.09-0.33-0.12-0.5
		c-0.23-0.41-0.47-0.95-0.62-1.61c-0.08-0.36-0.15-0.72-0.21-1.08l-0.03-0.11c-0.09-0.33-0.17-0.67-0.22-1.01
		c-0.07-0.47-0.08-0.88-0.08-1.18c-0.07-0.3-0.15-0.65-0.18-1.07c-0.08-0.85,0.06-1.58,0.22-2.13l0-0.02
		c-0.04-0.34-0.1-0.74-0.1-1.22c0-0.08,0-0.15,0-0.23c-0.17-0.53-0.31-1.23-0.26-2.07c0.03-0.5,0.12-0.92,0.2-1.24
		c-0.01-0.3,0-0.65,0.05-1.05c0.1-0.81,0.36-1.46,0.6-1.93c-0.01-0.35,0.01-0.79,0.11-1.27c0.04-0.35,0.08-0.79,0.21-1.29
		c0.13-0.52,0.31-0.95,0.47-1.26c0.05-0.24,0.12-0.56,0.23-0.91c0.1-0.32,0.22-0.6,0.34-0.84c0.05-0.4,0.15-0.85,0.33-1.34
		c0.18-0.47,0.39-0.85,0.51-1.07l0.02-0.03c0,0,0.19-0.49,0.26-0.65c0.09-0.36,0.23-0.85,0.5-1.4c0.23-0.47,0.47-0.84,0.62-1.06
		l0.07-0.15c0.12-0.24,0.23-0.48,0.36-0.71l0.04-0.08c0.15-0.34,0.32-0.68,0.51-1c0.25-0.42,0.53-0.77,0.81-1.05
		c0.12-0.26,0.27-0.54,0.45-0.81c0.29-0.43,0.58-0.76,0.75-0.95l0.03-0.04c0.08-0.11,0.16-0.21,0.24-0.31
		c0.17-0.46,0.43-0.98,0.83-1.49c0.14-0.18,0.28-0.34,0.42-0.48c0-0.01,0.04-0.23,0.07-0.33c0,0-0.03-0.08-0.05-0.13l-0.06-0.14
		c-0.1-0.22-0.19-0.45-0.28-0.68c-0.16-0.32-0.38-0.78-0.54-1.37c-0.09-0.32-0.15-0.65-0.21-0.99l-0.03-0.17l-0.04-0.16
		c-0.09-0.33-0.17-0.67-0.23-1c-0.06-0.38-0.12-0.78-0.17-1.16c-0.06-0.51-0.05-0.94-0.05-1.19l0-0.08
		c-0.04-0.78,0.09-1.45,0.25-1.97c0-0.09,0-0.18,0-0.28c0.01-0.21,0.02-0.41,0.03-0.6c-0.05-0.27-0.09-0.61-0.09-0.98
		c-0.07-0.46-0.14-1.17,0.01-1.99c0.12-0.68,0.33-1.21,0.45-1.51c0.08-0.26,0.17-0.5,0.26-0.72c0.03-0.41,0.12-0.86,0.28-1.33
		c0.15-0.43,0.33-0.81,0.53-1.12c0.08-0.35,0.2-0.74,0.39-1.15l0.07-0.18c0.13-0.32,0.27-0.63,0.43-0.94
		c0.27-0.51,0.58-0.92,0.82-1.2c0.11-0.24,0.25-0.5,0.44-0.79l0.04-0.08c0.13-0.24,0.33-0.61,0.63-1.02c0.39-0.53,0.78-0.89,1-1.09
		c0.17-0.2,0.36-0.39,0.55-0.58l0.11-0.12c0.22-0.24,0.44-0.45,0.64-0.62c0.18-0.28,0.41-0.6,0.71-0.91
		c0.24-0.31,0.58-0.74,1.1-1.17c0.49-0.4,0.93-0.65,1.19-0.8c-0.01,0.01-0.09,0.06-0.17,0.12c0.64-0.48,1.25-0.73,1.67-0.87
		c0.08-0.04,0.16-0.09,0.25-0.13c0.29-0.26,0.7-0.58,1.22-0.86c0.47-0.25,0.91-0.4,1.27-0.5c0.03-0.02,0.07-0.04,0.1-0.06
		c0.4-0.35,1.03-0.81,1.89-1.11c0.5-0.18,1.03-0.28,1.56-0.3c0.25-0.11,0.53-0.2,0.83-0.27c0.58-0.14,1.06-0.17,1.35-0.19
		c0.01,0-0.02,0-0.05,0.01c0.43-0.07,0.8-0.1,1.04-0.11l0.13-0.01l0.19-0.03c0.32-0.05,0.65-0.09,0.98-0.12
		c0.13-0.01,0.33-0.02,0.47-0.02c0.09,0,0.18,0,0.26,0.01C40.41,0.11,40.96,0,41.58,0c0.03,0,0.07,0,0.11,0
		c0.39,0.01,0.76,0.06,1.09,0.13c0.24-0.03,0.49-0.05,0.75-0.05c0.21,0,0.46,0.02,0.66,0.04c0.69,0.08,1.23,0.27,1.54,0.38
		c0.18,0.04,0.35,0.09,0.51,0.14c0.03,0,0.06,0,0.09,0c0.53,0,1.05,0.07,1.55,0.21c0.69,0.2,1.25,0.51,1.69,0.81
		c0.19,0.06,0.4,0.12,0.61,0.21l0.11,0.04c0.29,0.12,0.59,0.24,0.87,0.37c0.33,0.1,0.74,0.24,1.2,0.47c0.35,0.14,0.78,0.31,1.26,0.6
		c0.29,0.18,0.58,0.37,0.85,0.57l0.18,0.13c0.35,0.24,0.7,0.48,1.03,0.73c0.29,0.21,0.59,0.46,0.88,0.7l0.09,0.08
		c0.26,0.22,0.51,0.46,0.76,0.7l0.15,0.15c0.37,0.34,0.63,0.66,0.81,0.87c0.28,0.23,0.61,0.51,0.95,0.9
		c0.46,0.52,0.74,1.03,0.93,1.42c0.17,0.2,0.34,0.41,0.49,0.62l0.09,0.11c0.23,0.29,0.45,0.58,0.65,0.89
		c0.21,0.33,0.37,0.65,0.48,0.9c0.09,0.1,0.18,0.21,0.27,0.34c0.39-0.11,0.84-0.2,1.34-0.23c0.08,0,0.18-0.01,0.26-0.01
		c0.74,0,1.37,0.15,1.8,0.29c0.38-0.09,0.82-0.15,1.32-0.15l1.13,0c0.35,0.01,0.67,0.04,0.94,0.08c0.3-0.05,0.65-0.09,1.04-0.09
		c0.08,0,0.19,0,0.27,0.01c0.26,0.01,0.51,0.03,0.77,0.05l0.11,0.01c0.17-0.02,0.32-0.03,0.47-0.04c0.02-0.04,0.05-0.08,0.07-0.13
		c0.4-0.7,0.86-1.17,1.17-1.47c0.04-0.05,0.07-0.09,0.11-0.13c0.17-0.43,0.44-0.95,0.85-1.47c0.36-0.45,0.73-0.78,1.05-1.03
		c0.05-0.07,0.11-0.15,0.17-0.22c0.23-0.42,0.61-1.02,1.22-1.58c0.37-0.34,0.75-0.6,1.11-0.79c0.23-0.26,0.51-0.53,0.84-0.77
		c0.33-0.24,0.68-0.49,1.02-0.72c0.63-0.42,1.22-0.64,1.57-0.76c0.19-0.09,0.38-0.17,0.56-0.24c0.32-0.26,0.71-0.52,1.19-0.74
		c0.26-0.12,0.51-0.24,0.76-0.35c0.34-0.22,0.84-0.53,1.49-0.75c0.32-0.11,0.65-0.2,0.98-0.28l0.22-0.06
		c0.36-0.1,0.74-0.18,1.12-0.24l0.14-0.02c0.42-0.1,0.81-0.14,1.14-0.15c0.34-0.12,0.78-0.24,1.28-0.3
		c0.25-0.03,0.49-0.04,0.73-0.04c0.46,0,0.84,0.05,1.1,0.09c0.14,0,0.27,0.01,0.39,0.02c0.38-0.09,0.83-0.16,1.34-0.16
		c0.05,0,0.12,0,0.17,0c0.69,0.02,1.28,0.17,1.73,0.33c0.26-0.04,0.56-0.07,0.9-0.07c0.35,0,0.7,0.03,1.04,0.09l0.15,0.03
		c0.35,0.06,0.71,0.13,1.05,0.21c0.39,0.09,0.79,0.21,1.17,0.32c0.51,0.15,0.91,0.33,1.16,0.44l0.07,0.03
		c0.29,0.1,0.57,0.22,0.84,0.35l0.2,0.09c0.18,0.07,0.35,0.15,0.5,0.23c0.64,0.09,1.25,0.29,1.81,0.59c0.49,0.26,0.86,0.54,1.08,0.7
		l0.05,0.04c0.6,0.38,1.05,0.82,1.38,1.24c0.12,0.08,0.25,0.16,0.38,0.26c0.15,0.11,0.28,0.22,0.4,0.32
		c0.51,0.21,1.09,0.53,1.64,1.04c0.3,0.27,0.54,0.55,0.74,0.82c0.32,0.22,0.67,0.51,1,0.87c0.48,0.54,0.78,1.07,0.96,1.44
		c0.06,0.08,0.13,0.16,0.19,0.24c0.3,0.27,0.71,0.68,1.08,1.24c0.44,0.66,0.66,1.31,0.77,1.74c0.06,0.12,0.23,0.5,0.23,0.5
		c0.14,0.27,0.28,0.58,0.42,0.88l0.09,0.2c0.22,0.48,0.35,0.91,0.42,1.17l-0.02-0.03c0,0,0.15,0.32,0.2,0.43
		c0.28,0.4,0.63,1,0.86,1.78c0.08,0.3,0.16,0.6,0.23,0.91c0.15,0.35,0.33,0.84,0.44,1.46c0.11,0.65,0.1,1.21,0.05,1.64
		c0.04,0.21,0.08,0.47,0.1,0.75c0.04,0.53,0.01,0.96,0,1.22l-0.01-0.03c0.01,0.2,0,0.4-0.01,0.58c0.13,0.5,0.21,1.1,0.16,1.78
		c-0.03,0.45-0.11,0.85-0.23,1.21c0.01,0.35,0,0.72-0.07,1.12c-0.13,0.77-0.41,1.4-0.71,1.9c-0.02,0.11-0.05,0.22-0.08,0.33
		c-0.08,0.31-0.17,0.6-0.26,0.9c-0.04,0.25-0.11,0.57-0.22,0.94c0.03,0.21,0.04,0.45,0.04,0.69c0,0.21-0.01,0.41-0.03,0.61
		c0.04,0.12,0.08,0.25,0.11,0.37c0.2,0.2,0.42,0.44,0.64,0.74c0.09,0.12,0.17,0.24,0.24,0.35c0.42,0.32,0.86,0.75,1.25,1.33
		c0.43,0.64,0.65,1.27,0.78,1.75c0.06,0.1,0.12,0.2,0.18,0.3c0.17,0.28,0.31,0.56,0.45,0.86c0,0,0.15,0.29,0.18,0.35
		c0.44,0.4,0.89,0.93,1.23,1.63c0.17,0.36,0.3,0.7,0.38,1.04c0.21,0.3,0.41,0.64,0.57,1.04c0.19,0.46,0.3,0.9,0.36,1.31
		c0.14,0.26,0.27,0.54,0.38,0.86c0.16,0.46,0.25,0.9,0.28,1.3c0.13,0.26,0.24,0.56,0.33,0.88l0.04,0.1
		c0.12,0.33,0.23,0.66,0.31,0.99c0.11,0.43,0.16,0.83,0.17,1.18c0.12,0.31,0.24,0.67,0.31,1.07c0.09,0.46,0.11,0.88,0.09,1.25
		c0.09,0.3,0.17,0.64,0.22,1.02c0.07,0.55,0.06,1.01,0.05,1.29c0,0-0.01-0.07-0.01-0.14c0.02,0.26,0.03,0.51,0.03,0.72
		c0.14,0.43,0.25,0.95,0.27,1.56c0.01,0.45-0.02,0.82-0.05,1.1c0.04,0.32,0.08,0.72,0.07,1.18c-0.02,0.76-0.2,1.39-0.35,1.82
		c-0.01,0.05-0.04,0.4-0.04,0.4c-0.03,0.36-0.09,0.68-0.16,0.94c0.01,0.22,0.02,0.47,0,0.75c0.03,0.4,0.05,0.99-0.08,1.68
		c-0.14,0.74-0.4,1.33-0.65,1.78c-0.01,0.39-0.06,0.91-0.23,1.49c-0.09,0.33-0.21,0.65-0.34,0.98l-0.05,0.13
		c-0.05,0.17-0.11,0.33-0.18,0.49c-0.03,0.46-0.11,0.98-0.31,1.53l-0.01,0.07c0,0.01,0.08,0.21,0.11,0.29
		c0.33,0.25,0.58,0.5,0.75,0.67c0.27,0.17,0.57,0.38,0.9,0.66l0.16,0.13c0.25,0.2,0.5,0.41,0.74,0.63c0.42,0.39,0.72,0.8,0.94,1.12
		c0.1,0.09,0.21,0.19,0.32,0.29c0.31,0.23,0.74,0.58,1.17,1.08l0.14,0.15c0.22,0.24,0.43,0.48,0.63,0.74
		c0.41,0.53,0.67,1.06,0.83,1.52c0.39,0.33,0.8,0.78,1.15,1.36l0.08,0.12c0.19,0.28,0.37,0.57,0.53,0.86
		c0.39,0.72,0.56,1.41,0.63,1.97c0.04,0.08,0.08,0.16,0.11,0.24c0.09,0.21,0.18,0.42,0.27,0.62c0.24,0.34,0.53,0.83,0.75,1.46
		c0.1,0.27,0.17,0.53,0.21,0.77c0.24,0.39,0.45,0.85,0.6,1.4c0.14,0.52,0.19,0.98,0.21,1.3c0.08,0.25,0.18,0.58,0.25,0.98l0.04,0.19
		c0.06,0.31,0.12,0.62,0.17,0.94c0.09,0.59,0.07,1.12,0.02,1.56c0.04,0.23,0.08,0.48,0.1,0.75c0.04,0.51,0,0.96-0.06,1.34
		c0.03,0.21,0.06,0.43,0.07,0.68c0.05,0.35,0.12,0.83,0.09,1.41c-0.03,0.65-0.15,1.18-0.24,1.52c0.11,0.53,0.17,1.2,0.05,1.95
		c-0.1,0.65-0.28,1.16-0.39,1.45c-0.11,0.42-0.25,0.78-0.4,1.09c-0.03,0.25-0.08,0.52-0.16,0.81c-0.13,0.48-0.31,0.88-0.47,1.2
		c-0.05,0.29-0.13,0.63-0.26,0.99l-0.04,0.13c-0.1,0.33-0.2,0.65-0.33,0.97c0,0-0.18,0.48-0.23,0.61c-0.08,0.4-0.23,0.98-0.54,1.6
		c-0.35,0.7-0.78,1.2-1.07,1.51c-0.19,0.27-0.38,0.5-0.55,0.67c-0.14,0.47-0.38,1.11-0.85,1.76c-0.4,0.56-0.85,0.97-1.23,1.25
		c-0.1,0.14-0.22,0.3-0.36,0.46c-0.22,0.26-0.43,0.47-0.6,0.64c-0.2,0.33-0.49,0.74-0.89,1.15c-0.17,0.17-0.34,0.33-0.53,0.5
		c-0.09,0.14-0.21,0.29-0.34,0.46c-0.02,0.47-0.1,0.88-0.18,1.2c0.14,0.54,0.23,1.22,0.14,1.98c-0.08,0.72-0.28,1.29-0.42,1.65
		c-0.02,0.09-0.05,0.19-0.08,0.27c0.01,0.32,0,0.67-0.06,1.06c0.16,0.14,0.34,0.3,0.51,0.49c0.25,0.27,0.46,0.55,0.63,0.82
		c0.3,0.24,0.62,0.53,0.91,0.9l0.11,0.13c0.21,0.24,0.43,0.49,0.62,0.75l0.13,0.17c0.2,0.25,0.4,0.5,0.58,0.77
		c0.39,0.57,0.62,1.14,0.76,1.6c0.1,0.15,0.2,0.3,0.29,0.46c0.15,0.26,0.29,0.53,0.42,0.8l0.01,0.03c0.21,0.28,0.48,0.67,0.72,1.18
		c0.17,0.36,0.33,0.71,0.48,1.06l0.03,0.04c0.17,0.33,0.34,0.67,0.47,1.01c0.12,0.32,0.21,0.63,0.26,0.93
		c0.22,0.36,0.41,0.78,0.55,1.27c0.18,0.62,0.23,1.15,0.25,1.48c0.04,0.2,0.08,0.4,0.11,0.59l0,0.01c0.13,0.34,0.28,0.79,0.37,1.36
		c0.06,0.38,0.08,0.73,0.06,1.07c0.13,0.38,0.22,0.8,0.26,1.26c0.06,0.81-0.06,1.51-0.24,2.07c0,0.05,0,0.1,0,0.15
		c0.03,0.28,0.06,0.61,0.06,0.99c0.04,0.36,0.09,0.86,0.04,1.46c-0.07,0.9-0.34,1.61-0.58,2.08c-0.01,0.05-0.02,0.09-0.03,0.14
		c0,0.11-0.01,0.24-0.02,0.37c0.06,0.51,0.08,1.24-0.13,2.07c-0.09,0.38-0.2,0.76-0.31,1.14c-0.19,0.66-0.48,1.18-0.72,1.55
		c-0.04,0.52-0.16,1.14-0.44,1.79c-0.12,0.28-0.26,0.57-0.4,0.85l-0.11,0.22c-0.32,0.66-0.7,1.14-0.95,1.43
		c-0.1,0.17-0.21,0.33-0.32,0.49l-0.07,0.1c-0.15,0.26-0.32,0.5-0.48,0.7c-0.08,0.2-0.17,0.42-0.29,0.65
		c-0.15,0.43-0.4,1.04-0.88,1.67c-0.46,0.62-0.98,1.04-1.4,1.32c-0.21,0.42-0.5,0.87-0.91,1.3c-0.24,0.25-0.47,0.47-0.72,0.69
		l-0.14,0.13c-0.47,0.46-0.95,0.77-1.33,0.98c-0.16,0.16-0.32,0.31-0.49,0.45l-0.19,0.17c-0.17,0.14-0.33,0.29-0.5,0.43
		c-0.24,0.25-0.58,0.59-1.03,0.92c-0.48,0.35-0.94,0.57-1.3,0.72c-0.36,0.45-0.86,0.92-1.53,1.3c-0.46,0.26-0.91,0.43-1.3,0.54
		c-0.23,0.15-0.49,0.31-0.78,0.46c-0.29,0.14-0.59,0.26-0.89,0.38l-0.17,0.07c-0.62,0.27-1.21,0.39-1.66,0.44
		c-0.15,0.07-0.3,0.13-0.47,0.19l-0.08,0.04c-0.23,0.1-0.56,0.25-0.98,0.39l-0.09,0.04c-0.24,0.1-0.49,0.2-0.74,0.28
		c-0.33,0.16-0.8,0.36-1.39,0.51c-0.42,0.1-0.79,0.15-1.09,0.17c-0.32,0.12-0.71,0.24-1.16,0.32c-0.36,0.06-0.74,0.09-1.14,0.09
		c-0.11,0-0.23,0-0.34-0.01c-0.16,0.01-0.32,0.02-0.48,0.02c-0.09,0-0.18,0-0.27-0.01c-0.34,0.1-0.75,0.18-1.21,0.21
		c-0.11,0.01-0.26,0.01-0.37,0.01c-0.13,0-0.25,0-0.37-0.01c-0.45,0.13-0.96,0.22-1.53,0.22c-0.6,0-1.09-0.09-1.37-0.14
		c-0.5-0.04-0.9-0.12-1.15-0.18c-0.24-0.02-0.47-0.06-0.71-0.09l-0.16-0.02c-0.35-0.03-0.72-0.08-1.1-0.13l-0.15-0.01
		c-0.32-0.03-0.64-0.06-0.95-0.11c-0.5-0.08-0.91-0.21-1.21-0.33c-0.28-0.03-0.61-0.07-0.99-0.16l-0.21-0.05
		c-0.26-0.06-0.52-0.12-0.77-0.19c-0.34-0.06-0.75-0.13-1.21-0.28c-0.53-0.17-0.96-0.39-1.31-0.6c-0.24-0.06-0.51-0.14-0.79-0.25
		l-0.02,0c-0.22-0.07-0.44-0.14-0.66-0.22c-0.37-0.08-0.89-0.21-1.48-0.49c-0.67-0.32-1.18-0.73-1.55-1.1
		c-0.4-0.12-0.89-0.31-1.39-0.61l-0.08-0.04c-0.31-0.16-0.62-0.33-0.91-0.52c-0.64-0.42-1.08-0.91-1.38-1.29
		c-0.36-0.17-0.82-0.42-1.29-0.81c-0.12-0.1-0.23-0.2-0.33-0.29c-0.49-0.22-1.03-0.55-1.55-1.04c-0.02-0.02-0.05-0.05-0.07-0.07
		c-0.16-0.06-0.3-0.13-0.44-0.21c-0.25,0.12-0.55,0.26-0.89,0.37c-0.36,0.12-0.72,0.2-1.08,0.28l-0.13,0.03l-0.13,0.05
		c-0.22,0.08-0.44,0.15-0.67,0.21c-0.33,0.14-0.79,0.32-1.36,0.44l-0.25,0.06c-0.3,0.07-0.59,0.14-0.89,0.19
		c-0.26,0.05-0.52,0.08-0.8,0.09c-0.41,0.16-0.91,0.31-1.5,0.37c-0.23,0.02-0.46,0.04-0.69,0.04c-0.26,0-0.53-0.02-0.8-0.04
		c-0.03,0-0.06,0-0.09,0c-0.55,0-1.02-0.08-1.38-0.17c-0.19,0.01-0.37,0.02-0.56,0.02c-0.26,0-0.51-0.01-0.77-0.04
		c-0.3,0.05-0.68,0.1-1.11,0.1c-0.07,0-0.15,0-0.23,0c-0.21,0.01-0.41,0.02-0.6,0.02c-0.19,0-0.38-0.01-0.58-0.02
		c-0.03,0-0.19,0-0.19,0c-0.27,0-0.65-0.01-1.08-0.07c-0.71-0.1-1.28-0.31-1.65-0.47c-0.15,0.01-0.31,0.02-0.47,0.02
		c-0.4,0-0.89-0.06-1.27-0.15c-0.29-0.07-0.58-0.16-0.87-0.25l-0.23-0.07c-0.47-0.13-0.86-0.29-1.09-0.4
		c-0.05,0.05-0.1,0.09-0.15,0.14c-0.51,0.47-1.04,0.78-1.47,0.98c-0.3,0.42-0.69,0.85-1.22,1.23c-0.33,0.24-0.65,0.42-0.95,0.56
		c-0.26,0.25-0.58,0.52-0.96,0.76c-0.5,0.31-0.99,0.51-1.4,0.63c-0.2,0.14-0.43,0.28-0.69,0.42c-0.59,0.31-1.15,0.48-1.63,0.56
		c-0.16,0.09-0.34,0.18-0.53,0.26c-0.16,0.07-0.31,0.13-0.45,0.18c-0.41,0.33-0.94,0.67-1.6,0.91c-0.58,0.21-1.09,0.29-1.37,0.34
		c-0.49,0.13-0.89,0.19-1.15,0.22c-0.25,0.06-0.5,0.11-0.76,0.16l-0.14,0.03c-0.21,0.05-0.45,0.1-0.69,0.15
		c-0.36,0.16-0.87,0.35-1.49,0.46c-0.34,0.06-0.67,0.09-1,0.12l-0.17,0.01c-0.27,0.04-0.56,0.06-0.85,0.09c0,0-0.54,0.05-0.67,0.06
		c-0.47,0.18-1.11,0.36-1.87,0.38C34.59,174.04,34.48,174.04,34.43,174.04z"/>
	<path class="st10" d="M119.22,125.84c-0.22-0.2-0.19-0.54-0.32-0.8c-0.13-0.26-0.4-0.45-0.43-0.74c-0.03-0.29-0.23-0.63-0.17-0.92
		c0.07-0.31,0.48-0.55,0.54-0.86c0.06-0.31-0.18-0.68-0.13-0.99c0.05-0.31,0.33-0.59,0.37-0.91c0.04-0.32,0.26-0.61,0.29-0.93
		c0.04-0.32-0.31-0.67-0.28-0.99c0.03-0.32,0.08-0.63,0.1-0.95c0.02-0.32,0.19-0.63,0.2-0.95c0.01-0.32,0.03-0.64,0.03-0.96
		c0,0,0.11,0,0.11,0c0-0.38-0.03-0.72,0.13-1.05c0.16-0.33,0.45-0.52,0.73-0.76c0.24-0.21,0.36-0.56,0.59-0.78
		c0.23-0.22,0.49-0.42,0.71-0.65c0.23-0.23,0.32-0.57,0.54-0.81c0.22-0.24,0.47-0.43,0.68-0.68c0.21-0.24,0.35-0.54,0.54-0.79
		c0.2-0.25,0.61-0.35,0.79-0.61c0.19-0.26,0.16-0.67,0.33-0.93c0.18-0.27,0.3-0.56,0.47-0.83c0.16-0.27,0.48-0.46,0.63-0.74
		c0.15-0.28,0.48-0.48,0.62-0.76c0.14-0.29,0.12-0.65,0.26-0.95c0.13-0.29,0.22-0.6,0.34-0.9c0.12-0.3,0.19-0.61,0.29-0.91
		c0.11-0.3,0.08-0.64,0.18-0.95c0.1-0.3,0.36-0.56,0.44-0.87c0.08-0.31,0.01-0.65,0.08-0.97c0.07-0.31,0.41-0.57,0.47-0.88
		c0.06-0.31,0.24-0.61,0.29-0.93c0.05-0.32-0.25-0.68-0.22-1c0.04-0.32,0.12-0.63,0.15-0.95c0.02-0.32,0.19-0.63,0.2-0.95
		c0.01-0.32-0.09-0.64-0.09-0.97c0-0.32-0.17-0.63-0.18-0.95c-0.01-0.32,0.2-0.65,0.18-0.97c-0.02-0.32-0.19-0.62-0.23-0.94
		c-0.04-0.32,0.2-0.67,0.15-0.99c-0.05-0.32-0.12-0.64-0.18-0.95c-0.06-0.32-0.19-0.62-0.27-0.93c-0.07-0.31-0.03-0.66-0.11-0.97
		c-0.08-0.31-0.53-0.51-0.63-0.82c-0.1-0.31,0.03-0.68-0.07-0.98c-0.11-0.3-0.39-0.54-0.51-0.83c-0.12-0.3-0.24-0.59-0.37-0.88
		c-0.13-0.29-0.29-0.56-0.44-0.85c-0.14-0.29,0.02-0.73-0.14-1.01c-0.15-0.28-0.36-0.54-0.52-0.82c-0.16-0.27-0.65-0.35-0.82-0.62
		c-0.17-0.27-0.31-0.55-0.5-0.81c-0.19-0.26-0.13-0.7-0.32-0.95c-0.2-0.25-0.43-0.48-0.63-0.73c-0.21-0.25-0.53-0.39-0.74-0.63
		c-0.22-0.24-0.5-0.41-0.72-0.63c-0.22-0.23-0.32-0.59-0.55-0.8c-0.23-0.22-0.5-0.41-0.74-0.61c-0.24-0.21-0.54-0.35-0.79-0.55
		c-0.25-0.2-0.45-0.47-0.71-0.65c-0.27-0.19-0.52-0.39-0.74-0.62c-0.23-0.24-0.37-0.52-0.55-0.79c-0.18-0.27-0.22-0.59-0.34-0.88
		c-0.12-0.3-0.57-0.5-0.64-0.82c-0.06-0.32,0.08-0.67,0.08-1c0-0.32,0.19-0.61,0.24-0.93c0.06-0.31,0.11-0.6,0.23-0.91
		c0.11-0.3-0.13-0.73-0.02-1.04c0.11-0.31,0.37-0.56,0.47-0.86c0.1-0.31,0.24-0.6,0.33-0.91c0.09-0.31,0-0.67,0.08-0.98
		c0.08-0.31,0.13-0.63,0.19-0.95c0.07-0.32,0.44-0.57,0.5-0.89c0.06-0.32-0.05-0.67,0-0.99c0.05-0.32-0.1-0.66-0.06-0.98
		c0.04-0.32,0.2-0.62,0.23-0.95c0.03-0.32,0.08-0.64,0.1-0.96c0.02-0.32,0.27-0.64,0.28-0.96c0.01-0.32-0.1-0.65-0.1-0.98
		c0-0.33,0.09-0.67,0.08-0.99c-0.01-0.33-0.31-0.65-0.33-0.98c-0.02-0.33,0.08-0.67,0.05-1c-0.03-0.33,0.02-0.67-0.02-1
		c-0.04-0.33-0.32-0.62-0.37-0.95c-0.05-0.33,0.16-0.7,0.1-1.02c-0.06-0.32-0.35-0.6-0.43-0.92c-0.07-0.32,0.09-0.7,0.01-1.02
		c-0.08-0.32-0.22-0.63-0.31-0.94c-0.09-0.32-0.49-0.54-0.59-0.85c-0.1-0.31,0.17-0.75,0.06-1.06c-0.11-0.31-0.59-0.48-0.71-0.79
		c-0.12-0.31,0.2-0.79,0.07-1.1c-0.13-0.3-0.69-0.42-0.82-0.72c-0.14-0.3,0.13-0.79-0.01-1.09c-0.14-0.3-0.72-0.38-0.87-0.67
		c-0.15-0.29-0.19-0.64-0.35-0.93c-0.16-0.29-0.28-0.59-0.45-0.88c-0.17-0.28-0.35-0.56-0.53-0.84c-0.18-0.28-0.11-0.72-0.29-0.99
		c-0.18-0.27-0.68-0.34-0.87-0.61c-0.19-0.27-0.29-0.6-0.48-0.87c-0.2-0.26-0.5-0.44-0.71-0.7c-0.22-0.28-0.32-0.65-0.49-0.96
		c-0.17-0.31-0.21-0.67-0.33-1c-0.12-0.33-0.44-0.62-0.5-0.96c-0.06-0.34,0.33-0.73,0.33-1.08c0-0.35-0.24-0.7-0.17-1.05
		c0.06-0.34,0.19-0.67,0.32-1c0.11-0.29,0.11-0.61,0.21-0.91c0.1-0.29,0.18-0.59,0.26-0.88c0.08-0.3,0.03-0.62,0.1-0.92
		c0.07-0.3,0.53-0.52,0.58-0.83c0.05-0.3-0.25-0.66-0.22-0.97c0.04-0.31,0.44-0.58,0.46-0.89c0.02-0.31-0.3-0.63-0.29-0.94
		c0.01-0.31,0.14-0.61,0.13-0.92c-0.01-0.31,0.05-0.62,0.02-0.93c-0.02-0.31-0.12-0.61-0.16-0.92c-0.04-0.32,0.12-0.67,0.07-0.99
		c-0.06-0.32-0.25-0.61-0.32-0.92c-0.07-0.31-0.14-0.63-0.23-0.94c-0.09-0.31-0.41-0.54-0.51-0.85c-0.1-0.3-0.26-0.58-0.38-0.88
		c-0.12-0.3-0.17-0.62-0.31-0.91c-0.13-0.29-0.26-0.58-0.41-0.87c-0.15-0.28-0.26-0.59-0.42-0.86c-0.16-0.28-0.15-0.67-0.33-0.93
		c-0.18-0.27-0.5-0.44-0.68-0.7c-0.19-0.26-0.39-0.51-0.59-0.76c-0.2-0.25-0.27-0.62-0.49-0.86c-0.21-0.24-0.65-0.27-0.87-0.5
		c-0.23-0.23-0.28-0.63-0.52-0.85c-0.24-0.22-0.71-0.15-0.96-0.36c-0.25-0.2-0.43-0.48-0.68-0.67c-0.26-0.19-0.59-0.26-0.86-0.43
		c-0.27-0.18-0.32-0.69-0.59-0.86c-0.27-0.16-0.52-0.4-0.81-0.55c-0.28-0.15-0.74,0.04-1.03-0.1c-0.29-0.14-0.53-0.38-0.82-0.51
		c-0.3-0.12-0.59-0.27-0.89-0.37c-0.3-0.11-0.59-0.27-0.9-0.37c-0.31-0.09-0.62-0.18-0.93-0.26c-0.31-0.07-0.63-0.13-0.95-0.19
		c-0.31-0.06-0.67,0.15-0.99,0.11c-0.32-0.04-0.63-0.02-0.95-0.05c-0.33-0.03-0.64-0.32-0.96-0.33c-0.33-0.01-0.66,0.28-0.98,0.29
		c-0.33,0.01-0.66-0.18-0.99-0.15c-0.33,0.02-0.68-0.13-1-0.09c-0.33,0.04-0.63,0.25-0.95,0.31c-0.32,0.06-0.68-0.01-0.99,0.06
		c-0.32,0.07-0.66,0.1-0.97,0.19c-0.32,0.09-0.65,0.16-0.96,0.26c-0.31,0.11-0.57,0.38-0.87,0.5c-0.3,0.12-0.6,0.26-0.9,0.4
		c-0.3,0.14-0.47,0.52-0.76,0.67c-0.29,0.15-0.68,0.13-0.96,0.29c-0.28,0.17-0.65,0.21-0.92,0.39c-0.27,0.18-0.55,0.37-0.81,0.57
		c-0.26,0.2-0.32,0.66-0.57,0.87c-0.25,0.21-0.74,0.15-0.98,0.37c-0.24,0.22-0.32,0.62-0.55,0.85c-0.23,0.23-0.35,0.56-0.57,0.81
		c-0.22,0.25-0.59,0.36-0.79,0.62c-0.2,0.26-0.2,0.67-0.39,0.93c-0.19,0.27-0.45,0.48-0.62,0.76c-0.18,0.28-0.52,0.45-0.68,0.74
		c-0.16,0.28-0.25,0.61-0.4,0.9c-0.16,0.32-0.47,0.51-0.72,0.76c-0.25,0.26-0.31,0.79-0.62,0.96c-0.31,0.17-0.78,0-1.13,0.08
		c-0.34,0.07-0.67-0.03-1.03-0.06c-0.35-0.03-0.71,0.08-1.06,0.05c-0.35-0.02-0.7-0.05-1.05-0.07c-0.35-0.02-0.7,0.19-1.05,0.18
		c-0.35-0.01-0.69-0.17-1.04-0.17c-0.35-0.01-0.7,0-1.05,0c-0.35,0-0.7,0.25-1.04,0.26c-0.35,0.01-0.7-0.15-1.05-0.14
		c-0.35,0.01-0.71-0.27-1.06-0.26c-0.35,0.02-0.68,0.34-1.03,0.36c-0.35,0.02-0.71-0.12-1.06-0.1c-0.36,0.03-0.7,0.03-1.04-0.04
		c-0.35-0.07-0.8,0.05-1.11-0.12c-0.31-0.17-0.57-0.5-0.82-0.76c-0.25-0.25-0.28-0.66-0.44-0.99c-0.15-0.29-0.47-0.5-0.63-0.78
		c-0.16-0.29-0.24-0.62-0.41-0.9c-0.18-0.28-0.4-0.52-0.59-0.79c-0.19-0.27-0.43-0.5-0.63-0.76c-0.2-0.26-0.26-0.64-0.47-0.89
		c-0.22-0.25-0.51-0.43-0.74-0.66c-0.23-0.23-0.42-0.52-0.66-0.74c-0.24-0.22-0.47-0.47-0.72-0.68c-0.25-0.21-0.51-0.43-0.77-0.62
		c-0.26-0.2-0.54-0.39-0.81-0.57c-0.27-0.18-0.54-0.39-0.82-0.56c-0.28-0.17-0.62-0.26-0.91-0.41c-0.29-0.15-0.63-0.21-0.93-0.35
		c-0.3-0.14-0.6-0.26-0.91-0.38c-0.3-0.12-0.66-0.1-0.97-0.21c-0.31-0.11-0.52-0.56-0.83-0.65c-0.31-0.09-0.71,0.13-1.03,0.05
		c-0.32-0.07-0.61-0.3-0.93-0.36c-0.32-0.06-0.63-0.24-0.96-0.28c-0.32-0.04-0.69,0.35-1.02,0.33C42.23,5.39,41.92,5.01,41.59,5
		c-0.33-0.01-0.65,0.38-0.98,0.39c-0.33,0.01-0.66-0.17-0.99-0.15c-0.32,0.03-0.64,0.08-0.95,0.13c-0.32,0.04-0.64,0.03-0.96,0.09
		c-0.32,0.06-0.65,0.04-0.96,0.11c-0.31,0.08-0.54,0.45-0.85,0.54C35.59,6.21,35.15,5.9,34.84,6c-0.3,0.11-0.51,0.47-0.81,0.6
		c-0.3,0.12-0.53,0.38-0.82,0.52c-0.29,0.14-0.66,0.11-0.94,0.26c-0.28,0.15-0.48,0.44-0.76,0.61c-0.28,0.17-0.57,0.29-0.84,0.46
		c-0.27,0.18-0.65,0.2-0.91,0.39c-0.26,0.19-0.58,0.32-0.83,0.52c-0.25,0.2-0.4,0.52-0.64,0.74c-0.24,0.22-0.3,0.61-0.52,0.84
		c-0.23,0.23-0.54,0.37-0.75,0.61c-0.21,0.24-0.46,0.45-0.66,0.7c-0.2,0.25-0.49,0.44-0.68,0.7c-0.19,0.26-0.32,0.57-0.49,0.83
		c-0.18,0.27-0.27,0.59-0.44,0.86c-0.16,0.28-0.47,0.48-0.61,0.76c-0.15,0.28-0.26,0.59-0.39,0.89c-0.13,0.29-0.02,0.69-0.14,0.99
		c-0.12,0.3-0.48,0.51-0.58,0.81c-0.1,0.3,0.1,0.7,0.01,1.01c-0.09,0.31-0.42,0.55-0.49,0.86c-0.07,0.31-0.26,0.61-0.32,0.92
		c-0.06,0.31,0.11,0.67,0.07,0.99c-0.04,0.31,0.14,0.63,0.12,0.94c-0.02,0.31-0.06,0.61-0.07,0.92c-0.01,0.31,0.02,0.61,0.03,0.92
		c0.01,0.31-0.31,0.63-0.29,0.94c0.02,0.31-0.02,0.63,0.02,0.94c0.04,0.31,0.08,0.62,0.13,0.93c0.05,0.31,0.15,0.61,0.22,0.91
		c0.07,0.3,0.1,0.62,0.19,0.92c0.08,0.3,0.28,0.57,0.38,0.86c0.1,0.29,0.24,0.57,0.35,0.86c0.13,0.33,0.23,0.67,0.29,1.01
		c0.06,0.35,0.31,0.7,0.31,1.05c0,0.35-0.31,0.69-0.37,1.04c-0.06,0.34-0.07,0.7-0.19,1.03c-0.12,0.33-0.22,0.68-0.39,0.99
		c-0.17,0.3-0.61,0.42-0.83,0.69c-0.2,0.26-0.11,0.75-0.31,1.01c-0.2,0.27-0.51,0.44-0.7,0.71c-0.19,0.27-0.45,0.5-0.63,0.77
		c-0.18,0.28-0.16,0.68-0.34,0.96c-0.18,0.28-0.61,0.4-0.78,0.68c-0.17,0.28-0.28,0.61-0.44,0.9c-0.16,0.29-0.29,0.6-0.44,0.89
		c-0.15,0.29-0.38,0.55-0.52,0.85c-0.14,0.3-0.16,0.66-0.3,0.96c-0.14,0.3-0.24,0.61-0.37,0.92c-0.13,0.3-0.32,0.58-0.44,0.89
		c-0.12,0.31,0,0.7-0.11,1.01c-0.11,0.31-0.37,0.57-0.47,0.88c-0.1,0.31-0.12,0.65-0.21,0.97c-0.09,0.32-0.32,0.6-0.4,0.92
		c-0.08,0.32-0.07,0.66-0.14,0.98c-0.07,0.32,0.05,0.68-0.01,1c-0.06,0.32-0.17,0.63-0.22,0.96c-0.05,0.33-0.4,0.61-0.44,0.94
		c-0.04,0.33,0.03,0.67,0,1c-0.03,0.33-0.2,0.65-0.22,0.98c-0.02,0.33,0.29,0.67,0.28,1C15,57.29,15,57.61,15,57.94
		c0,0.32,0.08,0.64,0.09,0.96c0.01,0.32,0.01,0.64,0.03,0.96c0.02,0.32-0.3,0.67-0.27,0.99c0.03,0.32,0.17,0.63,0.21,0.95
		c0.04,0.32-0.04,0.66,0.01,0.98c0.05,0.32,0.16,0.63,0.22,0.95c0.06,0.32,0.12,0.64,0.19,0.95c0.07,0.32,0.38,0.57,0.46,0.89
		c0.08,0.31,0.12,0.63,0.21,0.94c0.09,0.31,0.15,0.63,0.25,0.93c0.1,0.31,0.27,0.59,0.37,0.89c0.11,0.31-0.02,0.69,0.09,0.99
		c0.12,0.31,0.23,0.6,0.28,0.92c0.06,0.32,0.11,0.64,0.11,0.96c0,0.33-0.26,0.6-0.32,0.92c-0.06,0.32,0.26,0.75,0.14,1.05
		c-0.12,0.3-0.66,0.38-0.84,0.65c-0.17,0.27-0.26,0.57-0.49,0.81c-0.22,0.23-0.44,0.45-0.7,0.64c-0.26,0.19-0.42,0.5-0.67,0.7
		c-0.25,0.2-0.62,0.25-0.87,0.46c-0.24,0.21-0.42,0.49-0.65,0.71c-0.23,0.22-0.31,0.6-0.53,0.83c-0.22,0.23-0.67,0.25-0.88,0.48
		c-0.21,0.24-0.3,0.59-0.51,0.83c-0.2,0.24-0.59,0.35-0.78,0.6c-0.19,0.25-0.11,0.71-0.3,0.97c-0.18,0.26-0.53,0.41-0.7,0.68
		c-0.17,0.27-0.47,0.47-0.63,0.74C8.34,82.59,8.15,82.85,8,83.14c-0.15,0.28,0.03,0.74-0.11,1.03c-0.14,0.29-0.6,0.42-0.73,0.72
		c-0.13,0.29-0.11,0.65-0.23,0.95c-0.12,0.3-0.12,0.64-0.23,0.94c-0.11,0.3-0.26,0.58-0.36,0.89c-0.1,0.3-0.33,0.57-0.41,0.88
		c-0.08,0.31-0.01,0.66-0.08,0.97c-0.07,0.31,0.05,0.66-0.01,0.97c-0.06,0.31-0.54,0.55-0.59,0.87c-0.05,0.31,0.11,0.66,0.07,0.98
		c-0.04,0.32,0.13,0.65,0.1,0.97C5.41,93.62,5.01,93.92,5,94.24c-0.01,0.32,0.42,0.65,0.42,0.97c0,0.32-0.33,0.65-0.32,0.97
		c0.01,0.32,0.22,0.63,0.24,0.95c0.02,0.32-0.09,0.65-0.05,0.97c0.04,0.32,0.01,0.65,0.06,0.97c0.05,0.32,0.45,0.57,0.51,0.89
		c0.06,0.32-0.12,0.68-0.05,0.99c0.07,0.31,0.08,0.64,0.17,0.95c0.08,0.31,0.34,0.57,0.44,0.88c0.1,0.31,0.17,0.62,0.28,0.92
		c0.11,0.3,0.01,0.69,0.13,0.98c0.12,0.3,0.64,0.42,0.77,0.72c0.13,0.29,0.18,0.61,0.33,0.9c0.14,0.29,0.09,0.68,0.24,0.96
		c0.15,0.28,0.22,0.62,0.38,0.9c0.17,0.28,0.6,0.38,0.77,0.65c0.18,0.27,0.26,0.6,0.44,0.86c0.19,0.26,0.35,0.54,0.55,0.79
		c0.2,0.25,0.57,0.36,0.77,0.61c0.21,0.25,0.11,0.76,0.32,1c0.22,0.24,0.57,0.35,0.8,0.58c0.23,0.23,0.58,0.32,0.81,0.54
		c0.23,0.22,0.36,0.56,0.6,0.77c0.28,0.24,0.62,0.47,0.77,0.8c0.16,0.33,0.42,0.73,0.42,1.1c0,0-0.02,0-0.02,0
		c0,0.32-0.17,0.64-0.16,0.96c0.01,0.32-0.03,0.64-0.01,0.96c0.02,0.32,0.13,0.63,0.16,0.95c0.03,0.32,0.06,0.63,0.1,0.95
		c0.04,0.32-0.25,0.68-0.21,0.99c0.04,0.32,0.25,0.61,0.3,0.93c0.05,0.31,0.34,0.59,0.4,0.9c0.06,0.31,0.11,0.63,0.18,0.94
		c0.06,0.29-0.01,0.62-0.04,0.9c-0.03,0.29-0.16,0.56-0.29,0.82c-0.13,0.26-0.18,0.62-0.39,0.82c-0.23,0.22-0.66,0.23-0.89,0.46
		c-0.23,0.23-0.5,0.41-0.72,0.65c-0.22,0.23-0.32,0.58-0.53,0.82c-0.21,0.24-0.54,0.39-0.74,0.63c-0.2,0.25-0.14,0.7-0.33,0.96
		c-0.19,0.26-0.59,0.37-0.77,0.63c-0.18,0.26-0.24,0.61-0.4,0.88c-0.17,0.27-0.29,0.57-0.45,0.85c-0.16,0.28-0.38,0.52-0.53,0.8
		c-0.15,0.28-0.43,0.5-0.57,0.79c-0.14,0.29-0.11,0.66-0.23,0.95c-0.13,0.29-0.3,0.57-0.42,0.87c-0.11,0.3,0.03,0.69-0.07,0.99
		c-0.1,0.3-0.45,0.53-0.54,0.83c-0.09,0.31-0.22,0.61-0.29,0.92c-0.08,0.31-0.18,0.62-0.25,0.93c-0.06,0.31,0.18,0.68,0.13,1
		c-0.05,0.31-0.26,0.6-0.3,0.92c-0.04,0.32,0.02,0.64-0.01,0.96c-0.03,0.32-0.28,0.62-0.29,0.94c-0.01,0.32,0.15,0.64,0.15,0.96
		c0,0.33-0.19,0.66-0.18,0.98c0.01,0.32,0.08,0.65,0.1,0.97c0.03,0.32,0.18,0.64,0.22,0.96c0.04,0.32,0.27,0.61,0.33,0.93
		c0.05,0.32-0.07,0.67,0,0.98c0.07,0.32,0.05,0.65,0.13,0.97c0.08,0.31,0.12,0.64,0.21,0.95c0.09,0.31,0.2,0.62,0.3,0.93
		c0.1,0.31,0.22,0.61,0.34,0.91c0.12,0.3,0.27,0.59,0.4,0.89c0.13,0.3,0.12,0.66,0.26,0.96c0.14,0.29,0.64,0.4,0.79,0.69
		c0.15,0.29,0.09,0.69,0.25,0.97c0.16,0.28,0.21,0.64,0.38,0.91c0.17,0.27,0.37,0.54,0.56,0.81c0.18,0.27,0.47,0.46,0.67,0.72
		c0.19,0.26,0.39,0.52,0.59,0.77c0.2,0.25,0.37,0.54,0.58,0.79c0.21,0.24,0.63,0.3,0.86,0.53c0.22,0.23,0.37,0.54,0.61,0.76
		c0.23,0.23,0.36,0.56,0.6,0.78c0.24,0.22,0.57,0.34,0.82,0.55c0.25,0.21,0.55,0.34,0.81,0.54c0.25,0.2,0.34,0.63,0.6,0.82
		c0.26,0.19,0.57,0.32,0.84,0.5c0.27,0.18,0.7,0.11,0.97,0.28c0.27,0.17,0.61,0.23,0.89,0.39c0.28,0.16,0.4,0.62,0.68,0.77
		c0.29,0.15,0.64,0.16,0.94,0.3c0.29,0.14,0.58,0.27,0.88,0.4c0.3,0.13,0.54,0.39,0.84,0.51c0.3,0.12,0.61,0.22,0.92,0.32
		c0.3,0.11,0.67,0.03,0.98,0.13c0.31,0.1,0.53,0.49,0.84,0.58c0.31,0.09,0.72-0.18,1.03-0.1c0.31,0.08,0.57,0.39,0.89,0.45
		c0.32,0.07,0.69-0.16,1-0.1c0.32,0.05,0.58,0.48,0.9,0.53c0.32,0.04,0.67-0.15,0.99-0.12c0.32,0.03,0.64,0.11,0.96,0.13
		c0.32,0.02,0.65-0.02,0.97,0c0.32,0.01,0.64,0.22,0.97,0.22c0.33,0,0.66,0.09,0.98,0.08c0.33-0.01,0.64-0.29,0.96-0.32
		c0.33-0.02,0.65-0.05,0.97-0.08c0.32-0.03,0.65-0.05,0.97-0.09c0.32-0.04,0.65-0.05,0.97-0.1c0.32-0.06,0.61-0.28,0.92-0.35
		c0.32-0.07,0.63-0.12,0.95-0.2c0.32-0.08,0.64-0.11,0.95-0.2c0.31-0.09,0.66-0.07,0.97-0.17c0.31-0.1,0.66-0.1,0.96-0.21
		c0.31-0.11,0.48-0.57,0.78-0.69c0.3-0.12,0.65-0.13,0.94-0.26c0.3-0.13,0.54-0.36,0.84-0.5c0.29-0.14,0.72-0.02,1-0.17
		c0.29-0.15,0.51-0.42,0.79-0.58c0.28-0.16,0.7-0.11,0.97-0.28c0.28-0.17,0.4-0.58,0.67-0.76c0.27-0.18,0.68-0.17,0.94-0.36
		c0.26-0.19,0.25-0.75,0.5-0.95c0.26-0.2,0.62-0.26,0.86-0.47c0.25-0.21,0.67-0.23,0.91-0.45c0.23-0.21,0.41-0.45,0.67-0.62
		c0.26-0.17,0.4-0.6,0.68-0.72c0.29-0.12,0.62-0.19,0.93-0.26c0.3-0.07,0.65,0.17,0.97,0.16c0.31-0.01,0.61-0.09,0.92-0.04
		c0.31,0.04,0.58,0.17,0.88,0.27c0.31,0.1,0.6,0.26,0.91,0.35c0.31,0.09,0.62,0.2,0.94,0.28c0.31,0.08,0.73-0.3,1.04-0.23
		c0.32,0.07,0.59,0.35,0.9,0.4c0.32,0.05,0.61,0.29,0.93,0.33c0.32,0.04,0.65,0,0.98,0.04c0.32,0.03,0.65-0.03,0.97-0.01
		c0.32,0.02,0.65-0.15,0.97-0.14c0.32,0.01,0.64,0.07,0.96,0.07c0.33,0,0.66-0.04,0.99-0.05c0.33-0.01,0.68,0.22,1,0.2
		c0.33-0.02,0.68,0.07,1.01,0.03c0.33-0.03,0.63-0.34,0.96-0.39c0.33-0.05,0.68,0.04,1-0.02c0.33-0.06,0.65-0.15,0.97-0.22
		c0.32-0.07,0.62-0.26,0.94-0.34c0.32-0.08,0.63-0.2,0.95-0.3c0.32-0.09,0.65-0.13,0.97-0.23c0.32-0.1,0.58-0.33,0.89-0.44
		c0.32-0.12,0.68-0.19,1.01-0.25c0.33-0.06,0.7,0.06,1.03,0.06c0.34,0.01,0.71-0.14,1.04-0.07c0.33,0.07,0.53,0.54,0.85,0.67
		c0.31,0.13,0.62,0.2,0.9,0.38c0.28,0.18,0.46,0.45,0.7,0.69c0.23,0.22,0.74,0.14,0.98,0.35c0.24,0.21,0.38,0.53,0.62,0.74
		c0.25,0.2,0.61,0.25,0.86,0.45c0.25,0.19,0.49,0.4,0.75,0.59c0.26,0.18,0.38,0.57,0.64,0.75c0.27,0.18,0.56,0.3,0.84,0.47
		c0.27,0.17,0.66,0.13,0.94,0.28c0.28,0.16,0.54,0.33,0.82,0.47c0.28,0.15,0.43,0.57,0.72,0.7c0.29,0.14,0.64,0.14,0.93,0.27
		c0.29,0.13,0.61,0.19,0.91,0.3c0.3,0.12,0.64,0.09,0.94,0.19c0.3,0.11,0.52,0.44,0.82,0.54c0.3,0.1,0.63,0.11,0.94,0.2
		c0.31,0.08,0.62,0.16,0.93,0.23c0.31,0.07,0.64,0.05,0.95,0.12c0.31,0.06,0.6,0.25,0.91,0.31c0.31,0.05,0.63,0.06,0.95,0.1
		c0.32,0.04,0.63,0.08,0.95,0.11c0.32,0.03,0.63,0.1,0.95,0.13c0.32,0.02,0.63,0.15,0.95,0.16c0.32,0.01,0.64,0.12,0.96,0.12
		c0.32,0,0.64-0.42,0.96-0.43c0.32-0.01,0.66,0.24,0.98,0.22c0.32-0.02,0.63-0.26,0.95-0.29c0.32-0.03,0.66,0.11,0.98,0.07
		c0.32-0.04,0.66,0.03,0.98-0.03c0.32-0.05,0.61-0.27,0.93-0.33c0.32-0.07,0.67-0.01,0.98-0.08c0.32-0.08,0.6-0.28,0.91-0.37
		c0.31-0.09,0.6-0.24,0.91-0.34c0.31-0.1,0.59-0.26,0.9-0.37c0.31-0.11,0.58-0.29,0.88-0.41c0.3-0.12,0.7,0.01,1-0.12
		c0.3-0.13,0.61-0.23,0.9-0.37c0.29-0.14,0.5-0.45,0.79-0.6c0.29-0.15,0.7-0.07,0.98-0.23c0.28-0.16,0.34-0.7,0.61-0.87
		c0.28-0.17,0.59-0.28,0.85-0.46c0.27-0.18,0.64-0.21,0.9-0.4c0.26-0.19,0.46-0.47,0.71-0.67c0.26-0.2,0.49-0.42,0.74-0.63
		c0.25-0.21,0.46-0.45,0.7-0.67c0.24-0.22,0.62-0.28,0.85-0.51c0.23-0.23,0.49-0.43,0.71-0.67c0.22-0.24,0.17-0.72,0.38-0.96
		c0.21-0.24,0.54-0.38,0.75-0.63c0.2-0.25,0.62-0.34,0.82-0.6c0.19-0.26,0.22-0.65,0.4-0.91c0.18-0.27,0.19-0.65,0.36-0.92
		c0.17-0.27,0.44-0.48,0.6-0.76c0.16-0.28,0.37-0.53,0.52-0.82c0.15-0.29,0.46-0.5,0.6-0.79c0.14-0.29,0.29-0.59,0.42-0.88
		c0.13-0.3-0.05-0.72,0.06-1.02c0.12-0.3,0.27-0.58,0.37-0.89c0.1-0.31,0.42-0.55,0.51-0.86c0.09-0.31,0.18-0.63,0.26-0.94
		c0.08-0.31-0.1-0.69-0.04-1c0.07-0.32,0.03-0.64,0.09-0.96c0.05-0.32,0.16-0.62,0.2-0.94c0.04-0.32,0.36-0.61,0.38-0.93
		c0.03-0.32-0.07-0.65-0.06-0.98c0.01-0.32-0.06-0.65-0.06-0.97c0-0.32-0.1-0.63-0.12-0.95c-0.01-0.32,0.39-0.67,0.36-0.98
		c-0.03-0.32-0.55-0.59-0.58-0.91c-0.04-0.32,0.36-0.7,0.31-1.01c-0.05-0.32-0.23-0.61-0.3-0.93c-0.06-0.31-0.11-0.64-0.18-0.95
		c-0.08-0.31-0.04-0.66-0.13-0.97c-0.09-0.31-0.57-0.49-0.67-0.8c-0.1-0.3,0.1-0.71-0.02-1.01c-0.11-0.3-0.29-0.58-0.42-0.87
		c-0.13-0.29-0.26-0.59-0.4-0.88c-0.14-0.29-0.38-0.52-0.53-0.81c-0.15-0.28-0.29-0.57-0.44-0.85c-0.16-0.28-0.37-0.52-0.54-0.79
		c-0.17-0.27-0.12-0.69-0.3-0.95c-0.18-0.26-0.4-0.51-0.59-0.76c-0.19-0.26-0.42-0.49-0.62-0.74c-0.2-0.25-0.65-0.29-0.85-0.53
		c-0.21-0.24-0.22-0.66-0.44-0.89c-0.22-0.23-0.53-0.37-0.76-0.6C119.67,126.3,119.46,126.05,119.22,125.84z"/>
	<g>
		<g class="st2">
			<g class="st3">
				<path class="st9" d="M21.23,157.74c-0.23-0.19-0.62-0.2-0.84-0.4c-0.22-0.2-0.29-0.57-0.49-0.78c-0.21-0.22-0.58-0.28-0.78-0.5
					c-0.2-0.23-0.2-0.61-0.38-0.85c-0.18-0.24-0.34-0.49-0.51-0.73c-0.17-0.25-0.44-0.43-0.59-0.68c-0.16-0.26-0.24-0.55-0.38-0.82
					c-0.14-0.27-0.34-0.5-0.46-0.77c-0.12-0.28-0.24-0.55-0.34-0.83c-0.1-0.28-0.27-0.55-0.36-0.83c-0.08-0.29,0.05-0.63-0.01-0.92
					c-0.06-0.29-0.18-0.57-0.22-0.87c-0.04-0.3-0.24-0.58-0.26-0.88c-0.02-0.3,0.12-0.6,0.12-0.9c0.01-0.3,0.15-0.58,0.18-0.88
					c0.03-0.3,0.04-0.59,0.1-0.88c0.06-0.29,0.04-0.6,0.12-0.89c0.08-0.29,0.11-0.6,0.22-0.87c0.11-0.28,0.38-0.48,0.52-0.74
					c0.14-0.26,0.14-0.61,0.3-0.86c0.16-0.25,0.47-0.39,0.66-0.63c0.19-0.23,0.21-0.62,0.42-0.83c0.21-0.21,0.44-0.43,0.67-0.61
					c0.23-0.19,0.52-0.32,0.77-0.48c0.25-0.17,0.52-0.31,0.78-0.45c0.26-0.14,0.55-0.23,0.83-0.35c0.27-0.11,0.59-0.1,0.88-0.19
					c0.28-0.09,0.56-0.17,0.86-0.24c0.29-0.07,0.55-0.31,0.85-0.36c0.29-0.04,0.61,0.06,0.91,0.04c0.3-0.02,0.59-0.11,0.89-0.11
					c0.3,0,0.61-0.11,0.91-0.09c0.3,0.02,0.59,0.18,0.89,0.22c0.29,0.04,0.6,0.07,0.89,0.14c0.29,0.06,0.59,0.11,0.88,0.2
					c0.29,0.08,0.5,0.39,0.79,0.49c0.28,0.1,0.56,0.19,0.84,0.3c0.27,0.12,0.63,0.05,0.9,0.18c0.27,0.13,0.56,0.24,0.82,0.39
					c0.26,0.15,0.54,0.27,0.8,0.44c0.25,0.16,0.43,0.44,0.68,0.61c0.24,0.17,0.51,0.32,0.74,0.51c0.23,0.19,0.46,0.4,0.68,0.6
					c0.22,0.2,0.49,0.37,0.7,0.58c0.21,0.22,0.35,0.51,0.54,0.73c0.2,0.23,0.48,0.4,0.66,0.63c0.18,0.24,0.32,0.52,0.48,0.77
					c0.17,0.25,0.09,0.66,0.24,0.91c0.16,0.26,0.47,0.42,0.61,0.68c0.14,0.27,0.24,0.55,0.36,0.82c0.12,0.28,0.42,0.49,0.52,0.76
					c0.1,0.28-0.05,0.65,0.04,0.94c0.08,0.29,0.14,0.58,0.2,0.87c0.06,0.29,0.05,0.59,0.09,0.89c0.04,0.3,0.37,0.57,0.38,0.86
					c0.02,0.3,0,0.61-0.01,0.91c-0.01,0.3-0.04,0.61-0.07,0.9c-0.03,0.3-0.07,0.6-0.13,0.9c-0.06,0.29-0.16,0.59-0.25,0.87
					c-0.08,0.29-0.24,0.55-0.36,0.83c-0.11,0.28-0.39,0.47-0.53,0.74c-0.14,0.26-0.25,0.53-0.42,0.78
					c-0.16,0.25-0.24,0.55-0.44,0.79c-0.19,0.23-0.34,0.51-0.55,0.72c-0.21,0.21-0.54,0.3-0.77,0.49c-0.23,0.19-0.36,0.52-0.61,0.69
					c-0.25,0.17-0.6,0.16-0.87,0.3c-0.26,0.14-0.53,0.26-0.81,0.38c-0.27,0.11-0.51,0.32-0.8,0.41c-0.28,0.09-0.62-0.05-0.92,0.02
					c-0.29,0.07-0.53,0.38-0.83,0.43c-0.29,0.04-0.61-0.14-0.91-0.12c-0.3,0.02-0.59,0.32-0.89,0.32c-0.3,0-0.58-0.3-0.88-0.32
					c-0.3-0.02-0.59-0.05-0.88-0.09c-0.29-0.04-0.64,0.19-0.94,0.13c-0.29-0.06-0.52-0.38-0.81-0.46c-0.29-0.08-0.53-0.27-0.82-0.37
					c-0.28-0.1-0.56-0.17-0.84-0.29c-0.27-0.12-0.6-0.1-0.87-0.24c-0.27-0.13-0.51-0.32-0.77-0.47c-0.26-0.15-0.49-0.34-0.74-0.5
					c-0.25-0.16-0.58-0.21-0.82-0.39C21.59,158.24,21.46,157.93,21.23,157.74z"/>
			</g>
			<g class="st3">
				<path class="st9" d="M112.7,157.72c0.23-0.19,0.66-0.16,0.88-0.36c0.22-0.2,0.25-0.61,0.46-0.82c0.21-0.22,0.61-0.25,0.81-0.48
					c0.2-0.23,0.43-0.44,0.61-0.68c0.18-0.24,0.14-0.65,0.31-0.89c0.17-0.25,0.33-0.5,0.48-0.75c0.16-0.26,0.29-0.52,0.43-0.78
					c0.14-0.27,0.48-0.44,0.6-0.71c0.12-0.28-0.03-0.66,0.07-0.94c0.1-0.28,0.19-0.56,0.27-0.85c0.08-0.29,0.26-0.55,0.32-0.84
					c0.06-0.29,0.28-0.56,0.32-0.86c0.04-0.3-0.17-0.62-0.15-0.92c0.02-0.3,0.25-0.59,0.24-0.89c-0.01-0.3-0.25-0.58-0.29-0.88
					c-0.03-0.3,0.17-0.63,0.11-0.92c-0.06-0.29-0.11-0.6-0.19-0.89c-0.08-0.29-0.31-0.53-0.42-0.81c-0.11-0.28-0.18-0.58-0.31-0.85
					c-0.14-0.26-0.36-0.49-0.52-0.74c-0.16-0.25-0.34-0.49-0.53-0.72c-0.19-0.23-0.45-0.4-0.66-0.61c-0.21-0.21-0.29-0.57-0.52-0.76
					c-0.23-0.19-0.52-0.32-0.77-0.49c-0.25-0.17-0.59-0.17-0.86-0.31c-0.26-0.14-0.47-0.39-0.75-0.51
					c-0.27-0.11-0.52-0.34-0.81-0.43c-0.28-0.09-0.59-0.14-0.89-0.21c-0.29-0.07-0.61-0.03-0.91-0.07c-0.29-0.04-0.6,0.01-0.9-0.01
					c-0.3-0.02-0.59-0.19-0.9-0.19c-0.3,0-0.59,0.19-0.89,0.21c-0.3,0.02-0.61-0.1-0.91-0.05c-0.29,0.04-0.54,0.33-0.84,0.4
					c-0.29,0.06-0.57,0.14-0.86,0.22c-0.29,0.08-0.59,0.11-0.87,0.21c-0.28,0.1-0.56,0.19-0.84,0.31c-0.27,0.12-0.56,0.2-0.83,0.33
					c-0.27,0.13-0.59,0.16-0.85,0.31c-0.26,0.15-0.52,0.31-0.77,0.47c-0.25,0.16-0.39,0.49-0.63,0.67
					c-0.24,0.17-0.56,0.25-0.79,0.45c-0.23,0.19-0.4,0.45-0.62,0.65c-0.22,0.2-0.35,0.5-0.55,0.71c-0.21,0.22-0.5,0.35-0.69,0.57
					c-0.2,0.23-0.37,0.47-0.55,0.71c-0.18,0.24-0.34,0.49-0.51,0.73c-0.17,0.25-0.52,0.38-0.67,0.63c-0.16,0.26-0.29,0.53-0.42,0.8
					c-0.14,0.27-0.08,0.63-0.2,0.9c-0.12,0.28-0.2,0.56-0.3,0.84c-0.1,0.28-0.16,0.57-0.24,0.85c-0.08,0.29-0.27,0.54-0.34,0.83
					c-0.06,0.29-0.07,0.59-0.11,0.89c-0.04,0.3-0.08,0.59-0.1,0.88c-0.02,0.3,0.04,0.59,0.05,0.89c0.01,0.3-0.07,0.6-0.04,0.89
					c0.03,0.3,0.18,0.57,0.24,0.86c0.06,0.29,0.06,0.59,0.15,0.87c0.08,0.29-0.09,0.67,0.02,0.95c0.11,0.28,0.42,0.47,0.56,0.74
					c0.14,0.26,0.26,0.54,0.43,0.79c0.16,0.25,0.49,0.37,0.68,0.6c0.19,0.23,0.2,0.62,0.41,0.83c0.21,0.21,0.43,0.43,0.66,0.62
					c0.23,0.19,0.44,0.43,0.69,0.59c0.25,0.17,0.66,0.06,0.92,0.21c0.26,0.14,0.51,0.29,0.79,0.4c0.27,0.11,0.54,0.23,0.83,0.32
					c0.28,0.09,0.56,0.16,0.86,0.23c0.29,0.07,0.57,0.15,0.87,0.19c0.29,0.04,0.58,0.13,0.88,0.15c0.3,0.02,0.6,0.2,0.9,0.19
					c0.3,0,0.6-0.05,0.9-0.08c0.3-0.02,0.58-0.17,0.88-0.22c0.29-0.04,0.57-0.17,0.87-0.24c0.29-0.06,0.62,0.01,0.91-0.07
					c0.29-0.08,0.51-0.36,0.8-0.46c0.28-0.1,0.63-0.03,0.9-0.15c0.27-0.12,0.55-0.24,0.82-0.37c0.27-0.13,0.48-0.37,0.74-0.52
					c0.26-0.15,0.63-0.11,0.89-0.27c0.25-0.16,0.35-0.56,0.59-0.73C112.27,158.14,112.46,157.91,112.7,157.72z"/>
			</g>
		</g>
		<g class="st2">
			<path class="st9" d="M66.7,83.71c-0.31,0-0.61-0.08-0.92-0.09c-0.31-0.01-0.61-0.01-0.92-0.02c-0.31-0.01-0.61,0-0.92-0.02
				c-0.31-0.02-0.63,0.2-0.94,0.18c-0.31-0.03-0.6-0.23-0.9-0.27c-0.31-0.03-0.64,0.16-0.94,0.12c-0.3-0.04-0.6-0.17-0.9-0.22
				c-0.3-0.05-0.56-0.4-0.86-0.45c-0.3-0.05-0.62-0.03-0.92-0.09c-0.3-0.06-0.62-0.05-0.92-0.12c-0.3-0.07-0.65,0.06-0.94-0.02
				c-0.3-0.07-0.51-0.46-0.81-0.55c-0.33-0.09-0.74,0.02-1-0.17c-0.26-0.2-0.26-0.63-0.42-0.92c-0.16-0.28-0.21-0.54-0.25-0.87
				c-0.04-0.32-0.31-0.65-0.22-0.97c0.09-0.33,0.26-0.65,0.45-0.91c0.2-0.26,0.48-0.51,0.76-0.67c0.28-0.16,0.67-0.03,1-0.08
				c0.32-0.04,0.67-0.31,1-0.22c0.29,0.08,0.58,0.15,0.88,0.22c0.29,0.07,0.56,0.25,0.85,0.32c0.29,0.06,0.56,0.3,0.85,0.36
				c0.3,0.06,0.64-0.15,0.94-0.1c0.3,0.05,0.56,0.33,0.86,0.37c0.3,0.04,0.63-0.16,0.93-0.13c0.3,0.03,0.57,0.32,0.88,0.35
				c0.3,0.03,0.6,0.07,0.91,0.09c0.3,0.02,0.61-0.11,0.92-0.09c0.3,0.01,0.6,0.1,0.91,0.1c0.3,0.01,0.61-0.08,0.91-0.08
				c0.3,0,0.6-0.01,0.91-0.02c0.3-0.01,0.6-0.11,0.9-0.12c0.3-0.02,0.62,0.19,0.92,0.17c0.3-0.02,0.6-0.12,0.9-0.15
				c0.3-0.03,0.58-0.24,0.88-0.28c0.3-0.04,0.62,0.07,0.92,0.02c0.3-0.05,0.62,0.03,0.92-0.02c0.3-0.05,0.59-0.14,0.89-0.2
				c0.3-0.06,0.57-0.22,0.87-0.29c0.29-0.07,0.57-0.22,0.86-0.3c0.29-0.08,0.63,0.01,0.92-0.07c0.33-0.09,0.62-0.3,0.94-0.26
				c0.33,0.04,0.58,0.29,0.87,0.45c0.29,0.16,0.71,0.18,0.91,0.44c0.2,0.25,0.38,0.59,0.48,0.91c0.09,0.33,0.05,0.7,0.02,1.02
				c-0.04,0.33-0.16,0.67-0.32,0.95c-0.16,0.29-0.41,0.52-0.67,0.73c-0.25,0.2-0.58,0.23-0.91,0.33c-0.29,0.08-0.57,0.17-0.86,0.25
				c-0.29,0.08-0.53,0.35-0.82,0.42c-0.29,0.07-0.61,0-0.9,0.07c-0.29,0.06-0.57,0.22-0.86,0.27c-0.29,0.06-0.57,0.24-0.86,0.3
				c-0.29,0.05-0.61-0.03-0.91,0.02c-0.29,0.04-0.59,0.11-0.89,0.15c-0.3,0.04-0.59,0.1-0.89,0.13c-0.3,0.03-0.62-0.18-0.91-0.15
				c-0.3,0.02-0.59,0.07-0.89,0.09c-0.3,0.02-0.58,0.26-0.88,0.27c-0.3,0.01-0.6,0.06-0.9,0.07C67.3,83.94,67,83.71,66.7,83.71z"/>
		</g>
		<g class="st2">
			<path class="st9" d="M49.39,149.24c-0.34,0-0.72-0.14-1.01-0.26c-0.31-0.13-0.5-0.47-0.73-0.7c-0.23-0.23-0.27-0.55-0.39-0.86
				c-0.12-0.29-0.2-0.54-0.2-0.88c0-0.3-0.03-0.61-0.04-0.91c-0.02-0.3-0.36-0.58-0.4-0.87c-0.03-0.3,0.09-0.62,0.04-0.91
				c-0.05-0.3-0.01-0.61-0.08-0.91c-0.07-0.29-0.09-0.6-0.17-0.89c-0.08-0.29-0.14-0.6-0.23-0.88c-0.1-0.29-0.31-0.53-0.42-0.81
				c-0.11-0.28-0.15-0.6-0.28-0.87c-0.13-0.27-0.32-0.52-0.46-0.79c-0.14-0.27-0.22-0.57-0.38-0.83c-0.15-0.26-0.32-0.52-0.49-0.77
				c-0.17-0.25-0.37-0.48-0.55-0.72c-0.18-0.24-0.56-0.32-0.76-0.55c-0.19-0.23-0.25-0.57-0.46-0.8c-0.2-0.22-0.58-0.27-0.79-0.49
				c-0.21-0.21-0.36-0.48-0.59-0.68c-0.22-0.2-0.25-0.63-0.49-0.82c-0.23-0.19-0.53-0.31-0.77-0.49c-0.24-0.18-0.54-0.29-0.79-0.46
				c-0.25-0.17-0.61-0.16-0.87-0.31c-0.26-0.16-0.36-0.59-0.62-0.73c-0.26-0.14-0.67-0.01-0.94-0.15c-0.27-0.13-0.42-0.52-0.7-0.64
				c-0.28-0.12-0.55-0.27-0.83-0.38c-0.28-0.11-0.67,0.08-0.95-0.01c-0.29-0.09-0.57-0.18-0.86-0.26c-0.29-0.08-0.58-0.14-0.87-0.21
				c-0.29-0.07-0.54-0.37-0.84-0.43c-0.3-0.05-0.64,0.2-0.94,0.16c-0.3-0.04-0.59-0.06-0.89-0.09c-0.3-0.03-0.59-0.16-0.89-0.18
				c-0.3-0.01-0.6-0.2-0.9-0.2c-0.34,0-0.71,0.19-1.01,0.06c-0.31-0.13-0.45-0.51-0.68-0.74c-0.23-0.23-0.62-0.37-0.75-0.68
				c-0.12-0.29,0.07-0.67,0.07-1.01c0-0.34,0.08-0.6,0.2-0.9c0.13-0.31,0.18-0.63,0.41-0.86c0.23-0.23,0.53-0.34,0.84-0.47
				c0.29-0.12,0.59-0.27,0.92-0.27c0.3,0,0.6,0,0.9,0.01c0.3,0.01,0.61-0.06,0.9-0.04c0.3,0.02,0.58,0.28,0.87,0.31
				c0.3,0.03,0.6,0,0.89,0.04c0.3,0.04,0.62-0.09,0.92-0.04c0.3,0.05,0.56,0.26,0.85,0.32c0.29,0.06,0.55,0.26,0.84,0.33
				c0.29,0.07,0.58,0.12,0.87,0.2c0.29,0.08,0.6,0.08,0.88,0.17c0.28,0.09,0.59,0.11,0.87,0.22c0.28,0.1,0.49,0.38,0.77,0.49
				c0.28,0.11,0.62,0.06,0.9,0.18c0.27,0.12,0.47,0.41,0.73,0.54c0.27,0.13,0.65,0.04,0.92,0.19c0.26,0.14,0.53,0.29,0.79,0.44
				c0.26,0.15,0.48,0.38,0.73,0.54c0.25,0.16,0.49,0.34,0.74,0.51c0.25,0.17,0.46,0.39,0.7,0.57c0.24,0.18,0.39,0.47,0.62,0.66
				c0.23,0.19,0.46,0.38,0.68,0.57c0.22,0.2,0.59,0.24,0.8,0.45c0.22,0.21,0.33,0.52,0.54,0.73c0.21,0.21,0.48,0.37,0.68,0.59
				c0.2,0.22,0.5,0.36,0.69,0.59c0.19,0.23,0.28,0.55,0.46,0.79c0.18,0.24,0.38,0.46,0.55,0.71c0.17,0.24,0.36,0.48,0.53,0.73
				c0.16,0.25,0.11,0.63,0.27,0.89c0.15,0.26,0.32,0.5,0.46,0.77c0.14,0.26,0.48,0.42,0.61,0.69c0.13,0.27,0.3,0.53,0.42,0.8
				c0.12,0.27,0.27,0.54,0.38,0.82c0.11,0.28,0.09,0.61,0.19,0.89c0.1,0.28,0.24,0.55,0.32,0.84c0.09,0.29,0.15,0.58,0.23,0.87
				c0.07,0.29,0.21,0.57,0.28,0.86c0.06,0.29,0.02,0.61,0.07,0.91c0.05,0.29,0.21,0.58,0.25,0.88c0.04,0.3,0,0.61,0.03,0.91
				c0.02,0.3-0.27,0.61-0.26,0.91c0.01,0.3,0.23,0.59,0.23,0.89c0,0.34-0.1,0.66-0.23,0.95c-0.13,0.31-0.16,0.73-0.39,0.96
				c-0.23,0.23-0.68,0.2-0.98,0.33C50.02,148.9,49.73,149.24,49.39,149.24z"/>
		</g>
		<g class="st2">
			<path class="st9" d="M39.44,103.33c-0.27,0-0.6,0.24-0.87,0.15c-0.32-0.11-0.59-0.39-0.83-0.6c-0.25-0.22-0.31-0.57-0.45-0.87
				c-0.14-0.29-0.29-0.57-0.31-0.9c-0.02-0.32,0.06-0.62,0.18-0.94c0.1-0.28,0.19-0.56,0.27-0.85c0.08-0.28,0.01-0.61,0.08-0.89
				c0.07-0.29,0.1-0.58,0.15-0.87c0.05-0.29,0.37-0.55,0.4-0.84c0.03-0.29-0.11-0.61-0.09-0.9c0.01-0.3-0.2-0.59-0.2-0.88
				c0-0.3,0.04-0.58,0.02-0.88c-0.02-0.29,0.12-0.6,0.08-0.89c-0.04-0.29,0.05-0.61-0.01-0.9c-0.06-0.29-0.15-0.58-0.23-0.87
				c-0.08-0.29-0.18-0.57-0.27-0.85c-0.09-0.28-0.48-0.45-0.6-0.72c-0.12-0.29-0.11-0.64-0.25-0.91c-0.14-0.28-0.22-0.6-0.38-0.87
				c-0.16-0.27-0.3-0.56-0.48-0.82c-0.18-0.26-0.36-0.53-0.56-0.77c-0.2-0.24-0.5-0.4-0.72-0.62c-0.22-0.22-0.4-0.5-0.64-0.7
				c-0.24-0.2-0.53-0.35-0.79-0.53c-0.26-0.18-0.49-0.41-0.76-0.57c-0.27-0.15-0.56-0.3-0.85-0.43c-0.28-0.13-0.6-0.22-0.89-0.32
				c-0.32-0.11-0.73-0.08-0.97-0.3c-0.25-0.22-0.33-0.6-0.47-0.9c-0.14-0.29-0.44-0.59-0.46-0.92c-0.02-0.32,0.12-0.69,0.23-1.01
				c0.11-0.32,0.52-0.44,0.73-0.68c0.22-0.25,0.39-0.47,0.68-0.62c0.29-0.14,0.57-0.29,0.9-0.31c0.32-0.02,0.69-0.16,1.01-0.05
				c0.29,0.1,0.46,0.5,0.74,0.61c0.28,0.12,0.67-0.02,0.94,0.12c0.27,0.13,0.41,0.52,0.68,0.66c0.26,0.15,0.5,0.33,0.75,0.5
				c0.26,0.16,0.66,0.1,0.91,0.28c0.24,0.18,0.49,0.37,0.72,0.56c0.23,0.19,0.47,0.39,0.7,0.59c0.22,0.21,0.27,0.59,0.48,0.81
				c0.21,0.22,0.63,0.25,0.82,0.48c0.2,0.23,0.4,0.47,0.58,0.71c0.18,0.24,0.27,0.55,0.44,0.81c0.17,0.25,0.19,0.59,0.35,0.86
				c0.16,0.26,0.52,0.4,0.67,0.67c0.14,0.27,0.08,0.64,0.21,0.91c0.13,0.27,0.47,0.46,0.58,0.74c0.11,0.27-0.01,0.64,0.09,0.92
				c0.1,0.28,0.17,0.56,0.26,0.85c0.09,0.28,0.29,0.53,0.37,0.82c0.07,0.29,0.07,0.59,0.13,0.88c0.06,0.29,0.19,0.57,0.23,0.86
				c0.05,0.29,0.09,0.59,0.12,0.88c0.03,0.29,0.14,0.59,0.15,0.88c0.02,0.3-0.19,0.6-0.18,0.9c0,0.3,0.06,0.59,0.06,0.89
				c-0.01,0.3,0.15,0.6,0.12,0.9c-0.02,0.3-0.19,0.58-0.23,0.87c-0.04,0.29-0.2,0.57-0.25,0.86c-0.05,0.29-0.07,0.58-0.13,0.87
				c-0.06,0.29-0.04,0.6-0.11,0.88c-0.07,0.29-0.07,0.59-0.16,0.88c-0.09,0.28-0.33,0.51-0.43,0.79c-0.12,0.34-0.14,0.71-0.37,0.95
				c-0.24,0.25-0.6,0.32-0.91,0.46C40.09,103.29,39.79,103.33,39.44,103.33z"/>
		</g>
		<g class="st2">
			<path class="st9" d="M94.41,103.44c-0.35,0-0.64-0.17-0.95-0.3c-0.31-0.14-0.77-0.11-1.01-0.36c-0.23-0.25-0.18-0.69-0.29-1.03
				c-0.1-0.28-0.34-0.52-0.43-0.8c-0.09-0.29-0.03-0.61-0.1-0.9c-0.07-0.29-0.16-0.57-0.22-0.87c-0.06-0.29,0.01-0.61-0.04-0.9
				c-0.05-0.3-0.22-0.57-0.25-0.87c-0.03-0.3-0.14-0.59-0.16-0.89c-0.02-0.3-0.13-0.6-0.13-0.9c-0.01-0.3,0.12-0.6,0.12-0.9
				c0.01-0.3,0.13-0.59,0.15-0.89c0.02-0.3-0.25-0.63-0.21-0.92c0.03-0.3,0.18-0.59,0.22-0.88c0.05-0.3,0.26-0.56,0.32-0.85
				c0.06-0.29,0.05-0.6,0.13-0.89c0.08-0.29,0.2-0.56,0.29-0.85c0.09-0.29,0.19-0.57,0.29-0.85c0.1-0.28,0.07-0.61,0.19-0.89
				c0.12-0.28,0.22-0.56,0.35-0.83c0.13-0.27,0.52-0.41,0.66-0.67c0.14-0.26,0.15-0.6,0.31-0.85c0.16-0.26,0.14-0.63,0.31-0.88
				c0.17-0.25,0.4-0.46,0.58-0.7c0.18-0.24,0.51-0.36,0.71-0.59c0.2-0.23,0.5-0.35,0.71-0.56c0.21-0.22,0.4-0.44,0.62-0.64
				c0.22-0.2,0.43-0.41,0.66-0.6c0.23-0.19,0.28-0.61,0.53-0.79c0.24-0.18,0.58-0.22,0.83-0.38c0.25-0.16,0.55-0.24,0.81-0.39
				c0.26-0.15,0.54-0.24,0.81-0.37c0.27-0.13,0.55-0.22,0.83-0.33c0.28-0.11,0.51-0.32,0.8-0.42c0.32-0.11,0.63-0.07,0.95-0.05
				c0.33,0.02,0.63,0.04,0.92,0.18c0.29,0.14,0.48,0.37,0.7,0.62c0.21,0.24,0.36,0.47,0.47,0.79c0.11,0.32,0.18,0.6,0.16,0.92
				c-0.02,0.33,0.12,0.72-0.02,1.01c-0.14,0.29-0.49,0.48-0.73,0.7c-0.24,0.21-0.44,0.58-0.76,0.69c-0.29,0.1-0.59,0.13-0.87,0.25
				c-0.28,0.13-0.68,0-0.95,0.15c-0.27,0.15-0.49,0.38-0.74,0.55c-0.25,0.17-0.45,0.42-0.69,0.61c-0.23,0.19-0.33,0.53-0.55,0.74
				c-0.22,0.21-0.65,0.22-0.85,0.45c-0.2,0.23-0.17,0.64-0.35,0.89c-0.18,0.24-0.58,0.34-0.74,0.6c-0.16,0.26-0.35,0.51-0.5,0.78
				c-0.14,0.27-0.02,0.67-0.14,0.95c-0.12,0.28-0.23,0.55-0.34,0.84c-0.1,0.28-0.18,0.57-0.27,0.86c-0.08,0.29-0.39,0.53-0.45,0.83
				c-0.06,0.29,0.16,0.64,0.12,0.95c-0.04,0.3-0.07,0.59-0.1,0.9c-0.02,0.3-0.15,0.59-0.16,0.9c-0.01,0.3-0.17,0.61-0.16,0.91
				c0.01,0.3,0.28,0.59,0.31,0.89c0.03,0.3-0.15,0.63-0.1,0.93c0.05,0.3,0.34,0.55,0.4,0.85c0.07,0.29-0.1,0.65-0.02,0.94
				c0.08,0.29,0.15,0.59,0.25,0.88c0.11,0.32,0.28,0.6,0.26,0.92c-0.02,0.33-0.17,0.62-0.31,0.91c-0.14,0.29-0.27,0.59-0.52,0.81
				c-0.24,0.21-0.52,0.39-0.84,0.5C94.96,103.42,94.68,103.44,94.41,103.44z"/>
		</g>
		<g class="st2">
			<path class="st9" d="M84.28,148.85c-0.34,0-0.72,0.25-1.01,0.13c-0.31-0.13-0.38-0.6-0.61-0.83c-0.23-0.23-0.45-0.41-0.57-0.71
				c-0.12-0.29-0.34-0.57-0.34-0.91c0-0.3,0.25-0.59,0.26-0.89c0.01-0.3-0.02-0.59,0-0.89c0.02-0.3-0.26-0.63-0.22-0.93
				c0.04-0.3,0.37-0.55,0.42-0.85c0.05-0.3-0.1-0.63-0.04-0.92c0.06-0.29,0.31-0.54,0.39-0.83c0.07-0.29-0.07-0.64,0.02-0.93
				c0.09-0.29,0.19-0.57,0.28-0.86c0.1-0.28,0.33-0.52,0.44-0.8c0.11-0.28,0.33-0.51,0.45-0.78c0.12-0.27-0.04-0.68,0.1-0.95
				c0.13-0.27,0.54-0.4,0.68-0.66c0.14-0.26,0.14-0.61,0.29-0.86c0.15-0.26,0.44-0.43,0.6-0.68c0.16-0.25,0.31-0.51,0.48-0.75
				c0.17-0.24,0.46-0.4,0.64-0.64c0.18-0.24,0.25-0.55,0.45-0.78c0.19-0.23,0.32-0.51,0.52-0.73c0.2-0.22,0.33-0.51,0.54-0.72
				c0.21-0.21,0.51-0.33,0.73-0.54c0.22-0.21,0.52-0.32,0.74-0.51c0.22-0.2,0.25-0.63,0.48-0.82c0.23-0.19,0.54-0.29,0.77-0.47
				c0.24-0.18,0.58-0.22,0.83-0.39c0.24-0.17,0.44-0.4,0.7-0.57c0.25-0.16,0.53-0.28,0.78-0.43c0.26-0.15,0.51-0.3,0.78-0.44
				c0.26-0.14,0.45-0.42,0.72-0.56c0.27-0.13,0.53-0.29,0.8-0.41c0.27-0.12,0.66,0.03,0.94-0.08c0.28-0.11,0.49-0.38,0.77-0.49
				c0.28-0.1,0.49-0.42,0.77-0.52c0.28-0.09,0.59-0.12,0.88-0.21c0.29-0.08,0.62,0.02,0.92-0.06c0.29-0.07,0.61,0.01,0.9-0.06
				c0.29-0.06,0.57-0.15,0.87-0.2c0.29-0.05,0.58-0.12,0.88-0.16c0.3-0.04,0.55-0.4,0.85-0.43c0.3-0.03,0.61,0.1,0.91,0.08
				c0.3-0.02,0.6,0.06,0.9,0.05c0.3-0.01,0.59,0.03,0.89,0.03c0.34,0,0.6,0.09,0.9,0.21c0.31,0.13,0.61,0.19,0.84,0.42
				c0.23,0.23,0.32,0.53,0.45,0.83c0.12,0.29,0.24,0.57,0.24,0.91c0,0.34-0.13,0.61-0.26,0.9c-0.13,0.31-0.28,0.54-0.51,0.77
				c-0.23,0.23-0.45,0.42-0.75,0.54c-0.29,0.12-0.58,0.43-0.92,0.43c-0.3,0-0.61-0.17-0.91-0.16c-0.3,0.01-0.58,0.27-0.88,0.29
				c-0.3,0.03-0.6-0.03-0.9,0.01c-0.3,0.04-0.65-0.22-0.94-0.17c-0.3,0.05-0.58,0.2-0.88,0.26c-0.3,0.07-0.57,0.22-0.86,0.3
				c-0.29,0.08-0.52,0.36-0.81,0.45c-0.29,0.09-0.68-0.12-0.96-0.01c-0.28,0.11-0.45,0.5-0.73,0.61c-0.28,0.12-0.67-0.02-0.94,0.11
				c-0.27,0.13-0.57,0.23-0.83,0.38c-0.27,0.14-0.38,0.56-0.64,0.71c-0.26,0.16-0.51,0.31-0.76,0.48c-0.25,0.17-0.49,0.35-0.73,0.53
				c-0.24,0.18-0.64,0.16-0.87,0.35c-0.23,0.19-0.26,0.62-0.49,0.82c-0.22,0.2-0.43,0.41-0.65,0.62c-0.21,0.21-0.51,0.34-0.71,0.56
				c-0.2,0.22-0.54,0.33-0.73,0.56c-0.19,0.23-0.17,0.63-0.35,0.87c-0.18,0.24-0.55,0.35-0.72,0.6c-0.17,0.25-0.12,0.64-0.27,0.9
				c-0.15,0.26-0.53,0.39-0.67,0.66c-0.14,0.27-0.3,0.53-0.43,0.81c-0.13,0.27-0.12,0.61-0.23,0.89c-0.11,0.28-0.29,0.54-0.38,0.82
				c-0.1,0.28-0.11,0.6-0.19,0.89c-0.08,0.29-0.15,0.58-0.21,0.88c-0.06,0.29-0.04,0.6-0.09,0.9c-0.05,0.3-0.32,0.56-0.35,0.86
				c-0.03,0.3,0.01,0.61-0.01,0.91c-0.02,0.3,0.16,0.6,0.16,0.91c0,0.34-0.22,0.65-0.34,0.94c-0.13,0.31-0.4,0.47-0.63,0.7
				c-0.23,0.23-0.44,0.41-0.74,0.53C84.89,148.83,84.62,148.85,84.28,148.85z"/>
		</g>
		<g class="st2">
			<g>
				<path class="st9" d="M33.27,27.97c-0.34,0.06-0.64-0.14-0.96-0.2c-0.33-0.07-0.67-0.04-0.94-0.23
					c-0.27-0.19-0.38-0.51-0.55-0.79c-0.17-0.27-0.27-0.53-0.32-0.87c-0.04-0.31-0.26-0.59-0.28-0.9c-0.02-0.31-0.12-0.62-0.11-0.93
					c0.01-0.31,0.12-0.62,0.15-0.93c0.04-0.31-0.02-0.64,0.05-0.94c0.06-0.3,0.37-0.55,0.46-0.84c0.09-0.3,0.23-0.56,0.34-0.85
					c0.11-0.29,0-0.67,0.13-0.95c0.13-0.28,0.52-0.42,0.68-0.68c0.16-0.27,0.26-0.55,0.44-0.8c0.18-0.25,0.27-0.57,0.47-0.81
					c0.2-0.24,0.54-0.33,0.76-0.55c0.22-0.22,0.41-0.45,0.64-0.65c0.23-0.2,0.33-0.58,0.58-0.76c0.25-0.18,0.63-0.16,0.9-0.32
					c0.26-0.16,0.46-0.45,0.74-0.58c0.28-0.13,0.62-0.12,0.91-0.23c0.29-0.11,0.52-0.38,0.82-0.46c0.3-0.09,0.6-0.16,0.9-0.22
					c0.3-0.06,0.63-0.01,0.93-0.05c0.31-0.04,0.61,0.03,0.92,0.02c0.31-0.01,0.62-0.25,0.93-0.23c0.31,0.02,0.59,0.28,0.9,0.32
					c0.31,0.04,0.63-0.04,0.93,0.03c0.3,0.07,0.57,0.26,0.86,0.35c0.29,0.09,0.58,0.17,0.87,0.29c0.28,0.11,0.51,0.33,0.79,0.47
					c0.27,0.14,0.59,0.19,0.85,0.35c0.26,0.16,0.55,0.28,0.8,0.46c0.25,0.18,0.54,0.32,0.77,0.52c0.23,0.2,0.39,0.49,0.6,0.71
					c0.21,0.22,0.34,0.51,0.54,0.75c0.19,0.24,0.57,0.34,0.75,0.59c0.2,0.29,0.27,0.67,0.33,0.99c0.07,0.33-0.07,0.66-0.14,0.99
					c-0.07,0.33-0.14,0.64-0.33,0.92c-0.19,0.27-0.44,0.47-0.74,0.65c-0.54,0.34-0.54,0.34-1.08,0.67
					c-0.26,0.16-0.46,0.43-0.73,0.59c-0.27,0.16-0.52,0.33-0.79,0.48c-0.27,0.15-0.65,0.1-0.92,0.24c-0.27,0.14-0.48,0.41-0.76,0.54
					c-0.28,0.14-0.48,0.44-0.76,0.57c-0.28,0.13-0.58,0.22-0.87,0.34c-0.28,0.13-0.62,0.12-0.91,0.23c-0.29,0.12-0.61,0.12-0.9,0.24
					c-0.29,0.11-0.57,0.24-0.86,0.34c-0.29,0.11-0.57,0.22-0.87,0.32c-0.29,0.1-0.51,0.43-0.8,0.52c-0.3,0.09-0.63,0.06-0.93,0.14
					c-0.3,0.08-0.61,0.1-0.91,0.17c-0.3,0.08-0.61,0.12-0.91,0.19c-0.3,0.07-0.61,0.11-0.91,0.17c-0.3,0.06-0.59,0.21-0.89,0.27
					c-0.39,0.07-0.41-0.01-0.8,0.08C33.63,27.77,33.66,27.89,33.27,27.97z"/>
			</g>
			<g>
				<path class="st9" d="M100.7,27.81c0.34,0.06,0.62,0.05,0.94-0.02c0.33-0.07,0.66-0.09,0.93-0.27c0.27-0.19,0.41-0.48,0.59-0.77
					c0.17-0.27,0.44-0.51,0.49-0.86c0.04-0.31,0.08-0.62,0.09-0.93c0.02-0.31,0.11-0.63,0.1-0.93c-0.01-0.31-0.33-0.6-0.36-0.9
					c-0.04-0.31,0.22-0.66,0.16-0.96c-0.06-0.3-0.33-0.56-0.41-0.86c-0.09-0.3-0.18-0.59-0.29-0.87c-0.11-0.29-0.06-0.65-0.19-0.93
					c-0.13-0.28-0.43-0.48-0.58-0.75c-0.16-0.27-0.2-0.62-0.38-0.87c-0.18-0.25-0.37-0.51-0.57-0.74c-0.2-0.24-0.55-0.34-0.77-0.56
					c-0.22-0.22-0.51-0.35-0.74-0.55c-0.23-0.2-0.42-0.45-0.67-0.63c-0.25-0.18-0.56-0.26-0.82-0.41c-0.26-0.16-0.42-0.51-0.7-0.65
					c-0.28-0.13-0.55-0.31-0.84-0.42c-0.29-0.11-0.66,0.03-0.96-0.05c-0.3-0.09-0.53-0.43-0.83-0.49c-0.3-0.06-0.63-0.05-0.93-0.08
					c-0.31-0.04-0.63,0.06-0.93,0.05c-0.31-0.01-0.62-0.2-0.93-0.18c-0.31,0.02-0.62,0.09-0.93,0.13c-0.31,0.04-0.56,0.34-0.86,0.4
					c-0.3,0.07-0.65-0.07-0.95,0.02c-0.29,0.09-0.53,0.35-0.81,0.46c-0.28,0.11-0.63,0.11-0.9,0.25c-0.27,0.14-0.46,0.44-0.72,0.6
					c-0.26,0.16-0.51,0.32-0.76,0.5c-0.25,0.18-0.55,0.29-0.78,0.49c-0.23,0.2-0.52,0.35-0.73,0.57c-0.21,0.22-0.24,0.61-0.43,0.85
					c-0.19,0.24-0.57,0.34-0.74,0.59c-0.2,0.29-0.21,0.66-0.28,0.98c-0.07,0.33-0.18,0.68-0.11,1.01c0.07,0.33,0.23,0.66,0.43,0.94
					c0.19,0.27,0.39,0.61,0.69,0.8c0.54,0.34,0.6,0.24,1.14,0.58c0.26,0.16,0.56,0.27,0.83,0.43c0.27,0.16,0.57,0.25,0.84,0.4
					c0.27,0.15,0.49,0.39,0.76,0.53c0.27,0.14,0.51,0.37,0.78,0.51c0.28,0.14,0.66,0.06,0.94,0.19c0.28,0.13,0.52,0.34,0.81,0.46
					c0.28,0.13,0.51,0.37,0.8,0.49c0.29,0.12,0.6,0.18,0.88,0.29c0.29,0.11,0.57,0.26,0.86,0.36c0.29,0.11,0.58,0.21,0.88,0.31
					c0.29,0.1,0.62,0.08,0.92,0.17c0.3,0.09,0.6,0.16,0.89,0.24c0.3,0.08,0.54,0.39,0.83,0.47c0.3,0.08,0.63,0.02,0.93,0.09
					c0.3,0.07,0.64-0.04,0.94,0.02c0.3,0.06,0.59,0.17,0.9,0.23c0.39,0.07,0.37,0.25,0.76,0.29
					C100.3,27.85,100.31,27.74,100.7,27.81z"/>
			</g>
		</g>
		<g>
			<g>
				<path class="st9" d="M57.09,44.86c0,0.29,0.01,0.58-0.05,0.86c-0.06,0.28-0.2,0.54-0.32,0.8c-0.12,0.26-0.32,0.47-0.49,0.69
					c-0.18,0.22-0.32,0.48-0.54,0.66c-0.22,0.18-0.47,0.34-0.73,0.46c-0.25,0.12-0.54,0.18-0.82,0.24
					c-0.27,0.06-0.56,0.14-0.85,0.14c-0.29,0-0.57-0.1-0.84-0.16c-0.28-0.06-0.55-0.16-0.8-0.28c-0.26-0.12-0.47-0.3-0.69-0.48
					c-0.22-0.18-0.5-0.3-0.68-0.53c-0.18-0.22-0.23-0.52-0.36-0.78c-0.12-0.25-0.28-0.49-0.35-0.77c-0.06-0.27-0.09-0.56-0.09-0.85
					c0-0.29,0.1-0.56,0.17-0.83c0.06-0.28,0.1-0.56,0.22-0.82c0.12-0.26,0.32-0.46,0.5-0.68c0.18-0.22,0.37-0.42,0.59-0.59
					c0.22-0.18,0.42-0.39,0.68-0.51c0.25-0.12,0.52-0.25,0.8-0.32c0.27-0.06,0.57-0.06,0.86-0.06c0.29,0,0.59,0,0.86,0.06
					c0.28,0.06,0.52,0.24,0.78,0.37c0.26,0.12,0.48,0.29,0.7,0.46c0.22,0.18,0.49,0.31,0.67,0.53c0.18,0.22,0.24,0.52,0.37,0.77
					c0.12,0.25,0.24,0.5,0.3,0.79C57.02,44.29,57.09,44.57,57.09,44.86z"/>
			</g>
			<g>
				<path class="st9" d="M84.51,44.86c0,0.29-0.05,0.58-0.12,0.85c-0.06,0.28-0.17,0.55-0.3,0.81c-0.12,0.26-0.31,0.48-0.49,0.7
					c-0.18,0.22-0.36,0.44-0.58,0.62c-0.22,0.18-0.44,0.37-0.7,0.5c-0.25,0.12-0.54,0.18-0.82,0.25c-0.27,0.06-0.56,0.05-0.85,0.05
					c-0.29,0-0.58,0.05-0.86-0.01c-0.28-0.06-0.56-0.16-0.81-0.28c-0.26-0.12-0.48-0.32-0.7-0.49c-0.22-0.18-0.46-0.35-0.63-0.58
					c-0.18-0.22-0.28-0.5-0.4-0.76c-0.12-0.25-0.21-0.52-0.28-0.8c-0.06-0.27-0.06-0.55-0.06-0.84c0-0.29-0.07-0.59-0.01-0.86
					c0.06-0.28,0.27-0.51,0.39-0.77c0.12-0.26,0.21-0.53,0.39-0.75c0.18-0.22,0.38-0.43,0.6-0.6c0.22-0.18,0.5-0.27,0.75-0.39
					c0.25-0.12,0.5-0.27,0.78-0.34c0.27-0.06,0.56-0.04,0.85-0.04c0.29,0,0.56,0.03,0.83,0.09c0.28,0.06,0.57,0.09,0.82,0.21
					c0.26,0.12,0.52,0.25,0.75,0.43c0.22,0.18,0.41,0.41,0.58,0.63c0.18,0.22,0.37,0.45,0.49,0.71c0.12,0.25,0.13,0.55,0.2,0.83
					C84.39,44.29,84.51,44.57,84.51,44.86z"/>
			</g>
		</g>
		<g>
			<path class="st9" d="M74.86,54.4c-0.18-0.21-0.35-0.5-0.6-0.52c-0.26-0.02-0.45,0.26-0.66,0.44c-0.29,0.25-0.67,0.37-1,0.5
				c-0.34,0.13-0.71,0.27-1.08,0.27c-0.3,0-0.58-0.16-0.86-0.24c-0.28-0.09-0.62-0.08-0.87-0.25c-0.24-0.16-0.47-0.39-0.67-0.61
				c-0.19-0.21-0.26-0.54-0.4-0.8c-0.14-0.25-0.24-0.52-0.32-0.81c-0.08-0.28-0.25-0.61-0.27-0.91c0.28-0.12,0.69-0.15,0.92-0.34
				c0.23-0.19,0.39-0.49,0.56-0.74c0.16-0.25,0.18-0.57,0.26-0.86c0.08-0.28,0.31-0.56,0.31-0.87c0-0.34-0.21-0.64-0.31-0.94
				c-0.1-0.32-0.29-0.56-0.48-0.82c-0.19-0.27-0.37-0.51-0.64-0.7c-0.26-0.19-0.53-0.36-0.84-0.46c-0.3-0.1-0.61-0.24-0.95-0.24
				c-0.34,0-0.66,0.1-0.96,0.2c-0.32,0.1-0.55,0.33-0.81,0.52c-0.27,0.19-0.54,0.36-0.73,0.62c-0.19,0.26-0.44,0.52-0.54,0.83
				c-0.1,0.3,0.02,0.65,0.02,0.99c0,0.31,0.04,0.58,0.13,0.86c0.09,0.29,0.13,0.59,0.29,0.84c0.17,0.25,0.42,0.41,0.65,0.6
				c0.23,0.19,0.39,0.45,0.67,0.57c-0.02,0.3-0.08,0.56-0.16,0.83c-0.08,0.29-0.25,0.52-0.39,0.77c-0.14,0.26-0.12,0.64-0.31,0.85
				c-0.2,0.22-0.58,0.23-0.82,0.39c-0.25,0.16-0.43,0.42-0.71,0.51c-0.28,0.08-0.57,0.13-0.87,0.13c-0.37,0-0.69-0.21-1.03-0.35
				c-0.33-0.13-0.7-0.2-0.98-0.45c-0.21-0.18-0.48-0.38-0.74-0.36c-0.26,0.02-0.59,0.18-0.77,0.39c-0.18,0.21-0.14,0.55-0.12,0.81
				c0.02,0.26,0.18,0.42,0.39,0.6c0.23,0.2,0.43,0.42,0.68,0.58c0.26,0.16,0.56,0.21,0.84,0.32c0.28,0.11,0.52,0.37,0.81,0.43
				c0.3,0.06,0.61,0.13,0.91,0.13c0.32,0,0.61-0.23,0.91-0.29c0.31-0.06,0.67,0.06,0.96-0.05c0.29-0.11,0.56-0.31,0.82-0.47
				c0.26-0.16,0.45-0.43,0.69-0.64c0.23-0.21,0.56-0.34,0.75-0.58c0.19-0.24,0.26-0.48,0.42-0.76c0.15,0.27,0.41,0.37,0.6,0.61
				c0.19,0.24,0.28,0.59,0.5,0.8c0.23,0.21,0.56,0.29,0.82,0.46c0.26,0.16,0.49,0.41,0.78,0.53c0.29,0.11,0.62,0.07,0.93,0.13
				c0.3,0.06,0.6,0.09,0.91,0.09c0.3,0,0.61,0.05,0.9,0c0.3-0.06,0.61-0.07,0.9-0.18c0.28-0.11,0.47-0.41,0.73-0.57
				c0.26-0.15,0.61-0.18,0.84-0.38c0.21-0.18,0.25-0.49,0.26-0.74C75.17,54.8,75.05,54.6,74.86,54.4z"/>
		</g>
	</g>
	<g>
		<g>
			<g>
				<path class="st4" d="M28.8,43.66c-0.27,0-0.54-0.08-0.79-0.24c-0.35-0.22-0.6-0.55-0.69-0.93c-0.09-0.37-0.02-0.79,0.2-1.14
					c0.14-0.22,0.3-0.44,0.46-0.64c0.26-0.33,0.62-0.53,1-0.57c0.38-0.05,0.79,0.05,1.11,0.31c0.33,0.26,0.51,0.62,0.56,1.01
					c0.05,0.38-0.03,0.79-0.29,1.12c-0.09,0.12-0.18,0.25-0.26,0.38C29.82,43.41,29.31,43.66,28.8,43.66z"/>
			</g>
			<g>
				<path class="st4" d="M22.89,60.25c-0.4,0-0.83,0.02-1.1-0.24c-0.27-0.26-0.31-0.68-0.32-1.09c-0.01-0.39-0.04-0.77-0.04-1.16
					c0.01-0.39,0.01-0.78,0.03-1.17c0.02-0.39,0.12-0.77,0.16-1.16c0.04-0.39,0.06-0.77,0.12-1.16c0.06-0.36,0.07-0.73,0.14-1.09
					c0.07-0.36,0.1-0.73,0.19-1.09c0.09-0.36,0.18-0.72,0.28-1.07c0.1-0.35,0.25-0.69,0.37-1.04c0.12-0.35,0.17-0.72,0.31-1.06
					c0.13-0.34,0.32-0.66,0.47-1c0.15-0.34,0.33-0.66,0.49-0.99c0.18-0.37,0.48-0.67,0.84-0.79c0.36-0.12,0.8-0.11,1.17,0.07
					c0.37,0.18,0.62,0.53,0.75,0.89c0.12,0.36,0.19,0.82,0.01,1.19c-0.14,0.29-0.26,0.59-0.39,0.89c-0.13,0.3-0.26,0.59-0.38,0.89
					c-0.12,0.3-0.35,0.56-0.45,0.87c-0.1,0.31-0.29,0.59-0.38,0.9c-0.09,0.31-0.07,0.66-0.14,0.97c-0.08,0.31-0.11,0.64-0.17,0.96
					c-0.06,0.32-0.19,0.63-0.24,0.95c-0.05,0.34,0.05,0.7,0.02,1.04c-0.04,0.34-0.06,0.68-0.08,1.02c-0.02,0.34-0.19,0.68-0.2,1.02
					c-0.01,0.34,0.03,0.69,0.04,1.03c0.01,0.41-0.07,0.87-0.33,1.15c-0.26,0.28-0.71,0.4-1.13,0.42
					C22.92,60.4,22.91,60.25,22.89,60.25z"/>
			</g>
		</g>
		<g>
			<path class="st4" d="M13.1,139.9c-0.41,0-0.76-0.25-1.03-0.52s-0.53-0.61-0.53-1.03c0-0.35,0.08-0.7,0.15-1.03
				c0.06-0.34,0.15-0.68,0.27-1c0.13-0.32,0.3-0.62,0.48-0.91c0.18-0.29,0.44-0.53,0.67-0.78c0.24-0.25,0.43-0.55,0.71-0.75
				c0.28-0.2,0.61-0.31,0.93-0.45c0.31-0.14,0.63-0.26,0.97-0.33c0.33-0.07,0.67-0.11,1.02-0.11c0.41,0,0.75,0.18,1.03,0.46
				s0.44,0.61,0.44,1.03s-0.14,0.78-0.41,1.06s-0.64,0.46-1.06,0.46c-0.41,0-0.78,0.13-1.1,0.35c-0.32,0.22-0.59,0.51-0.77,0.87
				c-0.17,0.34-0.23,0.73-0.23,1.14c0,0.41-0.2,0.8-0.47,1.07S13.51,139.9,13.1,139.9z"/>
		</g>
		<g>
			<path class="st4" d="M16.21,87.96c-0.29,0-0.57-0.13-0.83-0.31c-0.34-0.23-0.57-0.55-0.64-0.93c-0.07-0.38,0.02-0.76,0.25-1.11
				c0.25-0.36,0.49-0.71,0.76-1.06c0.27-0.34,0.5-0.72,0.78-1.05c0.27-0.31,0.67-0.47,1.05-0.5c0.38-0.03,0.8,0.07,1.12,0.33
				c0.31,0.27,0.43,0.67,0.46,1.05c0.03,0.38-0.02,0.8-0.29,1.12c-0.25,0.29-0.52,0.56-0.75,0.87c-0.23,0.3-0.45,0.62-0.67,0.93
				C17.17,87.73,16.68,87.96,16.21,87.96z"/>
		</g>
		<g>
			<path class="st4" d="M33.2,13.05c-0.48,0-0.97-0.18-1.26-0.61c-0.23-0.34-0.3-0.76-0.22-1.14c0.07-0.38,0.32-0.7,0.66-0.93
				c0.36-0.25,0.73-0.5,1.12-0.71c0.36-0.2,0.76-0.21,1.13-0.1c0.37,0.11,0.67,0.35,0.87,0.72c0.2,0.36,0.26,0.76,0.15,1.13
				c-0.11,0.37-0.39,0.66-0.75,0.86c-0.3,0.16-0.57,0.36-0.85,0.55C33.78,12.99,33.49,13.05,33.2,13.05z"/>
		</g>
	</g>
</g>
</svg>
