<?xml version="1.0" encoding="utf-8"?>
<!-- Generator: Adobe Illustrator 26.1.0, SVG Export Plug-In . SVG Version: 6.00 Build 0)  -->
<svg version="1.1" id="圖層_1" xmlns="http://www.w3.org/2000/svg" xmlns:xlink="http://www.w3.org/1999/xlink" x="0px" y="0px"
	 viewBox="0 0 464.26 375" style="enable-background:new 0 0 464.26 375;" xml:space="preserve">
<style type="text/css">
	.st0{fill:#9FD5C9;}
	.st1{fill:#AFBF84;}
	.st2{opacity:0.23;fill:#5F6A3D;}
	.st3{fill:#CBE7E1;}
	.st4{fill:#A5B375;}
	.st5{opacity:0.09;fill:#3D4420;}
	.st6{fill:#FFFBEE;}
	.st7{fill:#E6E2D5;}
	.st8{fill:#EACDBB;}
	.st9{fill:#EDD9D1;}
	.st10{fill:#D6B8A8;}
	.st11{fill:#CFB2A5;}
	.st12{fill:#DBC5BE;}
	.st13{fill:#B0968C;}
	.st14{opacity:0.13;fill:#492A21;}
	.st15{fill:#F1B390;}
	.st16{fill:#E9987B;}
	.st17{fill:#DD8C74;}
	.st18{opacity:0.27;fill:#A8644F;}
	.st19{opacity:0.28;fill:#B17461;}
	.st20{fill:#FDECDC;}
	.st21{fill:#EBD6C4;}
	.st22{fill:#E7977A;}
	.st23{fill:#D8866C;}
	.st24{fill:#E9CA84;}
	.st25{fill:#DBA76C;}
	.st26{fill:#DBB76E;}
	.st27{fill:#CB8F54;}
	.st28{fill:#CB725A;}
	.st29{fill:#B85F4A;}
	.st30{fill:#F5DAAA;}
	.st31{fill:#F2A890;}
	.st32{opacity:0.19;fill:#CB8F54;}
	.st33{fill:#E5BF9C;}
	.st34{fill:#CC9F76;}
	.st35{fill:#DFA68F;}
	.st36{fill:#BC885D;}
	.st37{opacity:0.16;fill:#582A14;}
	.st38{fill:#E2B890;}
	.st39{fill:#F5DBC5;}
	.st40{fill:#DFAF87;}
	.st41{opacity:0.29;fill:#582A14;}
</style>
<g>
	<path class="st22" d="M232.13,2.23c-35.41,0-69.77,10.01-99.48,28.96c-1.04-0.38-2.21-0.57-3.48-0.57c-4.44,0-9.87,2.39-14.55,6.4
		c-5.29,4.53-8.54,10.16-8.68,14.83C68.37,86.83,46.86,136.18,46.86,187.5c0,102.16,83.11,185.27,185.27,185.27
		c50.76,0,99.81-21.16,134.68-58.06c10.16-4.66,20.1-14.46,27.34-27.01c5.86-10.15,9.34-21.1,9.83-30.9
		c8.9-22.05,13.41-45.36,13.41-69.31C417.4,85.34,334.29,2.23,232.13,2.23z"/>
	<path class="st23" d="M119.82,317.47c4.14,2.28,9.3,3.57,13.55,1.5c0.97-0.47,1.91-1.16,2.34-2.16c0.22-0.52,0.29-1.09,0.36-1.65
		c0.99-8.3,4.15-14.78,10.08-20.92c6.85-7.1,12.87,3.79,20.53-3.2c0.78-0.71,1.48-1.55,2.43-1.99c1.16-0.54,2.57-0.43,3.68-1.08
		c0.83-0.49,1.37-1.34,1.86-2.17c4.12-7.05,3-13.3,0.76-20.47c-2.35-7.52-2.44-14.78-0.24-22.5c0.89-3.12,2.12-6.39,1.27-9.52
		c-0.97-3.57-4.23-5.86-5.56-9.25c-0.98-2.49-0.94-5.36-1.75-7.94c-2.1-6.72-4.4-12.79-5.75-19.82c-0.32-1.68-0.65-3.38-1.37-4.93
		c-0.52-1.12-1.25-2.14-1.73-3.28c-1.35-3.21-0.56-7,1.21-10c2.33-3.94,6.09-6.02,7.61-10.16c1.5-4.11-0.12-7.93,3.49-11.46
		c5.25-5.13,7.54-0.89,11.57,3.56c5.46,6.03,19.08,10.57,27.04,8.58c0.96-0.24,1.94-0.59,2.63-1.31c2.04-2.12,1.1-6.3,2.32-8.88
		c2.19-4.65,6.67-10.82,10.71-13.85c5.45-4.09,13.06-3.86,18.62-7.76c2.47-1.73,4.33-4.19,6.44-6.35
		c6.61-6.77,14.89-9.61,24.1-10.45c11.63-1.06,21.36-1.69,21.92-15.12c0.24-5.78,1.24-11.45,1.71-17.2
		c0.41-5.06-1.77-11.62,0.08-16.32c0.68-1.72,2-3.09,3.2-4.49c4.6-5.4,6.07-14.08,11.53-18.68c3.14-2.64,7.05-4.8,10.57-7.11
		c3.74-2.45,7.02-5.08,8.45-8.6C304.33,13.36,269.51,2.23,232.13,2.23c-15.01,0-29.83,1.82-44.2,5.34
		c-18.44,5.02-36.1,12.79-52.4,23.18c-0.48-0.17-1-0.3-1.53-0.39c-0.45,0.28-0.91,0.55-1.36,0.84c-1.04-0.38-2.21-0.57-3.48-0.57
		c-0.36,0-0.74,0.04-1.12,0.07c-3.66,0.93-7.61,3.05-11.15,6.08c-5.47,4.69-8.83,10.51-8.97,15.33
		c-38.25,35.61-60.39,85.64-61.04,137.83c0.56,42.7,15.62,81.95,40.49,113.05c6.99,1.94,14.2,3.85,20.46,6.91
		C112.08,311.99,115.68,315.19,119.82,317.47z"/>
	<path class="st24" d="M117.44,308.58c4.01,2.21,9,3.45,13.11,1.45c0.94-0.46,1.85-1.12,2.26-2.09c0.22-0.5,0.28-1.06,0.35-1.6
		c0.96-8.03,4.02-14.3,9.75-20.24c6.63-6.86,12.45,3.67,19.86-3.1c0.75-0.69,1.43-1.5,2.35-1.93c1.12-0.52,2.49-0.41,3.56-1.04
		c0.8-0.47,1.33-1.3,1.8-2.1c3.98-6.82,2.91-12.86,0.74-19.81c-2.27-7.28-2.36-14.29-0.23-21.77c0.86-3.02,2.05-6.18,1.23-9.21
		c-0.94-3.46-4.09-5.67-5.38-8.95c-0.94-2.41-0.91-5.19-1.69-7.68c-2.03-6.5-4.26-12.37-5.56-19.18c-0.31-1.63-0.63-3.27-1.33-4.77
		c-0.51-1.08-1.21-2.07-1.67-3.17c-1.31-3.11-0.54-6.77,1.17-9.67c2.25-3.81,5.9-5.82,7.36-9.83c1.45-3.97-0.11-7.67,3.38-11.09
		c5.08-4.97,7.29-0.86,11.19,3.44c5.29,5.84,18.46,10.22,26.16,8.3c0.93-0.23,1.88-0.57,2.54-1.27c1.97-2.05,1.07-6.09,2.24-8.59
		c2.12-4.5,6.45-10.47,10.36-13.4c5.27-3.96,12.64-3.73,18.01-7.5c2.39-1.68,4.19-4.05,6.23-6.14c6.4-6.55,14.4-9.3,23.31-10.11
		c11.25-1.03,20.67-1.63,21.21-14.63c0.23-5.6,1.2-11.07,1.65-16.64c0.4-4.89-1.71-11.24,0.08-15.79c0.65-1.66,1.94-2.99,3.1-4.35
		c4.45-5.22,5.87-13.62,11.15-18.07c3.03-2.55,6.82-4.65,10.22-6.88c5.41-3.55,9.85-7.45,8.76-14.12
		c-27.26-15.79-58.88-24.84-92.59-24.84c-35.41,0-69.77,10.01-99.48,28.96c-1.04-0.38-2.21-0.57-3.48-0.57
		c-4.44,0-9.87,2.39-14.55,6.4c-5.29,4.53-8.54,10.16-8.68,14.83C68.37,86.83,46.86,136.18,46.86,187.5
		c0,39.07,12.17,75.34,32.89,105.25c8.58,2.64,18.14,4.61,26.1,8.51C109.96,303.27,113.44,306.37,117.44,308.58z"/>
	<path class="st24" d="M366.81,314.71c10.16-4.66,20.1-14.46,27.34-27.01c5.86-10.15,9.34-21.1,9.83-30.9
		c8.9-22.05,13.41-45.36,13.41-69.31c0-49.97-19.89-95.38-52.17-128.74c-0.46,1.24-0.69,2.6-0.9,3.91c-0.5,3.17-0.91,6.21-1.18,9.23
		c-0.59,6.68-0.48,13.19,0.98,20.42c0.79,3.92,1.86,8.17,0.13,11.78c-3.19,6.66-4.4,13.22-9.04,19.5c-2.62,3.54-5.68,6.79-7.8,10.65
		c-1.65,3.01-2.73,6.39-5,8.96c-2.91,3.31-7.52,4.99-9.75,8.79c-2.78,4.74-0.81,10.7-0.56,16.19c0.22,4.89-1.29,6.9,0.14,11.67
		c0.64,2.13-0.08,4.48-1.36,6.3c-1.96,2.78-7.86,8.98-10.76,10.44c-1.99,1.01-4.27,1.94-5.22,3.95c-0.95,2.02-0.23,4.49-1.08,6.56
		c-0.7,1.71-2.46,3.09-2.36,4.94c0.08,1.62,1.54,2.76,2.75,3.83c5.85,5.14,2.14,9.4-2.95,12.83c-4.82,3.25-9.63,8.69-15.21,10.57
		c-8.51,2.87-13.47,2.44-19.8,9.62c-1.58,1.79-3.15,3.71-3.72,6.03c-0.43,1.78-0.24,3.64-0.3,5.46
		c-0.39,10.47-7.93,19.1-11.27,28.88c-1.88,5.51-1.39,10.08-1.24,15.7c0.14,5.29-1.52,10.48-2.63,15.58
		c-0.94,4.31-5.26,11.7-3.74,15.88c0.27,0.76,0.74,1.45,0.85,2.25c0.17,1.34-0.72,2.56-1.6,3.59c-6.78,7.98-15.43,11.56-23.26,17.95
		c-4.18,3.41-7.81,7.49-10.74,12.02c4.47,0.32,8.97,0.5,13.52,0.5C282.88,372.77,331.94,351.62,366.81,314.71z"/>
	<circle class="st25" cx="170.8" cy="84.19" r="38.61"/>
	
		<ellipse transform="matrix(0.4198 -0.9076 0.9076 0.4198 77.5991 199.1294)" class="st26" cx="194.54" cy="38.87" rx="7.03" ry="10.45"/>
	<circle class="st26" cx="211.05" cy="53.07" r="3.7"/>
	
		<ellipse transform="matrix(0.3082 -0.9513 0.9513 0.3082 173.4955 272.5722)" class="st26" cx="274.16" cy="16.99" rx="3.7" ry="4.58"/>
	<path class="st26" d="M216.43,90c2.72,21.29-17.32,41.34-38.61,38.61c5.05-0.64,9.88-1.95,14.33-4.03
		C205.77,118.35,214.82,104.84,216.43,90L216.43,90z"/>
	<path class="st26" d="M188.03,113.23c-18.11,10.93-43.59-0.65-49.28-20.51C148.58,109.94,168.75,119.4,188.03,113.23L188.03,113.23
		z"/>
	
		<ellipse transform="matrix(0.2563 -0.9666 0.9666 0.2563 -70.5452 186.3348)" class="st25" cx="85.82" cy="139.01" rx="11.59" ry="9.68"/>
	<path class="st26" d="M98.14,144.42c1.09,6.11-6.81,12.74-12.32,8.73C91.65,152.19,94.72,148.71,98.14,144.42L98.14,144.42z"/>
	
		<ellipse transform="matrix(0.9806 -0.196 0.196 0.9806 -38.4401 20.3849)" class="st25" cx="83.76" cy="204.37" rx="21.74" ry="38.61"/>
	<path class="st26" d="M111.44,204.37c3.91,11.54,3.88,25.47-3.29,35.8c-2.41,3.44-6.35,6.09-10.46,6.32
		c3.81-1.52,6.61-4.29,8.5-7.63C111.94,228.41,111.86,216.05,111.44,204.37L111.44,204.37z"/>
	<path class="st26" d="M72.82,175.07c18.17-5.9,27.85,17.91,25.83,32.57c-0.78-3.91-1.7-7.69-2.89-11.37
		C92.4,185.57,85.59,174.15,72.82,175.07L72.82,175.07z"/>
	<ellipse transform="matrix(0.5 -0.866 0.866 0.5 -52.081 456.8196)" class="st25" cx="369.58" cy="273.51" rx="45.05" ry="25.36"/>
	<path class="st26" d="M339.41,315.67c-9.33-4.16-11.18-16.27-10.09-25.41c1.13-9.53,4.94-18.65,10.65-26.29
		c-1.77,4.4-3.44,8.74-4.8,13.17C331.75,289.2,328.48,306.5,339.41,315.67L339.41,315.67z"/>
	<path class="st26" d="M390.26,241.32c-14.03-2.59-25.29,10.95-32.41,21.27c-2.54,3.87-4.82,7.92-7.09,12.09
		c2.24-9.27,6.85-18.02,13.48-24.95C370.59,243.06,381.11,236.77,390.26,241.32L390.26,241.32z"/>
	
		<ellipse transform="matrix(0.9806 -0.196 0.196 0.9806 -48.7063 28.6665)" class="st25" cx="120.46" cy="260.38" rx="11.49" ry="16.56"/>
	<path class="st26" d="M135.97,260.38c3.87,6.48,0.79,18.78-8.02,18.49C134.42,274.94,135.07,267.23,135.97,260.38L135.97,260.38z"
		/>
	<ellipse class="st25" cx="383.03" cy="168.3" rx="13.46" ry="19.39"/>
	<path class="st26" d="M401.2,172.3c2.51,8.31-3.49,21.32-13.46,19.39C396.41,188.88,398.9,180.11,401.2,172.3L401.2,172.3z"/>
	
		<ellipse transform="matrix(0.6202 -0.7845 0.7845 0.6202 -133.8967 364.1696)" class="st25" cx="309.11" cy="320.35" rx="11.69" ry="9.76"/>
	<path class="st26" d="M320.05,309.69c7.44,4.27,6.69,15.23,1.72,21.19c-3.71,4.69-10.08,7.75-16.05,6.18
		c-1.92-0.53-3.7-1.53-4.96-2.96c3.35,1.84,7.09,1.88,10.36,0.82C320.97,331.79,327.57,318.27,320.05,309.69L320.05,309.69z"/>
	<path class="st27" d="M316.36,311.18c-0.68-0.53-1.42-0.93-2.2-1.23c2.46,3.63,2.06,9.11-1.3,13.37c-3.36,4.25-8.61,5.91-12.7,4.35
		c0.47,0.69,1.03,1.32,1.71,1.86c4.23,3.34,10.9,1.95,14.9-3.12C320.77,321.34,320.59,314.52,316.36,311.18z"/>
	
		<ellipse transform="matrix(0.7592 -0.6509 0.6509 0.7592 -0.2312 90.2378)" class="st25" cx="121.83" cy="45.43" rx="15.5" ry="8.06"/>
	<path class="st26" d="M136.8,38.87c2.7,2.29,1.82,6.63,0.51,9.49c-3.55,7.29-11.37,13.61-19.79,13.13c-1.68-0.18-3.45-1-4.26-2.44
		c1.32,0.95,2.83,1.16,4.29,0.96C124.87,59.35,140.24,46.97,136.8,38.87L136.8,38.87z"/>
	<path class="st27" d="M119.35,42.54c5.42-4.65,11.62-6.65,15.2-5.22c-0.17-0.75-0.48-1.42-0.96-1.98
		c-2.9-3.38-10.51-1.6-17.01,3.97c-6.5,5.57-9.42,12.83-6.52,16.21c0.48,0.56,1.1,0.96,1.81,1.25
		C111.01,53,113.92,47.19,119.35,42.54z"/>
	<path class="st27" d="M172.93,54.04c16.52,0,30.62,10.38,36.13,24.98c-2.53-18.87-18.69-33.43-38.26-33.43
		c-21.33,0-38.61,17.29-38.61,38.61c0,4.8,0.88,9.4,2.49,13.64c-0.23-1.7-0.36-3.42-0.36-5.18
		C134.32,71.33,151.61,54.04,172.93,54.04z"/>
	<path class="st27" d="M88.79,132.49c3.5,0.93,5.93,4.04,6.63,7.87c1.03-5.79-1.78-11.27-6.63-12.55
		c-5.17-1.37-10.68,2.54-12.32,8.73c-0.53,2-0.58,3.99-0.25,5.82c0.07-0.38,0.15-0.75,0.25-1.13
		C78.11,135.03,83.62,131.12,88.79,132.49z"/>
	<path class="st27" d="M93.39,235.63c-11.77,2.35-24.7-12.69-28.88-33.6c-1.75-8.77-1.68-17.17-0.15-24.15
		c-3.35,7.89-4.27,19-1.91,30.77c4.18,20.91,17.11,35.96,28.88,33.6c6.83-1.37,11.77-8.3,13.89-17.97
		C102.61,230.41,98.54,234.6,93.39,235.63z"/>
	<path class="st27" d="M131.73,258.12c-0.11-0.56-0.24-1.12-0.39-1.66c0.56,7.77-2.88,14.43-8.42,15.54
		c-5.83,1.17-11.91-4.26-14.12-12.33c0.07,0.97,0.19,1.96,0.39,2.95c1.79,8.97,8.29,15.23,14.52,13.98
		C129.93,275.37,133.52,267.09,131.73,258.12z"/>
	<path class="st27" d="M394.62,236.35c4.04,10.53,1.48,27.16-7.63,42.94c-12.44,21.55-32.36,33.34-44.49,26.34
		c-0.91-0.53-1.75-1.16-2.52-1.86c1.48,3.84,3.83,6.88,7.07,8.75c12.13,7,32.05-4.79,44.49-26.34
		C403.05,266.27,404.12,244.98,394.62,236.35z"/>
	<path class="st27" d="M396.49,168.3c0-10.71-6.02-19.39-13.46-19.39c-4.36,0-8.23,3-10.69,7.64c2.01-1.72,4.35-2.73,6.85-2.73
		c7.43,0,13.46,8.68,13.46,19.39c0,4.42-1.04,8.48-2.77,11.75C393.83,181.59,396.49,175.4,396.49,168.3z"/>
	<path class="st28" d="M206.45,323.39c0.27-0.38,0.71-0.79,1.36-1.24c2.18-1.51,5.54-2.39,8.19-2.08c3.23,0.38,6.13,2.12,8.9,3.82
		c0.32,0.19,0.65,0.41,0.8,0.75c0.21,0.49-0.05,1.05-0.33,1.51c-1.7,2.87-5.79,8.46-9.73,7.53c-2.53-0.6-3.46-3.7-5.45-5.37
		C208.23,326.69,205.01,325.42,206.45,323.39z"/>
	<path class="st29" d="M225.7,324.65c-0.14-0.34-0.48-0.56-0.8-0.75c-0.43-0.27-0.87-0.53-1.31-0.79
		c-1.98,3.28-6.45,9.24-10.78,8.22c-0.08-0.02-0.15-0.06-0.22-0.09c0.83,1.13,1.72,2.14,3.05,2.45c3.94,0.93,8.03-4.66,9.73-7.53
		C225.65,325.7,225.91,325.14,225.7,324.65z"/>
	<path class="st28" d="M291.76,172.2c0.16-0.22,0.33-0.44,0.51-0.66c3.36-4,7.89-7.6,11.41-11.74c1.1-1.29,2.23-2.61,3.72-3.43
		c1.48-0.82,3.42-1.05,4.84-0.13c4.23,2.74,2.81,15.27,1.57,19.22c-2.56,8.15-9.71,11.72-10.85,20.52
		c-1.07,8.28-1.86,19.36-9.16,24.92c-3.75,2.85-8.63,3.61-13.29,4.27c-6.01,0.85-12.72,0.99-18.57,2.57
		c-2.96,0.8-5.98,3.29-9.07,2.25c-3.6-1.22-6.26-3.73-6.22-7.78c0.05-5.16,0.75-9.95,0.59-15.16c-0.11-3.56-0.21-8.44,1.83-11.49
		c3.53-5.28,8.22-4.86,13.59-5.6c7.4-1.01,14.76-3.98,21.43-7.31C288.32,180.53,289.17,175.74,291.76,172.2z"/>
	<path class="st28" d="M331.36,137.3c-0.29,1.54-0.49,3.18-1.44,4.43c-1.3,1.7-3.61,2.19-5.71,2.57c-2.28,0.41-4.57,0.82-6.85,1.22
		c-1.71,0.31-3.51,0.61-5.15,0.04c-2.89-0.99-4.32-4.45-4.01-7.49c0.32-3.04,1.96-5.76,3.56-8.37c2.62-4.27,5.57-8.81,10.25-10.59
		c1.77-0.67,3.7-0.9,5.36-1.8C347.19,106.67,333,128.49,331.36,137.3z"/>
	<path class="st28" d="M205.67,355.35c1.49-0.11,3.03,0.02,4.42-0.53c3.85-1.54,5.49-9.96,3.45-13.33c-0.48-0.79-1.25-1.33-2-1.86
		c-5.86-4.14-11.33-8.84-16.3-14.01c-1.87-1.95-3.8-4.04-6.37-4.87c-2.54-0.81-5.3-0.25-7.91,0.32c-4.81,1.05-9.62,2.1-14.44,3.15
		c-1.41,0.31-2.86,0.63-4.04,1.45c-2.95,2.04-3.21,6.22-3.18,9.81c0.02,2.83,0.05,5.66,0.07,8.5c0.04,4.79,0.71,10.1,2.41,14.9
		c10.18,4.19,20.81,7.51,31.8,9.84C198.02,363.71,196.23,356.03,205.67,355.35z"/>
	<path class="st28" d="M143.83,342.03c-13.87-0.63-2.66-18.28,2.41-10.16c0.93,1.49,1.87,3.02,2.18,4.74
		c0.31,1.72-0.17,3.71-1.61,4.7C145.95,341.91,144.86,342.08,143.83,342.03z"/>
	<path class="st28" d="M281.48,165.93c-0.61,1.23-0.93,2.54-2.01,3.67c-1.67,1.75-4.68,2.04-6.93,2.08
		c-0.85,0.01-1.77-0.1-2.38-0.69c-0.4-0.38-0.6-0.92-0.79-1.43c-2.09-5.69-3.46-9.77,3.46-12.04c2.34-0.77,4.84-1.16,6.99-2.36
		c1.36-0.76,2.54-1.82,3.92-2.52s3.14-0.99,4.46-0.16c0.24,0.15,0.46,0.34,0.58,0.6c0.12,0.24,0.13,0.52,0.14,0.79
		c0.1,2.2,0.09,4.57-1.18,6.37c-1.05,1.48-2.77,2.3-4.27,3.32C282.45,164.26,281.9,165.08,281.48,165.93z"/>
	<path class="st25" d="M324.72,27.07c-1.33-0.77-2.68-1.51-4.04-2.25c-0.21,5.25-4.19,8.62-8.91,11.72
		c-3.4,2.23-7.19,4.32-10.22,6.88c-5.29,4.45-6.7,12.85-11.15,18.07c-1.16,1.36-2.44,2.68-3.1,4.35c-1.79,4.55,0.32,10.9-0.08,15.79
		c-0.45,5.57-1.42,11.04-1.65,16.64c-0.54,13-9.96,13.6-21.21,14.63c-8.91,0.81-16.92,3.56-23.31,10.11
		c-2.04,2.09-3.84,4.46-6.23,6.14c-5.37,3.77-12.74,3.55-18.01,7.5c-3.9,2.93-8.24,8.9-10.36,13.4c-1.18,2.5-0.27,6.54-2.24,8.59
		c-0.67,0.69-1.61,1.03-2.54,1.27c-7.7,1.93-20.87-2.46-26.16-8.3c-3.9-4.3-6.11-8.41-11.19-3.44c-3.49,3.41-1.93,7.12-3.38,11.09
		c-1.47,4.01-5.11,6.02-7.36,9.83c-1.71,2.9-2.48,6.57-1.17,9.67c0.46,1.1,1.16,2.09,1.67,3.17c0.7,1.5,1.02,3.14,1.33,4.77
		c1.3,6.8,3.53,12.67,5.56,19.18c0.78,2.49,0.75,5.27,1.69,7.68c1.28,3.28,4.44,5.49,5.38,8.95c0.82,3.03-0.37,6.19-1.23,9.21
		c-2.12,7.48-2.04,14.49,0.23,21.77c2.17,6.94,3.25,12.98-0.74,19.81c-0.47,0.81-1,1.63-1.8,2.1c-1.07,0.63-2.43,0.52-3.56,1.04
		c-0.92,0.43-1.6,1.24-2.35,1.93c-7.41,6.76-13.23-3.77-19.86,3.1c-5.73,5.94-8.8,12.21-9.75,20.24c-0.06,0.54-0.13,1.1-0.35,1.6
		c-0.41,0.96-1.32,1.63-2.26,2.09c-4.11,2-9.11,0.75-13.11-1.45c-4.01-2.21-7.49-5.3-11.59-7.31c-7.55-3.69-16.52-5.66-24.74-8.11
		c0.93,1.43,1.86,2.85,2.83,4.25c8.58,2.64,18.14,4.61,26.1,8.51c4.11,2.01,7.59,5.11,11.59,7.31c4.01,2.21,9,3.45,13.11,1.45
		c0.94-0.46,1.85-1.12,2.26-2.09c0.22-0.5,0.28-1.06,0.35-1.6c0.96-8.03,4.02-14.3,9.75-20.24c6.63-6.86,12.45,3.67,19.86-3.1
		c0.75-0.69,1.43-1.5,2.35-1.93c1.12-0.52,2.49-0.41,3.56-1.04c0.8-0.47,1.33-1.3,1.8-2.1c3.98-6.82,2.91-12.86,0.74-19.81
		c-2.28-7.28-2.36-14.29-0.23-21.77c0.86-3.02,2.05-6.18,1.23-9.21c-0.94-3.46-4.09-5.67-5.38-8.95c-0.94-2.41-0.91-5.19-1.69-7.68
		c-2.03-6.5-4.26-12.37-5.56-19.18c-0.31-1.63-0.63-3.27-1.33-4.77c-0.51-1.08-1.21-2.07-1.67-3.17c-1.31-3.11-0.54-6.77,1.17-9.67
		c2.25-3.81,5.9-5.82,7.36-9.83c1.45-3.97-0.11-7.67,3.38-11.09c5.08-4.97,7.29-0.86,11.19,3.44c5.29,5.84,18.46,10.22,26.16,8.3
		c0.93-0.23,1.88-0.57,2.54-1.27c1.97-2.05,1.07-6.09,2.24-8.59c2.12-4.5,6.45-10.47,10.36-13.4c5.27-3.96,12.64-3.73,18.01-7.5
		c2.39-1.68,4.19-4.05,6.23-6.14c6.4-6.55,14.4-9.3,23.31-10.11c11.25-1.03,20.67-1.63,21.21-14.63c0.23-5.6,1.2-11.07,1.65-16.64
		c0.4-4.89-1.71-11.24,0.08-15.79c0.65-1.66,1.94-2.99,3.1-4.35c4.45-5.22,5.87-13.62,11.15-18.07c3.03-2.55,6.82-4.65,10.22-6.88
		C321.37,37.64,325.8,33.74,324.72,27.07z"/>
	<path class="st30" d="M317.92,205.09c0.95-2.01,3.23-2.95,5.22-3.95c2.9-1.47,8.8-7.66,10.76-10.44c1.28-1.82,1.99-4.17,1.36-6.3
		c-1.43-4.77,0.08-6.79-0.14-11.67c-0.25-5.49-2.23-11.45,0.56-16.19c2.23-3.8,6.84-5.49,9.75-8.79c2.27-2.58,3.35-5.95,5-8.96
		c2.12-3.86,5.19-7.11,7.8-10.65c4.64-6.28,5.85-12.84,9.04-19.5c1.73-3.61,0.67-7.86-0.13-11.78c-1.46-7.23-1.58-13.74-0.98-20.42
		c0.27-3.01,0.68-6.06,1.18-9.23c0.21-1.32,0.44-2.67,0.9-3.91c7.13,7.37,13.66,15.34,19.51,23.81
		c-6.58-10.16-14.13-19.65-22.51-28.32c-0.46,1.24-0.69,2.6-0.9,3.91c-0.5,3.17-0.91,6.21-1.18,9.23
		c-0.59,6.68-0.48,13.19,0.98,20.42c0.79,3.92,1.86,8.17,0.13,11.78c-3.19,6.66-4.4,13.22-9.04,19.5c-2.62,3.54-5.68,6.79-7.8,10.65
		c-1.65,3.01-2.73,6.39-5,8.96c-2.91,3.31-7.52,4.99-9.75,8.79c-2.78,4.74-0.81,10.7-0.56,16.19c0.22,4.89-1.29,6.9,0.14,11.67
		c0.64,2.13-0.08,4.48-1.36,6.3c-1.96,2.78-7.86,8.98-10.76,10.44c-1.99,1.01-4.27,1.94-5.22,3.95c-0.95,2.02-0.23,4.49-1.08,6.56
		c-0.7,1.71-2.46,3.09-2.36,4.94c0.08,1.62,1.54,2.76,2.75,3.83c0.1,0.09,0.18,0.18,0.28,0.27c0.16-1.65,1.68-2.94,2.34-4.53
		C317.69,209.58,316.97,207.11,317.92,205.09z"/>
	<path class="st30" d="M232.36,364.77c7.82-6.39,16.48-9.98,23.26-17.95c0.88-1.03,1.77-2.25,1.6-3.59c-0.1-0.8-0.57-1.49-0.85-2.25
		c-1.52-4.18,2.81-11.57,3.74-15.88c1.11-5.1,2.77-10.3,2.63-15.58c-0.15-5.62-0.64-10.19,1.24-15.7
		c3.34-9.77,10.88-18.41,11.27-28.88c0.07-1.83-0.13-3.69,0.3-5.46c0.57-2.32,2.14-4.24,3.72-6.03c6.34-7.18,11.29-6.75,19.8-9.62
		c5.57-1.88,10.39-7.33,15.21-10.57c5.1-3.43,8.8-7.69,2.95-12.83c-0.04-0.03-0.07-0.06-0.11-0.1c0.57,3.22-2.3,6.02-5.85,8.41
		c-4.82,3.25-9.63,8.69-15.21,10.57c-8.51,2.87-13.47,2.44-19.8,9.62c-1.58,1.79-3.15,3.71-3.72,6.03c-0.43,1.78-0.24,3.64-0.3,5.46
		c-0.39,10.47-7.93,19.1-11.27,28.88c-1.88,5.51-1.39,10.08-1.24,15.7c0.14,5.29-1.52,10.48-2.63,15.58
		c-0.94,4.31-5.26,11.7-3.74,15.88c0.27,0.76,0.74,1.45,0.85,2.25c0.17,1.34-0.72,2.56-1.6,3.59c-6.78,7.98-15.43,11.56-23.26,17.95
		c-4.18,3.41-7.81,7.49-10.74,12.02c2.01,0.15,4.03,0.25,6.06,0.33C226.96,369.74,229.52,367.09,232.36,364.77z"/>
	<path class="st29" d="M312.28,156.27c0.7,4.8-0.18,11.15-1,13.75c-2.56,8.15-9.71,11.72-10.85,20.52
		c-1.07,8.28-1.86,19.36-9.16,24.92c-3.75,2.85-8.63,3.61-13.29,4.27c-6.01,0.85-12.72,0.99-18.57,2.57
		c-2.96,0.8-5.98,3.29-9.07,2.24c-1.4-0.47-2.65-1.15-3.66-2.03c0.1,3.85,2.69,6.28,6.2,7.46c3.09,1.05,6.11-1.45,9.07-2.25
		c5.85-1.57,12.56-1.71,18.57-2.57c4.66-0.66,9.55-1.42,13.29-4.27c7.31-5.56,8.09-16.64,9.16-24.92
		c1.14-8.8,8.29-12.36,10.85-20.52C315.05,171.52,316.46,159.05,312.28,156.27z"/>
	<path class="st29" d="M335.03,114.48c0.12,4.78-5.44,14.86-6.44,20.19c-0.29,1.54-0.49,3.18-1.44,4.43
		c-1.3,1.7-3.61,2.19-5.71,2.57c-2.28,0.41-4.57,0.82-6.85,1.22c-1.71,0.31-3.51,0.61-5.15,0.04c-0.12-0.04-0.22-0.11-0.33-0.16
		c0.68,1.28,1.72,2.32,3.1,2.8c1.64,0.56,3.44,0.26,5.15-0.04c2.28-0.41,4.57-0.82,6.85-1.22c2.11-0.38,4.41-0.87,5.71-2.57
		c0.95-1.25,1.16-2.89,1.44-4.43C332.7,130.08,342.47,114.13,335.03,114.48z"/>
	<path class="st29" d="M288.94,153.87c-0.01-0.27-0.03-0.55-0.14-0.79c-0.12-0.25-0.35-0.44-0.58-0.6c-0.48-0.3-1.02-0.46-1.58-0.49
		c0.02,1.84-0.16,3.71-1.21,5.19c-1.05,1.48-2.77,2.3-4.27,3.32c-1.03,0.7-1.59,1.52-2.01,2.37c-0.61,1.23-0.93,2.54-2.01,3.67
		c-1.67,1.75-4.68,2.04-6.93,2.08c-0.4,0.01-0.81-0.02-1.2-0.11c0.12,0.34,0.25,0.69,0.38,1.04c0.19,0.52,0.4,1.05,0.79,1.43
		c0.61,0.59,1.53,0.7,2.38,0.69c2.25-0.04,5.26-0.33,6.93-2.08c1.08-1.13,1.4-2.44,2.01-3.67c0.42-0.85,0.97-1.67,2.01-2.37
		c1.5-1.02,3.23-1.84,4.27-3.32C289.03,158.44,289.04,156.07,288.94,153.87z"/>
	<path class="st29" d="M213.54,341.49c-0.41-0.68-1.05-1.17-1.69-1.63c0.55,4.6-1.35,11.14-4.88,12.57
		c-1.59,0.65-3.37,0.5-5.08,0.62c-10.22,0.75-9.01,8.75-13.08,14.59c1.58,0.38,3.17,0.75,4.77,1.09c4.45-5.02,2.65-12.69,12.1-13.38
		c1.49-0.11,3.03,0.02,4.42-0.53C213.94,353.28,215.58,344.86,213.54,341.49z"/>
	<path class="st29" d="M148.42,336.62c-0.31-1.72-1.25-3.26-2.18-4.74c-0.11-0.18-0.23-0.34-0.35-0.49c0.38,0.77,0.68,1.56,0.83,2.4
		c0.31,1.72-0.17,3.71-1.61,4.7c-0.86,0.59-1.94,0.76-2.98,0.71c-2.26-0.1-3.85-0.66-4.91-1.49c0.37,2.24,2.25,4.12,6.61,4.32
		c1.04,0.05,2.12-0.13,2.98-0.71C148.25,340.32,148.72,338.34,148.42,336.62z"/>
	<path class="st31" d="M187.32,176.15c7.47,0.69,15.54,2.01,22.86,1.52c8.04-0.64,10.69-7.92,13.62-14.53
		c3.27-7.34,8.28-15.96,17.23-16.73c7.41-0.91,16-1.31,19.77-8.69c-0.65,4.05-4.23,7-7.71,8.81c-5.25,2.97-11.22,2.23-16.13,5.25
		c-6.08,4.31-8.16,12.06-11.6,18.56c-2.55,5.82-8.28,11.1-14.92,10.83C202.22,181,194.89,178.75,187.32,176.15L187.32,176.15z"/>
	<path class="st31" d="M183.24,228.54c8.6,7.2,0.43,18.75,2.74,27.87C177.34,249.23,185.56,237.67,183.24,228.54L183.24,228.54z"/>
	<path class="st31" d="M183.92,273.51c6.93,17.37-8.36,34.38-26.38,32.36c-5.22,0.2-7.26,5.63-9.29,9.8
		c0.2-5.41,2.59-12.48,8.88-13.3c2.79-0.42,4.99-0.33,7.57-1.04C177.06,298.35,184.92,286.18,183.92,273.51L183.92,273.51z"/>
	<path class="st31" d="M333.04,44.17c-1.6,4.09-4.31,7.73-7.61,10.75c-1.68,1.53-3.37,2.72-4.5,4.1
		c-5.17,6.23-9.01,13.75-10.21,21.79c-1.78,7.53-1.77,7.66-2.21-0.19c-0.93-9.1,3.06-18.05,9.29-24.51
		c1.77-1.79,3.78-2.86,5.45-3.97C326.7,49.89,329.88,47.19,333.04,44.17L333.04,44.17z"/>
	<path class="st31" d="M237.65,232.3c4.99,4.63,10.84,9.34,17.44,5.52c4.68-2.05,9.09-4.65,14.54-5.16c2.18-0.14,4.1-0.02,6.16,0
		c2.03,0.08,4.06,0.15,6.1,0.36c-2.87,0.66-6.09,1.14-9.01,1.55C257.73,236.11,249.77,251.61,237.65,232.3L237.65,232.3z"/>
	<path class="st31" d="M261.51,172.3c0.08,0.74,0.43,1.14,0.87,1.44c1.39,0.96,3.13,1.3,4.77,1.93c2.41,0.79,4.32,1.46,7.01,1.21
		c-2.8,3.73-8.55,2.21-11.67-0.42C261.43,175.57,260.26,173.45,261.51,172.3L261.51,172.3z"/>
	<path class="st31" d="M343.07,116.89c4.32,7.37-6.19,13.09-4.81,20.48c-1.57-1.29-1.93-3.69-1.62-5.62
		C337.41,126.03,342.8,122.7,343.07,116.89L343.07,116.89z"/>
	<path class="st31" d="M220.63,316.48c5.42,0.53,14.61-0.36,15.54,6.88c0.19,1.67-0.04,3.19-0.31,4.6
		c-0.15,0.83-0.48,1.99-1.22,2.63c-3.19,2.13-6.45,3.09-10.04,4.34c2.14-1.92,4.43-3.58,6.77-5.15c1.19-0.81,1.65-0.92,1.68-2.26
		c0.23-2.3,0.65-4.88-1.17-6.41C228.63,319.07,224.13,318.43,220.63,316.48L220.63,316.48z"/>
	<path class="st31" d="M221.03,348.17c0.18,4.91-3.52,11.05-8.98,10.55C215.51,355.34,217.29,351.28,221.03,348.17L221.03,348.17z"
		/>
	<circle class="st26" cx="97.15" cy="165.48" r="3.64"/>
	<circle class="st26" cx="66.54" cy="240.59" r="3.11"/>
	<circle class="st26" cx="383.03" cy="133.28" r="3.11"/>
	<circle class="st26" cx="396.49" cy="201.98" r="2.4"/>
	<circle class="st26" cx="337.46" cy="248.81" r="4.63"/>
	<circle class="st26" cx="187.32" cy="142.35" r="2.29"/>
	<circle class="st26" cx="118.14" cy="99.23" r="7.45"/>
	<ellipse transform="matrix(0.6202 -0.7845 0.7845 0.6202 26.1881 246.0901)" class="st26" cx="267.22" cy="96" rx="7.45" ry="6"/>
	<circle class="st26" cx="294.47" cy="342.04" r="3.11"/>
	<ellipse transform="matrix(0.866 -0.5 0.5 0.866 -119.1201 70.9402)" class="st26" cx="72.82" cy="257.75" rx="5.17" ry="6.99"/>
	
		<ellipse transform="matrix(0.9592 -0.2826 0.2826 0.9592 -24.5568 118.5609)" class="st26" cx="398.77" cy="144.42" rx="5.17" ry="6.99"/>
	
		<ellipse transform="matrix(0.9592 -0.2826 0.2826 0.9592 -87.8619 94.6293)" class="st26" cx="284.15" cy="351.93" rx="6.99" ry="5.17"/>
	<path class="st32" d="M232.13,372.77c50.76,0,99.81-21.16,134.68-58.06c10.16-4.66,20.1-14.46,27.34-27.01
		c5.86-10.15,9.34-21.1,9.83-30.9c8.9-22.05,13.41-45.36,13.41-69.31c0-33.22-8.8-64.43-24.17-91.42c2.73,12.54,4.2,25.55,4.2,38.91
		c0,100.68-81.62,182.3-182.3,182.3c-74.8,0-139.05-45.06-167.16-109.51C58.11,300.44,136.82,372.77,232.13,372.77z"/>
</g>
</svg>
