<?xml version="1.0" encoding="utf-8"?>
<!-- Generator: Adobe Illustrator 26.1.0, SVG Export Plug-In . SVG Version: 6.00 Build 0)  -->
<svg version="1.1" id="圖層_1" xmlns="http://www.w3.org/2000/svg" xmlns:xlink="http://www.w3.org/1999/xlink" x="0px" y="0px"
	 viewBox="0 0 148.24 148.24" style="enable-background:new 0 0 148.24 148.24;" xml:space="preserve">
<g>
	<defs>
		<rect id="SVGID_00000173130908420687771860000000116123333079330231_" width="148.24" height="148.24"/>
	</defs>
	<clipPath id="SVGID_00000060713743355404057900000016977318505239093932_">
		<use xlink:href="#SVGID_00000173130908420687771860000000116123333079330231_"  style="overflow:visible;"/>
	</clipPath>
	<path fill="currentColor" style="clip-path:url(#SVGID_00000060713743355404057900000016977318505239093932_);" d="M101.93,24.2
		c0.18,0.29,0.38,0.6,0.59,0.92c0.19,0.3,0.32,0.65,0.52,0.97c0.2,0.3,0.36,0.63,0.57,0.94c0.2,0.3,0.48,0.55,0.7,0.85
		c0.21,0.3,0.46,0.57,0.68,0.86c0.22,0.29,0.3,0.7,0.54,0.98c0.24,0.28,0.59,0.47,0.83,0.73c0.25,0.28,0.52,0.52,0.78,0.77
		c0.27,0.26,0.55,0.5,0.82,0.72c0.3,0.24,0.55,0.51,0.85,0.69c0.32,0.2,0.65,0.34,0.99,0.48c0.34,0.14,0.71,0.17,1.06,0.25
		c0.36,0.09,0.7,0.19,1.06,0.23c0.36,0.04,0.72,0.22,1.09,0.24c0.36,0.01,0.73,0.06,1.1,0.06c0.37,0,0.73-0.14,1.1-0.14
		c0.37,0,0.73,0.11,1.1,0.12c0.37,0.01,0.74-0.18,1.11-0.14c0.36,0.03,0.72,0.2,1.08,0.24c0.36,0.04,0.73,0.02,1.1,0.06
		c0.36,0.04,0.71,0.25,1.07,0.3c0.36,0.05,0.73,0.08,1.09,0.14c0.36,0.06,0.75-0.05,1.11,0.01c0.36,0.06,0.73,0.12,1.08,0.19
		c0.36,0.07,0.68,0.31,1.04,0.39c0.36,0.08,0.73,0.1,1.08,0.19c0.36,0.09,0.73,0.12,1.08,0.22c0.36,0.1,0.73,0.11,1.08,0.21
		c0.35,0.11,0.7,0.24,1.04,0.35c0.35,0.12,0.63,0.41,0.98,0.54c0.35,0.13,0.76,0.06,1.1,0.2c0.34,0.14,0.68,0.29,1.01,0.44
		c0.34,0.15,0.6,0.45,0.93,0.61c0.33,0.16,0.62,0.39,0.94,0.57c0.32,0.18,0.66,0.32,0.97,0.51c0.31,0.19,0.72,0.24,1.02,0.45
		c0.3,0.21,0.64,0.38,0.93,0.6c0.29,0.22,0.51,0.54,0.79,0.77c0.28,0.24,0.46,0.58,0.73,0.83c0.27,0.25,0.52,0.51,0.76,0.78
		c0.25,0.27,0.59,0.46,0.82,0.74c0.23,0.28,0.42,0.6,0.63,0.9c0.21,0.3,0.4,0.61,0.59,0.93c0.19,0.31,0.33,0.65,0.5,0.97
		c0.17,0.32,0.48,0.58,0.63,0.92c0.14,0.33,0.18,0.72,0.3,1.07c0.12,0.34,0.21,0.7,0.31,1.05c0.1,0.35,0.25,0.69,0.33,1.05
		c0.08,0.35,0.12,0.72,0.17,1.08c0.05,0.36,0.08,0.72,0.12,1.09c0.03,0.36,0.08,0.72,0.1,1.09c0.02,0.36,0.04,0.73,0.04,1.1
		c0,0.36,0.03,0.73,0.01,1.1c-0.02,0.36-0.13,0.72-0.17,1.09c-0.03,0.36-0.12,0.72-0.17,1.09c-0.05,0.36,0.01,0.74-0.06,1.09
		c-0.07,0.36-0.13,0.72-0.22,1.07c-0.09,0.35-0.38,0.65-0.49,0.99c-0.11,0.35-0.07,0.75-0.2,1.08c-0.13,0.34-0.38,0.63-0.53,0.96
		c-0.15,0.33-0.31,0.66-0.47,0.98c-0.17,0.32-0.4,0.6-0.58,0.92c-0.18,0.31-0.29,0.67-0.49,0.97c-0.19,0.31-0.45,0.57-0.66,0.87
		c-0.2,0.3-0.39,0.61-0.61,0.9c-0.21,0.29-0.46,0.56-0.68,0.85c-0.22,0.29-0.34,0.65-0.57,0.94c-0.23,0.28-0.52,0.51-0.75,0.79
		c-0.23,0.28-0.35,0.65-0.59,0.93c-0.24,0.28-0.53,0.5-0.77,0.78c-0.24,0.27-0.52,0.51-0.76,0.78c-0.24,0.27-0.47,0.55-0.71,0.82
		c-0.24,0.27-0.42,0.6-0.65,0.87c-0.23,0.27-0.41,0.6-0.65,0.87c-0.24,0.27-0.66,0.38-0.89,0.66c-0.24,0.27-0.35,0.65-0.58,0.93
		c-0.23,0.28-0.4,0.6-0.62,0.89c-0.22,0.29-0.54,0.5-0.74,0.8c-0.21,0.3-0.31,0.66-0.5,0.97c-0.18,0.31-0.42,0.59-0.58,0.92
		c-0.15,0.33-0.28,0.66-0.39,1.01c-0.11,0.34-0.26,0.68-0.32,1.04c-0.07,0.35-0.15,0.71-0.17,1.08c-0.02,0.4,0,0.8,0.04,1.16
		c0.05,0.39,0.27,0.74,0.38,1.09c0.11,0.37,0.1,0.79,0.26,1.13c0.16,0.35,0.57,0.56,0.76,0.9c0.19,0.33,0.38,0.65,0.59,0.98
		c0.2,0.32,0.18,0.78,0.38,1.11c0.19,0.32,0.4,0.64,0.58,0.98c0.17,0.34,0.43,0.63,0.59,0.96c0.17,0.34,0.34,0.67,0.49,1.01
		c0.16,0.34,0.18,0.74,0.33,1.08c0.15,0.34,0.49,0.6,0.64,0.95c0.15,0.35,0.15,0.75,0.29,1.09c0.14,0.35,0.44,0.63,0.57,0.98
		c0.13,0.35,0.11,0.76,0.23,1.11c0.12,0.36,0.31,0.69,0.42,1.05c0.1,0.36,0.04,0.76,0.13,1.13c0.09,0.36,0.19,0.72,0.27,1.08
		c0.08,0.37,0.36,0.69,0.42,1.06c0.06,0.37,0.08,0.75,0.13,1.12c0.05,0.37-0.1,0.76-0.06,1.13c0.03,0.37,0.21,0.73,0.23,1.11
		c0.02,0.37-0.02,0.75-0.02,1.12c0,0.37-0.01,0.74-0.03,1.12c-0.01,0.37-0.07,0.74-0.1,1.12c-0.03,0.37,0.06,0.75,0.02,1.13
		c-0.04,0.37-0.15,0.73-0.2,1.11c-0.05,0.37-0.25,0.72-0.32,1.08c-0.07,0.37-0.03,0.76-0.12,1.12c-0.08,0.37-0.15,0.74-0.24,1.1
		c-0.1,0.36-0.14,0.74-0.25,1.1c-0.11,0.36-0.3,0.69-0.43,1.04c-0.13,0.35-0.34,0.67-0.49,1.01c-0.15,0.35-0.22,0.72-0.38,1.06
		c-0.16,0.34-0.34,0.67-0.51,1c-0.18,0.33-0.47,0.59-0.66,0.91c-0.19,0.32-0.31,0.69-0.51,1c-0.21,0.31-0.48,0.58-0.7,0.88
		c-0.22,0.3-0.29,0.72-0.52,1.01c-0.24,0.29-0.55,0.52-0.8,0.8c-0.25,0.28-0.48,0.58-0.74,0.84c-0.26,0.27-0.65,0.4-0.92,0.65
		c-0.27,0.25-0.51,0.54-0.8,0.78c-0.29,0.24-0.61,0.43-0.91,0.66c-0.3,0.23-0.45,0.65-0.76,0.86c-0.31,0.21-0.67,0.35-0.98,0.55
		c-0.32,0.2-0.66,0.36-0.98,0.54c-0.32,0.18-0.69,0.28-1.03,0.45c-0.33,0.17-0.65,0.37-0.99,0.53c-0.34,0.15-0.71,0.23-1.06,0.37
		c-0.35,0.14-0.67,0.34-1.02,0.47c-0.35,0.12-0.67,0.37-1.02,0.48c-0.36,0.11-0.72,0.21-1.08,0.31c-0.36,0.1-0.76,0.03-1.13,0.11
		c-0.36,0.08-0.71,0.26-1.08,0.33c-0.37,0.07-0.74,0.13-1.11,0.18c-0.37,0.05-0.73,0.17-1.11,0.21c-0.37,0.04-0.75,0-1.13,0.03
		c-0.37,0.03-0.75,0.04-1.12,0.06c-0.37,0.01-0.75,0.04-1.12,0.04c-0.37,0-0.75,0.03-1.13,0.01c-0.37-0.01-0.74-0.01-1.12-0.03
		c-0.37-0.02-0.74-0.09-1.11-0.12c-0.37-0.04-0.73-0.2-1.1-0.25c-0.37-0.05-0.76,0.04-1.13-0.02c-0.37-0.06-0.72-0.22-1.09-0.28
		c-0.37-0.07-0.72-0.18-1.09-0.26c-0.36-0.08-0.72-0.19-1.08-0.28c-0.36-0.09-0.75-0.06-1.11-0.16c-0.36-0.1-0.73-0.15-1.09-0.26
		c-0.36-0.11-0.65-0.42-1-0.54c-0.35-0.12-0.73-0.16-1.08-0.29c-0.35-0.13-0.74-0.16-1.08-0.3c-0.35-0.14-0.64-0.41-0.98-0.56
		c-0.34-0.15-0.69-0.29-1.02-0.45c-0.34-0.17-0.63-0.41-0.95-0.59c-0.33-0.18-0.67-0.33-0.99-0.52c-0.32-0.19-0.65-0.36-0.96-0.56
		c-0.31-0.21-0.7-0.31-1-0.53c-0.31-0.23-0.61-0.45-0.91-0.66c-0.32-0.22-0.5-0.62-0.81-0.82c-0.32-0.21-0.65-0.4-0.97-0.59
		c-0.33-0.19-0.71-0.29-1.03-0.46c-0.34-0.18-0.74-0.2-1.07-0.35c-0.35-0.15-0.65-0.4-1-0.53c-0.36-0.13-0.7-0.32-1.06-0.41
		c-0.37-0.09-0.75-0.14-1.11-0.19c-0.37-0.06-0.75-0.1-1.12-0.11c-0.37-0.02-0.75,0.06-1.12,0.08c-0.37,0.02-0.73,0.1-1.11,0.16
		c-0.36,0.06-0.74,0.05-1.11,0.15c-0.35,0.09-0.69,0.28-1.05,0.4c-0.35,0.11-0.74,0.11-1.1,0.25c-0.34,0.14-0.61,0.44-0.96,0.6
		c-0.33,0.15-0.66,0.32-1,0.49c-0.32,0.17-0.73,0.2-1.07,0.38c-0.32,0.18-0.66,0.35-0.99,0.55c-0.32,0.19-0.64,0.4-0.96,0.59
		c-0.32,0.2-0.58,0.48-0.9,0.68c-0.32,0.2-0.72,0.27-1.03,0.47c-0.32,0.2-0.58,0.49-0.9,0.69c-0.32,0.2-0.61,0.44-0.93,0.64
		c-0.32,0.2-0.67,0.34-0.99,0.54c-0.32,0.2-0.65,0.38-0.96,0.58c-0.32,0.2-0.54,0.55-0.86,0.75c-0.32,0.2-0.64,0.39-0.96,0.58
		c-0.32,0.2-0.67,0.35-0.99,0.54c-0.32,0.19-0.7,0.29-1.02,0.48c-0.32,0.19-0.57,0.52-0.89,0.7c-0.33,0.18-0.7,0.28-1.03,0.45
		c-0.33,0.18-0.61,0.44-0.95,0.61c-0.33,0.17-0.73,0.22-1.06,0.38c-0.34,0.16-0.62,0.44-0.96,0.59c-0.34,0.15-0.72,0.22-1.06,0.37
		c-0.34,0.15-0.68,0.32-1.03,0.46c-0.35,0.13-0.67,0.33-1.03,0.46c-0.35,0.12-0.74,0.14-1.1,0.26c-0.36,0.11-0.72,0.19-1.08,0.29
		c-0.36,0.1-0.72,0.21-1.08,0.3c-0.36,0.09-0.73,0.15-1.09,0.24c-0.36,0.09-0.74,0.11-1.1,0.19c-0.37,0.08-0.69,0.35-1.06,0.42
		c-0.37,0.07-0.76,0.01-1.12,0.07c-0.37,0.06-0.72,0.27-1.08,0.32c-0.37,0.05-0.76-0.08-1.13-0.05c-0.37,0.04-0.74,0.09-1.11,0.12
		c-0.37,0.03-0.74,0.22-1.11,0.23c-0.37,0.01-0.75-0.03-1.12-0.03c-0.37,0-0.74-0.11-1.11-0.13c-0.37-0.01-0.74-0.05-1.11-0.08
		c-0.37-0.03-0.73-0.15-1.1-0.2c-0.37-0.05-0.77,0.1-1.13,0.04c-0.37-0.06-0.75-0.08-1.11-0.16c-0.36-0.08-0.72-0.22-1.08-0.32
		c-0.36-0.1-0.72-0.19-1.08-0.31c-0.35-0.12-0.65-0.38-1-0.52c-0.34-0.14-0.7-0.25-1.04-0.41c-0.34-0.15-0.71-0.24-1.04-0.41
		c-0.33-0.17-0.64-0.38-0.96-0.57c-0.32-0.19-0.65-0.37-0.96-0.58c-0.31-0.21-0.54-0.53-0.84-0.75c-0.29-0.22-0.62-0.4-0.91-0.65
		c-0.28-0.24-0.64-0.4-0.92-0.65c-0.27-0.25-0.35-0.69-0.61-0.96c-0.26-0.26-0.52-0.51-0.76-0.78c-0.24-0.28-0.64-0.42-0.87-0.71
		c-0.23-0.29-0.38-0.63-0.6-0.93c-0.21-0.3-0.5-0.55-0.7-0.86c-0.2-0.31-0.32-0.67-0.5-0.99c-0.18-0.32-0.35-0.65-0.51-0.98
		c-0.17-0.33-0.34-0.65-0.49-0.98c-0.15-0.33-0.3-0.67-0.44-1.01c-0.13-0.34-0.14-0.73-0.26-1.07c-0.12-0.35-0.22-0.69-0.33-1.05
		c-0.1-0.35-0.2-0.7-0.29-1.06c-0.09-0.36-0.32-0.68-0.39-1.04c-0.07-0.36,0.02-0.75-0.04-1.11c-0.06-0.36-0.16-0.71-0.2-1.08
		c-0.05-0.36-0.24-0.71-0.28-1.08c-0.03-0.37,0.02-0.74,0-1.11c-0.02-0.37-0.01-0.73-0.02-1.1c0-0.37-0.03-0.73-0.03-1.1
		c0.01-0.37,0.1-0.73,0.12-1.1c0.02-0.37,0.16-0.73,0.2-1.09c0.04-0.37-0.15-0.76-0.09-1.13c0.06-0.37,0.17-0.72,0.24-1.08
		c0.07-0.36,0.1-0.74,0.19-1.09c0.09-0.36,0.29-0.69,0.39-1.04c0.1-0.36,0.19-0.71,0.3-1.06c0.11-0.35,0.26-0.69,0.38-1.04
		c0.12-0.35,0.28-0.68,0.41-1.03c0.12-0.35,0.22-0.7,0.36-1.05c0.13-0.34,0.23-0.7,0.37-1.04c0.13-0.34,0.18-0.72,0.32-1.06
		c0.14-0.34,0.4-0.63,0.54-0.97s0.11-0.75,0.25-1.09c0.14-0.34,0.29-0.68,0.42-1.03c0.13-0.32,0.32-0.64,0.47-1.01
		c0.13-0.33,0.28-0.66,0.42-1.02c0.13-0.33,0.32-0.66,0.45-1.02c0.13-0.34,0.21-0.7,0.33-1.06c0.12-0.35,0.21-0.71,0.32-1.06
		c0.11-0.35,0.23-0.7,0.33-1.06c0.1-0.36,0.17-0.72,0.26-1.08c0.09-0.36,0.13-0.73,0.2-1.09c0.07-0.37,0.23-0.72,0.28-1.08
		c0.05-0.38-0.05-0.75-0.03-1.11c0.02-0.38,0.18-0.75,0.16-1.11c-0.02-0.38-0.15-0.74-0.22-1.09c-0.08-0.37-0.2-0.71-0.35-1.04
		c-0.13-0.29-0.2-0.6-0.39-0.86c-0.18-0.26-0.47-0.42-0.68-0.66c-0.21-0.23-0.28-0.6-0.5-0.82c-0.26-0.27-0.65-0.4-0.91-0.66
		c-0.26-0.26-0.4-0.65-0.66-0.91c-0.26-0.26-0.57-0.48-0.83-0.74c-0.26-0.26-0.56-0.49-0.82-0.75c-0.26-0.26-0.54-0.51-0.8-0.77
		c-0.26-0.26-0.47-0.57-0.74-0.84c-0.26-0.26-0.54-0.51-0.8-0.78c-0.26-0.27-0.6-0.46-0.86-0.73c-0.26-0.27-0.51-0.55-0.76-0.82
		c-0.25-0.27-0.49-0.56-0.74-0.84c-0.25-0.28-0.48-0.57-0.73-0.85c-0.24-0.28-0.36-0.67-0.59-0.96c-0.24-0.29-0.65-0.43-0.88-0.73
		c-0.23-0.29-0.28-0.72-0.5-1.02c-0.22-0.3-0.4-0.62-0.61-0.93c-0.21-0.31-0.6-0.49-0.8-0.81c-0.2-0.32-0.29-0.7-0.48-1.02
		c-0.19-0.32-0.27-0.7-0.44-1.03c-0.17-0.33-0.33-0.66-0.48-1c-0.15-0.34-0.36-0.65-0.5-0.99c-0.14-0.34-0.27-0.69-0.39-1.04
		c-0.12-0.35-0.31-0.68-0.41-1.04c-0.1-0.36-0.22-0.71-0.3-1.08c-0.08-0.36-0.15-0.73-0.2-1.1c-0.05-0.36-0.08-0.74-0.11-1.12
		c-0.03-0.37,0.16-0.75,0.15-1.12c-0.01-0.37-0.17-0.74-0.16-1.11c0.02-0.37,0.21-0.73,0.25-1.1c0.04-0.37,0.05-0.74,0.11-1.1
		c0.06-0.36,0.02-0.75,0.11-1.11c0.09-0.36,0.29-0.69,0.4-1.05c0.11-0.35,0.27-0.69,0.39-1.04c0.13-0.35,0.19-0.72,0.34-1.06
		c0.14-0.34,0.22-0.71,0.38-1.05c0.16-0.33,0.28-0.7,0.45-1.02c0.18-0.33,0.4-0.63,0.59-0.95c0.19-0.32,0.41-0.62,0.62-0.93
		c0.21-0.31,0.57-0.51,0.79-0.81c0.22-0.3,0.38-0.64,0.61-0.93c0.23-0.29,0.43-0.61,0.67-0.89c0.24-0.28,0.57-0.48,0.83-0.75
		c0.25-0.27,0.44-0.6,0.71-0.86c0.27-0.26,0.48-0.57,0.76-0.82c0.28-0.25,0.51-0.55,0.8-0.78c0.29-0.24,0.61-0.44,0.9-0.67
		c0.29-0.23,0.57-0.49,0.87-0.7c0.3-0.22,0.69-0.31,1-0.51c0.31-0.2,0.58-0.47,0.9-0.66c0.32-0.19,0.73-0.22,1.06-0.39
		c0.33-0.17,0.6-0.45,0.94-0.61c0.34-0.16,0.7-0.25,1.04-0.39c0.35-0.14,0.68-0.3,1.03-0.43c0.34-0.12,0.71-0.16,1.06-0.27
		c0.35-0.11,0.64-0.4,1-0.5c0.35-0.09,0.73-0.09,1.09-0.17c0.35-0.08,0.73-0.05,1.09-0.13c0.36-0.07,0.69-0.26,1.05-0.32
		c0.36-0.06,0.7-0.23,1.06-0.29c0.36-0.06,0.76,0.13,1.12,0.08c0.36-0.05,0.71-0.15,1.08-0.2c0.36-0.05,0.71-0.22,1.07-0.27
		c0.36-0.05,0.75,0.06,1.11,0.01c0.36-0.05,0.72-0.16,1.08-0.22c0.36-0.05,0.7-0.28,1.06-0.33c0.36-0.05,0.74-0.02,1.1-0.08
		c0.36-0.06,0.71-0.16,1.07-0.22c0.36-0.06,0.74-0.01,1.1-0.08c0.36-0.07,0.7-0.25,1.05-0.33c0.36-0.08,0.71-0.18,1.06-0.27
		c0.36-0.09,0.75-0.04,1.1-0.14c0.35-0.1,0.72-0.17,1.06-0.29c0.35-0.12,0.68-0.28,1.02-0.41c0.34-0.13,0.69-0.27,1.02-0.42
		c0.33-0.15,0.64-0.37,0.96-0.54c0.32-0.17,0.62-0.39,0.93-0.58c0.31-0.19,0.54-0.49,0.84-0.7c0.3-0.21,0.6-0.4,0.88-0.63
		c0.28-0.23,0.59-0.42,0.86-0.67c0.26-0.25,0.56-0.46,0.82-0.73c0.25-0.26,0.49-0.54,0.73-0.83c0.23-0.28,0.51-0.53,0.72-0.84
		c0.21-0.29,0.42-0.58,0.64-0.88c0.21-0.29,0.38-0.62,0.59-0.91c0.21-0.29,0.27-0.7,0.49-0.99c0.22-0.29,0.53-0.51,0.75-0.8
		c0.22-0.29,0.53-0.5,0.76-0.79c0.23-0.28,0.36-0.64,0.59-0.92c0.23-0.28,0.44-0.58,0.68-0.86c0.23-0.28,0.46-0.57,0.7-0.84
		c0.24-0.27,0.5-0.53,0.74-0.8c0.24-0.27,0.49-0.54,0.74-0.81c0.25-0.26,0.55-0.48,0.81-0.74c0.26-0.26,0.51-0.52,0.77-0.77
		c0.26-0.25,0.53-0.5,0.8-0.74c0.27-0.25,0.58-0.45,0.85-0.69c0.28-0.24,0.43-0.62,0.71-0.85c0.28-0.23,0.7-0.3,0.98-0.52
		c0.29-0.22,0.51-0.53,0.81-0.74c0.3-0.21,0.67-0.31,0.97-0.51c0.3-0.2,0.57-0.46,0.88-0.65c0.31-0.19,0.55-0.51,0.86-0.69
		c0.32-0.18,0.73-0.19,1.05-0.36c0.33-0.16,0.69-0.24,1.02-0.39c0.33-0.15,0.57-0.53,0.91-0.66c0.34-0.13,0.71-0.18,1.06-0.29
		c0.35-0.11,0.74-0.07,1.09-0.16c0.35-0.1,0.7-0.19,1.05-0.27c0.36-0.08,0.68-0.32,1.04-0.38c0.37-0.06,0.74-0.08,1.11-0.11
		c0.37-0.03,0.75,0.13,1.12,0.12c0.37-0.01,0.74-0.09,1.11-0.08c0.37,0.01,0.74,0,1.11,0.03c0.37,0.03,0.72,0.17,1.09,0.22
		c0.37,0.05,0.75-0.03,1.12,0.05c0.36,0.07,0.72,0.19,1.08,0.28c0.36,0.09,0.71,0.2,1.07,0.31c0.35,0.11,0.74,0.12,1.09,0.25
		c0.35,0.12,0.61,0.48,0.96,0.61c0.34,0.14,0.76,0.11,1.1,0.26c0.34,0.15,0.63,0.41,0.96,0.57c0.33,0.16,0.68,0.29,1.01,0.47
		c0.32,0.18,0.62,0.41,0.93,0.6c0.32,0.19,0.64,0.37,0.95,0.57c0.31,0.2,0.66,0.35,0.96,0.56c0.3,0.21,0.54,0.52,0.84,0.74
		c0.3,0.22,0.65,0.37,0.94,0.61c0.29,0.23,0.59,0.45,0.87,0.69c0.28,0.24,0.53,0.52,0.8,0.77c0.27,0.25,0.47,0.58,0.74,0.84
		c0.27,0.26,0.6,0.45,0.86,0.71c0.26,0.27,0.48,0.56,0.73,0.84c0.25,0.28,0.45,0.59,0.69,0.87c0.24,0.29,0.45,0.58,0.68,0.87
		c0.23,0.29,0.51,0.54,0.73,0.84c0.22,0.3,0.48,0.57,0.68,0.88c0.2,0.31,0.44,0.6,0.63,0.92c0.2,0.32,0.35,0.66,0.54,0.98
		C101.47,23.61,101.73,23.88,101.93,24.2z"/>
</g>
</svg>
