<?xml version="1.0" encoding="utf-8"?>
<!-- Generator: Adobe Illustrator 26.1.0, SVG Export Plug-In . SVG Version: 6.00 Build 0)  -->
<svg version="1.1" id="圖層_1" xmlns="http://www.w3.org/2000/svg" xmlns:xlink="http://www.w3.org/1999/xlink" x="0px" y="0px"
	 viewBox="0 0 148.24 148.24" style="enable-background:new 0 0 148.24 148.24;" xml:space="preserve">
<g>
	<defs>
		<rect id="SVGID_00000077294667490764797630000015316726113501894843_" width="148.24" height="148.24"/>
	</defs>
	<clipPath id="SVGID_00000006694763947119935210000002927006756657724313_">
		<use xlink:href="#SVGID_00000077294667490764797630000015316726113501894843_"  style="overflow:visible;"/>
	</clipPath>
	<path fill="currentColor" style="clip-path:url(#SVGID_00000006694763947119935210000002927006756657724313_);" d="M46.54,26.07
		c-0.02,0.03-0.19-0.01-0.21,0.02c-0.16,0.35-0.28,0.7-0.45,1.03c-0.18,0.34-0.4,0.64-0.59,0.95c-0.19,0.33-0.17,0.78-0.37,1.09
		c-0.21,0.32-0.49,0.58-0.71,0.88c-0.23,0.31-0.49,0.58-0.73,0.86c-0.25,0.29-0.56,0.5-0.82,0.76c-0.27,0.27-0.5,0.56-0.78,0.79
		c-0.29,0.25-0.62,0.41-0.92,0.63c-0.3,0.22-0.57,0.49-0.88,0.68c-0.32,0.19-0.58,0.49-0.92,0.66c-0.33,0.17-0.68,0.32-1.03,0.46
		c-0.34,0.14-0.75,0.12-1.11,0.24c-0.35,0.12-0.67,0.33-1.04,0.43c-0.35,0.1-0.72,0.19-1.08,0.27c-0.36,0.08-0.71,0.23-1.08,0.3
		c-0.36,0.07-0.74,0.06-1.11,0.12c-0.36,0.06-0.73,0.11-1.1,0.17c-0.36,0.05-0.73,0.13-1.11,0.17c-0.36,0.05-0.73,0.12-1.11,0.17
		c-0.37,0.04-0.73,0.11-1.11,0.15c-0.37,0.04-0.74,0.05-1.12,0.09c-0.37,0.04-0.75-0.04-1.12,0.02c-0.36,0.06-0.7,0.26-1.06,0.34
		c-0.36,0.08-0.74,0.06-1.1,0.16c-0.36,0.09-0.72,0.15-1.08,0.26c-0.35,0.11-0.72,0.19-1.07,0.32c-0.35,0.12-0.65,0.37-0.99,0.51
		c-0.34,0.14-0.66,0.33-1,0.48c-0.34,0.15-0.76,0.12-1.09,0.29c-0.33,0.17-0.62,0.42-0.94,0.6c-0.32,0.18-0.59,0.46-0.9,0.65
		c-0.32,0.19-0.7,0.28-1.01,0.48c-0.31,0.2-0.6,0.43-0.9,0.65c-0.3,0.21-0.65,0.37-0.95,0.59c-0.29,0.22-0.56,0.49-0.85,0.72
		c-0.29,0.24-0.54,0.51-0.82,0.75c-0.28,0.25-0.45,0.6-0.72,0.85c-0.27,0.26-0.53,0.51-0.79,0.78c-0.26,0.27-0.68,0.38-0.93,0.65
		c-0.25,0.28-0.49,0.56-0.72,0.85c-0.24,0.29-0.39,0.64-0.62,0.93c-0.22,0.3-0.32,0.68-0.53,0.98c-0.21,0.3-0.52,0.54-0.72,0.85
		c-0.2,0.31-0.47,0.59-0.65,0.91c-0.18,0.32-0.33,0.67-0.5,1c-0.17,0.33-0.33,0.66-0.49,1c-0.15,0.34-0.23,0.71-0.36,1.05
		c-0.14,0.34-0.22,0.7-0.34,1.05c-0.12,0.35-0.31,0.68-0.41,1.04c-0.1,0.36-0.1,0.74-0.18,1.1c-0.08,0.36-0.29,0.7-0.35,1.06
		c-0.06,0.36,0.06,0.75,0.03,1.12c-0.04,0.37-0.06,0.73-0.08,1.1c-0.02,0.37-0.19,0.74-0.19,1.11c0.01,0.37,0.01,0.74,0.04,1.11
		c0.03,0.37,0.09,0.74,0.14,1.11c0.05,0.36,0.23,0.7,0.31,1.06c0.08,0.35,0.02,0.75,0.13,1.1c0.1,0.35,0.31,0.66,0.44,1.01
		c0.12,0.34,0.29,0.66,0.44,1c0.14,0.33,0.22,0.7,0.37,1.03c0.16,0.33,0.29,0.67,0.46,1c0.17,0.32,0.5,0.55,0.69,0.87
		c0.18,0.31,0.36,0.63,0.55,0.94c0.19,0.31,0.34,0.64,0.55,0.95c0.2,0.3,0.32,0.67,0.54,0.96c0.21,0.3,0.57,0.49,0.79,0.78
		c0.22,0.29,0.37,0.64,0.6,0.93c0.23,0.29,0.55,0.5,0.78,0.78c0.24,0.28,0.38,0.64,0.62,0.91c0.25,0.27,0.59,0.45,0.84,0.71
		c0.26,0.27,0.45,0.59,0.7,0.84c0.27,0.26,0.56,0.48,0.82,0.72c0.26,0.24,0.58,0.4,0.87,0.61c0.28,0.21,0.52,0.49,0.82,0.68
		c0.3,0.19,0.59,0.39,0.9,0.57c0.31,0.17,0.62,0.33,0.94,0.51c0.31,0.17,0.61,0.37,0.91,0.55c0.31,0.18,0.58,0.4,0.88,0.59
		c0.3,0.19,0.72,0.21,1,0.42c0.29,0.21,0.49,0.53,0.75,0.76c0.27,0.24,0.63,0.38,0.86,0.65c0.23,0.27,0.29,0.67,0.47,0.97
		c0.18,0.3,0.34,0.6,0.46,0.94c0.13,0.36,0.38,0.7,0.43,1.07c0.05,0.37,0.02,0.77,0.01,1.15c-0.01,0.37-0.16,0.74-0.22,1.12
		c-0.06,0.37-0.15,0.74-0.24,1.11c-0.09,0.37-0.28,0.7-0.39,1.06c-0.11,0.36-0.04,0.79-0.16,1.14c-0.13,0.36-0.21,0.74-0.34,1.09
		c-0.14,0.36-0.31,0.7-0.44,1.05c-0.13,0.37-0.24,0.73-0.35,1.07c-0.11,0.35-0.37,0.66-0.47,1.02c-0.1,0.36-0.17,0.72-0.26,1.08
		c-0.09,0.36-0.09,0.74-0.18,1.1c-0.09,0.36-0.19,0.72-0.27,1.08c-0.08,0.36-0.12,0.73-0.18,1.1c-0.07,0.37-0.25,0.71-0.31,1.08
		c-0.06,0.37-0.04,0.74-0.09,1.11c-0.05,0.37,0.04,0.75,0,1.12c-0.03,0.37-0.33,0.72-0.35,1.09c-0.02,0.37-0.01,0.75-0.03,1.12
		c-0.01,0.37,0.19,0.75,0.19,1.12c0,0.37-0.08,0.74-0.07,1.11c0.01,0.37,0.12,0.74,0.14,1.11c0.02,0.37-0.04,0.75,0,1.11
		c0.03,0.37,0.06,0.74,0.11,1.11c0.05,0.37,0.12,0.73,0.18,1.1c0.06,0.37,0.13,0.73,0.2,1.09c0.07,0.37,0.02,0.76,0.11,1.12
		c0.08,0.36,0.17,0.73,0.26,1.08c0.1,0.36,0.21,0.72,0.32,1.07c0.11,0.36,0.38,0.66,0.5,1.01c0.13,0.35,0.1,0.76,0.24,1.1
		c0.14,0.35,0.33,0.67,0.48,1.01c0.15,0.34,0.46,0.6,0.63,0.93c0.17,0.33,0.27,0.69,0.45,1.01c0.18,0.32,0.36,0.65,0.55,0.96
		c0.2,0.32,0.43,0.61,0.64,0.91c0.21,0.31,0.37,0.65,0.59,0.94c0.22,0.3,0.37,0.66,0.61,0.94c0.24,0.28,0.67,0.4,0.92,0.67
		c0.25,0.27,0.47,0.57,0.74,0.83c0.26,0.26,0.57,0.47,0.85,0.72c0.28,0.25,0.48,0.58,0.77,0.81c0.29,0.23,0.59,0.45,0.89,0.67
		c0.3,0.22,0.58,0.46,0.89,0.66c0.31,0.2,0.6,0.44,0.93,0.62c0.32,0.18,0.66,0.34,0.99,0.51c0.33,0.17,0.68,0.3,1.02,0.45
		c0.33,0.15,0.71,0.2,1.06,0.34c0.34,0.14,0.64,0.4,0.99,0.52c0.35,0.12,0.76,0.05,1.11,0.16c0.35,0.1,0.7,0.21,1.06,0.3
		c0.36,0.09,0.7,0.23,1.07,0.31c0.36,0.07,0.72,0.16,1.09,0.22c0.36,0.06,0.72,0.17,1.09,0.22c0.36,0.05,0.74,0.04,1.11,0.07
		c0.37,0.03,0.74,0.02,1.11,0.04c0.37,0.02,0.73,0.05,1.11,0.05c0.37,0.01,0.74-0.02,1.11-0.02c0.37-0.01,0.73-0.05,1.11-0.07
		c0.37-0.02,0.74,0.06,1.12,0.03c0.37-0.03,0.72-0.2,1.1-0.24c0.37-0.04,0.75,0.08,1.13,0.03c0.37-0.05,0.72-0.18,1.09-0.25
		c0.36-0.06,0.73-0.14,1.09-0.21c0.36-0.07,0.75-0.05,1.11-0.14c0.36-0.08,0.69-0.29,1.06-0.38c0.36-0.09,0.77,0,1.13-0.1
		c0.36-0.1,0.66-0.4,1.01-0.51c0.35-0.11,0.76-0.06,1.12-0.18c0.35-0.12,0.68-0.31,1.03-0.45c0.35-0.13,0.68-0.32,1.02-0.46
		c0.34-0.14,0.68-0.31,1.02-0.46c0.34-0.15,0.71-0.25,1.04-0.41c0.34-0.17,0.66-0.36,0.98-0.53c0.33-0.18,0.6-0.46,0.92-0.64
		c0.32-0.19,0.64-0.37,0.95-0.57c0.32-0.2,0.64-0.39,0.94-0.6c0.31-0.21,0.61-0.42,0.91-0.64c0.3-0.23,0.69-0.33,0.98-0.57
		c0.29-0.24,0.42-0.66,0.7-0.9c0.29-0.24,0.71-0.31,0.99-0.55c0.29-0.24,0.6-0.45,0.88-0.68c0.29-0.24,0.43-0.65,0.72-0.88
		c0.29-0.23,0.66-0.37,0.95-0.59c0.3-0.23,0.66-0.36,0.96-0.57c0.31-0.22,0.61-0.42,0.92-0.62c0.32-0.2,0.59-0.45,0.91-0.63
		c0.33-0.19,0.65-0.36,0.98-0.52c0.34-0.16,0.65-0.39,0.99-0.51c0.35-0.13,0.71-0.27,1.06-0.36c0.36-0.08,0.74-0.15,1.11-0.19
		c0.37-0.03,0.75-0.02,1.12,0c0.36,0.02,0.7,0.28,1.07,0.36c0.35,0.07,0.75,0,1.11,0.13c0.34,0.12,0.61,0.42,0.95,0.59
		c0.32,0.16,0.66,0.29,0.98,0.5c0.3,0.19,0.67,0.3,0.98,0.54c0.28,0.22,0.49,0.54,0.78,0.79c0.27,0.24,0.5,0.52,0.78,0.79
		c0.26,0.25,0.56,0.47,0.82,0.75c0.25,0.27,0.56,0.48,0.81,0.74c0.25,0.27,0.55,0.49,0.8,0.74c0.26,0.26,0.48,0.55,0.73,0.81
		c0.26,0.26,0.5,0.53,0.76,0.78c0.27,0.26,0.4,0.64,0.67,0.89c0.27,0.25,0.6,0.43,0.87,0.67c0.28,0.24,0.58,0.44,0.86,0.67
		c0.28,0.23,0.49,0.55,0.78,0.77c0.29,0.22,0.64,0.36,0.93,0.57c0.3,0.21,0.64,0.36,0.94,0.55c0.3,0.2,0.64,0.33,0.95,0.52
		c0.31,0.19,0.6,0.41,0.92,0.58c0.32,0.17,0.66,0.29,0.99,0.45c0.32,0.16,0.59,0.44,0.93,0.58c0.33,0.14,0.7,0.19,1.04,0.32
		c0.34,0.13,0.62,0.42,0.97,0.53c0.34,0.11,0.73,0.09,1.08,0.19c0.34,0.1,0.68,0.26,1.04,0.34c0.35,0.08,0.71,0.13,1.07,0.2
		c0.35,0.07,0.7,0.21,1.06,0.26c0.35,0.06,0.74-0.1,1.11-0.05c0.35,0.04,0.7,0.18,1.07,0.21c0.36,0.03,0.71,0.17,1.08,0.2
		c0.36,0.02,0.73-0.08,1.1-0.06c0.37,0.01,0.73-0.08,1.1-0.08c0.37,0.01,0.73,0.26,1.1,0.26c0.37,0,0.74-0.06,1.1-0.07
		c0.37-0.01,0.73-0.15,1.09-0.17c0.37-0.02,0.75,0.11,1.11,0.08c0.37-0.03,0.73-0.14,1.09-0.18c0.37-0.04,0.7-0.27,1.06-0.33
		c0.36-0.05,0.74-0.02,1.09-0.09c0.36-0.06,0.71-0.18,1.07-0.25c0.36-0.08,0.74-0.03,1.1-0.12c0.36-0.09,0.68-0.29,1.03-0.39
		c0.35-0.1,0.7-0.22,1.04-0.33c0.35-0.11,0.75-0.07,1.09-0.2c0.35-0.12,0.71-0.21,1.05-0.34c0.34-0.14,0.67-0.31,1-0.46
		c0.34-0.15,0.68-0.29,1-0.46c0.33-0.16,0.63-0.38,0.95-0.56c0.32-0.18,0.62-0.4,0.93-0.59c0.31-0.19,0.55-0.49,0.86-0.69
		c0.31-0.2,0.62-0.38,0.91-0.6c0.3-0.22,0.62-0.39,0.9-0.62c0.28-0.23,0.6-0.42,0.88-0.66c0.27-0.24,0.55-0.49,0.81-0.74
		c0.26-0.26,0.57-0.47,0.82-0.74c0.25-0.27,0.5-0.54,0.73-0.82c0.23-0.28,0.41-0.61,0.63-0.9c0.22-0.29,0.26-0.71,0.46-1.01
		c0.2-0.3,0.49-0.55,0.68-0.87c0.18-0.31,0.46-0.58,0.63-0.91c0.17-0.32,0.22-0.71,0.37-1.04c0.15-0.33,0.27-0.68,0.4-1.02
		c0.13-0.34,0.24-0.68,0.35-1.03c0.12-0.34,0.24-0.68,0.34-1.04c0.1-0.35,0.18-0.7,0.26-1.06c0.08-0.35,0.22-0.7,0.29-1.06
		c0.06-0.36,0.11-0.72,0.16-1.08c0.05-0.36,0.1-0.72,0.13-1.09c0.03-0.36,0.11-0.72,0.13-1.09c0.02-0.36-0.17-0.73-0.16-1.1
		c0-0.36,0.21-0.73,0.2-1.1c-0.01-0.36-0.14-0.72-0.16-1.09c-0.02-0.36,0.08-0.74,0.05-1.11c-0.03-0.36-0.16-0.72-0.2-1.08
		c-0.05-0.37-0.26-0.71-0.32-1.07c-0.06-0.37,0.05-0.76-0.03-1.12c-0.08-0.37-0.07-0.75-0.16-1.1c-0.09-0.36-0.44-0.65-0.55-1
		c-0.11-0.36-0.13-0.73-0.25-1.08c-0.12-0.35-0.09-0.76-0.22-1.1c-0.13-0.35-0.28-0.69-0.42-1.03c-0.14-0.34-0.46-0.61-0.61-0.94
		c-0.15-0.34-0.29-0.68-0.44-1.01c-0.16-0.34-0.15-0.75-0.31-1.08c-0.16-0.33-0.41-0.63-0.57-0.95c-0.17-0.33-0.37-0.64-0.54-0.97
		c-0.17-0.33-0.25-0.7-0.42-1.03c-0.17-0.33-0.47-0.59-0.63-0.92c-0.17-0.33-0.3-0.68-0.46-1.01c-0.16-0.33-0.31-0.67-0.46-1.01
		c-0.15-0.34-0.4-0.64-0.53-0.98c-0.14-0.34-0.04-0.77-0.16-1.12c-0.12-0.35-0.42-0.64-0.52-0.99c-0.1-0.35-0.08-0.74-0.16-1.1
		c-0.07-0.36-0.18-0.71-0.23-1.08c-0.05-0.36-0.01-0.73-0.03-1.1c-0.01-0.36-0.03-0.73-0.01-1.1c0.02-0.36-0.02-0.73,0.03-1.11
		c0.05-0.36,0.23-0.7,0.31-1.06c0.08-0.35,0.08-0.73,0.19-1.09c0.1-0.34,0.2-0.7,0.34-1.05c0.13-0.33,0.31-0.66,0.47-1
		c0.15-0.33,0.4-0.61,0.57-0.95c0.16-0.32,0.24-0.69,0.43-1.02c0.18-0.31,0.4-0.61,0.6-0.93c0.19-0.31,0.43-0.58,0.65-0.9
		c0.21-0.31,0.43-0.6,0.64-0.9c0.21-0.3,0.36-0.66,0.57-0.96c0.22-0.3,0.38-0.64,0.6-0.94c0.22-0.3,0.4-0.62,0.62-0.92
		c0.22-0.3,0.48-0.57,0.7-0.87c0.22-0.3,0.48-0.57,0.69-0.87c0.22-0.3,0.49-0.56,0.71-0.86c0.22-0.3,0.33-0.68,0.54-0.98
		c0.21-0.3,0.36-0.65,0.57-0.95c0.21-0.31,0.41-0.62,0.61-0.92c0.2-0.31,0.38-0.63,0.57-0.95c0.2-0.31,0.6-0.5,0.78-0.82
		c0.19-0.32,0.25-0.71,0.42-1.03c0.18-0.33,0.48-0.59,0.64-0.92c0.16-0.33,0.15-0.75,0.29-1.09c0.15-0.34,0.4-0.63,0.53-0.98
		c0.13-0.34,0.19-0.72,0.3-1.07c0.11-0.35,0.34-0.67,0.44-1.03c0.09-0.36,0.18-0.72,0.25-1.08c0.07-0.36,0.09-0.73,0.14-1.1
		c0.05-0.36-0.03-0.74-0.01-1.11c0.02-0.36,0.13-0.73,0.13-1.1c0-0.36-0.07-0.73-0.09-1.1c-0.02-0.36,0.04-0.74-0.01-1.11
		c-0.05-0.36-0.13-0.72-0.2-1.09c-0.07-0.36-0.31-0.68-0.4-1.04c-0.08-0.35,0.04-0.77-0.07-1.13c-0.1-0.35-0.4-0.64-0.52-1
		c-0.12-0.35-0.2-0.7-0.34-1.04c-0.14-0.34-0.36-0.64-0.51-0.97c-0.15-0.33-0.23-0.7-0.39-1.02c-0.17-0.33-0.38-0.62-0.57-0.93
		c-0.18-0.32-0.36-0.63-0.56-0.94c-0.2-0.31-0.26-0.71-0.47-1c-0.21-0.3-0.49-0.55-0.72-0.83c-0.23-0.29-0.5-0.53-0.74-0.8
		c-0.24-0.27-0.43-0.6-0.68-0.86c-0.26-0.26-0.54-0.49-0.81-0.74c-0.27-0.25-0.62-0.4-0.9-0.63c-0.28-0.23-0.42-0.64-0.71-0.86
		c-0.29-0.22-0.68-0.3-0.98-0.51c-0.3-0.21-0.59-0.42-0.9-0.61c-0.31-0.19-0.69-0.26-1.01-0.44c-0.32-0.18-0.51-0.59-0.84-0.75
		c-0.33-0.16-0.77-0.07-1.1-0.22c-0.33-0.15-0.66-0.3-1-0.44c-0.34-0.13-0.66-0.29-1.01-0.41c-0.34-0.12-0.62-0.45-0.97-0.55
		c-0.35-0.11-0.75-0.01-1.11-0.11c-0.35-0.09-0.69-0.24-1.05-0.31c-0.35-0.08-0.73-0.07-1.08-0.14c-0.36-0.07-0.69-0.26-1.06-0.32
		c-0.36-0.05-0.72-0.14-1.08-0.18c-0.36-0.04-0.73-0.01-1.1-0.04c-0.36-0.03-0.73-0.1-1.09-0.12c-0.36-0.01-0.73,0.2-1.1,0.2
		c-0.36,0-0.72-0.01-1.09,0c-0.36,0.01-0.73-0.02-1.09,0.01c-0.36,0.02-0.73-0.01-1.09,0.02c-0.36,0.04-0.73,0.05-1.09,0.1
		c-0.37,0.05-0.73,0.2-1.1,0.25c-0.37,0.06-0.77-0.07-1.14-0.02c-0.37,0.05-0.73,0.22-1.1,0.26c-0.37,0.04-0.74,0.2-1.11,0.22
		c-0.37,0.02-0.76-0.02-1.13-0.02c-0.37-0.01-0.74-0.16-1.11-0.21c-0.37-0.05-0.72-0.14-1.09-0.24c-0.36-0.09-0.74-0.11-1.09-0.26
		c-0.35-0.14-0.7-0.27-1.03-0.44c-0.33-0.17-0.63-0.4-0.95-0.6c-0.31-0.2-0.56-0.49-0.86-0.72c-0.3-0.22-0.61-0.42-0.9-0.66
		c-0.28-0.24-0.53-0.51-0.8-0.77c-0.27-0.26-0.51-0.53-0.77-0.8c-0.26-0.27-0.54-0.51-0.79-0.79c-0.24-0.28-0.46-0.58-0.7-0.87
		c-0.24-0.29-0.5-0.55-0.73-0.84c-0.23-0.29-0.45-0.59-0.68-0.89c-0.23-0.3-0.48-0.57-0.7-0.87c-0.22-0.3-0.52-0.55-0.74-0.85
		c-0.22-0.3-0.37-0.66-0.59-0.96c-0.22-0.3-0.41-0.63-0.63-0.93c-0.23-0.3-0.43-0.61-0.66-0.9c-0.23-0.3-0.57-0.5-0.8-0.79
		c-0.24-0.29-0.47-0.58-0.72-0.85c-0.25-0.28-0.5-0.56-0.75-0.82c-0.26-0.27-0.45-0.61-0.72-0.86c-0.27-0.25-0.62-0.43-0.9-0.67
		c-0.28-0.24-0.54-0.52-0.83-0.75c-0.29-0.23-0.56-0.49-0.86-0.71c-0.3-0.22-0.71-0.28-1.02-0.49c-0.31-0.21-0.6-0.43-0.92-0.62
		c-0.32-0.19-0.61-0.42-0.94-0.6c-0.32-0.18-0.57-0.51-0.9-0.68c-0.33-0.17-0.66-0.35-1-0.5c-0.34-0.16-0.74-0.17-1.08-0.31
		c-0.34-0.14-0.71-0.23-1.05-0.36c-0.35-0.13-0.66-0.35-1.02-0.46c-0.35-0.12-0.76-0.05-1.12-0.16c-0.36-0.1-0.7-0.26-1.06-0.35
		c-0.36-0.09-0.73-0.14-1.09-0.22c-0.36-0.08-0.7-0.3-1.06-0.36c-0.37-0.06-0.75-0.03-1.11-0.08c-0.37-0.05-0.72-0.23-1.09-0.26
		c-0.37-0.03-0.75,0.11-1.12,0.09c-0.37-0.02-0.74-0.08-1.11-0.08c-0.37-0.01-0.74,0.09-1.11,0.09c-0.37,0.01-0.74-0.08-1.11-0.06
		c-0.37,0.02-0.75-0.07-1.12-0.04c-0.37,0.04-0.72,0.23-1.09,0.28c-0.37,0.05-0.76-0.03-1.12,0.03c-0.36,0.07-0.71,0.24-1.07,0.32
		c-0.36,0.08-0.69,0.28-1.05,0.38c-0.36,0.1-0.76,0.04-1.12,0.15c-0.35,0.11-0.66,0.37-1,0.5c-0.35,0.13-0.73,0.17-1.07,0.31
		c-0.34,0.14-0.62,0.43-0.95,0.58c-0.34,0.16-0.76,0.14-1.09,0.31c-0.33,0.17-0.55,0.53-0.88,0.71c-0.32,0.18-0.64,0.37-0.95,0.57
		c-0.31,0.2-0.64,0.37-0.95,0.58c-0.31,0.21-0.71,0.27-1.01,0.49c-0.3,0.22-0.57,0.48-0.86,0.71c-0.29,0.23-0.57,0.48-0.85,0.72
		c-0.28,0.24-0.45,0.61-0.72,0.86c-0.27,0.25-0.67,0.38-0.93,0.64c-0.26,0.26-0.43,0.62-0.68,0.89c-0.25,0.27-0.44,0.6-0.68,0.88
		c-0.24,0.28-0.49,0.55-0.72,0.84c-0.23,0.29-0.6,0.47-0.82,0.77c-0.22,0.3-0.34,0.67-0.55,0.97c-0.21,0.31-0.51,0.55-0.71,0.86
		c-0.2,0.31-0.32,0.67-0.51,0.99c-0.18,0.32-0.3,0.68-0.47,1.01C46.9,25.42,46.7,25.73,46.54,26.07z"/>
</g>
</svg>
