<?xml version="1.0" encoding="utf-8"?>
<!-- Generator: Adobe Illustrator 26.5.0, SVG Export Plug-In . SVG Version: 6.00 Build 0)  -->
<svg version="1.1" id="圖層_1" xmlns="http://www.w3.org/2000/svg" xmlns:xlink="http://www.w3.org/1999/xlink" x="0px" y="0px"
	 viewBox="0 0 617.53 596.2" style="enable-background:new 0 0 617.53 596.2;" xml:space="preserve">
<path fill="currentColor" d="M616,273.73c-5.31-41.03-25.92-80.35-59.61-113.74c-5.86-5.8-12.11-11.17-18.71-16.06
	C521.7,107.72,495.26,78,462.05,59.26c-20.96-11.82-44.84-19.34-69.04-21.75c-10.22-1.01-19.41,0.95-27.53,2.69
	c-0.23-0.12-0.46-0.25-0.7-0.37c-1.1-0.59-2.64-1.41-3.59-1.94c-26.91-20.01-59.8-32.65-95.22-36.59
	c-34.82-3.87-69.8,0.87-101.14,13.71C109.12,37.85,64.88,86.44,46.5,145.01c-2,6.39-3.22,12.22-4.29,17.37
	c-0.08,0.37-0.15,0.73-0.23,1.09C17.09,196.29,3.13,232.85,0.46,272.24c-0.45,6.7-0.57,13.54-0.35,20.32
	c0.71,21.66,4.79,42.71,12.11,62.54c2.26,6.12,5.67,11.84,13.85,25.33c0.94,1.55,2.08,3.43,3.23,5.35
	c-0.69,4.99-1.14,9.85-1.51,14.54c-2.4,30.76,5.99,62.43,24.27,91.59c15.83,25.26,38.52,47.32,63.9,62.13
	c55.02,32.1,102.59,39.38,155.32,22.94c26.11,11.95,58.27,18.69,92.31,19.2c1.38,0.02,2.75,0.03,4.13,0.03
	c38.45,0,74.75-8,102.62-22.65c25.49-13.41,48.6-36.22,66.84-65.98c15.79-25.76,27.04-55.44,31.68-83.58
	c0.64-3.88,1.28-7.88,1.84-12.01C605.72,379.53,622.97,327.57,616,273.73z"/>
</svg>
