<?xml version="1.0" encoding="utf-8"?>
<!-- Generator: Adobe Illustrator 26.5.0, SVG Export Plug-In . SVG Version: 6.00 Build 0)  -->
<svg version="1.1" id="圖層_1" xmlns="http://www.w3.org/2000/svg" xmlns:xlink="http://www.w3.org/1999/xlink" x="0px" y="0px"
	 viewBox="0 0 627.46 578.54" style="enable-background:new 0 0 627.46 578.54;" xml:space="preserve">
<path fill="currentColor" d="M627.06,241.8c-0.95-13.51-2.83-31.26-9.08-48.83c-3.96-11.13-7.9-20.11-12.4-28.24
	c-5.64-10.2-12.43-18.47-17.89-25.1c-4.63-5.64-9.94-10.87-15.76-15.55l-1.3-1.04c-3.91-3.15-8.36-6.74-13.51-10.24
	c-4.74-11.86-9.69-23.47-17.69-35.07c-5.96-8.65-14.21-19.88-25.1-30.07c-20.27-18.97-43.87-32.53-70.13-40.31
	c-12.21-3.62-25.4-5.79-41.52-6.86c-15.4-1.02-28.98,0.93-40.98,2.65c-8.95,1.28-17.64,3.28-25.92,5.95
	c-8.14-2.57-16.6-4.52-25.22-5.8c-13.53-2.01-28.04-3.9-43.7-3.1c-15.45,0.8-30.07,2.96-43.47,6.43
	C210.7,9.91,197.51,15,183.06,22.18c-12.01,5.97-22.12,13.33-30.41,19.74c-8.03,6.2-17.42,13.87-26.19,23.71
	c-9.5,10.66-17.66,21.52-24.25,32.29c-5.79,9.46-10.97,20.15-15.76,32.49c-2.63,1.53-5.3,3.23-7.99,5.11
	c-7,4.92-16.12,11.64-24.59,19.98c-8.3,8.17-14.6,16.68-20.16,24.18l-0.19,0.26c-12.12,16.36-19.26,34.39-23.58,46.54
	c-2.44,6.85-4.36,14.02-5.72,21.31c-2.39,12.8-3.73,24.2-4.11,34.86c-0.26,7.58,0.01,15.37,0.82,23.15
	c0.94,9.11,2.38,21.13,5.13,33.39c4.25,18.95,11.18,35.69,18.02,50.96c5.91,13.17,12.84,25.21,20.6,35.79
	c5.79,7.9,12.09,16.28,19.74,24.39c6.97,7.37,14.22,13.25,21.01,18.5c7.51,5.8,15.7,11.9,26.09,17.1
	c8.39,4.2,16.02,7.51,23.34,10.11c0.97,1.8,1.98,3.55,3.03,5.27c8.25,13.53,17.73,25.3,28.18,35c12.59,11.68,24.8,20.33,37.33,26.43
	c8,3.89,16.74,7.88,26.5,10.72c9.88,2.87,19.09,3.76,26.48,4.48l1.18,0.11c3.42,0.33,6.8,0.48,10.1,0.48
	c12.67,0,24.25-2.1,32.48-3.6c9.16-1.66,18.65-4.37,28.22-8.05c9.63-3.71,22.24-8.84,34.76-15.8c0.67,0.16,1.34,0.32,2.02,0.47
	c15.74,3.49,29.83,4.87,43.08,4.22c10.66-0.52,20.6-2.16,27.15-3.34c5.31-0.96,10.58-2.3,15.66-3.97
	c8.23-2.71,16.5-6.14,25.28-10.48c5.05-2.5,9.92-5.39,14.48-8.6c10.46-7.38,22.54-16.69,32.83-29.88c0.58-0.74,1.16-1.48,1.75-2.22
	c4.29-5.45,9.62-12.22,14.29-20.43c4.72-8.31,7.94-16.32,10.78-23.38l0.61-1.52c5.28-13.08,7.41-25.35,8.93-36.66l0.05-0.35
	c0.23-1.72,0.47-3.5,0.7-5.34c2.55-2.11,4.97-4.22,7.27-6.35c4.45-4.12,8.66-8.6,12.49-13.33c6.09-7.5,12-14.97,17.42-23.89
	c3.23-5.31,6.17-10.97,8.76-16.83c3.44-7.8,7.34-16.64,10.49-26.51c4.9-15.33,6.9-29.65,8.84-45.44
	C627.48,264.97,627.85,253.04,627.06,241.8z"/>
</svg>
