<?xml version="1.0" encoding="utf-8"?>
<!-- Generator: Adobe Illustrator 26.1.0, SVG Export Plug-In . SVG Version: 6.00 Build 0)  -->
<svg version="1.1" id="圖層_1" xmlns="http://www.w3.org/2000/svg" xmlns:xlink="http://www.w3.org/1999/xlink" x="0px" y="0px"
	 viewBox="0 0 148.24 148.24" style="enable-background:new 0 0 148.24 148.24;" xml:space="preserve">
<g>
	<defs>
		<rect id="SVGID_00000065053450413282249970000003858891992897966774_" width="148.24" height="148.24"/>
	</defs>
	<clipPath id="SVGID_00000046315958153333718030000000734352856502075817_">
		<use xlink:href="#SVGID_00000065053450413282249970000003858891992897966774_"  style="overflow:visible;"/>
	</clipPath>
	<g style="clip-path:url(#SVGID_00000046315958153333718030000000734352856502075817_);">
		<path fill="currentColor" d="M67.28,140.07c-0.66,0-1.2-0.14-1.55-0.25c-0.03,0-0.05,0-0.07,0.01c-0.38,0.03-0.76,0.05-1.13,0.05
			c-0.06,0-0.14,0.01-0.22,0.02c-0.34,0.04-0.8,0.08-1.35,0.05c-0.53-0.03-0.98-0.15-1.32-0.26c-0.46,0.11-1.09,0.19-1.82,0.07
			c-0.72-0.12-1.28-0.4-1.67-0.63c-0.37-0.01-0.87-0.05-1.41-0.21c-0.5-0.14-1.01-0.32-1.51-0.49c-0.58-0.21-1.02-0.47-1.31-0.65
			c-0.04-0.03-0.09-0.05-0.13-0.08c-0.05-0.01-0.1-0.03-0.16-0.04c-0.33-0.09-0.82-0.23-1.36-0.5c-0.63-0.32-1.08-0.72-1.36-1
			c-0.34-0.12-0.87-0.32-1.4-0.69c-0.45-0.31-0.88-0.63-1.31-0.97l-0.21-0.16c-0.36-0.28-0.71-0.56-1.05-0.87
			c-0.29-0.27-0.56-0.55-0.83-0.84c-0.1-0.1-0.19-0.21-0.29-0.31c-0.35-0.35-0.6-0.69-0.8-0.95c-0.03-0.04-0.06-0.08-0.09-0.12
			c-0.33-0.22-0.87-0.58-1.35-1.19c-0.48-0.6-0.71-1.2-0.85-1.61c0,0,0,0,0,0c-0.2-0.22-0.48-0.51-0.74-0.9l-0.06-0.06
			c-0.27-0.26-0.71-0.69-1.08-1.31c-0.3-0.52-0.47-1.01-0.58-1.34c-0.02-0.07-0.04-0.13-0.07-0.2c-0.02-0.03-0.09-0.13-0.15-0.23
			c-0.18-0.28-0.39-0.63-0.6-1.06c-0.07-0.14-0.13-0.27-0.2-0.41c-0.17-0.33-0.34-0.67-0.48-1.01c-0.06-0.14-0.12-0.28-0.18-0.41
			c-0.16-0.34-0.31-0.68-0.44-1.03c-0.13-0.36-0.24-0.73-0.33-1.11c-0.04-0.13-0.07-0.27-0.11-0.4c-0.18-0.57-0.23-1.07-0.26-1.44
			c-0.21-0.35-0.5-0.88-0.65-1.56c-0.08-0.36-0.14-0.74-0.19-1.11c-0.02-0.15-0.04-0.29-0.07-0.43c-0.03-0.15-0.06-0.29-0.09-0.44
			c-0.08-0.37-0.15-0.74-0.2-1.1c-0.07-0.5-0.05-0.94,0-1.29c-0.12-0.22-0.24-0.5-0.35-0.82c-0.01,0-0.05-0.07-0.09-0.15
			c-0.13-0.23-0.25-0.45-0.36-0.68c-0.22-0.45-0.33-0.88-0.39-1.22c-0.02-0.02-0.04-0.05-0.07-0.07l-0.02-0.02
			c-0.24-0.13-0.6-0.31-0.97-0.6c-0.35-0.27-0.63-0.54-0.82-0.75c-0.04-0.01-0.08-0.03-0.12-0.04c-0.23-0.08-0.46-0.17-0.69-0.27
			c-0.46-0.2-0.82-0.44-1.06-0.59l-0.06-0.04c-0.06-0.01-0.12-0.02-0.18-0.04c-0.23-0.05-0.47-0.1-0.7-0.17l-0.04,0
			c-0.34-0.01-0.91-0.03-1.55-0.22c-0.69-0.2-1.2-0.53-1.53-0.76c-0.02,0-0.04-0.01-0.06-0.01c-0.26-0.05-0.53-0.11-0.79-0.18
			c-0.4-0.01-1.06-0.02-1.82-0.28c-0.48-0.17-0.88-0.38-1.17-0.53c-0.09-0.05-0.17-0.1-0.26-0.13c-0.35-0.14-0.72-0.31-1.08-0.48
			l-0.35-0.17c-0.49-0.22-0.96-0.46-1.42-0.7c-0.13-0.07-0.27-0.13-0.4-0.19c-0.34-0.16-0.68-0.33-1.01-0.51
			c-0.62-0.35-1.04-0.8-1.33-1.14c-0.36-0.13-0.82-0.33-1.3-0.67c-0.08-0.06-0.17-0.11-0.26-0.16c-0.29-0.17-0.68-0.39-1.08-0.71
			c-0.43-0.35-0.75-0.7-0.98-0.96c-0.06-0.06-0.11-0.13-0.18-0.19c-0.01,0-0.07-0.04-0.14-0.08c-0.3-0.2-0.71-0.48-1.13-0.89
			c-0.09-0.09-0.2-0.19-0.3-0.28c-0.3-0.28-0.59-0.56-0.86-0.86c-0.48-0.53-0.75-1.1-0.91-1.52c-0.31-0.24-0.7-0.59-1.04-1.09
			C8.94,92.9,8.74,92.36,8.6,92l-0.02-0.03c-0.25-0.28-0.63-0.7-0.95-1.3c-0.26-0.48-0.41-0.93-0.52-1.26
			c-0.03-0.09-0.06-0.17-0.09-0.26c-0.22-0.49-0.35-0.94-0.44-1.26c-0.03-0.09-0.05-0.18-0.08-0.27c-0.04-0.1-0.09-0.19-0.13-0.29
			c-0.14-0.3-0.34-0.71-0.5-1.21c-0.02-0.04-0.05-0.11-0.08-0.18c-0.15-0.33-0.36-0.77-0.5-1.34l-0.1-0.36
			c-0.11-0.4-0.21-0.81-0.29-1.23c-0.07-0.38-0.12-0.78-0.15-1.19c-0.01-0.14-0.02-0.28-0.04-0.42c-0.08-0.59-0.04-1.11-0.02-1.45
			c0-0.07,0.01-0.15,0.01-0.22l0,0c-0.01,0-0.02-0.08-0.04-0.16c-0.07-0.34-0.16-0.81-0.17-1.38c-0.01-0.53,0.06-0.99,0.11-1.32
			c-0.13-0.43-0.29-1.07-0.23-1.84c0.03-0.39,0.08-0.79,0.13-1.18l0.05-0.39c0.06-0.47,0.15-0.87,0.23-1.2
			c0.03-0.12,0.06-0.24,0.08-0.36c0.15-0.87,0.53-1.5,0.79-1.9c0.05-0.27,0.11-0.54,0.18-0.82c-0.01-0.41-0.02-1.09,0.24-1.88
			c0.03-0.09,0.04-0.19,0.06-0.28c0.07-0.32,0.17-0.76,0.35-1.24l0.12-0.3c0.15-0.39,0.3-0.79,0.47-1.17
			c0.25-0.58,0.58-1.02,0.79-1.31l0.09-0.12c0.05-0.1,0.1-0.21,0.14-0.31c0.15-0.34,0.31-0.69,0.49-1.01l0.21-0.39
			c0.17-0.33,0.35-0.66,0.54-0.97c0.19-0.32,0.4-0.62,0.61-0.92l0.25-0.37c0.29-0.44,0.6-0.77,0.82-1.01
			c0.06-0.07,0.12-0.13,0.18-0.2c0.08-0.11,0.15-0.23,0.23-0.35c0.2-0.31,0.4-0.61,0.63-0.9c0.08-0.1,0.14-0.21,0.21-0.31
			c0.21-0.32,0.44-0.65,0.69-0.94c0.05-0.06,0.1-0.14,0.15-0.22c0.18-0.27,0.42-0.64,0.76-1.02c0.44-0.49,0.91-0.8,1.26-1.01
			c0.19-0.31,0.47-0.74,0.88-1.14c0.25-0.25,0.52-0.47,0.79-0.7c0.12-0.1,0.23-0.19,0.34-0.3c0.42-0.39,0.85-0.64,1.2-0.82
			c0.22-0.36,0.54-0.8,1.02-1.2c0.08-0.07,0.15-0.15,0.23-0.23c0.22-0.23,0.5-0.51,0.86-0.8c0.64-0.51,1.29-0.74,1.69-0.87
			c0.17-0.13,0.34-0.25,0.52-0.38l0.37-0.27c0.1-0.07,0.19-0.16,0.29-0.24c0.28-0.24,0.56-0.48,0.86-0.69
			c0.45-0.31,0.86-0.51,1.16-0.65c0.07-0.03,0.13-0.06,0.2-0.1c0.07-0.05,0.2-0.15,0.33-0.25c0.18-0.14,0.36-0.27,0.55-0.41
			c0.25-0.32,0.65-0.83,1.29-1.27c0.67-0.45,1.33-0.63,1.77-0.73c0.15-0.11,0.29-0.22,0.43-0.34c0.03-0.04,0.05-0.08,0.08-0.11
			c0.12-0.17,0.27-0.39,0.46-0.63l0,0c0.12-0.28,0.3-0.71,0.6-1.16c0.17-0.25,0.35-0.48,0.54-0.71c0.03-0.03,0.05-0.06,0.08-0.1
			c0.09-0.2,0.2-0.4,0.31-0.59c0.01-0.01,0.02-0.03,0.02-0.04c0-0.02,0-0.03,0-0.05c0.02-0.31,0.05-0.63,0.1-0.93
			c0-0.05,0-0.1,0-0.15c0-0.31,0-0.78,0.1-1.32c0.15-0.83,0.52-1.45,0.75-1.82c0.08-0.28,0.17-0.53,0.24-0.72
			c0-0.01,0.01-0.02,0.01-0.03c-0.03-0.41-0.05-1.07,0.16-1.8c0.18-0.64,0.48-1.13,0.72-1.48c0.03-0.36,0.1-0.84,0.28-1.36l0.1-0.28
			c0.13-0.38,0.27-0.76,0.41-1.14c0.23-0.58,0.53-1.03,0.75-1.32c0.07-0.36,0.18-0.89,0.45-1.46c0.21-0.44,0.45-0.79,0.66-1.06
			c0.06-0.47,0.19-1.1,0.56-1.75c0.29-0.52,0.65-0.9,0.97-1.18c0.11-0.43,0.29-0.94,0.64-1.46c0.2-0.3,0.43-0.59,0.67-0.88
			c0.09-0.11,0.18-0.23,0.27-0.34c0.07-0.1,0.13-0.2,0.19-0.29c0.18-0.28,0.4-0.63,0.7-1c0.33-0.4,0.67-0.81,1.02-1.2
			c0.58-0.65,1.25-0.99,1.64-1.18c0.24-0.21,0.47-0.39,0.65-0.53c0.02-0.02,0.05-0.04,0.07-0.05c0.22-0.36,0.58-0.91,1.2-1.41
			c0.46-0.37,0.89-0.59,1.2-0.76c0.04-0.02,0.07-0.04,0.11-0.06l0.04-0.04c0.26-0.28,0.66-0.69,1.25-1.06
			c0.69-0.43,1.36-0.58,1.83-0.65c0.28-0.2,0.66-0.46,1.14-0.68h0c-0.01,0,0.05-0.04,0.11-0.08c0.29-0.19,0.74-0.48,1.32-0.7
			c0.54-0.2,1.03-0.27,1.45-0.29c0.4-0.3,0.94-0.62,1.64-0.79c0.51-0.12,0.97-0.16,1.3-0.19c0.1-0.01,0.21-0.01,0.31-0.03
			c0.52-0.09,0.97-0.1,1.3-0.1c0.11,0,0.21,0,0.31-0.01c0.74-0.08,1.36,0.04,1.72,0.11l0.01,0c0.27-0.02,0.54-0.03,0.81-0.04
			l0.47-0.04c0.33-0.07,0.82-0.18,1.42-0.19c0.49,0.01,0.92,0.05,1.24,0.09c0.04,0.01,0.09,0.01,0.13,0.02l0.02,0
			c0.34-0.07,0.9-0.19,1.58-0.14c0.13,0.01,0.27,0,0.4,0c0,0,0,0,0.01,0c0.37,0,0.73,0.01,1.1,0.04l0.43,0.03
			c0.36,0.03,0.72,0.05,1.07,0.1c0.36,0.05,0.72,0.12,1.08,0.19c0.14,0.03,0.28,0.06,0.42,0.08l0.24,0.04
			c0.42,0.07,0.85,0.15,1.26,0.24c0.59,0.13,1.06,0.36,1.41,0.55c0.4,0,0.97,0.03,1.59,0.23c0.66,0.22,1.15,0.54,1.46,0.75
			c0.36,0.07,0.89,0.18,1.46,0.45c0.08,0.04,0.17,0.06,0.26,0.1c0.32,0.11,0.76,0.27,1.23,0.53c0.7,0.38,1.16,0.88,1.45,1.25
			c0.28,0.13,0.65,0.31,1.04,0.57c0.42,0.28,0.73,0.59,0.96,0.83c0.38,0.13,0.9,0.33,1.42,0.72c0.11,0.08,0.23,0.16,0.35,0.23
			c0.27,0.17,0.54,0.34,0.79,0.53c0.54,0.4,0.89,0.86,1.13,1.24c0.25,0.12,0.56,0.29,0.87,0.52c0.35,0.25,0.69,0.5,1.04,0.74
			c0.29,0.2,0.56,0.43,0.83,0.67c0.04,0.03,0.08,0.07,0.12,0.1c0.04,0.02,0.08,0.03,0.12,0.05c0.26,0.11,0.61,0.25,0.99,0.47
			c0.36,0.21,0.65,0.44,0.87,0.63c0.32,0.05,0.73,0.15,1.16,0.33c0.03,0.01,0.12,0.02,0.2,0.04c0.28,0.07,0.56,0.14,0.83,0.23
			c0.4,0.13,0.74,0.31,1.01,0.48c0.29-0.02,0.61-0.01,0.96,0.03c0.28,0.04,0.56,0.1,0.85,0.16c0.02,0,0.05,0.01,0.07,0.02
			c0.27-0.06,0.67-0.13,1.13-0.15c0.52-0.02,0.98,0.05,1.29,0.1c0.03-0.01,0.05-0.01,0.08-0.02c0.26-0.07,0.52-0.14,0.79-0.19
			c0.17-0.03,0.34-0.06,0.51-0.09c0.1-0.02,0.19-0.03,0.29-0.05c0.34-0.22,0.89-0.56,1.61-0.74c0.59-0.15,1.11-0.17,1.45-0.18
			l0.13,0c0.55-0.11,1.03-0.11,1.39-0.08c0.33-0.15,0.79-0.33,1.35-0.43c0.65-0.11,1.2-0.08,1.56-0.04
			c0.33-0.11,0.82-0.27,1.43-0.32c0.04-0.01,0.11-0.03,0.19-0.04c0.33-0.08,0.79-0.18,1.35-0.2c0.55-0.02,1.07-0.04,1.57-0.04
			c0.09,0,0.18-0.01,0.27-0.02c0.34-0.03,0.8-0.07,1.34-0.03c0.42,0.03,0.84,0.1,1.25,0.17l0.59,0.09c0.46,0.07,0.94,0.14,1.39,0.24
			c0.95,0.21,1.61,0.71,2.01,1.07c0.19,0.06,0.38,0.13,0.58,0.2c0.46,0.01,1.21,0.07,2.02,0.45c0.48,0.23,0.86,0.49,1.13,0.68
			c0.08,0.06,0.16,0.12,0.25,0.16c0.34,0.19,0.67,0.42,1,0.66c0.11,0.08,0.21,0.15,0.32,0.23c0,0,0.05,0.01,0.11,0.04
			c0.31,0.14,0.78,0.36,1.27,0.72c0.06,0.04,0.14,0.08,0.21,0.12c0.32,0.19,0.76,0.44,1.21,0.83c0.73,0.64,1.08,1.39,1.27,1.91
			c0.24,0.23,0.53,0.51,0.81,0.87c0.05,0.06,0.11,0.12,0.17,0.19c0.25,0.27,0.6,0.63,0.93,1.14c0.37,0.58,0.56,1.14,0.67,1.5
			c0.27,0.32,0.68,0.81,0.97,1.53c0.04,0.09,0.09,0.18,0.13,0.27c0.16,0.32,0.38,0.76,0.54,1.29c0.16,0.53,0.32,1.08,0.44,1.63
			c0.14,0.65,0.13,1.22,0.1,1.61c0.17,0.39,0.38,0.95,0.43,1.65l0.02,0.26c0.04,0.45,0.07,0.9,0.08,1.35
			c0.02,0.77-0.18,1.41-0.37,1.87c0.06,0.35,0.1,0.79,0.06,1.29c0,0.08,0,0.18,0,0.28c0.01,0.32,0.02,0.77-0.05,1.27
			c-0.06,0.48-0.16,0.87-0.24,1.19c-0.03,0.11-0.06,0.21-0.08,0.32c-0.09,0.52-0.23,0.94-0.33,1.25c-0.03,0.08-0.06,0.16-0.08,0.24
			c-0.07,0.33-0.15,0.68-0.24,1.03l-0.1,0.41c-0.09,0.36-0.2,0.72-0.33,1.07c-0.04,0.12-0.09,0.24-0.12,0.36
			c-0.04,0.13-0.06,0.26-0.08,0.38c-0.07,0.36-0.14,0.72-0.25,1.08c-0.1,0.33-0.21,0.65-0.32,0.97l-0.21,0.62
			c-0.09,0.28-0.18,0.56-0.28,0.84c0,0.43-0.02,1.12-0.31,1.88c-0.22,0.57-0.5,1.01-0.69,1.3l-0.11,0.2
			c-0.06,0.15-0.13,0.3-0.17,0.45c-0.01,0.07-0.03,0.16-0.04,0.25c0.13,0.24,0.26,0.53,0.36,0.87c0.05,0.18,0.18,0.43,0.32,0.71
			c0.2,0.4,0.32,0.78,0.39,1.11c0.2,0.17,0.42,0.39,0.64,0.65c0.2,0.24,0.38,0.5,0.56,0.76c0.01,0.02,0.03,0.04,0.04,0.06
			c0.3,0.17,0.75,0.45,1.17,0.87c0.11,0.11,0.24,0.21,0.36,0.31c0.22,0.18,0.44,0.36,0.64,0.55c0.44,0.41,0.73,0.82,0.93,1.1
			l0.07,0.1c0.04,0.04,0.1,0.08,0.15,0.12c0.25,0.2,0.59,0.47,0.93,0.84c0.35,0.38,0.68,0.76,1,1.14c0.33,0.38,0.56,0.75,0.73,1.02
			c0.05,0.08,0.09,0.15,0.14,0.22c0.38,0.48,0.6,0.98,0.74,1.37c0.31,0.25,0.68,0.6,1,1.09c0.2,0.3,0.39,0.63,0.57,0.96
			c0.07,0.12,0.13,0.24,0.2,0.36c0.24,0.4,0.41,0.78,0.54,1.06c0.04,0.1,0.09,0.2,0.14,0.29l0.2,0.36c0.18,0.32,0.36,0.65,0.53,0.98
			c0.28,0.57,0.4,1.08,0.48,1.42l0.03,0.11c0.03,0.06,0.07,0.12,0.1,0.18c0.15,0.28,0.36,0.66,0.54,1.13
			c0.15,0.39,0.24,0.74,0.31,1.04c0.31,0.38,0.73,0.97,0.95,1.79c0.16,0.6,0.16,1.14,0.13,1.56c0.2,0.38,0.41,0.88,0.51,1.49
			c0.07,0.47,0.12,0.96,0.17,1.45l0.01,0.11c0.07,0.75-0.06,1.39-0.19,1.82c0.06,0.29,0.12,0.66,0.13,1.08l0.01,0.06
			c0.08,0.36,0.22,0.97,0.17,1.71c-0.05,0.75-0.28,1.35-0.44,1.74c0,0.33,0.01,0.8-0.08,1.34c-0.09,0.52-0.24,0.95-0.34,1.26
			c0,0.01,0,0.01-0.01,0.02c0.03,0.42,0.04,1.05-0.16,1.78c-0.17,0.6-0.43,1.06-0.65,1.4c-0.02,0.4-0.09,0.95-0.32,1.53
			c-0.33,0.85-0.87,1.42-1.25,1.76c-0.13,0.29-0.25,0.57-0.4,0.86l-0.14,0.29c-0.17,0.35-0.35,0.7-0.54,1.06
			c-0.04,0.08-0.07,0.16-0.1,0.24c-0.12,0.29-0.29,0.69-0.54,1.12c-0.26,0.44-0.56,0.78-0.79,1.03c-0.11,0.42-0.31,1.01-0.72,1.59
			c-0.22,0.31-0.46,0.59-0.7,0.88c-0.09,0.1-0.18,0.21-0.26,0.31c-0.08,0.1-0.16,0.22-0.24,0.33c-0.22,0.31-0.44,0.62-0.68,0.9
			c-0.39,0.46-0.82,0.77-1.17,0.99c-0.19,0.38-0.48,0.85-0.93,1.29c-0.48,0.47-0.96,0.75-1.28,0.93l-0.06,0.04
			c-0.04,0.04-0.08,0.08-0.11,0.12c-0.22,0.24-0.52,0.56-0.93,0.88c-0.31,0.25-0.63,0.47-0.95,0.7l-0.34,0.27
			c-0.25,0.25-0.62,0.63-1.15,0.96c-0.68,0.44-1.35,0.6-1.83,0.67c-0.28,0.21-0.67,0.49-1.17,0.72c-0.47,0.22-1.01,0.47-1.6,0.68
			c-0.48,0.18-0.93,0.28-1.29,0.37c-0.05,0.01-0.1,0.02-0.15,0.04c-0.36,0.22-0.97,0.57-1.79,0.74c-0.53,0.11-1.01,0.13-1.36,0.14
			c-0.1,0-0.2,0-0.29,0.02c-0.14,0.02-0.29,0.05-0.44,0.07c-0.38,0.07-0.76,0.13-1.14,0.17c-0.12,0.01-0.23,0.04-0.34,0.06
			c-0.33,0.06-0.73,0.14-1.21,0.17c-0.71,0.04-1.3-0.08-1.66-0.15l-0.05-0.01c-0.13,0.01-0.26,0.02-0.39,0.03
			c-0.29,0.02-0.58,0.04-0.87,0.05c-0.46,0.01-0.86-0.03-1.17-0.08c-0.4,0.17-0.97,0.36-1.65,0.39c-0.53,0.03-1.01-0.05-1.37-0.13
			c-0.34,0.12-0.78,0.24-1.31,0.27c-0.74,0.05-1.34-0.1-1.71-0.19c-0.35-0.01-0.65-0.04-0.87-0.07c-0.34,0.1-0.85,0.23-1.48,0.24
			c-0.29,0-0.57-0.01-0.86-0.02c-0.05,0-0.1,0-0.15,0c-0.23,0.08-0.54,0.2-0.92,0.28c-0.44,0.1-0.84,0.12-1.14,0.12
			c-0.03,0.02-0.05,0.03-0.08,0.05c-0.16,0.09-0.31,0.19-0.47,0.28c-0.23,0.13-0.45,0.28-0.67,0.44c-0.2,0.26-0.53,0.68-1.02,1.07
			c-0.52,0.42-1.04,0.65-1.39,0.8c-0.11,0.11-0.22,0.21-0.33,0.32l-0.14,0.14c-0.18,0.31-0.47,0.83-0.96,1.33
			c-0.59,0.58-1.22,0.89-1.63,1.06c-0.12,0.11-0.23,0.21-0.35,0.31c-0.03,0.02-0.06,0.05-0.08,0.07c-0.18,0.38-0.49,0.96-1.03,1.49
			c-0.29,0.28-0.59,0.54-0.88,0.78c-0.1,0.09-0.21,0.17-0.3,0.26c-0.19,0.17-0.38,0.33-0.56,0.49c-0.15,0.13-0.3,0.25-0.44,0.38
			c-0.04,0.04-0.07,0.09-0.11,0.14c-0.21,0.26-0.49,0.61-0.89,0.97c-0.48,0.42-0.97,0.67-1.34,0.84c-0.21,0.28-0.5,0.64-0.91,0.98
			c-0.26,0.22-0.53,0.42-0.81,0.62c-0.12,0.09-0.24,0.17-0.36,0.27c-0.05,0.04-0.1,0.11-0.17,0.17c-0.22,0.23-0.52,0.55-0.92,0.86
			l-0.37,0.29c-0.27,0.22-0.54,0.43-0.82,0.64c-0.49,0.35-0.95,0.56-1.27,0.7c-0.26,0.29-0.66,0.71-1.24,1.07
			c-0.67,0.42-1.32,0.57-1.81,0.64c-0.26,0.21-0.61,0.46-1.05,0.68c-0.45,0.22-0.86,0.36-1.17,0.47c-0.34,0.32-0.89,0.77-1.68,1.06
			c-0.45,0.17-0.88,0.26-1.19,0.33c-0.11,0.02-0.22,0.04-0.32,0.08c-0.54,0.17-1.08,0.2-1.45,0.21c-0.38,0.25-0.89,0.52-1.54,0.66
			c-0.61,0.13-1.15,0.12-1.5,0.13l-0.15,0c-0.5,0.08-0.97,0.16-1.44,0.22c-0.12,0.02-0.25,0.04-0.37,0.07
			c-0.39,0.07-0.78,0.14-1.17,0.17C67.51,140.07,67.4,140.07,67.28,140.07z M65.99,132.8c0.6,0,1.09,0.12,1.45,0.22
			c0.02,0,0.04-0.01,0.05-0.01c0.27-0.05,0.54-0.1,0.81-0.13c0.4-0.05,0.79-0.12,1.18-0.19c0.36-0.06,0.68-0.08,0.94-0.09
			c0.35-0.24,0.83-0.51,1.45-0.68c0.71-0.19,1.35-0.16,1.75-0.13c0.12-0.03,0.25-0.06,0.37-0.09c0.3-0.27,0.75-0.62,1.34-0.88
			c0.28-0.12,0.56-0.22,0.84-0.31c0.06-0.02,0.11-0.04,0.17-0.06l0.01-0.01c0.24-0.21,0.61-0.52,1.1-0.8
			c0.53-0.3,1.04-0.44,1.46-0.51c0.2-0.2,0.46-0.43,0.76-0.64c0.46-0.31,0.89-0.5,1.18-0.62l0.1-0.04c0.16-0.12,0.31-0.24,0.47-0.37
			l0.45-0.35c0.02-0.02,0.08-0.09,0.14-0.15c0.2-0.21,0.47-0.49,0.82-0.77c0.22-0.18,0.45-0.35,0.69-0.52
			c0.08-0.06,0.17-0.12,0.25-0.18l0.02-0.03c0.21-0.29,0.52-0.72,1-1.13c0.5-0.43,1-0.68,1.37-0.84c0.2-0.24,0.46-0.56,0.81-0.87
			c0.2-0.17,0.39-0.34,0.59-0.51c0.16-0.14,0.32-0.27,0.47-0.41c0.14-0.13,0.3-0.26,0.46-0.39c0.07-0.05,0.13-0.11,0.2-0.17
			c0.18-0.37,0.47-0.92,0.98-1.43c0.22-0.22,0.45-0.43,0.7-0.64c0.11-0.1,0.23-0.2,0.34-0.31c0.46-0.46,0.95-0.75,1.34-0.94
			c0.19-0.31,0.46-0.68,0.83-1.04l0.29-0.29c0.27-0.26,0.54-0.52,0.82-0.77c0.51-0.46,1.04-0.72,1.42-0.88
			c0.24-0.31,0.61-0.72,1.13-1.09c0.4-0.28,0.9-0.63,1.45-0.95c0.09-0.05,0.19-0.11,0.29-0.17c0.36-0.22,0.8-0.49,1.34-0.72
			c0.86-0.36,1.62-0.36,2.1-0.37c0.43-0.16,1.13-0.42,2.02-0.42c0.22-0.02,0.5,0.01,0.74,0.02c0.09,0,0.19,0.01,0.28,0.01
			c0.32-0.09,0.83-0.24,1.46-0.25c0.49-0.02,0.87,0.03,1.16,0.07c0.05,0.01,0.1,0.01,0.15,0.02c0.45-0.02,0.83,0.04,1.14,0.1
			c0.33-0.11,0.76-0.23,1.26-0.27c0.56-0.04,1.04,0.03,1.41,0.1c0.41-0.16,0.95-0.33,1.6-0.35c0.61-0.01,1.12,0.07,1.46,0.13
			l0.12,0.02c0.17-0.01,0.34-0.02,0.51-0.03c0.26-0.02,0.51-0.03,0.77-0.04c0.65-0.03,1.18,0.08,1.54,0.16
			c0.05-0.01,0.11-0.02,0.16-0.03c0.33-0.06,0.66-0.12,0.98-0.15c0.19-0.02,0.38-0.06,0.56-0.09c0.23-0.04,0.47-0.08,0.7-0.12
			c0.33-0.05,0.66-0.07,0.99-0.08c0.01,0,0.01,0,0.02,0c0.31-0.18,0.75-0.42,1.31-0.57c0.21-0.06,0.41-0.11,0.62-0.16
			c0.17-0.04,0.34-0.07,0.51-0.13c0.32-0.12,0.63-0.26,0.95-0.41c0.05-0.03,0.09-0.07,0.13-0.1c0.28-0.21,0.57-0.42,0.88-0.6
			c0.54-0.31,1.06-0.46,1.47-0.54c0.18-0.17,0.41-0.37,0.68-0.56l0.36-0.25c0.21-0.15,0.42-0.29,0.62-0.45
			c0.03-0.03,0.09-0.1,0.16-0.17c0.22-0.24,0.44-0.47,0.69-0.68c0.28-0.25,0.56-0.44,0.8-0.58c0.17-0.35,0.42-0.78,0.81-1.2
			c0.45-0.48,0.93-0.78,1.28-0.97c0.02-0.03,0.03-0.05,0.05-0.08c0.14-0.21,0.29-0.41,0.44-0.61c0.16-0.2,0.32-0.39,0.49-0.59
			c0.02-0.02,0.04-0.04,0.06-0.07c0.1-0.39,0.28-0.95,0.64-1.51c0.29-0.45,0.62-0.79,0.83-1.01l0.02-0.02
			c0.01-0.04,0.03-0.08,0.05-0.12c0.13-0.32,0.27-0.63,0.44-0.93c0.14-0.25,0.26-0.51,0.39-0.76l0.16-0.32
			c0.13-0.26,0.24-0.52,0.36-0.79l0.14-0.31c0.22-0.51,0.52-0.9,0.79-1.21c0.03-0.29,0.1-0.61,0.21-0.96
			c0.15-0.45,0.35-0.81,0.53-1.1c0-0.33,0.02-0.73,0.12-1.18c0.07-0.33,0.18-0.65,0.29-0.97c0.02-0.05,0.04-0.1,0.05-0.15
			c0-0.04,0-0.08,0-0.12c0-0.27-0.01-0.65,0.04-1.08c0.06-0.51,0.2-0.94,0.33-1.27c-0.05-0.26-0.09-0.57-0.1-0.93l-0.03-0.13
			c-0.06-0.28-0.15-0.7-0.17-1.19c-0.03-0.71,0.11-1.3,0.23-1.69c-0.01-0.07-0.02-0.15-0.02-0.22c-0.21-0.35-0.5-0.88-0.64-1.56
			c-0.08-0.41-0.1-0.79-0.09-1.12c-0.2-0.3-0.41-0.68-0.55-1.14c-0.08-0.26-0.15-0.52-0.21-0.78c-0.03-0.12-0.05-0.24-0.1-0.36
			c-0.03-0.05-0.07-0.13-0.12-0.21c-0.15-0.28-0.3-0.56-0.43-0.85c-0.2-0.47-0.31-0.91-0.37-1.19l-0.02-0.09
			c-0.08-0.16-0.17-0.31-0.26-0.46l-0.26-0.46c-0.14-0.25-0.26-0.52-0.38-0.79c-0.04-0.1-0.09-0.2-0.14-0.3
			c-0.12-0.2-0.24-0.41-0.35-0.62c-0.02-0.04-0.05-0.09-0.07-0.13c-0.31-0.23-0.74-0.58-1.13-1.11c-0.44-0.59-0.64-1.2-0.75-1.58
			c-0.1-0.14-0.19-0.28-0.28-0.43c-0.05-0.08-0.09-0.15-0.15-0.23c-0.24-0.28-0.51-0.6-0.8-0.9c-0.02-0.01-0.09-0.07-0.16-0.12
			c-0.27-0.22-0.54-0.44-0.79-0.69c-0.36-0.36-0.62-0.72-0.79-0.96c-0.02-0.03-0.05-0.07-0.07-0.1c-0.08-0.07-0.16-0.13-0.24-0.2
			c-0.21-0.18-0.43-0.36-0.64-0.55l-0.03-0.02c-0.34-0.19-0.9-0.51-1.43-1.08c-0.37-0.4-0.64-0.79-0.83-1.07
			c-0.03-0.05-0.06-0.09-0.09-0.14l-0.03-0.03c-0.31-0.25-0.84-0.67-1.29-1.32c-0.55-0.81-0.7-1.62-0.78-2.1
			c-0.18-0.37-0.36-0.76-0.51-1.21c-0.27-0.41-0.79-1.23-0.89-2.36c-0.07-0.86,0.1-1.57,0.21-2.05c0.02-0.08,0.04-0.15,0.05-0.23
			c0.12-0.79,0.38-1.42,0.59-1.93l0.07-0.17c0.16-0.4,0.35-0.73,0.51-0.99c0.01-0.4,0.06-0.95,0.27-1.54
			c0.12-0.34,0.24-0.69,0.35-1.05l0.24-0.72c0.08-0.24,0.16-0.47,0.23-0.71c0.04-0.13,0.06-0.26,0.08-0.39
			c0.06-0.3,0.12-0.59,0.2-0.89c0.08-0.28,0.17-0.57,0.27-0.85c0.04-0.12,0.09-0.25,0.12-0.37l0.12-0.48
			c0.06-0.25,0.13-0.51,0.18-0.76c0.07-0.35,0.18-0.7,0.29-1.04c0.03-0.08,0.06-0.16,0.08-0.24c0.04-0.25,0.11-0.56,0.19-0.87
			c0.03-0.11,0.06-0.21,0.08-0.32c0-0.05,0-0.15-0.01-0.25c0-0.24-0.01-0.49,0-0.73l0-0.03c-0.07-0.34-0.17-0.84-0.15-1.47
			c0.03-0.75,0.24-1.36,0.43-1.79c-0.01-0.09-0.01-0.17-0.02-0.26c-0.15-0.33-0.36-0.84-0.46-1.49c-0.09-0.6-0.05-1.1-0.02-1.44
			c-0.07-0.27-0.15-0.55-0.23-0.82c-0.02-0.05-0.07-0.14-0.12-0.23c-0.07-0.15-0.15-0.3-0.21-0.45c-0.21-0.25-0.55-0.65-0.83-1.19
			c-0.21-0.42-0.34-0.8-0.43-1.07c-0.01-0.01-0.02-0.02-0.03-0.03c-0.21-0.22-0.42-0.45-0.61-0.69c-0.07-0.08-0.16-0.15-0.24-0.24
			c-0.17-0.16-0.34-0.33-0.51-0.5c-0.44-0.46-0.7-0.95-0.87-1.35c-0.15-0.09-0.3-0.19-0.44-0.29c-0.05-0.02-0.1-0.05-0.15-0.07
			c-0.26-0.12-0.61-0.28-0.99-0.53c-0.19-0.13-0.38-0.26-0.57-0.4c-0.12-0.09-0.24-0.18-0.37-0.25c-0.23-0.13-0.45-0.27-0.66-0.42
			c-0.39-0.03-0.9-0.1-1.46-0.31c-0.34-0.13-0.68-0.24-1.03-0.34c-0.7-0.21-1.21-0.56-1.57-0.86c-0.07-0.01-0.14-0.02-0.22-0.03
			l-0.74-0.12c-0.22-0.04-0.44-0.08-0.65-0.09c-0.02,0-0.11,0.02-0.2,0.02c-0.32,0.03-0.64,0.04-0.96,0.04
			c-0.35-0.01-0.73,0.01-1.1,0.03c-0.06,0.01-0.12,0.03-0.19,0.04c-0.23,0.05-0.54,0.12-0.89,0.16l-0.1,0.03
			c-0.29,0.1-0.72,0.24-1.26,0.31c-0.49,0.07-0.92,0.05-1.24,0.03c-0.3,0.13-0.71,0.3-1.21,0.41c-0.7,0.14-1.29,0.1-1.65,0.07
			c-0.3,0.05-0.56,0.07-0.78,0.08c-0.33,0.21-0.8,0.46-1.4,0.62c-0.4,0.1-0.8,0.18-1.19,0.25l-0.36,0.06
			c-0.11,0.02-0.22,0.05-0.33,0.08c-0.33,0.09-0.75,0.2-1.24,0.26c-0.73,0.09-1.33-0.01-1.73-0.08c-0.36,0.08-0.9,0.19-1.56,0.15
			c-0.59-0.03-1.07-0.14-1.42-0.22c-0.43,0.06-1.14,0.15-1.94-0.04c-0.84-0.19-1.44-0.6-1.82-0.88c-0.27-0.06-0.61-0.15-0.99-0.29
			l-0.01,0c-0.4-0.06-1.07-0.15-1.8-0.52c-0.63-0.32-1.07-0.72-1.34-0.96l-0.01-0.01c-0.02-0.01-0.05-0.02-0.07-0.03
			c-0.3-0.12-0.75-0.31-1.22-0.61c-0.42-0.27-0.75-0.56-0.98-0.77c-0.06-0.05-0.12-0.11-0.19-0.16c-0.34-0.24-0.69-0.49-1.04-0.74
			l-0.1-0.05c-0.3-0.14-0.76-0.35-1.23-0.7c-0.62-0.46-0.99-1-1.23-1.39c-0.13-0.08-0.26-0.16-0.38-0.25
			c-0.38-0.11-0.98-0.31-1.58-0.75c-0.46-0.33-0.78-0.68-1-0.92c-0.01,0-0.02-0.01-0.03-0.01c-0.26-0.12-0.62-0.28-1.01-0.54
			c-0.5-0.32-0.87-0.7-1.12-1c-0.19-0.07-0.37-0.14-0.55-0.22l-0.08-0.02c-0.3-0.06-0.74-0.14-1.24-0.34
			c-0.39-0.15-0.7-0.33-0.96-0.49c-0.35,0-0.8-0.03-1.29-0.17c-0.63-0.17-1.11-0.45-1.42-0.63c-0.2-0.04-0.4-0.07-0.6-0.11
			l-0.26-0.05c-0.22-0.04-0.44-0.08-0.65-0.13c-0.19-0.04-0.37-0.08-0.56-0.11c-0.22-0.03-0.45-0.04-0.67-0.06
			c-0.19-0.01-0.38-0.03-0.57-0.04c-0.16-0.02-0.31-0.01-0.46-0.01c-0.23-0.01-0.39,0-0.58-0.01l-0.06,0.01
			c-0.32,0.06-0.81,0.16-1.41,0.15c-0.35-0.01-0.69-0.05-1.03-0.09c-0.05-0.01-0.1-0.01-0.15-0.02l-0.07,0.02
			c-0.29,0.06-0.72,0.16-1.24,0.18l-0.48,0.02c-0.26,0.01-0.51,0.02-0.77,0.04c-0.68,0.05-1.24-0.06-1.58-0.12
			c-0.2,0.01-0.41,0.02-0.62,0.02c-0.1,0-0.2,0-0.3,0.01c-0.18,0.03-0.38,0.05-0.59,0.08c-0.36,0.3-0.87,0.64-1.54,0.85
			c-0.56,0.17-1.09,0.22-1.48,0.2c-0.18,0.11-0.4,0.24-0.65,0.36c-0.04,0.03-0.08,0.06-0.12,0.09c-0.23,0.17-0.54,0.4-0.95,0.62
			c-0.5,0.27-0.98,0.4-1.37,0.47c-0.19,0.19-0.43,0.4-0.72,0.61c-0.31,0.22-0.6,0.38-0.83,0.5c-0.2,0.31-0.49,0.71-0.92,1.1
			c-0.21,0.19-0.44,0.37-0.68,0.55c-0.09,0.07-0.18,0.13-0.26,0.21c-0.49,0.49-1.01,0.78-1.38,0.96c-0.17,0.2-0.35,0.41-0.51,0.61
			c-0.07,0.09-0.13,0.19-0.19,0.29c-0.16,0.26-0.33,0.51-0.51,0.75c-0.13,0.18-0.28,0.36-0.43,0.54c-0.01,0.01-0.02,0.03-0.04,0.04
			c-0.08,0.44-0.24,1.05-0.62,1.67c-0.25,0.4-0.53,0.71-0.79,0.96c-0.07,0.36-0.19,0.79-0.42,1.22c-0.23,0.45-0.5,0.8-0.7,1.05
			c-0.06,0.33-0.16,0.76-0.37,1.24c-0.25,0.57-0.55,0.98-0.75,1.26l-0.02,0.03c-0.09,0.24-0.17,0.47-0.25,0.71L41,30.69
			c-0.02,0.33-0.06,0.89-0.25,1.51c-0.15,0.48-0.37,0.88-0.56,1.18c0,0.35-0.02,0.79-0.14,1.27c-0.08,0.32-0.18,0.63-0.29,0.94
			c-0.03,0.1-0.07,0.19-0.1,0.29c-0.13,0.61-0.38,1.1-0.58,1.45c0,0.3-0.02,0.69-0.1,1.13c0,0.04-0.01,0.12-0.01,0.2
			c-0.02,0.34-0.06,0.86-0.21,1.44c-0.18,0.68-0.47,1.21-0.66,1.56c-0.04,0.07-0.07,0.13-0.11,0.2c-0.32,0.73-0.74,1.25-1.02,1.59
			c-0.02,0.03-0.05,0.05-0.07,0.08l-0.02,0.05c-0.17,0.41-0.46,1.09-1.06,1.74c0,0.01-0.04,0.07-0.08,0.13
			c-0.23,0.34-0.58,0.85-1.13,1.33c-0.4,0.35-0.84,0.69-1.28,1.01l-0.12,0.09c-0.57,0.43-1.16,0.64-1.61,0.76
			c-0.26,0.3-0.6,0.65-1.08,0.96c-0.14,0.09-0.28,0.2-0.41,0.3c-0.24,0.19-0.49,0.37-0.74,0.54c-0.41,0.28-0.8,0.46-1.08,0.59
			c-0.05,0.03-0.11,0.05-0.16,0.08c-0.09,0.07-0.17,0.14-0.25,0.21c-0.24,0.21-0.48,0.41-0.74,0.6l-0.42,0.31
			c-0.22,0.16-0.44,0.31-0.65,0.48c-0.55,0.42-1.09,0.63-1.48,0.77c-0.13,0.13-0.25,0.26-0.38,0.38c-0.2,0.36-0.53,0.94-1.12,1.45
			c-0.55,0.48-1.1,0.74-1.46,0.9c-0.11,0.09-0.21,0.18-0.32,0.28c-0.08,0.07-0.16,0.13-0.24,0.2l0,0.01
			c-0.18,0.3-0.45,0.76-0.89,1.22c-0.44,0.46-0.9,0.75-1.23,0.94c0,0,0,0.01-0.01,0.01c-0.19,0.29-0.39,0.58-0.62,0.85
			c-0.08,0.1-0.15,0.21-0.22,0.31c-0.17,0.25-0.34,0.51-0.53,0.75c-0.1,0.13-0.19,0.27-0.28,0.42c-0.14,0.21-0.28,0.43-0.43,0.63
			c-0.21,0.29-0.44,0.56-0.69,0.82c-0.06,0.06-0.12,0.13-0.17,0.2c-0.08,0.12-0.19,0.28-0.3,0.45c-0.13,0.18-0.26,0.37-0.37,0.56
			c-0.11,0.19-0.22,0.39-0.32,0.59c-0.09,0.17-0.18,0.35-0.28,0.52c-0.09,0.16-0.16,0.34-0.24,0.51c-0.09,0.21-0.19,0.42-0.29,0.63
			c-0.24,0.48-0.51,0.84-0.69,1.09l-0.07,0.09c-0.1,0.23-0.19,0.47-0.28,0.71l-0.12,0.33c-0.01,0.05-0.03,0.15-0.05,0.24
			c-0.04,0.2-0.09,0.4-0.14,0.6c0.01,0.37,0.01,0.96-0.18,1.63c-0.06,0.21-0.1,0.43-0.14,0.64c-0.04,0.18-0.07,0.36-0.11,0.54
			c-0.17,0.76-0.51,1.33-0.75,1.69c-0.02,0.09-0.04,0.18-0.06,0.27c-0.03,0.13-0.07,0.26-0.09,0.39l-0.06,0.46
			c-0.02,0.12-0.03,0.24-0.05,0.36c0.12,0.4,0.27,0.97,0.25,1.67c-0.01,0.47-0.08,0.87-0.13,1.16c-0.01,0.04-0.01,0.08-0.02,0.12
			c0.01,0.03,0.02,0.08,0.03,0.14c0.07,0.35,0.13,0.71,0.16,1.06c0.04,0.46,0.01,0.86-0.01,1.15c0,0.06-0.01,0.11-0.01,0.17
			c0.02,0.19,0.04,0.38,0.06,0.58c0.02,0.18,0.03,0.36,0.06,0.53c0.05,0.25,0.11,0.49,0.18,0.73l0.1,0.39
			c0.03,0.07,0.06,0.13,0.09,0.19c0.11,0.25,0.27,0.59,0.4,1c0.03,0.09,0.08,0.18,0.13,0.28c0.13,0.27,0.25,0.54,0.36,0.81
			c0.12,0.3,0.21,0.61,0.29,0.92c0.03,0.09,0.05,0.18,0.08,0.27c0.12,0.25,0.23,0.57,0.34,0.88c0.01,0.04,0.03,0.08,0.04,0.12
			l0.01,0.01c0.2,0.22,0.5,0.56,0.78,1.01c0.24,0.38,0.39,0.74,0.5,1.02c0.26,0.21,0.6,0.5,0.92,0.9c0.43,0.54,0.66,1.07,0.8,1.45
			c0.05,0.05,0.11,0.1,0.16,0.15c0.12,0.12,0.25,0.23,0.37,0.35c0.05,0.04,0.1,0.07,0.16,0.1c0.24,0.16,0.57,0.38,0.91,0.68
			c0.26,0.23,0.5,0.48,0.73,0.75c0.05,0.05,0.09,0.11,0.14,0.16c0.07,0.05,0.15,0.09,0.22,0.13c0.19,0.11,0.38,0.23,0.57,0.35
			l0.01,0c0.32,0.11,0.85,0.29,1.41,0.64c0.58,0.38,0.97,0.81,1.23,1.14c0.05,0.02,0.09,0.04,0.14,0.07c0.21,0.1,0.43,0.2,0.64,0.31
			c0.37,0.19,0.75,0.38,1.14,0.56l0.42,0.2c0.23,0.11,0.46,0.22,0.68,0.31c0.32,0.13,0.63,0.28,0.93,0.44
			c0.01,0,0.01,0.01,0.02,0.01c0.37,0.01,0.91,0.04,1.51,0.23c0.12,0.04,0.24,0.05,0.35,0.08c0.32,0.06,0.64,0.13,0.95,0.22
			c0.59,0.17,1.04,0.43,1.37,0.65c0.35,0.02,0.82,0.07,1.33,0.23c0.11,0.03,0.22,0.05,0.32,0.07c0.32,0.07,0.72,0.15,1.16,0.31
			c0.63,0.22,1.11,0.53,1.42,0.73l0.11,0.07c0.08,0.03,0.16,0.06,0.24,0.09c0.34,0.12,0.81,0.3,1.31,0.57
			c0.7,0.39,1.17,0.88,1.44,1.18l0.02,0.02c0.37,0.2,0.99,0.52,1.58,1.13l0.17,0.18c0.31,0.32,0.74,0.76,1.13,1.33
			c0.54,0.8,0.69,1.58,0.77,2.06c0.17,0.3,0.42,0.73,0.62,1.28l0.04,0.08c0.2,0.35,0.52,0.93,0.69,1.71c0.18,0.84,0.08,1.56,0,2
			c0.02,0.11,0.04,0.22,0.07,0.32c0.04,0.21,0.09,0.42,0.13,0.63c0.04,0.23,0.08,0.47,0.11,0.7c0.01,0.08,0.02,0.17,0.04,0.26
			c0.19,0.32,0.47,0.81,0.65,1.44c0.15,0.55,0.18,1.03,0.21,1.35l0.01,0.1c0.06,0.2,0.11,0.39,0.16,0.59
			c0.04,0.15,0.07,0.31,0.13,0.45c0.06,0.17,0.14,0.33,0.22,0.49c0.1,0.22,0.2,0.44,0.3,0.67c0.07,0.17,0.16,0.34,0.25,0.51
			c0.11,0.21,0.21,0.41,0.31,0.62c0.05,0.1,0.12,0.2,0.19,0.3c0.16,0.25,0.32,0.51,0.46,0.77c0.22,0.42,0.35,0.79,0.45,1.07
			c0.24,0.24,0.57,0.57,0.87,1.04c0.01,0,0.07,0.06,0.12,0.12c0.25,0.26,0.48,0.54,0.69,0.83c0.3,0.41,0.49,0.82,0.61,1.15
			c0.26,0.19,0.58,0.44,0.88,0.78c0.2,0.22,0.38,0.46,0.56,0.69c0.07,0.09,0.13,0.19,0.21,0.27c0.15,0.15,0.29,0.31,0.44,0.47
			c0.13,0.14,0.25,0.28,0.39,0.41c0.21,0.19,0.43,0.36,0.66,0.53l0.23,0.18c0.25,0.2,0.5,0.39,0.76,0.57l0.05,0.02
			c0.29,0.1,0.72,0.26,1.19,0.54c0.45,0.27,0.8,0.57,1.03,0.79c0.26,0.07,0.6,0.17,0.97,0.33c0.42,0.18,0.76,0.38,1,0.53
			c0.04,0.03,0.09,0.05,0.13,0.08c0.26,0.09,0.53,0.18,0.8,0.27h0.01c0.33,0,0.83,0,1.41,0.14c0.41,0.09,0.77,0.24,1.06,0.38
			c0.36-0.06,0.8-0.1,1.29-0.04c0.56,0.07,1,0.21,1.32,0.33c0,0,0,0,0.01,0c0.36-0.04,0.71-0.07,1.07-0.06
			c0.14,0.02,0.31-0.01,0.47-0.03c0.25-0.02,0.49-0.04,0.74-0.05C65.89,132.8,65.94,132.8,65.99,132.8z M58.67,132.19
			C58.67,132.19,58.67,132.19,58.67,132.19C58.67,132.19,58.67,132.19,58.67,132.19z M97.73,121.82l-0.02,0.02
			C97.71,121.83,97.72,121.82,97.73,121.82z M107.78,117.98c-0.01,0-0.02,0-0.02,0C107.76,117.98,107.77,117.98,107.78,117.98z
			 M116.09,117.64C116.09,117.64,116.09,117.64,116.09,117.64C116.09,117.64,116.09,117.64,116.09,117.64z M44.34,116.87
			c0,0,0,0.01,0,0.02C44.34,116.88,44.34,116.87,44.34,116.87z M34.71,108.45c0.01,0.01,0.01,0.01,0.02,0.02L34.71,108.45z
			 M30.09,106.11C30.09,106.12,30.09,106.12,30.09,106.11C30.09,106.12,30.09,106.12,30.09,106.11z M20.29,94.51
			C20.29,94.51,20.29,94.51,20.29,94.51C20.29,94.51,20.29,94.51,20.29,94.51z M17.37,92.23C17.37,92.23,17.38,92.24,17.37,92.23
			C17.38,92.24,17.37,92.23,17.37,92.23z M145.32,86.76c0,0.01,0,0.02,0,0.03C145.32,86.78,145.32,86.77,145.32,86.76z
			 M138.28,83.19C138.28,83.19,138.28,83.19,138.28,83.19C138.28,83.19,138.28,83.19,138.28,83.19z M12.06,82.85l0.01,0.04
			C12.06,82.88,12.06,82.86,12.06,82.85z M11.64,80.5C11.64,80.5,11.64,80.5,11.64,80.5C11.64,80.5,11.64,80.5,11.64,80.5z
			 M132.74,71.27C132.75,71.27,132.75,71.28,132.74,71.27C132.75,71.28,132.75,71.27,132.74,71.27z M5.9,68.91
			C5.9,68.91,5.9,68.92,5.9,68.91C5.9,68.92,5.9,68.91,5.9,68.91z M128.38,66.55c0,0,0.01,0.01,0.01,0.01
			C128.39,66.55,128.38,66.55,128.38,66.55z M130.09,55.62l-0.01,0.02C130.08,55.63,130.08,55.62,130.09,55.62z M130.98,52.8
			C130.98,52.8,130.98,52.8,130.98,52.8C130.98,52.8,130.98,52.8,130.98,52.8z M21.8,47.12C21.8,47.12,21.8,47.12,21.8,47.12
			C21.8,47.12,21.8,47.12,21.8,47.12z M26.67,43.72C26.67,43.72,26.67,43.73,26.67,43.72C26.67,43.73,26.67,43.72,26.67,43.72z
			 M30.64,40.58C30.64,40.59,30.64,40.59,30.64,40.58C30.64,40.59,30.64,40.59,30.64,40.58z M126.82,40.54
			C126.82,40.55,126.82,40.55,126.82,40.54C126.82,40.55,126.82,40.55,126.82,40.54z M31.56,39.05
			C31.56,39.05,31.56,39.05,31.56,39.05C31.56,39.05,31.56,39.05,31.56,39.05z M127.03,36.9C127.03,36.91,127.03,36.91,127.03,36.9
			L127.03,36.9z M40.92,30.9L40.92,30.9C40.92,30.9,40.92,30.9,40.92,30.9z M41.36,29.7C41.36,29.7,41.36,29.7,41.36,29.7
			C41.36,29.7,41.36,29.7,41.36,29.7z M105.17,25.15C105.17,25.15,105.17,25.15,105.17,25.15
			C105.17,25.15,105.17,25.15,105.17,25.15z M110.13,24.38c0,0-0.01,0-0.01,0C110.13,24.39,110.13,24.39,110.13,24.38z M44.65,22.87
			C44.65,22.87,44.65,22.87,44.65,22.87C44.65,22.87,44.65,22.87,44.65,22.87z M120.38,18.98c0,0,0.01,0,0.01,0
			C120.38,18.99,120.38,18.99,120.38,18.98z M118.86,18.47C118.87,18.48,118.87,18.48,118.86,18.47
			C118.87,18.48,118.87,18.48,118.86,18.47z M74.98,15.51c0,0,0.01,0,0.01,0C74.99,15.51,74.98,15.51,74.98,15.51z M53.74,15.17
			c0,0-0.01,0-0.01,0.01C53.73,15.17,53.74,15.17,53.74,15.17z M70.48,14.01C70.49,14.01,70.49,14.01,70.48,14.01
			C70.49,14.01,70.49,14.01,70.48,14.01z"/>
	</g>
</g>
</svg>
