<?xml version="1.0" encoding="utf-8"?>
<!-- Generator: Adobe Illustrator 26.1.0, SVG Export Plug-In . SVG Version: 6.00 Build 0)  -->
<svg version="1.1" id="圖層_1" xmlns="http://www.w3.org/2000/svg" xmlns:xlink="http://www.w3.org/1999/xlink" x="0px" y="0px"
	 viewBox="0 0 158.39 132.94" style="enable-background:new 0 0 158.39 132.94;" xml:space="preserve">
<style type="text/css">
	.st0{fill:#A2816C;}
	.st1{fill:#D2B29A;}
</style>
<g>
	<path class="st0" d="M154.73,39.19c0.57-0.91,1.15-1.8,1.56-2.74c0.43-0.97,0.44-2.07,0.72-3.07c0.29-1.02,0.78-1.97,0.92-3
		c0.14-1.04,0.46-2.09,0.46-3.14s-0.68-2.05-0.81-3.09s-0.1-2.09-0.34-3.11c-0.25-1.01-0.24-2.12-0.59-3.11
		c-0.35-0.98-1.24-1.75-1.68-2.7c-0.45-0.95-0.73-1.97-1.26-2.87s-1.15-1.74-1.76-2.59c-0.63-0.87-1.23-1.72-1.94-2.47
		c-0.74-0.78-1.46-1.54-2.27-2.18c-0.83-0.66-1.78-1.13-2.68-1.65c-0.91-0.53-1.79-1.12-2.76-1.51s-1.92-0.94-2.94-1.2
		c-1.01-0.26-2.1-0.32-3.14-0.46c-1.04-0.13-2.1-0.29-3.15-0.31c-1.04-0.02-2.08,0.42-3.13,0.51c-1.04,0.09-2.08,0.13-3.12,0.32
		c-1.03,0.19-2.1,0.25-3.11,0.53s-1.9,0.93-2.88,1.3c-0.98,0.37-1.92,0.79-2.87,1.24c-0.95,0.45-1.92,0.84-2.82,1.37
		c-0.91,0.54-1.68,1.24-2.53,1.85c-0.86,0.62-1.81,1.26-2.6,1.94c-1.02-0.33-2.03-1.13-3.06-1.4c-1.04-0.27-2.11-0.45-3.16-0.68
		c-1.05-0.22-2.14-0.22-3.2-0.39s-2.15-0.02-3.22-0.14c-1.06-0.12-2.09-0.64-3.16-0.72c-1.07-0.07-2.14-0.11-3.22-0.14
		c-1.07-0.03-2.14,0.1-3.22,0.12c-1.07,0.02-2.13,0.29-3.2,0.35s-2.13,0.06-3.2,0.16s-2.14,0.07-3.21,0.21
		c-1.07,0.14-2.1,0.47-3.16,0.65c-1.06,0.18-2.09,0.45-3.14,0.66s-2.23-0.15-3.27,0.1c-1.04,0.25-2.09,0.53-3.12,0.81
		c-1.03,0.28-1.98,0.89-3,1.21c-1.02,0.31-2.11,0.44-3.13,0.79c-1.01,0.35-2,0.78-3.01,1.16c-1,0.38-1.99,0.69-2.98,1.1
		c-0.2-0.23-0.55-0.14-0.75-0.37c-0.71-0.78-1.16-1.83-1.96-2.52c-0.8-0.69-1.66-1.34-2.53-1.94c-0.87-0.59-2.04-0.69-2.97-1.2
		c-0.92-0.5-1.76-1.16-2.74-1.57c-0.97-0.41-1.88-1-2.89-1.31c-1-0.32-2.07-0.44-3.1-0.66s-2.06-0.47-3.11-0.6s-2.11,0.01-3.17-0.03
		s-2.09,0-3.15,0.05s-2.1,0.09-3.14,0.24c-1.05,0.15-2.12,0.16-3.14,0.41c-1.03,0.25-1.96,0.79-2.95,1.14
		c-1,0.36-1.94,0.78-2.89,1.24s-1.93,0.83-2.82,1.4c-0.89,0.56-1.64,1.3-2.46,1.97C8.77,9.83,7.8,10.32,7.07,11.1
		c-0.72,0.76-1.49,1.51-2.12,2.37c-0.62,0.84-1.11,1.79-1.63,2.73c-0.51,0.9-0.65,1.99-1.06,2.99c-0.4,0.95-0.94,1.86-1.25,2.9
		c-0.31,1.04-0.86,2.03-0.98,3.07c-0.13,1.06,0.41,2.15,0.45,3.21s-0.06,2.12,0.14,3.17c0.2,1.04,0.31,2.11,0.65,3.13
		c0.33,1.01,0.79,1.98,1.25,2.95c0.45,0.96,1.21,1.75,1.77,2.65c0.56,0.91,0.69,2.11,1.34,2.95c0.65,0.85,1.74,1.33,2.47,2.1
		c0.74,0.78,1.26,1.69,2.06,2.38c-0.49,0.86-0.95,1.68-1.39,2.57C8.33,51.14,7.81,52,7.42,52.91s-0.61,1.89-0.94,2.82
		s-0.37,1.95-0.65,2.9c-0.27,0.95-0.78,1.84-0.99,2.81c-0.21,0.98-0.33,1.99-0.51,2.99c-0.18,0.99-0.11,2.02-0.26,3.02
		c-0.14,1-0.36,1.98-0.47,2.99c-0.11,1-0.28,2-0.35,3.01s-0.29,2.01-0.32,3.02c-0.03,1.01,0.21,2.02,0.23,3.03s0.11,2.01,0.18,3.02
		c0.06,1.01,0,2.02,0.11,3.03s0.04,2.04,0.21,3.03c0.16,1,0.56,1.95,0.78,2.94c0.22,0.99,0.72,1.89,0.99,2.86
		c0.28,0.97,0.12,2.08,0.45,3.03c0.34,0.95,0.86,1.84,1.25,2.77c0.42,0.98,0.78,1.99,1.26,2.91c0.49,0.95,1.11,1.82,1.65,2.71
		c0.55,0.91,1.04,1.86,1.65,2.71c0.61,0.87,1.44,1.56,2.11,2.37c0.67,0.82,1.39,1.58,2.12,2.34c0.73,0.77,1.2,1.79,1.98,2.5
		c0.78,0.72,1.71,1.27,2.53,1.93c0.82,0.66,1.52,1.51,2.38,2.12c0.86,0.61,2.08,0.68,2.98,1.23c0.89,0.55,1.58,1.47,2.5,1.98
		c0.92,0.5,1.99,0.74,2.94,1.19c0.95,0.46,1.79,1.15,2.77,1.56c0.97,0.41,2.07,0.5,3.06,0.86c0.99,0.37,1.87,1.04,2.87,1.36
		c1,0.32,2,0.69,3.02,0.97c1.01,0.29,2.16,0.07,3.18,0.33c1.02,0.25,2.04,0.49,3.07,0.71s2,0.74,3.04,0.93
		c1.04,0.19,2.08,0.33,3.13,0.49c1.04,0.16,2.06,0.55,3.11,0.67c1.05,0.13,2.1,0.24,3.15,0.35c1.05,0.1,2.15-0.29,3.2-0.21
		c1.06,0.08,2.08,0.62,3.13,0.67c1.06,0.05,2.12,0.04,3.17,0.07c1.06,0.03,2.12-0.21,3.17-0.2c1.06,0.01,2.12,0.01,3.16,0.01
		c1.06-0.01,2.11-0.23,3.16-0.26c1.07-0.03,2.11-0.1,3.16-0.14c1.07-0.05,2.13,0.18,3.17,0.12c1.07-0.06,2.11-0.27,3.15-0.35
		c1.07-0.08,2.12-0.16,3.15-0.26c1.07-0.1,2.14,0,3.16-0.11c1.03-0.11,2.06-0.38,3.12-0.52c1.03-0.14,2.03-0.53,3.08-0.7
		c1.03-0.17,2.16,0.18,3.2-0.02c1.03-0.2,2.06-0.43,3.09-0.67c1.02-0.23,1.94-0.92,2.96-1.18c1.01-0.27,2.14-0.14,3.16-0.44
		c1.01-0.3,2.02-0.62,3.02-0.95c1-0.33,2.03-0.6,3.02-0.97s1.9-0.94,2.87-1.35c0.97-0.41,1.94-0.82,2.9-1.27
		c0.96-0.44,1.94-0.84,2.88-1.32c0.94-0.49,1.82-1.08,2.73-1.61c0.91-0.53,1.91-0.94,2.79-1.51c0.89-0.57,1.54-1.5,2.39-2.11
		c0.86-0.62,1.9-0.98,2.72-1.64c0.82-0.66,1.3-1.72,2.08-2.43s1.71-1.25,2.44-2.01s1.33-1.63,2.01-2.43s1.6-1.42,2.22-2.27
		s1.08-1.82,1.64-2.71c0.55-0.89,0.77-1.97,1.25-2.91c0.48-0.93,1.21-1.74,1.62-2.71c0.41-0.96,1.03-1.86,1.37-2.87
		c0.33-0.99,0.17-2.13,0.44-3.17c0.26-1.01,0.8-1.96,0.99-3.01c0.19-1.02,0.33-2.07,0.45-3.14c0.11-1.01,0.41-2,0.48-3
		c0.08-1.01,0.11-2.03,0.15-3.03c0.04-1.01-0.51-2.03-0.51-3.03c0-1.01,0.28-2.02,0.24-3.02c-0.04-1.01,0.03-2.03-0.05-3.03
		c-0.08-1.01-0.14-2.02-0.26-3.02c-0.12-1.01-0.3-2-0.46-2.99c-0.16-1-0.38-1.99-0.58-2.97c-0.2-0.99-0.57-1.94-0.8-2.92
		c-0.24-0.98-0.42-1.98-0.7-2.94c-0.28-0.97-0.73-1.88-1.05-2.83c-0.32-0.96-0.28-2.05-0.64-2.98c-0.36-0.94-0.96-1.79-1.36-2.71
		c-0.4-0.93-0.55-1.76-0.99-2.66c0.9-0.78,1.46-1.72,2.25-2.63C153.33,41.16,154.09,40.23,154.73,39.19z"/>
	<path class="st1" d="M35.2,20.93c0.41,0.45,0.75,0.94,1.08,1.46c0.33,0.52,0.67,1.01,0.88,1.59c0.2,0.57,0.3,1.15,0.32,1.78
		c0.02,0.58,0.04,1.14-0.1,1.7c-0.14,0.56-0.39,1.07-0.66,1.58c-0.28,0.51-0.61,0.96-0.99,1.39c-0.39,0.44-0.76,0.97-1.28,1.4
		c-0.47,0.38-1.03,0.71-1.58,1.05c-0.53,0.33-1.04,0.73-1.61,1.01s-1.23,0.33-1.83,0.54s-1.18,0.49-1.79,0.63
		c-0.63,0.14-1.26,0.22-1.88,0.26c-0.65,0.04-1.28,0.01-1.89-0.09c-0.64-0.1-1.21-0.32-1.78-0.59s-1.15-0.51-1.62-0.97
		c-0.47-0.46-1-0.96-1.37-1.56c-0.35-0.57-0.5-1.29-0.75-1.94c-0.24-0.64-0.44-1.3-0.56-1.98c-0.12-0.68-0.14-1.37-0.12-2.05
		c0.02-0.7,0.04-1.4,0.23-2.04c0.19-0.64,0.34-1.29,0.63-1.84c0.31-0.58,0.89-0.97,1.3-1.44c0.43-0.49,0.73-1.12,1.24-1.49
		c0.52-0.38,1.22-0.46,1.8-0.72s1.16-0.5,1.79-0.65c0.62-0.15,1.23-0.42,1.88-0.46c0.64-0.04,1.28,0.17,1.92,0.24
		s1.26,0.15,1.88,0.32c0.62,0.17,1.21,0.4,1.79,0.66c0.59,0.27,1.27,0.38,1.79,0.75C34.45,19.83,34.77,20.45,35.2,20.93z"/>
	<path class="st1" d="M128.36,15.4c-0.5,0.34-1.07,0.6-1.48,1c-0.43,0.43-0.63,1.03-0.94,1.52c-0.32,0.51-0.69,0.98-0.85,1.54
		c-0.16,0.56-0.18,1.15-0.17,1.76c0.01,0.56-0.07,1.19,0.11,1.78c0.16,0.53,0.5,1.05,0.8,1.6c0.29,0.53,0.6,1.14,1.05,1.7
		c0.4,0.49,0.83,1.02,1.32,1.5c0.46,0.45,1.02,0.84,1.55,1.25c0.52,0.4,1.05,0.82,1.62,1.16c0.57,0.35,1.2,0.6,1.79,0.87
		c0.62,0.28,1.24,0.54,1.86,0.7c0.66,0.17,1.33,0.29,1.97,0.31c0.67,0.02,1.32-0.18,1.94-0.37c0.62-0.18,1.23-0.42,1.77-0.84
		c0.47-0.36,0.85-0.85,1.27-1.33c0.4-0.45,0.94-0.83,1.27-1.37c0.32-0.52,0.52-1.13,0.74-1.71c0.23-0.58,0.41-1.17,0.51-1.78
		c0.11-0.61,0.15-1.24,0.1-1.85c-0.05-0.67-0.11-1.33-0.28-1.93c-0.18-0.64-0.54-1.2-0.83-1.75c-0.31-0.58-0.75-1.04-1.16-1.52
		c-0.42-0.5-0.75-1.06-1.26-1.46s-1.06-0.75-1.63-1.05s-1.16-0.6-1.77-0.8s-1.27-0.28-1.9-0.38c-0.64-0.1-1.28-0.04-1.93-0.04
		s-1.32-0.2-1.95-0.08c-0.64,0.12-1.2,0.53-1.79,0.77C129.49,14.82,128.9,15.04,128.36,15.4z"/>
</g>
</svg>
