<?xml version="1.0" encoding="utf-8"?>
<!-- Generator: Adobe Illustrator 26.1.0, SVG Export Plug-In . SVG Version: 6.00 Build 0)  -->
<svg version="1.1" id="圖層_1" xmlns="http://www.w3.org/2000/svg" xmlns:xlink="http://www.w3.org/1999/xlink" x="0px" y="0px"
	 viewBox="0 0 464.26 375" style="enable-background:new 0 0 464.26 375;" xml:space="preserve">
<style type="text/css">
	.st0{fill:#9FD5C9;}
	.st1{fill:#AFBF84;}
	.st2{opacity:0.23;fill:#5F6A3D;}
	.st3{fill:#CBE7E1;}
	.st4{fill:#A5B375;}
	.st5{opacity:0.09;fill:#3D4420;}
	.st6{fill:#FFFBEE;}
	.st7{fill:#E6E2D5;}
	.st8{fill:#EACDBB;}
	.st9{fill:#EDD9D1;}
	.st10{fill:#D6B8A8;}
	.st11{fill:#CFB2A5;}
	.st12{fill:#DBC5BE;}
	.st13{fill:#B0968C;}
	.st14{opacity:0.13;fill:#492A21;}
	.st15{fill:#F1B390;}
	.st16{fill:#E9987B;}
	.st17{fill:#DD8C74;}
	.st18{opacity:0.27;fill:#A8644F;}
	.st19{opacity:0.28;fill:#B17461;}
	.st20{fill:#FDECDC;}
	.st21{fill:#EBD6C4;}
	.st22{fill:#E7977A;}
	.st23{fill:#D8866C;}
	.st24{fill:#E9CA84;}
	.st25{fill:#DBA76C;}
	.st26{fill:#DBB76E;}
	.st27{fill:#CB8F54;}
	.st28{fill:#CB725A;}
	.st29{fill:#B85F4A;}
	.st30{fill:#F5DAAA;}
	.st31{fill:#F2A890;}
	.st32{opacity:0.19;fill:#CB8F54;}
	.st33{fill:#E5BF9C;}
	.st34{fill:#CC9F76;}
	.st35{fill:#DFA68F;}
	.st36{fill:#BC885D;}
	.st37{opacity:0.16;fill:#582A14;}
	.st38{fill:#E2B890;}
	.st39{fill:#F5DBC5;}
	.st40{fill:#DFAF87;}
	.st41{opacity:0.29;fill:#582A14;}
</style>
<g>
	<circle class="st0" cx="231.45" cy="187.5" r="182.26"/>
	<path class="st1" d="M64.01,198.45c7.02,3.24,11.97,8.04,20.43,6.11c7.9-1.81,9.46-10.86,10.25-17.67
		c0.58-5.02,3.88-7.56,4.31-12.82c0.42-5.22,1.44-10.7,4.91-14.61c2.13-2.4,7.95-4.54,8.28-8.03c0.1-1.08-0.11-2.18,0.03-3.26
		c0.36-2.65,2.72-4.51,3.98-6.87c2.32-4.35,1.07-11.36,0.35-16.09c-1.06-6.97,4.16-13.37,9.89-17.47c4.5-3.23,6.82-9.09,12.29-11.02
		c6.13-2.16,14.36-1.56,19.04-6.63c4.62-5,6.1-12.31,8.52-18.4c0.54-1.36,1.09-2.74,1.28-4.2c0.52-3.86-1.47-7.6-3.69-10.8
		c-2.22-3.2-4.81-6.31-5.74-10.09c-0.42-1.72-0.48-3.5-0.54-5.27c-0.24-7.11-1.24-12.81-3.03-19.11
		c-62.23,29-105.37,92.1-105.37,165.28c0,1.33,0.02,2.66,0.05,3.99c0.02,0.02,0.04,0.05,0.06,0.07
		C53.69,195.9,58.62,195.96,64.01,198.45z"/>
	<path class="st1" d="M332.45,35.78c-9.64,7.36-19.06,15.01-28.22,22.97c-5.5,4.78-10.98,9.75-14.93,15.88
		c-3.95,6.13-6.26,13.63-4.81,20.78c1.65,8.18,8.99,16.29,7.26,25.01c-0.66,3.32-3.26,5.44-3.11,8.95
		c0.21,5.16,5.05,8.81,8.78,11.62c2.67,2.01,5.34,4.02,8.02,6.02c4.31,3.24,7.56,7.07,13.15,8.07c2.93,0.53,6.04,0.37,8.76,1.6
		c3.73,1.69,5.69,5.37,8.55,8.07c5.97,5.64,14.7,13.95,23.28,14.38c3.36,0.17,7.09-0.46,9.77,1.58c2.82,2.15,3.06,6.2,3.41,9.72
		c1.17,11.96,6.8,24.02,20.19,23.95c6.18-0.03,12.53,1.29,18.84,2.21c1.52-9.47,2.32-19.18,2.32-29.08
		C413.71,124.2,381.44,68.45,332.45,35.78z"/>
	<path class="st1" d="M158.5,171.15c3.39-1.39,7.19-1.61,10.55-3.08c0.59-0.26,1.18-0.56,1.6-1.04c0.47-0.54,0.69-1.26,0.86-1.96
		c1.4-5.75-1.28-9.65-1.16-14.9c0.09-3.93,3.1-7.87,4.62-11.16c1.32-2.86,2.57-6.45,0.65-8.94c-4.61-5.99-12.41,1.52-15.4-6.77
		c-2.11-5.86-4.31-12.03-11.89-9.13c-1.18,0.45-2.17,1.26-3.15,2.06c-3.38,2.78-7.02,5.27-10.29,7.85
		c-4.14,3.27-4.61,6.2-3.61,10.82c1.14,5.27,1.24,10.44,0.63,15.9c-0.47,4.25-1.63,8.42-3.42,12.3c-2.47,5.36-5.02,10.85-7.04,16.24
		c-0.44,1.18-0.37,2.64,0.51,3.54c0.75,0.77,1.87,0.97,2.92,1.2c3.12,0.68,6.28,2,8.21,4.55c2.39,3.15,4.64,1.59,7.45-0.51
		c3.26-2.44,5.73-5.77,8.32-8.92c2.6-3.14,5.48-6.22,9.21-7.88C158.21,171.27,158.36,171.21,158.5,171.15z"/>
	<path class="st2" d="M175.61,130.07c-0.5-0.65-1.04-1.13-1.6-1.5c-0.03,1.9-0.82,3.95-1.63,5.73c-1.52,3.29-4.52,7.22-4.62,11.16
		c-0.12,5.25,2.56,9.15,1.16,14.9c-0.17,0.7-0.39,1.42-0.86,1.96c-0.42,0.48-1.01,0.79-1.6,1.04c-3.36,1.46-7.16,1.69-10.55,3.08
		c-0.14,0.06-0.29,0.12-0.43,0.18c-3.73,1.66-6.61,4.74-9.21,7.88c-2.6,3.14-5.06,6.47-8.32,8.92c-2.81,2.1-5.06,3.65-7.45,0.51
		c-1.93-2.55-5.09-3.87-8.21-4.55c-0.26-0.06-0.52-0.11-0.78-0.17c-0.02,0.05-0.04,0.1-0.06,0.15c-0.44,1.18-0.37,2.64,0.51,3.54
		c0.75,0.77,1.87,0.97,2.92,1.2c3.12,0.68,6.28,2,8.21,4.55c2.39,3.15,4.64,1.59,7.45-0.51c3.26-2.44,5.73-5.77,8.32-8.92
		c2.6-3.14,5.48-6.22,9.21-7.88c0.14-0.06,0.28-0.12,0.43-0.18c3.39-1.39,7.19-1.61,10.55-3.08c0.59-0.26,1.18-0.56,1.6-1.04
		c0.47-0.54,0.69-1.26,0.86-1.96c1.4-5.75-1.28-9.65-1.16-14.9c0.09-3.93,3.1-7.87,4.62-11.16
		C176.28,136.15,177.53,132.57,175.61,130.07z"/>
	<path class="st1" d="M173.82,301.4c-0.06-0.01-0.12-0.02-0.17-0.03c-4.25-0.66-8.35,2.32-12.7,1.43c-3.42-0.7-6.55-2.96-9.6-5.07
		c-5.92-4.09-12.22-9.85-19.16-7.03c-3.81,1.55-5.44,5.41-9.53,6.25c-1.82,0.37-3.69,0.76-5.3,2c-7.31,5.61,1.39,16.4,5.38,20.19
		c6,5.7,12.52,8.72,19.3,12.2c1.14,0.59,2.3,1.18,3.5,1.47c4.4,1.08,8.72-1.86,12.95-3.88c3.69-1.76,7.75-1.53,11.33-3.04
		c3.75-1.58,7.28-5.91,10.41-9.1c1.36-1.39,2.79-3.08,3.01-5.39C183.58,307.86,176.2,301.83,173.82,301.4z"/>
	<path class="st1" d="M323.31,337.18c-9.45-5.2-21.04-5.75-30.13-11.55c-6.72-4.29-11.98-11.36-19.75-13.11
		c-7.27-1.64-14.59,1.87-21.97,2.96c-6.57,0.97-13.28-0.01-19.9,0.54c-9.82,0.81-19.33,5.07-26.47,11.88
		c-4.62,4.4-8.54,10.01-14.53,12.19c-3.49,1.27-7.75,1.46-10.02,4.4c-5.24,6.79,4.31,11.82,9.19,15.42
		c0.71,0.53,1.43,1.04,2.17,1.53c3.47,2.33,7.26,4.18,11.01,6.1c9.3,1.46,18.83,2.23,28.54,2.23c35.35,0,68.34-10.07,96.28-27.49
		c-0.14-0.78-0.44-1.55-0.93-2.27C325.94,338.76,324.63,337.91,323.31,337.18z"/>
	<path class="st2" d="M242.23,319.74c7.37-1.09,14.7-4.59,21.97-2.96c7.78,1.75,13.03,8.82,19.75,13.11
		c9.1,5.8,20.68,6.34,30.13,11.55c1.32,0.73,2.63,1.58,3.49,2.82c0.5,0.72,0.79,1.48,0.93,2.27c-4.94,3.08-10.04,5.92-15.28,8.52
		c8.52-3.66,16.72-7.92,24.52-12.78c-0.14-0.78-0.44-1.55-0.93-2.27c-0.86-1.24-2.17-2.09-3.49-2.82
		c-9.45-5.2-21.04-5.75-30.13-11.55c-6.72-4.29-11.98-11.36-19.75-13.11c-7.27-1.64-14.59,1.87-21.97,2.96
		c-6.57,0.97-13.28-0.01-19.9,0.54c-6.75,0.55-13.32,2.77-19.11,6.29c3.2-1.05,6.52-1.76,9.87-2.03
		C228.95,319.73,235.66,320.7,242.23,319.74z"/>
	<path class="st1" d="M375.74,255.79c-5.86,3.15-12.82,7.96-16.48,13.67c-2.45,3.81-6.59,11.29-6.72,15.89
		c-0.07,2.44,1.01,4.88,0.49,7.27c-0.41,1.88-1.76,3.4-2.81,5.01c-2.12,3.27-2.2,6.25-1.98,9.4c0.11,1.62,0.3,3.29,0.34,5.07
		c0.11,5.78-2.12,11.52-2.82,17.36c25.23-20.33,44.92-47.25,56.47-78.14C393.38,249.07,383.81,251.46,375.74,255.79z"/>
	<path class="st2" d="M163.88,56.69c-2.22-3.2-4.81-6.31-5.74-10.09c-0.42-1.72-0.48-3.5-0.54-5.27
		c-0.24-7.11-1.24-12.81-3.03-19.11c-2.14,1-4.25,2.04-6.34,3.12c0.96,4.38,1.54,8.75,1.71,13.85c0.06,1.77,0.12,3.55,0.54,5.27
		c0.93,3.78,3.52,6.89,5.74,10.09c2.22,3.2,4.21,6.94,3.69,10.8c-0.2,1.45-0.74,2.83-1.28,4.2c-2.42,6.09-3.91,13.41-8.52,18.4
		c-4.68,5.07-12.91,4.47-19.04,6.63c-5.47,1.93-7.79,7.8-12.29,11.02c-5.73,4.1-10.94,10.5-9.89,17.47
		c0.72,4.73,1.97,11.75-0.35,16.09c-1.26,2.36-3.62,4.22-3.98,6.87c-0.15,1.08,0.07,2.17-0.03,3.26c-0.33,3.49-6.15,5.63-8.28,8.03
		c-3.47,3.92-4.49,9.4-4.91,14.61c-0.43,5.26-3.72,7.8-4.31,12.82c-0.79,6.81-2.35,15.86-10.25,17.67
		c-1.57,0.36-3.02,0.49-4.39,0.43c3.57,1.73,7.24,2.81,12.05,1.71c7.9-1.81,9.46-10.86,10.25-17.67c0.58-5.02,3.88-7.56,4.31-12.82
		c0.42-5.22,1.44-10.7,4.91-14.61c2.13-2.4,7.95-4.54,8.28-8.03c0.1-1.08-0.11-2.18,0.03-3.26c0.36-2.65,2.72-4.51,3.98-6.87
		c2.32-4.35,1.07-11.36,0.35-16.09c-1.06-6.97,4.16-13.37,9.89-17.47c4.5-3.23,6.82-9.09,12.29-11.02
		c6.13-2.16,14.36-1.56,19.04-6.63c4.62-5,6.1-12.31,8.52-18.4c0.54-1.36,1.09-2.74,1.28-4.2C168.1,63.62,166.11,59.89,163.88,56.69
		z"/>
	<path class="st2" d="M377.65,182.11c-0.34-3.53-0.59-7.57-3.41-9.72c-2.67-2.04-6.41-1.41-9.77-1.58
		c-8.58-0.43-17.3-8.74-23.28-14.38c-2.86-2.7-4.83-6.38-8.55-8.07c-2.71-1.23-5.83-1.07-8.76-1.6c-5.59-1.01-8.84-4.83-13.15-8.07
		c-2.67-2.01-5.34-4.02-8.02-6.02c-3.74-2.81-8.57-6.45-8.78-11.62c-0.14-3.51,2.45-5.63,3.11-8.95c1.73-8.72-5.61-16.83-7.26-25.01
		c-1.12-5.54,0.02-11.29,2.43-16.45c-1.03,1.28-2.01,2.6-2.9,3.98c-3.95,6.13-6.26,13.63-4.81,20.78
		c1.65,8.18,8.99,16.29,7.26,25.01c-0.66,3.32-3.26,5.44-3.11,8.95c0.21,5.16,5.05,8.81,8.78,11.62c2.67,2.01,5.34,4.02,8.02,6.02
		c4.31,3.24,7.56,7.07,13.15,8.07c2.93,0.53,6.04,0.37,8.76,1.6c3.73,1.69,5.69,5.37,8.55,8.07c5.97,5.64,14.7,13.95,23.28,14.38
		c3.36,0.17,7.09-0.46,9.77,1.58c2.82,2.15,3.06,6.2,3.41,9.72c1.17,11.96,6.8,24.02,20.19,23.95c6.18-0.03,12.53,1.29,18.84,2.21
		c0.47-2.96,0.85-5.95,1.18-8.95c-4.95-0.79-9.9-1.6-14.73-1.57C384.45,206.13,378.81,194.07,377.65,182.11z"/>
	<path class="st2" d="M180.9,306.64c-0.51,1.72-1.65,3.07-2.77,4.2c-3.13,3.19-6.66,7.52-10.41,9.1c-3.57,1.51-7.64,1.28-11.33,3.04
		c-4.23,2.01-8.54,4.96-12.95,3.88c-1.2-0.3-2.35-0.89-3.5-1.47c-6.79-3.48-13.31-6.5-19.3-12.2c-1.7-1.62-4.25-4.5-6.06-7.72
		c0.52,5.24,5.43,11.09,8.16,13.68c6,5.7,12.52,8.72,19.3,12.2c1.14,0.59,2.3,1.18,3.5,1.47c4.4,1.08,8.72-1.86,12.95-3.88
		c3.69-1.76,7.75-1.53,11.33-3.04c3.75-1.58,7.28-5.91,10.41-9.1c1.36-1.39,2.79-3.08,3.01-5.39
		C183.37,310.04,182.34,308.29,180.9,306.64z"/>
	<path class="st2" d="M354.61,305.33c-0.22-3.15-0.13-6.12,1.98-9.4c1.05-1.62,2.4-3.13,2.81-5.01c0.52-2.38-0.56-4.83-0.49-7.27
		c0.14-4.6,4.27-12.08,6.72-15.89c3.67-5.71,10.62-10.52,16.48-13.67c2.21-1.19,4.55-2.23,6.94-3.07
		c-4.64,0.83-9.18,2.54-13.33,4.77c-5.86,3.15-12.82,7.96-16.48,13.67c-2.45,3.81-6.59,11.29-6.72,15.89
		c-0.07,2.44,1.01,4.88,0.49,7.27c-0.41,1.88-1.76,3.4-2.81,5.01c-2.12,3.27-2.2,6.25-1.98,9.4c0.11,1.62,0.3,3.29,0.34,5.07
		c0.11,5.78-2.12,11.52-2.82,17.36c2.44-1.97,4.81-4.01,7.15-6.1c0.92-4.34,2.14-8.64,2.06-12.96
		C354.92,308.62,354.72,306.95,354.61,305.33z"/>
	<path class="st3" d="M165.47,36.58c0.75,4.39,2.31,8.34,4.68,11.6c2.67,3.23,6.23,7.35,6.83,11.9c1.49,9.29-1.3,18.17-5.48,26.21
		c0.6-8.4,2.44-17.19,1.05-25.33c-0.68-4.39-3.25-6.99-5.43-10.95C164.98,45.8,164.31,40.92,165.47,36.58L165.47,36.58z"/>
	<path class="st3" d="M163.12,94.36c-1.21,6.14-5.93,12.61-12.69,13.04c-2.91,0.37-5.27,0.25-7.87,1.39c-2.41,1-4.76,2.79-7.43,4.34
		c1.27-2.78,2.94-5.4,5.62-7.41c2.47-1.98,6.17-2.49,9.08-2.81C155.69,102.49,158.87,98.13,163.12,94.36L163.12,94.36z"/>
	<path class="st3" d="M272.67,92.75c1.05,5.02,3.57,9.15,5.6,13.89c2.29,4.62,3.02,10.68,2.09,15.68c-0.7,4.82-1.2,9.07,1.06,13.45
		c2.06,4.14,5.62,7.77,8.96,11.62c-6.72-3.45-14.17-9.3-14.89-17.69c-0.53-5.19,1.19-10.07,0.83-14.95
		C275.79,107.51,271.42,100.24,272.67,92.75L272.67,92.75z"/>
	<path class="st3" d="M302.9,157.65c4.76,3.16,9.56,4.46,15.21,5.18c6.08,0.67,10.6,6.12,13.76,10.69
		c3.07,4.33,6.78,7.97,11.12,11.03c4.35,3.02,9.22,5.36,14.55,7.05c-5.61,0.18-11.31-1.33-16.39-4.03
		c-5.1-2.65-9.62-6.69-12.93-11.36c-1.65-2.26-3.14-4.46-4.86-6.24c-2.59-2.99-6.37-3.77-10.09-4.94
		C309.23,163.59,305.46,161.04,302.9,157.65L302.9,157.65z"/>
	<path class="st3" d="M186.34,147.4c-8.31,10.33,4.86,18.35-6.18,28.36c-5.82,5.29-13.9,5.36-20.46,8.9
		c-2.06,1.08-3.91,2.55-5.37,4.57c0.54-2.46,2.16-4.66,4.08-6.38c5.27-4.81,13.91-6.06,18.73-10.47c3.67-3.09,4.03-6.63,3.41-11.39
		C179.74,155.94,181.66,149.89,186.34,147.4L186.34,147.4z"/>
	<path class="st3" d="M288.06,308.97c5.44-1.48,10.8,1.99,14.71,5.38c3.98,2.87,8.34,4.38,13.36,5.35
		c-4.99,2.71-11.48,1.62-16.02-1.69C296.03,314.56,293.17,311.2,288.06,308.97L288.06,308.97z"/>
	<path class="st3" d="M349.18,261.91c-0.74,5.65-4.07,10.83-3.12,16.68c0.27,1.77,1.1,3.59,0.69,5.7c-0.49,2.84-2.88,5.07-4.03,7.17
		c-1.57,2.58-0.7,6.91-2.86,9.49c0.41-3.67-1.73-7.15-0.44-10.82c0.77-2.64,2.47-4.28,2.92-6.56c0.13-1.34-0.61-2.85-0.71-4.45
		C340.9,272.28,345.18,266.86,349.18,261.91L349.18,261.91z"/>
	<circle class="st4" cx="121.41" cy="68.74" r="3.21"/>
	<circle class="st4" cx="148.89" cy="149.09" r="2.74"/>
	<circle class="st4" cx="334.29" cy="116.38" r="2.74"/>
	<circle class="st4" cx="226.51" cy="347.33" r="2.74"/>
	<circle class="st4" cx="140.01" cy="156.28" r="1.37"/>
	<circle class="st4" cx="148.96" cy="313.39" r="2.67"/>
	
		<ellipse transform="matrix(0.7071 -0.7071 0.7071 0.7071 -89.1631 92.0548)" class="st4" cx="66.54" cy="153.66" rx="6.43" ry="5.19"/>
	
		<ellipse transform="matrix(0.7448 -0.6673 0.6673 0.7448 -26.8466 90.5027)" class="st4" cx="104.9" cy="80.35" rx="10.89" ry="7.77"/>
	
		<ellipse transform="matrix(0.9137 -0.4063 0.4063 0.9137 -29.374 172.9909)" class="st4" cx="392.74" cy="155.68" rx="6.6" ry="9.25"/>
	<circle class="st4" cx="378.03" cy="143.97" r="4.6"/>
	
		<ellipse transform="matrix(0.6005 -0.7996 0.7996 0.6005 -194.2001 232.5698)" class="st4" cx="135.66" cy="310.64" rx="3.51" ry="4.69"/>
	<circle class="st4" cx="273.83" cy="347.33" r="4.6"/>
	
		<ellipse transform="matrix(0.5652 -0.8249 0.8249 0.5652 -201.2171 325.9935)" class="st4" cx="208.66" cy="353.89" rx="4.6" ry="6.59"/>
	<circle class="st4" cx="375.86" cy="276.42" r="3.78"/>
	
		<ellipse transform="matrix(0.7795 -0.6263 0.6263 0.7795 28.8668 245.0484)" class="st4" cx="362.54" cy="81.52" rx="3.87" ry="5.28"/>
	<path class="st5" d="M380.14,82.08c5.71,17.2,8.8,35.59,8.8,54.71c0,95.92-77.76,173.69-173.69,173.69
		C137.1,310.47,71,258.84,49.2,187.83c0.18,100.51,81.7,181.93,182.25,181.93c100.66,0,182.26-81.6,182.26-182.26
		C413.71,148.22,401.28,111.84,380.14,82.08z"/>
	<path class="st6" d="M362.54,39.46c0-9.85-9.51-17.83-21.25-17.83c-3.91,0-7.55,0.9-10.7,2.44c-5.6-9.96-16.61-16.73-29.28-16.73
		c-12.03,0-22.56,6.11-28.39,15.25c-4.7-3.75-10.81-6.03-17.51-6.03c-12.87,0-23.61,8.36-26.22,19.52
		c-0.21-0.01-0.41-0.02-0.62-0.02c-6.85,0-12.41,4.45-12.41,9.94c0,5.49,5.56,9.94,12.41,9.94c1.63,0,3.18-0.26,4.61-0.72
		c4.83,6.57,12.98,10.89,22.23,10.89c2.37,0,4.66-0.31,6.86-0.85c2.93,5.83,8.95,9.84,15.92,9.84c5.19,0,9.85-2.23,13.11-5.78
		c3.16,0.95,6.52,1.47,10.01,1.47c6.26,0,12.11-1.66,17.11-4.53c2.75,2.23,6.26,3.57,10.08,3.57c7.73,0,14.18-5.47,15.7-12.75
		C354.56,55.91,362.54,48.48,362.54,39.46z"/>
	<path class="st6" d="M25.38,201.56c0-7.25,7-13.12,15.64-13.12c2.87,0,5.56,0.66,7.87,1.8c4.12-7.33,12.23-12.31,21.55-12.31
		c8.85,0,16.6,4.49,20.9,11.22c3.46-2.76,7.96-4.44,12.89-4.44c9.47,0,17.38,6.16,19.3,14.37c0.15-0.01,0.3-0.02,0.46-0.02
		c5.04,0,9.13,3.28,9.13,7.32c0,4.04-4.09,7.32-9.13,7.32c-1.2,0-2.34-0.19-3.39-0.53c-3.55,4.84-9.55,8.02-16.36,8.02
		c-1.75,0-3.43-0.23-5.05-0.62c-2.16,4.29-6.59,7.24-11.72,7.24c-3.82,0-7.25-1.64-9.65-4.25c-2.33,0.7-4.8,1.08-7.37,1.08
		c-4.61,0-8.91-1.22-12.59-3.33c-2.03,1.64-4.61,2.63-7.42,2.63c-5.69,0-10.44-4.03-11.56-9.38
		C31.26,213.66,25.38,208.19,25.38,201.56z"/>
	<path class="st6" d="M319.51,269.64c0-5.3-4.29-9.59-9.59-9.59c-2.73,0-5.18,1.14-6.93,2.97c-0.59-0.1-1.19-0.16-1.82-0.16
		c-4.71,0-8.52,3.04-8.52,6.78c0,2.44,1.62,4.57,4.05,5.76c-0.38,1.17-0.46,2.44-0.14,3.72c0.91,3.63,4.59,5.84,8.23,4.93
		c1.01-0.25,1.9-0.74,2.65-1.36c1,1.2,2.48,1.98,4.16,1.98c3.01,0,5.45-2.44,5.45-5.45c0-0.92-0.25-1.77-0.65-2.53
		C318.31,274.95,319.51,272.44,319.51,269.64z"/>
	<path class="st6" d="M104.95,152.53c-1.15-3.6-4.85-6.23-9.25-6.23c-5.31,0-9.62,3.84-9.62,8.58c0,0.79,0.13,1.56,0.36,2.29
		c-2.4,1.56-3.97,4.08-3.97,6.94c0,4.74,4.31,8.58,9.62,8.58c3.45,0,6.47-1.63,8.17-4.07c1.38,0.68,2.96,1.07,4.65,1.07
		c5.31,0,9.62-3.84,9.62-8.58C114.53,156.39,110.24,152.55,104.95,152.53z"/>
	<path class="st7" d="M111.02,154.49c0.18,0.66,0.29,1.34,0.29,2.04c0,4.74-4.31,8.58-9.62,8.58c-1.69,0-3.27-0.39-4.65-1.07
		c-1.7,2.44-4.72,4.07-8.17,4.07c-2.32,0-4.45-0.73-6.11-1.96c1.03,3.75,4.81,6.54,9.33,6.54c3.45,0,6.47-1.63,8.17-4.07
		c1.38,0.68,2.96,1.07,4.65,1.07c5.31,0,9.62-3.84,9.62-8.58C114.53,158.45,113.17,156.06,111.02,154.49z"/>
	<path class="st6" d="M417.96,219.88c-1.22,0-2.4,0.13-3.56,0.33c-5.14-9.69-15.32-16.3-27.05-16.3c-11.61,0-21.72,6.47-26.91,16
		c-3.7-2.19-8.01-3.47-12.62-3.47c-11.36,0-20.92,7.62-23.89,18.03c-0.61-0.08-1.24-0.13-1.88-0.13c-7.17,0-12.97,5.15-12.97,11.5
		c0,6.35,5.81,11.5,12.97,11.5c2.09,0,4.06-0.45,5.81-1.23c4.53,6.11,11.77,10.08,19.96,10.08c2.92,0,5.72-0.53,8.32-1.46
		c2.84,2.45,6.53,3.94,10.57,3.94c4.54,0,8.64-1.87,11.58-4.88c2.86,0.89,5.9,1.36,9.06,1.36c7.29,0,13.98-2.56,19.24-6.82
		c3.28,2.13,7.18,3.38,11.37,3.38c11.55,0,20.91-9.36,20.91-20.91C438.88,229.24,429.51,219.88,417.96,219.88z"/>
	<path class="st7" d="M130.54,201.29c-0.15,3.93-4.17,7.09-9.12,7.09c-1.2,0-2.34-0.19-3.39-0.53c-3.55,4.84-9.55,8.02-16.36,8.02
		c-1.75,0-3.43-0.23-5.05-0.62c-2.16,4.29-6.59,7.24-11.72,7.24c-3.82,0-7.25-1.64-9.65-4.25c-2.33,0.7-4.8,1.08-7.37,1.08
		c-4.61,0-8.91-1.22-12.59-3.33c-2.03,1.64-4.61,2.63-7.42,2.63c-5.69,0-10.44-4.03-11.56-9.38c-4.45-0.51-8.29-2.59-10.72-5.55
		c1.1,5.65,6.49,10.08,13.28,10.86c1.12,5.36,5.87,9.38,11.56,9.38c2.81,0,5.39-0.99,7.42-2.63c3.68,2.11,7.99,3.33,12.59,3.33
		c2.57,0,5.04-0.38,7.37-1.08c2.4,2.61,5.83,4.25,9.65,4.25c5.13,0,9.56-2.95,11.72-7.24c1.61,0.39,3.3,0.62,5.05,0.62
		c6.81,0,12.81-3.18,16.36-8.02c1.05,0.34,2.19,0.53,3.39,0.53c5.04,0,9.13-3.28,9.13-7.32
		C133.11,204.4,132.13,202.61,130.54,201.29z"/>
	<path class="st7" d="M429.82,223.57c1.97,3.19,3.12,6.93,3.12,10.96c0,11.55-9.36,20.91-20.91,20.91c-4.2,0-8.1-1.25-11.37-3.38
		c-5.26,4.26-11.95,6.82-19.24,6.82c-3.15,0-6.19-0.48-9.06-1.36c-2.94,3.01-7.04,4.88-11.58,4.88c-4.04,0-7.73-1.49-10.57-3.94
		c-2.61,0.93-5.4,1.46-8.32,1.46c-8.19,0-15.43-3.97-19.96-10.08c-1.75,0.78-3.72,1.23-5.81,1.23c-2.29,0-4.44-0.53-6.31-1.45
		c1.77,4.49,6.57,7.72,12.24,7.72c2.09,0,4.06-0.45,5.81-1.23c4.53,6.11,11.77,10.08,19.96,10.08c2.92,0,5.72-0.53,8.32-1.46
		c2.84,2.45,6.53,3.94,10.57,3.94c4.54,0,8.64-1.87,11.58-4.88c2.86,0.89,5.9,1.36,9.06,1.36c7.29,0,13.98-2.56,19.24-6.82
		c3.28,2.13,7.18,3.38,11.37,3.38c11.55,0,20.91-9.36,20.91-20.91C438.88,233.64,435.29,227.34,429.82,223.57z"/>
	<path class="st7" d="M319.51,269.64c0-3.76-2.17-7.01-5.33-8.58c0.85,1.43,1.34,3.09,1.34,4.87c0,2.8-1.21,5.31-3.12,7.06
		c0.4,0.76,0.65,1.61,0.65,2.53c0,3.01-2.44,5.45-5.45,5.45c-1.68,0-3.17-0.78-4.16-1.98c-0.75,0.62-1.64,1.1-2.65,1.36
		c-1.33,0.33-2.66,0.24-3.86-0.18c1.3,2.99,4.58,4.71,7.85,3.89c1.01-0.25,1.9-0.74,2.65-1.36c1,1.2,2.48,1.98,4.16,1.98
		c3.01,0,5.45-2.44,5.45-5.45c0-0.92-0.25-1.77-0.65-2.53C318.31,274.95,319.51,272.44,319.51,269.64z"/>
	<path class="st7" d="M357.04,27.53c0.12,0.77,0.21,1.56,0.21,2.36c0,9.01-7.98,16.45-18.34,17.64c-1.52,7.28-7.97,12.75-15.7,12.75
		c-3.82,0-7.32-1.34-10.08-3.57c-5,2.87-10.85,4.53-17.11,4.53c-3.49,0-6.85-0.52-10.01-1.47c-3.26,3.54-7.92,5.78-13.11,5.78
		c-6.97,0-12.99-4.01-15.92-9.84c-2.19,0.53-4.48,0.85-6.86,0.85c-9.25,0-17.4-4.32-22.23-10.89c-1.43,0.46-2.98,0.72-4.61,0.72
		c-2.59,0-5-0.64-6.99-1.73c-0.08,0.45-0.13,0.9-0.13,1.36c0,5.49,5.56,9.94,12.41,9.94c1.63,0,3.18-0.26,4.61-0.72
		c4.83,6.57,12.98,10.89,22.23,10.89c2.37,0,4.66-0.31,6.86-0.85c2.93,5.83,8.95,9.84,15.92,9.84c5.19,0,9.85-2.23,13.11-5.78
		c3.16,0.95,6.52,1.47,10.01,1.47c6.26,0,12.11-1.66,17.11-4.53c2.75,2.23,6.26,3.57,10.08,3.57c7.73,0,14.18-5.47,15.7-12.75
		c10.35-1.19,18.34-8.62,18.34-17.64C362.54,34.86,360.45,30.69,357.04,27.53z"/>
	<path class="st3" d="M118.2,285.5c4.52-4.78,10.77-8.35,17.63-8.51c11.56,0.36,17.39,12.76,28.72,12.97
		c-1.94,0.98-4.29,1.18-6.52,0.88c-6.37-0.81-11.96-5.58-17.23-8.02C133.43,279.13,125.51,282.73,118.2,285.5L118.2,285.5z"/>
	<path class="st3" d="M172.28,294.94c4.5-3.49,12.14,0.44,11.87,6.15C179.46,299.65,176.16,297.92,172.28,294.94L172.28,294.94z"/>
	<path class="st3" d="M206.41,317.13c3.83-9.06,15.23-12.51,24.37-12.01c7.37,0.46,14.53,3.7,21.69,1.72
		c6.58-2.25,15.3-9.74,21.36-2.09c-7.41-5.24-13.31,3.31-20.04,5.83c-4.61,1.88-10.03,1.3-14.62,0.43
		c-5.9-1.26-11.43-2.5-17.34-1.49C216.14,310.34,210.37,312.3,206.41,317.13L206.41,317.13z"/>
	<path class="st7" d="M81.54,212.92c-4.57-0.48-9-2.7-11.06-6.97c4.1,1.24,8.16,2.86,12.52,2.34c4.38-0.52,8.51-2.83,11.24-6.29
		c4,3.3,10.05,3.86,14.59,1.35c-1.75,1.8-3.72,3.47-6.07,4.38c-2.34,0.91-5.12,0.97-7.28-0.32
		C92.16,211.41,86.72,213.46,81.54,212.92z"/>
	<path class="st7" d="M385.13,246.71c-4.78-0.48-9.42-2.7-11.57-6.97c4.29,1.24,8.54,2.86,13.11,2.34
		c4.58-0.52,8.91-2.83,11.77-6.29c4.19,3.3,10.52,3.86,15.27,1.35c-1.83,1.8-3.9,3.47-6.35,4.38c-2.45,0.91-5.36,0.97-7.62-0.32
		C396.25,245.2,390.55,247.25,385.13,246.71z"/>
	<path class="st7" d="M286.32,44.43c4.71,1.07,9.32,1.28,14.1,1.4c4.18,0.1,8.62-1.11,12.46-2.71c0.84-0.35,9.22-5.81,8.1-6.7
		c5.03,3.97,13.02,3.47,17.52-1.09c-0.5,3.36-2.85,6.31-5.87,7.88c-2.61,1.35-7.23,2.15-9.88,0.64c-0.22-0.12-0.46-0.27-0.7-0.2
		c-0.17,0.04-0.3,0.18-0.42,0.3c-7.26,7.47-16.41,8.93-26.22,6.22c-1.49-0.41-2.97-0.92-4.32-1.67
		C289.26,47.47,287.69,46.02,286.32,44.43z"/>
</g>
</svg>
