<svg width="22" height="12" viewBox="0 0 22 12" fill="none" xmlns="http://www.w3.org/2000/svg">
<rect width="22" height="12" rx="5" fill="#18191F" fill-opacity="0.5"/>
<path d="M4.07594 8.98349C3.88888 8.98349 3.74613 8.92572 3.64768 8.81018C3.54923 8.69464 3.5 8.53232 3.5 8.32325V3.74278C3.5 3.30812 3.69444 3.09078 4.08332 3.09078H5.87759C6.45845 3.09078 6.9064 3.25585 7.22145 3.58597C7.53649 3.91059 7.69401 4.36451 7.69401 4.94773C7.69401 5.53095 7.53649 5.98762 7.22145 6.31774C6.9064 6.64787 6.45845 6.81293 5.87759 6.81293H4.64449V8.32325C4.64449 8.53232 4.59527 8.69464 4.49682 8.81018C4.40329 8.92572 4.26299 8.98349 4.07594 8.98349ZM4.64449 5.82256H5.68561C6.29108 5.82256 6.59382 5.53095 6.59382 4.94773C6.59382 4.37552 6.29108 4.08941 5.68561 4.08941H4.64449V5.82256Z" fill="#FFBA49"/>
<path d="M8.97926 8.98349C8.7922 8.98349 8.64945 8.92572 8.55099 8.81018C8.45254 8.69464 8.40332 8.53232 8.40332 8.32325V3.74278C8.40332 3.30812 8.59776 3.09078 8.98664 3.09078H10.7809C11.3618 3.09078 11.8097 3.24759 12.1248 3.56121C12.4398 3.87483 12.5973 4.31224 12.5973 4.87345C12.5973 5.30812 12.4964 5.67125 12.2946 5.96286C12.0977 6.24897 11.8146 6.44429 11.4455 6.54883C11.7063 6.63686 11.9205 6.84869 12.0878 7.18432L12.5456 8.13342C12.649 8.3425 12.6687 8.53783 12.6047 8.71939C12.5407 8.89546 12.3857 8.98349 12.1395 8.98349C11.9771 8.98349 11.8442 8.94498 11.7408 8.86795C11.6374 8.79092 11.5488 8.67263 11.475 8.51307L10.7661 7.05227C10.6923 6.89821 10.6012 6.79367 10.4929 6.73865C10.3846 6.68363 10.2567 6.65612 10.109 6.65612H9.54781V8.32325C9.54781 8.53232 9.49858 8.69464 9.40013 8.81018C9.3066 8.92572 9.16631 8.98349 8.97926 8.98349ZM9.54781 5.73177H10.5742C11.1895 5.73177 11.4971 5.45667 11.4971 4.90647C11.4971 4.36176 11.1895 4.08941 10.5742 4.08941H9.54781V5.73177Z" fill="#FFBA49"/>
<path d="M15.923 9C15.4111 9 14.9607 8.8762 14.5718 8.62861C14.1878 8.37552 13.8876 8.02613 13.671 7.58047C13.4593 7.1293 13.3535 6.6011 13.3535 5.99587C13.3535 5.39065 13.4593 4.8652 13.671 4.41953C13.8876 3.96836 14.1878 3.61898 14.5718 3.37139C14.9558 3.1238 15.4062 3 15.923 3C16.4399 3 16.8903 3.1238 17.2743 3.37139C17.6632 3.61898 17.9634 3.96836 18.1751 4.41953C18.3917 4.8652 18.5 5.3879 18.5 5.98762C18.5 6.59285 18.3917 7.12105 18.1751 7.57221C17.9634 8.02338 17.6632 8.37552 17.2743 8.62861C16.8903 8.8762 16.4399 9 15.923 9ZM15.923 7.91059C16.3562 7.91059 16.6934 7.74278 16.9346 7.40715C17.1808 7.06602 17.3038 6.5956 17.3038 5.99587C17.3038 5.39065 17.1832 4.92297 16.942 4.59285C16.7008 4.25722 16.3612 4.08941 15.923 4.08941C15.4948 4.08941 15.1576 4.25722 14.9115 4.59285C14.6703 4.92297 14.5497 5.39065 14.5497 5.99587C14.5497 6.5956 14.6703 7.06602 14.9115 7.40715C15.1576 7.74278 15.4948 7.91059 15.923 7.91059Z" fill="#FFBA49"/>
</svg>
