<?xml version="1.0" encoding="utf-8"?>
<!-- Generator: Adobe Illustrator 26.1.0, SVG Export Plug-In . SVG Version: 6.00 Build 0)  -->
<svg version="1.1" id="圖層_1" xmlns="http://www.w3.org/2000/svg" xmlns:xlink="http://www.w3.org/1999/xlink" x="0px" y="0px"
	 viewBox="0 0 82.62 90.99" style="enable-background:new 0 0 82.62 90.99;" xml:space="preserve">
<style type="text/css">
	.st0{fill:none;stroke:#E0E2E2;stroke-width:2;stroke-linecap:round;stroke-linejoin:round;stroke-miterlimit:10;}
	.st1{fill:#FBAEC2;}
	.st2{fill:#FFFBF3;}
	.st3{fill:#C3E2C3;}
	.st4{fill:#DDBADA;}
	.st5{fill:#FFC999;}
	.st6{clip-path:url(#SVGID_00000147198137232671084430000002879275008959509908_);}
	.st7{fill:none;stroke:#FFFFFF;stroke-miterlimit:10;}
	.st8{fill:#97E1DF;}
	.st9{clip-path:url(#SVGID_00000072984022481450873010000008852239875396826278_);}
</style>
<g>
	<line class="st0" x1="1" y1="3.06" x2="81.62" y2="3.06"/>
	<g>
		<path class="st1" d="M75.2,90.9L41.66,73.59c-0.22-0.11-0.48-0.11-0.71,0L7.42,90.9C6.91,91.17,6.3,90.8,6.3,90.22V0.77
			C6.3,0.34,6.64,0,7.07,0h68.48c0.43,0,0.77,0.34,0.77,0.77v89.45C76.32,90.8,75.71,91.17,75.2,90.9z"/>
		<circle class="st2" cx="41.31" cy="35.99" r="30.57"/>
	</g>
</g>
<g>
	<g>
		<defs>
			<path id="SVGID_1_" d="M179.86,90.9l-33.54-17.31c-0.22-0.11-0.48-0.11-0.71,0L112.08,90.9c-0.51,0.26-1.12-0.11-1.12-0.68V0.77
				c0-0.43,0.34-0.77,0.77-0.77h68.48c0.43,0,0.77,0.34,0.77,0.77v89.45C180.98,90.8,180.37,91.17,179.86,90.9z"/>
		</defs>
		<clipPath id="SVGID_00000022553699291387476670000003616292895075036305_">
			<use xlink:href="#SVGID_1_"  style="overflow:visible;"/>
		</clipPath>
		<g style="clip-path:url(#SVGID_00000022553699291387476670000003616292895075036305_);">
			<line class="st7" x1="66.33" y1="54.35" x2="152.45" y2="-31.77"/>
			<line class="st7" x1="72.77" y1="60.79" x2="158.89" y2="-25.33"/>
			<line class="st7" x1="79.21" y1="67.24" x2="165.34" y2="-18.88"/>
		</g>
	</g>
</g>
</svg>
