<svg width="78" height="78" viewBox="0 0 78 78" fill="currentColor" xmlns="http://www.w3.org/2000/svg">
<path d="M39.4797 34.9633C39.4227 34.8905 39.3499 34.8316 39.2667 34.7911C39.1836 34.7505 39.0923 34.7295 38.9998 34.7295C38.9074 34.7295 38.8161 34.7505 38.7329 34.7911C38.6498 34.8316 38.577 34.8905 38.52 34.9633L29.9887 45.7569C29.9184 45.8467 29.8747 45.9545 29.8628 46.0679C29.8508 46.1814 29.871 46.2959 29.9211 46.3984C29.9712 46.5009 30.049 46.5872 30.1459 46.6475C30.2427 46.7079 30.3545 46.7397 30.4686 46.7395H36.0977V65.2035C36.0977 65.5387 36.3719 65.8129 36.7071 65.8129H41.2774C41.6125 65.8129 41.8868 65.5387 41.8868 65.2035V46.7471H47.5311C48.0414 46.7471 48.3233 46.1606 48.011 45.7645L39.4797 34.9633Z"/>
<path d="M61.8059 27.9322C58.3172 18.7307 49.4279 12.1875 39.0152 12.1875C28.6025 12.1875 19.7133 18.723 16.2246 27.9246C9.69668 29.6385 4.875 35.5875 4.875 42.6562C4.875 51.0732 11.6924 57.8906 20.1018 57.8906H23.1562C23.4914 57.8906 23.7656 57.6164 23.7656 57.2812V52.7109C23.7656 52.3758 23.4914 52.1016 23.1562 52.1016H20.1018C17.5348 52.1016 15.1201 51.0809 13.3225 49.2299C11.5324 47.3865 10.5803 44.9033 10.6641 42.3287C10.7326 40.3178 11.4182 38.4287 12.6598 36.8367C13.9318 35.2143 15.7143 34.0336 17.6947 33.508L20.5816 32.7539L21.6404 29.966C22.2955 28.2293 23.2096 26.6068 24.3598 25.1367C25.4953 23.6796 26.8403 22.3987 28.3512 21.3357C31.4818 19.1344 35.1686 17.9689 39.0152 17.9689C42.8619 17.9689 46.5486 19.1344 49.6793 21.3357C51.1951 22.4021 52.5357 23.6818 53.6707 25.1367C54.8209 26.6068 55.735 28.2369 56.39 29.966L57.4412 32.7463L60.3205 33.508C64.449 34.6201 67.3359 38.3754 67.3359 42.6562C67.3359 45.1775 66.3533 47.5541 64.5709 49.3365C63.6968 50.2158 62.6569 50.9129 61.5116 51.3875C60.3662 51.8621 59.138 52.1048 57.8982 52.1016H54.8438C54.5086 52.1016 54.2344 52.3758 54.2344 52.7109V57.2812C54.2344 57.6164 54.5086 57.8906 54.8438 57.8906H57.8982C66.3076 57.8906 73.125 51.0732 73.125 42.6562C73.125 35.5951 68.3186 29.6537 61.8059 27.9322Z"/>
</svg>