<svg width="24" height="24" viewBox="0 0 24 24" fill="none" xmlns="http://www.w3.org/2000/svg">
<path d="M20.3531 12.018C20.3067 8.49982 18.2604 5.49234 15 4.21558C14.7707 4.12531 14.5774 4.01182 14.4717 3.77452C14.3377 3.47532 14.3377 3.19159 14.5567 2.93366C14.7552 2.69895 15.0774 2.62157 15.4021 2.73506C16.4459 3.10648 17.3918 3.65845 18.2346 4.3755C20.0284 5.8973 21.214 7.79567 21.6753 10.1119C22.2294 12.9053 21.616 15.4666 19.9897 17.775C18.4227 19.9958 16.2449 21.2777 13.5774 21.7291C8.07994 22.6603 3.54386 18.8893 2.40726 14.3394C1.31705 9.98551 3.51293 5.1983 7.53097 3.20707C8.9253 2.51581 10.3918 2.13923 11.9485 2.12892C12.5232 2.12634 12.8634 2.57514 12.7088 3.11164C12.6134 3.44437 12.3557 3.63782 11.9872 3.64813C9.55159 3.71777 7.50004 4.65149 5.84283 6.42605C4.5619 7.79825 3.84798 9.43611 3.69592 11.3164C3.34025 15.74 6.35314 19.3536 10.415 20.197C14.8274 21.1127 19.3454 18.0613 20.1624 13.6146C20.2578 13.0884 20.2913 12.5519 20.3531 12.018Z" fill="currentColor"/>
<path d="M11.9123 22C7.04373 22 3.27827 18.3554 2.28085 14.3704C1.17776 9.9546 3.40971 5.10291 7.47415 3.09105C8.91745 2.37658 10.4226 2.01032 11.9484 2C12.2783 2 12.5386 2.12123 12.7087 2.34305C12.8711 2.55971 12.9174 2.85117 12.8324 3.14522C12.7216 3.53211 12.4149 3.76167 11.9922 3.77457C9.60817 3.84163 7.57208 4.76244 5.93806 6.51122C4.68549 7.85246 3.97415 9.47227 3.82466 11.3242C3.48961 15.5259 6.27312 19.204 10.4406 20.0733C12.5051 20.5014 14.7345 20.0449 16.554 18.8197C18.3814 17.5894 19.652 15.6833 20.036 13.5914C20.1004 13.2355 20.1365 12.8692 20.1726 12.5107C20.1881 12.343 20.2061 12.178 20.2241 12.0129C20.1752 8.5334 18.1546 5.5904 14.9509 4.33686C14.7293 4.24916 14.4819 4.1202 14.353 3.82873C14.1881 3.45731 14.2216 3.12716 14.4587 2.85117C14.6932 2.57261 15.0721 2.48233 15.4432 2.61388C16.487 2.9853 17.4535 3.54501 18.3169 4.27753C20.1752 5.85349 21.3479 7.80861 21.7989 10.0887C22.3479 12.8538 21.7731 15.4666 20.0927 17.8499C18.5489 20.0397 16.3633 21.3861 13.5979 21.8556C13.0231 21.9536 12.4613 22 11.9123 22ZM11.9535 2.25793C11.9509 2.25793 11.9484 2.25793 11.9484 2.25793C10.4638 2.26567 8.99476 2.62419 7.58755 3.32319C3.62879 5.28347 1.45611 10.0062 2.53085 14.3085C3.61332 18.6288 8.03085 22.5391 13.5566 21.6028C16.2525 21.1462 18.3814 19.8334 19.8839 17.7003C21.5231 15.3763 22.0824 12.8305 21.5489 10.1377C21.1082 7.91695 19.9638 6.01083 18.152 4.47356C17.3118 3.76167 16.3736 3.21744 15.3607 2.85633C15.0927 2.7609 14.8221 2.8228 14.6571 3.01625C14.487 3.21744 14.4664 3.44184 14.5927 3.72298C14.6803 3.91643 14.8375 4.01186 15.0489 4.0944C18.353 5.38922 20.4355 8.42507 20.4845 12.0155V12.031C20.4638 12.1986 20.4484 12.3663 20.4329 12.5339C20.3968 12.895 20.3607 13.269 20.2937 13.6353C19.8968 15.7942 18.5875 17.7596 16.7009 19.0312C14.8247 20.2951 12.5257 20.7671 10.3917 20.3234C6.09013 19.431 3.21899 15.6368 3.56693 11.3036C3.71899 9.39231 4.45353 7.72092 5.74734 6.33583C7.43033 4.53547 9.52827 3.58628 11.9845 3.51664C12.2963 3.5089 12.5051 3.35414 12.585 3.07557C12.6468 2.85633 12.6185 2.65257 12.5025 2.50039C12.3839 2.34305 12.1906 2.25793 11.9535 2.25793Z" fill="currentColor"/>
<path d="M12.7602 13.5295C12.7602 14.5251 12.7628 15.5207 12.7602 16.5163C12.7602 16.9858 12.4355 17.3133 11.9767 17.3082C11.5437 17.3056 11.2447 16.9883 11.2422 16.5215C11.2396 14.5225 11.2396 12.521 11.2422 10.522C11.2422 10.0629 11.5695 9.72241 11.9973 9.72241C12.4277 9.72241 12.7576 10.0603 12.7602 10.5168C12.7628 11.5202 12.7602 12.5235 12.7602 13.5295Z" fill="currentColor"/>
<path d="M11.9847 17.4372C11.9822 17.4372 11.9796 17.4372 11.977 17.4372C11.4693 17.432 11.1162 17.0555 11.1162 16.5215C11.1136 14.5226 11.1136 12.521 11.1162 10.5221C11.1162 9.9933 11.4976 9.59351 12.0002 9.59351C12.0002 9.59351 12.0002 9.59351 12.0028 9.59351C12.5079 9.59351 12.8894 9.99072 12.892 10.5169C12.8945 11.2597 12.8945 12.0052 12.892 12.748V13.5295V14.3601C12.892 15.0797 12.892 15.7993 12.892 16.519C12.892 16.7821 12.7992 17.0219 12.6291 17.1896C12.4641 17.3495 12.2347 17.4372 11.9847 17.4372ZM12.0002 9.85144C11.642 9.85144 11.3739 10.1403 11.3739 10.5221C11.3713 12.521 11.3713 14.5226 11.3739 16.5215C11.3739 16.911 11.6188 17.1767 11.9796 17.1793C12.1626 17.1844 12.3275 17.1199 12.4461 17.0039C12.5672 16.8826 12.6317 16.715 12.6317 16.5164C12.6342 15.7968 12.6317 15.0771 12.6317 14.3601V13.5295V12.748C12.6317 12.0052 12.6317 11.2623 12.6317 10.5169C12.6291 10.13 12.3636 9.85144 12.0002 9.85144Z" fill="currentColor"/>
<path d="M12.7635 7.45545C12.7609 7.8862 12.4284 8.21119 11.9929 8.20603C11.5599 8.20087 11.2351 7.87072 11.2403 7.43739C11.2429 7.01181 11.5831 6.67908 12.0109 6.68166C12.431 6.68681 12.7661 7.02986 12.7635 7.45545Z" fill="currentColor"/>
<path d="M12.0002 8.33748C11.9976 8.33748 11.995 8.33748 11.9899 8.33748C11.4847 8.33232 11.1058 7.94801 11.1084 7.43988C11.111 6.94207 11.5027 6.55518 12.0002 6.55518C12.0027 6.55518 12.0053 6.55518 12.0079 6.55518C12.4976 6.55776 12.8919 6.96271 12.8893 7.45794C12.8868 7.70039 12.7966 7.92221 12.6316 8.08471C12.4667 8.24721 12.2424 8.33748 12.0002 8.33748ZM12.0027 6.81311C11.6496 6.81311 11.3687 7.08909 11.3687 7.43988C11.3661 7.80099 11.6342 8.07439 11.995 8.07955C12.1625 8.08471 12.3352 8.01765 12.4538 7.90158C12.5698 7.78809 12.6342 7.62817 12.6368 7.45536C12.6393 7.09683 12.3636 6.81569 12.0131 6.81311C12.0053 6.81311 12.0053 6.81311 12.0027 6.81311Z" fill="currentColor"/>
</svg>
