<svg width="24" height="24" viewBox="0 0 24 24" fill="currentColor" xmlns="http://www.w3.org/2000/svg">
<g filter="url(#filter0_d_5066_10382)">
<path d="M5.28 9.33333H18.72C19.0595 9.33333 19.385 9.47381 19.6251 9.72386C19.8651 9.97391 20 10.313 20 10.6667V18.6667C20 19.0203 19.8651 19.3594 19.6251 19.6095C19.385 19.8595 19.0595 20 18.72 20H5.28C4.94052 20 4.61495 19.8595 4.3749 19.6095C4.13486 19.3594 4 19.0203 4 18.6667V10.6667C4 10.313 4.13486 9.97391 4.3749 9.72386C4.61495 9.47381 4.94052 9.33333 5.28 9.33333ZM7.2 4H16.8C16.9697 4 17.1325 4.07024 17.2525 4.19526C17.3726 4.32029 17.44 4.48986 17.44 4.66667C17.44 4.84348 17.3726 5.01305 17.2525 5.13807C17.1325 5.2631 16.9697 5.33333 16.8 5.33333H7.2C7.03026 5.33333 6.86748 5.2631 6.74745 5.13807C6.62743 5.01305 6.56 4.84348 6.56 4.66667C6.56 4.48986 6.62743 4.32029 6.74745 4.19526C6.86748 4.07024 7.03026 4 7.2 4ZM5.92 6.66667H18.08C18.2497 6.66667 18.4125 6.7369 18.5325 6.86193C18.6526 6.98695 18.72 7.15652 18.72 7.33333C18.72 7.51014 18.6526 7.67971 18.5325 7.80474C18.4125 7.92976 18.2497 8 18.08 8H5.92C5.75026 8 5.58748 7.92976 5.46745 7.80474C5.34743 7.67971 5.28 7.51014 5.28 7.33333C5.28 7.15652 5.34743 6.98695 5.46745 6.86193C5.58748 6.7369 5.75026 6.66667 5.92 6.66667Z"/>
</g>
<defs>
<filter id="filter0_d_5066_10382" x="0" y="0" width="24" height="24" filterUnits="userSpaceOnUse" color-interpolation-filters="sRGB">
<feFlood flood-opacity="0" result="BackgroundImageFix"/>
<feColorMatrix in="SourceAlpha" type="matrix" values="0 0 0 0 0 0 0 0 0 0 0 0 0 0 0 0 0 0 127 0" result="hardAlpha"/>
<feOffset/>
<feGaussianBlur stdDeviation="2"/>
<feComposite in2="hardAlpha" operator="out"/>
<feColorMatrix type="matrix" values="0 0 0 0 0.3125 0 0 0 0 0.308594 0 0 0 0 0.308594 0 0 0 0.5 0"/>
<feBlend mode="normal" in2="BackgroundImageFix" result="effect1_dropShadow_5066_10382"/>
<feBlend mode="normal" in="SourceGraphic" in2="effect1_dropShadow_5066_10382" result="shape"/>
</filter>
</defs>
</svg>