<svg width="18" height="20" viewBox="0 0 18 20" fill="none" xmlns="http://www.w3.org/2000/svg">
<path d="M14 6.66663C14 5.34054 13.4732 4.06877 12.5355 3.13109C11.5979 2.19341 10.3261 1.66663 9 1.66663C7.67392 1.66663 6.40215 2.19341 5.46447 3.13109C4.52678 4.06877 4 5.34054 4 6.66663C4 12.5 1.5 14.1666 1.5 14.1666H16.5C16.5 14.1666 14 12.5 14 6.66663Z" stroke="#4EABE6" stroke-width="1.5" stroke-linecap="round" stroke-linejoin="round"/>
<path d="M10.4414 17.5C10.2949 17.7526 10.0846 17.9622 9.83163 18.1079C9.57861 18.2537 9.29175 18.3304 8.99977 18.3304C8.70779 18.3304 8.42093 18.2537 8.16792 18.1079C7.9149 17.9622 7.70461 17.7526 7.55811 17.5" stroke="#4EABE6" stroke-width="1.5" stroke-linecap="round" stroke-linejoin="round"/>
</svg>
