<svg xmlns="http://www.w3.org/2000/svg" width="24" height="24" fill="currentColor" viewBox="0 0 24 24">
  <path d="M2 5c0-.265.102-.52.283-.707A.949.949 0 012.966 4h12.069c.256 0 .501.105.682.293.181.187.283.442.283.707v2c0 .265-.102.52-.283.707a.949.949 0 01-.683.293.949.949 0 01-.682-.293A1.018 1.018 0 0114.069 7V6H9.966v12h.965a.95.95 0 01.683.293c.18.187.283.442.283.707 0 .265-.102.52-.283.707a.95.95 0 01-.683.293H7.069a.95.95 0 01-.683-.293A1.018 1.018 0 016.103 19c0-.265.102-.52.283-.707A.95.95 0 017.07 18h.965V6H3.931v1c0 .265-.102.52-.283.707A.949.949 0 012.966 8a.949.949 0 01-.683-.293A1.018 1.018 0 012 7V5z"/>
  <path d="M22 11.286V10h-8v1.286h8zM19.333 12.571v1.286H14v-1.286h5.333zM22 16.429v-1.286h-8v1.286h8zM19.333 19v-1.286H14V19h5.333z"/>
</svg>
