<svg width="160" height="160" viewBox="0 0 160 160" fill="none" xmlns="http://www.w3.org/2000/svg">
<mask id="mask0" mask-type="alpha" maskUnits="userSpaceOnUse" x="0" y="0" width="160" height="160">
<rect width="160" height="160" fill="white"/>
</mask>
<g mask="url(#mask0)">
<rect opacity="0.1" width="160" height="160" fill="#474A57"/>
<g opacity="0.06">
<path d="M-48 -50L207 210" stroke="#3C64B1"/>
<path d="M-38.0391 -60.1562L216.961 199.844" stroke="#3C64B1"/>
<path d="M-28.0781 -70.3125L226.922 189.688" stroke="#3C64B1"/>
<path d="M-18.1172 -80.4688L236.883 179.531" stroke="#3C64B1"/>
<path d="M-8.15625 -90.625L246.844 169.375" stroke="#3C64B1"/>
<path d="M1.80469 -100.781L256.805 159.219" stroke="#3C64B1"/>
<path d="M11.7656 -110.938L266.766 149.062" stroke="#3C64B1"/>
<path d="M21.7266 -121.094L276.727 138.906" stroke="#3C64B1"/>
<path d="M31.6875 -131.25L286.688 128.75" stroke="#3C64B1"/>
<path d="M41.6484 -141.406L296.648 118.594" stroke="#3C64B1"/>
<path d="M51.6094 -151.562L306.609 108.438" stroke="#3C64B1"/>
<path d="M61.5703 -161.719L316.57 98.2812" stroke="#3C64B1"/>
<path d="M71.5312 -171.875L326.531 88.125" stroke="#3C64B1"/>
<path d="M-57.9609 -39.8438L197.039 220.156" stroke="#3C64B1"/>
<path d="M-67.9219 -29.6875L187.078 230.312" stroke="#3C64B1"/>
<path d="M-77.8828 -19.5312L177.117 240.469" stroke="#3C64B1"/>
<path d="M-87.8438 -9.375L167.156 250.625" stroke="#3C64B1"/>
<path d="M-97.8047 0.78125L157.195 260.781" stroke="#3C64B1"/>
<path d="M-107.766 10.9375L147.234 270.938" stroke="#3C64B1"/>
<path d="M-117.727 21.0938L137.273 281.094" stroke="#3C64B1"/>
<path d="M-127.688 31.25L127.312 291.25" stroke="#3C64B1"/>
<path d="M-137.648 41.4062L117.352 301.406" stroke="#3C64B1"/>
<path d="M-147.609 51.5625L107.391 311.562" stroke="#3C64B1"/>
<path d="M-157.57 61.7188L97.4297 321.719" stroke="#3C64B1"/>
<path d="M-167.531 71.875L87.4688 331.875" stroke="#3C64B1"/>
<path d="M-177.492 82.0312L77.5078 342.031" stroke="#3C64B1"/>
</g>
<g opacity="0.06">
<path d="M-43.0195 -55.0781L211.98 204.922" stroke="#3C64B1"/>
<path d="M-33.0586 -65.2344L221.941 194.766" stroke="#3C64B1"/>
<path d="M-23.0977 -75.3906L231.902 184.609" stroke="#3C64B1"/>
<path d="M-13.1367 -85.5469L241.863 174.453" stroke="#3C64B1"/>
<path d="M-3.17578 -95.7031L251.824 164.297" stroke="#3C64B1"/>
<path d="M6.78516 -105.859L261.785 154.141" stroke="#3C64B1"/>
<path d="M16.7461 -116.016L271.746 143.984" stroke="#3C64B1"/>
<path d="M26.707 -126.172L281.707 133.828" stroke="#3C64B1"/>
<path d="M36.668 -136.328L291.668 123.672" stroke="#3C64B1"/>
<path d="M46.6289 -146.484L301.629 113.516" stroke="#3C64B1"/>
<path d="M56.5898 -156.641L311.59 103.359" stroke="#3C64B1"/>
<path d="M66.5508 -166.797L321.551 93.2031" stroke="#3C64B1"/>
<path d="M76.5117 -176.953L331.512 83.0469" stroke="#3C64B1"/>
<path d="M-52.9805 -44.9219L202.02 215.078" stroke="#3C64B1"/>
<path d="M-62.9414 -34.7656L192.059 225.234" stroke="#3C64B1"/>
<path d="M-72.9023 -24.6094L182.098 235.391" stroke="#3C64B1"/>
<path d="M-82.8633 -14.4531L172.137 245.547" stroke="#3C64B1"/>
<path d="M-92.8242 -4.29688L162.176 255.703" stroke="#3C64B1"/>
<path d="M-102.785 5.85938L152.215 265.859" stroke="#3C64B1"/>
<path d="M-112.746 16.0156L142.254 276.016" stroke="#3C64B1"/>
<path d="M-122.707 26.1719L132.293 286.172" stroke="#3C64B1"/>
<path d="M-132.668 36.3281L122.332 296.328" stroke="#3C64B1"/>
<path d="M-142.629 46.4844L112.371 306.484" stroke="#3C64B1"/>
<path d="M-152.59 56.6406L102.41 316.641" stroke="#3C64B1"/>
<path d="M-162.551 66.7969L92.4492 326.797" stroke="#3C64B1"/>
<path d="M-172.512 76.9531L82.4883 336.953" stroke="#3C64B1"/>
</g>
</g>
<g opacity="0.5">
<path d="M91.6667 65H68.3333C66.4924 65 65 66.4924 65 68.3333V91.6667C65 93.5076 66.4924 95 68.3333 95H91.6667C93.5076 95 95 93.5076 95 91.6667V68.3333C95 66.4924 93.5076 65 91.6667 65Z" stroke="#3C64B1" stroke-width="1.5" stroke-linecap="round" stroke-linejoin="round"/>
<path d="M74.1667 76.6665C75.5475 76.6665 76.6667 75.5472 76.6667 74.1665C76.6667 72.7858 75.5475 71.6665 74.1667 71.6665C72.786 71.6665 71.6667 72.7858 71.6667 74.1665C71.6667 75.5472 72.786 76.6665 74.1667 76.6665Z" stroke="#3C64B1" stroke-width="1.5" stroke-linecap="round" stroke-linejoin="round"/>
<path d="M94.9999 84.9998L86.6666 76.6665L68.3333 94.9998" stroke="#3C64B1" stroke-width="1.5" stroke-linecap="round" stroke-linejoin="round"/>
</g>
</svg>
