<svg width="26" height="26" viewBox="0 0 26 26" fill="none" xmlns="http://www.w3.org/2000/svg">
<g clip-path="url(#clip0_3708:2082)">
<path fill-rule="evenodd" clip-rule="evenodd" d="M12.9487 6.86963C11.2576 6.86963 11.0454 6.87702 10.3811 6.90725C9.71821 6.93761 9.26571 7.04256 8.86978 7.19655C8.46022 7.3556 8.1128 7.56835 7.76669 7.9146C7.42031 8.26072 7.20755 8.60814 7.04798 9.01757C6.8936 9.41363 6.78852 9.86626 6.75868 10.5289C6.72898 11.1931 6.72119 11.4055 6.72119 13.0967C6.72119 14.7878 6.72872 14.9994 6.75881 15.6636C6.7893 16.3266 6.89425 16.779 7.04811 17.175C7.20729 17.5845 7.42005 17.932 7.7663 18.2781C8.11229 18.6245 8.4597 18.8377 8.869 18.9968C9.2652 19.1508 9.71782 19.2557 10.3806 19.2861C11.0448 19.3163 11.2569 19.3237 12.948 19.3237C14.6393 19.3237 14.8508 19.3163 15.5151 19.2861C16.178 19.2557 16.631 19.1508 17.0272 18.9968C17.4366 18.8377 17.7835 18.6245 18.1295 18.2781C18.4759 17.932 18.6886 17.5845 18.8482 17.1751C19.0013 16.779 19.1064 16.3264 19.1375 15.6638C19.1674 14.9995 19.1751 14.7878 19.1751 13.0967C19.1751 11.4055 19.1674 11.1933 19.1375 10.5291C19.1064 9.86613 19.0013 9.41363 18.8482 9.0177C18.6886 8.60814 18.4759 8.26072 18.1295 7.9146C17.7831 7.56822 17.4368 7.35547 17.0268 7.19655C16.6298 7.04256 16.1771 6.93761 15.5142 6.90725C14.8499 6.87702 14.6385 6.86963 12.9468 6.86963H12.9487ZM12.3901 7.99178C12.5559 7.99152 12.7409 7.99178 12.9487 7.99178C14.6113 7.99178 14.8084 7.99774 15.465 8.02758C16.0721 8.05534 16.4016 8.15679 16.6211 8.24202C16.9117 8.35489 17.1189 8.48981 17.3367 8.70775C17.5547 8.9257 17.6896 9.13327 17.8027 9.42386C17.8879 9.64311 17.9895 9.97262 18.0171 10.5798C18.047 11.2362 18.0535 11.4334 18.0535 13.0952C18.0535 14.7571 18.047 14.9543 18.0171 15.6107C17.9894 16.2178 17.8879 16.5473 17.8027 16.7666C17.6898 17.0572 17.5547 17.2641 17.3367 17.4819C17.1188 17.6999 16.9118 17.8348 16.6211 17.9476C16.4019 18.0333 16.0721 18.1345 15.465 18.1622C14.8085 18.1921 14.6113 18.1985 12.9487 18.1985C11.286 18.1985 11.0889 18.1921 10.4325 18.1622C9.82534 18.1342 9.49583 18.0327 9.2762 17.9475C8.9856 17.8346 8.77803 17.6997 8.56009 17.4818C8.34214 17.2638 8.20722 17.0568 8.0941 16.7661C8.00886 16.5468 7.90729 16.2173 7.87965 15.6102C7.84982 14.9537 7.84385 14.7565 7.84385 13.0937C7.84385 11.4308 7.84982 11.2346 7.87965 10.5782C7.90742 9.97107 8.00886 9.64155 8.0941 9.42205C8.20696 9.13145 8.34214 8.92388 8.56009 8.70594C8.77803 8.48799 8.9856 8.35307 9.2762 8.23995C9.4957 8.15433 9.82534 8.05314 10.4325 8.02525C11.0069 7.9993 11.2295 7.99152 12.3901 7.99022V7.99178ZM16.2727 9.02573C15.8601 9.02573 15.5254 9.36004 15.5254 9.77271C15.5254 10.1853 15.8601 10.52 16.2727 10.52C16.6852 10.52 17.0199 10.1853 17.0199 9.77271C17.0199 9.36017 16.6852 9.02573 16.2727 9.02573ZM12.9488 9.89881C11.1827 9.89881 9.75092 11.3306 9.75092 13.0966C9.75092 14.8627 11.1827 16.2938 12.9488 16.2938C14.7148 16.2938 16.1461 14.8627 16.1461 13.0966C16.1461 11.3306 14.7148 9.89881 12.9488 9.89881ZM12.9487 11.021C14.095 11.021 15.0244 11.9502 15.0244 13.0966C15.0244 14.2429 14.095 15.1723 12.9487 15.1723C11.8023 15.1723 10.8731 14.2429 10.8731 13.0966C10.8731 11.9502 11.8023 11.021 12.9487 11.021Z" fill="white"/>
</g>
<rect x="1.27271" y="1.42102" width="23.3512" height="23.3512" rx="11.6756" stroke="white"/>
<defs>
<clipPath id="clip0_3708:2082">
<rect x="1.27271" y="1.42102" width="23.3512" height="23.3512" rx="11.6756" fill="white"/>
</clipPath>
</defs>
</svg>
