<?xml version="1.0" encoding="utf-8"?>
<!-- Generator: Adobe Illustrator 25.2.1, SVG Export Plug-In . SVG Version: 6.00 Build 0)  -->
<svg version="1.1" id="Layer_1" xmlns="http://www.w3.org/2000/svg" xmlns:xlink="http://www.w3.org/1999/xlink" x="0px" y="0px"
	 viewBox="0 0 450 450" style="enable-background:new 0 0 450 450;" xml:space="preserve">
<style type="text/css">
	.st0{opacity:0;fill:#FFFFFF;}
	.st1{opacity:3.225806e-02;fill:#FCFCFC;}
	.st2{opacity:6.451613e-02;fill:#F8F8F8;}
	.st3{opacity:9.677419e-02;fill:#F5F5F5;}
	.st4{opacity:0.129;fill:#F2F2F2;}
	.st5{opacity:0.1613;fill:#EFEFEF;}
	.st6{opacity:0.1935;fill:#EBEBEB;}
	.st7{opacity:0.2258;fill:#E8E8E8;}
	.st8{opacity:0.2581;fill:#E5E5E5;}
	.st9{opacity:0.2903;fill:#E1E1E1;}
	.st10{opacity:0.3226;fill:#DEDEDE;}
	.st11{opacity:0.3548;fill:#DBDBDB;}
	.st12{opacity:0.3871;fill:#D8D8D8;}
	.st13{opacity:0.4194;fill:#D4D4D4;}
	.st14{opacity:0.4516;fill:#D1D1D1;}
	.st15{opacity:0.4839;fill:#CECECE;}
	.st16{opacity:0.5161;fill:#CACACA;}
	.st17{opacity:0.5484;fill:#C7C7C7;}
	.st18{opacity:0.5806;fill:#C4C4C4;}
	.st19{opacity:0.6129;fill:#C0C0C0;}
	.st20{opacity:0.6452;fill:#BDBDBD;}
	.st21{opacity:0.6774;fill:#BABABA;}
	.st22{opacity:0.7097;fill:#B7B7B7;}
	.st23{opacity:0.7419;fill:#B3B3B3;}
	.st24{opacity:0.7742;fill:#B0B0B0;}
	.st25{opacity:0.8065;fill:#ADADAD;}
	.st26{opacity:0.8387;fill:#A9A9A9;}
	.st27{opacity:0.871;fill:#A6A6A6;}
	.st28{opacity:0.9032;fill:#A3A3A3;}
	.st29{opacity:0.9355;fill:#A0A0A0;}
	.st30{opacity:0.9677;fill:#9C9C9C;}
	.st31{fill:#999999;}
	.st32{fill:#FCFCFC;}
</style>
<g>
	<g>
		<path class="st0" d="M77.2,0c0,0-0.4,11.1-2.1,30.6c-0.3,3.9,0.4,7.9,2,12.1C90.7,52.6,95.5,63.2,93,73.2
			c-0.6,2.5-1.8,4.8-3.3,7.1c-4.3,7.1-13.5,10.3-17.5,16.8c-6.5,12.8,8.6,25.7,11.8,40.5c0.9,3.5,1.6,6.9,1.9,10.4
			c0.7,10.3-0.4,20.6-2.6,31c-2,11.1-8.7,24.3-9.4,37.7c0,2.9,0.1,5.8,0.4,8.5c1.1,11.4,9.4,21.5,18.1,33.8
			c7.3,11.4-0.2,17.6-8.1,23.6c-2.7,2-5.3,4.1-6.9,6.6c1.9,20.7-26.2,46.7-5.4,64c2.3,3,3.4,6.5,4.3,10c2.2,10.3,5.5,21.1,8.4,32.1
			c1.4,8.8-3.1,16.9-5.2,25.6c-0.8,3.4-1.5,6.6-1.9,9.6c-0.3,12.3-0.3,19.4-0.3,19.4h47V0H77.2z"/>
		<path class="st1" d="M77.5,0c0,0-0.4,11.1-2,30.5c-0.3,3.9,0.4,7.9,1.9,12.1c13.5,9.9,18.2,20.5,15.8,30.5
			c-0.6,2.5-1.8,4.8-3.2,7.1c-4.4,7-13.7,10.2-17.4,16.9c-7,12.5,8.2,25.7,11.7,40.5c0.8,3.5,1.6,6.9,1.8,10.4
			c0.7,10.3-0.5,20.5-2.6,31c-2.2,11.1-9,24.3-9.3,37.6c-0.1,2.9,0.1,5.8,0.4,8.5c1.1,11.5,9.5,21.3,17.9,33.8
			c7.5,11.2-0.2,17.7-8,23.7c-2.7,2-5.2,4.1-6.9,6.7c1.9,20.7-26,46.8-5.3,64c2.3,3,3.5,6.5,4.3,10c2.4,10.2,5.9,20.9,8.2,32.1
			c1.8,8.7-3.1,16.9-5.1,25.6c-0.8,3.4-1.6,6.6-1.8,9.6c-1,12.3-0.3,19.4-0.3,19.4h47.3V0H77.5z"/>
		<path class="st2" d="M77.8,0c0,0-0.4,11.1-1.9,30.5c-0.3,3.9,0.4,7.9,1.9,12.1C91,52.5,95.8,63.1,93.3,73.1
			c-0.6,2.5-1.8,4.8-3.2,7.1c-4.3,7.1-13.6,10.3-17.3,17c-7,12.5,8.2,25.7,11.6,40.5c0.8,3.5,1.6,6.9,1.8,10.4
			c0.7,10.3-0.4,20.6-2.5,31.1c-2.2,11.1-8.9,24.2-9.2,37.6c-0.1,2.9,0.1,5.8,0.4,8.5c1,11.5,9.3,21.4,17.7,33.8
			c7.5,11.2-0.2,17.7-8,23.7c-2.7,2-5.2,4.1-6.8,6.7c1.9,20.7-25.8,46.8-5.3,63.9c2.2,3,3.4,6.5,4.2,10c2.3,10.2,5.8,21,8.1,32.1
			c1.8,8.7-3.1,16.9-5.1,25.6c-0.8,3.4-1.5,6.7-1.7,9.6c-1,12.3-0.3,19.4-0.3,19.4h47.6V0H77.8z"/>
		<path class="st3" d="M78,0c0,0-0.4,11.1-1.9,30.5c-0.3,3.9,0.4,7.9,1.8,12.1C91.2,52.5,95.9,63,93.5,73c-0.6,2.5-1.7,4.8-3.1,7.1
			c-4.3,7.1-13.5,10.3-17.2,17c-6.9,12.5,8.1,25.6,11.4,40.4c0.8,3.5,1.5,6.9,1.8,10.4c0.7,10.3-0.3,20.6-2.4,31.1
			c-2.2,11.1-8.8,24.2-9.1,37.5c-0.1,2.9,0.1,5.8,0.4,8.5c1,11.5,9.2,21.4,17.5,33.8c7.5,11.2-0.2,17.7-7.9,23.7
			c-2.6,2-5.2,4.1-6.8,6.7C80,310,52.5,336,72.9,353.2c2.2,3,3.4,6.5,4.2,10c2.3,10.3,5.7,21,8,32.1c1.8,8.8-3.2,16.9-5,25.7
			c-0.7,3.5-1.5,6.7-1.7,9.7C77.4,442.9,78,450,78,450h48V0H78z"/>
		<path class="st4" d="M78.3,0c0,0-0.3,11.1-1.8,30.4c-0.3,3.9,0.4,7.9,1.7,12.1C91.3,52.4,96,63,93.7,72.9
			c-0.6,2.5-1.7,4.8-3.1,7.2c-4.2,7.1-13.4,10.4-17.1,17.1c-6.9,12.6,8.1,25.6,11.3,40.4c0.8,3.5,1.5,6.9,1.8,10.4
			c0.8,10.3-0.3,20.6-2.3,31.1c-2.2,11.1-8.7,24.1-9,37.4c-0.1,2.9,0.1,5.8,0.4,8.6c0.9,11.6,9,21.5,17.3,33.8
			c7.5,11.2-0.2,17.7-7.9,23.7c-2.6,2-5.1,4.2-6.7,6.8C80.2,310,53,336,73.2,353.1c2.2,3,3.3,6.5,4.1,10c2.3,10.3,5.6,21,7.9,32.1
			c1.8,8.8-3.2,16.9-5,25.7c-0.7,3.5-1.4,6.7-1.6,9.7c-0.9,12.3-0.3,19.4-0.3,19.4h48.3V0H78.3z"/>
		<path class="st5" d="M78.5,0c0,0-0.3,11.1-1.7,30.4c-0.3,3.9,0.3,7.8,1.7,12.1c13,9.9,17.7,20.4,15.4,30.4c-0.6,2.5-1.7,4.8-3,7.2
			c-4.2,7.1-13.3,10.4-17,17.2c-6.8,12.6,8,25.6,11.2,40.4c0.7,3.5,1.5,6.9,1.7,10.4c0.8,10.3-0.2,20.6-2.2,31.1
			c-2.2,11.1-8.6,24.1-8.9,37.4c-0.1,2.9,0.1,5.8,0.4,8.6c0.9,11.6,8.9,21.5,17.1,33.8c7.5,11.3-0.2,17.7-7.8,23.8
			c-2.6,2.1-5.1,4.2-6.7,6.8c1.9,20.7-25.2,46.8-5.1,63.8c2.2,3,3.3,6.5,4,10c2.2,10.3,5.6,21,7.8,32.1c1.8,8.8-3.2,16.9-5,25.7
			c-0.7,3.5-1.4,6.7-1.6,9.7C78,442.9,78.5,450,78.5,450h48.6V0H78.5z"/>
		<path class="st6" d="M78.8,0c0,0-0.3,11.1-1.7,30.4c-0.3,3.9,0.3,7.8,1.6,12.1C91.6,52.3,96.3,62.9,94,72.8
			c-0.6,2.5-1.6,4.8-3,7.2c-4.2,7.2-13.2,10.5-16.9,17.2c-6.8,12.6,8,25.6,11.1,40.3c0.7,3.5,1.5,6.9,1.7,10.3
			c0.8,10.3-0.1,20.6-2.2,31.1c-2.1,11.1-8.6,24.1-8.8,37.3c0,2.9,0.1,5.8,0.3,8.6c0.8,11.6,8.7,21.6,16.9,33.8
			c7.5,11.3-0.2,17.7-7.8,23.8c-2.6,2.1-5,4.2-6.6,6.8c1.9,20.7-25,46.8-5,63.8c2.1,3,3.2,6.5,4,10c2.2,10.3,5.5,21,7.7,32.1
			c1.7,8.8-3.3,17-4.9,25.7c-0.7,3.5-1.3,6.7-1.5,9.7c-0.8,12.3-0.3,19.4-0.3,19.4h48.9V0H78.8z"/>
		<path class="st7" d="M79,0c0,0-0.3,11.1-1.6,30.3c-0.3,3.8,0.3,7.8,1.6,12.1c12.7,9.9,17.4,20.4,15.2,30.4c-0.6,2.5-1.6,4.8-3,7.2
			c-4.1,7.2-13.1,10.6-16.8,17.3c-6.8,12.6,7.9,25.6,10.9,40.3c0.7,3.5,1.4,6.9,1.7,10.3c0.8,10.3-0.1,20.6-2.1,31.1
			c-2.1,11.1-8.5,24-8.7,37.2c0,2.9,0.1,5.8,0.3,8.6c0.8,11.7,8.6,21.6,16.7,33.8c7.5,11.3-0.2,17.7-7.7,23.8
			c-2.6,2.1-5,4.2-6.6,6.9C81,310,54.3,336,74.2,353c2.1,3,3.2,6.5,3.9,10c2.2,10.3,5.4,21,7.6,32.1c1.7,8.8-3.3,17-4.9,25.7
			c-0.6,3.5-1.3,6.7-1.4,9.7C78.5,442.9,79,450,79,450h49.2V0H79z"/>
		<path class="st8" d="M79.3,0c0,0-0.3,11.1-1.5,30.3c-0.2,3.8,0.3,7.8,1.5,12.1c12.6,9.9,17.2,20.4,15.1,30.4
			c-0.5,2.5-1.6,4.9-2.9,7.2c-4.1,7.2-13.1,10.6-16.6,17.4c-6.7,12.6,7.9,25.5,10.8,40.3c0.7,3.5,1.4,6.9,1.7,10.3
			c0.8,10.3,0,20.6-2,31.1c-2.1,11.1-8.4,24-8.5,37.1c0,2.9,0.1,5.8,0.3,8.6c0.7,11.7,8.4,21.7,16.5,33.8
			c7.5,11.3-0.2,17.7-7.7,23.8c-2.6,2.1-5,4.3-6.5,6.9C81.3,310,54.8,336,74.5,353c2.1,3,3.1,6.5,3.9,10c2.2,10.3,5.3,21,7.4,32.1
			c1.7,8.8-3.3,17-4.9,25.8c-0.6,3.5-1.2,6.8-1.4,9.8c-0.8,12.3-0.3,19.5-0.3,19.5h49.6V0H79.3z"/>
		<path class="st9" d="M79.6,0c0,0-0.3,11.1-1.5,30.3c-0.2,3.8,0.3,7.8,1.5,12.1c12.5,9.9,17.1,20.3,15,30.3
			c-0.5,2.5-1.6,4.9-2.9,7.2c-4,7.3-13,10.7-16.5,17.4c-6.7,12.7,7.8,25.5,10.7,40.2c0.7,3.5,1.4,6.9,1.7,10.3
			c0.8,10.3,0.1,20.6-1.9,31.1c-2.1,11.1-8.3,23.9-8.4,37.1c0,2.9,0.1,5.8,0.3,8.6c0.7,11.8,8.3,21.7,16.3,33.8
			c7.5,11.3-0.2,17.7-7.6,23.9c-2.5,2.1-4.9,4.3-6.5,6.9c2,20.8-24.3,46.8-4.8,63.7c2,3,3.1,6.5,3.8,10c2.1,10.3,5.2,21,7.3,32.1
			c1.7,8.8-3.4,17-4.8,25.8c-0.6,3.5-1.1,6.8-1.3,9.8c-0.7,12.3-0.2,19.5-0.2,19.5h49.9V0H79.6z"/>
		<path class="st10" d="M79.8,0c0,0-0.3,11.1-1.4,30.2c-0.2,3.8,0.3,7.8,1.4,12.1c12.4,9.9,17,20.3,14.9,30.3
			c-0.5,2.5-1.5,4.9-2.8,7.3c-4,7.3-12.9,10.7-16.4,17.5c-6.6,12.7,7.7,25.5,10.6,40.2c0.7,3.5,1.4,6.9,1.6,10.3
			c0.8,10.3,0.1,20.6-1.8,31.1c-2.1,11.1-8.2,23.9-8.3,37c0,2.9,0.1,5.8,0.3,8.6c0.6,11.8,8.1,21.8,16.1,33.8
			c7.5,11.3-0.2,17.7-7.6,23.9c-2.5,2.1-4.9,4.3-6.5,7c2,20.8-24.1,46.8-4.7,63.6c2,3,3,6.5,3.8,10c2.1,10.3,5.1,21,7.2,32.1
			c1.7,8.8-3.4,17-4.8,25.8c-0.6,3.5-1.1,6.8-1.3,9.8c-0.7,12.3-0.2,19.5-0.2,19.5H130V0H79.8z"/>
		<path class="st11" d="M80.1,0c0,0-0.3,11.1-1.3,30.2C78.5,34,79,38,80.1,42.3c12.3,9.8,16.8,20.3,14.8,30.3
			c-0.5,2.5-1.5,4.9-2.8,7.3c-3.9,7.3-12.8,10.8-16.3,17.6c-6.6,12.7,7.7,25.5,10.5,40.2c0.7,3.5,1.3,6.9,1.6,10.3
			c0.8,10.3,0.2,20.6-1.8,31.1c-2.1,11.1-8.1,23.9-8.2,36.9c0,2.9,0.1,5.8,0.3,8.7c0.6,11.8,8,21.8,15.9,33.8
			c7.5,11.3-0.2,17.6-7.6,23.9c-2.5,2.1-4.9,4.3-6.4,7c2,20.8-23.9,46.8-4.6,63.6c2,3.1,3,6.5,3.7,10c2.1,10.3,5,21,7.1,32
			c1.6,8.8-3.4,17-4.7,25.8c-0.5,3.5-1,6.8-1.2,9.8c-0.7,12.3-0.2,19.5-0.2,19.5h50.5V0H80.1z"/>
		<path class="st12" d="M80.3,0c0,0-0.2,11.1-1.3,30.2c-0.2,3.8,0.3,7.8,1.3,12.1C92.5,52.1,97,62.5,95,72.5
			c-0.5,2.5-1.5,4.9-2.7,7.3c-3.9,7.3-12.7,10.8-16.2,17.6c-6.6,12.7,7.6,25.5,10.3,40.1c0.6,3.5,1.3,6.9,1.6,10.3
			c0.8,10.3,0.3,20.6-1.7,31.1c-2.1,11.1-8.1,23.8-8.1,36.8c0,2.9,0.1,5.8,0.3,8.7c0.5,11.9,7.8,21.8,15.7,33.7
			c7.5,11.3-0.2,17.6-7.5,24c-2.5,2.1-4.8,4.4-6.4,7c2,20.8-23.7,46.8-4.6,63.6c1.9,3.1,3,6.5,3.7,10c2.1,10.3,5,21,7,32
			c1.6,8.8-3.4,17-4.7,25.9c-0.5,3.5-1,6.8-1.1,9.8c-0.6,12.3-0.2,19.5-0.2,19.5h50.9V0H80.3z"/>
		<path class="st13" d="M80.6,0c0,0-0.2,11.1-1.2,30.1c-0.2,3.8,0.2,7.8,1.2,12.1c12,9.8,16.5,20.3,14.6,30.3
			c-0.5,2.5-1.4,4.9-2.7,7.3c-3.9,7.4-12.6,10.9-16.1,17.7c-6.5,12.7,7.6,25.4,10.2,40.1c0.6,3.5,1.3,6.9,1.6,10.3
			c0.8,10.3,0.3,20.6-1.6,31.1c-2,11.1-8,23.8-8,36.8c0,2.9,0.1,5.8,0.2,8.7c0.5,11.9,7.7,21.9,15.5,33.7c7.5,11.3-0.2,17.6-7.5,24
			c-2.5,2.2-4.8,4.4-6.3,7.1c2,20.8-23.5,46.8-4.5,63.5c1.9,3.1,2.9,6.5,3.6,10c2,10.3,4.9,21,6.9,32c1.6,8.8-3.5,17-4.7,25.9
			c-0.5,3.5-0.9,6.8-1.1,9.9c-0.6,12.4-0.2,19.5-0.2,19.5h51.2V0H80.6z"/>
		<path class="st14" d="M80.9,0c0,0-0.2,11.1-1.1,30.1c-0.2,3.8,0.2,7.8,1.2,12.1C92.8,52,97.3,62.4,95.4,72.4
			c-0.5,2.5-1.4,4.9-2.7,7.3c-3.8,7.4-12.5,11-16,17.8c-6.5,12.8,7.5,25.4,10.1,40.1c0.6,3.5,1.3,6.9,1.6,10.3
			c0.8,10.3,0.4,20.6-1.5,31.1c-2,11.1-7.9,23.7-7.9,36.7c0,3,0.1,5.8,0.2,8.7c0.4,12,7.5,21.9,15.3,33.7c7.5,11.3-0.2,17.6-7.4,24
			c-2.5,2.2-4.8,4.4-6.3,7.1c2,20.8-23.3,46.8-4.4,63.5c1.9,3.1,2.9,6.5,3.5,10c2,10.3,4.8,21,6.8,32c1.6,8.8-3.5,17-4.6,25.9
			c-0.5,3.5-0.9,6.8-1,9.9c-0.6,12.4-0.2,19.5-0.2,19.5h51.5V0H80.9z"/>
		<path class="st15" d="M81.1,0c0,0-0.2,11.1-1.1,30.1c-0.2,3.8,0.2,7.8,1.1,12.1C93,51.9,97.4,62.3,95.5,72.4
			c-0.5,2.5-1.4,4.9-2.6,7.3c-3.8,7.4-12.4,11-15.9,17.8c-6.5,12.8,7.5,25.4,10,40c0.6,3.5,1.2,6.9,1.5,10.3
			c0.9,10.3,0.5,20.6-1.4,31.1c-2,11.1-7.8,23.7-7.8,36.6c0,3,0.1,5.8,0.2,8.7c0.4,12,7.3,22,15.1,33.7c7.5,11.3-0.2,17.6-7.4,24
			c-2.4,2.2-4.7,4.4-6.2,7.1c2,20.8-23.1,46.8-4.4,63.5c1.9,3.1,2.8,6.5,3.5,10c2,10.4,4.7,21,6.7,32c1.6,8.8-3.5,17-4.6,25.9
			c-0.4,3.6-0.8,6.9-1,9.9c-0.5,12.4-0.2,19.5-0.2,19.5h51.8V0H81.1z"/>
		<path class="st16" d="M81.4,0c0,0-0.2,11.1-1,30c-0.2,3.8,0.2,7.8,1.1,12.1c11.7,9.8,16.1,20.2,14.3,30.2
			c-0.5,2.5-1.4,4.9-2.6,7.3c-3.7,7.5-12.3,11.1-15.7,17.9c-6.4,12.8,7.4,25.4,9.8,40c0.6,3.5,1.2,6.9,1.5,10.3
			c0.9,10.3,0.5,20.6-1.4,31.1c-2,11.1-7.7,23.6-7.7,36.5c0,3,0.1,5.9,0.2,8.7c0.3,12,7.2,22,14.9,33.7c7.5,11.3-0.2,17.6-7.3,24.1
			c-2.4,2.2-4.7,4.5-6.2,7.2c2,20.8-22.9,46.8-4.3,63.4c1.8,3.1,2.8,6.5,3.4,10c2,10.4,4.6,21,6.5,32c1.5,8.9-3.6,17-4.6,25.9
			c-0.4,3.6-0.8,6.9-0.9,9.9C81,442.9,81.4,450,81.4,450h52.1V0H81.4z"/>
		<path class="st17" d="M81.6,0c0,0-0.2,11.1-0.9,30c-0.2,3.8,0.2,7.8,1,12.1c11.6,9.8,16,20.2,14.2,30.2c-0.4,2.5-1.3,4.9-2.5,7.4
			c-3.7,7.5-12.2,11.1-15.6,18c-6.4,12.8,7.3,25.3,9.7,40c0.6,3.5,1.2,6.9,1.5,10.3c0.9,10.3,0.6,20.6-1.3,31.1
			c-2,11.1-7.6,23.6-7.6,36.5c0,3,0.1,5.9,0.2,8.7c0.2,12.1,7,22.1,14.7,33.7c7.5,11.3-0.2,17.6-7.3,24.1c-2.4,2.2-4.7,4.5-6.1,7.2
			c2,20.8-22.7,46.8-4.2,63.4c1.8,3.1,2.7,6.5,3.4,10c1.9,10.4,4.5,21,6.4,32c1.5,8.9-3.6,17-4.5,26c-0.4,3.6-0.7,6.9-0.8,9.9
			c-0.5,12.4-0.2,19.5-0.2,19.5h52.5V0H81.6z"/>
		<path class="st18" d="M81.9,0c0,0-0.2,11.1-0.9,30c-0.1,3.8,0.2,7.8,1,12C93.4,51.8,97.8,62.2,96,72.2c-0.4,2.5-1.3,4.9-2.5,7.4
			c-3.6,7.5-12.1,11.2-15.5,18c-6.3,12.8,7.3,25.3,9.6,39.9c0.5,3.5,1.2,6.9,1.5,10.3c0.9,10.3,0.7,20.6-1.2,31.1
			c-2,11.1-7.6,23.6-7.4,36.4c0,3,0.1,5.9,0.2,8.7c0.2,12.1,6.9,22.1,14.5,33.7c7.5,11.3-0.2,17.6-7.2,24.1
			c-2.4,2.2-4.6,4.5-6.1,7.2c2,20.8-22.5,46.8-4.2,63.3c1.8,3.1,2.7,6.5,3.3,10c1.9,10.4,4.4,21,6.3,32c1.5,8.9-3.6,17-4.5,26
			c-0.3,3.6-0.7,6.9-0.8,10c-0.4,12.4-0.1,19.5-0.1,19.5h52.8V0H81.9z"/>
		<path class="st19" d="M82.1,0c0,0-0.2,11-0.8,29.9c-0.1,3.8,0.2,7.8,0.9,12c11.3,9.8,15.7,20.1,14,30.2c-0.4,2.5-1.3,5-2.4,7.4
			c-3.6,7.5-12.1,11.3-15.4,18.1c-6.3,12.9,7.2,25.3,9.5,39.9c0.5,3.5,1.2,6.9,1.4,10.3c0.9,10.3,0.7,20.7-1.1,31.1
			c-2,11.1-7.5,23.5-7.3,36.3c0,3,0.1,5.9,0.2,8.8c0.1,12.2,6.7,22.2,14.4,33.7c7.5,11.3-0.2,17.6-7.2,24.1
			c-2.4,2.2-4.6,4.5-6.1,7.3c2,20.8-22.3,46.8-4.1,63.3c1.7,3.1,2.6,6.5,3.3,10c1.9,10.4,4.4,21,6.2,32c1.5,8.9-3.6,17-4.4,26
			c-0.3,3.6-0.6,6.9-0.7,10c-0.4,12.4-0.1,19.5-0.1,19.5h53.1V0H82.1z"/>
		<path class="st20" d="M82.4,0c0,0-0.1,11-0.7,29.9c-0.1,3.8,0.1,7.8,0.8,12C93.7,51.7,98,62,96.4,72.1c-0.4,2.5-1.2,5-2.4,7.4
			c-3.6,7.6-12,11.3-15.3,18.2c-6.3,12.9,7.2,25.3,9.3,39.9c0.5,3.5,1.1,6.9,1.4,10.3c0.9,10.3,0.8,20.7-1,31.1
			c-1.9,11.1-7.4,23.5-7.2,36.3c0,3,0.1,5.9,0.1,8.8c0.1,12.2,6.6,22.2,14.2,33.7c7.4,11.3-0.2,17.6-7.1,24.2
			c-2.4,2.2-4.6,4.6-6,7.3c2,20.8-22.1,46.8-4,63.3c1.7,3.1,2.6,6.5,3.2,10c1.8,10.4,4.3,21,6.1,32c1.5,8.9-3.7,17-4.4,26
			c-0.3,3.6-0.6,6.9-0.7,10c-0.4,12.4-0.1,19.5-0.1,19.5h53.4V0H82.4z"/>
		<path class="st21" d="M82.7,0c0,0-0.1,11-0.7,29.9c-0.1,3.8,0.1,7.8,0.8,12C93.9,51.7,98.2,62,96.5,72.1c-0.4,2.5-1.2,5-2.4,7.4
			C90.7,87.1,82.3,90.8,79,97.7c-6.2,12.9,7.1,25.3,9.2,39.8c0.5,3.5,1.1,6.9,1.4,10.3c0.9,10.3,0.9,20.7-1,31.1
			c-1.9,11.1-7.3,23.4-7.1,36.2c0,3,0.1,5.9,0.1,8.8c0,12.2,6.4,22.3,14,33.7c7.4,11.3-0.2,17.5-7.1,24.2c-2.3,2.3-4.5,4.6-6,7.3
			c2,20.8-21.9,46.8-4,63.2c1.7,3.1,2.5,6.5,3.1,10c1.8,10.4,4.2,21,6,32c1.4,8.9-3.7,17-4.4,26.1c-0.3,3.6-0.5,7-0.6,10
			c-0.3,12.4-0.1,19.5-0.1,19.5h53.8V0H82.7z"/>
		<path class="st22" d="M82.9,0c0,0-0.1,11-0.6,29.8c-0.1,3.8,0.1,7.8,0.7,12C94,51.6,98.3,61.9,96.7,72c-0.4,2.5-1.2,5-2.3,7.4
			c-3.5,7.6-11.8,11.4-15.1,18.3c-6.2,12.9,7.1,25.2,9.1,39.8c0.5,3.5,1.1,6.9,1.4,10.3c0.9,10.3,0.9,20.7-0.9,31.1
			c-1.9,11.1-7.2,23.4-7,36.1c0.1,3,0.1,5.9,0.1,8.8c0,12.3,6.3,22.3,13.8,33.7c7.4,11.3-0.2,17.5-7,24.2c-2.3,2.3-4.5,4.6-5.9,7.4
			C84.9,310,61.1,336,79,352.4c1.7,3.1,2.5,6.5,3.1,10c1.8,10.4,4.1,21.1,5.9,32c1.4,8.9-3.7,17-4.3,26.1c-0.2,3.6-0.5,7-0.5,10
			c-0.3,12.4-0.1,19.5-0.1,19.5H137V0H82.9z"/>
		<path class="st23" d="M83.2,0c0,0-0.1,11-0.5,29.8c-0.1,3.8,0.1,7.8,0.7,12c10.8,9.8,15.1,20.1,13.6,30.1c-0.4,2.5-1.2,5-2.3,7.5
			c-3.4,7.7-11.7,11.5-15,18.4c-6.1,12.9,7,25.2,9,39.8c0.5,3.5,1.1,6.9,1.4,10.3c0.9,10.3,1,20.7-0.8,31.1
			c-1.9,11.1-7.2,23.3-6.9,36c0.1,3,0.1,5.9,0.1,8.8c-0.1,12.3,6.1,22.3,13.6,33.7c7.4,11.3-0.2,17.5-7,24.3
			c-2.3,2.3-4.5,4.6-5.9,7.4c2.1,20.8-21.5,46.8-3.8,63.2c1.6,3.1,2.4,6.5,3,10.1c1.8,10.4,4,21.1,5.7,32c1.4,8.9-3.8,17-4.3,26.1
			c-0.2,3.6-0.4,7-0.5,10.1C83,442.9,83.2,450,83.2,450h54.4V0H83.2z"/>
		<path class="st24" d="M83.4,0c0,0-0.1,11-0.5,29.8c-0.1,3.7,0.1,7.8,0.6,12c10.7,9.8,15,20,13.5,30.1c-0.4,2.5-1.1,5-2.2,7.5
			C91.4,87.1,83.2,90.9,80,97.8c-6.1,12.9,6.9,25.2,8.8,39.7c0.4,3.5,1,6.9,1.3,10.3c0.9,10.3,1.1,20.7-0.7,31.2
			c-1.9,11-7.1,23.3-6.8,36c0.1,3,0.1,5.9,0.1,8.8c-0.1,12.4,6,22.4,13.4,33.7c7.4,11.3-0.2,17.5-6.9,24.3c-2.3,2.3-4.4,4.7-5.8,7.4
			c2.1,20.8-21.3,46.8-3.8,63.1c1.6,3.1,2.4,6.5,3,10.1c1.7,10.4,3.9,21.1,5.6,32c1.4,8.9-3.8,17-4.3,26.1c-0.2,3.6-0.4,7-0.4,10.1
			c-0.2,12.4-0.1,19.5-0.1,19.5h54.7V0H83.4z"/>
		<path class="st25" d="M83.7,0c0,0-0.1,11-0.4,29.7c-0.1,3.7,0.1,7.7,0.6,12c10.6,9.8,14.8,20,13.4,30.1c-0.4,2.5-1.1,5-2.2,7.5
			C91.7,87,83.5,90.9,80.3,97.8c-6.1,13,6.9,25.2,8.7,39.7c0.4,3.5,1,6.9,1.3,10.3c1,10.3,1.1,20.7-0.6,31.2
			c-1.9,11-7,23.2-6.7,35.9c0.1,3,0.1,5.9,0.1,8.8c-0.2,12.4,5.8,22.4,13.2,33.7c7.4,11.3-0.2,17.5-6.9,24.3
			c-2.3,2.3-4.4,4.7-5.8,7.5c2.1,20.8-21.1,46.9-3.7,63.1c1.6,3.1,2.3,6.5,2.9,10.1c1.7,10.4,3.8,21.1,5.5,32
			c1.4,8.9-3.8,17-4.2,26.1c-0.2,3.6-0.3,7-0.4,10.1c-0.2,12.4-0.1,19.5-0.1,19.5h55.1V0H83.7z"/>
		<path class="st26" d="M83.9,0c0,0-0.1,11-0.3,29.7c-0.1,3.7,0.1,7.7,0.5,12c10.5,9.7,14.7,20,13.3,30.1c-0.4,2.5-1.1,5-2.1,7.5
			C92,87,83.8,90.9,80.6,97.9c-6,13,6.8,25.1,8.6,39.7c0.4,3.5,1,6.9,1.3,10.3c1,10.3,1.2,20.7-0.6,31.2c-1.9,11-6.9,23.2-6.6,35.8
			c0.1,3,0.1,5.9,0.1,8.9c-0.2,12.4,5.7,22.5,13,33.7c7.4,11.3-0.2,17.5-6.8,24.3c-2.3,2.3-4.4,4.7-5.7,7.5
			c2.1,20.9-20.9,46.9-3.6,63c1.5,3.1,2.3,6.5,2.9,10.1c1.7,10.4,3.8,21.1,5.4,32c1.3,8.9-3.9,17-4.2,26.2c-0.1,3.6-0.3,7-0.3,10.1
			c-0.2,12.4-0.1,19.5-0.1,19.5h55.4V0H83.9z"/>
		<path class="st27" d="M84.2,0c0,0-0.1,11-0.3,29.7c0,3.7,0.1,7.7,0.4,12c10.4,9.7,14.5,20,13.2,30.1c-0.3,2.5-1.1,5-2.1,7.5
			C92.2,87,84.1,91,80.9,97.9c-6,13,6.8,25.1,8.5,39.6c0.4,3.5,1,6.9,1.3,10.3c1,10.3,1.3,20.7-0.5,31.2c-1.8,11-6.8,23.2-6.4,35.7
			c0.1,3,0.1,5.9,0.1,8.9c-0.3,12.5,5.5,22.5,12.8,33.6c7.4,11.3-0.2,17.5-6.8,24.4c-2.2,2.3-4.3,4.7-5.7,7.5
			c2.1,20.9-20.7,46.9-3.6,63c1.5,3.1,2.2,6.5,2.8,10.1c1.7,10.5,3.7,21.1,5.3,32c1.3,8.9-3.9,17-4.1,26.2c-0.1,3.6-0.2,7-0.2,10.1
			c-0.1,12.4,0,19.5,0,19.5h55.7V0H84.2z"/>
		<path class="st28" d="M84.5,0c0,0,0,11-0.2,29.6c0,3.7,0,7.7,0.4,12c10.2,9.7,14.4,19.9,13.1,30c-0.3,2.5-1,5-2.1,7.5
			C92.5,87,84.4,91,81.3,97.9c-5.9,13,6.7,25.1,8.3,39.6c0.4,3.5,0.9,6.9,1.3,10.3c1,10.3,1.3,20.7-0.4,31.2
			c-1.8,11-6.7,23.1-6.3,35.7c0.1,3,0.1,5.9,0,8.9c-0.3,12.5,5.3,22.6,12.6,33.6c7.4,11.3-0.2,17.5-6.8,24.4
			c-2.2,2.3-4.3,4.8-5.6,7.6c2.1,20.9-20.5,46.9-3.5,63c1.5,3.1,2.2,6.6,2.7,10.1c1.6,10.5,3.6,21.1,5.2,32c1.3,8.9-3.9,17-4.1,26.2
			c-0.1,3.7-0.2,7.1-0.2,10.2c-0.1,12.4,0,19.5,0,19.5h56V0H84.5z"/>
		<path class="st29" d="M84.7,0c0,0,0,11-0.1,29.6c0,3.7,0,7.7,0.3,12c10.1,9.7,14.2,19.9,13,30c-0.3,2.5-1,5-2,7.6
			C92.7,87,84.7,91,81.6,97.9c-5.9,13,6.7,25.1,8.2,39.6c0.4,3.5,0.9,6.9,1.2,10.3c1,10.3,1.4,20.7-0.3,31.2
			c-1.8,11-6.7,23.1-6.2,35.6c0.1,3,0.1,5.9,0,8.9c-0.4,12.6,5.2,22.6,12.4,33.6c7.4,11.3-0.2,17.5-6.7,24.4
			c-2.2,2.3-4.3,4.8-5.6,7.6c2.1,20.9-20.3,46.9-3.4,62.9c1.4,3.1,2.2,6.6,2.7,10.1c1.6,10.5,3.5,21.1,5.1,31.9
			c1.3,9-3.9,17-4.1,26.2c-0.1,3.7-0.1,7.1-0.1,10.2c-0.1,12.4,0,19.5,0,19.5h56.3V0H84.7z"/>
		<path class="st30" d="M85,0c0,0,0,11-0.1,29.6c0,3.7,0,7.7,0.3,12c10,9.7,14.1,19.9,12.9,30c-0.3,2.5-1,5-2,7.6
			C93,87,85,91,81.9,98C76.1,111,88.5,123,90,137.5c0.4,3.5,0.9,6.9,1.2,10.3c1,10.3,1.5,20.7-0.2,31.2c-1.8,11-6.6,23-6.1,35.5
			c0.1,3,0.1,5.9,0,8.9c-0.4,12.6,5,22.7,12.2,33.6c7.4,11.3-0.2,17.4-6.7,24.4c-2.2,2.4-4.2,4.8-5.6,7.6C87,310,64.8,336,81.5,352
			c1.4,3.1,2.1,6.6,2.6,10.1c1.6,10.5,3.4,21.1,4.9,31.9c1.3,9-4,17-4,26.3c0,3.7,0,7.1-0.1,10.2c0,12.4,0,19.5,0,19.5h56.7V0H85z"
			/>
		<path class="st31" d="M85.2,0c0,0,0,11,0,29.5c0,3.7,0,7.7,0.2,12c9.9,9.7,14,19.9,12.8,30c-0.3,2.5-0.9,5.1-1.9,7.6
			C93.2,87,85.2,91,82.2,98c-6,13,7,25,8,39.5c0.4,3.4,0.9,6.9,1.2,10.3c1,10.3,1.3,20.7-0.2,31.2c-2,11-7,23-6,35.5
			c0,3,0,5.9,0,8.9c-1,12.6,5,22.6,12,33.6c7.5,11.2-0.2,17.4-6.6,24.5c-2.2,2.4-4.2,4.8-5.5,7.7C87.2,310,65.2,336,81.8,352
			c1.4,3.1,2,6.6,2.6,10.1c1.3,10.5,3,21.1,4.8,31.9c1,9-4,17-4,26.3c0,3.7,0,7.1,0,10.2c0,12.4,0,19.5,0,19.5h57V0H85.2z"/>
	</g>
	<path class="st32" d="M85.2,0c0,0-2.1,2.4-0.2,3.3c-0.8,0.8,0.6,1.5,1.1,2.3c1.1,0.8-0.2,1.6,1.2,2.8c0.1,1.5,0.2,2.7-0.4,3.8
		c-0.9,1.1-0.4,2.1,0.3,3.4c-0.5,0.5-1.3,0.7-1.5,1.1c-1.3,0.2-1.8,1.3-0.3,2.9c1.1,1.5,0.2,3.4,0.3,5.1c-0.7,1.6-0.3,3,0.2,3.5
		c0.4,1.6,2.6,3-0.4,4.3c-0.2,1.3-0.5,2.5,0,3.7c-1.6,1.2,0.7,2.3,0.8,3.5c1.3,1.2,0.9,2.3,1.9,3.6c0.9,0.5,0.2,1.3,1.5,2.2
		c-1.2,0.9,2.7,1.7,1.6,2.2c-0.8,1.1,0.4,1.9,2.4,2.8c0.3,0.8,1.7,1.7,2.1,2.6c3,1-1.1,2.1,1.5,3.5c-0.2,1.2-2.1,2.3,0.7,3.4
		c-0.8,1.1,0.9,2.1,0.7,3.2c-0.5,1.1-1.4,2.1,1.4,3.3c-2.5,0.7-1.1,1.8-1.9,3c-0.5,1.2,0.7,2.6,0.3,4c0.2,1.3,0.6,2.7-0.3,3.7
		c-1.6,0.5-0.2,1-1.6,1.6c-0.1,0.5-1.9,1.1-1.8,1.5c-0.2,0.8-0.7,1.8-2.1,2.8c1.4,1-2.7,2.1-2.4,3.3c-1.8,1.1-1.3,2.3-2,3.5
		c-0.2,1.2-4,2.3-0.9,3.4c1,1.1-1.1,2.1,0.8,3c-0.2,0.5-1.1,0.8-3.2,1.2c-1.3,0.3,1,0.7-1.6,1.3c1.4,0.6,0.5,1.4-0.8,2.7
		c-2.6,1.4-1.8,2.8-0.6,4.1c0.4,1.3,0.8,2.6-0.1,3.9c-1.1,1.3-0.2,2.6,0.5,3.9c-0.4,1.3,1.7,2.6,1.1,4c4.3,1.1-0.7,2.2,1.6,3.3
		c1.3,1.1,0.6,2.1,2.1,3.2c2.8,1.1,2.2,2.1,1.9,3.2c0.8,1.1-0.5,2.2,1.2,3.3c-0.4,1.5-0.1,3,0.7,4.4c1.3,1.5,1.1,3,0.4,4.5
		c-0.1,1.5-1.2,3,0.2,4.5c1.3,1.5-0.6,3,0,4.5c0.1,1.5,0.3,3-0.1,4.5c0.5,1.5-0.3,3-0.2,4.5c-1.1,1.5,0.8,3-0.2,4.5
		c-0.2,0.8,0.3,1.4,0.4,2c0.3,0.6,0.4,1.3,0.2,2.1c-0.4,0.6-0.8,1.3-1,1.9c-0.8,0.6-2.4,1.3-1.1,1.9c-0.6,1.2-1.9,2.5-0.7,3.7
		c1,1.3-0.8,2.6-0.1,3.9c1.2,1.3-0.3,2.7,0.2,4c-0.2,1.3,0.1,2.7,0.1,4c0.4,1.3-0.5,2.6-0.4,3.9c-0.6,1.4,0.6,2.9-0.9,4.3
		c-0.5,1.4-0.9,2.9-0.9,4.3c-0.8,1.4-1,2.9-0.8,4.3c-0.9,1.4-0.5,2.9-0.4,4.3c0.5,1.4-0.3,2.9,0.2,4.3c1.6,1.4,0.4,2.9,1,4.3
		c-0.4,0.6-0.2,1.4-1.3,2.3c-0.1,0.5,0.1,1,0,1.5c0.9,0.5,0.4,1,1.5,1.6c0.4,0.5,0.8,1.1,1.3,1.6c0,0.5,0.1,1.1-0.3,1.6
		c-0.3,0.6-0.8,1.1-0.9,1.5c0.3,0.4-0.8,0.7,0,1c1.2,0.6-0.6,1-1.2,1.6c0,0.3-1.8,0.7-1,1.2c0.4,0.5,1.8,1,0.6,1.7
		c-0.2,0.5,1.2,0.9,0.2,1.4c-0.1,0.5,2,1,0.5,1.5c-0.3,0.5,1.2,1,0.4,1.6c1.5,0.5-0.4,1,1,1.5c-0.3,0.5-0.3,1,0,1.5
		c0.7,0.5,2.1,0.9,1.4,1.4c-1.2,0.5,0.1,1,0.9,1.5c1.2,0.5,1.1,1,0.1,1.5c-0.2,0.5,0.8,1,0.3,1.6c-0.9,0.5,1.9,1,0.3,1.6
		c-0.2,0.5-0.8,1,0.7,1.5c0.7,0.5-0.7,1,0.2,1.5c1.4,0.5-0.2,0.9,0.8,1.4c0.4,0.5,1.5,0.9,0.8,1.4c-1.6,0.5,2.8,0.9,1,1.4
		c-0.9,0.5-0.9,0.9,1,1.4c1.9,0.5-0.1,0.9,1,1.4c2.1,0.5,1.8,0.9,0.9,1.3c0.2,1.1,1.6,2.2,1.8,3.3c0.1,1.1,0.9,2.2,1,3.3
		c0.4,1.1,1.6,2.2-0.2,3.3c0.2,1.1-1.4,2.2-1.7,3.2c-0.6,1-2.4,1.6-2.6,2.3c-0.2,0.6-0.7,1.3-2,2.1c-2.4,0.8-0.7,1.9,0.7,3.5
		c-1.9,0.5-2.4,1.3-3.5,2.4c0.7,1-1.4,2.3-1.7,3.5c-0.8,1.3-0.6,2.6-1.2,3.8c-0.3,1.4-1,2.2-1.2,3c-1.8,0.8,0.8,1.7-0.5,3.4
		c0.6,1.1-0.8,2.2-0.3,3.4c-0.3,1.1,0.8,2.3-0.6,3.4c-1.5,1.1,0.6,2.2-0.9,3.2c-0.1,1,0,2-1.5,2.9c0.6,0.9-0.8,1.8-1.4,2.8
		c0.9,1-1.3,2.1,0.2,3.3c-1.1,0-1.2,0.5-1.7,1.4c-0.5,0.9-0.8,2.2-1.9,3.7c-0.5,1.5-0.3,3.1-1.7,4.7c-0.4,1.6-0.8,3.1-1.1,4.4
		c-1,1.3,0.6,2.3-0.2,2.9c-0.3,1.3-0.7,2.3,0.9,3.4c1.7,1,0.9,2,0.7,3.1c0,1.1-0.6,2.2,0.5,3.6c1.3,1,0.4,1.6,0,2.2
		c-1.8,0.5,3,1.1,0.4,2c1.5,0.9-0.5,1.3,1.3,1.8c-0.7,0.4,1,0.9,0.9,2c1.4-0.1,1.2,0,1.7,0.1c1.8,0.1,1,0.2,1.7,0.1
		c-1,0.1-0.3,0.8-1.1,1.7c-0.7,1,0.8,2.3,0.1,3.8c0.4,0.8,0,1.6,0.7,2.4c0.4,0.9-0.7,1.8,0.2,2.7c-0.4,0.9,0.5,1.9,0.1,2.8
		c1.2,0.9-0.2,1.9,1.3,2.8c1.4,0.9,1.7,1.9,0.9,2.7c0.8,0.9,0.9,1.7,0.6,2.6c0.5,0.8,0.6,1.6,0.7,2.3c0.6,0.7-0.7,1.3,0.6,1.9
		c-0.1,1.1,1.2,1.9,0.6,2.3c-0.2,1.2,1.4,2.5,0.8,3.8c-0.1,1.3,1.5,2.6,0.9,3.9c0.1,1.3,1.5,2.7,0.9,4c0.7,1.4,1.2,2.7,0.7,4.1
		c-1.3-0.6,0.3,0.3-1.2,1.4c-0.9,1.1-0.9,2.3-1.1,2.5c-1,0.9-1,2,0.1,3c0.3,1.1,0.9,2.2,0.1,3.2c0,0.9-1.5,1.8-0.6,2.8
		c0.5,0.9-2.3,1.8-0.7,2.8c0.3,0.9,0.6,1.8-0.3,2.8c-0.7,1,0.4,2.1,0.8,3.2c-0.4,1.1,0.6,2.2,0.6,3.1c0.2,0.4,0.7,0.7-1,1
		c0.6,0.3-2.9,0.6-1,1c-1.7,1.7-1.1,3-0.3,4.2c2.5,1.2,2.5,2.3,0.8,3.5c0.6,1.2,0.4,2.5,0.3,4.1c-1.2,0.2,0.4,0-1.3,0.1
		c0.2,0-0.3,1.2,0.3,2.5c0.1,1.3-0.4,2.6,0.3,2.9c-0.9,1,0,1.8-1.6,2.6c-1.6,0.7-1.3,1.3-1.4,1.8c-1.5,0.8-2.2,1.8,0.1,2.9
		c-0.9,1.1,1.9,2.2,0.8,3.4c-0.6,1.2,0.5,3.4,0.5,3.4h0.5h1.4h2.2h3h3.7h4.4h41.7V0h-18H99h-4.6h-4.6H85.2L85.2,0z"/>
	<g>
		<defs>
			<path id="SVGID_1_" d="M94.2,0c0,0,0.9,2.6,0.2,3.9c0.1,1.3,0.3,2.7,0.2,4.1c-0.8,1.4-0.1,2.7,0.2,4.1c0.4,1.4,0.6,2.7,0.3,4.1
				c1.1,1.3-0.7,2.6,0.5,3.9c0.4,0.8,0.5,1.7,1,2.5c0.5,0.8,0.5,1.7,1.5,2.5c0.3,0.8,1.3,1.7,0.9,2.6c0.1,0.7,0.1,1.2,0,1.7
				c-0.1,0.5-0.3,0.9-0.7,1.2c0,0.4,0,0.7-1.1,1c-1,0.3-0.6,0.6-0.8,0.9c0.8,0.3,0.9,0.6-0.6,1c-0.3,0.4,0.2,0.8-1.1,1.3
				c1.1,0.5-0.2,1.1-0.1,1.7c-0.4,0.6,0.3,1.3,0,1.9c1,0.7-0.5,1.4,0.6,2.1c-1.4,0.7,2,1.4,0.9,2.2c0.6,1,0,1.9,1.5,2.8
				c0.8,0.9-2.4,1.8,1.5,2.6c0.6,0.8-0.1,1.5,1.2,2.1c1.1,0.9,1.6,1.7,1.7,2.5c1.4,0.8,0.8,1.6,2.1,2.4c1.7,0.8,0.8,1.6,2.2,2.4
				c-1.5,0.7-1.6,1.5-0.9,2.3c0.7,0.8-0.2,1.5,1.4,2.2c-2,1.1,0.1,2.1-0.5,3.1c0.7,1,1,2,1.1,3c0.9,1.3,0.3,2.6-0.3,3.8
				c-0.4,1.3,0.5,2.5-1.2,3.8c1.7,1.3-0.6,2.5-1.7,3.7c1.2,1.2-2.5,2.5-1.7,3.7c0.7,1.2,0,2.5-1.3,3.7c1,1.1,0.8,2-0.7,2.8
				c-1.1,0.8,0.1,1.6-0.8,2.4c1.1,0.8-1,1.6-1.6,2.5c-2.6,0.8-1.9,1.4-2.5,2.1c-1,0.3-1.6,0.7-2,1c-0.4,0.3-0.8,0.7-0.8,1.1
				c-0.5,0.4-1,0.8-1.5,1.2c-1,0.4-1.3,0.9-0.3,1.4c-0.2,0.7,0.2,1.3-0.6,2c-0.4,0.7-0.1,1.4,0.4,2.1c0.2,0.7-1.6,1.4-0.6,2.1
				c0.2,0.7,2.2,1.4,1.8,2.1c-1.1,0.7-1.2,1.4,0.2,2.1c0.3,0.7,0.8,1.4,1.8,2.1c1.1,0.7,1.1,1.4,1.1,2c1,0.7,1.1,1.3,1,2
				c-0.3,0.6,1,1.3,0.9,1.9c0.5,0.6,0,1.2,0.7,1.8c0.7,0.9-0.1,1.6-0.6,2.4c0.5,0.7-0.2,1.5,1.1,2.6c-1.3,1-1.5,1.9-2.5,2.9
				c-0.9,1-0.1,2-0.2,3c-0.4,1,0.6,2.1,1.2,3.3c0.1,1.2,0.9,2.4,1.9,3.7c-0.1,0.4-0.8,1.5-1.1,2.6c1.1,1.2-2,2.5-0.9,3.3
				c-0.4,1.1-0.3,2.2-0.8,3.4c0,1.2-0.3,2.3-0.5,3.5c0.4,1.2-0.6,2.4-0.3,3.6c0.9,1.2,0.7,2.4,0,3.5c-0.3,0.6-0.2,1.2-0.1,1.8
				c0.1,0.6-0.2,1.2,0.3,1.7c-0.6,0.6-0.4,1.3,0.5,1.9c1.1,0.6,1.4,1.3,0.5,1.9c1.3,0.6,0,1.3,0.5,1.9c1,0.6,1,1.3,0.8,1.9
				c0.7,0.6-0.2,1.3,0.1,1.9c-0.4,0.6,0.3,1.3,0.4,1.9c0.2,0.6,0.6,1.2-0.2,1.8c0.1,0.6,0.9,1.2-0.2,1.8c0.2,0.6,0.3,1.2-0.5,1.8
				c-1.1,0.6,0.2,1.2-0.1,1.8c0.2,0.6-0.1,1.2-0.5,1.8c-0.6,0.6,0.3,1.2,0,1.8c-0.4,0.6-1.4,1.1-0.2,1.5c0.4,0.4,0.8,0.7,0.2,1
				c-1.1,0.6-0.1,1.2-0.4,2.1c-0.8,0.6-0.7,1.1-1.3,1.7c1.5,0.5-0.7,1.1-1.3,1.9c1.1,0.8,0.6,1.5-0.4,2.2c-0.6,0.7-0.6,1.2-0.1,1.8
				c1.4,0.6,0.8,1.1,0.2,1.6c1.1,0.5,2.2,1,0.6,1.5c-0.2,0.5,0.7,1.1,0.7,1.6c-0.1,0.6,1.2,1.2,0.7,1.9c-0.8,0.5,0.5,1.1,0.3,1.6
				c0.2,0.5,0,1.1,0.6,1.7c0.3,0.6,1.5,1.1,0.2,1.7c0.5,0.6,0,1.1,0.1,1.7c0.3,1.1-0.3,2.3,0.1,3.4c-0.5,1.1-1.5,2.3-0.1,3.4
				c0.4,0.6,0.5,1.6-0.2,2.6c1.1,0.9-1.7,1.9,0.3,2.5c0.3,0.9-1.4,1.4,2.3,1.9c-0.2,0.5,1.3,1.1,2.1,2.1c-0.2,1.1,0.7,2.4,0.3,3.7
				c-0.5,1.3-1.1,2.6-0.6,4c-1.2,1.4-1.7,2.7-0.8,4c-0.5,1.3-0.1,2.6-0.3,3.8c-0.6,1.3-0.2,2.3,0.4,3.2c1.1,0.9,3.3,1.7,1.4,2.7
				c0.4,0.5,2.3,0.4,1.8,0.3c-1.1,0,2,0,2,0.7c0.7,0.4-0.9,1.8,0.2,3.1c-0.8,0.6-1.3,1.3-1.5,1.7c-0.2,0.5-0.1,0.8,0.2,0.8
				c0,0,1.2,0,0.7,0c0.2,0,1.4,0.1,2,0.2c-0.3,0.2,2.3,0.7,2.1,1.2c0.6,0.3,0.4,0.6,0.8,1c-0.3,0.4,0.4,0.8,0.8,1.2
				c1,0-0.4,0.9,0.1,2c-0.5,0.6,0.2,1.2,0.3,1.8c0,0.6,0.2,1.2,0.3,1.7c-0.2,1,0.9,1.7,1.2,1.4c0.6,0.2-1.5,0.5-1.7,0.7
				c-1.3,0.3-2,0.6-1.6,0.9c-0.5,0.6-1.9,0.1-2,0.7c-0.6,0.7,0.5,1.8-0.1,2.1c0,0.1,0,0.8-0.1,1.6c0.6,0.8-1,1.6-0.3,2
				c-0.3,1.1-1.7,2-2,2.8c-1.1,0.8-3,1.5-2.7,2.2c-0.1,0.7-2.4,1.4-2.8,2.1c0.5,0.8-2.4,1.6-2.2,2.6c-0.4,1.2-2.7,2.4-1.3,3.7
				c0.8,1.3-0.6,2.5-1.2,3.5c-0.8,1-1.3,1.8-3.2,2.3c0.1,1.4,0.3,2.5-0.4,3.7c-1.7,1.1-0.7,2.2-1,3.4c0.6,1.3-0.4,2.5-0.1,3.7
				c0.7,1.2,1.2,2.4-0.1,3.7c-1.2,1.4-0.2,2.1-1.3,2.9c-1.8,0.7-0.6,1.4-1.6,2.6c-0.4,0.8-1.4,1.8-0.6,2.8c0.3,1,0.1,2.1-0.4,3.1
				c0.2,1-1.5,2-0.4,2.9c1.5,1.1-0.6,2.3-0.7,3.5c0.2,1.2-0.1,2.5-0.7,3.7c1.2,1.3,0.8,2.5-0.4,3.8c-0.7,1.3,0.3,2.5,0.2,3.7
				c-0.6,0.6-0.5,1.2-0.2,1.8c0.1,0.6,0.2,1.1,1.1,1.7c-0.2,0.6,0.3,1.1,0.6,1.5c0.5,0.4,1.9,0.7,1.3,1.1c-0.6,0.3,0,0.6,1.1,1
				c1.4,0.4,0.2,0.8,1,1.3c-0.4-1.1-0.7-2.4-0.5-3.6c-0.6-1.3-0.4-2.6-0.1-3.8c0.1-1.2,0.4-2.4,1-3.3c0.2,1.1,0.4,2.2,0.6,3.2
				c0,1,1.3,2,0.3,3.1c-0.1,1,1.2,2.1-0.3,3.2c-0.2,1.4,1.8,2.5-0.7,3.4c-0.8,0.9-0.9,1.7,0,2.6c0.5,0.9,0.6,1.8,1.1,3.1
				c0.2,0.7,0.2,1.5,1.4,2.3c1.2,0.8,0.7,1.6,1.6,2.4c-0.2,0.8,1.9,1.5,1.2,2.1c-0.3,0.7,1.2,1.6,0.5,2.5c-0.7,0.9-0.7,1.9,0.4,2.8
				c1.4,0.9-0.3,1.7,1,2.3c-1.3,0.7-2.6,1.5-1.4,2.2c1,0.8,1.5,1.6,0.9,2.5c-1.4,0.9,0.5,1.8,0.9,2.7c-0.9,1.8-0.9,2.4-0.7,3
				c-2.8,0.5,0.3,1-1.3,2.5c1.1,0.5-1.2,1.4,0,2.4c-1,1,2.2,2,0.4,3c1,0.9,0.2,1.7,0.8,2.1c0.7,1.1,1.9,1,2.8,1.3
				c3,0.2-1.6,0.7,2.2,2.8c-2.5,0.4,1.3,1.5-0.2,2.6c-1.8,1.2-0.1,2.4-0.3,3c0.5,1.6,0.3,2.8-0.1,3.9c-1.1,1-0.5,1.9-0.6,2.7
				c-1.1,0.8-1,1.6-1.1,2.5c-1.3,0.9-1.5,1.9-1.7,3.2c0.5,0.8,0.4,1.6-0.8,2.4c-0.8,0.8-2.3,1.6-0.1,2.5c-1.4,0.8,0.5,1.7,0.3,2.6
				c-0.8,0.5-2.6,1.3-1.4,2.3c-0.6,0.9-0.6,2,0.3,2.8c0.6,0.8,1.1,1.4,2.1,1.5c0.2-0.8,0.2-1.2,0.8-1.6c0.2-0.4,0.7-0.7,1.2-1.3
				c0.2,1-0.5,2-0.5,3.1c-0.6,1-1.1,2.1-0.8,3.1c-1,1-0.7,2-1,3c0,1,0.1,2-0.9,2.9c-0.3,1-0.9,1.9-1,2.9c0.7,0.9-1.2,1.9-0.6,3
				c-1,1.1-0.2,2.2,0.5,3.2c-0.7,1.1,0.3,2.2,0.6,3.3c0.4,1-1.2,2-0.4,3.1c-0.5,1.1-0.6,2.9-0.6,2.9h0.5h1.4h2.2h3H450V0H127.1
				h-23.7h-4.6H94.2z"/>
		</defs>
		<clipPath id="SVGID_2_">
			<use xlink:href="#SVGID_1_"  style="overflow:visible;"/>
		</clipPath>
	</g>
</g>
</svg>
