<svg width="24" height="24" viewBox="0 0 24 24" fill="none" xmlns="http://www.w3.org/2000/svg">
<g clip-path="url(#clip0_17691_205175)">
<path d="M12 24C18.6274 24 24 18.6274 24 12C24 5.37258 18.6274 0 12 0C5.37258 0 0 5.37258 0 12C0 18.6274 5.37258 24 12 24Z" fill="#FD5822"/>
<path d="M16.6406 19.5C17.3396 19.5 17.9062 18.9334 17.9062 18.2344C17.9062 17.5354 17.3396 16.9688 16.6406 16.9688C15.9416 16.9688 15.375 17.5354 15.375 18.2344C15.375 18.9334 15.9416 19.5 16.6406 19.5Z" fill="white"/>
<path d="M10.7344 19.5C11.4334 19.5 12 18.9334 12 18.2344C12 17.5354 11.4334 16.9688 10.7344 16.9688C10.0354 16.9688 9.46875 17.5354 9.46875 18.2344C9.46875 18.9334 10.0354 19.5 10.7344 19.5Z" fill="white"/>
<path d="M5.25 6H7.66071L9.27589 14.0699C9.331 14.3473 9.48195 14.5966 9.70232 14.774C9.92268 14.9514 10.1984 15.0456 10.4813 15.0402H16.3393C16.6221 15.0456 16.8979 14.9514 17.1182 14.774C17.3386 14.5966 17.4895 14.3473 17.5446 14.0699L18.5089 9.01339H8.26339" stroke="white" stroke-width="1.3" stroke-linecap="round" stroke-linejoin="round"/>
<path d="M9 12L18 12" stroke="white" stroke-width="1.3"/>
<path d="M13.4999 8.9999L13.4998 14.6249" stroke="white" stroke-width="1.3"/>
</g>
<defs>
<clipPath id="clip0_17691_205175">
<rect width="24" height="24" fill="white"/>
</clipPath>
</defs>
</svg>
