<svg width="32" height="32" viewBox="0 0 32 32" fill="none" xmlns="http://www.w3.org/2000/svg">
<path d="M20.3521 1.59961C23.2321 1.59961 24.7041 1.59961 26.2401 2.07961C27.9361 2.68761 29.2801 4.03161 29.8881 5.72761C30.4001 7.29561 30.4001 8.73561 30.4001 11.6476V20.3516C30.4001 23.2316 30.4001 24.7036 29.9201 26.2396C29.3121 27.9356 27.9681 29.2796 26.2721 29.8876C24.7041 30.3996 23.2641 30.3996 20.3521 30.3996H11.6481C8.7681 30.3996 7.2961 30.3996 5.7601 29.9196C4.0641 29.2796 2.7201 27.9356 2.0801 26.2396C1.6001 24.7036 1.6001 23.2636 1.6001 20.3516V11.6476C1.6001 8.76761 1.6001 7.29561 2.0801 5.75961C2.7201 4.06361 4.0641 2.71961 5.7601 2.07961C7.2961 1.59961 8.7361 1.59961 11.6481 1.59961H20.3521Z" fill="white"/>
<path d="M11.4559 12.1596C11.7439 12.1596 11.9999 12.1916 12.2559 12.2556C12.1919 11.9996 12.1599 11.7116 12.1599 11.4556V7.35958C12.1599 7.16758 12.1919 7.00758 12.1919 6.84758C10.6879 5.72758 8.54395 5.85558 7.19995 7.19958C5.85595 8.54358 5.72795 10.6876 6.84795 12.1916C7.00795 12.1596 7.19995 12.1596 7.35995 12.1596H11.4559Z" fill="#FF7E7B"/>
<path d="M15.744 15.2642C15.552 15.2642 15.392 15.2322 15.2 15.2002C15.232 15.3602 15.264 15.5522 15.264 15.7442C15.36 15.6802 15.424 15.6162 15.52 15.5202C15.584 15.4242 15.648 15.3602 15.744 15.2642Z" fill="#FF6F3F"/>
<path d="M15.52 10.0795C15.712 10.2715 15.904 10.4955 16.032 10.7195C16.192 10.4955 16.352 10.2715 16.544 10.0795L19.424 7.19953C19.552 7.07153 19.648 6.97553 19.776 6.87953C19.584 4.99153 17.952 3.51953 16 3.51953C14.048 3.51953 12.448 4.95953 12.192 6.84753C12.352 6.94353 12.48 7.07153 12.608 7.19953L15.52 10.0795Z" fill="#FFAC00"/>
<path d="M16.32 15.2637C16.224 15.1357 16.096 15.0077 16.032 14.8477C15.936 14.9757 15.84 15.1357 15.744 15.2637H16C16.096 15.2957 16.224 15.2637 16.32 15.2637Z" fill="#FFC300"/>
<path d="M12.16 11.4557C12.16 11.7437 12.192 11.9997 12.256 12.2557C13.728 12.5757 14.88 13.7277 15.2 15.1997C15.36 15.2317 15.552 15.2637 15.744 15.2637C15.84 15.1357 15.968 15.0077 16.032 14.8477C15.232 13.5997 15.232 11.9677 16.032 10.7197C15.872 10.4957 15.712 10.2717 15.52 10.0797L12.64 7.19966C12.512 7.07166 12.352 6.94366 12.224 6.84766C12.192 7.00766 12.16 7.16766 12.16 7.35966V11.4557Z" fill="#FF3400"/>
<path d="M19.84 11.4564C19.84 11.7444 19.808 12.0004 19.744 12.2564C20 12.1924 20.288 12.1604 20.544 12.1604H24.64C24.832 12.1604 25.024 12.1924 25.216 12.2244C26.336 10.7204 26.24 8.57636 24.864 7.20036C23.488 5.82436 21.312 5.72836 19.808 6.88036C19.84 7.04036 19.84 7.20036 19.84 7.36036V11.4564Z" fill="#F0EA0D"/>
<path d="M16.7359 15.6802C16.7359 15.5202 16.7679 15.3602 16.7999 15.2002C16.6399 15.2322 16.4799 15.2642 16.3199 15.2642C16.3839 15.3602 16.4799 15.4242 16.5439 15.5202C16.6079 15.5842 16.6719 15.6162 16.7359 15.6802Z" fill="#DAE411"/>
<path d="M16.544 10.0799C16.352 10.2719 16.16 10.4959 16.032 10.7199C16.832 11.9679 16.832 13.5999 16.032 14.8479C16.128 14.9759 16.224 15.1359 16.32 15.2639C16.48 15.2639 16.64 15.2319 16.8 15.1999C17.12 13.7279 18.272 12.5759 19.744 12.2559C19.808 11.9999 19.84 11.7119 19.84 11.4559V7.35988C19.84 7.19988 19.84 7.03988 19.808 6.87988C19.68 6.97588 19.552 7.07188 19.456 7.19988L16.544 10.0799Z" fill="#EAA200"/>
<path d="M16.032 10.7197C15.232 11.9677 15.232 13.5997 16.032 14.8477C16.832 13.5997 16.832 11.9997 16.032 10.7197Z" fill="#E63300"/>
<path d="M16.704 15.9997C16.704 16.1277 16.704 16.2557 16.736 16.3837C16.896 16.2557 17.056 16.1277 17.216 16.0317C17.056 15.9357 16.896 15.8077 16.736 15.6797C16.736 15.7757 16.704 15.9037 16.704 15.9997Z" fill="#83D567"/>
<path d="M28.48 15.9996C28.48 14.0796 27.072 12.4796 25.216 12.2236C25.12 12.3836 24.992 12.5116 24.864 12.6396L21.984 15.5196C21.792 15.7116 21.568 15.9036 21.344 16.0316C21.568 16.1916 21.792 16.3516 21.984 16.5436L24.864 19.4236C24.992 19.5516 25.088 19.6476 25.184 19.7756C27.04 19.5196 28.48 17.9516 28.48 15.9996Z" fill="#A2DD50"/>
<path d="M20.544 12.1602C20.256 12.1602 20 12.1922 19.744 12.2562C19.424 13.7282 18.272 14.8802 16.8 15.2002C16.768 15.3602 16.736 15.5202 16.736 15.6802C16.896 15.8082 17.056 15.9362 17.216 16.0322C18.464 15.2322 20.096 15.2322 21.344 16.0322C21.568 15.8722 21.792 15.7122 21.984 15.5202L24.864 12.6402C24.992 12.5122 25.12 12.3522 25.216 12.2242C25.024 12.1922 24.832 12.1602 24.64 12.1602H20.544Z" fill="#8BC100"/>
<path d="M19.744 12.2559C18.272 12.5759 17.12 13.7279 16.8 15.1999C18.272 14.8799 19.424 13.7279 19.744 12.2559Z" fill="#8D8800"/>
<path d="M20.544 19.8401C20.256 19.8401 20 19.8081 19.744 19.7441C19.808 20.0001 19.84 20.2881 19.84 20.5441V24.6401C19.84 24.8321 19.808 24.9921 19.808 25.1841C21.312 26.3681 23.488 26.2721 24.896 24.8641C26.272 23.4881 26.4 21.3121 25.216 19.7761C24.992 19.8081 24.832 19.8401 24.64 19.8401H20.544Z" fill="#44C899"/>
<path d="M16.384 16.7358C16.512 16.7358 16.672 16.7678 16.8 16.7998C16.768 16.6718 16.736 16.5118 16.736 16.3838C16.672 16.4478 16.608 16.4798 16.544 16.5438C16.48 16.6078 16.448 16.6718 16.384 16.7358Z" fill="#4EBFBD"/>
<path d="M21.984 16.5442C21.792 16.3522 21.568 16.1602 21.344 16.0322C20.096 16.8322 18.464 16.8322 17.216 16.0322C17.056 16.1282 16.896 16.2562 16.736 16.3842C16.736 16.5122 16.768 16.6722 16.8 16.8002C18.272 17.1202 19.424 18.2722 19.744 19.7442C20 19.8082 20.288 19.8402 20.544 19.8402H24.64C24.832 19.8402 24.992 19.8082 25.184 19.8082C25.088 19.6802 24.992 19.5522 24.864 19.4562L21.984 16.5442Z" fill="#00A33F"/>
<path d="M17.2159 16.0316C18.4639 16.8316 20.0959 16.8316 21.3439 16.0316C20.0639 15.2316 18.4639 15.2316 17.2159 16.0316Z" fill="#008D08"/>
<path d="M15.6801 16.7361C15.8081 16.8961 15.9361 17.0561 16.0321 17.2161C16.1281 17.0561 16.2561 16.8961 16.3841 16.7361C16.2561 16.7361 16.1281 16.7041 16.0001 16.7041C15.9041 16.7041 15.7761 16.7361 15.6801 16.7361Z" fill="#859ED5"/>
<path d="M16.544 21.9837C16.352 21.7917 16.16 21.5677 16.032 21.3438C15.872 21.5677 15.712 21.7917 15.52 21.9837L12.64 24.8637C12.512 24.9918 12.352 25.1198 12.224 25.2158C12.48 27.0718 14.08 28.4798 16 28.4798C17.952 28.4798 19.52 27.0398 19.808 25.1837C19.68 25.0877 19.552 24.9918 19.456 24.8637L16.544 21.9837Z" fill="#6EACDF"/>
<path d="M19.84 20.5443C19.84 20.2563 19.808 20.0003 19.744 19.7443C18.272 19.4243 17.12 18.2723 16.8 16.8003C16.672 16.7683 16.512 16.7363 16.384 16.7363C16.256 16.8963 16.128 17.0563 16.032 17.2163C16.832 18.4643 16.832 20.0963 16.032 21.3443C16.192 21.5683 16.352 21.7923 16.544 21.9843L19.424 24.8643C19.552 24.9923 19.648 25.0883 19.776 25.1843C19.808 24.9923 19.808 24.8323 19.808 24.6403V20.5443H19.84Z" fill="#1D7B97"/>
<path d="M19.744 19.7438C19.424 18.2718 18.272 17.1198 16.8 16.7998C17.12 18.2718 18.272 19.4238 19.744 19.7438Z" fill="#00683A"/>
<path d="M15.264 16.3203C15.264 16.4803 15.232 16.6403 15.2 16.8003C15.36 16.7683 15.52 16.7363 15.68 16.7363C15.616 16.6723 15.584 16.6083 15.52 16.5443C15.424 16.4803 15.36 16.4163 15.264 16.3203Z" fill="#BE85C1"/>
<path d="M12.16 20.5441C12.16 20.2561 12.192 20.0001 12.256 19.7441C12 19.8081 11.712 19.8401 11.456 19.8401H7.35998C7.19998 19.8401 7.03998 19.8401 6.87998 19.8081C5.69598 21.3121 5.82398 23.4881 7.19998 24.8641C8.57598 26.2401 10.72 26.3361 12.224 25.2161C12.192 25.0241 12.16 24.8321 12.16 24.6401V20.5441Z" fill="#AB86C4"/>
<path d="M15.52 21.9843C15.712 21.7923 15.904 21.5683 16.032 21.3443C15.232 20.0963 15.232 18.4643 16.032 17.2163C15.936 17.0563 15.808 16.8963 15.68 16.7363C15.52 16.7363 15.36 16.7683 15.2 16.8003C14.88 18.2723 13.728 19.4243 12.256 19.7443C12.192 20.0003 12.16 20.2883 12.16 20.5443V24.6403C12.16 24.8323 12.192 25.0243 12.224 25.2163C12.384 25.1203 12.512 24.9923 12.64 24.8643L15.52 21.9843Z" fill="#5D53A6"/>
<path d="M16.032 21.3438C16.832 20.0958 16.832 18.4638 16.032 17.2158C15.232 18.4638 15.232 20.0638 16.032 21.3438Z" fill="#243F76"/>
<path d="M15.264 15.7441C15.136 15.8401 15.008 15.9681 14.848 16.0321C14.976 16.1281 15.136 16.2241 15.264 16.3201C15.264 16.2241 15.296 16.0961 15.296 16.0001C15.296 15.9041 15.264 15.8081 15.264 15.7441Z" fill="#F1648A"/>
<path d="M10.08 16.5436C10.272 16.3516 10.496 16.1596 10.72 16.0316C10.496 15.8716 10.272 15.7116 10.08 15.5196L7.20002 12.6396C7.07202 12.5116 6.94402 12.3516 6.84802 12.2236C4.96002 12.4476 3.52002 14.0476 3.52002 15.9996C3.52002 17.9516 4.99202 19.5836 6.88002 19.8076C6.97602 19.6796 7.07202 19.5516 7.20002 19.4556L10.08 16.5436Z" fill="#E275A8"/>
<path d="M10.08 15.5202C10.272 15.7122 10.496 15.9042 10.72 16.0322C11.968 15.2322 13.6 15.2322 14.848 16.0322C14.976 15.9362 15.136 15.8402 15.264 15.7442C15.264 15.5522 15.232 15.3922 15.2 15.2002C13.728 14.8802 12.576 13.7282 12.256 12.2562C12 12.1922 11.712 12.1602 11.456 12.1602H7.36002C7.16802 12.1602 7.00802 12.1922 6.84802 12.1922C6.94402 12.3522 7.07202 12.4802 7.20002 12.6082L10.08 15.5202Z" fill="#E40017"/>
<path d="M12.256 12.2559C12.576 13.7279 13.728 14.8799 15.2 15.1999C14.88 13.7279 13.728 12.5759 12.256 12.2559Z" fill="#E60000"/>
<path d="M11.456 19.8402C11.744 19.8402 12 19.8082 12.256 19.7442C12.576 18.2722 13.728 17.1202 15.2 16.8002C15.232 16.6402 15.264 16.4802 15.264 16.3202C15.136 16.2242 15.008 16.0962 14.848 16.0322C13.6 16.8322 11.968 16.8322 10.72 16.0322C10.496 16.1922 10.272 16.3522 10.08 16.5442L7.2 19.4242C7.072 19.5522 6.976 19.6482 6.88 19.7762C7.04 19.8402 7.2 19.8402 7.36 19.8402H11.456Z" fill="#9F3174"/>
<path d="M10.72 16.0316C11.968 16.8316 13.6 16.8316 14.848 16.0316C13.6 15.2316 12 15.2316 10.72 16.0316Z" fill="#9F0017"/>
<path d="M12.256 19.7438C13.728 19.4238 14.88 18.2718 15.2 16.7998C13.728 17.1198 12.576 18.2718 12.256 19.7438Z" fill="#561E5D"/>
</svg>
