<svg width="24" height="24" viewBox="0 0 24 24" fill="none" xmlns="http://www.w3.org/2000/svg">
<mask id="path-1-outside-1_1148_200935" maskUnits="userSpaceOnUse" x="1.5" y="1.49683" width="20" height="20" fill="black">
<rect fill="white" x="1.5" y="1.49683" width="20" height="20"/>
<path fill-rule="evenodd" clip-rule="evenodd" d="M10.2857 20.3356C10.6951 20.7449 11.2383 20.9732 11.813 20.9732C12.3877 20.9732 12.9309 20.7528 13.3481 20.3356C13.7574 19.9341 13.9857 19.3909 13.9857 18.8083V18.6745C13.9857 18.5328 14.033 18.3911 14.1038 18.2809C14.1747 18.1707 14.2849 18.0762 14.4187 18.0211C14.5447 17.966 14.6864 17.9502 14.8281 17.9738C14.9698 17.9975 15.0957 18.0604 15.2374 18.2021C15.4343 18.4068 15.6704 18.5643 15.9381 18.6745C16.4734 18.8949 17.0717 18.8949 17.5991 18.6745C17.8668 18.5643 18.103 18.399 18.2998 18.2021C18.5045 18.0053 18.6619 17.7692 18.7721 17.5015C18.8823 17.2417 18.9374 16.9583 18.9374 16.6749C18.9374 16.3915 18.8823 16.1081 18.7721 15.8483C18.6619 15.5807 18.5045 15.3445 18.2604 15.1004C18.166 14.9981 18.0951 14.8721 18.0715 14.7304C18.0479 14.5887 18.0636 14.447 18.1187 14.3132V14.3053C18.1738 14.1715 18.2604 14.0692 18.3785 13.9904C18.4966 13.9117 18.6304 13.8724 18.8351 13.8724C19.4177 13.8724 19.9609 13.6441 20.3702 13.2347C20.7717 12.8332 21 12.2821 21 11.7075C21 11.1328 20.7796 10.5896 20.3702 10.1802C19.9609 9.77087 19.4177 9.54257 18.8351 9.54257H18.7013C18.5674 9.54257 18.4336 9.50321 18.3155 9.42449C18.2211 9.36938 18.1502 9.29066 18.0951 9.19619C18.0872 9.14108 18.0794 9.09385 18.0557 9.04661C18.0006 8.92066 17.9849 8.77895 18.0085 8.63725C18.04 8.50342 18.103 8.36959 18.2447 8.22789C18.4494 8.03108 18.6068 7.79491 18.717 7.52725C18.8272 7.26746 18.8823 6.98406 18.8823 6.70066C18.8823 6.41725 18.8272 6.13385 18.717 5.87406C18.6068 5.61427 18.4494 5.3781 18.2447 5.17342C18.04 4.96874 17.8038 4.81129 17.544 4.70108C17.0087 4.48066 16.4104 4.48066 15.883 4.70108C15.6153 4.81129 15.3791 4.96874 15.1351 5.21278C15.0328 5.30725 14.9068 5.3781 14.7651 5.40172C14.6234 5.43321 14.4817 5.40959 14.3479 5.35449C14.214 5.29938 14.1117 5.21278 14.033 5.0947C13.9543 4.97661 13.9149 4.84278 13.9149 4.6381C13.9149 4.06342 13.6945 3.52023 13.2851 3.11087C12.4664 2.29215 11.0415 2.29215 10.2228 3.11087C9.81341 3.52023 9.58511 4.06342 9.58511 4.6381V4.77193C9.58511 4.91363 9.54575 5.04746 9.46702 5.15768C9.40404 5.25215 9.32532 5.323 9.23872 5.3781C9.2238 5.38237 9.20945 5.38606 9.19552 5.38963C9.15803 5.39927 9.12359 5.40812 9.08915 5.42534C8.95532 5.48044 8.81362 5.49619 8.67192 5.48044C8.53809 5.44895 8.40426 5.38598 8.26255 5.24427C8.06574 5.03959 7.82957 4.88215 7.56191 4.77193C7.03447 4.55151 6.4283 4.55151 5.90085 4.77193C5.64106 4.88215 5.40489 5.03959 5.20021 5.24427C4.99553 5.44108 4.83809 5.67725 4.72787 5.94491C4.61766 6.2047 4.56255 6.4881 4.56255 6.77151C4.56255 7.05491 4.61766 7.33832 4.72787 7.5981C4.83809 7.86576 4.99553 8.10193 5.23957 8.34597C5.34191 8.44832 5.40489 8.57427 5.43638 8.71598C5.46 8.84981 5.44426 8.99938 5.36553 9.15683C5.3183 9.29066 5.2317 9.40087 5.11362 9.48746C5.0034 9.57406 4.8617 9.62129 4.66489 9.62129C4.09021 9.62129 3.54702 9.84959 3.13766 10.259C2.7283 10.6683 2.5 11.2036 2.5 11.7862C2.5 12.3687 2.7283 12.9119 3.13766 13.3213C3.54702 13.7307 4.09021 13.959 4.66489 13.959H4.8066C4.94043 13.959 5.07426 13.9983 5.19234 14.077C5.30255 14.1558 5.39702 14.2581 5.45213 14.3919C5.50723 14.5258 5.52298 14.6675 5.49936 14.8092C5.46787 14.9509 5.40489 15.0768 5.26319 15.2185C5.05851 15.4153 4.90106 15.6594 4.79085 15.9192C4.68064 16.179 4.62553 16.4624 4.62553 16.7458C4.62553 17.0292 4.68064 17.3126 4.78298 17.5724C4.89319 17.8321 5.05064 18.0683 5.25532 18.273C5.45213 18.4777 5.6883 18.6351 5.95596 18.7453C6.4834 18.9658 7.08957 18.9658 7.61702 18.7453C7.88468 18.6351 8.12085 18.4777 8.36489 18.2336C8.46723 18.1392 8.59319 18.0683 8.73489 18.0447C8.8766 18.0211 9.0183 18.0368 9.18362 18.1077C9.31745 18.1549 9.43553 18.2415 9.51426 18.3517C9.60085 18.4698 9.64809 18.6115 9.64809 18.8083C9.64809 19.383 9.87638 19.9262 10.2857 20.3356ZM9.63234 17.0134C9.3883 16.9032 9.12851 16.8481 8.86872 16.8481C8.75064 16.8481 8.64043 16.8638 8.53809 16.8796C8.16021 16.9504 7.8217 17.1236 7.49894 17.4385C7.40447 17.5251 7.29426 17.6038 7.17617 17.6511C6.93213 17.7456 6.6566 17.7456 6.42043 17.6511C6.29447 17.6038 6.19213 17.533 6.09766 17.4385C6.00319 17.3441 5.93234 17.2338 5.88511 17.1158C5.83 16.9977 5.80638 16.8717 5.80638 16.7379C5.80638 16.6041 5.83787 16.4781 5.88511 16.36C5.94021 16.2419 6.01106 16.1317 6.15277 15.99C6.41255 15.7145 6.59362 15.376 6.6566 15.006C6.72745 14.636 6.68021 14.2502 6.53064 13.9117C6.38894 13.5732 6.14489 13.2898 5.83787 13.0851C5.53085 12.8804 5.16872 12.7702 4.79872 12.7702H4.66489C4.40511 12.7702 4.15319 12.66 3.97213 12.479C3.78319 12.2979 3.68085 12.046 3.68085 11.7862C3.68085 11.5264 3.78319 11.2745 3.96426 11.1013C4.14532 10.9124 4.39723 10.81 4.65702 10.81H4.74362C5.12936 10.8021 5.49149 10.6762 5.79851 10.4558C6.10553 10.2353 6.3417 9.92832 6.45979 9.60555C6.61723 9.25129 6.66447 8.87342 6.59362 8.50342C6.53064 8.12555 6.34957 7.78704 6.03468 7.46427C5.94021 7.37768 5.87723 7.26746 5.82213 7.14938C5.76702 7.03129 5.7434 6.90534 5.7434 6.77151C5.7434 6.63768 5.77489 6.51172 5.82213 6.39363C5.86936 6.27555 5.94021 6.16534 6.03468 6.07087C6.12128 5.9764 6.23149 5.90555 6.34957 5.85832C6.59362 5.75598 6.86128 5.75598 7.10532 5.85832C7.23128 5.91342 7.33362 5.98427 7.48319 6.12598C7.75085 6.39363 8.08936 6.56683 8.45936 6.62981C8.79 6.69278 9.12851 6.66129 9.4434 6.55108C9.50638 6.54321 9.56149 6.52746 9.62447 6.50385C9.96298 6.36215 10.2464 6.1181 10.4432 5.81108C10.6479 5.50406 10.7581 5.14193 10.7581 4.77193V4.6381C10.7581 4.37832 10.8683 4.1264 11.0494 3.94534C11.4194 3.57534 12.0728 3.57534 12.4428 3.94534C12.6317 4.13427 12.734 4.37832 12.734 4.71683C12.734 5.08683 12.8443 5.44108 13.0647 5.74023C13.2694 6.04725 13.5528 6.29129 13.8913 6.433C14.2377 6.59044 14.6234 6.63768 14.9934 6.56683C15.3713 6.50385 15.7098 6.32278 16.0326 6.00789C16.1192 5.91342 16.2294 5.84257 16.3474 5.79534C16.5915 5.693 16.867 5.693 17.1032 5.79534C17.2291 5.84257 17.3315 5.91342 17.426 6.00789C17.5126 6.10236 17.5913 6.21257 17.6385 6.33066C17.6857 6.44874 17.7094 6.5747 17.7094 6.70853C17.7094 6.84236 17.6857 6.96832 17.6385 7.0864C17.5834 7.20449 17.5126 7.3147 17.3709 7.4564C17.1032 7.72406 16.93 8.06257 16.8591 8.44044C16.804 8.77108 16.8277 9.10959 16.9457 9.42449C16.9536 9.47959 16.9694 9.54257 16.993 9.59768C17.1347 9.94406 17.3787 10.2275 17.6857 10.4321C17.9928 10.6368 18.3549 10.747 18.7249 10.747H18.8587C19.1185 10.747 19.3626 10.8494 19.5515 11.0383C19.7404 11.2194 19.8428 11.4713 19.8428 11.7311C19.8428 11.9909 19.7404 12.2349 19.5515 12.4238C19.3626 12.6128 19.1185 12.7151 18.78 12.7151C18.41 12.7151 18.0479 12.8253 17.7409 13.03C17.4338 13.2347 17.1898 13.5181 17.0481 13.8566C16.8985 14.203 16.8513 14.5887 16.9221 14.9587C16.993 15.3287 17.1662 15.6673 17.4811 15.99C17.5755 16.0845 17.6464 16.1947 17.6936 16.3128C17.7409 16.4309 17.7645 16.5568 17.7645 16.6907C17.7645 16.8245 17.733 16.9504 17.6857 17.0685C17.6385 17.1945 17.5677 17.2968 17.4732 17.3913C17.3866 17.4858 17.2764 17.5566 17.1583 17.6038C16.9143 17.7062 16.6387 17.6983 16.4026 17.6038C16.2845 17.5487 16.1743 17.4779 16.0326 17.3362C15.7649 17.0685 15.4185 16.8953 15.0485 16.8245C14.6785 16.7536 14.2928 16.8009 13.9543 16.9504C13.6157 17.1 13.3323 17.3362 13.1277 17.6432C12.923 17.9502 12.8128 18.3045 12.8128 18.6824V18.8162C12.8128 19.076 12.7104 19.32 12.5215 19.509C12.1515 19.8711 11.4981 19.8711 11.1281 19.509C10.9391 19.3279 10.8368 19.076 10.8368 18.8162V18.7296C10.8289 18.3517 10.703 17.9817 10.4826 17.6747C10.2621 17.3598 9.95511 17.1315 9.63234 17.0134ZM9.97872 11.7232C9.97872 10.747 10.7738 9.95191 11.75 9.95191C12.7262 9.95191 13.5213 10.7391 13.5213 11.7232C13.5213 12.7072 12.7262 13.4945 11.75 13.4945C10.7738 13.4945 9.97872 12.6994 9.97872 11.7232ZM11.75 8.77106C10.1204 8.77106 8.79787 10.0936 8.79787 11.7232C8.79787 13.3528 10.1204 14.6753 11.75 14.6753C13.3796 14.6753 14.7021 13.3528 14.7021 11.7232C14.7021 10.0936 13.3796 8.77106 11.75 8.77106Z"/>
</mask>
<path fill-rule="evenodd" clip-rule="evenodd" d="M10.2857 20.3356C10.6951 20.7449 11.2383 20.9732 11.813 20.9732C12.3877 20.9732 12.9309 20.7528 13.3481 20.3356C13.7574 19.9341 13.9857 19.3909 13.9857 18.8083V18.6745C13.9857 18.5328 14.033 18.3911 14.1038 18.2809C14.1747 18.1707 14.2849 18.0762 14.4187 18.0211C14.5447 17.966 14.6864 17.9502 14.8281 17.9738C14.9698 17.9975 15.0957 18.0604 15.2374 18.2021C15.4343 18.4068 15.6704 18.5643 15.9381 18.6745C16.4734 18.8949 17.0717 18.8949 17.5991 18.6745C17.8668 18.5643 18.103 18.399 18.2998 18.2021C18.5045 18.0053 18.6619 17.7692 18.7721 17.5015C18.8823 17.2417 18.9374 16.9583 18.9374 16.6749C18.9374 16.3915 18.8823 16.1081 18.7721 15.8483C18.6619 15.5807 18.5045 15.3445 18.2604 15.1004C18.166 14.9981 18.0951 14.8721 18.0715 14.7304C18.0479 14.5887 18.0636 14.447 18.1187 14.3132V14.3053C18.1738 14.1715 18.2604 14.0692 18.3785 13.9904C18.4966 13.9117 18.6304 13.8724 18.8351 13.8724C19.4177 13.8724 19.9609 13.6441 20.3702 13.2347C20.7717 12.8332 21 12.2821 21 11.7075C21 11.1328 20.7796 10.5896 20.3702 10.1802C19.9609 9.77087 19.4177 9.54257 18.8351 9.54257H18.7013C18.5674 9.54257 18.4336 9.50321 18.3155 9.42449C18.2211 9.36938 18.1502 9.29066 18.0951 9.19619C18.0872 9.14108 18.0794 9.09385 18.0557 9.04661C18.0006 8.92066 17.9849 8.77895 18.0085 8.63725C18.04 8.50342 18.103 8.36959 18.2447 8.22789C18.4494 8.03108 18.6068 7.79491 18.717 7.52725C18.8272 7.26746 18.8823 6.98406 18.8823 6.70066C18.8823 6.41725 18.8272 6.13385 18.717 5.87406C18.6068 5.61427 18.4494 5.3781 18.2447 5.17342C18.04 4.96874 17.8038 4.81129 17.544 4.70108C17.0087 4.48066 16.4104 4.48066 15.883 4.70108C15.6153 4.81129 15.3791 4.96874 15.1351 5.21278C15.0328 5.30725 14.9068 5.3781 14.7651 5.40172C14.6234 5.43321 14.4817 5.40959 14.3479 5.35449C14.214 5.29938 14.1117 5.21278 14.033 5.0947C13.9543 4.97661 13.9149 4.84278 13.9149 4.6381C13.9149 4.06342 13.6945 3.52023 13.2851 3.11087C12.4664 2.29215 11.0415 2.29215 10.2228 3.11087C9.81341 3.52023 9.58511 4.06342 9.58511 4.6381V4.77193C9.58511 4.91363 9.54575 5.04746 9.46702 5.15768C9.40404 5.25215 9.32532 5.323 9.23872 5.3781C9.2238 5.38237 9.20945 5.38606 9.19552 5.38963C9.15803 5.39927 9.12359 5.40812 9.08915 5.42534C8.95532 5.48044 8.81362 5.49619 8.67192 5.48044C8.53809 5.44895 8.40426 5.38598 8.26255 5.24427C8.06574 5.03959 7.82957 4.88215 7.56191 4.77193C7.03447 4.55151 6.4283 4.55151 5.90085 4.77193C5.64106 4.88215 5.40489 5.03959 5.20021 5.24427C4.99553 5.44108 4.83809 5.67725 4.72787 5.94491C4.61766 6.2047 4.56255 6.4881 4.56255 6.77151C4.56255 7.05491 4.61766 7.33832 4.72787 7.5981C4.83809 7.86576 4.99553 8.10193 5.23957 8.34597C5.34191 8.44832 5.40489 8.57427 5.43638 8.71598C5.46 8.84981 5.44426 8.99938 5.36553 9.15683C5.3183 9.29066 5.2317 9.40087 5.11362 9.48746C5.0034 9.57406 4.8617 9.62129 4.66489 9.62129C4.09021 9.62129 3.54702 9.84959 3.13766 10.259C2.7283 10.6683 2.5 11.2036 2.5 11.7862C2.5 12.3687 2.7283 12.9119 3.13766 13.3213C3.54702 13.7307 4.09021 13.959 4.66489 13.959H4.8066C4.94043 13.959 5.07426 13.9983 5.19234 14.077C5.30255 14.1558 5.39702 14.2581 5.45213 14.3919C5.50723 14.5258 5.52298 14.6675 5.49936 14.8092C5.46787 14.9509 5.40489 15.0768 5.26319 15.2185C5.05851 15.4153 4.90106 15.6594 4.79085 15.9192C4.68064 16.179 4.62553 16.4624 4.62553 16.7458C4.62553 17.0292 4.68064 17.3126 4.78298 17.5724C4.89319 17.8321 5.05064 18.0683 5.25532 18.273C5.45213 18.4777 5.6883 18.6351 5.95596 18.7453C6.4834 18.9658 7.08957 18.9658 7.61702 18.7453C7.88468 18.6351 8.12085 18.4777 8.36489 18.2336C8.46723 18.1392 8.59319 18.0683 8.73489 18.0447C8.8766 18.0211 9.0183 18.0368 9.18362 18.1077C9.31745 18.1549 9.43553 18.2415 9.51426 18.3517C9.60085 18.4698 9.64809 18.6115 9.64809 18.8083C9.64809 19.383 9.87638 19.9262 10.2857 20.3356ZM9.63234 17.0134C9.3883 16.9032 9.12851 16.8481 8.86872 16.8481C8.75064 16.8481 8.64043 16.8638 8.53809 16.8796C8.16021 16.9504 7.8217 17.1236 7.49894 17.4385C7.40447 17.5251 7.29426 17.6038 7.17617 17.6511C6.93213 17.7456 6.6566 17.7456 6.42043 17.6511C6.29447 17.6038 6.19213 17.533 6.09766 17.4385C6.00319 17.3441 5.93234 17.2338 5.88511 17.1158C5.83 16.9977 5.80638 16.8717 5.80638 16.7379C5.80638 16.6041 5.83787 16.4781 5.88511 16.36C5.94021 16.2419 6.01106 16.1317 6.15277 15.99C6.41255 15.7145 6.59362 15.376 6.6566 15.006C6.72745 14.636 6.68021 14.2502 6.53064 13.9117C6.38894 13.5732 6.14489 13.2898 5.83787 13.0851C5.53085 12.8804 5.16872 12.7702 4.79872 12.7702H4.66489C4.40511 12.7702 4.15319 12.66 3.97213 12.479C3.78319 12.2979 3.68085 12.046 3.68085 11.7862C3.68085 11.5264 3.78319 11.2745 3.96426 11.1013C4.14532 10.9124 4.39723 10.81 4.65702 10.81H4.74362C5.12936 10.8021 5.49149 10.6762 5.79851 10.4558C6.10553 10.2353 6.3417 9.92832 6.45979 9.60555C6.61723 9.25129 6.66447 8.87342 6.59362 8.50342C6.53064 8.12555 6.34957 7.78704 6.03468 7.46427C5.94021 7.37768 5.87723 7.26746 5.82213 7.14938C5.76702 7.03129 5.7434 6.90534 5.7434 6.77151C5.7434 6.63768 5.77489 6.51172 5.82213 6.39363C5.86936 6.27555 5.94021 6.16534 6.03468 6.07087C6.12128 5.9764 6.23149 5.90555 6.34957 5.85832C6.59362 5.75598 6.86128 5.75598 7.10532 5.85832C7.23128 5.91342 7.33362 5.98427 7.48319 6.12598C7.75085 6.39363 8.08936 6.56683 8.45936 6.62981C8.79 6.69278 9.12851 6.66129 9.4434 6.55108C9.50638 6.54321 9.56149 6.52746 9.62447 6.50385C9.96298 6.36215 10.2464 6.1181 10.4432 5.81108C10.6479 5.50406 10.7581 5.14193 10.7581 4.77193V4.6381C10.7581 4.37832 10.8683 4.1264 11.0494 3.94534C11.4194 3.57534 12.0728 3.57534 12.4428 3.94534C12.6317 4.13427 12.734 4.37832 12.734 4.71683C12.734 5.08683 12.8443 5.44108 13.0647 5.74023C13.2694 6.04725 13.5528 6.29129 13.8913 6.433C14.2377 6.59044 14.6234 6.63768 14.9934 6.56683C15.3713 6.50385 15.7098 6.32278 16.0326 6.00789C16.1192 5.91342 16.2294 5.84257 16.3474 5.79534C16.5915 5.693 16.867 5.693 17.1032 5.79534C17.2291 5.84257 17.3315 5.91342 17.426 6.00789C17.5126 6.10236 17.5913 6.21257 17.6385 6.33066C17.6857 6.44874 17.7094 6.5747 17.7094 6.70853C17.7094 6.84236 17.6857 6.96832 17.6385 7.0864C17.5834 7.20449 17.5126 7.3147 17.3709 7.4564C17.1032 7.72406 16.93 8.06257 16.8591 8.44044C16.804 8.77108 16.8277 9.10959 16.9457 9.42449C16.9536 9.47959 16.9694 9.54257 16.993 9.59768C17.1347 9.94406 17.3787 10.2275 17.6857 10.4321C17.9928 10.6368 18.3549 10.747 18.7249 10.747H18.8587C19.1185 10.747 19.3626 10.8494 19.5515 11.0383C19.7404 11.2194 19.8428 11.4713 19.8428 11.7311C19.8428 11.9909 19.7404 12.2349 19.5515 12.4238C19.3626 12.6128 19.1185 12.7151 18.78 12.7151C18.41 12.7151 18.0479 12.8253 17.7409 13.03C17.4338 13.2347 17.1898 13.5181 17.0481 13.8566C16.8985 14.203 16.8513 14.5887 16.9221 14.9587C16.993 15.3287 17.1662 15.6673 17.4811 15.99C17.5755 16.0845 17.6464 16.1947 17.6936 16.3128C17.7409 16.4309 17.7645 16.5568 17.7645 16.6907C17.7645 16.8245 17.733 16.9504 17.6857 17.0685C17.6385 17.1945 17.5677 17.2968 17.4732 17.3913C17.3866 17.4858 17.2764 17.5566 17.1583 17.6038C16.9143 17.7062 16.6387 17.6983 16.4026 17.6038C16.2845 17.5487 16.1743 17.4779 16.0326 17.3362C15.7649 17.0685 15.4185 16.8953 15.0485 16.8245C14.6785 16.7536 14.2928 16.8009 13.9543 16.9504C13.6157 17.1 13.3323 17.3362 13.1277 17.6432C12.923 17.9502 12.8128 18.3045 12.8128 18.6824V18.8162C12.8128 19.076 12.7104 19.32 12.5215 19.509C12.1515 19.8711 11.4981 19.8711 11.1281 19.509C10.9391 19.3279 10.8368 19.076 10.8368 18.8162V18.7296C10.8289 18.3517 10.703 17.9817 10.4826 17.6747C10.2621 17.3598 9.95511 17.1315 9.63234 17.0134ZM9.97872 11.7232C9.97872 10.747 10.7738 9.95191 11.75 9.95191C12.7262 9.95191 13.5213 10.7391 13.5213 11.7232C13.5213 12.7072 12.7262 13.4945 11.75 13.4945C10.7738 13.4945 9.97872 12.6994 9.97872 11.7232ZM11.75 8.77106C10.1204 8.77106 8.79787 10.0936 8.79787 11.7232C8.79787 13.3528 10.1204 14.6753 11.75 14.6753C13.3796 14.6753 14.7021 13.3528 14.7021 11.7232C14.7021 10.0936 13.3796 8.77106 11.75 8.77106Z" fill="currentColor"/>
<path d="M10.2857 20.3356L10.1443 20.477V20.477L10.2857 20.3356ZM13.3481 20.3356L13.208 20.1928L13.2067 20.1941L13.3481 20.3356ZM14.1038 18.2809L14.2721 18.389L14.1038 18.2809ZM14.4187 18.0211L14.4949 18.2061L14.4989 18.2043L14.4187 18.0211ZM14.8281 17.9738L14.861 17.7766H14.861L14.8281 17.9738ZM15.2374 18.2021L15.3816 18.0635L15.3789 18.0607L15.2374 18.2021ZM15.9381 18.6745L16.0142 18.4896L15.9381 18.6745ZM17.5991 18.6745L17.523 18.4895L17.522 18.49L17.5991 18.6745ZM18.2998 18.2021L18.1611 18.058L18.1584 18.0607L18.2998 18.2021ZM18.7721 17.5015L18.588 17.4234L18.5872 17.4254L18.7721 17.5015ZM18.7721 15.8483L18.5872 15.9245L18.588 15.9264L18.7721 15.8483ZM18.2604 15.1004L18.1133 15.2362L18.119 15.2419L18.2604 15.1004ZM18.0715 14.7304L17.8742 14.7633L18.0715 14.7304ZM18.1187 14.3132L18.3037 14.3894L18.3187 14.3528V14.3132H18.1187ZM18.1187 14.3053L17.9338 14.2292L17.9187 14.2658V14.3053H18.1187ZM18.3785 13.9904L18.4895 14.1569L18.4895 14.1569L18.3785 13.9904ZM20.3702 13.2347L20.5116 13.3761H20.5116L20.3702 13.2347ZM20.3702 10.1802L20.5116 10.0388L20.5116 10.0388L20.3702 10.1802ZM18.3155 9.42449L18.4267 9.25778L18.4163 9.25173L18.3155 9.42449ZM18.0951 9.19619L17.8971 9.22447L17.9026 9.26318L17.9224 9.29696L18.0951 9.19619ZM18.0557 9.04661L17.8723 9.12688L17.8769 9.13605L18.0557 9.04661ZM18.0085 8.63725L17.8134 8.59134L17.8112 8.60437L18.0085 8.63725ZM18.2447 8.22789L18.106 8.0837L18.1033 8.08647L18.2447 8.22789ZM18.717 7.52725L18.5329 7.44914L18.5321 7.4511L18.717 7.52725ZM18.717 5.87406L18.5329 5.95217L18.717 5.87406ZM17.544 4.70108L17.6222 4.51695L17.6202 4.51615L17.544 4.70108ZM15.883 4.70108L15.9591 4.88602L15.9601 4.88562L15.883 4.70108ZM15.1351 5.21278L15.2709 5.35986L15.2765 5.35421L15.1351 5.21278ZM14.7651 5.40172L14.7322 5.20416L14.7217 5.20648L14.7651 5.40172ZM14.033 5.0947L14.1994 4.98376L14.1994 4.98376L14.033 5.0947ZM13.2851 3.11087L13.4265 2.96945L13.2851 3.11087ZM10.2228 3.11087L10.0813 2.96945V2.96945L10.2228 3.11087ZM9.46702 5.15768L9.30419 5.04137L9.30061 5.04674L9.46702 5.15768ZM9.23872 5.3781L9.29367 5.57041L9.32159 5.56243L9.3461 5.54684L9.23872 5.3781ZM9.19552 5.38963L9.14574 5.19593H9.14574L9.19552 5.38963ZM9.08915 5.42534L9.1653 5.61027L9.17206 5.60749L9.17859 5.60422L9.08915 5.42534ZM8.67192 5.48044L8.62611 5.67513L8.63784 5.67789L8.64983 5.67922L8.67192 5.48044ZM8.26255 5.24427L8.11836 5.38292L8.12113 5.38569L8.26255 5.24427ZM7.56191 4.77193L7.4848 4.95647L7.48576 4.95687L7.56191 4.77193ZM5.90085 4.77193L5.82373 4.5874L5.82274 4.58782L5.90085 4.77193ZM5.20021 5.24427L5.33886 5.38847L5.34163 5.38569L5.20021 5.24427ZM4.72787 5.94491L4.912 6.02303L4.91281 6.02106L4.72787 5.94491ZM4.72787 7.5981L4.91282 7.52195L4.91199 7.51999L4.72787 7.5981ZM5.23957 8.34597L5.381 8.20455L5.381 8.20455L5.23957 8.34597ZM5.43638 8.71598L5.63353 8.68118L5.63162 8.67259L5.43638 8.71598ZM5.36553 9.15683L5.18665 9.06738L5.18108 9.07852L5.17693 9.09026L5.36553 9.15683ZM5.11362 9.48746L4.99528 9.3261L4.99005 9.3302L5.11362 9.48746ZM3.13766 10.259L2.99624 10.1175H2.99624L3.13766 10.259ZM3.13766 13.3213L3.27908 13.1799L3.13766 13.3213ZM5.19234 14.077L5.30865 13.9142L5.30328 13.9106L5.19234 14.077ZM5.49936 14.8092L5.69488 14.8526L5.69664 14.842L5.49936 14.8092ZM5.26319 15.2185L5.40184 15.3627L5.40461 15.36L5.26319 15.2185ZM4.79085 15.9192L4.60673 15.8411L4.79085 15.9192ZM4.78298 17.5724L4.59683 17.6457L4.59886 17.6505L4.78298 17.5724ZM5.25532 18.273L5.39951 18.1343L5.39674 18.1316L5.25532 18.273ZM5.95596 18.7453L6.03308 18.5608L6.03211 18.5604L5.95596 18.7453ZM7.61702 18.7453L7.54087 18.5604L7.5399 18.5608L7.61702 18.7453ZM8.36489 18.2336L8.22913 18.0866L8.22347 18.0922L8.36489 18.2336ZM8.73489 18.0447L8.70201 17.8474H8.70201L8.73489 18.0447ZM9.18362 18.1077L9.10466 18.2919L9.11705 18.2963L9.18362 18.1077ZM9.51426 18.3517L9.3515 18.468L9.35297 18.47L9.51426 18.3517ZM9.63234 17.0134L9.55002 17.1957L9.55672 17.1987L9.56362 17.2012L9.63234 17.0134ZM8.53809 16.8796L8.50766 16.6818L8.50123 16.683L8.53809 16.8796ZM7.49894 17.4385L7.63415 17.586L7.6386 17.5817L7.49894 17.4385ZM7.17617 17.6511L7.24837 17.8376L7.25045 17.8368L7.17617 17.6511ZM6.42043 17.6511L6.49472 17.4653L6.49065 17.4638L6.42043 17.6511ZM5.88511 17.1158L6.07109 17.0414L6.06634 17.0312L5.88511 17.1158ZM5.88511 16.36L5.70358 16.2753L5.69941 16.2857L5.88511 16.36ZM6.15277 15.99L6.29425 16.1315L6.29828 16.1272L6.15277 15.99ZM6.6566 15.006L6.46012 14.9684L6.45943 14.9724L6.6566 15.006ZM6.53064 13.9117L6.34611 13.989L6.3477 13.9926L6.53064 13.9117ZM5.83787 13.0851L5.94881 12.9187L5.94881 12.9187L5.83787 13.0851ZM3.97213 12.479L4.11358 12.3375L4.11051 12.3346L3.97213 12.479ZM3.96426 11.1013L4.10263 11.246L4.10865 11.2397L3.96426 11.1013ZM4.74362 10.81V11.0101L4.7477 11.01L4.74362 10.81ZM5.79851 10.4558L5.91515 10.6182L5.79851 10.4558ZM6.45979 9.60555L6.27661 9.52414L6.27196 9.53683L6.45979 9.60555ZM6.59362 8.50342L6.39628 8.53631L6.39719 8.54104L6.59362 8.50342ZM6.03468 7.46427L6.17806 7.32439L6.16983 7.31684L6.03468 7.46427ZM5.82213 7.14938L6.00336 7.0648H6.00336L5.82213 7.14938ZM5.82213 6.39363L5.63643 6.31936L5.63643 6.31936L5.82213 6.39363ZM6.03468 6.07087L6.17624 6.21242L6.18211 6.20601L6.03468 6.07087ZM6.34957 5.85832L6.42386 6.04404L6.42692 6.04275L6.34957 5.85832ZM7.10532 5.85832L7.18549 5.67506L7.18266 5.67388L7.10532 5.85832ZM7.48319 6.12598L7.62466 5.9845L7.62074 5.98078L7.48319 6.12598ZM8.45936 6.62981L8.49679 6.4333L8.49292 6.43264L8.45936 6.62981ZM9.4434 6.55108L9.4186 6.35263L9.39745 6.35527L9.37733 6.36231L9.4434 6.55108ZM9.62447 6.50385L9.69474 6.69125L9.7017 6.68834L9.62447 6.50385ZM10.4432 5.81108L10.2768 5.70012L10.2748 5.70315L10.4432 5.81108ZM11.0494 3.94534L11.1908 4.08676V4.08676L11.0494 3.94534ZM12.4428 3.94534L12.3013 4.08676L12.4428 3.94534ZM13.0647 5.74023L13.2313 5.62917L13.2257 5.62159L13.0647 5.74023ZM13.8913 6.433L13.9741 6.25084L13.9685 6.24851L13.8913 6.433ZM14.9934 6.56683L14.9605 6.36949L14.9558 6.3704L14.9934 6.56683ZM16.0326 6.00789L16.1724 6.15127L16.18 6.14304L16.0326 6.00789ZM16.3474 5.79534L16.4217 5.98106L16.4248 5.97978L16.3474 5.79534ZM17.1032 5.79534L17.0236 5.97908L17.033 5.9826L17.1032 5.79534ZM17.426 6.00789L17.5735 5.87262L17.5674 5.86647L17.426 6.00789ZM17.6385 6.33066L17.4528 6.40493L17.4528 6.40493L17.6385 6.33066ZM17.6385 7.0864L17.82 7.17111L17.8242 7.16068L17.6385 7.0864ZM17.3709 7.4564L17.5123 7.59782L17.3709 7.4564ZM16.8591 8.44044L16.6625 8.40358L16.6619 8.40756L16.8591 8.44044ZM16.9457 9.42449L17.1437 9.3962L17.1407 9.37465L17.133 9.35426L16.9457 9.42449ZM16.993 9.59768L17.1781 9.52194L17.1768 9.51889L16.993 9.59768ZM19.5515 11.0383L19.41 11.1798L19.4131 11.1827L19.5515 11.0383ZM19.5515 12.4238L19.4101 12.2824V12.2824L19.5515 12.4238ZM17.7409 13.03L17.6299 12.8636V12.8636L17.7409 13.03ZM17.0481 13.8566L17.2317 13.9359L17.2326 13.9338L17.0481 13.8566ZM17.4811 15.99L17.3379 16.1297L17.3396 16.1314L17.4811 15.99ZM17.6936 16.3128L17.5079 16.3871L17.5079 16.3871L17.6936 16.3128ZM17.6857 17.0685L17.5 16.9942L17.4985 16.9983L17.6857 17.0685ZM17.4732 17.3913L17.3316 17.2497L17.3258 17.2561L17.4732 17.3913ZM17.1583 17.6038L17.084 17.4181L17.081 17.4194L17.1583 17.6038ZM16.4026 17.6038L16.3178 17.7854L16.3283 17.7895L16.4026 17.6038ZM13.1277 17.6432L12.9613 17.5323H12.9612L13.1277 17.6432ZM12.5215 19.509L12.6614 19.6519L12.6629 19.6504L12.5215 19.509ZM11.1281 19.509L11.268 19.366L11.2665 19.3646L11.1281 19.509ZM10.8368 18.7296H11.0369L11.0368 18.7254L10.8368 18.7296ZM10.4826 17.6747L10.3187 17.7894L10.3201 17.7913L10.4826 17.6747ZM11.813 20.7732C11.2923 20.7732 10.7997 20.5667 10.4272 20.1941L10.1443 20.477C10.5905 20.9231 11.1843 21.1732 11.813 21.1732V20.7732ZM13.2067 20.1941C12.8272 20.5736 12.3349 20.7732 11.813 20.7732V21.1732C12.4404 21.1732 13.0345 20.9319 13.4895 20.477L13.2067 20.1941ZM13.7857 18.8083C13.7857 19.3376 13.5788 19.8292 13.208 20.1928L13.4881 20.4783C13.9361 20.0389 14.1857 19.4442 14.1857 18.8083H13.7857ZM13.7857 18.6745V18.8083H14.1857V18.6745H13.7857ZM13.9356 18.1727C13.8461 18.3119 13.7857 18.4907 13.7857 18.6745H14.1857C14.1857 18.5749 14.2198 18.4703 14.2721 18.389L13.9356 18.1727ZM14.3426 17.8361C14.171 17.9068 14.0286 18.028 13.9356 18.1727L14.2721 18.389C14.3208 18.3133 14.3988 18.2456 14.4949 18.206L14.3426 17.8361ZM14.861 17.7766C14.6838 17.747 14.5025 17.7661 14.3386 17.8378L14.4989 18.2043C14.5869 18.1658 14.689 18.1534 14.7952 18.1711L14.861 17.7766ZM15.3789 18.0607C15.2124 17.8943 15.0499 17.8081 14.861 17.7766L14.7952 18.1711C14.8897 18.1869 14.9791 18.2266 15.096 18.3436L15.3789 18.0607ZM16.0142 18.4896C15.7707 18.3893 15.5581 18.2471 15.3816 18.0635L15.0933 18.3408C15.3104 18.5666 15.5702 18.7393 15.8619 18.8594L16.0142 18.4896ZM17.522 18.49C17.0443 18.6896 16.5011 18.69 16.0142 18.4896L15.8619 18.8594C16.4457 19.0998 17.0991 19.1002 17.6763 18.859L17.522 18.49ZM18.1584 18.0607C17.9783 18.2408 17.7639 18.3904 17.523 18.4896L17.6753 18.8594C17.9697 18.7382 18.2276 18.5572 18.4412 18.3436L18.1584 18.0607ZM18.5872 17.4254C18.4869 17.6689 18.3447 17.8815 18.1612 18.058L18.4384 18.3463C18.6642 18.1292 18.8369 17.8694 18.9571 17.5777L18.5872 17.4254ZM18.7374 16.6749C18.7374 16.9327 18.6873 17.1895 18.588 17.4234L18.9562 17.5796C19.0774 17.294 19.1374 16.9839 19.1374 16.6749H18.7374ZM18.588 15.9264C18.6873 16.1604 18.7374 16.4171 18.7374 16.6749H19.1374C19.1374 16.3659 19.0774 16.0558 18.9562 15.7702L18.588 15.9264ZM18.119 15.2419C18.3462 15.469 18.488 15.6835 18.5872 15.9245L18.9571 15.7722C18.8359 15.4778 18.6628 15.2199 18.4018 14.959L18.119 15.2419ZM17.8742 14.7633C17.9054 14.9506 17.9979 15.111 18.1135 15.2361L18.4074 14.9648C18.334 14.8853 18.2848 14.7937 18.2688 14.6976L17.8742 14.7633ZM17.9338 14.2371C17.8644 14.4055 17.8445 14.585 17.8742 14.7633L18.2688 14.6976C18.2513 14.5925 18.2628 14.4886 18.3037 14.3894L17.9338 14.2371ZM17.9187 14.3053V14.3132H18.3187V14.3053H17.9187ZM18.2676 13.824C18.1178 13.9239 18.0047 14.057 17.9338 14.2292L18.3037 14.3815C18.343 14.286 18.403 14.2145 18.4895 14.1569L18.2676 13.824ZM18.8351 13.6724C18.6008 13.6724 18.4258 13.7185 18.2676 13.824L18.4895 14.1569C18.5674 14.1049 18.6601 14.0724 18.8351 14.0724V13.6724ZM20.2288 13.0933C19.8565 13.4656 19.364 13.6724 18.8351 13.6724V14.0724C19.4713 14.0724 20.0652 13.8226 20.5116 13.3761L20.2288 13.0933ZM20.8 11.7075C20.8 12.2294 20.5925 12.7295 20.2288 13.0933L20.5116 13.3761C20.9509 12.9369 21.2 12.3349 21.2 11.7075H20.8ZM20.2288 10.3217C20.6 10.6929 20.8 11.1849 20.8 11.7075H21.2C21.2 11.0806 20.9591 10.4863 20.5116 10.0388L20.2288 10.3217ZM18.8351 9.74257C19.364 9.74257 19.8565 9.94937 20.2288 10.3217L20.5116 10.0388C20.0652 9.59237 19.4713 9.34257 18.8351 9.34257V9.74257ZM18.7013 9.74257H18.8351V9.34257H18.7013V9.74257ZM18.2046 9.5909C18.3555 9.69149 18.5279 9.74257 18.7013 9.74257V9.34257C18.607 9.34257 18.5118 9.31493 18.4265 9.25808L18.2046 9.5909ZM17.9224 9.29696C17.991 9.41465 18.0845 9.52128 18.2148 9.59724L18.4163 9.25173C18.3576 9.21748 18.3094 9.16666 18.2679 9.09541L17.9224 9.29696ZM17.8769 9.13605C17.8844 9.15119 17.8892 9.16896 17.8971 9.22447L18.2931 9.16791C18.2853 9.11321 18.2743 9.0365 18.2346 8.95717L17.8769 9.13605ZM17.8112 8.60437C17.7817 8.78158 17.8008 8.96283 17.8725 9.12678L18.239 8.96645C18.2005 8.87848 18.1881 8.77633 18.2058 8.67013L17.8112 8.60437ZM18.1033 8.08647C17.9343 8.25541 17.8535 8.42273 17.8138 8.59144L18.2032 8.68306C18.2265 8.58412 18.2716 8.48377 18.3861 8.36931L18.1033 8.08647ZM18.5321 7.4511C18.4318 7.69464 18.2896 7.90724 18.1061 8.08372L18.3833 8.37206C18.6091 8.15493 18.7818 7.89518 18.902 7.6034L18.5321 7.4511ZM18.6823 6.70066C18.6823 6.95848 18.6322 7.2152 18.5329 7.44914L18.9011 7.60536C19.0223 7.31973 19.0823 7.00964 19.0823 6.70066H18.6823ZM18.5329 5.95217C18.6322 6.18612 18.6823 6.44283 18.6823 6.70066H19.0823C19.0823 6.39167 19.0223 6.08158 18.9011 5.79595L18.5329 5.95217ZM18.1033 5.31484C18.2895 5.50108 18.4326 5.71567 18.5329 5.95217L18.9011 5.79595C18.781 5.51287 18.6092 5.25512 18.3861 5.032L18.1033 5.31484ZM17.4659 4.8852C17.7024 4.98553 17.917 5.1286 18.1033 5.31484L18.3861 5.032C18.163 4.80888 17.9052 4.63706 17.6222 4.51697L17.4659 4.8852ZM15.9601 4.88562C16.4378 4.68596 16.981 4.68553 17.4679 4.88602L17.6202 4.51615C17.0365 4.27579 16.383 4.27535 15.8059 4.51655L15.9601 4.88562ZM15.2765 5.35421C15.5037 5.12703 15.7181 4.98525 15.9591 4.88602L15.8068 4.51615C15.5125 4.63734 15.2546 4.81045 14.9937 5.07136L15.2765 5.35421ZM14.798 5.599C14.9853 5.56779 15.1456 5.47526 15.2708 5.35974L14.9995 5.06582C14.9199 5.13924 14.8284 5.18842 14.7322 5.20444L14.798 5.599ZM14.2717 5.53942C14.4324 5.60557 14.6166 5.6396 14.8085 5.59696L14.7217 5.20648C14.6302 5.22681 14.531 5.21361 14.424 5.16955L14.2717 5.53942ZM13.8666 5.20564C13.9664 5.35537 14.0995 5.46852 14.2717 5.53942L14.424 5.16955C14.3285 5.13024 14.257 5.0702 14.1994 4.98376L13.8666 5.20564ZM13.7149 4.6381C13.7149 4.87245 13.7611 5.04739 13.8666 5.20564L14.1994 4.98376C14.1474 4.90584 14.1149 4.81312 14.1149 4.6381H13.7149ZM13.1437 3.25229C13.5149 3.62352 13.7149 4.11558 13.7149 4.6381H14.1149C14.1149 4.01126 13.874 3.41694 13.4265 2.96945L13.1437 3.25229ZM10.3642 3.25229C11.1048 2.51167 12.4031 2.51167 13.1437 3.25229L13.4265 2.96945C12.5297 2.07262 10.9782 2.07262 10.0813 2.96945L10.3642 3.25229ZM9.78511 4.6381C9.78511 4.11745 9.99163 3.62485 10.3642 3.25229L10.0813 2.96945C9.63518 3.41561 9.38511 4.00939 9.38511 4.6381H9.78511ZM9.78511 4.77193V4.6381H9.38511V4.77193H9.78511ZM9.62977 5.27393C9.73524 5.12626 9.78511 4.95076 9.78511 4.77193H9.38511C9.38511 4.87651 9.35625 4.96867 9.30428 5.04143L9.62977 5.27393ZM9.3461 5.54684C9.45244 5.47916 9.55273 5.38967 9.63343 5.26862L9.30061 5.04674C9.25536 5.11462 9.1982 5.16683 9.13135 5.20937L9.3461 5.54684ZM9.24529 5.58334C9.2589 5.57985 9.27577 5.57552 9.29367 5.57041L9.18378 5.1858C9.17182 5.18922 9.15999 5.19227 9.14574 5.19593L9.24529 5.58334ZM9.17859 5.60422C9.19105 5.59799 9.20504 5.59368 9.24529 5.58334L9.14574 5.19593C9.11101 5.20485 9.05612 5.21824 8.99971 5.24645L9.17859 5.60422ZM8.64983 5.67922C8.82102 5.69824 8.99697 5.67959 9.1653 5.61027L9.013 5.2404C8.91367 5.2813 8.80622 5.29413 8.694 5.28167L8.64983 5.67922ZM8.12113 5.38569C8.29008 5.55464 8.45739 5.63543 8.62611 5.67513L8.71772 5.28576C8.61878 5.26248 8.51844 5.21731 8.40398 5.10285L8.12113 5.38569ZM7.48576 4.95687C7.7293 5.05715 7.9419 5.19935 8.11839 5.38289L8.40672 5.10565C8.18959 4.87984 7.92985 4.70714 7.63806 4.587L7.48576 4.95687ZM5.97797 4.95647C6.45607 4.75666 7.00669 4.75666 7.4848 4.95647L7.63903 4.5874C7.06224 4.34635 6.40052 4.34635 5.82373 4.5874L5.97797 4.95647ZM5.34163 5.38569C5.52787 5.19946 5.74246 5.05638 5.97896 4.95605L5.82274 4.58782C5.53967 4.70791 5.28191 4.87973 5.05879 5.10285L5.34163 5.38569ZM4.91281 6.02106C5.01309 5.77752 5.15529 5.56493 5.33883 5.38844L5.06159 5.10011C4.83578 5.31724 4.66308 5.57698 4.54294 5.86876L4.91281 6.02106ZM4.76255 6.77151C4.76255 6.51368 4.81274 6.25697 4.91199 6.02302L4.54376 5.8668C4.42258 6.15243 4.36255 6.46253 4.36255 6.77151H4.76255ZM4.91199 7.51999C4.81274 7.28605 4.76255 7.02933 4.76255 6.77151H4.36255C4.36255 7.08049 4.42258 7.39058 4.54376 7.67621L4.91199 7.51999ZM5.381 8.20455C5.15382 7.97738 5.01204 7.76294 4.91281 7.52195L4.54294 7.67425C4.66413 7.96858 4.83724 8.22649 5.09815 8.4874L5.381 8.20455ZM5.63162 8.67259C5.5931 8.49923 5.51394 8.3375 5.381 8.20455L5.09815 8.4874C5.16989 8.55914 5.21669 8.64932 5.24115 8.75936L5.63162 8.67259ZM5.54442 9.24627C5.64219 9.05072 5.66447 8.85763 5.63334 8.68122L5.23943 8.75073C5.25553 8.84198 5.24632 8.94804 5.18665 9.06738L5.54442 9.24627ZM5.23189 9.64875C5.37867 9.5411 5.49205 9.39929 5.55413 9.22339L5.17693 9.09026C5.14455 9.18202 5.08473 9.26063 4.99534 9.32618L5.23189 9.64875ZM4.66489 9.82129C4.89601 9.82129 5.08428 9.76487 5.23718 9.64473L4.99005 9.3302C4.92253 9.38325 4.82739 9.42129 4.66489 9.42129V9.82129ZM3.27908 10.4004C3.65164 10.0278 4.14425 9.82129 4.66489 9.82129V9.42129C4.03618 9.42129 3.4424 9.67137 2.99624 10.1175L3.27908 10.4004ZM2.7 11.7862C2.7 11.2581 2.90624 10.7732 3.27908 10.4004L2.99624 10.1175C2.55035 10.5634 2.3 11.1492 2.3 11.7862H2.7ZM3.27908 13.1799C2.9068 12.8076 2.7 12.3151 2.7 11.7862H2.3C2.3 12.4224 2.5498 13.0163 2.99624 13.4627L3.27908 13.1799ZM4.66489 13.759C4.14425 13.759 3.65164 13.5524 3.27908 13.1799L2.99624 13.4627C3.4424 13.9089 4.03618 14.159 4.66489 14.159V13.759ZM4.8066 13.759H4.66489V14.159H4.8066V13.759ZM5.30328 13.9106C5.1524 13.81 4.97997 13.759 4.8066 13.759V14.159C4.90088 14.159 4.99612 14.1866 5.0814 14.2434L5.30328 13.9106ZM5.63706 14.3158C5.56433 14.1391 5.44141 14.0092 5.30859 13.9143L5.07609 14.2398C5.1637 14.3024 5.22971 14.3771 5.26719 14.4681L5.63706 14.3158ZM5.69664 14.842C5.72636 14.6637 5.70642 14.4842 5.63706 14.3158L5.26719 14.4681C5.30804 14.5673 5.31959 14.6712 5.30208 14.7763L5.69664 14.842ZM5.40461 15.36C5.57171 15.1929 5.65441 15.0334 5.6946 14.8526L5.30412 14.7658C5.28134 14.8683 5.23808 14.9608 5.12177 15.0771L5.40461 15.36ZM4.97497 15.9973C5.0763 15.7584 5.21946 15.538 5.40181 15.3627L5.12457 15.0744C4.89756 15.2926 4.72583 15.5603 4.60673 15.8411L4.97497 15.9973ZM4.82553 16.7458C4.82553 16.4879 4.87572 16.2312 4.97497 15.9973L4.60673 15.8411C4.48556 16.1267 4.42553 16.4368 4.42553 16.7458H4.82553ZM4.96906 17.4991C4.87576 17.2622 4.82553 17.0037 4.82553 16.7458H4.42553C4.42553 17.0547 4.48552 17.3629 4.5969 17.6457L4.96906 17.4991ZM5.39674 18.1316C5.2105 17.9453 5.06743 17.7307 4.9671 17.4942L4.59886 17.6505C4.71895 17.9335 4.89077 18.1913 5.1139 18.4144L5.39674 18.1316ZM6.03211 18.5604C5.78857 18.4601 5.57597 18.3179 5.39949 18.1344L5.11115 18.4116C5.32828 18.6374 5.58803 18.8101 5.87981 18.9303L6.03211 18.5604ZM7.5399 18.5608C7.0618 18.7606 6.51118 18.7606 6.03308 18.5608L5.87884 18.9299C6.45563 19.1709 7.11735 19.1709 7.69414 18.9299L7.5399 18.5608ZM8.22347 18.0922C7.9963 18.3194 7.78186 18.4612 7.54087 18.5604L7.69317 18.9303C7.9875 18.8091 8.24541 18.636 8.50631 18.3751L8.22347 18.0922ZM8.70201 17.8474C8.51475 17.8786 8.35438 17.9712 8.22924 18.0867L8.50055 18.3806C8.58008 18.3072 8.67163 18.258 8.76777 18.242L8.70201 17.8474ZM9.2624 17.9238C9.06522 17.8393 8.88486 17.8169 8.70201 17.8474L8.76777 18.242C8.86833 18.2252 8.97137 18.2343 9.10483 18.2915L9.2624 17.9238ZM9.677 18.2355C9.57282 18.0896 9.42009 17.979 9.25018 17.9191L9.11705 18.2963C9.2148 18.3308 9.29824 18.3934 9.35151 18.468L9.677 18.2355ZM9.84808 18.8083C9.84808 18.5755 9.79089 18.3908 9.67554 18.2334L9.35297 18.47C9.41081 18.5489 9.44809 18.6475 9.44809 18.8083H9.84808ZM10.4272 20.1941C10.0546 19.8216 9.84808 19.329 9.84808 18.8083H9.44809C9.44809 19.437 9.69816 20.0308 10.1443 20.477L10.4272 20.1941ZM8.86872 17.0481C9.10011 17.0481 9.33184 17.0972 9.55002 17.1957L9.71466 16.8311C9.44476 16.7093 9.15691 16.6481 8.86872 16.6481V17.0481ZM8.5685 17.0773C8.67041 17.0616 8.76734 17.0481 8.86872 17.0481V16.6481C8.73394 16.6481 8.61044 16.6661 8.50767 16.6819L8.5685 17.0773ZM7.6386 17.5817C7.935 17.2925 8.23836 17.1393 8.57494 17.0762L8.50123 16.683C8.08207 16.7616 7.70841 16.9548 7.35927 17.2954L7.6386 17.5817ZM7.25045 17.8368C7.3981 17.7777 7.52851 17.6827 7.63408 17.586L7.36379 17.2911C7.28042 17.3675 7.19041 17.43 7.10189 17.4654L7.25045 17.8368ZM6.34615 17.8368C6.63076 17.9506 6.95866 17.9497 7.24837 17.8376L7.10397 17.4646C6.9056 17.5414 6.68243 17.5405 6.4947 17.4654L6.34615 17.8368ZM5.95624 17.5799C6.06771 17.6914 6.19359 17.7796 6.3502 17.8383L6.49065 17.4638C6.39534 17.4281 6.31655 17.3746 6.23908 17.2971L5.95624 17.5799ZM5.69941 17.19C5.75636 17.3324 5.84197 17.4657 5.95624 17.5799L6.23908 17.2971C6.16441 17.2224 6.10832 17.1353 6.0708 17.0415L5.69941 17.19ZM5.60638 16.7379C5.60638 16.8959 5.63442 17.0515 5.70387 17.2003L6.06634 17.0312C6.02558 16.9438 6.00638 16.8476 6.00638 16.7379H5.60638ZM5.69941 16.2857C5.64542 16.4207 5.60638 16.5722 5.60638 16.7379H6.00638C6.00638 16.6359 6.03032 16.5355 6.0708 16.4343L5.69941 16.2857ZM6.01134 15.8486C5.85374 16.0062 5.76918 16.1355 5.70387 16.2754L6.06634 16.4446C6.11125 16.3484 6.16839 16.2572 6.29419 16.1314L6.01134 15.8486ZM6.45943 14.9724C6.40378 15.2994 6.24302 15.6028 6.00725 15.8528L6.29828 16.1272C6.58208 15.8262 6.78346 15.4526 6.85376 15.0395L6.45943 14.9724ZM6.3477 13.9926C6.48119 14.2947 6.52321 14.6391 6.46017 14.9684L6.85303 15.0436C6.93169 14.6328 6.87924 14.2058 6.71358 13.8309L6.3477 13.9926ZM5.72693 13.2515C6.00388 13.4362 6.22085 13.6896 6.34615 13.9889L6.71513 13.8345C6.55702 13.4568 6.28591 13.1434 5.94881 12.9187L5.72693 13.2515ZM4.79872 12.9702C5.12909 12.9702 5.45264 13.0687 5.72693 13.2515L5.94881 12.9187C5.60906 12.6922 5.20836 12.5702 4.79872 12.5702V12.9702ZM4.66489 12.9702H4.79872V12.5702H4.66489V12.9702ZM3.83071 12.6204C4.04738 12.8371 4.34944 12.9702 4.66489 12.9702V12.5702C4.46077 12.5702 4.259 12.483 4.11355 12.3375L3.83071 12.6204ZM3.48085 11.7862C3.48085 12.098 3.60368 12.4029 3.83375 12.6234L4.11051 12.3346C3.96271 12.1929 3.88085 11.994 3.88085 11.7862H3.48085ZM3.82601 10.9568C3.60278 11.1703 3.48085 11.4757 3.48085 11.7862H3.88085C3.88085 11.5771 3.9636 11.3787 4.1025 11.2458L3.82601 10.9568ZM4.65702 10.61C4.34522 10.61 4.04034 10.7328 3.81986 10.9629L4.10865 11.2397C4.2503 11.0919 4.44925 11.01 4.65702 11.01V10.61ZM4.74362 10.61H4.65702V11.01H4.74362V10.61ZM5.68187 10.2933C5.40652 10.491 5.08339 10.603 4.73954 10.6101L4.7477 11.01C5.17533 11.0012 5.57646 10.8614 5.91515 10.6182L5.68187 10.2933ZM6.27196 9.53683C6.16863 9.81929 5.95865 10.0946 5.68187 10.2933L5.91515 10.6182C6.25242 10.3761 6.51478 10.0373 6.64761 9.67427L6.27196 9.53683ZM6.39719 8.54104C6.45999 8.869 6.41873 9.20549 6.27703 9.52432L6.64255 9.68678C6.81574 9.2971 6.86895 8.87785 6.79005 8.46581L6.39719 8.54104ZM5.89152 7.60394C6.18272 7.90242 6.34113 8.20503 6.39634 8.5363L6.7909 8.47054C6.72015 8.04607 6.51643 7.67166 6.17784 7.32461L5.89152 7.60394ZM5.64089 7.23396C5.6995 7.35955 5.77586 7.49833 5.89954 7.6117L6.16983 7.31684C6.10457 7.25702 6.05497 7.17538 6.00336 7.0648L5.64089 7.23396ZM5.5434 6.77151C5.5434 6.92947 5.57144 7.08513 5.64089 7.23396L6.00336 7.0648C5.9626 6.97746 5.9434 6.8812 5.9434 6.77151H5.5434ZM5.63643 6.31936C5.58245 6.45432 5.5434 6.60586 5.5434 6.77151H5.9434C5.9434 6.66949 5.96734 6.56912 6.00782 6.46791L5.63643 6.31936ZM5.89326 5.92945C5.77899 6.04371 5.69338 6.17699 5.63643 6.31936L6.00782 6.46791C6.04534 6.37411 6.10143 6.28696 6.1761 6.21229L5.89326 5.92945ZM6.2753 5.67262C6.13373 5.72925 5.9971 5.81589 5.88725 5.93572L6.18211 6.20601C6.24546 6.13691 6.32925 6.08185 6.42385 6.04401L6.2753 5.67262ZM7.18266 5.67388C6.88915 5.55079 6.56575 5.55079 6.27223 5.67388L6.42692 6.04275C6.62149 5.96116 6.83341 5.96116 7.02797 6.04275L7.18266 5.67388ZM7.62074 5.98078C7.46047 5.82895 7.33914 5.74231 7.18548 5.67508L7.02516 6.04155C7.12341 6.08453 7.20677 6.1396 7.34564 6.27117L7.62074 5.98078ZM8.49292 6.43264C8.16338 6.37655 7.86268 6.22262 7.62461 5.98455L7.34177 6.2674C7.63902 6.56465 8.01534 6.7571 8.4258 6.82697L8.49292 6.43264ZM9.37733 6.36231C9.0933 6.46172 8.79047 6.48928 8.49678 6.43334L8.42194 6.82627C8.78953 6.89629 9.16372 6.86087 9.50947 6.73985L9.37733 6.36231ZM9.55424 6.31658C9.50074 6.33665 9.46139 6.34728 9.4186 6.35263L9.46821 6.74954C9.55138 6.73914 9.62224 6.71828 9.69469 6.69111L9.55424 6.31658ZM10.2748 5.70315C10.099 5.97739 9.8468 6.19396 9.54724 6.31936L9.7017 6.68834C10.0792 6.53033 10.3937 6.25881 10.6116 5.91901L10.2748 5.70315ZM10.5581 4.77193C10.5581 5.1023 10.4596 5.42585 10.2768 5.70014L10.6096 5.92202C10.8361 5.58227 10.9581 5.18157 10.9581 4.77193H10.5581ZM10.5581 4.6381V4.77193H10.9581V4.6381H10.5581ZM10.9079 3.80392C10.6913 4.02059 10.5581 4.32265 10.5581 4.6381H10.9581C10.9581 4.43398 11.0453 4.23221 11.1908 4.08676L10.9079 3.80392ZM12.5842 3.80392C12.1361 3.35581 11.356 3.35581 10.9079 3.80392L11.1908 4.08676C11.4827 3.79486 12.0094 3.79486 12.3013 4.08676L12.5842 3.80392ZM12.934 4.71683C12.934 4.33207 12.8152 4.03491 12.5842 3.80392L12.3013 4.08676C12.4482 4.23364 12.534 4.42456 12.534 4.71683H12.934ZM13.2257 5.62159C13.0319 5.35856 12.934 5.04635 12.934 4.71683H12.534C12.534 5.1273 12.6566 5.52361 12.9037 5.85887L13.2257 5.62159ZM13.9685 6.24851C13.6692 6.12321 13.4157 5.90624 13.2311 5.62929L12.8983 5.85117C13.123 6.18827 13.4364 6.45938 13.814 6.61748L13.9685 6.24851ZM14.9558 6.3704C14.6271 6.43334 14.2834 6.39152 13.974 6.25092L13.8085 6.61507C14.192 6.78936 14.6197 6.84202 15.031 6.76326L14.9558 6.3704ZM15.8929 5.86473C15.5944 6.15593 15.2918 6.31434 14.9605 6.36955L15.0263 6.76411C15.4508 6.69336 15.8252 6.48964 16.1722 6.15105L15.8929 5.86473ZM16.2732 5.60964C16.1316 5.66627 15.995 5.75291 15.8851 5.87274L16.18 6.14304C16.2433 6.07393 16.3271 6.01887 16.4217 5.98103L16.2732 5.60964ZM17.1827 5.61183C16.895 5.48715 16.5628 5.48816 16.2701 5.6109L16.4248 5.97978C16.6202 5.89783 16.839 5.89884 17.0237 5.97885L17.1827 5.61183ZM17.5674 5.86647C17.4559 5.755 17.33 5.6668 17.1734 5.60807L17.033 5.9826C17.1283 6.01834 17.2071 6.07185 17.2845 6.14931L17.5674 5.86647ZM17.8242 6.25638C17.7651 6.10873 17.6702 5.97831 17.5734 5.87275L17.2785 6.14303C17.3549 6.2264 17.4174 6.31641 17.4528 6.40493L17.8242 6.25638ZM17.9094 6.70853C17.9094 6.5506 17.8814 6.39931 17.8242 6.25638L17.4528 6.40493C17.4901 6.49817 17.5094 6.59879 17.5094 6.70853H17.9094ZM17.8242 7.16068C17.8814 7.01775 17.9094 6.86645 17.9094 6.70853H17.5094C17.5094 6.81826 17.4901 6.91888 17.4528 7.01212L17.8242 7.16068ZM17.5123 7.59782C17.6699 7.44022 17.7544 7.31092 17.8197 7.17098L17.4573 7.00182C17.4124 7.09805 17.3552 7.18918 17.2294 7.31498L17.5123 7.59782ZM17.0557 8.4773C17.1195 8.13695 17.2746 7.83551 17.5123 7.59782L17.2294 7.31498C16.9318 7.61261 16.7405 7.98819 16.6626 8.40359L17.0557 8.4773ZM17.133 9.35426C17.0286 9.0757 17.0065 8.77313 17.0564 8.47332L16.6619 8.40756C16.6016 8.76904 16.6268 9.14348 16.7585 9.49471L17.133 9.35426ZM17.1768 9.51889C17.1614 9.48294 17.1496 9.4375 17.1437 9.3962L16.7478 9.45277C16.7576 9.52169 16.7773 9.60221 16.8091 9.67646L17.1768 9.51889ZM17.7967 10.2657C17.5201 10.0813 17.3034 9.82836 17.1781 9.52195L16.8079 9.6734C16.9659 10.0598 17.2374 10.3736 17.5748 10.5986L17.7967 10.2657ZM18.7249 10.547C18.3945 10.547 18.071 10.4486 17.7967 10.2657L17.5748 10.5986C17.9146 10.8251 18.3153 10.947 18.7249 10.947V10.547ZM18.8587 10.547H18.7249V10.947H18.8587V10.547ZM19.6929 10.8969C19.4675 10.6715 19.173 10.547 18.8587 10.547V10.947C19.064 10.947 19.2576 11.0273 19.4101 11.1797L19.6929 10.8969ZM20.0428 11.7311C20.0428 11.4193 19.9199 11.1144 19.6899 10.8939L19.4131 11.1827C19.5609 11.3244 19.6428 11.5233 19.6428 11.7311H20.0428ZM19.6929 12.5653C19.9183 12.3399 20.0428 12.0454 20.0428 11.7311H19.6428C19.6428 11.9364 19.5625 12.13 19.4101 12.2824L19.6929 12.5653ZM18.78 12.9151C19.1648 12.9151 19.4619 12.7963 19.6929 12.5653L19.4101 12.2824C19.2632 12.4293 19.0723 12.5151 18.78 12.5151V12.9151ZM17.8518 13.1964C18.1261 13.0136 18.4496 12.9151 18.78 12.9151V12.5151C18.3704 12.5151 17.9697 12.6371 17.6299 12.8636L17.8518 13.1964ZM17.2326 13.9338C17.3579 13.6345 17.5748 13.3811 17.8518 13.1964L17.6299 12.8636C17.2928 13.0883 17.0217 13.4017 16.8636 13.7794L17.2326 13.9338ZM17.1186 14.9211C17.0556 14.5923 17.0973 14.2472 17.2317 13.9359L16.8645 13.7773C16.6998 14.1588 16.647 14.5852 16.7257 14.9964L17.1186 14.9211ZM17.6242 15.8504C17.3348 15.5537 17.1815 15.25 17.1186 14.9211L16.7257 14.9964C16.8044 15.4075 16.9976 15.7808 17.3379 16.1297L17.6242 15.8504ZM17.8793 16.2385C17.8224 16.0961 17.7368 15.9629 17.6225 15.8486L17.3396 16.1314C17.4143 16.2061 17.4704 16.2933 17.5079 16.3871L17.8793 16.2385ZM17.9645 16.6907C17.9645 16.5327 17.9365 16.3814 17.8793 16.2385L17.5079 16.3871C17.5452 16.4803 17.5645 16.5809 17.5645 16.6907H17.9645ZM17.8714 17.1428C17.9254 17.0078 17.9645 16.8563 17.9645 16.6907H17.5645C17.5645 16.7927 17.5405 16.893 17.5001 16.9943L17.8714 17.1428ZM17.6146 17.5327C17.7261 17.4212 17.8143 17.2954 17.873 17.1388L17.4985 16.9983C17.4627 17.0936 17.4092 17.1724 17.3318 17.2499L17.6146 17.5327ZM17.2326 17.7895C17.3741 17.7329 17.5108 17.6463 17.6206 17.5264L17.3258 17.2561C17.2624 17.3253 17.1786 17.3803 17.084 17.4182L17.2326 17.7895ZM16.3283 17.7895C16.6088 17.9018 16.939 17.9127 17.2356 17.7883L17.081 17.4194C16.8895 17.4997 16.6686 17.4949 16.4768 17.4182L16.3283 17.7895ZM15.8911 17.4776C16.0487 17.6352 16.178 17.7198 16.318 17.7851L16.4871 17.4226C16.3909 17.3777 16.2998 17.3206 16.174 17.1948L15.8911 17.4776ZM15.0109 17.0209C15.3449 17.0849 15.6541 17.2406 15.8911 17.4776L16.174 17.1948C15.8757 16.8965 15.4921 16.7058 15.0861 16.6281L15.0109 17.0209ZM14.0351 17.1334C14.3372 16.9999 14.6817 16.9579 15.0109 17.0209L15.0861 16.6281C14.6754 16.5494 14.2483 16.6018 13.8734 16.7675L14.0351 17.1334ZM13.2941 17.7541C13.4773 17.4794 13.7307 17.2679 14.0351 17.1334L13.8734 16.7675C13.5008 16.9322 13.1874 17.193 12.9613 17.5323L13.2941 17.7541ZM13.0128 18.6824C13.0128 18.3446 13.111 18.0288 13.2941 17.7541L12.9612 17.5323C12.735 17.8717 12.6128 18.2644 12.6128 18.6824H13.0128ZM13.0128 18.8162V18.6824H12.6128V18.8162H13.0128ZM12.6629 19.6504C12.8883 19.425 13.0128 19.1305 13.0128 18.8162H12.6128C12.6128 19.0215 12.5325 19.2151 12.3801 19.3675L12.6629 19.6504ZM10.9882 19.6519C11.4359 20.0901 12.2136 20.0901 12.6614 19.6519L12.3816 19.366C12.0893 19.6521 11.5602 19.6521 11.268 19.366L10.9882 19.6519ZM10.6368 18.8162C10.6368 19.128 10.7596 19.4329 10.9897 19.6534L11.2665 19.3646C11.1187 19.2229 11.0368 19.024 11.0368 18.8162H10.6368ZM10.6368 18.7296V18.8162H11.0368V18.7296H10.6368ZM10.3201 17.7913C10.5175 18.0663 10.6298 18.3972 10.6369 18.7338L11.0368 18.7254C11.028 18.3062 10.8885 17.8972 10.645 17.5581L10.3201 17.7913ZM9.56362 17.2012C9.84795 17.3053 10.1218 17.508 10.3187 17.7894L10.6464 17.56C10.4025 17.2116 10.0623 16.9577 9.70106 16.8256L9.56362 17.2012ZM11.75 9.75191C10.6634 9.75191 9.77872 10.6366 9.77872 11.7232H10.1787C10.1787 10.8575 10.8843 10.1519 11.75 10.1519V9.75191ZM13.7213 11.7232C13.7213 10.6281 12.836 9.75191 11.75 9.75191V10.1519C12.6163 10.1519 13.3213 10.8502 13.3213 11.7232H13.7213ZM11.75 13.6945C12.836 13.6945 13.7213 12.8183 13.7213 11.7232H13.3213C13.3213 12.5962 12.6163 13.2945 11.75 13.2945V13.6945ZM9.77872 11.7232C9.77872 12.8098 10.6634 13.6945 11.75 13.6945V13.2945C10.8843 13.2945 10.1787 12.5889 10.1787 11.7232H9.77872ZM8.99787 11.7232C8.99787 10.2041 10.2309 8.97106 11.75 8.97106V8.57106C10.01 8.57106 8.59787 9.98316 8.59787 11.7232H8.99787ZM11.75 14.4753C10.2309 14.4753 8.99787 13.2423 8.99787 11.7232H8.59787C8.59787 13.4632 10.01 14.8753 11.75 14.8753V14.4753ZM14.5021 11.7232C14.5021 13.2423 13.2691 14.4753 11.75 14.4753V14.8753C13.49 14.8753 14.9021 13.4632 14.9021 11.7232H14.5021ZM11.75 8.97106C13.2691 8.97106 14.5021 10.2041 14.5021 11.7232H14.9021C14.9021 9.98316 13.49 8.57106 11.75 8.57106V8.97106Z" fill="currentColor" mask="url(#path-1-outside-1_1148_200935)"/>
</svg>
