<svg width="100" height="23" viewBox="0 0 100 23" fill="none" xmlns="http://www.w3.org/2000/svg">
<g clip-path="url(#clip0_5290_27791)">
<g filter="url(#filter0_d_5290_27791)">
<path d="M30.667 6.54275C30.1003 6.80029 29.5939 7.15875 29.1636 7.60857C28.7325 8.05926 28.3916 8.59 28.1534 9.18425C27.9126 9.77937 27.7913 10.425 27.7913 11.1019C27.7913 11.7892 27.9135 12.44 28.1534 13.036C28.3925 13.6311 28.7333 14.1619 29.1645 14.6126C29.5948 15.0624 30.1003 15.4182 30.667 15.6697C31.2318 15.9211 31.8445 16.0482 32.4864 16.0482C33.0415 16.0482 33.5736 15.9533 34.0676 15.7663C34.5661 15.5775 35.0521 15.3121 35.5134 14.978C35.7197 14.8327 35.9269 14.7587 36.1323 14.7587C36.1562 14.7587 36.181 14.7605 36.2049 14.7622C36.435 14.7814 36.6316 14.8727 36.7892 15.0345C36.9494 15.1981 37.03 15.4217 37.03 15.6993C37.03 15.8272 37.0034 15.9533 36.9521 16.0743C36.8999 16.1952 36.8219 16.3074 36.7201 16.4075C36.0915 16.9008 35.4231 17.2706 34.7192 17.5177C34.0154 17.7657 33.2646 17.8909 32.4872 17.8909C31.5603 17.8909 30.6811 17.7169 29.8746 17.3741C29.068 17.0313 28.3544 16.5467 27.7533 15.9333C27.1521 15.3199 26.6767 14.5943 26.3402 13.7747C26.0029 12.9551 25.832 12.0563 25.832 11.1027C25.832 10.1605 26.0029 9.26952 26.3402 8.45514C26.6767 7.64164 27.1512 6.91862 27.7524 6.30522C28.3535 5.69183 29.0636 5.2046 29.8639 4.85657C30.6652 4.50768 31.5479 4.33105 32.4855 4.33105C33.3637 4.33105 34.1322 4.4459 34.7688 4.67125C35.4054 4.89746 36.0526 5.27333 36.6918 5.78928C36.7883 5.85975 36.8689 5.9398 36.9282 6.02332C36.9875 6.10946 37.0282 6.19733 37.0495 6.28521C37.069 6.36787 37.0787 6.46183 37.0787 6.57233C37.0787 6.8203 36.9875 7.02911 36.8078 7.19268C36.6334 7.35104 36.4218 7.44065 36.1774 7.45979C36.1535 7.46153 36.1287 7.4624 36.1048 7.4624C35.8817 7.4624 35.6648 7.38149 35.4585 7.22401C35.0495 6.87685 34.6263 6.60974 34.196 6.4279C33.7701 6.2478 33.1938 6.15644 32.4846 6.15644C31.8436 6.15644 31.2318 6.28608 30.667 6.54275Z" fill="white" style="fill:white;fill-opacity:1;"/>
<path d="M44.1213 8.29788C44.9172 8.29788 45.6405 8.46754 46.2718 8.80338C46.9057 9.14097 47.4121 9.64125 47.7769 10.2938C48.1417 10.9411 48.3258 11.7442 48.3258 12.6812V16.7644C48.3258 17.0429 48.2302 17.2786 48.0416 17.464C47.853 17.6493 47.6131 17.7433 47.3298 17.7433C47.0456 17.7433 46.8065 17.6484 46.618 17.4631C46.4294 17.2786 46.3338 17.0429 46.3338 16.7636V12.6804C46.3338 12.0766 46.2204 11.5797 45.9973 11.2039C45.776 10.8298 45.4741 10.5487 45.1005 10.3678C44.7215 10.1842 44.278 10.0911 43.7839 10.0911C43.3351 10.0911 42.9234 10.1807 42.5613 10.3591C42.1992 10.5365 41.9096 10.7767 41.6989 11.0716C41.4909 11.3622 41.3855 11.7024 41.3855 12.0826V16.7627C41.3855 17.0402 41.2934 17.2752 41.1111 17.4605C40.9278 17.6467 40.6852 17.7415 40.3895 17.7415C40.1053 17.7415 39.8662 17.6467 39.6777 17.4614C39.4882 17.276 39.3926 17.0411 39.3926 16.7618V5.47627C39.3926 5.18567 39.4891 4.9464 39.6786 4.7663C39.8671 4.58707 40.1062 4.49658 40.3886 4.49658C40.6834 4.49658 40.926 4.58794 41.1093 4.76804C41.2925 4.94814 41.3855 5.18654 41.3855 5.47627V9.23667C41.5865 9.07136 41.8078 8.92432 42.0469 8.79555C42.6613 8.4658 43.359 8.29788 44.1213 8.29788Z" fill="white" style="fill:white;fill-opacity:1;"/>
<path fill-rule="evenodd" clip-rule="evenodd" d="M57.6829 8.93829C56.9667 8.52414 56.1486 8.31445 55.25 8.31445C54.3513 8.31445 53.5297 8.52414 52.8091 8.93829C52.0875 9.35244 51.5085 9.92407 51.0879 10.6375C50.6665 11.3518 50.4531 12.1671 50.4531 13.0606C50.4531 13.9533 50.6488 14.7642 51.0348 15.4716C51.4208 16.1807 51.9573 16.7497 52.6267 17.1647C53.2978 17.5806 54.0663 17.7912 54.9109 17.7912C55.7555 17.7912 56.5231 17.5806 57.196 17.1647C57.5041 16.9742 57.7856 16.7488 58.0353 16.4948V16.7619C58.0353 17.0412 58.1309 17.2761 58.3195 17.4614C58.5081 17.6467 58.748 17.7407 59.0313 17.7407C59.3146 17.7407 59.5546 17.6467 59.7432 17.4614C59.9317 17.2761 60.0282 17.0403 60.0282 16.7619V13.0606C60.0282 12.1671 59.8149 11.3518 59.3934 10.6375C58.9738 9.92407 58.3983 9.35244 57.6829 8.93829ZM55.25 16.0319C54.7143 16.0319 54.2239 15.9014 53.7909 15.6447C53.3571 15.3872 53.01 15.0296 52.7586 14.5824C52.5063 14.1343 52.3788 13.6227 52.3788 13.0615C52.3788 12.4899 52.5063 11.9722 52.7586 11.5241C53.01 11.0769 53.3571 10.7202 53.7909 10.4618C54.2239 10.2051 54.7143 10.0746 55.25 10.0746C55.7962 10.0746 56.2894 10.2051 56.7161 10.4618C57.1438 10.7193 57.4855 11.0769 57.7316 11.5241C57.9786 11.9731 58.1035 12.4907 58.1035 13.0624C58.1035 13.6236 57.9786 14.136 57.7316 14.5841C57.4855 15.0313 57.1438 15.388 56.7161 15.6456C56.2903 15.9014 55.7962 16.0319 55.25 16.0319Z" fill="white" style="fill:white;fill-opacity:1;"/>
<path d="M66.9876 8.28125C67.6861 8.28125 68.22 8.39697 68.5732 8.62666C69.0513 8.93728 69.0743 9.29661 69.0097 9.54197C68.9716 9.71859 68.892 9.86302 68.7742 9.96482C68.66 10.064 68.5272 10.1275 68.3793 10.1536C68.3227 10.1641 68.2625 10.1693 68.2014 10.1693C68.112 10.1693 68.0172 10.158 67.9198 10.1362C67.5436 10.0614 67.1797 10.0231 66.8433 10.0231C66.5608 10.0231 66.289 10.051 66.0367 10.104C65.4913 10.2197 65.0566 10.4364 64.745 10.7479C64.436 11.0567 64.2855 11.4387 64.2855 11.9164V16.7626C64.2855 17.0628 64.2022 17.3003 64.0367 17.4691C63.8702 17.6396 63.625 17.7258 63.3063 17.7258C62.9999 17.7258 62.7582 17.644 62.5873 17.4813C62.4138 17.3186 62.3262 17.0767 62.3262 16.7635V9.34446C62.3262 9.04342 62.4138 8.80503 62.5856 8.63624C62.7582 8.46744 62.9999 8.38131 63.3063 8.38131C63.6232 8.38131 63.8685 8.46396 64.0349 8.62753C64.1978 8.78763 64.2819 9.02167 64.2855 9.32271C64.5157 9.10868 64.7768 8.92074 65.0637 8.76326C65.6445 8.44308 66.2917 8.28125 66.9876 8.28125Z" fill="white" style="fill:white;fill-opacity:1;"/>
<path d="M82.1517 8.73016C81.6373 8.44304 81.0406 8.29775 80.3792 8.29775C79.6276 8.29775 78.9494 8.45958 78.3633 8.77889C78.0038 8.97465 77.6895 9.22001 77.4266 9.50887C77.1805 9.18695 76.8785 8.92593 76.5279 8.7293C76.0136 8.44217 75.4177 8.29688 74.7555 8.29688C74.0693 8.29688 73.4496 8.45958 72.9122 8.78063C72.7625 8.87024 72.6218 8.96943 72.489 9.07906C72.4465 8.91984 72.3659 8.78237 72.2499 8.66752C72.0666 8.48742 71.8241 8.39606 71.5292 8.39606C71.2459 8.39606 71.0069 8.48655 70.8192 8.66578C70.6297 8.84588 70.5332 9.08515 70.5332 9.37575V16.7617C70.5332 17.041 70.6288 17.2759 70.8183 17.4612C71.0069 17.6465 71.2459 17.7414 71.5301 17.7414C71.8258 17.7414 72.0684 17.6465 72.2517 17.4604C72.4341 17.275 72.5261 17.0401 72.5261 16.7626V12.0825C72.5261 11.5004 72.7067 11.0176 73.0636 10.6469C73.423 10.2728 73.8657 10.0909 74.4181 10.0909C74.9414 10.0909 75.3699 10.2484 75.6913 10.559C76.0118 10.8696 76.1747 11.3595 76.1747 12.0164V16.7634C76.1747 17.0427 76.2703 17.2776 76.4589 17.463C76.6475 17.6483 76.8874 17.7423 77.1707 17.7423C77.4664 17.7423 77.709 17.6474 77.8923 17.4612C78.0738 17.2759 78.1667 17.041 78.1667 16.7634V12.0834C78.1667 11.5013 78.3447 11.0184 78.6962 10.6469C79.0494 10.2737 79.4895 10.0918 80.041 10.0918C80.5714 10.0918 80.9884 10.2449 81.3142 10.5599C81.6347 10.8705 81.7976 11.3604 81.7976 12.0173V16.7643C81.7976 17.0436 81.8932 17.2794 82.0818 17.4638C82.2704 17.6492 82.5094 17.744 82.7936 17.744C83.0893 17.744 83.3319 17.6492 83.5161 17.463C83.6984 17.2776 83.7905 17.0427 83.7905 16.7652V12.0155C83.7905 11.2342 83.6462 10.5582 83.362 10.0057C83.076 9.44797 82.6688 9.01816 82.1517 8.73016Z" fill="white" style="fill:white;fill-opacity:1;"/>
<path d="M86.8289 8.65009C87.0184 8.47086 87.2575 8.38037 87.5399 8.38037C87.8347 8.38037 88.0764 8.47173 88.2588 8.65183C88.4421 8.83193 88.535 9.07033 88.535 9.36006V16.7451C88.535 17.0227 88.4421 17.2576 88.2606 17.4429C88.0773 17.6291 87.8347 17.724 87.539 17.724C87.2557 17.724 87.0157 17.63 86.8272 17.4447C86.6386 17.2593 86.543 17.0244 86.543 16.7451V9.36006C86.543 9.06946 86.6395 8.83019 86.8289 8.65009Z" fill="white" style="fill:white;fill-opacity:1;"/>
<path d="M87.5411 4.71289C87.2012 4.71289 86.9046 4.8347 86.6602 5.07571C86.415 5.31584 86.291 5.60731 86.291 5.94142C86.291 6.27552 86.415 6.56612 86.6602 6.80713C86.9046 7.04813 87.2012 7.16994 87.5411 7.16994C87.8811 7.16994 88.1768 7.04813 88.4221 6.80713C88.6664 6.56612 88.7913 6.27552 88.7913 5.94142C88.7913 5.60731 88.6673 5.31671 88.4221 5.07571C88.1768 4.8347 87.8811 4.71289 87.5411 4.71289Z" fill="white" style="fill:white;fill-opacity:1;"/>
<path d="M96.1137 13.1614L98.7219 16.2292C98.9123 16.4528 99.0052 16.6807 98.9973 16.9078C98.9902 17.1375 98.9025 17.3333 98.7361 17.4899C98.5697 17.6465 98.3536 17.7257 98.0933 17.7257C97.9667 17.7257 97.8446 17.7066 97.7295 17.6691C97.6037 17.6274 97.486 17.5404 97.3797 17.4099L94.8087 14.3777L92.3562 17.4099C92.1544 17.6222 91.9171 17.7257 91.6426 17.7257C91.3788 17.7257 91.1663 17.6413 91.0114 17.4751C90.8591 17.3124 90.7821 17.1123 90.7821 16.8791C90.7821 16.6503 90.8706 16.4215 91.0468 16.1996L93.5922 13.0648L90.8812 9.91081C90.7148 9.70982 90.6254 9.49144 90.613 9.25913C90.5997 9.01987 90.667 8.81279 90.8139 8.64313C90.9645 8.46912 91.1867 8.38037 91.4744 8.38037C91.7852 8.38037 92.0366 8.49174 92.2208 8.71099L94.8786 11.8267L97.2611 8.71534C97.3682 8.58397 97.4833 8.49435 97.6073 8.44737C97.7241 8.40299 97.8543 8.38037 97.9942 8.38037C98.2828 8.38037 98.5059 8.4726 98.6564 8.65357C98.7999 8.82845 98.8698 9.03901 98.8636 9.28088C98.8565 9.51841 98.7644 9.75159 98.59 9.97258L96.1137 13.1614Z" fill="white" style="fill:white;fill-opacity:1;"/>
</g>
<g filter="url(#filter1_d_5290_27791)">
<path fill-rule="evenodd" clip-rule="evenodd" d="M15.7674 9.2123C16.0473 9.22494 16.3138 9.35263 16.4988 9.56314L18.5067 11.8477C19.1437 12.5724 19.3995 13.5655 19.1905 14.5044C18.9608 15.5371 18.4186 16.5193 17.7401 17.1329C17.5385 17.3259 17.3193 17.5018 17.0886 17.6559C15.7737 18.535 14.2433 18.9998 12.6625 19C12.4364 19 12.2061 18.9903 11.9779 18.9716C9.53427 18.7693 7.30807 17.4264 5.95443 15.3563L4.76663 16.5416C4.5713 16.7365 4.31149 16.844 4.03545 16.844C3.75857 16.844 3.49834 16.7359 3.30259 16.5399C3.10725 16.3442 2.99979 16.0841 3 15.8077C3.00021 15.5312 3.1081 15.2714 3.30385 15.0761L5.01422 13.3697C4.83153 12.7856 4.71754 12.1817 4.67497 11.5717C4.51799 9.32503 5.27382 7.18438 6.8034 5.54459C8.3117 3.92736 10.4443 3 12.6545 3C13.9778 3 15.2893 3.33082 16.4472 3.95707C16.9491 4.22847 17.1367 4.85787 16.8655 5.36001C16.6842 5.69483 16.3351 5.90281 15.9541 5.90281C15.7834 5.90281 15.6134 5.85982 15.4625 5.77828C14.606 5.31512 13.6352 5.07027 12.6545 5.07027C10.9922 5.07027 9.45188 5.74014 8.31739 6.95659C7.18395 8.172 6.62366 9.75973 6.73998 11.4275C6.74461 11.4948 6.75051 11.5622 6.75768 11.6296L10.2069 8.18801C10.402 7.9931 10.6622 7.88564 10.9393 7.88564C10.9598 7.88564 10.9806 7.88627 11.0013 7.88753C11.298 7.90586 11.5721 8.0502 11.7541 8.28368L13.6875 10.7604L15.0055 9.49866C15.1989 9.31302 15.4507 9.21082 15.7141 9.21082C15.7318 9.21082 15.7497 9.21145 15.7674 9.2123ZM16.3444 15.6034C16.3446 15.6031 16.3449 15.6029 16.3452 15.6026C16.7867 15.208 17.0606 14.5442 17.1693 14.0545C17.2372 13.749 17.1649 13.4732 16.9485 13.2115L15.6564 11.7413L14.2916 13.0479C14.1009 13.2306 13.84 13.3354 13.5758 13.3354C13.5509 13.3354 13.5258 13.3345 13.501 13.3326C13.2098 13.3115 12.9396 13.1674 12.7599 12.9371L10.8413 10.4793L7.46041 13.8529C7.9105 14.6648 8.54939 15.3681 9.31807 15.8955C10.1618 16.4746 11.1403 16.8246 12.1482 16.908C12.3174 16.9219 12.4887 16.9291 12.6571 16.9291C13.8303 16.9291 14.9646 16.5852 15.9377 15.9345C16.0713 15.8452 16.1985 15.7428 16.3157 15.63C16.3248 15.6212 16.3342 15.6125 16.3435 15.6041C16.3438 15.6039 16.3441 15.6036 16.3444 15.6034Z" fill="url(#paint0_linear_5290_27791)" style=""/>
<path d="M19.5605 7.87973C19.5605 8.58542 18.9863 9.15961 18.2806 9.15961C17.5749 9.15961 17.0007 8.58542 17.0007 7.87973C17.0007 7.17405 17.5749 6.59985 18.2806 6.59985C18.9863 6.59985 19.5605 7.17405 19.5605 7.87973Z" fill="url(#paint1_linear_5290_27791)" style=""/>
</g>
</g>
<defs>
<filter id="filter0_d_5290_27791" x="22.832" y="1.33105" width="79.166" height="19.5601" filterUnits="userSpaceOnUse" color-interpolation-filters="sRGB">
<feFlood flood-opacity="0" result="BackgroundImageFix"/>
<feColorMatrix in="SourceAlpha" type="matrix" values="0 0 0 0 0 0 0 0 0 0 0 0 0 0 0 0 0 0 127 0" result="hardAlpha"/>
<feOffset/>
<feGaussianBlur stdDeviation="1.5"/>
<feComposite in2="hardAlpha" operator="out"/>
<feColorMatrix type="matrix" values="0 0 0 0 0 0 0 0 0 0 0 0 0 0 0 0 0 0 0.3 0"/>
<feBlend mode="normal" in2="BackgroundImageFix" result="effect1_dropShadow_5290_27791"/>
<feBlend mode="normal" in="SourceGraphic" in2="effect1_dropShadow_5290_27791" result="shape"/>
</filter>
<filter id="filter1_d_5290_27791" x="0" y="0" width="22.5605" height="22" filterUnits="userSpaceOnUse" color-interpolation-filters="sRGB">
<feFlood flood-opacity="0" result="BackgroundImageFix"/>
<feColorMatrix in="SourceAlpha" type="matrix" values="0 0 0 0 0 0 0 0 0 0 0 0 0 0 0 0 0 0 127 0" result="hardAlpha"/>
<feOffset/>
<feGaussianBlur stdDeviation="1.5"/>
<feComposite in2="hardAlpha" operator="out"/>
<feColorMatrix type="matrix" values="0 0 0 0 0 0 0 0 0 0 0 0 0 0 0 0 0 0 0.3 0"/>
<feBlend mode="normal" in2="BackgroundImageFix" result="effect1_dropShadow_5290_27791"/>
<feBlend mode="normal" in="SourceGraphic" in2="effect1_dropShadow_5290_27791" result="shape"/>
</filter>
<linearGradient id="paint0_linear_5290_27791" x1="8.68525" y1="-1.71561" x2="25.7874" y2="15.3865" gradientUnits="userSpaceOnUse">
<stop stop-color="#FDD248" style="stop-color:#FDD248;stop-color:color(display-p3 0.9922 0.8235 0.2824);stop-opacity:1;"/>
<stop offset="0.3647" stop-color="#FEC649" style="stop-color:#FEC649;stop-color:color(display-p3 0.9961 0.7765 0.2863);stop-opacity:1;"/>
<stop offset="1" stop-color="#FFA84A" style="stop-color:#FFA84A;stop-color:color(display-p3 1.0000 0.6588 0.2902);stop-opacity:1;"/>
</linearGradient>
<linearGradient id="paint1_linear_5290_27791" x1="8.68525" y1="-1.71561" x2="25.7874" y2="15.3865" gradientUnits="userSpaceOnUse">
<stop stop-color="#FDD248" style="stop-color:#FDD248;stop-color:color(display-p3 0.9922 0.8235 0.2824);stop-opacity:1;"/>
<stop offset="0.3647" stop-color="#FEC649" style="stop-color:#FEC649;stop-color:color(display-p3 0.9961 0.7765 0.2863);stop-opacity:1;"/>
<stop offset="1" stop-color="#FFA84A" style="stop-color:#FFA84A;stop-color:color(display-p3 1.0000 0.6588 0.2902);stop-opacity:1;"/>
</linearGradient>
<clipPath id="clip0_5290_27791">
<rect width="100" height="22.2222" fill="white" style="fill:white;fill-opacity:1;"/>
</clipPath>
</defs>
</svg>
