<svg xmlns="http://www.w3.org/2000/svg" width="24" height="24" fill="currentColor" viewBox="0 0 24 24">
  <path fill-rule="evenodd" d="M21 9.978a2 2 0 0 0-.66-1.485l-6.32-5.7c-1.17-1.057-3.07-1.057-4.242 0L3.66 8.31A2 2 0 0 0 3 9.796V20a2 2 0 0 0 2 2h3a2 2 0 0 0 2-2v-3.412c0-.997.895-1.805 2-1.805s2 .808 2 1.805V20a2 2 0 0 0 2 2h3a2 2 0 0 0 2-2V9.978Zm-9.808-5.91L5 9.654v10.542h3v-3.608c0-1.993 1.79-3.609 4-3.609s4 1.616 4 3.609v3.608h3V9.836l-6.393-5.768a1.078 1.078 0 0 0-1.415 0Z" clip-rule="evenodd"/>
</svg>
