<svg xmlns="http://www.w3.org/2000/svg" width="24" height="24" fill="currentColor" viewBox="0 0 24 24">
  <path fill-rule="evenodd" d="M7.433 12.21 3.05 9.67C2.29 9.22 2 8.882 2 8.367c0-.516.29-.854 1.05-1.294l7.342-4.267c.45-.262.806-.384 1.19-.384.376 0 .741.122 1.191.384l7.333 4.267c.76.44 1.06.778 1.06 1.294 0 .515-.3.853-1.06 1.303l-4.377 2.54 4.377 2.542c.76.45 1.06.788 1.06 1.303 0 .516-.3.854-1.06 1.294l-7.333 4.267c-.45.262-.815.384-1.19.384-.385 0-.741-.122-1.191-.384L3.05 17.349C2.29 16.91 2 16.571 2 16.055c0-.515.29-.853 1.05-1.303l4.383-2.541Zm5.34 1.717c-.45.262-.815.384-1.19.384-.385 0-.741-.122-1.191-.384l-1.394-.808-4.973 2.842c-.037.02-.065.047-.065.094 0 .045.025.064.06.09l.005.004 7.136 4.079c.16.084.29.131.422.131a.845.845 0 0 0 .412-.131l7.136-4.079c.047-.028.075-.047.075-.094s-.028-.075-.075-.094l-4.97-2.84-1.387.806Z" clip-rule="evenodd"/>
</svg>
