<svg xmlns="http://www.w3.org/2000/svg" width="24" height="24" fill="currentColor" viewBox="0 0 24 24">
  <path fill-rule="evenodd" d="m18.653 14.37 1.398-.812c.715-.415.998-.733.998-1.219 0-.486-.283-.803-.998-1.227l-1.635-.95 1.635-.949c.715-.415.998-.741.998-1.227 0-.477-.283-.804-.998-1.219L13.146 2.76c-.424-.248-.769-.363-1.122-.363-.362 0-.697.115-1.121.363L3.989 6.767C3.274 7.182 3 7.51 3 7.986c0 .486.274.812.989 1.227l1.637.95-1.637.949c-.715.424-.989.741-.989 1.227 0 .486.274.804.989 1.219l1.4.813-1.4.811c-.715.415-.989.742-.989 1.219 0 .486.274.812.989 1.227l6.914 4.01c.424.246.76.361 1.121.361.354 0 .698-.115 1.122-.362l6.905-4.009c.715-.415.998-.741.998-1.227 0-.477-.283-.804-.998-1.219l-1.398-.811Zm-6.629-.786c.354 0 .698-.115 1.122-.362l.286-.166 2.298 1.316-3.317 1.896a.796.796 0 0 1-.389.124c-.123 0-.247-.044-.397-.124L8.31 14.372l2.302-1.319.29.17c.425.246.76.361 1.122.361Zm2.886-1.386 2.294 1.332 1.928-1.103c.045-.026.071-.044.071-.088s-.026-.07-.07-.088l-2.174-1.243-2.05 1.19Zm2.292 3.017-4.056 2.36c-.424.248-.769.362-1.122.362-.362 0-.697-.114-1.121-.362l-4.063-2.36-1.933 1.106c-.035.018-.062.045-.062.08 0 .044.027.07.062.088l6.72 3.85c.15.08.274.124.397.124a.796.796 0 0 0 .389-.124l6.72-3.85c.044-.018.07-.044.07-.088 0-.035-.026-.062-.07-.08l-1.931-1.106ZM6.838 13.531l2.298-1.333-2.053-1.19-2.176 1.243c-.035.017-.062.044-.062.088 0 .042.025.06.058.085l.004.003 1.93 1.104Z" clip-rule="evenodd"/>
</svg>
