<svg xmlns="http://www.w3.org/2000/svg" width="24" height="24" fill="currentColor" viewBox="0 0 24 24">
  <path fill-rule="evenodd" d="m15.687 11.813 4.419-2.565c.76-.45 1.06-.788 1.06-1.303 0-.516-.3-.854-1.06-1.294l-7.333-4.267c-.45-.262-.815-.384-1.19-.384-.385 0-.741.122-1.191.384L3.05 6.651C2.29 7.09 2 7.429 2 7.945c0 .515.29.853 1.05 1.303l4.43 2.568-4.43 2.514c-.76.45-1.05.788-1.05 1.303 0 .516.29.854 1.05 1.294l7.342 4.267c.45.262.806.384 1.19.384.376 0 .741-.122 1.191-.384l7.333-4.267c.76-.44 1.06-.778 1.06-1.294 0-.515-.3-.853-1.06-1.303l-4.419-2.517Zm-4.526.304a.81.81 0 0 0 .422.131.757.757 0 0 0 .412-.13l7.136-4.08c.047-.018.075-.046.075-.093s-.028-.066-.075-.094l-7.136-4.079a.845.845 0 0 0-.412-.131c-.132 0-.263.047-.422.131L4.025 7.851a1.7 1.7 0 0 1-.005.004c-.035.026-.06.045-.06.09 0 .047.028.075.065.093l7.136 4.08Z" clip-rule="evenodd"/>
</svg>
