<svg width="24" height="24" viewBox="0 0 24 24" fill="none" xmlns="http://www.w3.org/2000/svg">
  <path
    d="M16 4.00409H15.41L15.71 3.71409C15.8032 3.62085 15.8772 3.51016 15.9277 3.38834C15.9781 3.26652 16.0041 3.13595 16.0041 3.00409C16.0041 2.87223 15.9781 2.74166 15.9277 2.61984C15.8772 2.49802 15.8032 2.38733 15.71 2.29409C15.6168 2.20085 15.5061 2.12689 15.3842 2.07643C15.2624 2.02597 15.1319 2 15 2C14.7337 2 14.4783 2.10579 14.29 2.29409L12.29 4.29409C12.1963 4.38705 12.1219 4.49766 12.0711 4.61951C12.0203 4.74137 11.9942 4.87208 11.9942 5.00409C11.9942 5.1361 12.0203 5.26681 12.0711 5.38867C12.1219 5.51053 12.1963 5.62113 12.29 5.71409L14.29 7.71409C14.383 7.80782 14.4936 7.88221 14.6154 7.93298C14.7373 7.98375 14.868 8.00989 15 8.00989C15.132 8.00989 15.2627 7.98375 15.3846 7.93298C15.5064 7.88221 15.617 7.80782 15.71 7.71409C15.8037 7.62113 15.8781 7.51053 15.9289 7.38867C15.9797 7.26681 16.0058 7.1361 16.0058 7.00409C16.0058 6.87208 15.9797 6.74137 15.9289 6.61951C15.8781 6.49766 15.8037 6.38705 15.71 6.29409L15.41 6.00409H16C16.7956 6.00409 17.5587 6.32016 18.1213 6.88277C18.6839 7.44538 19 8.20844 19 9.00409V11.0041C19 11.2693 19.1054 11.5237 19.2929 11.7112C19.4804 11.8987 19.7348 12.0041 20 12.0041C20.2652 12.0041 20.5196 11.8987 20.7071 11.7112C20.8946 11.5237 21 11.2693 21 11.0041V9.00409C21 7.67801 20.4732 6.40624 19.5355 5.46856C18.5979 4.53088 17.3261 4.00409 16 4.00409ZM16 18.0041H15V11.0041C15 10.7389 14.8946 10.4845 14.7071 10.297C14.5196 10.1094 14.2652 10.0041 14 10.0041H7V9.00409C7 8.73888 6.89464 8.48452 6.70711 8.29699C6.51957 8.10945 6.26522 8.00409 6 8.00409C5.73478 8.00409 5.48043 8.10945 5.29289 8.29699C5.10536 8.48452 5 8.73888 5 9.00409V10.0041H4C3.73478 10.0041 3.48043 10.1094 3.29289 10.297C3.10536 10.4845 3 10.7389 3 11.0041C3 11.2693 3.10536 11.5237 3.29289 11.7112C3.48043 11.8987 3.73478 12.0041 4 12.0041H5V19.0041C5 19.2693 5.10536 19.5237 5.29289 19.7112C5.48043 19.8987 5.73478 20.0041 6 20.0041H13V21.0041C13 21.2693 13.1054 21.5237 13.2929 21.7112C13.4804 21.8987 13.7348 22.0041 14 22.0041C14.2652 22.0041 14.5196 21.8987 14.7071 21.7112C14.8946 21.5237 15 21.2693 15 21.0041V20.0041H16C16.2652 20.0041 16.5196 19.8987 16.7071 19.7112C16.8946 19.5237 17 19.2693 17 19.0041C17 18.7389 16.8946 18.4845 16.7071 18.297C16.5196 18.1094 16.2652 18.0041 16 18.0041ZM13 18.0041H7V12.0041H13V18.0041Z"
    fill="currentColor" />
</svg>
