<svg width="20" height="20" viewBox="0 0 20 20" fill="none" xmlns="http://www.w3.org/2000/svg">
<g id="eye.square">
<g id="Vector">
<path fill-rule="evenodd" clip-rule="evenodd" d="M15.695 18.5214H4.70055C2.8062 18.5214 1.85449 17.5898 1.85449 15.7177V4.67479C1.85449 2.80264 2.8062 1.87109 4.70055 1.87109H15.695C17.5985 1.87109 18.5411 2.81169 18.5411 4.67479V15.7177C18.5411 17.5808 17.5985 18.5214 15.695 18.5214ZM3.31378 15.6454C3.31378 16.5859 3.81229 17.0653 4.71868 17.0653H15.6769C16.5742 17.0653 17.0818 16.5859 17.0818 15.6454V4.74714C17.0818 3.80655 16.5742 3.32721 15.6769 3.32721H4.71868C3.81229 3.32721 3.31378 3.80655 3.31378 4.74714V15.6454ZM16.3024 10.1931C16.3024 11.0975 13.8007 14.0097 10.2024 14.0097C6.64027 14.0097 4.09331 11.0975 4.09331 10.1931C4.09331 9.27959 6.61307 6.36738 10.2024 6.36738C13.7917 6.36738 16.3024 9.27959 16.3024 10.1931ZM7.69168 10.1931C7.69168 11.5497 8.80653 12.6893 10.2024 12.6893C11.5891 12.6893 12.7131 11.5497 12.7131 10.1931C12.7131 8.79121 11.5891 7.68782 10.2024 7.68782C8.80653 7.68782 7.68262 8.79121 7.69168 10.1931ZM11.3082 10.1931C11.3082 10.7719 10.8006 11.2874 10.2205 11.2874C9.61318 11.2874 9.09658 10.7719 9.09658 10.1931C9.09658 9.60521 9.61318 9.08967 10.2205 9.08967C10.8006 9.08967 11.3082 9.60521 11.3082 10.1931Z" fill="currentColor"/>
<path d="M7.69168 10.1931H7.94169L7.94168 10.1915L7.69168 10.1931ZM4.70055 18.7714H15.695V18.2714H4.70055V18.7714ZM1.60449 15.7177C1.60449 16.6934 1.8528 17.4697 2.39183 17.9999C2.93011 18.5293 3.71587 18.7714 4.70055 18.7714V18.2714C3.79088 18.2714 3.15361 18.0478 2.74245 17.6434C2.33204 17.2397 2.10449 16.6142 2.10449 15.7177H1.60449ZM1.60449 4.67479V15.7177H2.10449V4.67479H1.60449ZM4.70055 1.62109C3.71588 1.62109 2.93011 1.86324 2.39184 2.39265C1.8528 2.92282 1.60449 3.69912 1.60449 4.67479H2.10449C2.10449 3.77831 2.33204 3.15277 2.74244 2.74912C3.15361 2.34473 3.79088 2.12109 4.70055 2.12109V1.62109ZM15.695 1.62109H4.70055V2.12109H15.695V1.62109ZM18.7911 4.67479C18.7911 3.70395 18.5452 2.92781 18.0076 2.39646C17.4705 1.86565 16.6846 1.62109 15.695 1.62109V2.12109C16.609 2.12109 17.2461 2.34683 17.6561 2.75209C18.0656 3.15682 18.2911 3.78253 18.2911 4.67479H18.7911ZM18.7911 15.7177V4.67479H18.2911V15.7177H18.7911ZM15.695 18.7714C16.6846 18.7714 17.4705 18.5269 18.0076 17.9961C18.5452 17.4647 18.7911 16.6885 18.7911 15.7177H18.2911C18.2911 16.61 18.0656 17.2357 17.6561 17.6404C17.2461 18.0457 16.609 18.2714 15.695 18.2714V18.7714ZM4.71868 16.8153C4.30754 16.8153 4.02927 16.707 3.85292 16.5311C3.67669 16.3552 3.56378 16.0734 3.56378 15.6454H3.06378C3.06378 16.1579 3.20013 16.586 3.49975 16.885C3.79925 17.1838 4.22343 17.3153 4.71868 17.3153V16.8153ZM15.6769 16.8153H4.71868V17.3153H15.6769V16.8153ZM16.8318 15.6454C16.8318 16.0722 16.7173 16.3543 16.5397 16.5306C16.3618 16.7073 16.0829 16.8153 15.6769 16.8153V17.3153C16.1682 17.3153 16.5918 17.1835 16.892 16.8854C17.1926 16.587 17.3318 16.1591 17.3318 15.6454H16.8318ZM16.8318 4.74714V15.6454H17.3318V4.74714H16.8318ZM15.6769 3.57721C16.0829 3.57721 16.3618 3.68515 16.5397 3.86184C16.7173 4.03819 16.8318 4.3203 16.8318 4.74714H17.3318C17.3318 4.23339 17.1926 3.80553 16.892 3.50706C16.5918 3.20894 16.1682 3.07721 15.6769 3.07721V3.57721ZM4.71868 3.57721H15.6769V3.07721H4.71868V3.57721ZM3.56378 4.74714C3.56378 4.31911 3.67669 4.03727 3.85292 3.86142C4.02927 3.68545 4.30754 3.57721 4.71868 3.57721V3.07721C4.22343 3.07721 3.79925 3.20864 3.49975 3.50748C3.20012 3.80646 3.06378 4.23457 3.06378 4.74714H3.56378ZM3.56378 15.6454V4.74714H3.06378V15.6454H3.56378ZM10.2024 14.2597C12.07 14.2597 13.6477 13.5043 14.7558 12.6375C15.3101 12.2039 15.7519 11.7386 16.0575 11.3179C16.2103 11.1077 16.3315 10.9051 16.4155 10.7201C16.4976 10.5391 16.5524 10.3571 16.5524 10.1931H16.0524C16.0524 10.2551 16.0289 10.362 15.9602 10.5134C15.8933 10.6607 15.791 10.834 15.653 11.024C15.3771 11.4038 14.9687 11.8361 14.4477 12.2436C13.4054 13.059 11.9331 13.7597 10.2024 13.7597V14.2597ZM3.84331 10.1931C3.84331 10.358 3.89931 10.5405 3.98267 10.7214C4.06799 10.9065 4.19099 11.109 4.34556 11.3191C4.65487 11.7395 5.10117 12.2046 5.65862 12.6379C6.77276 13.504 8.35252 14.2597 10.2024 14.2597V13.7597C8.49014 13.7597 7.01536 13.0593 5.96549 12.2432C5.44093 11.8354 5.02787 11.4028 4.74831 11.0228C4.60844 10.8327 4.50463 10.6594 4.43675 10.5121C4.36691 10.3606 4.34331 10.2543 4.34331 10.1931H3.84331ZM10.2024 6.11738C8.3392 6.11738 6.75929 6.87286 5.648 7.74063C5.09206 8.17473 4.64821 8.64085 4.341 9.06278C4.18748 9.27364 4.06551 9.477 3.98099 9.66299C3.89832 9.84492 3.84331 10.0279 3.84331 10.1931H4.34331C4.34331 10.1298 4.36705 10.022 4.4362 9.86984C4.5035 9.72173 4.60643 9.5477 4.74521 9.35708C5.02263 8.97606 5.43305 8.54285 5.95572 8.13471C7.00164 7.318 8.47627 6.61738 10.2024 6.61738V6.11738ZM16.5524 10.1931C16.5524 10.0281 16.4976 9.84521 16.4152 9.66327C16.331 9.47729 16.2094 9.27394 16.0563 9.06306C15.75 8.6411 15.3073 8.17494 14.7524 7.74078C13.6433 6.87291 12.0656 6.11738 10.2024 6.11738V6.61738C11.9284 6.61738 13.4007 7.31796 14.4443 8.13456C14.9658 8.54264 15.3751 8.97581 15.6517 9.3568C15.7901 9.5474 15.8927 9.72143 15.9598 9.86956C16.0287 10.0217 16.0524 10.1297 16.0524 10.1931H16.5524ZM10.2024 12.4393C8.94527 12.4393 7.94168 11.4123 7.94168 10.1931H7.44168C7.44168 11.6871 8.6678 12.9393 10.2024 12.9393V12.4393ZM12.4631 10.1931C12.4631 11.4117 11.451 12.4393 10.2024 12.4393V12.9393C11.7273 12.9393 12.9631 11.6877 12.9631 10.1931H12.4631ZM10.2024 7.93782C11.4527 7.93782 12.4631 8.93097 12.4631 10.1931H12.9631C12.9631 8.65145 11.7255 7.43782 10.2024 7.43782V7.93782ZM7.94168 10.1915C7.93353 8.93151 8.942 7.93782 10.2024 7.93782V7.43782C8.67107 7.43782 7.4317 8.65091 7.44169 10.1947L7.94168 10.1915ZM10.2205 11.5374C10.9408 11.5374 11.5582 10.9078 11.5582 10.1931H11.0582C11.0582 10.636 10.6604 11.0374 10.2205 11.0374V11.5374ZM8.84658 10.1931C8.84658 10.9144 9.47957 11.5374 10.2205 11.5374V11.0374C9.74679 11.0374 9.34658 10.6294 9.34658 10.1931H8.84658ZM10.2205 8.83967C9.47824 8.83967 8.84658 9.46403 8.84658 10.1931H9.34658C9.34658 9.74639 9.74812 9.33967 10.2205 9.33967V8.83967ZM11.5582 10.1931C11.5582 9.47062 10.9421 8.83967 10.2205 8.83967V9.33967C10.6591 9.33967 11.0582 9.73981 11.0582 10.1931H11.5582Z" fill="#7A7A7A" fill-opacity="0.4" style="fill:#7A7A7A;fill:color(display-p3 0.4784 0.4784 0.4784);fill-opacity:0.4;"/>
</g>
</g>
</svg>
