<svg width="24" height="24" viewBox="0 0 24 24" fill="none" xmlns="http://www.w3.org/2000/svg">
<g id="Warped">
<g id="Vector">
<path fill-rule="evenodd" clip-rule="evenodd" d="M6.97639 15.652C7.46807 15.652 7.70928 15.4671 7.88554 14.9495L9.08229 11.6867H14.5558L15.7525 14.9495C15.9288 15.4671 16.17 15.652 16.6524 15.652C17.1441 15.652 17.4595 15.3562 17.4595 14.8941C17.4595 14.7369 17.4317 14.589 17.3575 14.3949L13.0065 2.85036C12.7931 2.28653 12.4128 2 11.819 2C11.2439 2 10.8542 2.27729 10.6501 2.84112L6.29916 14.4042C6.22494 14.5983 6.19711 14.7462 6.19711 14.9033C6.19711 15.3654 6.49398 15.652 6.97639 15.652ZM9.53687 10.2818L11.7912 4.0612H11.8376L14.0919 10.2818H9.53687Z" fill="currentColor"/>
<path d="M19.2233 19.2346C14.8333 16.8655 9.54956 16.821 5.12005 19.1159L2.42658 20.5113C2.03868 20.7123 1.88774 21.1885 2.08945 21.575C2.29116 21.9615 2.76913 22.1118 3.15704 21.9109L5.8505 20.5154C9.81375 18.4621 14.5413 18.5019 18.4692 20.6217L20.8312 21.8964C21.2156 22.1039 21.6961 21.9615 21.9043 21.5785C22.1125 21.1955 21.9697 20.7168 21.5853 20.5093L19.2233 19.2346Z" fill="currentColor"/>
</g>
</g>
</svg>
