<svg width="95" height="22" viewBox="0 0 95 22" fill="none" xmlns="http://www.w3.org/2000/svg">
<g clip-path="url(#clip0_5897_30695)">
<g filter="url(#filter0_d_5897_30695)">
<path d="M18.4595 9.00392C19.0174 9.00392 19.4697 8.55161 19.4697 7.99366C19.4697 7.43571 19.0174 6.9834 18.4595 6.9834C17.9015 6.9834 17.4492 7.43571 17.4492 7.99366C17.4492 8.55161 17.9015 9.00392 18.4595 9.00392Z" fill="url(#paint0_linear_5897_30695)" style=""/>
<path d="M12.809 18.9113C12.627 18.9113 12.4441 18.9046 12.2602 18.8923C9.62466 18.7132 7.33784 17.2082 6.06506 15.0446L4.59895 16.5069C4.30611 16.7998 3.83036 16.7998 3.53752 16.506C3.24468 16.2122 3.24562 15.7374 3.53847 15.4445L5.39977 13.587C5.19317 12.9729 5.06049 12.3247 5.01405 11.6537C4.86242 9.46164 5.60163 7.37384 7.09427 5.77505C8.56607 4.19806 10.6472 3.29395 12.8033 3.29395C14.095 3.29395 15.3744 3.61711 16.5041 4.22839C16.869 4.42551 17.0045 4.88136 16.8074 5.24623C16.6102 5.6111 16.1544 5.74567 15.7895 5.5495C14.8778 5.05669 13.8458 4.79607 12.8023 4.79607C11.0349 4.79607 9.39721 5.5078 8.19077 6.80047C6.98529 8.0922 6.38823 9.77913 6.51048 11.5513C6.52944 11.8281 6.5664 12.101 6.62137 12.3673L10.5326 8.46465C10.6851 8.31302 10.8946 8.23341 11.1088 8.24668C11.323 8.25995 11.522 8.36419 11.6537 8.53383L13.8164 11.304L15.3905 9.79713C15.5374 9.65592 15.7355 9.57916 15.9393 9.58958C16.143 9.59811 16.3344 9.68909 16.47 9.84073L18.8203 12.4867C19.0705 12.7692 19.2088 13.1321 19.2088 13.5093V13.6922C19.1899 15.2825 18.4118 16.742 17.1286 17.5996C15.8378 18.462 14.3537 18.9113 12.8071 18.9113H12.809ZM15.8663 11.4225L14.2571 12.9634C14.1035 13.1103 13.8969 13.1842 13.6837 13.17C13.4724 13.1549 13.2771 13.0506 13.1463 12.8829L10.9941 10.126L7.17104 13.9415C8.14907 15.8739 10.0966 17.2404 12.3626 17.3949C13.7709 17.4906 15.1327 17.1305 16.2965 16.3515C17.0964 15.816 17.6072 14.7916 17.6954 13.7832C17.7105 13.6107 17.6451 13.4411 17.5305 13.3112L15.8653 11.4225H15.8663Z" fill="url(#paint1_linear_5897_30695)" style=""/>
</g>
<g filter="url(#filter1_d_5897_30695)">
<path fill-rule="evenodd" clip-rule="evenodd" d="M78.9426 5.97966C78.6659 5.97966 78.428 5.8811 78.2309 5.68303C78.0328 5.48496 77.9342 5.24803 77.9342 4.9713V4.89264C77.9342 4.61591 78.0328 4.37803 78.2309 4.18091C78.4289 3.98284 78.6659 3.88428 78.9426 3.88428H79.0611C79.3378 3.88428 79.5757 3.98284 79.7728 4.18091C79.9709 4.37898 80.0694 4.61591 80.0694 4.89264V4.9713C80.0694 5.24803 79.9709 5.48591 79.7728 5.68303C79.5747 5.8811 79.3378 5.97966 79.0611 5.97966H78.9426ZM78.9824 18.2241C78.7322 18.2241 78.5209 18.1378 78.3493 17.9673C78.1778 17.7957 78.0925 17.5853 78.0925 17.3342V8.84838C78.0925 8.58492 78.1778 8.36695 78.3493 8.19541C78.5209 8.02387 78.7313 7.93858 78.9824 7.93858C79.2459 7.93858 79.4638 8.02482 79.6354 8.19541C79.8069 8.36695 79.8922 8.58492 79.8922 8.84838V17.3342C79.8922 17.5844 79.806 17.7957 79.6354 17.9673C79.4638 18.1388 79.2459 18.2241 78.9824 18.2241ZM29.8477 17.4129C30.8892 18.0194 32.1023 18.3227 33.4869 18.3227H33.4888C34.3465 18.3227 35.1539 18.2203 35.9121 18.0156C36.6703 17.8118 37.3725 17.5446 38.0188 17.2148C38.2425 17.1096 38.4245 16.9485 38.5628 16.7305C38.7012 16.5125 38.7704 16.2652 38.7704 15.9885V11.4982C38.7704 11.2338 38.6785 11.0101 38.4936 10.8253C38.3088 10.6415 38.0842 10.5486 37.8208 10.5486H33.9238C33.7001 10.5486 33.5087 10.6273 33.3504 10.7855C33.1922 10.9438 33.1135 11.1352 33.1135 11.3589C33.1135 11.5826 33.1922 11.774 33.3504 11.9323C33.5087 12.0905 33.6992 12.1692 33.9238 12.1692H37.1877V15.7496C36.7394 15.9998 36.2248 16.2074 35.6448 16.3723C35.0639 16.5372 34.4242 16.6196 33.7257 16.6196C32.5913 16.6196 31.6228 16.3827 30.8181 15.9079C30.0135 15.4331 29.4004 14.7905 28.9786 13.9793C28.556 13.1681 28.3456 12.2554 28.3456 11.2395C28.3456 10.0795 28.5797 9.1005 29.0478 8.30253C29.516 7.5055 30.1491 6.89802 30.947 6.48292C31.745 6.06782 32.6378 5.86028 33.6272 5.86028C34.392 5.86028 35.0847 5.95884 35.7045 6.15691C36.3243 6.35498 36.9242 6.62508 37.5042 6.96815C37.636 7.03354 37.7743 7.06671 37.9193 7.06671C38.1828 7.06671 38.3875 6.98426 38.5325 6.81936C38.6775 6.65446 38.7505 6.46681 38.7505 6.25547C38.7505 6.07067 38.7069 5.91903 38.6216 5.80057C38.5353 5.68211 38.4463 5.59681 38.3543 5.54374C37.7345 5.14855 37.0389 4.81211 36.2675 4.53538C35.496 4.25865 34.5502 4.12028 33.4291 4.12028C32.4662 4.12028 31.5697 4.28802 30.7385 4.62446C29.9083 4.9609 29.1796 5.44234 28.5531 6.06877C27.9267 6.69521 27.4358 7.44674 27.0794 8.32337C26.7231 9.20095 26.5449 10.1733 26.5449 11.2414C26.5449 12.626 26.8349 13.8495 27.4149 14.9109C27.9949 15.9723 28.8062 16.8063 29.8477 17.4129ZM42.7348 16.9476C43.6379 17.865 44.8937 18.3228 46.5029 18.3228C47.3596 18.3228 48.042 18.2403 48.5499 18.0754C49.057 17.9115 49.5289 17.7039 49.9639 17.4528C50.1089 17.3741 50.2312 17.2718 50.3297 17.1467C50.4292 17.0216 50.4785 16.8794 50.4785 16.7211C50.4785 16.4975 50.3989 16.3127 50.2407 16.1677C50.0824 16.0227 49.8976 15.9497 49.6872 15.9497C49.5545 15.9497 49.436 15.9762 49.3308 16.0284C48.9612 16.2132 48.5717 16.3619 48.1633 16.4738C47.7548 16.5856 47.2535 16.6415 46.6602 16.6415C45.5921 16.6415 44.7743 16.3752 44.2075 15.8407C43.6408 15.3062 43.3044 14.5973 43.1992 13.714H49.9052C50.1819 13.714 50.4027 13.6288 50.5676 13.4572C50.7325 13.2857 50.815 13.0743 50.815 12.8241C50.815 11.9409 50.633 11.123 50.271 10.3715C49.908 9.61994 49.3773 9.00962 48.6788 8.54145C47.9804 8.07328 47.1227 7.83919 46.1077 7.83919C45.0121 7.83919 44.1156 8.08939 43.4171 8.59073C42.7177 9.09207 42.2041 9.74125 41.8743 10.5392C41.5445 11.3372 41.3796 12.1844 41.3796 13.081C41.3796 14.7423 41.8316 16.0312 42.7348 16.9476ZM49.0342 12.2498H43.1992H43.1982C43.238 11.5646 43.4096 11.0112 43.7128 10.5885C44.0161 10.1668 44.3857 9.85687 44.8207 9.6588C45.2557 9.46073 45.6841 9.36216 46.1067 9.36216C46.5294 9.36216 46.9578 9.46073 47.3928 9.6588C47.8278 9.85687 48.2002 10.1668 48.5101 10.5885C48.82 11.0102 48.9944 11.5646 49.0342 12.2498ZM54.0781 18.2233C53.8279 18.2233 53.6165 18.137 53.445 17.9664C53.2734 17.7949 53.1882 17.5845 53.1882 17.3334V8.84756C53.1882 8.58409 53.2734 8.36612 53.445 8.19458C53.6165 8.02305 53.8269 7.93776 54.0781 7.93776C54.3292 7.93776 54.5434 8.024 54.7206 8.19458C54.8988 8.36612 54.9879 8.58409 54.9879 8.84756V9.6588C55.4096 9.19726 55.9081 8.77837 56.4814 8.40308C57.0548 8.02684 57.7836 7.83919 58.6669 7.83919C59.4184 7.83919 60.0581 8.01452 60.586 8.36328C61.1129 8.71298 61.5157 9.18115 61.7924 9.76778C62.0691 10.3544 62.2075 11.0036 62.2075 11.7163V17.3343C62.2075 17.5845 62.1184 17.7958 61.9403 17.9674C61.7621 18.1389 61.5479 18.2242 61.2977 18.2242C61.0475 18.2242 60.8362 18.138 60.6646 17.9674C60.4931 17.7958 60.4078 17.5854 60.4078 17.3343V11.9143C60.4078 11.1628 60.2401 10.5724 59.9036 10.144C59.5672 9.71566 59.0099 9.50148 58.2319 9.50148C57.5201 9.50148 56.8994 9.69291 56.3725 10.0748C55.8446 10.4577 55.383 10.8993 54.9879 11.3997V17.3343C54.9879 17.5845 54.8988 17.7958 54.7206 17.9674C54.5424 18.1389 54.3282 18.2242 54.0781 18.2242V18.2233ZM65.57 17.9663C65.7415 18.1369 65.9528 18.2231 66.203 18.2231V18.2222C66.4532 18.2222 66.6674 18.1369 66.8456 17.9654C67.0238 17.7938 67.1129 17.5825 67.1129 17.3323V13.0989H70.7132C71.7149 13.0989 72.5555 12.97 73.2351 12.7131C73.9136 12.4563 74.4538 12.1132 74.8566 11.6849C75.2584 11.2565 75.5484 10.7855 75.7266 10.2709C75.9048 9.75629 75.9938 9.23505 75.9938 8.70812C75.9938 8.1812 75.9048 7.65996 75.7266 7.14535C75.5494 6.63169 75.2584 6.15973 74.8566 5.73137C74.4548 5.303 73.9146 4.95993 73.2351 4.7031C72.5555 4.44627 71.7149 4.31738 70.7132 4.31738H66.203C65.9519 4.31738 65.7415 4.40647 65.57 4.58464C65.3984 4.76281 65.3131 4.97699 65.3131 5.22718V17.3332C65.3131 17.5844 65.3984 17.7948 65.57 17.9663ZM70.535 11.3987H67.1129V6.01852H70.535C71.5235 6.01852 72.2817 6.15404 72.8095 6.42414C73.3365 6.69424 73.6994 7.03447 73.8975 7.44293C74.0956 7.85234 74.1941 8.28734 74.1941 8.70907C74.1941 9.1308 74.0956 9.54969 73.8975 9.96479C73.6994 10.3799 73.3365 10.723 72.8095 10.9931C72.2826 11.2632 71.5244 11.3987 70.535 11.3987ZM82.7002 17.9758C82.8585 18.1407 83.0632 18.2232 83.3134 18.2232L83.3124 18.2222C83.6289 18.2222 83.8858 18.0914 84.0838 17.827L86.7346 14.5043L89.5436 17.8668C89.7142 18.1047 89.9322 18.2232 90.2354 18.2232C90.5387 18.2232 90.7661 18.1274 90.9178 17.936C91.0694 17.7455 91.1452 17.538 91.1452 17.3134C91.1452 17.2347 91.1291 17.1428 91.0959 17.0366C91.0628 16.9314 91.0069 16.8329 90.9282 16.74L87.8425 13.0212L90.968 9.34217C91.0997 9.17158 91.1661 8.98678 91.1661 8.78871C91.1661 8.55083 91.0808 8.34992 90.9092 8.18502C90.7377 8.02011 90.5197 7.93766 90.2563 7.93766C89.9521 7.93766 89.7218 8.05044 89.5635 8.2741L86.8142 11.6963L84.045 8.2741C83.8867 8.04949 83.6498 7.93766 83.3333 7.93766C83.0821 7.93766 82.8717 8.01632 82.7002 8.17459C82.5286 8.33286 82.4434 8.55083 82.4434 8.82756C82.4434 9.02469 82.5163 9.21612 82.6613 9.40093L85.7272 13.1396L82.6613 16.7599C82.5287 16.9314 82.4633 17.1153 82.4633 17.3134C82.4633 17.5901 82.5419 17.8109 82.7002 17.9758Z" fill="#FFFBED" style="fill:#FFFBED;fill:color(display-p3 1.0000 0.9843 0.9294);fill-opacity:1;"/>
</g>
</g>
<defs>
<filter id="filter0_d_5897_30695" x="0.318359" y="0.293945" width="22.1523" height="21.6172" filterUnits="userSpaceOnUse" color-interpolation-filters="sRGB">
<feFlood flood-opacity="0" result="BackgroundImageFix"/>
<feColorMatrix in="SourceAlpha" type="matrix" values="0 0 0 0 0 0 0 0 0 0 0 0 0 0 0 0 0 0 127 0" result="hardAlpha"/>
<feOffset/>
<feGaussianBlur stdDeviation="1.5"/>
<feComposite in2="hardAlpha" operator="out"/>
<feColorMatrix type="matrix" values="0 0 0 0 0 0 0 0 0 0 0 0 0 0 0 0 0 0 0.3 0"/>
<feBlend mode="normal" in2="BackgroundImageFix" result="effect1_dropShadow_5897_30695"/>
<feBlend mode="normal" in="SourceGraphic" in2="effect1_dropShadow_5897_30695" result="shape"/>
</filter>
<filter id="filter1_d_5897_30695" x="23.5449" y="0.884277" width="70.6211" height="20.4385" filterUnits="userSpaceOnUse" color-interpolation-filters="sRGB">
<feFlood flood-opacity="0" result="BackgroundImageFix"/>
<feColorMatrix in="SourceAlpha" type="matrix" values="0 0 0 0 0 0 0 0 0 0 0 0 0 0 0 0 0 0 127 0" result="hardAlpha"/>
<feOffset/>
<feGaussianBlur stdDeviation="1.5"/>
<feComposite in2="hardAlpha" operator="out"/>
<feColorMatrix type="matrix" values="0 0 0 0 0 0 0 0 0 0 0 0 0 0 0 0 0 0 0.3 0"/>
<feBlend mode="normal" in2="BackgroundImageFix" result="effect1_dropShadow_5897_30695"/>
<feBlend mode="normal" in="SourceGraphic" in2="effect1_dropShadow_5897_30695" result="shape"/>
</filter>
<linearGradient id="paint0_linear_5897_30695" x1="10.3433" y1="-0.122533" x2="24.1969" y2="13.732" gradientUnits="userSpaceOnUse">
<stop stop-color="#FDD248" style="stop-color:#FDD248;stop-color:color(display-p3 0.9922 0.8235 0.2824);stop-opacity:1;"/>
<stop offset="0.36" stop-color="#FDC648" style="stop-color:#FDC648;stop-color:color(display-p3 0.9922 0.7765 0.2824);stop-opacity:1;"/>
<stop offset="1" stop-color="#FFA84A" style="stop-color:#FFA84A;stop-color:color(display-p3 1.0000 0.6588 0.2902);stop-opacity:1;"/>
</linearGradient>
<linearGradient id="paint1_linear_5897_30695" x1="4.94866" y1="5.27276" x2="18.8032" y2="19.1264" gradientUnits="userSpaceOnUse">
<stop stop-color="#FDD248" style="stop-color:#FDD248;stop-color:color(display-p3 0.9922 0.8235 0.2824);stop-opacity:1;"/>
<stop offset="0.36" stop-color="#FDC648" style="stop-color:#FDC648;stop-color:color(display-p3 0.9922 0.7765 0.2824);stop-opacity:1;"/>
<stop offset="1" stop-color="#FFA84A" style="stop-color:#FFA84A;stop-color:color(display-p3 1.0000 0.6588 0.2902);stop-opacity:1;"/>
</linearGradient>
<clipPath id="clip0_5897_30695">
<rect width="95" height="22" fill="white" style="fill:white;fill-opacity:1;"/>
</clipPath>
</defs>
</svg>
