<svg xmlns="http://www.w3.org/2000/svg" width="24" height="24" fill="currentColor" viewBox="0 0 24 24">
  <path fill-rule="evenodd" d="M9 2.25a.75.75 0 0 1 .75.75v1.506a49.389 49.389 0 0 1 5.343.371.75.75 0 0 1-.186 1.489 46.7 46.7 0 0 0-1.99-.206 18.669 18.669 0 0 1-2.969 6.323c.317.384.65.753.998 1.107a.75.75 0 0 1-1.07 1.052A18.897 18.897 0 0 1 9 13.687a18.823 18.823 0 0 1-5.656 4.482.75.75 0 0 1-.688-1.333 17.323 17.323 0 0 0 5.396-4.353A18.72 18.72 0 0 1 5.89 8.598a.75.75 0 0 1 1.39-.568A17.21 17.21 0 0 0 9 11.224a17.17 17.17 0 0 0 2.391-5.165 48.044 48.044 0 0 0-8.298.307.75.75 0 0 1-.186-1.489 49.16 49.16 0 0 1 5.343-.371V3A.75.75 0 0 1 9 2.25ZM15.75 9a.75.75 0 0 1 .68.433l5.25 11.25a.75.75 0 1 1-1.36.634l-1.198-2.567h-6.744l-1.198 2.567a.75.75 0 0 1-1.36-.634l5.25-11.25A.75.75 0 0 1 15.75 9Zm-2.672 8.25h5.345l-2.673-5.726-2.672 5.726Z" clip-rule="evenodd"/>
</svg>
