<svg xmlns="http://www.w3.org/2000/svg" width="24" height="24" fill="currentColor" viewBox="0 0 24 24">
  <path fill-rule="evenodd" d="m18.441 10.295 1.635-.949c.715-.415.998-.742.998-1.227 0-.477-.283-.804-.998-1.219l-6.905-4.009c-.424-.247-.768-.362-1.121-.362-.362 0-.698.115-1.122.362l-6.914 4.01c-.715.414-.989.74-.989 1.218 0 .485.274.812.99 1.227l1.636.95-1.637.949c-.715.423-.989.741-.989 1.227 0 .486.274.803.99 1.218l6.913 4.018c.424.247.76.362 1.122.362.353 0 .697-.115 1.121-.362l6.905-4.018c.715-.415.998-.732.998-1.218s-.283-.804-.998-1.227l-1.635-.95Zm-5.27 3.06c-.424.247-.768.362-1.121.362-.362 0-.698-.115-1.122-.362l-3.82-2.215-2.175 1.244c-.036.017-.062.044-.062.088 0 .042.024.06.057.085l.005.003 6.72 3.841c.15.08.273.124.397.124a.796.796 0 0 0 .388-.124l6.72-3.84c.044-.027.07-.045.07-.09 0-.043-.026-.07-.07-.087l-2.174-1.243-3.813 2.214Zm-.733-1.298a.797.797 0 0 1-.388.123c-.124 0-4.944-2.728-4.944-2.728L4.933 8.207c-.036-.018-.062-.044-.062-.088 0-.036.026-.062.062-.08l6.72-3.85c.15-.08.273-.123.397-.123a.8.8 0 0 1 .388.123l6.72 3.85c.044.018.07.044.07.08 0 .044-.026.07-.07.088l-6.72 3.85Z" clip-rule="evenodd"/>
  <path d="M12.05 18.07c.353 0 .697-.115 1.121-.362l5.507-3.204 1.398.811c.715.415.998.742.998 1.219 0 .485-.283.812-.998 1.227l-6.905 4.009c-.424.247-.768.362-1.121.362-.362 0-.698-.115-1.122-.362l-6.914-4.01c-.715-.415-.989-.742-.989-1.227 0-.477.274-.804.99-1.219l1.399-.811 5.514 3.204c.424.247.76.362 1.122.362Z"/>
</svg>
