<svg xmlns="http://www.w3.org/2000/svg" width="24" height="24" fill="currentColor" viewBox="0 0 24 24">
  <path fill-rule="evenodd" d="M20.67 3.33a1.125 1.125 0 0 0-1.59 0l-1.158 1.157 1.591 1.59L20.67 4.92c.44-.439.44-1.151 0-1.59Zm-2.217 3.808-1.591-1.59L4.71 17.697a3.75 3.75 0 0 0-.942 1.581l-.404 1.356 1.356-.404a3.749 3.749 0 0 0 1.58-.942L18.454 7.14Zm-.434-4.87a2.625 2.625 0 1 1 3.712 3.713L7.363 20.35a5.25 5.25 0 0 1-2.214 1.319l-2.685.8a.75.75 0 0 1-.933-.933l.8-2.685a5.25 5.25 0 0 1 1.32-2.213l14.368-14.37Z" clip-rule="evenodd"/>
</svg>
