<svg xmlns="http://www.w3.org/2000/svg" width="24" height="24" fill="currentColor" viewBox="0 0 24 24">
  <path fill-rule="evenodd" d="M9.375 3A.375.375 0 0 0 9 3.375v12.75c0 .207.168.375.375.375h9.75a.375.375 0 0 0 .375-.375v-4.5A2.625 2.625 0 0 0 16.875 9h-1.5A1.875 1.875 0 0 1 13.5 7.125v-1.5A2.625 2.625 0 0 0 10.875 3h-1.5Zm5.132.668c.314.582.493 1.249.493 1.957v1.5c0 .207.168.375.375.375h1.5a4.1 4.1 0 0 1 1.957.493 8.28 8.28 0 0 0-4.325-4.325ZM21 16.125C21 17.16 20.16 18 19.125 18H16.5v2.625c0 1.035-.84 1.875-1.875 1.875h-9.75A1.875 1.875 0 0 1 3 20.625V7.875C3 6.839 3.84 6 4.875 6H6.75c.252 0 .502.01.75.028V3.375c0-1.036.84-1.875 1.875-1.875h1.875c.553 0 1.095.046 1.624.135C17.486 2.409 21 6.418 21 11.25v4.875ZM7.5 7.534a8.365 8.365 0 0 0-.75-.034H4.875a.375.375 0 0 0-.375.375v12.75c0 .207.168.375.375.375h9.75a.375.375 0 0 0 .375-.375V18H9.375A1.875 1.875 0 0 1 7.5 16.125V7.534Z" clip-rule="evenodd"/>
</svg>
