<svg xmlns="http://www.w3.org/2000/svg" width="21" height="19" fill="currentColor" viewBox="0 0 21 19">
  <path d="M11.535 18.262c4.986 0 9.131-4.145 9.131-9.131C20.666 4.136 16.521 0 11.535 0 6.54 0 2.404 4.127 2.404 9.122h1.522c0-4.225 3.384-7.591 7.609-7.591a7.573 7.573 0 0 1 7.61 7.6c0 4.225-3.385 7.627-7.61 7.61a7.577 7.577 0 0 1-6.159-3.152c-.278-.367-.698-.483-1.074-.26-.358.224-.457.717-.152 1.11 1.7 2.283 4.368 3.823 7.385 3.823ZM1.303 7.403c-.645 0-.806.439-.457.94l2.006 2.847c.295.412.725.403 1.011 0l2.005-2.856c.34-.492.18-.93-.456-.93h-4.11Z"/>
</svg>
