<svg width="24" height="24" viewBox="0 0 24 24" fill="none" xmlns="http://www.w3.org/2000/svg">
<g id="Toggle_Color">
<path id="bg" d="M2.99047 5.95704C2.73058 6.4671 2.61318 7.03416 2.55616 7.73209C2.5 8.41948 2.5 9.27641 2.5 10.3774V10.4V13.6V13.6226C2.5 14.7236 2.5 15.5805 2.55616 16.2679C2.61318 16.9658 2.73058 17.5329 2.99047 18.043C3.4219 18.8897 4.11031 19.5781 4.95704 20.0095C5.4671 20.2694 6.03416 20.3868 6.73209 20.4438C7.41948 20.5 8.27641 20.5 9.37736 20.5H9.4H14.6H14.6226C15.7236 20.5 16.5805 20.5 17.2679 20.4438C17.9658 20.3868 18.5329 20.2694 19.043 20.0095C19.8897 19.5781 20.5781 18.8897 21.0095 18.043C21.2694 17.5329 21.3868 16.9658 21.4438 16.2679C21.5 15.5805 21.5 14.7236 21.5 13.6226V13.6V10.4V10.3774C21.5 9.27641 21.5 8.41948 21.4438 7.73209C21.3868 7.03416 21.2694 6.4671 21.0095 5.95704C20.5781 5.11031 19.8897 4.4219 19.043 3.99047C18.5329 3.73058 17.9658 3.61318 17.2679 3.55616C16.5805 3.5 15.7236 3.5 14.6226 3.5H14.6H9.4H9.37737C8.27641 3.5 7.41948 3.5 6.73209 3.55616C6.03416 3.61318 5.4671 3.73058 4.95704 3.99047C4.11031 4.4219 3.4219 5.11031 2.99047 5.95704Z" fill="#121212" stroke="currentColor"/>
<path id="Union" fill-rule="evenodd" clip-rule="evenodd" d="M8.42868 4.00166L8.41886 4.00172C7.86685 4.00487 7.39732 4.01378 6.98952 4.03902C6.21061 4.08724 5.65693 4.19502 5.18404 4.43597C4.43139 4.81947 3.81947 5.43139 3.43597 6.18404C3.19074 6.66534 3.08345 7.23032 3.03651 8.03126L3.03164 8.11935C3.00978 8.53847 3.00303 9.02095 3.00094 9.58725C3 9.84076 3 10.1111 3 10.4V13.6C3 13.7575 3 13.9095 3.00015 14.0562L3.00018 14.0848C3.00082 14.6242 3.00365 15.0924 3.01633 15.5044C3.03202 16.0147 3.06282 16.4388 3.12322 16.8051L3.12682 16.8267C3.1914 17.2084 3.28887 17.5273 3.43597 17.816C3.45021 17.8439 3.46476 17.8717 3.47963 17.8992C3.63991 18.1963 3.83629 18.4703 4.06313 18.7157L4.07179 18.725C4.29977 18.97 4.55824 19.1861 4.84156 19.3677C4.95205 19.4385 5.06632 19.504 5.18404 19.564C5.37121 19.6594 5.57104 19.7339 5.79248 19.7921L5.81688 19.7984C6.16341 19.887 6.5629 19.9367 7.04894 19.9645C7.37821 19.9834 7.7472 19.9922 8.16635 19.9963L8.22836 19.9969C8.58171 20 8.97024 20 9.4 20H11H14.6C16.8402 20 17.9603 20 18.816 19.564C19.5686 19.1805 20.1805 18.5686 20.564 17.816C21 16.9603 21 15.8402 21 13.6V10.4C21 8.15979 21 7.03969 20.564 6.18404C20.1805 5.43139 19.5686 4.81947 18.816 4.43597C17.9603 4 16.8402 4 14.6 4H11H9.4C9.04997 4 8.72728 4 8.42868 4.00166ZM10 5H9.4L9.0259 5.0001L4.00002 10.1815L4 10.4V11.6177L10 5.43212V5ZM6.85424 5.05118C6.37627 5.09023 6.05892 5.15593 5.81687 5.24794L4.2205 6.8937C4.14276 7.1256 4.08623 7.42522 4.05118 7.85424C4.03425 8.06139 4.02292 8.28834 4.01534 8.54146L7.43219 5.01891C7.22246 5.02635 7.03113 5.03672 6.85424 5.05118ZM4 13.6V13.054L10 6.86839V8.30464L4.00131 14.4889C4.00006 14.2178 4 13.9228 4 13.6ZM4.03369 15.8917L10 9.74085V11.1771L4.22785 17.1278C4.14631 16.893 4.08732 16.5882 4.05118 16.1458C4.04452 16.0643 4.03873 15.9797 4.03369 15.8917ZM4.76926 18.0059L10 12.6134V14.0496L5.55695 18.6301C5.25972 18.4671 4.99378 18.2556 4.76926 18.0059ZM6.65883 18.9304L10 15.4859V16.9222L7.99017 18.9942C7.54743 18.988 7.17684 18.9752 6.85424 18.9488C6.7859 18.9432 6.72085 18.9371 6.65883 18.9304ZM9.19538 19L10 18.1705V19H9.4L9.19538 19Z" fill="white" style="fill:white;fill:white;fill-opacity:1;"/>
</g>
</svg>
