<svg width="24" height="24" viewBox="0 0 24 24" fill="none" xmlns="http://www.w3.org/2000/svg">
<g id="Toggle_Color">
<path id="bg" d="M2.99047 5.95704C2.73058 6.4671 2.61318 7.03416 2.55616 7.73209C2.5 8.41948 2.5 9.27641 2.5 10.3774V10.4V13.6V13.6226C2.5 14.7236 2.5 15.5805 2.55616 16.2679C2.61318 16.9658 2.73058 17.5329 2.99047 18.043C3.4219 18.8897 4.11031 19.5781 4.95704 20.0095C5.4671 20.2694 6.03416 20.3868 6.73209 20.4438C7.41948 20.5 8.27641 20.5 9.37736 20.5H9.4H14.6H14.6226C15.7236 20.5 16.5805 20.5 17.2679 20.4438C17.9658 20.3868 18.5329 20.2694 19.043 20.0095C19.8897 19.5781 20.5781 18.8897 21.0095 18.043C21.2694 17.5329 21.3868 16.9658 21.4438 16.2679C21.5 15.5805 21.5 14.7236 21.5 13.6226V13.6V10.4V10.3774C21.5 9.27641 21.5 8.41948 21.4438 7.73209C21.3868 7.03416 21.2694 6.4671 21.0095 5.95704C20.5781 5.11031 19.8897 4.4219 19.043 3.99047C18.5329 3.73058 17.9658 3.61318 17.2679 3.55616C16.5805 3.5 15.7236 3.5 14.6226 3.5H14.6H9.4H9.37737C8.27641 3.5 7.41948 3.5 6.73209 3.55616C6.03416 3.61318 5.4671 3.73058 4.95704 3.99047C4.11031 4.4219 3.4219 5.11031 2.99047 5.95704Z" fill="white" stroke="currentColor"/>
<path id="Union" fill-rule="evenodd" clip-rule="evenodd" d="M15.5713 4.00166L15.5811 4.00172C16.1331 4.00487 16.6027 4.01378 17.0105 4.03902C17.7894 4.08724 18.3431 4.19502 18.816 4.43597C19.5686 4.81947 20.1805 5.43139 20.564 6.18404C20.8093 6.66534 20.9166 7.23032 20.9635 8.03126L20.9684 8.11935C20.9902 8.53847 20.997 9.02095 20.9991 9.58725C21 9.84076 21 10.1111 21 10.4V13.6C21 13.7575 21 13.9095 20.9998 14.0562L20.9998 14.0848C20.9992 14.6242 20.9963 15.0924 20.9837 15.5044C20.968 16.0147 20.9372 16.4388 20.8768 16.8051L20.8732 16.8267C20.8086 17.2084 20.7111 17.5273 20.564 17.816C20.5498 17.8439 20.5352 17.8717 20.5204 17.8992C20.3601 18.1963 20.1637 18.4703 19.9369 18.7157L19.9282 18.725C19.7002 18.97 19.4418 19.1861 19.1584 19.3677C19.048 19.4385 18.9337 19.504 18.816 19.564C18.6288 19.6594 18.429 19.7339 18.2075 19.7921L18.1831 19.7984C17.8366 19.887 17.4371 19.9367 16.9511 19.9645C16.6218 19.9834 16.2528 19.9922 15.8337 19.9963L15.7716 19.9969C15.4183 20 15.0298 20 14.6 20H13H9.4C7.15979 20 6.03969 20 5.18404 19.564C4.43139 19.1805 3.81947 18.5686 3.43597 17.816C3 16.9603 3 15.8402 3 13.6V10.4C3 8.15979 3 7.03969 3.43597 6.18404C3.81947 5.43139 4.43139 4.81947 5.18404 4.43597C6.03969 4 7.15979 4 9.4 4H13H14.6C14.95 4 15.2727 4 15.5713 4.00166ZM14 5H14.6L14.9741 5.0001L20 10.1815L20 10.4V11.6177L14 5.43212V5ZM17.1458 5.05118C17.6237 5.09023 17.9411 5.15593 18.1831 5.24794L19.7795 6.8937C19.8572 7.1256 19.9138 7.42522 19.9488 7.85424C19.9657 8.06139 19.9771 8.28834 19.9847 8.54146L16.5678 5.01891C16.7775 5.02635 16.9689 5.03672 17.1458 5.05118ZM20 13.6V13.054L14 6.86839V8.30464L19.9987 14.4889C19.9999 14.2178 20 13.9228 20 13.6ZM19.9663 15.8917L14 9.74085V11.1771L19.7722 17.1278C19.8537 16.893 19.9127 16.5882 19.9488 16.1458C19.9555 16.0643 19.9613 15.9797 19.9663 15.8917ZM19.2307 18.0059L14 12.6134V14.0496L18.443 18.6301C18.7403 18.4671 19.0062 18.2556 19.2307 18.0059ZM17.3412 18.9304L14 15.4859V16.9222L16.0098 18.9942C16.4526 18.988 16.8232 18.9752 17.1458 18.9488C17.2141 18.9432 17.2792 18.9371 17.3412 18.9304ZM14.8046 19L14 18.1705V19H14.6L14.8046 19Z" fill="#121212" style="fill:#121212;fill:color(display-p3 0.0706 0.0706 0.0706);fill-opacity:1;"/>
</g>
</svg>
