<svg width="24" height="24" viewBox="0 0 24 24" fill="none" xmlns="http://www.w3.org/2000/svg">
<g id="unlimited">
<path id="Vector" fill-rule="evenodd" clip-rule="evenodd" d="M7.86459 9.79214C7.35774 9.69132 6.83237 9.74307 6.35492 9.94083C5.87748 10.1386 5.4694 10.4735 5.18229 10.9032C4.89518 11.3329 4.74194 11.8381 4.74194 12.3548C4.74194 12.8716 4.89518 13.3768 5.18229 13.8065C5.4694 14.2362 5.87748 14.5711 6.35492 14.7688C6.83237 14.9666 7.35774 15.0184 7.86459 14.9175C8.36343 14.8183 8.82229 14.5757 9.18504 14.2197L9.40893 13.9669C9.72784 13.6068 10.2783 13.5734 10.6384 13.8923C10.9985 14.2112 11.0319 14.7617 10.713 15.1218L10.4703 15.3958C10.4587 15.4089 10.4466 15.4217 10.4342 15.4342C9.82514 16.0432 9.04918 16.458 8.20443 16.626C7.35967 16.794 6.48406 16.7078 5.68831 16.3782C4.89257 16.0486 4.21244 15.4904 3.73392 14.7743C3.25541 14.0581 3 13.2161 3 12.3548C3 11.4935 3.25541 10.6516 3.73392 9.93542C4.21244 9.21927 4.89257 8.6611 5.68831 8.33149C6.48406 8.00189 7.35967 7.91565 8.20443 8.08368C9.04918 8.25171 9.82514 8.66647 10.4342 9.2755C10.4466 9.28794 10.4587 9.30076 10.4703 9.31392L14.815 14.2197C15.1777 14.5757 15.6366 14.8183 16.1354 14.9175C16.6423 15.0184 17.1676 14.9666 17.6451 14.7688C18.1225 14.5711 18.5306 14.2362 18.8177 13.8065C19.1048 13.3768 19.2581 12.8716 19.2581 12.3548C19.2581 11.8381 19.1048 11.3329 18.8177 10.9032C18.5306 10.4735 18.1225 10.1386 17.6451 9.94083C17.1676 9.74307 16.6423 9.69132 16.1354 9.79214C15.6366 9.89137 15.1777 10.134 14.815 10.49L14.5911 10.7428C14.2722 11.1029 13.7217 11.1363 13.3616 10.8174C13.0015 10.4985 12.9681 9.94802 13.287 9.58792L13.5297 9.31393C13.5413 9.30076 13.5534 9.28794 13.5658 9.2755C14.1749 8.66647 14.9508 8.25171 15.7956 8.08368C16.6403 7.91565 17.5159 8.00189 18.3117 8.33149C19.1074 8.6611 19.7876 9.21927 20.2661 9.93542C20.7446 10.6516 21 11.4935 21 12.3548C21 13.2161 20.7446 14.0581 20.2661 14.7743C19.7876 15.4904 19.1074 16.0486 18.3117 16.3782C17.5159 16.7078 16.6403 16.794 15.7956 16.626C14.9508 16.458 14.1749 16.0432 13.5658 15.4342C13.5534 15.4217 13.5413 15.4089 13.5297 15.3958L9.18504 10.49C8.82229 10.134 8.36343 9.89137 7.86459 9.79214Z" fill="currentColor"/>
</g>
</svg>
