<svg width="24" height="24" viewBox="0 0 24 24" fill="none" xmlns="http://www.w3.org/2000/svg">
<path d="M19.875 12C19.875 14.6 17.775 16.725 15.15 16.725C12.55 16.725 10.425 14.6 10.425 12C10.425 9.4 12.525 7.275 15.125 7.275C17.775 7.275 19.875 9.4 19.875 12Z" fill="#FFB600"/>
<path d="M15.15 7.275C17.75 7.275 19.875 9.4 19.875 12C19.875 14.6 17.775 16.725 15.15 16.725C12.55 16.725 10.425 14.6 10.425 12" fill="#F7981D"/>
<path d="M15.15 7.275C17.75 7.275 19.875 9.4 19.875 12C19.875 14.6 17.775 16.725 15.15 16.725" fill="#FF8500"/>
<path d="M8.8 7.275C6.225 7.3 4.125 9.4 4.125 12C4.125 14.6 6.225 16.725 8.85 16.725C10.075 16.725 11.175 16.25 12.025 15.5C12.2 15.35 12.35 15.175 12.5 15H11.525C11.4 14.85 11.275 14.675 11.175 14.525H12.85C12.95 14.375 13.05 14.2 13.125 14.025H10.9C10.825 13.875 10.75 13.7 10.7 13.525H13.3C13.45 13.05 13.55 12.55 13.55 12.025C13.55 11.675 13.5 11.35 13.45 11.025H10.55C10.575 10.85 10.625 10.7 10.675 10.525H13.275C13.225 10.35 13.15 10.175 13.075 10.025H10.875C10.95 9.85 11.05 9.7 11.15 9.525H12.825C12.725 9.35 12.6 9.175 12.45 9.025H11.525C11.675 8.85 11.825 8.7 12 8.55C11.175 7.775 10.05 7.325 8.825 7.325C8.825 7.275 8.825 7.275 8.8 7.275Z" fill="#FF5050"/>
<path d="M4.125 12C4.125 14.6 6.225 16.725 8.85 16.725C10.075 16.725 11.175 16.25 12.025 15.5C12.2 15.35 12.35 15.175 12.5 15H11.525C11.4 14.85 11.275 14.675 11.175 14.525H12.85C12.95 14.375 13.05 14.2 13.125 14.025H10.9C10.825 13.875 10.75 13.7 10.7 13.525H13.3C13.45 13.05 13.55 12.55 13.55 12.025C13.55 11.675 13.5 11.35 13.45 11.025H10.55C10.575 10.85 10.625 10.7 10.675 10.525H13.275C13.225 10.35 13.15 10.175 13.075 10.025H10.875C10.95 9.85 11.05 9.7 11.15 9.525H12.825C12.725 9.35 12.6 9.175 12.45 9.025H11.525C11.675 8.85 11.825 8.7 12 8.55C11.175 7.775 10.05 7.325 8.825 7.325H8.8" fill="#E52836"/>
<path d="M8.85005 16.725C10.075 16.725 11.175 16.25 12.025 15.5C12.2 15.35 12.35 15.175 12.5 15H11.525C11.4 14.85 11.275 14.675 11.175 14.525H12.85C12.95 14.375 13.05 14.2 13.125 14.025H10.9C10.825 13.875 10.75 13.7 10.7 13.525H13.3C13.45 13.05 13.55 12.55 13.55 12.025C13.55 11.675 13.5 11.35 13.45 11.025H10.55C10.575 10.85 10.625 10.7 10.675 10.525H13.275C13.225 10.35 13.15 10.175 13.075 10.025H10.875C10.95 9.85 11.05 9.7 11.15 9.525H12.825C12.725 9.35 12.6 9.175 12.45 9.025H11.525C11.675 8.85 11.825 8.7 12 8.55C11.175 7.775 10.05 7.325 8.82505 7.325H8.80005" fill="#CB2026"/>
<path d="M10.525 13.2L10.6 12.775C10.575 12.775 10.525 12.8 10.475 12.8C10.3 12.8 10.275 12.7 10.3 12.65L10.45 11.775H10.725L10.8 11.3H10.55L10.6 11H10.1C10.1 11 9.79995 12.65 9.79995 12.85C9.79995 13.15 9.97495 13.275 10.2 13.275C10.35 13.275 10.475 13.225 10.525 13.2ZM10.7 12.4C10.7 13.1 11.175 13.275 11.575 13.275C11.95 13.275 12.1 13.2 12.1 13.2L12.2 12.725C12.2 12.725 11.925 12.85 11.675 12.85C11.125 12.85 11.225 12.45 11.225 12.45H12.25C12.25 12.45 12.325 12.125 12.325 12C12.325 11.675 12.15 11.275 11.6 11.275C11.075 11.225 10.7 11.775 10.7 12.4ZM11.575 11.675C11.85 11.675 11.8 12 11.8 12.025H11.25C11.25 12 11.3 11.675 11.575 11.675ZM14.75 13.2L14.85 12.65C14.85 12.65 14.6 12.775 14.425 12.775C14.075 12.775 13.925 12.5 13.925 12.2C13.925 11.6 14.225 11.275 14.575 11.275C14.825 11.275 15.025 11.425 15.025 11.425L15.1 10.9C15.1 10.9 14.8 10.775 14.525 10.775C13.95 10.775 13.375 11.275 13.375 12.225C13.375 12.85 13.675 13.275 14.275 13.275C14.475 13.275 14.75 13.2 14.75 13.2ZM7.77495 11.225C7.42495 11.225 7.17495 11.325 7.17495 11.325L7.09995 11.75C7.09995 11.75 7.32495 11.65 7.64995 11.65C7.82495 11.65 7.97495 11.675 7.97495 11.825C7.97495 11.925 7.94995 11.95 7.94995 11.95H7.72495C7.29995 11.95 6.82495 12.125 6.82495 12.7C6.82495 13.15 7.12495 13.25 7.29995 13.25C7.64995 13.25 7.79995 13.025 7.82495 13.025L7.79995 13.225H8.24995L8.44995 11.85C8.44995 11.25 7.94995 11.225 7.77495 11.225ZM7.87495 12.35C7.87495 12.425 7.82495 12.825 7.52495 12.825C7.37495 12.825 7.32495 12.7 7.32495 12.625C7.32495 12.5 7.39995 12.325 7.77495 12.325C7.84995 12.35 7.87495 12.35 7.87495 12.35ZM8.92495 13.25C9.04995 13.25 9.67495 13.275 9.67495 12.6C9.67495 11.975 9.07495 12.1 9.07495 11.85C9.07495 11.725 9.17495 11.675 9.34995 11.675C9.42495 11.675 9.69995 11.7 9.69995 11.7L9.77495 11.25C9.77495 11.25 9.59995 11.2 9.29995 11.2C8.92495 11.2 8.54995 11.35 8.54995 11.85C8.54995 12.425 9.17495 12.375 9.17495 12.6C9.17495 12.75 8.99995 12.775 8.87495 12.775C8.64995 12.775 8.42495 12.7 8.42495 12.7L8.34995 13.15C8.37495 13.2 8.49995 13.25 8.92495 13.25ZM18.9 10.825L18.8 11.5C18.8 11.5 18.6 11.25 18.325 11.25C17.875 11.25 17.475 11.8 17.475 12.45C17.475 12.85 17.675 13.275 18.1 13.275C18.4 13.275 18.575 13.075 18.575 13.075L18.55 13.25H19.05L19.425 10.85L18.9 10.825ZM18.675 12.15C18.675 12.425 18.55 12.775 18.275 12.775C18.1 12.775 18 12.625 18 12.375C18 11.975 18.175 11.725 18.4 11.725C18.575 11.725 18.675 11.85 18.675 12.15ZM5.04995 13.225L5.34995 11.425L5.39995 13.225H5.74995L6.39995 11.425L6.12495 13.225H6.64995L7.04995 10.825H6.22495L5.72495 12.3L5.69995 10.825H4.97495L4.57495 13.225H5.04995ZM12.8 13.225C12.95 12.4 12.975 11.725 13.325 11.85C13.375 11.525 13.45 11.4 13.5 11.275H13.4C13.175 11.275 13 11.575 13 11.575L13.05 11.3H12.575L12.25 13.25H12.8V13.225ZM15.9 11.225C15.55 11.225 15.3 11.325 15.3 11.325L15.225 11.75C15.225 11.75 15.45 11.65 15.775 11.65C15.95 11.65 16.1 11.675 16.1 11.825C16.1 11.925 16.075 11.95 16.075 11.95H15.85C15.425 11.95 14.95 12.125 14.95 12.7C14.95 13.15 15.25 13.25 15.425 13.25C15.775 13.25 15.925 13.025 15.95 13.025L15.925 13.225H16.375L16.575 11.85C16.6 11.25 16.075 11.225 15.9 11.225ZM16.025 12.35C16.025 12.425 15.975 12.825 15.675 12.825C15.525 12.825 15.475 12.7 15.475 12.625C15.475 12.5 15.55 12.325 15.925 12.325C16 12.35 16 12.35 16.025 12.35ZM17 13.225C17.15 12.4 17.175 11.725 17.525 11.85C17.575 11.525 17.65 11.4 17.7 11.275H17.6C17.375 11.275 17.2 11.575 17.2 11.575L17.25 11.3H16.775L16.45 13.25H17V13.225Z" fill="white"/>
<path d="M9.74995 12.85C9.74995 13.15 9.92495 13.275 10.15 13.275C10.325 13.275 10.475 13.225 10.525 13.2L10.6 12.775C10.575 12.775 10.525 12.8 10.475 12.8C10.3 12.8 10.275 12.7 10.3 12.65L10.45 11.775H10.725L10.8 11.3H10.55L10.6 11L9.74995 12.85ZM10.95 12.4C10.95 13.1 11.175 13.275 11.575 13.275C11.95 13.275 12.1 13.2 12.1 13.2L12.2 12.725C12.2 12.725 11.925 12.85 11.675 12.85C11.125 12.85 11.225 12.45 11.225 12.45H12.25C12.25 12.45 12.325 12.125 12.325 12C12.325 11.675 12.15 11.275 11.6 11.275C11.075 11.225 10.95 11.775 10.95 12.4ZM11.575 11.675C11.85 11.675 11.9 12 11.9 12.025H11.25C11.25 12 11.3 11.675 11.575 11.675ZM14.75 13.2L14.85 12.65C14.85 12.65 14.6 12.775 14.425 12.775C14.075 12.775 13.925 12.5 13.925 12.2C13.925 11.6 14.225 11.275 14.575 11.275C14.825 11.275 15.025 11.425 15.025 11.425L15.1 10.9C15.1 10.9 14.8 10.775 14.525 10.775C13.95 10.775 13.625 11.275 13.625 12.225C13.625 12.85 13.675 13.275 14.275 13.275C14.475 13.275 14.75 13.2 14.75 13.2ZM7.09995 11.775C7.09995 11.775 7.32495 11.675 7.64995 11.675C7.82495 11.675 7.97495 11.7 7.97495 11.85C7.97495 11.95 7.94995 11.975 7.94995 11.975H7.72495C7.29995 11.975 6.82495 12.15 6.82495 12.725C6.82495 13.175 7.12495 13.275 7.29995 13.275C7.64995 13.275 7.79995 13.05 7.82495 13.05L7.79995 13.25H8.24995L8.44995 11.875C8.44995 11.3 7.94995 11.275 7.74995 11.275L7.09995 11.775ZM8.12495 12.35C8.12495 12.425 7.82495 12.825 7.52495 12.825C7.37495 12.825 7.32495 12.7 7.32495 12.625C7.32495 12.5 7.39995 12.325 7.77495 12.325C7.84995 12.35 8.12495 12.35 8.12495 12.35ZM8.37495 13.2C8.37495 13.2 8.52495 13.25 8.94995 13.25C9.07495 13.25 9.69995 13.275 9.69995 12.6C9.69995 11.975 9.09995 12.1 9.09995 11.85C9.09995 11.725 9.19995 11.675 9.37495 11.675C9.44995 11.675 9.72495 11.7 9.72495 11.7L9.79995 11.25C9.79995 11.25 9.62495 11.2 9.32495 11.2C8.94995 11.2 8.82495 11.35 8.82495 11.85C8.82495 12.425 9.19995 12.375 9.19995 12.6C9.19995 12.75 9.02495 12.775 8.89995 12.775L8.37495 13.2ZM18.8 11.5C18.8 11.5 18.6 11.25 18.325 11.25C17.875 11.25 17.725 11.8 17.725 12.45C17.725 12.85 17.675 13.275 18.1 13.275C18.4 13.275 18.575 13.075 18.575 13.075L18.55 13.25H19.05L19.425 10.85L18.8 11.5ZM18.775 12.15C18.775 12.425 18.55 12.775 18.275 12.775C18.1 12.775 18 12.625 18 12.375C18 11.975 18.175 11.725 18.4 11.725C18.575 11.725 18.775 11.85 18.775 12.15ZM5.04995 13.225L5.34995 11.425L5.39995 13.225H5.74995L6.39995 11.425L6.12495 13.225H6.64995L7.04995 10.825H6.42495L5.72495 12.3L5.69995 10.825H5.42495L4.57495 13.225H5.04995ZM12.275 13.225H12.8C12.95 12.4 12.975 11.725 13.325 11.85C13.375 11.525 13.45 11.4 13.5 11.275H13.4C13.175 11.275 13 11.575 13 11.575L13.05 11.3L12.275 13.225ZM15.225 11.775C15.225 11.775 15.45 11.675 15.775 11.675C15.95 11.675 16.1 11.7 16.1 11.85C16.1 11.95 16.075 11.975 16.075 11.975H15.85C15.425 11.975 14.95 12.15 14.95 12.725C14.95 13.175 15.25 13.275 15.425 13.275C15.775 13.275 15.925 13.05 15.95 13.05L15.925 13.25H16.375L16.575 11.875C16.575 11.3 16.075 11.275 15.875 11.275L15.225 11.775ZM16.25 12.35C16.25 12.425 15.95 12.825 15.65 12.825C15.5 12.825 15.45 12.7 15.45 12.625C15.45 12.5 15.525 12.325 15.9 12.325C16 12.35 16.25 12.35 16.25 12.35ZM16.475 13.225H17C17.15 12.4 17.175 11.725 17.525 11.85C17.575 11.525 17.65 11.4 17.7 11.275H17.6C17.375 11.275 17.2 11.575 17.2 11.575L17.25 11.3" fill="#DCE5E5"/>
</svg>
