<svg width="45" height="18" viewBox="0 0 45 18" fill="none" xmlns="http://www.w3.org/2000/svg">
<path d="M5.43797 0.553588C4.61062 0.274559 3.81274 0.322675 3.04027 0.751783C2.90921 0.8141 2.7602 0.875064 2.61255 0.918079C2.22478 1.03324 1.86886 1.20495 1.77845 1.68551C1.98266 1.61066 2.05411 1.38138 2.32605 1.3658L1.78422 1.8484C1.707 1.91478 1.62979 1.98116 1.67416 2.11087C1.70193 2.22127 1.80557 2.28324 1.91191 2.30932C2.03619 2.33674 2.13 2.28967 2.22652 2.20669C2.6925 1.77251 3.23333 1.54255 3.88626 1.50155C4.01191 1.51102 4.15414 1.53981 4.27979 1.54929C4.64012 1.55842 4.70921 1.59973 4.73733 1.94482C4.81457 2.83516 4.83797 3.72143 4.53693 4.60128C4.23589 5.48112 3.81192 6.31559 3.31886 7.10875C3.11499 7.41829 2.89183 7.74443 2.70456 8.07327C2.35068 8.69642 1.9968 9.31956 1.55589 9.90004C1.19489 10.3782 0.955478 10.9198 0.768557 11.4833C0.694399 11.7485 0.654785 12.0343 0.889823 12.2686C0.975506 12.3293 0.913534 12.4329 0.819727 12.48C0.745223 12.5105 0.672073 12.523 0.597569 12.5535C0.524419 12.566 0.503762 12.6005 0.4997 12.6544C0.494284 12.7262 0.506817 12.7993 0.595207 12.8241C0.629751 12.8447 0.665649 12.8474 0.719496 12.8515C1.1435 12.9737 1.56581 12.8792 1.98405 12.8386C2.27665 12.7884 2.56383 12.8101 2.84696 12.8856C3.19917 13.0024 3.54155 13.0102 3.88664 12.9821C4.48844 12.9011 5.07399 13.0356 5.64971 13.061C5.9562 13.066 6.25456 13.1788 6.5414 12.9658C6.59931 12.916 6.7263 12.9075 6.71648 12.7985C6.70801 12.6715 6.58236 12.662 6.49533 12.6193C6.42624 12.578 6.35038 12.6264 6.27858 12.621C6.13499 12.6102 6.00664 12.6366 5.86847 12.554C5.6612 12.43 5.44581 12.4138 5.21112 12.4141C4.86874 12.4064 4.53618 12.5076 4.20056 12.4101C3.90085 12.3153 3.57912 12.273 3.27263 12.2679C2.98409 12.2642 2.72163 12.1541 2.45375 12.1159C2.47711 12.0454 2.47847 12.0275 2.48117 11.9916C2.77308 11.4721 3.06364 10.9705 3.38873 10.4896C3.62985 10.1648 3.83642 9.81937 3.92141 9.4106C3.94748 9.30426 4.00674 9.23653 4.08531 9.1522C4.68912 8.56596 5.06907 7.83647 5.46697 7.10834C5.67896 6.69111 5.873 6.27252 6.04909 5.85257C6.20723 5.43128 6.36537 5.00998 6.55941 4.59139C6.77546 4.1203 6.92377 3.58996 6.92849 3.04878C6.91832 2.70504 6.9261 2.36266 6.91593 2.01892C6.91964 1.73038 6.86951 1.43778 6.80143 1.14383C6.73606 0.813974 6.36625 0.930484 6.2389 0.704265C6.17252 0.627052 6.06077 0.672775 5.98626 0.703257C5.96832 0.701903 5.96696 0.719851 5.94901 0.718497C5.9436 0.790294 5.99338 0.848203 6.02522 0.904757C6.05841 0.943364 6.14544 0.986032 6.10142 1.09102C5.94801 0.971137 5.77258 0.903751 5.69637 0.71749C5.6493 0.623683 5.54296 0.59761 5.43797 0.553588ZM6.25348 1.22885C6.54372 1.4493 6.42961 1.76562 6.44384 2.05551C6.4103 1.78221 6.30362 1.52145 6.25348 1.22885ZM2.79915 1.07656C2.66403 1.19273 2.55092 1.2564 2.42122 1.30077C2.5604 1.13076 2.5604 1.13076 2.79915 1.07656ZM4.98285 1.80089C5.27139 1.8046 5.34183 1.82797 5.36419 2.01016C5.41602 2.51951 5.41401 3.02479 5.24639 3.57173C5.15088 3.40206 5.12446 3.27371 5.13529 3.13012C5.17762 2.80839 5.13019 2.47989 5.00962 2.16393C4.96525 2.03422 4.95543 1.92517 4.98285 1.80089ZM13.4804 8.56126C13.4841 8.27273 13.4685 8.00078 13.5081 7.71495C13.5999 7.21644 13.3825 6.74876 13.1237 6.35017C12.8511 5.89637 12.4006 5.64578 11.8649 5.56926C11.6674 5.55437 11.4493 5.57402 11.2573 5.48732C11.2228 5.46667 11.1689 5.46261 11.1635 5.5344C11.1195 5.63939 11.0118 5.63126 10.9234 5.60654C10.7619 5.59436 10.5976 5.61807 10.432 5.65973C9.99311 5.73493 9.97822 5.93237 9.57962 6.19111C9.53526 6.06141 9.52408 5.97031 9.5322 5.86262C9.5972 5.00107 9.51995 4.11073 9.4952 3.24241C9.49621 2.98977 9.4769 3.00636 9.22833 2.95151C9.12199 2.92544 8.90389 2.94509 9.10098 2.72529C9.16025 2.65756 9.09116 2.61624 9.05661 2.59558C9.00548 2.55562 8.91573 2.54885 8.95975 2.44387C8.997 2.42863 9.05221 2.41474 9.08675 2.4354C9.63775 2.54917 10.1874 2.68089 10.7381 2.55997C11.3111 2.62125 11.9034 2.66593 12.4625 2.67201C12.9498 2.67267 13.3942 2.52568 13.8717 2.41729C13.7155 2.33331 13.7057 2.22426 13.7856 2.12198C13.849 2.0004 13.8405 1.8734 13.7741 1.79619C13.6718 1.71627 13.6414 1.64177 13.6688 1.51748C13.7128 1.41249 13.6464 1.33528 13.5414 1.29126C13.2072 1.17579 12.855 1.05896 12.4946 1.04983C12.1881 1.04476 11.8776 1.09354 11.5752 1.03462C11.3611 1.00042 11.1485 0.948274 10.9317 0.949975C10.1406 0.908347 9.72507 0.913101 8.91601 0.870118C8.82627 0.863348 8.73517 0.874528 8.6925 0.961564C8.65119 1.03065 8.57939 1.02524 8.52419 1.03912C8.41379 1.0669 8.30474 1.07672 8.22211 1.2149C8.27325 1.25486 8.32304 1.31277 8.39212 1.35408C8.49305 1.45195 8.55672 1.56506 8.54724 1.6907C8.54217 1.99719 8.60754 2.32704 8.56387 2.66672C8.49818 3.05889 8.46839 3.45377 8.42201 3.82934C8.35802 4.43825 8.32858 5.06782 8.23005 5.65608C8.141 6.11869 8.10579 6.58536 8.03469 7.04933C8.0032 7.22747 8.04757 7.35717 8.09058 7.50483C8.11971 7.59728 8.19998 7.72969 8.27583 7.68126C8.53795 7.55662 8.72591 7.69716 8.91658 7.8018C9.01174 7.73678 9.03782 7.63044 9.04459 7.54069C9.08555 7.23691 9.32972 7.11092 9.56001 6.92973C9.793 6.71264 9.83973 6.57176 10.1943 6.418C10.3433 6.35703 10.5089 6.31537 10.6843 6.38276C11.1043 6.55885 11.3298 6.91884 11.4602 7.34385C11.531 7.60191 11.5246 7.92634 11.4477 8.22741C11.3709 8.52848 11.3644 8.85292 11.3773 9.16076C11.3801 10.0816 11.3456 11.0176 11.0266 11.8961C10.9578 12.0895 10.8711 12.2815 10.6642 12.3923C10.4739 12.5223 10.3347 12.6923 10.1969 12.8444C10.1556 12.9135 10.1143 12.9826 10.0398 13.0131C9.42441 13.2735 9.04985 12.9745 8.72066 12.5525C8.58925 12.3802 8.47579 12.2091 8.30714 12.052C8.27259 12.0313 8.20621 11.9541 8.16761 11.9873C8.04908 12.1228 8.00607 11.9751 7.93698 11.9338C7.88584 11.8939 7.83741 11.818 7.76697 11.7946C7.66333 11.7327 7.60407 11.8004 7.578 11.9067C7.55734 11.9413 7.57123 11.9965 7.58647 12.0337C7.69451 12.2766 7.74599 12.5512 7.96714 12.7303C8.28922 13.0074 8.6306 13.2678 8.99263 13.4937C9.52739 13.8228 9.69028 13.817 10.3046 13.8092C10.5214 13.8075 10.7449 13.7161 10.9616 13.7144C11.1424 13.71 11.3233 13.7056 11.4723 13.6446L12.1967 13.3743C12.4188 13.3008 12.6657 13.139 12.7399 12.8738C12.7974 12.5893 12.873 12.3062 13.0535 12.0671C13.1141 11.9814 13.1222 11.8737 13.1483 11.7674C13.282 10.7124 13.4889 9.64497 13.4804 8.56126ZM11.5731 9.91563C11.6496 9.37986 11.4749 8.82515 11.7309 8.30292C11.7979 8.84952 11.6496 9.37986 11.5731 9.91563ZM21.3486 1.6275C21.1843 1.65121 21.1058 1.73554 21.0411 1.87507C20.7204 2.53682 20.4163 3.21787 20.0777 3.87827C19.483 5.06089 18.9934 6.28753 18.4512 7.49216C18.0604 8.36524 17.7221 9.26033 17.4363 10.1774C17.3855 10.3722 17.35 10.6041 17.2467 10.7769C16.8075 11.5741 16.5616 12.44 16.2454 13.2826C16.1973 13.4415 16.1865 13.5851 16.1922 13.748C16.1854 13.8377 16.1953 13.9467 16.3016 13.9728C16.3914 13.9796 16.4645 13.9671 16.5583 13.92C16.7266 13.8424 16.7706 13.7374 16.8313 13.6518C17.1052 13.1309 17.2217 12.544 17.4777 12.0218C17.8356 11.3448 17.9657 10.5784 18.2904 9.86278C18.5464 9.34056 18.8038 8.80039 19.0087 8.23821C19.1241 7.90395 19.2907 7.60965 19.4062 7.27539C19.5369 6.97838 19.651 6.66207 19.7831 6.34711C20.0171 5.87738 20.3036 5.42966 20.4851 4.93792C20.5305 4.81499 20.5413 4.6714 20.6046 4.54982C20.8359 4.11599 20.9981 3.64084 21.1962 3.1684C21.3256 2.88934 21.4729 2.61164 21.5152 2.28991C21.5494 2.07588 21.5311 1.83983 21.3486 1.6275ZM17.327 1.57683C16.7635 1.38991 16.0983 1.59245 15.8339 1.98768C15.692 2.19359 15.5487 2.41745 15.44 2.66196C15.0811 3.59159 15.0259 4.56219 15.1682 5.54769C15.2017 5.82099 15.347 6.04856 15.5102 6.27749C15.6914 6.50777 15.9705 6.63713 16.171 6.85082C16.3688 7.1004 16.6407 7.08481 16.91 7.10513C16.9719 7.00149 16.7938 6.97 16.8724 6.88568C17.19 6.98184 17.2066 7.00115 17.4315 6.89175C17.7695 6.71869 18.0549 6.52361 18.2131 6.10231C18.5212 5.36741 18.632 4.61761 18.6543 3.8431C18.68 3.50207 18.6146 3.17222 18.5865 2.82712C18.5374 2.28188 18.2952 1.90259 17.7496 1.71702L17.327 1.57683ZM17.3236 2.10006C17.708 2.50813 17.6342 3.008 17.6515 3.49668C17.6545 3.69548 17.6231 3.87361 17.6082 4.07105C17.5841 4.62882 17.469 5.19778 17.427 5.7542C17.4067 6.02343 17.2787 6.28454 17.0498 6.44778C16.8402 6.59443 16.6647 6.52704 16.5733 6.30353C16.4805 6.09797 16.4815 5.84533 16.3708 5.63841C16.3569 5.58321 16.3596 5.54731 16.3816 5.49482C16.4903 5.2503 16.5092 4.99901 16.5116 4.72843C16.5231 4.0975 16.6602 3.47606 16.7269 2.83125C16.7459 2.57996 16.8546 2.33545 16.9799 2.11023C17.0845 1.91957 17.1729 1.94428 17.3236 2.10006ZM20.8256 8.32112C20.3122 8.4268 19.897 8.66625 19.6257 9.15122C19.1865 9.94844 18.9932 10.8364 18.9075 11.7325C18.8584 12.144 18.8811 12.5609 19.0322 12.9513C19.1196 13.2287 19.2442 13.4908 19.4433 13.7224C19.525 13.8369 19.674 13.7759 19.7031 13.8684C19.7986 14.0381 19.9422 14.0489 20.101 14.097C20.9863 14.3262 21.5806 13.8656 21.9247 13.1334C22.0994 12.7314 22.0974 12.28 22.2183 11.874C22.4655 10.99 22.3869 10.1177 22.0722 9.26357C21.9987 9.04141 21.8507 8.84974 21.6062 8.74103C21.4667 8.67635 21.3657 8.57848 21.2662 8.46267C21.15 8.32755 20.9912 8.27946 20.8256 8.32112ZM20.9607 9.16167C21.0325 9.16709 21.0644 9.22364 21.0796 9.26089C21.2544 9.81561 21.4484 10.3537 21.4038 10.9461C21.3726 11.3589 21.3056 11.769 21.2565 12.1805L21.2362 12.4497C21.245 12.8114 20.9226 13.2564 20.5155 13.3882C20.5291 13.2087 20.5592 13.0485 20.3232 13.0668L20.1362 12.6736C20.1223 12.6184 20.1098 12.5452 20.1138 12.4914C20.1281 11.8246 20.0525 11.151 20.2117 10.477C20.2912 10.1401 20.4412 9.82648 20.5913 9.51287C20.6573 9.35539 20.8256 9.27783 20.9607 9.16167ZM19.8855 10.2539C19.8019 10.6447 19.7748 11.0037 19.6014 11.3877C19.5113 11.1463 19.6339 10.9569 19.6641 10.7968C19.6942 10.6366 19.6566 10.4171 19.8855 10.2539ZM20.8776 13.614C20.908 13.6885 20.8528 13.7024 20.8156 13.7177C20.7783 13.7329 20.7231 13.7468 20.6899 13.7082C20.7465 13.6763 20.7878 13.6073 20.8776 13.614ZM29.5318 7.28109C29.4007 7.34341 29.2683 7.42368 29.1206 7.46669C28.4362 7.68583 28.0559 8.18062 27.7725 8.82713C27.5277 9.44045 27.3174 10.0744 27.2673 10.7385C27.1786 11.4358 27.0912 12.1152 27.1999 12.8274C27.3043 13.3588 27.5204 13.8444 27.8702 14.2318C28.1716 14.5434 28.5103 14.8397 28.871 15.0835C29.1114 15.246 29.3448 15.2636 29.5876 15.1556C29.8856 15.0337 30.2154 14.9683 30.5162 14.8105C30.5907 14.78 30.7038 14.7163 30.8074 14.7783C30.7593 14.9371 30.3299 14.8867 30.5941 15.2135C30.8342 15.1413 31.0895 15.1064 31.2507 14.8839C31.4532 14.5924 31.6351 14.3353 31.8196 14.0424C32.0428 13.7162 32.2121 13.386 32.2253 12.9718C32.2362 12.8282 32.2856 12.6515 32.3669 12.5312C32.5887 12.2231 32.5606 11.878 32.5504 11.5342C32.525 11.1532 32.4637 10.7695 32.4921 10.3926C32.4877 10.2118 32.4833 10.0309 32.4609 9.84871C32.3776 9.51751 32.3867 9.15717 32.1751 8.85239C31.9786 8.58485 31.7615 8.35186 31.6589 8.03725C31.6616 8.00135 31.6284 7.96275 31.6105 7.96139C31.218 7.66101 30.8227 7.39654 30.2982 7.41111C30.2609 7.42636 30.1905 7.40299 30.1864 7.45684C30.1288 7.74131 29.9588 7.60213 29.8166 7.57335C29.8247 7.46565 29.9365 7.41993 29.9432 7.33019C29.8064 7.22961 29.6808 7.22013 29.5318 7.28109ZM30.3656 8.1924C30.5532 8.09825 30.7093 8.18223 30.8614 8.32006C31.1489 8.57641 31.2668 8.92828 31.2563 9.30656L31.1785 10.817C31.105 11.5515 31.0136 12.2847 30.8863 13.0152C30.7959 13.4958 30.6171 13.9516 30.2462 14.3208C30.2036 14.4078 30.0891 14.4894 29.9249 14.5132C29.8666 14.3282 29.8276 14.1267 29.5696 14.1975C29.4592 14.2253 29.448 14.1342 29.4175 14.0597C29.1019 13.4583 29.0236 12.8206 29.1276 12.1605C29.1604 11.9644 29.1587 11.7477 29.1736 11.5502C29.1567 11.2963 29.1936 11.0463 29.2498 10.7798C29.3307 10.4249 29.3053 10.0439 29.3144 9.68355C29.3002 9.39366 29.4075 9.16709 29.4983 8.92122C29.5711 8.674 29.713 8.46809 29.7858 8.22087C29.9805 8.27166 30.1793 8.2686 30.3656 8.1924ZM30.0448 15.3165C30.1067 15.2128 30.1606 15.2169 30.2171 15.185C30.3082 15.1739 30.3648 15.142 30.376 15.2331C30.4051 15.3256 30.3472 15.3754 30.274 15.3879C30.2022 15.3825 30.1139 15.3578 30.0448 15.3165ZM42.897 3.86682C42.792 3.82279 42.6637 3.84921 42.5533 3.87699C42.2221 3.96031 42.0703 4.05717 41.7378 4.15844C41.4425 4.24447 41.1624 4.36775 41.0138 4.6634C40.9504 4.78499 40.8512 4.90386 40.756 4.96888C40.4719 5.14601 40.2735 5.38376 40.1441 5.66282C39.8867 6.20299 39.7012 6.74857 39.6026 7.33683C39.5617 7.64061 39.5194 7.96234 39.4591 8.28271C38.8241 8.32506 38.6267 8.31017 38.247 8.31763C37.8135 8.32103 37.3967 8.34374 36.6635 8.25232C36.6783 8.05489 36.6367 7.88928 36.6695 7.6932C36.7024 7.49711 36.6993 7.29832 36.7129 7.11883C36.7511 6.85095 36.933 6.5939 36.8622 6.33584C36.8331 6.24339 36.9692 5.87459 37.0105 5.8055C37.1592 5.50984 37.4738 5.40722 37.7704 5.30324C38.2893 5.12577 38.7871 5.70486 39.0851 5.58293C39.3953 5.29946 38.678 4.75797 39.1626 4.79453C39.3242 4.80671 38.9354 4.2178 38.7904 4.22491C38.6096 4.22932 38.4714 4.14669 38.1924 4.01734C38.0708 3.95401 37.8127 4.0248 37.705 4.01667C37.5614 4.00584 37.4358 3.99636 37.3074 4.02278C37.1046 4.07968 36.9017 4.13659 36.7029 4.13964C36.5414 4.12745 36.4449 4.21043 36.365 4.31271C36.0507 4.65002 35.7364 4.98734 35.4913 5.36597C35.0588 6.07344 34.6802 6.78498 34.7243 7.63671C34.7314 7.78165 34.7358 7.9625 34.6532 8.10067C34.1272 8.1332 33.9589 8.21076 33.4028 8.40347C33.1671 8.65646 33.9075 8.89282 33.7351 9.02423C33.4096 9.27044 34.2018 9.05943 34.5567 9.14036C34.49 9.78517 34.472 9.78381 34.4053 10.4286C34.3044 11.2875 34.3204 11.7941 34.3272 12.6611C34.3289 12.8778 34.3587 13.4396 34.2873 13.6689C34.2392 13.8278 34.2703 14.3716 34.2311 14.8922C34.2084 15.432 34.5335 15.9078 34.7882 16.3602C34.8035 16.3975 34.8367 16.4361 34.8891 16.4581C35.03 16.5048 35.3873 16.3152 35.4367 16.1384C35.4669 15.9782 35.5163 15.8014 35.5505 15.5874C35.6819 15.7598 35.5939 15.9697 35.7805 16.1282C35.9552 15.7262 35.8248 15.3012 35.9664 14.8606C35.9694 15.0594 35.9765 15.2043 35.9657 15.3479C35.9562 15.4736 36.0006 15.6033 35.9718 15.7455C35.9444 15.8698 35.8977 16.0107 36.0331 16.1292C36.0951 16.0256 36.0135 15.9111 36.092 15.8268C36.2478 15.6761 36.2448 15.4773 36.2417 15.2785C36.2119 14.7167 36.2718 14.1616 36.2867 13.9642C36.3151 13.5872 36.2796 12.8625 36.3798 12.491C36.4553 12.2079 36.4783 11.9027 36.5013 11.5976C36.5271 11.2566 36.5721 10.899 36.5978 10.5579C36.6533 9.82201 36.6171 9.58461 36.6469 9.18973C36.7075 9.10405 36.7793 9.10947 36.8511 9.11488C37.4986 9.14568 37.5579 9.07795 38.2095 9.0549L38.5352 9.04337C38.6609 9.05285 38.6291 8.99629 38.9342 9.01931C39.0778 9.03014 39.2833 8.93735 39.4063 8.98272C39.4313 9.12902 39.4205 9.27261 39.3944 9.37895C39.2824 10.1467 39.2214 10.9544 39.1812 11.7276C39.1392 12.284 39.0613 12.8377 39.1643 13.387C39.2408 13.8079 39.2155 14.3837 39.0946 14.7897C38.9916 15.1971 38.9425 15.6086 38.9293 16.0228C38.9199 16.1484 38.9283 16.2754 38.9727 16.4051C39.078 16.6839 39.2579 16.9321 39.3066 17.2426C39.3205 17.2978 39.3717 17.3378 39.4255 17.3419C39.5332 17.35 39.6236 16.8694 39.6914 16.9287C39.7923 17.0265 39.8414 17.5718 39.9711 17.5274C40.1215 17.4485 40.222 17.3117 40.3531 17.2494C40.6318 17.144 40.6494 16.9107 40.7016 16.698C40.8678 16.169 40.856 15.6085 40.9518 15.0562C40.9928 14.7524 41.0998 14.2912 41.1228 13.986C41.1891 13.1065 41.2734 12.2284 41.3232 11.3296C41.3557 10.8988 41.442 10.4721 41.4027 10.0359C41.3746 9.69079 41.3106 9.34299 41.4108 8.97148C41.6262 8.98773 41.8609 8.98738 42.0803 8.94978C42.2625 8.92743 42.442 8.94097 42.6049 8.9352C42.7512 8.91014 42.8711 8.75672 43.0411 8.8959C43.1102 8.93722 43.393 8.77804 43.4356 8.691C43.4783 8.60397 43.2616 8.60567 43.267 8.53387C43.3222 8.51998 43.376 8.52404 43.4312 8.51016C43.5569 8.51964 43.7309 8.60497 43.7265 8.42413C43.7374 8.28054 43.5538 8.32084 43.4488 8.27682L43.4129 8.27411C43.1203 8.32424 42.8538 8.26804 42.5666 8.24637C42.2615 8.22335 42.0241 8.2596 41.6611 8.28636C41.5879 8.2989 41.5134 8.32938 41.4264 8.28671C41.4426 8.07132 41.4602 7.83798 41.4958 7.606C41.5929 7.0357 41.7196 6.79253 41.7633 6.45286C41.7755 6.29132 42.0552 5.93334 42.1378 5.79517C42.3044 5.50087 42.4436 5.33086 42.7457 5.15508C43.1416 4.93223 44.1436 4.80926 43.9516 4.72257C43.6201 4.5712 44.2249 4.68904 44.1308 4.50142C44.0353 4.33176 43.4734 4.36158 42.9502 4.35821C42.8246 4.34873 43.4883 4.16414 43.8266 4.22576C44.4315 4.3436 43.807 4.00767 43.5378 3.98736C43.3031 3.9877 43.085 4.00735 42.897 3.86682ZM36.3776 7.256C36.3613 7.47138 36.3688 7.85102 36.296 8.09825L36.2601 8.09554C36.1192 8.04881 36.1957 7.51305 36.3237 7.25193L36.3776 7.256Z" fill="white"/>
</svg>
