<svg width="46" height="46" viewBox="0 0 46 46" fill="none" xmlns="http://www.w3.org/2000/svg">
<g clip-path="url(#clip0_9873_103699)">
<path d="M25.1066 15.857C24.8321 15.8412 24.5948 16.0528 24.5765 16.3295C24.5583 16.6062 24.7661 16.8433 25.0407 16.8591L25.1066 15.857ZM33.5449 16.8448L34.0422 16.8692C34.0581 16.594 33.8508 16.3594 33.5779 16.3438L33.5449 16.8448ZM32.5609 25.2917C32.5449 25.5686 32.7547 25.8039 33.0294 25.8173C33.304 25.8308 33.5396 25.6173 33.5555 25.3405L32.5609 25.2917ZM8.01629 23.5187C7.83333 23.3134 7.51844 23.298 7.31297 23.4842C7.1075 23.6704 7.08925 23.9878 7.27222 24.1931L8.01629 23.5187ZM24.5869 24.8294L24.915 25.2038L24.5869 24.8294ZM25.0407 16.8591L33.512 17.3458L33.5779 16.3438L25.1066 15.857L25.0407 16.8591ZM33.0476 16.8204L32.5609 25.2917L33.5555 25.3405L34.0422 16.8692L33.0476 16.8204ZM7.27222 24.1931C9.47676 26.6664 12.5732 28.1625 15.881 28.3526L15.9469 27.3505C12.8999 27.1754 10.047 25.797 8.01629 23.5187L7.27222 24.1931ZM15.881 28.3526C19.1889 28.5426 22.4389 27.4109 24.915 25.2038L24.2587 24.4549C21.9832 26.4831 18.9937 27.5256 15.9469 27.3505L15.881 28.3526ZM24.915 25.2038L33.8731 17.2193L33.2168 16.4703L24.2587 24.4549L24.915 25.2038Z" fill="white"/>
</g>
<defs>
<clipPath id="clip0_9873_103699">
<rect width="32" height="32" fill="white" transform="translate(0 21.2922) rotate(-41.7115)"/>
</clipPath>
</defs>
</svg>
