<svg xmlns="http://www.w3.org/2000/svg" width="56" height="56" fill="currentColor" viewBox="0 0 56 56">
  <path fill-rule="evenodd" d="M11.25 18.4c0-1.758 1.456-3.15 3.211-3.15h27.077c1.756 0 3.212 1.392 3.212 3.15v19.2c0 1.758-1.456 3.15-3.212 3.15H14.462c-1.756 0-3.212-1.392-3.212-3.15V18.4Zm1.5 15.916V37.6c0 .893.748 1.65 1.711 1.65h27.077c.964 0 1.712-.757 1.712-1.65v-3.284l-4.547-4.433a3.01 3.01 0 0 0-4.175 0L32.767 31.6l1.91 1.863a.75.75 0 1 1-1.047 1.074l-2.459-2.398a.149.149 0 0 1-.004-.004l-6.003-5.852a3.01 3.01 0 0 0-4.174 0l-8.24 8.033Zm18.942-3.764-5.48-5.343c-1.734-1.69-4.536-1.69-6.27 0L12.75 32.22V18.4c0-.893.748-1.65 1.711-1.65h27.077c.964 0 1.712.756 1.712 1.65v13.821l-3.5-3.412c-1.733-1.69-4.536-1.69-6.269 0l-1.789 1.743ZM30.327 22c0-.763.63-1.35 1.365-1.35.736 0 1.366.587 1.366 1.35 0 .763-.63 1.35-1.366 1.35A1.358 1.358 0 0 1 30.327 22Z" clip-rule="evenodd"/>
</svg>
