<svg xmlns="http://www.w3.org/2000/svg" width="342" height="24" fill="currentColor" viewBox="0 0 342 24">
  <path d="M7.536 6.264a.9.9 0 0 0-1.272 1.272L10.727 12l-4.463 4.464a.9.9 0 0 0 1.272 1.272L12 13.273l4.464 4.463a.9.9 0 1 0 1.272-1.272L13.273 12l4.463-4.464a.9.9 0 1 0-1.272-1.272L12 10.727 7.536 6.264Z"/>
  <path fill-rule="evenodd" d="M337.916 4.626a.75.75 0 0 1 .208 1.04l-9 13.5a.75.75 0 0 1-1.154.114l-6-6a.75.75 0 1 1 1.06-1.06l5.353 5.353 8.493-12.739a.75.75 0 0 1 1.04-.208Z" clip-rule="evenodd"/>
</svg>
