<svg xmlns="http://www.w3.org/2000/svg" width="56" height="56" fill="currentColor" viewBox="0 0 56 56">
  <path fill-rule="evenodd" d="M32.455 16a1 1 0 0 1 1-1H40a1 1 0 0 1 1 1v6.546a1 1 0 0 1-2 0v-4.132l-5.93 5.93a1 1 0 0 1-1.413-1.415L37.586 17h-4.131a1 1 0 0 1-1-1ZM15 16a1 1 0 0 1 1-1h6.546a1 1 0 0 1 0 2h-4.132l5.93 5.93a1 1 0 0 1-1.415 1.413L17 18.414v4.131a1 1 0 0 1-2 0V16Zm9.343 15.657a1 1 0 0 1 0 1.414L18.414 39h4.131a1 1 0 0 1 0 2H16a1 1 0 0 1-1-1v-6.545a1 1 0 0 1 2 0v4.13l5.93-5.928a1 1 0 0 1 1.413 0Zm7.314 0a1 1 0 0 1 1.414 0L39 37.586v-4.131a1 1 0 0 1 2 0V40a1 1 0 0 1-1 1h-6.545a1 1 0 0 1 0-2h4.13l-5.928-5.93a1 1 0 0 1 0-1.413Z" clip-rule="evenodd"/>
</svg>
