<svg xmlns="http://www.w3.org/2000/svg" width="241" height="96" fill="currentColor" viewBox="0 0 241 96">
  <path d="M60 19.904h32v56H60v-56Zm6.68 62.442c0 .47.125.83.374 1.084.253.249.605.373 1.056.373.242 0 .455-.038.638-.115a1.43 1.43 0 0 0 .473-.308 1.33 1.33 0 0 0 .291-.456c.066-.177.1-.364.1-.562 0-.23-.037-.436-.11-.615a1.271 1.271 0 0 0-.765-.76 1.613 1.613 0 0 0-.589-.104c-.223 0-.425.037-.605.11a1.345 1.345 0 0 0-.759.77c-.07.176-.104.37-.104.583Zm2.03 2.459.203-.259c.062-.084.12-.169.176-.253-.19.136-.403.24-.638.313-.235.07-.484.105-.748.105-.286 0-.561-.048-.825-.143a2.117 2.117 0 0 1-.704-.434 2.187 2.187 0 0 1-.495-.716 2.508 2.508 0 0 1-.182-.984 2.449 2.449 0 0 1 .743-1.787c.235-.232.515-.413.841-.545a2.865 2.865 0 0 1 1.084-.198c.392 0 .748.064 1.067.193.319.124.59.302.814.533.224.227.396.5.517.82.12.315.181.663.181 1.044 0 .239-.022.464-.066.677-.04.213-.1.42-.181.621a4.127 4.127 0 0 1-.286.589 7.96 7.96 0 0 1-.374.583l-1.865 2.673a.593.593 0 0 1-.247.198.825.825 0 0 1-.363.077h-1.084l2.431-3.108ZM72 87.23c0-.106.018-.205.054-.297a.821.821 0 0 1 .16-.248.769.769 0 0 1 .841-.165.77.77 0 0 1 .248 1.255.702.702 0 0 1-.248.159.769.769 0 0 1-.841-.16.84.84 0 0 1-.16-.242.807.807 0 0 1-.055-.302Zm0-4.01c0-.106.018-.205.054-.296a.821.821 0 0 1 .16-.248.769.769 0 0 1 .841-.165.77.77 0 0 1 .248 1.254.77.77 0 0 1-.248.165.835.835 0 0 1-.6 0 .786.786 0 0 1-.241-.165.84.84 0 0 1-.16-.242.807.807 0 0 1-.055-.302Zm7.808 3.796v.896h-4.317v-.897h1.65v-4.96a9 9 0 0 1 .016-.54l-1.27 1.073a.448.448 0 0 1-.17.088.39.39 0 0 1-.16 0 .516.516 0 0 1-.132-.05.384.384 0 0 1-.088-.082l-.369-.517 2.387-2.052h.963v7.04h1.49Zm3.912.005c.238 0 .456-.038.654-.115a1.52 1.52 0 0 0 .506-.33 1.43 1.43 0 0 0 .33-.495c.077-.191.116-.398.116-.622 0-.242-.039-.458-.116-.649a1.29 1.29 0 0 0-.319-.49 1.353 1.353 0 0 0-.495-.302 1.75 1.75 0 0 0-.632-.11c-.239 0-.455.04-.65.121a1.457 1.457 0 0 0-.803.82 1.62 1.62 0 0 0-.11.594c0 .234.034.449.1.643s.163.361.291.5c.129.136.286.243.473.32.19.076.409.115.655.115Zm-.435-4.114c-.058.073-.115.143-.17.209l-.154.198a2.418 2.418 0 0 1 1.204-.308c.308 0 .603.051.886.154a2.14 2.14 0 0 1 1.26 1.194c.127.293.192.632.192 1.017a2.6 2.6 0 0 1-.204 1.029 2.504 2.504 0 0 1-.56.835 2.714 2.714 0 0 1-.875.561 2.98 2.98 0 0 1-1.122.204c-.411 0-.781-.066-1.111-.198a2.449 2.449 0 0 1-.847-.556 2.493 2.493 0 0 1-.534-.868 3.234 3.234 0 0 1-.187-1.128c0-.36.077-.735.231-1.127.154-.393.392-.805.715-1.238l1.947-2.613a.71.71 0 0 1 .253-.198.86.86 0 0 1 .38-.082h1.045l-2.349 2.915ZM167 19.904h32v56h-32v-56Zm6.68 62.442c0 .47.125.83.374 1.084.253.249.605.373 1.056.373.242 0 .455-.038.638-.115a1.43 1.43 0 0 0 .473-.308c.128-.132.225-.284.291-.456.066-.177.099-.364.099-.562 0-.23-.036-.436-.11-.615a1.263 1.263 0 0 0-.302-.468 1.251 1.251 0 0 0-.462-.291 1.616 1.616 0 0 0-.589-.105c-.223 0-.425.037-.605.11a1.356 1.356 0 0 0-.759.77c-.069.176-.104.37-.104.583Zm2.029 2.459a5.51 5.51 0 0 0 .38-.511c-.191.135-.403.24-.638.312-.235.07-.484.105-.748.105-.286 0-.561-.048-.825-.143a2.113 2.113 0 0 1-.704-.434 2.196 2.196 0 0 1-.495-.716 2.508 2.508 0 0 1-.182-.984 2.443 2.443 0 0 1 .743-1.787c.235-.232.515-.413.841-.545a2.87 2.87 0 0 1 1.084-.198c.392 0 .748.064 1.067.193.319.124.59.302.814.533.224.227.396.5.517.82.121.315.181.663.181 1.044 0 .239-.022.464-.066.677-.04.213-.1.42-.181.621a4.095 4.095 0 0 1-.286.589 7.96 7.96 0 0 1-.374.583l-1.865 2.673a.591.591 0 0 1-.247.198.823.823 0 0 1-.363.077h-1.084l2.431-3.108Zm3.29 2.425c0-.106.019-.205.055-.297a.836.836 0 0 1 .16-.248.767.767 0 0 1 .841-.165.768.768 0 0 1 .248 1.255.7.7 0 0 1-.248.159.767.767 0 0 1-.599 0 .704.704 0 0 1-.242-.16.857.857 0 0 1-.16-.242.821.821 0 0 1-.055-.302Zm0-4.01a.8.8 0 0 1 .055-.296.836.836 0 0 1 .16-.248.767.767 0 0 1 .841-.165.768.768 0 0 1 0 1.419.832.832 0 0 1-.599 0 .775.775 0 0 1-.242-.165.857.857 0 0 1-.16-.242.821.821 0 0 1-.055-.302Zm7.809 3.796v.896h-4.317v-.897h1.65v-4.96c0-.177.005-.356.016-.54l-1.27 1.073a.447.447 0 0 1-.171.088.387.387 0 0 1-.159 0 .508.508 0 0 1-.132-.05.378.378 0 0 1-.088-.082l-.369-.517 2.387-2.052h.963v7.04h1.49Zm3.912.005c.238 0 .456-.038.654-.115a1.52 1.52 0 0 0 .506-.33 1.43 1.43 0 0 0 .33-.495c.077-.191.116-.398.116-.622 0-.242-.039-.458-.116-.649a1.29 1.29 0 0 0-.319-.49 1.36 1.36 0 0 0-.495-.302 1.748 1.748 0 0 0-.632-.11c-.239 0-.455.04-.649.121a1.443 1.443 0 0 0-.803.82c-.074.187-.11.385-.11.594 0 .234.033.449.099.643s.163.361.291.5c.128.136.286.243.473.32.191.076.409.115.655.115Zm-.435-4.114c-.059.073-.115.143-.17.209l-.154.198a2.395 2.395 0 0 1 1.204-.308c.308 0 .603.051.886.154a2.141 2.141 0 0 1 1.259 1.194c.128.293.193.632.193 1.017 0 .367-.068.71-.204 1.029a2.504 2.504 0 0 1-.561.835 2.712 2.712 0 0 1-.874.561 2.986 2.986 0 0 1-1.122.204c-.411 0-.781-.066-1.111-.198a2.442 2.442 0 0 1-.847-.556 2.499 2.499 0 0 1-.534-.868 3.225 3.225 0 0 1-.187-1.128c0-.36.077-.735.231-1.127.154-.393.392-.805.715-1.238l1.947-2.613a.712.712 0 0 1 .253-.198.861.861 0 0 1 .38-.082h1.045l-2.349 2.915Z"/>
  <rect width="240" height="95" x=".5" y=".5" rx="4.5"/>
</svg>
