<svg width="24" height="24" viewBox="0 0 24 24" fill="none" xmlns="http://www.w3.org/2000/svg">
<path d="M 18.5238 17.9654 L 18.5542 17.8639 C 18.5657 17.8362 18.5743 17.8072 18.5797 17.7776 C 18.5939 17.7127 18.6008 17.6464 18.5999 17.5799 V 13.5217 C 18.5999 13.2527 18.493 12.9946 18.3026 12.8044 C 18.1121 12.6141 17.8539 12.5072 17.5846 12.5072 C 17.3153 12.5072 17.057 12.6141 16.8666 12.8044 C 16.6761 12.9946 16.5692 13.2527 16.5692 13.5217 V 15.1298 L 8.8675 7.4347 H 10.4769 C 10.7462 7.4347 11.0045 7.3278 11.1949 7.1375 C 11.3853 6.9473 11.4922 6.6892 11.4922 6.4201 C 11.4922 6.1511 11.3853 5.893 11.1949 5.7028 C 11.0045 5.5125 10.7462 5.4056 10.4769 5.4056 H 6.4154 C 6.3496 5.3981 6.2832 5.3981 6.2174 5.4056 H 6.1311 L 6.0295 5.4361 L 5.9077 5.5375 C 5.8804 5.547 5.8547 5.5607 5.8315 5.5781 C 5.7192 5.6496 5.6239 5.7449 5.5523 5.8571 C 5.5436 5.8749 5.5368 5.8936 5.532 5.9129 C 5.5104 5.945 5.4917 5.9789 5.4762 6.0143 L 5.4457 6.1158 C 5.4428 6.1445 5.4428 6.1734 5.4457 6.202 C 5.4212 6.2725 5.4058 6.3458 5.4 6.4201 V 10.4783 C 5.4 10.7473 5.507 11.0054 5.6974 11.1956 C 5.8878 11.3859 6.1461 11.4928 6.4154 11.4928 C 6.6847 11.4928 6.9429 11.3859 7.1334 11.1956 C 7.3238 11.0054 7.4308 10.7473 7.4308 10.4783 V 8.8702 L 15.1324 16.5653 H 13.5231 C 13.2538 16.5653 12.9955 16.6722 12.8051 16.8624 C 12.6147 17.0527 12.5076 17.3108 12.5076 17.5799 C 12.5076 17.8489 12.6147 18.107 12.8051 18.2973 C 12.9955 18.4875 13.2538 18.5944 13.5231 18.5944 H 17.5846 C 17.6504 18.6019 17.7168 18.6019 17.7826 18.5944 L 17.8688 18.569 L 17.9704 18.5386 L 18.0719 18.4827 C 18.0993 18.4733 18.125 18.4596 18.1481 18.4422 C 18.2604 18.3706 18.3557 18.2754 18.4273 18.1632 C 18.4447 18.1401 18.4584 18.1145 18.4679 18.0871 C 18.4907 18.0486 18.5095 18.0078 18.5238 17.9654 Z" fill="currentColor"/>
</svg>
