<?xml version="1.0" encoding="utf-8"?>
<!-- Generator: Adobe Illustrator 26.5.0, SVG Export Plug-In . SVG Version: 6.00 Build 0)  -->
<svg version="1.1" id="圖層_1" xmlns="http://www.w3.org/2000/svg" xmlns:xlink="http://www.w3.org/1999/xlink" x="0px" y="0px"
	 viewBox="0 0 578.46 546.61" style="enable-background:new 0 0 578.46 546.61;" xml:space="preserve">
<style type="text/css">
	.st0{fill:#FFFFFF;}
	.st1{fill:#93BAA6;}
	.st2{fill:#DBC8E8;}
	.st3{fill:#F9F6C2;}
	.st4{fill:#CAEAE9;}
	.st5{fill:#D0ECEB;}
	.st6{fill:#D5EEED;}
</style>
<path class="st4" d="M577.9,254.22c-1.3-14.74-3.81-34.13-11.7-53.42l-0.3-0.74c-3.99-9.75-8.51-20.8-15.9-32.02
	c-3.64-5.52-7.45-10.48-11.09-14.99c-1-4.81-2.14-10.25-4.03-16.28c-3.15-10.03-7.19-19.05-10.44-26.31
	c-2.4-5.36-5.16-10.64-8.2-15.69c-15.47-25.74-36.65-47.56-62.96-64.84c-14.89-9.78-30.64-16.02-41.19-19.86
	c-16.61-6.04-33.06-8.19-46.96-9.49c-17.28-1.62-33.06,0.44-47.74,2.68c-11.62,1.78-23.22,4.99-34.5,9.54
	c-12.3,4.96-26.36,11.01-40.25,20.59c-0.77-0.06-1.54-0.12-2.32-0.18c-8.3-0.6-16.9-0.37-25.58,0.69l-1.18,0.14
	c-10.21,1.24-21.79,2.65-34.31,6.76c-11.99,3.94-23.02,8.73-32.79,14.24c-10.86,6.13-20.22,13.63-27.94,20.15
	c-6.09,5.14-11.73,10.91-16.79,17.15c-5.83,7.21-13.09,16.17-19.22,27.07c-2.71,4.83-5.25,9.93-7.59,15.27
	c-5.93,4.45-11.56,9.32-16.85,14.56c-13.24,13.12-25.04,29.02-35.05,47.26c-13.8,25.14-21.5,51.7-22.88,78.96
	c-0.29,5.67-0.13,11.44,0.46,17.17c0.79,7.65,1.78,17.17,4.4,27.18c2.59,9.9,6.46,18.5,9.58,25.42l0.25,0.56
	c2.51,5.57,5.2,10.48,8.22,15.01c6.68,10.01,13.5,18.26,21,25.35c0.48,3.43,1.02,6.77,1.55,10.01c2.78,16.83,8.88,31.05,13.79,42.48
	c4.54,10.58,10.25,20.53,16.97,29.58c8.12,10.93,17.06,22.46,29.17,32.79c9.35,7.97,22.02,18.07,37.17,25.57
	c16.03,7.95,29.79,12.93,43.3,15.67c14.41,2.92,27.36,4.36,39.41,4.36c1.84,0,3.67-0.03,5.47-0.1c9.42-0.35,18.08-1.64,25.73-2.77
	l1.84-0.27c5.79-0.85,11.58-2.07,17.22-3.62c10.37-2.84,20.73-6.69,30.59-11.34c5.78,1.93,11.45,3.59,17.06,5.02
	c14.04,3.57,29.19,5.93,45.02,7.02c16.76,1.15,31.77-0.96,43.84-2.65c11.66-1.63,22.74-4.49,32.95-8.51
	c13.28-5.22,27.39-11.18,41.16-21.58l1.94-1.46c5.9-4.43,13.25-9.95,20.2-17.19c7.13-7.42,12.91-15.27,17.63-21.96
	c3.44-4.88,6.53-10.09,9.16-15.48c4.6-9.41,8.09-17.93,10.67-26.05c3.47-10.93,4.69-21.26,5.67-29.56l0.23-1.9
	c0.85-7.09,1.01-14.06,0.5-20.71c-0.22-2.88-0.49-5.92-0.85-9.07c0.96-1.55,1.91-3.15,2.84-4.8c6.15-10.94,10.52-22.01,13.63-30.44
	c2.46-6.66,4.45-13.61,5.9-20.63C578.01,288.35,579.34,270.58,577.9,254.22z"/>
</svg>
