<?xml version="1.0" encoding="utf-8"?>
<!-- Generator: Adobe Illustrator 26.1.0, SVG Export Plug-In . SVG Version: 6.00 Build 0)  -->
<svg version="1.1" id="圖層_1" xmlns="http://www.w3.org/2000/svg" xmlns:xlink="http://www.w3.org/1999/xlink" x="0px" y="0px"
	 viewBox="0 0 300.75 400.61" style="enable-background:new 0 0 300.75 400.61;" xml:space="preserve">
<style type="text/css">
	.st0{fill:#F3A243;}
	.st1{opacity:0.42;}
	.st2{fill:#7C551D;}
	.st3{fill:#FAEAD6;}
	.st4{fill:#161E3F;}
	.st5{fill:#535A80;}
	.st6{fill:#162550;}
	.st7{fill:#7A7FA2;}
	.st8{fill:#FFFFFF;}
	.st9{fill:#515677;}
	.st10{opacity:0.25;}
	.st11{fill:#4C6296;}
	.st12{fill:#FFBE2E;}
	.st13{fill:#8E570E;}
	.st14{fill:#363C4F;}
	.st15{fill:#C6C9D0;}
	.st16{fill:#E6E7EB;}
	.st17{fill:#31466A;}
	.st18{fill:#5266A0;}
	.st19{fill:#F4C144;}
	.st20{fill:#6C84C0;}
	.st21{fill:#F09EC0;}
	.st22{opacity:0.51;}
	.st23{fill:#DE679C;}
	.st24{fill:none;stroke:#161E3F;stroke-width:4;stroke-miterlimit:10;}
	.st25{fill:#F9D8E7;}
</style>
<g>
	<g>
		<path class="st18" d="M138.48,31.44c-27.16,2.99-52.7,16.66-69.28,40.18c-12.62,17.9-19.22,39.68-22.02,61.6
			c-2.6,20.34-3.53,40.89-6.89,61.13c-3.95,23.83-14.61,46.34-19.35,69.99c-5.19,25.9-5.2,53.48,2.74,78.83
			c9.2,29.37,45.67,48.01,74.72,48.01c16.88,0,34.4-5.44,51.69-6.26c17.76-0.83,33.46,6.26,51.02,6.26
			c29.36,0,56.48-16.27,71.82-41.05c19.47-31.45,13.47-59.74,4.93-93.07c-4.29-16.74-7.71-33.79-10.97-50.79
			c-0.01-0.05-0.02-0.1-0.03-0.16c-6.2-32.43-8.38-65.82-18.21-97.4c-11.16-35.88-37.49-73.65-73.52-73.65"/>
	</g>
	<g>
		<path class="st8" d="M247.09,229.66c-8.95-29.78-16.62-59.98-21.23-90.75c-3.49-23.29,0.54-68.4-34.69-68.4
			c-18.24,0-33.03,18.74-33.03,41.86c0,1.33,0.05,2.65,0.15,3.95c-0.99-0.17-1.98-0.34-2.98-0.5c-4.41-0.7-8.96-1.26-13.46-1.33
			c0.03-0.7,0.04-1.41,0.04-2.12c0-23.12-14.6-41.86-32.61-41.86c-38.7,0-32.25,53.19-32.97,77.52
			c-1.18,39.8-10.27,79.38-26.77,115.63c-6.06,13.32-11.68,29.78-11.68,44.55c0,27.71,18.48,53.72,45.69,60.7
			c15.9,4.08,31.74,0.72,47.76-0.63c19.97-1.68,38.18-0.01,57.8,3.22c16.17,2.66,36.4-1.33,50.18-10.35
			c17.67-11.56,28.14-31.93,28.14-52.94c0-22.22-8.94-42-15.54-62.97C250.25,240.06,248.65,234.87,247.09,229.66z"/>
	</g>
	<g>
		<path class="st19" d="M149.17,121.05c3.93,0.25,9.01,1.53,12.03,6c3.78,5.59-0.48,15.81-4.4,18.87c-2.7,2.11-5.63,2.67-8.43,2.19
			c-4.33-0.74-9.5-6.12-10.85-13.83C135.22,121.09,144.32,120.74,149.17,121.05z"/>
	</g>
	<g class="st1">
		<path class="st13" d="M149.85,121.05c3.93,0.25,9.01,1.53,12.03,6c3.78,5.59-0.48,15.81-4.4,18.87c-2.7,2.11-5.63,2.67-8.43,2.19
			c-4.33-0.74-9.5-6.12-10.85-13.83C135.9,121.09,145.01,120.74,149.85,121.05z"/>
	</g>
	<g>
		<path class="st4" d="M149.18,120.82c15.91,0.35,19.89,11.08,10.41,23.13c-10.62,13.2-25,0.96-24.78-12.85
			C134.86,121.91,141.27,119.86,149.18,120.82L149.18,120.82z M149.15,121.28c-3.12-0.24-7.1,0.68-8.65,3.48
			c-1.4,2.6-1.09,5.6-0.63,8.51c0.5,3.07,1.49,6.06,3.22,8.62c3.58,5.82,11.12,7.48,15.27,1.2
			C163.34,134.37,160.55,122.03,149.15,121.28L149.15,121.28z"/>
	</g>
	<g class="st1">
		<path class="st6" d="M273.37,350.4c-1.17,1.91-2.41,3.72-3.83,5.31c-5.93,6.6-11.5,13.17-18.66,18.55
			c-14.29,10.73-31.86,16.93-49.78,16.93c-17.55,0-33.25-7.09-51.02-6.26c-17.29,0.81-34.81,6.26-51.69,6.26
			c-29.06,0-65.53-18.64-74.72-48.01c17.33,8.54,35.41,13.75,54.68,15.13c16.57,1.19,33.03-2.2,49.29-4.95
			c29.22-4.95,56.96,7.3,85.72,5.37c26.33-1.76,50.25-5.06,70.34-24.24C279.4,338.59,276.71,344.91,273.37,350.4z"/>
	</g>
	<g class="st10">
		<path class="st11" d="M131.31,368.28c19.97-1.68,38.18-0.01,57.8,3.22c16.17,2.66,36.4-1.33,50.18-10.35
			c3.3-2.16,6.34-4.62,9.12-7.34c-11.06,2.93-22.79,4.08-35.05,4.91c-28.77,1.93-56.5-10.32-85.72-5.37
			c-16.25,2.75-32.72,6.14-49.29,4.95c-6.65-0.48-13.16-1.42-19.54-2.79c6.93,6.27,15.31,10.98,24.74,13.4
			C99.45,372.99,115.29,369.63,131.31,368.28z"/>
	</g>
	<g>
		<path class="st20" d="M47.4,139.66c1.96-25.98,10.06-52.75,27.73-72.55c17.89-19.92,43.8-32.2,70.49-34.02
			c60.1-2.91,100.48,35.97,107.49,94.42C241.36,72.34,204.15,36.21,146,39.19c-25.16,1.76-49.72,13.05-67.24,31.27
			C60.87,89.22,52.05,114.48,47.4,139.66L47.4,139.66z"/>
	</g>
	<g>
		<path class="st4" d="M138.51,31.74c-44.2,6.25-74.44,37.02-84.71,79.76c-5.19,20.26-5.74,41.2-8.02,61.96
			c-1.1,10.47-2.36,20.99-4.85,31.42c-2.44,10.38-5.93,20.36-9.21,30.3c-8.77,24.52-14.17,50.25-12.46,76.35
			c0.6,10.37,2.3,20.7,5.28,30.66c1.62,4.86,3.55,9.68,6.55,13.89c11.61,17.32,31.31,27.93,51.37,32.26
			c20.84,4.79,41.24-2.4,62.01-4.69c15.84-2.32,31.62,2.64,47.16,4.59c5.06,0.61,10.16,0.67,15.23,0.27
			c40.93-3.08,75.68-40.4,75.76-81.43c0.34-20.73-6.15-40.77-10.82-60.97c-2.35-10.28-4.43-20.6-6.41-30.92
			c-10.48-50.44-9.02-106.16-39.3-149.98c-12.06-16.98-30.58-28.92-51.29-32.16c0,0,0.09-0.61,0.09-0.61s7.8,1.31,7.8,1.31
			c42.24,8.97,61.95,48.91,71.88,87.3c5.29,20.52,8.1,41.45,11.43,62.1c3.31,20.61,7.46,41.15,12.2,61.47
			c7.58,30.68,17.84,63.63,3.97,94.31c-6.47,14.9-16.8,28.14-29.9,37.78c-17.37,12.87-39.74,19.11-61.22,16.11
			c-15.5-2.28-30.46-7.65-46.26-5.8c-20.67,1.89-41.93,8.43-62.77,3.46c-20.51-4.62-40.53-15.69-52.58-33.27
			c-6.18-8.74-8.79-19.38-10.92-29.73c-1.06-5.19-1.75-10.44-2.23-15.71c-2.5-26.41,2.25-53.16,10.55-78.15
			c3.16-10.01,6.37-19.94,8.75-29.99c2.37-10.07,3.58-20.42,4.77-30.73c3.25-31.27,4.56-64.26,20.8-92.2
			c12.86-23.44,35.71-40.84,61.68-47.04c5.14-1.24,10.36-2.05,15.6-2.53C138.44,31.13,138.51,31.74,138.51,31.74L138.51,31.74z"/>
	</g>
	<g>
		<path class="st21" d="M204.52,150.83c-20.97,0-40.1,7.97-54.66,21.07c-14.56-13.1-33.69-21.07-54.66-21.07
			c-45.57,0-82.52,37.56-82.52,83.89c0,0,1.11,106.04,138.47,146.43c0,0,131.28-41.24,135.87-146.43
			C289.05,188.43,250.09,150.83,204.52,150.83z"/>
	</g>
	<g class="st22">
		<path class="st23" d="M287.04,234.72c-4.59,105.19-135.87,146.43-135.87,146.43c-47.22-13.88-78.34-35.52-98.85-57.95
			c0,0,121.02,34.16,211-57.21L287.04,234.72z"/>
	</g>
	<g>
		<path class="st19" d="M53.25,343.8c11.14-3.78,8.67,28.66,7.32,33.06c-2.15,6.98-7.39,16.06-14.62,18.9
			c-17.53,6.88-32.52-14.67-37.73-27.9c-2.09-5.3-4.01-19.25,7.02-13.41c1.76,0.93,3.68,3.55,5.57,3.97
			c3.11,0.68,3.02-3.05,3.48-5.09c0.88-3.9,2.42-10.05,7.69-7.51c3.48,1.68,5.02,5.78,8.21,7.86c3.01,1.96,5.77,1.7,7.1-1.96
			C48.42,348.58,49.86,344.96,53.25,343.8z"/>
	</g>
	<g>
		<path class="st19" d="M245.98,344.24c-11.14-3.78-8.67,28.66-7.32,33.06c2.15,6.98,7.39,16.06,14.62,18.9
			c17.53,6.88,32.52-14.67,37.73-27.9c2.09-5.3,4.01-19.25-7.02-13.41c-1.76,0.93-3.68,3.55-5.57,3.97
			c-3.11,0.68-3.02-3.05-3.48-5.09c-0.88-3.9-2.42-10.05-7.69-7.51c-3.48,1.68-5.02,5.78-8.21,7.86c-3.01,1.96-5.77,1.7-7.1-1.96
			C250.8,349.02,249.37,345.39,245.98,344.24z"/>
	</g>
	<g>
		<path class="st4" d="M149.78,120.03c2.05-0.03,4.74,0.6,6.49,3.52c2.19,3.65,0.4,10.87-1.5,13.17c-1.31,1.58-2.81,2.11-4.29,1.92
			c-2.28-0.29-5.19-3.73-6.2-8.95C142.54,120.75,147.25,120.06,149.78,120.03z"/>
	</g>
	<g>
		<path class="st4" d="M195.78,116.79c-2.72-4.5-7-10.92-12.03-5.95c-1.37,1.37-2.59,3.38-3.85,5.82
			c-3.15-5.56,0.87-14.02,7.82-13.73C194.53,102.79,198.35,111.2,195.78,116.79L195.78,116.79z"/>
	</g>
	<g>
		<path class="st4" d="M119.51,116.79c-2.72-4.5-7-10.92-12.03-5.95c-1.37,1.37-2.59,3.38-3.85,5.82
			c-3.15-5.56,0.87-14.02,7.82-13.73C118.26,102.79,122.08,111.2,119.51,116.79L119.51,116.79z"/>
	</g>
	<g>
		<path class="st18" d="M138.56,34.06c-0.4-6.8,0.28-17.15,4.46-23.32c2.31-3.4,5.83-7.46,10.44-7.97c1.82-0.2,3.65,0.04,5.09,0.99
			c3.31,2.19,3.59,6.79,3.36,10.28c-0.12,1.88-0.31,3.72-0.7,5.59c-0.54,2.64-1.74,7.68-4.34,14.42c0.11-0.39,0.24-0.78,0.38-1.17
			c0.62-1.76,1.32-3.5,2.07-5.22c0.82-1.88,1.75-3.74,3.15-5.37c0.7-0.82,1.44-1.61,2.4-2.21c1.75-1.1,3.77-1.64,5.82-1.52
			c5.09,0.29,7.59,4.11,6.9,8.23c-0.72,4.29-0.48,4.85-2.87,8.71c0,0-19.44-4.99-36.28-0.86"/>
	</g>
	<g>
		
			<ellipse transform="matrix(0.963 -0.2697 0.2697 0.963 -8.2442 36.2102)" class="st20" cx="127.68" cy="48.11" rx="14.09" ry="8.12"/>
	</g>
	<g>
		
			<ellipse transform="matrix(0.7937 -0.6083 0.6083 0.7937 -97.6251 68.5902)" class="st25" cx="52.32" cy="178.24" rx="14.09" ry="8.12"/>
	</g>
	<g>
		<path class="st20" d="M158.09,37.45c0.65-5.21,2.52-10.17,6.2-14.11c3.68-3.93,8.79-3.02,11.05,1.8c0.59,1.18,0.99,2.41,1.27,3.68
			c-2.26-2.41-4.39-5.95-7.7-5.01C163.89,26.53,161.49,32.88,158.09,37.45L158.09,37.45z"/>
	</g>
	<g>
		<path class="st20" d="M139.12,35.5c-0.05-8.62,2.44-25.99,10.51-30.69c2.08-1.38,5.73-1.32,7.4,0.74
			c2.14,2.54,2.64,5.65,2.98,8.74c-1.11-1.64-2.08-3.33-3.23-4.76c-6.33-8.33-11.08,11.12-13.05,15.31
			C142.29,28.39,140.87,31.94,139.12,35.5L139.12,35.5z"/>
	</g>
	<g>
		<path class="st4" d="M138.25,34.08c-1.47-9.29-1.02-19.84,5.08-27.54c4.18-6.36,14.87-9.84,19.59-2.1
			c4.38,8.3-1.13,20.49-4.28,28.53c-0.41,1.27-2.34,0.64-1.9-0.63c0.26-0.85,0.69-1.63,0.82-2.51c-0.09-2.91,0.82-5.65,2.49-8.26
			c1.14-1.8,2.59-3.59,4.56-4.59c6.82-4.03,16.13-0.12,15.97,8.29c0.04,4.21-2.2,8.17-5.59,10.4c-0.15,0.1-0.36,0.06-0.47-0.09
			c0.45-4.18,1.63-9.29-1.28-12.57c-1.91-1.9-5.61-1.66-7.78-0.08c-1.91,1.38-3.22,3.2-4.46,5.38c-1.45,1.11-1.89,2.88-2.34,4.56
			c0,0-1.9-0.63-1.9-0.63c1.54-4.15,2.14-8.92,2.48-13.3c0.29-3.56,0.56-8.99-1.08-11.66c-1.1-1.83-3.05-2.1-5.08-1.78
			c-3.34,0.57-6.9,4.25-8.94,7.24c-3.82,6.29-4.73,13.79-5.28,21.29C138.87,34.4,138.3,34.43,138.25,34.08L138.25,34.08z"/>
	</g>
	<g class="st1">
		<path class="st13" d="M61.04,371.98c-0.52,1.02,0.13,4.55-0.27,6.1c-0.63,2.44-2.03,4.98-3.28,7.15
			c-2.58,4.47-6.18,8.94-11.12,10.88c-9.52,3.74-18.68-1.33-25.25-8.15c-6.25-6.5-14.11-16.07-13.77-25.65
			c4.29,8.63,11.66,15.58,20.03,20.23c6.81,3.78,17,2.47,23.72-0.96C55.28,379.46,58.9,376.18,61.04,371.98z"/>
	</g>
	<g class="st1">
		<path class="st13" d="M283.7,380.75c-0.76,0.83-1.25,4.38-2.07,5.75c-1.28,2.16-3.25,4.2-4.99,5.93
			c-3.58,3.56-8.05,6.85-12.93,7.35c-9.4,0.97-15.85-6.37-19.51-14.67c-3.49-7.91-7.46-19.19-4.29-28.23
			c1.14,9.41,5.47,18.05,11.36,24.77c4.79,5.47,14.05,7,20.91,5.56C276.45,386.31,280.58,384.18,283.7,380.75z"/>
	</g>
	<g>
		<path class="st25" d="M150.25,173.51c-24.6-21-62.73-24.28-90.32-7.57c-27.31,16.02-43.69,49.43-37.83,80.77
			c10.03,59.71,57.18,103.68,111.82,125.22c5.06,2.01,12.07,4.7,17.24,6.44c-31.81-8.16-62.6-22.56-87.1-44.89
			c-27.62-25.12-47.22-60.76-49.31-98.46c-0.26-38.61,28.09-74.94,66.45-81.78C105.65,148.68,132.63,156.01,150.25,173.51
			L150.25,173.51z"/>
	</g>
	<g>
		<path class="st25" d="M269.08,182.58c-22.34-24.41-58.31-34.99-89.95-24.68c-10.4,3.35-20.22,8.66-28.88,15.61
			c7.86-7.85,17.51-14.06,28.1-17.89C210.22,143.71,248.96,155.17,269.08,182.58L269.08,182.58z"/>
	</g>
	<g>
		<path class="st4" d="M204.52,151.13c-19.9-0.04-39.59,7.78-53.98,21.51c-0.38,0.36-0.98,0.35-1.35,0
			c-12.59-10.82-28.49-17.74-45-19.14c-41.54-3.8-79.16,24.69-87.91,65.3c-0.38,2.24-0.92,5.4-1.27,7.63
			c-0.05,0.84-0.46,6.71-0.52,7.72c-0.08,4.04,0.48,8.28,1.06,12.32c6.67,44.13,35.47,82,73.05,105.08
			c12.41,7.68,25.84,14.05,39.45,19.27c0,0,11.84,4.2,11.84,4.2l12.01,3.68c0,0-1.49,0.01-1.49,0.01
			c37.91-13.83,74-35.4,100.85-65.86c18.4-21.15,30.79-47.44,32.83-75.53C289.16,191.55,250.14,150.85,204.52,151.13L204.52,151.13z
			 M204.52,150.52c49.23-0.13,90.95,42.35,84.66,92.62c-0.49,5.24-1.45,11.11-2.69,16.23c-0.57,3.07-1.98,7.58-2.96,10.58
			c-0.41,1.52-1.26,3.69-1.85,5.17c-20.85,54.32-76.71,90.22-129.8,108.47c-0.49,0.16-0.99,0.15-1.44,0l-12.13-4.01l-11.94-4.55
			C69.4,352.34,20.22,303.19,11.49,240.65c-0.88-4.31-0.36-10.17-0.28-14.59c0.27-2.33,0.76-5.69,1.06-8.03
			c1.36-7.24,3.68-14.95,6.9-21.61c0,0,1.36-2.96,1.36-2.96c0.8-1.42,2.45-4.24,3.27-5.64c7.42-11.97,18.13-22.12,30.39-29.07
			c10.5-5.63,22.32-9.34,34.24-10.01c22.66-1.73,45.67,6.9,62.11,22.41c0,0-1.35,0-1.35,0c3.83-3.3,7.95-6.24,12.29-8.79
			C174.42,154.65,189.47,150.46,204.52,150.52L204.52,150.52z"/>
	</g>
	<g>
		<path class="st4" d="M150.39,171.66c13.13-15.49,34.17-24.48,54.5-22.53c2.1,0.23,7.04,0.86,9.04,1.03
			c16.89,2.76,34.11,7.65,47.34,19.12c9.5,7.84,17.25,18.05,21.77,29.53c1.46,3.19,2.35,6.87,3.4,10.21
			c1.26,5.61,1.94,10.89,2.14,16.63c-0.04,3.01-0.29,6.07-0.52,9.05c-0.01,0.17-0.16,0.3-0.33,0.28c-0.16-0.01-0.27-0.13-0.28-0.28
			c-0.76-3.84-1.13-7.87-2.17-11.65c-0.86-4.26-2.32-8.46-3.63-12.57c-1.38-3-2.46-6.36-4.06-9.24
			c-4.96-10.02-12.03-19.96-20.18-27.61c-11.33-10.39-25.15-19.31-40.8-20.93c-7.73-0.96-15.65,0.02-23.2,1.57
			c-7.53,1.56-14.94,3.53-22.05,6.58c-7.15,2.94-13.88,6.88-20.57,11.25C150.53,172.33,150.15,171.91,150.39,171.66L150.39,171.66z"
			/>
	</g>
	<g>
		<path class="st18" d="M30.02,240.24c8.09,5.88,17.28,10.91,22.65,19.35c5.89,9.25,0.41,18.02-9.74,18.93
			c-11.13,1-21.88-2.02-29.71-10.4c-8.75-9.39-11.9-23.32-9.24-35.87c1.46-6.86,5.54-14.38,10.3-19.55
			C15.8,224.52,20.22,232.89,30.02,240.24z"/>
	</g>
	<g>
		<path class="st18" d="M270.73,240.24c-8.09,5.88-17.28,10.91-22.65,19.35c-5.89,9.25-0.41,18.02,9.74,18.93
			c11.13,1,21.88-2.02,29.71-10.4c8.75-9.39,11.9-23.32,9.24-35.87c-1.46-6.86-5.54-14.38-10.3-19.55
			C284.96,224.52,280.54,232.89,270.73,240.24z"/>
	</g>
	<g>
		<path class="st20" d="M48.01,277.24c-11.61,2.44-24.78-0.96-33.58-9.07C4,258.06,1.01,241.43,6.46,228.13
			c2.38-5.43,5.96-10.47,10.63-14.05c-3.91,6.35-6.87,13.34-7.54,20.67c-0.95,10.48,1.87,21.56,8.92,29.49
			C26.02,272.05,37.19,276.2,48.01,277.24L48.01,277.24z"/>
	</g>
	<g>
		<path class="st4" d="M30.21,240c10.4,7.9,32.38,15.17,26.6,32.18c-5.73,12-22.48,8.18-32.41,4.77
			c-5.94-2.39-11.42-6.21-15.6-11.32c-10.63-12.89-11.72-32.81-2.81-47c2.53-4.55,7.06-8.83,10.8-12.46
			C17.32,219.59,18.52,231.41,30.21,240L30.21,240z M29.84,240.49c-6.75-4.96-12.92-11.2-16.04-19.16
			c-1.11-2.67-1.85-5.47-2.39-8.27l5.01,1.6C5,228.3,2.58,247.92,11.83,263.46c6.06,10.83,19.16,15.9,31.13,13.27
			c2.77-0.58,5.31-1.8,6.97-3.64C59.29,262.45,37.94,246.08,29.84,240.49L29.84,240.49z"/>
	</g>
	<g>
		<path class="st20" d="M285.01,219.53c0.46,10.42-5.28,20.4-13.85,26.17c-7.44,5.48-16.94,9.91-21.19,18.34
			c-2.78,6.24,2.96,11.43,8.84,12.6c-3.44,0.19-7.03-0.73-9.65-3.2c-4.48-3.99-3.57-11.17-0.13-15.5
			c4.9-7.08,12.7-11.32,19.67-15.84C277.07,237.1,282.64,228.98,285.01,219.53L285.01,219.53z"/>
	</g>
	<g>
		<path class="st4" d="M270.91,240.49c-8.11,5.6-29.45,21.94-20.09,32.6c1.65,1.84,4.2,3.06,6.97,3.64
			c11.97,2.63,25.07-2.43,31.13-13.27c9.25-15.54,6.83-35.17-4.6-48.8c0,0,5.01-1.6,5.01-1.6c-0.54,2.8-1.28,5.6-2.39,8.27
			C283.83,229.3,277.66,235.53,270.91,240.49L270.91,240.49z M270.55,240c11.68-8.57,12.89-20.43,13.41-33.83
			c3.74,3.65,8.26,7.9,10.8,12.46c8.91,14.19,7.82,34.11-2.81,47c-4.17,5.11-9.65,8.94-15.6,11.32c-9.93,3.42-26.68,7.23-32.41-4.77
			C238.13,255.23,260.18,247.85,270.55,240L270.55,240z"/>
	</g>
	<g>
		<path class="st3" d="M14.61,354.55c0.67,0.24,1.33,0.56,1.93,0.95c1.88,1.21,3.05,2.84,4.73,4.26c-1.29-1.08-3.49-0.99-5.05-1.05
			c-1.96-0.08-3.61-0.68-4.25,1.67c-0.38,1.41-0.02,3.01-0.01,4.41c0.02,3.6,0.04,7.2,0.06,10.8c-2.31-1.78-3.68-4.59-4.15-7.46
			c-0.57-3.45-0.33-8.39,1.08-11.62C10.03,354,12.42,353.79,14.61,354.55z"/>
	</g>
	<g>
		<path class="st3" d="M248.99,345.37c0.56,0.45,1.06,0.98,1.49,1.54c1.36,1.77,1.91,3.7,3.02,5.61c-0.84-1.45-2.95-2.11-4.4-2.69
			c-1.81-0.74-3.17-1.86-4.57,0.14c-0.84,1.2-1.04,2.83-1.5,4.15c-1.2,3.39-2.39,6.79-3.59,10.18c-1.57-2.45-1.92-5.56-1.39-8.43
			c0.63-3.44,2.52-8.01,4.94-10.57C244.86,343.31,247.18,343.91,248.99,345.37z"/>
	</g>
	<g>
		<path class="st3" d="M32.4,347.1c0.67,0.24,1.33,0.56,1.93,0.95c1.88,1.21,3.05,2.84,4.73,4.26c-0.93-0.78-2.09-0.82-3.22-0.98
			c-0.81-0.12-2.06-0.73-2.81-0.6c-0.47,0.08-0.9,0.33-1.31,0.59c-3.28,2.09-1.3,5.31-3.16,8.2c-0.31,0.49-0.7,0.94-1.2,1.23
			c-0.75,0.44-1.68,0.45-2.52,0.24c-0.84-0.22-1.61-0.65-2.36-1.07c1.07-0.66,1.76-1.82,2.11-3.03c0.76-2.62,1.02-5.28,2.14-7.83
			C27.82,346.56,30.21,346.34,32.4,347.1z"/>
	</g>
	<g>
		<path class="st3" d="M271.81,348.54c0.5,0.51,0.94,1.1,1.31,1.7c0.67,1.12,0.57,2.39,1.18,3.43c-0.69-1.83-3.08-2.79-4.85-1.95
			c-0.5,0.24-0.94,0.6-1.38,0.95c-3.34,2.71-5.14,6.74-10.02,6.27c-1.79-0.17-3.58-1.05-4.52-2.58c2.15-0.58,4.93-1.02,6.72-2.3
			c2.2-1.57,3.5-4.52,5.61-6.3C267.94,346.01,270.18,346.88,271.81,348.54z"/>
	</g>
	<g>
		<path class="st3" d="M292.44,352.67c0.45,0.47,0.85,1.02,1.17,1.59c0.6,1.05,0.48,2.25,1.02,3.22c-0.61-1.72-2.79-2.58-4.42-1.76
			c-0.47,0.24-0.88,0.58-1.28,0.92c-3.11,2.61-4.84,6.46-9.31,6.09c-1.64-0.14-3.27-0.93-4.11-2.36c1.99-0.59,4.55-1.05,6.21-2.28
			c2.05-1.52,3.3-4.33,5.27-6.05C288.93,350.35,290.97,351.13,292.44,352.67z"/>
	</g>
	<g>
		<path class="st3" d="M56.43,345.5c0.62,0.36,1.19,0.81,1.7,1.31c1.61,1.56,2.43,3.38,3.8,5.11c-0.76-0.95-1.89-1.21-2.97-1.6
			c-0.77-0.28-1.88-1.12-2.64-1.14c-0.48-0.01-0.95,0.15-1.4,0.32c-3.63,1.41-2.31,4.95-4.71,7.42c-0.4,0.42-0.87,0.79-1.42,0.98
			c-0.82,0.28-1.74,0.12-2.52-0.26c-0.78-0.38-1.45-0.95-2.11-1.51c1.18-0.43,2.09-1.44,2.67-2.55c1.26-2.42,2.04-4.97,3.63-7.26
			C52.04,344.06,54.43,344.32,56.43,345.5z"/>
	</g>
	<g>
		<path class="st4" d="M39.12,400.17c-6.33,0-12.7-2.89-18.77-8.57c-8.98-8.42-13.75-19.44-15.01-22.61
			c-1.25-3.18-3.77-13.2,0.9-17.38c1.73-1.55,4.94-2.78,10.42,0.12c1.06,0.56,1.98,1.38,2.87,2.17c0.37,0.33,0.89,0.8,1.33,1.13
			c0.07-0.36,0.13-0.74,0.17-1.01c0.08-0.49,0.15-0.96,0.25-1.37c0.68-3.01,1.81-8.04,5.6-9.88c1.34-0.64,3.54-1.12,6.43,0.27
			c2.51,1.21,4.14,3.23,5.58,5c0.98,1.22,1.92,2.37,2.96,3.05c1.09,0.71,1.71,0.75,1.84,0.7c0.07-0.02,0.38-0.28,0.69-1.13
			c1.1-3.03,2.94-8.1,7.86-9.77c2.9-0.99,5.64-0.41,7.73,1.62c3.08,3,4.72,9.37,4.87,18.96c0.1,6.8-0.61,13.92-1.34,16.3
			c-2.33,7.56-8.03,17.56-16.44,20.86C44.45,399.66,41.79,400.17,39.12,400.17z M10.73,356.12c-0.22,0-0.34,0.04-0.37,0.07
			c-1.06,0.95-0.89,6.43,0.72,10.54c5.2,13.19,18.96,31.97,33.75,26.16c5.93-2.33,10.79-10.41,12.8-16.94
			c1.15-3.73,2.37-24.85-1.93-29.03c-0.26-0.26-0.53-0.52-1.46-0.21l0,0c-1.96,0.67-3.04,3.24-4.06,6.04
			c-1.15,3.16-3.09,4.39-4.52,4.87c-1.52,0.51-3.99,0.68-7.16-1.38c-1.86-1.21-3.21-2.87-4.39-4.33c-1.18-1.46-2.21-2.72-3.48-3.33
			c-0.56-0.27-0.95-0.33-1.07-0.27c-0.51,0.25-1.32,1.43-2.27,5.68c-0.07,0.29-0.12,0.63-0.17,0.98c-0.29,1.82-0.68,4.32-2.76,5.74
			c-0.82,0.56-2.22,1.15-4.22,0.7c-1.9-0.42-3.39-1.75-4.71-2.93c-0.58-0.52-1.25-1.11-1.64-1.32
			C12.18,356.31,11.21,356.12,10.73,356.12z"/>
	</g>
	<g>
		<path class="st4" d="M260.1,400.61c-2.67,0-5.33-0.51-7.95-1.54c-8.4-3.3-14.11-13.3-16.44-20.86c-0.73-2.38-1.45-9.5-1.34-16.3
			c0.15-9.58,1.78-15.96,4.87-18.96c2.09-2.03,4.83-2.61,7.73-1.62l0,0c4.92,1.67,6.76,6.74,7.86,9.77
			c0.31,0.85,0.62,1.11,0.69,1.13c0.12,0.04,0.74,0.01,1.84-0.7c1.05-0.68,1.98-1.83,2.96-3.05c1.44-1.78,3.07-3.79,5.58-5
			c2.89-1.39,5.09-0.91,6.43-0.27c3.79,1.83,4.93,6.87,5.6,9.88c0.09,0.41,0.17,0.88,0.25,1.37c0.04,0.27,0.1,0.65,0.17,1.01
			c0.45-0.33,0.96-0.8,1.33-1.12c0.89-0.79,1.81-1.61,2.87-2.17c5.48-2.9,8.7-1.67,10.42-0.12c4.67,4.18,2.15,14.2,0.9,17.38
			c-1.25,3.18-6.03,14.19-15.01,22.61C272.81,397.72,266.44,400.6,260.1,400.61z M244.27,347.01c-0.38,0-0.57,0.18-0.74,0.35
			c-4.3,4.18-3.08,25.29-1.93,29.03c2.01,6.53,6.88,14.61,12.8,16.94c14.79,5.79,28.55-12.97,33.74-26.17
			c1.62-4.1,1.78-9.59,0.73-10.54c-0.12-0.11-1.1-0.27-3.44,0.97c-0.4,0.21-1.06,0.8-1.64,1.32c-1.32,1.18-2.81,2.51-4.71,2.93
			c-1.99,0.44-3.39-0.14-4.21-0.7c-2.09-1.42-2.48-3.92-2.76-5.75c-0.06-0.35-0.11-0.68-0.17-0.97c-0.96-4.25-1.77-5.44-2.27-5.68
			c-0.12-0.06-0.51,0-1.07,0.27c-1.27,0.61-2.29,1.87-3.48,3.33c-1.18,1.46-2.53,3.12-4.39,4.33c-3.16,2.06-5.64,1.89-7.15,1.38
			c-1.43-0.48-3.38-1.71-4.53-4.87c-1.02-2.8-2.09-5.37-4.05-6.04C244.69,347.05,244.46,347.01,244.27,347.01z"/>
	</g>
	<g>
		<path class="st19" d="M153.02,130.18c-6.3,0.66-14.61,0.68-20.27-2.52c-7.08-3.99-2.28-13.78,3.36-17.3
			c3.89-2.43,8.43-3.56,12.97-3.77c7.02-0.33,16.28,3.19,19.9,9.55C175.18,127.04,160.77,129.36,153.02,130.18z"/>
	</g>
	<g>
		<path class="st3" d="M132.71,119.62c2.07-4.72,8.55-8.95,13.67-9.56c5.12-0.61,11.55,1.42,16.52,2.83
			c3.09,0.87,3.6,2.46,6.22,4.33c-3.28-4.24-7.98-7.21-12.96-9.17c-1.93-0.76-3.93-1.39-6-1.51c-3.1-0.18-6.14,0.78-9.1,1.73
			c-3.02,0.97-6.17,2.02-8.33,4.34c-2.62,2.82-4.58,10.65-1.73,13.83C132.47,125.64,131.98,121.3,132.71,119.62z"/>
	</g>
	<g class="st1">
		<path class="st6" d="M169.6,121.05c0.21,2.18-1.13,4.29-2.92,5.55c-5.64,3.96-13.51,3.16-20.02,3.73
			c-3.91,0.34-6.68,0.66-10.08-1.87c-1.3-0.97-3.34-1.77-4.33-3.08c-0.55-0.73-0.98-1.83-1.89-1.83
			C143.35,128.34,157.35,128.15,169.6,121.05z"/>
	</g>
	<g>
		<path class="st4" d="M153.04,130.41c-6.56,0.49-13.78,2.41-20.27-0.44c-9.05-4.05-5.05-13.99,0.94-18.71
			c5.46-4.19,12.31-6.49,19.23-6.36c7.13,0.55,14.7,3.74,18.34,10.3c3.13,5.43,1.35,11.49-4.86,13.37
			C162.51,129.89,157.07,129.95,153.04,130.41L153.04,130.41z M152.99,129.95c6.02-0.65,19.12-4.46,13.95-12.39
			c-6.02-9.7-23.36-12.96-32.23-5.2c-3.77,3.65-6.02,11.42-0.16,13.92C140.09,129.09,146.64,130.68,152.99,129.95L152.99,129.95z"/>
	</g>
	<g>
		<path class="st4" d="M258.46,173.5l-0.1-0.71c-3.09-20.99-6.27-42.7-12.64-63.17c-14.09-45.28-36.75-68.74-71.31-73.85l0.9-6.09
			c48.84,7.22,66.93,48.04,76.29,78.11c6.51,20.93,9.74,42.87,12.86,64.1l0.1,0.71L258.46,173.5z"/>
	</g>
	<g>
		<path class="st4" d="M46.54,169.68l-6.13-0.62c0.38-3.74,0.73-7.48,1.08-11.23c0.77-8.2,1.57-16.68,2.63-25.01
			c3.21-25.12,10.8-46.31,22.56-62.99C83,46.69,109.05,31.58,138.14,28.37l0.67,6.12c-27.34,3.01-51.8,17.19-67.1,38.89
			c-11.17,15.85-18.4,36.11-21.48,60.22c-1.05,8.23-1.84,16.65-2.61,24.8C47.27,162.17,46.91,165.92,46.54,169.68z"/>
	</g>
</g>
</svg>
