<?xml version="1.0" encoding="utf-8"?>
<!-- Generator: Adobe Illustrator 26.1.0, SVG Export Plug-In . SVG Version: 6.00 Build 0)  -->
<svg version="1.1" id="圖層_1" xmlns="http://www.w3.org/2000/svg" xmlns:xlink="http://www.w3.org/1999/xlink" x="0px" y="0px"
	 viewBox="0 0 304.15 275.93" style="enable-background:new 0 0 304.15 275.93;" xml:space="preserve">
<style type="text/css">
	.st0{fill:#F3A243;}
	.st1{opacity:0.42;}
	.st2{fill:#7C551D;}
	.st3{fill:#FAEAD6;}
	.st4{fill:#161E3F;}
	.st5{fill:#535A80;}
	.st6{fill:#162550;}
	.st7{fill:#7A7FA2;}
	.st8{fill:#FFFFFF;}
	.st9{fill:#515677;}
	.st10{opacity:0.25;}
	.st11{fill:#4C6296;}
	.st12{fill:#FFBE2E;}
	.st13{fill:#8E570E;}
	.st14{fill:#363C4F;}
	.st15{fill:#C6C9D0;}
	.st16{fill:#E6E7EB;}
	.st17{fill:#31466A;}
	.st18{fill:#5266A0;}
	.st19{fill:#F4C144;}
	.st20{fill:#6C84C0;}
	.st21{fill:#F09EC0;}
	.st22{opacity:0.51;}
	.st23{fill:#DE679C;}
	.st24{fill:none;stroke:#161E3F;stroke-width:4;stroke-miterlimit:10;}
	.st25{fill:#F9D8E7;}
</style>
<g>
	<g>
		<path class="st12" d="M6.71,142.36c0,0,37.09,140.24,162.58,130.4c37.48-2.94,70.08-21.86,92.07-52.18
			c29.56-40.77,44.91-99.15,36.43-148.45c-2.83-16.44-8.2-36.91-23.28-46.43c-22.35-14.11-50.5,6.78-67.09,20.69
			c-2.21,1.85-5.54,1.39-7.12-1.01c-12.72-19.37-64.81-88.5-105.53,7.77c-1.08,2.55-4.07,3.69-6.56,2.46
			C67.14,45.24-18.52,10.29,6.71,142.36z"/>
	</g>
	<g>
		<ellipse transform="matrix(0.866 -0.5 0.5 0.866 -27.685 24.9977)" class="st3" cx="32.8" cy="64.16" rx="15.28" ry="9.64"/>
	</g>
	<g>
		<path class="st3" d="M203.49,47.12c-6.52-9.57-17.24-21.35-26.16-28.86c-40.37-33.65-66.87-2.37-85.7,36.97
			c-7.43-2.63-23.29-8.47-31.13-9.62C-3.48,37.09-3.98,88.5,6.99,138.24c3.6,17.41,0.14,9.82,6.23,26.4
			c-7.07-25.32-4.55-26.74-5.4-53.08C6.52,71.18,22.61,45.12,66.26,52.25c8.24,1.33,15.84,2.43,23.48,5.6
			c2.07,0.87,4.49-0.01,5.49-2.05c2.69-5.48,6.58-9.53,9.8-14.62c24.71-39.86,61.17-31.88,90.34,1.03c3.98,4.48,1.42,0.94,4.64,5.8
			c1.24,2.03,3.98,2.6,5.91,1.21c15.9-10.9,33.53-18.39,53.37-18.11c35.19,1.63,40.75,52.88,41.12,80.24
			C305.89,35.42,275.65-8.81,203.49,47.12z"/>
	</g>
	<g class="st1">
		<path class="st13" d="M48.11,220.38c0,0,202.87,63.61,252.87-130.57c0,0-1.01,153.4-111.14,181.9
			C189.84,271.71,105.18,291.84,48.11,220.38z"/>
	</g>
	<g>
		<path class="st4" d="M7.01,142.29c15.03,48.79,47.16,95.71,94.83,116.84c13.28,5.82,27.77,9.49,42.2,10.73
			c8.25,0.9,17.26,0.61,25.55,0.2c33.01-2.23,64.48-18.34,85.71-43.76c26.53-32.5,40.96-74.29,43.11-116
			c0.61-17.06-0.94-34.58-5.52-51.04c-14.58-51.35-50.08-39.43-82.53-11.39c-0.34,0.29-0.79,0.66-1.1,0.92
			c-3.36,2.88-8.95,2.15-11.41-1.55c-2.03-2.9-4.24-6.2-6.43-8.96c-13.93-17.84-37.38-40.9-61.24-27.9
			c-11.49,6.35-19.13,17.8-25.42,29c0,0-3.38,6.47-3.38,6.47l-3.08,6.65l-0.77,1.66c-1.05,2.7-3.93,4.76-6.87,4.82
			c-1.74,0.12-3.38-0.57-4.88-1.37c-17.99-8.45-39.52-16.32-59.02-8.96C-4.72,62.44,2.04,114.73,7.01,142.29L7.01,142.29z
			 M6.41,142.43c-5.18-29.02-13.43-81.28,18.96-96.9c20.8-8.9,44.27-1.47,63.75,7.34c0.83,0.5,1.93,0.46,2.58-0.29
			c0.47-0.63,0.84-1.74,1.17-2.43c26.93-64.82,69.1-65.52,107.96-9.49c0,0,2.07,3.08,2.07,3.08c0.24,0.38,0.63,0.62,1.08,0.71
			c1.02,0.25,1.8-0.64,2.52-1.22c20.85-17.57,54.57-38.72,77.39-12.67c10.22,12.13,13.6,27.41,15.93,42.43
			c4.31,29.76,0.49,60.3-8.4,88.81c-18.28,56.82-54.76,105.46-117.61,113.13c-25.02,2.92-51.17-0.4-74.05-11.17
			C51.62,240.99,21.73,191.7,6.41,142.43L6.41,142.43z"/>
	</g>
	<g>
		<path class="st4" d="M88.04,55.96C70,49.35,47.09,42.23,28.49,49.67C16.07,54.58,9.62,67.71,6.82,80.06
			c-4.73,20.28-3.02,41.7,1.09,62.07c5.41,17.42,14.43,34.72,24.36,50.24c14.69,23.4,33.86,44.36,57.47,58.86
			c3.53,2.23,8.27,4.79,12.03,6.65c4.76,2.3,10.96,4.78,15.92,6.59c9.91,3.16,20.14,5.54,30.49,6.69
			c6.73,0.79,14.35,1.05,21.11,1.21c0.21,0.01,0.38,0.18,0.37,0.4c-0.01,0.19-0.15,0.35-0.34,0.37c-14.15,2.07-28.74,2.13-42.85-0.3
			c-54.39-9.45-92.56-53.73-111.85-103.11c-3.52-8.86-6.58-17.83-9.1-27.06c-2.39-13.94-4.53-27.92-5.38-42.19
			C-0.25,89.75-0.02,78.43,3.6,68.2c2.02-6.26,5.56-12.28,10.28-16.89c1.25-1.05,3.08-2.84,4.51-3.66c0,0,2.42-1.61,2.42-1.61
			s2.58-1.31,2.58-1.31c14.66-6.88,31.26-3.94,45.79,1.28c6.7,2.5,13.15,5.55,19.19,9.25C88.77,55.55,88.47,56.1,88.04,55.96
			L88.04,55.96z"/>
	</g>
	<g>
		<path class="st4" d="M169.26,272.38c16.14-3.18,31.85-8.07,46.18-16.1c8.46-4.56,16.57-10.35,24.03-16.39
			c20.78-16.06,35.86-39.28,43.81-64.32c8.08-24.85,12.87-51,12.66-77.14c-0.48-21.29-2.19-47.58-14.83-65.41
			c-1.97-2.55-4.24-4.9-6.81-6.99c-0.38-0.25,0.02-0.89,0.41-0.65c12.44,6.39,19.24,19.92,23.19,32.74
			c11.9,39.14,5.95,82.15-10.7,118.99c-5.58,12.24-11.92,24.04-18.91,35.46c-6.94,11.39-14.61,22.76-24.59,32.13
			c-19.99,18.62-47.53,29.16-74.38,28.44c-0.21-0.01-0.38-0.18-0.38-0.4C168.95,272.56,169.08,272.41,169.26,272.38L169.26,272.38z"
			/>
	</g>
</g>
</svg>
