<?xml version="1.0" encoding="utf-8"?>
<!-- Generator: Adobe Illustrator 26.1.0, SVG Export Plug-In . SVG Version: 6.00 Build 0)  -->
<svg version="1.1" id="圖層_1" xmlns="http://www.w3.org/2000/svg" xmlns:xlink="http://www.w3.org/1999/xlink" x="0px" y="0px"
	 viewBox="0 0 388.05 603.43" style="enable-background:new 0 0 388.05 603.43;" xml:space="preserve">
<style type="text/css">
	.st0{fill:#5266A0;}
	.st1{fill:#FFFFFF;}
	.st2{fill:#F4C144;}
	.st3{opacity:0.42;}
	.st4{fill:#8E570E;}
	.st5{fill:#161E3F;}
	.st6{fill:#162550;}
	.st7{opacity:0.25;}
	.st8{fill:#4C6296;}
	.st9{fill:#6C84C0;}
	.st10{fill:#F09EC0;}
	.st11{opacity:0.51;}
	.st12{fill:#DE679C;}
	.st13{fill:none;stroke:#161E3F;stroke-width:4;stroke-miterlimit:10;}
	.st14{fill:#F9D8E7;}
	.st15{fill:#FAEAD6;}
	.st16{fill:#515677;}
	.st17{fill:#7A7FA2;}
	.st18{fill:#F3A243;}
	.st19{fill:#7C551D;}
	.st20{fill:#FFBE2E;}
	.st21{fill:#C6C9D0;}
	.st22{fill:#E6E7EB;}
	.st23{fill:#31466A;}
	.st24{fill:#535A80;}
	.st25{fill:#363C4F;}
	.st26{fill:#231815;}
</style>
<g>
	<g>
		<path class="st1" d="M56.92,278.9c-17.19-13.72-28.21-34.93-28.21-58.72c0-41.38,33.34-74.92,74.47-74.92
			c26.92,0,53.98,19.61,67.06,41.15"/>
	</g>
	<g class="st7">
		<path class="st8" d="M47.15,246.88c12.58,0.39,23.87-9.43,34.72-14.7c10.14-4.93,19.69-12.03,27.21-20.5
			c10.58-11.91,18.38-26.09,24.4-40.87c8.59,12.12,12.58,27.45,10.98,42.25c-1.59,14.8-8.75,28.92-19.71,38.9
			c-5.62,5.12-12.13,9.13-18.75,12.86c-7.6,4.28-15.53,8.26-24.1,9.85c-8.53,1.59-17.33,0.74-25.88-0.78
			c-2.69-0.48-5.44-1.05-7.74-2.53c-2.52-1.61-4.27-4.16-5.86-6.71c-3.36-5.4-6.78-10.87-9.21-16.78c-1.34-3.25-5.42-11-4.76-14.3
			c-0.62,3.11,3.26,5,5.03,6.68c2.67,2.55,4.44,4.74,8.21,5.79C43.54,246.56,45.36,246.83,47.15,246.88z"/>
	</g>
	<g>
		<path class="st5" d="M45.9,205.24c0.25,0.5,0.49,1.01,0.71,1.52c0.45,1.06,4.62,11.92,4.75,11.85c1.06-0.6,10.84-2.96,11.09-1.69
			c-2.43-12.06-3.47-23.05,0.82-35.09c5.39-15.1,20.99-18.84,35.29-15.81c17.19,3.65,31.24,16.1,43.34,28.08
			c0.28,0.28,0.58,0.56,0.95,0.66c0.29,0.07,0.59,0.02,0.89-0.03c8.22-1.39,17.16-4.01,24.92-7.22c0.48-0.2,0.97-0.43,1.3-0.83
			c0.85-1.05,0.18-2.61-0.53-3.76c-1.81-2.89-3.73-6.5-6-9.01c-2.84-3.13-7.09-5.6-10.51-8.05c-10.06-7.19-20.72-13.54-31.82-18.95
			c-4.94-2.41-10.47-1.99-15.93-1.81c-6.54,0.22-13.02,1.16-19.49,2.1c-3.75,0.54-7.52,1.1-11.09,2.38
			c-5.31,1.91-9.92,5.34-14.44,8.73c-8.19,6.14-16.61,12.52-21.81,21.36c-1.63,2.77-2.83,5.75-3.82,8.8
			c-0.9,2.76-2.22,6.04-1.93,8.98c0.08,0.8,0.55,0.94,1.23,1.07c0.71,0.14,0.92,0.41,0.98,1.12c0.23-0.41,0.43-0.83,0.67-1.24
			c0.23-0.39,0.46-0.78,0.75-1.12c1.38-1.6,3.29-0.17,4.53,0.9C42.93,200.05,44.63,202.7,45.9,205.24z"/>
	</g>
	<g>
		<path class="st5" d="M54.76,281.64C36,266.66,25.23,244.26,25.23,220.18c0-43.24,34.96-78.42,77.94-78.42
			c30.24,0,57.5,22.2,70.02,42.82l-5.93,3.65c-11.92-19.62-37.76-39.48-64.1-39.48c-39.15,0-70.99,32.04-70.99,71.43
			c0,21.93,9.8,42.33,26.9,55.98L54.76,281.64z"/>
	</g>
	<g>
		<ellipse class="st5" cx="77.12" cy="201.33" rx="5.37" ry="5.02"/>
	</g>
	<g>
		<ellipse class="st5" cx="40.7" cy="223.59" rx="3.11" ry="4.3"/>
	</g>
	<g>
		<path class="st21" d="M37.79,356.53c27.23,74.56,98.53,79.74,164.73,79.74c82.07,0,157.54-3.48,157.54-109.98
			c0-86.21-71-151.95-153.07-151.95c-28.59,0-57.31,5.77-83.37,18.51c-22.86,11.18-43.48,27.73-58.98,48.93
			c-6.14,8.4-11.45,17.49-15.75,27.1c-2.13,4.76-4.01,9.64-5.63,14.62c-1.59,4.88-2.9,9.88-4.39,14.76
			C34.99,310.94,26.26,318.38,17.4,327c-5.74,5.59-17.16,18.35-11.37,27.27c5.9,9.09,22.4,5.63,35.08,1.16"/>
	</g>
	<g>
		<path class="st22" d="M360.06,334.6c-3.43-79.14-67.36-140.24-139.61-146.09c-40.69-3.22-82.92,5.89-117.76,28.98
			c-22.3,14.69-40.99,35.02-53.8,59.7c13.41-35.43,41.35-63.56,73.55-79.94c48.82-24.37,108.76-27.73,157.55-1.61
			C328.81,221.17,363.64,275.77,360.06,334.6L360.06,334.6z"/>
	</g>
	<g class="st7">
		<path class="st23" d="M58.68,345.26c1.81,9.57,5.03,17.38,10.91,24.92c4.91,6.3,9.94,12.57,15.78,17.92
			c8.79,8.03,20.32,11.43,31.24,14.56c12.7,3.65,25.82,5.28,38.89,6.53c31.72,3.03,63.68,4.59,95.47,1.74
			c23.02-2.06,46.97-5.74,67.6-17.5c21.21-12.08,33.52-39.23,40.89-62.83c0.72,27.19-3.98,47.66-19.75,70.08
			c-10.41,11.85-20.53,18.91-35.07,23.72c-21.36,7.06-43.79,9.58-66.1,11.1c-15.91,1.08-31.85,1.68-47.79,1.78
			c-29.89,0.19-60.35-1.46-88.39-12.48c-16.19-6.37-31.41-16.14-43.61-29.21c-5.91-6.34-11.1-13.46-15.2-21.28
			c-3.53-6.74-4.37-17.08-13.39-14.45c-7.28,2.12-15.42,0.54-21.53-4.18c-2.02-1.56-3.98-4.13-3.09-6.61
			c-0.83,2.28,17.86,1.73,19.54,1.38c11.08-2.28,22.3-4.16,33.29-7.21C58.44,343.92,58.55,344.59,58.68,345.26z"/>
	</g>
	<g>
		<g>
			<path class="st18" d="M66.05,225.96c1,3.23-1.55,5.34-2.94,6.32c-0.41,0.29-0.84,0.54-1.3,0.71c-1.44,0.54-6.34,1.31-7.33-2.3
				c-1.15-4.21,1.28-7.41,3.58-7.98c1.01-0.25,2.06-0.36,3.14-0.34c1.48,0.04,3.96,0.89,4.81,3.51
				C66.03,225.9,66.04,225.93,66.05,225.96z"/>
		</g>
		<g class="st3">
			<path class="st19" d="M66.05,225.96c1,3.23-1.55,5.34-2.94,6.32c-0.41,0.29-0.84,0.54-1.3,0.71c-1.44,0.54-6.34,1.31-7.33-2.3
				c-1.15-4.21,1.28-7.41,3.58-7.98c1.01-0.25,2.06-0.36,3.14-0.34c1.48,0.04,3.96,0.89,4.81,3.51
				C66.03,225.9,66.04,225.93,66.05,225.96z"/>
		</g>
		<g>
			<path class="st5" d="M58.36,234.58c-2.39,0-4.4-1.05-5.49-3.03c-0.73-1.32-0.78-2.86-0.16-4.44c0.86-2.18,3-4.24,5.09-4.91
				c1.13-0.36,2.3-0.61,3.49-0.73c2.5-0.25,5.46,0.69,6.42,3.4l0.03,0.1c1.21,3.62-1.75,7.11-5.29,8.68
				C61.04,234.27,59.65,234.58,58.36,234.58z M62.04,224.92c-0.15,0-0.28,0.01-0.39,0.02c-0.95,0.1-1.89,0.29-2.79,0.58
				c-0.99,0.32-2.4,1.54-2.92,2.87c-0.35,0.88-0.11,1.31-0.03,1.45c1,1.83,3.71,1.23,5.16,0.59c2.08-0.92,3.91-2.81,3.39-4.37
				l-0.01-0.02C64.12,225.12,62.83,224.92,62.04,224.92z"/>
		</g>
		<g>
			<path class="st18" d="M65.64,217.28c1.3,3.81-2.72,6.93-4.91,8.41c-0.64,0.44-1.32,0.84-2.03,1.14c-2.23,0.95-9.74,2.89-11-1.39
				c-1.47-4.99,2.46-9.45,6-10.61c1.55-0.51,3.16-0.86,4.81-1.04c2.25-0.25,5.97,0.31,7.09,3.39
				C65.61,217.22,65.63,217.25,65.64,217.28z"/>
		</g>
		<g>
			<path class="st15" d="M56.64,216.63c2.32-1.21,4.81-1.13,7.37-1.67c-0.6-0.9-1.87-0.99-2.95-0.99c-2.62,0-5.33,0.03-7.69,1.17
				c-1.53,0.74-2.8,1.91-4.01,3.11c-1.64,1.64-3.22,3.47-2.37,5.95c0.22,0.64,0.63,1.19,1.04,1.72c0.57,0.73,1.17,1.46,1.94,1.98
				c0.25,0.17,0.55,0.31,0.83,0.22c-0.43,0.14-0.92-2.62-0.93-2.91c-0.01-0.95,0.24-2.22,0.66-3.08
				C51.79,219.58,54.2,217.9,56.64,216.63z"/>
		</g>
		<g>
			<path class="st5" d="M52.52,229.87c-1.31,0-2.61-0.2-3.73-0.73c-1.38-0.66-2.33-1.76-2.76-3.2c-1.66-5.64,2.26-10.66,6.98-12.71
				c2.75-1.19,7.14-2.08,10.46-0.64c1.79,0.77,3.09,2.15,3.76,3.99l0.05,0.13c1.22,3.58-0.65,7.09-5.58,10.43
				c-0.84,0.57-1.58,0.99-2.32,1.3C58.18,228.96,55.33,229.87,52.52,229.87z M59.51,215.34c-1.76,0-3.68,0.47-5.12,1.1
				c-2.31,1-6.33,4.07-5.02,8.51c0.14,0.48,0.42,0.79,0.91,1.02c1.99,0.95,6.09-0.04,7.74-0.74c0.53-0.23,1.09-0.54,1.74-0.98
				c3.45-2.35,4.88-4.5,4.24-6.39l0,0c-0.37-1.01-0.98-1.66-1.89-2.05C61.35,215.48,60.46,215.34,59.51,215.34z"/>
		</g>
	</g>
	<g>
		
			<ellipse transform="matrix(0.9619 -0.2732 0.2732 0.9619 -50.5885 49.4326)" class="st22" cx="152.19" cy="206.35" rx="22.21" ry="14.09"/>
	</g>
	<g>
		<path class="st22" d="M44.27,300.84c0.54,15.74-13.06,27.07-23.5,36.5c-5.13,5.34-12.92,11.14-11.28,19.52
			c-5.74-3.95-4-13.15-1.15-18.44C17.03,322.1,33.57,315.48,44.27,300.84L44.27,300.84z"/>
	</g>
	<g>
		<path class="st5" d="M38.09,356.41c26.45,67.81,90.54,76.24,151.75,76.69c43.8-0.79,105.98,4.58,141.16-26.41
			c19.56-17.3,26.95-45.17,27.79-71.41c1.41-27.96-4.97-56.29-18.58-80.19c-25.67-45.64-74.04-74.16-123.47-76.93
			c-49.17-2.42-100.65,13.46-136.62,50.25c-18.11,18.1-31.06,41.59-37.91,67.02c-1.47,5.31-3.7,10.66-6.78,15.1
			c-8.83,13.51-24.3,20.18-29.28,35.68c-1.37,4.89,1.32,9.61,5.72,11.34c9.28,3.44,19.87,0.23,29.14-2.45c0,0,0.21,0.66,0.21,0.66
			c-9.61,3.39-19.88,7.15-30.1,3.9c-9.53-3.58-9.65-14.02-4.52-21.97c6.71-11.55,18.37-18.67,25.32-29.78
			c2.72-4.2,4.53-9.16,5.76-14.08c0,0,2.2-7.75,2.2-7.75c25.49-89.86,126.64-131.55,207.69-109.63
			c66.41,17.91,116.37,80.55,113.47,154.87c-0.85,40.42-14.1,76.15-50.93,92.88c-18.79,8.79-39.34,11.96-59.61,13.74
			c-20.25,1.57-40.45,1.59-60.73,1.33c-40.17-0.88-83.55-4.31-117.02-30.51c-16.51-12.92-28.52-31.68-35.26-52.11
			C37.48,356.66,38.09,356.41,38.09,356.41L38.09,356.41z"/>
	</g>
	<g>
		<path class="st5" d="M40.98,298.25c-1.02,6.15-3.99,12.03-7.83,17.05c-5.1,8.26-34.63,29.81-22.07,38.96
			c16.13,7.75,51.1-9.73,65.45-19.09C62.7,348.98,27.1,369.98,7.61,360.11c-15.18-9.92-0.69-27.87,8.85-35.53
			C25.9,316.7,35.55,309.66,40.98,298.25L40.98,298.25z"/>
	</g>
	<g>
		<path class="st5" d="M38.09,356.41c24.19,59.46,75.99,72.89,131.64,76.24c26.7,1.61,53.71,2.62,80.46,1.27
			c39.13-2.09,83.42-13.27,98.9-56.39c4.99-12.98,6.89-27,7.61-40.95c3.66-56.89-27.27-111.4-73.56-138.85
			c-22.96-14.11-49.34-21.79-76.16-23.04c0,0,0-0.7,0-0.7c26.96-1.09,54.4,5.39,78.64,18.91c52.07,28.77,83.53,86.73,76.81,149.5
			c-2.22,27.86-12.17,54.89-34.45,71.18c-32.88,23.66-79.67,22.74-118.04,24.63c-49.68,1.44-106.27,1.58-145.42-36.03
			c-12.48-12.4-21.62-28.38-27.04-45.52C37.48,356.66,38.09,356.41,38.09,356.41L38.09,356.41z"/>
	</g>
	<g>
		<path class="st18" d="M137.98,458.47c-12.57,4.29-9.79-32.53-8.26-37.52c2.43-7.93,8.34-18.23,16.49-21.45
			c19.78-7.81,36.69,16.65,42.57,31.67c2.36,6.02,4.52,21.84-7.92,15.22c-1.98-1.05-4.15-4.03-6.29-4.5
			c-3.5-0.78-3.41,3.46-3.93,5.78c-0.99,4.43-2.73,11.41-8.67,8.52c-3.93-1.91-5.67-6.56-9.26-8.92c-3.4-2.23-6.51-1.93-8.01,2.22
			C143.42,453.05,141.8,457.16,137.98,458.47z"/>
	</g>
	<g>
		<path class="st18" d="M318.98,430.74c-9.81,4.29-7.64-32.53-6.45-37.52c1.89-7.93,6.51-18.23,12.87-21.45
			c15.44-7.81,28.64,16.65,33.23,31.67c1.84,6.02,3.53,21.84-6.18,15.22c-1.55-1.05-3.24-4.03-4.91-4.5
			c-2.73-0.78-2.66,3.46-3.07,5.78c-0.77,4.43-2.13,11.41-6.77,8.52c-3.07-1.91-4.42-6.56-7.23-8.92c-2.65-2.23-5.08-1.93-6.26,2.22
			C323.23,425.32,321.96,429.44,318.98,430.74z"/>
	</g>
	<g class="st3">
		<path class="st19" d="M150.55,418.06c1.91-3.89,5.17-7.7,9.74-8.38c5.76-0.86,10.77,3.45,14.63,7.48
			c6.26,6.52,12.42,13.51,15.07,21.86c0.62,1.94,1.03,4.01,0.47,5.96s-2.34,3.72-4.53,3.82c-2.54,0.11-4.52-1.88-6.52-3.33
			c-2-1.45-5.33-2.29-6.79-0.37c-0.69,0.91-0.66,2.1-0.76,3.2c-0.22,2.56-1.53,5.28-4.11,6.26c-3.37,1.28-7.04-0.92-9.77-3.14
			c-5.4-4.38-11.13-4.09-11.25-11.47C146.61,432.56,147.2,424.89,150.55,418.06z"/>
	</g>
	<g class="st3">
		<path class="st19" d="M327.49,390.65c1.65-4.17,4.46-8.25,8.41-8.98c4.97-0.92,9.3,3.7,12.63,8.02
			c5.4,6.99,10.72,14.47,13.02,23.43c0.53,2.07,0.89,4.3,0.41,6.39c-0.49,2.09-2.02,3.99-3.91,4.09c-2.2,0.12-3.9-2.01-5.63-3.56
			s-4.6-2.45-5.87-0.39c-0.6,0.97-0.57,2.25-0.66,3.43c-0.19,2.74-1.32,5.66-3.55,6.71c-2.91,1.37-6.08-0.99-8.44-3.36
			c-4.67-4.7-9.61-4.39-9.72-12.29C324.08,406.18,324.59,397.97,327.49,390.65z"/>
	</g>
	<g>
		<path class="st5" d="M136.04,462.31c-2.11,0-4.06-0.8-5.67-2.37c-3.48-3.4-5.33-10.64-5.49-21.52c-0.12-7.72,0.69-15.8,1.52-18.5
			c2.63-8.58,9.06-19.93,18.54-23.67c10.01-3.95,20.43-1.19,30.14,7.98c10.13,9.55,15.52,22.06,16.93,25.67
			c1.41,3.61,4.26,14.98-1.02,19.73c-1.95,1.75-5.57,3.16-11.76-0.14c-1.19-0.64-2.23-1.57-3.23-2.47c-0.41-0.37-1-0.9-1.5-1.28
			c-0.08,0.41-0.15,0.84-0.2,1.15c-0.09,0.56-0.17,1.09-0.28,1.56c-0.76,3.41-2.04,9.13-6.32,11.21c-1.51,0.73-3.99,1.28-7.25-0.31
			c-2.83-1.38-4.67-3.66-6.3-5.68c-1.11-1.38-2.16-2.68-3.35-3.46c-1.23-0.81-1.93-0.85-2.08-0.8c-0.07,0.03-0.43,0.32-0.78,1.28
			c-1.24,3.44-3.32,9.19-8.87,11.09C138.05,462.13,137.03,462.31,136.04,462.31z M153.82,401.52c-2.08,0-4.2,0.39-6.34,1.23
			c-6.69,2.64-12.17,11.82-14.44,19.23c-1.3,4.24-2.67,28.21,2.18,32.95c0.3,0.29,0.61,0.59,1.64,0.24h0
			c2.21-0.76,3.43-3.67,4.57-6.85c1.29-3.59,3.49-4.98,5.1-5.53c1.71-0.57,4.5-0.77,8.07,1.57c2.1,1.38,3.61,3.26,4.95,4.91
			c1.33,1.66,2.49,3.09,3.92,3.78c0.63,0.31,1.07,0.38,1.21,0.31c0.57-0.28,1.48-1.62,2.56-6.45c0.07-0.33,0.13-0.71,0.19-1.11
			c0.32-2.07,0.77-4.9,3.12-6.52c0.93-0.64,2.51-1.3,4.76-0.8c2.14,0.47,3.83,1.99,5.31,3.32c0.66,0.59,1.41,1.26,1.86,1.5
			c2.64,1.4,3.74,1.22,3.88,1.1c1.19-1.07,1-7.3-0.82-11.96C180.44,419.39,167.98,401.52,153.82,401.52z"/>
	</g>
	<g>
		<path class="st5" d="M317.45,434.59c-1.52,0-2.95-0.58-4.18-1.72c-7.57-7.01-4.75-37.01-3.92-40.51
			c2.05-8.57,7.11-19.93,14.65-23.74c4.71-2.38,9.54-2.46,14.36-0.25c11.94,5.48,20.33,23.95,23.4,34
			c0.05,0.15,4.41,15.13-1.56,20.05c-1.72,1.42-4.77,2.43-9.51-0.8c-0.99-0.68-1.82-1.63-2.63-2.55c-0.04-0.05-0.08-0.1-0.13-0.15
			c-0.01,0.06-0.01,0.11-0.02,0.16c-0.07,0.54-0.13,1.06-0.21,1.52c-0.85,4.86-1.98,9.75-5.56,11.5c-1.31,0.64-3.43,1.06-6.09-0.59
			c-2.32-1.44-3.77-3.76-5.06-5.8c-0.86-1.36-1.67-2.65-2.54-3.39c-0.31-0.26-0.55-0.42-0.72-0.51c-0.1,0.2-0.23,0.51-0.37,0.99
			c-1.03,3.67-2.59,9.21-7.14,11.2l0,0C319.29,434.39,318.35,434.59,317.45,434.59z M331.41,373.77c-1.54,0-3.06,0.39-4.59,1.16
			c-5.1,2.58-9.33,11.74-11.1,19.16c-0.42,1.77-1.14,9.69-0.94,17.91c0.3,12.48,2.41,15.19,2.79,15.59
			c0.03-0.02,0.09-0.04,0.17-0.07l0,0c1.66-0.73,2.72-4.49,3.35-6.74c1.09-3.88,3.12-5.29,4.63-5.8c1.5-0.5,3.89-0.59,6.8,1.84
			c1.69,1.42,2.88,3.31,3.93,4.99c0.98,1.56,1.9,3.03,2.92,3.66c0.06,0.04,0.12,0.07,0.16,0.1c0.43-0.62,1.03-2.24,1.73-6.24
			c0.06-0.34,0.11-0.73,0.16-1.14c0.27-2.17,0.63-5.15,2.83-6.73c1.18-0.84,2.65-1.08,4.15-0.65c1.9,0.54,3.27,2.12,4.49,3.52
			c0.45,0.52,1.06,1.22,1.35,1.42c1.11,0.76,1.76,0.96,2.04,1.02c0.84-1.51,0.65-7.63-0.75-12.22
			c-3.54-11.58-11.23-25.83-19.75-29.74C334.29,374.11,332.84,373.77,331.41,373.77z M346.53,417.47L346.53,417.47L346.53,417.47z"
			/>
	</g>
</g>
</svg>
