<?xml version="1.0" encoding="utf-8"?>
<!-- Generator: Adobe Illustrator 26.1.0, SVG Export Plug-In . SVG Version: 6.00 Build 0)  -->
<svg version="1.1" id="圖層_1" xmlns="http://www.w3.org/2000/svg" xmlns:xlink="http://www.w3.org/1999/xlink" x="0px" y="0px"
	 viewBox="0 0 340.11 282.41" style="enable-background:new 0 0 340.11 282.41;" xml:space="preserve">
<style type="text/css">
	.st0{fill:#F3A243;}
	.st1{opacity:0.42;}
	.st2{fill:#7C551D;}
	.st3{fill:#FAEAD6;}
	.st4{fill:#161E3F;}
	.st5{fill:#535A80;}
	.st6{fill:#162550;}
	.st7{fill:#7A7FA2;}
	.st8{fill:#FFFFFF;}
	.st9{fill:#515677;}
	.st10{opacity:0.25;}
	.st11{fill:#4C6296;}
	.st12{fill:#FFBE2E;}
	.st13{fill:#8E570E;}
	.st14{fill:#363C4F;}
	.st15{fill:#C6C9D0;}
	.st16{fill:#E6E7EB;}
	.st17{fill:#31466A;}
	.st18{fill:#5266A0;}
	.st19{fill:#F4C144;}
	.st20{fill:#6C84C0;}
	.st21{fill:#F09EC0;}
	.st22{opacity:0.51;}
	.st23{fill:#DE679C;}
	.st24{fill:none;stroke:#161E3F;stroke-width:4;stroke-miterlimit:10;}
	.st25{fill:#F9D8E7;}
</style>
<g>
	<g>
		<path class="st8" d="M49.56,120.82c-15.24-12.09-25.01-30.77-25.01-51.74c0-36.46,29.55-66.01,66.01-66.01
			c23.86,0,47.85,17.28,59.44,36.25"/>
	</g>
	<g class="st10">
		<path class="st11" d="M40.89,92.61c11.15,0.35,21.16-8.31,30.77-12.95c8.99-4.34,17.45-10.6,24.12-18.06
			c9.38-10.49,16.3-22.99,21.63-36.01c7.61,10.67,11.15,24.19,9.74,37.22c-1.41,13.04-7.75,25.48-17.47,34.28
			c-4.98,4.51-10.75,8.05-16.62,11.33c-6.74,3.77-13.77,7.27-21.36,8.68c-7.56,1.4-15.37,0.65-22.94-0.69
			c-2.38-0.42-4.82-0.92-6.86-2.22c-2.23-1.42-3.79-3.67-5.19-5.91c-2.98-4.76-6.01-9.58-8.16-14.78c-1.19-2.86-4.8-9.69-4.22-12.6
			c-0.55,2.74,2.89,4.4,4.46,5.89c2.37,2.25,3.94,4.18,7.28,5.1C37.7,92.33,39.31,92.56,40.89,92.61z"/>
	</g>
	<g>
		<path class="st14" d="M39.79,55.93c0.22,0.44,0.43,0.89,0.63,1.34c0.4,0.93,4.09,10.51,4.21,10.44c0.94-0.52,9.61-2.61,9.83-1.49
			C52.31,55.59,51.39,45.9,55.2,35.3C59.97,22,73.8,18.7,86.47,21.37c15.24,3.21,27.69,14.19,38.42,24.74
			c0.25,0.24,0.51,0.49,0.85,0.58c0.26,0.06,0.53,0.02,0.79-0.02c7.29-1.22,15.21-3.53,22.09-6.36c0.42-0.18,0.86-0.38,1.15-0.73
			c0.75-0.93,0.16-2.3-0.47-3.31c-1.6-2.55-3.3-5.73-5.32-7.94c-2.51-2.76-6.28-4.94-9.32-7.09c-8.92-6.33-18.37-11.93-28.21-16.7
			c-4.38-2.12-9.28-1.75-14.12-1.59C86.54,3.14,80.79,3.97,75.05,4.8c-3.32,0.48-6.67,0.97-9.83,2.09
			c-4.71,1.68-8.79,4.71-12.8,7.69C45.16,20,37.71,25.61,33.09,33.41c-1.44,2.44-2.51,5.07-3.39,7.75c-0.8,2.43-1.97,5.32-1.71,7.91
			c0.07,0.71,0.49,0.83,1.09,0.94c0.63,0.12,0.81,0.36,0.87,0.99c0.2-0.36,0.38-0.74,0.6-1.09c0.2-0.34,0.41-0.68,0.67-0.98
			c1.23-1.41,2.92-0.15,4.02,0.79C37.15,51.36,38.66,53.69,39.79,55.93z"/>
	</g>
	<g>
		<path class="st4" d="M47.64,123.24c-16.63-13.2-26.17-32.94-26.17-54.15C21.47,30.99,52.46,0,90.56,0
			c26.8,0,50.97,19.56,62.07,37.73l-5.25,3.21C136.81,23.66,113.9,6.16,90.56,6.16c-34.7,0-62.93,28.23-62.93,62.93
			c0,19.32,8.69,37.3,23.84,49.32L47.64,123.24z"/>
	</g>
	<g>
		<ellipse class="st4" cx="67.46" cy="52.48" rx="4.76" ry="4.42"/>
	</g>
	<g>
		<ellipse class="st4" cx="35.18" cy="72.09" rx="2.76" ry="3.79"/>
	</g>
	<g>
		<path class="st15" d="M34.41,189.22c25.57,65.69,92.52,70.26,154.68,70.26c77.07,0,147.93-3.06,147.93-96.9
			c0-75.96-66.67-133.87-143.74-133.87c-26.84,0-53.82,5.08-78.28,16.3c-21.46,9.85-40.83,24.43-55.38,43.11
			c-5.76,7.4-10.75,15.41-14.79,23.87c-2,4.19-3.77,8.49-5.29,12.88c-1.49,4.3-2.73,8.7-4.12,13
			c-3.63,11.18-11.84,17.73-20.15,25.33c-5.39,4.92-16.12,16.16-10.68,24.02c5.54,8.01,21.03,4.96,32.94,1.02"/>
	</g>
	<g>
		<path class="st16" d="M337.02,169.9c-3.23-69.73-63.25-123.56-131.09-128.72c-38.21-2.83-77.86,5.19-110.58,25.53
			c-20.94,12.94-38.49,30.85-50.51,52.6c12.59-31.21,38.83-56,69.07-70.43c45.84-21.48,102.12-24.43,147.93-1.42
			C307.68,69.96,340.39,118.07,337.02,169.9L337.02,169.9z"/>
	</g>
	<g class="st10">
		<path class="st17" d="M54.03,179.29c1.7,8.43,4.72,15.31,10.24,21.96c4.61,5.55,9.33,11.08,14.82,15.79
			c8.25,7.08,19.08,10.07,29.33,12.83c11.93,3.21,24.24,4.65,36.52,5.75c29.79,2.67,59.8,4.04,89.65,1.53
			c21.62-1.82,44.1-5.06,63.48-15.42c19.91-10.65,31.47-34.56,38.39-55.36c0.68,23.96-3.74,41.99-18.55,61.74
			c-9.77,10.44-19.27,16.66-32.93,20.9c-20.05,6.22-41.12,8.44-62.07,9.78c-14.94,0.95-29.91,1.48-44.88,1.57
			c-28.06,0.17-56.67-1.29-83-11c-15.2-5.61-29.5-14.22-40.95-25.74c-5.55-5.58-10.43-11.86-14.27-18.75
			c-3.32-5.94-4.11-15.05-12.57-12.73c-6.83,1.87-14.48,0.48-20.22-3.68c-1.89-1.37-3.74-3.64-2.9-5.82
			c-0.78,2.01,16.77,1.52,18.35,1.22c10.41-2.01,20.94-3.67,31.26-6.35C53.81,178.1,53.91,178.7,54.03,179.29z"/>
	</g>
	<g>
		<g>
			<path class="st0" d="M57.65,74.18c0.89,2.85-1.37,4.71-2.61,5.56c-0.36,0.25-0.75,0.48-1.15,0.63c-1.28,0.47-5.62,1.15-6.5-2.03
				c-1.02-3.71,1.13-6.53,3.18-7.03c0.89-0.22,1.83-0.32,2.79-0.3c1.31,0.03,3.51,0.78,4.27,3.1
				C57.63,74.13,57.64,74.15,57.65,74.18z"/>
		</g>
		<g class="st1">
			<path class="st2" d="M57.65,74.18c0.89,2.85-1.37,4.71-2.61,5.56c-0.36,0.25-0.75,0.48-1.15,0.63c-1.28,0.47-5.62,1.15-6.5-2.03
				c-1.02-3.71,1.13-6.53,3.18-7.03c0.89-0.22,1.83-0.32,2.79-0.3c1.31,0.03,3.51,0.78,4.27,3.1
				C57.63,74.13,57.64,74.15,57.65,74.18z"/>
		</g>
		<g>
			<path class="st4" d="M50.83,81.77c-2.12,0-3.9-0.93-4.86-2.67c-0.65-1.17-0.69-2.52-0.14-3.91c0.76-1.92,2.66-3.74,4.52-4.33
				c1-0.32,2.04-0.53,3.1-0.64c2.22-0.23,4.84,0.61,5.69,3l0.03,0.08c1.07,3.19-1.55,6.26-4.69,7.65
				C53.21,81.5,51.97,81.77,50.83,81.77z M54.1,73.27c-0.14,0-0.25,0.01-0.35,0.02c-0.85,0.09-1.68,0.26-2.48,0.51
				c-0.88,0.28-2.12,1.36-2.59,2.53c-0.31,0.77-0.1,1.15-0.03,1.28c0.89,1.61,3.29,1.08,4.57,0.52c1.84-0.81,3.47-2.47,3.01-3.85
				l-0.01-0.02l1.47-0.47l-1.47,0.46C55.94,73.44,54.8,73.27,54.1,73.27z"/>
		</g>
		<g>
			<path class="st0" d="M57.28,66.54c1.15,3.35-2.41,6.1-4.35,7.41c-0.57,0.39-1.17,0.74-1.8,1.01c-1.97,0.84-8.63,2.54-9.75-1.23
				c-1.3-4.4,2.18-8.32,5.32-9.35c1.38-0.45,2.8-0.76,4.26-0.92c1.99-0.22,5.29,0.28,6.28,2.99C57.26,66.48,57.27,66.51,57.28,66.54
				z"/>
		</g>
		<g>
			<path class="st3" d="M49.31,65.96c2.06-1.06,4.27-0.99,6.53-1.47c-0.54-0.8-1.66-0.87-2.62-0.87c-2.32,0-4.73,0.03-6.82,1.03
				c-1.35,0.65-2.49,1.68-3.55,2.74c-1.46,1.44-2.85,3.06-2.1,5.24c0.19,0.56,0.56,1.05,0.92,1.52c0.5,0.65,1.04,1.29,1.72,1.74
				c0.22,0.15,0.49,0.27,0.73,0.19c-0.38,0.13-0.82-2.31-0.82-2.56c-0.01-0.84,0.21-1.96,0.58-2.71
				C45.01,68.56,47.14,67.08,49.31,65.96z"/>
		</g>
		<g>
			<path class="st4" d="M45.66,77.62c-1.16,0-2.32-0.17-3.3-0.64c-1.23-0.58-2.07-1.55-2.44-2.82c-1.47-4.97,2-9.4,6.19-11.2
				c2.44-1.05,6.33-1.83,9.27-0.56c1.58,0.68,2.74,1.9,3.33,3.52l0.04,0.11c1.08,3.15-0.58,6.24-4.94,9.19
				c-0.75,0.51-1.4,0.87-2.06,1.15C50.67,76.83,48.14,77.62,45.66,77.62z M51.85,64.83c-1.56,0-3.26,0.42-4.54,0.97
				c-2.05,0.88-5.61,3.58-4.45,7.5c0.12,0.42,0.37,0.7,0.8,0.9c1.76,0.83,5.4-0.03,6.86-0.65c0.47-0.2,0.96-0.48,1.54-0.87
				c3.06-2.07,4.33-3.97,3.75-5.64l0,0l1.46-0.5l-1.47,0.45c-0.3-0.83-0.84-1.4-1.66-1.75C53.49,64.95,52.69,64.83,51.85,64.83z"/>
		</g>
	</g>
	<g>
		
			<ellipse transform="matrix(0.963 -0.2697 0.2697 0.963 -10.3789 38.2416)" class="st16" cx="134" cy="56.9" rx="19.68" ry="12.42"/>
	</g>
	<g>
		<path class="st16" d="M38.34,140.15c0.48,13.87-11.58,23.85-20.83,32.16c-4.55,4.71-11.45,9.81-10,17.2
			c-5.09-3.48-3.55-11.59-1.02-16.24C14.19,158.88,28.86,153.05,38.34,140.15L38.34,140.15z"/>
	</g>
	<g>
		<path class="st4" d="M34.7,189.11c24.84,59.74,85.02,67.17,142.49,67.57c41.13-0.69,99.51,4.03,132.55-23.27
			c18.36-15.24,25.3-39.8,26.09-62.91c1.33-24.63-4.67-49.6-17.45-70.65c-24.11-40.21-69.53-65.34-115.93-67.78
			c-46.17-2.13-94.51,11.86-128.29,44.28c-17.01,15.95-29.17,36.65-35.6,59.05c-1.38,4.68-3.47,9.39-6.36,13.31
			c-8.29,11.9-22.82,17.78-27.5,31.44c-1.28,4.31,1.24,8.47,5.37,9.99c8.71,3.03,18.66,0.2,27.36-2.16c0,0,0.19,0.58,0.19,0.58
			c-9.02,2.98-18.67,6.3-28.26,3.43c-8.95-3.16-9.06-12.35-4.24-19.36c6.3-10.18,17.25-16.45,23.78-26.24
			c2.56-3.7,4.25-8.07,5.4-12.4c0,0,2.06-6.83,2.06-6.83C60.3,47.99,155.28,11.25,231.38,30.57
			c62.36,15.78,109.27,70.97,106.55,136.45c-0.8,35.61-13.24,67.09-47.82,81.83c-17.65,7.74-36.94,10.54-55.97,12.1
			c-19.01,1.38-37.99,1.4-57.02,1.18c-37.72-0.78-78.45-3.79-109.88-26.88c-15.51-11.38-26.78-27.92-33.11-45.92
			C34.13,189.33,34.7,189.11,34.7,189.11L34.7,189.11z"/>
	</g>
	<g>
		<path class="st4" d="M35.42,137.87c-0.9,5.42-3.54,10.6-6.94,15.02c-4.52,7.28-30.7,26.26-19.56,34.33
			c14.3,6.83,45.29-8.57,58.02-16.82c-12.26,12.17-43.82,30.67-61.09,21.97c-13.46-8.74-0.61-24.55,7.85-31.3
			C22.06,154.12,30.62,147.93,35.42,137.87L35.42,137.87z"/>
	</g>
	<g>
		<path class="st4" d="M34.7,189.11c22.72,52.38,71.35,64.22,123.61,67.17c25.07,1.42,50.44,2.3,75.55,1.12
			c36.74-1.84,78.33-11.69,92.86-49.68c4.69-11.43,6.47-23.78,7.14-36.08c3.44-50.12-25.61-98.15-69.07-122.34
			c-21.56-12.43-46.33-19.2-71.51-20.3c0,0,0-0.62,0-0.62c25.31-0.96,51.08,4.75,73.84,16.66c48.89,25.35,78.44,76.42,72.13,131.72
			c-2.08,24.55-11.43,48.37-32.34,62.72c-30.87,20.84-74.81,20.04-110.84,21.7c-46.65,1.27-99.79,1.4-136.55-31.74
			c-11.72-10.92-20.3-25-25.39-40.1C34.13,189.33,34.7,189.11,34.7,189.11L34.7,189.11z"/>
	</g>
	<g>
		<path class="st0" d="M121.41,279.03c-11.14,3.78-8.67-28.66-7.32-33.06c2.15-6.98,7.39-16.06,14.62-18.9
			c17.53-6.88,32.52,14.67,37.73,27.9c2.09,5.3,4.01,19.25-7.02,13.41c-1.76-0.93-3.68-3.55-5.57-3.97
			c-3.11-0.68-3.02,3.05-3.48,5.09c-0.88,3.9-2.42,10.05-7.69,7.51c-3.48-1.68-5.02-5.78-8.21-7.86c-3.01-1.96-5.77-1.7-7.1,1.96
			C126.23,274.25,124.8,277.88,121.41,279.03z"/>
	</g>
	<g>
		<path class="st0" d="M298.45,254.6c-9.21,3.78-7.17-28.66-6.05-33.06c1.78-6.98,6.11-16.06,12.09-18.9
			c14.5-6.88,26.9,14.67,31.2,27.9c1.73,5.3,3.31,19.25-5.8,13.41c-1.45-0.93-3.04-3.55-4.61-3.97c-2.57-0.68-2.5,3.05-2.88,5.09
			c-0.73,3.9-2,10.05-6.36,7.51c-2.88-1.68-4.15-5.78-6.79-7.86c-2.49-1.96-4.77-1.7-5.87,1.96
			C302.44,249.83,301.25,253.45,298.45,254.6z"/>
	</g>
	<g class="st1">
		<path class="st2" d="M132.56,243.43c1.69-3.43,4.58-6.78,8.64-7.38c5.11-0.76,9.54,3.04,12.97,6.59
			c5.55,5.75,11.01,11.9,13.36,19.26c0.55,1.71,0.92,3.53,0.42,5.25c-0.5,1.72-2.08,3.28-4.02,3.36c-2.26,0.1-4-1.65-5.78-2.93
			c-1.77-1.28-4.72-2.01-6.02-0.32c-0.61,0.8-0.59,1.85-0.67,2.82c-0.2,2.25-1.36,4.66-3.64,5.52c-2.99,1.12-6.24-0.81-8.66-2.77
			c-4.79-3.86-9.86-3.61-9.97-10.11C129.06,256.2,129.58,249.45,132.56,243.43z"/>
	</g>
	<g class="st1">
		<path class="st2" d="M306.44,219.28c1.55-3.67,4.19-7.27,7.9-7.91c4.67-0.81,8.73,3.26,11.86,7.06
			c5.08,6.16,10.07,12.75,12.22,20.64c0.5,1.83,0.84,3.79,0.38,5.63c-0.46,1.84-1.9,3.51-3.67,3.61c-2.06,0.11-3.66-1.77-5.29-3.14
			c-1.62-1.37-4.32-2.16-5.51-0.35c-0.56,0.85-0.54,1.98-0.62,3.02c-0.18,2.42-1.24,4.99-3.33,5.91c-2.73,1.2-5.71-0.87-7.92-2.96
			c-4.38-4.14-9.02-3.86-9.12-10.83C303.24,232.96,303.72,225.73,306.44,219.28z"/>
	</g>
	<g>
		<path class="st4" d="M119.69,282.41c-1.87,0-3.6-0.71-5.02-2.09c-3.08-3-4.72-9.38-4.87-18.96c-0.1-6.8,0.61-13.92,1.34-16.3
			c2.33-7.56,8.03-17.56,16.44-20.86c8.87-3.48,18.11-1.05,26.72,7.03c8.98,8.42,13.76,19.44,15.01,22.61
			c1.25,3.18,3.78,13.2-0.9,17.38c-1.73,1.55-4.94,2.78-10.42-0.12c-1.06-0.56-1.98-1.38-2.87-2.17c-0.37-0.33-0.89-0.8-1.33-1.13
			c-0.07,0.36-0.13,0.74-0.17,1.01c-0.08,0.49-0.15,0.96-0.25,1.37c-0.68,3.01-1.81,8.05-5.6,9.88c-1.34,0.65-3.54,1.12-6.43-0.27
			c-2.51-1.21-4.14-3.23-5.58-5c-0.99-1.22-1.92-2.37-2.96-3.05c-1.09-0.71-1.71-0.75-1.84-0.7c-0.07,0.02-0.38,0.28-0.69,1.13
			c-1.1,3.03-2.94,8.1-7.86,9.77l0,0C121.47,282.26,120.57,282.41,119.69,282.41z M135.45,228.86c-1.85,0-3.72,0.34-5.62,1.08
			c-5.92,2.32-10.79,10.41-12.8,16.94c-1.15,3.73-2.37,24.85,1.93,29.03c0.26,0.26,0.54,0.52,1.46,0.21l0,0
			c1.96-0.67,3.04-3.24,4.06-6.04c1.15-3.16,3.09-4.39,4.52-4.87c1.52-0.51,3.99-0.68,7.16,1.38c1.86,1.21,3.2,2.87,4.39,4.33
			c1.18,1.46,2.2,2.72,3.48,3.33c0.56,0.27,0.95,0.33,1.07,0.27c0.51-0.25,1.31-1.43,2.27-5.68c0.07-0.29,0.12-0.63,0.17-0.97
			c0.29-1.83,0.68-4.32,2.76-5.75c0.82-0.56,2.23-1.14,4.22-0.7c1.9,0.42,3.39,1.75,4.71,2.93c0.58,0.52,1.25,1.11,1.64,1.32
			c2.33,1.23,3.32,1.08,3.44,0.97c1.06-0.95,0.89-6.43-0.72-10.53C159.04,244.6,148.01,228.86,135.45,228.86z"/>
	</g>
	<g>
		<path class="st4" d="M297.02,257.99c-1.43,0-2.77-0.51-3.93-1.52c-7.1-6.17-4.46-32.61-3.68-35.69
			c1.92-7.55,6.68-17.56,13.75-20.92c4.42-2.1,8.96-2.17,13.49-0.22c11.21,4.83,19.08,21.1,21.97,29.95
			c0.04,0.13,4.15,13.33-1.46,17.66c-1.62,1.25-4.48,2.14-8.93-0.7c-0.93-0.6-1.71-1.44-2.47-2.25c-0.04-0.04-0.08-0.09-0.12-0.13
			c-0.01,0.05-0.01,0.09-0.02,0.14c-0.06,0.48-0.12,0.94-0.2,1.34c-0.8,4.28-1.86,8.59-5.22,10.13c-1.23,0.56-3.22,0.93-5.71-0.52
			c-2.18-1.27-3.54-3.31-4.75-5.11c-0.81-1.2-1.57-2.34-2.39-2.98c-0.29-0.23-0.52-0.37-0.67-0.45c-0.09,0.17-0.22,0.45-0.35,0.87
			c-0.97,3.23-2.44,8.11-6.71,9.87C298.74,257.81,297.86,257.99,297.02,257.99z M310.12,204.4c-1.44,0-2.87,0.34-4.31,1.02
			c-4.79,2.27-8.76,10.34-10.43,16.88c-0.4,1.56-1.07,8.54-0.88,15.78c0.28,10.99,2.26,13.39,2.62,13.73
			c0.03-0.01,0.09-0.03,0.16-0.06l0,0c1.56-0.64,2.55-3.96,3.15-5.94c1.02-3.41,2.93-4.66,4.35-5.11c1.41-0.45,3.66-0.52,6.38,1.62
			c1.59,1.25,2.7,2.92,3.69,4.39c0.92,1.37,1.79,2.67,2.74,3.22c0.06,0.03,0.11,0.06,0.16,0.08c0.4-0.54,0.97-1.97,1.62-5.5
			c0.06-0.3,0.1-0.65,0.15-1.01c0.25-1.91,0.59-4.54,2.66-5.93c1.11-0.74,2.49-0.94,3.89-0.57c1.78,0.47,3.07,1.87,4.21,3.1
			c0.42,0.45,0.99,1.08,1.26,1.25c1.05,0.67,1.65,0.85,1.92,0.9c0.79-1.33,0.61-6.72-0.7-10.76c-3.32-10.21-10.54-22.76-18.55-26.2
			C312.83,204.7,311.47,204.4,310.12,204.4z M324.33,242.91L324.33,242.91L324.33,242.91z"/>
	</g>
</g>
</svg>
