<?xml version="1.0" encoding="utf-8"?>
<!-- Generator: Adobe Illustrator 26.1.0, SVG Export Plug-In . SVG Version: 6.00 Build 0)  -->
<svg version="1.1" id="圖層_1" xmlns="http://www.w3.org/2000/svg" xmlns:xlink="http://www.w3.org/1999/xlink" x="0px" y="0px"
	 viewBox="0 0 322.79 411.77" style="enable-background:new 0 0 322.79 411.77;" xml:space="preserve">
<style type="text/css">
	.st0{fill:#F3A243;}
	.st1{opacity:0.42;}
	.st2{fill:#7C551D;}
	.st3{fill:#FAEAD6;}
	.st4{fill:#161E3F;}
	.st5{fill:#535A80;}
	.st6{fill:#162550;}
	.st7{fill:#7A7FA2;}
	.st8{fill:#FFFFFF;}
	.st9{fill:#515677;}
	.st10{opacity:0.25;}
	.st11{fill:#4C6296;}
	.st12{fill:#FFBE2E;}
	.st13{fill:#8E570E;}
	.st14{fill:#363C4F;}
	.st15{fill:#C6C9D0;}
	.st16{fill:#E6E7EB;}
	.st17{fill:#31466A;}
	.st18{fill:#5266A0;}
	.st19{fill:#F4C144;}
	.st20{fill:#6C84C0;}
	.st21{fill:#F09EC0;}
	.st22{opacity:0.51;}
	.st23{fill:#DE679C;}
	.st24{fill:none;stroke:#161E3F;stroke-width:4;stroke-miterlimit:10;}
	.st25{fill:#F9D8E7;}
</style>
<g>
	<g>
		<path class="st0" d="M72.39,369.44c-5.07,4.58-9.89,9.45-14.42,14.57c-2.22,2.51-10.45,8.39-5.31,12.21
			c1.23,0.91,2.92,0.8,4.42,0.53c2.84-0.52,5.79-1.45,8.29-2.92c2.39-1.4,4.22-2.04,5.09,1.55c0.84,3.44-0.77,8.61,1.23,11.73
			c2.42,3.79,7.04-0.13,9.12-2.28c2.36-2.44,4.38-6.32,7.78-7.46c5.23-1.76,7.73,3.71,9.91,7.26c3.73,6.07,9.39,4.4,10.01-2.46
			c0.73-8.03,0.4-16.15-0.95-24.09"/>
	</g>
	<g class="st1">
		<path class="st2" d="M92.8,384.92c1.96,0.44,4.04,1.03,5.34,2.57c1.3,1.54,1.3,4.3-0.49,5.24c-0.78,0.41-1.8,0.44-2.36,1.13
			c-0.63,0.77-0.31,1.91,0.03,2.84c1.66,4.49,4.1,9.67,8.83,10.43c2.44-1.53,3.85-4.34,4.33-7.18s0.17-5.74-0.15-8.61
			c-0.47-4.2-0.94-8.4-1.41-12.6c0.09,0.79-19-1.45-20.68-1.82c-5.82-1.29-12.16-2.48-17.6-4.82c-0.34,1.25-2.43,2.91-2.31,4
			c0.11,0.97,2.48,2.28,3.23,2.78c2.23,1.5,4.61,2.54,7.24,3.16C82.08,383.28,87.51,383.74,92.8,384.92z"/>
	</g>
	<g>
		<path class="st3" d="M62.5,388.01c3.17-4.68,5.64-9.84,7.29-15.24c-6.67,5.79-12.3,12.77-16.56,20.51
			c0.22-0.4,5.82-0.67,6.76-1.19C61.6,391.2,61.52,389.47,62.5,388.01z"/>
	</g>
	<g>
		<path class="st4" d="M74.35,411.77c-0.21,0-0.41-0.01-0.62-0.03c-1.33-0.13-3.21-0.76-4.63-2.97c-1.71-2.67-1.59-5.89-1.49-8.74
			c0.05-1.48,0.1-2.89-0.12-3.86c-0.16,0.09-0.34,0.19-0.56,0.32c-2.59,1.52-5.8,2.66-9.3,3.3c-1.84,0.34-4.56,0.6-6.81-1.08
			c-2.25-1.67-2.81-3.64-2.89-5c-0.24-4.13,3.52-7.68,6.26-10.27c0.6-0.57,1.16-1.1,1.47-1.45c4.59-5.19,9.52-10.18,14.66-14.82
			l4.13,4.57c-4.97,4.49-9.74,9.31-14.18,14.33c-0.49,0.55-1.12,1.15-1.86,1.84c-3.02,2.85-4.48,4.68-4.34,5.44
			c0.01,0.03,0.12,0.19,0.42,0.41c0.02,0.01,0.39,0.27,2.03-0.03c2.8-0.51,5.32-1.4,7.29-2.55c1.32-0.78,3.79-2.22,6.29-1.16
			c2.47,1.04,3.13,3.75,3.35,4.64c0.44,1.8,0.37,3.73,0.3,5.6c-0.07,2.04-0.15,4.15,0.52,5.2c0.1,0.16,0.16,0.21,0.16,0.21
			c0.3,0,1.94-0.68,4.14-2.97c0.58-0.61,1.19-1.37,1.83-2.18c1.84-2.33,3.92-4.96,7.19-6.06c7.04-2.37,10.82,4.02,12.85,7.46
			c0.23,0.38,0.45,0.76,0.67,1.11c1.14,1.86,2.26,2.38,2.75,2.26c0.52-0.12,1.37-1.12,1.57-3.38c0.7-7.77,0.39-15.61-0.92-23.3
			l6.07-1.04c1.4,8.22,1.73,16.59,0.98,24.89c-0.42,4.63-2.83,8.01-6.3,8.82c-3.46,0.81-6.97-1.07-9.4-5.03
			c-0.24-0.38-0.48-0.79-0.72-1.21c-2.59-4.39-3.74-5.37-5.59-4.75c-1.54,0.52-2.95,2.31-4.32,4.04c-0.71,0.89-1.43,1.82-2.23,2.64
			C80.87,409.2,77.66,411.77,74.35,411.77z M67.2,395.3L67.2,395.3L67.2,395.3z"/>
	</g>
	<g>
		<path class="st0" d="M283.64,362.44c5.8,3.62,11.39,7.57,16.75,11.83c2.63,2.09,11.76,6.43,7.36,11.09
			c-1.05,1.11-2.73,1.3-4.26,1.29c-2.89-0.02-5.95-0.42-8.68-1.43c-2.6-0.96-4.51-1.27-4.74,2.42c-0.22,3.53,2.26,8.35,0.84,11.76
			c-1.72,4.15-6.95,1.1-9.38-0.65c-2.75-1.99-5.42-5.46-8.97-5.99c-5.46-0.81-6.96,5.01-8.49,8.89c-2.61,6.62-8.47,5.98-10.28-0.67
			c-2.12-7.78-3.22-15.83-3.28-23.89"/>
	</g>
	<g>
		<path class="st4" d="M258.95,409.37c-0.13,0-0.26,0-0.39-0.01c-3.56-0.19-6.52-3.1-7.75-7.58c-2.19-8.04-3.33-16.34-3.38-24.67
			l6.16-0.04c0.05,7.8,1.12,15.57,3.17,23.1c0.6,2.19,1.61,3.02,2.14,3.05c0.48,0.05,1.51-0.67,2.31-2.7
			c0.15-0.39,0.3-0.8,0.46-1.21c1.4-3.73,3.98-10.68,11.35-9.59c3.42,0.51,5.93,2.74,8.14,4.71c0.77,0.69,1.5,1.34,2.18,1.83
			c2.47,1.79,4.16,2.22,4.65,2.15c0.01-0.03,0.04-0.09,0.08-0.18c0.48-1.15,0.04-3.22-0.39-5.21c-0.39-1.83-0.8-3.71-0.68-5.56
			c0.06-0.91,0.23-3.69,2.48-5.15c2.28-1.48,4.96-0.49,6.4,0.04c2.14,0.79,4.78,1.22,7.63,1.24c0.02,0,0.04,0,0.07,0
			c1.59,0,1.91-0.29,1.94-0.32c0.26-0.27,0.33-0.45,0.34-0.48c0-0.77-1.76-2.31-5.23-4.59c-0.84-0.55-1.57-1.03-2.15-1.49
			c-5.25-4.17-10.79-8.08-16.46-11.63l3.26-5.22c5.87,3.67,11.6,7.72,17.03,12.03c0.36,0.29,1.01,0.72,1.7,1.17
			c3.16,2.07,7.48,4.91,7.96,9.02c0.16,1.35-0.05,3.4-1.97,5.43c-1.93,2.04-4.66,2.26-6.52,2.26c-3.56-0.02-6.92-0.58-9.73-1.62
			c-0.23-0.09-0.43-0.16-0.6-0.21c-0.05,1,0.25,2.37,0.56,3.82c0.6,2.78,1.27,5.94,0.06,8.86c-1.01,2.43-2.75,3.37-4.04,3.74
			c-3.42,0.96-7.32-1.14-9.99-3.08c-0.93-0.67-1.81-1.46-2.66-2.21c-1.65-1.47-3.35-2.98-4.96-3.22c-1.92-0.29-2.89,0.88-4.67,5.65
			c-0.17,0.45-0.33,0.9-0.5,1.32C265.3,406.93,262.34,409.37,258.95,409.37z M293.27,386.99L293.27,386.99L293.27,386.99z"/>
	</g>
	<g class="st1">
		<path class="st2" d="M267.68,382.22c-2.57,0.63-4.8,1.55-5.85,3.18c-2.12,3.28,1.32,7.04,4.47,7.93c0.29,0.08,0.61,0.17,0.76,0.43
			c0.15,0.26,0.05,0.58-0.05,0.86c-0.84,2.34-4.4,15.61-9.16,14.07c-3.01-1.38-5.03-4.39-6-7.56c-0.97-3.17-1.03-6.53-1.09-9.85
			c-0.08-4.86-0.16-9.72-0.24-14.59c0.02,0.92,21.49-4.44,23.35-5.11c6.46-2.33,12.29-0.78,18.15-4.26c0.26,0.63,4.48,4.46,4.7,4.31
			c-5.76,3.65-11.99,6.54-18.49,8.59C275.68,381.05,271.34,381.33,267.68,382.22z"/>
	</g>
	<g>
		<path class="st5" d="M303.4,148.52c-2.48-2.02-4.9-4.05-6.59-6.49c-4.09-5.89-2.06-16.2-4.07-23.08
			c-2.48-8.51-5.35-17.83-9.05-25.9c-7.26-15.86-20.34-29.75-34.79-39.52c-8.21-5.53-17.42-9.33-26.9-12.06
			c-8.81-2.54-18.21-5.19-27.34-5.45c-0.19-0.01-0.4-0.02-0.55-0.13c-0.17-0.13-0.23-0.35-0.27-0.55
			c-1.58-7.02,0.34-14.58-1.89-21.47c-1.55-4.79-6.89-8.41-11.65-9.37c-1.57-0.32-3.27-0.44-4.72,0.25
			c-0.99,0.47-1.78,1.29-2.43,2.16c-2.09,2.79-3.02,6.4-2.65,9.85c0.25,2.33,2.01,6.39-0.16,8.41c-2.64-1.81-5.28-3.19-8.56-3.35
			c-1.82-0.09-3.83,0.27-4.98,1.68c-0.57,0.7-0.87,1.58-1.15,2.45c-0.81,2.47-1.63,5.06-1.25,7.63c0.06,0.42,1.74,8.66,1.64,8.63
			c-4.45-1.26-9.21-0.7-13.71,0.36c-11.54,2.73-25.39,9.36-32.56,19.22c-3.73,5.13-8.44,9.56-12.27,14.71
			c-4.03,5.43-7.6,11.19-11.01,17.03c-3.14,5.37-6.2,10.96-7.13,17.11c-1.12,7.33-0.59,14.83-2,22.15
			c0.07-0.37-17.13-6.31-18.36-6.82c-7.18-2.95-14.24-6.22-21.66-8.56c-8.43-2.65-18.46-5.97-27.36-4.04
			c-11.76,2.54-8.22,16.72-4.23,25.06c6.04,12.64,16.18,23.64,25.02,34.38c11.05,13.42,14.23,17.37,28.34,31.1l-0.16,3.25
			c-1.62,38.75-14.15,75.18-13.78,113.83c0.17,17.13,2.85,36.34,16.42,46.8c10.71,8.25,27.42,11.05,40.57,10.73
			c13.92-0.34,28.73-2.63,42.03-6.5c13.46-3.92,27.18-7.94,41.35-6.52c26.8,2.69,51.14,13.66,78.28,10.12
			c20.99-2.74,41.09-13.13,46.42-35.16c4.43-18.29-1.01-36.58-3.86-54.44c-3.26-20.39-8.46-41.22-10.8-61.74l-0.47-3.88
			c7.16-5.28,13.66-11.63,18.2-19.28c4.54-7.65,7.04-16.68,6.04-25.52c-0.83-7.3-4.02-14.12-8.41-19.96
			C308.91,152.92,306.11,150.72,303.4,148.52z"/>
	</g>
	<g class="st1">
		<path class="st6" d="M99.46,342.46c22.54,1.9,44.66-3.97,66.96-6.11c22.24-2.13,43.27,0.94,64.88,6.07
			c17.97,4.27,37.34,9.85,55.84,6.25c10.51-2.05,20.8-8.55,24.4-18.63c3.26,15.5-6.78,31.58-20.61,39.28
			c-13.83,7.7-30.52,8.44-46.25,6.64c-24.95-2.86-50.27-14.7-75.62-10.31c-5.47,0.95-10.56,2.83-16,3.8
			c-6.21,1.11-12.38,2.47-18.54,3.81c-7.38,1.6-14.84,2.8-22.34,3.63c-20.04,2.24-43.38,0.52-55.65-15.48
			c-3.99-5.21-6.25-8.77-8.27-14.95c-2.13-6.55-3.45-16.35-3.6-23.28c-0.21-9.82,2.33-19.55,2.68-29.35
			c-0.16,4.48,1.03,8.92,2.83,13.02C59.11,327.22,77.31,340.59,99.46,342.46z"/>
	</g>
	<g>
		<path class="st7" d="M294.22,150.04C287.64,97.74,259.74,55.62,205,47.18C161,40.86,113.56,52.33,91.53,94.29
			c-6.5,12-10.39,25.38-12.81,38.97c0.58-6.89,1.64-13.77,3.32-20.52C96.41,53.23,151.48,33.4,205.9,41.11
			C262.27,49.83,292.84,95.21,294.22,150.04L294.22,150.04z"/>
	</g>
	<g>
		<path class="st8" d="M181.07,350.45c11.29,1.58,22.23,5.04,33.48,6.86c15.23,2.47,31.25,1.83,45.5-4.07
			c14.25-5.9,26.52-17.51,31.15-32.22c3.65-11.59,2.46-24.09,1.02-36.17c-2.94-24.69-6.75-49.26-9.77-73.94
			c-1.5-12.25-1.76-24.91-3.74-37.06c-4.17-25.63-2.4-72.09-39.84-71.3c-12.21,0.26-19.06,10.23-22.69,20.74
			c-3.55,10.28-5.67,21.42-5.6,32.2c-4.07-0.23-8.23-1.16-12.28-1.79c-0.38-0.06-0.78-0.13-1.09-0.36
			c-0.56-0.43-0.62-1.24-0.64-1.95c-0.19-9.47-0.88-19.07-4.07-27.99s-9.14-17.18-17.63-21.38c-3.5-1.73-7.32-2.73-11.18-3.28
			c-17.54-2.49-32.27,4.18-39.79,20.26c-5.6,11.96-8.21,23.84-10.73,36.7c-5.55,28.29-12.98,56.3-24.13,82.89
			c-7.93,18.9-21.95,39.87-21.59,60.95c0.55,31.93,26.87,52.9,57.22,54.62C143.83,355.24,161.9,347.76,181.07,350.45z"/>
	</g>
	<g>
		<path class="st4" d="M293.29,142.33c-3.73-43.31-21.59-73.72-53.09-90.39c-23.61-12.49-46.53-12.2-46.75-12.19l-0.13-6.16
			c0.97-0.03,24.51-0.37,49.52,12.78c41.88,22.01,53.89,64.04,56.59,95.43L293.29,142.33z"/>
	</g>
	<g>
		<path class="st4" d="M158.71,133.26c0.79,7.09,3.47,17.06,12.23,12.45c2.22-1.26,4.37-3.31,6.55-5.8
			c0.74,7.45-6.88,15.37-14.64,12.35C155.13,149.72,154.2,138.88,158.71,133.26L158.71,133.26z"/>
	</g>
	<g>
		
			<ellipse transform="matrix(0.963 -0.2697 0.2697 0.963 -7.7387 45.1677)" class="st7" cx="160.53" cy="50.75" rx="14.09" ry="8.12"/>
	</g>
	<g>
		<path class="st7" d="M160.12,45.29c-2.59-4.57-4.04-9.66-3.45-15.03c0.61-5.35,5.25-7.67,9.94-5.14c1.18,0.59,2.23,1.34,3.21,2.2
			c-3.24-0.58-7.07-2.15-9.17,0.57C158.25,33.14,160.13,39.55,160.12,45.29L160.12,45.29z"/>
	</g>
	<g>
		<path class="st7" d="M176.93,40.95c-3.51-7.87-8.22-24.77-2.73-32.32c1.35-2.1,4.72-3.51,7.07-2.3c2.98,1.47,4.69,4.11,6.24,6.8
			c-1.68-1.06-3.24-2.21-4.87-3.05c-9.15-5.08-5.66,14.64-5.78,19.27C176.97,33.16,177.1,36.99,176.93,40.95L176.93,40.95z"/>
	</g>
	<g>
		<path class="st4" d="M157.81,42.69c-2.91-3.14-4.73-7.33-5.34-11.62c-1.69-10.81,12.45-16.47,18.8-7.65
			c3.21,4.57,3.61,10.12,4.98,15.32c0.13,0.53-0.2,1.07-0.74,1.18c-0.5,0.11-1-0.2-1.13-0.69c-0.91-3.28-1.93-6.52-2.88-9.81
			c-2.31-8.41-6.25-19.43,1.01-26.88c8.11-6.51,17.15,0.63,20.56,8.46c2.44,4.99,2.92,10.7,2.65,16.02
			c-0.21,3.49-0.75,6.92-1.68,10.25c-0.05,0.17-0.22,0.26-0.39,0.22c-0.13-0.04-0.21-0.15-0.23-0.27
			c-0.71-6.77-1.51-13.48-3.69-19.31c-1.76-4.64-7.53-13.97-13.28-10.67c-3.15,2.71-2.87,7.42-3.21,11.79
			c-0.24,6.52,0.82,13.4,2.98,19.63c0,0-1.87,0.5-1.87,0.5c-1.64-4.89-3.74-10.57-8.08-13.59c-4.27-2.46-9.48,0.1-9.57,5.25
			c-0.01,1.8,0.04,3.93,0.3,5.73c0.22,1.89,0.85,3.82,1.36,5.85C158.45,42.71,158.01,42.94,157.81,42.69L157.81,42.69z"/>
	</g>
	<g>
		<path class="st7" d="M6.96,137.3c-2.92-3.79-6.59-7.89-6.35-13.03c0.6-5.69,5.99-9.44,11.3-10.25c4.96-0.91,9.9-0.17,14.73,0.53
			c9.46,1.42,18.56,4.56,27.39,7.95c13.14,5.11,26.18,10.74,38.04,18.5c0,0-26.71-8.64-26.71-8.64
			c-13.31-4.08-26.18-9.29-39.72-12.12c-6.55-1.1-12.97-3.3-18.78,0.13C0,124.68,4,131.81,6.96,137.3L6.96,137.3z"/>
	</g>
	<g>
		<path class="st4" d="M78.8,132.92l-6.11-0.73c2.77-23.18,12.07-45.25,26.18-62.16c15.33-18.37,35.42-29.89,58.09-33.31l0.92,6.09
			C123.25,48.03,85.37,77.92,78.8,132.92z"/>
	</g>
	<g class="st1">
		<path class="st6" d="M3.98,127.85c3.32,11.92,11.74,21.8,21.19,29.78c9.44,7.99,20.07,14.46,29.71,22.22
			c1.67,1.35,3.35,2.77,4.48,4.59c1.77,2.85,2.04,6.34,2.27,9.69c0.2,3.01,0.41,6.02,0.61,9.04c0.08,1.14,0.11,2.4-0.63,3.26
			c-2.54-3.31-5.33-6.43-8.34-9.32c-3.12-3.01-6.48-5.77-9.55-8.83c-3.53-3.52-6.67-7.42-9.8-11.3
			c-5.18-6.44-10.37-12.88-15.55-19.32c-1.59-1.98-3.18-3.96-4.56-6.09c-3.26-5.05-5.22-10.81-7.15-16.5"/>
	</g>
	<g class="st10">
		<path class="st11" d="M181.07,350.45c11.29,1.58,22.23,5.04,33.48,6.86c15.23,2.47,31.25,1.83,45.5-4.07
			c2.56-1.06,5.05-2.31,7.45-3.73c-12.25-1-24.53-4.32-36.21-7.09c-21.61-5.14-42.64-8.21-64.88-6.07c-22.3,2.14-44.41,8-66.96,6.11
			c-4.25-0.36-8.35-1.15-12.27-2.32c10.18,8.27,23.4,13.22,37.49,14.02C143.83,355.24,161.9,347.76,181.07,350.45z"/>
	</g>
	<g>
		<path class="st0" d="M200.43,188.92c-0.22,0-0.45-0.01-0.68-0.02c-2.2-0.15-4.07-1.13-5.4-2.83c-3.13-4-2.14-10.77-1.91-12.08
			c0.21-1.21,1.04-2.22,2.18-2.67c0.42-0.16,0.85-0.24,1.29-0.24c0.76,0,1.51,0.24,2.13,0.72c2.69,2.04,7.52,2.6,9.15,2.65
			c1.01,0.03,1.96,0.49,2.61,1.26c0.65,0.78,0.94,1.79,0.78,2.79C210.02,182.1,207.19,188.92,200.43,188.92
			C200.43,188.92,200.43,188.92,200.43,188.92z"/>
	</g>
	<g class="st1">
		<path class="st2" d="M200.43,188.92c-0.22,0-0.45-0.01-0.68-0.02c-2.2-0.15-4.07-1.13-5.4-2.83c-3.13-4-2.14-10.77-1.91-12.08
			c0.21-1.21,1.04-2.22,2.18-2.67c0.42-0.16,0.85-0.24,1.29-0.24c0.76,0,1.51,0.24,2.13,0.72c2.69,2.04,7.52,2.6,9.15,2.65
			c1.01,0.03,1.96,0.49,2.61,1.26c0.65,0.78,0.94,1.79,0.78,2.79C210.03,182.1,207.2,188.92,200.43,188.92
			C200.43,188.92,200.43,188.92,200.43,188.92z"/>
	</g>
	<g>
		<path class="st4" d="M200.43,189.07c-7.18,0.31-10.26-7.9-10.12-13.99c0,0,0.01-1,0.01-1c-0.08-3.68,3.83-6.48,7.37-5.43
			c1.3,0.32,2.23,1.29,3.5,1.73c3.45,1.86,8.92,0.73,10.67,4.9c0.75,1.57,0.53,3.31-0.14,4.84
			C209.9,184.84,205.68,189.21,200.43,189.07L200.43,189.07z M200.43,188.77c5.06,0.07,8.59-4.49,9.66-9.05
			c0.3-1.13,0.49-2.32-0.14-3.35c-0.55-0.99-1.64-1.64-2.76-1.66c-2.46-0.12-4.89-0.55-7.2-1.48c-1.13-0.37-2.09-1.36-3.15-1.73
			c-1.07-0.34-2.3-0.06-3.13,0.7c-1.67,1.7-1.25,4.51-1.35,6.73C192.3,183.63,195.13,188.98,200.43,188.77L200.43,188.77z"/>
	</g>
	<g>
		<path class="st4" d="M196.96,173.79c0,0-1.47,9.85,3.3,10.23s5.74-7.04,5.74-7.04S200.37,176.83,196.96,173.79z"/>
	</g>
	<g>
		<path class="st0" d="M224.76,168.82c0.07,0.47,0.06,0.93-0.04,1.38c-0.44,1.88-2.83,3.37-4.48,4.11
			c-3.59,1.59-7.8,1.72-11.67,1.62c-1.57-0.04-3.15-0.16-4.69-0.45c-4.82-0.91-19.73-5.72-17.35-12.8
			c2.18-6.48,11.43-8.01,17.26-7.51c6.78,0.59,13.68,3.73,18.25,8.83C223.11,165.19,224.49,167.02,224.76,168.82z"/>
	</g>
	<g class="st1">
		<path class="st2" d="M198.95,170.33c3.55,0.78,7.2,0.94,10.83,1.05c2.02,0.06,4.06,0.11,6.04-0.29c3.42-0.69,5.88-3.14,8.43-5.39
			c0.25,2.85,0.5,5.7-2.24,7.43c-1.61,1.02-3.58,1.32-5.48,1.49c-5.33,0.48-10.73,0.19-15.98-0.84c-2.3-0.45-5.13-0.86-7.26-1.85
			c-2.05-0.95-3.98-3.07-5.57-4.65c-0.62-0.62-1.22-1.27-1.59-2.06c-0.38-0.83-0.66-2.11,0.48-2.06c0.71,0.03,1.57,1.54,2.03,2
			C191.38,167.95,195.19,169.51,198.95,170.33z"/>
	</g>
	<g>
		<path class="st3" d="M212.6,159.4c-3.44-0.98-7.07-1.32-10.37-1.06c-2.68,0.22-5.49,1.23-8.05,2.06
			c-1.11,0.36-7.15,2.81-7.04,4.15c-0.36-4.09,0.2-5.81,4.08-7.41c3.8-1.57,7.7-3.06,11.8-3.39c4.1-0.33,8.47,0.65,11.45,3.48
			c0.5,0.48,1.7,2.01,1.02,2.77C214.94,160.6,213.24,159.58,212.6,159.4z"/>
	</g>
	<g>
		<path class="st4" d="M225.06,168.77c0.42,2.26-1.38,4.14-2.98,5.47c-6.77,5.77-17.06,5.72-24.43,1.13
			c-8.71-4.7-18.92-9.53-8.83-19.74c6.89-5.94,18.15-8.83,25.7-2.61c3.53,2.69,5.58,6.51,7.86,10.09
			C223.51,164.86,224.7,166.65,225.06,168.77L225.06,168.77z M224.45,168.86c-0.93-3.87-5.26-5.96-8.26-8.09
			c-3.08-1.84-6.13-3.79-9.5-4.46c-5.07-1.15-18.08,2.3-18.91,8.61c1.76,6.64,10.94,7.68,16.65,8.1c2.8,0.05,8.44,0.32,11.23,0.53
			C218.84,173.71,224.69,173.12,224.45,168.86L224.45,168.86z"/>
	</g>
	<g>
		<path class="st5" d="M319.35,175.58c-1.21-10.73-7.46-20.41-15.48-27.64c-8.02-7.23-17.74-12.28-27.54-16.82
			c-21.52-9.97-44.7-19.68-68.89-18.76c-10.33,0.39-16.47,8.77-12.91,18.8c1.41,3.97,3.9,7.45,6.51,10.75
			c11.33,14.33,25.34,26.25,40.18,36.8c14.77,10.51,34.67,26.04,52.41,30.73c7.04,1.86,14.88,0.29,19.44-6.87
			C317.83,195.12,320.34,184.34,319.35,175.58z"/>
	</g>
	<g>
		<path class="st7" d="M322,179.39c-6.18-21.78-27.05-32.35-46.47-40.43c-20.41-8.75-41.28-17.75-63.7-18.72
			c-7.06-0.9-13.54,2.97-13.46,10.68c0.08,5.32,2.69,10.09,5.32,14.81c-4.18-3.8-8.22-8.49-9.51-14.32
			c-1.58-6.6,1.88-13.95,8.03-16.98c3.76-2.15,8.24-2.32,12.37-2.55c22.99-0.8,45.02,7.86,65.22,17.81
			C299.51,138.86,322.53,155.2,322,179.39L322,179.39z"/>
	</g>
	<g class="st1">
		<path class="st6" d="M198.12,133.8c3.46,6.65,8.97,11.98,14.55,16.99c19.36,17.38,41.39,32.7,66.52,39.44
			c4.9,1.31,9.98,2.33,14.31,4.97c0.99,0.6,2.04,1.49,1.99,2.65c-0.02,0.58-0.33,1.1-0.66,1.57c-2.31,3.19-6.04,6.41-9.97,6.24
			c-5.2-0.22-11.31-6.6-15.76-9.15c-5.4-3.1-10.74-6.31-16-9.64c-4.78-3.03-9.5-6.15-14.15-9.36c-4.03-2.79-6.95-6.09-10.63-9.29
			c-8.08-7.03-18.06-13.06-21.7-23.13"/>
	</g>
	<g>
		<path class="st4" d="M91.94,140.62c-22.95-10.02-45.92-20.85-70.56-25.66c-5.4-0.58-12.26-1.21-15.85,3.18
			c-0.94,1.32-1.39,3.06-1.48,4.89c-0.19,7.85,3.91,15.48,8.11,22.09c4.42,6.92,9.78,13.29,15.21,19.68
			c10.84,12.92,21.27,25.67,33.66,37.14c0,0,0.87,0.85,0.87,0.85l-0.05,1.24c-0.87,35.1-11.51,69.16-14.15,104
			c-2.85,42.05,4.87,68.36,52.35,69.49c11.56-0.1,23.18-1.42,34.47-4.04c11.35-2.6,22.37-6.85,34-8.53
			c23.4-3.68,46.49,5.86,69.41,8.46c21.87,2.8,47.48-0.54,62.31-18.25c14.71-18.89,7.71-43.58,3.81-65.33
			c-2.78-17.31-6.79-34.3-9.71-51.62c-1.11-6.42-1.9-12.94-2.7-19.33c5.84-4.22,11.38-9.06,15.64-14.73
			c18.77-24.83,5.94-49.71-18.96-63.46c-17.67-9.5-36.69-18.37-56.14-23.18c-6.53-1.54-13.18-2.52-19.85-2.73
			c-5.76-0.37-12.83,0.28-15.53,6.19c-2.75,5.82,0.28,12,3.76,16.97c3.95,5.39,8.35,10.64,13.08,15.49
			c9.44,9.78,20.09,18.4,31.16,26.41c11.08,8.04,22.69,15.36,34.23,22.79c0,0-0.32,0.53-0.32,0.53
			c-23.79-13.76-47.78-27.83-67.56-47.27c-4.99-4.84-9.57-10.02-13.88-15.58c-2.1-2.85-4.09-5.99-5.17-9.67
			c-2.73-7.79,1.31-16.89,9.27-19.55c3.56-1.34,7.34-1.23,11.04-1.25c7.06,0.1,14.07,1.03,20.92,2.52
			c13.73,2.98,26.7,8.23,39.31,13.79c12.76,5.64,25.82,11.74,35.92,21.89c24.78,24.71,14.72,56.3-11.54,74.95c0,0,1.3-3.02,1.3-3.02
			c2.36,23.21,7.99,45.81,11.49,68.85c4.1,22.41,10.55,50.03-5.72,69.51c-16.03,18.89-43.6,22.16-66.67,18.57
			c-17.47-2.6-34.02-8.18-51.46-10.17c-17.53-2.19-34.22,4.8-51.05,8.64c-25.99,5.46-65.48,9.48-82.51-15.63
			c-18.79-30.77-4.38-87.24,0.49-121.47c1.76-11.28,2.98-23.09,3.49-34.52c0,0,0.82,2.08,0.82,2.08
			c-6.01-5.89-12.03-11.9-17.6-18.36c-5.57-6.44-10.7-13.05-16.09-19.48c-8.04-9.8-16.49-19.94-21.19-32.03
			c-3.2-8.07-4.74-21.35,6.26-24.14c4.52-1.19,8.99-0.94,13.28-0.24c8.48,1.54,16.37,4.47,24.4,7.39
			c15.81,6.02,30.93,13.46,45.91,21.08C92.2,140.06,91.94,140.62,91.94,140.62L91.94,140.62z"/>
	</g>
</g>
</svg>
