<?xml version="1.0" encoding="utf-8"?>
<!-- Generator: Adobe Illustrator 26.1.0, SVG Export Plug-In . SVG Version: 6.00 Build 0)  -->
<svg version="1.1" id="圖層_1" xmlns="http://www.w3.org/2000/svg" xmlns:xlink="http://www.w3.org/1999/xlink" x="0px" y="0px"
	 viewBox="0 0 388.05 603.43" style="enable-background:new 0 0 388.05 603.43;" xml:space="preserve">
<style type="text/css">
	.st0{fill:#5266A0;}
	.st1{fill:#FFFFFF;}
	.st2{fill:#F4C144;}
	.st3{opacity:0.42;}
	.st4{fill:#8E570E;}
	.st5{fill:#161E3F;}
	.st6{fill:#162550;}
	.st7{opacity:0.25;}
	.st8{fill:#4C6296;}
	.st9{fill:#6C84C0;}
	.st10{fill:#F09EC0;}
	.st11{opacity:0.51;}
	.st12{fill:#DE679C;}
	.st13{fill:none;stroke:#161E3F;stroke-width:4;stroke-miterlimit:10;}
	.st14{fill:#F9D8E7;}
	.st15{fill:#FAEAD6;}
	.st16{fill:#515677;}
	.st17{fill:#7A7FA2;}
	.st18{fill:#F3A243;}
	.st19{fill:#7C551D;}
	.st20{fill:#FFBE2E;}
	.st21{fill:#C6C9D0;}
	.st22{fill:#E6E7EB;}
	.st23{fill:#31466A;}
	.st24{fill:#535A80;}
	.st25{fill:#363C4F;}
	.st26{fill:#231815;}
</style>
<g>
	<g>
		<path class="st18" d="M82.16,434.23c-5.76,5.39-11.23,11.11-16.37,17.14c-2.52,2.95-11.86,9.86-6.03,14.35
			c1.39,1.07,3.31,0.94,5.02,0.62c3.23-0.61,6.57-1.71,9.41-3.44c2.71-1.65,4.78-2.4,5.78,1.82c0.95,4.05-0.87,10.13,1.39,13.79
			c2.75,4.45,7.99-0.15,10.35-2.68c2.68-2.87,4.97-7.43,8.83-8.78c5.94-2.07,8.77,4.36,11.25,8.54c4.23,7.13,10.65,5.18,11.36-2.89
			c0.82-9.44,0.46-18.99-1.08-28.33"/>
	</g>
	<g class="st3">
		<path class="st19" d="M105.33,452.43c2.23,0.51,4.59,1.21,6.06,3.02c1.47,1.81,1.47,5.06-0.55,6.16
			c-0.89,0.48-2.05,0.52-2.68,1.32c-0.71,0.91-0.35,2.24,0.03,3.34c1.88,5.29,4.66,11.37,10.02,12.26c2.77-1.8,4.37-5.1,4.92-8.44
			c0.55-3.34,0.19-6.75-0.18-10.12c-0.53-4.94-1.07-9.87-1.6-14.81c0.1,0.93-21.57-1.7-23.47-2.14c-6.61-1.52-13.81-2.91-19.98-5.67
			c-0.38,1.47-2.76,3.43-2.62,4.7c0.13,1.14,2.81,2.68,3.66,3.27c2.53,1.76,5.24,2.99,8.21,3.71
			C93.16,450.5,99.32,451.04,105.33,452.43z"/>
	</g>
	<g>
		<path class="st15" d="M70.94,456.06c3.6-5.51,6.4-11.57,8.28-17.92c-7.57,6.81-13.96,15.01-18.79,24.11
			c0.25-0.47,6.6-0.79,7.67-1.4C69.91,459.81,69.82,457.77,70.94,456.06z"/>
	</g>
	<g>
		<path class="st5" d="M84.39,484c-0.23,0-0.47-0.01-0.7-0.04c-1.51-0.16-3.65-0.89-5.26-3.5c-1.94-3.14-1.81-6.93-1.69-10.27
			c0.06-1.74,0.12-3.39-0.13-4.54c-0.18,0.1-0.39,0.22-0.63,0.37c-2.94,1.78-6.58,3.12-10.55,3.88c-2.09,0.4-5.18,0.7-7.74-1.27
			c-2.55-1.96-3.19-4.28-3.28-5.88c-0.28-4.85,3.99-9.03,7.11-12.08c0.68-0.66,1.32-1.29,1.67-1.7
			c5.21-6.11,10.81-11.97,16.64-17.43l4.68,5.37c-5.64,5.28-11.05,10.94-16.09,16.85c-0.56,0.65-1.27,1.36-2.11,2.17
			c-3.42,3.35-5.08,5.5-4.93,6.39c0.01,0.04,0.14,0.23,0.47,0.49c0.04,0.03,0.47,0.32,2.31-0.04c3.17-0.6,6.04-1.64,8.28-3
			c1.5-0.91,4.3-2.61,7.15-1.36c2.8,1.23,3.55,4.41,3.8,5.45c0.5,2.12,0.42,4.39,0.35,6.58c-0.08,2.4-0.17,4.88,0.59,6.11
			c0.12,0.19,0.19,0.24,0.19,0.24c0.34,0,2.2-0.8,4.7-3.49c0.66-0.71,1.35-1.61,2.08-2.57c2.08-2.74,4.45-5.84,8.16-7.13
			c8-2.78,12.28,4.73,14.58,8.77c0.26,0.45,0.51,0.89,0.76,1.31c1.3,2.19,2.57,2.81,3.12,2.65c0.59-0.14,1.55-1.32,1.78-3.97
			c0.8-9.14,0.44-18.35-1.05-27.39l6.89-1.22c1.59,9.66,1.97,19.5,1.12,29.26c-0.47,5.44-3.21,9.42-7.15,10.37
			c-3.93,0.95-7.91-1.26-10.67-5.91c-0.27-0.45-0.54-0.93-0.82-1.42c-2.94-5.16-4.24-6.31-6.34-5.58c-1.74,0.6-3.35,2.71-4.9,4.75
			c-0.8,1.05-1.63,2.14-2.53,3.11C91.79,480.97,88.15,484,84.39,484z M76.27,464.64L76.27,464.64z"/>
	</g>
	<g>
		<path class="st18" d="M321.93,425.99c6.58,4.26,12.93,8.91,19.01,13.91c2.98,2.45,13.34,7.56,8.36,13.04
			c-1.19,1.31-3.1,1.53-4.84,1.52c-3.28-0.02-6.76-0.49-9.85-1.68c-2.95-1.13-5.12-1.5-5.38,2.84c-0.25,4.16,2.57,9.81,0.96,13.83
			c-1.96,4.88-7.89,1.3-10.64-0.77c-3.12-2.34-6.15-6.42-10.18-7.04c-6.2-0.96-7.9,5.89-9.64,10.45c-2.96,7.79-9.62,7.03-11.67-0.79
			c-2.4-9.14-3.66-18.61-3.72-28.09"/>
	</g>
	<g>
		<path class="st5" d="M293.91,481.18c-0.15,0-0.29,0-0.44-0.01c-4.04-0.23-7.4-3.65-8.79-8.92c-2.49-9.45-3.78-19.22-3.84-29.01
			l6.99-0.05c0.06,9.17,1.27,18.31,3.6,27.16c0.68,2.57,1.82,3.56,2.43,3.59c0.51-0.04,1.71-0.79,2.62-3.18
			c0.17-0.46,0.35-0.94,0.52-1.43c1.58-4.39,4.53-12.55,12.88-11.27c3.88,0.6,6.73,3.22,9.24,5.54c0.88,0.81,1.7,1.57,2.48,2.15
			c2.81,2.11,4.72,2.59,5.27,2.52c0.01-0.03,0.05-0.1,0.09-0.21c0.54-1.35,0.04-3.78-0.45-6.13c-0.44-2.15-0.9-4.37-0.77-6.54
			c0.07-1.07,0.27-4.34,2.82-6.06c2.59-1.74,5.63-0.58,7.27,0.05c2.44,0.93,5.43,1.44,8.65,1.45c1.9,0,2.26-0.36,2.28-0.38
			c0.29-0.32,0.38-0.52,0.38-0.57c0-0.9-2-2.72-5.93-5.4c-0.96-0.65-1.78-1.21-2.44-1.76c-5.94-4.89-12.23-9.49-18.69-13.67
			l3.7-6.14c6.68,4.33,13.18,9.09,19.33,14.14c0.41,0.34,1.15,0.84,1.93,1.37c3.58,2.44,8.49,5.78,9.03,10.6
			c0.18,1.59-0.06,3.99-2.24,6.38c-2.19,2.41-5.28,2.66-7.4,2.65c-4.03-0.02-7.85-0.68-11.04-1.9c-0.27-0.1-0.49-0.18-0.69-0.25
			c-0.05,1.17,0.28,2.78,0.63,4.49c0.68,3.27,1.45,6.98,0.07,10.42c-1.15,2.86-3.13,3.97-4.59,4.39c-3.88,1.14-8.31-1.34-11.34-3.62
			c-1.05-0.79-2.05-1.71-3.02-2.6c-1.87-1.72-3.81-3.51-5.63-3.79c-2.19-0.34-3.27,1.03-5.3,6.65c-0.19,0.53-0.38,1.05-0.57,1.55
			C301.12,478.31,297.75,481.18,293.91,481.18z M332.87,454.86L332.87,454.86L332.87,454.86z"/>
	</g>
	<g class="st3">
		<path class="st19" d="M303.82,449.26c-2.92,0.74-5.45,1.83-6.64,3.74c-2.4,3.85,1.5,8.27,5.07,9.33c0.33,0.1,0.69,0.2,0.86,0.5
			c0.17,0.31,0.05,0.69-0.06,1.02c-0.95,2.76-5,18.35-10.4,16.54c-3.42-1.63-5.71-5.16-6.81-8.88s-1.17-7.68-1.23-11.58
			c-0.09-5.72-0.18-11.43-0.27-17.15c0.02,1.08,24.39-5.22,26.5-6.01c7.33-2.74,13.94-0.92,20.6-5c0.29,0.74,5.08,5.24,5.34,5.07
			c-6.53,4.29-13.61,7.69-20.98,10.1C312.9,447.88,307.98,448.21,303.82,449.26z"/>
	</g>
	<g>
		<path class="st24" d="M344.36,174.46c-2.82-2.38-5.56-4.76-7.48-7.63c-4.64-6.93-2.34-19.05-4.62-27.14
			c-2.82-10.01-6.08-20.97-10.27-30.45c-8.24-18.65-23.08-34.98-39.49-46.47c-9.31-6.5-19.77-10.97-30.53-14.18
			c-10-2.99-20.67-6.1-31.03-6.41c-0.22-0.01-0.45-0.02-0.62-0.15c-0.19-0.15-0.26-0.41-0.31-0.65c-1.79-8.25,0.38-17.14-2.14-25.24
			c-1.76-5.63-7.82-9.89-13.22-11.02c-1.78-0.37-3.71-0.52-5.35,0.29c-1.12,0.55-2.02,1.51-2.76,2.54
			c-2.38,3.28-3.43,7.52-3.01,11.59c0.28,2.74,2.28,7.51-0.18,9.89c-3-2.13-5.99-3.75-9.71-3.94c-2.06-0.11-4.35,0.32-5.66,1.98
			c-0.65,0.82-0.98,1.86-1.3,2.88c-0.92,2.91-1.85,5.95-1.42,8.98c0.07,0.49,1.97,10.18,1.87,10.15
			c-5.05-1.49-10.46-0.82-15.57,0.43c-13.1,3.21-28.81,11-36.96,22.6c-4.23,6.03-9.58,11.24-13.92,17.3
			c-4.58,6.39-8.63,13.16-12.5,20.02c-3.56,6.31-7.03,12.89-8.1,20.12c-1.27,8.61-0.67,17.44-2.27,26.04
			c0.08-0.43-19.44-7.42-20.84-8.02c-8.15-3.47-16.17-7.32-24.58-10.07c-9.57-3.12-20.95-7.02-31.05-4.76
			c-13.35,2.99-9.33,19.65-4.81,29.47c6.86,14.86,18.37,27.8,28.4,40.42c12.54,15.79,16.15,20.43,32.17,36.57l-0.18,3.82
			c-1.84,45.56-16.06,88.4-15.64,133.85c0.19,20.15,3.23,42.73,18.64,55.03c12.15,9.7,31.12,12.99,46.04,12.61
			c15.8-0.39,32.61-3.09,47.71-7.64c15.27-4.61,30.85-9.34,46.94-7.67c30.42,3.16,58.05,16.06,88.85,11.9
			c23.83-3.22,46.63-15.44,52.68-41.34c5.02-21.51-1.14-43.01-4.38-64.02c-3.7-23.98-9.6-48.46-12.26-72.59l-0.54-4.56
			c8.13-6.2,15.5-13.67,20.66-22.67c5.15-9,7.99-19.61,6.85-30.01c-0.94-8.59-4.56-16.61-9.54-23.46
			C350.61,179.64,347.44,177.05,344.36,174.46z"/>
	</g>
	<g class="st3">
		<path class="st6" d="M112.89,402.5c25.59,2.23,50.69-4.66,76-7.18c25.24-2.51,49.11,1.1,73.64,7.14
			c20.39,5.02,42.38,11.59,63.38,7.35c11.93-2.41,23.61-10.05,27.69-21.91c3.7,18.22-7.69,37.13-23.4,46.19
			c-15.7,9.06-34.64,9.93-52.5,7.81c-28.31-3.36-57.06-17.29-85.83-12.12c-6.21,1.11-11.99,3.32-18.16,4.47
			c-7.05,1.31-14.05,2.91-21.04,4.48c-8.37,1.88-16.84,3.29-25.36,4.27c-22.74,2.63-49.24,0.61-63.16-18.2
			c-4.53-6.12-7.1-10.31-9.38-17.58c-2.42-7.7-3.91-19.22-4.08-27.38c-0.24-11.54,2.65-22.99,3.05-34.51
			c-0.18,5.26,1.17,10.49,3.21,15.31C67.09,384.59,87.75,400.3,112.89,402.5z"/>
	</g>
	<g>
		<path class="st17" d="M333.95,170.3c-7.47-59.37-39.13-107.18-101.27-116.75c-49.95-7.18-103.78,5.84-128.79,53.46
			c-7.38,13.62-11.79,28.8-14.54,44.23c0.66-7.82,1.87-15.62,3.77-23.29c16.31-67.54,78.82-90.05,140.58-81.31
			C297.68,56.56,332.38,108.07,333.95,170.3L333.95,170.3z"/>
	</g>
	<g>
		<path class="st1" d="M205.51,411.9c12.81,1.86,25.24,5.93,38.01,8.07c17.28,2.9,35.47,2.15,51.64-4.79
			c16.17-6.94,30.1-20.59,35.36-37.88c4.15-13.63,2.79-28.33,1.16-42.52c-3.34-29.03-7.66-57.92-11.09-86.94
			c-1.7-14.41-1.99-29.29-4.24-43.58c-4.74-30.14-2.72-84.76-45.22-83.83c-13.86,0.3-21.63,12.03-25.75,24.39
			c-4.03,12.09-6.43,25.19-6.35,37.87c-4.62-0.27-9.34-1.36-13.94-2.11c-0.43-0.07-0.89-0.15-1.24-0.42
			c-0.64-0.5-0.71-1.46-0.72-2.29c-0.21-11.13-1-22.43-4.62-32.91s-10.38-20.2-20.01-25.14c-3.97-2.04-8.31-3.22-12.69-3.86
			c-19.91-2.93-36.63,4.92-45.16,23.82c-6.35,14.07-9.32,28.03-12.18,43.15c-6.29,33.26-14.74,66.2-27.39,97.46
			c-9,22.23-24.92,46.88-24.51,71.67c0.62,37.54,30.5,62.2,64.94,64.22C163.25,417.54,183.76,408.74,205.51,411.9z"/>
	</g>
	<g>
		<path class="st5" d="M333.95,165.21c-4.23-49.16-25.57-87.34-61.33-106.25c-26.81-14.18-52.81-13.88-53.06-13.83l-0.15-6.99
			c1.12-0.01,27.82-0.41,56.2,14.5c47.53,24.98,63.78,79.97,66.85,115.6L333.95,165.21z"/>
	</g>
	<g>
		<path class="st5" d="M180.14,151.25c0.9,8.05,3.94,19.37,13.89,14.13c2.52-1.43,4.96-3.76,7.44-6.58
			c0.84,8.45-7.81,17.45-16.62,14.02C176.07,169.94,175.02,157.63,180.14,151.25L180.14,151.25z"/>
	</g>
	<g>
		
			<ellipse transform="matrix(0.963 -0.2697 0.2697 0.963 -8.7834 51.2657)" class="st17" cx="182.21" cy="57.6" rx="15.99" ry="9.22"/>
	</g>
	<g>
		<path class="st17" d="M181.74,51.4c-2.94-5.19-4.59-10.97-3.91-17.05c0.69-6.08,5.96-8.7,11.28-5.84c1.33,0.67,2.54,1.52,3.65,2.5
			c-3.68-0.66-8.03-2.45-10.4,0.65C179.62,37.62,181.75,44.88,181.74,51.4L181.74,51.4z"/>
	</g>
	<g>
		<path class="st17" d="M200.82,46.48c-3.99-8.93-9.33-28.12-3.1-36.69c1.53-2.38,5.35-3.99,8.02-2.61
			c3.38,1.66,5.32,4.67,7.09,7.72c-1.9-1.2-3.68-2.51-5.53-3.46c-10.38-5.77-6.43,16.61-6.56,21.87
			C200.86,37.64,201.01,41.98,200.82,46.48L200.82,46.48z"/>
	</g>
	<g>
		<path class="st5" d="M179.11,48.45c-3.3-3.56-5.37-8.32-6.06-13.18c-1.92-12.27,14.13-18.69,21.33-8.68
			c3.65,5.19,4.1,11.48,5.65,17.39c0.15,0.6-0.23,1.22-0.84,1.34c-0.57,0.12-1.13-0.23-1.28-0.78c-1.04-3.72-2.19-7.4-3.27-11.14
			c-2.62-9.54-7.1-22.05,1.15-30.51c9.21-7.38,19.47,0.72,23.34,9.61c2.77,5.66,3.32,12.14,3.01,18.18
			c-0.23,3.96-0.85,7.86-1.9,11.63c-0.05,0.19-0.25,0.3-0.44,0.25c-0.14-0.04-0.24-0.17-0.26-0.31c-0.81-7.68-1.72-15.3-4.19-21.92
			c-1.99-5.26-8.55-15.86-15.07-12.11c-3.57,3.08-3.26,8.42-3.65,13.38c-0.27,7.4,0.94,15.21,3.38,22.29c0,0-2.12,0.56-2.12,0.56
			c-1.86-5.56-4.25-11.99-9.17-15.43c-4.85-2.8-10.77,0.11-10.87,5.96c-0.02,2.04,0.05,4.47,0.34,6.51
			c0.25,2.15,0.96,4.34,1.54,6.64C179.84,48.47,179.34,48.74,179.11,48.45L179.11,48.45z"/>
	</g>
	<g>
		<path class="st17" d="M7.9,161.27c-3.31-4.46-7.47-9.27-7.2-15.32c0.68-6.69,6.8-11.1,12.82-12.05c5.63-1.07,11.24-0.2,16.72,0.62
			c10.74,1.67,21.06,5.36,31.09,9.35c14.92,6.01,29.72,12.63,43.17,21.75c0,0-30.32-10.16-30.32-10.16
			c-15.1-4.79-29.71-10.93-45.08-14.25c-7.43-1.3-14.72-3.88-21.32,0.15C0,146.43,4.55,154.81,7.9,161.27L7.9,161.27z"/>
	</g>
	<g>
		<path class="st5" d="M89.44,157.57l-6.57-3.71c3.15-26.31,13.33-55.19,29.35-74.39c17.4-20.85,40.2-33.92,65.93-37.81l1.04,6.91
			C139.89,54.51,96.9,95.14,89.44,157.57z"/>
	</g>
	<g class="st3">
		<path class="st6" d="M4.52,150.16c3.77,14.01,13.33,25.63,24.05,35.02c10.72,9.39,22.78,17,33.72,26.13
			c1.9,1.59,3.8,3.25,5.09,5.4c2.01,3.35,2.32,7.46,2.57,11.39c0.23,3.54,0.46,7.08,0.69,10.63c0.09,1.34,0.13,2.82-0.71,3.84
			c-2.89-3.89-6.05-7.56-9.46-10.96c-3.55-3.54-7.35-6.78-10.84-10.38c-4.01-4.14-7.57-8.72-11.12-13.29
			c-5.88-7.57-11.77-15.15-17.65-22.72c-1.81-2.32-3.61-4.65-5.18-7.16c-3.7-5.94-5.92-12.71-8.11-19.4"/>
	</g>
	<g class="st7">
		<path class="st8" d="M205.51,411.9c12.81,1.86,25.24,5.93,38.01,8.07c17.28,2.9,35.47,2.15,51.64-4.79
			c2.91-1.25,5.74-2.72,8.46-4.38c-13.9-1.18-27.84-5.08-41.1-8.34c-24.53-6.04-48.4-9.65-73.64-7.14
			c-25.31,2.52-50.41,9.41-76,7.18c-4.82-0.42-9.47-1.35-13.92-2.73c11.55,9.72,26.55,15.55,42.55,16.49
			C163.25,417.54,183.76,408.74,205.51,411.9z"/>
	</g>
	<g>
		<path class="st18" d="M227.48,214.43c-0.25,0-0.51-0.01-0.77-0.03c-2.5-0.17-4.62-1.28-6.13-3.21
			c-3.56-4.54-2.43-12.22-2.17-13.71c0.24-1.37,1.18-2.52,2.48-3.03c0.47-0.19,0.97-0.28,1.46-0.28c0.86,0,1.71,0.28,2.42,0.81
			c3.06,2.32,8.53,2.96,10.38,3.01c1.15,0.03,2.23,0.55,2.97,1.43c0.74,0.88,1.06,2.04,0.89,3.17
			C238.38,206.68,235.16,214.43,227.48,214.43C227.49,214.43,227.49,214.43,227.48,214.43z"/>
	</g>
	<g class="st3">
		<path class="st19" d="M227.49,214.43c-0.25,0-0.51-0.01-0.77-0.03c-2.5-0.17-4.62-1.28-6.13-3.21
			c-3.56-4.54-2.43-12.22-2.17-13.71c0.24-1.37,1.18-2.52,2.48-3.03c0.47-0.19,0.97-0.28,1.46-0.28c0.86,0,1.71,0.28,2.42,0.81
			c3.06,2.32,8.53,2.96,10.38,3.01c1.15,0.03,2.23,0.55,2.97,1.43c0.74,0.88,1.06,2.04,0.89,3.17
			C238.39,206.68,235.17,214.43,227.49,214.43C227.5,214.43,227.5,214.43,227.49,214.43z"/>
	</g>
	<g>
		<path class="st5" d="M227.48,214.6c-8.15,0.36-11.65-8.96-11.48-15.88c0,0,0.01-1.13,0.01-1.13c-0.09-4.17,4.35-7.36,8.37-6.16
			c1.47,0.36,2.53,1.47,3.97,1.97c3.92,2.12,10.13,0.83,12.12,5.56c0.85,1.78,0.6,3.76-0.16,5.49
			C238.24,209.8,233.45,214.75,227.48,214.6L227.48,214.6z M227.48,214.25c5.75,0.08,9.75-5.09,10.97-10.28
			c0.34-1.28,0.56-2.63-0.16-3.8c-0.62-1.12-1.86-1.86-3.14-1.88c-2.79-0.13-5.55-0.62-8.17-1.68c-1.28-0.42-2.37-1.54-3.58-1.96
			c-1.21-0.38-2.61-0.07-3.55,0.79c-1.89,1.93-1.42,5.12-1.53,7.64C218.26,208.43,221.48,214.5,227.48,214.25L227.48,214.25z"/>
	</g>
	<g>
		<path class="st5" d="M223.55,197.25c0,0-1.67,11.18,3.74,11.61c5.41,0.43,6.52-7.99,6.52-7.99S227.43,200.7,223.55,197.25z"/>
	</g>
	<g>
		<path class="st18" d="M255.1,191.61c0.08,0.53,0.07,1.06-0.05,1.57c-0.5,2.14-3.21,3.83-5.08,4.66
			c-4.08,1.81-8.85,1.96-13.24,1.84c-1.78-0.05-3.57-0.18-5.32-0.51c-5.47-1.03-22.4-6.49-19.69-14.53
			c2.48-7.36,12.97-9.1,19.59-8.52c7.7,0.67,15.52,4.23,20.72,10.02C253.24,187.49,254.8,189.57,255.1,191.61z"/>
	</g>
	<g class="st3">
		<path class="st19" d="M225.8,193.33c4.03,0.88,8.17,1.07,12.3,1.2c2.29,0.07,4.61,0.13,6.86-0.33c3.88-0.79,6.68-3.57,9.56-6.11
			c0.28,3.23,0.56,6.47-2.54,8.44c-1.83,1.16-4.06,1.49-6.22,1.69c-6.05,0.54-12.18,0.21-18.14-0.95c-2.62-0.51-5.82-0.98-8.24-2.1
			c-2.33-1.08-4.52-3.48-6.32-5.28c-0.7-0.7-1.39-1.44-1.8-2.34c-0.43-0.94-0.75-2.39,0.54-2.33c0.8,0.04,1.79,1.75,2.3,2.27
			C217.22,190.62,221.54,192.39,225.8,193.33z"/>
	</g>
	<g>
		<path class="st15" d="M241.3,180.92c-3.91-1.11-8.03-1.5-11.77-1.2c-3.04,0.25-6.24,1.39-9.14,2.34
			c-1.26,0.41-8.12,3.18-7.99,4.71c-0.4-4.64,0.23-6.59,4.64-8.41c4.31-1.78,8.74-3.48,13.39-3.85c4.65-0.37,9.61,0.74,12.99,3.95
			c0.57,0.54,1.93,2.29,1.16,3.14C243.96,182.28,242.03,181.12,241.3,180.92z"/>
	</g>
	<g>
		<path class="st5" d="M255.45,191.56c0.48,2.56-1.56,4.7-3.38,6.21c-7.68,6.55-19.36,6.49-27.73,1.28
			c-9.88-5.34-21.47-10.82-10.02-22.4c7.82-6.74,20.6-10.03,29.17-2.96c4.01,3.05,6.34,7.39,8.92,11.45
			C253.68,187.11,255.04,189.15,255.45,191.56L255.45,191.56z M254.75,191.66c-1.05-4.4-5.96-6.76-9.38-9.18
			c-3.5-2.09-6.96-4.31-10.78-5.06c-5.75-1.3-20.52,2.61-21.46,9.78c2,7.53,12.42,8.72,18.9,9.19c3.18,0.06,9.57,0.37,12.75,0.61
			C248.38,197.17,255.02,196.5,254.75,191.66L254.75,191.66z"/>
	</g>
	<g>
		<path class="st16" d="M362.47,206.28c-1.38-12.61-8.47-24-17.57-32.5c-9.1-8.5-20.13-14.44-31.25-19.77
			c-24.43-11.72-50.73-23.14-78.19-22.06c-11.73,0.46-18.69,10.31-14.66,22.11c1.6,4.67,4.43,8.76,7.39,12.65
			c12.86,16.85,28.77,30.86,45.6,43.27c16.76,12.36,39.35,30.62,59.48,36.14c7.99,2.19,16.88,0.34,22.06-8.08
			C360.74,229.25,363.59,216.58,362.47,206.28z"/>
	</g>
	<g>
		<path class="st17" d="M365.48,210.76c-7.02-25.61-30.71-38.03-52.75-47.54c-23.16-10.28-46.85-20.87-72.3-22.01
			c-8.01-1.05-15.36,3.49-15.28,12.56c0.09,6.26,3.06,11.87,6.04,17.42c-4.74-4.47-9.33-9.99-10.79-16.83
			c-1.79-7.76,2.13-16.4,9.11-19.96c4.27-2.53,9.35-2.73,14.04-3c26.09-0.94,51.1,9.24,74.02,20.94
			C339.95,163.1,366.07,182.32,365.48,210.76L365.48,210.76z"/>
	</g>
	<g class="st3">
		<path class="st6" d="M224.87,157.15c3.93,7.82,10.18,14.09,16.51,19.98c21.98,20.44,46.97,38.45,75.5,46.37
			c5.56,1.54,11.33,2.74,16.24,5.85c1.12,0.71,2.31,1.75,2.26,3.11c-0.03,0.68-0.37,1.3-0.75,1.85c-2.62,3.75-6.85,7.53-11.32,7.34
			c-5.9-0.26-12.83-7.76-17.88-10.76c-6.13-3.64-12.19-7.42-18.16-11.34c-5.42-3.56-10.78-7.23-16.06-11.01
			c-4.58-3.28-7.89-7.16-12.06-10.93c-9.17-8.27-20.5-15.36-24.63-27.2"/>
	</g>
	<g>
		<path class="st5" d="M104.35,165.17c-26.05-11.78-52.12-24.52-80.09-30.17c-6.13-0.68-13.92-1.42-18,3.74
			c-1.07,1.56-1.58,3.59-1.68,5.75c-0.21,9.22,4.44,18.2,9.2,25.97c5.02,8.13,11.1,15.63,17.26,23.14
			c12.3,15.19,24.14,30.18,38.21,43.67c0,0,0.99,0.99,0.99,0.99l-0.06,1.46c-0.99,41.27-13.07,81.32-16.06,122.29
			c-3.24,49.44,5.53,80.38,59.42,81.71c13.12-0.11,26.31-1.67,39.13-4.75c12.88-3.06,25.39-8.05,38.59-10.03
			c26.56-4.32,52.77,6.89,78.78,9.94c24.82,3.29,53.89-0.63,70.72-21.46c16.7-22.21,8.75-51.25,4.33-76.82
			c-3.15-20.36-7.71-40.34-11.02-60.7c-1.26-7.55-2.16-15.22-3.06-22.73c6.63-4.96,12.91-10.65,17.75-17.31
			c21.3-29.2,6.75-58.45-21.52-74.62c-20.05-11.17-41.65-21.6-63.72-27.26c-7.42-1.81-14.96-2.96-22.53-3.2
			c-6.53-0.43-14.56,0.32-17.62,7.28c-3.12,6.84,0.32,14.11,4.27,19.96c4.49,6.34,9.47,12.52,14.85,18.21
			c10.71,11.5,22.8,21.63,35.37,31.06c12.57,9.45,25.76,18.06,38.86,26.79c0,0-0.36,0.62-0.36,0.62
			c-27.01-16.18-54.23-32.73-76.68-55.58c-5.66-5.69-10.86-11.78-15.75-18.32c-2.38-3.35-4.64-7.04-5.87-11.37
			c-3.1-9.16,1.48-19.86,10.52-22.99c4.04-1.57,8.33-1.45,12.53-1.47c8.01,0.12,15.97,1.21,23.74,2.96
			c15.58,3.5,30.31,9.67,44.62,16.22c14.48,6.64,29.3,13.81,40.77,25.74c28.13,29.06,16.7,66.2-13.1,88.13c0,0,1.48-3.55,1.48-3.55
			c2.68,27.29,9.07,53.86,13.05,80.95c4.65,26.35,11.98,58.82-6.5,81.73c-18.19,22.21-49.49,26.05-75.67,21.83
			c-19.83-3.06-38.61-9.62-58.41-11.96c-19.9-2.58-38.84,5.64-57.95,10.15c-29.5,6.42-74.32,11.15-93.65-18.37
			c-21.33-36.18-4.97-102.59,0.56-142.83c1.99-13.27,3.38-27.15,3.97-40.59c0,0,0.93,2.45,0.93,2.45
			c-6.82-6.93-13.66-13.99-19.97-21.58c-6.33-7.57-12.14-15.34-18.26-22.91C17.6,185.86,8,173.93,2.67,159.71
			c-3.63-9.49-5.38-25.1,7.1-28.39c5.14-1.4,10.21-1.1,15.08-0.28c9.62,1.81,18.58,5.26,27.69,8.69
			c17.94,7.08,35.11,15.82,52.11,24.79C104.65,164.52,104.35,165.17,104.35,165.17L104.35,165.17z"/>
	</g>
</g>
</svg>
