<?xml version="1.0" encoding="utf-8"?>
<!-- Generator: Adobe Illustrator 26.1.0, SVG Export Plug-In . SVG Version: 6.00 Build 0)  -->
<svg version="1.1" id="圖層_1" xmlns="http://www.w3.org/2000/svg" xmlns:xlink="http://www.w3.org/1999/xlink" x="0px" y="0px"
	 viewBox="0 0 331.37 344.7" style="enable-background:new 0 0 331.37 344.7;" xml:space="preserve">
<style type="text/css">
	.st0{fill:#F3A243;}
	.st1{opacity:0.42;}
	.st2{fill:#7C551D;}
	.st3{fill:#FAEAD6;}
	.st4{fill:#161E3F;}
	.st5{fill:#535A80;}
	.st6{fill:#162550;}
	.st7{fill:#7A7FA2;}
	.st8{fill:#FFFFFF;}
	.st9{fill:#515677;}
	.st10{opacity:0.25;}
	.st11{fill:#4C6296;}
	.st12{fill:#FFBE2E;}
	.st13{fill:#8E570E;}
	.st14{fill:#363C4F;}
	.st15{fill:#C6C9D0;}
	.st16{fill:#E6E7EB;}
	.st17{fill:#31466A;}
	.st18{fill:#5266A0;}
	.st19{fill:#F4C144;}
	.st20{fill:#6C84C0;}
	.st21{fill:#F09EC0;}
	.st22{opacity:0.51;}
	.st23{fill:#DE679C;}
	.st24{fill:none;stroke:#161E3F;stroke-width:4;stroke-miterlimit:10;}
	.st25{fill:#F9D8E7;}
</style>
<g>
	<g>
		<path class="st9" d="M202.81,59.4c-1.42-1.21-2.79-2.53-4.1-3.95c-12.7-13.81-22.36-28.76-38.08-39.45
			c-14.41-9.81-31.32-14.4-48.47-14.4c-26.87,0-53.37,12.59-72.43,32.04c-15.71,16.03-23.91,37.4-29.65,59.09
			c-6.07,22.94-7.26,48.35-7.26,71.99c0,49.15,20.16,86.34,38.68,112.31c26.3,39.21,72.33,65.2,124.72,65.2
			c81.73,0,147.99-63.25,147.99-141.27c0-32.23-11.78-63.4-31.97-87.71c-10.26-12.35-22.51-22.86-36.01-31.16
			C232.03,73.35,215.48,70.26,202.81,59.4z"/>
	</g>
	<g>
		<path class="st7" d="M165.02,17.54c-40.52-23.53-91-10.34-121.14,23.55C16.48,73.05,8.81,127.43,5.6,168.47
			c-1.44-22.95-0.07-46.11,4.51-68.72C14.92,76.98,22.52,54,38.12,36.02C69.48,0.45,125.78-12.94,165.02,17.54L165.02,17.54z"/>
	</g>
	<g class="st1">
		<path class="st6" d="M307.21,234.78c-0.12,0.51-0.25,1.01-0.38,1.52c-3.92,14.83-6.86,27.07-15.44,40.03
			c-8.93,13.48-20.11,25.29-32.79,34.97c-26.62,20.34-59.44,30.91-92.39,30.91c-24.19,0-48.89-5.56-70.84-16.15
			c-23.99-11.58-48.1-41.06-65.55-64.01c51.36,51.32,97.98,44.57,141.37,19.06c27.31-16.06,51.2-27.16,82.59-31.51
			c15.18-2.1,31.01,0.41,41.67-13.52c9.46-12.36,13.8-30.88,16.54-46.1C309.33,204.8,310.83,219.78,307.21,234.78z"/>
	</g>
	<g>
		<path class="st8" d="M202.2,57.94c-11.71-10.24-21.05-23.57-32.92-33.48c-4.33-3.62-9.29-8.19-14.94-9.52
			c-10.1-2.39-13.86,7.72-14.11,15.58c-0.1,3.29-0.23,6.6-0.03,9.88c0.18,3.11,2.22,7.77,1.7,10.68c-0.91,5.14-9.91,7.31-14.19,4.86
			c-0.45-0.26-0.73-0.73-0.97-1.18c-1.27-2.4-1.99-5.04-2.9-7.6c-2-5.58-4.98-10.81-8.76-15.38c-8.5-10.27-25.25-14.36-37.62-9.34
			c-10.44,4.24-18.28,9.74-24.93,19.34c-10.04,14.49-13.7,32.68-14.8,50.17c-2.28,36.25,4.56,72.6,14.05,107.34
			c3.61,13.21,7.94,26.26,13.95,38.5c5.85,11.91,13.04,24.55,22.79,33.43c9.61,8.76,19.42,16.88,31.39,21.89
			c12.35,5.17,24.99,9.93,38.18,12.15c8.18,1.38,16.46,2.06,24.74,2.06c71.43,0,129.34-50.46,129.34-112.71
			c0-14.2-4.23-27.08-7.4-40.57c-4.23-18-14.83-31.66-26.64-44.91c-11.72-13.14-24.98-25.2-40.65-32.94
			c-5.66-2.79-11.4-5.39-17.22-7.78c-3.72-1.53-7.49-2.99-10.94-5.09C206.78,61.79,204.46,59.91,202.2,57.94z"/>
	</g>
	<g>
		<path class="st4" d="M202.61,59.64c-7.85-7.2-14.16-15.86-21.23-23.78c-20.58-25.45-52.16-37.35-84.2-31.01
			C66.72,11.09,39.1,31.16,25.19,59.09C11.15,87.39,5.73,119.06,4.7,150.61c-3.02,44.43,8.19,83.02,33.42,119.62
			c22.79,36.06,59.91,60.61,102.06,67.27c85.59,14.85,171.08-48.57,171.03-137.59c0.31-47.31-25.97-93.49-66.47-117.98
			C231.17,73.67,214.83,70.18,202.61,59.64L202.61,59.64z M203.01,59.17c12.26,10.42,28.59,13.76,42.36,21.69
			c32.55,18.78,57.77,50.34,67.28,86.88c2.82,10.46,4.29,21.29,4.48,32.13c0.65,32.6-11.09,65.23-31.94,90.27
			c-57.04,69.97-168.38,73.11-229.41,6.72C25.91,263,4.74,220,1.72,174.52C-0.07,134.67,2.31,93.1,20.29,56.61
			C29.79,37,46.38,21.09,65.73,11.21c28.58-15.19,65.41-15.48,92.8,2.46C176.6,25.01,187.93,44.69,203.01,59.17L203.01,59.17z"/>
	</g>
	<g class="st10">
		<path class="st11" d="M182.84,307.33c62.79,0,115.11-39,126.86-90.71c0.6-8.92,0.71-17.81,2.3-26.64
			c-2.74,15.22-7.07,33.74-16.54,46.1c-10.67,13.93-26.5,11.42-41.67,13.52c-31.4,4.35-55.28,15.45-82.59,31.51
			c-12.86,7.56-26.02,13.45-39.49,16.7c8.6,3.22,17.36,5.94,26.39,7.47C166.27,306.65,174.55,307.33,182.84,307.33z"/>
	</g>
	<g>
		<path class="st0" d="M136.56,63.38c3.07-1.15,7.21-2.25,10.43-1.48c4.01,0.96,2.79,6.25,0.4,8.67c-1.65,1.67-3.78,2.8-6.03,3.51
			c-3.47,1.08-8.52,0.64-11.09-1.91C125.87,67.8,132.78,64.79,136.56,63.38z"/>
	</g>
	<g>
		<path class="st4" d="M136.48,63.16c3.22-1.03,6.38-3.84,10.19-3.41c6.04,0.84,5.25,6.87,2.06,10.36
			c-3.26,3.58-7.56,6.88-12.66,6.63c-3.47-0.02-7.41-1.48-8.98-4.93c-1.09-2.05-0.25-4.94,1.69-6.06
			C131.21,64.19,134.19,64.11,136.48,63.16L136.48,63.16z M136.64,63.6c-2.27,0.83-5.66,3.46-5.55,5.76
			c2.11,3.12,7.47,3.74,11.21,3.03c2.03-0.36,4.15-1.41,5.2-3.14c0.87-1.29,1-3.96-0.06-4.88c-0.36-0.24-0.51-0.32-1.43-0.57
			C143.11,63.1,139.59,62.36,136.64,63.6L136.64,63.6z"/>
	</g>
	<g class="st1">
		<path class="st2" d="M136.56,63.38c3.07-1.15,7.21-2.25,10.43-1.48c4.01,0.96,2.79,6.25,0.4,8.67c-1.65,1.67-3.78,2.8-6.03,3.51
			c-3.47,1.08-8.52,0.64-11.09-1.91C125.87,67.8,132.78,64.79,136.56,63.38z"/>
	</g>
	<g>
		<path class="st0" d="M141.31,64.26c-4.99,1.86-11.74,3.61-17.02,2.2c-6.59-1.76-4.74-10.73-0.89-14.78
			c2.65-2.79,6.11-4.66,9.76-5.79c5.65-1.74,13.91-0.82,18.19,3.6C158.68,57.05,147.45,61.97,141.31,64.26z"/>
	</g>
	<g>
		<path class="st0" d="M148.37,269.99c11.14-3.78,8.67,28.66,7.32,33.06c-2.15,6.98-7.39,16.06-14.62,18.9
			c-17.53,6.88-32.52-14.67-37.73-27.9c-2.09-5.3-4.01-19.25,7.02-13.41c1.76,0.93,3.68,3.55,5.57,3.97
			c3.11,0.68,3.02-3.05,3.48-5.09c0.88-3.9,2.42-10.05,7.69-7.51c3.48,1.68,5.02,5.78,8.21,7.86c3.01,1.96,5.77,1.7,7.1-1.96
			C143.55,274.77,144.98,271.14,148.37,269.99z"/>
	</g>
	<g class="st1">
		<path class="st2" d="M156.78,298.17c-0.52,1.02,0.13,4.55-0.27,6.1c-0.63,2.44-2.03,4.98-3.28,7.15
			c-2.58,4.47-6.18,8.94-11.12,10.88c-9.52,3.74-18.68-1.33-25.25-8.15c-6.25-6.5-14.11-16.07-13.77-25.65
			c4.29,8.63,11.66,15.58,20.03,20.23c6.81,3.78,17,2.47,23.72-0.96C151.01,305.64,154.64,302.37,156.78,298.17z"/>
	</g>
	<g>
		<path class="st3" d="M140.15,49.1c-2.53,0.06-5.03,0.36-7.45,1.08c-5.5,1.65-10.27,5.81-11.31,11.64
			c-0.18,1.03,0.08,2.42-0.47,3.31c-2.79-2.26-2.27-5.76-0.37-8.33c2.44-3.3,2.1-4.99,5.44-7.39c3.34-2.4,7.79-4.32,11.92-4.65
			c3.43-0.28,7.48,2.1,9.55,4.69C145.03,49.22,142.58,49.05,140.15,49.1z"/>
	</g>
	<g>
		<path class="st4" d="M141.39,64.47c-5.25,1.76-10.7,5.14-16.65,4.18c-5.4-0.72-7.51-5.91-5.87-10.54
			c2.48-7.53,9.58-12.69,17.03-14.7c6.02-1.13,12.99-0.14,17.4,4.55c2.57,2.69,3.85,7.05,1.2,10.18
			C151.13,62.06,145.85,62.65,141.39,64.47L141.39,64.47z M141.23,64.04c4.08-1.6,10.02-5.16,10.27-9.62
			c-1.59-5.63-9.56-7.63-15.11-7.33c-6.57,0.13-14.93,3.97-15.01,11.48c-0.06,3.22,0.95,5.36,4.17,6.07
			C130.57,65.8,136.24,65.99,141.23,64.04L141.23,64.04z"/>
	</g>
	<g>
		<path class="st4" d="M86.98,51.19c2.7,2.96,8.76,11.62,11.61,5.32c0.74-1.75,1.1-3.99,1.45-6.43c1.5,2,2.31,4.47,2.09,7.23
			c-0.11,3.23-3.08,6.34-6.59,6.04C89.7,62.78,86.64,56.38,86.98,51.19L86.98,51.19z"/>
	</g>
	<g>
		<path class="st4" d="M155.2,39.03c2.18,2.31,3.92,4.45,6.23,6.26c0.89,0.62,1.4,0.94,2.16,0.92c0.04-0.04-0.25,0.2-0.22,0.28
			c0.77-1.88-0.03-5.34,0.54-7.93c1.93,2.12,3.52,4.56,3.82,7.53c0.31,2.53-1.72,4.9-4.39,4.73
			C157.69,50.33,154.94,43.99,155.2,39.03L155.2,39.03z"/>
	</g>
	<g>
		<path class="st9" d="M31.86,139.02c10.6-9.58,20.55-15.53,32.9-18.75c8.65-2.25,18.17-3.65,26.2,0.39
			c10.35,5.2-1.46,15.78-6.39,19.96c-14.86,12.6-29.12,28.13-36.04,47.09"/>
	</g>
	<g>
		<path class="st0" d="M288.08,213.55c-5.14-0.89-5.38,6.57-5.37,9.71c0.05,12.13,1.96,32.49,15.5,37.83
			c14.94,5.89,25.86-16.44,29.28-29.94c1.37-5.41,2.02-19.42-6.69-12.99c-1.39,1.02-2.8,3.75-4.33,4.27
			c-2.52,0.85-2.7-2.88-3.22-4.89c-0.99-3.85-2.67-9.9-6.85-7.07c-3.4,2.29-4.62,11.88-9.48,10.18
			C293.34,219.41,291.89,214.21,288.08,213.55z"/>
	</g>
	<g>
		
			<ellipse transform="matrix(0.2004 -0.9797 0.9797 0.2004 -79.645 99.562)" class="st7" cx="21.17" cy="98.57" rx="12.23" ry="7.56"/>
	</g>
	<g>
		<path class="st7" d="M32.54,138.49c10.6-8.9,22.76-16.69,36.63-19.17c6.6-1.54,14.24-0.78,20.01,3.17
			c8.98,6.11-1.56,15.45-7.52,18.88c2.54-3.24,11.03-11.49,6.37-15.09c-5.34-3.41-11.79-3.77-17.99-2.46
			C56.52,126.04,44.88,132.73,32.54,138.49L32.54,138.49z"/>
	</g>
	<g>
		<path class="st4" d="M31.86,139.02c6.91-6.48,14.15-12.92,22.7-17.3c5.84-2.92,12.05-4.83,18.53-5.89
			c9.29-1.93,29.17,0.66,24.21,14.45c-3.02,6.6-8.44,10.51-13.48,14.84c-4.75,3.96-9.23,8.2-13.59,12.56
			c-8.67,8.91-16.19,18.78-21.7,30.04c3.14-12.32,9.99-23.55,18.15-33.25c4.09-4.91,8.64-9.4,13.3-13.72
			c4.23-3.86,9.42-7.76,11.6-12.77c0.81-2.22,0.57-2.97-1.39-4.29c-2.31-1.34-5.03-2.09-7.71-2.47
			c-11.57-1.14-24.18,2.46-34.55,8.13C42.49,132.26,37.27,135.78,31.86,139.02L31.86,139.02z"/>
	</g>
	<g class="st1">
		<path class="st2" d="M324.6,236.65c-0.41,1.02,0.1,4.55-0.21,6.1c-0.49,2.44-1.58,4.98-2.56,7.15c-2.01,4.47-4.82,8.94-8.67,10.88
			c-7.42,3.74-17.66,1.04-22.78-5.78c-4.88-6.5-7.92-18.44-7.65-28.02c3.19,11.91,9.01,18.83,14.93,24.23
			c5.21,4.75,14.91,2.61,20.43-3.48C320.69,244.85,322.93,240.85,324.6,236.65z"/>
	</g>
	<g class="st1">
		<path class="st6" d="M47.98,167.24c-2.51,2.6-4.5,5.82-5.93,9.19c-1.35,3.19-3.33,9.64-0.99,12.81c1.88,2.54,4.78,1.54,6.29-0.72
			c1.45-2.17,3.18-3.98,4.28-6.41c5.96-13.18,14.85-24.92,25.76-34.04c5.68-4.76,10.78-7.6,13.58-14.99
			c-8.72,4.41-16.3,9.69-23.77,16.06C60.52,154.84,54.1,160.88,47.98,167.24z"/>
	</g>
	<g>
		<path class="st3" d="M291.77,215.65c0.62,0.35,1.21,0.79,1.73,1.27c1.64,1.53,2.49,3.34,3.9,5.03c-1.07-1.29-3.26-1.59-4.79-1.93
			c-1.91-0.43-3.43-1.31-4.48,0.89c-0.63,1.32-0.55,2.96-0.79,4.34c-0.62,3.55-1.24,7.09-1.86,10.64c-1.96-2.16-2.81-5.17-2.76-8.08
			c0.05-3.49,1.16-8.31,3.12-11.24C287.35,214.3,289.74,214.51,291.77,215.65z"/>
	</g>
	<g>
		<path class="st3" d="M111.05,279.77c0.66,0.26,1.31,0.62,1.89,1.02c1.83,1.28,2.93,2.96,4.56,4.44c-1.24-1.13-3.45-1.12-5.01-1.25
			c-1.95-0.16-3.58-0.82-4.31,1.5c-0.44,1.39-0.14,3.01-0.19,4.41c-0.12,3.6-0.25,7.19-0.37,10.79c-2.24-1.87-3.5-4.73-3.86-7.62
			c-0.43-3.47,0-8.39,1.53-11.57C106.49,279.04,108.88,278.91,111.05,279.77z"/>
	</g>
	<g>
		<path class="st3" d="M310.92,213.24c0.56,0.44,1.08,0.96,1.52,1.52c1.39,1.75,1.97,3.67,3.11,5.56c-0.66-1.09-1.8-1.53-2.81-2.19
			c-1.88-1.23-2.62-3.09-4.52-0.61c-1.1,1.44-1.98,3.03-3.13,4.43c-0.84,1.02-2.49,2.81-3.95,2.81c-1.46,0-2.86-1.57-3.75-2.56
			c1.23-0.28,2.25-1.15,2.98-2.18c1.56-2.24,2.67-4.67,4.54-6.73C306.75,211.25,309.08,211.81,310.92,213.24z"/>
	</g>
	<g>
		<path class="st3" d="M126.97,272.26c0.68,0.21,1.35,0.52,1.96,0.88c1.92,1.14,3.14,2.73,4.88,4.09c-1-0.78-2.23-0.8-3.4-1.06
			c-2.19-0.48-3.55-1.96-4.44,1.03c-0.52,1.73-0.77,3.54-1.35,5.25c-0.42,1.25-1.33,3.51-2.7,4.03c-1.36,0.52-3.23-0.45-4.41-1.07
			c1.05-0.7,1.7-1.88,2.01-3.1c0.67-2.65,0.84-5.31,1.86-7.9C122.37,271.88,124.75,271.57,126.97,272.26z"/>
	</g>
	<g>
		<path class="st3" d="M152.69,270.64c0.6,0.39,1.16,0.86,1.65,1.37c1.54,1.62,2.29,3.48,3.6,5.25c-0.75-1.02-1.93-1.37-2.99-1.93
			c-1.98-1.05-2.89-2.84-4.55-0.21c-0.97,1.53-1.7,3.2-2.71,4.7c-0.74,1.09-2.23,3.02-3.69,3.15c-1.45,0.13-2.99-1.31-3.96-2.22
			c1.2-0.39,2.14-1.35,2.77-2.44c1.35-2.37,2.23-4.89,3.92-7.11C148.36,269.03,150.74,269.38,152.69,270.64z"/>
	</g>
	<g>
		<path class="st3" d="M326.73,216.77c0.5,0.39,0.96,0.85,1.35,1.33c1.24,1.54,1.76,3.23,2.77,4.88c-0.58-0.95-1.6-1.35-2.49-1.93
			c-1.66-1.08-2.33-2.72-4-0.55c-0.97,1.26-1.74,2.66-2.75,3.88c-0.74,0.89-2.2,2.46-3.49,2.45c-1.29,0-2.53-1.39-3.33-2.26
			c1.09-0.24,1.99-1,2.63-1.91c1.38-1.96,2.35-4.09,4-5.89C323.03,215.01,325.1,215.51,326.73,216.77z"/>
	</g>
	<g>
		<path class="st4" d="M303.11,265.14c-2,0-4.01-0.4-6.03-1.19c-11.33-4.47-17.36-18.53-17.45-40.68
			c-0.01-3.62,0.33-8.73,3.44-11.36c1.06-0.89,2.86-1.86,5.53-1.4h0c3.14,0.54,5.05,2.84,6.59,4.69c0.96,1.15,1.86,2.24,2.73,2.54
			c0.64-0.26,1.8-2.57,2.42-3.82c1.15-2.3,2.35-4.68,4.33-6.02c2.38-1.61,4.39-1.38,5.66-0.9c3.46,1.31,4.81,5.54,5.89,9.76
			c0.1,0.4,0.19,0.85,0.29,1.32c0.01,0.04,0.02,0.09,0.03,0.14c0.04-0.05,0.08-0.1,0.11-0.14c0.7-0.86,1.42-1.75,2.31-2.41
			c4.25-3.14,7.16-2.44,8.86-1.3c5.88,3.95,2.67,17.39,2.64,17.52c-2.28,9.03-9.05,25.79-19.92,31.36
			C308.11,264.51,305.62,265.14,303.11,265.14z M287.27,216.55c-0.16,0-0.21,0.04-0.23,0.06c-0.13,0.11-1.28,1.24-1.26,6.63
			c0.05,13.54,2.45,30.6,13.55,34.98c2.87,1.13,5.62,0.99,8.41-0.44c7.76-3.98,14.12-16.98,16.76-27.39
			c1.04-4.12,0.86-9.51-0.02-10.78c-0.26,0.06-0.86,0.28-1.86,1.02c-0.26,0.19-0.79,0.85-1.18,1.33c-1.05,1.3-2.25,2.78-3.99,3.37
			c-1.37,0.47-2.77,0.36-3.93-0.31c-2.16-1.25-2.67-3.84-3.05-5.74c-0.07-0.36-0.14-0.7-0.21-0.99c-0.89-3.48-1.55-4.86-1.99-5.38
			c-0.04,0.03-0.09,0.06-0.15,0.1c-0.65,0.44-1.59,2.31-2.27,3.67c-1.65,3.29-4.4,8.81-9.95,6.87c-2.48-0.86-4.05-2.75-5.44-4.42
			c-1.03-1.23-2-2.4-2.9-2.56C287.44,216.56,287.34,216.55,287.27,216.55z"/>
	</g>
	<g>
		<path class="st4" d="M134.25,326.36c-6.33,0-12.7-2.89-18.77-8.57c-8.98-8.42-13.75-19.44-15.01-22.61
			c-1.25-3.18-3.78-13.2,0.9-17.38c1.73-1.55,4.94-2.78,10.42,0.12c1.06,0.56,1.98,1.38,2.87,2.17c0.37,0.33,0.89,0.8,1.33,1.13
			c0.07-0.36,0.13-0.74,0.17-1.01c0.08-0.49,0.15-0.96,0.25-1.37c0.68-3.01,1.81-8.05,5.6-9.88c1.34-0.65,3.54-1.13,6.43,0.27
			c2.51,1.21,4.15,3.23,5.58,5c0.99,1.22,1.92,2.37,2.96,3.05c1.09,0.71,1.71,0.75,1.84,0.7c0.07-0.02,0.38-0.28,0.69-1.13
			c1.1-3.03,2.94-8.1,7.86-9.77c2.89-0.99,5.64-0.41,7.73,1.62c3.08,3,4.72,9.38,4.87,18.96c0.11,6.8-0.61,13.92-1.34,16.3
			c-2.33,7.56-8.03,17.56-16.44,20.86C139.57,325.85,136.91,326.36,134.25,326.36z M105.85,282.31c-0.22,0-0.34,0.04-0.37,0.07
			c-1.06,0.95-0.89,6.43,0.72,10.53c5.2,13.19,18.94,31.97,33.75,26.17c5.93-2.33,10.79-10.41,12.8-16.94
			c1.15-3.73,2.37-24.85-1.93-29.03c-0.26-0.26-0.54-0.51-1.46-0.21l0,0c-1.96,0.67-3.04,3.24-4.06,6.04
			c-1.15,3.16-3.09,4.39-4.52,4.87c-1.52,0.51-3.99,0.68-7.16-1.38c-1.86-1.21-3.2-2.87-4.39-4.33c-1.18-1.46-2.2-2.72-3.48-3.33
			c-0.56-0.27-0.95-0.33-1.07-0.27c-0.51,0.25-1.31,1.43-2.27,5.68c-0.07,0.29-0.12,0.63-0.17,0.98c-0.29,1.82-0.68,4.32-2.76,5.74
			c-0.82,0.56-2.22,1.14-4.22,0.7c-1.9-0.42-3.39-1.75-4.71-2.93c-0.58-0.52-1.25-1.11-1.64-1.32
			C107.3,282.5,106.34,282.31,105.85,282.31z"/>
	</g>
	<g>
		<path class="st4" d="M246.06,82.34c-12.54-5.18-26-7.98-37.42-15.58c-5.82-3.93-10.3-9.64-14.4-14.84
			c-4.28-5.2-8.73-10.26-13.54-14.92c-4.76-4.6-9.6-9.11-14.72-13.24C155.7,15.72,144.1,9.93,131.62,6.15
			c-6.27-1.91-12.77-3.17-19.46-4.24V1.29c13.48-2,27.76,0.25,40.4,6.21c12.52,5.99,22.79,16.13,30.67,27.29
			c3.99,5.48,7.93,10.91,12.49,15.82c6.73,7.73,15.44,11.8,24.3,16.18c8.79,4.29,18.88,8.46,26.35,15.02
			C246.38,81.81,246.06,82.34,246.06,82.34L246.06,82.34z"/>
	</g>
	<g>
		<path class="st4" d="M313.89,200.94c-2.16-11.77-4.37-23.08-6.92-34.67c-1.19-5.73-2.15-11.64-4.23-17.2
			c-5.41-13.75-15.44-25.06-24.96-36.11c-9.87-10.85-20.37-20.88-31.72-30.62c0,0,0.32-0.52,0.32-0.52
			c19.69,8.08,36.13,23.49,46.69,41.9c4.47,7.88,7.63,16.46,11.5,24.59c2.44,5.47,5.33,10.86,7.35,16.61
			c3.66,11.58,4.67,24.06,2.58,36.02C314.51,200.94,313.89,200.94,313.89,200.94L313.89,200.94z"/>
	</g>
	<g>
		<path class="st4" d="M10.38,92.8c-3.69,20.93-4.64,41.96-4.77,63.12c-0.16,21.06,0.36,42.16,6.71,62.47
			c6.1,20.32,17.27,38.6,29.96,55.43c11.91,17.04,27.36,31.75,44.97,42.75c23.42,14.86,50.72,23.3,78.96,25.34c0,0,0,0.62,0,0.62
			c-51.15,3.55-100.91-22.15-128-65.9c-11.71-17.86-20.93-37.4-27.79-57.62c-7.08-20.12-11.29-41.68-10.27-63.17
			c0.54-21.31,2.58-42.96,9.63-63.19C9.78,92.64,10.38,92.8,10.38,92.8L10.38,92.8z"/>
	</g>
	<g>
		<path class="st9" d="M248.62,72.56c-1.1-0.97-2.26-1.86-3.46-2.65c-7.94-5.26-17.84-7.36-27.25-6.08
			c-5.78,0.79-11.65,3.34-16.06,7.17c-3.06,2.66-7.3,9.11-3.6,12.89c3.94,4.02,13.38,4.19,18.61,4.02c6.08-0.2,12.11-1.22,18.18-1.3
			c7.39-0.11,14.59,1.24,21.77,2.76C257.16,82.91,253.56,76.92,248.62,72.56z"/>
	</g>
	<g>
		<path class="st7" d="M247.06,70.85c-6.89-3.19-14.13-3.49-21.56-2.78c-9.01,0.62-20.06,1.65-24.97,10.15
			c-1.16,1.95-1.85,4.4-0.38,6.62c-1.08-0.7-1.85-1.98-2.07-3.37c-0.44-13.65,16.19-18.18,27.27-17.77
			C233.04,63.48,241.54,65.07,247.06,70.85L247.06,70.85z"/>
	</g>
	<g class="st1">
		<path class="st6" d="M218.49,83.73c3.07-0.49,6.08-1.34,9.13-1.97c4.39-0.92,8.88-1.39,13.37-1.41c3-0.02,6.03,0.17,8.9,1.03
			c2.87,0.85,5.6,2.41,7.46,4.76c0.42,0.53,0.8,1.26,0.45,1.83c-0.15,0.25-0.4,0.41-0.66,0.54c-1.42,0.73-3.08,0.85-4.69,0.82
			c-4.46-0.09-8.84-1.22-13.27-1.71c-6.71-0.75-13.49-0.06-20.25,0.03c-2.88,0.04-5.76-0.04-8.62-0.39
			c-3.93-0.65-6.97-1.21-10.58-2.99c3.13-0.02,6.18-0.02,9.3,0.03C212.2,84.35,215.37,84.23,218.49,83.73z"/>
	</g>
	<g>
		<path class="st4" d="M248.41,72.79c-5.84-5.16-13.84-6.6-21.38-6.61c-9.33,0.03-20.59,0.65-27.08,8.44
			c-6.45,9.1,2.71,11.25,10.34,10.96c7.65-0.04,15.36-1.66,23.15-2.2c8.1-0.42,16.25,1.12,23.84,3.84c0,0-2.67,2.05-2.67,2.05
			C255.94,83.38,253.03,76.76,248.41,72.79L248.41,72.79z M248.82,72.33c5.65,4.87,10.56,11.42,10.33,19.42
			c-6.03-0.35-12.09-1.21-18.05-1.64c-10.24-0.93-20.68,1.52-31.14-0.07c-4.94-0.94-11.39-2.25-13.75-7.34
			c-1.62-6.12,3.44-11.59,7.79-15.21c4.25-3.45,9.56-6.04,15.2-6.59C230.31,59.47,240.76,65.48,248.82,72.33L248.82,72.33z"/>
	</g>
</g>
</svg>
