<?xml version="1.0" encoding="utf-8"?>
<!-- Generator: Adobe Illustrator 26.1.0, SVG Export Plug-In . SVG Version: 6.00 Build 0)  -->
<svg version="1.1" id="圖層_1" xmlns="http://www.w3.org/2000/svg" xmlns:xlink="http://www.w3.org/1999/xlink" x="0px" y="0px"
	 viewBox="0 0 464.26 375" style="enable-background:new 0 0 464.26 375;" xml:space="preserve">
<style type="text/css">
	.st0{fill:#9FD5C9;}
	.st1{fill:#AFBF84;}
	.st2{opacity:0.23;fill:#5F6A3D;}
	.st3{fill:#CBE7E1;}
	.st4{fill:#A5B375;}
	.st5{opacity:0.09;fill:#3D4420;}
	.st6{fill:#FFFBEE;}
	.st7{fill:#E6E2D5;}
	.st8{fill:#EACDBB;}
	.st9{fill:#EDD9D1;}
	.st10{fill:#D6B8A8;}
	.st11{fill:#CFB2A5;}
	.st12{fill:#DBC5BE;}
	.st13{fill:#B0968C;}
	.st14{opacity:0.13;fill:#492A21;}
	.st15{fill:#F1B390;}
	.st16{fill:#E9987B;}
	.st17{fill:#DD8C74;}
	.st18{opacity:0.27;fill:#A8644F;}
	.st19{opacity:0.28;fill:#B17461;}
	.st20{fill:#FDECDC;}
	.st21{fill:#EBD6C4;}
	.st22{fill:#E7977A;}
	.st23{fill:#D8866C;}
	.st24{fill:#E9CA84;}
	.st25{fill:#DBA76C;}
	.st26{fill:#DBB76E;}
	.st27{fill:#CB8F54;}
	.st28{fill:#CB725A;}
	.st29{fill:#B85F4A;}
	.st30{fill:#F5DAAA;}
	.st31{fill:#F2A890;}
	.st32{opacity:0.19;fill:#CB8F54;}
	.st33{fill:#E5BF9C;}
	.st34{fill:#CC9F76;}
	.st35{fill:#DFA68F;}
	.st36{fill:#BC885D;}
	.st37{opacity:0.16;fill:#582A14;}
	.st38{fill:#E2B890;}
	.st39{fill:#F5DBC5;}
	.st40{fill:#DFAF87;}
	.st41{opacity:0.29;fill:#582A14;}
</style>
<g>
	<circle class="st15" cx="234.4" cy="183.64" r="182.26"/>
	<path class="st16" d="M93.79,262.65c11.22-12.54,22.17-25.94,36.62-35.09c23.75-15.02,50.14-26.91,78.07-31.07
		c-26.67,8.44-51.93,20.28-75.82,34.71C118.2,239.7,106.89,252.16,93.79,262.65L93.79,262.65z"/>
	<path class="st16" d="M264.91,249.44c22.97-11.58,47.4-18.62,69.35-32.4c21.77-13.68,41.13-30.98,55.73-51.71
		c8.38-11.9,13.87-24.62,17.81-37.92c-7.65-23.6-19.97-45.1-35.89-63.38c3.48,11.86,4.2,24.36,2.45,36.57
		c-3.4,23.77-16.15,46.42-36.08,61.04c-23.33,17.11-52.73,22.58-80.54,29.42c-27.09,6.66-54.39,15.64-79.67,27.14
		c-35.56,16.19-67.14,40.36-91.47,70.02c-0.27,0.33-0.54,0.63-0.81,0.95c23.93,33.64,59.01,58.8,99.84,70.11
		C197.89,315.36,221.24,271.46,264.91,249.44z"/>
	<path class="st17" d="M355.03,266.89c-50.62,14.8-88.92,55.27-124.63,94.08c-0.27,0.29,0.88,2.2,2.94,4.91
		c0.36,0,0.71,0.01,1.06,0.01c19.12,0,37.54-2.95,54.86-8.41c4.04-5.67,8.26-11.21,12.67-16.59c9.28-11.3,19.52-22.04,31.88-29.85
		c11.51-7.28,24.46-11.72,37.45-15.52c1.1-0.32,4.22-0.9,8.24-1.61c8.21-10.78,15.24-22.5,20.91-34.97c-0.91-0.42-1.9-0.75-3-0.94
		C385.86,255.92,366.2,263.63,355.03,266.89z"/>
	<path class="st16" d="M386.48,186.63c-9.25,21.78-29.37,36.8-50.11,46.9c-12.29,6.12-26.12,9.52-35.87,19.74
		c2.42-3.97,5.86-7.33,9.63-10.12c11.35-8.02,24.56-12.64,36.21-20.14C361.99,213.68,376.21,201.83,386.48,186.63L386.48,186.63z"/>
	<path class="st18" d="M383.08,81.63c5.71,17.2,8.8,35.59,8.8,54.71c0,95.92-77.76,173.69-173.69,173.69
		c-78.16,0-144.26-51.63-166.06-122.64c0.18,100.51,81.7,181.93,182.25,181.93c100.66,0,182.26-81.6,182.26-182.26
		C416.65,147.77,404.22,111.39,383.08,81.63z"/>
	<path class="st17" d="M98.73,113.17c28.87,0.86,54.62,17.34,83.55,18.45c35.31,1.36,70.65-8.3,101.56-25.42
		c27.13-15.03,50.92-35.66,70.96-59.38c-4.76-4.19-9.74-8.15-14.92-11.83c-8.99,9.14-21.77,20.74-23.67,22.25
		c-12.68,10.02-26.64,17-40.65,24.85c-25.18,14.11-62.79,18.59-91.27,14.83c-17-2.24-33.5-10.92-49.76-16.43
		c-13.65-4.63-30.37-8.83-45.45-6.85C79.18,86.7,71,101.13,64.87,116.6c5.56-1.91,11.98-2.83,18.03-3.24
		C88.95,112.95,94.64,113.05,98.73,113.17z"/>
	<path class="st16" d="M168.76,20.23c23.61,17.82,64.87,19.33,92.58,14.55c16.71-2.88,32.91-8.78,47.41-17.59
		c-5.25-2.35-10.62-4.46-16.12-6.31c-15.06,5.06-31.43,6.41-47.3,4.77c-15.08-1.56-29.85-5.67-43.94-11.28
		c-12.9,2.36-25.32,6.08-37.12,11C164.96,16.88,166.41,18.46,168.76,20.23z"/>
	<path class="st19" d="M192.66,62.25c-0.62,0-1.22,0.06-1.8,0.16c-1.98-3.5-5.48-6.31-9.82-7.88c0.35-1.79,0.55-3.63,0.55-5.52
		c0-36.73-56.5-35.64-56.5,0c0,15.6,12.65,28.25,28.25,28.25c0.93,0,1.85-0.05,2.76-0.14c3.43,4.67,9.7,7.81,16.9,7.81
		c7.94,0,14.76-3.81,17.86-9.28c0.58,0.1,1.18,0.16,1.8,0.16c4.63,0,8.38-3.03,8.38-6.78C201.04,65.28,197.29,62.25,192.66,62.25z"
		/>
	<path class="st19" d="M171.78,241.58c3.96-4.53,6.34-10.29,6.34-16.57c0-14.59-12.81-26.42-28.6-26.42c-0.16,0-0.31,0.02-0.47,0.02
		c0.29-1.51,0.47-3.05,0.47-4.64c0-14.59-12.81-26.42-28.6-26.42c-6.34,0-12.17,1.93-16.92,5.15c-4.74-3.22-10.58-5.15-16.92-5.15
		c-2.98,0-5.85,0.42-8.55,1.2c0.77-3.19,1.63-6.36,2.58-9.48c-0.22-0.01-0.43-0.03-0.64-0.03c-10.26,0-18.58,8.32-18.58,18.58
		c0,1.09,0.1,2.16,0.28,3.2c-2.34,3.83-3.69,8.25-3.69,12.96c0,4.75,1.38,9.2,3.75,13.05c-0.22,1.41-0.34,2.84-0.34,4.3
		c0,16.53,14.72,29.94,32.88,29.94c2.21,0,4.38-0.2,6.47-0.58c1.86,6.22,7.62,10.76,14.45,10.76c3.79,0,7.24-1.41,9.89-3.71
		c0.71,9.06,8.27,16.19,17.51,16.19c5.6,0,10.58-2.63,13.8-6.71c2.21,2.2,5.5,3.59,9.17,3.59c6.66,0,12.06-4.57,12.06-10.22
		C178.12,246.69,175.55,243.31,171.78,241.58z"/>
	<path class="st20" d="M240.25,343.39c-0.63,0-1.23,0.07-1.81,0.2c-1.62-5.68-6.83-9.84-13.03-9.84c-0.95,0-1.88,0.11-2.78,0.3
		c-1.98-7.69-8.93-13.37-17.24-13.37c-2.7,0-5.26,0.62-7.55,1.7c-4.36-5.97-11.38-9.86-19.34-9.86c-5.16,0-9.92,1.64-13.82,4.42
		c-1.62-5.5-6.7-9.53-12.73-9.53c-1.1,0-2.16,0.15-3.17,0.4c-0.97-7.84-7.65-13.92-15.76-13.92c-2.4,0-4.67,0.55-6.71,1.5
		c-3.06-7.71-9.97-13.09-18.02-13.09c-8.01,0-14.89,5.34-17.98,12.99c-2.45-3.06-4.79-6.21-7.01-9.46c-2.07,2.11-3.35,5-3.35,8.2
		c0,5.42,3.68,9.97,8.68,11.31c0.43,9.78,6.59,17.87,14.83,20.19c0,4.81,3.52,8.79,8.12,9.55c0.62,12.84,11.83,23.08,25.6,23.08
		c5.28,0,10.18-1.51,14.26-4.08c0.2,6.13,5.22,11.05,11.4,11.05c2.46,0,4.72-0.79,6.58-2.11c0.95,1.32,2.49,2.19,4.25,2.19
		c1.23,0,2.35-0.44,3.25-1.16c4.37,5.81,11.3,9.59,19.14,9.59c10.01,0,18.57-6.13,22.17-14.84c2.09,1.31,4.55,2.08,7.19,2.08
		c4.6,0,8.66-2.3,11.11-5.8c1.1,0.55,2.37,0.87,3.73,0.87c4.07,0,7.37-2.81,7.37-6.27S244.32,343.39,240.25,343.39z"/>
	<path class="st20" d="M156.33,217.91c4.2-4.82,6.73-10.93,6.73-17.6c0-15.5-13.6-28.07-30.38-28.07c-0.17,0-0.33,0.02-0.5,0.02
		c0.31-1.6,0.5-3.24,0.5-4.92c0-15.5-13.6-28.07-30.38-28.07c-6.73,0-12.93,2.05-17.97,5.47c-5.04-3.42-11.24-5.47-17.97-5.47
		c-3.17,0-6.22,0.45-9.09,1.28c0.82-3.39,1.73-6.75,2.74-10.07c-0.23-0.01-0.45-0.03-0.68-0.03c-10.9,0-19.73,8.83-19.73,19.73
		c0,1.16,0.11,2.29,0.3,3.4c-2.49,4.07-3.92,8.76-3.92,13.77c0,5.05,1.46,9.77,3.98,13.86c-0.24,1.49-0.36,3.02-0.36,4.57
		c0,17.56,15.64,31.8,34.92,31.8c2.35,0,4.65-0.22,6.87-0.62c1.98,6.61,8.1,11.43,15.35,11.43c4.02,0,7.69-1.49,10.5-3.94
		c0.76,9.62,8.79,17.19,18.6,17.19c5.95,0,11.24-2.79,14.66-7.13c2.35,2.33,5.84,3.81,9.74,3.81c7.08,0,12.81-4.86,12.81-10.85
		C163.07,223.34,160.34,219.75,156.33,217.91z"/>
	<path class="st20" d="M187.82,50.81c-0.62,0-1.22,0.06-1.8,0.16c-1.98-3.5-5.48-6.31-9.82-7.88c0.35-1.79,0.55-3.63,0.55-5.52
		c0-9.27-4.49-17.48-11.39-22.63c3.82-1.57,7.71-3.01,11.65-4.32c-3.42-3.84-8.39-6.28-13.94-6.28c-4.95,0-9.43,1.94-12.77,5.07
		c-0.6-0.04-1.19-0.09-1.8-0.09c-15.6,0-28.25,12.65-28.25,28.25s12.65,28.25,28.25,28.25c0.93,0,1.85-0.05,2.76-0.14
		c3.43,4.67,9.7,7.81,16.9,7.81c7.94,0,14.76-3.81,17.86-9.28c0.58,0.1,1.18,0.16,1.8,0.16c4.63,0,8.38-3.03,8.38-6.78
		C196.2,53.84,192.44,50.81,187.82,50.81z"/>
	<path class="st21" d="M151.36,230.55c-4.45-0.35-8.61-3.25-10.46-7.31c-0.78,3.69-4.15,6.47-7.83,7.3
		c-3.68,0.83-7.57-0.05-10.98-1.64c-5.65-2.63-10.34-7.26-13.05-12.86c-3.77,2.63-8.88,3.2-13.14,1.49
		c-4.26-1.72-7.54-5.68-8.43-10.19c-9.03,1.83-18.93,1.27-26.69-3.68c-7.76-4.95-12.62-15.01-9.69-23.74
		c-4.67-0.44-9.11-2.96-11.88-6.75c-1.73-2.37-2.79-5.22-3.09-8.14c-0.07,0.76-0.12,1.54-0.12,2.32c0,5.05,1.46,9.77,3.98,13.86
		c-0.24,1.49-0.36,3.02-0.36,4.57c0,17.56,15.64,31.8,34.92,31.8c2.35,0,4.65-0.22,6.87-0.62c1.98,6.61,8.1,11.43,15.35,11.43
		c4.02,0,7.69-1.49,10.5-3.94c0.76,9.62,8.79,17.19,18.6,17.19c5.95,0,11.24-2.79,14.66-7.13c2.35,2.33,5.84,3.81,9.74,3.81
		c7.08,0,12.81-4.86,12.81-10.85c0-0.82-0.13-1.61-0.34-2.37C160.24,228.73,155.75,230.9,151.36,230.55z"/>
	<path class="st21" d="M153.33,208.7c-1.1,0.6-2.24,1.07-3.39,1.44c-7.03,2.24-14.81,0.47-21.4-2.38c2.1,3.02,5.21,5.18,8.42,6.96
		c5.53,3.07,13.13,5.02,19.5,3.03c4.12-4.79,6.61-10.84,6.61-17.44c0-1.21-0.11-2.4-0.27-3.58
		C160.91,201.69,157.93,206.22,153.33,208.7z"/>
	<path class="st21" d="M114.11,170.79c-4.14,1.34-8.34,1.54-12.65,1.31c-2.7-0.14-8.34-0.44-10.28-2.51c4.01,4.27,9,7.91,14.68,9.63
		c7.01,2.12,17.09-0.02,23.05-4.21c1.4-0.99,2.52-2.22,3.4-3.6c0.22-1.33,0.37-2.68,0.37-4.06c0-3.83-0.84-7.48-2.34-10.81
		C127.58,162.98,120.55,168.71,114.11,170.79z"/>
	<path class="st21" d="M46.14,155.14c0.91-0.09,1.81-0.3,2.67-0.68c-0.31,0.14-1.32-0.51-1.6-0.65c-0.5-0.25-0.89-0.52-1.33-0.89
		c-0.93-0.78-1.84-1.61-2.6-2.56c-0.94-1.17-1.68-2.34-2.08-3.82c-0.26-0.96-0.62-2.52-0.24-3.48c-0.86,2.22-1.35,4.62-1.35,7.14
		c0,1.08,0.1,2.14,0.27,3.17c0.2,1.24,2.26,1.7,3.29,1.78C44.15,155.2,45.16,155.24,46.14,155.14z"/>
	<path class="st21" d="M76.3,148.44c-2.52,2.84-4.52,6.75-5.66,10.36c-4.86,1.87-10.39,1.96-15.31,0.25
		c2.96,3.81,7.6,5.78,12.35,5.95c1.19,0.04,7.21-0.05,7.32-1.63c0-0.06,0.01-0.11,0.01-0.17c0.3-3.94,1.46-7.83,3.38-11.28
		c1.59-2.85,3.98-5.13,6.32-7.39c-0.12,0.08-0.25,0.15-0.37,0.23c-0.27-0.19-0.56-0.35-0.84-0.53c-1.03,0.23-2.1,0.45-2.67,0.74
		C79.13,145.83,77.57,147.01,76.3,148.44z"/>
	<path class="st19" d="M354.61,59.61c3.87,2.76,7.62,5.68,11.26,8.72c-3.67,2.27-6.62,5.58-8.43,9.54
		c-5.85-5.35-13.65-8.61-22.2-8.61c-16.9,0-30.81,12.73-32.71,29.11c-1.43-0.25-2.9-0.41-4.4-0.41c-13.89,0-25.15,11.26-25.15,25.15
		c0,0.02,0,0.04,0,0.06c-11.88,0.52-21.6,9.25-23.62,20.68c-0.14,0-0.27-0.02-0.41-0.02c-8.03,0-14.54,4.97-14.54,11.1
		c0,6.13,6.51,11.1,14.54,11.1c2.27,0,4.42-0.41,6.33-1.12c4.61,5.2,11.32,8.5,18.82,8.5c7.38,0,14-3.2,18.6-8.27
		c5.97,8.38,15.76,13.85,26.83,13.85c11.88,0,22.29-6.29,28.08-15.73c3.16,2.82,7.31,4.55,11.88,4.55c9.87,0,17.87-8,17.87-17.87
		c0-1.41-0.18-2.78-0.49-4.1c1.42,0.14,2.87,0.22,4.33,0.22c11.38,0,21.63-4.31,28.85-11.2c-8.14-29.38-23.45-55.79-43.94-77.2
		c-0.71-0.07-1.43-0.12-2.16-0.12C360.61,57.54,357.45,58.3,354.61,59.61z"/>
	<path class="st20" d="M382.94,53.77c-2.92-6.72-9.12-11.68-16.58-12.89c-4.1-4.78-10.16-7.82-16.95-7.82
		c-3.34,0-6.49,0.75-9.34,2.07c3.87,2.76,7.62,5.68,11.26,8.72c-3.67,2.27-6.62,5.58-8.43,9.54c-5.85-5.35-13.65-8.61-22.2-8.61
		c-16.9,0-30.81,12.73-32.71,29.11c-1.43-0.25-2.9-0.41-4.4-0.41c-13.89,0-25.15,11.26-25.15,25.15c0,0.02,0,0.04,0,0.06
		c-11.88,0.52-21.6,9.25-23.62,20.68c-0.14,0-0.27-0.02-0.41-0.02c-8.03,0-14.54,4.97-14.54,11.1c0,6.13,6.51,11.1,14.54,11.1
		c2.27,0,4.42-0.41,6.33-1.12c4.61,5.2,11.32,8.5,18.82,8.5c7.38,0,14-3.2,18.6-8.27c5.97,8.38,15.76,13.85,26.83,13.85
		c11.88,0,22.29-6.29,28.08-15.73c3.16,2.82,7.31,4.55,11.88,4.55c9.87,0,17.87-8,17.87-17.87c0-1.41-0.18-2.78-0.49-4.1
		c1.42,0.14,2.87,0.22,4.33,0.22c21.86,0,39.58-15.88,39.58-35.48C406.24,71.71,396.67,59.33,382.94,53.77z"/>
	<path class="st19" d="M411.16,228.22c-3.15-1.01-6.51-1.57-10.01-1.57c-17.56,0-31.8,13.56-31.8,30.28c0,1.31,0.12,2.59,0.29,3.86
		c-7.13,1.49-12.47,7.54-12.47,14.78c0,2.03,0.43,3.97,1.19,5.74c-10.9,0.95-19.45,9.67-19.45,20.31c0,0.53,0.04,1.05,0.08,1.57
		c-0.03,0-0.06,0-0.08,0c-6.25,0-11.31,4.82-11.31,10.77c0,5.95,5.06,10.77,11.31,10.77c4.38,0,8.17-2.37,10.05-5.84
		c1.58,0.94,3.29,1.7,5.11,2.23C381.66,297.06,401.95,264.84,411.16,228.22z"/>
	<path class="st20" d="M428.27,245.67c0-6.12-1.92-11.81-5.21-16.58c2.18-3.01,3.47-6.65,3.47-10.58c0-7.29-4.39-13.59-10.78-16.67
		c-0.61,6.1-1.51,12.11-2.7,18.02c-4.83-2.82-10.5-4.48-16.58-4.48c-17.56,0-31.8,13.56-31.8,30.28c0,1.31,0.12,2.59,0.29,3.86
		c-7.13,1.49-12.47,7.54-12.47,14.78c0,2.03,0.43,3.97,1.19,5.74c-10.9,0.95-19.45,9.67-19.45,20.31c0,0.53,0.04,1.05,0.08,1.57
		c-0.03,0-0.06,0-0.08,0c-6.25,0-11.31,4.82-11.31,10.77c0,5.95,5.06,10.77,11.31,10.77c4.38,0,8.17-2.37,10.05-5.84
		c3.3,1.97,7.19,3.13,11.37,3.13c4.23,0,8.16-1.18,11.48-3.19c2.17,0.8,4.53,1.26,7,1.26c9.29,0,17.04-6.22,18.94-14.52
		c7.33-1.35,12.86-7.49,12.86-14.86c0-1.63-0.28-3.19-0.78-4.67C418.48,271.18,428.27,259.52,428.27,245.67z"/>
	<path class="st21" d="M419.25,221.14c1.66,2.41,2.97,5.05,3.86,7.87c2.15-2.99,3.42-6.6,3.42-10.5c0-4.34-1.56-8.32-4.17-11.49
		c0.23,1.15,0.36,2.33,0.36,3.54C422.73,214.5,421.43,218.13,419.25,221.14z"/>
	<path class="st21" d="M428.27,245.67c0-6.04-1.88-11.65-5.08-16.38c0.82,2.68,1.27,5.5,1.27,8.43c0,13.86-9.78,25.51-23.12,29.11
		c0.5,1.47,0.78,3.04,0.78,4.67c0,7.37-5.54,13.51-12.86,14.86c-1.9,8.3-9.65,14.52-18.94,14.52c-2.47,0-4.82-0.46-7-1.26
		c-3.32,2.01-7.25,3.19-11.48,3.19c-4.18,0-8.08-1.16-11.37-3.13c-1.88,3.47-5.67,5.84-10.05,5.84c-2.88,0-5.5-1.03-7.5-2.72
		c0.06,5.9,5.1,10.67,11.31,10.67c4.38,0,8.17-2.37,10.05-5.84c3.3,1.97,7.19,3.13,11.37,3.13c4.23,0,8.16-1.18,11.48-3.19
		c2.17,0.8,4.53,1.26,7,1.26c9.29,0,17.04-6.22,18.94-14.52c7.33-1.35,12.86-7.49,12.86-14.86c0-1.63-0.28-3.19-0.78-4.67
		C418.48,271.18,428.27,259.52,428.27,245.67z"/>
	<path class="st21" d="M189.24,57.32c-0.62,0-1.22-0.06-1.8-0.16c-3.11,5.47-9.93,9.28-17.86,9.28c-7.2,0-13.47-3.14-16.9-7.81
		c-0.91,0.09-1.83,0.14-2.76,0.14c-15.6,0-28.25-12.65-28.25-28.25c0-0.69,0.05-1.37,0.1-2.05c-0.97,2.86-1.52,5.91-1.52,9.09
		c0,15.6,12.65,28.25,28.25,28.25c0.93,0,1.85-0.05,2.76-0.14c3.43,4.67,9.7,7.81,16.9,7.81c7.94,0,14.76-3.81,17.86-9.28
		c0.58,0.1,1.18,0.16,1.8,0.16c4.63,0,8.38-3.03,8.38-6.78c0-0.92-0.23-1.8-0.64-2.6C194.02,56.41,191.76,57.32,189.24,57.32z"/>
	<path class="st21" d="M164.24,40.43c-5.93,1.94-12.58,0.85-18.15-1.98c3.04,5.38,9.22,8.55,15.38,8.86
		c5.26,0.26,10.4-1.32,14.75-4.21c-0.01,0-0.02-0.01-0.03-0.01c0.35-1.79,0.55-3.63,0.55-5.52c0-2.82-0.42-5.55-1.19-8.12
		c-1.26,2.74-3.06,5.55-5.02,7.32C168.72,38.41,166.56,39.67,164.24,40.43z"/>
	<path class="st21" d="M165.45,15.09c1.94-0.79,4.31-1.98,6.31-2.65c-1.82-2.04-4.85-2.88-7.8-2.88c-2.62,0-5,1.02-6.77,2.68
		c1.36,0.25,2.72,0.58,4.02,0.98C162.69,13.69,164.11,14.32,165.45,15.09z"/>
	<path class="st21" d="M50.82,144.37c2.64-1.93,4.26-2.96,6.48-3.84c0.42-1.74,0.87-3.47,1.34-5.2
		C54.77,136.64,51.91,138.8,50.82,144.37z"/>
	<path class="st21" d="M400.46,67.69c0.95,3.04,1.48,6.24,1.48,9.55c0,19.59-17.72,35.48-39.58,35.48c-1.46,0-2.91-0.08-4.33-0.22
		c0.31,1.32,0.49,2.69,0.49,4.1c0,9.87-8,17.87-17.87,17.87c-4.57,0-8.72-1.73-11.88-4.55c-5.79,9.43-16.2,15.73-28.08,15.73
		c-11.07,0-20.86-5.47-26.83-13.85c-4.6,5.07-11.22,8.27-18.6,8.27c-7.5,0-14.21-3.3-18.82-8.5c-1.92,0.71-4.06,1.12-6.33,1.12
		c-3.96,0-7.55-1.21-10.17-3.18c-0.03,0.31-0.06,0.62-0.06,0.94c0,6.13,6.51,11.1,14.54,11.1c2.27,0,4.42-0.41,6.33-1.12
		c4.61,5.2,11.32,8.5,18.82,8.5c7.38,0,14-3.2,18.6-8.27c5.97,8.38,15.76,13.85,26.83,13.85c11.88,0,22.29-6.29,28.08-15.73
		c3.16,2.82,7.31,4.55,11.88,4.55c9.87,0,17.87-8,17.87-17.87c0-1.41-0.18-2.78-0.49-4.1c1.42,0.14,2.87,0.22,4.33,0.22
		c21.86,0,39.58-15.88,39.58-35.48C406.24,79.35,404.11,73.06,400.46,67.69z"/>
	<path class="st21" d="M240.25,347.96c-1.36,0-2.64-0.32-3.73-0.87c-2.45,3.5-6.51,5.8-11.11,5.8c-2.64,0-5.1-0.77-7.19-2.08
		c-3.6,8.71-12.16,14.84-22.17,14.84c-7.84,0-14.77-3.77-19.14-9.59c-0.9,0.71-2.01,1.16-3.25,1.16c-1.75,0-3.29-0.87-4.25-2.19
		c-1.86,1.32-4.12,2.11-6.58,2.11c-6.18,0-11.2-4.92-11.4-11.05c-4.08,2.57-8.98,4.08-14.26,4.08c-13.77,0-24.98-10.24-25.6-23.08
		c-4.6-0.76-8.11-4.74-8.12-9.55c-8.24-2.32-14.4-10.4-14.83-20.19c-3.7-1-6.67-3.75-7.97-7.31c-0.45,1.24-0.71,2.57-0.71,3.97
		c0,5.42,3.68,9.97,8.68,11.31c0.43,9.78,6.59,17.87,14.83,20.19c0,4.81,3.52,8.79,8.12,9.55c0.62,12.84,11.83,23.08,25.6,23.08
		c5.28,0,10.18-1.51,14.26-4.08c0.2,6.13,5.22,11.05,11.4,11.05c2.46,0,4.72-0.79,6.58-2.11c0.95,1.32,2.49,2.19,4.25,2.19
		c1.23,0,2.35-0.44,3.25-1.16c4.37,5.81,11.3,9.59,19.14,9.59c10.01,0,18.57-6.13,22.17-14.84c2.09,1.31,4.55,2.08,7.19,2.08
		c4.6,0,8.66-2.3,11.11-5.8c1.1,0.55,2.37,0.87,3.73,0.87c4.07,0,7.37-2.81,7.37-6.27c0-1.51-0.63-2.9-1.68-3.99
		C244.59,347.07,242.54,347.96,240.25,347.96z"/>
	<path class="st21" d="M339.41,71.93c-0.14,17.67-18.04,26.7-34.02,23.56c-1.17,5.37-4.48,10.24-9.03,13.31
		c-4.65,3.14-10.08,4.05-15.57,3.46c7.42,7.42,22.48,4.68,29.3-2.03c1.44-1.42,3.4-3.19,7.31-8.95c8.9,1,19.24-0.87,25.18-7.86
		c5.7-6.71,8.94-15.12,7.65-24.02c-0.68-4.74-2.45-9.31-5.02-12.89c-0.97-1.36-1.13-1.97-2.34-3.12c-0.56-0.54-2.13-1.67-2.71-2.2
		c-4.06-2.99-8.83-5.06-14.01-5.93C334.56,50.62,339.49,62.42,339.41,71.93z"/>
	<path class="st21" d="M372.84,56.23c-1.6,5.05-5.72,9.68-10.4,12.13c3.42,0.33,6.08-0.07,9.3-1.03c4.37-1.3,7.88-3.91,9.8-7.94
		c0.9-1.9,1.32-3.77,1.41-5.61c0,0-0.01,0-0.01,0c-2.29-5.27-6.6-9.44-11.94-11.59C373.7,46.22,374.32,51.57,372.84,56.23z"/>
	<path class="st21" d="M354.46,41.79c-2.22-0.64-4.53-0.93-6.84-0.93c1.24,0.99,2.49,1.97,3.7,2.99c-0.18,0.11-0.35,0.23-0.52,0.35
		c1.87-0.77,3.89-1.18,5.91-1.17C356.17,42.35,355.29,42.03,354.46,41.79z"/>
	<path class="st21" d="M214.9,337.96c-0.91,0.79-1.91,1.46-3,2c-2.81,1.38-6.09,1.73-9.15,1.08c-1.21-0.25-2.3-0.89-3.43-1.39
		c-1.29-0.57-2.54-1.28-3.59-2.23c-0.97,1.59-3.11,3.17-4.84,3.8c-2.67,0.97-5.57,1.13-8.36,0.64c-1.29-0.23-2.58-0.55-3.75-1.12
		c-0.41-0.2-3.14-1.2-3.14-1.67c0,1.89,2.06,3.54,3.59,4.34c1.78,0.92,3.75,1.51,5.74,1.76c3.65,0.46,8.27-0.18,11.06-2.77
		c0.04-0.04,0.09-0.08,0.14-0.09c0.1-0.02,0.19,0.05,0.27,0.11c4.32,3.55,9.91,3.99,15.21,2.75c3.87-0.91,7.26-3.05,9.46-6.4
		c1.07-1.64,1.38-3.25,1.45-4.94c-0.55-2.01-1.44-3.88-2.6-5.54c-0.06,0.75-0.07,1.51-0.18,1.92
		C218.94,333.18,217.24,335.93,214.9,337.96z"/>
	<path class="st21" d="M158.52,326.86c-1.18,0.24-3.26,2.44-4.71,2.98c-2.02,0.75-3.94,0.91-6.11,0.7
		c-4.45-0.43-8.82-2.64-10.84-6.8c-7.02,4.22-20.17-3.72-18.87-12.04c2.61,3.51,5.99,6.62,10.26,7.96c1.98,0.62,4.09,0.85,6.15,0.65
		c0.52-0.05,5.84-1.16,5.64-1.78c1.08,3.25,3.89,5.78,7.13,6.89C150.72,326.64,154.78,327.62,158.52,326.86z"/>
	<path class="st21" d="M411.14,239.46c-0.32,1.02-0.72,2.03-1.2,3.02c-2.99,6.09-8.1,9.87-14.58,11.49
		c4.51,1.26,8.6,0.13,12.78-1.81c3.62-1.67,7.28-4.27,8.84-8.08c2.49-6.08,1.1-12.77-1.12-18.59c-0.75-1.98-1.7-4.02-3-5.73
		c-1.44-0.83-2.96-1.54-4.54-2.15C410.58,224.87,413.56,231.65,411.14,239.46z"/>
	<path class="st21" d="M345.39,296.87c4.66,0.53,9.48,0.54,13.91-1.01c6.08-2.12,9.85-6.66,10.23-13.04c3.3,0,6.63-1.43,8.7-4.01
		c2.07-2.57,2.73-6.28,1.42-9.32c-0.24,3.26-1.92,6.39-4.51,8.39c-2.71,2.09-5.9,2.6-9.22,2.29c-1.13,3.83-3.47,7.77-6.83,10.09
		c-4.57,3.16-10.24,3.15-15.47,2.18c-3.27-0.61-6.33-1.52-8.99-3.57c-0.11-0.09-0.22-0.16-0.33-0.22c-0.05,0.55-0.08,1.11-0.08,1.68
		c0,0.53,0.04,1.05,0.08,1.57c-0.03,0-0.06,0-0.08,0c-0.03,0-0.07,0-0.1,0C336.6,295.1,341.81,296.46,345.39,296.87z"/>
	<path class="st16" d="M90.8,128.73c20.85-10.21,44.48-1.66,65.2,4.51c21.01,6.54,42.97,8.23,64.88,5.88
		C160.87,155.43,132.39,117.2,90.8,128.73L90.8,128.73z"/>
	<path class="st19" d="M305.15,268.18c-4.03,0-7.75,1.05-10.77,2.81c-3.53-1.77-7.7-2.81-12.19-2.81c-7.04,0-13.34,2.54-17.55,6.52
		c-1.61-0.69-3.45-1.08-5.41-1.08c-6.35,0-11.49,4.1-11.49,9.17c0,5.06,5.15,9.17,11.49,9.17c0.35,0,0.69-0.02,1.02-0.04
		c2.9,7.47,11.62,12.89,21.93,12.89c7.77,0,14.63-3.09,18.78-7.81c1.34,0.25,2.73,0.4,4.17,0.4c10.11,0,18.31-6.54,18.31-14.61
		C323.47,274.72,315.27,268.18,305.15,268.18z"/>
	<path class="st20" d="M296.17,252.14c-4.03,0-7.75,1.05-10.77,2.81c-3.53-1.77-7.7-2.81-12.19-2.81c-7.04,0-13.34,2.54-17.55,6.52
		c-1.61-0.69-3.45-1.08-5.41-1.08c-6.35,0-11.49,4.1-11.49,9.17c0,5.06,5.15,9.17,11.49,9.17c0.35,0,0.69-0.02,1.02-0.04
		c2.9,7.47,11.62,12.89,21.93,12.89c7.77,0,14.63-3.09,18.78-7.81c1.34,0.25,2.73,0.4,4.17,0.4c10.11,0,18.31-6.54,18.31-14.61
		C314.48,258.68,306.28,252.14,296.17,252.14z"/>
	<path class="st21" d="M311.83,259.2c0.01,0.15,0.03,0.29,0.03,0.44c0,8.07-8.2,14.61-18.31,14.61c-1.44,0-2.83-0.15-4.17-0.4
		c-4.15,4.72-11.01,7.81-18.78,7.81c-10.31,0-19.04-5.42-21.93-12.89c-0.34,0.02-0.68,0.04-1.02,0.04c-3.51,0-6.66-1.26-8.76-3.24
		c-0.06,0.39-0.1,0.78-0.1,1.18c0,5.06,5.15,9.17,11.49,9.17c0.35,0,0.69-0.02,1.02-0.04c2.9,7.47,11.62,12.89,21.93,12.89
		c7.77,0,14.63-3.09,18.78-7.81c1.34,0.25,2.73,0.4,4.17,0.4c10.11,0,18.31-6.54,18.31-14.61
		C314.48,263.98,313.5,261.4,311.83,259.2z"/>
	<path class="st16" d="M228.28,48.09c25.27-0.18,50.12-5.22,73.47-14.85C280.21,46.73,253.38,52.14,228.28,48.09L228.28,48.09z"/>
</g>
</svg>
