<svg width="44" height="44" viewBox="0 0 44 44" fill="none" xmlns="http://www.w3.org/2000/svg">
<rect width="44" height="44" rx="3" fill="white"/>
<g clip-path="url(#clip0)">
<path d="M4.3999 19.5913L6.22874 18.5352L13.3283 24.9459L11.5714 25.9492L10.1741 24.6079L7.31782 26.2344L7.67743 28.1776L5.98216 29.1493L4.3999 19.5913ZM6.97878 24.6079L8.96173 23.4778L6.29038 20.9009L6.97878 24.6079Z" fill="#1D1D1B"/>
<path d="M18.9072 15.6421C19.2549 15.991 19.4822 16.4471 19.5545 16.9411C19.6607 17.4123 19.5988 17.907 19.3798 18.3352C19.2316 18.5841 19.0358 18.7997 18.8044 18.9689C19.2429 19.0312 19.6482 19.2432 19.9552 19.5709C20.2609 19.924 20.4607 20.3605 20.5306 20.8277C20.6274 21.3304 20.581 21.8511 20.397 22.3274C20.2901 22.6342 20.1221 22.9148 19.9038 23.1511C19.6548 23.4322 19.3451 23.6492 18.9997 23.7848C18.6102 23.9494 18.2033 24.0664 17.7873 24.1333L13.8522 24.8726L12.3008 15.8638L16.5133 15.0717C16.9279 14.9681 17.3604 14.9657 17.7761 15.0647C18.1918 15.1638 18.5792 15.3615 18.9072 15.6421ZM14.2735 17.1312L14.6228 19.1167L16.7496 18.7154C17.0732 18.6701 17.3786 18.5349 17.6332 18.3246C17.7425 18.2164 17.8204 18.0792 17.8585 17.9282C17.8966 17.7772 17.8933 17.6183 17.8489 17.4692C17.8392 17.2935 17.7736 17.126 17.6622 16.9925C17.5508 16.8589 17.3998 16.7666 17.2325 16.7299C16.8895 16.6903 16.5425 16.7081 16.205 16.7827L14.2735 17.1312ZM14.8899 20.5953L15.3112 22.9927L17.438 22.5914C17.7402 22.5464 18.0303 22.4386 18.2907 22.2746C18.4656 22.1303 18.5944 21.9354 18.6604 21.7151C18.7263 21.4948 18.7264 21.2592 18.6606 21.0389C18.6426 20.837 18.5635 20.6459 18.4345 20.4925C18.3055 20.3391 18.1331 20.231 17.9414 20.1834C17.6427 20.1254 17.336 20.1254 17.0373 20.1834L14.8899 20.5953Z" fill="#1D1D1B"/>
<path d="M24.0036 15.6103C24.4056 15.2947 24.8673 15.0687 25.3591 14.9468C25.851 14.825 26.3621 14.81 26.8599 14.9027C27.48 14.9454 28.0794 15.149 28.6022 15.4943C29.1251 15.8397 29.5542 16.3156 29.8497 16.8776C30.126 17.4238 30.2504 18.0378 30.2093 18.652L28.3805 18.3774C28.3492 18.0059 28.2406 17.6457 28.062 17.3212C27.8891 17.0839 27.6684 16.8877 27.415 16.7461C27.1616 16.6045 26.8814 16.5208 26.5936 16.5007C26.3059 16.4807 26.0173 16.5247 25.7476 16.6299C25.4779 16.735 25.2335 16.8988 25.031 17.11C24.5136 17.7517 24.1983 18.5399 24.1269 19.3701C23.9539 20.1681 24.0518 21.003 24.4043 21.7359C24.5479 22.0012 24.7501 22.2283 24.9945 22.3989C25.239 22.5695 25.5189 22.6788 25.8119 22.718C26.0821 22.778 26.3624 22.7699 26.629 22.6945C26.8955 22.6191 27.1404 22.4786 27.3428 22.285C27.6083 22.008 27.8148 21.6771 27.949 21.3134L29.7675 21.588C29.515 22.4864 28.9712 23.269 28.2264 23.8059C27.4546 24.3293 26.5159 24.5261 25.6064 24.3551C25.053 24.3003 24.5183 24.1203 24.0404 23.8282C23.5626 23.5361 23.1536 23.1389 22.8426 22.6653C22.2227 21.5798 22.0142 20.2975 22.2569 19.0638C22.3084 18.3973 22.4895 17.7483 22.7896 17.155C23.0896 16.5618 23.5024 16.0365 24.0036 15.6103Z" fill="#1D1D1B"/>
<path d="M38.7265 19.4758C39.1835 19.9421 39.4763 20.5515 39.5588 21.2079C39.6402 21.743 39.6122 22.2898 39.4766 22.8132C39.3542 23.3056 39.1821 23.7834 38.9629 24.239C38.5168 25.2112 37.8293 26.0454 36.9696 26.6575C36.469 27.0032 35.8844 27.1983 35.2816 27.2207C34.6789 27.2431 34.0821 27.0919 33.5585 26.7842L30.1577 24.9994L34.175 16.8672L37.5861 18.652C38.0064 18.8626 38.3914 19.1407 38.7265 19.4758ZM35.0894 19.1273L32.4592 24.4079L33.9798 25.2106C34.3346 25.4121 34.744 25.4881 35.145 25.427C35.5459 25.366 35.9163 25.1712 36.1991 24.8726C36.6275 24.4738 36.9765 23.9932 37.2265 23.4574C37.5896 22.8155 37.7843 22.0877 37.7916 21.3452C37.7916 20.7643 37.36 20.289 36.61 19.8877L35.0894 19.1273Z" fill="#1D1D1B"/>
</g>
<defs>
<clipPath id="clip0">
<rect width="35.2" height="14.3" fill="white" transform="translate(4.3999 14.8496)"/>
</clipPath>
</defs>
</svg>
