<svg width="80" height="80" viewBox="0 0 80 80" fill="none" xmlns="http://www.w3.org/2000/svg">
<rect width="80" height="80" rx="3" fill="currentColor"/>
<path d="M48.4073 50.022H31.4545L27.9927 58.0656H20L36.6473 21.8184H43.0618L59.7091 58.0656H51.8691L48.4073 50.022ZM45.8109 43.9638L39.9564 30.3711L34.1018 43.9638H45.8109Z" fill="#18191F"/>
<g opacity="0.3" filter="url(#filter0_f)">
<path d="M52.0435 53.6582H35.0908L31.629 61.7019H23.6362L40.2835 25.4546H46.6981L63.3453 61.7019H55.5053L52.0435 53.6582ZM49.4471 47.6L43.5926 34.0073L37.738 47.6H49.4471Z" fill="#18191F"/>
</g>
<g opacity="0.1" filter="url(#filter1_f)">
<path d="M55.6802 57.2949H38.7275L35.2657 65.3386H27.2729L43.9202 29.0913H50.3348L66.982 65.3386H59.142L55.6802 57.2949ZM53.0839 51.2368L47.2293 37.644L41.3748 51.2368H53.0839Z" fill="#18191F"/>
</g>
<defs>
<filter id="filter0_f" x="22.6362" y="24.4546" width="41.7091" height="38.2473" filterUnits="userSpaceOnUse" color-interpolation-filters="sRGB">
<feFlood flood-opacity="0" result="BackgroundImageFix"/>
<feBlend mode="normal" in="SourceGraphic" in2="BackgroundImageFix" result="shape"/>
<feGaussianBlur stdDeviation="0.5" result="effect1_foregroundBlur"/>
</filter>
<filter id="filter1_f" x="26.2729" y="28.0913" width="41.7091" height="38.2473" filterUnits="userSpaceOnUse" color-interpolation-filters="sRGB">
<feFlood flood-opacity="0" result="BackgroundImageFix"/>
<feBlend mode="normal" in="SourceGraphic" in2="BackgroundImageFix" result="shape"/>
<feGaussianBlur stdDeviation="0.5" result="effect1_foregroundBlur"/>
</filter>
</defs>
</svg>
