<svg width="56" height="56" viewBox="0 0 56 56" fill="none" xmlns="http://www.w3.org/2000/svg">
<rect width="56" height="56" rx="4" fill="white"/>
<path d="M14.9129 24.98V32H13.2029V29.11H10.5429V32H8.83289V24.98H10.5429V27.73H13.2029V24.98H14.9129ZM22.4073 29.12C22.4073 29.28 22.3973 29.4467 22.3773 29.62H18.5073C18.534 29.9667 18.644 30.2333 18.8373 30.42C19.0373 30.6 19.2807 30.69 19.5673 30.69C19.994 30.69 20.2907 30.51 20.4573 30.15H22.2773C22.184 30.5167 22.014 30.8467 21.7673 31.14C21.5273 31.4333 21.224 31.6633 20.8573 31.83C20.4907 31.9967 20.0807 32.08 19.6273 32.08C19.0807 32.08 18.594 31.9633 18.1673 31.73C17.7407 31.4967 17.4073 31.1633 17.1673 30.73C16.9273 30.2967 16.8073 29.79 16.8073 29.21C16.8073 28.63 16.924 28.1233 17.1573 27.69C17.3973 27.2567 17.7307 26.9233 18.1573 26.69C18.584 26.4567 19.074 26.34 19.6273 26.34C20.1673 26.34 20.6473 26.4533 21.0673 26.68C21.4873 26.9067 21.814 27.23 22.0473 27.65C22.2873 28.07 22.4073 28.56 22.4073 29.12ZM20.6573 28.67C20.6573 28.3767 20.5573 28.1433 20.3573 27.97C20.1573 27.7967 19.9073 27.71 19.6073 27.71C19.3207 27.71 19.0773 27.7933 18.8773 27.96C18.684 28.1267 18.564 28.3633 18.5173 28.67H20.6573ZM26.0195 24.6V32H24.3095V24.6H26.0195ZM29.9687 24.6V32H28.2587V24.6H29.9687ZM34.7479 32.08C34.2012 32.08 33.7079 31.9633 33.2679 31.73C32.8346 31.4967 32.4912 31.1633 32.2379 30.73C31.9912 30.2967 31.8679 29.79 31.8679 29.21C31.8679 28.6367 31.9946 28.1333 32.2479 27.7C32.5012 27.26 32.8479 26.9233 33.2879 26.69C33.7279 26.4567 34.2212 26.34 34.7679 26.34C35.3146 26.34 35.8079 26.4567 36.2479 26.69C36.6879 26.9233 37.0346 27.26 37.2879 27.7C37.5412 28.1333 37.6679 28.6367 37.6679 29.21C37.6679 29.7833 37.5379 30.29 37.2779 30.73C37.0246 31.1633 36.6746 31.4967 36.2279 31.73C35.7879 31.9633 35.2946 32.08 34.7479 32.08ZM34.7479 30.6C35.0746 30.6 35.3512 30.48 35.5779 30.24C35.8112 30 35.9279 29.6567 35.9279 29.21C35.9279 28.7633 35.8146 28.42 35.5879 28.18C35.3679 27.94 35.0946 27.82 34.7679 27.82C34.4346 27.82 34.1579 27.94 33.9379 28.18C33.7179 28.4133 33.6079 28.7567 33.6079 29.21C33.6079 29.6567 33.7146 30 33.9279 30.24C34.1479 30.48 34.4212 30.6 34.7479 30.6ZM41.8251 24.73L41.6251 29.52H40.1751L39.9751 24.73H41.8251ZM40.9251 32.08C40.6251 32.08 40.3784 31.9933 40.1851 31.82C39.9984 31.64 39.9051 31.42 39.9051 31.16C39.9051 30.8933 39.9984 30.67 40.1851 30.49C40.3784 30.31 40.6251 30.22 40.9251 30.22C41.2184 30.22 41.4584 30.31 41.6451 30.49C41.8384 30.67 41.9351 30.8933 41.9351 31.16C41.9351 31.42 41.8384 31.64 41.6451 31.82C41.4584 31.9933 41.2184 32.08 40.9251 32.08ZM46.7411 24.73L46.5411 29.52H45.0911L44.8911 24.73H46.7411ZM45.8411 32.08C45.5411 32.08 45.2944 31.9933 45.1011 31.82C44.9144 31.64 44.8211 31.42 44.8211 31.16C44.8211 30.8933 44.9144 30.67 45.1011 30.49C45.2944 30.31 45.5411 30.22 45.8411 30.22C46.1344 30.22 46.3744 30.31 46.5611 30.49C46.7544 30.67 46.8511 30.8933 46.8511 31.16C46.8511 31.42 46.7544 31.64 46.5611 31.82C46.3744 31.9933 46.1344 32.08 45.8411 32.08Z" fill="#18191F"/>
</svg>
