<svg width="80" height="80" viewBox="0 0 80 80" fill="none" xmlns="http://www.w3.org/2000/svg">
<rect width="80" height="80" rx="3" fill="currentColor"/>
<g filter="url(#filter0_i)">
<path d="M48.4073 50.022H31.4545L27.9927 58.0656H20L36.6473 21.8184H43.0618L59.7091 58.0656H51.8691L48.4073 50.022ZM45.8109 43.9638L39.9564 30.3711L34.1018 43.9638H45.8109Z" fill="white"/>
</g>
<path d="M27.9927 58.5656H28.3219L28.452 58.2633L31.7837 50.522H48.0781L51.4098 58.2633L51.5399 58.5656H51.8691H59.7091H60.4889L60.1635 57.857L43.5162 21.6097L43.3824 21.3184H43.0618H36.6473H36.3267L36.1929 21.6097L19.5456 57.857L19.2202 58.5656H20H27.9927ZM34.8616 43.4638L39.9564 31.6351L45.0511 43.4638H34.8616Z" stroke="#18191F"/>
<defs>
<filter id="filter0_i" x="18.4404" y="15.8184" width="42.8285" height="43.2473" filterUnits="userSpaceOnUse" color-interpolation-filters="sRGB">
<feFlood flood-opacity="0" result="BackgroundImageFix"/>
<feBlend mode="normal" in="SourceGraphic" in2="BackgroundImageFix" result="shape"/>
<feColorMatrix in="SourceAlpha" type="matrix" values="0 0 0 0 0 0 0 0 0 0 0 0 0 0 0 0 0 0 127 0" result="hardAlpha"/>
<feOffset dy="-5"/>
<feGaussianBlur stdDeviation="3"/>
<feComposite in2="hardAlpha" operator="arithmetic" k2="-1" k3="1"/>
<feColorMatrix type="matrix" values="0 0 0 0 0 0 0 0 0 0 0 0 0 0 0 0 0 0 0.25 0"/>
<feBlend mode="normal" in2="shape" result="effect1_innerShadow"/>
</filter>
</defs>
</svg>
