<?xml version="1.0" encoding="utf-8"?>
<!-- Generator: Adobe Illustrator 26.5.0, SVG Export Plug-In . SVG Version: 6.00 Build 0)  -->
<svg version="1.1" id="圖層_1" xmlns="http://www.w3.org/2000/svg" xmlns:xlink="http://www.w3.org/1999/xlink" x="0px" y="0px"
	 viewBox="0 0 503 503" style="enable-background:new 0 0 503 503;" xml:space="preserve">
<style type="text/css">
	.st0{fill:#FFFFFF;}
	.st1{fill:#93BAA6;}
	.st2{fill:#DBC8E8;}
	.st3{fill:#F9F6C2;}
	.st4{fill:#CAEAE9;}
	.st5{fill:#D0ECEB;}
	.st6{fill:#D5EEED;}
</style>
<rect class="st0" width="503" height="503"/>
<g>
	<path class="st1" d="M-13.83-13.83v530.67h530.67V-13.83H-13.83z M491.23,247.51l-17.72,0v8l17.72,0v235.72H255.49l0-11.74h-8
		l0,11.74H11.77V255.49l11.74,0v-8l-11.74,0V11.77h235.74l0,17.72h8l0-17.72h235.72V247.51z"/>
	<rect x="247.5" y="119.49" class="st1" width="8" height="30"/>
	<rect x="247.5" y="59.49" class="st1" width="8" height="30"/>
	<rect x="247.5" y="179.49" class="st1" width="8" height="30"/>
	<rect x="247.5" y="299.49" class="st1" width="8" height="30"/>
	<rect x="247.5" y="359.49" class="st1" width="8" height="30"/>
	<rect x="247.5" y="419.49" class="st1" width="8" height="30"/>
	<polygon class="st1" points="255.5,239.49 247.5,239.49 247.5,247.5 233.51,247.5 233.51,255.5 247.5,255.5 247.5,269.49 
		255.5,269.49 255.5,255.5 263.51,255.5 263.51,247.5 255.5,247.5 	"/>
	<rect x="413.51" y="247.5" class="st1" width="30" height="8"/>
	<rect x="173.51" y="247.5" class="st1" width="30" height="8"/>
	<rect x="113.51" y="247.5" class="st1" width="30" height="8"/>
	<rect x="53.51" y="247.5" class="st1" width="30" height="8"/>
	<rect x="293.51" y="247.5" class="st1" width="30" height="8"/>
	<rect x="353.51" y="247.5" class="st1" width="30" height="8"/>
</g>
</svg>
