<svg width="56" height="56" viewBox="0 0 56 56" fill="none" xmlns="http://www.w3.org/2000/svg">
<rect width="56" height="56" rx="4" fill="currentColor"/>
<path d="M13.2029 32H14.9129V24.98H13.2029V27.73H10.5429V24.98H8.83289V32H10.5429V29.11H13.2029V32ZM19.6073 27.71C20.1773 27.71 20.6573 28.06 20.6573 28.67H18.5173C18.6173 28.05 19.0473 27.71 19.6073 27.71ZM22.2773 30.15H20.4573C20.3173 30.45 20.0473 30.69 19.5673 30.69C19.0173 30.69 18.5673 30.35 18.5073 29.62H22.3773C22.3973 29.45 22.4073 29.28 22.4073 29.12C22.4073 27.42 21.2573 26.34 19.6273 26.34C17.9673 26.34 16.8073 27.44 16.8073 29.21C16.8073 30.98 17.9873 32.08 19.6273 32.08C21.0173 32.08 22.0073 31.24 22.2773 30.15ZM24.3095 32H26.0195V24.6H24.3095V32ZM28.2587 32H29.9687V24.6H28.2587V32ZM37.6679 29.21C37.6679 27.44 36.4079 26.34 34.7679 26.34C33.1379 26.34 31.8679 27.44 31.8679 29.21C31.8679 30.98 33.1079 32.08 34.7479 32.08C36.3879 32.08 37.6679 30.98 37.6679 29.21ZM33.6079 29.21C33.6079 28.26 34.1479 27.82 34.7679 27.82C35.3679 27.82 35.9279 28.26 35.9279 29.21C35.9279 30.15 35.3579 30.6 34.7479 30.6C34.1279 30.6 33.6079 30.15 33.6079 29.21ZM40.1751 29.52H41.6251L41.8251 24.73H39.9751L40.1751 29.52ZM41.9351 31.16C41.9351 30.63 41.5251 30.22 40.9251 30.22C40.3151 30.22 39.9051 30.63 39.9051 31.16C39.9051 31.67 40.3151 32.08 40.9251 32.08C41.5251 32.08 41.9351 31.67 41.9351 31.16ZM45.0911 29.52H46.5411L46.7411 24.73H44.8911L45.0911 29.52ZM46.8511 31.16C46.8511 30.63 46.4411 30.22 45.8411 30.22C45.2311 30.22 44.8211 30.63 44.8211 31.16C44.8211 31.67 45.2311 32.08 45.8411 32.08C46.4411 32.08 46.8511 31.67 46.8511 31.16Z" fill="#18191F"/>
</svg>
