<?xml version="1.0" encoding="utf-8"?>
<!-- Generator: Adobe Illustrator 26.5.0, SVG Export Plug-In . SVG Version: 6.00 Build 0)  -->
<svg version="1.1" id="圖層_1" xmlns="http://www.w3.org/2000/svg" xmlns:xlink="http://www.w3.org/1999/xlink" x="0px" y="0px"
	 viewBox="0 0 530.7 530.7" style="enable-background:new 0 0 530.7 530.7;" xml:space="preserve">
<g>
	<path fill="currentColor" d="M0,0v530.7h530.7V0H0z M505.1,261.3h-17.7v8h17.7v235.7H269.3v-11.7h-8v11.7H25.6V269.3h11.7v-8H25.6V25.6
		h235.7v17.7h8V25.6h235.7V261.3z"/>
	<rect x="261.3" y="133.3" fill="currentColor" width="8" height="30"/>
	<rect x="261.3" y="73.3" fill="currentColor" width="8" height="30"/>
	<rect x="261.3" y="193.3" fill="currentColor" width="8" height="30"/>
	<rect x="261.3" y="313.3" fill="currentColor" width="8" height="30"/>
	<rect x="261.3" y="373.3" fill="currentColor" width="8" height="30"/>
	<rect x="261.3" y="433.3" fill="currentColor" width="8" height="30"/>
	<polygon fill="currentColor" points="269.3,253.3 261.3,253.3 261.3,261.3 247.3,261.3 247.3,269.3 261.3,269.3 261.3,283.3 269.3,283.3 
		269.3,269.3 277.3,269.3 277.3,261.3 269.3,261.3 	"/>
	<rect x="427.3" y="261.3" fill="currentColor" width="30" height="8"/>
	<rect x="187.3" y="261.3" fill="currentColor" width="30" height="8"/>
	<rect x="127.3" y="261.3" fill="currentColor" width="30" height="8"/>
	<rect x="67.3" y="261.3" fill="currentColor" width="30" height="8"/>
	<rect x="307.3" y="261.3" fill="currentColor" width="30" height="8"/>
	<rect x="367.3" y="261.3" fill="currentColor" width="30" height="8"/>
</g>
</svg>
