<svg width="60" height="60" viewBox="0 0 60 60" fill="none" xmlns="http://www.w3.org/2000/svg">
<rect width="59.07" height="59.07" rx="3" fill="white"/>
<path d="M11.2739 27.7493L15.7676 36.7945L13.5645 37.889L12.8437 36.4382C12.8182 37.0762 12.6199 37.666 12.2489 38.2076C11.8718 38.7374 11.355 39.1654 10.6982 39.4917C9.9101 39.8832 9.11664 40.0392 8.31782 39.9596C7.519 39.88 6.77741 39.571 6.09306 39.0326C5.40871 38.4942 4.83518 37.7593 4.37246 36.8279C3.90975 35.8965 3.66759 34.9896 3.646 34.107C3.63042 33.2066 3.82924 32.4081 4.24246 31.7115C4.64976 31.0029 5.24148 30.4558 6.01764 30.0703C6.67439 29.744 7.33069 29.5966 7.98652 29.6281C8.63642 29.6476 9.22327 29.84 9.74707 30.205L9.07079 28.8438L11.2739 27.7493ZM10.4351 37.4338C11.1755 37.066 11.6211 36.5245 11.772 35.8094C11.9229 35.0942 11.767 34.2709 11.3043 33.3395C10.8297 32.3842 10.2619 31.7507 9.6008 31.439C8.93972 31.1272 8.23304 31.1582 7.48076 31.5319C6.74042 31.8997 6.29476 32.4561 6.14378 33.2011C5.99881 33.9282 6.16065 34.7634 6.6293 35.7067C7.09202 36.6381 7.65095 37.2537 8.3061 37.5536C8.97318 37.8474 9.68287 37.8075 10.4351 37.4338Z" fill="black"/>
<path d="M22.4115 24.3733C23.2827 24.2489 24.0794 24.3573 24.8015 24.6986C25.535 25.0249 26.1422 25.551 26.623 26.2769C27.1038 27.0029 27.4178 27.8807 27.5648 28.9102C27.7119 29.9398 27.6515 30.8845 27.3837 31.7443C27.1273 32.5891 26.6936 33.2773 26.0826 33.809C25.4848 34.3389 24.757 34.6651 23.899 34.7876C23.1599 34.8932 22.4773 34.8291 21.8513 34.5952C21.2384 34.3595 20.7463 33.9786 20.3748 33.4525L20.6096 35.0958L18.1743 35.4437L16.0929 20.8716L18.548 20.5209L19.4162 26.5992C19.6406 26.0015 20.0149 25.5103 20.5391 25.1256C21.0614 24.7278 21.6856 24.477 22.4115 24.3733ZM22.9685 32.9406C23.7869 32.8237 24.379 32.4429 24.7448 31.798C25.1106 31.1531 25.2191 30.3093 25.0701 29.2666C24.9231 28.237 24.5856 27.4771 24.0576 26.9868C23.5278 26.4833 22.8471 26.291 22.0155 26.4098C21.1839 26.5285 20.5843 26.9038 20.2166 27.5354C19.8489 28.1671 19.7395 29.0043 19.8884 30.0471C20.0393 31.103 20.3796 31.8827 20.9094 32.3862C21.4374 32.8765 22.1238 33.0613 22.9685 32.9406Z" fill="black"/>
<path d="M34.6605 35.091C33.6205 34.9236 32.7527 34.5678 32.057 34.0236C31.3613 33.4795 30.8709 32.7928 30.5857 31.9636C30.3027 31.1213 30.2448 30.1801 30.4122 29.1402C30.5797 28.1002 30.9375 27.2192 31.4859 26.4972C32.0475 25.7773 32.7516 25.2627 33.5982 24.9533C34.46 24.6329 35.4044 24.5553 36.4312 24.7206C37.142 24.835 37.8085 25.0571 38.4307 25.3868C39.066 25.7187 39.5493 26.1139 39.8807 26.5723L38.9099 28.1987C38.5437 27.7887 38.1375 27.4599 37.6911 27.2125C37.2469 26.9519 36.7944 26.7845 36.3337 26.7104C35.4385 26.5663 34.6953 26.737 34.1039 27.2225C33.5147 27.6949 33.1353 28.4576 32.9658 29.5107C32.7963 30.5638 32.9106 31.406 33.3086 32.0373C33.7198 32.6707 34.3796 33.0605 35.2879 33.2067C35.7487 33.2809 36.2308 33.264 36.7344 33.156C37.2379 33.048 37.7279 32.8567 38.2042 32.5823L38.6156 34.4312C38.1308 34.7583 37.5347 34.9797 36.8273 35.0954C36.1199 35.2111 35.3977 35.2096 34.6605 35.091Z" fill="black"/>
<path d="M55.52 27.6336L48.9708 40.8164L46.7677 39.7219L47.4884 38.2711C46.9647 38.6361 46.3748 38.8344 45.719 38.8659C45.0691 38.8855 44.4158 38.7321 43.759 38.4058C42.9829 38.0202 42.3882 37.4791 41.9749 36.7825C41.5617 36.0859 41.3599 35.2934 41.3696 34.4049C41.3971 33.5104 41.6422 32.5975 42.1049 31.6661C42.5677 30.7347 43.1412 29.9998 43.8255 29.4614C44.5099 28.9229 45.2515 28.614 46.0503 28.5344C46.8551 28.4429 47.6515 28.5929 48.4396 28.9844C49.0844 29.3048 49.5893 29.7268 49.9544 30.2506C50.3374 30.7684 50.5445 31.3403 50.576 31.9664L53.2811 26.5213L55.52 27.6336ZM45.2221 36.9442C45.9625 37.312 46.6632 37.34 47.3243 37.0282C47.9973 36.7224 48.5681 36.0978 49.0368 35.1545C49.5054 34.2111 49.6643 33.3819 49.5134 32.6667C49.3625 31.9516 48.9169 31.4101 48.1765 31.0423C47.4242 30.6686 46.7116 30.6346 46.0386 30.9404C45.3834 31.2403 44.8245 31.8559 44.3618 32.7873C43.8931 33.7306 43.7313 34.5658 43.8763 35.2929C44.0332 36.0259 44.4818 36.5764 45.2221 36.9442Z" fill="black"/>
</svg>
