<svg width="57" height="56" viewBox="0 0 57 56" fill="none" xmlns="http://www.w3.org/2000/svg">
<rect x="0.5" width="56" height="56" rx="3" fill="currentColor"/>
<path d="M40.9913 37.0355L40.8621 36.7303H40.5308H28.5769H28.2456L28.1164 37.0355L25.8045 42.5H21.2743L32.5613 17.5H36.4387L47.7257 42.5H43.3032L40.9913 37.0355ZM38.7 33.3848H39.4547L39.1604 32.6899L35.0322 22.9399L34.5718 21.8524L34.1114 22.9399L29.9832 32.6899L29.6889 33.3848H30.4436H38.7Z" fill="#F1D289" stroke="#18191F"/>
<path d="M34.5308 35.2303H22.5769L20.1359 41H14.5L26.2385 15H30.7615L42.5 41H36.9718L34.5308 35.2303ZM32.7 30.8848L28.5718 21.1348L24.4436 30.8848H32.7Z" fill="black"/>
</svg>
