<svg width="56" height="56" viewBox="0 0 56 56" fill="none" xmlns="http://www.w3.org/2000/svg">
<rect width="56" height="56" rx="3" fill="white"/>
<path fill-rule="evenodd" clip-rule="evenodd" d="M37.1462 42.2303H28.0769L25.6359 48H20L20.4515 47H19L19.4515 46H18L18.4515 45H17L17.4515 44H16L16.4515 43H15L15.4515 42H14L14.4515 41H13L13.4515 40H12L12.4515 39H11L11.4515 38H10L10.4515 37H9L9.45148 36H8L19.7385 10H24.2615L24.713 11H25.2615L25.713 12H26.2615L26.713 13H27.2615L27.713 14H28.2615L28.713 15H29.2615L29.713 16H30.2615L30.713 17H31.2615L31.713 18H32.2615L32.713 19H33.2615L33.713 20H34.2615L34.713 21H35.2615L35.713 22H36.2615L48 48H42.4718L42.0487 47H41.4718L41.0487 46H40.4718L40.0487 45H39.4718L39.0487 44H38.4718L38.0487 43H37.4718L37.1462 42.2303Z" fill="#F1D289"/>
<path d="M27.0308 29.2303H15.0769L12.6359 35H7L18.7385 9H23.2615L35 35H29.4718L27.0308 29.2303ZM25.2 24.8848L21.0718 15.1348L16.9436 24.8848H25.2Z" fill="black"/>
</svg>
