<svg width="56" height="56" viewBox="0 0 56 56" fill="none" xmlns="http://www.w3.org/2000/svg">
<rect width="56" height="56" rx="3" fill="currentColor"/>
<rect x="1" y="23" width="10" height="10" rx="5" fill="#EEDFD1"/>
<path d="M7.85213 30.5H6.49213V28.62H5.55613V30.5H4.18013V25.532H5.55613V27.484H6.49213V25.532H7.85213V30.5Z" fill="black"/>
<rect x="12" y="23" width="10" height="10" rx="5" fill="#EEDFD1"/>
<path d="M18.4228 30.5H15.7348V25.532H18.5028L18.4228 26.756H17.1028V27.5H18.2468V28.556H17.1028V29.38H18.5028L18.4228 30.5Z" fill="black"/>
<rect x="23" y="23" width="10" height="10" rx="5" fill="#EEDFD1"/>
<path d="M29.4308 30.5H26.9028V25.532H28.2708V29.388H29.5108L29.4308 30.5Z" fill="black"/>
<rect x="34" y="23" width="10" height="10" rx="5" fill="#EEDFD1"/>
<path d="M40.4308 30.5H37.9028V25.532H39.2708V29.388H40.5108L40.4308 30.5Z" fill="black"/>
<rect x="45" y="23" width="10" height="10" rx="5" fill="#EEDFD1"/>
<path d="M48.4957 26.052C48.805 25.652 49.309 25.452 50.0077 25.452C50.7063 25.452 51.205 25.6493 51.5037 26.044C51.8077 26.4387 51.9597 27.0813 51.9597 27.972C51.9597 28.8573 51.805 29.5133 51.4957 29.94C51.1863 30.3667 50.685 30.58 49.9917 30.58C49.2983 30.58 48.7997 30.3693 48.4957 29.948C48.1917 29.5267 48.0397 28.8733 48.0397 27.988C48.0397 27.0973 48.1917 26.452 48.4957 26.052ZM50.5837 27.972C50.5837 27.4813 50.5437 27.1507 50.4637 26.98C50.389 26.804 50.2317 26.716 49.9917 26.716C49.757 26.716 49.605 26.804 49.5357 26.98C49.4663 27.1507 49.4317 27.4787 49.4317 27.964V28.156C49.4317 28.6733 49.469 29.0147 49.5437 29.18C49.6237 29.34 49.781 29.42 50.0157 29.42C50.2557 29.42 50.4103 29.3427 50.4797 29.188C50.549 29.0333 50.5837 28.7133 50.5837 28.228V27.972Z" fill="black"/>
</svg>
