<svg width="140" height="120" viewBox="0 0 140 120" fill="none" xmlns="http://www.w3.org/2000/svg">
<rect x="0.5" y="0.5" width="139" height="119" rx="3.5" stroke="#D9DBE1"/>
<g clip-path="url(#clip0_8465_82657)">
<rect x="20" y="32" width="100" height="56.25" rx="4" fill="white"/>
<rect x="20" y="32" width="100" height="56.25" fill="url(#paint0_linear_8465_82657)"/>
<path d="M82 60C82 53.3726 76.6274 48 70 48C63.3726 48 58 53.3726 58 60C58 65.9895 62.3882 70.954 68.125 71.8542V63.4687H65.0781V60H68.125V57.3562C68.125 54.3487 69.9165 52.6875 72.6576 52.6875C73.9705 52.6875 75.3438 52.9219 75.3438 52.9219V55.875H73.8306C72.3399 55.875 71.875 56.8 71.875 57.749V60H75.2031L74.6711 63.4687H71.875V71.8542C77.6118 70.954 82 65.9895 82 60Z" fill="#1877F2"/>
<path d="M74.6711 63.4688L75.2031 60H71.875V57.749C71.875 56.8 72.3399 55.875 73.8306 55.875H75.3438V52.9219C75.3438 52.9219 73.9705 52.6875 72.6576 52.6875C69.9165 52.6875 68.125 54.3487 68.125 57.3563V60H65.0781V63.4688H68.125V71.8542C69.3674 72.0486 70.6326 72.0486 71.875 71.8542V63.4688H74.6711Z" fill="white"/>
</g>
<defs>
<linearGradient id="paint0_linear_8465_82657" x1="70" y1="32" x2="70" y2="88.25" gradientUnits="userSpaceOnUse">
<stop stop-color="#C9DBFF"/>
<stop offset="1" stop-color="#F1F6FF"/>
</linearGradient>
<clipPath id="clip0_8465_82657">
<rect x="20" y="32" width="100" height="56.25" rx="4" fill="white"/>
</clipPath>
</defs>
</svg>
