<svg width="140" height="120" viewBox="0 0 140 120" fill="none" xmlns="http://www.w3.org/2000/svg">
<rect x="0.5" y="0.5" width="139" height="119" rx="3.5" stroke="#D9DBE1"/>
<rect x="20" y="10" width="100" height="100" rx="4" fill="white"/>
<path d="M120 10H20V110H120V10Z" fill="url(#paint0_linear_8465_82657)"/>
<path d="M70 72C76.6274 72 82 66.6274 82 60C82 53.3726 76.6274 48 70 48C63.3726 48 58 53.3726 58 60C58 66.6274 63.3726 72 70 72Z" fill="white"/>
<path d="M67.7437 55.1497C67.87 54.9055 67.9963 54.6529 68.1732 54.4339C69.1837 53.1792 71.1795 53.3139 71.9963 54.7034C72.7205 55.9329 73.4195 57.1708 74.1353 58.4002C74.8511 59.6381 75.5669 60.8676 76.2742 62.1055C76.4763 62.4508 76.6953 62.7876 76.8553 63.1497C77.4195 64.4297 76.6869 65.9792 75.3311 66.3413C74.2532 66.6276 73.1753 66.1729 72.6279 65.196C71.769 63.6886 70.8932 62.1813 70.0258 60.6739C70.0174 60.6655 70.009 60.6571 70.0005 60.6487C70.0005 60.6402 70.0005 60.6234 69.9921 60.615C69.7816 60.2697 69.5963 59.9076 69.3858 59.5623C69.1669 59.1918 68.9563 58.8213 68.7374 58.4508C68.4511 57.9792 68.19 57.4908 67.9206 57.0108C67.7521 56.716 67.6595 56.3876 67.6511 56.0508C67.6511 55.8823 67.6427 55.7055 67.6848 55.5371C67.71 55.4108 67.7774 55.2844 67.7437 55.1497Z" fill="#5487C6"/>
<path d="M67.7415 55.1499C67.7752 55.2846 67.7078 55.411 67.6742 55.5373C67.632 55.7141 67.6405 55.8825 67.6405 56.051C67.6489 56.3962 67.7415 56.7162 67.9099 57.011C68.1794 57.491 68.4405 57.9794 68.7268 58.451C68.9457 58.8215 69.1563 59.192 69.3752 59.5625C69.5857 59.9078 69.771 60.2615 69.9815 60.6152C69.9899 60.6236 69.9899 60.6404 69.9899 60.6489C69.8299 60.9183 69.6699 61.1878 69.5099 61.4573C69.3078 61.811 69.1057 62.1646 68.9036 62.5183C68.5836 63.0741 68.2636 63.6299 67.9436 64.1857C67.8257 64.3878 67.7078 64.5815 67.5984 64.7836C67.5815 64.8088 67.5647 64.8257 67.5394 64.8425C67.5394 64.792 67.5394 64.7415 67.5563 64.6994C67.6068 64.5562 67.632 64.4046 67.6405 64.2531C67.6489 64.0594 67.6489 63.8657 67.6068 63.672C67.5563 63.4446 67.5057 63.2257 67.3963 63.0152C67.211 62.6446 66.9415 62.3331 66.5963 62.1057C66.2847 61.9036 65.931 61.7773 65.552 61.7267C65.232 61.6846 64.9205 61.7267 64.6257 61.8025C64.2468 61.9036 63.9099 62.1057 63.632 62.4004C63.5899 62.451 63.5563 62.5183 63.4805 62.5267C63.5731 62.2825 63.7247 62.072 63.851 61.8446C64.1878 61.2467 64.5331 60.6573 64.8699 60.0594C65.2152 59.4615 65.5605 58.8636 65.9057 58.2741C66.2931 57.6004 66.6889 56.9267 67.0678 56.2446C67.2784 55.8825 67.4889 55.5204 67.6994 55.1583C67.7163 55.1583 67.7331 55.1583 67.7415 55.1499Z" fill="#F2BE20"/>
<path d="M63.4824 62.5349C63.5582 62.5265 63.5919 62.4592 63.634 62.4086C63.9119 62.1139 64.2487 61.9118 64.6276 61.8107C64.9224 61.7349 65.234 61.6928 65.554 61.7349C65.9413 61.7855 66.2866 61.9118 66.5982 62.1139C66.9434 62.3328 67.2129 62.6444 67.3982 63.0234C67.4992 63.2339 67.5582 63.4528 67.6087 63.6802C67.6508 63.8739 67.6508 64.0676 67.6424 64.2613C67.634 64.4128 67.6087 64.5644 67.5582 64.7076C67.5413 64.7497 67.5498 64.8002 67.5413 64.8507C67.1961 65.6255 66.6571 66.1813 65.8066 66.3749C64.4929 66.6781 63.154 65.7686 62.9687 64.4381C62.8845 63.8486 63.0024 63.2928 63.3224 62.7792C63.3813 62.6949 63.4319 62.6192 63.4824 62.5349Z" fill="#40A95E"/>
<defs>
<linearGradient id="paint0_linear_8465_82657" x1="64.6322" y1="5.59371" x2="75.3798" y2="114.413" gradientUnits="userSpaceOnUse">
<stop stop-color="#CEEBFB"/>
<stop offset="0.5661" stop-color="#F6FBFE"/>
<stop offset="1" stop-color="#FFFEF0"/>
</linearGradient>
</defs>
</svg>
