<svg width="140" height="120" viewBox="0 0 140 120" fill="none" xmlns="http://www.w3.org/2000/svg">
<rect x="0.5" y="0.5" width="139" height="119" rx="3.5" stroke="#D9DBE1"/>
<rect x="20" y="10" width="100" height="100" rx="4" fill="url(#paint0_linear_8465_82657)"/>
<path d="M70.5 73C77.4036 73 83 67.4036 83 60.5C83 53.5964 77.4036 48 70.5 48C63.5964 48 58 53.5964 58 60.5C58 67.4036 63.5964 73 70.5 73Z" fill="#00B900"/>
<path d="M78.9777 59.8539C78.9777 56.0428 75.1573 52.9409 70.4592 52.9409C65.761 52.9409 61.9407 56.0428 61.9407 59.8539C61.9407 63.2706 64.9721 66.1335 69.0647 66.6743C69.3425 66.7335 69.7203 66.8594 69.8148 67.0946C69.8822 67.346 69.8917 67.6094 69.8425 67.865C69.8425 67.865 69.7425 68.465 69.7222 68.5928C69.6851 68.8094 69.5499 69.4354 70.4629 69.052C71.3759 68.6687 75.3685 66.165 77.1555 64.1076C78.3907 62.7539 78.9814 61.3798 78.9814 59.8483" fill="white"/>
<path d="M68.7278 58.0111H68.1315C68.0873 58.0111 68.0449 58.0287 68.0136 58.0599C67.9824 58.0912 67.9648 58.1336 67.9648 58.1778V61.8815C67.9648 61.9033 67.9692 61.9249 67.9776 61.945C67.986 61.9651 67.9983 61.9834 68.0138 61.9987C68.0293 62.014 68.0476 62.0261 68.0679 62.0343C68.0881 62.0425 68.1097 62.0466 68.1315 62.0463H68.7278C68.7496 62.0466 68.7712 62.0425 68.7914 62.0343C68.8117 62.0261 68.83 62.014 68.8455 61.9987C68.861 61.9834 68.8734 61.9651 68.8817 61.945C68.8901 61.9249 68.8945 61.9033 68.8945 61.8815V58.1759C68.8945 58.1317 68.8769 58.0894 68.8456 58.0581C68.8144 58.0268 68.772 58.0093 68.7278 58.0093" fill="#00B900"/>
<path d="M72.8462 58.0111H72.2499C72.2057 58.0111 72.1633 58.0287 72.1321 58.0599C72.1008 58.0912 72.0833 58.1336 72.0833 58.1778V60.3834L70.3833 58.0852L70.3703 58.0685H69.7259C69.7041 58.0685 69.6825 58.0729 69.6624 58.0813C69.6422 58.0897 69.624 58.102 69.6087 58.1175C69.5933 58.133 69.5812 58.1514 69.573 58.1716C69.5649 58.1918 69.5608 58.2134 69.561 58.2352V61.9389C69.561 61.9826 69.5784 62.0245 69.6093 62.0555C69.6402 62.0864 69.6822 62.1037 69.7259 62.1037H70.324C70.3679 62.1037 70.41 62.0864 70.4412 62.0556C70.4724 62.0247 70.4902 61.9828 70.4907 61.9389V59.7352L72.1925 62.0352C72.2044 62.051 72.2188 62.0647 72.2351 62.0759V62.0759H72.2444H72.2555C72.2696 62.0779 72.284 62.0779 72.2981 62.0759H72.8462C72.868 62.0762 72.8897 62.0721 72.9099 62.0639C72.9301 62.0558 72.9485 62.0437 72.964 62.0283C72.9795 62.013 72.9918 61.9948 73.0002 61.9746C73.0086 61.9545 73.0129 61.9329 73.0129 61.9111V58.1759C73.0129 58.1541 73.0086 58.1324 73.0002 58.1122C72.9918 58.0919 72.9795 58.0736 72.9641 58.0581C72.9486 58.0426 72.9302 58.0303 72.91 58.022C72.8898 58.0136 72.8681 58.0093 72.8462 58.0093" fill="#00B900"/>
<path d="M67.2908 61.1259H65.6667V58.1759C65.6667 58.1317 65.6491 58.0894 65.6179 58.0581C65.5866 58.0268 65.5442 58.0093 65.5 58.0093H64.9037C64.8595 58.0093 64.8171 58.0268 64.7859 58.0581C64.7546 58.0894 64.7371 58.1317 64.7371 58.1759V61.8796C64.7374 61.9224 64.7539 61.9634 64.7834 61.9945V61.9945C64.8144 62.0239 64.8554 62.0404 64.8982 62.0408H67.2908C67.3346 62.0403 67.3765 62.0225 67.4074 61.9913C67.4383 61.9601 67.4556 61.918 67.4556 61.8741V61.2759C67.4556 61.2322 67.4382 61.1903 67.4073 61.1594C67.3764 61.1285 67.3345 61.1111 67.2908 61.1111" fill="#00B900"/>
<path d="M76.1408 58.9408C76.1626 58.941 76.1842 58.9369 76.2044 58.9287C76.2246 58.9206 76.243 58.9085 76.2585 58.8931C76.274 58.8778 76.2863 58.8596 76.2947 58.8394C76.3031 58.8193 76.3074 58.7977 76.3074 58.7759V58.1759C76.3074 58.1317 76.2899 58.0894 76.2586 58.0581C76.2274 58.0268 76.185 58.0093 76.1408 58.0093H73.7537C73.7106 58.0095 73.6693 58.0268 73.6389 58.0574V58.0574C73.61 58.0886 73.5941 58.1297 73.5945 58.1722V58.1722V61.8759C73.5943 61.8972 73.5982 61.9183 73.6062 61.938C73.6141 61.9577 73.6259 61.9756 73.6408 61.9908V61.9908C73.6712 62.0214 73.7125 62.0387 73.7556 62.0389H76.1426C76.1868 62.0389 76.2292 62.0213 76.2605 61.9901C76.2917 61.9588 76.3093 61.9165 76.3093 61.8723V61.2741C76.3093 61.2523 76.305 61.2307 76.2966 61.2106C76.2882 61.1905 76.2759 61.1722 76.2604 61.1569C76.2449 61.1416 76.2265 61.1295 76.2063 61.1213C76.1861 61.1131 76.1644 61.109 76.1426 61.1093H74.513V60.4815H76.1371C76.1813 60.4815 76.2237 60.4639 76.2549 60.4327C76.2862 60.4014 76.3038 60.359 76.3038 60.3148V59.7185C76.3038 59.6743 76.2862 59.6319 76.2549 59.6007C76.2237 59.5694 76.1813 59.5519 76.1371 59.5519H74.513V58.9241L76.1408 58.9408Z" fill="#00B900"/>
<defs>
<linearGradient id="paint0_linear_8465_82657" x1="70" y1="10" x2="70" y2="110" gradientUnits="userSpaceOnUse">
<stop stop-color="#E1FFDC"/>
<stop offset="1" stop-color="#C1F1B9"/>
</linearGradient>
</defs>
</svg>
