<svg width="140" height="120" viewBox="0 0 140 120" fill="none" xmlns="http://www.w3.org/2000/svg">
<rect x="0.5" y="0.5" width="139" height="119" rx="3.5" stroke="#D9DBE1"/>
<path d="M30 14C30 11.7909 31.7909 10 34 10H106C108.209 10 110 11.7909 110 14V119H30V14Z" fill="white"/>
<path d="M30 10H110V119H30V10Z" fill="url(#paint0_linear_8465_82657)"/>
<path d="M70 77C76.6274 77 82 71.6274 82 65C82 58.3726 76.6274 53 70 53C63.3726 53 58 58.3726 58 65C58 71.6274 63.3726 77 70 77Z" fill="#FD5822"/>
<path d="M74.6406 72.5C75.3396 72.5 75.9062 71.9334 75.9062 71.2344C75.9062 70.5354 75.3396 69.9688 74.6406 69.9688C73.9416 69.9688 73.375 70.5354 73.375 71.2344C73.375 71.9334 73.9416 72.5 74.6406 72.5Z" fill="white"/>
<path d="M68.7344 72.5C69.4334 72.5 70 71.9334 70 71.2344C70 70.5354 69.4334 69.9688 68.7344 69.9688C68.0354 69.9688 67.4688 70.5354 67.4688 71.2344C67.4688 71.9334 68.0354 72.5 68.7344 72.5Z" fill="white"/>
<path d="M63.25 59H65.6607L67.2759 67.0699C67.331 67.3473 67.482 67.5966 67.7023 67.774C67.9227 67.9514 68.1984 68.0456 68.4813 68.0402H74.3393C74.6221 68.0456 74.8979 67.9514 75.1182 67.774C75.3386 67.5966 75.4895 67.3473 75.5446 67.0699L76.5089 62.0134H66.2634" stroke="white" stroke-width="1.3" stroke-linecap="round" stroke-linejoin="round"/>
<path d="M67 65H76" stroke="white" stroke-width="1.3"/>
<path d="M71.4998 61.9999L71.4997 67.6249" stroke="white" stroke-width="1.3"/>
<defs>
<linearGradient id="paint0_linear_8465_82657" x1="70" y1="10" x2="70" y2="119" gradientUnits="userSpaceOnUse">
<stop offset="0.00520833" stop-color="#FFF9E4"/>
<stop offset="1" stop-color="#FFE0C9"/>
</linearGradient>
</defs>
</svg>
