<svg width="140" height="120" viewBox="0 0 140 120" fill="none" xmlns="http://www.w3.org/2000/svg">
<rect x="0.5" y="0.5" width="139" height="119" rx="3.5" stroke="#D9DBE1"/>
<g clip-path="url(#clip0_8465_82657)">
<rect x="20" y="32" width="100" height="56.25" rx="4" fill="white"/>
<rect x="20" y="32" width="100" height="56.25" fill="url(#paint0_linear_8465_82657)"/>
<path fill-rule="evenodd" clip-rule="evenodd" d="M58 60C58 53.3726 63.3726 48 70 48C76.6274 48 82 53.3726 82 60C82 66.6274 76.6274 72 70 72C63.3726 72 58 66.6274 58 60Z" fill="#D40C18"/>
<path fill-rule="evenodd" clip-rule="evenodd" d="M75.0009 55.8748C75.5517 56.0259 75.9854 56.4712 76.1326 57.0367C76.4001 58.0616 76.4001 60.2001 76.4001 60.2001C76.4001 60.2001 76.4001 62.3385 76.1326 63.3635C75.9854 63.929 75.5517 64.3743 75.0009 64.5255C74.0028 64.8001 70.0001 64.8001 70.0001 64.8001C70.0001 64.8001 65.9974 64.8001 64.9992 64.5255C64.4485 64.3743 64.0147 63.929 63.8675 63.3635C63.6001 62.3385 63.6001 60.2001 63.6001 60.2001C63.6001 60.2001 63.6001 58.0616 63.8675 57.0367C64.0147 56.4712 64.4485 56.0259 64.9992 55.8748C65.9974 55.6001 70.0001 55.6001 70.0001 55.6001C70.0001 55.6001 74.0028 55.6001 75.0009 55.8748ZM68.8001 58.4001V62.4001L72.0001 60.4001L68.8001 58.4001Z" fill="white"/>
</g>
<defs>
<linearGradient id="paint0_linear_8465_82657" x1="70" y1="32" x2="69.6159" y2="101.683" gradientUnits="userSpaceOnUse">
<stop stop-color="#FFF0F0"/>
<stop offset="1" stop-color="#FFC6C6"/>
</linearGradient>
<clipPath id="clip0_8465_82657">
<rect x="20" y="32" width="100" height="56.25" rx="4" fill="white"/>
</clipPath>
</defs>
</svg>
