<?xml version="1.0" encoding="utf-8"?>
<!-- Generator: Adobe Illustrator 26.1.0, SVG Export Plug-In . SVG Version: 6.00 Build 0)  -->
<svg version="1.1" id="圖層_1" xmlns="http://www.w3.org/2000/svg" xmlns:xlink="http://www.w3.org/1999/xlink" x="0px" y="0px"
	 viewBox="0 0 148.24 148.24" style="enable-background:new 0 0 148.24 148.24;" xml:space="preserve">
<g>
	<defs>
		<rect id="SVGID_1_" width="148.24" height="148.24"/>
	</defs>
	<clipPath id="SVGID_00000106117115029996345680000007906652903633669523_">
		<use xlink:href="#SVGID_1_"  style="overflow:visible;"/>
	</clipPath>
	<path fill="currentColor" style="clip-path:url(#SVGID_00000106117115029996345680000007906652903633669523_);" d="M126.87,54.32
		c-0.14,0.34-0.19,0.68-0.26,1.01c-0.08,0.36-0.24,0.68-0.25,1.03c-0.01,0.36,0.01,0.71,0.06,1.06c0.05,0.35,0.09,0.71,0.19,1.05
		c0.1,0.34,0.19,0.69,0.34,1.01c0.15,0.32,0.34,0.62,0.52,0.93c0.18,0.3,0.4,0.58,0.61,0.87c0.21,0.29,0.5,0.51,0.72,0.78
		c0.22,0.27,0.35,0.63,0.59,0.89c0.24,0.26,0.61,0.4,0.86,0.65c0.25,0.25,0.5,0.51,0.75,0.75c0.26,0.25,0.48,0.53,0.73,0.77
		c0.28,0.26,0.53,0.53,0.8,0.79c0.27,0.26,0.49,0.57,0.75,0.84c0.26,0.27,0.54,0.52,0.79,0.8c0.25,0.28,0.52,0.54,0.76,0.83
		c0.24,0.29,0.47,0.59,0.7,0.88c0.23,0.3,0.48,0.58,0.7,0.88c0.22,0.3,0.47,0.59,0.68,0.9c0.21,0.31,0.34,0.68,0.54,0.99
		c0.2,0.32,0.51,0.57,0.7,0.89c0.19,0.33,0.23,0.73,0.41,1.06c0.18,0.33,0.41,0.63,0.58,0.97c0.16,0.34,0.33,0.67,0.48,1.02
		c0.15,0.34,0.21,0.73,0.34,1.07c0.14,0.35,0.37,0.66,0.5,1.02c0.12,0.35,0.05,0.77,0.16,1.13c0.11,0.36,0.39,0.67,0.48,1.03
		c0.09,0.36,0.01,0.77,0.09,1.13c0.08,0.37,0.21,0.72,0.27,1.09c0.06,0.37,0.16,0.73,0.21,1.11c0.04,0.37,0.1,0.74,0.13,1.12
		c0.03,0.37-0.02,0.75-0.01,1.13c0.01,0.37,0.04,0.75,0.03,1.12c-0.01,0.37,0.09,0.75,0.07,1.13c-0.02,0.37-0.06,0.75-0.1,1.12
		c-0.04,0.37-0.11,0.74-0.16,1.12c-0.05,0.37-0.13,0.74-0.21,1.11c-0.07,0.37-0.31,0.7-0.39,1.06c-0.09,0.36,0.04,0.78-0.06,1.14
		c-0.1,0.36-0.41,0.66-0.53,1.01c-0.12,0.35-0.27,0.69-0.4,1.05c-0.13,0.35-0.06,0.78-0.2,1.13c-0.14,0.34-0.4,0.64-0.56,0.98
		c-0.16,0.34-0.41,0.63-0.58,0.97c-0.17,0.33-0.34,0.66-0.52,0.99c-0.18,0.32-0.3,0.67-0.48,0.99c-0.19,0.32-0.37,0.64-0.56,0.94
		c-0.2,0.31-0.32,0.67-0.53,0.97c-0.21,0.31-0.38,0.63-0.6,0.93c-0.22,0.3-0.43,0.6-0.66,0.89c-0.23,0.29-0.47,0.57-0.7,0.85
		c-0.24,0.28-0.63,0.43-0.87,0.7c-0.25,0.27-0.37,0.65-0.63,0.92c-0.26,0.26-0.62,0.41-0.89,0.66c-0.26,0.25-0.5,0.53-0.78,0.78
		c-0.27,0.24-0.48,0.57-0.76,0.8c-0.28,0.23-0.64,0.37-0.94,0.59c-0.29,0.22-0.61,0.39-0.92,0.6c-0.3,0.21-0.57,0.46-0.88,0.66
		c-0.31,0.19-0.58,0.45-0.9,0.64c-0.32,0.18-0.61,0.41-0.93,0.57c-0.33,0.16-0.68,0.27-1.01,0.41c-0.34,0.14-0.68,0.25-1.02,0.36
		c-0.34,0.12-0.74,0.05-1.08,0.15c-0.35,0.1-0.67,0.26-1.02,0.34c-0.35,0.08-0.69,0.19-1.05,0.25c-0.35,0.06-0.73,0-1.08,0.05
		c-0.36,0.05-0.7,0.18-1.06,0.21c-0.36,0.03-0.71,0.13-1.07,0.16c-0.36,0.02-0.71,0.11-1.07,0.13c-0.36,0.02-0.72-0.01-1.08,0
		c-0.36,0.01-0.71,0.07-1.07,0.08c-0.36,0.01-0.72-0.11-1.08-0.1c-0.36,0.01-0.72,0.11-1.08,0.13c-0.36,0.01-0.73-0.14-1.09-0.12
		c-0.36,0.02-0.71,0.16-1.07,0.19c-0.37,0.03-0.73-0.01-1.08,0.01c-0.37,0.02-0.72,0.07-1.08,0.09c-0.36,0.02-0.72-0.04-1.08-0.02
		c-0.36,0.01-0.71,0.22-1.07,0.23c-0.35,0.01-0.72-0.08-1.08-0.07c-0.35,0-0.71-0.1-1.08-0.1c-0.37,0-0.74,0.15-1.11,0.22
		c-0.36,0.07-0.69,0.26-1.05,0.38c-0.35,0.12-0.79,0.04-1.13,0.2c-0.33,0.16-0.65,0.38-0.97,0.58c-0.32,0.19-0.57,0.49-0.88,0.71
		c-0.3,0.21-0.7,0.31-1,0.55c-0.29,0.23-0.54,0.52-0.83,0.77c-0.28,0.24-0.45,0.62-0.73,0.88c-0.28,0.25-0.61,0.45-0.88,0.71
		c-0.27,0.26-0.51,0.56-0.78,0.82c-0.27,0.27-0.62,0.45-0.88,0.72c-0.27,0.27-0.45,0.61-0.71,0.88c-0.27,0.27-0.52,0.55-0.78,0.81
		c-0.27,0.27-0.65,0.43-0.91,0.68c-0.28,0.27-0.59,0.49-0.85,0.72c-0.28,0.25-0.54,0.53-0.83,0.78c-0.28,0.25-0.58,0.49-0.86,0.75
		c-0.28,0.25-0.53,0.54-0.82,0.8c-0.29,0.25-0.54,0.53-0.83,0.78c-0.29,0.25-0.5,0.59-0.79,0.83c-0.29,0.24-0.6,0.47-0.9,0.71
		c-0.29,0.24-0.63,0.43-0.93,0.67c-0.3,0.24-0.64,0.42-0.94,0.65c-0.3,0.23-0.62,0.45-0.92,0.67c-0.31,0.22-0.66,0.38-0.98,0.59
		c-0.32,0.21-0.64,0.41-0.96,0.61c-0.32,0.2-0.62,0.44-0.95,0.63c-0.33,0.19-0.57,0.54-0.91,0.72c-0.34,0.18-0.73,0.25-1.07,0.41
		c-0.34,0.16-0.73,0.22-1.08,0.36c-0.35,0.15-0.66,0.39-1.02,0.52c-0.35,0.13-0.69,0.27-1.04,0.39c-0.35,0.11-0.7,0.24-1.06,0.34
		c-0.36,0.1-0.72,0.18-1.08,0.27c-0.36,0.09-0.72,0.18-1.08,0.25c-0.36,0.08-0.74,0.08-1.1,0.14c-0.36,0.06-0.73,0.12-1.1,0.17
		c-0.37,0.05-0.74,0.08-1.1,0.12c-0.37,0.04-0.74,0.01-1.11,0.03c-0.37,0.02-0.73,0.23-1.1,0.23c-0.37,0.01-0.74-0.19-1.11-0.2
		c-0.37-0.01-0.74,0.09-1.11,0.07c-0.37-0.02-0.73-0.18-1.1-0.21c-0.37-0.04-0.74,0-1.11-0.05c-0.37-0.05-0.76,0.04-1.12-0.02
		c-0.36-0.07-0.69-0.31-1.06-0.4c-0.36-0.08-0.69-0.26-1.05-0.36c-0.36-0.1-0.78,0.03-1.14-0.08c-0.35-0.12-0.68-0.32-1.02-0.45
		c-0.35-0.13-0.63-0.41-0.97-0.56c-0.34-0.15-0.67-0.29-1.01-0.46c-0.33-0.17-0.74-0.18-1.06-0.36c-0.32-0.18-0.63-0.39-0.94-0.59
		c-0.31-0.2-0.51-0.55-0.82-0.77c-0.3-0.22-0.64-0.37-0.93-0.61c-0.29-0.23-0.59-0.45-0.87-0.7c-0.27-0.25-0.48-0.57-0.74-0.83
		c-0.26-0.26-0.62-0.43-0.88-0.7c-0.25-0.27-0.48-0.57-0.72-0.85c-0.24-0.28-0.47-0.58-0.7-0.87c-0.23-0.29-0.54-0.53-0.75-0.83
		c-0.22-0.3-0.24-0.74-0.45-1.04c-0.21-0.31-0.56-0.52-0.76-0.84c-0.19-0.32-0.29-0.69-0.48-1.01c-0.18-0.32-0.4-0.63-0.57-0.96
		c-0.17-0.33-0.28-0.69-0.44-1.02c-0.16-0.33-0.33-0.66-0.47-1c-0.15-0.34-0.35-0.66-0.49-1c-0.14-0.35-0.16-0.73-0.29-1.08
		c-0.12-0.35-0.33-0.67-0.44-1.03c-0.11-0.35-0.24-0.7-0.34-1.06c-0.1-0.36-0.15-0.73-0.24-1.09c-0.09-0.36-0.07-0.74-0.15-1.11
		c-0.08-0.36-0.25-0.71-0.31-1.07c-0.06-0.37-0.08-0.74-0.14-1.1c-0.05-0.38-0.07-0.76-0.14-1.12c-0.08-0.38-0.15-0.76-0.25-1.1
		c-0.11-0.38-0.3-0.71-0.43-1.05c-0.14-0.36-0.34-0.68-0.51-1c-0.18-0.34-0.4-0.64-0.6-0.94c-0.21-0.32-0.4-0.63-0.65-0.91
		c-0.25-0.28-0.49-0.57-0.77-0.81c-0.28-0.24-0.55-0.53-0.86-0.73c-0.31-0.2-0.69-0.29-1.03-0.47c-0.33-0.17-0.69-0.26-1.03-0.41
		c-0.34-0.15-0.68-0.27-1.04-0.4c-0.34-0.13-0.7-0.22-1.06-0.34c-0.35-0.11-0.63-0.45-1-0.56c-0.35-0.11-0.75-0.08-1.11-0.19
		c-0.35-0.1-0.67-0.34-1.03-0.45c-0.35-0.1-0.76-0.04-1.12-0.15c-0.35-0.11-0.67-0.33-1.03-0.45c-0.35-0.12-0.72-0.18-1.08-0.31
		c-0.35-0.13-0.65-0.38-1-0.52c-0.34-0.14-0.68-0.29-1.02-0.45c-0.33-0.15-0.67-0.28-0.99-0.44c-0.33-0.16-0.7-0.23-1.01-0.41
		c-0.32-0.18-0.59-0.43-0.9-0.62c-0.31-0.19-0.65-0.33-0.95-0.53c-0.31-0.2-0.55-0.48-0.85-0.68c-0.3-0.21-0.61-0.4-0.89-0.62
		c-0.29-0.22-0.68-0.32-0.96-0.55c-0.28-0.23-0.42-0.63-0.68-0.87c-0.27-0.24-0.66-0.36-0.92-0.61c-0.26-0.25-0.49-0.54-0.73-0.81
		c-0.25-0.27-0.56-0.48-0.79-0.76c-0.24-0.28-0.4-0.61-0.62-0.9c-0.22-0.29-0.48-0.55-0.69-0.85c-0.21-0.3-0.4-0.61-0.6-0.91
		c-0.19-0.31-0.24-0.7-0.42-1.02c-0.18-0.31-0.41-0.6-0.58-0.92c-0.16-0.32-0.37-0.63-0.52-0.96c-0.15-0.33-0.22-0.69-0.35-1.03
		c-0.13-0.34-0.29-0.66-0.4-1.01c-0.12-0.34-0.33-0.65-0.43-1c-0.1-0.35,0.02-0.75-0.07-1.11c-0.08-0.35-0.31-0.67-0.38-1.03
		C8.4,82.1,8.36,81.73,8.3,81.37c-0.05-0.36-0.23-0.7-0.26-1.06C8,79.95,8.23,79.57,8.21,79.2c-0.02-0.36-0.29-0.71-0.3-1.08
		c-0.01-0.38,0-0.75,0.01-1.12c0.01-0.37,0.05-0.75,0.07-1.12c0.02-0.37,0.26-0.73,0.29-1.1c0.03-0.37-0.12-0.76-0.07-1.13
		c0.05-0.37,0.16-0.73,0.22-1.1c0.06-0.37,0.06-0.75,0.13-1.11c0.08-0.37,0.29-0.7,0.38-1.06c0.09-0.36,0.22-0.71,0.33-1.07
		c0.1-0.36,0.16-0.73,0.28-1.08c0.12-0.35,0.3-0.68,0.43-1.03c0.13-0.35,0.07-0.77,0.22-1.12c0.14-0.34,0.31-0.68,0.47-1.02
		c0.16-0.34,0.36-0.66,0.53-0.99c0.17-0.33,0.4-0.63,0.58-0.96c0.18-0.33,0.39-0.63,0.58-0.95c0.19-0.32,0.31-0.68,0.52-0.99
		c0.2-0.31,0.56-0.52,0.77-0.83c0.21-0.31,0.33-0.67,0.55-0.97c0.22-0.3,0.35-0.67,0.58-0.96c0.23-0.29,0.5-0.56,0.74-0.84
		c0.24-0.29,0.57-0.49,0.82-0.77c0.24-0.28,0.52-0.53,0.77-0.81c0.25-0.27,0.44-0.6,0.7-0.87c0.26-0.27,0.51-0.55,0.77-0.81
		c0.26-0.26,0.56-0.49,0.84-0.74c0.27-0.25,0.61-0.43,0.89-0.68c0.28-0.25,0.53-0.52,0.81-0.77c0.28-0.24,0.59-0.46,0.87-0.69
		c0.29-0.24,0.59-0.45,0.88-0.69c0.29-0.23,0.55-0.5,0.85-0.73c0.29-0.23,0.61-0.43,0.9-0.65c0.3-0.22,0.57-0.47,0.88-0.69
		c0.3-0.22,0.61-0.43,0.91-0.64c0.31-0.21,0.59-0.45,0.9-0.66c0.32-0.21,0.59-0.5,0.91-0.71c0.32-0.21,0.69-0.35,1.01-0.56
		c0.32-0.21,0.67-0.39,0.98-0.61c0.32-0.22,0.65-0.42,0.95-0.65c0.31-0.23,0.53-0.57,0.82-0.82c0.29-0.25,0.58-0.5,0.85-0.77
		c0.27-0.27,0.53-0.55,0.77-0.85c0.24-0.3,0.55-0.55,0.75-0.88c0.2-0.32,0.29-0.71,0.45-1.07c0.14-0.32,0.3-0.63,0.39-0.96
		c0.1-0.33,0.23-0.66,0.3-0.99c0.07-0.34-0.03-0.71,0.03-1.05c0.06-0.34,0.14-0.68,0.21-1.01c0.07-0.36,0.18-0.72,0.25-1.08
		c0.08-0.36,0.31-0.68,0.4-1.04c0.08-0.36,0.19-0.71,0.28-1.07c0.09-0.36,0.05-0.75,0.16-1.1c0.1-0.35,0.16-0.72,0.27-1.07
		c0.11-0.35,0.32-0.67,0.44-1.02c0.12-0.35,0.08-0.75,0.21-1.1c0.13-0.35,0.32-0.67,0.46-1.01c0.14-0.34,0.26-0.69,0.4-1.03
		c0.15-0.34,0.43-0.61,0.59-0.95c0.16-0.33,0.24-0.7,0.41-1.03c0.17-0.33,0.46-0.59,0.63-0.92c0.18-0.32,0.21-0.73,0.4-1.05
		c0.19-0.32,0.41-0.62,0.61-0.93c0.2-0.31,0.33-0.67,0.53-0.98c0.21-0.31,0.5-0.55,0.72-0.85c0.22-0.3,0.54-0.52,0.76-0.81
		c0.23-0.29,0.35-0.66,0.59-0.95c0.24-0.28,0.59-0.46,0.83-0.74c0.25-0.27,0.43-0.6,0.69-0.86c0.26-0.26,0.45-0.6,0.72-0.85
		c0.27-0.25,0.65-0.38,0.93-0.61c0.28-0.24,0.48-0.58,0.77-0.8c0.29-0.23,0.64-0.37,0.94-0.58c0.3-0.21,0.53-0.54,0.84-0.73
		c0.31-0.2,0.73-0.22,1.05-0.4c0.32-0.18,0.55-0.53,0.88-0.7c0.33-0.16,0.67-0.32,1.01-0.47c0.34-0.15,0.69-0.26,1.04-0.39
		c0.34-0.13,0.75-0.09,1.1-0.2c0.35-0.11,0.69-0.25,1.05-0.35c0.35-0.09,0.71-0.18,1.07-0.26c0.36-0.07,0.7-0.29,1.06-0.35
		c0.36-0.06,0.75,0.07,1.12,0.03c0.36-0.04,0.7-0.19,1.06-0.22c0.36-0.03,0.71-0.12,1.08-0.15c0.36-0.02,0.72-0.02,1.08-0.03
		c0.36-0.01,0.72,0.15,1.09,0.15c0.36,0,0.72-0.11,1.08-0.1c0.36,0.01,0.72,0.14,1.08,0.15c0.36,0.02,0.72-0.03,1.08-0.01
		c0.36,0.03,0.73-0.01,1.09,0.02c0.36,0.04,0.71,0.14,1.07,0.19c0.36,0.05,0.73,0.03,1.08,0.09c0.36,0.06,0.69,0.23,1.05,0.3
		c0.35,0.07,0.73,0.05,1.08,0.14c0.35,0.09,0.66,0.34,1,0.44c0.35,0.1,0.68,0.22,1.03,0.33c0.34,0.11,0.68,0.24,1.01,0.37
		c0.34,0.13,0.7,0.19,1.03,0.33c0.33,0.14,0.69,0.23,1.01,0.39c0.32,0.16,0.58,0.45,0.89,0.63c0.31,0.18,0.69,0.25,1,0.44
		c0.32,0.2,0.65,0.37,0.96,0.58c0.31,0.21,0.5,0.59,0.8,0.81c0.31,0.22,0.69,0.32,0.99,0.54c0.3,0.22,0.56,0.49,0.86,0.71
		c0.3,0.22,0.67,0.36,0.96,0.58c0.3,0.22,0.55,0.51,0.85,0.73c0.3,0.22,0.62,0.41,0.92,0.63c0.3,0.22,0.54,0.53,0.84,0.74
		c0.31,0.22,0.62,0.42,0.92,0.63c0.31,0.21,0.62,0.43,0.93,0.62c0.32,0.2,0.7,0.28,1.02,0.47c0.32,0.19,0.65,0.36,0.98,0.53
		c0.33,0.17,0.65,0.35,0.99,0.5c0.34,0.15,0.64,0.41,0.99,0.54c0.35,0.13,0.73,0.16,1.09,0.27c0.35,0.1,0.74,0.08,1.11,0.16
		c0.36,0.08,0.69,0.33,1.06,0.38c0.36,0.05,0.75-0.03,1.12-0.01c0.36,0.02,0.74,0.14,1.11,0.13c0.36-0.01,0.73-0.15,1.11-0.18
		c0.36-0.03,0.75,0.06,1.12,0c0.36-0.05,0.69-0.31,1.07-0.39c0.36-0.07,0.76,0,1.13-0.09c0.36-0.1,0.72-0.19,1.07-0.28
		c0.36-0.09,0.72-0.19,1.07-0.28c0.36-0.09,0.71-0.21,1.07-0.29c0.36-0.08,0.7-0.29,1.06-0.36c0.36-0.07,0.75-0.05,1.11-0.12
		c0.37-0.06,0.73-0.13,1.09-0.19c0.37-0.05,0.72-0.19,1.09-0.23c0.37-0.04,0.74-0.04,1.11-0.06c0.37-0.03,0.74-0.06,1.11-0.07
		c0.37-0.01,0.74,0.09,1.11,0.1c0.37,0.01,0.75-0.1,1.11-0.07c0.37,0.03,0.72,0.22,1.09,0.26c0.37,0.05,0.74,0.05,1.1,0.12
		c0.36,0.07,0.69,0.27,1.05,0.36c0.35,0.09,0.73,0.09,1.09,0.2c0.35,0.11,0.71,0.2,1.06,0.33c0.34,0.13,0.66,0.32,1,0.47
		c0.33,0.15,0.7,0.23,1.03,0.41c0.32,0.17,0.66,0.33,0.98,0.53c0.31,0.19,0.53,0.54,0.84,0.75c0.3,0.2,0.62,0.39,0.92,0.61
		c0.3,0.22,0.71,0.31,0.98,0.54c0.29,0.24,0.4,0.66,0.66,0.92c0.27,0.26,0.57,0.47,0.81,0.75c0.25,0.28,0.56,0.51,0.78,0.8
		c0.23,0.3,0.42,0.62,0.62,0.93c0.2,0.31,0.47,0.59,0.65,0.91c0.18,0.33,0.27,0.7,0.42,1.03c0.15,0.34,0.27,0.69,0.4,1.04
		c0.13,0.35,0.3,0.68,0.4,1.04c0.1,0.35,0.24,0.7,0.33,1.06c0.08,0.36,0.04,0.75,0.1,1.11c0.06,0.36,0.21,0.72,0.25,1.09
		c0.04,0.37-0.11,0.75-0.09,1.12c0.02,0.37,0.03,0.73,0.03,1.1c0.01,0.37,0.23,0.74,0.22,1.11c-0.01,0.37-0.23,0.73-0.26,1.1
		c-0.02,0.37,0.01,0.74-0.03,1.11c-0.04,0.37-0.13,0.73-0.18,1.09c-0.05,0.36,0.02,0.75-0.04,1.11c-0.06,0.36-0.29,0.7-0.36,1.06
		c-0.07,0.36-0.09,0.73-0.18,1.09c-0.08,0.36-0.15,0.72-0.24,1.08c-0.09,0.36-0.28,0.69-0.38,1.04c-0.1,0.36,0.01,0.77-0.1,1.13
		c-0.11,0.35-0.33,0.67-0.44,1.02c-0.11,0.35-0.23,0.7-0.35,1.05c-0.12,0.35-0.19,0.72-0.32,1.06c-0.13,0.35-0.31,0.67-0.44,1.02
		C127.06,53.61,127.01,53.98,126.87,54.32z"/>
</g>
</svg>
