<?xml version="1.0" encoding="utf-8"?>
<!-- Generator: Adobe Illustrator 26.1.0, SVG Export Plug-In . SVG Version: 6.00 Build 0)  -->
<svg version="1.1" id="圖層_1" xmlns="http://www.w3.org/2000/svg" xmlns:xlink="http://www.w3.org/1999/xlink" x="0px" y="0px"
	 viewBox="0 0 148.24 148.24" style="enable-background:new 0 0 148.24 148.24;" xml:space="preserve">
<g>
	<defs>
		<rect id="SVGID_00000127735506110211969320000009388206617410950055_" width="148.24" height="148.24"/>
	</defs>
	<clipPath id="SVGID_00000065066091625899146000000003777466120647557525_">
		<use xlink:href="#SVGID_00000127735506110211969320000009388206617410950055_"  style="overflow:visible;"/>
	</clipPath>
	<path fill="currentColor" style="clip-path:url(#SVGID_00000065066091625899146000000003777466120647557525_);" d="M122.59,94.52
		c-0.37,0.21-0.74,0.36-1.06,0.53c-0.37,0.2-0.77,0.3-1.09,0.47c-0.38,0.2-0.65,0.53-0.97,0.7c-0.38,0.22-0.77,0.33-1.06,0.54
		c-0.36,0.25-0.58,0.57-0.81,0.85c-0.24,0.3-0.53,0.57-0.66,0.97c-0.1,0.33-0.05,0.73-0.09,1.18c-0.03,0.35-0.12,0.74-0.11,1.18
		c0.01,0.36,0.06,0.75,0.1,1.18c0.03,0.37,0.13,0.75,0.17,1.18c0.03,0.36-0.03,0.74,0.01,1.1c0.04,0.36,0.05,0.73,0.09,1.1
		c0.04,0.36,0.09,0.73,0.13,1.09c0.04,0.36,0.05,0.73,0.09,1.1c0.04,0.37,0.02,0.74,0.06,1.1c0.04,0.37,0.26,0.71,0.3,1.08
		c0.03,0.37-0.05,0.74-0.03,1.11c0.03,0.37,0.2,0.72,0.22,1.09c0.02,0.37-0.13,0.74-0.11,1.11c0.02,0.37,0.05,0.73,0.05,1.1
		c0.01,0.37,0.17,0.73,0.17,1.1c0,0.37-0.06,0.74-0.07,1.1c-0.01,0.37-0.14,0.73-0.16,1.1c-0.03,0.37-0.07,0.73-0.11,1.1
		c-0.04,0.36-0.16,0.72-0.21,1.08c-0.05,0.38,0.07,0.79-0.02,1.16c-0.09,0.37-0.14,0.76-0.26,1.12c-0.12,0.36-0.29,0.71-0.44,1.07
		c-0.14,0.35-0.28,0.71-0.45,1.06c-0.17,0.34-0.47,0.62-0.66,0.95c-0.19,0.33-0.35,0.67-0.56,1c-0.2,0.32-0.34,0.69-0.57,1
		c-0.22,0.31-0.47,0.6-0.71,0.91c-0.23,0.3-0.46,0.62-0.71,0.91c-0.25,0.29-0.59,0.5-0.85,0.78c-0.26,0.28-0.48,0.6-0.75,0.87
		c-0.27,0.27-0.47,0.62-0.75,0.88c-0.28,0.26-0.73,0.33-1.02,0.58c-0.29,0.25-0.57,0.51-0.87,0.75c-0.3,0.24-0.48,0.63-0.79,0.86
		c-0.31,0.23-0.67,0.39-0.98,0.6c-0.32,0.22-0.59,0.5-0.91,0.71c-0.33,0.21-0.7,0.34-1.03,0.53c-0.33,0.19-0.68,0.37-1.01,0.55
		c-0.34,0.18-0.68,0.37-1.02,0.53c-0.35,0.17-0.7,0.33-1.05,0.48c-0.36,0.15-0.76,0.18-1.11,0.31c-0.36,0.13-0.72,0.25-1.08,0.36
		c-0.37,0.12-0.73,0.22-1.1,0.31c-0.38,0.09-0.72,0.32-1.09,0.38c-0.38,0.07-0.78-0.03-1.16,0.01c-0.38,0.04-0.76,0.12-1.13,0.14
		c-0.39,0.02-0.77,0.18-1.14,0.18c-0.39,0-0.77-0.09-1.15-0.11c-0.38-0.02-0.77-0.08-1.14-0.12c-0.38-0.05-0.77-0.08-1.14-0.15
		c-0.38-0.07-0.74-0.22-1.11-0.31c-0.37-0.09-0.71-0.29-1.07-0.4c-0.37-0.11-0.8-0.02-1.16-0.15c-0.36-0.13-0.7-0.32-1.05-0.46
		c-0.35-0.15-0.72-0.26-1.07-0.43c-0.34-0.16-0.63-0.44-0.97-0.62c-0.34-0.18-0.67-0.36-1-0.55c-0.33-0.19-0.63-0.42-0.96-0.63
		c-0.32-0.2-0.62-0.45-0.93-0.66c-0.32-0.21-0.65-0.4-0.96-0.62c-0.31-0.22-0.64-0.41-0.95-0.64c-0.31-0.23-0.67-0.38-0.97-0.61
		c-0.3-0.23-0.52-0.57-0.82-0.81c-0.3-0.24-0.71-0.34-1-0.58c-0.3-0.24-0.59-0.49-0.88-0.73c-0.29-0.24-0.55-0.53-0.85-0.77
		c-0.29-0.24-0.58-0.5-0.87-0.75c-0.29-0.24-0.55-0.53-0.84-0.78c-0.29-0.24-0.61-0.46-0.91-0.7c-0.3-0.24-0.61-0.46-0.91-0.7
		c-0.3-0.24-0.59-0.49-0.88-0.73c-0.3-0.24-0.61-0.45-0.91-0.69c-0.3-0.23-0.63-0.44-0.93-0.66c-0.31-0.23-0.56-0.53-0.87-0.75
		c-0.31-0.22-0.7-0.33-1.01-0.54c-0.3-0.2-0.53-0.52-0.85-0.69c-0.32-0.17-0.68-0.27-1.01-0.41c-0.33-0.15-0.67-0.26-1.02-0.37
		c-0.35-0.11-0.67-0.3-1.03-0.37c-0.36-0.08-0.73-0.02-1.09-0.06c-0.36-0.04-0.72-0.24-1.08-0.23c-0.36,0.01-0.71,0.23-1.07,0.29
		c-0.36,0.06-0.75-0.01-1.1,0.1c-0.36,0.12-0.7,0.3-1.05,0.42c-0.36,0.13-0.7,0.3-1.04,0.43c-0.36,0.13-0.7,0.29-1.04,0.42
		c-0.36,0.14-0.73,0.21-1.07,0.35c-0.35,0.14-0.69,0.31-1.03,0.45c-0.35,0.15-0.65,0.39-0.99,0.53c-0.35,0.15-0.7,0.29-1.03,0.43
		c-0.35,0.15-0.7,0.27-1.04,0.41c-0.35,0.14-0.7,0.27-1.05,0.41c-0.35,0.14-0.75,0.12-1.1,0.25c-0.35,0.13-0.63,0.46-0.99,0.57
		c-0.35,0.11-0.77,0.03-1.13,0.12c-0.36,0.1-0.72,0.15-1.09,0.23c-0.36,0.08-0.68,0.36-1.06,0.43c-0.36,0.06-0.75,0-1.12,0.04
		c-0.36,0.04-0.74-0.02-1.12,0c-0.36,0.02-0.73,0.03-1.11,0.04c-0.36,0-0.73,0.07-1.12,0.06c-0.36-0.01-0.73-0.02-1.12-0.05
		c-0.36-0.03-0.74,0.03-1.12-0.01c-0.36-0.04-0.74-0.05-1.12-0.1c-0.36-0.05-0.74-0.1-1.12-0.16c-0.38-0.06-0.76-0.15-1.13-0.23
		c-0.38-0.08-0.7-0.36-1.07-0.45c-0.37-0.09-0.78-0.04-1.15-0.15c-0.37-0.11-0.68-0.37-1.04-0.5c-0.36-0.13-0.73-0.22-1.09-0.36
		c-0.36-0.14-0.75-0.19-1.1-0.35c-0.35-0.16-0.65-0.42-0.99-0.6c-0.34-0.17-0.65-0.39-0.99-0.58c-0.33-0.19-0.69-0.33-1.02-0.53
		c-0.32-0.2-0.69-0.35-1-0.57c-0.31-0.22-0.66-0.4-0.96-0.63c-0.3-0.23-0.58-0.51-0.87-0.75c-0.29-0.25-0.57-0.51-0.85-0.77
		c-0.28-0.26-0.44-0.65-0.71-0.92c-0.27-0.27-0.59-0.49-0.85-0.77c-0.26-0.28-0.54-0.54-0.79-0.83c-0.24-0.29-0.4-0.66-0.63-0.96
		c-0.23-0.3-0.53-0.56-0.75-0.87c-0.22-0.31-0.49-0.59-0.69-0.92c-0.2-0.32-0.46-0.62-0.65-0.95c-0.19-0.33-0.34-0.69-0.51-1.03
		c-0.17-0.34-0.38-0.67-0.54-1.02c-0.16-0.35-0.19-0.75-0.33-1.11c-0.14-0.35-0.36-0.68-0.49-1.04c-0.13-0.36-0.09-0.77-0.2-1.14
		c-0.11-0.36-0.33-0.7-0.43-1.07c-0.1-0.37-0.12-0.76-0.2-1.14c-0.08-0.38-0.18-0.75-0.24-1.13c-0.06-0.38-0.05-0.77-0.09-1.15
		c-0.04-0.38-0.27-0.75-0.3-1.13c-0.03-0.38,0.05-0.78,0.04-1.16c-0.01-0.38,0.09-0.77,0.1-1.15c0.01-0.38-0.09-0.77-0.07-1.15
		c0.02-0.38-0.05-0.78-0.01-1.16c0.04-0.38,0.32-0.73,0.38-1.11c0.05-0.38,0.07-0.76,0.14-1.14c0.07-0.38,0.03-0.78,0.11-1.15
		c0.08-0.37,0.31-0.71,0.41-1.09c0.09-0.37,0.13-0.76,0.23-1.13c0.1-0.37,0.05-0.79,0.16-1.15c0.11-0.37,0.31-0.71,0.43-1.07
		c0.12-0.36,0.21-0.74,0.34-1.1c0.13-0.36,0.38-0.68,0.51-1.04c0.14-0.36,0.18-0.75,0.33-1.11c0.14-0.36,0.28-0.72,0.43-1.07
		c0.15-0.35,0.44-0.65,0.6-1c0.15-0.35,0.35-0.68,0.51-1.03c0.16-0.35,0.29-0.71,0.45-1.06c0.16-0.35,0.34-0.69,0.51-1.03
		c0.17-0.35,0.29-0.72,0.45-1.06c0.17-0.35,0.3-0.71,0.47-1.05c0.17-0.35,0.24-0.74,0.41-1.09c0.17-0.34,0.37-0.67,0.54-1.02
		c0.17-0.34,0.4-0.66,0.57-1c0.18-0.35,0.39-0.67,0.54-1c0.16-0.36,0.3-0.71,0.42-1.05c0.13-0.37,0.31-0.72,0.4-1.07
		c0.1-0.38,0.19-0.76,0.24-1.12c0.06-0.39,0.04-0.78,0.05-1.15c0.01-0.39-0.19-0.76-0.22-1.12c-0.04-0.38,0.01-0.76-0.07-1.13
		c-0.08-0.37-0.09-0.77-0.22-1.12c-0.13-0.35-0.38-0.66-0.55-1c-0.16-0.34-0.37-0.65-0.57-0.98c-0.19-0.32-0.42-0.62-0.64-0.93
		c-0.22-0.3-0.43-0.61-0.66-0.91c-0.23-0.29-0.47-0.58-0.72-0.87c-0.24-0.28-0.44-0.61-0.69-0.89c-0.25-0.28-0.51-0.56-0.76-0.84
		c-0.25-0.28-0.5-0.56-0.75-0.85c-0.25-0.28-0.46-0.59-0.72-0.88c-0.25-0.28-0.64-0.45-0.88-0.74c-0.24-0.29-0.33-0.7-0.57-1
		c-0.23-0.29-0.55-0.53-0.77-0.83c-0.22-0.3-0.34-0.68-0.55-1c-0.21-0.31-0.47-0.59-0.67-0.91c-0.19-0.32-0.51-0.58-0.69-0.92
		c-0.17-0.33-0.18-0.75-0.34-1.1c-0.15-0.35-0.21-0.72-0.34-1.08c-0.13-0.35-0.48-0.63-0.59-0.99c-0.11-0.36-0.13-0.75-0.22-1.12
		c-0.09-0.37-0.02-0.76-0.09-1.14c-0.07-0.37-0.14-0.74-0.18-1.11c-0.05-0.37-0.26-0.73-0.29-1.11c-0.03-0.38-0.03-0.76-0.03-1.13
		c-0.01-0.38,0.17-0.75,0.18-1.13c0.01-0.38-0.05-0.75-0.01-1.13c0.03-0.38,0.04-0.75,0.09-1.13c0.05-0.37,0.2-0.73,0.27-1.1
		c0.07-0.37,0.01-0.77,0.09-1.14c0.09-0.37,0.21-0.73,0.31-1.09c0.1-0.36,0.22-0.72,0.34-1.08c0.12-0.36,0.15-0.75,0.29-1.1
		c0.13-0.35,0.49-0.62,0.64-0.96c0.15-0.35,0.14-0.76,0.31-1.1c0.17-0.34,0.43-0.63,0.61-0.96c0.18-0.33,0.33-0.68,0.52-1
		c0.2-0.32,0.45-0.61,0.66-0.92c0.21-0.31,0.41-0.63,0.64-0.93c0.23-0.3,0.4-0.64,0.64-0.93c0.24-0.29,0.57-0.51,0.82-0.79
		c0.25-0.28,0.45-0.61,0.72-0.88c0.27-0.27,0.53-0.54,0.81-0.79c0.28-0.25,0.6-0.45,0.89-0.68c0.29-0.23,0.65-0.37,0.95-0.59
		c0.31-0.22,0.56-0.5,0.87-0.7c0.32-0.2,0.65-0.36,0.98-0.54c0.33-0.18,0.68-0.31,1.01-0.47c0.34-0.16,0.68-0.3,1.02-0.44
		c0.34-0.14,0.66-0.35,1.01-0.48c0.35-0.13,0.68-0.3,1.04-0.41c0.36-0.11,0.7-0.25,1.06-0.35c0.36-0.09,0.73-0.14,1.1-0.22
		c0.36-0.08,0.74-0.11,1.1-0.17c0.37-0.07,0.74-0.06,1.11-0.11c0.37-0.05,0.72-0.21,1.09-0.25c0.37-0.04,0.74-0.14,1.11-0.17
		c0.37-0.03,0.74-0.06,1.12-0.07c0.37-0.02,0.75-0.05,1.12-0.06c0.37-0.01,0.74,0.23,1.12,0.23c0.37,0,0.75-0.12,1.12-0.1
		c0.37,0.01,0.74,0.17,1.11,0.19c0.37,0.02,0.76-0.13,1.13-0.1c0.37,0.03,0.73,0.17,1.1,0.21c0.37,0.04,0.75,0.01,1.12,0.05
		c0.37,0.04,0.72,0.21,1.09,0.26c0.37,0.05,0.74,0.1,1.11,0.16c0.37,0.05,0.74,0.08,1.11,0.14s0.75,0.01,1.11,0.08
		c0.37,0.06,0.73,0.22,1.09,0.28c0.37,0.07,0.75,0.09,1.11,0.16c0.37,0.07,0.72,0.23,1.09,0.3c0.37,0.07,0.75,0.11,1.11,0.17
		c0.37,0.06,0.77-0.04,1.13,0.01c0.38,0.05,0.72,0.31,1.09,0.35c0.38,0.04,0.76-0.11,1.13-0.09c0.38,0.02,0.75,0.07,1.12,0.06
		c0.38-0.01,0.74-0.11,1.11-0.15c0.37-0.04,0.74-0.01,1.11-0.09c0.36-0.07,0.71-0.21,1.07-0.33c0.35-0.11,0.7-0.23,1.04-0.38
		c0.33-0.15,0.74-0.17,1.07-0.36c0.32-0.18,0.6-0.44,0.92-0.66c0.3-0.21,0.56-0.47,0.86-0.72c0.3-0.25,0.65-0.45,0.93-0.72
		c0.28-0.27,0.54-0.57,0.81-0.85c0.27-0.28,0.46-0.64,0.73-0.92c0.27-0.28,0.69-0.41,0.97-0.69c0.27-0.27,0.45-0.65,0.74-0.91
		c0.29-0.26,0.6-0.49,0.91-0.73c0.31-0.24,0.55-0.57,0.86-0.8c0.31-0.23,0.78-0.26,1.08-0.49c0.32-0.23,0.48-0.66,0.79-0.88
		c0.32-0.23,0.64-0.44,0.96-0.66c0.32-0.22,0.66-0.41,0.98-0.63c0.32-0.22,0.76-0.25,1.09-0.46c0.33-0.21,0.56-0.57,0.89-0.77
		c0.33-0.2,0.7-0.35,1.03-0.53c0.34-0.19,0.65-0.44,0.99-0.61c0.34-0.18,0.75-0.23,1.1-0.4c0.35-0.16,0.71-0.29,1.07-0.44
		c0.35-0.15,0.69-0.35,1.05-0.49c0.36-0.14,0.74-0.21,1.11-0.34c0.36-0.12,0.67-0.43,1.05-0.54c0.37-0.11,0.75-0.19,1.13-0.28
		c0.37-0.09,0.76-0.13,1.14-0.21c0.37-0.08,0.77-0.08,1.15-0.15c0.38-0.06,0.76-0.09,1.15-0.14c0.37-0.05,0.73-0.17,1.09-0.21
		c0.37-0.03,0.75,0.11,1.12,0.09c0.37-0.02,0.73-0.15,1.1-0.15c0.37-0.01,0.74-0.12,1.11-0.11c0.37,0.01,0.74,0.07,1.11,0.09
		c0.37,0.02,0.73,0.17,1.1,0.21c0.37,0.04,0.73,0.11,1.09,0.17c0.37,0.05,0.74,0.03,1.11,0.1c0.36,0.07,0.73,0.13,1.09,0.21
		c0.36,0.09,0.71,0.22,1.06,0.32c0.36,0.1,0.68,0.3,1.03,0.42c0.35,0.12,0.71,0.21,1.05,0.34c0.34,0.13,0.67,0.3,1.01,0.46
		c0.34,0.15,0.66,0.32,0.99,0.49c0.33,0.17,0.67,0.3,1,0.48c0.32,0.18,0.62,0.39,0.93,0.59c0.31,0.2,0.64,0.37,0.94,0.58
		c0.3,0.21,0.6,0.43,0.89,0.66c0.3,0.23,0.61,0.44,0.89,0.69c0.28,0.25,0.62,0.44,0.89,0.7c0.27,0.26,0.47,0.59,0.73,0.86
		c0.26,0.28,0.47,0.59,0.71,0.87c0.24,0.29,0.45,0.6,0.67,0.9c0.23,0.3,0.54,0.53,0.75,0.84c0.21,0.31,0.4,0.63,0.6,0.95
		c0.19,0.32,0.38,0.65,0.56,0.98c0.18,0.33,0.26,0.71,0.42,1.04c0.17,0.34,0.41,0.63,0.56,0.98c0.15,0.34,0.26,0.7,0.4,1.05
		c0.14,0.35,0.23,0.71,0.36,1.06c0.13,0.35,0.41,0.65,0.52,1.01c0.12,0.36,0.2,0.72,0.31,1.08c0.1,0.36,0.17,0.73,0.26,1.1
		c0.1,0.36,0.03,0.76,0.12,1.13c0.09,0.36,0.16,0.73,0.23,1.1c0.08,0.37,0.29,0.7,0.36,1.07c0.07,0.37,0.19,0.73,0.25,1.1
		c0.06,0.37,0.03,0.75,0.09,1.12c0.06,0.37,0.28,0.72,0.33,1.09c0.05,0.37,0.05,0.75,0.1,1.12c0.05,0.36,0.12,0.72,0.17,1.08
		c0.05,0.36-0.03,0.74,0.05,1.1c0.08,0.35,0.26,0.68,0.39,1.02c0.13,0.35,0.17,0.75,0.36,1.09c0.18,0.32,0.52,0.56,0.75,0.87
		c0.22,0.3,0.42,0.61,0.68,0.9c0.25,0.28,0.56,0.49,0.84,0.76c0.27,0.26,0.48,0.59,0.77,0.84c0.28,0.24,0.5,0.58,0.8,0.81
		c0.3,0.23,0.68,0.35,0.99,0.57c0.31,0.22,0.54,0.55,0.85,0.77c0.31,0.21,0.68,0.35,1,0.55c0.32,0.21,0.7,0.32,1.02,0.52
		c0.32,0.2,0.57,0.54,0.89,0.73c0.33,0.2,0.72,0.28,1.04,0.47c0.33,0.2,0.61,0.47,0.93,0.66c0.33,0.2,0.73,0.28,1.04,0.47
		c0.33,0.21,0.55,0.56,0.85,0.76c0.32,0.21,0.75,0.26,1.06,0.48c0.31,0.22,0.62,0.45,0.93,0.69c0.3,0.23,0.59,0.5,0.88,0.75
		c0.29,0.25,0.47,0.62,0.75,0.88c0.28,0.26,0.59,0.49,0.86,0.76c0.27,0.27,0.54,0.54,0.8,0.82c0.26,0.28,0.63,0.47,0.88,0.76
		c0.25,0.29,0.36,0.7,0.59,1c0.24,0.3,0.56,0.54,0.78,0.85c0.22,0.31,0.5,0.59,0.71,0.91c0.21,0.32,0.4,0.66,0.59,0.99
		c0.19,0.33,0.24,0.75,0.42,1.08c0.18,0.34,0.45,0.63,0.61,0.97c0.17,0.34,0.22,0.74,0.37,1.09c0.15,0.36,0.36,0.68,0.5,1.04
		c0.14,0.36,0.33,0.7,0.45,1.06c0.12,0.37,0.18,0.75,0.28,1.12c0.1,0.37,0.27,0.73,0.35,1.1c0.09,0.38,0.06,0.77,0.12,1.15
		c0.07,0.38,0.22,0.75,0.26,1.12c0.05,0.38-0.09,0.78-0.06,1.16c0.03,0.38,0.03,0.76,0.03,1.14c0,0.38-0.01,0.76-0.03,1.14
		c-0.02,0.38,0.04,0.77,0,1.15c-0.04,0.38-0.01,0.77-0.07,1.15c-0.06,0.38-0.26,0.73-0.34,1.1c-0.08,0.37-0.04,0.78-0.14,1.14
		c-0.1,0.37-0.17,0.75-0.29,1.11c-0.12,0.36-0.44,0.65-0.57,1.01c-0.14,0.36-0.16,0.76-0.31,1.11c-0.15,0.35-0.37,0.67-0.54,1.01
		c-0.17,0.34-0.25,0.73-0.44,1.07c-0.18,0.33-0.44,0.63-0.64,0.95c-0.2,0.33-0.37,0.67-0.59,0.99c-0.21,0.32-0.52,0.57-0.74,0.88
		c-0.22,0.31-0.45,0.61-0.68,0.92c-0.24,0.3-0.49,0.58-0.73,0.88c-0.25,0.29-0.4,0.66-0.66,0.94c-0.26,0.28-0.51,0.57-0.78,0.84
		c-0.26,0.27-0.55,0.53-0.83,0.8c-0.27,0.27-0.64,0.44-0.92,0.7c-0.28,0.26-0.51,0.58-0.8,0.83c-0.29,0.25-0.51,0.58-0.8,0.83
		c-0.29,0.24-0.71,0.34-1.01,0.57c-0.3,0.23-0.54,0.55-0.84,0.78c-0.31,0.23-0.68,0.37-0.99,0.59c-0.31,0.22-0.56,0.53-0.88,0.75
		c-0.32,0.21-0.71,0.31-1.03,0.52c-0.32,0.21-0.55,0.57-0.88,0.76C123.26,94.14,122.93,94.33,122.59,94.52z"/>
</g>
</svg>
