<?xml version="1.0" encoding="utf-8"?>
<!-- Generator: Adobe Illustrator 26.1.0, SVG Export Plug-In . SVG Version: 6.00 Build 0)  -->
<svg version="1.1" id="圖層_1" xmlns="http://www.w3.org/2000/svg" xmlns:xlink="http://www.w3.org/1999/xlink" x="0px" y="0px"
	 viewBox="0 0 148.24 148.24" style="enable-background:new 0 0 148.24 148.24;" xml:space="preserve">
<g>
	<defs>
		<rect id="SVGID_00000078026591109551207310000002635826918885633952_" width="148.24" height="148.24"/>
	</defs>
	<clipPath id="SVGID_00000092426589184141404660000006761316517308434588_">
		<use xlink:href="#SVGID_00000078026591109551207310000002635826918885633952_"  style="overflow:visible;"/>
	</clipPath>
	<g style="clip-path:url(#SVGID_00000092426589184141404660000006761316517308434588_);">
		<path fill="currentColor" d="M111.27,140.05c-0.75,0-1.36-0.19-1.75-0.34c-0.02,0-0.03,0-0.05,0c-0.36,0.02-0.72,0.03-1.08,0.02
			c-0.37-0.01-0.73-0.06-1.09-0.11c-0.01,0-0.02,0-0.03,0c-0.43,0.12-1.1,0.27-1.9,0.18c-0.65-0.07-1.16-0.26-1.5-0.38l-0.06-0.02
			c-0.05,0-0.11,0-0.17-0.01c-0.32-0.01-0.76-0.03-1.26-0.13l-0.27-0.05c-0.42-0.08-0.85-0.17-1.25-0.27l-0.19-0.05
			c-0.44-0.11-0.89-0.22-1.31-0.35c-0.69-0.21-1.21-0.57-1.59-0.9c-0.38-0.05-0.83-0.15-1.3-0.35c-0.59-0.26-1.03-0.6-1.33-0.88
			c-0.4-0.09-0.93-0.24-1.47-0.55c-0.47-0.27-0.82-0.57-1.08-0.78c-0.06-0.05-0.12-0.11-0.19-0.15c0.01,0.01-0.05-0.02-0.12-0.04
			c-0.3-0.14-0.75-0.35-1.22-0.7c-0.53-0.39-0.89-0.84-1.13-1.18c-0.31-0.15-0.7-0.36-1.1-0.69l-0.12-0.07
			c-0.3-0.17-0.74-0.44-1.2-0.86c-0.61-0.56-0.94-1.19-1.12-1.61c-0.12-0.12-0.24-0.24-0.36-0.37c-0.42-0.19-1.04-0.5-1.6-1.1
			c-0.34-0.36-0.58-0.74-0.75-1.07c-0.33-0.17-0.7-0.41-1.06-0.75c-0.19-0.18-0.37-0.37-0.54-0.56c-0.08-0.08-0.15-0.17-0.23-0.24
			c-0.02-0.01-0.1-0.05-0.18-0.09c-0.24-0.13-0.47-0.27-0.69-0.42c-0.38-0.26-0.68-0.53-0.87-0.71c-0.17-0.07-0.36-0.13-0.58-0.21
			c-0.17-0.06-0.34-0.12-0.51-0.18c-0.09-0.03-0.17-0.07-0.25-0.09l-0.14-0.02c-0.03,0-0.07-0.01-0.11-0.02
			c-0.29,0.13-0.65,0.28-1.09,0.37c-0.6,0.13-1.12,0.11-1.49,0.08c-0.06,0.02-0.12,0.04-0.19,0.05c-0.09,0.03-0.18,0.05-0.27,0.08
			c-0.24,0.12-0.57,0.3-0.88,0.49c0,0,0,0,0,0c0.01,0-0.05,0.05-0.11,0.11c-0.25,0.22-0.52,0.44-0.79,0.64
			c-0.42,0.29-0.82,0.48-1.09,0.6c-0.03,0.01-0.07,0.03-0.1,0.05c-0.07,0.06-0.15,0.14-0.23,0.21c-0.13,0.12-0.26,0.24-0.39,0.35
			c-0.21,0.31-0.54,0.8-1.09,1.25c-0.35,0.29-0.68,0.5-0.92,0.65c-0.01,0.01-0.02,0.01-0.03,0.02c-0.21,0.3-0.53,0.75-1.02,1.17
			c-0.69,0.58-1.4,0.82-1.86,0.96c-0.2,0.15-0.4,0.3-0.61,0.45c-0.27,0.38-0.74,0.99-1.52,1.45c-0.54,0.32-1.05,0.49-1.39,0.6
			c-0.05,0.02-0.11,0.04-0.16,0.05c-0.33,0.17-0.66,0.31-1,0.45c-0.13,0.05-0.26,0.1-0.38,0.16c0.01,0-0.05,0.04-0.11,0.08
			c-0.28,0.19-0.71,0.48-1.25,0.71c-0.49,0.21-0.93,0.32-1.25,0.4c-0.09,0.02-0.18,0.04-0.26,0.07c-0.34,0.13-0.7,0.23-1.07,0.33
			c-0.14,0.04-0.27,0.07-0.41,0.12c-0.36,0.12-0.72,0.23-1.08,0.33l-0.4,0.12c-0.44,0.13-0.83,0.2-1.15,0.26
			c-0.12,0.02-0.24,0.04-0.36,0.07c-0.14,0.04-0.28,0.08-0.42,0.13c-0.35,0.11-0.71,0.22-1.06,0.3c-0.11,0.03-0.22,0.06-0.33,0.1
			c-0.31,0.1-0.7,0.22-1.17,0.31c-0.47,0.09-0.89,0.09-1.23,0.07c-0.44,0.27-1.06,0.55-1.83,0.63c-0.59,0.06-1.1,0.01-1.44-0.02
			l-0.1-0.01c-0.03,0.01-0.07,0.02-0.11,0.03c-0.33,0.07-0.79,0.17-1.36,0.19c-0.87,0.03-1.56-0.22-2.03-0.42
			c-0.33,0.02-0.66,0.02-0.99,0.01c-0.37-0.02-0.73-0.06-1.09-0.1l-0.13-0.01c-0.4,0.08-1.05,0.2-1.83,0.09
			c-0.14-0.02-0.28-0.03-0.41-0.04c-0.38-0.04-0.76-0.08-1.13-0.15c-0.55-0.11-1-0.28-1.32-0.4c-0.07-0.03-0.14-0.06-0.21-0.08
			c-0.42-0.1-0.8-0.25-1.11-0.36c-0.11-0.04-0.22-0.08-0.33-0.12c-0.42-0.13-0.77-0.3-1.05-0.46c-0.53,0.03-1.25-0.01-2-0.33
			c-0.6-0.26-1.04-0.59-1.33-0.8l-0.12-0.08c-0.37-0.2-0.69-0.4-0.95-0.57c-0.1-0.07-0.21-0.14-0.32-0.2
			c-0.06-0.03-0.14-0.07-0.22-0.1c-0.31-0.14-0.74-0.33-1.19-0.63c-0.46-0.31-0.8-0.63-1.04-0.86c-0.06-0.06-0.12-0.12-0.19-0.17
			c-0.07-0.06-0.16-0.11-0.25-0.17c-0.28-0.18-0.65-0.42-1.04-0.75c-0.08-0.07-0.17-0.13-0.26-0.2c-0.26-0.2-0.62-0.46-0.98-0.81
			c-0.38-0.37-0.65-0.74-0.85-1.01c-0.04-0.05-0.08-0.11-0.12-0.16l-0.1-0.08c-0.28-0.22-0.71-0.56-1.12-1.07
			c-0.54-0.67-0.76-1.37-0.88-1.81c-0.18-0.25-0.37-0.51-0.54-0.77l-0.02-0.02c-0.28-0.27-0.74-0.72-1.1-1.39
			c-0.23-0.43-0.38-0.82-0.5-1.13c-0.04-0.1-0.08-0.21-0.13-0.31c-0.27-0.55-0.39-1.07-0.47-1.41l-0.04-0.14
			c-0.04-0.09-0.08-0.18-0.13-0.27c-0.17-0.35-0.33-0.7-0.47-1.07l-0.15-0.39c-0.13-0.35-0.27-0.7-0.38-1.06
			c-0.04-0.13-0.08-0.27-0.13-0.4c-0.12-0.35-0.23-0.71-0.32-1.07c-0.14-0.54-0.17-1-0.2-1.34c-0.01-0.08-0.01-0.15-0.02-0.23
			c-0.11-0.53-0.12-1.03-0.12-1.36c0-0.07,0-0.13,0-0.2c-0.01-0.04-0.04-0.16-0.07-0.28c-0.07-0.32-0.14-0.63-0.19-0.95l-0.03-0.08
			c-0.11-0.33-0.3-0.88-0.36-1.56c-0.01-0.14-0.03-0.28-0.05-0.42c-0.04-0.36-0.08-0.72-0.1-1.08c-0.02-0.62,0.09-1.14,0.22-1.55
			c-0.11-0.39-0.21-0.89-0.19-1.46c0.01-0.14,0-0.27,0-0.4c-0.01-0.37-0.01-0.73,0.01-1.1c0.05-0.67,0.24-1.2,0.39-1.58
			c-0.04-0.35-0.06-0.84,0.02-1.38c0.1-0.67,0.33-1.21,0.53-1.58c-0.01-0.34,0-0.81,0.11-1.33c0.16-0.72,0.45-1.26,0.62-1.58l0,0
			c0.02-0.07,0.03-0.15,0.05-0.23c0.07-0.34,0.15-0.68,0.24-1.02c0.03-0.11,0.05-0.23,0.07-0.34c0.07-0.33,0.14-0.66,0.24-0.98
			l0.02-0.14c0.05-0.37,0.12-0.92,0.35-1.55c0.18-0.48,0.41-0.87,0.62-1.16c0-0.4,0.05-0.91,0.23-1.46
			c0.15-0.48,0.34-0.85,0.48-1.12c0-0.01,0.01-0.02,0.02-0.03c0-0.04,0-0.09,0-0.15c0.01-0.26,0.02-0.53,0.05-0.79
			c0.02-0.16,0.04-0.32,0.06-0.48c0.02-0.12,0.04-0.24,0.04-0.37c-0.03-0.28-0.02-0.57,0-0.81c-0.07-0.11-0.14-0.21-0.18-0.26
			c-0.07-0.1-0.14-0.2-0.21-0.29c-0.33-0.12-0.77-0.32-1.22-0.63c-0.54-0.38-0.9-0.81-1.14-1.11c-0.09-0.05-0.18-0.1-0.28-0.14
			c-0.04-0.02-0.08-0.04-0.12-0.06c-0.49-0.04-1.25-0.15-2.03-0.61c-0.81-0.47-1.29-1.1-1.57-1.47c-0.39-0.3-0.72-0.59-0.99-0.84
			l-0.01-0.01c-0.34-0.18-0.92-0.49-1.47-1.04c-0.08-0.08-0.18-0.16-0.27-0.24c-0.25-0.21-0.56-0.48-0.88-0.82
			C9,79.26,8.77,78.96,8.54,78.67c-0.09-0.12-0.18-0.23-0.28-0.35c-0.07-0.08-0.15-0.16-0.23-0.23c-0.23-0.22-0.54-0.52-0.84-0.89
			c-0.49-0.61-0.72-1.21-0.87-1.57l0,0c-0.05-0.06-0.1-0.12-0.14-0.18c-0.24-0.29-0.47-0.58-0.68-0.89
			c-0.03-0.04-0.09-0.1-0.15-0.16c-0.23-0.26-0.54-0.61-0.83-1.08c-0.4-0.64-0.56-1.27-0.65-1.68c-0.22-0.28-0.52-0.67-0.77-1.19
			c-0.22-0.45-0.35-0.87-0.44-1.19c-0.36-0.37-0.83-0.94-1.11-1.76c-0.17-0.5-0.32-1.05-0.48-1.68c-0.21-0.86-0.11-1.61-0.01-2.11
			c-0.09-0.33-0.2-0.78-0.24-1.32c-0.03-0.52,0-0.98,0.03-1.31c0.01-0.11,0.02-0.22,0.02-0.33c0.01-0.55,0.04-1.09,0.09-1.64
			C1,58.63,1.04,58.21,1.09,57.8c-0.06-0.42-0.15-1.15,0.05-1.98c0.19-0.81,0.58-1.4,0.93-1.81c0.04-0.34,0.12-0.75,0.29-1.2
			c0.2-0.52,0.44-0.92,0.61-1.21c0.04-0.07,0.09-0.15,0.13-0.22c0.02-0.04,0.04-0.12,0.07-0.2c0.09-0.28,0.21-0.65,0.41-1.05
			l0.01-0.05c0.09-0.38,0.25-1,0.65-1.66c0.2-0.33,0.43-0.65,0.67-0.96c0.08-0.11,0.16-0.21,0.24-0.33c0.07-0.1,0.13-0.21,0.2-0.32
			c0.17-0.28,0.37-0.63,0.66-1c0.42-0.56,0.91-0.92,1.29-1.16c0.17-0.33,0.43-0.75,0.81-1.17c0.48-0.52,1-0.83,1.42-1.02
			c0.2-0.31,0.49-0.69,0.89-1.05c0.41-0.36,0.81-0.6,1.12-0.77c0.24-0.36,0.61-0.86,1.19-1.29c0.49-0.36,0.97-0.56,1.34-0.7
			c0.27-0.32,0.66-0.72,1.22-1.05c0.44-0.27,0.9-0.52,1.35-0.76c0.46-0.25,0.89-0.4,1.2-0.51c0.09-0.03,0.17-0.06,0.25-0.09
			c0.46-0.22,0.93-0.43,1.41-0.63c0.53-0.22,1.01-0.31,1.39-0.36c0.36-0.27,0.87-0.6,1.54-0.8c0.55-0.16,1.05-0.2,1.46-0.18
			c0.4-0.26,0.94-0.52,1.62-0.64c0.74-0.13,1.38-0.04,1.8,0.03c0.3-0.09,0.69-0.19,1.17-0.25c0.44-0.05,0.83-0.04,1.12-0.04
			c0.09,0,0.17,0,0.26,0c0.19-0.02,0.41-0.05,0.63-0.07c0.13-0.01,0.26-0.03,0.39-0.04c0.32-0.14,0.83-0.37,1.49-0.48
			c0.29-0.05,0.57-0.08,0.86-0.1c0.13-0.01,0.26-0.02,0.38-0.04c0.4-0.08,0.78-0.17,1.16-0.26c0.5-0.12,0.94-0.16,1.22-0.18l0.02,0
			c0.04-0.02,0.09-0.05,0.14-0.07c0.25-0.13,0.51-0.25,0.77-0.36c0.55-0.22,1.02-0.3,1.35-0.35l0.07-0.04
			c0.17-0.08,0.34-0.17,0.51-0.26c0.05-0.04,0.09-0.09,0.13-0.13c0.2-0.2,0.41-0.4,0.63-0.58c0.05-0.05,0.09-0.11,0.14-0.16
			c0.19-0.23,0.39-0.45,0.6-0.66c0.11-0.11,0.23-0.22,0.34-0.33c0.14-0.13,0.28-0.26,0.41-0.41c0.1-0.12,0.21-0.24,0.32-0.37
			c0.13-0.15,0.27-0.29,0.39-0.46c0.21-0.29,0.42-0.53,0.6-0.71c0.08-0.36,0.21-0.83,0.48-1.32c0.13-0.24,0.24-0.49,0.36-0.74
			l0.16-0.34c0.14-0.31,0.34-0.61,0.59-0.89c0.07-0.17,0.15-0.35,0.25-0.54l0.06-0.12c0.18-0.34,0.37-0.69,0.57-1.03l0.01-0.03
			c0.11-0.36,0.29-0.96,0.71-1.59c0.35-0.52,0.75-0.88,1.08-1.14c0.14-0.38,0.37-0.87,0.75-1.34c0.31-0.39,0.63-0.69,0.87-0.9
			c0.07-0.07,0.14-0.13,0.21-0.2c0.5-0.56,1.05-0.89,1.45-1.09c0.19-0.27,0.45-0.62,0.82-0.96c0.01-0.02,0.06-0.08,0.11-0.13
			c0.22-0.27,0.51-0.63,0.94-0.99c0.45-0.38,0.89-0.63,1.19-0.79c0.06-0.03,0.12-0.06,0.17-0.1c0.39-0.3,0.82-0.52,1.13-0.67
			c0.24-0.29,0.59-0.68,1.11-1.03l0.08-0.08c0.27-0.26,0.68-0.65,1.27-0.98c0.35-0.2,0.73-0.39,1.1-0.57l0.27-0.14
			c0.6-0.3,1.19-0.41,1.66-0.45c0.31-0.24,0.72-0.51,1.23-0.7c0.11-0.04,0.23-0.1,0.34-0.15c0.36-0.16,0.73-0.32,1.1-0.44
			c0.57-0.18,1.09-0.24,1.43-0.28c0.07-0.01,0.15-0.01,0.22-0.03c0.05-0.01,0.16-0.06,0.28-0.09c0.32-0.11,0.72-0.24,1.2-0.34
			c0.44-0.09,0.9-0.16,1.36-0.23l0.21-0.03c0.8-0.12,1.48,0,1.92,0.11c0.22-0.04,0.5-0.1,0.81-0.13c0.42-0.18,1.12-0.45,2.01-0.45
			c0,0,0.01,0,0.01,0c0.85,0,1.53,0.25,1.92,0.39c0.27,0.03,0.54,0.06,0.81,0.1c0.08,0.01,0.15,0.02,0.23,0.03l0.03,0
			c0.37-0.05,1-0.14,1.74-0.03c0.76,0.11,1.34,0.4,1.72,0.6c0.01,0,0.01,0,0.02,0c0.33,0.03,0.79,0.07,1.31,0.2
			c0.11,0.03,0.23,0.04,0.34,0.06c0.33,0.06,0.74,0.12,1.2,0.26c0.13,0.04,0.27,0.07,0.4,0.11c0.38,0.09,0.75,0.19,1.12,0.32
			c0.51,0.18,0.92,0.41,1.22,0.57c0.07,0.04,0.15,0.08,0.22,0.12c0.33,0.14,0.68,0.3,1.02,0.47l0.77,0.36
			c0.35,0.16,0.7,0.31,1.04,0.49c0.13,0.07,0.26,0.13,0.39,0.19c0.34,0.17,0.68,0.33,1.01,0.53c0.58,0.34,0.97,0.73,1.24,0.98
			l0.25,0.19c0.36,0.23,0.71,0.47,1.06,0.72c0.07,0.05,0.15,0.09,0.22,0.13c0.23,0.13,0.53,0.31,0.85,0.55
			c0.39,0.16,1.04,0.44,1.67,1.01l0.31,0.28c0.3,0.26,0.6,0.53,0.88,0.82c0.66,0.67,0.95,1.42,1.11,1.88
			c0.15,0.2,0.28,0.39,0.39,0.56c0.07,0.1,0.14,0.21,0.22,0.31c0.21,0.26,0.41,0.53,0.6,0.8c0.02,0.03,0.04,0.06,0.07,0.09
			c0.37,0.23,0.94,0.63,1.42,1.28c0.32,0.43,0.53,0.84,0.68,1.14c0.02,0.04,0.04,0.08,0.06,0.13c0.03,0.02,0.07,0.06,0.11,0.11
			c0.22,0.22,0.52,0.52,0.82,0.91c0.31,0.41,0.51,0.8,0.66,1.09c0.03,0.05,0.05,0.1,0.08,0.15c0.15,0.2,0.29,0.39,0.43,0.59
			c0.1,0.14,0.19,0.28,0.3,0.41c0.15,0.18,0.32,0.35,0.48,0.53c0.11,0.12,0.22,0.24,0.33,0.36c0.05,0.04,0.11,0.08,0.17,0.13
			c0.22,0.17,0.53,0.4,0.84,0.7c0.07,0.06,0.16,0.12,0.25,0.18c0.23,0.17,0.47,0.34,0.69,0.52c0.23,0.2,0.46,0.41,0.67,0.63
			c0.06,0.06,0.12,0.13,0.19,0.19c0.18,0.12,0.41,0.31,0.64,0.5c0.02,0.01,0.03,0.03,0.05,0.04c0.28,0.06,0.65,0.15,1.07,0.32
			c0.29,0.12,0.53,0.24,0.74,0.35c0.28-0.04,0.63-0.07,1.03-0.04c0.63,0.03,1.15,0.19,1.51,0.33c0.08-0.01,0.15-0.02,0.23-0.03
			c0.18-0.03,0.36-0.05,0.54-0.08c0.07-0.02,0.13-0.04,0.2-0.06c0.31-0.1,0.73-0.23,1.23-0.3c0.5-0.07,0.94-0.08,1.26-0.08
			c0.05,0,0.08,0,0.12,0c0.06,0,0.12,0,0.17-0.01c0.07-0.01,0.15-0.04,0.24-0.06c0.26-0.06,0.6-0.15,1-0.2l0.03-0.01
			c0.37-0.13,0.98-0.36,1.75-0.39c0.85-0.04,1.51,0.17,1.95,0.33c0.01,0,0.02,0,0.03,0c0.37-0.02,0.75-0.03,1.12-0.01
			c0.52,0.02,1.03,0.06,1.54,0.11c0.38,0.03,0.76,0.09,1.13,0.14l0.4,0.06c0.53,0.07,0.96,0.2,1.28,0.3c0,0,0.01,0,0.02,0
			c0.42-0.04,1.05-0.09,1.79,0.08c0.11,0.03,0.23,0.04,0.34,0.06c0.33,0.05,0.74,0.11,1.2,0.25c0.66,0.19,1.17,0.5,1.52,0.75
			c0.38,0.04,0.88,0.12,1.44,0.34c0.1,0.04,0.2,0.07,0.3,0.1c0.31,0.09,0.74,0.23,1.2,0.44c0.61,0.28,1.04,0.63,1.33,0.87l0.08,0.07
			c0.07,0.03,0.14,0.06,0.21,0.09c0.3,0.13,0.7,0.31,1.13,0.57c0.57,0.35,0.97,0.76,1.23,1.04c0.35,0.15,0.87,0.38,1.4,0.8
			c0.1,0.08,0.21,0.15,0.31,0.23c0.27,0.2,0.62,0.44,0.97,0.76c0.61,0.55,0.94,1.16,1.14,1.58c0.23,0.19,0.52,0.43,0.82,0.76
			l0.06,0.04c0.31,0.23,0.82,0.61,1.27,1.21c0.52,0.69,0.72,1.39,0.83,1.83l0.01,0.02c0.23,0.33,0.46,0.67,0.66,1.03
			c0.19,0.34,0.36,0.71,0.52,1.07c0.02,0.04,0.03,0.08,0.05,0.12c0.28,0.3,0.74,0.83,1.05,1.59c0.27,0.66,0.34,1.25,0.39,1.61
			l0.01,0.1c0.13,0.41,0.21,0.76,0.27,1.06c0.03,0.12,0.05,0.24,0.08,0.36c0.04,0.14,0.08,0.27,0.12,0.4
			c0.12,0.39,0.24,0.77,0.32,1.16c0.03,0.13,0.06,0.26,0.09,0.39c0.1,0.41,0.19,0.81,0.24,1.21c0.02,0.11,0.04,0.23,0.06,0.34
			c0.07,0.33,0.16,0.79,0.19,1.31c0.04,0.66-0.06,1.21-0.12,1.58l0,0.01c0.08,0.39,0.2,1.02,0.12,1.78c0,0.06,0,0.15,0,0.23
			c0,0.37,0.01,0.88-0.1,1.46c-0.13,0.71-0.42,1.26-0.64,1.64c-0.01,0.41-0.06,0.97-0.28,1.59c-0.17,0.49-0.38,0.9-0.54,1.2
			c-0.05,0.1-0.1,0.19-0.15,0.29c-0.15,0.36-0.33,0.71-0.52,1.06c-0.07,0.12-0.13,0.24-0.19,0.37l-0.17,0.35
			c-0.17,0.35-0.34,0.71-0.53,1.05c-0.22,0.4-0.46,0.81-0.7,1.21l-0.03,0.09c-0.12,0.35-0.3,0.87-0.67,1.43
			c-0.37,0.57-0.8,0.96-1.09,1.21c0,0,0,0,0,0.01c-0.14,0.3-0.34,0.71-0.65,1.15c-0.32,0.46-0.66,0.79-0.89,1.01
			c-0.04,0.04-0.08,0.08-0.12,0.12c-0.15,0.21-0.3,0.41-0.45,0.61l-0.24,0.33c-0.13,0.32-0.34,0.86-0.74,1.41
			c-0.29,0.41-0.62,0.71-0.92,0.94c-0.12,0.39-0.31,0.86-0.63,1.32c-0.35,0.5-0.75,0.86-1.02,1.09c0,0.01-0.01,0.02-0.01,0.03
			c-0.11,0.25-0.26,0.59-0.49,0.96c-0.09,0.15-0.16,0.3-0.23,0.45c-0.1,0.22-0.21,0.43-0.32,0.63c-0.3,0.56-0.68,0.97-0.97,1.25
			c0,0.02-0.01,0.03-0.01,0.05c-0.07,0.23-0.14,0.46-0.22,0.68c-0.13,0.36-0.23,0.71-0.32,1.05c-0.07,0.25-0.15,0.47-0.22,0.67
			c0.1,0.38,0.17,0.84,0.15,1.38c-0.04,0.67-0.21,1.2-0.35,1.57c0,0.03,0,0.06,0,0.1c0.21,0.33,0.46,0.79,0.62,1.37
			c0.07,0.26,0.13,0.54,0.18,0.81c0.01,0.05,0.02,0.1,0.03,0.15c0.18,0.27,0.45,0.66,0.67,1.18c0.24,0.57,0.32,1.11,0.34,1.54
			c0.18,0.24,0.38,0.53,0.56,0.87c0.27,0.53,0.39,1.01,0.48,1.33l0.03,0.11c0.07,0.13,0.14,0.26,0.21,0.39
			c0.13,0.24,0.27,0.49,0.4,0.74c0.01,0.02,0.06,0.08,0.11,0.15c0.18,0.26,0.43,0.62,0.66,1.08c0.15,0.31,0.28,0.63,0.41,0.95
			c0.03,0.09,0.07,0.17,0.1,0.26l0.03,0.03c0.22,0.28,0.6,0.76,0.88,1.41c0.29,0.67,0.36,1.3,0.39,1.72
			c0.17,0.29,0.4,0.71,0.58,1.22c0.14,0.41,0.26,0.82,0.38,1.24l0.08,0.27c0.1,0.36,0.18,0.73,0.26,1.11
			c0.01,0.03,0.01,0.06,0.02,0.09c0.24,0.38,0.59,1,0.75,1.82c0.07,0.39,0.11,0.78,0.13,1.18c0.01,0.14,0.02,0.28,0.04,0.41
			c0.09,0.69,0,1.28-0.11,1.73c0.12,0.35,0.23,0.81,0.25,1.34l0.02,0.34c0.02,0.4,0.04,0.8,0.04,1.2c0,0.67-0.16,1.23-0.29,1.63
			c0.07,0.38,0.13,0.89,0.07,1.48l-0.02,0.19c-0.05,0.46-0.1,0.93-0.17,1.38c-0.02,0.13-0.03,0.25-0.04,0.38
			c-0.03,0.33-0.08,0.74-0.18,1.2c-0.15,0.69-0.45,1.23-0.67,1.59c-0.03,0.37-0.09,0.89-0.29,1.46c-0.14,0.4-0.31,0.78-0.48,1.16
			l-0.08,0.22c-0.07,0.37-0.19,1-0.53,1.67c-0.27,0.52-0.57,0.91-0.79,1.19c-0.05,0.06-0.1,0.12-0.14,0.18
			c-0.32,0.54-0.72,0.93-1.02,1.2c-0.14,0.39-0.37,0.92-0.79,1.44c-0.37,0.46-0.77,0.78-1.1,1c-0.19,0.43-0.49,0.96-1,1.45
			c-0.5,0.48-1,0.76-1.33,0.95l-0.25,0.19c-0.32,0.28-0.64,0.55-0.97,0.8c-0.61,0.46-1.2,0.67-1.57,0.8
			c-0.03,0.02-0.05,0.04-0.08,0.06c-0.25,0.21-0.6,0.49-1.05,0.75c-0.12,0.07-0.23,0.14-0.35,0.22c-0.32,0.21-0.65,0.41-0.99,0.59
			c-0.48,0.25-0.92,0.39-1.23,0.49l0,0c-0.31,0.27-0.82,0.68-1.52,0.96c-0.36,0.14-0.72,0.25-1.09,0.36
			c-0.13,0.04-0.26,0.07-0.39,0.12l-0.31,0.11c-0.38,0.13-0.76,0.26-1.15,0.38c0,0-0.04,0.03-0.1,0.06c-0.3,0.14-0.76,0.36-1.33,0.5
			c-0.75,0.19-1.41,0.14-1.89,0.06c-0.3,0.12-0.69,0.24-1.15,0.32c-0.36,0.06-0.71,0.1-1.08,0.14l-0.42,0.05
			c-0.07,0.01-0.15,0.04-0.24,0.06c-0.31,0.08-0.73,0.18-1.23,0.22c-0.51,0.05-0.95,0.01-1.29-0.04c-0.42,0.17-1,0.36-1.71,0.38
			C111.33,140.05,111.3,140.05,111.27,140.05z M63.35,133.57C63.35,133.57,63.35,133.57,63.35,133.57
			C63.35,133.57,63.35,133.57,63.35,133.57z M109.86,132.7c0.02,0,0.05,0,0.07,0c0.47,0,0.89,0.09,1.24,0.18
			c0.35-0.12,0.78-0.23,1.28-0.26c0.58-0.03,1.07,0.04,1.39,0.09c0.03-0.01,0.07-0.02,0.1-0.03c0.33-0.08,0.67-0.16,1-0.2l0.53-0.06
			c0.19-0.02,0.38-0.04,0.57-0.07l0.1-0.04c0.28-0.11,0.7-0.28,1.22-0.39c0.64-0.13,1.21-0.1,1.64-0.03c0.23-0.1,0.5-0.21,0.82-0.3
			c0.28-0.08,0.56-0.18,0.83-0.28l0.33-0.12c0.24-0.08,0.48-0.15,0.73-0.22c0.04-0.01,0.08-0.02,0.12-0.04
			c0.29-0.25,0.71-0.59,1.29-0.85c0.31-0.14,0.64-0.26,0.97-0.36c0.08-0.02,0.16-0.05,0.23-0.08c0.07-0.04,0.21-0.13,0.35-0.22
			c0.2-0.13,0.39-0.25,0.59-0.37c0.04-0.03,0.1-0.09,0.18-0.15c0.25-0.2,0.5-0.4,0.76-0.57c0.51-0.34,1-0.52,1.32-0.63
			c0.12-0.1,0.25-0.21,0.37-0.32l0.3-0.26c0.25-0.21,0.5-0.38,0.71-0.51c0.17-0.37,0.41-0.81,0.8-1.24c0.31-0.34,0.63-0.58,0.9-0.77
			c0.12-0.29,0.29-0.63,0.53-0.99c0.37-0.54,0.79-0.9,1.06-1.12c0.12-0.17,0.25-0.35,0.38-0.52c0.06-0.32,0.16-0.76,0.37-1.24
			l0.18-0.42c0.06-0.14,0.13-0.28,0.19-0.43c0.02-0.33,0.05-0.82,0.22-1.38c0.17-0.6,0.43-1.05,0.64-1.37c0-0.03,0-0.05,0.01-0.08
			c0.03-0.26,0.06-0.52,0.1-0.77c0.05-0.28,0.08-0.57,0.11-0.87c-0.07-0.34-0.17-0.87-0.14-1.51c0.04-0.67,0.21-1.21,0.35-1.57
			c-0.01-0.15-0.01-0.29-0.02-0.44l0-0.05c-0.13-0.34-0.33-0.88-0.38-1.55c-0.07-0.78,0.09-1.43,0.22-1.86
			c-0.01-0.07-0.01-0.15-0.02-0.22c0-0.02,0-0.05,0-0.07c-0.21-0.34-0.48-0.84-0.63-1.49c-0.05-0.22-0.1-0.45-0.14-0.67
			c-0.04-0.18-0.07-0.36-0.12-0.54l-0.08-0.28c-0.08-0.28-0.16-0.55-0.24-0.81c-0.02-0.04-0.05-0.09-0.08-0.13
			c-0.15-0.26-0.37-0.62-0.54-1.09c-0.21-0.53-0.28-1.01-0.31-1.39c-0.19-0.25-0.41-0.58-0.61-1c-0.12-0.27-0.23-0.54-0.34-0.8
			c-0.06-0.15-0.11-0.29-0.18-0.43c-0.01-0.02-0.07-0.09-0.11-0.15c-0.17-0.24-0.4-0.57-0.62-0.99c-0.1-0.19-0.2-0.38-0.3-0.56
			c-0.12-0.22-0.24-0.45-0.36-0.67c-0.26-0.5-0.39-0.96-0.48-1.29c-0.25-0.29-0.61-0.72-0.89-1.31c-0.33-0.71-0.41-1.39-0.42-1.89
			c-0.19-0.29-0.4-0.67-0.56-1.14c-0.18-0.5-0.26-0.95-0.33-1.29c-0.28-0.41-0.68-1.06-0.83-1.95c-0.1-0.57-0.1-1.09-0.1-1.46
			c0-0.11,0-0.22,0-0.33c-0.04-0.69,0.08-1.27,0.22-1.7c-0.13-0.49-0.24-1.16-0.11-1.92c0.11-0.69,0.35-1.23,0.51-1.59
			c0.03-0.06,0.06-0.12,0.08-0.18c0.11-0.4,0.27-0.96,0.49-1.56c0.04-0.11,0.07-0.21,0.11-0.33c0.11-0.35,0.24-0.78,0.46-1.25
			c0.36-0.78,0.87-1.29,1.2-1.59c0.01-0.02,0.01-0.03,0.02-0.05c0.17-0.36,0.35-0.72,0.57-1.07c0.01-0.02,0.04-0.09,0.07-0.16
			c0.14-0.32,0.33-0.75,0.65-1.22c0.27-0.39,0.56-0.7,0.81-0.93c0.11-0.44,0.31-1,0.71-1.56c0.38-0.53,0.82-0.89,1.17-1.14
			c0.13-0.3,0.32-0.69,0.6-1.07l0.83-1.12c0.31-0.43,0.63-0.74,0.86-0.97c0.02-0.02,0.04-0.04,0.06-0.06
			c0.01-0.03,0.03-0.06,0.04-0.1c0.13-0.28,0.32-0.67,0.6-1.08c0.32-0.46,0.67-0.8,0.94-1.04c0.11-0.3,0.27-0.7,0.52-1.13
			c0.22-0.36,0.43-0.73,0.63-1.09c0.13-0.23,0.24-0.46,0.35-0.7l0.2-0.41c0.1-0.2,0.2-0.39,0.31-0.59c0.09-0.16,0.18-0.32,0.25-0.48
			c0.11-0.27,0.24-0.52,0.38-0.78c0.01-0.02,0.02-0.04,0.03-0.06c0-0.35,0.03-0.85,0.18-1.4c0.15-0.54,0.37-0.97,0.56-1.28
			c0-0.18,0-0.37,0.01-0.55c-0.07-0.33-0.17-0.82-0.16-1.44c0.01-0.47,0.08-0.85,0.12-1.13c0-0.02,0.01-0.05,0.01-0.07
			c-0.01-0.07-0.03-0.14-0.04-0.21c-0.06-0.27-0.11-0.54-0.15-0.81c-0.02-0.18-0.07-0.35-0.12-0.53c-0.04-0.19-0.09-0.38-0.13-0.58
			c-0.03-0.16-0.09-0.32-0.14-0.48c-0.07-0.21-0.13-0.42-0.19-0.64c-0.07-0.24-0.12-0.48-0.17-0.72c-0.03-0.14-0.06-0.29-0.11-0.43
			c-0.13-0.39-0.2-0.74-0.25-1.03c-0.23-0.27-0.5-0.63-0.72-1.09c-0.09-0.19-0.18-0.39-0.27-0.59c-0.07-0.15-0.13-0.31-0.21-0.45
			c-0.1-0.19-0.22-0.35-0.34-0.51c-0.1-0.15-0.21-0.3-0.3-0.45c-0.29-0.43-0.46-0.87-0.57-1.22c-0.22-0.18-0.48-0.41-0.73-0.7
			c0,0-0.06-0.04-0.13-0.1c-0.26-0.21-0.51-0.43-0.74-0.67c-0.45-0.46-0.73-0.95-0.9-1.31c-0.01-0.01-0.03-0.02-0.04-0.03
			c-0.13-0.09-0.25-0.18-0.38-0.28l-0.03-0.01c-0.3-0.13-0.76-0.32-1.24-0.65c-0.47-0.33-0.8-0.68-1.02-0.92
			c-0.04-0.02-0.09-0.04-0.13-0.06c-0.27-0.12-0.54-0.24-0.79-0.38c-0.47-0.25-0.83-0.54-1.07-0.74l-0.02-0.02
			c-0.05-0.02-0.11-0.03-0.17-0.05c-0.2-0.06-0.4-0.12-0.59-0.19l-0.01,0c-0.33-0.03-0.88-0.08-1.48-0.29
			c-0.6-0.21-1.05-0.5-1.37-0.73c-0.01,0-0.01,0-0.02,0c-0.16-0.02-0.33-0.05-0.49-0.08c-0.37,0.04-0.96,0.09-1.64-0.03
			c-0.33-0.06-0.66-0.15-0.99-0.25c-0.08-0.02-0.16-0.05-0.24-0.07l-0.45-0.06c-0.23-0.04-0.47-0.07-0.71-0.09
			c-0.4-0.04-0.81-0.07-1.22-0.09c-0.17-0.01-0.34,0-0.51,0.01c-0.24,0.01-0.48,0.02-0.72,0.02c0,0-0.01,0-0.01,0
			c-0.54,0-1.01-0.1-1.38-0.21c-0.29,0.09-0.66,0.18-1.07,0.22c-0.05,0.01-0.14,0.04-0.23,0.06c-0.33,0.08-0.66,0.15-0.99,0.2
			c-0.47,0.06-0.89,0.06-1.19,0.07c-0.09,0-0.18,0-0.27,0.01c0.01,0-0.07,0.03-0.15,0.06c-0.33,0.1-0.79,0.25-1.36,0.32
			c-0.15,0.02-0.29,0.04-0.43,0.06c-0.43,0.07-0.87,0.13-1.29,0.15c-0.85,0.05-1.55-0.16-2.01-0.32c-0.46,0.07-1.12,0.13-1.9-0.03
			c-0.82-0.17-1.42-0.51-1.82-0.74c-0.03-0.02-0.07-0.04-0.1-0.06l-0.1-0.02c-0.4-0.09-1.01-0.23-1.67-0.59
			c-0.56-0.31-0.97-0.65-1.26-0.89c-0.07-0.06-0.14-0.12-0.21-0.17c-0.49-0.34-0.84-0.7-1.1-0.96c-0.06-0.06-0.13-0.13-0.2-0.19
			c-0.08-0.07-0.17-0.13-0.26-0.19c-0.28-0.2-0.67-0.48-1.06-0.86c-0.03-0.02-0.09-0.07-0.16-0.11c-0.29-0.22-0.69-0.51-1.08-0.95
			l-0.3-0.32c-0.26-0.28-0.53-0.56-0.78-0.85c-0.24-0.28-0.45-0.58-0.66-0.88c-0.09-0.12-0.17-0.25-0.27-0.37
			c-0.35-0.44-0.58-0.88-0.73-1.18c-0.02-0.04-0.04-0.08-0.07-0.13c-0.04-0.04-0.08-0.08-0.13-0.12c-0.23-0.23-0.54-0.54-0.85-0.95
			c-0.27-0.37-0.46-0.71-0.6-0.99c-0.35-0.23-0.83-0.59-1.24-1.14c-0.13-0.17-0.26-0.35-0.39-0.53c-0.13-0.18-0.26-0.37-0.4-0.54
			c-0.19-0.24-0.36-0.49-0.54-0.74c-0.07-0.1-0.13-0.21-0.21-0.3c-0.47-0.54-0.73-1.11-0.88-1.53c-0.04-0.04-0.08-0.08-0.13-0.11
			c-0.04-0.04-0.09-0.08-0.13-0.12c-0.35-0.15-0.88-0.38-1.41-0.82c-0.03-0.02-0.11-0.06-0.19-0.11c-0.29-0.17-0.58-0.35-0.85-0.55
			c-0.24-0.18-0.49-0.34-0.74-0.5l-0.27-0.18c-0.46-0.3-0.79-0.63-1.01-0.84l-0.05-0.05c-0.11-0.06-0.23-0.12-0.35-0.17
			c-0.21-0.1-0.42-0.2-0.62-0.31c-0.2-0.11-0.41-0.19-0.61-0.29c-0.17-0.07-0.34-0.15-0.51-0.23c-0.17-0.08-0.34-0.16-0.51-0.25
			c-0.2-0.1-0.4-0.2-0.6-0.28c-0.33-0.13-0.64-0.3-0.96-0.47c-0.07-0.04-0.15-0.08-0.22-0.12c-0.09-0.03-0.26-0.07-0.42-0.11
			c-0.24-0.06-0.48-0.12-0.71-0.19c-0.11-0.03-0.23-0.04-0.35-0.07c-0.29-0.05-0.58-0.1-0.86-0.17c-0.03,0-0.12-0.01-0.21-0.01
			c-0.34-0.03-0.69-0.06-1.02-0.13c-0.52-0.1-0.95-0.28-1.27-0.44c-0.31,0.03-0.71,0.06-1.15,0.01c-0.25-0.03-0.49-0.06-0.72-0.09
			c-0.17-0.02-0.33-0.05-0.5-0.06c-0.45-0.02-0.84-0.11-1.17-0.21c-0.35,0.12-0.79,0.23-1.29,0.25c-0.07,0.01-0.17,0.03-0.26,0.05
			c-0.31,0.06-0.63,0.12-0.95,0.15c-0.71,0.07-1.3-0.04-1.71-0.14c-0.26,0.04-0.51,0.08-0.76,0.13c-0.12,0.03-0.24,0.07-0.36,0.12
			c-0.27,0.09-0.54,0.18-0.81,0.25c-0.46,0.12-0.85,0.16-1.14,0.2c-0.05,0.01-0.11,0.01-0.16,0.02c-0.11,0.04-0.21,0.09-0.31,0.14
			c-0.08,0.04-0.17,0.07-0.25,0.11c-0.29,0.27-0.76,0.67-1.42,0.96c-0.72,0.31-1.38,0.37-1.85,0.38c-0.11,0.06-0.22,0.11-0.33,0.17
			l-0.04,0.03c-0.18,0.17-0.42,0.4-0.75,0.64c-0.22,0.27-0.59,0.71-1.14,1.1c-0.42,0.29-0.82,0.48-1.08,0.61l-0.1,0.05
			C56.9,19,56.6,19.17,56.37,19.3c-0.02,0.01-0.03,0.02-0.05,0.03c-0.02,0.02-0.04,0.04-0.05,0.07c-0.16,0.19-0.37,0.45-0.64,0.72
			l-0.08,0.11c-0.16,0.23-0.41,0.59-0.76,0.95c-0.52,0.54-1.09,0.84-1.46,1.02c-0.08,0.08-0.17,0.17-0.26,0.25
			c-0.13,0.37-0.33,0.87-0.7,1.38c-0.31,0.43-0.66,0.74-0.96,0.97c-0.1,0.29-0.24,0.63-0.46,0.98c-0.16,0.27-0.31,0.55-0.47,0.84
			l0,0.02c-0.07,0.32-0.18,0.8-0.44,1.35c-0.2,0.43-0.51,0.83-0.89,1.17c-0.08,0.41-0.24,1.06-0.64,1.71
			c-0.34,0.56-0.73,0.95-0.98,1.21l-0.11,0.12c-0.25,0.34-0.51,0.65-0.78,0.95l-0.23,0.26c-0.35,0.41-0.68,0.73-0.96,0.98
			l-0.24,0.23c-0.06,0.06-0.12,0.13-0.17,0.2c-0.24,0.28-0.57,0.67-1.04,1.04c-0.05,0.04-0.11,0.1-0.17,0.16
			c-0.27,0.27-0.65,0.63-1.17,0.97c-0.46,0.3-0.9,0.52-1.26,0.7l-0.27,0.13c-0.71,0.36-1.37,0.47-1.76,0.53l-0.02,0
			c-0.04,0.02-0.08,0.04-0.12,0.06c-0.31,0.15-0.73,0.36-1.24,0.53c-0.62,0.2-1.16,0.24-1.52,0.26l-0.15,0.01
			c-0.46,0.11-0.93,0.22-1.41,0.31c-0.36,0.07-0.72,0.11-1.09,0.14c-0.06,0.01-0.11,0.01-0.17,0.02c-0.35,0.16-0.9,0.4-1.62,0.5
			c-0.29,0.04-0.59,0.07-0.89,0.1c-0.17,0.02-0.35,0.04-0.53,0.06c-0.46,0.06-0.86,0.05-1.15,0.05c-0.07,0-0.14,0-0.21,0
			c-0.04,0.01-0.08,0.02-0.12,0.04c-0.3,0.09-0.75,0.22-1.29,0.28c-0.35,0.04-0.66,0.03-0.94,0.01c-0.34,0.21-0.77,0.42-1.3,0.54
			c-0.44,0.1-0.86,0.12-1.19,0.12c-0.28,0.19-0.63,0.39-1.05,0.54c-0.6,0.21-1.14,0.27-1.48,0.3c-0.28,0.12-0.55,0.24-0.83,0.37
			c-0.3,0.14-0.61,0.26-0.92,0.37c-0.09,0.03-0.18,0.06-0.26,0.1c-0.21,0.11-0.44,0.24-0.68,0.38c-0.25,0.31-0.62,0.75-1.19,1.13
			c-0.37,0.25-0.73,0.41-1.04,0.53c-0.21,0.29-0.49,0.63-0.89,0.95c-0.34,0.28-0.67,0.47-0.93,0.62c-0.18,0.29-0.44,0.67-0.82,1.04
			c-0.39,0.38-0.81,0.64-1.16,0.82c-0.14,0.26-0.33,0.55-0.58,0.85c-0.42,0.5-0.89,0.83-1.24,1.04c0,0,0,0,0,0
			c-0.14,0.24-0.28,0.47-0.43,0.7c-0.13,0.2-0.28,0.4-0.43,0.59c-0.04,0.06-0.09,0.12-0.14,0.18c-0.08,0.33-0.22,0.83-0.5,1.36
			c0,0-0.02,0.08-0.05,0.16c-0.1,0.32-0.21,0.63-0.35,0.93c-0.14,0.3-0.3,0.59-0.47,0.87c0,0,0,0.01-0.01,0.01
			c-0.03,0.32-0.08,0.79-0.24,1.3c-0.16,0.52-0.4,0.94-0.65,1.27c0,0.26-0.01,0.55-0.06,0.86C8,58.95,7.97,59.28,7.94,59.62
			c-0.04,0.46-0.06,0.83-0.07,1.2c0,0.25-0.02,0.51-0.04,0.76c-0.01,0.09-0.02,0.17-0.02,0.26c0.01,0.03,0.02,0.06,0.03,0.09
			c0.08,0.27,0.18,0.63,0.24,1.07c0.1,0.68,0.01,1.27-0.07,1.68c0,0,0,0.01,0,0.01c0.32,0.33,0.73,0.82,1.01,1.5
			c0.17,0.42,0.27,0.8,0.35,1.07c0,0.02,0.01,0.04,0.01,0.05c0,0,0.01,0.01,0.01,0.02c0.18,0.23,0.46,0.58,0.71,1.02
			c0.3,0.54,0.44,1.06,0.53,1.44c0.18,0.21,0.41,0.47,0.64,0.81c0.09,0.14,0.2,0.26,0.31,0.39c0.17,0.2,0.33,0.41,0.49,0.62
			c0.37,0.5,0.59,1,0.72,1.34c0.03,0.02,0.05,0.05,0.08,0.07c0.24,0.23,0.48,0.46,0.69,0.71c0.18,0.2,0.35,0.42,0.51,0.64
			c0.1,0.13,0.19,0.26,0.3,0.37c0.09,0.09,0.19,0.17,0.29,0.26c0.16,0.13,0.31,0.27,0.46,0.41l0.01,0.01
			c0.3,0.16,0.81,0.43,1.31,0.89l0.15,0.14c0.22,0.2,0.4,0.37,0.54,0.47c0.36,0.24,0.64,0.51,0.86,0.75
			c0.41,0.08,0.89,0.22,1.39,0.49c0.14,0.08,0.29,0.15,0.43,0.23c0.32,0.17,0.64,0.33,0.94,0.51c0.63,0.37,1.06,0.84,1.35,1.19
			c0.45,0.17,1.08,0.47,1.66,1.02c0.51,0.48,0.99,1.06,1.44,1.73c0.42,0.62,0.85,1.31,1.14,2.13c0.34,0.97,0.28,1.82,0.25,2.33
			l-0.01,0.14c0.05,0.69-0.03,1.28-0.09,1.71l-0.04,0.29c-0.01,0.1-0.01,0.19-0.01,0.29c-0.01,0.4-0.03,0.96-0.18,1.59
			c-0.14,0.58-0.36,1.05-0.53,1.39c0.01,0.46-0.01,1.13-0.28,1.85c-0.22,0.61-0.53,1.07-0.77,1.39c-0.04,0.31-0.1,0.71-0.24,1.16
			c-0.04,0.12-0.06,0.25-0.08,0.37c-0.06,0.29-0.12,0.58-0.2,0.86c-0.05,0.18-0.09,0.36-0.12,0.54c-0.05,0.23-0.1,0.45-0.15,0.68
			c-0.13,0.51-0.32,0.92-0.47,1.22c0.01,0.32,0,0.73-0.08,1.21c-0.1,0.55-0.29,1-0.46,1.34c0.03,0.3,0.04,0.67,0,1.1
			c-0.07,0.66-0.27,1.18-0.43,1.53c0,0.04,0,0.07,0,0.11c0,0.1,0,0.2,0.01,0.29c0.15,0.39,0.35,1.01,0.35,1.77
			c0,0.71-0.18,1.3-0.33,1.71c0,0.01,0,0.01,0,0.02c0.02,0.17,0.04,0.35,0.06,0.52l0.02,0.06c0.11,0.31,0.26,0.77,0.33,1.36
			c0.02,0.13,0.05,0.27,0.08,0.4c0.06,0.26,0.12,0.52,0.16,0.79c0.08,0.48,0.08,0.88,0.08,1.18c0,0.05,0,0.1,0,0.15
			c0.07,0.39,0.1,0.73,0.12,0.99c0,0.06,0.01,0.12,0.01,0.18c0.05,0.17,0.11,0.34,0.16,0.51c0.06,0.19,0.13,0.38,0.19,0.57
			c0.06,0.2,0.14,0.4,0.21,0.59c0.07,0.18,0.14,0.36,0.2,0.54c0.04,0.12,0.11,0.24,0.17,0.36c0.12,0.24,0.23,0.48,0.33,0.72
			c0.19,0.46,0.29,0.88,0.36,1.16l0.03,0.12c0.1,0.22,0.19,0.44,0.27,0.66c0.01,0.04,0.03,0.07,0.04,0.11
			c0.24,0.23,0.59,0.59,0.9,1.09c0.12,0.2,0.26,0.38,0.4,0.58l0.27,0.38c0.33,0.47,0.52,0.93,0.64,1.3c0.2,0.16,0.43,0.37,0.65,0.62
			c0.21,0.24,0.4,0.48,0.59,0.73c0.06,0.08,0.11,0.16,0.17,0.23c0.04,0.03,0.13,0.09,0.22,0.15c0.23,0.17,0.46,0.34,0.67,0.53
			c0.06,0.04,0.15,0.09,0.23,0.15c0.25,0.16,0.49,0.32,0.72,0.5c0.25,0.19,0.49,0.41,0.73,0.64c0.04,0.04,0.09,0.08,0.13,0.12
			c0.05,0.02,0.1,0.05,0.16,0.07c0.3,0.14,0.6,0.28,0.89,0.44c0.2,0.12,0.4,0.25,0.6,0.38c0.12,0.08,0.24,0.17,0.38,0.23
			c0.22,0.11,0.42,0.23,0.59,0.35c0.5-0.01,1.06,0.03,1.67,0.25c0.55,0.2,0.96,0.46,1.24,0.64l0.03,0.02
			c0.17,0.06,0.34,0.12,0.51,0.18c0.12,0.05,0.24,0.1,0.37,0.13c0.42,0.1,0.76,0.24,1.02,0.33c0.06,0.02,0.12,0.05,0.17,0.07
			c0.13,0.02,0.25,0.03,0.38,0.04c0.12,0.01,0.24,0.02,0.37,0.04c0.37-0.07,0.93-0.17,1.62-0.11c0.19,0.02,0.37,0.04,0.56,0.06
			c0.21,0.02,0.43,0.05,0.65,0.06c0.13,0.01,0.27-0.01,0.41-0.01c0.26-0.01,0.53-0.03,0.8-0.02c0.68,0.01,1.25,0.17,1.67,0.34
			c0.23-0.04,0.5-0.09,0.81-0.11c0.29-0.02,0.56-0.02,0.79,0c0.41-0.25,0.97-0.51,1.69-0.62c0.62-0.09,1.16-0.04,1.51,0
			c0.04-0.01,0.08-0.03,0.12-0.04c0.31-0.1,0.62-0.19,0.94-0.26c0.16-0.04,0.31-0.09,0.47-0.14c0.26-0.08,0.52-0.16,0.78-0.23
			c0.29-0.08,0.59-0.13,0.9-0.19c0.12-0.02,0.25-0.04,0.37-0.07l0.47-0.14c0.26-0.08,0.52-0.15,0.78-0.24
			c0.26-0.09,0.52-0.16,0.79-0.24c0.15-0.04,0.31-0.08,0.45-0.13c0.33-0.13,0.68-0.22,1.04-0.31c0.06-0.01,0.12-0.03,0.17-0.04
			c0.03-0.02,0.07-0.05,0.1-0.07c0.25-0.17,0.6-0.41,1.05-0.62c0.25-0.12,0.5-0.22,0.76-0.33c0.14-0.06,0.28-0.11,0.41-0.18
			c0.33-0.18,0.64-0.3,0.9-0.39c0.25-0.33,0.62-0.73,1.14-1.07c0.23-0.15,0.44-0.32,0.66-0.48l0.33-0.25
			c0.45-0.33,0.9-0.54,1.27-0.67c0.19-0.26,0.45-0.56,0.79-0.85c0.37-0.31,0.72-0.53,0.98-0.69c0,0,0.01-0.01,0.01-0.01
			c0.22-0.32,0.56-0.79,1.09-1.21c0.1-0.08,0.21-0.18,0.31-0.27c0.26-0.24,0.52-0.47,0.8-0.68c0.5-0.38,0.98-0.6,1.29-0.75l0.1-0.05
			c0.04-0.03,0.08-0.07,0.13-0.11c0.26-0.22,0.61-0.53,1.07-0.82c0.44-0.27,0.92-0.53,1.46-0.81c0.55-0.28,1.06-0.42,1.43-0.53
			c0.08-0.02,0.17-0.04,0.25-0.07c0.73-0.27,1.42-0.29,1.91-0.27c0.43-0.21,1.06-0.44,1.85-0.48c0.72-0.03,1.34,0.06,1.84,0.14
			l0.18,0.03c0.67,0.1,1.21,0.3,1.61,0.45c0.09,0.03,0.18,0.07,0.27,0.1c0.49,0.16,1.09,0.36,1.75,0.7c0.64,0.33,1.1,0.75,1.37,1
			l0.13,0.12c-0.01-0.01,0.05,0.02,0.13,0.06c0.3,0.17,0.75,0.42,1.21,0.8c0.34,0.28,0.6,0.55,0.82,0.79
			c0.51,0.21,1.17,0.54,1.74,1.17c0.35,0.38,0.58,0.76,0.75,1.1c0.33,0.18,0.7,0.43,1.06,0.8l0.33,0.34
			c0.19,0.19,0.37,0.39,0.56,0.57c0.45,0.44,0.74,0.91,0.93,1.28c0.17,0.1,0.36,0.23,0.56,0.39l0.01,0c0.3,0.14,0.82,0.37,1.33,0.78
			c0.46,0.37,0.78,0.77,0.99,1.08c0.24,0.11,0.53,0.26,0.84,0.46c0.25,0.16,0.5,0.36,0.74,0.55c0.36,0.07,0.85,0.19,1.37,0.46
			c0.4,0.2,0.71,0.43,0.96,0.65c0.33,0.04,0.72,0.11,1.14,0.27c0.72,0.27,1.23,0.68,1.58,1.01c0.1,0.03,0.21,0.05,0.31,0.08
			l0.21,0.05c0.29,0.07,0.59,0.13,0.88,0.19l0.3,0.06c0.03,0,0.12,0,0.2,0c0.34,0.01,0.68,0.04,1.01,0.09
			c0.38,0.06,0.71,0.15,0.97,0.24c0.39-0.09,0.91-0.18,1.5-0.13c0.26,0.02,0.53,0.05,0.8,0.09c0.15,0.02,0.3,0.04,0.45,0.05
			c0.15,0.01,0.3-0.01,0.46-0.01C109.37,132.72,109.61,132.7,109.86,132.7z M36.94,130.15c0,0,0.01,0,0.01,0
			C36.95,130.16,36.95,130.15,36.94,130.15z M86.7,130.12C86.71,130.12,86.71,130.12,86.7,130.12
			C86.71,130.12,86.71,130.12,86.7,130.12z M71.65,127.21C71.65,127.21,71.64,127.21,71.65,127.21
			C71.64,127.21,71.65,127.21,71.65,127.21z M93.3,126.95C93.3,126.95,93.31,126.95,93.3,126.95
			C93.31,126.95,93.3,126.95,93.3,126.95z M20.26,125.61C20.26,125.61,20.26,125.62,20.26,125.61
			C20.26,125.62,20.26,125.61,20.26,125.61z M80.3,124.58C80.3,124.58,80.3,124.58,80.3,124.58C80.3,124.58,80.3,124.58,80.3,124.58
			z M76.52,124.24c-0.01,0-0.02,0.01-0.02,0.01C76.51,124.24,76.52,124.24,76.52,124.24z M78.82,124.02c0.01,0,0.01,0,0.02,0
			L78.82,124.02z M24.93,119.92c0.01,0.01,0.01,0.02,0.02,0.03C24.94,119.94,24.94,119.93,24.93,119.92z M23.19,114.19
			c0,0.01,0,0.02,0,0.02C23.19,114.21,23.19,114.2,23.19,114.19z M15.93,112.62c0,0,0,0.01,0,0.01
			C15.93,112.63,15.93,112.62,15.93,112.62z M134.59,111.5c0,0.01,0,0.02,0,0.03L134.59,111.5z M26.58,87.34c0,0.01,0,0.01,0,0.02
			C26.58,87.35,26.58,87.35,26.58,87.34z M17.19,84.93C17.2,84.94,17.2,84.94,17.19,84.93C17.2,84.94,17.2,84.94,17.19,84.93z
			 M16,84.29c0,0,0.01,0.01,0.01,0.01C16.01,84.3,16.01,84.3,16,84.29z M13.2,82.7C13.2,82.7,13.2,82.71,13.2,82.7
			C13.2,82.71,13.2,82.7,13.2,82.7z M11.72,81.48C11.72,81.48,11.72,81.48,11.72,81.48L11.72,81.48z M6.45,75.78
			C6.45,75.79,6.45,75.79,6.45,75.78C6.45,75.79,6.45,75.79,6.45,75.78z M15.34,75.62C15.34,75.62,15.34,75.63,15.34,75.62
			C15.34,75.63,15.34,75.62,15.34,75.62z M140.19,72.12c0,0-0.01,0.01-0.01,0.01C140.18,72.12,140.19,72.12,140.19,72.12z
			 M7.87,64.14c0,0,0,0.01,0,0.01C7.88,64.15,7.88,64.15,7.87,64.14z M140.46,55.98C140.46,55.98,140.46,55.98,140.46,55.98
			C140.46,55.98,140.46,55.98,140.46,55.98z M3.68,49.92c0,0,0,0.01-0.01,0.01C3.68,49.92,3.68,49.92,3.68,49.92z M145.99,46.98
			c0,0.01,0,0.01,0.01,0.02C145.99,46.99,145.99,46.99,145.99,46.98z M144.69,44.06C144.69,44.06,144.69,44.07,144.69,44.06
			C144.69,44.07,144.69,44.06,144.69,44.06z M133.58,40.66C133.58,40.66,133.58,40.66,133.58,40.66
			C133.58,40.66,133.58,40.66,133.58,40.66z M141.28,38.64C141.28,38.64,141.29,38.64,141.28,38.64
			C141.29,38.64,141.28,38.64,141.28,38.64z M128.43,37.7C128.44,37.7,128.44,37.7,128.43,37.7C128.44,37.7,128.44,37.7,128.43,37.7
			z M47.48,32.1C47.48,32.1,47.48,32.1,47.48,32.1C47.48,32.1,47.48,32.1,47.48,32.1z M38,31.55c-0.01,0-0.02,0.01-0.03,0.01
			L38,31.55z M39.65,30.37C39.64,30.37,39.64,30.37,39.65,30.37C39.64,30.37,39.64,30.37,39.65,30.37z M49.73,27.86l-0.04,0.08
			C49.71,27.91,49.72,27.89,49.73,27.86z M101.05,24.23c0,0.01,0.01,0.01,0.01,0.02C101.05,24.24,101.05,24.23,101.05,24.23z
			 M44.96,22.16c0,0,0,0.01-0.01,0.01C44.96,22.17,44.96,22.17,44.96,22.16z M57.36,18.66c0,0-0.01,0.01-0.01,0.01
			C57.35,18.67,57.36,18.67,57.36,18.66z M95.67,17.34c0,0,0.01,0.01,0.01,0.01C95.68,17.35,95.68,17.35,95.67,17.34z M59.28,17.2
			c0,0-0.01,0.01-0.01,0.01C59.27,17.21,59.27,17.2,59.28,17.2z M61.25,15.87L61.25,15.87C61.24,15.88,61.25,15.87,61.25,15.87z
			 M63.49,15.01C63.48,15.01,63.48,15.01,63.49,15.01C63.48,15.01,63.48,15.01,63.49,15.01z M68.19,13.8L68.19,13.8
			C68.18,13.8,68.18,13.8,68.19,13.8z"/>
	</g>
</g>
</svg>
