<?xml version="1.0" encoding="utf-8"?>
<!-- Generator: Adobe Illustrator 26.1.0, SVG Export Plug-In . SVG Version: 6.00 Build 0)  -->
<svg version="1.1" id="圖層_1" xmlns="http://www.w3.org/2000/svg" xmlns:xlink="http://www.w3.org/1999/xlink" x="0px" y="0px"
	 viewBox="0 0 148.24 148.24" style="enable-background:new 0 0 148.24 148.24;" xml:space="preserve">
<g>
	<defs>
		<rect id="SVGID_00000120545672310363873000000014240932964406765443_" width="148.24" height="148.24"/>
	</defs>
	<clipPath id="SVGID_00000183944929931201243780000004351090682110515124_">
		<use xlink:href="#SVGID_00000120545672310363873000000014240932964406765443_"  style="overflow:visible;"/>
	</clipPath>
	<g style="clip-path:url(#SVGID_00000183944929931201243780000004351090682110515124_);">
		<path fill="currentColor" d="M38.32,142.16c-0.89,0-1.59-0.28-2.04-0.48c-0.18-0.01-0.37-0.03-0.55-0.05c-0.48,0.15-1.25,0.33-2.16,0.19
			c-0.59-0.09-1.08-0.28-1.4-0.4c-0.04-0.02-0.09-0.03-0.13-0.05c-0.04,0-0.08,0-0.12-0.01c-0.36-0.02-0.91-0.06-1.52-0.23
			c-0.76-0.22-1.32-0.61-1.67-0.86c-0.35-0.08-0.82-0.19-1.34-0.43c-0.12-0.05-0.24-0.1-0.36-0.15c-0.39-0.15-0.77-0.31-1.14-0.51
			c-0.7-0.37-1.16-0.84-1.44-1.13c-0.04-0.02-0.07-0.04-0.11-0.05c-0.3-0.15-0.71-0.36-1.14-0.67c-0.34-0.24-0.64-0.51-0.95-0.78
			c-0.1-0.09-0.2-0.18-0.3-0.26c-0.08-0.07-0.17-0.13-0.27-0.19c-0.22-0.16-0.52-0.37-0.83-0.63l-0.03-0.02
			c-0.35-0.19-0.93-0.5-1.47-1.08c-0.28-0.29-0.54-0.61-0.79-0.93c-0.08-0.1-0.16-0.21-0.24-0.3c-0.38-0.46-0.62-0.93-0.77-1.33
			c-0.38-0.27-0.82-0.66-1.18-1.23l-0.18-0.28c-0.23-0.36-0.46-0.71-0.67-1.08c-0.32-0.57-0.46-1.12-0.53-1.54
			c-0.27-0.32-0.61-0.76-0.85-1.35c-0.16-0.38-0.3-0.79-0.43-1.19l-0.1-0.3c-0.05-0.13-0.1-0.26-0.15-0.39
			c-0.14-0.36-0.28-0.73-0.38-1.1c-0.21-0.75-0.19-1.4-0.18-1.79l0-0.03c-0.07-0.37-0.1-0.69-0.13-0.96
			c-0.01-0.12-0.02-0.23-0.04-0.34c-0.01-0.05-0.04-0.13-0.06-0.21c-0.09-0.32-0.22-0.76-0.29-1.29c-0.06-0.51-0.04-0.95-0.01-1.29
			c-0.18-0.42-0.4-1.03-0.42-1.78c-0.02-0.69,0.12-1.26,0.23-1.65c-0.06-0.35-0.13-0.84-0.1-1.43c0.01-0.13,0.01-0.26,0.01-0.39
			c0-0.34,0-0.76,0.06-1.24c0.02-0.14,0.03-0.28,0.04-0.43c0.04-0.4,0.08-0.79,0.15-1.18c0.12-0.68,0.37-1.22,0.53-1.56
			c0.01-0.37,0.03-0.91,0.2-1.53c0.19-0.67,0.49-1.18,0.74-1.53c0.04-0.36,0.1-0.83,0.29-1.36c0.25-0.72,0.63-1.23,0.88-1.55
			c0.02-0.05,0.03-0.1,0.05-0.16c0.06-0.18,0.11-0.36,0.17-0.54c0-0.43,0.04-1.13,0.35-1.9c0.29-0.72,0.73-1.23,1.04-1.56
			c0.01-0.02,0.01-0.04,0.02-0.06c0.08-0.23,0.15-0.46,0.24-0.68l0.02-0.1c0.06-0.35,0.15-0.88,0.38-1.47
			c0.05-0.13,0.09-0.27,0.13-0.41c0.09-0.3,0.18-0.6,0.3-0.91c0.17-0.45,0.37-0.81,0.52-1.08c0.04-0.07,0.08-0.14,0.12-0.21
			c0.12-0.34,0.29-0.69,0.42-0.95c0.04-0.08,0.08-0.16,0.12-0.24c0.05-0.16,0.1-0.38,0.15-0.61c0.05-0.2,0.1-0.4,0.15-0.6
			c0.06-0.24,0.11-0.48,0.15-0.72l0.1-0.5c0.03-0.17,0.04-0.34,0.05-0.51c0.02-0.22,0.04-0.44,0.06-0.66
			c0.05-0.43,0.15-0.8,0.21-1.07c0.01-0.04,0.02-0.09,0.03-0.13c0-0.13,0.01-0.26,0.01-0.39c0-0.03,0-0.06,0-0.09
			c-0.14-0.23-0.27-0.47-0.37-0.7c-0.03-0.05-0.21-0.28-0.29-0.38c-0.35-0.43-0.57-0.86-0.71-1.21c-0.24-0.17-0.54-0.4-0.84-0.71
			c-0.25-0.25-0.48-0.54-0.71-0.83c-0.06-0.08-0.12-0.16-0.19-0.23c-0.06-0.06-0.15-0.13-0.24-0.2c-0.27-0.22-0.54-0.45-0.79-0.7
			c-0.07-0.07-0.16-0.13-0.25-0.2c-0.28-0.23-0.56-0.46-0.81-0.71c-0.33-0.33-0.58-0.66-0.76-0.89c-0.06-0.07-0.11-0.15-0.17-0.22
			c-0.03-0.03-0.1-0.08-0.17-0.13c-0.24-0.19-0.57-0.44-0.9-0.79c-0.24-0.25-0.46-0.51-0.67-0.77c-0.09-0.11-0.18-0.23-0.28-0.33
			c-0.26-0.28-0.47-0.56-0.62-0.8c-0.48-0.21-1.08-0.56-1.61-1.17c-0.44-0.51-0.69-1.01-0.85-1.34L8.53,73.9
			c-0.2-0.26-0.38-0.53-0.55-0.8c-0.07-0.11-0.14-0.22-0.22-0.32c-0.32-0.43-0.53-0.84-0.69-1.15c-0.04-0.07-0.07-0.14-0.11-0.21
			c-0.06-0.08-0.14-0.19-0.22-0.3c-0.17-0.23-0.34-0.46-0.5-0.69c-0.3-0.28-0.81-0.74-1.21-1.47c-0.19-0.35-0.37-0.73-0.54-1.11
			l-0.15-0.33c-0.06-0.12-0.12-0.23-0.18-0.35C4,66.86,3.8,66.49,3.62,66.05C3.3,65.25,3.3,64.51,3.33,64
			c-0.14-0.3-0.3-0.7-0.42-1.18c-0.11-0.45-0.14-0.86-0.16-1.18c-0.29-0.46-0.64-1.14-0.72-2.03c-0.07-0.81,0.08-1.46,0.17-1.86
			c0-0.05-0.01-0.09-0.01-0.14c-0.03-0.34-0.06-0.81-0.02-1.35c0.01-0.12,0.01-0.24,0.02-0.37c0.01-0.35,0.03-0.8,0.11-1.29
			c0.08-0.5,0.2-0.92,0.3-1.25c0.03-0.11,0.07-0.22,0.09-0.33c0.11-0.45,0.24-0.9,0.38-1.35l0.06-0.21
			c0.14-0.45,0.31-0.84,0.44-1.14c0.05-0.11,0.1-0.23,0.15-0.34c0.2-0.53,0.44-0.93,0.62-1.22c0.03-0.05,0.07-0.11,0.1-0.16
			c0.01-0.04,0.03-0.09,0.04-0.13c0.09-0.33,0.24-0.83,0.53-1.38c0.22-0.42,0.45-0.75,0.64-1.02c0.07-0.1,0.14-0.2,0.21-0.31
			c0.26-0.43,0.54-0.76,0.78-1c0.12-0.45,0.33-1.07,0.8-1.69l0.22-0.29c0.24-0.31,0.47-0.63,0.73-0.93c0.46-0.54,0.97-0.88,1.37-1.1
			c0.19-0.31,0.45-0.7,0.84-1.07c0.38-0.37,0.75-0.63,1.03-0.82c0.02-0.01,0.03-0.02,0.05-0.03c0.22-0.33,0.58-0.84,1.15-1.3
			c0.11-0.09,0.21-0.18,0.31-0.26c0.29-0.26,0.59-0.51,0.9-0.73c0.5-0.36,0.99-0.57,1.31-0.71l0.12-0.05
			c0.04-0.03,0.09-0.08,0.14-0.12c0.26-0.21,0.62-0.5,1.08-0.77c0.46-0.26,0.93-0.5,1.4-0.74c0.48-0.24,0.92-0.37,1.24-0.47
			c0.08-0.03,0.17-0.05,0.25-0.08c0.6-0.26,1.16-0.33,1.6-0.36c0.34-0.23,0.8-0.5,1.38-0.67c0.35-0.1,0.72-0.18,1.09-0.26
			c0.14-0.03,0.27-0.05,0.41-0.09c0.45-0.11,0.84-0.16,1.16-0.2c0.11-0.01,0.22-0.02,0.33-0.04l0.45-0.1c0.33-0.08,0.66-0.15,1-0.21
			c0.6-0.11,1.11-0.09,1.45-0.08l0.1,0c0.06-0.02,0.12-0.04,0.19-0.05c0.28-0.08,0.67-0.19,1.12-0.25c0.31-0.04,0.63-0.07,0.94-0.08
			c0.41-0.24,1-0.54,1.78-0.65c0.53-0.07,1-0.04,1.38,0.02c0.34-0.16,0.78-0.33,1.29-0.41l0.5-0.08c0.27-0.04,0.53-0.08,0.8-0.12
			c0.62-0.11,1.18-0.06,1.59,0c0.19-0.08,0.42-0.17,0.68-0.24l0.02-0.01c0.29-0.16,0.76-0.43,1.38-0.6
			c0.57-0.16,1.07-0.17,1.45-0.18c0.22-0.12,0.51-0.28,0.85-0.41c0.27-0.11,0.56-0.2,0.85-0.29c0.25-0.25,0.6-0.58,1.08-0.85
			c0.35-0.21,0.69-0.34,0.98-0.43c0.19-0.25,0.43-0.53,0.75-0.79c0.54-0.46,1.1-0.7,1.54-0.84c0.1-0.12,0.2-0.24,0.3-0.35
			c0.23-0.27,0.44-0.58,0.65-0.89c0.04-0.06,0.08-0.15,0.12-0.23c0.14-0.27,0.34-0.63,0.62-1.02c0.28-0.39,0.59-0.7,0.83-0.92
			c0.13-0.41,0.35-0.97,0.77-1.51c0.21-0.27,0.44-0.53,0.67-0.78c0.1-0.11,0.2-0.22,0.29-0.33c0.09-0.11,0.17-0.23,0.26-0.35
			c0.2-0.28,0.4-0.56,0.62-0.83c0.37-0.44,0.77-0.75,1.11-0.97c0.17-0.38,0.42-0.84,0.82-1.29c0.44-0.49,0.89-0.79,1.19-1l0.05-0.04
			c0.04-0.05,0.07-0.09,0.11-0.14c0.19-0.25,0.45-0.59,0.8-0.94c0.25-0.25,0.51-0.48,0.78-0.72l0.27-0.25
			c0.03-0.04,0.06-0.08,0.09-0.12c0.21-0.28,0.53-0.69,0.99-1.1c0.59-0.52,1.22-0.77,1.68-0.91c0.22-0.23,0.51-0.53,0.89-0.81
			l0.23-0.17c0.34-0.25,0.68-0.5,1.04-0.74c0.32-0.21,0.66-0.4,1.01-0.59c0.04-0.02,0.09-0.05,0.13-0.07
			c0.29-0.31,0.75-0.8,1.46-1.17c0.48-0.26,0.93-0.41,1.26-0.51c0.09-0.03,0.17-0.05,0.26-0.09c0.12-0.05,0.24-0.12,0.36-0.18
			c0.37-0.18,0.73-0.36,1.11-0.5c0.1-0.04,0.19-0.09,0.29-0.13c0.31-0.15,0.73-0.35,1.24-0.51c0.75-0.23,1.41-0.22,1.79-0.22
			l0.15-0.02c0.45-0.11,0.89-0.21,1.35-0.28c0.53-0.08,1-0.06,1.36-0.03c0.45-0.2,1.09-0.42,1.88-0.42c0.65,0,1.24,0.16,1.64,0.3
			c0.4-0.07,0.95-0.13,1.58-0.04c0.81,0.12,1.42,0.42,1.78,0.61l0.01,0c0.44,0.12,0.8,0.26,1.06,0.37c0.02,0.01,0.03,0.01,0.05,0.02
			c0.38,0.01,0.98,0.04,1.66,0.27c0.36,0.12,0.72,0.26,1.08,0.41l0.26,0.09c0.36,0.06,0.96,0.15,1.62,0.44
			c0.71,0.32,1.21,0.78,1.5,1.07c0.02,0.01,0.05,0.02,0.07,0.03c0.35,0.15,0.7,0.31,1.04,0.5l0.25,0.14
			c0.29,0.16,0.57,0.33,0.86,0.5l0.01,0c0.36,0.11,0.97,0.31,1.59,0.74c0.66,0.46,1.07,1,1.31,1.34l0.06,0.04
			c0.22,0.16,0.44,0.33,0.65,0.5c0.37,0.16,0.96,0.42,1.55,0.94c0.67,0.6,1.01,1.27,1.2,1.71c0.13,0.15,0.26,0.3,0.39,0.45
			c0,0.01,0.01,0.01,0.01,0.02c0.39,0.2,0.98,0.54,1.5,1.14c0.24,0.27,0.46,0.57,0.68,0.86c0.08,0.11,0.17,0.22,0.25,0.33
			c0.26,0.33,0.51,0.66,0.75,0.99l0.16,0.22c-0.01-0.02,0.03,0.02,0.08,0.06c0.24,0.24,0.6,0.6,0.93,1.1
			c0.42,0.64,0.62,1.27,0.74,1.69c0.3,0.29,0.71,0.7,1.07,1.29l0,0c0.07,0.12,0.16,0.23,0.24,0.35c0.16,0.23,0.33,0.46,0.49,0.71
			c0.08,0.13,0.17,0.25,0.26,0.37c0.16,0.22,0.33,0.44,0.48,0.67c0.27,0.41,0.44,0.82,0.55,1.2c0.29,0.21,0.6,0.49,0.87,0.85
			c0.29,0.38,0.49,0.75,0.62,1.07c0.26,0.17,0.57,0.4,0.87,0.71c0.21,0.22,0.43,0.4,0.65,0.58l0.11,0.09
			c0.22,0.18,0.41,0.33,0.64,0.47c0.2,0.12,0.38,0.25,0.56,0.37c0.05,0.03,0.09,0.06,0.14,0.09c0.14,0.05,0.28,0.11,0.42,0.16
			c0.09,0.04,0.18,0.07,0.27,0.1l0.1,0.02c0.34,0.05,0.66,0.1,0.89,0.11c0.2,0,0.4,0,0.6-0.01c0.24-0.01,0.48-0.02,0.72-0.02
			c0.32,0,0.65,0.01,0.97,0.02c0.18,0.01,0.37,0.02,0.55,0.02h0.37c0.45,0,0.91,0,1.36,0.04c0.5,0.04,0.91,0.14,1.22,0.22
			c0.08,0.02,0.17,0.04,0.25,0.06c0.31,0.03,0.63,0.09,0.96,0.14c0.16,0.03,0.32,0.06,0.48,0.08c0.41,0.05,0.81,0.12,1.22,0.18
			l0.24,0.04c0.16,0.02,0.33,0.04,0.49,0.06c0.21,0.03,0.43,0.05,0.64,0.09c0.41-0.06,1.08-0.14,1.86,0.02
			c0.73,0.15,1.3,0.47,1.67,0.7c0.32,0.03,0.74,0.08,1.22,0.21c0.02,0,0.1,0.01,0.18,0.02c0.34,0.04,0.8,0.1,1.32,0.26
			c0.49,0.15,0.98,0.31,1.45,0.47c0.52,0.18,0.93,0.42,1.23,0.61c0.45,0.03,1.07,0.1,1.74,0.4c0.49,0.22,0.98,0.44,1.44,0.68
			c0.47,0.24,0.95,0.5,1.41,0.76c0.67,0.39,1.11,0.87,1.38,1.15l0.01,0.01c0.05,0.03,0.1,0.06,0.16,0.09
			c0.3,0.17,0.69,0.39,1.09,0.7c0.5,0.38,0.85,0.79,1.08,1.06c0.04,0.05,0.09,0.11,0.14,0.16c0.39,0.35,0.7,0.74,0.92,1.02
			c0.05,0.06,0.1,0.13,0.15,0.19l0.17,0.18c0.33,0.34,0.65,0.68,0.95,1.05c0.33,0.4,0.58,0.78,0.8,1.11l0.18,0.27
			c0.03,0.04,0.08,0.09,0.13,0.15c0.23,0.27,0.58,0.67,0.88,1.22l0.16,0.28c0.18,0.31,0.4,0.7,0.61,1.14l0.08,0.13
			c0.21,0.32,0.53,0.81,0.76,1.48c0.23,0.67,0.26,1.29,0.24,1.76c0.21,0.37,0.44,0.89,0.55,1.52c0.08,0.47,0.11,0.9,0.13,1.25
			c0.01,0.13,0.02,0.27,0.03,0.4c0.05,0.48,0.04,0.91,0.04,1.25c0,0.13-0.01,0.26,0,0.39c0.02,0.69-0.1,1.25-0.18,1.61l-0.02,0.1
			l0,0.25c0,0.2,0,0.4-0.01,0.59c0.18,0.49,0.41,1.28,0.29,2.24c-0.07,0.53-0.2,1-0.29,1.34c-0.03,0.11-0.06,0.21-0.09,0.32
			c-0.15,0.72-0.46,1.27-0.73,1.66c-0.02,0.42-0.08,0.96-0.3,1.54c-0.04,0.11-0.08,0.24-0.13,0.36c-0.11,0.33-0.25,0.74-0.45,1.18
			c-0.34,0.73-0.8,1.22-1.11,1.52c-0.13,0.32-0.3,0.75-0.59,1.22c-0.28,0.45-0.58,0.8-0.79,1.05c-0.02,0.02-0.04,0.04-0.06,0.07
			c-0.13,0.36-0.35,0.93-0.78,1.52c-0.09,0.13-0.18,0.26-0.27,0.39c-0.2,0.29-0.4,0.57-0.61,0.84c-0.52,0.66-1.13,1.04-1.55,1.26
			l-0.03,0.04c-0.1,0.12-0.2,0.25-0.3,0.37c-0.15,0.41-0.4,1.05-0.93,1.66c-0.41,0.47-0.85,0.78-1.19,0.99
			c-0.16,0.3-0.38,0.67-0.71,1.05c-0.3,0.35-0.6,0.61-0.82,0.81c-0.07,0.06-0.14,0.12-0.2,0.18c-0.04,0.05-0.09,0.13-0.14,0.21
			c-0.2,0.29-0.4,0.57-0.63,0.84c-0.23,0.26-0.48,0.5-0.73,0.74c-0.12,0.3-0.3,0.73-0.6,1.17c-0.27,0.39-0.56,0.69-0.79,0.9
			c-0.07,0.24-0.15,0.48-0.24,0.71c-0.02,0.07-0.03,0.18-0.06,0.3c-0.03,0.15-0.06,0.31-0.1,0.47c-0.06,0.29-0.15,0.57-0.25,0.85
			c0.01,0.08,0.03,0.16,0.04,0.24l0.04,0.25c0.02,0.14,0.04,0.27,0.05,0.4c0.23,0.25,0.46,0.54,0.65,0.91
			c0.23,0.43,0.36,0.84,0.45,1.15c0.23,0.24,0.52,0.58,0.79,1.02c0.37,0.62,0.53,1.21,0.62,1.56l0.02,0.08
			c0.12,0.25,0.23,0.5,0.34,0.75c0.07,0.16,0.14,0.31,0.21,0.46c0.08,0.16,0.16,0.32,0.24,0.48c0.15,0.29,0.29,0.57,0.42,0.86
			c0.03,0.05,0.07,0.12,0.12,0.19c0.17,0.28,0.41,0.66,0.62,1.14c0.05,0.11,0.11,0.22,0.17,0.32c0.15,0.28,0.34,0.63,0.51,1.05
			c0.06,0.16,0.12,0.3,0.18,0.45c0.14,0.33,0.27,0.66,0.39,0.99c0.18,0.52,0.26,0.98,0.32,1.31c0.01,0.08,0.03,0.17,0.05,0.25
			c0.03,0.08,0.07,0.19,0.12,0.29c0.12,0.31,0.28,0.7,0.4,1.17c0.19,0.72,0.17,1.35,0.15,1.73c0.01,0.02,0.01,0.04,0.02,0.06
			c0.12,0.33,0.27,0.79,0.36,1.35c0.07,0.47,0.09,0.88,0.1,1.22c0,0.13,0.01,0.26,0.02,0.39c0.06,0.55,0.02,1.02,0,1.37
			c-0.01,0.08-0.02,0.17-0.02,0.25c0.01,0.04,0.02,0.13,0.04,0.21c0.06,0.34,0.13,0.81,0.13,1.37c0,0.49-0.08,0.92-0.15,1.25
			c0.16,0.48,0.32,1.14,0.23,1.95c-0.07,0.71-0.31,1.29-0.54,1.71c0.03,0.37,0.03,0.83-0.07,1.35c-0.14,0.74-0.44,1.3-0.63,1.65
			c-0.01,0.04-0.01,0.08-0.02,0.12c-0.05,0.32-0.12,0.72-0.26,1.18c-0.03,0.11-0.05,0.22-0.08,0.33c-0.07,0.32-0.16,0.72-0.32,1.16
			c-0.04,0.11-0.07,0.22-0.1,0.34c-0.09,0.32-0.2,0.71-0.39,1.14c-0.21,0.51-0.47,0.9-0.65,1.19c-0.04,0.07-0.09,0.13-0.12,0.2
			c-0.22,0.45-0.47,0.9-0.72,1.35c-0.18,0.33-0.39,0.63-0.59,0.93c-0.09,0.48-0.28,1.19-0.79,1.9c-0.23,0.32-0.5,0.64-0.76,0.95
			l-0.24,0.29c-0.35,0.43-0.7,0.73-0.96,0.96c-0.06,0.05-0.12,0.1-0.18,0.16c-0.38,0.41-0.79,0.7-1.11,0.9
			c-0.21,0.38-0.54,0.89-1.07,1.34c-0.46,0.4-0.94,0.64-1.31,0.8c-0.25,0.35-0.63,0.78-1.17,1.15c-0.52,0.35-1.03,0.54-1.43,0.65
			c-0.29,0.3-0.7,0.67-1.26,0.96c-0.6,0.32-1.17,0.44-1.61,0.49c-0.3,0.24-0.71,0.52-1.25,0.73c-0.76,0.3-1.46,0.33-1.88,0.34
			c-0.21,0.07-0.42,0.14-0.63,0.2c-0.39,0.31-1,0.74-1.88,0.95c-0.69,0.16-1.29,0.14-1.64,0.13l-0.07,0l-0.25,0.05
			c-0.36,0.07-0.73,0.15-1.1,0.2c-0.57,0.08-1.07,0.05-1.39,0.04c-0.07,0-0.14-0.01-0.21-0.01c-0.06,0.01-0.2,0.03-0.34,0.04
			c-0.32,0.04-0.65,0.08-0.98,0.1l-0.13,0.03c-0.34,0.08-0.87,0.2-1.5,0.21c-0.89-0.01-1.56-0.26-1.98-0.44
			c-0.11-0.01-0.22-0.02-0.33-0.03c-0.53,0.21-1.26,0.42-2.14,0.32c-0.57-0.06-1.04-0.21-1.35-0.31c-0.05-0.02-0.1-0.03-0.15-0.05
			c-0.5-0.08-0.92-0.22-1.21-0.31c-0.07-0.02-0.13-0.05-0.2-0.06c-0.35-0.06-0.66-0.16-0.93-0.26c-0.53,0.11-1.19,0.16-1.93-0.02
			c-0.7-0.17-1.22-0.47-1.54-0.65l-0.04-0.02c-0.35-0.12-0.65-0.26-0.89-0.39c-0.46,0.02-1.08-0.02-1.75-0.26
			c-0.75-0.27-1.28-0.7-1.6-0.97c-0.24-0.1-0.48-0.19-0.71-0.29c-0.41-0.05-1.09-0.14-1.81-0.51c-0.55-0.28-0.95-0.61-1.21-0.83
			l-0.12-0.09c-0.3-0.18-0.58-0.37-0.87-0.57c-0.11-0.08-0.22-0.15-0.33-0.22c-0.33-0.21-0.63-0.45-0.94-0.69
			c-0.1-0.08-0.2-0.16-0.3-0.23c-0.03-0.02-0.11-0.05-0.18-0.09c-0.31-0.16-0.61-0.33-0.89-0.52c0.01,0.01-0.06-0.02-0.13-0.05
			c-0.24-0.11-0.58-0.26-0.94-0.48c-0.17-0.11-0.34-0.22-0.51-0.33c-0.15-0.1-0.3-0.2-0.46-0.29c-0.46-0.25-0.81-0.54-1.06-0.75
			c-0.02,0-0.03-0.01-0.05-0.01c-0.26-0.07-0.51-0.14-0.76-0.22c-0.43-0.15-0.77-0.33-1.02-0.46l-0.06-0.03
			c-0.24-0.05-0.49-0.09-0.75-0.12c-0.17-0.02-0.34-0.04-0.51-0.07c-0.05-0.01-0.1-0.01-0.15-0.02c-0.29,0.11-0.69,0.23-1.17,0.3
			c-0.38,0.05-0.7,0.1-0.96,0.17c-0.26,0.07-0.54,0.11-0.82,0.16c-0.05,0.01-0.09,0.01-0.14,0.02l-0.04,0.03
			c-0.24,0.15-0.57,0.35-0.99,0.53c-0.32,0.14-0.63,0.22-0.9,0.28c-0.29,0.31-0.65,0.63-1.13,0.89c-0.43,0.24-0.85,0.37-1.2,0.45
			c-0.25,0.27-0.58,0.58-1.01,0.84c-0.6,0.37-1.17,0.53-1.51,0.63l-0.94,0.59c-0.38,0.24-0.73,0.41-0.99,0.53
			c-0.08,0.04-0.17,0.08-0.25,0.12l-0.86,0.55c-0.26,0.32-0.66,0.81-1.31,1.21c-0.46,0.29-0.9,0.46-1.25,0.56
			c-0.26,0.3-0.64,0.67-1.15,0.98c-0.48,0.29-0.92,0.45-1.24,0.57c-0.27,0.27-0.67,0.65-1.24,0.96c-0.59,0.33-1.16,0.46-1.59,0.53
			c-0.27,0.23-0.63,0.5-1.09,0.73c-0.71,0.35-1.38,0.44-1.82,0.47c0,0-0.01,0-0.01,0.01c-0.33,0.18-0.67,0.35-1.02,0.5
			c-0.34,0.14-0.69,0.25-1.04,0.36c-0.07,0.02-0.14,0.04-0.2,0.06c-0.31,0.21-0.83,0.57-1.55,0.8c-0.05,0.02-0.13,0.06-0.21,0.1
			c-0.3,0.14-0.71,0.33-1.22,0.47c-0.47,0.13-0.9,0.19-1.21,0.23c-0.04,0.01-0.08,0.01-0.12,0.02c-0.32,0.17-0.85,0.45-1.53,0.6
			c-0.69,0.16-1.31,0.11-1.8,0.02c-0.32,0.14-0.72,0.29-1.2,0.36l-0.41,0.07c-0.37,0.06-0.73,0.12-1.1,0.17
			c-0.5,0.06-1.01,0.12-1.52,0.16c-0.39,0.04-0.79,0.03-1.18,0.02c-0.12,0-0.24-0.01-0.37,0c0,0-0.07,0.02-0.14,0.03
			C39.41,142.06,38.92,142.16,38.32,142.16C38.33,142.16,38.32,142.16,38.32,142.16z M35.22,141.58
			C35.22,141.58,35.22,141.58,35.22,141.58C35.22,141.58,35.22,141.58,35.22,141.58z M110.49,136.06c0,0-0.01,0-0.01,0
			C110.48,136.06,110.48,136.06,110.49,136.06z M20.69,135.31C20.69,135.31,20.69,135.31,20.69,135.31
			C20.69,135.31,20.69,135.31,20.69,135.31z M35.48,134.59c0.14,0,0.29,0.01,0.44,0.02c0.39,0.04,0.78,0.08,1.19,0.1
			c0.64,0.03,1.17,0.2,1.56,0.36c0.25-0.04,0.55-0.09,0.89-0.1c0.29-0.01,0.58-0.01,0.87,0c0.13,0,0.26,0.01,0.39,0
			c0.42-0.04,0.84-0.08,1.26-0.13c0.27-0.03,0.53-0.08,0.8-0.12l0.09-0.01c0.34-0.19,0.88-0.46,1.58-0.6
			c0.65-0.13,1.25-0.08,1.71,0.01c0.25-0.11,0.55-0.23,0.89-0.31c0.35-0.09,0.7-0.14,1.06-0.19c0.09-0.01,0.18-0.02,0.27-0.04
			c0-0.01,0.08-0.05,0.16-0.08c0.23-0.1,0.46-0.2,0.69-0.29l0.01-0.01c0.28-0.19,0.74-0.51,1.36-0.74c0.25-0.09,0.5-0.17,0.75-0.25
			c0.15-0.04,0.29-0.09,0.44-0.14c0.12-0.05,0.23-0.12,0.35-0.18c0.26-0.14,0.51-0.28,0.78-0.4c0.51-0.23,1-0.33,1.39-0.38
			c0.24-0.21,0.56-0.44,0.95-0.65c0.52-0.27,1.02-0.4,1.43-0.47c0.24-0.22,0.54-0.47,0.92-0.69c0.38-0.22,0.75-0.37,1.04-0.47
			c0.26-0.3,0.64-0.7,1.17-1.03c0.44-0.27,0.86-0.43,1.21-0.54c0.25-0.29,0.6-0.64,1.08-0.95l1.17-0.75c0.38-0.24,0.74-0.41,1-0.54
			c0.08-0.04,0.17-0.08,0.25-0.12l1.18-0.74c0.43-0.27,0.85-0.43,1.18-0.54c0.27-0.32,0.67-0.72,1.22-1.04
			c0.45-0.27,0.89-0.42,1.27-0.51c0.31-0.34,0.73-0.71,1.3-1c0.67-0.33,1.3-0.43,1.72-0.48c0.29-0.18,0.71-0.42,1.24-0.6
			c0.54-0.19,1.03-0.27,1.38-0.32c0.08-0.01,0.17-0.02,0.24-0.04c0.53-0.13,1.01-0.21,1.5-0.28l0.04-0.01
			c0.39-0.15,1.05-0.39,1.89-0.41c0.59-0.02,1.09,0.06,1.5,0.12l0.31,0.04c0.61,0.07,1.2,0.17,1.77,0.3
			c0.67,0.16,1.18,0.42,1.52,0.6l0.16,0.08h0c0.01,0,0.09,0.02,0.17,0.04c0.34,0.09,0.81,0.22,1.33,0.45
			c0.69,0.31,1.16,0.73,1.45,0.99l0.04,0.04c0.27,0.15,0.53,0.32,0.79,0.49c0.11,0.08,0.23,0.15,0.35,0.23
			c0.01,0.01,0.08,0.03,0.14,0.06c0.29,0.13,0.73,0.33,1.18,0.64c0.04,0.02,0.11,0.06,0.18,0.09c0.29,0.15,0.68,0.35,1.1,0.66
			c0.16,0.12,0.32,0.24,0.48,0.37c0.14,0.11,0.27,0.22,0.42,0.32c0.17,0.11,0.34,0.23,0.51,0.35c0.15,0.1,0.3,0.21,0.46,0.3
			c0.32,0.19,0.59,0.39,0.8,0.55c0.37,0.05,0.84,0.16,1.36,0.39c0.24,0.11,0.48,0.21,0.72,0.3l0.37,0.15
			c0.38,0.16,0.7,0.35,0.96,0.53c0.38,0,0.84,0.05,1.34,0.21c0.58,0.19,1.02,0.45,1.3,0.62l0.04,0.02c0.2,0.07,0.38,0.14,0.54,0.22
			c0.47-0.08,1.03-0.11,1.65,0.02c0.56,0.12,1.01,0.32,1.3,0.44l0.06,0.03c0.36,0.08,0.66,0.18,0.89,0.25
			c0.05,0.02,0.11,0.04,0.16,0.05c0.24,0.04,0.46,0.09,0.65,0.14c0.47-0.16,1.06-0.29,1.74-0.24c0.19,0.01,0.38,0.03,0.58,0.05
			c0.21,0.02,0.41,0.04,0.61,0.05c0.61,0.02,1.12,0.17,1.5,0.31c0.26-0.05,0.57-0.1,0.92-0.12c0.18-0.01,0.36-0.04,0.54-0.06
			c0.22-0.03,0.44-0.06,0.65-0.08c0.47-0.04,0.87-0.02,1.15-0.01c0.05,0,0.1,0.01,0.16,0.01c0.19-0.03,0.39-0.07,0.58-0.11l0.52-0.1
			c0.34-0.06,0.65-0.08,0.92-0.09c0.34-0.24,0.79-0.49,1.36-0.65c0.38-0.11,0.75-0.23,1.12-0.36c0.46-0.16,0.88-0.22,1.22-0.24
			c0.25-0.19,0.57-0.41,0.97-0.59c0.44-0.2,0.86-0.31,1.21-0.36c0.23-0.22,0.52-0.46,0.88-0.68c0.37-0.22,0.73-0.37,1.04-0.46
			c0.21-0.27,0.5-0.58,0.87-0.86c0.33-0.25,0.66-0.43,0.95-0.56c0.18-0.3,0.43-0.64,0.76-0.96c0.46-0.44,0.93-0.72,1.21-0.88
			c0.16-0.16,0.33-0.31,0.51-0.46c0.06-0.05,0.13-0.11,0.18-0.16l0.25-0.3c0.04-0.05,0.08-0.09,0.12-0.14
			c0.09-0.42,0.26-1.01,0.64-1.6c0.11-0.17,0.23-0.34,0.34-0.51c0.1-0.15,0.21-0.29,0.3-0.45c0.19-0.33,0.38-0.67,0.55-1.02
			c0.15-0.3,0.33-0.59,0.51-0.88c0.04-0.07,0.09-0.13,0.13-0.2c0.01-0.04,0.04-0.16,0.07-0.28c0.07-0.26,0.15-0.51,0.24-0.77
			c0.03-0.11,0.05-0.22,0.08-0.33c0.06-0.27,0.13-0.55,0.21-0.82c0.02-0.1,0.04-0.2,0.06-0.31c0.05-0.28,0.1-0.57,0.17-0.85
			c0.11-0.44,0.26-0.8,0.41-1.09c-0.03-0.33-0.05-0.76,0.02-1.24c0.07-0.48,0.21-0.88,0.36-1.22c-0.08-0.36-0.14-0.79-0.12-1.27
			c0.03-0.56,0.14-1.01,0.22-1.32l0,0c-0.01-0.03-0.01-0.07-0.02-0.1c-0.06-0.35-0.11-0.69-0.12-1.04c-0.02-0.35,0-0.71,0.02-1.07
			c0.01-0.08,0.01-0.16,0.01-0.25c-0.02-0.2-0.04-0.47-0.05-0.74c-0.01-0.14,0-0.28-0.02-0.41c0,0.02-0.03-0.05-0.06-0.13
			c-0.09-0.27-0.22-0.63-0.31-1.07c-0.12-0.6-0.11-1.13-0.1-1.47c-0.02-0.04-0.03-0.08-0.05-0.12c-0.12-0.29-0.23-0.58-0.32-0.88
			c-0.13-0.42-0.19-0.8-0.24-1.07c-0.01-0.08-0.03-0.17-0.05-0.25c-0.05-0.14-0.14-0.35-0.23-0.55c-0.08-0.2-0.17-0.4-0.24-0.6
			c-0.04-0.09-0.1-0.19-0.15-0.3c-0.16-0.29-0.31-0.58-0.44-0.89c-0.01,0-0.05-0.07-0.1-0.14c-0.16-0.25-0.38-0.59-0.57-1.02
			c-0.09-0.19-0.19-0.39-0.29-0.59c-0.1-0.2-0.21-0.41-0.31-0.62c-0.11-0.22-0.21-0.45-0.31-0.68c-0.08-0.18-0.16-0.37-0.25-0.55
			c-0.21-0.41-0.33-0.79-0.41-1.07c-0.22-0.23-0.51-0.55-0.77-0.98c-0.27-0.44-0.43-0.85-0.53-1.2c-0.43-0.39-0.91-0.94-1.21-1.74
			c-0.33-0.89-0.3-1.7-0.28-2.13l0-0.06l-0.01-0.04c-0.08-0.46-0.18-1.09-0.15-1.86c0.03-0.79,0.25-1.43,0.39-1.81l0.1-0.39
			c0.08-0.4,0.18-0.95,0.42-1.56c0.02-0.07,0.04-0.14,0.06-0.21c0.11-0.36,0.27-0.9,0.59-1.48c0.35-0.62,0.77-1.05,1.08-1.33
			c0.14-0.37,0.37-0.88,0.78-1.39c0.33-0.41,0.66-0.72,0.9-0.94c0.06-0.05,0.12-0.1,0.17-0.16c0.03-0.04,0.08-0.13,0.14-0.21
			c0.16-0.24,0.39-0.56,0.68-0.9c0.24-0.27,0.51-0.52,0.78-0.76c0.03-0.02,0.05-0.05,0.08-0.07c0.17-0.32,0.41-0.8,0.85-1.3
			c0.34-0.39,0.7-0.67,1.01-0.87c0.16-0.37,0.39-0.82,0.76-1.25c0.15-0.18,0.3-0.37,0.46-0.56l0.39-0.48
			c0.48-0.58,1.03-0.93,1.43-1.15c0.02-0.03,0.04-0.06,0.06-0.09c0.08-0.12,0.16-0.24,0.25-0.35c0.12-0.32,0.31-0.85,0.69-1.41
			c0.2-0.29,0.42-0.55,0.64-0.81c0.04-0.05,0.08-0.09,0.12-0.14c0.02-0.05,0.04-0.11,0.06-0.16c0.13-0.33,0.27-0.65,0.43-0.95
			c0.31-0.56,0.68-0.96,0.95-1.23c0.02-0.05,0.03-0.1,0.05-0.15c0.02-0.06,0.04-0.12,0.06-0.19c-0.01-0.39,0.01-0.96,0.2-1.61
			c0.21-0.71,0.57-1.24,0.83-1.58c0,0,0-0.01,0-0.01c-0.14-0.44-0.28-1.04-0.22-1.76c0.02-0.25,0.02-0.49,0.02-0.72l0.01-0.48
			c0.01-0.57,0.12-1.04,0.19-1.35l0.01-0.06c0-0.18,0-0.36,0-0.54c0-0.14,0.01-0.28,0-0.42c-0.02-0.22-0.04-0.44-0.05-0.66
			c0-0.04,0-0.09-0.01-0.13c-0.19-0.32-0.44-0.78-0.59-1.37c-0.13-0.53-0.15-1.01-0.14-1.39c-0.13-0.21-0.27-0.45-0.4-0.74
			c-0.09-0.2-0.21-0.39-0.31-0.58l-0.17-0.29c-0.04-0.05-0.08-0.09-0.12-0.14c-0.21-0.25-0.42-0.51-0.61-0.78l-0.22-0.34
			c-0.12-0.19-0.24-0.38-0.38-0.55c-0.17-0.21-0.36-0.4-0.55-0.59l-0.2-0.21c-0.22-0.23-0.42-0.48-0.62-0.74
			c-0.05-0.06-0.1-0.13-0.15-0.19c-0.27-0.24-0.52-0.53-0.7-0.74c-0.03-0.03-0.05-0.06-0.08-0.09c-0.08-0.05-0.15-0.09-0.23-0.13
			c-0.24-0.14-0.48-0.28-0.71-0.43c-0.52-0.34-0.87-0.72-1.11-0.98c-0.27-0.15-0.56-0.3-0.84-0.45c-0.23-0.12-0.47-0.23-0.71-0.34
			c-0.41-0.02-1.03-0.07-1.71-0.33c-0.54-0.21-0.95-0.48-1.22-0.66l-0.06-0.04c-0.32-0.11-0.64-0.21-0.97-0.31
			c-0.06-0.01-0.13-0.02-0.19-0.02c-0.29-0.04-0.69-0.08-1.15-0.21c-0.02,0-0.1,0-0.18-0.01c-0.28-0.03-0.66-0.07-1.09-0.17
			c-0.51-0.12-0.94-0.32-1.27-0.5c-0.36,0.03-0.79,0.03-1.27-0.05c-0.2-0.04-0.41-0.06-0.62-0.09c-0.23-0.03-0.45-0.06-0.68-0.09
			l-0.25-0.04c-0.35-0.05-0.71-0.11-1.06-0.16c-0.25-0.03-0.5-0.08-0.76-0.12c-0.18-0.03-0.37-0.06-0.55-0.08
			c-0.44-0.05-0.82-0.14-1.1-0.21c-0.08-0.02-0.17-0.04-0.25-0.06c-0.19-0.02-0.42-0.01-0.65-0.01l-0.49,0
			c-0.26,0-0.51-0.01-0.77-0.02c-0.21-0.01-0.45-0.03-0.64-0.02c-0.15,0-0.31,0.01-0.46,0.01c-0.39,0.02-0.78,0.03-1.17,0.01
			c-0.64-0.02-1.21-0.11-1.71-0.19L110,37.07c-0.72-0.11-1.29-0.34-1.71-0.5c-0.09-0.04-0.19-0.08-0.28-0.11
			c-0.77-0.27-1.32-0.65-1.69-0.91c-0.07-0.05-0.15-0.11-0.23-0.16c-0.54-0.33-1.02-0.68-1.51-1.1l-0.1-0.08
			c-0.28-0.24-0.6-0.5-0.93-0.83c-0.35-0.2-0.97-0.56-1.51-1.2c-0.32-0.38-0.54-0.77-0.7-1.11c-0.42-0.25-0.9-0.63-1.31-1.2
			c-0.52-0.73-0.7-1.48-0.78-2.02c-0.17-0.23-0.33-0.45-0.47-0.68c-0.09-0.13-0.18-0.26-0.27-0.39c-0.15-0.21-0.3-0.42-0.43-0.63
			c-0.03-0.03-0.06-0.06-0.09-0.08c-0.3-0.29-0.75-0.72-1.13-1.35c-0.36-0.59-0.53-1.15-0.64-1.54c-0.21-0.21-0.46-0.47-0.72-0.83
			L95.3,22.1c-0.18-0.24-0.35-0.49-0.54-0.73c-0.14-0.17-0.27-0.35-0.41-0.54c-0.03-0.04-0.05-0.07-0.08-0.11
			c-0.36-0.19-0.86-0.49-1.32-0.97c-0.19-0.2-0.37-0.41-0.54-0.61c-0.09-0.1-0.17-0.21-0.26-0.3c-0.39-0.38-0.66-0.79-0.85-1.13
			c-0.27-0.14-0.57-0.32-0.88-0.57c-0.2-0.17-0.41-0.32-0.61-0.47l-0.37-0.28c-0.41-0.31-0.71-0.64-0.92-0.92
			c-0.3-0.11-0.66-0.26-1.04-0.5c-0.25-0.16-0.51-0.3-0.77-0.45l-0.27-0.15c-0.12-0.07-0.24-0.11-0.36-0.16
			c-0.25-0.11-0.49-0.22-0.73-0.34c-0.47-0.24-0.82-0.52-1.09-0.76c-0.29-0.05-0.65-0.14-1.03-0.29l-0.48-0.2
			c-0.13-0.05-0.25-0.11-0.38-0.16c-0.32-0.01-0.83-0.03-1.4-0.19c-0.41-0.11-0.76-0.25-1.01-0.36c-0.05-0.02-0.11-0.04-0.16-0.07
			c-0.39-0.09-0.72-0.21-0.99-0.33c-0.32,0.05-0.72,0.08-1.16,0.05c-0.36-0.03-0.69-0.09-0.96-0.17c-0.34,0.12-0.75,0.23-1.22,0.27
			c-0.54,0.04-0.98-0.01-1.28-0.05l-0.02,0c-0.2,0.04-0.39,0.09-0.59,0.13l-0.32,0.08c-0.55,0.13-1.02,0.14-1.36,0.14
			c-0.03,0.01-0.05,0.03-0.08,0.04c-0.27,0.13-0.55,0.26-0.83,0.36c-0.16,0.06-0.32,0.15-0.48,0.23c-0.2,0.1-0.39,0.2-0.59,0.29
			c-0.29,0.13-0.6,0.24-0.91,0.35c-0.25,0.27-0.62,0.63-1.14,0.93c-0.21,0.13-0.43,0.25-0.66,0.37c-0.14,0.07-0.28,0.14-0.42,0.23
			c-0.26,0.18-0.51,0.36-0.77,0.55l-0.17,0.12c-0.04,0.04-0.07,0.08-0.11,0.12c-0.2,0.22-0.48,0.52-0.86,0.83
			c-0.51,0.41-1.03,0.63-1.44,0.77c-0.17,0.21-0.38,0.46-0.65,0.71l-0.42,0.38c-0.18,0.16-0.37,0.33-0.54,0.5
			c-0.05,0.05-0.1,0.13-0.16,0.21c-0.21,0.28-0.43,0.55-0.67,0.8c-0.29,0.31-0.59,0.54-0.84,0.72c-0.16,0.38-0.4,0.87-0.81,1.33
			c-0.47,0.54-0.99,0.87-1.35,1.08c-0.02,0.03-0.04,0.06-0.06,0.09c-0.17,0.24-0.33,0.47-0.51,0.7c-0.18,0.23-0.38,0.45-0.58,0.67
			c-0.02,0.02-0.04,0.04-0.06,0.07c-0.12,0.4-0.33,0.99-0.77,1.57c-0.35,0.47-0.71,0.8-0.96,1.01l-0.05,0.04
			c-0.03,0.05-0.05,0.1-0.08,0.15c-0.17,0.33-0.35,0.64-0.56,0.94c-0.28,0.39-0.62,0.89-1.01,1.35c-0.35,0.42-0.72,0.86-1.14,1.28
			c-0.56,0.56-1.17,0.86-1.65,1.03c-0.25,0.32-0.59,0.7-1.06,1.03c-0.56,0.39-1.12,0.59-1.54,0.71c-0.3,0.29-0.74,0.68-1.34,0.97
			c-0.5,0.25-0.96,0.38-1.3,0.47c-0.08,0.02-0.16,0.04-0.24,0.07c-0.01,0.01-0.08,0.05-0.14,0.08c-0.29,0.17-0.73,0.42-1.29,0.6
			c-0.65,0.22-1.25,0.25-1.66,0.25c-0.31,0.17-0.73,0.37-1.25,0.5c-0.05,0.02-0.09,0.04-0.14,0.06c-0.31,0.13-0.79,0.34-1.38,0.46
			c-0.82,0.17-1.52,0.06-1.96-0.03c-0.18,0.03-0.36,0.05-0.54,0.08c-0.39,0.22-1,0.54-1.8,0.65c-0.51,0.07-0.97,0.04-1.35-0.01
			c-0.37,0.19-0.84,0.37-1.41,0.44c-0.32,0.04-0.65,0.06-0.98,0.08c-0.13,0.01-0.25,0.01-0.38,0.03c-0.08,0.01-0.17,0.04-0.26,0.07
			c-0.34,0.09-0.69,0.18-1.03,0.24c-0.55,0.09-1.03,0.07-1.35,0.06l-0.11,0c-0.17,0.04-0.34,0.08-0.52,0.12
			c-0.2,0.05-0.4,0.09-0.6,0.13c-0.31,0.07-0.62,0.11-0.93,0.14c-0.11,0.01-0.22,0.02-0.33,0.04c-0.23,0.06-0.48,0.11-0.72,0.16
			c-0.05,0.01-0.09,0.02-0.14,0.03c-0.31,0.23-0.76,0.54-1.37,0.75c-0.68,0.24-1.3,0.27-1.69,0.27c-0.14,0.05-0.27,0.09-0.41,0.13
			c-0.09,0.03-0.17,0.05-0.26,0.08c-0.3,0.15-0.66,0.33-1,0.53C20.13,41,20.06,41.05,20,41.11c-0.26,0.21-0.53,0.42-0.81,0.6
			c-0.42,0.27-0.8,0.43-1.08,0.56c-0.03,0.01-0.07,0.03-0.1,0.04c-0.09,0.07-0.17,0.15-0.26,0.23c-0.1,0.09-0.21,0.18-0.31,0.27
			c-0.19,0.29-0.51,0.75-1,1.19c-0.25,0.22-0.53,0.42-0.81,0.62c0,0,0,0,0,0c-0.17,0.29-0.42,0.71-0.8,1.13
			c-0.48,0.51-1,0.82-1.38,1.01c-0.03,0.05-0.07,0.09-0.1,0.14c-0.1,0.42-0.29,1.02-0.7,1.62c-0.29,0.42-0.59,0.73-0.79,0.94
			l-0.07,0.08c-0.11,0.17-0.22,0.34-0.33,0.5c-0.06,0.08-0.12,0.17-0.17,0.25c-0.01,0.04-0.02,0.07-0.03,0.11
			c-0.08,0.28-0.19,0.66-0.38,1.09c-0.14,0.31-0.31,0.6-0.48,0.88c-0.04,0.07-0.08,0.14-0.12,0.21c-0.05,0.13-0.14,0.35-0.24,0.57
			c-0.06,0.13-0.12,0.26-0.17,0.4l-0.07,0.23c-0.09,0.28-0.18,0.57-0.25,0.86c-0.06,0.25-0.13,0.5-0.21,0.75
			c-0.03,0.11-0.07,0.23-0.1,0.34c-0.02,0.15-0.02,0.31-0.03,0.47c-0.01,0.21-0.02,0.42-0.03,0.62c0,0.07,0.01,0.17,0.02,0.27
			c0.02,0.27,0.04,0.54,0.04,0.81c0,0.27-0.02,0.52-0.05,0.75c0.21,0.37,0.4,0.84,0.5,1.41c0.08,0.46,0.08,0.85,0.09,1.13
			c0,0.01,0,0.01,0,0.02c0.01,0.01,0.01,0.03,0.02,0.04c0.11,0.24,0.27,0.58,0.4,0.99c0.21,0.66,0.22,1.26,0.2,1.71
			c0.1,0.2,0.2,0.39,0.3,0.59l0.19,0.42c0.06,0.13,0.12,0.26,0.18,0.38c0.27,0.25,0.67,0.63,1,1.18c0.08,0.14,0.18,0.25,0.27,0.38
			c0.15,0.2,0.31,0.41,0.45,0.62c0.25,0.36,0.42,0.7,0.54,0.94c0.04,0.07,0.07,0.14,0.11,0.21c0.13,0.17,0.29,0.41,0.44,0.65
			c0.08,0.12,0.14,0.24,0.23,0.34c0.21,0.26,0.37,0.51,0.5,0.73c0.43,0.21,0.96,0.52,1.42,1.04c0.37,0.41,0.61,0.81,0.78,1.08
			l0.07,0.12c0.17,0.19,0.33,0.38,0.49,0.58c0.1,0.12,0.19,0.24,0.3,0.35c0.04,0.03,0.11,0.08,0.18,0.14
			c0.23,0.18,0.54,0.42,0.85,0.74c0.32,0.32,0.56,0.64,0.74,0.87c0.05,0.07,0.11,0.15,0.17,0.21c0.05,0.05,0.14,0.11,0.23,0.18
			c0.28,0.22,0.55,0.45,0.8,0.7c0.08,0.08,0.18,0.15,0.27,0.23c0.27,0.22,0.54,0.45,0.79,0.69c0.33,0.33,0.57,0.64,0.75,0.87
			c0.04,0.06,0.09,0.11,0.13,0.17c0.03,0.02,0.06,0.04,0.09,0.06c0.27,0.19,0.68,0.47,1.08,0.89c0.62,0.65,0.92,1.36,1.08,1.78
			c0.37,0.47,0.73,0.99,1.04,1.67l0.05,0.07c0.26,0.43,0.69,1.14,0.85,2.13c0.11,0.66,0.08,1.27,0.06,1.71
			c0,0.11-0.01,0.22-0.01,0.33c-0.01,0.69-0.15,1.26-0.25,1.64c-0.02,0.07-0.04,0.15-0.05,0.22c-0.01,0.09-0.02,0.22-0.03,0.35
			c-0.03,0.37-0.07,0.82-0.17,1.33l-0.07,0.39c-0.08,0.41-0.16,0.82-0.26,1.23c-0.04,0.15-0.07,0.3-0.11,0.45
			c-0.09,0.37-0.18,0.74-0.29,1.1c-0.16,0.52-0.37,0.93-0.52,1.23c-0.04,0.08-0.08,0.16-0.11,0.24c-0.17,0.5-0.4,0.92-0.57,1.22
			c-0.04,0.07-0.08,0.13-0.11,0.2c-0.03,0.09-0.08,0.25-0.12,0.4c-0.09,0.3-0.18,0.59-0.29,0.86c-0.01,0.05-0.02,0.1-0.03,0.15
			c-0.06,0.33-0.14,0.83-0.36,1.38c-0.06,0.15-0.11,0.31-0.16,0.46c-0.1,0.3-0.2,0.59-0.32,0.88c-0.21,0.53-0.5,0.94-0.76,1.25
			c-0.04,0.38-0.12,0.83-0.31,1.32c-0.06,0.14-0.1,0.29-0.14,0.43c-0.09,0.29-0.18,0.58-0.29,0.86c-0.21,0.54-0.48,0.96-0.71,1.27
			c-0.04,0.32-0.09,0.72-0.24,1.17c-0.18,0.55-0.43,0.98-0.64,1.3c-0.01,0.3-0.05,0.69-0.14,1.11c-0.14,0.6-0.36,1.06-0.51,1.37v0
			c-0.02,0.13-0.03,0.27-0.04,0.41c-0.02,0.2-0.04,0.4-0.06,0.6c-0.02,0.14-0.01,0.28-0.01,0.42c0,0.2,0,0.4-0.01,0.6l0.01,0.09
			c0.06,0.31,0.14,0.77,0.13,1.33c-0.01,0.42-0.07,0.79-0.14,1.09c0.14,0.35,0.27,0.8,0.31,1.33c0.04,0.53,0,0.98-0.04,1.27l0,0.03
			c0.01,0.03,0.02,0.06,0.03,0.1c0.1,0.33,0.19,0.66,0.25,0.99c0.05,0.29,0.08,0.56,0.11,0.84c0.01,0.12,0.02,0.24,0.04,0.35
			c0.13,0.59,0.13,1.12,0.12,1.47c0.03,0.09,0.07,0.17,0.1,0.26c0.08,0.21,0.16,0.42,0.23,0.62l0.11,0.34
			c0.05,0.14,0.09,0.27,0.14,0.41c0.27,0.28,0.63,0.71,0.92,1.31c0.29,0.6,0.39,1.15,0.44,1.54c0.02,0.04,0.05,0.08,0.07,0.12
			c0.39,0.24,0.91,0.62,1.36,1.22c0.43,0.58,0.63,1.17,0.75,1.56c0.01,0.01,0.02,0.03,0.03,0.04c0.06,0.08,0.12,0.16,0.18,0.23
			c0.3,0.16,0.74,0.42,1.18,0.83c0.09,0.08,0.19,0.14,0.29,0.21c0.22,0.16,0.44,0.31,0.65,0.48c0.19,0.16,0.37,0.31,0.54,0.47
			c0.11,0.1,0.22,0.21,0.35,0.3c0.06,0.04,0.15,0.08,0.25,0.12c0.26,0.13,0.52,0.27,0.77,0.42c0.5,0.31,0.87,0.67,1.11,0.92
			c0.07,0.03,0.14,0.06,0.22,0.08c0.18,0.07,0.36,0.15,0.54,0.22c0.07,0.02,0.13,0.03,0.2,0.05c0.33,0.08,0.67,0.17,0.98,0.28
			c0.52,0.19,0.93,0.44,1.23,0.66c0.27,0.02,0.6,0.05,0.97,0.13c0.29,0.06,0.54,0.14,0.76,0.22
			C34.63,134.67,35.03,134.59,35.48,134.59z M43.34,134.64c-0.01,0-0.02,0-0.02,0L43.34,134.64z M97.37,134.51
			C97.37,134.52,97.37,134.52,97.37,134.51C97.37,134.52,97.37,134.52,97.37,134.51z M119.39,134.25
			C119.39,134.25,119.39,134.25,119.39,134.25C119.39,134.25,119.39,134.25,119.39,134.25z M49.59,133.1c0,0-0.01,0-0.01,0
			C49.59,133.1,49.59,133.1,49.59,133.1z M89.12,131.13c0.01,0,0.01,0.01,0.02,0.01C89.13,131.13,89.13,131.13,89.12,131.13z
			 M69.51,130.09L69.51,130.09C69.51,130.09,69.51,130.09,69.51,130.09z M104.06,128.86C104.06,128.86,104.06,128.86,104.06,128.86
			C104.06,128.86,104.06,128.86,104.06,128.86z M23.7,128.65C23.7,128.65,23.7,128.65,23.7,128.65
			C23.7,128.65,23.7,128.65,23.7,128.65z M22.26,126.78l0.02,0.03C22.27,126.8,22.26,126.79,22.26,126.78z M80.75,126.19
			C80.76,126.19,80.76,126.19,80.75,126.19C80.76,126.19,80.76,126.19,80.75,126.19z M12.96,121.77
			C12.96,121.77,12.96,121.77,12.96,121.77C12.96,121.77,12.96,121.77,12.96,121.77z M86.85,121.47c0.01,0.01,0.02,0.01,0.04,0.02
			C86.88,121.48,86.86,121.48,86.85,121.47z M19.08,112.99C19.08,112.99,19.08,113,19.08,112.99
			C19.08,113,19.08,112.99,19.08,112.99z M16.93,96.76C16.93,96.76,16.93,96.76,16.93,96.76C16.93,96.76,16.93,96.76,16.93,96.76z
			 M24.59,80.81C24.59,80.81,24.59,80.81,24.59,80.81C24.59,80.81,24.59,80.81,24.59,80.81z M8.63,74.02c0,0,0.01,0.01,0.01,0.01
			C8.63,74.03,8.63,74.02,8.63,74.02z M138.05,73.07c0,0-0.01,0.01-0.01,0.01C138.04,73.08,138.05,73.08,138.05,73.07z M16.76,72.51
			C16.76,72.51,16.77,72.51,16.76,72.51C16.77,72.51,16.76,72.51,16.76,72.51z M11.17,65.6C11.17,65.6,11.17,65.6,11.17,65.6
			C11.17,65.6,11.17,65.6,11.17,65.6z M138.46,60.44c0,0.01,0,0.01-0.01,0.02C138.45,60.45,138.45,60.45,138.46,60.44z
			 M139.19,58.27C139.19,58.27,139.19,58.28,139.19,58.27C139.19,58.28,139.19,58.27,139.19,58.27z M139.35,53.51
			C139.35,53.51,139.35,53.52,139.35,53.51C139.35,53.52,139.35,53.51,139.35,53.51z M11.84,49.39c0,0.01-0.01,0.01-0.01,0.02
			C11.84,49.4,11.84,49.4,11.84,49.39z M13.02,47.29L13,47.32C13.01,47.31,13.01,47.3,13.02,47.29z M137.64,47.09
			c0.01,0.01,0.01,0.02,0.02,0.03L137.64,47.09z M144.55,45.17C144.55,45.18,144.55,45.18,144.55,45.17
			C144.55,45.18,144.55,45.18,144.55,45.17z M22.31,40.05c-0.01,0-0.02,0.01-0.02,0.01C22.29,40.06,22.3,40.06,22.31,40.05z
			 M122.53,31.25C122.53,31.25,122.53,31.25,122.53,31.25C122.53,31.25,122.53,31.25,122.53,31.25z M111.07,30.15l0.01,0
			C111.08,30.15,111.08,30.15,111.07,30.15z M39.07,29.68c0,0-0.01,0-0.01,0C39.06,29.68,39.07,29.68,39.07,29.68z M98.13,26.21
			L98.13,26.21L98.13,26.21z M97.97,25.99L97.97,25.99C97.97,25.99,97.97,25.99,97.97,25.99C97.97,25.99,97.97,25.99,97.97,25.99z
			 M96.12,22.89L96.12,22.89L96.12,22.89z M65.78,15.49l-0.01,0.01C65.78,15.49,65.78,15.49,65.78,15.49z M91.2,9.05
			c0,0,0.01,0,0.01,0.01C91.2,9.05,91.2,9.05,91.2,9.05z M81.29,5.02c0,0,0.01,0,0.01,0C81.29,5.02,81.29,5.02,81.29,5.02z"/>
	</g>
</g>
</svg>
