<?xml version="1.0" encoding="utf-8"?>
<!-- Generator: Adobe Illustrator 26.1.0, SVG Export Plug-In . SVG Version: 6.00 Build 0)  -->
<svg version="1.1" id="圖層_1" xmlns="http://www.w3.org/2000/svg" xmlns:xlink="http://www.w3.org/1999/xlink" x="0px" y="0px"
	 viewBox="0 0 148.24 148.24" style="enable-background:new 0 0 148.24 148.24;" xml:space="preserve">
<g>
	<defs>
		<rect id="SVGID_00000120522364432637842440000018358379133569528215_" width="148.24" height="148.24"/>
	</defs>
	<clipPath id="SVGID_00000149349497859061591700000009155250071970057147_">
		<use xlink:href="#SVGID_00000120522364432637842440000018358379133569528215_"  style="overflow:visible;"/>
	</clipPath>
	<g style="clip-path:url(#SVGID_00000149349497859061591700000009155250071970057147_);">
		<path fill="currentColor" d="M78.2,140.5c-0.74,0-1.35-0.19-1.74-0.33c-0.01,0-0.03,0-0.04,0c-0.38,0.02-0.76,0.04-1.14,0.02
			c-0.36-0.02-0.72-0.06-1.08-0.11c-0.08-0.01-0.15-0.02-0.23-0.03l-0.01,0c-0.37,0.06-0.98,0.15-1.7,0.06c-0.07-0.01-0.16,0-0.25,0
			c-0.32,0-0.77-0.01-1.27-0.09c-0.49-0.08-0.91-0.21-1.22-0.31c-0.04-0.01-0.08-0.03-0.13-0.04h-0.01
			c-0.35,0.01-0.96,0.03-1.65-0.14c-0.7-0.17-1.24-0.49-1.63-0.79c-0.36-0.02-0.79-0.08-1.25-0.23l-0.35-0.11
			c-0.37-0.12-0.73-0.23-1.09-0.37c-0.48-0.18-0.95-0.36-1.42-0.56c-0.36-0.15-0.7-0.33-1.04-0.51c-0.11-0.06-0.22-0.12-0.33-0.17h0
			c-0.01,0-0.08-0.02-0.14-0.04c-0.32-0.09-0.79-0.23-1.3-0.49c-0.78-0.4-1.28-0.95-1.57-1.31c-0.15-0.09-0.3-0.18-0.45-0.27
			c-0.49-0.07-1.22-0.22-1.96-0.72c-0.49-0.32-0.85-0.67-1.09-0.91c-0.03-0.03-0.06-0.07-0.1-0.1c-0.04-0.02-0.08-0.04-0.12-0.06
			c-0.31-0.16-0.77-0.39-1.24-0.78c-0.61-0.5-0.98-1.06-1.2-1.42c0,0,0,0,0,0c-0.28-0.2-0.67-0.48-1.06-0.89
			c-0.09-0.1-0.19-0.19-0.29-0.28c-0.3-0.29-0.59-0.58-0.85-0.89c-0.51-0.6-0.76-1.2-0.91-1.57c-0.03-0.03-0.06-0.07-0.09-0.1
			c-0.22-0.25-0.52-0.59-0.8-1.03c-0.21-0.32-0.39-0.67-0.58-1.03c-0.06-0.12-0.12-0.24-0.19-0.35c-0.06-0.1-0.13-0.2-0.19-0.3
			c-0.15-0.22-0.33-0.49-0.51-0.82l-0.03-0.03c-0.25-0.28-0.67-0.76-0.99-1.44c-0.14-0.31-0.27-0.62-0.39-0.95
			c-0.06-0.15-0.11-0.3-0.18-0.44c-0.21-0.49-0.3-0.95-0.35-1.34c-0.28-0.32-0.59-0.76-0.81-1.32c-0.07-0.17-0.14-0.33-0.21-0.5
			c-0.11-0.27-0.23-0.53-0.33-0.81c-0.19-0.48-0.26-0.92-0.3-1.29c-0.19-0.22-0.39-0.49-0.57-0.82c-0.18-0.34-0.33-0.59-0.47-0.78
			c-0.1-0.14-0.23-0.26-0.34-0.38L40.7,113c-0.39-0.43-0.64-0.86-0.79-1.14c-0.09-0.09-0.18-0.18-0.27-0.26
			c-0.08-0.09-0.17-0.18-0.26-0.26c0,0-0.07-0.03-0.15-0.07c-0.29-0.15-0.57-0.3-0.84-0.48c-0.28-0.18-0.52-0.38-0.71-0.54
			c-0.39-0.06-0.89-0.18-1.41-0.45c-0.48-0.24-0.84-0.53-1.1-0.76c-0.29-0.06-0.67-0.15-1.08-0.32c-0.12-0.05-0.25-0.08-0.37-0.11
			c-0.28-0.08-0.55-0.16-0.82-0.26c-0.17-0.06-0.35-0.11-0.52-0.16c-0.23-0.07-0.46-0.14-0.7-0.22c-0.51-0.17-0.92-0.41-1.2-0.58
			c-0.32-0.02-0.76-0.07-1.25-0.21c-0.57-0.16-1.02-0.41-1.34-0.62c-0.32-0.01-0.72-0.05-1.17-0.17c-0.69-0.18-1.2-0.47-1.53-0.68
			c-0.03,0-0.05-0.01-0.08-0.02c-0.24-0.05-0.48-0.1-0.71-0.15c-0.45,0.02-1.19,0.03-2.01-0.27c-0.79-0.29-1.34-0.75-1.68-1.08
			c-0.31-0.12-0.62-0.24-0.92-0.38l-0.11-0.03c-0.36-0.09-0.9-0.23-1.49-0.56c-0.12-0.06-0.24-0.12-0.35-0.18
			c-0.35-0.17-0.7-0.34-1.03-0.54c-0.49-0.3-0.87-0.64-1.11-0.87c-0.05-0.05-0.11-0.1-0.16-0.15c-0.4-0.28-0.74-0.6-0.98-0.84
			c-0.06-0.05-0.11-0.11-0.17-0.16l-0.3-0.22c-0.31-0.22-0.61-0.45-0.9-0.7l-0.31-0.26c-0.3-0.24-0.59-0.49-0.87-0.75
			c-0.09-0.08-0.19-0.17-0.29-0.25c-0.3-0.25-0.59-0.51-0.86-0.79c-0.42-0.44-0.7-0.88-0.88-1.17c-0.03-0.05-0.07-0.11-0.1-0.16
			c-0.25-0.28-0.48-0.62-0.66-0.9c-0.03-0.05-0.06-0.09-0.09-0.14l-0.01,0c-0.29-0.23-0.78-0.62-1.21-1.24L7.67,93.6
			c-0.23-0.32-0.45-0.64-0.66-0.97c-0.4-0.63-0.55-1.26-0.64-1.7c-0.21-0.27-0.48-0.63-0.71-1.11c-0.22-0.46-0.36-0.88-0.45-1.19
			c-0.03-0.09-0.05-0.18-0.09-0.27c-0.04-0.1-0.09-0.2-0.14-0.29c-0.14-0.28-0.34-0.66-0.51-1.12c-0.03-0.08-0.08-0.18-0.12-0.28
			c-0.13-0.29-0.31-0.69-0.46-1.17c-0.15-0.5-0.21-0.95-0.26-1.28c-0.01-0.09-0.02-0.18-0.04-0.26c-0.02-0.06-0.05-0.14-0.08-0.22
			C3.42,83.43,3.26,83,3.16,82.48c-0.07-0.39-0.11-0.78-0.14-1.17C3.01,81.18,3,81.05,2.99,80.92c-0.05-0.42-0.05-0.8-0.03-1.11
			c-0.25-0.47-0.52-1.15-0.54-1.99c-0.01-0.68,0.11-1.23,0.2-1.6l0.02-0.11c0.02-0.34,0.06-0.69,0.1-1.04
			c0.02-0.13,0.04-0.26,0.05-0.38c0.04-0.55,0.15-1,0.23-1.33c0.02-0.08,0.04-0.16,0.06-0.24C3.09,73,3.1,72.86,3.11,72.72
			c0.02-0.3,0.05-0.59,0.09-0.88l0-0.01c-0.04-0.4-0.11-1.07,0.06-1.85c0.09-0.38,0.19-0.76,0.3-1.13l0.11-0.4
			c0.04-0.14,0.07-0.28,0.1-0.41c0.08-0.38,0.18-0.76,0.3-1.13c0.26-0.79,0.69-1.34,1.03-1.71c0.08-0.31,0.18-0.7,0.37-1.13
			c0.17-0.39,0.37-0.72,0.54-0.98c0.03-0.52,0.13-1.24,0.53-1.98c0.36-0.66,0.81-1.1,1.08-1.37l0.01-0.01
			c0.03-0.05,0.05-0.1,0.08-0.15c0.15-0.29,0.33-0.66,0.59-1.06c0.08-0.12,0.15-0.25,0.23-0.37c0.19-0.32,0.39-0.64,0.6-0.94
			c0.22-0.31,0.48-0.61,0.74-0.89c0.09-0.09,0.17-0.19,0.25-0.29c0.23-0.29,0.47-0.57,0.71-0.85l0.27-0.32
			c0.24-0.28,0.49-0.54,0.75-0.8c0.1-0.1,0.2-0.2,0.3-0.31c0.34-0.38,0.68-0.66,0.92-0.86c0.07-0.06,0.14-0.11,0.21-0.17
			c-0.02,0,0.02-0.05,0.06-0.1c0.19-0.27,0.47-0.67,0.87-1.07c0.26-0.25,0.54-0.49,0.82-0.72c0.11-0.09,0.22-0.17,0.32-0.27
			c0.36-0.33,0.71-0.57,0.98-0.74c0.22-0.39,0.56-0.93,1.13-1.4l0.36-0.31c0.25-0.22,0.51-0.44,0.77-0.65
			c0.53-0.42,1.07-0.65,1.49-0.79c0.23-0.27,0.54-0.6,0.95-0.9c0.4-0.29,0.77-0.49,1.04-0.63c0.03-0.02,0.06-0.03,0.09-0.05
			c0.24-0.29,0.63-0.74,1.21-1.13c0.14-0.09,0.27-0.2,0.41-0.3c0.27-0.21,0.55-0.41,0.84-0.6c0.44-0.29,0.86-0.47,1.16-0.6
			c0.05-0.02,0.1-0.04,0.15-0.07c0.07-0.05,0.13-0.12,0.2-0.18c0.25-0.23,0.5-0.45,0.77-0.65c0.32-0.24,0.63-0.48,0.94-0.74
			c0.21-0.19,0.43-0.36,0.66-0.52c0.08-0.06,0.16-0.12,0.24-0.18c0.23-0.25,0.47-0.46,0.7-0.62c0.06-0.24,0.15-0.5,0.27-0.78
			l0.1-0.23c0.09-0.21,0.2-0.46,0.23-0.57c0.06-0.23,0.14-0.47,0.22-0.71c0.04-0.12,0.09-0.24,0.11-0.37
			c0.03-0.17,0.06-0.35,0.08-0.53c0.04-0.27,0.08-0.54,0.13-0.81c0.11-0.6,0.31-1.08,0.44-1.39l0.05-0.12
			c0.01-0.07,0.02-0.14,0.02-0.22c0.03-0.3,0.08-0.72,0.2-1.19c0.09-0.35,0.2-0.68,0.32-1.01c-0.05-0.48-0.08-1.18,0.17-1.97
			c0.18-0.57,0.45-1.02,0.7-1.35c0.02-0.42,0.09-0.94,0.31-1.5c0.14-0.37,0.3-0.74,0.46-1.11l0.12-0.29
			c0.29-0.68,0.71-1.17,1.02-1.48c0.08-0.27,0.19-0.62,0.37-1l0.02-0.07c0.09-0.35,0.24-0.94,0.59-1.56
			c0.37-0.65,0.82-1.08,1.14-1.36c0.14-0.31,0.33-0.73,0.63-1.17c0.29-0.43,0.6-0.76,0.82-1c0.01-0.01,0.02-0.02,0.03-0.03
			c0.15-0.39,0.39-0.98,0.87-1.57c0.4-0.49,0.84-0.82,1.18-1.04c0.19-0.37,0.47-0.84,0.92-1.3c0.66-0.66,1.4-0.96,1.89-1.12
			c0.25-0.23,0.51-0.45,0.78-0.66l0.19-0.15c0.35-0.28,0.7-0.56,1.07-0.82c0.08-0.06,0.14-0.12,0.21-0.18
			c0.25-0.22,0.6-0.52,1.05-0.8c0.49-0.3,0.94-0.47,1.28-0.59c0.31-0.32,0.8-0.76,1.5-1.08c0.36-0.17,0.75-0.3,1.14-0.43
			c0.13-0.04,0.25-0.08,0.38-0.13c0.13-0.05,0.25-0.1,0.37-0.15c0.38-0.16,0.76-0.32,1.15-0.44c0.61-0.19,1.16-0.21,1.59-0.2
			c0.38-0.22,0.91-0.46,1.56-0.57c0.68-0.11,1.24-0.07,1.62-0.04l0.09,0.01c0.06-0.01,0.11-0.03,0.17-0.04
			c0.3-0.07,0.72-0.16,1.21-0.19c0.33-0.03,0.67-0.04,1.02-0.05l0.5-0.04c0.33-0.07,0.83-0.19,1.44-0.19c0.02,0,0.04,0,0.05,0
			c0.74,0,1.34,0.19,1.77,0.37c0.3-0.04,0.7-0.07,1.14-0.05l0.36,0.02c0.38,0.02,0.75,0.04,1.13,0.07c0.37,0.04,0.73,0.1,1.08,0.16
			c0.05,0.01,0.09,0.02,0.14,0.03c0.41-0.07,1.04-0.15,1.81-0.02c0.51,0.09,0.93,0.23,1.25,0.34c0.08,0.03,0.16,0.06,0.24,0.08
			c0.11,0.02,0.25,0.05,0.39,0.07c0.37,0.07,0.74,0.14,1.1,0.23c0.1,0.02,0.19,0.04,0.29,0.06c0.32,0.06,0.75,0.13,1.23,0.29
			c0.72,0.24,1.24,0.6,1.56,0.82l0.16,0.07c0.39,0.15,0.77,0.3,1.14,0.47c0.48,0.22,0.86,0.49,1.13,0.71
			c0.48,0.08,1.13,0.24,1.8,0.67c0.53,0.34,0.9,0.74,1.16,1.05c0.36,0.14,0.81,0.34,1.27,0.7c0.6,0.46,0.96,0.96,1.18,1.27
			c0.27,0.24,0.48,0.46,0.65,0.64c0.01,0.01,0.01,0.01,0.02,0.02c0.31,0.14,0.78,0.35,1.26,0.72c0.18,0.14,0.35,0.28,0.53,0.42
			c0.1,0.08,0.2,0.16,0.3,0.24l0.01,0c0.31,0.12,0.77,0.3,1.27,0.63c0.51,0.34,0.87,0.73,1.11,1.02c0.03,0.01,0.06,0.03,0.1,0.04
			c0.21,0.09,0.42,0.18,0.62,0.28c0.21,0.1,0.42,0.19,0.62,0.27c0.3,0.01,0.76,0.03,1.27,0.16c0.5,0.12,0.89,0.31,1.19,0.46
			c0,0,0,0,0.01,0c0.28-0.13,0.68-0.29,1.16-0.4c0.82-0.18,1.53-0.08,1.97,0.01c0.16-0.02,0.32-0.04,0.49-0.07
			c0.03,0,0.06-0.01,0.09-0.01c0.36-0.21,0.94-0.52,1.68-0.66c0.32-0.06,0.63-0.1,0.95-0.14c0.16-0.02,0.33-0.04,0.49-0.07
			c0.33-0.06,0.65-0.1,0.98-0.15l0.41-0.06c0.06-0.02,0.11-0.04,0.17-0.05c0.31-0.1,0.77-0.25,1.33-0.32
			c0.66-0.08,1.22-0.01,1.62,0.06c0.34-0.11,0.79-0.24,1.35-0.29c0.36-0.03,0.72-0.03,1.08-0.03c0.14,0,0.29,0,0.43,0
			c0.06-0.01,0.14-0.02,0.23-0.04c0.32-0.06,0.76-0.13,1.29-0.14l0.39-0.01c0.38-0.01,0.77-0.02,1.15-0.01
			c0.61,0.01,1.11,0.13,1.46,0.22c0.38-0.07,0.97-0.16,1.66-0.08c0.78,0.09,1.41,0.38,1.83,0.64c0.34,0,0.78,0.02,1.27,0.13
			c0.5,0.11,0.92,0.27,1.23,0.39c0.47-0.02,1.2-0.02,2,0.27c0.5,0.18,0.91,0.41,1.21,0.58c0.1,0.05,0.2,0.11,0.3,0.16
			c0.57,0.26,1,0.61,1.31,0.91c0.48,0.09,1.08,0.28,1.69,0.69c0.55,0.38,0.94,0.79,1.2,1.07l0.11,0.12c0.37,0.29,0.8,0.65,1.23,1.05
			c0.09,0.08,0.18,0.16,0.28,0.24c0.28,0.24,0.62,0.53,0.97,0.92c0.59,0.65,0.86,1.35,1.01,1.78c0.01,0.01,0.02,0.03,0.04,0.04
			c0.23,0.28,0.51,0.63,0.78,1.06c0.04,0.06,0.09,0.12,0.14,0.18c0.23,0.29,0.53,0.68,0.81,1.2c0.27,0.52,0.4,1.01,0.48,1.38
			c0.33,0.36,0.73,0.9,0.98,1.65c0.24,0.72,0.25,1.37,0.23,1.83c0.16,0.34,0.36,0.81,0.47,1.4c0.1,0.53,0.17,1.07,0.24,1.6
			c0.07,0.59,0.03,1.11,0.01,1.45c0,0.05-0.01,0.11-0.01,0.16c0.01,0.06,0.02,0.11,0.03,0.17c0.07,0.33,0.17,0.82,0.17,1.41
			c0.01,0.68-0.13,1.25-0.24,1.62c0.06,0.36,0.13,0.88,0.08,1.51c-0.04,0.52-0.1,1.03-0.17,1.55l-0.05,0.4
			c-0.04,0.37-0.09,0.75-0.15,1.12c-0.06,0.36-0.15,0.71-0.23,1.06c-0.04,0.14-0.07,0.29-0.1,0.44c-0.1,0.46-0.22,0.84-0.33,1.14
			c-0.01,0.04-0.03,0.09-0.05,0.13c0.01,0.39,0.02,1.01-0.19,1.73c-0.21,0.75-0.57,1.31-0.81,1.66c-0.01,0.04-0.01,0.08-0.02,0.13
			c-0.05,0.28-0.11,0.62-0.21,1c0,0.04,0,0.08,0,0.12c-0.02,0.34-0.04,0.85-0.19,1.43c-0.15,0.56-0.36,0.99-0.5,1.28l-0.02,0.03
			c0,0.09,0,0.18-0.01,0.27c-0.01,0.16-0.01,0.33-0.02,0.49c-0.01,0.19-0.04,0.37-0.07,0.54c0.15,0.29,0.28,0.64,0.37,1.03
			c0.07,0.34,0.1,0.65,0.11,0.91c0.13,0.19,0.27,0.42,0.41,0.69c0.23,0.45,0.35,0.87,0.44,1.15c0.13,0.21,0.26,0.42,0.42,0.6
			c0.16,0.2,0.35,0.38,0.53,0.57l0.17,0.17c0.05,0.04,0.1,0.07,0.15,0.11c0.22,0.16,0.52,0.38,0.83,0.67
			c0.06,0.05,0.15,0.11,0.23,0.17c0.26,0.19,0.52,0.39,0.77,0.6c0.13,0.12,0.27,0.23,0.41,0.34c0.21,0.17,0.41,0.33,0.61,0.51
			c0.37,0.33,0.65,0.65,0.85,0.9c0.05,0.06,0.1,0.12,0.15,0.17c0.03,0.03,0.12,0.08,0.2,0.15c0.24,0.18,0.58,0.43,0.92,0.76
			c0.53,0.51,0.83,1.05,1.02,1.4c0.01,0.01,0.02,0.02,0.03,0.03c0.26,0.23,0.65,0.57,1.02,1.04c0.31,0.4,0.53,0.78,0.71,1.08
			c0.06,0.1,0.12,0.2,0.18,0.3c0.32,0.48,0.51,0.93,0.64,1.26c0.03,0.07,0.06,0.14,0.09,0.21c0.02,0.03,0.07,0.09,0.11,0.15
			c0.2,0.28,0.48,0.67,0.72,1.19c0.21,0.46,0.33,0.87,0.4,1.21c0.33,0.37,0.75,0.92,1,1.68c0.22,0.69,0.23,1.32,0.19,1.8
			c0.17,0.33,0.35,0.76,0.46,1.29c0.15,0.74,0.09,1.37,0.05,1.76c0.01,0.05,0.02,0.1,0.03,0.14c0.07,0.32,0.16,0.71,0.2,1.18
			c0.01,0.12,0.03,0.23,0.05,0.34c0.05,0.32,0.12,0.71,0.14,1.18c0.01,0.12,0.02,0.24,0.04,0.36c0.04,0.39,0.08,0.78,0.08,1.17
			c0,0.53-0.07,0.98-0.13,1.3c-0.01,0.08-0.03,0.16-0.04,0.24c-0.02,0.48-0.07,0.98-0.11,1.47c-0.04,0.39-0.09,0.74-0.15,1.1
			c0.11,0.46,0.24,1.17,0.09,2c-0.07,0.36-0.15,0.72-0.24,1.08l-0.1,0.41c-0.12,0.52-0.29,0.94-0.41,1.24
			c-0.03,0.08-0.07,0.16-0.09,0.24c-0.14,0.53-0.37,0.96-0.55,1.28c-0.01,0.43-0.06,1.01-0.29,1.65c-0.21,0.57-0.5,1-0.74,1.31
			c-0.05,0.42-0.16,0.97-0.44,1.55c-0.27,0.56-0.63,0.98-0.91,1.28c-0.1,0.4-0.26,0.93-0.6,1.46c-0.36,0.58-0.8,0.98-1.15,1.25
			c-0.14,0.36-0.36,0.82-0.73,1.28c-0.52,0.65-1.12,1.03-1.47,1.25c-0.18,0.19-0.35,0.38-0.53,0.57c-0.2,0.45-0.55,1.14-1.24,1.74
			c-0.55,0.47-1.1,0.73-1.43,0.89l-0.23,0.15c-0.35,0.27-0.71,0.53-1.08,0.76c-0.52,0.33-1,0.51-1.32,0.63
			c-0.07,0.03-0.14,0.05-0.2,0.08l-0.28,0.16c-0.35,0.2-0.7,0.39-1.07,0.55l-0.13,0.08c-0.31,0.2-0.79,0.5-1.43,0.72
			c-0.88,0.3-1.65,0.24-2.12,0.2c-0.2,0.04-0.4,0.08-0.6,0.11c-0.5,0.33-1.21,0.71-2.15,0.79c-0.62,0.05-1.15-0.02-1.51-0.06
			c-0.07-0.01-0.14-0.02-0.2-0.02c-0.46,0.04-0.94-0.07-1.27-0.13c-0.07-0.01-0.14-0.03-0.21-0.03c-0.33-0.01-0.63-0.06-0.89-0.11
			c-0.45,0.18-1.04,0.36-1.69,0.34c-0.61,0-1.11-0.12-1.42-0.19h0c-0.12,0-0.23,0-0.33-0.01c-0.25,0.17-0.57,0.34-0.93,0.48
			c-0.33,0.12-0.64,0.2-0.9,0.24c-0.12,0.27-0.29,0.6-0.52,0.93c-0.2,0.28-0.42,0.54-0.65,0.79c-0.03,0.04-0.07,0.07-0.1,0.11
			l-0.13,0.24c-0.12,0.21-0.24,0.42-0.34,0.63c-0.08,0.18-0.17,0.36-0.25,0.54c-0.09,0.19-0.18,0.38-0.26,0.58
			c-0.02,0.07-0.04,0.17-0.06,0.26c-0.08,0.36-0.17,0.72-0.29,1.07c-0.01,0.05-0.03,0.14-0.04,0.22c-0.06,0.31-0.15,0.74-0.32,1.21
			c-0.13,0.35-0.28,0.7-0.43,1.05c-0.06,0.14-0.12,0.28-0.18,0.42c-0.29,0.69-0.68,1.19-0.92,1.49l-0.06,0.07
			c-0.03,0.06-0.05,0.13-0.08,0.19c-0.15,0.35-0.35,0.82-0.67,1.32c-0.39,0.6-0.83,1.01-1.12,1.28c-0.05,0.05-0.11,0.1-0.16,0.15
			c-0.3,0.35-0.61,0.72-0.93,1.08c-0.25,0.27-0.51,0.52-0.77,0.77c-0.05,0.04-0.09,0.08-0.14,0.13c-0.18,0.33-0.48,0.86-0.99,1.37
			c-0.24,0.24-0.5,0.48-0.76,0.71l-0.32,0.29c-0.36,0.34-0.71,0.58-0.96,0.76c-0.08,0.05-0.16,0.1-0.23,0.16c0,0,0,0,0,0
			c0.01,0-0.03,0.05-0.08,0.1c-0.21,0.25-0.53,0.62-0.96,0.98c-0.39,0.32-0.79,0.53-1.12,0.68c-0.26,0.39-0.63,0.86-1.2,1.26
			c-0.5,0.35-1,0.54-1.4,0.65c-0.27,0.31-0.65,0.67-1.17,0.97c-0.65,0.38-1.26,0.53-1.63,0.61l-0.02,0.01
			c-0.39,0.2-0.78,0.39-1.17,0.57c-0.46,0.22-0.88,0.34-1.19,0.43c-0.09,0.03-0.18,0.05-0.26,0.08c-0.37,0.15-0.75,0.3-1.13,0.44
			c-0.32,0.25-0.89,0.65-1.67,0.89c-0.58,0.17-1.1,0.21-1.49,0.21c-0.36,0.21-0.88,0.46-1.53,0.58c-0.6,0.12-1.12,0.1-1.48,0.09
			c-0.35,0.14-0.9,0.35-1.58,0.41c-0.69,0.07-1.28-0.04-1.71-0.15c-0.35,0.1-0.81,0.2-1.34,0.21C78.27,140.5,78.23,140.5,78.2,140.5
			z M76.8,140.15C76.8,140.15,76.8,140.15,76.8,140.15C76.8,140.15,76.8,140.15,76.8,140.15z M57.99,135.18c0,0,0.01,0.01,0.01,0.01
			C58,135.18,58,135.18,57.99,135.18z M76.79,133.15c0.03,0,0.07,0,0.1,0c0.55,0.01,1.03,0.12,1.39,0.23
			c0.3-0.08,0.68-0.16,1.11-0.19c0.57-0.03,1.06,0.04,1.44,0.14c0.29-0.1,0.65-0.21,1.06-0.26c0.38-0.05,0.73-0.06,1-0.05
			c0.32-0.19,0.76-0.4,1.3-0.53c0.43-0.11,0.82-0.14,1.14-0.14c0.29-0.19,0.66-0.41,1.12-0.57c0.38-0.13,0.75-0.27,1.12-0.42
			c0.3-0.12,0.61-0.22,0.92-0.32c0.09-0.03,0.17-0.05,0.26-0.08c0.33-0.15,0.69-0.33,1.04-0.52c0.37-0.19,0.72-0.32,1.01-0.4
			c0.25-0.28,0.59-0.62,1.04-0.91c0.35-0.23,0.7-0.38,1.01-0.48c0.23-0.32,0.53-0.68,0.95-0.99c0.47-0.36,0.94-0.56,1.29-0.7
			c0.18-0.21,0.42-0.48,0.73-0.75c0.25-0.22,0.53-0.42,0.8-0.61c0.08-0.05,0.16-0.1,0.23-0.16l0.35-0.33
			c0.12-0.11,0.24-0.22,0.36-0.33c0.17-0.3,0.44-0.78,0.88-1.25c0.2-0.21,0.4-0.4,0.61-0.59c0.1-0.09,0.21-0.18,0.3-0.29
			c0.28-0.31,0.56-0.63,0.83-0.96c0.22-0.26,0.46-0.5,0.71-0.73c0.02-0.02,0.03-0.03,0.05-0.05c0.02-0.06,0.05-0.12,0.08-0.18
			c0.1-0.24,0.2-0.47,0.32-0.7c0.26-0.51,0.56-0.89,0.76-1.15l0.03-0.04c0.05-0.12,0.1-0.23,0.15-0.35
			c0.09-0.21,0.18-0.41,0.26-0.62c0.01-0.05,0.03-0.14,0.04-0.22c0.06-0.29,0.14-0.7,0.3-1.14c0.03-0.09,0.04-0.18,0.07-0.28
			c0.07-0.31,0.16-0.73,0.34-1.2c0.14-0.37,0.31-0.74,0.48-1.11c0.06-0.13,0.12-0.26,0.18-0.38c0.21-0.49,0.45-0.9,0.65-1.26
			l0.16-0.29c0.33-0.6,0.72-1.03,0.98-1.31c0.01-0.01,0.02-0.02,0.03-0.03c0.17-0.43,0.47-1.15,1.13-1.8
			c0.56-0.55,1.09-0.99,1.63-1.33c0.69-0.45,1.37-0.61,1.86-0.69c0.42-0.31,1.06-0.71,1.92-0.88c0.77-0.15,1.43-0.07,1.82-0.03
			l0.12,0.01c0.43-0.01,0.8,0.03,1.11,0.08c0.49-0.2,1.12-0.37,1.86-0.35c0.6,0.02,1.08,0.15,1.41,0.23l0.09,0.02
			c0.38,0.02,0.7,0.08,0.94,0.12c0.06,0.01,0.12,0.02,0.18,0.03c0.2,0,0.39,0.01,0.56,0.03c0.38-0.22,0.88-0.45,1.51-0.55l0.32-0.05
			c0.24-0.04,0.48-0.07,0.72-0.13c0.53-0.13,1.01-0.15,1.38-0.13c0.2-0.12,0.44-0.25,0.72-0.37c0.17-0.07,0.34-0.17,0.51-0.27
			c0.15-0.08,0.3-0.17,0.45-0.25c0.3-0.16,0.62-0.29,0.95-0.42c0.05-0.02,0.1-0.04,0.15-0.06c0.17-0.12,0.34-0.25,0.52-0.38
			l0.3-0.23c0.25-0.19,0.5-0.34,0.72-0.45c0.19-0.35,0.45-0.77,0.85-1.16c0.27-0.26,0.52-0.54,0.78-0.82
			c0.31-0.35,0.64-0.61,0.92-0.79c0.12-0.29,0.29-0.64,0.54-0.99c0.28-0.39,0.58-0.7,0.86-0.92c0.09-0.31,0.22-0.67,0.42-1.05
			c0.22-0.39,0.47-0.71,0.69-0.95c0.05-0.35,0.15-0.76,0.34-1.21c0.17-0.41,0.39-0.74,0.58-1c0.02-0.36,0.07-0.79,0.22-1.26
			c0.2-0.62,0.49-1.08,0.66-1.36l0.01-0.01c0.08-0.24,0.17-0.47,0.26-0.7c0.03-0.08,0.07-0.16,0.09-0.24
			c0.02-0.11,0.07-0.29,0.11-0.47c0.01-0.06,0.03-0.12,0.04-0.18c-0.1-0.42-0.2-1.03-0.1-1.75c0.03-0.22,0.07-0.44,0.11-0.67
			c0.03-0.18,0.06-0.36,0.08-0.54c0.04-0.41,0.07-0.81,0.09-1.2c0.02-0.34,0.06-0.68,0.12-1.03c0.01-0.08,0.03-0.16,0.04-0.24
			c0-0.06-0.02-0.19-0.04-0.31c-0.03-0.27-0.06-0.55-0.07-0.82c-0.01-0.12-0.03-0.23-0.05-0.35c-0.05-0.28-0.09-0.56-0.12-0.84
			c-0.01-0.11-0.04-0.22-0.07-0.33c-0.06-0.28-0.12-0.55-0.16-0.83c-0.07-0.44-0.06-0.84-0.04-1.16c-0.15-0.29-0.33-0.67-0.45-1.12
			c-0.11-0.42-0.14-0.82-0.14-1.16c-0.21-0.28-0.41-0.62-0.57-1.03c-0.18-0.47-0.27-0.89-0.33-1.18c-0.01-0.01-0.02-0.03-0.03-0.04
			c-0.19-0.27-0.38-0.54-0.54-0.82c-0.16-0.29-0.3-0.6-0.43-0.9c-0.03-0.06-0.05-0.12-0.08-0.18c-0.12-0.19-0.23-0.37-0.34-0.56
			c-0.05-0.09-0.1-0.18-0.16-0.27c-0.04-0.03-0.08-0.07-0.12-0.1c-0.26-0.22-0.51-0.45-0.73-0.7c-0.38-0.41-0.62-0.83-0.78-1.12
			c-0.02-0.01-0.04-0.03-0.05-0.04c-0.25-0.19-0.5-0.38-0.73-0.59c-0.34-0.31-0.6-0.61-0.79-0.83c-0.05-0.06-0.1-0.12-0.15-0.17
			c-0.08-0.07-0.22-0.18-0.35-0.28c-0.22-0.18-0.45-0.36-0.66-0.55c-0.08-0.07-0.16-0.12-0.24-0.18c-0.24-0.17-0.56-0.41-0.9-0.72
			c-0.03-0.02-0.09-0.06-0.15-0.1c-0.28-0.2-0.66-0.48-1.05-0.88l-0.19-0.2c-0.32-0.33-0.63-0.65-0.91-1
			c-0.36-0.43-0.63-0.85-0.87-1.22l-0.12-0.19c-0.42-0.63-0.61-1.26-0.72-1.63l0,0c-0.22-0.3-0.58-0.79-0.83-1.48
			c-0.21-0.56-0.27-1.09-0.29-1.49c-0.3-0.48-0.62-1.15-0.68-2c-0.06-0.88,0.15-1.6,0.27-2l0-0.1c0.01-0.38,0.03-0.84,0.12-1.38
			c0.13-0.74,0.4-1.31,0.58-1.68c0-0.01,0.01-0.01,0.01-0.02l0-0.01c0.02-0.39,0.05-0.99,0.26-1.67c0.02-0.08,0.04-0.19,0.05-0.3
			c0.05-0.31,0.13-0.74,0.27-1.21c0.17-0.56,0.43-1.01,0.63-1.33c0-0.34,0.03-0.78,0.15-1.27c0.08-0.3,0.17-0.6,0.27-0.9
			c0.04-0.11,0.08-0.21,0.1-0.33c0.05-0.23,0.11-0.46,0.16-0.7c0.04-0.18,0.09-0.35,0.12-0.53c0.04-0.25,0.07-0.5,0.1-0.75
			l0.06-0.49c0.05-0.36,0.09-0.71,0.12-1.07l-0.01-0.08c-0.05-0.31-0.12-0.78-0.1-1.34c0.02-0.56,0.14-1.03,0.23-1.36
			c-0.05-0.27-0.13-0.64-0.15-1.07c-0.03-0.46,0-0.85,0.02-1.14c0-0.05,0.01-0.11,0.01-0.16c-0.04-0.29-0.07-0.57-0.12-0.85
			l-0.01-0.01c-0.14-0.29-0.36-0.73-0.51-1.3c-0.1-0.39-0.14-0.75-0.14-1.07c-0.22-0.28-0.44-0.62-0.62-1.05
			c-0.2-0.47-0.29-0.9-0.35-1.21c-0.2-0.25-0.39-0.51-0.56-0.78c-0.09-0.14-0.19-0.26-0.29-0.38c-0.13-0.16-0.25-0.31-0.38-0.48
			c-0.36-0.48-0.57-0.95-0.7-1.31c-0.01-0.01-0.03-0.02-0.04-0.04c-0.18-0.15-0.35-0.3-0.52-0.46c-0.27-0.25-0.56-0.49-0.86-0.72
			c-0.23-0.19-0.43-0.37-0.59-0.54c-0.39-0.08-0.88-0.22-1.38-0.5c-0.61-0.34-1.02-0.75-1.29-1.04c-0.08-0.04-0.16-0.08-0.24-0.13
			c-0.39,0.01-0.95-0.01-1.55-0.19c-0.27-0.08-0.54-0.18-0.81-0.28c-0.05-0.02-0.1-0.04-0.16-0.06c-0.32,0.01-0.79,0.03-1.34-0.07
			c-0.58-0.1-1.06-0.3-1.43-0.5c-0.28,0.03-0.6,0.05-0.96,0.03c-0.55-0.04-1-0.15-1.29-0.22l-0.1-0.03c-0.22,0-0.44,0-0.66,0.01
			l-0.46,0.01c-0.03,0.01-0.12,0.02-0.2,0.04c-0.36,0.06-0.72,0.12-1.08,0.13C105.78,23,105.52,23,105.25,23c-0.1,0-0.21,0-0.31,0
			l-0.02,0.01c-0.33,0.11-0.82,0.28-1.44,0.35c-0.62,0.07-1.16-0.01-1.54-0.08c-0.28,0.09-0.65,0.2-1.08,0.27l-0.55,0.08
			c-0.26,0.04-0.52,0.07-0.78,0.12c-0.27,0.05-0.54,0.08-0.82,0.11c-0.05,0.01-0.11,0.01-0.16,0.02c-0.36,0.21-0.9,0.5-1.62,0.64
			c-0.31,0.06-0.62,0.1-0.93,0.14c-0.14,0.02-0.28,0.03-0.42,0.06c-0.64,0.14-1.22,0.1-1.65,0.04c-0.4,0.16-0.95,0.34-1.61,0.38
			c-0.5,0.03-1.18,0.05-1.91-0.02c-0.8-0.08-1.43-0.37-1.83-0.58c-0.42-0.02-1.02-0.07-1.68-0.32c-0.49-0.19-1.02-0.4-1.57-0.67
			c-0.1-0.05-0.21-0.1-0.32-0.14c-0.32-0.14-0.71-0.31-1.13-0.56c-0.59-0.35-1-0.78-1.27-1.1c-0.33-0.13-0.77-0.33-1.22-0.66
			c-0.26-0.19-0.51-0.39-0.76-0.59c-0.07-0.06-0.14-0.12-0.22-0.18l-0.02-0.01c-0.32-0.14-0.84-0.37-1.38-0.79
			c-0.39-0.3-0.67-0.61-0.88-0.83c-0.05-0.05-0.1-0.11-0.15-0.16c-0.36-0.28-0.64-0.6-0.85-0.87c-0.32-0.12-0.72-0.31-1.13-0.6
			c-0.32-0.23-0.58-0.48-0.78-0.7c-0.35-0.08-0.77-0.21-1.19-0.44c-0.48-0.26-0.82-0.55-1.06-0.73l-0.04-0.03
			c-0.17-0.07-0.35-0.14-0.52-0.2l-0.39-0.15c-0.53-0.21-0.93-0.47-1.21-0.67c-0.02,0-0.05-0.01-0.08-0.01
			c-0.31-0.05-0.62-0.11-0.92-0.19c-0.16-0.04-0.33-0.07-0.49-0.1c-0.23-0.04-0.46-0.08-0.69-0.13c-0.32-0.07-0.64-0.17-0.95-0.28
			c-0.37,0.05-0.89,0.11-1.49,0.03c-0.25-0.03-0.51-0.08-0.77-0.13c-0.15-0.03-0.3-0.06-0.45-0.08c-0.28-0.03-0.56-0.04-0.84-0.05
			l-0.3-0.02c-0.05,0-0.1,0.01-0.15,0.02c-0.3,0.04-0.7,0.1-1.19,0.08c-0.64-0.01-1.18-0.17-1.58-0.32
			c-0.26,0.05-0.58,0.1-0.93,0.12l-0.57,0.02c-0.23,0.01-0.46,0.01-0.69,0.03c-0.06,0.01-0.15,0.03-0.24,0.05
			c-0.33,0.07-0.67,0.14-1,0.17c-0.36,0.04-0.69,0.03-0.96,0.02c-0.33,0.19-0.77,0.4-1.3,0.53c-0.62,0.15-1.16,0.14-1.56,0.11
			c-0.04,0.02-0.07,0.03-0.11,0.05c-0.21,0.09-0.42,0.18-0.63,0.26c-0.21,0.08-0.42,0.15-0.64,0.22c-0.03,0.01-0.07,0.02-0.1,0.03
			c-0.28,0.28-0.68,0.66-1.25,0.96c-0.46,0.24-0.88,0.38-1.16,0.48l-0.02,0.01c-0.03,0.03-0.06,0.05-0.09,0.08
			c-0.24,0.21-0.49,0.41-0.75,0.6c-0.25,0.18-0.49,0.37-0.73,0.57l-0.2,0.16c-0.25,0.2-0.48,0.41-0.72,0.63l-0.17,0.15
			c-0.41,0.37-0.84,0.61-1.22,0.77c-0.15,0.25-0.34,0.53-0.59,0.81c-0.33,0.36-0.67,0.62-0.95,0.81c-0.13,0.31-0.32,0.69-0.61,1.08
			c-0.2,0.27-0.43,0.53-0.67,0.78c-0.04,0.05-0.09,0.09-0.13,0.14c-0.02,0.05-0.04,0.09-0.06,0.14c-0.12,0.26-0.28,0.62-0.52,1
			c-0.29,0.46-0.61,0.8-0.88,1.05c-0.08,0.28-0.19,0.62-0.37,0.99c-0.01,0.05-0.03,0.09-0.04,0.14c-0.08,0.28-0.2,0.71-0.42,1.18
			c-0.32,0.67-0.75,1.14-1.04,1.43c-0.05,0.11-0.1,0.23-0.15,0.34c0,0.42-0.02,1.05-0.26,1.74c-0.15,0.44-0.36,0.8-0.56,1.09
			c0.01,0.39-0.02,0.85-0.17,1.36c-0.08,0.28-0.18,0.56-0.28,0.84c-0.05,0.13-0.1,0.25-0.13,0.38c-0.02,0.08-0.02,0.18-0.03,0.28
			c-0.04,0.33-0.08,0.66-0.15,0.99c-0.11,0.53-0.29,0.96-0.41,1.24l-0.04,0.11c-0.02,0.13-0.04,0.26-0.06,0.39
			c-0.04,0.29-0.08,0.57-0.14,0.85c-0.09,0.5-0.23,0.92-0.34,1.25c-0.04,0.11-0.08,0.22-0.11,0.34c-0.17,0.63-0.4,1.16-0.59,1.58
			l-0.03,0.11c-0.09,0.48-0.25,1.28-0.79,2.09c-0.57,0.85-1.3,1.31-1.7,1.56l-0.02,0.01c-0.36,0.36-0.71,0.62-0.98,0.82
			c-0.08,0.06-0.17,0.12-0.25,0.19c-0.44,0.38-0.88,0.73-1.36,1.08c-0.09,0.07-0.16,0.14-0.25,0.22c-0.25,0.23-0.59,0.53-1.02,0.83
			c-0.47,0.32-0.92,0.51-1.24,0.66c-0.07,0.03-0.14,0.06-0.21,0.09c-0.08,0.06-0.23,0.17-0.37,0.28c-0.17,0.12-0.33,0.25-0.5,0.37
			l-0.01,0.01c-0.23,0.27-0.61,0.72-1.17,1.12c-0.29,0.21-0.62,0.39-0.94,0.56c-0.03,0.01-0.05,0.03-0.08,0.04
			c-0.22,0.27-0.56,0.69-1.06,1.07c-0.59,0.45-1.2,0.67-1.61,0.8c-0.07,0.06-0.14,0.12-0.21,0.18c-0.03,0.03-0.07,0.06-0.1,0.09
			c-0.2,0.38-0.54,0.95-1.12,1.47c-0.39,0.35-0.78,0.59-1.04,0.75c-0.04,0.03-0.08,0.05-0.12,0.08c-0.19,0.17-0.38,0.33-0.58,0.49
			c-0.09,0.08-0.19,0.15-0.28,0.23c-0.03,0.04-0.06,0.09-0.09,0.13c-0.17,0.25-0.41,0.6-0.76,0.95c-0.25,0.26-0.52,0.49-0.8,0.72
			c-0.07,0.06-0.14,0.11-0.2,0.17c-0.15,0.17-0.35,0.37-0.54,0.56c-0.11,0.11-0.23,0.22-0.33,0.34l-0.31,0.37
			c-0.17,0.2-0.35,0.4-0.51,0.61c-0.18,0.23-0.38,0.46-0.58,0.68c-0.09,0.1-0.18,0.19-0.26,0.29c-0.1,0.14-0.18,0.28-0.27,0.43
			c-0.13,0.22-0.27,0.44-0.41,0.66c-0.06,0.09-0.1,0.2-0.15,0.3c-0.14,0.28-0.28,0.55-0.44,0.82c-0.18,0.3-0.37,0.55-0.55,0.75
			c-0.04,0.45-0.15,0.99-0.43,1.56c-0.21,0.43-0.45,0.77-0.62,1.01c-0.02,0.02-0.03,0.04-0.05,0.06c-0.01,0.03-0.02,0.07-0.02,0.1
			c-0.07,0.27-0.15,0.65-0.32,1.07c-0.26,0.67-0.64,1.17-0.95,1.5c-0.05,0.24-0.11,0.49-0.18,0.73l-0.14,0.5
			c-0.04,0.13-0.08,0.27-0.12,0.4c0.04,0.36,0.08,0.91-0.03,1.56c-0.03,0.17-0.04,0.33-0.05,0.49c-0.02,0.25-0.04,0.49-0.07,0.74
			c-0.04,0.35-0.12,0.7-0.2,1.04c-0.02,0.08-0.04,0.16-0.06,0.25c-0.01,0.2-0.05,0.46-0.08,0.73c-0.02,0.15-0.04,0.29-0.05,0.44
			c-0.01,0.31-0.04,0.59-0.08,0.83c0.2,0.41,0.39,0.95,0.44,1.59c0.04,0.5,0,0.93-0.03,1.22l-0.01,0.11
			c0.02,0.19,0.04,0.38,0.05,0.56c0.01,0.15,0.02,0.31,0.05,0.46c0.01,0.02,0.04,0.1,0.07,0.18c0.11,0.31,0.22,0.62,0.29,0.94
			s0.13,0.64,0.17,0.96c0.01,0.09,0.02,0.17,0.04,0.26c0.02,0.04,0.07,0.13,0.11,0.23c0.12,0.26,0.24,0.53,0.33,0.8
			c0.04,0.11,0.1,0.2,0.15,0.3c0.13,0.25,0.26,0.51,0.37,0.78c0.12,0.29,0.22,0.58,0.31,0.88c0.02,0.05,0.03,0.1,0.05,0.15
			l0.03,0.04c0.18,0.23,0.45,0.57,0.7,1.01c0.33,0.59,0.46,1.16,0.53,1.56c0.05,0.08,0.11,0.15,0.16,0.22l0.12,0.17
			c0.25,0.2,0.67,0.54,1.06,1.03c0.18,0.23,0.34,0.46,0.49,0.7c0.06,0.09,0.12,0.19,0.19,0.28c0.32,0.37,0.53,0.71,0.69,0.96
			c0.02,0.03,0.04,0.07,0.06,0.1c0.08,0.07,0.17,0.14,0.25,0.21c0.2,0.17,0.39,0.33,0.58,0.51c0.16,0.15,0.33,0.28,0.49,0.42
			c0.14,0.12,0.28,0.23,0.42,0.35c0.16,0.13,0.33,0.25,0.49,0.38c0.15,0.11,0.3,0.22,0.46,0.34c0.28,0.21,0.54,0.45,0.79,0.7
			c0.06,0.05,0.11,0.11,0.17,0.16c0.3,0.2,0.59,0.46,0.79,0.66c0.04,0.04,0.08,0.07,0.12,0.11c0.1,0.06,0.21,0.11,0.32,0.16
			c0.17,0.08,0.34,0.17,0.51,0.25l0.07,0.02c0.3,0.08,0.76,0.2,1.26,0.44c0.15,0.07,0.32,0.13,0.48,0.19
			c0.21,0.08,0.42,0.16,0.63,0.25c0.44,0.18,0.79,0.42,1.07,0.64c0.33,0.02,0.73,0.07,1.15,0.19c0.15,0.04,0.29,0.07,0.43,0.09
			c0.24,0.05,0.49,0.1,0.73,0.16c0.6,0.15,1.06,0.39,1.4,0.59c0.34,0.01,0.79,0.05,1.3,0.19c0.63,0.17,1.11,0.45,1.45,0.67
			c0.34,0.03,0.78,0.08,1.28,0.24c0.66,0.2,1.16,0.52,1.46,0.71l0.02,0.01c0.09,0.03,0.17,0.05,0.26,0.08
			c0.32,0.09,0.64,0.19,0.96,0.31c0.11,0.04,0.23,0.07,0.35,0.11c0.31,0.09,0.63,0.19,0.93,0.3l0.12,0.02
			c0.35,0.07,0.88,0.17,1.47,0.44c0.51,0.23,0.9,0.52,1.19,0.76c0.44,0.07,1.01,0.21,1.6,0.55c0.56,0.32,0.96,0.69,1.22,0.93
			l0.09,0.08c0.05,0.03,0.11,0.06,0.17,0.09c0.31,0.16,0.73,0.38,1.17,0.72c0.42,0.32,0.75,0.66,0.99,0.9
			c0.08,0.08,0.15,0.16,0.24,0.23c0.61,0.55,0.95,1.15,1.14,1.51l0.08,0.09c0.27,0.28,0.6,0.64,0.93,1.09
			c0.31,0.43,0.55,0.83,0.79,1.26c0.32,0.32,0.86,0.89,1.2,1.77c0.27,0.71,0.32,1.33,0.33,1.75c0.04,0.08,0.07,0.17,0.11,0.25
			c0.02,0.06,0.05,0.11,0.07,0.17c0.33,0.33,0.81,0.84,1.12,1.61c0.3,0.73,0.35,1.39,0.36,1.82c0.04,0.09,0.07,0.18,0.1,0.27
			c0.04,0.09,0.07,0.18,0.1,0.27c0.22,0.25,0.58,0.67,0.88,1.24c0.06,0.11,0.14,0.21,0.21,0.32c0.16,0.24,0.31,0.47,0.45,0.72
			c0.12,0.21,0.24,0.43,0.35,0.65c0.07,0.14,0.13,0.28,0.22,0.4c0.06,0.08,0.13,0.15,0.2,0.23c0.19,0.22,0.38,0.44,0.55,0.68
			c0.36,0.48,0.56,0.95,0.69,1.26c0.06,0.06,0.12,0.12,0.18,0.17c0.14,0.14,0.29,0.28,0.42,0.42c0.05,0.04,0.11,0.08,0.17,0.12
			c0.28,0.2,0.56,0.41,0.82,0.65c0.42,0.38,0.7,0.78,0.89,1.09c0.25,0.13,0.56,0.3,0.89,0.54c0.26,0.19,0.48,0.38,0.66,0.55
			c0.44,0.08,1,0.24,1.58,0.6c0.39,0.24,0.72,0.44,1.06,0.63c0.56,0.31,0.97,0.71,1.25,1.03c0.25,0.08,0.54,0.17,0.85,0.32
			c0.26,0.12,0.52,0.26,0.78,0.4c0.11,0.06,0.22,0.13,0.34,0.18c0.39,0.16,0.78,0.31,1.17,0.46c0.25,0.09,0.52,0.18,0.79,0.26
			l0.04,0.01c0.38-0.01,0.97-0.01,1.64,0.18c0.62,0.18,1.12,0.47,1.48,0.75c0.26,0.01,0.56,0.04,0.89,0.1
			c0.33,0.07,0.66,0.16,0.99,0.27c0.09,0.03,0.17,0.06,0.26,0.08c0.01,0,0.1-0.01,0.19-0.01c0.26,0,0.51,0.01,0.77,0.03l0.02,0
			c0.33-0.05,0.88-0.14,1.52-0.08c0.26,0.02,0.52,0.06,0.78,0.09c0.16,0.02,0.31,0.05,0.47,0.06c0.13,0,0.26-0.01,0.4-0.01
			C76.28,133.17,76.53,133.15,76.79,133.15z M73.12,133.16C73.12,133.16,73.12,133.16,73.12,133.16
			C73.12,133.16,73.12,133.16,73.12,133.16z M66.97,131.83l0.02,0.01C66.98,131.84,66.98,131.83,66.97,131.83z M55.39,124.93
			C55.39,124.93,55.39,124.93,55.39,124.93C55.39,124.93,55.39,124.93,55.39,124.93z M97.75,124.59
			C97.75,124.59,97.75,124.6,97.75,124.59C97.75,124.6,97.75,124.59,97.75,124.59z M50.81,117.79c0,0,0,0.01,0,0.01
			C50.81,117.8,50.81,117.8,50.81,117.79z M110.91,115.35l-0.02,0.03C110.89,115.38,110.9,115.36,110.91,115.35z M112.33,113.38
			C112.33,113.38,112.33,113.38,112.33,113.38C112.33,113.38,112.33,113.38,112.33,113.38z M40.16,112.1
			C40.16,112.1,40.17,112.1,40.16,112.1C40.17,112.1,40.16,112.1,40.16,112.1z M127.84,111.26c0,0-0.01,0-0.01,0
			C127.83,111.27,127.84,111.27,127.84,111.26z M134.42,106.62C134.42,106.62,134.42,106.62,134.42,106.62
			C134.42,106.62,134.42,106.62,134.42,106.62z M114.14,105.92c0,0-0.01,0-0.01,0C114.13,105.92,114.14,105.92,114.14,105.92z
			 M135.51,105.47C135.5,105.47,135.5,105.47,135.51,105.47C135.5,105.47,135.5,105.47,135.51,105.47z M19.66,103.77
			C19.66,103.77,19.66,103.77,19.66,103.77C19.66,103.77,19.66,103.77,19.66,103.77z M135.43,91.52c0,0.01,0,0.01,0,0.02
			C135.43,91.53,135.43,91.53,135.43,91.52z M13.62,89.89l0.02,0.03C13.63,89.91,13.63,89.9,13.62,89.89z M12.95,88.93
			C12.96,88.93,12.96,88.93,12.95,88.93C12.96,88.93,12.96,88.93,12.95,88.93z M9.93,80.02c0,0,0,0.01,0,0.01
			C9.93,80.03,9.93,80.03,9.93,80.02z M133.28,73.22c0,0.01,0.01,0.01,0.01,0.02C133.29,73.23,133.29,73.23,133.28,73.22z
			 M10.72,69.07C10.72,69.07,10.72,69.07,10.72,69.07C10.72,69.07,10.72,69.07,10.72,69.07z M131.09,61.2l0.01,0.02
			C131.1,61.21,131.1,61.21,131.09,61.2z M129.79,59.59l0.02,0.02C129.8,59.6,129.8,59.59,129.79,59.59z M20.12,55.67
			C20.12,55.67,20.12,55.67,20.12,55.67C20.12,55.67,20.12,55.67,20.12,55.67z M125.28,53.98l3.45,0.6c0,0,0,0,0,0L125.28,53.98z
			 M21.97,53.76c0,0-0.01,0.01-0.01,0.01C21.97,53.76,21.97,53.76,21.97,53.76z M129.37,52.04
			C129.37,52.04,129.37,52.04,129.37,52.04C129.37,52.04,129.37,52.04,129.37,52.04z M124.73,36.06
			C124.73,36.07,124.73,36.07,124.73,36.06C124.73,36.07,124.73,36.07,124.73,36.06z M39.3,29.24C39.3,29.24,39.3,29.24,39.3,29.24
			C39.3,29.24,39.3,29.24,39.3,29.24z M39.8,28.07L39.8,28.07C39.79,28.08,39.79,28.07,39.8,28.07z M108.6,22.8c0,0,0.01,0,0.01,0
			C108.6,22.8,108.6,22.8,108.6,22.8z M34.84,22.64c0,0.01-0.01,0.01-0.01,0.02C34.83,22.65,34.83,22.65,34.84,22.64z M91.93,18.14
			C91.92,18.14,91.92,18.14,91.93,18.14C91.92,18.14,91.92,18.14,91.93,18.14z M94.16,17.85c0,0-0.01,0-0.01,0
			C94.15,17.86,94.16,17.86,94.16,17.85z M63.73,13.16c0,0,0.01,0,0.01,0L63.73,13.16z M67.1,6.49C67.1,6.49,67.1,6.49,67.1,6.49
			C67.1,6.49,67.1,6.49,67.1,6.49z"/>
	</g>
</g>
</svg>
