<?xml version="1.0" encoding="utf-8"?>
<!-- Generator: Adobe Illustrator 28.1.0, SVG Export Plug-In . SVG Version: 6.00 Build 0)  -->
<svg version="1.1" id="圖層_1" xmlns="http://www.w3.org/2000/svg" xmlns:xlink="http://www.w3.org/1999/xlink" x="0px" y="0px"
	 viewBox="0 0 68.19 68.05" style="enable-background:new 0 0 68.19 68.05;" xml:space="preserve">
<style type="text/css">
	.st0{fill:none;}
	.st1{fill:#7FB77B;}
	.st2{fill:#FFF9EF;}
</style>
<rect class="st0" width="68.19" height="68.05"/>
<g>
	<path fill="currentColor" d="M52.69,64.5l-31.93,0c-4.41,0-8.77-3.46-8.77-7.86l-0.21-4.6l1-39.46c0-4.41,3.57-7.98,7.98-7.98l27.04-0.97
		l4.89,0.97c3.68,0.9,8.1,3.51,8.02,8.78l-0.04,43.14C60.67,60.93,57.1,64.5,52.69,64.5z"/>
	<path class="st2" d="M46.72,58.89l-27.04,0c-4.41,0-7.98-3.57-7.98-7.98l0-39.38c0-4.41,3.57-7.98,7.98-7.98l27.04,0
		c4.41,0,7.98,3.57,7.98,7.98l0,39.38C54.7,55.31,51.13,58.89,46.72,58.89z"/>
</g>
</svg>
