<?xml version="1.0" encoding="utf-8"?>
<!-- Generator: Adobe Illustrator 28.1.0, SVG Export Plug-In . SVG Version: 6.00 Build 0)  -->
<svg version="1.1" id="圖層_1" xmlns="http://www.w3.org/2000/svg" xmlns:xlink="http://www.w3.org/1999/xlink" x="0px" y="0px"
	 viewBox="0 0 68.19 68.05" style="enable-background:new 0 0 68.19 68.05;" xml:space="preserve">
<style type="text/css">
	.st0{fill:none;}
	.st1{fill:#7FB77B;}
	.st2{fill:#FFF9EF;}
</style>
<rect class="st0" width="68.19" height="68.05"/>
<g>
	<path fill="currentColor" d="M52.22,65.21l-31.89-1.43c-4.4-0.2-8.61-3.84-8.41-8.25v-4.6l2.76-39.38c0.2-4.4,3.93-7.81,8.33-7.62
		l27.06,0.24l4.84,1.19c3.63,1.06,7.93,3.87,7.62,9.13l-1.97,43.1C60.36,62,56.63,65.41,52.22,65.21z"/>
	<path class="st2" d="M46.51,59.33L19.5,58.12c-4.4-0.2-7.81-3.93-7.62-8.33l1.76-39.34c0.2-4.4,3.93-7.81,8.33-7.62l27.01,1.21
		c4.4,0.2,7.81,3.93,7.62,8.33l-1.76,39.34C54.64,56.12,50.91,59.53,46.51,59.33z"/>
</g>
</svg>
