<?xml version="1.0" encoding="utf-8"?>
<!-- Generator: Adobe Illustrator 28.1.0, SVG Export Plug-In . SVG Version: 6.00 Build 0)  -->
<svg version="1.1" id="圖層_1" xmlns="http://www.w3.org/2000/svg" xmlns:xlink="http://www.w3.org/1999/xlink" x="0px" y="0px"
	 viewBox="0 0 68.19 68.05" style="enable-background:new 0 0 68.19 68.05;" xml:space="preserve">
<style type="text/css">
	.st0{fill:none;}
	.st1{fill:#7FB77B;}
	.st2{fill:#FFF9EF;}
</style>
<rect class="st0" width="68.19" height="68.05"/>
<g>
	<path fill="currentColor" d="M54.71,63.37l-31.86,2.07c-4.4,0.29-8.98-2.88-9.26-7.28l-0.5-4.57l-1.57-39.45c-0.29-4.4,3.05-8.2,7.45-8.48
		l26.92-2.73l4.94,0.65c3.73,0.65,8.31,2.97,8.57,8.24l2.77,43.05C62.45,59.28,59.11,63.08,54.71,63.37z"/>
	<path class="st2" d="M48.39,58.15l-26.98,1.76c-4.4,0.29-8.2-3.05-8.48-7.45l-2.56-39.3c-0.29-4.4,3.05-8.2,7.45-8.48l26.98-1.76
		c4.4-0.29,8.2,3.05,8.48,7.45l2.56,39.3C56.12,54.07,52.79,57.86,48.39,58.15z"/>
</g>
</svg>
