<?xml version="1.0" encoding="utf-8"?>
<!-- Generator: Adobe Illustrator 28.1.0, SVG Export Plug-In . SVG Version: 6.00 Build 0)  -->
<svg version="1.1" id="圖層_1" xmlns="http://www.w3.org/2000/svg" xmlns:xlink="http://www.w3.org/1999/xlink" x="0px" y="0px"
	 viewBox="0 0 68.19 68.05" style="enable-background:new 0 0 68.19 68.05;" xml:space="preserve">
<style type="text/css">
	.st0{fill:none;}
	.st1{fill:#7FB77B;}
	.st2{fill:#FFF9EF;}
</style>
<rect class="st0" width="68.19" height="68.05"/>
<g>
	<path fill="currentColor" d="M51.06,65.83l-31.8-2.81c-4.39-0.39-8.43-4.21-8.05-8.6l0.2-4.6l4.46-39.22c0.39-4.39,4.26-7.64,8.65-7.25
		l27.02,1.41l4.78,1.4c3.58,1.22,7.76,4.21,7.21,9.45l-3.83,42.97C59.32,62.98,55.45,66.22,51.06,65.83z"/>
	<path class="st2" d="M45.6,59.72l-26.93-2.38c-4.39-0.39-7.64-4.26-7.25-8.65l3.46-39.23c0.39-4.39,4.26-7.64,8.65-7.25l26.93,2.38
		c4.39,0.39,7.64,4.26,7.25,8.65l-3.46,39.23C53.87,56.86,49.99,60.1,45.6,59.72z"/>
</g>
</svg>
