<?xml version="1.0" encoding="utf-8"?>
<!-- Generator: Adobe Illustrator 26.1.0, SVG Export Plug-In . SVG Version: 6.00 Build 0)  -->
<svg version="1.1" id="圖層_1" xmlns="http://www.w3.org/2000/svg" xmlns:xlink="http://www.w3.org/1999/xlink" x="0px" y="0px"
	 viewBox="0 0 153.75 163.42" style="enable-background:new 0 0 153.75 163.42;" xml:space="preserve" fill="currentColor">
<path fill="currentColor" d="M10.38,97.92C5.56,86.21,2.09,74,0.58,60.61C-1.45,42.63,1.57,23.29,14.3,9.62
	c8.44-9.06,21.08-11.64,32.74-8.07c6.02,1.84,11.53,5.32,15.98,9.75c1.71,1.7,12.72,13.63,11.79,15.27
	C86.19,6.41,114.35-10.17,137.5,9c27.94,23.14,14.82,69.95-1.86,97.63c-11.38,18.88-25.51,40.37-44.88,51.82
	c-22.52,13.32-38.57-2.65-53.03-18.42C26.34,127.62,16.81,113.52,10.38,97.92z"/>
</svg>
