<?xml version="1.0" encoding="utf-8"?>
<!-- Generator: Adobe Illustrator 26.1.0, SVG Export Plug-In . SVG Version: 6.00 Build 0)  -->
<svg version="1.1" id="圖層_1" xmlns="http://www.w3.org/2000/svg" xmlns:xlink="http://www.w3.org/1999/xlink" x="0px" y="0px"
	 viewBox="0 0 178.79 178.79" style="enable-background:new 0 0 178.79 178.79;" xml:space="preserve">
<style type="text/css">
	.st0{clip-path:url(#SVGID_00000058573323569293542680000004027660621474270116_);}
	.st1{fill:#FFD95F;}
	.st2{clip-path:url(#SVGID_00000173158748706124288320000006585106827595166617_);}
	.st3{clip-path:url(#SVGID_00000067236882416730718520000003124428221364883362_);}
</style>
<g>
	<defs>
		<rect id="SVGID_00000152952703558474404050000009154746811595535544_" width="178.79" height="178.79"/>
	</defs>
	<clipPath id="SVGID_00000178901484062950934560000009288467329742209921_">
		<use xlink:href="#SVGID_00000152952703558474404050000009154746811595535544_"  style="overflow:visible;"/>
	</clipPath>
	<g style="clip-path:url(#SVGID_00000178901484062950934560000009288467329742209921_);">
		<path fill="currentColor" d="M142.13,15.5c0.15,0.71,0.3,1.42,0.43,2.12c0.13,0.72,0.4,1.4,0.52,2.11c0.12,0.72,0.11,1.45,0.21,2.16
			c0.11,0.72,0.4,1.41,0.49,2.12c0.09,0.72,0.11,1.45,0.19,2.16c0.08,0.73,0.02,1.46,0.08,2.17c0.06,0.73,0.2,1.44,0.25,2.16
			c0.05,0.73,0.26,1.44,0.29,2.16c0.04,0.73-0.19,1.47-0.16,2.18c0.03,0.73,0.18,1.45,0.19,2.16c0.01,0.74,0.1,1.46,0.1,2.17
			c0,0.74-0.04,1.46-0.05,2.17c-0.01,0.74,0.05,1.46,0.03,2.17c-0.03,0.74-0.21,1.46-0.24,2.16c-0.04,0.74-0.16,1.46-0.21,2.16
			c-0.05,0.75-0.21,1.46-0.28,2.15c-0.07,0.75-0.1,1.47-0.17,2.16c-0.08,0.76,0.05,1.51-0.04,2.18c-0.1,0.78-0.22,1.49-0.32,2.14
			c-0.13,0.82-0.29,1.53-0.4,2.13c-0.25,1.37-0.88,1.12-0.48,2.11c0.4,0.98,0.6,0.47,1.74,1.23c0.49,0.33,1.15,0.62,1.82,1.09
			c0.53,0.37,1.13,0.74,1.75,1.19c0.54,0.39,1.04,0.9,1.64,1.34c0.54,0.4,1.13,0.79,1.72,1.24c0.54,0.41,1.16,0.78,1.73,1.23
			c0.54,0.42,1.07,0.89,1.63,1.35c0.54,0.43,1.1,0.86,1.65,1.33c0.53,0.44,0.94,1.05,1.49,1.52c0.53,0.45,1.09,0.88,1.63,1.35
			c0.52,0.46,1.06,0.92,1.59,1.4c0.52,0.47,0.95,1.04,1.47,1.53c0.51,0.48,1.06,0.92,1.58,1.42c0.51,0.49,1.16,0.83,1.67,1.33
			c0.5,0.5,0.97,1.02,1.47,1.54c0.49,0.5,1.01,0.99,1.5,1.51c0.48,0.51,0.78,1.21,1.25,1.73c0.47,0.52,1.07,0.94,1.54,1.47
			c0.46,0.53,0.88,1.11,1.34,1.65c0.46,0.54,0.97,1.03,1.42,1.58c0.44,0.55,0.88,1.11,1.31,1.67c0.43,0.56,0.77,1.17,1.11,1.76
			c0.35,0.61,0.58,1.26,0.85,1.89c0.27,0.65,0.62,1.26,0.79,1.92c0.18,0.68,0.25,1.37,0.34,2.06c0.09,0.69,0.13,1.38,0.12,2.08
			c-0.01,0.7-0.02,1.39-0.12,2.08c-0.1,0.69-0.35,1.34-0.54,2.01c-0.19,0.67-0.45,1.3-0.73,1.94c-0.27,0.64-0.38,1.36-0.74,1.96
			c-0.36,0.59-0.92,1.04-1.36,1.59c-0.43,0.54-0.71,1.23-1.21,1.71c-0.5,0.48-1.15,0.79-1.72,1.2c-0.55,0.4-1.13,0.79-1.75,1.13
			c-0.63,0.34-1.3,0.6-1.92,0.93c-0.63,0.33-1.14,0.91-1.77,1.23c-0.64,0.32-1.42,0.35-2.06,0.65c-0.65,0.31-1.25,0.69-1.89,0.99
			c-0.65,0.3-1.27,0.67-1.91,0.96c-0.66,0.29-1.31,0.57-1.96,0.84c-0.66,0.28-1.36,0.45-2.02,0.71c-0.67,0.27-1.25,0.74-1.91,0.99
			c-0.67,0.26-1.36,0.46-2.02,0.7c-0.68,0.25-1.38,0.4-2.05,0.62c-0.68,0.24-1.39,0.36-2.06,0.58c-0.69,0.22-1.4,0.34-2.06,0.55
			c-0.69,0.21-1.32,0.59-1.99,0.79c-0.7,0.21-1.37,0.44-2.04,0.63c-0.71,0.2-1.38,0.43-2.05,0.6c-0.71,0.19-1.4,0.36-2.07,0.52
			c-0.72,0.18-1.43,0.31-2.09,0.46c-0.74,0.17-1.48,0.11-2.13,0.24c-0.76,0.16-1.42,0.46-2.06,0.57c-0.81,0.15-1.49,0.38-2.08,0.48
			c-1.35,0.22-1.39-0.6-2.17,0.12c-0.09,0.69-0.3,1.4-0.41,2.09c-0.12,0.69-0.24,1.37-0.38,2.06c-0.14,0.68-0.12,1.4-0.28,2.08
			c-0.16,0.68-0.41,1.34-0.59,2.01c-0.19,0.67-0.34,1.36-0.54,2.03c-0.21,0.67-0.43,1.33-0.65,1.99c-0.23,0.66-0.33,1.37-0.57,2.03
			c-0.24,0.66-0.69,1.24-0.95,1.88c-0.26,0.65-0.42,1.34-0.69,1.98c-0.28,0.64-0.58,1.28-0.87,1.91c-0.29,0.64-0.53,1.3-0.83,1.93
			c-0.31,0.63-0.7,1.22-1.02,1.84c-0.32,0.63-0.79,1.17-1.12,1.78c-0.33,0.62-0.56,1.29-0.9,1.9c-0.34,0.61-0.84,1.13-1.19,1.73
			c-0.35,0.61-0.46,1.36-0.82,1.95c-0.37,0.6-0.77,1.18-1.14,1.76c-0.38,0.6-0.91,1.09-1.29,1.67c-0.39,0.59-0.56,1.32-0.94,1.89
			c-0.4,0.59-0.93,1.07-1.32,1.64c-0.41,0.58-0.92,1.07-1.32,1.63c-0.41,0.58-0.76,1.19-1.17,1.73c-0.44,0.59-0.9,1.14-1.4,1.65
			c-0.51,0.53-1.11,0.93-1.68,1.36c-0.58,0.45-1.03,1.07-1.66,1.43c-0.63,0.36-1.31,0.65-1.99,0.92c-0.68,0.27-1.39,0.47-2.09,0.64
			c-0.71,0.17-1.45,0.09-2.17,0.16c-0.72,0.07-1.44,0.42-2.16,0.39c-0.72-0.03-1.45-0.21-2.17-0.34c-0.71-0.13-1.38-0.44-2.07-0.66
			c-0.68-0.22-1.42-0.34-2.08-0.66c-0.64-0.32-1.22-0.78-1.83-1.19c-0.59-0.4-1.13-0.89-1.67-1.38c-0.54-0.48-1.22-0.81-1.74-1.31
			c-0.53-0.5-0.86-1.19-1.37-1.7c-0.52-0.51-1.2-0.85-1.7-1.36c-0.5-0.52-0.83-1.21-1.32-1.73c-0.49-0.53-1.18-0.89-1.65-1.42
			c-0.48-0.54-0.95-1.1-1.41-1.64c-0.47-0.55-0.79-1.23-1.24-1.78c-0.46-0.56-0.91-1.13-1.35-1.69c-0.45-0.57-0.99-1.07-1.42-1.64
			c-0.44-0.58-0.71-1.28-1.12-1.86c-0.43-0.59-0.83-1.19-1.23-1.78c-0.42-0.6-1.07-1.03-1.46-1.62c-0.41-0.61-0.59-1.36-0.97-1.95
			c-0.4-0.62-0.77-1.23-1.15-1.83c-0.39-0.63-0.75-1.26-1.11-1.86c-0.38-0.64-0.94-1.15-1.28-1.76c-0.38-0.65-0.78-1.25-1.11-1.86
			c-0.37-0.67-0.76-1.28-1.07-1.88c-0.36-0.69-0.51-1.42-0.81-2.01c-0.37-0.74-0.78-1.34-1.04-1.89c-0.59-1.25,0.14-1.5-0.78-2.07
			c-0.71,0.08-1.46,0.21-2.17,0.27c-0.71,0.06-1.42,0.03-2.13,0.08c-0.71,0.04-1.41,0.26-2.12,0.28c-0.71,0.02-1.42,0.09-2.13,0.1
			c-0.71,0-1.42-0.28-2.13-0.29c-0.71-0.01-1.42-0.05-2.13-0.07c-0.71-0.03-1.43,0.22-2.14,0.17c-0.71-0.04-1.4-0.33-2.11-0.39
			c-0.71-0.06-1.42-0.1-2.12-0.17c-0.71-0.07-1.43-0.02-2.13-0.1c-0.71-0.09-1.39-0.38-2.08-0.48c-0.71-0.1-1.44-0.02-2.13-0.13
			c-0.71-0.11-1.42-0.17-2.11-0.29c-0.7-0.12-1.37-0.42-2.06-0.55c-0.7-0.14-1.44-0.06-2.13-0.2c-0.7-0.15-1.33-0.58-2.02-0.74
			c-0.7-0.16-1.43-0.18-2.11-0.34c-0.7-0.17-1.37-0.41-2.05-0.59c-0.7-0.18-1.36-0.44-2.04-0.62c-0.7-0.19-1.37-0.41-2.04-0.6
			c-0.69-0.2-1.42-0.25-2.08-0.45c-0.67-0.2-1.32-0.41-1.94-0.69c-0.63-0.29-1.23-0.63-1.81-0.98c-0.59-0.36-1.06-0.87-1.58-1.3
			c-0.53-0.44-1.11-0.82-1.57-1.32c-0.47-0.5-0.99-0.97-1.39-1.53c-0.4-0.56-0.59-1.25-0.91-1.85c-0.32-0.61-0.78-1.16-1.02-1.8
			c-0.24-0.64-0.19-1.37-0.34-2.04c-0.15-0.67-0.32-1.32-0.39-2c-0.06-0.68-0.05-1.35-0.02-2.04c0.03-0.68,0.05-1.35,0.17-2.03
			c0.11-0.67,0.25-1.33,0.46-1.99c0.2-0.65,0.5-1.25,0.79-1.88c0.29-0.63,0.47-1.33,0.78-1.98c0.3-0.63,0.73-1.2,1.05-1.85
			c0.31-0.62,0.41-1.37,0.74-2.01c0.32-0.62,0.81-1.17,1.15-1.8c0.33-0.62,0.57-1.3,0.92-1.92c0.34-0.61,0.66-1.25,1.02-1.87
			c0.35-0.61,0.85-1.13,1.22-1.75c0.36-0.6,0.73-1.2,1.11-1.81c0.37-0.6,0.71-1.22,1.1-1.82c0.39-0.59,0.7-1.23,1.1-1.82
			c0.4-0.58,0.83-1.15,1.24-1.73c0.41-0.57,0.98-1.04,1.4-1.61c0.42-0.57,0.82-1.15,1.26-1.71c0.43-0.56,0.91-1.08,1.35-1.64
			c0.44-0.55,0.76-1.21,1.22-1.75c0.46-0.54,0.95-1.05,1.43-1.58c0.47-0.53,0.98-1.02,1.46-1.54c0.48-0.52,0.93-1.07,1.43-1.58
			c0.5-0.51,1.03-0.97,1.54-1.47c0.51-0.49,1.03-0.97,1.56-1.45c0.52-0.48,0.93-1,1.47-1.47c0.22-1.01-0.18-0.67-0.66-1.91
			c-0.21-0.54-0.49-1.18-0.76-1.93c-0.21-0.59-0.49-1.23-0.74-1.94c-0.21-0.61-0.3-1.31-0.53-2.01c-0.21-0.63-0.55-1.24-0.76-1.93
			c-0.2-0.64-0.32-1.32-0.52-2.01c-0.19-0.64-0.31-1.33-0.5-2.02c-0.18-0.65-0.47-1.29-0.65-1.97c-0.17-0.65-0.51-1.28-0.68-1.97
			c-0.16-0.66-0.23-1.36-0.39-2.04c-0.15-0.66-0.08-1.39-0.23-2.08c-0.15-0.67-0.36-1.33-0.5-2.02c-0.14-0.67-0.25-1.35-0.38-2.04
			c-0.12-0.67-0.47-1.32-0.59-2.01c-0.11-0.68-0.02-1.4-0.12-2.09c-0.1-0.68-0.28-1.35-0.37-2.05c-0.09-0.68-0.31-1.35-0.39-2.05
			c-0.08-0.68-0.04-1.39-0.11-2.08c-0.07-0.69,0.05-1.39,0-2.09c-0.05-0.69-0.43-1.36-0.47-2.05c-0.04-0.69,0-1.39-0.02-2.09
			c-0.02-0.69-0.03-1.39-0.04-2.08c-0.01-0.75,0.24-1.47,0.33-2.19c0.09-0.74,0.18-1.46,0.38-2.16c0.2-0.71,0.42-1.41,0.71-2.08
			c0.3-0.68,0.52-1.4,0.9-2.02c0.39-0.63,0.77-1.28,1.24-1.84c0.47-0.57,1.18-0.91,1.72-1.4c0.54-0.49,1.06-1.01,1.67-1.43
			c0.61-0.41,1.22-0.82,1.88-1.15c0.66-0.32,1.31-0.71,2.01-0.94c0.69-0.23,1.47-0.17,2.2-0.3c0.72-0.13,1.43-0.29,2.17-0.31
			c0.72-0.02,1.45,0.11,2.19,0.19c0.67,0.07,1.37,0.06,2.07,0.15c0.67,0.09,1.36,0.16,2.06,0.26c0.67,0.1,1.36,0.19,2.05,0.31
			c0.67,0.11,1.34,0.28,2.04,0.41c0.67,0.13,1.34,0.27,2.03,0.41c0.67,0.14,1.36,0.2,2.04,0.36c0.66,0.15,1.36,0.22,2.04,0.4
			c0.66,0.17,1.33,0.36,2,0.55c0.66,0.18,1.3,0.45,1.97,0.65c0.66,0.19,1.33,0.35,2,0.56c0.65,0.2,1.29,0.49,1.95,0.71
			c0.65,0.22,1.32,0.38,1.99,0.62c0.65,0.23,1.23,0.66,1.88,0.91c0.64,0.24,1.38,0.24,2.04,0.5c0.64,0.25,1.21,0.68,1.86,0.94
			c0.63,0.26,1.23,0.63,1.87,0.91c0.63,0.27,1.36,0.34,2,0.62c0.63,0.28,1.25,0.58,1.89,0.88c0.62,0.29,1.23,0.62,1.86,0.93
			c0.62,0.3,1.13,0.82,1.76,1.14c0.61,0.31,1.24,0.62,1.85,0.94c0.61,0.32,1.27,0.41,1.88,0.75c1.06-0.14,0.56-0.42,1.64-1.28
			c0.47-0.37,1.13-0.7,1.78-1.2c0.52-0.39,1.08-0.84,1.7-1.3c0.54-0.4,1.1-0.85,1.71-1.29c0.55-0.4,1.09-0.87,1.7-1.3
			c0.57-0.39,1.15-0.81,1.76-1.22c0.57-0.39,1.19-0.75,1.81-1.16c0.58-0.38,1.16-0.8,1.78-1.2c0.59-0.38,1.17-0.8,1.79-1.19
			c0.6-0.37,1.22-0.73,1.84-1.11c0.6-0.36,1.31-0.57,1.94-0.93c0.61-0.35,1.18-0.8,1.81-1.16c0.62-0.35,1.28-0.63,1.91-0.98
			c0.62-0.34,1.2-0.77,1.85-1.1c0.63-0.33,1.35-0.49,1.99-0.81c0.64-0.32,1.16-0.88,1.81-1.19c0.64-0.31,1.3-0.6,1.95-0.89
			c0.65-0.29,1.31-0.58,1.97-0.87c0.66-0.28,1.41-0.34,2.07-0.61c0.66-0.27,1.25-0.74,1.92-1c0.67-0.25,1.39-0.37,2.07-0.61
			c0.66-0.23,1.33-0.33,1.99-0.47c0.68-0.14,1.34-0.28,2.01-0.33c0.69-0.05,1.38-0.26,2.05-0.22c0.69,0.04,1.36,0.26,2.03,0.39
			c0.67,0.13,1.34,0.29,1.99,0.51c0.65,0.22,1.34,0.37,1.95,0.67c0.62,0.3,1.2,0.69,1.77,1.07c0.57,0.38,0.97,0.97,1.49,1.42
			c0.52,0.45,1.08,0.83,1.54,1.34c0.45,0.51,0.87,1.04,1.26,1.61c0.38,0.56,0.76,1.13,1.07,1.75c0.3,0.61,0.58,1.24,0.8,1.89
			C141.96,14.13,141.99,14.82,142.13,15.5z"/>
	</g>
</g>
</svg>
