<?xml version="1.0" encoding="utf-8"?>
<!-- Generator: Adobe Illustrator 26.1.0, SVG Export Plug-In . SVG Version: 6.00 Build 0)  -->
<svg version="1.1" id="圖層_1" xmlns="http://www.w3.org/2000/svg" xmlns:xlink="http://www.w3.org/1999/xlink" x="0px" y="0px"
	 viewBox="0 0 136.96 133.67" style="enable-background:new 0 0 136.96 133.67;" xml:space="preserve">
<g id="XMLID_00000151526585386871867320000007865803945593256602_">
	<g>
		<path fill="currentColor" d="M135.23,48.5c-4.82-14.83-18.58-24.25-33.38-24.25C97.29,10.18,84.07,0,68.48,0
			C52.88,0,39.67,10.18,35.1,24.25c-14.8,0-28.56,9.42-33.38,24.25C-3.09,63.33,2.5,79.04,14.47,87.73
			c-4.57,14.07,0.13,30.07,12.75,39.24c12.62,9.17,29.29,8.7,41.26,0c11.97,8.7,28.64,9.16,41.26,0
			c12.62-9.17,17.32-25.16,12.75-39.24C134.45,79.04,140.05,63.33,135.23,48.5z"/>
	</g>
</g>
</svg>
