<svg width="56" height="56" viewBox="0 0 56 56" fill="none" xmlns="http://www.w3.org/2000/svg">
<rect width="56" height="56" rx="5" fill="currentColor"/>
<rect x="5" y="15" width="46" height="26" rx="9" stroke="#F1D289" stroke-width="2"/>
<path d="M10.3151 31L11.4351 23.95H12.9951L12.5451 26.78H15.7751L16.2251 23.95H17.7951L16.6751 31H15.1051L15.5751 28.07H12.3351L11.8751 31H10.3151ZM21.7081 31.11C21.0881 31.11 20.5748 30.99 20.1681 30.75C19.7614 30.51 19.4748 30.1767 19.3081 29.75C19.1414 29.3233 19.1014 28.83 19.1881 28.27C19.2681 27.7633 19.4314 27.33 19.6781 26.97C19.9248 26.6033 20.2381 26.3233 20.6181 26.13C21.0048 25.93 21.4481 25.83 21.9481 25.83C22.4481 25.83 22.8614 25.94 23.1881 26.16C23.5148 26.38 23.7448 26.68 23.8781 27.06C24.0181 27.44 24.0481 27.8767 23.9681 28.37L23.9081 28.7H20.3681L20.4781 27.96H22.9381L22.7381 28.12C22.8048 27.6933 22.7648 27.3733 22.6181 27.16C22.4714 26.9467 22.2314 26.84 21.8981 26.84C21.6581 26.84 21.4514 26.8967 21.2781 27.01C21.1048 27.1167 20.9648 27.27 20.8581 27.47C20.7514 27.6633 20.6814 27.88 20.6481 28.12L20.5881 28.51C20.5214 28.9767 20.5914 29.3367 20.7981 29.59C21.0114 29.8433 21.3848 29.97 21.9181 29.97C22.1581 29.97 22.3914 29.9367 22.6181 29.87C22.8514 29.7967 23.0848 29.6833 23.3181 29.53L23.7181 30.53C23.4448 30.7233 23.1348 30.87 22.7881 30.97C22.4414 31.0633 22.0814 31.11 21.7081 31.11ZM25.5061 31L26.6761 23.64H28.1861L27.0161 31H25.5061ZM29.2503 31L30.4203 23.64H31.9303L30.7603 31H29.2503ZM35.5144 31.11C34.9411 31.11 34.4611 30.9967 34.0744 30.77C33.6944 30.5433 33.4244 30.22 33.2644 29.8C33.1111 29.38 33.0777 28.88 33.1644 28.3C33.2511 27.7533 33.4277 27.2967 33.6944 26.93C33.9677 26.5633 34.3111 26.29 34.7244 26.11C35.1377 25.9233 35.5944 25.83 36.0944 25.83C36.6744 25.83 37.1511 25.9433 37.5244 26.17C37.9044 26.39 38.1711 26.71 38.3244 27.13C38.4844 27.55 38.5177 28.05 38.4244 28.63C38.3377 29.17 38.1577 29.6233 37.8844 29.99C37.6177 30.3567 37.2811 30.6367 36.8744 30.83C36.4677 31.0167 36.0144 31.11 35.5144 31.11ZM35.5944 29.97C35.9277 29.97 36.2111 29.8533 36.4444 29.62C36.6844 29.38 36.8444 29.0167 36.9244 28.53C37.0111 27.9833 36.9644 27.5867 36.7844 27.34C36.6111 27.0933 36.3477 26.97 35.9944 26.97C35.6611 26.97 35.3777 27.0867 35.1444 27.32C34.9111 27.5533 34.7544 27.9133 34.6744 28.4C34.5877 28.9467 34.6311 29.3467 34.8044 29.6C34.9777 29.8467 35.2411 29.97 35.5944 29.97ZM40.6096 28.77L40.8996 23.95H42.7596L41.5296 28.77H40.6096ZM39.8996 31L40.1496 29.4H41.7696L41.5196 31H39.8996ZM44.2072 28.77L44.4972 23.95H46.3572L45.1272 28.77H44.2072ZM43.4972 31L43.7472 29.4H45.3672L45.1172 31H43.4972Z" fill="#18191F"/>
</svg>
