<?xml version="1.0" encoding="utf-8"?>
<!-- Generator: Adobe Illustrator 25.4.1, SVG Export Plug-In . SVG Version: 6.00 Build 0)  -->
<svg version="1.1" xmlns="http://www.w3.org/2000/svg" xmlns:xlink="http://www.w3.org/1999/xlink" x="0px" y="0px"
	 viewBox="0 0 60 26" style="enable-background:new 0 0 60 26;" xml:space="preserve">
<g id="圖層_2">
</g>
<g id="圖層_1">
	<path style="fill:#FFFFFF;" d="M2,17h56c1.1,0,2,0.9,2,2v5c0,1.1-0.9,2-2,2H2c-1.1,0-2-0.9-2-2v-5C0,17.9,0.9,17,2,17z"/>
	<g>
		<g>
			<path style="fill:#09467E;" d="M6.42,6.76h9.6v2.46H9.5v3.3h6.12V15H9.5v6H6.42V6.76z M30,21h-3.3l-1.82-4.74
				c-0.15-0.37-0.37-0.63-0.68-0.78c-0.29-0.15-0.67-0.22-1.12-0.22h-2.02V21h-3.08V6.76h6.34c1.65,0,2.91,0.36,3.76,1.08
				s1.28,1.75,1.28,3.1c0,0.95-0.25,1.76-0.76,2.44c-0.49,0.68-1.21,1.17-2.14,1.46c0.84,0.17,1.45,0.75,1.82,1.74L30,21z
				 M23.86,12.88c0.89,0,1.55-0.15,1.96-0.44c0.41-0.31,0.62-0.78,0.62-1.42c0-0.64-0.21-1.11-0.62-1.4
				c-0.41-0.31-1.07-0.46-1.96-0.46h-2.84v3.72H23.86z M32.14,6.76h9.82v2.42h-6.78v3.36h6.36v2.44h-6.36v3.6h6.78V21h-9.82V6.76z
				 M44.12,6.76h9.82v2.42h-6.78v3.36h6.36v2.44h-6.36v3.6h6.78V21h-9.82V6.76z"/>
			<path style="fill:#09467E;" d="M53.94,22.75h-9.82c-0.41,0-0.78-0.14-1.08-0.37c-0.3,0.23-0.67,0.37-1.08,0.37h-9.82
				c-0.4,0-0.77-0.14-1.07-0.37c-0.3,0.23-0.68,0.37-1.07,0.37h-3.3c-0.72,0-1.37-0.45-1.63-1.12l-1.77-4.6
				c-0.05-0.01-0.12-0.01-0.22-0.01h-0.27V21c0,0.97-0.78,1.75-1.75,1.75h-3.08c-0.97,0-1.75-0.78-1.75-1.75v-4.36
				c-0.19,0.07-0.4,0.11-0.61,0.11h-4.37V21c0,0.97-0.78,1.75-1.75,1.75H6.42c-0.97,0-1.75-0.78-1.75-1.75V6.76
				c0-0.97,0.78-1.75,1.75-1.75h9.6c0.36,0,0.7,0.11,0.98,0.3c0.28-0.19,0.62-0.3,0.98-0.3h6.34c2.07,0,3.72,0.5,4.89,1.49
				c0.4,0.33,0.83,0.8,1.18,1.44V6.76c0-0.97,0.78-1.75,1.75-1.75h9.82c0.41,0,0.78,0.14,1.08,0.37c0.3-0.23,0.67-0.37,1.08-0.37
				h9.82c0.97,0,1.75,0.78,1.75,1.75v2.42c0,0.89-0.66,1.62-1.52,1.73c0.64,0.26,1.1,0.89,1.1,1.62v2.44c0,0.97-0.78,1.75-1.75,1.75
				h-4.61v0.1h5.03c0.97,0,1.75,0.78,1.75,1.75V21C55.69,21.97,54.9,22.75,53.94,22.75z M29.48,15.05c0.16,0.27,0.31,0.57,0.44,0.92
				l0.47,1.22v-3.35c-0.12,0.21-0.24,0.4-0.39,0.6C29.85,14.65,29.67,14.85,29.48,15.05z M23.45,17.06
				C23.45,17.06,23.45,17.06,23.45,17.06C23.45,17.06,23.45,17.06,23.45,17.06z M36.93,16.83h5.03c0.14,0,0.27,0.02,0.4,0.05v-0.35
				c-0.25,0.13-0.53,0.21-0.82,0.21h-4.61V16.83z M19.73,14.06v0.06c0.01-0.01,0.02-0.02,0.03-0.03
				C19.75,14.08,19.74,14.07,19.73,14.06z M8.17,13.66v0.21c0.03-0.04,0.06-0.07,0.1-0.1C8.23,13.73,8.2,13.69,8.17,13.66z
				 M45.87,13.72v0.07c0.01-0.01,0.02-0.02,0.04-0.04C45.89,13.75,45.88,13.74,45.87,13.72z M33.89,13.72v0.07
				c0.01-0.01,0.02-0.02,0.04-0.04C33.92,13.75,33.9,13.74,33.89,13.72z M22.77,11.13h1.09c0.44,0,0.69-0.04,0.83-0.08
				c0-0.01,0-0.02,0-0.03c0-0.01,0-0.01,0-0.02c-0.13-0.04-0.38-0.09-0.83-0.09h-1.09V11.13z M24.81,11.05
				C24.81,11.05,24.81,11.05,24.81,11.05C24.81,11.05,24.81,11.05,24.81,11.05z M42.19,10.91c0.06,0.02,0.12,0.05,0.17,0.08v-0.11
				C42.31,10.9,42.25,10.91,42.19,10.91z M24.68,10.88L24.68,10.88L24.68,10.88z"/>
		</g>
		<path style="fill:#09467E;" d="M55.25,19.35H29.19c-0.24,0-0.43-0.19-0.43-0.43v-2.87c0-0.24,0.19-0.43,0.43-0.43h26.06
			c0.24,0,0.43,0.19,0.43,0.43v2.87C55.68,19.16,55.49,19.35,55.25,19.35z"/>
	</g>
	<path style="fill:#FFFFFF;" d="M6.42,6.76h9.6v2.46H9.5v3.3h6.12V15H9.5v6H6.42V6.76z M30,21h-3.3l-1.82-4.74
		c-0.15-0.37-0.37-0.63-0.68-0.78c-0.29-0.15-0.67-0.22-1.12-0.22h-2.02V21h-3.08V6.76h6.34c1.65,0,2.91,0.36,3.76,1.08
		s1.28,1.75,1.28,3.1c0,0.95-0.25,1.76-0.76,2.44c-0.49,0.68-1.21,1.17-2.14,1.46c0.84,0.17,1.45,0.75,1.82,1.74L30,21z
		 M23.86,12.88c0.89,0,1.55-0.15,1.96-0.44c0.41-0.31,0.62-0.78,0.62-1.42c0-0.64-0.21-1.11-0.62-1.4
		c-0.41-0.31-1.07-0.46-1.96-0.46h-2.84v3.72H23.86z M32.14,6.76h9.82v2.42h-6.78v3.36h6.36v2.44h-6.36v3.6h6.78V21h-9.82V6.76z
		 M44.12,6.76h9.82v2.42h-6.78v3.36h6.36v2.44h-6.36v3.6h6.78V21h-9.82V6.76z"/>
</g>
</svg>
