<svg width="60" height="26" viewBox="0 0 60 26" fill="none" xmlns="http://www.w3.org/2000/svg">
<rect y="17" width="60" height="9" rx="2" fill="#C9DBFF"/>
<path d="M6.42 6.76H16.02V9.22H9.5V12.52H15.62V15H9.5V21H6.42V6.76ZM30.0025 21H26.7025L24.8825 16.26C24.7358 15.8867 24.5092 15.6267 24.2025 15.48C23.9092 15.3333 23.5358 15.26 23.0825 15.26H21.0625V21H17.9825V6.76H24.3225C25.9758 6.76 27.2292 7.12 28.0825 7.84C28.9358 8.56 29.3625 9.59333 29.3625 10.94C29.3625 11.8867 29.1092 12.7 28.6025 13.38C28.1092 14.06 27.3958 14.5467 26.4625 14.84C27.3025 15.0133 27.9092 15.5933 28.2825 16.58L30.0025 21ZM23.8625 12.88C24.7558 12.88 25.4092 12.7333 25.8225 12.44C26.2358 12.1333 26.4425 11.66 26.4425 11.02C26.4425 10.38 26.2358 9.91333 25.8225 9.62C25.4092 9.31333 24.7558 9.16 23.8625 9.16H21.0225V12.88H23.8625ZM32.1427 6.76H41.9627V9.18H35.1827V12.54H41.5427V14.98H35.1827V18.58H41.9627V21H32.1427V6.76ZM44.1153 6.76H53.9353V9.18H47.1553V12.54H53.5153V14.98H47.1553V18.58H53.9353V21H44.1153V6.76Z" fill="#7190CC"/>
</svg>
