<svg width="32" height="32" viewBox="0 0 32 32" fill="none" xmlns="http://www.w3.org/2000/svg">
<path d="M16 32C24.8366 32 32 24.8366 32 16C32 7.16344 24.8366 0 16 0C7.16344 0 0 7.16344 0 16C0 24.8366 7.16344 32 16 32Z" fill="#4EABE6"/>
<path d="M26.8515 15.1727C26.8515 10.2945 21.9615 6.32413 15.9478 6.32413C9.9342 6.32413 5.04413 10.2945 5.04413 15.1727C5.04413 19.5461 8.92442 23.2107 14.1629 23.9028C14.5185 23.9787 15.0021 24.1398 15.1229 24.4409C15.2093 24.7626 15.2215 25.0998 15.1585 25.4269C15.1585 25.4269 15.0305 26.1949 15.0044 26.3585C14.957 26.6358 14.784 27.437 15.9526 26.9463C17.1212 26.4557 22.2317 23.251 24.5191 20.6175C26.1001 18.8847 26.8563 17.1259 26.8563 15.1656" fill="white"/>
<path d="M13.7315 12.8142H12.9683C12.9117 12.8142 12.8574 12.8367 12.8174 12.8767C12.7774 12.9167 12.7549 12.971 12.7549 13.0275V17.7683C12.7549 17.7962 12.7605 17.8238 12.7712 17.8496C12.782 17.8753 12.7977 17.8987 12.8176 17.9183C12.8374 17.9379 12.8609 17.9534 12.8868 17.9639C12.9127 17.9743 12.9404 17.9796 12.9683 17.9792H13.7315C13.7594 17.9796 13.7871 17.9743 13.813 17.9639C13.8389 17.9534 13.8624 17.9379 13.8822 17.9183C13.9021 17.8987 13.9178 17.8753 13.9286 17.8496C13.9393 17.8238 13.9449 17.7962 13.9449 17.7683V13.0252C13.9449 12.9686 13.9224 12.9143 13.8824 12.8743C13.8424 12.8343 13.7881 12.8118 13.7315 12.8118" fill="#7190CC"/>
<path d="M19.0033 12.8142H18.24C18.1834 12.8142 18.1292 12.8367 18.0891 12.8767C18.0491 12.9167 18.0267 12.971 18.0267 13.0275V15.8506L15.8507 12.909L15.8341 12.8877H15.0092C14.9813 12.8877 14.9537 12.8932 14.9279 12.904C14.9022 12.9147 14.8788 12.9305 14.8592 12.9503C14.8395 12.9702 14.8241 12.9937 14.8136 13.0196C14.8031 13.0454 14.7979 13.0731 14.7982 13.101V17.8418C14.7982 17.8977 14.8204 17.9514 14.86 17.9909C14.8996 18.0305 14.9532 18.0527 15.0092 18.0527H15.7748C15.831 18.0527 15.8849 18.0306 15.9249 17.9911C15.9648 17.9516 15.9875 17.8979 15.9882 17.8418V15.021L18.1665 17.965C18.1818 17.9852 18.2002 18.0028 18.221 18.0172H18.2329H18.2471C18.2652 18.0196 18.2836 18.0196 18.3016 18.0172H19.0033C19.0312 18.0175 19.0588 18.0123 19.0847 18.0018C19.1106 17.9913 19.1341 17.9759 19.154 17.9562C19.1738 17.9366 19.1896 17.9132 19.2003 17.8875C19.2111 17.8617 19.2166 17.8341 19.2166 17.8062V13.0252C19.2166 12.9972 19.2111 12.9694 19.2004 12.9435C19.1896 12.9176 19.1739 12.8941 19.1541 12.8743C19.1343 12.8545 19.1108 12.8388 19.0849 12.8281C19.059 12.8174 19.0313 12.8118 19.0033 12.8118" fill="#7190CC"/>
<path d="M11.8922 16.8012H9.81339V13.0252C9.81339 12.9686 9.79091 12.9143 9.7509 12.8743C9.7109 12.8343 9.65665 12.8118 9.60007 12.8118H8.8368C8.78022 12.8118 8.72597 12.8343 8.68596 12.8743C8.64595 12.9143 8.62347 12.9686 8.62347 13.0252V17.7659C8.62387 17.8206 8.64505 17.8732 8.68273 17.9129C8.72243 17.9505 8.77496 17.9717 8.8297 17.9721H11.8922C11.9484 17.9715 12.002 17.9488 12.0415 17.9088C12.081 17.8689 12.1032 17.815 12.1032 17.7588V16.9932C12.1032 16.9372 12.0809 16.8835 12.0414 16.844C12.0018 16.8044 11.9482 16.7822 11.8922 16.7822" fill="#7190CC"/>
<path d="M23.2201 14.0041C23.2481 14.0044 23.2757 13.9992 23.3016 13.9888C23.3275 13.9783 23.351 13.9628 23.3708 13.9432C23.3907 13.9236 23.4064 13.9002 23.4172 13.8744C23.4279 13.8487 23.4335 13.8211 23.4335 13.7932V13.0252C23.4335 12.9686 23.411 12.9143 23.371 12.8743C23.331 12.8343 23.2767 12.8118 23.2201 12.8118H20.1647C20.1095 12.8121 20.0567 12.8343 20.0178 12.8735C19.9808 12.9134 19.9604 12.966 19.9609 13.0204V17.7612C19.9606 17.7884 19.9656 17.8153 19.9758 17.8406C19.986 17.8658 20.0011 17.8887 20.0201 17.9081C20.059 17.9473 20.1119 17.9695 20.1671 17.9698H23.2225C23.2791 17.9698 23.3334 17.9473 23.3734 17.9073C23.4134 17.8673 23.4358 17.813 23.4358 17.7564V16.9908C23.4358 16.9629 23.4303 16.9353 23.4196 16.9095C23.4088 16.8838 23.3931 16.8604 23.3732 16.8408C23.3534 16.8212 23.3298 16.8057 23.304 16.7952C23.2781 16.7847 23.2504 16.7795 23.2225 16.7798H21.1366V15.9763H23.2154C23.272 15.9763 23.3262 15.9538 23.3662 15.9138C23.4062 15.8738 23.4287 15.8195 23.4287 15.7629V14.9997C23.4287 14.9431 23.4062 14.8888 23.3662 14.8488C23.3262 14.8088 23.272 14.7864 23.2154 14.7864H21.1366V13.9828L23.2201 14.0041Z" fill="#7190CC"/>
</svg>
