<svg width="111" height="219" viewBox="0 0 111 219" fill="none" xmlns="http://www.w3.org/2000/svg">
<g clip-path="url(#clip0)">
<rect x="1" y="1" width="109" height="217" rx="8" fill="white"/>
<rect x="1" y="17" width="109" height="117.094" fill="url(#paint0_linear)"/>
<g clip-path="url(#clip1)">
<path d="M55.5701 83C62.4736 83 68.0701 77.4036 68.0701 70.5C68.0701 63.5964 62.4736 58 55.5701 58C48.6665 58 43.0701 63.5964 43.0701 70.5C43.0701 77.4036 48.6665 83 55.5701 83Z" fill="#FD5822"/>
<path d="M60.4041 78.3125C61.1322 78.3125 61.7224 77.7223 61.7224 76.9941C61.7224 76.266 61.1322 75.6758 60.4041 75.6758C59.6759 75.6758 59.0857 76.266 59.0857 76.9941C59.0857 77.7223 59.6759 78.3125 60.4041 78.3125Z" fill="white"/>
<path d="M54.2517 78.3125C54.9798 78.3125 55.5701 77.7223 55.5701 76.9941C55.5701 76.266 54.9798 75.6758 54.2517 75.6758C53.5236 75.6758 52.9333 76.266 52.9333 76.9941C52.9333 77.7223 53.5236 78.3125 54.2517 78.3125Z" fill="white"/>
<path d="M48.5388 64.25H51.05L52.7325 72.6561C52.7899 72.9451 52.9471 73.2048 53.1766 73.3896C53.4062 73.5743 53.6934 73.6725 53.988 73.6669H60.0902C60.3848 73.6725 60.672 73.5743 60.9015 73.3896C61.1311 73.2048 61.2883 72.9451 61.3457 72.6561L62.3502 67.389H51.6778" stroke="white" stroke-width="1.3" stroke-linecap="round" stroke-linejoin="round"/>
<path d="M52.4451 70.5H61.8201" stroke="white" stroke-width="1.3"/>
<path d="M57.1325 67.375L57.1324 73.2344" stroke="white" stroke-width="1.3"/>
</g>
<rect x="81" y="200" width="46" height="18" rx="1" fill="#EEEFF4"/>
<rect x="-3" y="200" width="84" height="18" rx="1" fill="#F8F8F8"/>
<circle cx="16" cy="31.3267" r="6" fill="#EEEFF4"/>
<rect x="10" y="170" width="20.9505" height="4" rx="1" fill="#EEEFF4"/>
<rect x="10" y="150" width="92" height="4" rx="1" fill="#EEEFF4"/>
<rect x="10" y="160" width="92" height="4" rx="1" fill="#EEEFF4"/>
</g>
<rect x="1" y="1" width="109" height="217" rx="8" stroke="#D9DBE1"/>
<path d="M34.0227 8.03922C32.3725 6.94359 33.1482 4.37305 35.1289 4.37305H94.3475C96.1885 4.37305 97.0517 6.65022 95.6732 7.87055L91.3012 11.741C90.9355 12.0648 90.4639 12.2435 89.9755 12.2435H40.9583C40.5647 12.2435 40.1799 12.1274 39.852 11.9097L34.0227 8.03922Z" fill="white"/>
<path d="M71.2941 8.87045C71.2941 9.49141 70.8695 9.9948 70.3458 9.9948C69.822 9.9948 69.3975 9.49141 69.3975 8.87045C69.3975 8.24948 69.822 7.74609 70.3458 7.74609C70.8695 7.74609 71.2941 8.24948 71.2941 8.87045Z" fill="#969BAB"/>
<rect x="40" y="7.74609" width="26.5526" height="1.12435" rx="0.562176" fill="#969BAB"/>
<defs>
<linearGradient id="paint0_linear" x1="55.5" y1="17" x2="55.5" y2="134.094" gradientUnits="userSpaceOnUse">
<stop offset="0.00520833" stop-color="#FFF9E4"/>
<stop offset="1" stop-color="#FFE0C9"/>
</linearGradient>
<clipPath id="clip0">
<rect x="1" y="1" width="109" height="217" rx="8" fill="white"/>
</clipPath>
<clipPath id="clip1">
<rect width="25" height="25" fill="white" transform="translate(43.0701 58)"/>
</clipPath>
</defs>
</svg>
