<svg width="111" height="219" viewBox="0 0 111 219" fill="none" xmlns="http://www.w3.org/2000/svg">
<g clip-path="url(#clip0)">
<rect x="1" y="1" width="109" height="217" rx="8" fill="white"/>
<rect x="1" y="36" width="109" height="54" fill="url(#paint0_linear)"/>
<path d="M56.5 76C63.4036 76 69 70.4036 69 63.5C69 56.5964 63.4036 51 56.5 51C49.5964 51 44 56.5964 44 63.5C44 70.4036 49.5964 76 56.5 76Z" fill="#FD5822"/>
<path d="M61.334 71.3125C62.0621 71.3125 62.6523 70.7223 62.6523 69.9941C62.6523 69.266 62.0621 68.6758 61.334 68.6758C60.6059 68.6758 60.0156 69.266 60.0156 69.9941C60.0156 70.7223 60.6059 71.3125 61.334 71.3125Z" fill="white"/>
<path d="M55.1816 71.3125C55.9098 71.3125 56.5 70.7223 56.5 69.9941C56.5 69.266 55.9098 68.6758 55.1816 68.6758C54.4535 68.6758 53.8633 69.266 53.8633 69.9941C53.8633 70.7223 54.4535 71.3125 55.1816 71.3125Z" fill="white"/>
<path d="M49.4688 57.25H51.9799L53.6624 65.6561C53.7198 65.9451 53.877 66.2048 54.1066 66.3896C54.3361 66.5743 54.6233 66.6725 54.918 66.6669H61.0201C61.3147 66.6725 61.6019 66.5743 61.8315 66.3896C62.061 66.2048 62.2183 65.9451 62.2757 65.6561L63.2801 60.389H52.6077" stroke="white" stroke-width="1.3" stroke-linecap="round" stroke-linejoin="round"/>
<path d="M53.375 63.5H62.75" stroke="white" stroke-width="1.3"/>
<path d="M58.0624 60.375L58.0623 66.2344" stroke="white" stroke-width="1.3"/>
<rect x="81" y="200" width="46" height="18" rx="1" fill="#EEEFF4"/>
<rect x="-3" y="200" width="84" height="18" rx="1" fill="#F8F8F8"/>
<rect x="10" y="135" width="20.9505" height="4" rx="1" fill="#EEEFF4"/>
<rect x="10" y="115" width="92" height="4" rx="1" fill="#EEEFF4"/>
<rect x="12" y="163" width="24" height="24" rx="1" fill="#EEEFF4"/>
<rect x="44" y="163" width="24" height="24" rx="1" fill="#EEEFF4"/>
<rect x="76" y="163" width="24" height="24" rx="1" fill="#EEEFF4"/>
<rect x="10" y="125" width="92" height="4" rx="1" fill="#EEEFF4"/>
</g>
<rect x="1" y="1" width="109" height="217" rx="8" stroke="#D9DBE1"/>
<path d="M34.0227 8.03922C32.3725 6.94359 33.1482 4.37305 35.1289 4.37305H94.3475C96.1885 4.37305 97.0517 6.65022 95.6732 7.87055L91.3012 11.741C90.9355 12.0648 90.4639 12.2435 89.9755 12.2435H40.9583C40.5647 12.2435 40.1799 12.1274 39.852 11.9097L34.0227 8.03922Z" fill="white"/>
<path d="M71.2941 8.87045C71.2941 9.49141 70.8695 9.9948 70.3458 9.9948C69.822 9.9948 69.3975 9.49141 69.3975 8.87045C69.3975 8.24948 69.822 7.74609 70.3458 7.74609C70.8695 7.74609 71.2941 8.24948 71.2941 8.87045Z" fill="#969BAB"/>
<rect x="40" y="7.74609" width="26.5526" height="1.12435" rx="0.562176" fill="#969BAB"/>
<defs>
<linearGradient id="paint0_linear" x1="55.5" y1="36" x2="55.5" y2="90" gradientUnits="userSpaceOnUse">
<stop offset="0.00520833" stop-color="#FFF9E4"/>
<stop offset="1" stop-color="#FFE0C9"/>
</linearGradient>
<clipPath id="clip0">
<rect x="1" y="1" width="109" height="217" rx="8" fill="white"/>
</clipPath>
</defs>
</svg>
