<svg width="111" height="219" viewBox="0 0 111 219" fill="none" xmlns="http://www.w3.org/2000/svg">
<rect x="1" y="1" width="109" height="217" rx="8" fill="white"/>
<rect x="6" y="4" width="99" height="207" rx="7" fill="url(#paint0_linear)"/>
<rect x="1" y="1" width="109" height="217" rx="8" stroke="#D9DBE1"/>
<path d="M30.356 8.03536C28.6996 6.94318 29.4729 4.36566 31.4569 4.36566H81.0136C82.858 4.36566 83.7193 6.64989 82.3341 7.86771L79.193 10.6293C78.828 10.9502 78.3586 11.1272 77.8725 11.1272H35.6451C35.2537 11.1272 34.8709 11.0124 34.5441 10.7969L30.356 8.03536Z" fill="white"/>
<path d="M69.0896 8.22942C69.0896 8.7629 68.7223 9.19536 68.2692 9.19536C67.8161 9.19536 67.4489 8.7629 67.4489 8.22942C67.4489 7.69595 67.8161 7.26349 68.2692 7.26349C68.7223 7.26349 69.0896 7.69595 69.0896 8.22942Z" fill="#969BAB"/>
<rect x="42.0178" y="7.26349" width="22.9701" height="0.965936" rx="0.482968" fill="#969BAB"/>
<path d="M6 162H105V205C105 208.866 101.866 212 98 212H13C9.13401 212 6 208.866 6 205V162Z" fill="#F8F8F8"/>
<rect x="58" y="194" width="8" height="3" rx="1" fill="white"/>
<rect x="58" y="177" width="35" height="3" rx="1" fill="white"/>
<rect x="58" y="185" width="35" height="4" rx="1" fill="white"/>
<rect x="23" y="171" width="29" height="32" rx="1" fill="white"/>
<path d="M55.5 101C62.4036 101 68 95.4036 68 88.5C68 81.5964 62.4036 76 55.5 76C48.5964 76 43 81.5964 43 88.5C43 95.4036 48.5964 101 55.5 101Z" fill="#FD5822"/>
<path d="M60.334 96.3125C61.0621 96.3125 61.6523 95.7223 61.6523 94.9941C61.6523 94.266 61.0621 93.6758 60.334 93.6758C59.6059 93.6758 59.0156 94.266 59.0156 94.9941C59.0156 95.7223 59.6059 96.3125 60.334 96.3125Z" fill="white"/>
<path d="M54.1816 96.3125C54.9098 96.3125 55.5 95.7223 55.5 94.9941C55.5 94.266 54.9098 93.6758 54.1816 93.6758C53.4535 93.6758 52.8633 94.266 52.8633 94.9941C52.8633 95.7223 53.4535 96.3125 54.1816 96.3125Z" fill="white"/>
<path d="M48.4688 82.25H50.9799L52.6624 90.6561C52.7198 90.9451 52.877 91.2048 53.1066 91.3896C53.3361 91.5743 53.6233 91.6725 53.918 91.6669H60.0201C60.3147 91.6725 60.6019 91.5743 60.8315 91.3896C61.061 91.2048 61.2183 90.9451 61.2757 90.6561L62.2801 85.389H51.6077" stroke="white" stroke-width="1.3" stroke-linecap="round" stroke-linejoin="round"/>
<path d="M52.375 88.5H61.75" stroke="white" stroke-width="1.3"/>
<path d="M57.0624 85.375L57.0623 91.2344" stroke="white" stroke-width="1.3"/>
<defs>
<linearGradient id="paint0_linear" x1="55.5" y1="4" x2="55.5" y2="211" gradientUnits="userSpaceOnUse">
<stop offset="0.00520833" stop-color="#FFF9E4"/>
<stop offset="1" stop-color="#FFE0C9"/>
</linearGradient>
</defs>
</svg>
