<svg width="111" height="219" viewBox="0 0 111 219" fill="none" xmlns="http://www.w3.org/2000/svg">
<g clip-path="url(#clip0)">
<rect x="1" y="1" width="109" height="217" rx="8" fill="white"/>
<rect x="1" y="64.3812" width="109" height="117.094" fill="url(#paint0_linear)"/>
<path d="M68.0001 122.075C68.0001 115.171 62.4044 109.575 55.5001 109.575C48.5958 109.575 43.0001 115.171 43.0001 122.075C43.0001 128.316 47.5704 133.487 53.547 134.424V125.689H50.3732V122.075H53.547V119.321C53.547 116.189 55.4122 114.458 58.2687 114.458C59.6359 114.458 61.0665 114.702 61.0665 114.702V117.779H59.4894C57.9366 117.779 57.4532 118.743 57.4532 119.732V122.075H60.92L60.3658 125.689H57.4532V134.424C63.4298 133.487 68.0001 128.316 68.0001 122.075Z" fill="#1877F2"/>
<path d="M60.3658 125.689L60.92 122.075H57.4532V119.732C57.4532 118.743 57.9366 117.779 59.4894 117.779H61.0665V114.702C61.0665 114.702 59.6359 114.458 58.2687 114.458C55.4122 114.458 53.547 116.189 53.547 119.321V122.075H50.3732V125.689H53.547V134.424C54.1842 134.524 54.8361 134.575 55.5001 134.575C56.1642 134.575 56.816 134.524 57.4532 134.424V125.689H60.3658Z" fill="white"/>
<rect x="81" y="200" width="46" height="18" rx="1" fill="#EEEFF4"/>
<rect x="-3" y="200" width="84" height="18" rx="1" fill="#F8F8F8"/>
</g>
<rect x="1" y="1" width="109" height="217" rx="8" stroke="#D9DBE1"/>
<path d="M34.0227 8.03922C32.3725 6.94359 33.1482 4.37305 35.1289 4.37305H94.3475C96.1885 4.37305 97.0517 6.65022 95.6732 7.87055L91.3012 11.741C90.9355 12.0648 90.4639 12.2435 89.9755 12.2435H40.9583C40.5647 12.2435 40.1799 12.1274 39.852 11.9097L34.0227 8.03922Z" fill="white"/>
<circle cx="18" cy="26" r="6" fill="#EEEFF4" fill-opacity="0.8"/>
<path d="M71.2941 8.87045C71.2941 9.49141 70.8695 9.9948 70.3458 9.9948C69.822 9.9948 69.3975 9.49141 69.3975 8.87045C69.3975 8.24948 69.822 7.74609 70.3458 7.74609C70.8695 7.74609 71.2941 8.24948 71.2941 8.87045Z" fill="#969BAB"/>
<rect x="40" y="7.74609" width="26.5526" height="1.12435" rx="0.562176" fill="#969BAB"/>
<rect x="12.4653" y="41.8218" width="86.9455" height="4.29703" rx="1" fill="#EEEFF4"/>
<rect x="12.4653" y="52.5643" width="86.9455" height="4.29703" rx="1" fill="#EEEFF4"/>
<defs>
<linearGradient id="paint0_linear" x1="55.5" y1="64.3812" x2="55.5" y2="181.475" gradientUnits="userSpaceOnUse">
<stop stop-color="#C9DBFF"/>
<stop offset="1" stop-color="#F1F6FF"/>
</linearGradient>
<clipPath id="clip0">
<rect x="1" y="1" width="109" height="217" rx="8" fill="white"/>
</clipPath>
</defs>
</svg>
