<svg width="111" height="219" viewBox="0 0 111 219" fill="none" xmlns="http://www.w3.org/2000/svg">
<g clip-path="url(#clip0)">
<rect x="1" y="1" width="109" height="217" rx="8" fill="white"/>
<rect x="1" y="17" width="109" height="117.094" fill="url(#paint0_linear)"/>
<g clip-path="url(#clip1)">
<path d="M55.5001 87.1942C62.4037 87.1942 68.0001 81.5978 68.0001 74.6942C68.0001 67.7907 62.4037 62.1942 55.5001 62.1942C48.5966 62.1942 43.0001 67.7907 43.0001 74.6942C43.0001 81.5978 48.5966 87.1942 55.5001 87.1942Z" fill="#68B82B"/>
<path d="M63.9779 74.0479C63.9779 70.2368 60.1575 67.1349 55.4594 67.1349C50.7612 67.1349 46.9409 70.2368 46.9409 74.0479C46.9409 77.4646 49.9723 80.3275 54.0649 80.8683C54.3427 80.9275 54.7205 81.0535 54.8149 81.2887C54.8824 81.54 54.8919 81.8034 54.8427 82.059C54.8427 82.059 54.7427 82.659 54.7223 82.7868C54.6853 83.0035 54.5501 83.6294 55.4631 83.2461C56.376 82.8627 60.3686 80.359 62.1557 78.3016C63.3909 76.9479 63.9816 75.5738 63.9816 74.0424" fill="white"/>
<path d="M53.7279 72.2053H53.1316C53.0874 72.2053 53.045 72.2229 53.0137 72.2542C52.9825 72.2854 52.9649 72.3278 52.9649 72.372V76.0757C52.9649 76.0975 52.9692 76.1191 52.9776 76.1392C52.986 76.1593 52.9983 76.1776 53.0138 76.1929C53.0293 76.2082 53.0477 76.2203 53.0679 76.2285C53.0881 76.2367 53.1098 76.2408 53.1316 76.2405H53.7279C53.7497 76.2408 53.7713 76.2367 53.7915 76.2285C53.8117 76.2203 53.8301 76.2082 53.8456 76.1929C53.8611 76.1776 53.8734 76.1593 53.8818 76.1392C53.8902 76.1191 53.8945 76.0975 53.8945 76.0757V72.3702C53.8945 72.326 53.877 72.2836 53.8457 72.2523C53.8145 72.2211 53.7721 72.2035 53.7279 72.2035" fill="#68B82B"/>
<path d="M57.8464 72.2053H57.2501C57.2059 72.2053 57.1635 72.2229 57.1323 72.2542C57.101 72.2854 57.0834 72.3278 57.0834 72.372V74.5776L55.3834 72.2794L55.3705 72.2628H54.726C54.7042 72.2628 54.6827 72.2671 54.6625 72.2755C54.6424 72.2839 54.6242 72.2962 54.6088 72.3117C54.5935 72.3272 54.5814 72.3456 54.5732 72.3658C54.5651 72.386 54.561 72.4076 54.5612 72.4294V76.1331C54.5612 76.1768 54.5786 76.2188 54.6095 76.2497C54.6404 76.2806 54.6823 76.2979 54.726 76.2979H55.3242C55.3681 76.2979 55.4102 76.2806 55.4414 76.2498C55.4726 76.2189 55.4904 76.177 55.4909 76.1331V73.9294L57.1927 76.2294C57.2046 76.2452 57.219 76.2589 57.2353 76.2702H57.2446H57.2557C57.2698 76.2721 57.2841 76.2721 57.2983 76.2702H57.8464C57.8682 76.2704 57.8898 76.2663 57.91 76.2581C57.9303 76.25 57.9486 76.2379 57.9641 76.2226C57.9796 76.2072 57.992 76.189 58.0004 76.1689C58.0088 76.1487 58.0131 76.1271 58.0131 76.1053V72.3702C58.0131 72.3483 58.0088 72.3266 58.0004 72.3064C57.992 72.2862 57.9797 72.2678 57.9643 72.2523C57.9488 72.2368 57.9304 72.2246 57.9102 72.2162C57.89 72.2078 57.8683 72.2035 57.8464 72.2035" fill="#68B82B"/>
<path d="M52.2909 75.3202H50.6668V72.3702C50.6668 72.326 50.6492 72.2836 50.618 72.2523C50.5867 72.2211 50.5443 72.2035 50.5001 72.2035H49.9038C49.8596 72.2035 49.8173 72.2211 49.786 72.2523C49.7547 72.2836 49.7372 72.326 49.7372 72.3702V76.0739C49.7375 76.1166 49.754 76.1577 49.7835 76.1887C49.8145 76.2181 49.8555 76.2347 49.8983 76.235H52.2909C52.3348 76.2345 52.3767 76.2167 52.4075 76.1855C52.4384 76.1543 52.4557 76.1122 52.4557 76.0683V75.4702C52.4557 75.4264 52.4383 75.3845 52.4074 75.3536C52.3765 75.3227 52.3346 75.3053 52.2909 75.3053" fill="#68B82B"/>
<path d="M61.1409 73.135C61.1627 73.1352 61.1843 73.1311 61.2045 73.123C61.2248 73.1148 61.2431 73.1027 61.2586 73.0874C61.2741 73.072 61.2865 73.0538 61.2949 73.0337C61.3033 73.0135 61.3076 72.992 61.3076 72.9702V72.3702C61.3076 72.326 61.29 72.2836 61.2588 72.2523C61.2275 72.2211 61.1851 72.2035 61.1409 72.2035H58.7539C58.7107 72.2037 58.6694 72.221 58.6391 72.2516C58.6101 72.2828 58.5942 72.3239 58.5946 72.3665V76.0702C58.5944 76.0914 58.5983 76.1125 58.6063 76.1322C58.6142 76.1519 58.626 76.1698 58.6409 76.185C58.6713 76.2156 58.7126 76.2329 58.7557 76.2331H61.1428C61.187 76.2331 61.2294 76.2156 61.2606 76.1843C61.2919 76.1531 61.3094 76.1107 61.3094 76.0665V75.4683C61.3094 75.4465 61.3051 75.4249 61.2967 75.4048C61.2883 75.3847 61.276 75.3664 61.2605 75.3511C61.245 75.3358 61.2266 75.3237 61.2064 75.3155C61.1862 75.3073 61.1646 75.3033 61.1428 75.3035H59.5131V74.6757H61.1372C61.1814 74.6757 61.2238 74.6582 61.255 74.6269C61.2863 74.5956 61.3039 74.5533 61.3039 74.509V73.9128C61.3039 73.8686 61.2863 73.8262 61.255 73.7949C61.2238 73.7636 61.1814 73.7461 61.1372 73.7461H59.5131V73.1183L61.1409 73.135Z" fill="#68B82B"/>
</g>
<rect x="81" y="200" width="46" height="18" rx="1" fill="#EEEFF4"/>
<rect x="-3" y="200" width="84" height="18" rx="1" fill="#F8F8F8"/>
</g>
<rect x="1" y="1" width="109" height="217" rx="8" stroke="#D9DBE1"/>
<path d="M34.0227 8.03922C32.3725 6.94359 33.1482 4.37305 35.1289 4.37305H94.3475C96.1885 4.37305 97.0517 6.65022 95.6732 7.87055L91.3012 11.741C90.9355 12.0648 90.4639 12.2435 89.9755 12.2435H40.9583C40.5647 12.2435 40.1799 12.1274 39.852 11.9097L34.0227 8.03922Z" fill="white"/>
<path d="M71.2941 8.87045C71.2941 9.49141 70.8696 9.9948 70.3458 9.9948C69.8221 9.9948 69.3975 9.49141 69.3975 8.87045C69.3975 8.24948 69.8221 7.74609 70.3458 7.74609C70.8696 7.74609 71.2941 8.24948 71.2941 8.87045Z" fill="#969BAB"/>
<rect x="40" y="7.74609" width="26.5526" height="1.12435" rx="0.562176" fill="#969BAB"/>
<rect x="25" y="144" width="53" height="52" rx="6" stroke="#EEEFF4"/>
<rect x="32" y="149" width="40" height="4" rx="1" fill="#EEEFF4"/>
<rect x="32" y="158" width="40" height="4" rx="1" fill="#EEEFF4"/>
<rect x="32" y="167" width="40" height="4" rx="1" fill="#EEEFF4"/>
<rect x="32" y="176" width="40" height="4" rx="1" fill="#EEEFF4"/>
<rect x="32" y="185" width="21" height="4" rx="1" fill="#EEEFF4"/>
<circle cx="14" cy="150" r="6" fill="#EEEFF4"/>
<defs>
<linearGradient id="paint0_linear" x1="55.5" y1="17" x2="55.5" y2="134.094" gradientUnits="userSpaceOnUse">
<stop stop-color="#E1FFDC"/>
<stop offset="1" stop-color="#C1F1B9"/>
</linearGradient>
<clipPath id="clip0">
<rect x="1" y="1" width="109" height="217" rx="8" fill="white"/>
</clipPath>
<clipPath id="clip1">
<rect width="25" height="25" fill="white" transform="translate(43.0001 62.1942)"/>
</clipPath>
</defs>
</svg>
