<svg xmlns="http://www.w3.org/2000/svg" width="32" height="32" fill="currentColor" viewBox="0 0 32 32">
  <path fill-rule="evenodd" d="M4.25 8A3.75 3.75 0 0 1 8 4.25h3A3.75 3.75 0 0 1 14.75 8v3A3.75 3.75 0 0 1 11 14.75H8A3.75 3.75 0 0 1 4.25 11V8Zm13 0A3.75 3.75 0 0 1 21 4.25h3A3.75 3.75 0 0 1 27.75 8v3A3.75 3.75 0 0 1 24 14.75h-3A3.75 3.75 0 0 1 17.25 11V8Zm-13 13A3.75 3.75 0 0 1 8 17.25h3A3.75 3.75 0 0 1 14.75 21v3A3.75 3.75 0 0 1 11 27.75H8A3.75 3.75 0 0 1 4.25 24v-3Zm13 0A3.75 3.75 0 0 1 21 17.25h3A3.75 3.75 0 0 1 27.75 21v3A3.75 3.75 0 0 1 24 27.75h-3A3.75 3.75 0 0 1 17.25 24v-3Z" clip-rule="evenodd"/>
  <path d="M5 7.83A2.83 2.83 0 0 1 7.83 5h3.064a2.83 2.83 0 0 1 2.83 2.83v3.064a2.83 2.83 0 0 1-2.83 2.83H7.83A2.83 2.83 0 0 1 5 10.893V7.83Zm13.277 0A2.83 2.83 0 0 1 21.107 5h3.063A2.83 2.83 0 0 1 27 7.83v3.064a2.83 2.83 0 0 1-2.83 2.83h-3.064a2.83 2.83 0 0 1-2.83-2.83V7.83ZM5 21.106a2.83 2.83 0 0 1 2.83-2.83h3.064a2.83 2.83 0 0 1 2.83 2.83v3.064a2.83 2.83 0 0 1-2.83 2.83H7.83A2.83 2.83 0 0 1 5 24.17v-3.064Zm13.277 0a2.83 2.83 0 0 1 2.83-2.83h3.063a2.83 2.83 0 0 1 2.83 2.83v3.064A2.83 2.83 0 0 1 24.17 27h-3.064a2.83 2.83 0 0 1-2.83-2.83v-3.064Z"/>
</svg>
