<svg xmlns="http://www.w3.org/2000/svg" width="24" height="24" fill="currentColor" viewBox="0 0 24 24">
  <path d="M3 5a2 2 0 0 1 2-2h3a1 1 0 0 1 0 2H6.462l4.136 4.136a1 1 0 0 1-1.415 1.414L5 6.367V8a1 1 0 0 1-2 0V5Zm0 14a2 2 0 0 0 2 2h3a1 1 0 1 0 0-2H6.376l4.221-4.221a1 1 0 0 0-1.414-1.414L5 17.548V16a1 1 0 1 0-2 0v3Zm12 1a1 1 0 0 0 1 1h3a2 2 0 0 0 2-2v-3a1 1 0 1 0-2 0v1.524l-4.16-4.16a1 1 0 1 0-1.414 1.415L17.647 19H16a1 1 0 0 0-1 1Zm6-15a2 2 0 0 0-2-2h-3a1 1 0 1 0 0 2h1.562l-4.136 4.136a1 1 0 0 0 1.414 1.414L19 6.39V8a1 1 0 1 0 2 0V5Z"/>
</svg>
