<svg width="62" height="40" viewBox="0 0 62 40" fill="none" xmlns="http://www.w3.org/2000/svg">
<path fill-rule="evenodd" clip-rule="evenodd" d="M19.7517 22.3582C19.7717 22.0796 20.0326 21.8666 20.3344 21.8825L29.649 22.3726C29.9491 22.3884 30.177 22.6245 30.1596 22.9016L29.6244 31.432C29.6069 31.7107 29.3479 31.9257 29.0459 31.9122C28.7439 31.8986 28.5132 31.6617 28.5307 31.3829L28.9904 24.0568L20.1238 31.2944C17.4012 33.5168 13.8277 34.6565 10.1905 34.4651C6.55354 34.2737 3.14884 32.7671 0.724856 30.2766C0.523681 30.0699 0.543743 29.7503 0.769666 29.5628C0.995589 29.3752 1.34182 29.3908 1.543 29.5975C3.77587 31.8917 6.91277 33.2797 10.263 33.456C13.6131 33.6323 16.9002 32.5826 19.4022 30.5402L28.257 23.3122L20.262 22.8915C19.9601 22.8756 19.7316 22.6368 19.7517 22.3582Z" fill="white"/>
<path d="M16.8252 0.427595C15.9978 0.148566 15.1999 0.196682 14.4275 0.62579C14.2964 0.688107 14.1474 0.749071 13.9998 0.792087C13.612 0.907243 13.2561 1.07896 13.1657 1.55952C13.3699 1.48467 13.4413 1.25539 13.7133 1.2398L13.1714 1.72241C13.0942 1.78879 13.017 1.85517 13.0614 1.98488C13.0891 2.09528 13.1928 2.15725 13.2991 2.18332C13.4234 2.21075 13.5172 2.16367 13.6137 2.0807C14.0797 1.64652 14.6205 1.41655 15.2735 1.37555C15.3991 1.38503 15.5414 1.41381 15.667 1.42329C16.0273 1.43242 16.0964 1.47374 16.1245 1.81883C16.2018 2.70916 16.2252 3.59543 15.9241 4.47528C15.6231 5.35513 15.1991 6.1896 14.7061 6.98276C14.5022 7.2923 14.279 7.61844 14.0918 7.94728C13.7379 8.57043 13.384 9.19357 12.9431 9.77405C12.5821 10.2522 12.3427 10.7938 12.1558 11.3573C12.0816 11.6225 12.042 11.9083 12.277 12.1427C12.3627 12.2033 12.3007 12.3069 12.2069 12.354C12.1324 12.3845 12.0593 12.397 11.9848 12.4275C11.9116 12.44 11.891 12.4746 11.8869 12.5284C11.8815 12.6002 11.894 12.6733 11.9824 12.6981C12.017 12.7187 12.0529 12.7214 12.1067 12.7255C12.5307 12.8477 12.953 12.7532 13.3713 12.7126C13.6639 12.6625 13.951 12.6841 14.2342 12.7596C14.5864 12.8765 14.9288 12.8842 15.2739 12.8561C15.8757 12.7752 16.4612 12.9096 17.0369 12.935C17.3434 12.94 17.6418 13.0528 17.9286 12.8398C17.9865 12.79 18.1135 12.7815 18.1037 12.6725C18.0952 12.5455 17.9696 12.536 17.8825 12.4933C17.8134 12.452 17.7376 12.5004 17.6658 12.495C17.5222 12.4842 17.3939 12.5106 17.2557 12.428C17.0484 12.304 16.833 12.2878 16.5983 12.2881C16.2559 12.2804 15.9234 12.3816 15.5878 12.2841C15.2881 12.1893 14.9663 12.147 14.6598 12.1419C14.3713 12.1382 14.1088 12.0281 13.841 11.9899C13.8643 11.9194 13.8657 11.9015 13.8684 11.8656C14.1603 11.3461 14.4508 10.8445 14.7759 10.3636C15.0171 10.0388 15.2236 9.69337 15.3086 9.28461C15.3347 9.17827 15.394 9.11053 15.4725 9.0262C16.0763 8.43996 16.4563 7.71048 16.8542 6.98235C17.0662 6.56511 17.2602 6.14652 17.4363 5.72658C17.5944 5.30528 17.7526 4.88398 17.9466 4.46539C18.1627 3.99431 18.311 3.46397 18.3157 2.92279C18.3055 2.57905 18.3133 2.23666 18.3031 1.89292C18.3069 1.60439 18.2567 1.31179 18.1886 1.01783C18.1233 0.687981 17.7535 0.804491 17.6261 0.578271C17.5597 0.501059 17.448 0.546783 17.3735 0.577264C17.3555 0.57591 17.3542 0.593859 17.3362 0.592505C17.3308 0.664301 17.3806 0.72221 17.4124 0.778764C17.4456 0.817371 17.5327 0.860039 17.4886 0.965025C17.3352 0.845144 17.1598 0.777758 17.0836 0.591497C17.0365 0.497689 16.9302 0.471617 16.8252 0.427595ZM17.6407 1.10285C17.9309 1.32331 17.8168 1.63962 17.831 1.92952C17.7975 1.65622 17.6908 1.39546 17.6407 1.10285ZM14.1864 0.950572C14.0512 1.06674 13.9381 1.13041 13.8084 1.17478C13.9476 1.00477 13.9476 1.00477 14.1864 0.950572ZM16.3701 1.67489C16.6586 1.67861 16.729 1.70197 16.7514 1.88417C16.8032 2.39351 16.8012 2.89879 16.6336 3.44573C16.5381 3.27607 16.5117 3.14772 16.5225 3.00413C16.5648 2.6824 16.5174 2.3539 16.3968 2.03793C16.3525 1.90823 16.3426 1.79918 16.3701 1.67489Z" fill="white"/>
<path d="M24.8676 8.43527C24.8713 8.14673 24.8557 7.87479 24.8953 7.58896C24.9871 7.09045 24.7697 6.62277 24.5109 6.22417C24.2383 5.77038 23.7879 5.51979 23.2521 5.44327C23.0547 5.42837 22.8366 5.44802 22.6445 5.36133C22.61 5.34067 22.5561 5.33661 22.5507 5.40841C22.5067 5.51339 22.399 5.50527 22.3106 5.48055C22.1491 5.46836 21.9848 5.49208 21.8192 5.53374C21.3803 5.60893 21.3654 5.80637 20.9668 6.06512C20.9225 5.93542 20.9113 5.84432 20.9194 5.73662C20.9844 4.87507 20.9072 3.98474 20.8824 3.11642C20.8834 2.86378 20.8641 2.88037 20.6155 2.82552C20.5092 2.79944 20.2911 2.81909 20.4882 2.5993C20.5475 2.53156 20.4784 2.49025 20.4438 2.46959C20.3927 2.42963 20.3029 2.42286 20.347 2.31787C20.3842 2.30263 20.4394 2.28875 20.474 2.3094C21.025 2.42318 21.5746 2.5549 22.1253 2.43398C22.6983 2.49525 23.2906 2.53994 23.8497 2.54602C24.3371 2.54668 24.7814 2.39968 25.2589 2.2913C25.1028 2.20731 25.0929 2.09827 25.1729 1.99599C25.2362 1.87441 25.2277 1.74741 25.1613 1.6702C25.059 1.59028 25.0286 1.51577 25.056 1.39149C25.1 1.2865 25.0336 1.20929 24.9287 1.16526C24.5944 1.04979 24.2422 0.932967 23.8818 0.923835C23.5754 0.918765 23.2648 0.967542 22.9624 0.908626C22.7483 0.874428 22.5357 0.822281 22.3189 0.823982C21.5278 0.782354 21.1123 0.787108 20.3032 0.744125C20.2135 0.737355 20.1224 0.748534 20.0797 0.835571C20.0384 0.904658 19.9666 0.899242 19.9114 0.91313C19.801 0.940903 19.692 0.950728 19.6093 1.0889C19.6605 1.12886 19.7102 1.18677 19.7793 1.22809C19.8803 1.32596 19.9439 1.43907 19.9345 1.56471C19.9294 1.8712 19.9948 2.20105 19.9511 2.54073C19.8854 2.9329 19.8556 3.32777 19.8092 3.70335C19.7452 4.31226 19.7158 4.94183 19.6173 5.53009C19.5282 5.9927 19.493 6.45937 19.4219 6.92334C19.3904 7.10147 19.4348 7.23118 19.4778 7.37883C19.5069 7.47129 19.5872 7.6037 19.663 7.55527C19.9252 7.43063 20.1131 7.57117 20.3038 7.67581C20.399 7.61078 20.425 7.50444 20.4318 7.4147C20.4728 7.11092 20.7169 6.98493 20.9472 6.80374C21.1802 6.58665 21.2269 6.44577 21.5815 6.292C21.7305 6.23104 21.8961 6.18938 22.0715 6.25677C22.4915 6.43286 22.7171 6.79284 22.8474 7.21786C22.9182 7.47591 22.9118 7.80035 22.8349 8.10142C22.7581 8.40249 22.7517 8.72693 22.7645 9.03477C22.7673 9.95558 22.7328 10.8916 22.4138 11.7701C22.345 11.9635 22.2583 12.1555 22.0514 12.2663C21.8611 12.3963 21.7219 12.5663 21.5841 12.7184C21.5428 12.7875 21.5015 12.8566 21.427 12.8871C20.8116 13.1475 20.4371 12.8485 20.1079 12.4265C19.9765 12.2542 19.863 12.0831 19.6943 11.926C19.6598 11.9054 19.5934 11.8281 19.5548 11.8613C19.4363 11.9968 19.3933 11.8491 19.3242 11.8078C19.2731 11.7679 19.2246 11.692 19.1542 11.6686C19.0505 11.6067 18.9913 11.6744 18.9652 11.7807C18.9446 11.8153 18.9584 11.8705 18.9737 11.9077C19.0817 12.1506 19.1332 12.4252 19.3544 12.6044C19.6764 12.8814 20.0178 13.1418 20.3798 13.3677C20.9146 13.6968 21.0775 13.6911 21.6918 13.6832C21.9086 13.6815 22.1321 13.5901 22.3488 13.5884C22.5297 13.584 22.7105 13.5796 22.8595 13.5186L23.5839 13.2483C23.8061 13.1748 24.0529 13.013 24.1271 12.7478C24.1847 12.4633 24.2602 12.1802 24.4407 11.9411C24.5013 11.8554 24.5094 11.7477 24.5355 11.6414C24.6692 10.5864 24.8761 9.51898 24.8676 8.43527ZM22.9603 9.78963C23.0368 9.25387 22.8621 8.69915 23.1181 8.17693C23.1851 8.72353 23.0368 9.25387 22.9603 9.78963Z" fill="white"/>
<path d="M32.7358 1.50151C32.5715 1.52522 32.493 1.60955 32.4283 1.74908C32.1076 2.41083 31.8035 3.09188 31.4649 3.75228C30.8702 4.9349 30.3806 6.16154 29.8384 7.36617C29.4476 8.23925 29.1093 9.13433 28.8235 10.0514C28.7727 10.2462 28.7372 10.4781 28.6339 10.6509C28.1947 11.4481 27.9489 12.314 27.6326 13.1566C27.5845 13.3155 27.5737 13.4591 27.5794 13.622C27.5727 13.7117 27.5825 13.8208 27.6888 13.8468C27.7786 13.8536 27.8517 13.8411 27.9455 13.794C28.1138 13.7164 28.1579 13.6114 28.2185 13.5258C28.4924 13.0049 28.6089 12.418 28.8649 11.8958C29.2229 11.2188 29.3529 10.4524 29.6776 9.73679C29.9336 9.21457 30.191 8.6744 30.3959 8.11222C30.5113 7.77796 30.678 7.48366 30.7934 7.1494C30.9241 6.85239 31.0383 6.53607 31.1703 6.22112C31.4043 5.75139 31.6908 5.30367 31.8723 4.81193C31.9177 4.689 31.9285 4.5454 31.9919 4.42382C32.2231 3.98999 32.3853 3.51485 32.5834 3.04241C32.7128 2.76335 32.8601 2.48565 32.9024 2.16392C32.9366 1.94988 32.9183 1.71384 32.7358 1.50151ZM28.7142 1.45084C28.1507 1.26392 27.4856 1.46646 27.2211 1.86168C27.0792 2.06759 26.9359 2.29145 26.8272 2.53597C26.4683 3.4656 26.4131 4.4362 26.5554 5.4217C26.5889 5.69499 26.7342 5.92257 26.8975 6.1515C27.0786 6.38178 27.3577 6.51114 27.5582 6.72482C27.756 6.97441 28.0279 6.95882 28.2972 6.97913C28.3591 6.8755 28.181 6.84401 28.2596 6.75968C28.5772 6.85585 28.5938 6.87515 28.8187 6.76576C29.1567 6.59269 29.4421 6.39762 29.6003 5.97632C29.9084 5.24142 30.0192 4.49162 30.0415 3.71711C30.0672 3.37607 30.0018 3.04622 29.9737 2.70113C29.9246 2.15589 29.6824 1.7766 29.1369 1.59103L28.7142 1.45084ZM28.7108 1.97407C29.0952 2.38214 29.0214 2.88201 29.0387 3.37069C29.0418 3.56948 29.0103 3.74762 28.9954 3.94506C28.9713 4.50283 28.8562 5.07178 28.8142 5.6282C28.7939 5.89744 28.6659 6.15855 28.437 6.32179C28.2274 6.46844 28.052 6.40105 27.9605 6.17754C27.8677 5.97197 27.8687 5.71933 27.758 5.51242C27.7441 5.45721 27.7468 5.42132 27.7688 5.36882C27.8775 5.12431 27.8965 4.87302 27.8988 4.60243C27.9103 3.97151 28.0474 3.35007 28.1141 2.70526C28.1331 2.45397 28.2418 2.20945 28.3671 1.98424C28.4717 1.79357 28.5601 1.81829 28.7108 1.97407ZM32.2128 8.19513C31.6994 8.30081 31.2842 8.54025 31.0129 9.02522C30.5737 9.82244 30.3804 10.7104 30.2947 11.6065C30.2456 12.018 30.2683 12.4349 30.4194 12.8253C30.5068 13.1027 30.6314 13.3648 30.8306 13.5965C30.9122 13.7109 31.0612 13.65 31.0903 13.7424C31.1858 13.9121 31.3294 13.9229 31.4882 13.971C32.3735 14.2002 32.9678 13.7396 33.3119 13.0074C33.4866 12.6054 33.4846 12.154 33.6055 11.748C33.8527 10.864 33.7741 9.99167 33.4594 9.13758C33.3859 8.91542 33.2379 8.72374 32.9934 8.61504C32.8539 8.55036 32.753 8.45249 32.6534 8.33667C32.5372 8.20155 32.3784 8.15347 32.2128 8.19513ZM32.3479 9.03568C32.4197 9.04109 32.4516 9.09765 32.4668 9.1349C32.6416 9.68962 32.8356 10.2277 32.791 10.8201C32.7598 11.2329 32.6928 11.643 32.6437 12.0545L32.6234 12.3237C32.6322 12.6854 32.3098 13.1304 31.9027 13.2622C31.9163 13.0827 31.9464 12.9225 31.7104 12.9408L31.5234 12.5476C31.5095 12.4924 31.497 12.4193 31.5011 12.3654C31.5153 11.6986 31.4397 11.025 31.5989 10.3511C31.6784 10.0141 31.8285 9.70048 31.9785 9.38688C32.0445 9.2294 32.2128 9.15184 32.3479 9.03568ZM31.2727 10.1279C31.1891 10.5187 31.162 10.8777 30.9886 11.2617C30.8985 11.0203 31.0211 10.831 31.0513 10.6708C31.0814 10.5106 31.0438 10.2911 31.2727 10.1279ZM32.2648 13.488C32.2953 13.5625 32.2401 13.5764 32.2028 13.5917C32.1656 13.6069 32.1103 13.6208 32.0772 13.5822C32.1337 13.5504 32.175 13.4813 32.2648 13.488Z" fill="white"/>
<path d="M40.919 7.1551C40.7879 7.21742 40.6555 7.29769 40.5079 7.3407C39.8234 7.55984 39.4431 8.05463 39.1597 8.70114C38.9149 9.31446 38.7046 9.94844 38.6545 10.6126C38.5658 11.3099 38.4784 11.9892 38.5872 12.7014C38.6915 13.2328 38.9076 13.7184 39.2574 14.1058C39.5588 14.4174 39.8975 14.7137 40.2582 14.9575C40.4986 15.1201 40.732 15.1377 40.9748 15.0296C41.2728 14.9077 41.6027 14.8423 41.9034 14.6845C41.9779 14.654 42.091 14.5903 42.1946 14.6523C42.1465 14.8111 41.7171 14.7607 41.9813 15.0875C42.2214 15.0153 42.4767 14.9805 42.6379 14.758C42.8404 14.4664 43.0223 14.2093 43.2069 13.9164C43.43 13.5902 43.5993 13.26 43.6125 12.8458C43.6234 12.7023 43.6728 12.5255 43.7541 12.4052C43.9759 12.0971 43.9478 11.752 43.9376 11.4082C43.9122 11.0272 43.8509 10.6435 43.8793 10.2666C43.8749 10.0858 43.8705 9.90492 43.8481 9.72272C43.7648 9.39151 43.7739 9.03118 43.5623 8.72639C43.3658 8.45886 43.1488 8.22587 43.0461 7.91126C43.0488 7.87536 43.0156 7.83675 42.9977 7.8354C42.6052 7.53502 42.21 7.27054 41.6854 7.28512C41.6481 7.30036 41.5777 7.277 41.5736 7.33084C41.5161 7.61532 41.346 7.47614 41.2038 7.44736C41.2119 7.33966 41.3237 7.29394 41.3305 7.20419C41.1936 7.10362 41.068 7.09414 40.919 7.1551ZM41.7528 8.06641C41.9404 7.97225 42.0965 8.05624 42.2486 8.19407C42.5361 8.45042 42.654 8.80228 42.6435 9.18057L42.5657 10.691C42.4922 11.4255 42.4008 12.1587 42.2735 12.8892C42.1831 13.3698 42.0043 13.8256 41.6334 14.1948C41.5908 14.2818 41.4763 14.3635 41.3121 14.3872C41.2538 14.2023 41.2149 14.0008 40.9568 14.0715C40.8464 14.0993 40.8352 14.0082 40.8047 13.9337C40.4891 13.3323 40.4108 12.6946 40.5148 12.0345C40.5476 11.8384 40.5459 11.6217 40.5608 11.4243C40.5439 11.1703 40.5808 10.9203 40.637 10.6538C40.7179 10.2989 40.6925 9.91789 40.7016 9.55756C40.6874 9.26767 40.7948 9.0411 40.8855 8.79523C40.9583 8.54801 41.1002 8.3421 41.173 8.09487C41.3677 8.14567 41.5665 8.14261 41.7528 8.06641ZM41.432 15.1905C41.494 15.0868 41.5478 15.0909 41.6044 15.0591C41.6955 15.0479 41.752 15.016 41.7632 15.1071C41.7923 15.1996 41.7344 15.2494 41.6613 15.2619C41.5895 15.2565 41.5011 15.2318 41.432 15.1905Z" fill="white"/>
<path d="M54.2842 3.74082C54.1792 3.6968 54.0509 3.72322 53.9405 3.75099C53.6093 3.83431 53.4576 3.93118 53.125 4.03245C52.8297 4.11847 52.5496 4.24176 52.401 4.53741C52.3376 4.65899 52.2384 4.77787 52.1433 4.84289C51.8591 5.02002 51.6607 5.25777 51.5313 5.53683C51.274 6.07699 51.0884 6.62258 50.9899 7.21084C50.9489 7.51462 50.9066 7.83634 50.8463 8.15672C50.2113 8.19907 50.0139 8.18418 49.6342 8.19164C49.2008 8.19504 48.7839 8.21775 48.0507 8.12633C48.0656 7.92889 48.0239 7.76329 48.0567 7.5672C48.0896 7.37112 48.0865 7.17233 48.1001 6.99284C48.1383 6.72496 48.3202 6.46791 48.2494 6.20985C48.2203 6.1174 48.3564 5.74859 48.3977 5.6795C48.5464 5.38385 48.861 5.28123 49.1576 5.17725C49.6765 4.99977 50.1743 5.57886 50.4723 5.45694C50.7825 5.17347 50.0652 4.63197 50.5499 4.66853C50.7114 4.68072 50.3226 4.0918 50.1776 4.09892C49.9968 4.10333 49.8586 4.0207 49.5796 3.89134C49.458 3.82802 49.1999 3.89881 49.0922 3.89068C48.9486 3.87985 48.823 3.87037 48.6947 3.89679C48.4918 3.95369 48.2889 4.01059 48.0901 4.01365C47.9286 4.00146 47.8321 4.08444 47.7522 4.18672C47.4379 4.52403 47.1236 4.86134 46.8785 5.23997C46.446 5.94745 46.0674 6.65899 46.1115 7.51071C46.1186 7.65566 46.123 7.8365 46.0404 7.97468C45.5144 8.00721 45.3461 8.08477 44.7901 8.27748C44.5544 8.53047 45.2947 8.76683 45.1223 8.89823C44.7969 9.14445 45.589 8.93344 45.9439 9.01437C45.8772 9.65918 45.8592 9.65782 45.7925 10.3026C45.6917 11.1615 45.7076 11.6681 45.7144 12.5351C45.7161 12.7518 45.7459 13.3137 45.6745 13.5429C45.6264 13.7018 45.6576 14.2457 45.6183 14.7662C45.5956 15.306 45.9207 15.7818 46.1754 16.2342C46.1907 16.2715 46.2239 16.3101 46.2764 16.3321C46.4172 16.3788 46.7745 16.1892 46.824 16.0124C46.8541 15.8522 46.9035 15.6754 46.9377 15.4614C47.0691 15.6338 46.9811 15.8437 47.1677 16.0022C47.3424 15.6002 47.212 15.1752 47.3536 14.7346C47.3566 14.9334 47.3638 15.0784 47.3529 15.2219C47.3434 15.3476 47.3878 15.4773 47.359 15.6195C47.3316 15.7438 47.2849 15.8847 47.4203 16.0032C47.4823 15.8996 47.4007 15.7851 47.4793 15.7008C47.635 15.5501 47.632 15.3513 47.6289 15.1525C47.5991 14.5907 47.659 14.0356 47.6739 13.8382C47.7024 13.4612 47.6668 12.7365 47.767 12.365C47.8425 12.0819 47.8655 11.7767 47.8886 11.4716C47.9143 11.1306 47.9593 10.773 47.985 10.4319C48.0406 9.69602 48.0043 9.45862 48.0341 9.06374C48.0947 8.97806 48.1665 8.98347 48.2383 8.98889C48.8858 9.01969 48.9451 8.95195 49.5967 8.9289L49.9225 8.91738C50.0481 8.92686 50.0163 8.8703 50.3214 8.89332C50.465 8.90415 50.6706 8.81135 50.7935 8.85673C50.8186 9.00303 50.8077 9.14662 50.7817 9.25296C50.6696 10.0207 50.6086 10.8284 50.5684 11.6016C50.5264 12.158 50.4485 12.7117 50.5515 13.261C50.628 13.682 50.6027 14.2577 50.4818 14.6637C50.3788 15.0711 50.3297 15.4826 50.3166 15.8968C50.3071 16.0224 50.3155 16.1494 50.3599 16.2791C50.4652 16.5579 50.6451 16.8061 50.6939 17.1166C50.7077 17.1718 50.7589 17.2118 50.8127 17.2159C50.9204 17.224 51.0108 16.7434 51.0786 16.8027C51.1795 16.9006 51.2286 17.4458 51.3583 17.4014C51.5087 17.3225 51.6093 17.1857 51.7403 17.1234C52.019 17.018 52.0366 16.7847 52.0888 16.572C52.255 16.043 52.2432 15.4826 52.339 14.9302C52.38 14.6264 52.487 14.1652 52.51 13.86C52.5763 12.9805 52.6606 12.1024 52.7104 11.2036C52.7429 10.7728 52.8292 10.3461 52.7899 9.90989C52.7618 9.5648 52.6978 9.217 52.798 8.84549C53.0134 8.86173 53.2481 8.86139 53.4675 8.82379C53.6497 8.80143 53.8292 8.81497 53.9921 8.80921C54.1384 8.78414 54.2583 8.63073 54.4283 8.76991C54.4974 8.81122 54.7802 8.65205 54.8228 8.56501C54.8655 8.47797 54.6488 8.47967 54.6542 8.40788C54.7094 8.39399 54.7632 8.39805 54.8184 8.38417C54.9441 8.39364 55.1182 8.47898 55.1137 8.29814C55.1246 8.15454 54.941 8.19485 54.836 8.15083L54.8001 8.14812C54.5075 8.19825 54.241 8.14204 53.9538 8.12038C53.6487 8.09736 53.4113 8.1336 53.0483 8.16037C52.9751 8.1729 52.9006 8.20338 52.8136 8.16072C52.8298 7.94533 52.8474 7.71199 52.883 7.48001C52.9801 6.9097 53.1068 6.66654 53.1505 6.32686C53.1627 6.16532 53.4424 5.80735 53.525 5.66917C53.6916 5.37487 53.8308 5.20486 54.1329 5.02909C54.5288 4.80624 55.5309 4.68327 55.3388 4.59658C55.0073 4.44521 55.6121 4.56304 55.518 4.37543C55.4225 4.20576 54.8606 4.23558 54.3374 4.23221C54.2118 4.22274 54.8755 4.03815 55.2139 4.09977C55.8187 4.2176 55.1942 3.88167 54.925 3.86136C54.6903 3.86171 54.4722 3.88136 54.2842 3.74082ZM47.7648 7.13C47.7485 7.34539 47.756 7.72503 47.6832 7.97225L47.6473 7.96955C47.5064 7.92281 47.5829 7.38705 47.711 7.12594L47.7648 7.13Z" fill="white"/>
</svg>
