<svg width="28" height="28" viewBox="0 0 28 28" fill="none" xmlns="http://www.w3.org/2000/svg">
<rect width="28" height="28" rx="2" fill="black" fill-opacity="0.5"/>
<path d="M3.84471 17.8515C3.57036 17.8515 3.36099 17.7757 3.21659 17.624C3.0722 17.4724 3 17.2594 3 16.9851V10.9747C3 10.4043 3.28518 10.1191 3.85554 10.1191H6.48713C7.33906 10.1191 7.99606 10.3357 8.45812 10.7689C8.92018 11.1949 9.15121 11.7905 9.15121 12.5558C9.15121 13.3211 8.92018 13.9203 8.45812 14.3535C7.99606 14.7867 7.33906 15.0033 6.48713 15.0033H4.67859V16.9851C4.67859 17.2594 4.60639 17.4724 4.462 17.624C4.32482 17.7757 4.11906 17.8515 3.84471 17.8515ZM4.67859 13.7037H6.20556C7.09359 13.7037 7.5376 13.3211 7.5376 12.5558C7.5376 11.8049 7.09359 11.4295 6.20556 11.4295H4.67859V13.7037Z" fill="#FFBA49"/>
<path d="M11.0362 17.8515C10.7619 17.8515 10.5525 17.7757 10.4081 17.624C10.2637 17.4724 10.1915 17.2594 10.1915 16.9851V10.9747C10.1915 10.4043 10.4767 10.1191 11.0471 10.1191H13.6787C14.5306 10.1191 15.1876 10.3249 15.6497 10.7364C16.1117 11.1479 16.3427 11.7219 16.3427 12.4583C16.3427 13.0287 16.1947 13.5052 15.8987 13.8878C15.6099 14.2633 15.1948 14.5196 14.6533 14.6567C15.036 14.7722 15.35 15.0502 15.5955 15.4906L16.2669 16.736C16.4186 17.0104 16.4474 17.2667 16.3536 17.5049C16.2597 17.7359 16.0323 17.8515 15.6713 17.8515C15.4331 17.8515 15.2381 17.8009 15.0865 17.6998C14.9349 17.5988 14.8049 17.4435 14.6966 17.2342L13.657 15.3173C13.5487 15.1152 13.4151 14.978 13.2563 14.9058C13.0975 14.8336 12.9098 14.7975 12.6932 14.7975H11.8701V16.9851C11.8701 17.2594 11.7979 17.4724 11.6535 17.624C11.5164 17.7757 11.3106 17.8515 11.0362 17.8515ZM11.8701 13.5846H13.3754C14.2779 13.5846 14.7291 13.2236 14.7291 12.5016C14.7291 11.7869 14.2779 11.4295 13.3754 11.4295H11.8701V13.5846Z" fill="#FFBA49"/>
<path d="M21.2205 17.8731C20.4696 17.8731 19.809 17.7107 19.2387 17.3858C18.6755 17.0537 18.2351 16.5952 17.9174 16.0104C17.607 15.4184 17.4518 14.7253 17.4518 13.9311C17.4518 13.137 17.607 12.4475 17.9174 11.8627C18.2351 11.2707 18.6755 10.8122 19.2387 10.4873C19.8018 10.1624 20.4624 10 21.2205 10C21.9785 10 22.6391 10.1624 23.2023 10.4873C23.7726 10.8122 24.213 11.2707 24.5235 11.8627C24.8412 12.4475 25 13.1334 25 13.9203C25 14.7145 24.8412 15.4076 24.5235 15.9996C24.213 16.5916 23.7726 17.0537 23.2023 17.3858C22.6391 17.7107 21.9785 17.8731 21.2205 17.8731ZM21.2205 16.4436C21.8558 16.4436 22.3504 16.2234 22.7041 15.783C23.0651 15.3354 23.2456 14.7181 23.2456 13.9311C23.2456 13.137 23.0687 12.5233 22.715 12.0901C22.3612 11.6497 21.863 11.4295 21.2205 11.4295C20.5924 11.4295 20.0978 11.6497 19.7368 12.0901C19.383 12.5233 19.2062 13.137 19.2062 13.9311C19.2062 14.7181 19.383 15.3354 19.7368 15.783C20.0978 16.2234 20.5924 16.4436 21.2205 16.4436Z" fill="#FFBA49"/>
</svg>
