<svg width="24" height="24" viewBox="0 0 24 24" fill="none" xmlns="http://www.w3.org/2000/svg">
<rect y="3" width="24" height="18" rx="5" fill="#18191F" fill-opacity="0.5"/>
<path d="M3.69113 14.9835C3.46666 14.9835 3.29535 14.9257 3.17721 14.8102C3.05907 14.6946 3 14.5323 3 14.3232V9.74278C3 9.30812 3.23333 9.09078 3.69999 9.09078H5.85311C6.55014 9.09078 7.08768 9.25585 7.46573 9.58597C7.84379 9.91059 8.03281 10.3645 8.03281 10.9477C8.03281 11.5309 7.84379 11.9876 7.46573 12.3177C7.08768 12.6479 6.55014 12.8129 5.85311 12.8129H4.37339V14.3232C4.37339 14.5323 4.31432 14.6946 4.19618 14.8102C4.08394 14.9257 3.91559 14.9835 3.69113 14.9835ZM4.37339 11.8226H5.62273C6.3493 11.8226 6.71258 11.5309 6.71258 10.9477C6.71258 10.3755 6.3493 10.0894 5.62273 10.0894H4.37339V11.8226Z" fill="#FFBA49"/>
<path d="M9.57511 14.9835C9.35064 14.9835 9.17933 14.9257 9.06119 14.8102C8.94305 14.6946 8.88398 14.5323 8.88398 14.3232V9.74278C8.88398 9.30812 9.11731 9.09078 9.58397 9.09078H11.7371C12.4341 9.09078 12.9717 9.24759 13.3497 9.56121C13.7278 9.87483 13.9168 10.3122 13.9168 10.8735C13.9168 11.3081 13.7957 11.6713 13.5535 11.9629C13.3172 12.249 12.9776 12.4443 12.5345 12.5488C12.8476 12.6369 13.1046 12.8487 13.3054 13.1843L13.8548 14.1334C13.9788 14.3425 14.0024 14.5378 13.9257 14.7194C13.8489 14.8955 13.6628 14.9835 13.3674 14.9835C13.1725 14.9835 13.013 14.945 12.889 14.8679C12.7649 14.7909 12.6586 14.6726 12.57 14.5131L11.7194 13.0523C11.6308 12.8982 11.5215 12.7937 11.3915 12.7387C11.2616 12.6836 11.108 12.6561 10.9308 12.6561H10.2574V14.3232C10.2574 14.5323 10.1983 14.6946 10.0802 14.8102C9.96793 14.9257 9.79957 14.9835 9.57511 14.9835ZM10.2574 11.7318H11.489C12.2274 11.7318 12.5966 11.4567 12.5966 10.9065C12.5966 10.3618 12.2274 10.0894 11.489 10.0894H10.2574V11.7318Z" fill="#FFBA49"/>
<path d="M17.9077 15C17.2933 15 16.7528 14.8762 16.2862 14.6286C15.8254 14.3755 15.4651 14.0261 15.2052 13.5805C14.9512 13.1293 14.8242 12.6011 14.8242 11.9959C14.8242 11.3906 14.9512 10.8652 15.2052 10.4195C15.4651 9.96836 15.8254 9.61898 16.2862 9.37139C16.7469 9.1238 17.2874 9 17.9077 9C18.5279 9 19.0684 9.1238 19.5291 9.37139C19.9958 9.61898 20.3561 9.96836 20.6101 10.4195C20.87 10.8652 21 11.3879 21 11.9876C21 12.5928 20.87 13.121 20.6101 13.5722C20.3561 14.0234 19.9958 14.3755 19.5291 14.6286C19.0684 14.8762 18.5279 15 17.9077 15ZM17.9077 13.9106C18.4275 13.9106 18.8321 13.7428 19.1216 13.4072C19.4169 13.066 19.5646 12.5956 19.5646 11.9959C19.5646 11.3906 19.4199 10.923 19.1304 10.5928C18.841 10.2572 18.4334 10.0894 17.9077 10.0894C17.3937 10.0894 16.9891 10.2572 16.6938 10.5928C16.4043 10.923 16.2596 11.3906 16.2596 11.9959C16.2596 12.5956 16.4043 13.066 16.6938 13.4072C16.9891 13.7428 17.3937 13.9106 17.9077 13.9106Z" fill="#FFBA49"/>
</svg>
