<svg width="62" height="40" viewBox="0 0 62 40" fill="none" xmlns="http://www.w3.org/2000/svg">
<path fill-rule="evenodd" clip-rule="evenodd" d="M18.1721 22.7914C18.1905 22.5196 18.4306 22.3119 18.7083 22.3273L27.2779 22.8054C27.554 22.8208 27.7637 23.0512 27.7477 23.3215L27.2553 31.6424C27.2392 31.9143 27.0009 32.124 26.723 32.1108C26.4452 32.0976 26.233 31.8664 26.2491 31.5945L26.672 24.4483L18.5145 31.5082C16.0096 33.676 12.7219 34.7877 9.37559 34.601C6.02944 34.4143 2.89702 32.9447 0.666888 30.5153C0.481801 30.3137 0.500259 30.002 0.708114 29.8191C0.91597 29.6361 1.23451 29.6513 1.4196 29.8529C3.4739 32.0908 6.35994 33.4448 9.44227 33.6167C12.5244 33.7887 15.5487 32.7647 17.8506 30.7725L25.9972 23.722L18.6416 23.3116C18.3639 23.2961 18.1537 23.0632 18.1721 22.7914Z" fill="white"/>
<path d="M14.5521 1.70487C14.4546 2.04048 14.3929 2.37881 14.3672 2.71984C15.5424 2.93485 16.792 3.11938 18.0803 3.27071C17.8549 6.73758 17.7296 8.87622 17.6674 9.70187C17.0737 9.67514 15.9429 9.58983 14.2557 9.46255C13.6634 9.41787 13.1442 9.36065 12.6829 9.25365C12.6988 8.80357 12.7368 8.301 12.7774 7.76253C13.7107 7.83294 14.4866 7.83732 15.105 7.77566L15.1808 6.77052C14.9295 6.75156 14.5899 6.70789 14.1232 6.67268C13.6372 6.65407 13.2051 6.63952 12.8447 6.63039L12.9206 5.62525C13.8539 5.69566 14.6118 5.69868 15.2302 5.63702L15.3074 4.61393C15.092 4.59768 14.7703 4.55536 14.3395 4.52286C13.8176 4.50154 13.3676 4.48564 13.0059 4.49446L13.144 2.66366L12.085 2.58377C11.8321 4.2615 11.6618 5.80105 11.5548 7.21902C11.5 8.42432 11.496 9.43488 11.5441 10.2328C12.2512 10.4305 13.1984 10.5561 14.3472 10.6428C16.501 10.8053 17.959 10.8611 18.7582 10.795C18.8635 10.117 18.9834 9.0069 19.0971 7.49918C19.2677 5.23761 19.3259 3.50909 19.291 2.29703C17.7748 2.05629 16.2007 1.86534 14.5521 1.70487ZM13.0684 11.3225C12.3159 12.2044 11.7277 13.0626 11.3037 13.8971C11.4822 14.1632 11.7559 14.3644 12.144 14.4839C12.9296 13.6406 13.5704 12.8045 14.0482 11.9741C13.8172 11.6859 13.4911 11.4627 13.0684 11.3225ZM17.087 12.1311C16.6921 12.1013 16.3138 12.0908 15.9162 12.0969C15.812 13.479 15.8174 14.3639 15.9658 14.7903C16.8632 14.858 17.6943 14.8485 18.4756 14.7811C18.5013 14.44 18.4871 14.1501 18.4342 13.8934C18.0021 13.8789 17.57 13.8643 17.1212 13.8305C17.1273 13.2714 17.1154 12.7109 17.087 12.1311ZM8.53018 5.43845C8.1712 5.41137 7.79156 5.41883 7.42987 5.42765C7.38925 5.96612 7.34998 6.48664 7.34661 7.00987C6.73499 6.98178 6.15927 6.9564 5.63604 6.95303C5.55206 7.10916 5.52057 7.28729 5.50703 7.46678C5.49078 7.68217 5.49654 7.84507 5.52161 7.99137C5.62389 8.07129 6.2328 8.13527 7.34564 8.21923C7.3565 9.03235 7.38802 9.81092 7.47745 10.5397C6.95287 10.5543 6.42829 10.5689 5.8844 10.6001C5.84784 11.0847 5.89256 11.4491 6.03514 11.7125C7.96652 11.7138 9.25173 11.6664 9.89213 11.5522C9.93886 11.4113 9.98695 11.2525 10.0018 11.0551C10.0127 10.9115 9.98896 10.7472 9.96389 10.6009C9.53312 10.5684 9.08304 10.5525 8.61501 10.5353C8.64852 9.85186 8.66813 9.11324 8.65592 8.31807C9.46362 8.379 9.933 8.37831 10.0448 8.33259C10.0861 8.2635 10.1162 8.10331 10.1352 7.85203C10.1528 7.61869 10.147 7.45579 10.1192 7.34539C9.72842 7.26175 9.22855 7.18794 8.61964 7.12396C8.58711 6.59802 8.55729 6.03619 8.53018 5.43845ZM5.96001 2.89791C5.89703 3.25419 5.86859 3.63111 5.84016 4.00804C7.23782 4.38425 8.754 4.62498 10.4053 4.74956C10.5069 4.36009 10.5712 3.98587 10.5983 3.62689C8.99779 3.30759 7.46366 3.0655 5.96001 2.89791Z" fill="white"/>
<path d="M26.3019 2.68151C25.4749 3.59389 24.8468 4.50321 24.3828 5.38882C24.5766 5.69225 24.8668 5.91271 25.2742 6.01565C26.1357 5.12393 26.8343 4.23797 27.3328 3.37302C27.0853 3.06553 26.7425 2.82306 26.3019 2.68151ZM34.8758 3.16585C34.5656 3.44932 34.3231 3.79205 34.1497 4.17609C34.8562 4.86118 35.6121 5.36948 36.434 5.72031C36.5719 5.56824 36.6918 5.41483 36.795 5.24211C36.9149 5.08869 37.0361 4.91732 37.1215 4.74325C36.353 4.1618 35.5985 3.63555 34.8758 3.16585ZM33.5101 5.71634C30.4313 6.56715 27.3584 7.58086 24.2732 8.75612C24.405 9.16318 24.5767 9.51911 24.7718 9.80459C27.8379 8.88062 30.8943 7.84761 33.9781 6.69031C33.8795 6.32185 33.7244 5.98523 33.5101 5.71634ZM30.2357 8.68243C30.1561 9.0194 30.1124 9.35907 30.0867 9.70011C31.2811 9.89852 32.6591 10.0566 34.2014 10.191C34.0301 11.9832 33.8876 13.6332 33.7559 15.1395C32.0687 15.0123 30.1674 14.8508 28.0688 14.6744L28.1419 13.7052C28.3021 13.7353 28.4995 13.7502 28.7328 13.7678C29.4688 13.8233 30.0099 13.828 30.3743 13.7833C30.4031 13.6411 30.4346 13.4629 30.4481 13.2834C30.4617 13.104 30.4393 12.9218 30.417 12.7396C30.058 12.7125 29.5388 12.6553 28.8927 12.6065C28.6414 12.5876 28.4246 12.5893 28.2272 12.5744L28.2881 11.7667C28.4663 11.7982 28.6816 11.8144 28.9509 11.8347C29.6868 11.8902 30.228 11.895 30.5744 11.8489C30.6032 11.7066 30.6333 11.5465 30.6469 11.367C30.6618 11.1695 30.6394 10.9873 30.6157 10.8231C30.2567 10.796 29.7555 10.7401 29.1093 10.6914C28.8222 10.6697 28.5695 10.6687 28.3721 10.6538L28.4587 9.50509C28.282 9.45565 28.0872 9.40486 27.8718 9.38861C27.6205 9.36966 27.4204 9.39066 27.2561 9.41437C27.0865 10.4666 26.9734 11.487 26.8976 12.4921C26.8005 14.0191 26.7771 15.0463 26.8249 15.6095C27.4961 15.8045 28.2984 15.9373 29.2677 16.0104C32.0318 16.2189 33.9026 16.3059 34.8786 16.2892C35.0398 15.11 35.1803 13.9654 35.2683 12.7987C35.3292 11.991 35.3827 10.8036 35.4632 9.2573C33.8905 9.0484 32.1355 8.86185 30.2357 8.68243ZM31.0553 1.88483C30.6784 1.85639 30.3001 1.84591 29.9384 1.85472C29.9066 2.75488 29.9564 3.7695 30.052 4.89588C29.7262 4.90741 29.421 4.88439 29.098 4.86002C29.0736 5.1831 29.0892 5.45504 29.1447 5.67585C29.4637 5.75406 29.8932 5.80451 30.4137 5.84378C30.8086 5.87357 31.0985 5.85933 31.322 5.76789C31.2779 3.95945 31.1779 2.65222 31.0553 1.88483Z" fill="white"/>
<path d="M43.8201 3.04634C42.9928 2.76732 42.1949 2.81543 41.4224 3.24454C41.2913 3.30686 41.1423 3.36782 40.9947 3.41084C40.6069 3.52599 40.251 3.69771 40.1606 4.17827C40.3648 4.10342 40.4363 3.87414 40.7082 3.85855L40.1664 4.34116C40.0891 4.40754 40.0119 4.47392 40.0563 4.60363C40.0841 4.71403 40.1877 4.776 40.294 4.80207C40.4183 4.8295 40.5121 4.78242 40.6087 4.69945C41.0746 4.26527 41.6155 4.0353 42.2684 3.9943C42.394 4.00378 42.5363 4.03256 42.6619 4.04204C43.0223 4.05117 43.0914 4.09249 43.1195 4.43758C43.1967 5.32791 43.2201 6.21418 42.9191 7.09403C42.618 7.97388 42.1941 8.80835 41.701 9.60151C41.4971 9.91105 41.274 10.2372 41.0867 10.566C40.7328 11.1892 40.3789 11.8123 39.938 12.3928C39.577 12.871 39.3376 13.4125 39.1507 13.9761C39.0765 14.2412 39.0369 14.5271 39.272 14.7614C39.3576 14.822 39.2957 14.9257 39.2019 14.9727C39.1274 15.0032 39.0542 15.0157 38.9797 15.0462C38.9066 15.0588 38.8859 15.0933 38.8818 15.1472C38.8764 15.2189 38.889 15.2921 38.9774 15.3168C39.0119 15.3375 39.0478 15.3402 39.1016 15.3442C39.5256 15.4665 39.9479 15.372 40.3662 15.3313C40.6588 15.2812 40.946 15.3029 41.2291 15.3784C41.5813 15.4952 41.9237 15.503 42.2688 15.4749C42.8706 15.3939 43.4561 15.5283 44.0318 15.5537C44.3383 15.5588 44.6367 15.6715 44.9235 15.4585C44.9814 15.4087 45.1084 15.4003 45.0986 15.2912C45.0901 15.1642 44.9645 15.1547 44.8775 15.1121C44.8084 15.0708 44.7325 15.1192 44.6607 15.1138C44.5171 15.1029 44.3888 15.1294 44.2506 15.0467C44.0433 14.9228 43.828 14.9065 43.5933 14.9069C43.2509 14.8991 42.9183 15.0004 42.5827 14.9029C42.283 14.808 41.9613 14.7657 41.6548 14.7606C41.3662 14.7569 41.1038 14.6469 40.8359 14.6086C40.8593 14.5382 40.8606 14.5202 40.8633 14.4843C41.1552 13.9648 41.4458 13.4633 41.7709 12.9823C42.012 12.6576 42.2186 12.3121 42.3035 11.9034C42.3296 11.797 42.3889 11.7293 42.4675 11.645C43.0713 11.0587 43.4512 10.3292 43.8491 9.6011C44.0611 9.18386 44.2551 8.76527 44.4312 8.34533C44.5894 7.92403 44.7475 7.50273 44.9415 7.08414C45.1576 6.61306 45.3059 6.08272 45.3106 5.54154C45.3005 5.1978 45.3082 4.85541 45.2981 4.51167C45.3018 4.22314 45.2517 3.93054 45.1836 3.63658C45.1182 3.30673 44.7484 3.42324 44.621 3.19702C44.5547 3.11981 44.4429 3.16553 44.3684 3.19601C44.3505 3.19466 44.3491 3.21261 44.3312 3.21125C44.3257 3.28305 44.3755 3.34096 44.4074 3.39751C44.4405 3.43612 44.5276 3.47879 44.4836 3.58377C44.3301 3.46389 44.1547 3.39651 44.0785 3.21025C44.0314 3.11644 43.9251 3.09037 43.8201 3.04634ZM44.6356 3.7216C44.9259 3.94206 44.8117 4.25837 44.826 4.54827C44.7924 4.27497 44.6858 4.0142 44.6356 3.7216ZM41.1813 3.56932C41.0462 3.68549 40.9331 3.74916 40.8034 3.79353C40.9425 3.62351 40.9425 3.62351 41.1813 3.56932ZM43.365 4.29364C43.6535 4.29736 43.724 4.32072 43.7463 4.50292C43.7982 5.01226 43.7961 5.51754 43.6285 6.06448C43.533 5.89482 43.5066 5.76647 43.5174 5.62288C43.5598 5.30115 43.5123 4.97265 43.3918 4.65668C43.3474 4.52698 43.3376 4.41793 43.365 4.29364Z" fill="white"/>
<path d="M50.3508 3.44875C49.9959 3.36782 49.6728 3.34345 49.3666 3.57307C49.2715 3.6381 49.1777 3.68517 49.0781 3.56936C48.9785 3.45354 48.9027 3.50197 48.8062 3.58494C48.6517 3.7177 48.5305 3.88907 48.4079 4.07838C48.3873 4.11293 48.3805 4.20267 48.2921 4.17795C48.0987 4.10921 48.0147 4.26534 47.9169 4.36626C47.4661 4.83769 47.1011 5.36974 46.9101 5.98712C46.6683 6.79923 46.4804 7.61541 46.2386 8.42752C46.1123 8.90537 46.0219 9.38593 46.0378 9.89257C46.0358 10.3978 45.9979 10.9004 45.8882 11.3976C45.7744 11.9486 45.7863 12.5091 45.8161 13.0709C45.8276 13.3967 45.8199 13.7391 45.979 14.0218C46.2032 14.3998 46.3516 14.8262 46.5771 15.1861C46.8027 15.5461 47.1302 15.7513 47.4384 15.9732C47.5061 16.0324 47.5806 16.0019 47.6565 15.9535C47.7157 15.8858 47.7005 15.8485 47.6507 15.7906C47.583 15.7313 47.6588 15.6829 47.6975 15.6497C47.7554 15.5999 47.7872 15.6565 47.8383 15.6965C47.92 15.8109 47.9836 15.924 48.0859 16.004C48.325 16.1844 48.5695 16.2932 48.8635 16.2251C48.9725 16.2152 49.0775 16.2593 49.2045 16.2508C49.3149 16.223 49.3935 16.1387 49.5303 16.2393C49.6505 16.3205 49.6156 16.0652 49.7426 16.0567C49.7619 16.0401 49.7619 16.0401 49.7799 16.0415C50.0958 15.9209 50.445 15.8389 50.6489 15.5294C50.6682 15.5128 50.6875 15.4962 50.7054 15.4976C51.0034 15.3756 51.0214 15.377 51.1094 15.167C51.3241 14.7139 51.4325 14.2347 51.5049 13.7528C51.5405 13.5208 51.5747 13.3068 51.6448 13.0954C51.9418 12.2694 51.9157 11.4191 51.8716 10.5673C51.8472 9.93369 51.5082 9.40269 51.3334 8.84797C51.1851 8.4216 50.993 8.33491 50.5528 8.42806C50.4244 8.45448 50.354 8.43111 50.2324 8.36778C49.9036 8.18052 49.5612 8.17274 49.1873 8.3431C48.7569 8.54529 48.3928 8.8247 48.0122 9.0848C48.0945 8.71193 48.105 8.33365 48.1872 7.96078C48.3643 7.2882 48.4903 6.57566 48.6328 5.88242C48.7426 5.38526 49.0111 4.93619 49.3792 4.60293C49.6301 4.3872 49.8963 4.20872 50.1473 3.99298C50.2424 3.92796 50.2963 3.93202 50.3847 3.95674C50.6498 4.0309 50.8764 4.13824 51.0989 4.29944C51.2357 4.40002 51.356 4.48129 51.5148 4.52938C51.6736 4.57746 51.806 4.49719 51.8196 4.3177C51.8318 4.15616 51.7681 4.04305 51.6299 3.96042C51.232 3.73184 50.812 3.55575 50.3508 3.44875ZM49.7646 3.80165C49.6847 3.90393 49.5922 3.93306 49.4307 3.92087C49.5478 3.80335 49.6569 3.79353 49.7646 3.80165ZM49.4931 8.8355C49.6035 8.80772 49.6547 8.84768 49.7183 8.96079C49.9663 9.50298 50.0692 10.0523 50.0977 10.6321C50.1218 11.031 50.1638 11.4313 50.1865 11.8482C50.1936 11.9931 50.1814 12.1547 50.1347 12.2956C50.0206 12.6119 49.9064 12.9282 49.8821 13.2513C49.8743 13.5937 49.7615 13.892 49.6819 14.229C49.6518 14.3892 49.601 14.5839 49.5184 14.7221C49.3751 14.9459 49.1974 15.1491 48.9227 15.2006C48.8123 15.2284 48.7185 15.2755 48.6233 15.3405C48.5461 15.4069 48.5739 15.5173 48.6802 15.5434C48.7686 15.5681 48.8418 15.5555 48.9122 15.5789C48.984 15.5843 49.0419 15.5345 49.1401 15.6683C48.8364 15.6273 48.5658 15.625 48.324 15.4804C48.2383 15.4198 48.1126 15.4103 48.1634 15.2155C48.2088 15.0926 48.0388 14.9534 47.9558 14.8569C47.6598 14.4736 47.5487 14.032 47.5301 13.5612C47.5321 13.0559 47.6073 12.5381 47.6465 12.0176C47.697 11.5882 47.7115 11.1561 47.7454 10.7073C47.7823 10.4574 47.8192 10.2075 47.874 9.95889C47.9248 9.76415 48.1138 9.65205 48.2476 9.55384C48.5165 9.33946 48.8006 9.16233 49.0847 8.9852C49.2005 8.88563 49.3455 8.87851 49.4931 8.8355Z" fill="white"/>
<path d="M59.573 4.10835C59.4087 4.13207 59.3302 4.2164 59.2655 4.35592C58.9448 5.01768 58.6407 5.69873 58.3021 6.35913C57.7074 7.54175 57.2177 8.76839 56.6756 9.97302C56.2848 10.8461 55.9465 11.7412 55.6607 12.6583C55.6099 12.853 55.5744 13.085 55.4711 13.2577C55.0319 14.0549 54.786 14.9209 54.4698 15.7635C54.4217 15.9223 54.4108 16.0659 54.4166 16.2288C54.4098 16.3186 54.4197 16.4276 54.526 16.4537C54.6157 16.4604 54.6889 16.4479 54.7827 16.4008C54.951 16.3233 54.995 16.2183 55.0556 16.1326C55.3296 15.6117 55.4461 15.0248 55.7021 14.5026C56.06 13.8256 56.1901 13.0592 56.5148 12.3436C56.7708 11.8214 57.0282 11.2812 57.233 10.7191C57.3485 10.3848 57.5151 10.0905 57.6306 9.75624C57.7613 9.45924 57.8754 9.14292 58.0075 8.82797C58.2415 8.35824 58.528 7.91052 58.7095 7.41878C58.7549 7.29584 58.7657 7.15225 58.829 7.03067C59.0603 6.59684 59.2225 6.1217 59.4206 5.64926C59.55 5.3702 59.6973 5.09249 59.7396 4.77077C59.7738 4.55673 59.7555 4.32069 59.573 4.10835ZM55.5514 4.05769C54.9878 3.87077 54.3227 4.07331 54.0582 4.46853C53.9164 4.67444 53.7731 4.8983 53.6644 5.14282C53.3055 6.07245 53.2503 7.04305 53.3926 8.02854C53.4261 8.30184 53.5714 8.52941 53.7346 8.75834C53.9158 8.98863 54.1949 9.11798 54.3954 9.33167C54.5932 9.58126 54.8651 9.56567 55.1343 9.58598C55.1963 9.48235 55.0182 9.45086 55.0967 9.36653C55.4144 9.4627 55.431 9.482 55.6559 9.37261C55.9938 9.19954 56.2793 9.00446 56.4375 8.58317C56.7456 7.84827 56.8563 7.09847 56.8787 6.32395C56.9044 5.98292 56.839 5.65307 56.8109 5.30798C56.7618 4.76274 56.5196 4.38345 55.974 4.19788L55.5514 4.05769ZM55.548 4.58092C55.9324 4.98899 55.8586 5.48885 55.8759 5.97754C55.8789 6.17633 55.8474 6.35447 55.8326 6.55191C55.8085 7.10968 55.6934 7.67863 55.6514 8.23505C55.6311 8.50429 55.5031 8.7654 55.2742 8.92864C55.0646 9.07528 54.8891 9.0079 54.7977 8.78439C54.7049 8.57882 54.7059 8.32618 54.5951 8.11926C54.5813 8.06406 54.584 8.02817 54.606 7.97567C54.7147 7.73116 54.7336 7.47987 54.736 7.20928C54.7475 6.57836 54.8846 5.95691 54.9513 5.3121C54.9703 5.06082 55.079 4.8163 55.2043 4.59109C55.3089 4.40042 55.3973 4.42514 55.548 4.58092ZM59.05 10.802C58.5366 10.9077 58.1214 11.1471 57.8501 11.6321C57.4109 12.4293 57.2176 13.3173 57.1319 14.2134C57.0828 14.6248 57.1055 15.0417 57.2566 15.4322C57.344 15.7095 57.4686 15.9717 57.6677 16.2033C57.7494 16.3178 57.8984 16.2568 57.9275 16.3493C58.023 16.5189 58.1666 16.5298 58.3254 16.5778C59.2107 16.8071 59.805 16.3465 60.1491 15.6143C60.3238 15.2123 60.3218 14.7609 60.4426 14.3548C60.6898 13.4709 60.6112 12.5985 60.2966 11.7444C60.2231 11.5223 60.0751 11.3306 59.8306 11.2219C59.6911 11.1572 59.5901 11.0593 59.4906 10.9435C59.3744 10.8084 59.2156 10.7603 59.05 10.802ZM59.1851 11.6425C59.2569 11.6479 59.2887 11.7045 59.304 11.7417C59.4787 12.2965 59.6728 12.8346 59.6281 13.4269C59.597 13.8397 59.53 14.2499 59.4809 14.6613L59.4605 14.9306C59.4694 15.2923 59.147 15.7373 58.7399 15.869C58.7535 15.6895 58.7836 15.5293 58.5475 15.5476L58.3606 15.1545C58.3467 15.0993 58.3342 15.0261 58.3382 14.9723C58.3524 14.3054 58.2769 13.6318 58.436 12.9579C58.5156 12.6209 58.6656 12.3073 58.8156 11.9937C58.8817 11.8362 59.05 11.7587 59.1851 11.6425ZM58.1099 12.7347C58.0263 13.1256 57.9992 13.4845 57.8258 13.8686C57.7357 13.6271 57.8583 13.4378 57.8884 13.2776C57.9186 13.1174 57.881 12.898 58.1099 12.7347ZM59.102 16.0949C59.1324 16.1694 59.0772 16.1833 59.04 16.1985C59.0027 16.2138 58.9475 16.2276 58.9143 16.189C58.9709 16.1572 59.0122 16.0881 59.102 16.0949Z" fill="white"/>
</svg>
