<svg width="24" height="24" viewBox="0 0 24 25" fill="none" xmlns="http://www.w3.org/2000/svg">
<rect x="1" y="6" width="22" height="12" rx="5" fill="#18191F" fill-opacity="0.5"/>
<path d="M5.07594 15.4835C4.88888 15.4835 4.74613 15.4257 4.64768 15.3102C4.54923 15.1946 4.5 15.0323 4.5 14.8232V10.2428C4.5 9.80812 4.69444 9.59078 5.08332 9.59078H6.87759C7.45845 9.59078 7.9064 9.75585 8.22145 10.086C8.53649 10.4106 8.69401 10.8645 8.69401 11.4477C8.69401 12.0309 8.53649 12.4876 8.22145 12.8177C7.9064 13.1479 7.45845 13.3129 6.87759 13.3129H5.64449V14.8232C5.64449 15.0323 5.59527 15.1946 5.49682 15.3102C5.40329 15.4257 5.26299 15.4835 5.07594 15.4835ZM5.64449 12.3226H6.68561C7.29108 12.3226 7.59382 12.0309 7.59382 11.4477C7.59382 10.8755 7.29108 10.5894 6.68561 10.5894H5.64449V12.3226Z" fill="#FFBA49"/>
<path d="M9.97926 15.4835C9.7922 15.4835 9.64945 15.4257 9.55099 15.3102C9.45254 15.1946 9.40332 15.0323 9.40332 14.8232V10.2428C9.40332 9.80812 9.59776 9.59078 9.98664 9.59078H11.7809C12.3618 9.59078 12.8097 9.74759 13.1248 10.0612C13.4398 10.3748 13.5973 10.8122 13.5973 11.3735C13.5973 11.8081 13.4964 12.1713 13.2946 12.4629C13.0977 12.749 12.8146 12.9443 12.4455 13.0488C12.7063 13.1369 12.9205 13.3487 13.0878 13.6843L13.5456 14.6334C13.649 14.8425 13.6687 15.0378 13.6047 15.2194C13.5407 15.3955 13.3857 15.4835 13.1395 15.4835C12.9771 15.4835 12.8442 15.445 12.7408 15.3679C12.6374 15.2909 12.5488 15.1726 12.475 15.0131L11.7661 13.5523C11.6923 13.3982 11.6012 13.2937 11.4929 13.2387C11.3846 13.1836 11.2567 13.1561 11.109 13.1561H10.5478V14.8232C10.5478 15.0323 10.4986 15.1946 10.4001 15.3102C10.3066 15.4257 10.1663 15.4835 9.97926 15.4835ZM10.5478 12.2318H11.5742C12.1895 12.2318 12.4971 11.9567 12.4971 11.4065C12.4971 10.8618 12.1895 10.5894 11.5742 10.5894H10.5478V12.2318Z" fill="#FFBA49"/>
<path d="M16.923 15.5C16.4111 15.5 15.9607 15.3762 15.5718 15.1286C15.1878 14.8755 14.8876 14.5261 14.671 14.0805C14.4593 13.6293 14.3535 13.1011 14.3535 12.4959C14.3535 11.8906 14.4593 11.3652 14.671 10.9195C14.8876 10.4684 15.1878 10.119 15.5718 9.87139C15.9558 9.6238 16.4062 9.5 16.923 9.5C17.4399 9.5 17.8903 9.6238 18.2743 9.87139C18.6632 10.119 18.9634 10.4684 19.1751 10.9195C19.3917 11.3652 19.5 11.8879 19.5 12.4876C19.5 13.0928 19.3917 13.621 19.1751 14.0722C18.9634 14.5234 18.6632 14.8755 18.2743 15.1286C17.8903 15.3762 17.4399 15.5 16.923 15.5ZM16.923 14.4106C17.3562 14.4106 17.6934 14.2428 17.9346 13.9072C18.1808 13.566 18.3038 13.0956 18.3038 12.4959C18.3038 11.8906 18.1832 11.423 17.942 11.0928C17.7008 10.7572 17.3612 10.5894 16.923 10.5894C16.4948 10.5894 16.1576 10.7572 15.9115 11.0928C15.6703 11.423 15.5497 11.8906 15.5497 12.4959C15.5497 13.0956 15.6703 13.566 15.9115 13.9072C16.1576 14.2428 16.4948 14.4106 16.923 14.4106Z" fill="#FFBA49"/>
</svg>
