<svg width="24" height="24" viewBox="0 0 24 24" fill="none" xmlns="http://www.w3.org/2000/svg">
<path d="M 13.5727 4.8758 C 12.3716 4.534 11.1067 4.5341 9.9056 4.876 C 8.7046 5.2179 7.6108 5.8892 6.7336 6.8211 C 5.8565 7.7529 5.2267 8.9125 4.9064 10.1828 C 4.7753 10.7029 5.0633 11.2511 5.5736 11.3962 C 6.0887 11.5427 6.6035 11.215 6.7355 10.6916 C 6.9716 9.755 7.4354 8.9021 8.0793 8.2182 C 8.723 7.5343 9.5239 7.0435 10.4009 6.7938 C 11.2777 6.5442 12.2009 6.5441 13.0777 6.7936 C 13.9546 7.0431 14.7558 7.534 15.3996 8.2176 L 16.1695 9.036 H 14.7265 C 14.1941 9.036 13.7806 9.4911 13.7806 10.0295 C 13.7806 10.5678 14.1941 11.023 14.7265 11.023 H 18.434 C 18.9666 11.023 19.3801 10.5678 19.3801 10.0295 V 6.0921 C 19.3801 5.5538 18.9666 5.0986 18.434 5.0986 C 17.9016 5.0986 17.4881 5.5538 17.4881 6.0921 V 7.6101 L 16.745 6.8203 C 15.8677 5.8886 14.7738 5.2175 13.5727 4.8758 Z" fill="currentColor"/>
<path d="M 18.4266 12.6029 C 17.9116 12.4564 17.3968 12.7841 17.2648 13.3074 C 17.0287 14.244 16.5648 15.097 15.921 15.781 C 15.2772 16.4648 14.4763 16.9556 13.5994 17.2052 C 12.7225 17.4548 11.7994 17.455 10.9224 17.2055 C 10.0456 16.956 9.2445 16.4652 8.6006 15.7814 L 7.8307 14.9632 H 9.2737 C 9.8062 14.9632 10.2197 14.508 10.2197 13.9696 C 10.2197 13.4312 9.8062 12.9761 9.2737 12.9761 H 5.5662 C 5.0336 12.9761 4.6201 13.4312 4.6201 13.9696 V 17.907 C 4.6201 18.4453 5.0336 18.9005 5.5662 18.9005 C 6.0987 18.9005 6.5122 18.4453 6.5122 17.907 V 16.389 L 7.2552 17.1787 C 8.1325 18.1105 9.2264 18.7816 10.4275 19.1233 C 11.6286 19.4651 12.8935 19.465 14.0946 19.1231 C 15.2956 18.7811 16.3894 18.1098 17.2666 17.178 C 18.1438 16.2462 18.7735 15.0866 19.0938 13.8162 C 19.225 13.2961 18.937 12.748 18.4266 12.6029 Z" fill="currentColor"/>
</svg>
