<svg xmlns="http://www.w3.org/2000/svg" width="24" height="24" fill="currentColor" viewBox="0 0 24 24">
  <path d="M7.937 15.38a.527.527 0 0 0 0 .744l.007.007a.517.517 0 0 0 .661.063.527.527 0 0 0-.095-.928.525.525 0 0 0-.573.114Zm2.306 1.02a.526.526 0 1 0-.378.982.526.526 0 0 0 .378-.982ZM8.276 8.805a.532.532 0 0 0 .377-.156.526.526 0 0 0-.744-.744l-.007.007a.524.524 0 0 0 .374.893Zm1.699-1.139a.523.523 0 0 0 .301-.092.53.53 0 1 0-.3.092Zm-2.384 6.1a.527.527 0 1 0-.865.6.527.527 0 0 0 .865-.6Zm-.623-3.277a.55.55 0 0 0 .43-.04.53.53 0 1 0-.763-.626.528.528 0 0 0 .333.666Zm5.027-3.226a.526.526 0 1 0 0-1.052h-.01a.521.521 0 0 0-.521.526.53.53 0 0 0 .531.526Zm-4.732 4.788v-.061a.526.526 0 1 0-1.052 0v.071a.521.521 0 0 0 .526.522.53.53 0 0 0 .526-.532Zm8.106 3.279a.526.526 0 1 0 .744.745l.007-.007a.523.523 0 0 0-.378-.893.532.532 0 0 0-.373.156Zm1.051-5.068a.53.53 0 1 0 .878-.596.53.53 0 0 0-.879.596Zm.624 3.22a.532.532 0 0 0-.462.947.526.526 0 0 0 .796-.28.528.528 0 0 0-.334-.667Zm.219-2.034a.53.53 0 1 0 .527.531v-.01a.52.52 0 0 0-.527-.521Zm-3.375 4.9a.527.527 0 1 0 .378.982.526.526 0 0 0-.378-.982Zm1.825-7.552a.526.526 0 0 0 .372-.899l-.007-.007a.524.524 0 0 0-.893.378.532.532 0 0 0 .528.528ZM13.786 7.61a.526.526 0 1 0 .378-.982.526.526 0 0 0-.378.983Zm-1.75 9.127a.526.526 0 0 0 0 1.053h.01a.523.523 0 0 0 .365-.9.53.53 0 0 0-.375-.153Z"/>
  <path fill-rule="evenodd" d="M2 12C2 6.477 6.477 2 12 2s10 4.477 10 10-4.477 10-10 10S2 17.523 2 12Zm2 0a8 8 0 1 1 16 0 8 8 0 0 1-16 0Z" clip-rule="evenodd"/>
</svg>
