<svg xmlns="http://www.w3.org/2000/svg" width="24" height="24" fill="currentColor" viewBox="0 0 24 24">
  <path fill-rule="evenodd" d="M12 3.743a.827.827 0 0 0-.569.227L7.113 8.345a6.952 6.952 0 0 0-2.025 4.934v.01l.002.033a6.911 6.911 0 1 0 11.798-4.977h-.001l-4.308-4.366-.01-.009A.827.827 0 0 0 12 3.743ZM8.27 9.49 12 5.71l3.732 3.78v.001a5.309 5.309 0 0 1 1.487 2.953 4.29 4.29 0 0 1-2.319.845 4.491 4.491 0 0 1-2.193-.681l-.009-.006a7.621 7.621 0 0 0-2.897-.994l-.01-.001h-.009a7.133 7.133 0 0 0-2.908.369 5.31 5.31 0 0 1 1.394-2.485Zm.073 7.645a5.318 5.318 0 0 1-1.598-3.358 5.811 5.811 0 0 1 2.883-.551c.805.11 1.58.38 2.278.796a6.02 6.02 0 0 0 2.923.895h.103a5.64 5.64 0 0 0 2.242-.56A5.318 5.318 0 0 1 12 18.635a5.318 5.318 0 0 1-3.658-1.499Z" clip-rule="evenodd"/>
</svg>
