<svg width="24" height="24" viewBox="0 0 24 24" fill="none" xmlns="http://www.w3.org/2000/svg">
<mask id="mask0_17145_2423" style="mask-type:alpha" maskUnits="userSpaceOnUse" x="3" y="3" width="18" height="18">
<path fill-rule="evenodd" clip-rule="evenodd" d="M6.60008 3H17.4001C17.5911 3 17.7742 3.07586 17.9092 3.21088C18.0443 3.34591 18.1201 3.52905 18.1201 3.72C18.1201 3.91096 18.0443 4.09409 17.9092 4.22912C17.7742 4.36415 17.5911 4.44001 17.4001 4.44001H6.60008C6.40913 4.44001 6.22599 4.36415 6.09097 4.22912C5.95594 4.09409 5.88008 3.91096 5.88008 3.72C5.88008 3.52905 5.95594 3.34591 6.09097 3.21088C6.22599 3.07586 6.40913 3 6.60008 3ZM18.8401 21H5.16001C3.96912 21 3 20.0309 3 18.84V10.92C3 9.72907 3.96912 8.75995 5.16001 8.75995H18.8401C20.0309 8.75995 21.0001 9.72907 21.0001 10.92V18.84C21.0001 20.0309 20.0309 21 18.8401 21ZM5.16001 10.2C4.76329 10.2 4.44001 10.5232 4.44001 10.92V18.84C4.44001 19.2367 4.76329 19.56 5.16001 19.56H18.8401C19.2368 19.56 19.5601 19.2367 19.5601 18.84V10.92C19.5601 10.5232 19.2368 10.2 18.8401 10.2H5.16001ZM18.84 5.88019H5.15999C4.96903 5.88019 4.7859 5.95604 4.65087 6.09107C4.51584 6.2261 4.43999 6.40923 4.43999 6.60019C4.43999 6.79115 4.51584 6.97428 4.65087 7.10931C4.7859 7.24434 4.96903 7.32019 5.15999 7.32019H18.84C19.031 7.32019 19.2141 7.24434 19.3492 7.10931C19.4842 6.97428 19.56 6.79115 19.56 6.60019C19.56 6.40923 19.4842 6.2261 19.3492 6.09107C19.2141 5.95604 19.031 5.88019 18.84 5.88019Z" fill="black"/>
</mask>
<g mask="url(#mask0_17145_2423)">
<rect width="24" height="24" fill="currentColor"/>
</g>
</svg>
