<svg xmlns="http://www.w3.org/2000/svg" width="24" height="24" fill="currentColor" viewBox="0 0 24 24">
  <path d="M8.303 3h2.88l9.8 9.809v2.882L8.302 3Zm7.376 0 5.303 5.309v2.882L12.8 3h2.88Zm3.056 0c.62 0 1.15.22 1.589.66.439.439.658.969.658 1.59v1.441L17.295 3h1.44Zm0 18h-1.44L3 6.691V5.25c0-.398.105-.773.316-1.125L19.86 20.684c-.352.21-.726.316-1.124.316Zm-5.936 0L3 11.191V8.31L15.679 21h-2.88Zm-4.496 0L3 15.691V12.81L11.183 21h-2.88Zm-3.055 0c-.62 0-1.15-.22-1.59-.66A2.169 2.169 0 0 1 3 18.75v-1.441L6.688 21h-1.44Zm0-18h1.44l14.294 14.309v1.441c0 .398-.105.773-.316 1.125L4.124 3.316C4.475 3.106 4.85 3 5.248 3Z"/>
</svg>
