<svg width="14" height="14" viewBox="0 0 14 14" fill="none" xmlns="http://www.w3.org/2000/svg">
<path d="M3 1.5H11V0.5H3V1.5ZM12.5 3V11H13.5V3H12.5ZM11 12.5H3V13.5H11V12.5ZM1.5 11V3H0.5V11H1.5ZM3 12.5C2.17157 12.5 1.5 11.8284 1.5 11H0.5C0.5 12.3807 1.61929 13.5 3 13.5V12.5ZM12.5 11C12.5 11.8284 11.8284 12.5 11 12.5V13.5C12.3807 13.5 13.5 12.3807 13.5 11H12.5ZM11 1.5C11.8284 1.5 12.5 2.17157 12.5 3H13.5C13.5 1.61929 12.3807 0.5 11 0.5V1.5ZM3 0.5C1.61929 0.5 0.5 1.61929 0.5 3H1.5C1.5 2.17157 2.17157 1.5 3 1.5V0.5Z" fill="#C3CBCD"/>
</svg>
