<svg xmlns="http://www.w3.org/2000/svg" width="24" height="24" fill="currentColor" viewBox="0 0 24 24">
  <path fill-rule="evenodd"
    d="M10.276 16.756h.794c.235.68.875 1.168 1.621 1.168.76 0 1.403-.488 1.64-1.168h3.413c.324 0 .57-.25.57-.576a.558.558 0 0 0-.57-.559h-3.41a1.737 1.737 0 0 0-1.643-1.177 1.73 1.73 0 0 0-1.626 1.177h-.79a.551.551 0 0 0-.535.559c0 .326.246.576.536.576Zm2.415.283a.845.845 0 0 1-.842-.86c0-.489.375-.85.842-.85a.83.83 0 0 1 .851.85c0 .482-.366.86-.85.86Zm1.041-4.88H10.31a.568.568 0 0 1-.57-.576c0-.309.246-.558.57-.558h3.418a1.732 1.732 0 0 1 1.635-1.177c.75 0 1.394.494 1.626 1.177h.79a.55.55 0 0 1 .535.558c0 .318-.246.576-.535.576h-.794a1.726 1.726 0 0 1-1.622 1.168 1.73 1.73 0 0 1-1.63-1.168Zm.789-.576c0 .481.357.86.842.86a.845.845 0 0 0 .842-.86c0-.49-.374-.85-.842-.85-.485 0-.842.36-.842.85Z"
    clip-rule="evenodd" />
  <path fill-rule="evenodd"
    d="M5.631 16.893h1.455v1.315c0 1.77.884 2.663 2.67 2.663h8.541c1.77 0 2.663-.893 2.663-2.663V9.513c0-1.77-.893-2.664-2.663-2.664h-1.463V5.535c0-1.77-.893-2.664-2.662-2.664H5.63c-1.786 0-2.671.894-2.671 2.664v8.695c0 1.77.885 2.663 2.671 2.663Zm9.834-10.044V5.612c0-.894-.477-1.358-1.319-1.358H5.648c-.85 0-1.318.464-1.318 1.358v8.54c0 .894.467 1.358 1.318 1.358h1.438V9.513c0-1.779.884-2.664 2.67-2.664h5.709ZM8.455 18.13c0 .894.477 1.358 1.319 1.358h8.498c.842 0 1.318-.464 1.318-1.358V9.59c0-.894-.476-1.358-1.318-1.358H9.774c-.842 0-1.319.464-1.319 1.358v8.54Z"
    clip-rule="evenodd" />
</svg>
