<svg width="42" height="42" viewBox="0 0 42 42" fill="none" xmlns="http://www.w3.org/2000/svg">
<path fill-rule="evenodd" clip-rule="evenodd" d="M36.155 24.4921C36.0283 24.4921 35.9067 24.5425 35.8171 24.6321L28.3951 32.0541L28.1699 32.9551L29.0709 32.7299L36.4929 25.3079C36.5373 25.2635 36.5725 25.2108 36.5965 25.1529C36.6205 25.0949 36.6329 25.0328 36.6329 24.97C36.6329 24.9072 36.6205 24.8451 36.5965 24.7871C36.5725 24.7292 36.5373 24.6765 36.4929 24.6321C36.4485 24.5877 36.3958 24.5525 36.3379 24.5285C36.2799 24.5045 36.2178 24.4921 36.155 24.4921ZM34.6736 23.4886C35.0665 23.0957 35.5994 22.875 36.155 22.875C36.4301 22.875 36.7025 22.9292 36.9567 23.0345C37.2109 23.1398 37.4419 23.2941 37.6364 23.4886C37.8309 23.6831 37.9852 23.9141 38.0905 24.1683C38.1958 24.4225 38.25 24.6949 38.25 24.97C38.25 25.2451 38.1958 25.5175 38.0905 25.7717C37.9852 26.0259 37.8309 26.2568 37.6364 26.4514L30.056 34.0317C29.9524 34.1354 29.8226 34.2089 29.6804 34.2444L27.2547 34.8508C26.9792 34.9197 26.6877 34.839 26.4868 34.6382C26.286 34.4373 26.2053 34.1458 26.2742 33.8703L26.8806 31.4446C26.9161 31.3024 26.9896 31.1726 27.0933 31.069L34.6736 23.4886Z" fill="currentColor"/>
<path d="M35.8333 19.1042V18.9271V15.5625C35.8333 12.8011 33.5948 10.5625 30.8333 10.5625H21.4193C20.0844 10.5625 18.8049 10.0287 17.8658 9.08004L17.398 8.60746C16.4589 7.65878 15.1795 7.125 13.8446 7.125H8.75C5.98858 7.125 3.75 9.36358 3.75 12.125V29.625C3.75 32.3864 5.98858 34.625 8.75 34.625H19.7917H23.5208" stroke="currentColor" stroke-width="2" stroke-linecap="round"/>
</svg>
