<svg width="42" height="42" viewBox="0 0 42 42" fill="none" xmlns="http://www.w3.org/2000/svg">
<path d="M36.5105 24.7225C36.1969 24.4142 35.8246 24.1696 35.4148 24.0027C35.0051 23.8359 34.5658 23.75 34.1223 23.75C33.6787 23.75 33.2395 23.8359 32.8297 24.0027C32.4199 24.1696 32.0476 24.4142 31.734 24.7225L31.0833 25.362L30.4325 24.7225C29.7991 24.1 28.94 23.7503 28.0442 23.7503C27.1485 23.7503 26.2894 24.1 25.656 24.7225C25.0226 25.3449 24.6667 26.1892 24.6667 27.0695C24.6667 27.9498 25.0226 28.794 25.656 29.4165L26.3068 30.056L31.0833 34.75L35.8597 30.056L36.5105 29.4165C36.8242 29.1083 37.0731 28.7424 37.2429 28.3397C37.4127 27.937 37.5001 27.5054 37.5001 27.0695C37.5001 26.6336 37.4127 26.2019 37.2429 25.7992C37.0731 25.3965 36.8242 25.0306 36.5105 24.7225Z" stroke="white" stroke-width="2" stroke-linecap="round" stroke-linejoin="round"/>
<path d="M36.5833 19.2292V19.0521V15.6875C36.5833 12.9261 34.3448 10.6875 31.5833 10.6875H22.1693C20.8344 10.6875 19.5549 10.1537 18.6158 9.20504L18.148 8.73246C17.2089 7.78378 15.9295 7.25 14.5946 7.25H9.5C6.73858 7.25 4.5 9.48858 4.5 12.25V29.75C4.5 32.5114 6.73858 34.75 9.5 34.75H20.5417H24.2708" stroke="white" stroke-width="2" stroke-linecap="round"/>
</svg>
