<svg width="30" height="30" viewBox="0 0 30 30" fill="none" xmlns="http://www.w3.org/2000/svg">
<g clip-path="url(#clip0_3489:454)">
<path d="M15 30C23.2843 30 30 23.2843 30 15C30 6.71573 23.2843 0 15 0C6.71573 0 0 6.71573 0 15C0 23.2843 6.71573 30 15 30Z" fill="white"/>
<path d="M25.1733 14.2244C25.1733 9.65106 20.5889 5.92883 14.9511 5.92883C9.31333 5.92883 4.72888 9.65106 4.72888 14.2244C4.72888 18.3244 8.36665 21.76 13.2778 22.4088C13.6111 22.48 14.0644 22.6311 14.1778 22.9133C14.2587 23.2149 14.2702 23.531 14.2111 23.8377C14.2111 23.8377 14.0911 24.5577 14.0667 24.7111C14.0222 24.9711 13.86 25.7222 14.9556 25.2622C16.0511 24.8022 20.8422 21.7977 22.9867 19.3288C24.4689 17.7044 25.1778 16.0555 25.1778 14.2177" fill="#09467E"/>
<path d="M12.8733 12.0133H12.1578C12.1047 12.0133 12.0538 12.0344 12.0163 12.0719C11.9788 12.1094 11.9578 12.1603 11.9578 12.2133V16.6578C11.9578 16.6839 11.963 16.7098 11.973 16.734C11.9831 16.7581 11.9979 16.78 12.0165 16.7984C12.0351 16.8168 12.0571 16.8313 12.0814 16.8411C12.1056 16.851 12.1316 16.8559 12.1578 16.8556H12.8733C12.8995 16.8559 12.9254 16.851 12.9497 16.8411C12.9739 16.8313 12.996 16.8168 13.0146 16.7984C13.0332 16.78 13.048 16.7581 13.058 16.734C13.0681 16.7098 13.0733 16.6839 13.0733 16.6578V12.2111C13.0733 12.1581 13.0522 12.1072 13.0147 12.0697C12.9772 12.0322 12.9264 12.0111 12.8733 12.0111" fill="white"/>
<path d="M17.8155 12.0133H17.1C17.0469 12.0133 16.996 12.0344 16.9585 12.0719C16.921 12.1094 16.9 12.1603 16.9 12.2133V14.86L14.86 12.1022L14.8444 12.0822H14.0711C14.0449 12.0822 14.019 12.0874 13.9949 12.0975C13.9707 12.1076 13.9488 12.1223 13.9304 12.1409C13.912 12.1595 13.8975 12.1816 13.8877 12.2059C13.8779 12.2301 13.873 12.2561 13.8733 12.2822V16.7267C13.8733 16.7791 13.8941 16.8294 13.9312 16.8665C13.9683 16.9036 14.0186 16.9245 14.0711 16.9245H14.7889C14.8415 16.9245 14.8921 16.9037 14.9295 16.8667C14.967 16.8296 14.9883 16.7793 14.9889 16.7267V14.0822L17.0311 16.8422C17.0454 16.8612 17.0626 16.8777 17.0822 16.8911H17.0933H17.1066C17.1236 16.8934 17.1408 16.8934 17.1578 16.8911H17.8155C17.8417 16.8914 17.8676 16.8865 17.8919 16.8767C17.9161 16.8669 17.9382 16.8524 17.9568 16.834C17.9754 16.8156 17.9902 16.7937 18.0003 16.7695C18.0103 16.7454 18.0155 16.7195 18.0155 16.6933V12.2111C18.0155 12.1848 18.0104 12.1588 18.0003 12.1346C17.9903 12.1103 17.9755 12.0883 17.9569 12.0697C17.9384 12.0511 17.9163 12.0364 17.892 12.0263C17.8678 12.0163 17.8418 12.0111 17.8155 12.0111" fill="white"/>
<path d="M11.1489 15.7511H9.20002V12.2111C9.20002 12.1581 9.17895 12.1072 9.14144 12.0697C9.10393 12.0322 9.05307 12.0111 9.00003 12.0111H8.28446C8.23142 12.0111 8.18056 12.0322 8.14305 12.0697C8.10555 12.1072 8.08447 12.1581 8.08447 12.2111V16.6556C8.08484 16.7069 8.1047 16.7561 8.14003 16.7933C8.17724 16.8287 8.22649 16.8485 8.2778 16.8489H11.1489C11.2016 16.8483 11.2519 16.827 11.2889 16.7895C11.3259 16.7521 11.3467 16.7015 11.3467 16.6489V15.9311C11.3467 15.8787 11.3258 15.8283 11.2888 15.7913C11.2517 15.7542 11.2014 15.7333 11.1489 15.7333" fill="white"/>
<path d="M21.7689 13.1289C21.7951 13.1292 21.8211 13.1243 21.8453 13.1145C21.8696 13.1047 21.8916 13.0901 21.9102 13.0718C21.9288 13.0534 21.9436 13.0315 21.9537 13.0073C21.9638 12.9832 21.9689 12.9573 21.9689 12.9311V12.2111C21.9689 12.1581 21.9479 12.1072 21.9104 12.0697C21.8729 12.0322 21.822 12.0111 21.7689 12.0111H18.9045C18.8527 12.0114 18.8032 12.0322 18.7667 12.0689C18.732 12.1063 18.7129 12.1556 18.7134 12.2067V16.6511C18.7131 16.6766 18.7179 16.7019 18.7274 16.7255C18.7369 16.7492 18.7511 16.7707 18.7689 16.7889C18.8054 16.8256 18.855 16.8464 18.9067 16.8467H21.7712C21.8242 16.8467 21.8751 16.8256 21.9126 16.7881C21.9501 16.7506 21.9711 16.6997 21.9711 16.6467V15.9289C21.9712 15.9027 21.966 15.8768 21.9559 15.8527C21.9458 15.8285 21.931 15.8066 21.9124 15.7883C21.8938 15.7699 21.8718 15.7553 21.8475 15.7455C21.8233 15.7357 21.7973 15.7308 21.7712 15.7311H19.8156V14.9778H21.7645C21.8175 14.9778 21.8684 14.9567 21.9059 14.9192C21.9434 14.8817 21.9645 14.8308 21.9645 14.7778V14.0622C21.9645 14.0092 21.9434 13.9583 21.9059 13.9208C21.8684 13.8833 21.8175 13.8622 21.7645 13.8622H19.8156V13.1089L21.7689 13.1289Z" fill="white"/>
</g>
<defs>
<clipPath id="clip0_3489:454">
<rect width="30" height="30" fill="white"/>
</clipPath>
</defs>
</svg>
