<svg width="30" height="30" viewBox="0 0 30 30" fill="none" xmlns="http://www.w3.org/2000/svg">
<path d="M30 6.81818V1.36364C30 1.00198 29.8563 0.65513 29.6006 0.399399C29.3449 0.143667 28.998 0 28.6364 0H1.36364C1.00198 0 0.65513 0.143667 0.399399 0.399399C0.143667 0.65513 0 1.00198 0 1.36364V6.81818H30Z" fill="#C9DBFF"/>
<path d="M0 9.54541V28.6363C0 28.998 0.143667 29.3448 0.399399 29.6006C0.655131 29.8563 1.00198 30 1.36364 30H8.18182V9.54541H0Z" fill="#7190CC"/>
<path d="M10.9091 30H28.6363C28.998 30 29.3448 29.8563 29.6006 29.6006C29.8563 29.3448 30 28.998 30 28.6363V9.54541H10.9091V30Z" fill="#4EABE6"/>
</svg>
