<svg width="40" height="40" viewBox="0 0 40 40" fill="none" xmlns="http://www.w3.org/2000/svg">
<path d="M30.4136 12.9724L27.666 10.1482C27.5737 10.0533 27.4483 10 27.3176 10C27.1869 10 27.0616 10.0533 26.9693 10.1482L15.3648 22.0504C15.2725 22.1453 15.1471 22.1986 15.0164 22.1986C14.8857 22.1986 14.7604 22.1453 14.668 22.0504L11.9204 19.2262C11.8281 19.1313 11.7028 19.078 11.5721 19.078C11.4414 19.078 11.316 19.1313 11.2237 19.2262L8.4761 22.0504C8.28401 22.2474 8.28401 22.5666 8.4761 22.7636L14.668 29.1111C14.7604 29.2059 14.8857 29.2593 15.0164 29.2593C15.1471 29.2593 15.2725 29.2059 15.3648 29.1111L30.4136 13.6785C30.6011 13.4824 30.6011 13.1685 30.4136 12.9724Z" fill="#4EABE6"/>
</svg>
