<svg width="24" height="24" viewBox="0 0 24 24" fill="none" xmlns="http://www.w3.org/2000/svg">
<path d="M1.76079 16.2189C1.2536 16.2189 1 15.9576 1 15.435V8.78385C1 8.26128 1.26128 8 1.78385 8H5.80682C6.20643 8 6.40623 8.19212 6.40623 8.57636C6.40623 8.97596 6.20643 9.17577 5.80682 9.17577H2.47547V11.4697H5.56475C5.96436 11.4697 6.16416 11.6618 6.16416 12.046C6.16416 12.4456 5.96436 12.6454 5.56475 12.6454H2.47547V15.435C2.47547 15.9576 2.23725 16.2189 1.76079 16.2189Z" fill="#474A57"/>
<path d="M7.9596 16.2189C7.46778 16.2189 7.22186 15.9729 7.22186 15.4811V11.1239C7.22186 10.6397 7.45625 10.3976 7.92502 10.3976C8.39379 10.3976 8.62818 10.6397 8.62818 11.1239V11.4812C8.90483 10.8203 9.49655 10.4514 10.4034 10.3746C10.7338 10.3362 10.9182 10.5244 10.9567 10.9394C10.9951 11.3467 10.7953 11.5734 10.3572 11.6195L10.1037 11.6426C9.15842 11.7348 8.68581 12.2189 8.68581 13.095V15.4811C8.68581 15.9729 8.44374 16.2189 7.9596 16.2189Z" fill="#474A57"/>
<path d="M14.4239 16.2419C13.7861 16.2419 13.2366 16.1228 12.7755 15.8846C12.3144 15.6463 11.9571 15.3082 11.7035 14.8702C11.4576 14.4321 11.3346 13.9134 11.3346 13.314C11.3346 12.73 11.4537 12.2189 11.692 11.7809C11.9379 11.3429 12.2722 11.0009 12.6948 10.755C13.1252 10.5014 13.6132 10.3746 14.1588 10.3746C14.958 10.3746 15.5881 10.6282 16.0492 11.1354C16.518 11.6426 16.7524 12.3342 16.7524 13.2103C16.7524 13.4946 16.5679 13.6368 16.1991 13.6368H12.7179C12.8255 14.6435 13.4018 15.1468 14.447 15.1468C14.6468 15.1468 14.8696 15.1238 15.1155 15.0777C15.3691 15.0239 15.6073 14.9355 15.8302 14.8125C16.03 14.6973 16.1991 14.6627 16.3374 14.7088C16.4757 14.7472 16.5718 14.8279 16.6256 14.9509C16.6871 15.0738 16.6947 15.2121 16.6486 15.3658C16.6102 15.5119 16.5026 15.6387 16.3259 15.7462C16.0569 15.9153 15.7457 16.0421 15.3922 16.1266C15.0464 16.2035 14.7236 16.2419 14.4239 16.2419ZM14.2164 11.3544C13.7937 11.3544 13.4518 11.485 13.1905 11.7463C12.9292 12.0076 12.7717 12.3611 12.7179 12.8068H15.5536C15.5228 12.338 15.3922 11.9807 15.1616 11.7348C14.9388 11.4812 14.6237 11.3544 14.2164 11.3544Z" fill="#474A57"/>
<path d="M20.6715 16.2419C20.0337 16.2419 19.4842 16.1228 19.0231 15.8846C18.562 15.6463 18.2047 15.3082 17.9511 14.8702C17.7052 14.4321 17.5822 13.9134 17.5822 13.314C17.5822 12.73 17.7014 12.2189 17.9396 11.7809C18.1855 11.3429 18.5198 11.0009 18.9424 10.755C19.3728 10.5014 19.8608 10.3746 20.4064 10.3746C21.2056 10.3746 21.8358 10.6282 22.2968 11.1354C22.7656 11.6426 23 12.3342 23 13.2103C23 13.4946 22.8156 13.6368 22.4467 13.6368H18.9655C19.0731 14.6435 19.6494 15.1468 20.6946 15.1468C20.8944 15.1468 21.1172 15.1238 21.3631 15.0777C21.6167 15.0239 21.855 14.9355 22.0778 14.8125C22.2776 14.6973 22.4467 14.6627 22.585 14.7088C22.7233 14.7472 22.8194 14.8279 22.8732 14.9509C22.9347 15.0738 22.9424 15.2121 22.8963 15.3658C22.8578 15.5119 22.7502 15.6387 22.5735 15.7462C22.3045 15.9153 21.9933 16.0421 21.6398 16.1266C21.294 16.2035 20.9712 16.2419 20.6715 16.2419ZM20.464 11.3544C20.0414 11.3544 19.6994 11.485 19.4381 11.7463C19.1768 12.0076 19.0193 12.3611 18.9655 12.8068H21.8012C21.7704 12.338 21.6398 11.9807 21.4093 11.7348C21.1864 11.4812 20.8713 11.3544 20.464 11.3544Z" fill="#474A57"/>
</svg>
