<svg width="24" height="23" viewBox="0 0 24 23" fill="none" xmlns="http://www.w3.org/2000/svg">
<mask id="mask0_17695_5751" style="mask-type:alpha" maskUnits="userSpaceOnUse" x="3" y="2" width="18" height="19">
<path fill-rule="evenodd" clip-rule="evenodd" d="M9.76476 2.77282C11.0648 1.74239 12.9104 1.74239 14.2104 2.77282L14.2124 2.7744L19.8462 7.2673C20.5611 7.81704 20.9875 8.6615 20.9998 9.5635L21 9.57525L20.9999 17.0529C20.9999 19.162 19.2753 20.8571 17.166 20.8571H15.5168L15.4969 20.8568C14.466 20.8329 13.6288 19.9961 13.629 18.955V16.3182C13.629 16.1279 13.4708 15.959 13.2575 15.959H10.7873C10.5761 15.9615 10.4204 16.1294 10.4204 16.3182V18.9468C10.4204 19.0242 10.4102 19.0991 10.391 19.1704C10.2794 20.1263 9.46085 20.8571 8.48309 20.8571H6.83391C4.72464 20.8571 3 19.162 3 17.0529V9.57495C3.00893 8.67109 3.43602 7.82423 4.15378 7.2754L9.76476 2.77282ZM8.70616 18.7787V16.3182C8.70614 15.1705 9.63957 14.2523 10.778 14.2448L10.7837 14.2447L13.2575 14.2447C14.4013 14.2447 15.3432 15.165 15.3432 16.3182V18.955C15.3432 19.0474 15.4184 19.137 15.5305 19.1428H17.166C18.3448 19.1428 19.2856 18.199 19.2856 17.0529V9.58193C19.279 9.20848 19.1012 8.85539 18.798 8.62378L18.7838 8.6127L13.1456 4.11626L13.1447 4.11554C12.4691 3.58077 11.5072 3.58052 10.8314 4.11481L5.21818 8.61925C5.21199 8.62422 5.20572 8.6291 5.19939 8.6339C4.89619 8.86365 4.71909 9.21599 4.71428 9.58821V17.0529C4.71428 18.199 5.65512 19.1428 6.83391 19.1428H8.48309C8.60532 19.1428 8.68967 19.047 8.68967 18.9468C8.68967 18.8893 8.69534 18.833 8.70616 18.7787Z" fill="#200E32"/>
<path d="M8.70616 16.3182V18.7787C8.69534 18.833 8.68967 18.8893 8.68967 18.9468C8.68967 19.047 8.60532 19.1428 8.48309 19.1428H6.83391C5.65512 19.1428 4.71428 18.199 4.71428 17.0529V9.58821C4.71909 9.21599 4.89619 8.86365 5.19939 8.6339C5.20572 8.6291 5.21199 8.62422 5.21818 8.61925L10.8314 4.11481C11.5072 3.58052 12.4691 3.58077 13.1447 4.11554L13.1456 4.11626L18.7838 8.6127L18.798 8.62378C19.1012 8.85539 19.279 9.20848 19.2856 9.58193V17.0529C19.2856 18.199 18.3448 19.1428 17.166 19.1428H15.5305C15.4184 19.137 15.3432 19.0474 15.3432 18.955V16.3182C15.3432 15.165 14.4013 14.2447 13.2575 14.2447L10.7837 14.2447L10.778 14.2448C9.63957 14.2523 8.70614 15.1705 8.70616 16.3182Z" fill="#200E32"/>
</mask>
<g mask="url(#mask0_17695_5751)">
<rect y="-1" width="24" height="24" fill="#4EABE6"/>
</g>
</svg>
