<svg width="24" height="24" viewBox="0 0 24 24" fill="none" xmlns="http://www.w3.org/2000/svg">
<rect x="3" y="3" width="18" height="18" rx="5" fill="#C2E4F8"/>
<path fill-rule="evenodd" clip-rule="evenodd" d="M11.5518 7.18915C11.6671 7.07069 11.8247 7.00271 11.99 7.00008C12.0735 6.99874 12.1565 7.01411 12.234 7.04537C12.3115 7.07662 12.3819 7.12321 12.4411 7.18213C12.5003 7.24106 12.5471 7.31113 12.5787 7.38843C12.6103 7.46573 12.626 7.54859 12.625 7.63208V11.3792H16.375C16.5408 11.3792 16.6997 11.4451 16.8169 11.5622C16.9342 11.6793 17 11.8381 17 12.0038C17 12.1694 16.9342 12.3284 16.8169 12.4455C16.6997 12.5626 16.5408 12.6283 16.375 12.6283H12.625V16.3755C12.625 16.5411 12.5591 16.7001 12.4419 16.8172C12.3247 16.9343 12.1657 17 12 17C11.8342 17 11.6753 16.9343 11.558 16.8172C11.4408 16.7001 11.375 16.5411 11.375 16.3755V12.6283H7.625C7.45924 12.6283 7.30027 12.5626 7.18306 12.4455C7.06585 12.3284 7 12.1694 7 12.0038C7 11.8381 7.06585 11.6793 7.18306 11.5622C7.30027 11.4451 7.45924 11.3792 7.625 11.3792H11.375V7.63208C11.373 7.46687 11.4366 7.30761 11.5518 7.18915Z" fill="#249FE6"/>
<path fill-rule="evenodd" clip-rule="evenodd" d="M17.7857 4.125H6.21429C5.0604 4.125 4.125 5.0604 4.125 6.21429V17.7857C4.125 18.9396 5.0604 19.875 6.21429 19.875H17.7857C18.9396 19.875 19.875 18.9396 19.875 17.7857V6.21429C19.875 5.0604 18.9396 4.125 17.7857 4.125ZM6.21429 3C4.43908 3 3 4.43908 3 6.21429V17.7857C3 19.5609 4.43908 21 6.21429 21H17.7857C19.5609 21 21 19.5609 21 17.7857V6.21429C21 4.43908 19.5609 3 17.7857 3H6.21429Z" fill="#4EABE6"/>
</svg>
