<svg width="26" height="25" viewBox="0 0 26 25" fill="none" xmlns="http://www.w3.org/2000/svg">
<g clip-path="url(#clip0_8774_4908)">
<path fill-rule="evenodd" clip-rule="evenodd" d="M12.9487 6.44824C11.2576 6.44824 11.0454 6.45564 10.3811 6.48586C9.71821 6.51622 9.26571 6.62117 8.86978 6.77516C8.46022 6.93421 8.1128 7.14697 7.76669 7.49322C7.42031 7.83934 7.20755 8.18675 7.04798 8.59618C6.8936 8.99225 6.78852 9.44487 6.75868 10.1075C6.72898 10.7718 6.72119 10.9841 6.72119 12.6753C6.72119 14.3664 6.72872 14.578 6.75881 15.2422C6.7893 15.9052 6.89425 16.3577 7.04811 16.7536C7.20729 17.1632 7.42005 17.5106 7.7663 17.8567C8.11229 18.2031 8.4597 18.4163 8.869 18.5754C9.2652 18.7294 9.71782 18.8343 10.3806 18.8647C11.0448 18.8949 11.2569 18.9023 12.948 18.9023C14.6393 18.9023 14.8508 18.8949 15.5151 18.8647C16.178 18.8343 16.631 18.7294 17.0272 18.5754C17.4366 18.4163 17.7835 18.2031 18.1295 17.8567C18.4759 17.5106 18.6886 17.1632 18.8482 16.7537C19.0013 16.3577 19.1064 15.905 19.1375 15.2424C19.1674 14.5782 19.1751 14.3664 19.1751 12.6753C19.1751 10.9841 19.1674 10.7719 19.1375 10.1077C19.1064 9.44474 19.0013 8.99225 18.8482 8.59631C18.6886 8.18675 18.4759 7.83934 18.1295 7.49322C17.7831 7.14684 17.4368 6.93408 17.0268 6.77516C16.6298 6.62117 16.1771 6.51622 15.5142 6.48586C14.8499 6.45564 14.6385 6.44824 12.9468 6.44824H12.9487ZM12.3901 7.57039C12.5559 7.57013 12.7409 7.57039 12.9487 7.57039C14.6113 7.57039 14.8084 7.57636 15.465 7.60619C16.0721 7.63396 16.4016 7.73541 16.6211 7.82064C16.9117 7.9335 17.1189 8.06842 17.3367 8.28637C17.5547 8.50431 17.6896 8.71188 17.8027 9.00248C17.8879 9.22172 17.9895 9.55124 18.0171 10.1584C18.047 10.8148 18.0535 11.012 18.0535 12.6738C18.0535 14.3357 18.047 14.5329 18.0171 15.1893C17.9894 15.7964 17.8879 16.1259 17.8027 16.3452C17.6898 16.6358 17.5547 16.8427 17.3367 17.0605C17.1188 17.2785 16.9118 17.4134 16.6211 17.5263C16.4019 17.6119 16.0721 17.7131 15.465 17.7408C14.8085 17.7707 14.6113 17.7772 12.9487 17.7772C11.286 17.7772 11.0889 17.7707 10.4325 17.7408C9.82534 17.7128 9.49583 17.6114 9.2762 17.5261C8.9856 17.4133 8.77803 17.2783 8.56009 17.0604C8.34214 16.8424 8.20722 16.6354 8.0941 16.3447C8.00886 16.1254 7.90729 15.7959 7.87965 15.1888C7.84982 14.5323 7.84385 14.3352 7.84385 12.6723C7.84385 11.0094 7.84982 10.8132 7.87965 10.1568C7.90742 9.54968 8.00886 9.22016 8.0941 9.00066C8.20696 8.71007 8.34214 8.5025 8.56009 8.28455C8.77803 8.06661 8.9856 7.93169 9.2762 7.81856C9.4957 7.73294 9.82534 7.63175 10.4325 7.60386C11.0069 7.57791 11.2295 7.57013 12.3901 7.56883V7.57039ZM16.2727 8.60434C15.8601 8.60434 15.5254 8.93865 15.5254 9.35132C15.5254 9.76386 15.8601 10.0986 16.2727 10.0986C16.6852 10.0986 17.0199 9.76386 17.0199 9.35132C17.0199 8.93878 16.6852 8.60434 16.2727 8.60434ZM12.9488 9.47742C11.1827 9.47742 9.75091 10.9092 9.75091 12.6753C9.75091 14.4413 11.1827 15.8725 12.9488 15.8725C14.7148 15.8725 16.1461 14.4413 16.1461 12.6753C16.1461 10.9092 14.7148 9.47742 12.9488 9.47742ZM12.9487 10.5996C14.095 10.5996 15.0244 11.5288 15.0244 12.6753C15.0244 13.8216 14.095 14.7509 12.9487 14.7509C11.8023 14.7509 10.8731 13.8216 10.8731 12.6753C10.8731 11.5288 11.8023 10.5996 12.9487 10.5996Z" fill="#18191F"/>
</g>
<rect x="1.27246" y="1" width="23.3512" height="23.3512" rx="11.6756" stroke="#18191F"/>
<defs>
<clipPath id="clip0_8774_4908">
<rect x="1.27246" y="1" width="23.3512" height="23.3512" rx="11.6756" fill="white"/>
</clipPath>
</defs>
</svg>
