<svg xmlns="http://www.w3.org/2000/svg" width="24" height="24" fill="currentColor" viewBox="0 0 24 24">
  <path fill-rule="evenodd" d="M4.844 6h14.312c.466 0 .844.425.844.95v.1c0 .525-.378.95-.844.95H4.844C4.378 8 4 7.575 4 7.05v-.1c0-.525.378-.95.844-.95zm14.312 5H4.844c-.466 0-.844.425-.844.95v.1c0 .525.378.95.844.95h14.312c.466 0 .844-.425.844-.95v-.1c0-.525-.378-.95-.844-.95zm0 5H4.844c-.466 0-.844.425-.844.95v.1c0 .525.378.95.844.95h14.312c.466 0 .844-.425.844-.95v-.1c0-.525-.378-.95-.844-.95z" clip-rule="evenodd"/>
</svg>
