<svg width="24" height="24" viewBox="0 0 24 24" fill="currentColor" xmlns="http://www.w3.org/2000/svg">
<path d="M9.62106 4C9.06878 4 8.62106 4.44772 8.62106 5V8.6027H4C3.44771 8.6027 3 9.05041 3 9.6027V16.7943C3 17.3466 3.44772 17.7943 4 17.7943H12.5673L12.7502 19.7306C12.8321 20.5978 13.9066 20.9529 14.4892 20.3053L15.917 18.7183L17.9643 18.5178C18.8119 18.4348 19.1744 17.3979 18.5632 16.8048L14.8533 13.2054H15.3789V13.1916H20C20.5523 13.1916 21 12.7439 21 12.1916V5C21 4.44771 20.5523 4 20 4H9.62106ZM9.74662 5.15067H19.8744V12.0409H15.3789V9.6027C15.3789 9.05041 14.9312 8.6027 14.3789 8.6027H9.74662V5.15067ZM4.12556 9.75337H8.62106V12.1916C8.62106 12.7439 9.06878 13.1916 9.62106 13.1916H12.1328L12.4592 16.6436H4.12556V9.75337ZM9.74662 9.75337H14.2534V12.0409H13.6557L12.9642 11.3707C12.5847 11.0029 11.9525 11.3065 12.0023 11.8326L12.0225 12.0409H9.74662V9.75337ZM13.2685 13.2549L17.5423 17.4031L15.3789 17.6148L13.8448 19.3201L13.2685 13.2549Z" fill="currentColor"/>
</svg>
