<svg xmlns="http://www.w3.org/2000/svg" width="24" height="24" fill="currentColor" viewBox="0 0 24 24">
  <path fill-rule="evenodd" d="M7.227 3.227A6.75 6.75 0 0118.75 8c0 3.39.725 5.514 1.409 6.766.342.628.678 1.044.917 1.296a3.254 3.254 0 00.338.312l.009.007A.75.75 0 0121 17.75H3a.75.75 0 01-.423-1.37l.009-.006.063-.05c.06-.05.156-.136.275-.262.239-.252.575-.668.918-1.296C4.525 13.514 5.25 11.389 5.25 8a6.75 6.75 0 011.977-4.773zM4.69 16.25h14.62a8.795 8.795 0 01-.468-.766C18.025 13.986 17.25 11.611 17.25 8a5.25 5.25 0 00-10.5 0c0 3.61-.775 5.986-1.592 7.484a8.77 8.77 0 01-.468.766zM9.894 20.351a.75.75 0 011.025.273 1.25 1.25 0 002.162 0 .75.75 0 111.298.752 2.75 2.75 0 01-4.758 0 .75.75 0 01.273-1.025z" clip-rule="evenodd"/>
</svg>
