<svg width="24" height="24" viewBox="0 0 24 24" fill="none" xmlns="http://www.w3.org/2000/svg">
<mask id="mask0_16956_198494" style="mask-type:alpha" maskUnits="userSpaceOnUse" x="2" y="2" width="20" height="20">
<path fill-rule="evenodd" clip-rule="evenodd" d="M12.8333 3.1451C12.373 2.68471 11.6266 2.68471 11.1662 3.1451L9.24835 5.0632C8.91547 5.39611 8.91549 5.93583 9.24838 6.26872C9.58126 6.6016 10.121 6.60163 10.4539 6.26879L11.1473 5.57552V8.7373C11.1473 9.20812 11.529 9.5898 11.9998 9.5898C12.4706 9.5898 12.8523 9.20812 12.8523 8.7373V5.57552L13.5457 6.26879C13.8786 6.60163 14.4183 6.6016 14.7512 6.26872C15.0841 5.93583 15.0841 5.39611 14.7512 5.0632L12.8333 3.1451ZM6.2687 9.24838C5.93582 8.91549 5.39611 8.91549 5.06322 9.24838L3.1453 11.1663C2.68497 11.6266 2.68497 12.373 3.1453 12.8333L5.06322 14.7512C5.39611 15.0841 5.93582 15.0841 6.2687 14.7512C6.60159 14.4183 6.60159 13.8786 6.2687 13.5458L5.57526 12.8523H8.73729C9.20811 12.8523 9.58979 12.4706 9.58979 11.9998C9.58979 11.529 9.20811 11.1473 8.73729 11.1473H5.57526L6.2687 10.4539C6.60159 10.121 6.60159 9.58126 6.2687 9.24838ZM18.9364 9.24838C18.6035 8.91549 18.0638 8.91549 17.7309 9.24838C17.398 9.58126 17.398 10.121 17.7309 10.4539L18.4243 11.1473H15.2623C14.7915 11.1473 14.4098 11.529 14.4098 11.9998C14.4098 12.4706 14.7915 12.8523 15.2623 12.8523H18.4243L17.7309 13.5458C17.398 13.8786 17.398 14.4183 17.7309 14.7512C18.0638 15.0841 18.6035 15.0841 18.9364 14.7512L20.8543 12.8333C21.3146 12.373 21.3146 11.6266 20.8543 11.1663L18.9364 9.24838ZM11.9998 14.4098C11.529 14.4098 11.1473 14.7915 11.1473 15.2623V18.4241L10.4539 17.7308C10.121 17.398 9.58126 17.398 9.24838 17.7309C8.91549 18.0638 8.91547 18.6035 9.24835 18.9364L11.1662 20.8545C11.6266 21.3149 12.373 21.3149 12.8333 20.8545L14.7512 18.9364C15.0841 18.6035 15.0841 18.0638 14.7512 17.7309C14.4183 17.398 13.8786 17.398 13.5457 17.7308L12.8523 18.4241V15.2623C12.8523 14.7915 12.4706 14.4098 11.9998 14.4098Z" fill="currentColor"/>
</mask>
<g mask="url(#mask0_16956_198494)">
<rect width="24" height="24" fill="currentColor"/>
</g>
</svg>
