<svg width="24" height="24" viewBox="0 0 24 24" fill="none" xmlns="http://www.w3.org/2000/svg">
<g id="Icon-overlay">
<path id="Vector" fill-rule="evenodd" clip-rule="evenodd" d="M4.98556 15.7346C6.20385 16.5877 7.59942 16.9987 8.98183 17.0012C9.45699 18.2994 10.3205 19.4702 11.5388 20.3233C14.7056 22.5407 19.0704 21.7711 21.2879 18.6042C23.5053 15.4374 22.7357 11.0726 19.5688 8.85516C18.3506 8.00211 16.955 7.59113 15.5726 7.58863C15.0974 6.29044 14.2339 5.11959 13.0156 4.26653C9.8488 2.04909 5.48398 2.81873 3.26653 5.98556C1.04909 9.1524 1.81873 13.5172 4.98556 15.7346ZM6.13272 14.0963C6.87882 14.6188 7.71803 14.9091 8.56458 14.9824C8.47834 13.4674 8.88186 11.9136 9.81976 10.5742C10.7576 9.23472 12.0797 8.32412 13.5328 7.88701C13.1744 7.11658 12.6146 6.42727 11.8685 5.90484C9.60646 4.32095 6.48873 4.87069 4.90484 7.13272C3.32095 9.39474 3.87069 12.5125 6.13272 14.0963ZM18.4217 10.4934C17.6756 9.97103 16.8364 9.68073 15.9898 9.60743C16.0761 11.1224 15.6725 12.6762 14.7346 14.0156C13.7967 15.3551 12.4747 16.2657 11.0216 16.7028C11.38 17.4732 11.9398 18.1625 12.6859 18.685C14.9479 20.2688 18.0657 19.7191 19.6496 17.4571C21.2334 15.1951 20.6837 12.0773 18.4217 10.4934Z" fill="currentColor"/>
</g>
</svg>
