<svg xmlns="http://www.w3.org/2000/svg" width="24" height="24" fill="currentColor" viewBox="0 0 24 24">
  <path fill-rule="evenodd"
    d="M9.683 9.213H6.322a.487.487 0 1 1 0-.975h3.357a1.517 1.517 0 0 1 2.861 0h.941a.487.487 0 0 1 0 .975h-.945a1.515 1.515 0 0 1-2.853 0Zm.686-.495a.73.73 0 0 0 .74.738.734.734 0 0 0 .741-.738c0-.42-.329-.73-.74-.73a.72.72 0 0 0-.74.73Zm2.098 3.5a4.86 4.86 0 0 1 3.102-1.697V6.348c0-.768-.42-1.16-1.16-1.16H5.364c-.748 0-1.16.392-1.16 1.16v8.897c0 .768.412 1.16 1.16 1.16h6.14a4.64 4.64 0 0 1 .328-3.212h-1.738a1.517 1.517 0 0 1-2.861 0h-.941a.486.486 0 0 1-.472-.488.48.48 0 0 1 .472-.487h.944a1.513 1.513 0 0 1 2.855 0h2.376Zm-.476 5.375H5.35c-1.563 0-2.349-.76-2.349-2.289V6.29C3 4.76 3.786 4 5.35 4h9.074c1.571 0 2.349.768 2.349 2.289v4.23c2.367.29 4.227 2.303 4.227 4.719C21 17.837 18.808 20 16.182 20a4.846 4.846 0 0 1-4.19-2.407Zm-2.587-4.88a.73.73 0 0 0-.74-.739.734.734 0 0 0-.741.739c0 .413.329.73.74.73.42 0 .74-.317.74-.73Zm6.419 4.718c.134.125.24.177.366.177.128 0 .225-.06.352-.177l1.938-1.772a.431.431 0 0 0 .164-.348.426.426 0 0 0-.456-.435.521.521 0 0 0-.337.148l-.718.708-.486.495.037-.938v-1.956a.494.494 0 0 0-.987 0v1.956l.037.938-.494-.495-.71-.708a.473.473 0 0 0-.345-.148c-.261 0-.47.184-.456.436.008.14.052.25.165.347l1.93 1.772Z"
    clip-rule="evenodd" />
</svg>
