<svg width="22" height="22" viewBox="0 0 22 22" fill="none" xmlns="http://www.w3.org/2000/svg">
<circle cx="11" cy="11" r="10" fill="white" stroke="#D9DBE1"/>
<path fill-rule="evenodd" clip-rule="evenodd" d="M11.0003 7.66699C11.2304 7.66699 11.417 7.85354 11.417 8.08366V10.5837H13.917C14.1471 10.5837 14.3337 10.7702 14.3337 11.0003C14.3337 11.2304 14.1471 11.417 13.917 11.417H11.417V13.917C11.417 14.1471 11.2304 14.3337 11.0003 14.3337C10.7702 14.3337 10.5837 14.1471 10.5837 13.917V11.417H8.08366C7.85354 11.417 7.66699 11.2304 7.66699 11.0003C7.66699 10.7702 7.85354 10.5837 8.08366 10.5837H10.5837V8.08366C10.5837 7.85354 10.7702 7.66699 11.0003 7.66699Z" fill="#474A57"/>
</svg>
