<svg width="24" height="24" viewBox="0 0 24 24" fill="none" xmlns="http://www.w3.org/2000/svg">
  <path fill-rule="evenodd" clip-rule="evenodd"
    d="M10.5233 4.42136C12.1239 4.07428 13.7941 4.25892 15.2804 4.94726C16.7721 5.63975 18.0028 6.79329 18.7899 8.23734C19.5812 9.6872 19.8951 11.3497 19.687 12.9882C19.4815 14.6252 18.7623 16.1549 17.6327 17.3573C16.509 18.5534 15.0281 19.3534 13.4117 19.6376L13.4102 19.6378C11.7967 19.919 10.1356 19.6663 8.67858 18.9183C7.21582 18.1655 6.03209 16.9631 5.30274 15.4885C5.05789 14.9935 5.26071 14.3937 5.75575 14.1488C6.25079 13.904 6.85059 14.1068 7.09544 14.6018C7.63513 15.693 8.51039 16.5823 9.59275 17.1394C10.6624 17.6884 11.8818 17.8739 13.0663 17.6676C14.2568 17.4581 15.3474 16.8689 16.175 15.988M10.5233 4.42136C8.9253 4.76775 7.60395 5.56285 6.52836 6.79397C6.51138 6.81214 6.49102 6.83427 6.46769 6.86024L6.23517 5.52149C6.14066 4.97735 5.62294 4.61285 5.0788 4.70736C4.53466 4.80187 4.17016 5.31959 4.26467 5.86373L4.93292 9.71123C4.97849 9.97357 5.1268 10.2069 5.34499 10.3595C5.56318 10.5122 5.83322 10.5715 6.09529 10.5243L9.87528 9.84405C10.4188 9.74623 10.7802 9.2263 10.6824 8.68274C10.5845 8.13919 10.0646 7.77785 9.52105 7.87567L7.99895 8.14959C8.0077 8.14026 8.01628 8.13077 8.02468 8.12112C8.82774 7.19766 9.77629 6.62972 10.9469 6.37597C12.1221 6.12114 13.3484 6.25664 14.4395 6.76193C15.5425 7.27406 16.4518 8.12675 17.0338 9.19449C17.6239 10.2754 17.8582 11.5156 17.7028 12.7373L17.7026 12.7389C17.5499 13.9562 17.015 15.0938 16.175 15.988"
    fill="currentColor" />
</svg>
