<svg xmlns="http://www.w3.org/2000/svg" width="25" height="24" fill="currentColor" viewBox="0 0 25 24">
  <g clip-path="url(#a)">
    <path fill-rule="evenodd" d="M.645 10.006a.75.75 0 0 1 .388-.663 60.517 60.517 0 0 1 19.398-6.689.75.75 0 0 1 .86.862 60.517 60.517 0 0 1-6.687 19.397.75.75 0 0 1-1.32-.01L9.046 14.9l-8.003-4.237a.75.75 0 0 1-.4-.657Zm9.879 4.477 3.426 6.471a59.02 59.02 0 0 0 5.682-16.64 59.02 59.02 0 0 0-16.64 5.683l6.471 3.426 4.912-4.912a.75.75 0 0 1 1.06 1.06l-4.911 4.912Z" clip-rule="evenodd"/>
  </g>
  <defs>
    <clipPath id="a">
      <path d="M.334 0h24v24h-24z"/>
    </clipPath>
  </defs>
</svg>
