<svg xmlns="http://www.w3.org/2000/svg" width="24" height="24" fill="currentColor" viewBox="0 0 24 24">
  <path fill-opacity=".5" fill-rule="evenodd" d="M12 24c6.627 0 12-5.373 12-12S18.627 0 12 0 0 5.373 0 12s5.373 12 12 12Zm0-3a9 9 0 1 0 0-18 9 9 0 0 0 0 18Z" clip-rule="evenodd" fill="#FFFBED"/>
  <path fill-rule="evenodd" d="M22.5 12c.828 0 1.51-.675 1.407-1.497A12.006 12.006 0 0 0 13.497.093C12.675-.01 12 .671 12 1.5c0 .828.677 1.487 1.494 1.623a9.008 9.008 0 0 1 7.383 7.383c.136.817.795 1.494 1.623 1.494Z" clip-rule="evenodd"/>
</svg>
