<svg xmlns="http://www.w3.org/2000/svg" width="24" height="24" fill="currentColor" viewBox="0 0 24 24">
  <path fill-rule="evenodd" d="M5.1 5.1v1.8h13.8V5.1H5.1ZM3.951 3.951A1.2 1.2 0 0 0 3.6 4.8v2.4a1.2 1.2 0 0 0 1.2 1.2h14.4a1.2 1.2 0 0 0 1.2-1.2V4.8a1.2 1.2 0 0 0-1.2-1.2H4.8a1.2 1.2 0 0 0-.849.351ZM5.1 12.3v6.6h6.6v-6.6H5.1Zm-1.149-1.149A1.2 1.2 0 0 0 3.6 12v7.2a1.2 1.2 0 0 0 1.2 1.2H12a1.2 1.2 0 0 0 1.2-1.2V12a1.2 1.2 0 0 0-1.2-1.2H4.8a1.2 1.2 0 0 0-.849.351ZM17.1 12.3v6.6h1.8v-6.6h-1.8Zm-1.149-1.149a1.2 1.2 0 0 1 .849-.351h2.4a1.2 1.2 0 0 1 1.2 1.2v7.2a1.2 1.2 0 0 1-1.2 1.2h-2.4a1.2 1.2 0 0 1-1.2-1.2V12a1.2 1.2 0 0 1 .351-.848Z" clip-rule="evenodd"/>
</svg>
