<svg width="24" height="24" viewBox="0 0 24 24" fill="none" xmlns="http://www.w3.org/2000/svg">
<rect x="3" y="3" width="18" height="18" rx="5" fill="#C2E4F8"/>
<path fill-rule="evenodd" clip-rule="evenodd" d="M17.7857 4.125H6.21429C5.0604 4.125 4.125 5.0604 4.125 6.21429V17.7857C4.125 18.9396 5.0604 19.875 6.21429 19.875H17.7857C18.9396 19.875 19.875 18.9396 19.875 17.7857V6.21429C19.875 5.0604 18.9396 4.125 17.7857 4.125ZM6.21429 3C4.43908 3 3 4.43908 3 6.21429V17.7857C3 19.5609 4.43908 21 6.21429 21H17.7857C19.5609 21 21 19.5609 21 17.7857V6.21429C21 4.43908 19.5609 3 17.7857 3H6.21429Z" fill="#4EABE6"/>
<path fill-rule="evenodd" clip-rule="evenodd" d="M7.20927 10.2219C7.48822 9.92604 7.94048 9.92604 8.21942 10.2219L12.0001 13.1711L15.7807 10.2219C16.0596 9.92604 16.5119 9.92604 16.7909 10.2219C17.0698 10.5177 17.0698 10.9974 16.7909 11.2933L12.5051 14.7781C12.2262 15.074 11.7739 15.074 11.495 14.7781L7.20927 11.2933C6.93032 10.9974 6.93032 10.5177 7.20927 10.2219Z" fill="#249FE6"/>
</svg>
