<svg xmlns="http://www.w3.org/2000/svg" width="24" height="24" fill="currentColor" viewBox="0 0 24 24">
  <path fill-rule="evenodd" d="M3 3.818C3 3.366 3.366 3 3.818 3h2.975c.452 0 .819.366.819.818v.67h3.57v-.67c0-.452.366-.818.818-.818h2.975c.452 0 .818.366.818.818v2.975a.818.818 0 01-.818.819h-.67v2.082h2.083v-.67c0-.451.367-.817.819-.817h2.975c.452 0 .818.366.818.818V12a.818.818 0 01-.818.818h-.67v3.57h.67c.452 0 .818.367.818.819v2.975a.818.818 0 01-.818.818h-2.975a.818.818 0 01-.819-.818v-.67h-3.57v.67A.818.818 0 0112 21H9.025a.818.818 0 01-.818-.818v-2.975c0-.452.366-.819.818-.819h.67v-2.082H7.611v.67a.818.818 0 01-.819.817H3.818A.818.818 0 013 14.975V12c0-.452.366-.818.818-.818h.67v-3.57h-.67A.818.818 0 013 6.793V3.818zm1.636 2.157V4.636h1.34v1.34h-1.34zm1.488 1.637v3.57h.67c.451 0 .818.366.818.818v.67h2.828a.835.835 0 01.145 0h2.085V7.611H12a.818.818 0 01-.818-.819v-.669h-3.57v.67a.818.818 0 01-.819.818h-.67zm6.694-1.637v-.658-.011-.67h1.34v1.34h-1.34zm-1.487 8.33v2.083H12c.452 0 .818.367.818.819v.669h3.57v-.67c0-.451.367-.818.819-.818h.67v-3.57h-.67a.818.818 0 01-.819-.818v-.67h-2.082v2.158a.818.818 0 01-.818.818H11.33zm6.694-3.123v-.655-.015-.669h1.339v1.339h-1.34zm0 7.524v-.012-.669h1.339v1.339h-1.34v-.658zm-8.182-.681h1.339v1.339h-1.34v-1.34zm-5.207-5.207h1.34v1.339h-1.34v-1.339z" clip-rule="evenodd"/>
</svg>
