<?xml version="1.0" encoding="utf-8"?>
<!-- Generator: Adobe Illustrator 25.4.1, SVG Export Plug-In . SVG Version: 6.00 Build 0)  -->
<svg version="1.1" id="圖層_1" xmlns="http://www.w3.org/2000/svg" xmlns:xlink="http://www.w3.org/1999/xlink" x="0px" y="0px"
	 viewBox="0 0 2000.51 1000" style="enable-background:new 0 0 2000.51 1000;" xml:space="preserve">
<style type="text/css">
	.st0{fill:url(#SVGID_1_);}
	.st1{fill:#99D6F2;}
	.st2{fill:#348ECE;}
	.st3{fill:#FFFFFF;}
	.st4{fill:#FFFEEC;}
	.st5{fill:#F8B62D;}
	.st6{fill:#FFF0C1;}
</style>
<linearGradient id="SVGID_1_" gradientUnits="userSpaceOnUse" x1="1000.2563" y1="866.6946" x2="1000.2563" y2="-813.6627">
	<stop  offset="0" style="stop-color:#FFFFFF"/>
	<stop  offset="0.0858" style="stop-color:#F7FCFE"/>
	<stop  offset="0.2184" style="stop-color:#E1F4FC"/>
	<stop  offset="0.3813" style="stop-color:#BEE7F9"/>
	<stop  offset="0.5681" style="stop-color:#8CD4F5"/>
	<stop  offset="0.7753" style="stop-color:#4DBDF0"/>
	<stop  offset="0.9967" style="stop-color:#01A0E9"/>
	<stop  offset="1" style="stop-color:#00A0E9"/>
</linearGradient>
<path class="st0" d="M2010.51-5.26V1005H-10V506.34c0-17.06,0-26.94,0-26.94V-5.26H2010.51z"/>
<path class="st1" d="M2010.51,972.57V725.05v-32.36V501.12v-15.63c-87.16-6.14-194.57-0.78-216.84,1.37
	c-58.43,5.67-116.91,10.99-175.44,15.63c-111.09,8.83-222.36,15.21-333.82,16.84c-170.2,2.48-336.27-13.3-505.05-32.83
	c-75.82-8.77-151.6-18.49-227.8-23.38c-153.88-9.87-307.28,14.76-461.04,17.18C57,480.83,23.49,480.81-10,479.41c0,0,0,9.88,0,26.94
	v202.37v10.54v253.31v32.42h1628.24h392.27V972.57z"/>
<path class="st2" d="M2010.51,972.57V725.05v-32.36V501.12c-83.92-4.41-164.01,8.79-246.73,19.45
	c-48.42,6.24-96.95,11.69-145.54,16.32c-36.99,3.53-74.01,6.6-111.07,9.2c-343.75,24.15-686.11-4.61-1029.14-24.54
	C315.44,512.1,152.83,508.31-10,506.34v202.37v10.54v253.31v32.42h1628.24h392.27V972.57z"/>
<path class="st3" d="M476.79,276.48c0-32.19-28.96-59.04-67.44-65.22c-4.25-38.19-36.63-67.89-75.96-67.89
	c-28.77,0-53.81,15.89-66.86,39.37c-8.66-3.56-18.3-5.57-28.46-5.57c-37.63,0-68.13,27.25-68.13,60.86c0,1.05,0.03,2.1,0.09,3.14
	c-2.81-0.51-5.69-0.79-8.65-0.79c-32.68,0-56.23,33.27-45.19,64.03c10.66,29.73,44.1,38.56,71.84,44.48
	c32.8,6.99,66.62,9.44,100.11,9.44c58.22,0,109.4-8.41,138.82-21.12C456.33,326.8,476.79,303.53,476.79,276.48z"/>
<path class="st3" d="M1598.99,318c-8.18-9.14-13.37-20.57-13.37-34.16c0-30.73,24.91-55.64,55.64-55.64c0.85,0,1.68,0.03,2.52,0.06
	c8.99-35.32,41-61.45,79.12-61.45c27.6,0,51.98,13.71,66.76,34.67c4.81-0.93,9.79-1.43,14.89-1.43c41.57,0,75.26,32.49,75.26,72.57
	c0,30.57-21.31,59.46-50.43,68.57c-0.3,0.09-0.6,0.18-0.89,0.27c-17.08,5.15-35.18,5.42-52.76,7.53
	c-36.7,4.41-73.59,4.24-110.06-1.9c-12.34-2.08-24.69-4.55-36.41-9.06C1617.69,333.59,1606.93,326.87,1598.99,318z"/>
<path class="st4" d="M2010.51,692.69v279.88H-10.27l0.26-263.85H-10c173.48-26.56,304.8-50.26,513.85,11.49
	c86.48,25.54,164.48,76.88,252.97,94.18c172.62,33.77,353.35-12.28,522.11-61.81c108.83-31.94,228.66-49.41,339.31-58.44
	C1826.14,677.16,2001.59,689.98,2010.51,692.69z"/>
<ellipse transform="matrix(0.7071 -0.7071 0.7071 0.7071 112.439 781.8412)" class="st5" cx="999.99" cy="255.19" rx="124.96" ry="124.96"/>
<path class="st3" d="M1250.61,295.56c-1.5,0-2.99,0.09-4.44,0.26c-10.34-15.55-28.4-25.86-48.98-25.86c-3.94,0-7.78,0.38-11.5,1.1
	c-11.42-16.2-30.26-26.79-51.58-26.79c-29.46,0-54.19,20.19-61.14,47.48c-0.65-0.03-1.29-0.05-1.95-0.05
	c-23.74,0-42.99,19.25-42.99,42.99c0,10.5,4.01,19.33,10.33,26.39c6.14,6.86,14.45,12.05,23.39,15.48c9.05,3.48,18.6,5.39,28.13,7
	c29.9,5.03,60.46,4.59,90.53,1.4c29.09-3.09,59.68-6.94,87.12-17.51c1.14-0.44,2.27-0.89,3.39-1.35
	c12.18-5.01,18.58-18.68,18.58-31.68C1289.49,312.97,1272.08,295.56,1250.61,295.56z"/>
<path class="st6" d="M2010.51,972.57V725.05c-11.86-3.04-186.28-21.59-392.27-9.63c-112.6,6.53-234.65,22.19-344.73,54.5
	c-168.77,49.54-343.8,110.68-516.42,76.9c-88.5-17.3-166.5-68.64-252.97-94.18C295.06,690.89,163.48,692.7-10,719.26h-0.01v253.31
	V1005H-10h1628.24h392.27v-0.01V972.57z"/>
</svg>
