<svg width="80" height="80" viewBox="0 0 80 80" fill="none" xmlns="http://www.w3.org/2000/svg">
<mask id="mask0" mask-type="alpha" maskUnits="userSpaceOnUse" x="0" y="0" width="80" height="80">
<rect width="80" height="80" fill="white"/>
</mask>
<g mask="url(#mask0)">
<rect opacity="0.1" width="80" height="80" fill="#474A57"/>
<g opacity="0.06">
<path d="M-24 -25L103.5 105" stroke="#3C64B1"/>
<path d="M-19.0195 -30.0781L108.48 99.9219" stroke="#3C64B1"/>
<path d="M-14.0391 -35.1562L113.461 94.8438" stroke="#3C64B1"/>
<path d="M-9.05859 -40.2344L118.441 89.7656" stroke="#3C64B1"/>
<path d="M-4.07812 -45.3125L123.422 84.6875" stroke="#3C64B1"/>
<path d="M0.902344 -50.3906L128.402 79.6094" stroke="#3C64B1"/>
<path d="M5.88281 -55.4688L133.383 74.5312" stroke="#3C64B1"/>
<path d="M10.8633 -60.5469L138.363 69.4531" stroke="#3C64B1"/>
<path d="M15.8438 -65.625L143.344 64.375" stroke="#3C64B1"/>
<path d="M20.8242 -70.7031L148.324 59.2969" stroke="#3C64B1"/>
<path d="M25.8047 -75.7812L153.305 54.2188" stroke="#3C64B1"/>
<path d="M30.7852 -80.8594L158.285 49.1406" stroke="#3C64B1"/>
<path d="M35.7656 -85.9375L163.266 44.0625" stroke="#3C64B1"/>
<path d="M-28.9805 -19.9219L98.5195 110.078" stroke="#3C64B1"/>
<path d="M-33.9609 -14.8438L93.5391 115.156" stroke="#3C64B1"/>
<path d="M-38.9414 -9.76562L88.5586 120.234" stroke="#3C64B1"/>
<path d="M-43.9219 -4.6875L83.5781 125.312" stroke="#3C64B1"/>
<path d="M-48.9023 0.390625L78.5977 130.391" stroke="#3C64B1"/>
<path d="M-53.8828 5.46875L73.6172 135.469" stroke="#3C64B1"/>
<path d="M-58.8633 10.5469L68.6367 140.547" stroke="#3C64B1"/>
<path d="M-63.8438 15.625L63.6562 145.625" stroke="#3C64B1"/>
<path d="M-68.8242 20.7031L58.6758 150.703" stroke="#3C64B1"/>
<path d="M-73.8047 25.7812L53.6953 155.781" stroke="#3C64B1"/>
<path d="M-78.7852 30.8594L48.7148 160.859" stroke="#3C64B1"/>
<path d="M-83.7656 35.9375L43.7344 165.938" stroke="#3C64B1"/>
<path d="M-88.7461 41.0156L38.7539 171.016" stroke="#3C64B1"/>
</g>
<g opacity="0.06">
<path d="M-21.5098 -27.5391L105.99 102.461" stroke="#3C64B1"/>
<path d="M-16.5293 -32.6172L110.971 97.3828" stroke="#3C64B1"/>
<path d="M-11.5488 -37.6953L115.951 92.3047" stroke="#3C64B1"/>
<path d="M-6.56836 -42.7734L120.932 87.2266" stroke="#3C64B1"/>
<path d="M-1.58789 -47.8516L125.912 82.1484" stroke="#3C64B1"/>
<path d="M3.39258 -52.9297L130.893 77.0703" stroke="#3C64B1"/>
<path d="M8.37305 -58.0078L135.873 71.9922" stroke="#3C64B1"/>
<path d="M13.3535 -63.0859L140.854 66.9141" stroke="#3C64B1"/>
<path d="M18.334 -68.1641L145.834 61.8359" stroke="#3C64B1"/>
<path d="M23.3145 -73.2422L150.814 56.7578" stroke="#3C64B1"/>
<path d="M28.2949 -78.3203L155.795 51.6797" stroke="#3C64B1"/>
<path d="M33.2754 -83.3984L160.775 46.6016" stroke="#3C64B1"/>
<path d="M38.2559 -88.4766L165.756 41.5234" stroke="#3C64B1"/>
<path d="M-26.4902 -22.4609L101.01 107.539" stroke="#3C64B1"/>
<path d="M-31.4707 -17.3828L96.0293 112.617" stroke="#3C64B1"/>
<path d="M-36.4512 -12.3047L91.0488 117.695" stroke="#3C64B1"/>
<path d="M-41.4316 -7.22656L86.0684 122.773" stroke="#3C64B1"/>
<path d="M-46.4121 -2.14844L81.0879 127.852" stroke="#3C64B1"/>
<path d="M-51.3926 2.92969L76.1074 132.93" stroke="#3C64B1"/>
<path d="M-56.373 8.00781L71.127 138.008" stroke="#3C64B1"/>
<path d="M-61.3535 13.0859L66.1465 143.086" stroke="#3C64B1"/>
<path d="M-66.334 18.1641L61.166 148.164" stroke="#3C64B1"/>
<path d="M-71.3145 23.2422L56.1855 153.242" stroke="#3C64B1"/>
<path d="M-76.2949 28.3203L51.2051 158.32" stroke="#3C64B1"/>
<path d="M-81.2754 33.3984L46.2246 163.398" stroke="#3C64B1"/>
<path d="M-86.2559 38.4766L41.2441 168.477" stroke="#3C64B1"/>
</g>
</g>
<g opacity="0.5">
<path d="M51.6667 25H28.3333C26.4924 25 25 26.4924 25 28.3333V51.6667C25 53.5076 26.4924 55 28.3333 55H51.6667C53.5076 55 55 53.5076 55 51.6667V28.3333C55 26.4924 53.5076 25 51.6667 25Z" stroke="#3C64B1" stroke-width="1.5" stroke-linecap="round" stroke-linejoin="round"/>
<path d="M34.1667 36.667C35.5475 36.667 36.6667 35.5477 36.6667 34.167C36.6667 32.7863 35.5475 31.667 34.1667 31.667C32.786 31.667 31.6667 32.7863 31.6667 34.167C31.6667 35.5477 32.786 36.667 34.1667 36.667Z" stroke="#3C64B1" stroke-width="1.5" stroke-linecap="round" stroke-linejoin="round"/>
<path d="M54.9999 45.0003L46.6666 36.667L28.3333 55.0003" stroke="#3C64B1" stroke-width="1.5" stroke-linecap="round" stroke-linejoin="round"/>
</g>
</svg>
