<svg width="24" height="24" viewBox="0 0 24 24" fill="none" xmlns="http://www.w3.org/2000/svg">
<path fill-rule="evenodd" clip-rule="evenodd" d="M15.1695 6.9999C15.093 7.00018 15.0167 7.00358 14.9416 7.01476C14.6479 7.05841 14.3715 7.25011 14.173 7.54587C14.0258 7.76528 13.9236 8.03701 13.8802 8.32756C13.8588 8.47099 13.8561 8.6148 13.8561 8.76014V9.72491V10.1926V10.33C13.8561 10.3668 13.8496 10.3697 13.8797 10.3697H14.3497H14.8179H15.2891C15.4429 10.3697 15.5979 10.3619 15.7513 10.3807C15.9024 10.3993 16.0562 10.4575 16.1784 10.583C16.3502 10.7597 16.4201 11.0644 16.3613 11.3447C16.305 11.6138 16.136 11.7942 15.9428 11.8691C15.9214 11.8774 15.8998 11.8845 15.878 11.8906C15.8654 11.8941 15.8483 11.8935 15.8368 11.9007C15.8312 11.9042 15.8167 11.9087 15.8273 11.9223C15.83 11.9257 15.8411 11.9256 15.8494 11.9255C15.8528 11.9255 15.8556 11.9255 15.8573 11.9257C15.9179 11.9335 15.9782 11.9477 16.037 11.9694C16.2169 12.0358 16.3915 12.1784 16.4749 12.4126C16.5735 12.6896 16.5232 13.0328 16.3639 13.2478C16.2384 13.4171 16.0632 13.5035 15.8898 13.5322C15.8028 13.5465 15.7152 13.5435 15.6278 13.5435H15.1567H14.6855H14.2172H13.9817H13.9228C13.9093 13.5435 13.8714 13.5345 13.8604 13.5435C13.8539 13.5488 13.8561 13.5565 13.8561 13.5705V14.1593V15.1983V16.2481V16.8696C13.8561 16.8758 13.853 16.9031 13.8561 16.9081C13.8599 16.914 13.8915 16.9088 13.8992 16.9088H13.9581H14.1937H14.662H15.1331H15.6028C15.8825 16.9088 16.1489 16.8106 16.3757 16.5812C16.6832 16.2701 16.8648 15.7755 16.8664 15.2564C16.8664 15.2363 16.8665 15.2162 16.8665 15.1961V15.1667C16.8664 15.1223 16.8664 15.0778 16.8664 15.0334V14.4861C16.8664 14.2212 16.8664 13.9563 16.8664 13.6914C16.8664 13.366 16.8664 13.0406 16.8664 12.7152C16.8664 12.3561 16.8664 11.997 16.8664 11.638C16.8664 11.2664 16.8664 10.8948 16.8664 10.5232C16.8664 10.1649 16.8664 9.80662 16.8664 9.44829C16.8664 9.12877 16.8664 8.80929 16.8664 8.48977C16.8664 8.23057 16.8664 7.97137 16.8664 7.71218V7.19439C16.8664 7.13118 16.8664 7.06796 16.8664 7.0047H16.8615C16.7119 7.00503 16.5621 7.0047 16.4124 7.0047H15.9428H15.4716C15.3786 7.0047 15.284 7.00023 15.1896 6.9999H15.1695ZM14.4457 10.8713C14.4419 10.8827 14.4457 10.9079 14.4457 10.9202V11.3596V11.5649C14.4457 11.5821 14.4396 11.641 14.4488 11.6497C14.4568 11.6572 14.491 11.6497 14.5012 11.6497H14.5577H14.6665H14.8826C14.9536 11.6497 15.0247 11.6514 15.0956 11.6497C15.1835 11.6476 15.2687 11.6133 15.3311 11.5292C15.4018 11.4339 15.4271 11.2939 15.4056 11.1654C15.3958 11.1085 15.3769 11.0552 15.349 11.0097C15.2955 10.9223 15.2158 10.8739 15.1314 10.865C15.0913 10.8607 15.0508 10.8627 15.0106 10.8627H14.7945H14.5742H14.467C14.4612 10.8627 14.4573 10.862 14.4545 10.862C14.4502 10.862 14.4483 10.8636 14.4457 10.8713ZM14.91 12.1653H14.4456C14.4456 12.1734 14.4456 12.1815 14.4456 12.1896V12.6291V12.8886V12.9833C14.4456 12.9968 14.4414 13.0254 14.4456 13.0378C14.4518 13.0566 14.5095 13.046 14.528 13.046H14.6455H14.8778H15.1112C15.1871 13.046 15.2599 13.0396 15.3272 12.9853C15.4089 12.9192 15.4646 12.8038 15.4785 12.6753C15.4946 12.5284 15.4582 12.3763 15.3771 12.2766C15.3115 12.1959 15.23 12.1662 15.1435 12.1653C15.1175 12.165 15.0915 12.1649 15.0656 12.1649C15.0137 12.1649 14.9618 12.1653 14.91 12.1653Z" fill="url(#paint0_linear_3933_82930)"/>
<mask id="mask0_3933_82930" style="mask-type:alpha" maskUnits="userSpaceOnUse" x="13" y="7" width="4" height="10">
<path fill-rule="evenodd" clip-rule="evenodd" d="M15.1695 6.9999C15.093 7.00018 15.0167 7.00358 14.9416 7.01476C14.6479 7.05841 14.3715 7.25011 14.173 7.54587C14.0258 7.76528 13.9236 8.03701 13.8802 8.32756C13.8588 8.47099 13.8561 8.6148 13.8561 8.76014V9.72491V10.1926V10.33C13.8561 10.3668 13.8496 10.3697 13.8797 10.3697H14.3497H14.8179H15.2891C15.4429 10.3697 15.5979 10.3619 15.7513 10.3807C15.9024 10.3993 16.0562 10.4575 16.1784 10.583C16.3502 10.7597 16.4201 11.0644 16.3613 11.3447C16.305 11.6138 16.136 11.7942 15.9428 11.8691C15.9214 11.8774 15.8998 11.8845 15.878 11.8906C15.8654 11.8941 15.8483 11.8935 15.8368 11.9007C15.8312 11.9042 15.8167 11.9087 15.8273 11.9223C15.83 11.9257 15.8411 11.9256 15.8494 11.9255C15.8528 11.9255 15.8556 11.9255 15.8573 11.9257C15.9179 11.9335 15.9782 11.9477 16.037 11.9694C16.2169 12.0358 16.3915 12.1784 16.4749 12.4126C16.5735 12.6896 16.5232 13.0328 16.3639 13.2478C16.2384 13.4171 16.0632 13.5035 15.8898 13.5322C15.8028 13.5465 15.7152 13.5435 15.6278 13.5435H15.1567H14.6855H14.2172H13.9817H13.9228C13.9093 13.5435 13.8714 13.5345 13.8604 13.5435C13.8539 13.5488 13.8561 13.5565 13.8561 13.5705V14.1593V15.1983V16.2481V16.8696C13.8561 16.8758 13.853 16.9031 13.8561 16.9081C13.8599 16.914 13.8915 16.9088 13.8992 16.9088H13.9581H14.1937H14.662H15.1331H15.6028C15.8825 16.9088 16.1489 16.8106 16.3757 16.5812C16.6832 16.2701 16.8648 15.7755 16.8664 15.2564C16.8664 15.2363 16.8665 15.2162 16.8665 15.1961V15.1667C16.8664 15.1223 16.8664 15.0778 16.8664 15.0334V14.4861C16.8664 14.2212 16.8664 13.9563 16.8664 13.6914C16.8664 13.366 16.8664 13.0406 16.8664 12.7152C16.8664 12.3561 16.8664 11.997 16.8664 11.638C16.8664 11.2664 16.8664 10.8948 16.8664 10.5232C16.8664 10.1649 16.8664 9.80662 16.8664 9.44829C16.8664 9.12877 16.8664 8.80929 16.8664 8.48977C16.8664 8.23057 16.8664 7.97137 16.8664 7.71218V7.19439C16.8664 7.13118 16.8664 7.06796 16.8664 7.0047H16.8615C16.7119 7.00503 16.5621 7.0047 16.4124 7.0047H15.9428H15.4716C15.3786 7.0047 15.284 7.00023 15.1896 6.9999H15.1695ZM14.4457 10.8713C14.4419 10.8827 14.4457 10.9079 14.4457 10.9202V11.3596V11.5649C14.4457 11.5821 14.4396 11.641 14.4488 11.6497C14.4568 11.6572 14.491 11.6497 14.5012 11.6497H14.5577H14.6665H14.8826C14.9536 11.6497 15.0247 11.6514 15.0956 11.6497C15.1835 11.6476 15.2687 11.6133 15.3311 11.5292C15.4018 11.4339 15.4271 11.2939 15.4056 11.1654C15.3958 11.1085 15.3769 11.0552 15.349 11.0097C15.2955 10.9223 15.2158 10.8739 15.1314 10.865C15.0913 10.8607 15.0508 10.8627 15.0106 10.8627H14.7945H14.5742H14.467C14.4612 10.8627 14.4573 10.862 14.4545 10.862C14.4502 10.862 14.4483 10.8636 14.4457 10.8713ZM14.91 12.1653H14.4456C14.4456 12.1734 14.4456 12.1815 14.4456 12.1896V12.6291V12.8886V12.9833C14.4456 12.9968 14.4414 13.0254 14.4456 13.0378C14.4518 13.0566 14.5095 13.046 14.528 13.046H14.6455H14.8778H15.1112C15.1871 13.046 15.2599 13.0396 15.3272 12.9853C15.4089 12.9192 15.4646 12.8038 15.4785 12.6753C15.4946 12.5284 15.4582 12.3763 15.3771 12.2766C15.3115 12.1959 15.23 12.1662 15.1435 12.1653C15.1175 12.165 15.0915 12.1649 15.0656 12.1649C15.0137 12.1649 14.9618 12.1653 14.91 12.1653Z" fill="white"/>
</mask>
<g mask="url(#mask0_3933_82930)">
</g>
<path fill-rule="evenodd" clip-rule="evenodd" d="M8.03475 7.02263C7.85946 7.0607 7.6912 7.15097 7.54417 7.28402C7.20539 7.59065 7.00268 8.10984 7.00118 8.65619C7.00076 8.81682 7.00118 8.97746 7.00118 9.13814V10.1613V11.3508V12.332V12.6281V12.7063C7.00118 12.7366 7.00097 12.7303 7.02672 12.7466C7.05536 12.7648 7.08414 12.7824 7.11306 12.7996C7.34393 12.9365 7.58741 13.0407 7.83869 13.0817C8.01932 13.1112 8.21221 13.1194 8.3828 13.023C8.51945 12.9457 8.62837 12.8032 8.68433 12.6185C8.72032 12.4997 8.73064 12.3743 8.73064 12.2472V10.839V10.522V10.4209C8.73064 10.4108 8.72635 10.3792 8.73064 10.3707C8.73597 10.3602 8.7782 10.3669 8.79036 10.3669H8.88241H9.06391H9.7924V10.396V11.7861C9.7924 11.9493 9.79265 12.1126 9.7924 12.2758C9.79216 12.4659 9.77132 12.6567 9.71317 12.8315C9.65523 13.0057 9.5623 13.1527 9.44746 13.2647C9.16885 13.5364 8.79969 13.6072 8.46301 13.6276C8.22214 13.6421 7.9803 13.6296 7.74047 13.5975C7.49264 13.5644 7.24191 13.5152 7.00118 13.4284V13.5411V14.3141V15.4418V16.4606V16.7847V16.8757C7.00118 16.8805 6.99853 16.9044 7.00118 16.9083C7.00619 16.9157 7.05184 16.9084 7.06086 16.9084H7.12187H7.24678H7.49375H7.98873H8.48391C8.69384 16.9084 8.90917 16.9277 9.11436 16.8583C9.47317 16.7371 9.77805 16.3977 9.93324 15.9483C10.0184 15.7017 10.0463 15.4395 10.0463 15.1709V14.7284V13.9828V13.0165V11.9167V10.7566V9.62293V8.6018V7.76727V7.2061V7.00073H9.92327H9.40889H8.89429H8.38127C8.35841 7.00073 8.33559 7.00059 8.31277 7.00059C8.21977 7.00059 8.12702 7.00259 8.03475 7.02263Z" fill="url(#paint1_linear_3933_82930)"/>
<mask id="mask1_3933_82930" style="mask-type:alpha" maskUnits="userSpaceOnUse" x="7" y="7" width="4" height="10">
<path fill-rule="evenodd" clip-rule="evenodd" d="M8.03475 7.02263C7.85946 7.0607 7.6912 7.15097 7.54417 7.28402C7.20539 7.59065 7.00268 8.10984 7.00118 8.65619C7.00076 8.81682 7.00118 8.97746 7.00118 9.13814V10.1613V11.3508V12.332V12.6281V12.7063C7.00118 12.7366 7.00097 12.7303 7.02672 12.7466C7.05536 12.7648 7.08414 12.7824 7.11306 12.7996C7.34393 12.9365 7.58741 13.0407 7.83869 13.0817C8.01932 13.1112 8.21221 13.1194 8.3828 13.023C8.51945 12.9457 8.62837 12.8032 8.68433 12.6185C8.72032 12.4997 8.73064 12.3743 8.73064 12.2472V10.839V10.522V10.4209C8.73064 10.4108 8.72635 10.3792 8.73064 10.3707C8.73597 10.3602 8.7782 10.3669 8.79036 10.3669H8.88241H9.06391H9.7924V10.396V11.7861C9.7924 11.9493 9.79265 12.1126 9.7924 12.2758C9.79216 12.4659 9.77132 12.6567 9.71317 12.8315C9.65523 13.0057 9.5623 13.1527 9.44746 13.2647C9.16885 13.5364 8.79969 13.6072 8.46301 13.6276C8.22214 13.6421 7.9803 13.6296 7.74047 13.5975C7.49264 13.5644 7.24191 13.5152 7.00118 13.4284V13.5411V14.3141V15.4418V16.4606V16.7847V16.8757C7.00118 16.8805 6.99853 16.9044 7.00118 16.9083C7.00619 16.9157 7.05184 16.9084 7.06086 16.9084H7.12187H7.24678H7.49375H7.98873H8.48391C8.69384 16.9084 8.90917 16.9277 9.11436 16.8583C9.47317 16.7371 9.77805 16.3977 9.93324 15.9483C10.0184 15.7017 10.0463 15.4395 10.0463 15.1709V14.7284V13.9828V13.0165V11.9167V10.7566V9.62293V8.6018V7.76727V7.2061V7.00073H9.92327H9.40889H8.89429H8.38127C8.35841 7.00073 8.33559 7.00059 8.31277 7.00059C8.21977 7.00059 8.12702 7.00259 8.03475 7.02263Z" fill="white"/>
</mask>
<g mask="url(#mask1_3933_82930)">
</g>
<path fill-rule="evenodd" clip-rule="evenodd" d="M11.5716 7.00398C11.4396 7.01525 11.3089 7.05536 11.1866 7.12316C10.9168 7.27282 10.6925 7.55213 10.5604 7.90258C10.4738 8.13204 10.4301 8.3871 10.4293 8.6442C10.4292 8.6858 10.4293 8.7274 10.4293 8.76905V9.49852V10.7953C10.4375 10.7858 10.446 10.7764 10.4545 10.767C10.4847 10.7341 10.5162 10.7033 10.5486 10.6745C10.7503 10.495 10.9857 10.3944 11.2219 10.3351C11.4141 10.2867 11.6098 10.266 11.8052 10.2609C11.9974 10.256 12.1902 10.2648 12.3814 10.2927C12.5764 10.3211 12.7703 10.3654 12.9621 10.4207C12.9856 10.4275 13.0091 10.4345 13.0326 10.4417C13.0452 10.4456 13.0934 10.4509 13.1001 10.4639C13.1049 10.4732 13.1001 10.5102 13.1001 10.5209V10.6546V11.1589C13.0728 11.1404 13.0454 11.1222 13.0178 11.1047C12.8092 10.9718 12.5892 10.8732 12.3609 10.8246C12.0542 10.7594 11.7071 10.7612 11.4422 11.0083C11.1866 11.2469 11.0971 11.6702 11.1247 12.0727C11.1516 12.4645 11.3125 12.8003 11.5833 12.9569C11.8509 13.1116 12.1614 13.0908 12.4417 13.0162C12.6716 12.955 12.8908 12.8428 13.1001 12.7023V12.7521V13.3397C13.1001 13.3507 13.1049 13.3878 13.1001 13.3972C13.0935 13.4098 13.0447 13.4152 13.0326 13.4189C12.9837 13.434 12.9346 13.4481 12.8854 13.4614C12.6922 13.5137 12.497 13.5553 12.3006 13.5789C12.1084 13.6021 11.9142 13.6067 11.7214 13.5969C11.5245 13.5869 11.3275 13.5596 11.135 13.5022C10.8812 13.4265 10.6287 13.2963 10.4293 13.066V13.1743V13.9311V15.0603V16.1597V16.8116C10.4293 16.8193 10.4255 16.8514 10.4293 16.8577C10.4375 16.8711 10.506 16.8601 10.522 16.8601H10.772H11.2746H11.7745C11.9509 16.8601 12.1305 16.8727 12.3065 16.8558C12.6257 16.8251 12.9279 16.622 13.1384 16.2972C13.3399 15.9861 13.4393 15.5925 13.4393 15.1821V14.8142V14.1107V13.1605V12.0517V10.877V9.71495V8.66201V7.79773V7.21457V7.00064H13.347H12.571H11.798C11.7615 7.00064 11.7248 6.9999 11.6882 6.9999C11.6492 6.9999 11.6103 7.00074 11.5716 7.00398Z" fill="url(#paint2_linear_3933_82930)"/>
<mask id="mask2_3933_82930" style="mask-type:alpha" maskUnits="userSpaceOnUse" x="10" y="7" width="4" height="10">
<path fill-rule="evenodd" clip-rule="evenodd" d="M11.5716 7.00398C11.4396 7.01525 11.3089 7.05536 11.1866 7.12316C10.9168 7.27282 10.6925 7.55213 10.5604 7.90258C10.4738 8.13204 10.4301 8.3871 10.4293 8.6442C10.4292 8.6858 10.4293 8.7274 10.4293 8.76905V9.49852V10.7953C10.4375 10.7858 10.446 10.7764 10.4545 10.767C10.4847 10.7341 10.5162 10.7033 10.5486 10.6745C10.7503 10.495 10.9857 10.3944 11.2219 10.3351C11.4141 10.2867 11.6098 10.266 11.8052 10.2609C11.9974 10.256 12.1902 10.2648 12.3814 10.2927C12.5764 10.3211 12.7703 10.3654 12.9621 10.4207C12.9856 10.4275 13.0091 10.4345 13.0326 10.4417C13.0452 10.4456 13.0934 10.4509 13.1001 10.4639C13.1049 10.4732 13.1001 10.5102 13.1001 10.5209V10.6546V11.1589C13.0728 11.1404 13.0454 11.1222 13.0178 11.1047C12.8092 10.9718 12.5892 10.8732 12.3609 10.8246C12.0542 10.7594 11.7071 10.7612 11.4422 11.0083C11.1866 11.2469 11.0971 11.6702 11.1247 12.0727C11.1516 12.4645 11.3125 12.8003 11.5833 12.9569C11.8509 13.1116 12.1614 13.0908 12.4417 13.0162C12.6716 12.955 12.8908 12.8428 13.1001 12.7023V12.7521V13.3397C13.1001 13.3507 13.1049 13.3878 13.1001 13.3972C13.0935 13.4098 13.0447 13.4152 13.0326 13.4189C12.9837 13.434 12.9346 13.4481 12.8854 13.4614C12.6922 13.5137 12.497 13.5553 12.3006 13.5789C12.1084 13.6021 11.9142 13.6067 11.7214 13.5969C11.5245 13.5869 11.3275 13.5596 11.135 13.5022C10.8812 13.4265 10.6287 13.2963 10.4293 13.066V13.1743V13.9311V15.0603V16.1597V16.8116C10.4293 16.8193 10.4255 16.8514 10.4293 16.8577C10.4375 16.8711 10.506 16.8601 10.522 16.8601H10.772H11.2746H11.7745C11.9509 16.8601 12.1305 16.8727 12.3065 16.8558C12.6257 16.8251 12.9279 16.622 13.1384 16.2972C13.3399 15.9861 13.4393 15.5925 13.4393 15.1821V14.8142V14.1107V13.1605V12.0517V10.877V9.71495V8.66201V7.79773V7.21457V7.00064H13.347H12.571H11.798C11.7615 7.00064 11.7248 6.9999 11.6882 6.9999C11.6492 6.9999 11.6103 7.00074 11.5716 7.00398Z" fill="white"/>
</mask>
<g mask="url(#mask2_3933_82930)">
</g>
<defs>
<linearGradient id="paint0_linear_3933_82930" x1="16.8665" y1="6.57126" x2="13.9565" y2="6.57126" gradientUnits="userSpaceOnUse">
<stop stop-color="#43C311"/>
<stop offset="1" stop-color="#288C00"/>
</linearGradient>
<linearGradient id="paint1_linear_3933_82930" x1="7.00785" y1="16.9364" x2="10.0847" y2="16.9364" gradientUnits="userSpaceOnUse">
<stop stop-color="#21469E"/>
<stop offset="1" stop-color="#1E81EB"/>
</linearGradient>
<linearGradient id="paint2_linear_3933_82930" x1="13.4393" y1="6.9999" x2="10.4276" y2="6.9999" gradientUnits="userSpaceOnUse">
<stop stop-color="#F42D3E"/>
<stop offset="1" stop-color="#9C0017"/>
</linearGradient>
</defs>
</svg>
