<svg width="20" height="20" viewBox="0 0 20 20" fill="none" xmlns="http://www.w3.org/2000/svg">
<path fill-rule="evenodd" clip-rule="evenodd" d="M8.5105 14.0884H14.3C15.2942 14.0884 16.1 13.2825 16.1 12.2884V7.62574C16.018 7.6678 15.9251 7.69154 15.8266 7.69154H12.6424C12.0348 7.69154 11.5424 7.19905 11.5424 6.59154V3.36602C11.5424 3.26107 11.5693 3.16241 11.6167 3.07659H8.5105C7.51639 3.07659 6.7105 3.88248 6.7105 4.87659V12.2884C6.7105 13.2825 7.51639 14.0884 8.5105 14.0884ZM12.7424 3.46416V6.49154H15.7336C15.6865 6.42954 15.6352 6.37034 15.5799 6.31438L12.9064 3.61091C12.8545 3.55842 12.7997 3.50945 12.7424 3.46416ZM13.7596 2.76712L16.4332 5.4706C16.9885 6.03221 17.3 6.79021 17.3 7.58007V12.2884C17.3 13.9453 15.9569 15.2884 14.3 15.2884H8.5105C6.85364 15.2884 5.5105 13.9453 5.5105 12.2884V4.87659C5.5105 3.21974 6.85364 1.87659 8.5105 1.87659H11.6265C12.428 1.87659 13.1961 2.19726 13.7596 2.76712ZM4.58956 6.20177C4.20876 6.20177 3.90007 6.51046 3.90007 6.89125V14.5234C3.90007 15.8489 4.97459 16.9234 6.30007 16.9234H12.2913C12.6915 16.9234 13.0159 16.599 13.0159 16.1988H14.2159C14.2159 17.2617 13.3542 18.1234 12.2913 18.1234H6.30007C4.31185 18.1234 2.70007 16.5116 2.70007 14.5234V6.89125C2.70007 5.84772 3.54602 5.00177 4.58956 5.00177V6.20177Z" fill="currentColor"/>
</svg>
