<svg width="16" height="16" viewBox="0 0 16 16" fill="none" xmlns="http://www.w3.org/2000/svg">
<path fill-rule="evenodd" clip-rule="evenodd" d="M1.56081 4.56141C0.184347 5.02199 0.134842 6.95071 1.48588 7.48129L6.40945 9.41488C6.48988 9.44647 6.55353 9.51012 6.58511 9.59055L8.51871 14.5141C9.04929 15.8652 10.978 15.8157 11.4386 14.4392L15.417 2.54964C15.8238 1.3338 14.6662 0.17618 13.4504 0.583016L1.56081 4.56141ZM1.94028 6.32423C1.67008 6.21811 1.67997 5.83237 1.95527 5.74025L12.905 2.07632L6.76311 8.21826L1.94028 6.32423ZM7.70022 9.03914C7.71525 9.07088 7.72925 9.10323 7.74218 9.13615L9.67577 14.0597C9.78189 14.3299 10.1676 14.32 10.2597 14.0447L14.0641 2.67523L7.70022 9.03914Z" fill="currentColor" stroke="currentColor" stroke-width="0.2"/>
</svg>
