<svg width="24" height="24" viewBox="0 0 24 24" fill="none" xmlns="http://www.w3.org/2000/svg">
<path d="M6.13071 6C10.0446 6 13.9585 6 17.8724 6C17.9096 6.01277 17.9427 6.02554 17.98 6.02979C19.1301 6.17875 19.999 7.18738 19.999 8.37902C19.999 10.7921 20.0031 13.2094 19.9948 15.6225C19.9948 15.831 19.9659 16.0438 19.9121 16.2438C19.6266 17.3078 18.7164 17.9972 17.6035 17.9972C14.7529 17.9972 11.9064 17.9972 9.05579 17.9972C8.13731 17.9972 7.21882 18.0057 6.29621 17.993C5.25774 17.9802 4.36408 17.2695 4.07861 16.2438C4.05378 16.1374 4.02896 16.0268 4 15.9161C4 13.3073 4 10.6985 4 8.08962C4.00827 8.06408 4.02482 8.03855 4.02896 8.01301C4.18618 7.13631 4.67024 6.52347 5.46461 6.183C5.67561 6.09363 5.9073 6.05958 6.13071 6ZM18.4516 8.46413C18.3978 8.50244 18.3689 8.52371 18.3399 8.54499C16.7139 9.86005 15.0921 11.1794 13.4662 12.4944C12.5642 13.2222 11.4141 13.2137 10.508 12.4816C9.07648 11.3155 7.63669 10.1452 6.19691 8.97909C5.99004 8.80886 5.77904 8.64288 5.54735 8.45562C5.54735 8.54499 5.54735 8.60032 5.54735 8.65139C5.54735 10.9325 5.54735 13.2179 5.54735 15.499C5.54735 16.0736 5.85351 16.3928 6.41205 16.3928C10.1356 16.3928 13.8633 16.3928 17.5869 16.3928C18.1455 16.3928 18.4475 16.0693 18.4475 15.4948C18.4475 13.2137 18.4475 10.9283 18.4475 8.64713C18.4516 8.59606 18.4516 8.54499 18.4516 8.46413ZM16.9663 7.61722C13.6441 7.61722 10.359 7.61722 7.04506 7.61722C7.09057 7.65552 7.11125 7.6768 7.13608 7.69808C8.55517 8.85141 9.97841 10.0047 11.3975 11.1581C11.8485 11.5241 12.1546 11.5241 12.6056 11.1581C13.8675 10.1324 15.1294 9.11102 16.3871 8.08962C16.5733 7.94066 16.7553 7.79171 16.9663 7.61722Z" fill="currentColor"/>
</svg>
