<svg width="24" height="24" viewBox="0 0 24 24" fill="none" xmlns="http://www.w3.org/2000/svg">
<g clip-path="url(#clip0_266_34510)">
<path d="M11.9954 21C6.99384 20.9815 2.99538 16.9784 3 11.9954C3.00463 7.00309 7.01695 2.99538 12.0046 3C17.0062 3.00463 21.0277 7.04931 21 12.0416C20.9676 17.0154 16.9461 21.0185 11.9954 21ZM11.9723 19.4977C16.1048 19.5162 19.4884 16.1418 19.4977 12C19.5069 7.8906 16.1371 4.51618 12.0092 4.50694C7.89985 4.49307 4.52081 7.86287 4.50694 11.9861C4.48845 16.0955 7.85363 19.4792 11.9723 19.4977Z" fill="currentColor"/>
<path d="M12.7581 9.7583C12.7581 11.5241 12.7581 13.2298 12.7581 14.9632C13.0031 14.9817 13.2342 14.9956 13.4884 15.0141C13.4884 15.4994 13.4884 15.9709 13.4884 16.4702C12.4992 16.4702 11.5146 16.4702 10.5069 16.4702C10.5069 15.9894 10.5069 15.5179 10.5069 15.0141C10.7473 15.0002 10.9738 14.9817 11.2234 14.9679C11.2234 13.7336 11.2234 12.5133 11.2234 11.2699C10.9877 11.2699 10.7704 11.2699 10.5162 11.2699C10.5162 10.7521 10.5162 10.2622 10.5162 9.76292C11.265 9.7583 11.9954 9.7583 12.7581 9.7583Z" fill="currentColor"/>
<path d="M11.265 8.98174C11.265 8.48713 11.265 8.02488 11.265 7.53027C11.7458 7.53027 12.2265 7.53027 12.7257 7.53027C12.7257 8.01101 12.7257 8.48251 12.7257 8.98174C12.245 8.98174 11.7735 8.98174 11.265 8.98174Z" fill="currentColor"/>
</g>
<defs>
<clipPath id="clip0_266_34510">
<rect width="18" height="18" fill="currentColor" transform="translate(3 3)"/>
</clipPath>
</defs>
</svg>
