<svg width="24" height="24" viewBox="0 0 24 24" fill="none" xmlns="http://www.w3.org/2000/svg">
<g clip-path="url(#clip0_266_34529)">
<path d="M16.8691 19.7866C17.106 19.3506 17.33 18.9269 17.5668 18.5033C17.5927 18.4539 17.6831 18.4128 17.7434 18.4128C18.2043 18.4045 18.6652 18.4087 19.1261 18.4087C19.4233 18.4087 19.5525 18.2853 19.5525 18.0015C19.5525 15.3073 19.5525 12.6131 19.5525 9.91895C19.5525 9.86959 19.5482 9.82023 19.5439 9.75853C14.5087 9.75853 9.49076 9.75853 4.44697 9.75853C4.44697 9.82434 4.44697 9.87781 4.44697 9.9354C4.44697 12.6172 4.44697 15.3032 4.44697 17.985C4.44697 18.2935 4.57188 18.4128 4.89061 18.4128C5.35149 18.4128 5.81236 18.4087 6.27324 18.4169C6.33354 18.4169 6.41538 18.4662 6.44553 18.5156C6.68243 18.9105 6.91071 19.3095 7.1433 19.7084C7.15192 19.729 7.16484 19.7455 7.18207 19.7743C7.1433 19.7825 7.12177 19.7907 7.10023 19.7907C6.28616 19.7866 5.47209 19.8031 4.65802 19.7784C3.80519 19.7537 3.03849 19.0298 3.01696 18.2195C2.99112 17.2487 2.99973 16.2739 2.99973 15.3032C2.99973 12.1524 2.99973 8.99758 2.99542 5.84684C2.99973 5.15582 3.27109 4.61699 3.89133 4.24679C4.20576 4.0617 4.55895 4 4.92076 4C9.64151 4 14.3623 4 19.083 4C20.0564 4 20.7758 4.53883 20.9653 5.40261C20.9997 5.55069 20.9997 5.71111 20.9997 5.8633C20.9997 9.88604 20.9997 13.9088 20.9997 17.9274C20.9997 18.8282 20.513 19.4987 19.6903 19.7208C19.518 19.766 19.3371 19.7866 19.1605 19.7866C18.4197 19.7948 17.6745 19.7907 16.9337 19.7907C16.9035 19.7948 16.8734 19.7866 16.8691 19.7866ZM19.5439 8.3518C19.5482 8.29833 19.5525 8.25309 19.5525 8.20784C19.5525 7.40165 19.5525 6.59545 19.5525 5.78926C19.5525 5.51778 19.4233 5.39439 19.1347 5.39439C14.3838 5.39439 9.6329 5.39439 4.88631 5.39439C4.57188 5.39439 4.45127 5.50956 4.45127 5.80982C4.45127 6.59956 4.45127 7.38931 4.45127 8.17905C4.45127 8.23663 4.45558 8.2901 4.45989 8.3518C9.49076 8.3518 14.513 8.3518 19.5439 8.3518Z" fill="currentColor"/>
<path d="M11.2441 13.2177C11.3001 13.2548 11.3604 13.2918 11.4164 13.3329C11.6834 13.5303 11.7566 13.8759 11.5843 14.1473C11.4077 14.4229 11.033 14.5463 10.7401 14.3818C10.1673 14.0651 9.59869 13.7319 9.04306 13.3864C8.75017 13.2054 8.68125 12.8229 8.88369 12.5514C9.25842 12.0496 9.64607 11.5519 10.0423 11.0665C10.2534 10.8074 10.5937 10.7621 10.8823 10.9308C11.1536 11.0871 11.2613 11.3997 11.1407 11.6917C11.1278 11.7246 11.1148 11.7534 11.0933 11.7987C11.2871 11.7822 11.468 11.7575 11.6489 11.7452C13.3503 11.6506 14.7416 12.2388 15.8054 13.4974C16.5851 14.4147 16.9167 15.4841 16.8435 16.6605C16.71 18.8488 14.9612 20.638 12.6698 20.9506C10.0768 21.3044 7.65182 19.6138 7.21248 17.1418C7.04019 16.1793 7.17371 15.2538 7.61305 14.3694C7.75519 14.0815 8.06101 13.917 8.3539 13.9581C8.70709 14.0075 8.96553 14.2419 8.99137 14.5792C9.00429 14.7232 8.95261 14.8877 8.888 15.0234C8.04378 16.8168 9.03444 18.9063 11.0029 19.4781C12.9971 20.0539 15.0689 18.8035 15.3704 16.8374C15.6762 14.863 14.0481 13.0902 11.9591 13.119C11.7179 13.1231 11.481 13.156 11.2398 13.1766C11.2441 13.1889 11.2441 13.2013 11.2441 13.2177Z" fill="currentColor"/>
<path d="M8.55204 7.49223C7.8155 7.49223 7.07896 7.49223 6.34242 7.49223C5.92892 7.49223 5.63603 7.2331 5.64034 6.87114C5.64464 6.50917 5.93754 6.25415 6.35103 6.25415C7.84565 6.25415 9.34457 6.25415 10.8392 6.25415C11.1752 6.25415 11.4379 6.48449 11.4853 6.80944C11.5283 7.08502 11.3259 7.38118 11.0244 7.46344C10.9426 7.48812 10.8478 7.48812 10.7573 7.48812C10.0251 7.49635 9.28858 7.49223 8.55204 7.49223Z" fill="currentColor"/>
<path d="M15.6719 7.52917C15.2972 7.52505 14.9871 7.22479 14.9914 6.87105C14.9957 6.50497 15.3144 6.21704 15.7021 6.22527C16.0682 6.22938 16.3697 6.52554 16.374 6.87516C16.3783 7.23713 16.0639 7.52917 15.6719 7.52917Z" fill="currentColor"/>
<path d="M17.6705 7.52924C17.2871 7.52924 16.9856 7.24543 16.9856 6.87935C16.9856 6.51327 17.2828 6.22535 17.6619 6.22123C18.0495 6.21712 18.3639 6.51739 18.3596 6.87935C18.3553 7.2372 18.0495 7.52924 17.6705 7.52924Z" fill="currentColor"/>
<path d="M13.682 7.52917C13.3029 7.52505 13.0057 7.2289 13.0101 6.86694C13.0144 6.50086 13.3331 6.21705 13.7251 6.22527C14.0998 6.2335 14.3927 6.52965 14.3798 6.89984C14.3711 7.26181 14.0696 7.53328 13.682 7.52917Z" fill="currentColor"/>
</g>
<defs>
<clipPath id="clip0_266_34529">
<rect width="18" height="17" fill="currentColor" transform="translate(3 4)"/>
</clipPath>
</defs>
</svg>
