<?xml version="1.0" encoding="utf-8"?>
<!-- Generator: Adobe Illustrator 26.5.0, SVG Export Plug-In . SVG Version: 6.00 Build 0)  -->
<svg version="1.1" id="圖層_1" xmlns="http://www.w3.org/2000/svg" xmlns:xlink="http://www.w3.org/1999/xlink" x="0px" y="0px"
	 viewBox="0 0 596.75 574.9" style="enable-background:new 0 0 596.75 574.9;" xml:space="preserve">
<path fill="currentColor" d="M592.82,295.72c-2.64-13.4-7.35-24.31-11.51-33.94l-0.5-1.17c-0.59-1.37-1.21-2.74-1.87-4.1
	c1.29-9.01,2.49-20.03,1.86-31.74c-0.6-11.14-1.79-24.36-6.07-37.97c-5.62-17.86-14.24-32.9-27.97-48.77
	c-7.28-8.42-15.46-14.42-21.43-18.79l-1.49-1.1c-5.29-3.9-11.06-7.28-17.14-10.05l-0.14-0.06c-6.88-3.13-15.44-7.03-25.25-9.67
	c-1.89-0.51-3.77-0.96-5.62-1.36c-1.25-1.9-2.52-3.74-3.84-5.53c-8.9-12.17-19.03-24.99-32.77-36.29
	c-10.08-8.29-23.74-18.87-40.11-27.19c-14.36-7.29-29.01-13.21-43.55-17.59c-16.44-4.95-32.18-7.33-46.74-9.16
	c-7.92-1-15.07-1.39-21.89-1.19c-6.23,0.18-11.76,0.93-16.2,1.53l-3.21,0.43c-4.62,0.6-10.36,1.35-16.81,3.05
	c-3.91,1.03-7.82,2.35-11.99,4.02l-1.51,0.6c-5.73,2.29-12.23,4.89-19.11,8.61c-10.59,5.73-19.25,12.77-26.21,18.42l-0.82,0.67
	c-4.58,3.72-9.06,7.86-13.47,12.46c-6.99-0.43-13.88-0.49-20.56-0.19c-10.3,0.47-20.18,1.99-27.39,3.11
	c-6.95,1.08-13.67,2.7-19.95,4.83c-29.59,10.03-54.33,26.95-71.53,48.94c-6.92,8.85-15.53,19.85-21.96,34.51l-0.72,1.64
	c-2.78,6.33-6.25,14.2-8.78,23.03c-2.93,10.2-4.07,19.58-5.08,27.85l-0.24,2c-2.24,18.2-0.22,34.95,2.29,50.34
	c0.69,4.2,1.59,8.37,2.74,12.66c-1.31,4.75-2.3,9.35-3,13.97c-2.14,14.09-4.17,31.06-2.91,50.06c2,30.18,7.2,55.76,15.87,78.19
	c5.18,13.38,11.18,27.7,19.96,41.81c4.52,7.26,9.26,13.39,13.44,18.81c4.64,6,9.69,12.39,15.89,18.67
	c21.85,22.14,49.64,38.84,80.37,48.3c6.56,2.02,13.26,3.55,19.93,4.56l1.37,0.21c6.35,0.97,13.29,2.02,20.82,2.54
	c3.18,2.51,6.24,4.76,9.01,6.81l0.84,0.62c5.08,3.75,10.55,7.16,16.27,10.15c7.79,4.07,16.48,7.83,26.56,11.5
	c5.97,2.17,12.15,3.94,18.39,5.25c15.44,3.24,30.55,4.88,45.06,4.88c2.91,0,5.79-0.07,8.65-0.2c14.97-0.69,30.7-2.72,49.51-6.38
	c12.87-2.51,23.41-5.02,33.19-7.91c6.12-1.81,11.68-3.72,17-5.84l0.41-0.16c8.35-3.33,17.81-7.1,27.37-12.42
	c10.05-5.59,18.08-11.99,25.18-17.64l0.51-0.41c6.15-4.9,11.4-10.02,16.03-15.67c6.97-8.48,15.78-20.18,22.78-34.88
	c2.53-1.09,4.95-2.18,7.27-3.23l0.46-0.21c4.68-2.12,9.22-4.57,13.48-7.31c23.25-14.91,41.45-34.6,52.65-56.92
	c6.57-13.1,10.84-24.36,13.41-35.42c1.89-8.09,2.77-15.59,3.54-22.21l0.24-2.07c0.53-4.41,0.82-8.81,0.88-13.06
	C596.92,318.35,594.59,304.71,592.82,295.72z"/>
</svg>
