<?xml version="1.0" encoding="utf-8"?>
<!-- Generator: Adobe Illustrator 26.1.0, SVG Export Plug-In . SVG Version: 6.00 Build 0)  -->
<svg version="1.1" id="圖層_1" xmlns="http://www.w3.org/2000/svg" xmlns:xlink="http://www.w3.org/1999/xlink" x="0px" y="0px"
	 viewBox="0 0 97.44 95.92" style="enable-background:new 0 0 97.44 95.92;" xml:space="preserve">
<style type="text/css">
	.st0{clip-path:url(#SVGID_00000025434677634394155470000006544221390795514527_);}
	.st1{fill:#D3DDAC;}
	.st2{clip-path:url(#SVGID_00000111170512269215551270000007111770024753887880_);}
	.st3{fill:none;stroke:#FFFFFF;stroke-width:0.75;stroke-miterlimit:10;}
	.st4{clip-path:url(#SVGID_00000062150843201910766500000013042247922822764459_);fill:#D3DDAC;}
	.st5{clip-path:url(#SVGID_00000098903072597895469410000011748147427143529905_);}
	.st6{clip-path:url(#SVGID_00000153667184683268301970000010838313396923313290_);fill:#D3DDAC;}
	.st7{clip-path:url(#SVGID_00000153667184683268301970000010838313396923313290_);}
	.st8{clip-path:url(#SVGID_00000163787677117455214750000017273958430436619156_);}
	.st9{clip-path:url(#SVGID_00000022531642745385350560000009565610734400593841_);fill:#D3DDAC;}
	.st10{clip-path:url(#SVGID_00000022531642745385350560000009565610734400593841_);}
	.st11{clip-path:url(#SVGID_00000115476939865058810410000010014212639734571418_);}
	.st12{clip-path:url(#SVGID_00000088815520570303853210000012051828840484260542_);}
	.st13{fill:#C7DDD8;}
	
		.st14{clip-path:url(#SVGID_00000142141282299085233290000004033028221249450914_);fill:none;stroke:#FFFFFF;stroke-width:2;stroke-miterlimit:10;}
	.st15{fill:none;stroke:#FFFFFF;stroke-width:2;stroke-miterlimit:10;}
	.st16{clip-path:url(#SVGID_00000106832722565639480270000005223855811741969293_);fill:#C7DDD8;}
	.st17{clip-path:url(#SVGID_00000112629798164564926320000002622995391048736417_);fill:#C7DDD8;}
	.st18{clip-path:url(#SVGID_00000001649701789300186720000008261789853070041260_);fill:#C7DDD8;}
	.st19{clip-path:url(#SVGID_00000001649701789300186720000008261789853070041260_);}
	.st20{clip-path:url(#SVGID_00000106829043241388733180000001311294749186246292_);}
	.st21{clip-path:url(#SVGID_00000079481881041116916560000009154077912123265957_);}
	.st22{fill:#FFCFCF;}
	.st23{fill:#FFFFFF;}
	.st24{clip-path:url(#SVGID_00000165936091194264600780000002558567987928838305_);}
	.st25{clip-path:url(#SVGID_00000137829593813707508310000018257971727851143812_);fill:#FFCFCF;}
	.st26{clip-path:url(#SVGID_00000137829593813707508310000018257971727851143812_);}
</style>
<g>
	<defs>
		<rect id="SVGID_00000164500269433933814310000016954667394503036095_" width="97.44" height="95.92"/>
	</defs>
	<clipPath id="SVGID_00000024680520940733991630000005805304901120605851_">
		<use xlink:href="#SVGID_00000164500269433933814310000016954667394503036095_"  style="overflow:visible;"/>
	</clipPath>
	<polygon style="clip-path:url(#SVGID_00000024680520940733991630000005805304901120605851_);fill:currentColor;" points="16.76,0.29 
		3.27,0.74 7.38,5.66 -0.92,14.18 4.65,22.72 4.08,27.8 5.76,35.98 2.51,45.45 2.06,55.35 -1.24,65.28 2.45,75.73 -0.08,85.9 
		-1.7,95.62 16.76,95.62 17.55,95.62 99.15,95.62 99.15,0.29 	"/>
	<g style="clip-path:url(#SVGID_00000024680520940733991630000005805304901120605851_);">
		<defs>
			<polygon id="SVGID_00000152946941979524673290000003132517225985965953_" points="16.76,0.29 3.27,0.74 7.38,5.66 -0.92,14.18 
				4.65,22.72 4.08,27.8 5.76,35.98 2.51,45.45 2.06,55.35 -1.24,65.28 2.45,75.73 -0.08,85.9 -1.7,95.62 16.76,95.62 17.55,95.62 
				99.15,95.62 99.15,0.29 			"/>
		</defs>
		<clipPath id="SVGID_00000101081300055519311200000001579897655903530419_">
			<use xlink:href="#SVGID_00000152946941979524673290000003132517225985965953_"  style="overflow:visible;"/>
		</clipPath>
	</g>
	<g style="clip-path:url(#SVGID_00000024680520940733991630000005805304901120605851_);">
		<defs>
			<polygon id="SVGID_00000044155002440894953150000013261575485975969186_" points="16.76,0.29 3.27,0.74 7.38,5.66 -0.92,14.18 
				4.65,22.72 4.08,27.8 5.76,35.98 2.51,45.45 2.06,55.35 -1.24,65.28 2.45,75.73 -0.08,85.9 -1.7,95.62 16.76,95.62 17.55,95.62 
				99.15,95.62 99.15,0.29 			"/>
		</defs>
		<clipPath id="SVGID_00000170271073667397081570000000445578039215513509_">
			<use xlink:href="#SVGID_00000044155002440894953150000013261575485975969186_"  style="overflow:visible;"/>
		</clipPath>
		<g style="clip-path:url(#SVGID_00000170271073667397081570000000445578039215513509_);">
			<g>
				<line class="st3" x1="10.14" y1="-19.18" x2="10.14" y2="115.1"/>
				<line class="st3" x1="29.43" y1="-19.18" x2="29.43" y2="115.1"/>
				<line class="st3" x1="48.72" y1="-19.18" x2="48.72" y2="115.1"/>
				<line class="st3" x1="68.01" y1="-19.18" x2="68.01" y2="115.1"/>
				<line class="st3" x1="87.3" y1="-19.18" x2="87.3" y2="115.1"/>
			</g>
			<g>
				<line class="st3" x1="-19.49" y1="18.83" x2="116.93" y2="18.83"/>
				<line class="st3" x1="-19.49" y1="38.25" x2="116.93" y2="38.25"/>
				<line class="st3" x1="-19.49" y1="57.67" x2="116.93" y2="57.67"/>
				<line class="st3" x1="-19.49" y1="77.08" x2="116.93" y2="77.08"/>
			</g>
		</g>
	</g>
</g>
</svg>
